<?xml version="1.0" encoding="UTF-8" standalone="no"?>
<!DOCTYPE svg PUBLIC "-//W3C//DTD SVG 1.1//EN"
 "http://www.w3.org/Graphics/SVG/1.1/DTD/svg11.dtd">
<!-- Generated by graphviz version 2.43.0 (0)
 -->
<!-- Title: build/FRI&#45;Client&#45;SDK_Cpp/src/protobuf_gen/FRIMessages.pb.h Pages: 1 -->
<svg width="1039pt" height="362pt"
 viewBox="0.00 0.00 1039.00 362.00" xmlns="http://www.w3.org/2000/svg" xmlns:xlink="http://www.w3.org/1999/xlink">
<g id="graph0" class="graph" transform="scale(1 1) rotate(0) translate(4 358)">
<title>build/FRI&#45;Client&#45;SDK_Cpp/src/protobuf_gen/FRIMessages.pb.h</title>
<polygon fill="white" stroke="transparent" points="-4,4 -4,-358 1035,-358 1035,4 -4,4"/>
<!-- Node1 -->
<g id="node1" class="node">
<title>Node1</title>
<g id="a_node1"><a xlink:title=" ">
<polygon fill="#bfbfbf" stroke="black" points="463,-312.5 463,-353.5 579,-353.5 579,-312.5 463,-312.5"/>
<text text-anchor="start" x="471" y="-341.5" font-family="Helvetica,sans-Serif" font-size="10.00">build/FRI&#45;Client&#45;SDK</text>
<text text-anchor="start" x="471" y="-330.5" font-family="Helvetica,sans-Serif" font-size="10.00">_Cpp/src/protobuf_gen</text>
<text text-anchor="middle" x="521" y="-319.5" font-family="Helvetica,sans-Serif" font-size="10.00">/FRIMessages.pb.h</text>
</a>
</g>
</g>
<!-- Node2 -->
<g id="node2" class="node">
<title>Node2</title>
<g id="a_node2"><a xlink:href="fri_client_application_8cpp.html" target="_top" xlink:title=" ">
<polygon fill="white" stroke="black" points="0,-6 0,-36 184,-36 184,-6 0,-6"/>
<text text-anchor="start" x="8" y="-24" font-family="Helvetica,sans-Serif" font-size="10.00">build/FRI&#45;Client&#45;SDK</text>
<text text-anchor="middle" x="92" y="-13" font-family="Helvetica,sans-Serif" font-size="10.00">_Cpp/src/base/friClientApplication.cpp</text>
</a>
</g>
</g>
<!-- Node1&#45;&gt;Node2 -->
<g id="edge1" class="edge">
<title>Node1&#45;&gt;Node2</title>
<path fill="none" stroke="midnightblue" d="M452.92,-319.98C355.61,-298.75 179.89,-244.49 102,-120 85.76,-94.05 87.34,-56.48 89.76,-36.22"/>
<polygon fill="midnightblue" stroke="midnightblue" points="452.44,-323.45 462.95,-322.11 453.9,-316.61 452.44,-323.45"/>
</g>
<!-- Node3 -->
<g id="node3" class="node">
<title>Node3</title>
<g id="a_node3"><a xlink:href="fri_client_data_8h.html" target="_top" xlink:title=" ">
<polygon fill="white" stroke="black" points="281,-84 281,-114 427,-114 427,-84 281,-84"/>
<text text-anchor="start" x="289" y="-102" font-family="Helvetica,sans-Serif" font-size="10.00">build/FRI&#45;Client&#45;SDK</text>
<text text-anchor="middle" x="354" y="-91" font-family="Helvetica,sans-Serif" font-size="10.00">_Cpp/src/base/friClientData.h</text>
</a>
</g>
</g>
<!-- Node1&#45;&gt;Node3 -->
<g id="edge2" class="edge">
<title>Node1&#45;&gt;Node3</title>
<path fill="none" stroke="midnightblue" d="M501.79,-303.99C477.71,-269.05 434.98,-207.62 397,-156 386.39,-141.58 373.9,-125.4 365.12,-114.15"/>
<polygon fill="midnightblue" stroke="midnightblue" points="498.95,-306.03 507.5,-312.28 504.71,-302.06 498.95,-306.03"/>
</g>
<!-- Node7 -->
<g id="node7" class="node">
<title>Node7</title>
<g id="a_node7"><a xlink:href="fri_transformation_client_8cpp.html" target="_top" xlink:title=" ">
<polygon fill="white" stroke="black" points="810.5,-0.5 810.5,-41.5 947.5,-41.5 947.5,-0.5 810.5,-0.5"/>
<text text-anchor="start" x="818.5" y="-29.5" font-family="Helvetica,sans-Serif" font-size="10.00">build/FRI&#45;Client&#45;SDK</text>
<text text-anchor="start" x="818.5" y="-18.5" font-family="Helvetica,sans-Serif" font-size="10.00">_Cpp/src/client_trafo</text>
<text text-anchor="middle" x="879" y="-7.5" font-family="Helvetica,sans-Serif" font-size="10.00">/friTransformationClient.cpp</text>
</a>
</g>
</g>
<!-- Node1&#45;&gt;Node7 -->
<g id="edge8" class="edge">
<title>Node1&#45;&gt;Node7</title>
<path fill="none" stroke="midnightblue" d="M589.09,-320.97C661.34,-305.74 773.98,-271.34 840,-198 879.99,-153.57 882.02,-77.47 880.47,-41.68"/>
<polygon fill="midnightblue" stroke="midnightblue" points="588.27,-317.56 579.17,-322.99 589.67,-324.42 588.27,-317.56"/>
</g>
<!-- Node8 -->
<g id="node8" class="node">
<title>Node8</title>
<g id="a_node8"><a xlink:href="fri_command_message_encoder_8h.html" target="_top" xlink:title=" ">
<polygon fill="white" stroke="black" points="237.5,-156.5 237.5,-197.5 388.5,-197.5 388.5,-156.5 237.5,-156.5"/>
<text text-anchor="start" x="245.5" y="-185.5" font-family="Helvetica,sans-Serif" font-size="10.00">build/FRI&#45;Client&#45;SDK</text>
<text text-anchor="start" x="245.5" y="-174.5" font-family="Helvetica,sans-Serif" font-size="10.00">_Cpp/src/protobuf/friCommand</text>
<text text-anchor="middle" x="313" y="-163.5" font-family="Helvetica,sans-Serif" font-size="10.00">MessageEncoder.h</text>
</a>
</g>
</g>
<!-- Node1&#45;&gt;Node8 -->
<g id="edge9" class="edge">
<title>Node1&#45;&gt;Node8</title>
<path fill="none" stroke="midnightblue" d="M459.71,-308.33C440.66,-299.59 420.17,-288.67 403,-276 372.33,-253.38 343.81,-219.2 327.4,-197.77"/>
<polygon fill="midnightblue" stroke="midnightblue" points="458.37,-311.57 468.93,-312.45 461.23,-305.18 458.37,-311.57"/>
</g>
<!-- Node10 -->
<g id="node10" class="node">
<title>Node10</title>
<g id="a_node10"><a xlink:href="fri_monitoring_message_decoder_8h.html" target="_top" xlink:title=" ">
<polygon fill="white" stroke="black" points="445.5,-156.5 445.5,-197.5 596.5,-197.5 596.5,-156.5 445.5,-156.5"/>
<text text-anchor="start" x="453.5" y="-185.5" font-family="Helvetica,sans-Serif" font-size="10.00">build/FRI&#45;Client&#45;SDK</text>
<text text-anchor="start" x="453.5" y="-174.5" font-family="Helvetica,sans-Serif" font-size="10.00">_Cpp/src/protobuf/friMonitoring</text>
<text text-anchor="middle" x="521" y="-163.5" font-family="Helvetica,sans-Serif" font-size="10.00">MessageDecoder.h</text>
</a>
</g>
</g>
<!-- Node1&#45;&gt;Node10 -->
<g id="edge12" class="edge">
<title>Node1&#45;&gt;Node10</title>
<path fill="none" stroke="midnightblue" d="M521,-302.36C521,-271.61 521,-224.36 521,-197.83"/>
<polygon fill="midnightblue" stroke="midnightblue" points="517.5,-302.5 521,-312.5 524.5,-302.5 517.5,-302.5"/>
</g>
<!-- Node12 -->
<g id="node12" class="node">
<title>Node12</title>
<g id="a_node12"><a xlink:href="pb__frimessages__callbacks_8h.html" target="_top" xlink:title=" ">
<polygon fill="white" stroke="black" points="560,-234.5 560,-275.5 690,-275.5 690,-234.5 560,-234.5"/>
<text text-anchor="start" x="568" y="-263.5" font-family="Helvetica,sans-Serif" font-size="10.00">build/FRI&#45;Client&#45;SDK</text>
<text text-anchor="start" x="568" y="-252.5" font-family="Helvetica,sans-Serif" font-size="10.00">_Cpp/src/protobuf/pb</text>
<text text-anchor="middle" x="625" y="-241.5" font-family="Helvetica,sans-Serif" font-size="10.00">_frimessages_callbacks.h</text>
</a>
</g>
</g>
<!-- Node1&#45;&gt;Node12 -->
<g id="edge15" class="edge">
<title>Node1&#45;&gt;Node12</title>
<path fill="none" stroke="midnightblue" d="M556.1,-306.35C569.89,-296.27 585.46,-284.89 598.31,-275.51"/>
<polygon fill="midnightblue" stroke="midnightblue" points="553.79,-303.7 547.78,-312.43 557.92,-309.35 553.79,-303.7"/>
</g>
<!-- Node14 -->
<g id="node14" class="node">
<title>Node14</title>
<g id="a_node14"><a xlink:href="_f_r_i_messages_8pb_8c.html" target="_top" xlink:title=" ">
<polygon fill="white" stroke="black" points="915,-234.5 915,-275.5 1031,-275.5 1031,-234.5 915,-234.5"/>
<text text-anchor="start" x="923" y="-263.5" font-family="Helvetica,sans-Serif" font-size="10.00">build/FRI&#45;Client&#45;SDK</text>
<text text-anchor="start" x="923" y="-252.5" font-family="Helvetica,sans-Serif" font-size="10.00">_Cpp/src/protobuf_gen</text>
<text text-anchor="middle" x="973" y="-241.5" font-family="Helvetica,sans-Serif" font-size="10.00">/FRIMessages.pb.c</text>
</a>
</g>
</g>
<!-- Node1&#45;&gt;Node14 -->
<g id="edge22" class="edge">
<title>Node1&#45;&gt;Node14</title>
<path fill="none" stroke="midnightblue" d="M588.99,-324.57C665.37,-315.63 792.83,-298.9 901,-276 905.57,-275.03 910.28,-273.94 914.99,-272.78"/>
<polygon fill="midnightblue" stroke="midnightblue" points="588.55,-321.1 579.02,-325.73 589.35,-328.05 588.55,-321.1"/>
</g>
<!-- Node3&#45;&gt;Node2 -->
<g id="edge3" class="edge">
<title>Node3&#45;&gt;Node2</title>
<path fill="none" stroke="midnightblue" d="M295.97,-81.17C249.29,-67.63 184.47,-48.82 140.52,-36.07"/>
<polygon fill="midnightblue" stroke="midnightblue" points="295.06,-84.55 305.64,-83.97 297.01,-77.82 295.06,-84.55"/>
</g>
<!-- Node4 -->
<g id="node4" class="node">
<title>Node4</title>
<g id="a_node4"><a xlink:href="fri_l_b_r_client_8cpp.html" target="_top" xlink:title=" ">
<polygon fill="white" stroke="black" points="219.5,-6 219.5,-36 392.5,-36 392.5,-6 219.5,-6"/>
<text text-anchor="start" x="227.5" y="-24" font-family="Helvetica,sans-Serif" font-size="10.00">build/FRI&#45;Client&#45;SDK</text>
<text text-anchor="middle" x="306" y="-13" font-family="Helvetica,sans-Serif" font-size="10.00">_Cpp/src/client_lbr/friLBRClient.cpp</text>
</a>
</g>
</g>
<!-- Node3&#45;&gt;Node4 -->
<g id="edge4" class="edge">
<title>Node3&#45;&gt;Node4</title>
<path fill="none" stroke="midnightblue" d="M339.52,-75.07C331.54,-62.44 321.88,-47.15 314.99,-36.23"/>
<polygon fill="midnightblue" stroke="midnightblue" points="336.67,-77.12 344.97,-83.7 342.59,-73.38 336.67,-77.12"/>
</g>
<!-- Node5 -->
<g id="node5" class="node">
<title>Node5</title>
<g id="a_node5"><a xlink:href="fri_l_b_r_command_8cpp.html" target="_top" xlink:title=" ">
<polygon fill="white" stroke="black" points="599.5,-6 599.5,-36 792.5,-36 792.5,-6 599.5,-6"/>
<text text-anchor="start" x="607.5" y="-24" font-family="Helvetica,sans-Serif" font-size="10.00">build/FRI&#45;Client&#45;SDK</text>
<text text-anchor="middle" x="696" y="-13" font-family="Helvetica,sans-Serif" font-size="10.00">_Cpp/src/client_lbr/friLBRCommand.cpp</text>
</a>
</g>
</g>
<!-- Node3&#45;&gt;Node5 -->
<g id="edge5" class="edge">
<title>Node3&#45;&gt;Node5</title>
<path fill="none" stroke="midnightblue" d="M420.76,-81.56C425.92,-80.34 431.04,-79.14 436,-78 501.25,-63.02 576,-47.04 628.55,-36"/>
<polygon fill="midnightblue" stroke="midnightblue" points="419.77,-78.2 410.86,-83.92 421.4,-85 419.77,-78.2"/>
</g>
<!-- Node6 -->
<g id="node6" class="node">
<title>Node6</title>
<g id="a_node6"><a xlink:href="fri_l_b_r_state_8cpp.html" target="_top" xlink:title=" ">
<polygon fill="white" stroke="black" points="410.5,-6 410.5,-36 581.5,-36 581.5,-6 410.5,-6"/>
<text text-anchor="start" x="418.5" y="-24" font-family="Helvetica,sans-Serif" font-size="10.00">build/FRI&#45;Client&#45;SDK</text>
<text text-anchor="middle" x="496" y="-13" font-family="Helvetica,sans-Serif" font-size="10.00">_Cpp/src/client_lbr/friLBRState.cpp</text>
</a>
</g>
</g>
<!-- Node3&#45;&gt;Node6 -->
<g id="edge6" class="edge">
<title>Node3&#45;&gt;Node6</title>
<path fill="none" stroke="midnightblue" d="M389.5,-79C414.42,-65.66 447.19,-48.12 469.76,-36.04"/>
<polygon fill="midnightblue" stroke="midnightblue" points="387.54,-76.08 380.38,-83.88 390.84,-82.25 387.54,-76.08"/>
</g>
<!-- Node3&#45;&gt;Node7 -->
<g id="edge7" class="edge">
<title>Node3&#45;&gt;Node7</title>
<path fill="none" stroke="midnightblue" d="M416.8,-81.73C423.26,-80.34 429.74,-79.07 436,-78 597.13,-50.57 641.08,-70.63 802,-42 804.72,-41.52 807.48,-40.99 810.27,-40.42"/>
<polygon fill="midnightblue" stroke="midnightblue" points="415.7,-78.39 406.7,-83.99 417.23,-85.22 415.7,-78.39"/>
</g>
<!-- Node8&#45;&gt;Node3 -->
<g id="edge10" class="edge">
<title>Node8&#45;&gt;Node3</title>
<path fill="none" stroke="midnightblue" d="M328.48,-147.3C334.58,-136 341.31,-123.52 346.33,-114.23"/>
<polygon fill="midnightblue" stroke="midnightblue" points="325.23,-145.97 323.56,-156.43 331.39,-149.29 325.23,-145.97"/>
</g>
<!-- Node9 -->
<g id="node9" class="node">
<title>Node9</title>
<g id="a_node9"><a xlink:href="fri_command_message_encoder_8cpp.html" target="_top" xlink:title=" ">
<polygon fill="white" stroke="black" points="111.5,-78.5 111.5,-119.5 262.5,-119.5 262.5,-78.5 111.5,-78.5"/>
<text text-anchor="start" x="119.5" y="-107.5" font-family="Helvetica,sans-Serif" font-size="10.00">build/FRI&#45;Client&#45;SDK</text>
<text text-anchor="start" x="119.5" y="-96.5" font-family="Helvetica,sans-Serif" font-size="10.00">_Cpp/src/protobuf/friCommand</text>
<text text-anchor="middle" x="187" y="-85.5" font-family="Helvetica,sans-Serif" font-size="10.00">MessageEncoder.cpp</text>
</a>
</g>
</g>
<!-- Node8&#45;&gt;Node9 -->
<g id="edge11" class="edge">
<title>Node8&#45;&gt;Node9</title>
<path fill="none" stroke="midnightblue" d="M271.89,-151.2C254.84,-140.92 235.34,-129.16 219.34,-119.51"/>
<polygon fill="midnightblue" stroke="midnightblue" points="270.18,-154.26 280.55,-156.43 273.8,-148.27 270.18,-154.26"/>
</g>
<!-- Node10&#45;&gt;Node3 -->
<g id="edge13" class="edge">
<title>Node10&#45;&gt;Node3</title>
<path fill="none" stroke="midnightblue" d="M468.88,-152.28C441.36,-139.76 408.51,-124.81 385,-114.11"/>
<polygon fill="midnightblue" stroke="midnightblue" points="467.44,-155.47 477.99,-156.43 470.34,-149.1 467.44,-155.47"/>
</g>
<!-- Node11 -->
<g id="node11" class="node">
<title>Node11</title>
<g id="a_node11"><a xlink:href="fri_monitoring_message_decoder_8cpp.html" target="_top" xlink:title=" ">
<polygon fill="white" stroke="black" points="445.5,-78.5 445.5,-119.5 596.5,-119.5 596.5,-78.5 445.5,-78.5"/>
<text text-anchor="start" x="453.5" y="-107.5" font-family="Helvetica,sans-Serif" font-size="10.00">build/FRI&#45;Client&#45;SDK</text>
<text text-anchor="start" x="453.5" y="-96.5" font-family="Helvetica,sans-Serif" font-size="10.00">_Cpp/src/protobuf/friMonitoring</text>
<text text-anchor="middle" x="521" y="-85.5" font-family="Helvetica,sans-Serif" font-size="10.00">MessageDecoder.cpp</text>
</a>
</g>
</g>
<!-- Node10&#45;&gt;Node11 -->
<g id="edge14" class="edge">
<title>Node10&#45;&gt;Node11</title>
<path fill="none" stroke="midnightblue" d="M521,-146.3C521,-137.3 521,-127.65 521,-119.51"/>
<polygon fill="midnightblue" stroke="midnightblue" points="517.5,-146.43 521,-156.43 524.5,-146.43 517.5,-146.43"/>
</g>
<!-- Node12&#45;&gt;Node5 -->
<g id="edge16" class="edge">
<title>Node12&#45;&gt;Node5</title>
<path fill="none" stroke="midnightblue" d="M700.01,-248.24C733.88,-241.45 770.95,-227.26 792,-198 832.35,-141.92 752.41,-66.99 714.46,-36.16"/>
<polygon fill="midnightblue" stroke="midnightblue" points="699.3,-244.81 690.09,-250.04 700.56,-251.7 699.3,-244.81"/>
</g>
<!-- Node12&#45;&gt;Node6 -->
<g id="edge17" class="edge">
<title>Node12&#45;&gt;Node6</title>
<path fill="none" stroke="midnightblue" d="M629.86,-223.95C634.26,-186.36 636.09,-121.64 606,-78 592.13,-57.89 568.8,-44.58 547.19,-36.01"/>
<polygon fill="midnightblue" stroke="midnightblue" points="626.34,-223.88 628.51,-234.25 633.28,-224.79 626.34,-223.88"/>
</g>
<!-- Node12&#45;&gt;Node7 -->
<g id="edge18" class="edge">
<title>Node12&#45;&gt;Node7</title>
<path fill="none" stroke="midnightblue" d="M700.07,-246.95C737.43,-239.91 780.91,-225.88 811,-198 857.01,-155.37 872.24,-78.03 876.99,-41.77"/>
<polygon fill="midnightblue" stroke="midnightblue" points="699.46,-243.51 690.21,-248.68 700.67,-250.4 699.46,-243.51"/>
</g>
<!-- Node12&#45;&gt;Node8 -->
<g id="edge19" class="edge">
<title>Node12&#45;&gt;Node8</title>
<path fill="none" stroke="midnightblue" d="M550.09,-235.75C501.23,-223.85 437.66,-208.37 388.65,-196.43"/>
<polygon fill="midnightblue" stroke="midnightblue" points="549.43,-239.19 559.97,-238.16 551.09,-232.39 549.43,-239.19"/>
</g>
<!-- Node12&#45;&gt;Node10 -->
<g id="edge20" class="edge">
<title>Node12&#45;&gt;Node10</title>
<path fill="none" stroke="midnightblue" d="M589.9,-228.35C576.11,-218.27 560.54,-206.89 547.69,-197.51"/>
<polygon fill="midnightblue" stroke="midnightblue" points="588.08,-231.35 598.22,-234.43 592.21,-225.7 588.08,-231.35"/>
</g>
<!-- Node13 -->
<g id="node13" class="node">
<title>Node13</title>
<g id="a_node13"><a xlink:href="pb__frimessages__callbacks_8c.html" target="_top" xlink:title=" ">
<polygon fill="white" stroke="black" points="653,-156.5 653,-197.5 783,-197.5 783,-156.5 653,-156.5"/>
<text text-anchor="start" x="661" y="-185.5" font-family="Helvetica,sans-Serif" font-size="10.00">build/FRI&#45;Client&#45;SDK</text>
<text text-anchor="start" x="661" y="-174.5" font-family="Helvetica,sans-Serif" font-size="10.00">_Cpp/src/protobuf/pb</text>
<text text-anchor="middle" x="718" y="-163.5" font-family="Helvetica,sans-Serif" font-size="10.00">_frimessages_callbacks.c</text>
</a>
</g>
</g>
<!-- Node12&#45;&gt;Node13 -->
<g id="edge21" class="edge">
<title>Node12&#45;&gt;Node13</title>
<path fill="none" stroke="midnightblue" d="M656.74,-228.06C668.98,-218.06 682.75,-206.8 694.13,-197.51"/>
<polygon fill="midnightblue" stroke="midnightblue" points="654.48,-225.39 648.95,-234.43 658.91,-230.81 654.48,-225.39"/>
</g>
</g>
</svg>
