<?xml version="1.0" encoding="UTF-8" standalone="no"?>
<!DOCTYPE svg PUBLIC "-//W3C//DTD SVG 1.1//EN"
 "http://www.w3.org/Graphics/SVG/1.1/DTD/svg11.dtd">
<!-- Generated by graphviz version 2.43.0 (0)
 -->
<!-- Title: build/FRI&#45;Client&#45;SDK_Cpp/example/IOAccess/IOAccessClient.h Pages: 1 -->
<svg width="231pt" height="218pt"
 viewBox="0.00 0.00 230.69 218.00" xmlns="http://www.w3.org/2000/svg" xmlns:xlink="http://www.w3.org/1999/xlink">
<g id="graph0" class="graph" transform="scale(1 1) rotate(0) translate(4 214)">
<title>build/FRI&#45;Client&#45;SDK_Cpp/example/IOAccess/IOAccessClient.h</title>
<polygon fill="white" stroke="transparent" points="-4,4 -4,-214 226.69,-214 226.69,4 -4,4"/>
<!-- Node1 -->
<g id="node1" class="node">
<title>Node1</title>
<g id="a_node1"><a xlink:title=" ">
<polygon fill="#bfbfbf" stroke="black" points="39.84,-168.5 39.84,-209.5 165.84,-209.5 165.84,-168.5 39.84,-168.5"/>
<text text-anchor="start" x="47.84" y="-197.5" font-family="Helvetica,sans-Serif" font-size="10.00">build/FRI&#45;Client&#45;SDK</text>
<text text-anchor="start" x="47.84" y="-186.5" font-family="Helvetica,sans-Serif" font-size="10.00">_Cpp/example/IOAccess</text>
<text text-anchor="middle" x="102.84" y="-175.5" font-family="Helvetica,sans-Serif" font-size="10.00">/IOAccessClient.h</text>
</a>
</g>
</g>
<!-- Node2 -->
<g id="node2" class="node">
<title>Node2</title>
<g id="a_node2"><a xlink:title=" ">
<polygon fill="white" stroke="#bfbfbf" points="1.84,-112.5 1.84,-131.5 45.84,-131.5 45.84,-112.5 1.84,-112.5"/>
<text text-anchor="middle" x="23.84" y="-119.5" font-family="Helvetica,sans-Serif" font-size="10.00">time.h</text>
</a>
</g>
</g>
<!-- Node1&#45;&gt;Node2 -->
<g id="edge1" class="edge">
<title>Node1&#45;&gt;Node2</title>
<path fill="none" stroke="midnightblue" d="M79.14,-168.5C67.26,-158.72 53.09,-147.07 42.08,-138.01"/>
<polygon fill="midnightblue" stroke="midnightblue" points="44.3,-135.3 34.35,-131.65 39.85,-140.71 44.3,-135.3"/>
</g>
<!-- Node3 -->
<g id="node3" class="node">
<title>Node3</title>
<g id="a_node3"><a xlink:href="fri_l_b_r_client_8h.html" target="_top" xlink:title=" ">
<polygon fill="white" stroke="black" points="63.84,-112.5 63.84,-131.5 141.84,-131.5 141.84,-112.5 63.84,-112.5"/>
<text text-anchor="middle" x="102.84" y="-119.5" font-family="Helvetica,sans-Serif" font-size="10.00">friLBRClient.h</text>
</a>
</g>
</g>
<!-- Node1&#45;&gt;Node3 -->
<g id="edge2" class="edge">
<title>Node1&#45;&gt;Node3</title>
<path fill="none" stroke="midnightblue" d="M102.84,-168.5C102.84,-160.07 102.84,-150.24 102.84,-141.87"/>
<polygon fill="midnightblue" stroke="midnightblue" points="106.34,-141.65 102.84,-131.65 99.34,-141.65 106.34,-141.65"/>
</g>
<!-- Node4 -->
<g id="node4" class="node">
<title>Node4</title>
<g id="a_node4"><a xlink:href="fri_client_if_8h.html" target="_top" xlink:title=" ">
<polygon fill="white" stroke="black" points="18.34,-0.5 18.34,-19.5 83.34,-19.5 83.34,-0.5 18.34,-0.5"/>
<text text-anchor="middle" x="50.84" y="-7.5" font-family="Helvetica,sans-Serif" font-size="10.00">friClientIf.h</text>
</a>
</g>
</g>
<!-- Node1&#45;&gt;Node4 -->
<g id="edge7" class="edge">
<title>Node1&#45;&gt;Node4</title>
<path fill="none" stroke="midnightblue" d="M140.17,-168.37C183.49,-143.01 245.22,-97.21 213.84,-56 199.31,-36.92 136.92,-23.86 93.69,-16.91"/>
<polygon fill="midnightblue" stroke="midnightblue" points="94.11,-13.44 83.69,-15.36 93.04,-20.35 94.11,-13.44"/>
</g>
<!-- Node3&#45;&gt;Node4 -->
<g id="edge3" class="edge">
<title>Node3&#45;&gt;Node4</title>
<path fill="none" stroke="midnightblue" d="M63.65,-113.88C42.06,-107.74 17.02,-96.48 3.84,-76 -7.59,-58.25 10.99,-38.73 28.05,-25.76"/>
<polygon fill="midnightblue" stroke="midnightblue" points="30.56,-28.28 36.67,-19.62 26.5,-22.58 30.56,-28.28"/>
</g>
<!-- Node5 -->
<g id="node5" class="node">
<title>Node5</title>
<g id="a_node5"><a xlink:href="fri_l_b_r_state_8h.html" target="_top" xlink:title=" ">
<polygon fill="white" stroke="black" points="12.84,-56.5 12.84,-75.5 88.84,-75.5 88.84,-56.5 12.84,-56.5"/>
<text text-anchor="middle" x="50.84" y="-63.5" font-family="Helvetica,sans-Serif" font-size="10.00">friLBRState.h</text>
</a>
</g>
</g>
<!-- Node3&#45;&gt;Node5 -->
<g id="edge4" class="edge">
<title>Node3&#45;&gt;Node5</title>
<path fill="none" stroke="midnightblue" d="M94.25,-112.08C86.68,-104.22 75.46,-92.57 66.32,-83.08"/>
<polygon fill="midnightblue" stroke="midnightblue" points="68.72,-80.53 59.27,-75.75 63.68,-85.38 68.72,-80.53"/>
</g>
<!-- Node6 -->
<g id="node6" class="node">
<title>Node6</title>
<g id="a_node6"><a xlink:href="fri_l_b_r_command_8h.html" target="_top" xlink:title=" ">
<polygon fill="white" stroke="black" points="106.84,-56.5 106.84,-75.5 204.84,-75.5 204.84,-56.5 106.84,-56.5"/>
<text text-anchor="middle" x="155.84" y="-63.5" font-family="Helvetica,sans-Serif" font-size="10.00">friLBRCommand.h</text>
</a>
</g>
</g>
<!-- Node3&#45;&gt;Node6 -->
<g id="edge6" class="edge">
<title>Node3&#45;&gt;Node6</title>
<path fill="none" stroke="midnightblue" d="M111.59,-112.08C119.31,-104.22 130.74,-92.57 140.05,-83.08"/>
<polygon fill="midnightblue" stroke="midnightblue" points="142.74,-85.34 147.25,-75.75 137.75,-80.44 142.74,-85.34"/>
</g>
<!-- Node5&#45;&gt;Node4 -->
<g id="edge5" class="edge">
<title>Node5&#45;&gt;Node4</title>
<path fill="none" stroke="midnightblue" d="M50.84,-56.08C50.84,-49.01 50.84,-38.86 50.84,-29.99"/>
<polygon fill="midnightblue" stroke="midnightblue" points="54.34,-29.75 50.84,-19.75 47.34,-29.75 54.34,-29.75"/>
</g>
</g>
</svg>
