<?xml version="1.0" encoding="UTF-8" standalone="no"?>
<!DOCTYPE svg PUBLIC "-//W3C//DTD SVG 1.1//EN"
 "http://www.w3.org/Graphics/SVG/1.1/DTD/svg11.dtd">
<!-- Generated by graphviz version 2.43.0 (0)
 -->
<!-- Title: build/FRI&#45;Client&#45;SDK_Cpp/example/IOAccess/IOAccessApp.cpp Pages: 1 -->
<svg width="737pt" height="274pt"
 viewBox="0.00 0.00 737.12 274.00" xmlns="http://www.w3.org/2000/svg" xmlns:xlink="http://www.w3.org/1999/xlink">
<g id="graph0" class="graph" transform="scale(1 1) rotate(0) translate(4 270)">
<title>build/FRI&#45;Client&#45;SDK_Cpp/example/IOAccess/IOAccessApp.cpp</title>
<polygon fill="white" stroke="transparent" points="-4,4 -4,-270 733.12,-270 733.12,4 -4,4"/>
<!-- Node1 -->
<g id="node1" class="node">
<title>Node1</title>
<g id="a_node1"><a xlink:title=" ">
<polygon fill="#bfbfbf" stroke="black" points="346.62,-224.5 346.62,-265.5 472.62,-265.5 472.62,-224.5 346.62,-224.5"/>
<text text-anchor="start" x="354.62" y="-253.5" font-family="Helvetica,sans-Serif" font-size="10.00">build/FRI&#45;Client&#45;SDK</text>
<text text-anchor="start" x="354.62" y="-242.5" font-family="Helvetica,sans-Serif" font-size="10.00">_Cpp/example/IOAccess</text>
<text text-anchor="middle" x="409.62" y="-231.5" font-family="Helvetica,sans-Serif" font-size="10.00">/IOAccessApp.cpp</text>
</a>
</g>
</g>
<!-- Node2 -->
<g id="node2" class="node">
<title>Node2</title>
<g id="a_node2"><a xlink:title=" ">
<polygon fill="white" stroke="#bfbfbf" points="413.12,-112.5 413.12,-131.5 458.12,-131.5 458.12,-112.5 413.12,-112.5"/>
<text text-anchor="middle" x="435.62" y="-119.5" font-family="Helvetica,sans-Serif" font-size="10.00">cstdlib</text>
</a>
</g>
</g>
<!-- Node1&#45;&gt;Node2 -->
<g id="edge1" class="edge">
<title>Node1&#45;&gt;Node2</title>
<path fill="none" stroke="midnightblue" d="M413.86,-224.29C418.78,-201.37 426.85,-163.85 431.66,-141.47"/>
<polygon fill="midnightblue" stroke="midnightblue" points="435.1,-142.09 433.78,-131.57 428.26,-140.62 435.1,-142.09"/>
</g>
<!-- Node3 -->
<g id="node3" class="node">
<title>Node3</title>
<g id="a_node3"><a xlink:title=" ">
<polygon fill="white" stroke="#bfbfbf" points="300.12,-168.5 300.12,-187.5 343.12,-187.5 343.12,-168.5 300.12,-168.5"/>
<text text-anchor="middle" x="321.62" y="-175.5" font-family="Helvetica,sans-Serif" font-size="10.00">cstdio</text>
</a>
</g>
</g>
<!-- Node1&#45;&gt;Node3 -->
<g id="edge2" class="edge">
<title>Node1&#45;&gt;Node3</title>
<path fill="none" stroke="midnightblue" d="M383.22,-224.5C369.86,-214.63 353.9,-202.84 341.58,-193.74"/>
<polygon fill="midnightblue" stroke="midnightblue" points="343.46,-190.78 333.34,-187.65 339.3,-196.41 343.46,-190.78"/>
</g>
<!-- Node4 -->
<g id="node4" class="node">
<title>Node4</title>
<g id="a_node4"><a xlink:title=" ">
<polygon fill="white" stroke="#bfbfbf" points="361.62,-168.5 361.62,-187.5 407.62,-187.5 407.62,-168.5 361.62,-168.5"/>
<text text-anchor="middle" x="384.62" y="-175.5" font-family="Helvetica,sans-Serif" font-size="10.00">cstring</text>
</a>
</g>
</g>
<!-- Node1&#45;&gt;Node4 -->
<g id="edge3" class="edge">
<title>Node1&#45;&gt;Node4</title>
<path fill="none" stroke="midnightblue" d="M402.12,-224.5C398.77,-215.78 394.84,-205.56 391.56,-197.02"/>
<polygon fill="midnightblue" stroke="midnightblue" points="394.81,-195.73 387.95,-187.65 388.28,-198.24 394.81,-195.73"/>
</g>
<!-- Node5 -->
<g id="node5" class="node">
<title>Node5</title>
<g id="a_node5"><a xlink:href="_i_o_access_client_8h.html" target="_top" xlink:title=" ">
<polygon fill="white" stroke="black" points="187.62,-168.5 187.62,-187.5 281.62,-187.5 281.62,-168.5 187.62,-168.5"/>
<text text-anchor="middle" x="234.62" y="-175.5" font-family="Helvetica,sans-Serif" font-size="10.00">IOAccessClient.h</text>
</a>
</g>
</g>
<!-- Node1&#45;&gt;Node5 -->
<g id="edge4" class="edge">
<title>Node1&#45;&gt;Node5</title>
<path fill="none" stroke="midnightblue" d="M357.12,-224.5C327.97,-213.67 292.61,-200.54 267.39,-191.17"/>
<polygon fill="midnightblue" stroke="midnightblue" points="268.51,-187.85 257.92,-187.65 266.08,-194.42 268.51,-187.85"/>
</g>
<!-- Node11 -->
<g id="node11" class="node">
<title>Node11</title>
<g id="a_node11"><a xlink:href="fri_udp_connection_8h.html" target="_top" xlink:title=" ">
<polygon fill="white" stroke="black" points="464.12,-168.5 464.12,-187.5 565.12,-187.5 565.12,-168.5 464.12,-168.5"/>
<text text-anchor="middle" x="514.62" y="-175.5" font-family="Helvetica,sans-Serif" font-size="10.00">friUdpConnection.h</text>
</a>
</g>
</g>
<!-- Node1&#45;&gt;Node11 -->
<g id="edge12" class="edge">
<title>Node1&#45;&gt;Node11</title>
<path fill="none" stroke="midnightblue" d="M441.13,-224.5C457.54,-214.34 477.22,-202.16 492.09,-192.95"/>
<polygon fill="midnightblue" stroke="midnightblue" points="493.99,-195.89 500.65,-187.65 490.3,-189.94 493.99,-195.89"/>
</g>
<!-- Node15 -->
<g id="node15" class="node">
<title>Node15</title>
<g id="a_node15"><a xlink:href="fri_client_application_8h.html" target="_top" xlink:title=" ">
<polygon fill="white" stroke="black" points="583.12,-168.5 583.12,-187.5 690.12,-187.5 690.12,-168.5 583.12,-168.5"/>
<text text-anchor="middle" x="636.62" y="-175.5" font-family="Helvetica,sans-Serif" font-size="10.00">friClientApplication.h</text>
</a>
</g>
</g>
<!-- Node1&#45;&gt;Node15 -->
<g id="edge17" class="edge">
<title>Node1&#45;&gt;Node15</title>
<path fill="none" stroke="midnightblue" d="M472.86,-225.89C512.74,-214.47 562.99,-200.08 597.24,-190.28"/>
<polygon fill="midnightblue" stroke="midnightblue" points="598.24,-193.63 606.89,-187.51 596.32,-186.9 598.24,-193.63"/>
</g>
<!-- Node6 -->
<g id="node6" class="node">
<title>Node6</title>
<g id="a_node6"><a xlink:title=" ">
<polygon fill="white" stroke="#bfbfbf" points="262.62,-112.5 262.62,-131.5 306.62,-131.5 306.62,-112.5 262.62,-112.5"/>
<text text-anchor="middle" x="284.62" y="-119.5" font-family="Helvetica,sans-Serif" font-size="10.00">time.h</text>
</a>
</g>
</g>
<!-- Node5&#45;&gt;Node6 -->
<g id="edge5" class="edge">
<title>Node5&#45;&gt;Node6</title>
<path fill="none" stroke="midnightblue" d="M242.88,-168.08C250.09,-160.3 260.73,-148.8 269.47,-139.37"/>
<polygon fill="midnightblue" stroke="midnightblue" points="272.3,-141.47 276.52,-131.75 267.16,-136.71 272.3,-141.47"/>
</g>
<!-- Node7 -->
<g id="node7" class="node">
<title>Node7</title>
<g id="a_node7"><a xlink:href="fri_l_b_r_client_8h.html" target="_top" xlink:title=" ">
<polygon fill="white" stroke="black" points="76.62,-112.5 76.62,-131.5 154.62,-131.5 154.62,-112.5 76.62,-112.5"/>
<text text-anchor="middle" x="115.62" y="-119.5" font-family="Helvetica,sans-Serif" font-size="10.00">friLBRClient.h</text>
</a>
</g>
</g>
<!-- Node5&#45;&gt;Node7 -->
<g id="edge6" class="edge">
<title>Node5&#45;&gt;Node7</title>
<path fill="none" stroke="midnightblue" d="M215.77,-168.44C196.36,-159.64 165.89,-145.81 143.66,-135.72"/>
<polygon fill="midnightblue" stroke="midnightblue" points="144.95,-132.46 134.39,-131.52 142.05,-138.84 144.95,-132.46"/>
</g>
<!-- Node8 -->
<g id="node8" class="node">
<title>Node8</title>
<g id="a_node8"><a xlink:href="fri_client_if_8h.html" target="_top" xlink:title=" ">
<polygon fill="white" stroke="black" points="136.12,-0.5 136.12,-19.5 201.12,-19.5 201.12,-0.5 136.12,-0.5"/>
<text text-anchor="middle" x="168.62" y="-7.5" font-family="Helvetica,sans-Serif" font-size="10.00">friClientIf.h</text>
</a>
</g>
</g>
<!-- Node5&#45;&gt;Node8 -->
<g id="edge11" class="edge">
<title>Node5&#45;&gt;Node8</title>
<path fill="none" stroke="midnightblue" d="M235.1,-168.2C235.85,-147.4 235.52,-94.07 215.62,-56 209.48,-44.23 199.06,-33.78 189.6,-25.92"/>
<polygon fill="midnightblue" stroke="midnightblue" points="191.69,-23.11 181.66,-19.71 187.38,-28.63 191.69,-23.11"/>
</g>
<!-- Node7&#45;&gt;Node8 -->
<g id="edge7" class="edge">
<title>Node7&#45;&gt;Node8</title>
<path fill="none" stroke="midnightblue" d="M76.49,-113.5C36.51,-104.04 -16.75,-85.39 5.62,-56 20.15,-36.92 82.54,-23.86 125.78,-16.91"/>
<polygon fill="midnightblue" stroke="midnightblue" points="126.43,-20.35 135.77,-15.36 125.35,-13.44 126.43,-20.35"/>
</g>
<!-- Node9 -->
<g id="node9" class="node">
<title>Node9</title>
<g id="a_node9"><a xlink:href="fri_l_b_r_state_8h.html" target="_top" xlink:title=" ">
<polygon fill="white" stroke="black" points="130.62,-56.5 130.62,-75.5 206.62,-75.5 206.62,-56.5 130.62,-56.5"/>
<text text-anchor="middle" x="168.62" y="-63.5" font-family="Helvetica,sans-Serif" font-size="10.00">friLBRState.h</text>
</a>
</g>
</g>
<!-- Node7&#45;&gt;Node9 -->
<g id="edge8" class="edge">
<title>Node7&#45;&gt;Node9</title>
<path fill="none" stroke="midnightblue" d="M124.38,-112.08C132.09,-104.22 143.53,-92.57 152.84,-83.08"/>
<polygon fill="midnightblue" stroke="midnightblue" points="155.53,-85.34 160.04,-75.75 150.53,-80.44 155.53,-85.34"/>
</g>
<!-- Node10 -->
<g id="node10" class="node">
<title>Node10</title>
<g id="a_node10"><a xlink:href="fri_l_b_r_command_8h.html" target="_top" xlink:title=" ">
<polygon fill="white" stroke="black" points="14.62,-56.5 14.62,-75.5 112.62,-75.5 112.62,-56.5 14.62,-56.5"/>
<text text-anchor="middle" x="63.62" y="-63.5" font-family="Helvetica,sans-Serif" font-size="10.00">friLBRCommand.h</text>
</a>
</g>
</g>
<!-- Node7&#45;&gt;Node10 -->
<g id="edge10" class="edge">
<title>Node7&#45;&gt;Node10</title>
<path fill="none" stroke="midnightblue" d="M107.04,-112.08C99.47,-104.22 88.25,-92.57 79.11,-83.08"/>
<polygon fill="midnightblue" stroke="midnightblue" points="81.51,-80.53 72.05,-75.75 76.47,-85.38 81.51,-80.53"/>
</g>
<!-- Node9&#45;&gt;Node8 -->
<g id="edge9" class="edge">
<title>Node9&#45;&gt;Node8</title>
<path fill="none" stroke="midnightblue" d="M168.62,-56.08C168.62,-49.01 168.62,-38.86 168.62,-29.99"/>
<polygon fill="midnightblue" stroke="midnightblue" points="172.12,-29.75 168.62,-19.75 165.12,-29.75 172.12,-29.75"/>
</g>
<!-- Node11&#45;&gt;Node2 -->
<g id="edge13" class="edge">
<title>Node11&#45;&gt;Node2</title>
<path fill="none" stroke="midnightblue" d="M501.93,-168.32C489.72,-159.98 471.05,-147.21 456.62,-137.35"/>
<polygon fill="midnightblue" stroke="midnightblue" points="458.52,-134.41 448.29,-131.65 454.57,-140.19 458.52,-134.41"/>
</g>
<!-- Node12 -->
<g id="node12" class="node">
<title>Node12</title>
<g id="a_node12"><a xlink:title=" ">
<polygon fill="white" stroke="#bfbfbf" points="664.12,-112.5 664.12,-131.5 729.12,-131.5 729.12,-112.5 664.12,-112.5"/>
<text text-anchor="middle" x="696.62" y="-119.5" font-family="Helvetica,sans-Serif" font-size="10.00">netinet/in.h</text>
</a>
</g>
</g>
<!-- Node11&#45;&gt;Node12 -->
<g id="edge14" class="edge">
<title>Node11&#45;&gt;Node12</title>
<path fill="none" stroke="midnightblue" d="M543.46,-168.44C574.48,-159.24 623.95,-144.56 658.24,-134.39"/>
<polygon fill="midnightblue" stroke="midnightblue" points="659.33,-137.72 667.92,-131.52 657.34,-131.01 659.33,-137.72"/>
</g>
<!-- Node13 -->
<g id="node13" class="node">
<title>Node13</title>
<g id="a_node13"><a xlink:title=" ">
<polygon fill="white" stroke="#bfbfbf" points="476.62,-112.5 476.62,-131.5 538.62,-131.5 538.62,-112.5 476.62,-112.5"/>
<text text-anchor="middle" x="507.62" y="-119.5" font-family="Helvetica,sans-Serif" font-size="10.00">arpa/inet.h</text>
</a>
</g>
</g>
<!-- Node11&#45;&gt;Node13 -->
<g id="edge15" class="edge">
<title>Node11&#45;&gt;Node13</title>
<path fill="none" stroke="midnightblue" d="M513.47,-168.08C512.54,-160.93 511.21,-150.64 510.05,-141.69"/>
<polygon fill="midnightblue" stroke="midnightblue" points="513.52,-141.22 508.76,-131.75 506.57,-142.12 513.52,-141.22"/>
</g>
<!-- Node14 -->
<g id="node14" class="node">
<title>Node14</title>
<g id="a_node14"><a xlink:href="fri_connection_if_8h.html" target="_top" xlink:title=" ">
<polygon fill="white" stroke="black" points="557.12,-112.5 557.12,-131.5 646.12,-131.5 646.12,-112.5 557.12,-112.5"/>
<text text-anchor="middle" x="601.62" y="-119.5" font-family="Helvetica,sans-Serif" font-size="10.00">friConnectionIf.h</text>
</a>
</g>
</g>
<!-- Node11&#45;&gt;Node14 -->
<g id="edge16" class="edge">
<title>Node11&#45;&gt;Node14</title>
<path fill="none" stroke="midnightblue" d="M528.6,-168.32C542.17,-159.9 563.01,-146.97 578.95,-137.07"/>
<polygon fill="midnightblue" stroke="midnightblue" points="581.03,-139.9 587.68,-131.65 577.34,-133.95 581.03,-139.9"/>
</g>
</g>
</svg>
