<?xml version="1.0" encoding="UTF-8" standalone="no"?>
<!DOCTYPE svg PUBLIC "-//W3C//DTD SVG 1.1//EN"
 "http://www.w3.org/Graphics/SVG/1.1/DTD/svg11.dtd">
<!-- Generated by graphviz version 2.43.0 (0)
 -->
<!-- Title: build/FRI&#45;Client&#45;SDK_Cpp/example/IOAccess/IOAccessClient.cpp Pages: 1 -->
<svg width="400pt" height="274pt"
 viewBox="0.00 0.00 400.00 274.00" xmlns="http://www.w3.org/2000/svg" xmlns:xlink="http://www.w3.org/1999/xlink">
<g id="graph0" class="graph" transform="scale(1 1) rotate(0) translate(4 270)">
<title>build/FRI&#45;Client&#45;SDK_Cpp/example/IOAccess/IOAccessClient.cpp</title>
<polygon fill="white" stroke="transparent" points="-4,4 -4,-270 396,-270 396,4 -4,4"/>
<!-- Node1 -->
<g id="node1" class="node">
<title>Node1</title>
<g id="a_node1"><a xlink:title=" ">
<polygon fill="#bfbfbf" stroke="black" points="73,-224.5 73,-265.5 199,-265.5 199,-224.5 73,-224.5"/>
<text text-anchor="start" x="81" y="-253.5" font-family="Helvetica,sans-Serif" font-size="10.00">build/FRI&#45;Client&#45;SDK</text>
<text text-anchor="start" x="81" y="-242.5" font-family="Helvetica,sans-Serif" font-size="10.00">_Cpp/example/IOAccess</text>
<text text-anchor="middle" x="136" y="-231.5" font-family="Helvetica,sans-Serif" font-size="10.00">/IOAccessClient.cpp</text>
</a>
</g>
</g>
<!-- Node2 -->
<g id="node2" class="node">
<title>Node2</title>
<g id="a_node2"><a xlink:title=" ">
<polygon fill="white" stroke="#bfbfbf" points="0,-168.5 0,-187.5 46,-187.5 46,-168.5 0,-168.5"/>
<text text-anchor="middle" x="23" y="-175.5" font-family="Helvetica,sans-Serif" font-size="10.00">cstring</text>
</a>
</g>
</g>
<!-- Node1&#45;&gt;Node2 -->
<g id="edge1" class="edge">
<title>Node1&#45;&gt;Node2</title>
<path fill="none" stroke="midnightblue" d="M102.1,-224.5C84.27,-214.24 62.85,-201.93 46.8,-192.69"/>
<polygon fill="midnightblue" stroke="midnightblue" points="48.46,-189.6 38.04,-187.65 44.97,-195.67 48.46,-189.6"/>
</g>
<!-- Node3 -->
<g id="node3" class="node">
<title>Node3</title>
<g id="a_node3"><a xlink:title=" ">
<polygon fill="white" stroke="#bfbfbf" points="64.5,-168.5 64.5,-187.5 107.5,-187.5 107.5,-168.5 64.5,-168.5"/>
<text text-anchor="middle" x="86" y="-175.5" font-family="Helvetica,sans-Serif" font-size="10.00">cstdio</text>
</a>
</g>
</g>
<!-- Node1&#45;&gt;Node3 -->
<g id="edge2" class="edge">
<title>Node1&#45;&gt;Node3</title>
<path fill="none" stroke="midnightblue" d="M121,-224.5C113.92,-215.3 105.57,-204.44 98.79,-195.63"/>
<polygon fill="midnightblue" stroke="midnightblue" points="101.53,-193.44 92.66,-187.65 95.98,-197.71 101.53,-193.44"/>
</g>
<!-- Node4 -->
<g id="node4" class="node">
<title>Node4</title>
<g id="a_node4"><a xlink:href="_i_o_access_client_8h.html" target="_top" xlink:title=" ">
<polygon fill="white" stroke="black" points="298,-168.5 298,-187.5 392,-187.5 392,-168.5 298,-168.5"/>
<text text-anchor="middle" x="345" y="-175.5" font-family="Helvetica,sans-Serif" font-size="10.00">IOAccessClient.h</text>
</a>
</g>
</g>
<!-- Node1&#45;&gt;Node4 -->
<g id="edge3" class="edge">
<title>Node1&#45;&gt;Node4</title>
<path fill="none" stroke="midnightblue" d="M198.71,-224.5C234.25,-213.44 277.51,-199.99 307.73,-190.59"/>
<polygon fill="midnightblue" stroke="midnightblue" points="308.94,-193.88 317.45,-187.57 306.87,-187.19 308.94,-193.88"/>
</g>
<!-- Node8 -->
<g id="node8" class="node">
<title>Node8</title>
<g id="a_node8"><a xlink:href="fri_l_b_r_state_8h.html" target="_top" xlink:title=" ">
<polygon fill="white" stroke="black" points="99,-56.5 99,-75.5 175,-75.5 175,-56.5 99,-56.5"/>
<text text-anchor="middle" x="137" y="-63.5" font-family="Helvetica,sans-Serif" font-size="10.00">friLBRState.h</text>
</a>
</g>
</g>
<!-- Node1&#45;&gt;Node8 -->
<g id="edge11" class="edge">
<title>Node1&#45;&gt;Node8</title>
<path fill="none" stroke="midnightblue" d="M136.11,-224.38C136.3,-190.08 136.7,-119.66 136.89,-85.88"/>
<polygon fill="midnightblue" stroke="midnightblue" points="140.39,-85.6 136.95,-75.58 133.39,-85.56 140.39,-85.6"/>
</g>
<!-- Node9 -->
<g id="node9" class="node">
<title>Node9</title>
<g id="a_node9"><a xlink:href="fri_l_b_r_command_8h.html" target="_top" xlink:title=" ">
<polygon fill="white" stroke="black" points="231,-56.5 231,-75.5 329,-75.5 329,-56.5 231,-56.5"/>
<text text-anchor="middle" x="280" y="-63.5" font-family="Helvetica,sans-Serif" font-size="10.00">friLBRCommand.h</text>
</a>
</g>
</g>
<!-- Node1&#45;&gt;Node9 -->
<g id="edge12" class="edge">
<title>Node1&#45;&gt;Node9</title>
<path fill="none" stroke="midnightblue" d="M161.15,-224.38C186.46,-203.61 225.33,-168.8 251,-132 261.15,-117.45 269.04,-98.77 274.01,-85.17"/>
<polygon fill="midnightblue" stroke="midnightblue" points="277.38,-86.12 277.36,-75.53 270.77,-83.83 277.38,-86.12"/>
</g>
<!-- Node5 -->
<g id="node5" class="node">
<title>Node5</title>
<g id="a_node5"><a xlink:title=" ">
<polygon fill="white" stroke="#bfbfbf" points="298,-112.5 298,-131.5 342,-131.5 342,-112.5 298,-112.5"/>
<text text-anchor="middle" x="320" y="-119.5" font-family="Helvetica,sans-Serif" font-size="10.00">time.h</text>
</a>
</g>
</g>
<!-- Node4&#45;&gt;Node5 -->
<g id="edge4" class="edge">
<title>Node4&#45;&gt;Node5</title>
<path fill="none" stroke="midnightblue" d="M340.87,-168.08C337.49,-160.77 332.58,-150.18 328.38,-141.1"/>
<polygon fill="midnightblue" stroke="midnightblue" points="331.43,-139.36 324.05,-131.75 325.08,-142.3 331.43,-139.36"/>
</g>
<!-- Node6 -->
<g id="node6" class="node">
<title>Node6</title>
<g id="a_node6"><a xlink:href="fri_l_b_r_client_8h.html" target="_top" xlink:title=" ">
<polygon fill="white" stroke="black" points="164,-112.5 164,-131.5 242,-131.5 242,-112.5 164,-112.5"/>
<text text-anchor="middle" x="203" y="-119.5" font-family="Helvetica,sans-Serif" font-size="10.00">friLBRClient.h</text>
</a>
</g>
</g>
<!-- Node4&#45;&gt;Node6 -->
<g id="edge5" class="edge">
<title>Node4&#45;&gt;Node6</title>
<path fill="none" stroke="midnightblue" d="M322.5,-168.44C298.92,-159.48 261.68,-145.31 235.04,-135.18"/>
<polygon fill="midnightblue" stroke="midnightblue" points="235.99,-131.8 225.4,-131.52 233.5,-138.34 235.99,-131.8"/>
</g>
<!-- Node7 -->
<g id="node7" class="node">
<title>Node7</title>
<g id="a_node7"><a xlink:href="fri_client_if_8h.html" target="_top" xlink:title=" ">
<polygon fill="white" stroke="black" points="170.5,-0.5 170.5,-19.5 235.5,-19.5 235.5,-0.5 170.5,-0.5"/>
<text text-anchor="middle" x="203" y="-7.5" font-family="Helvetica,sans-Serif" font-size="10.00">friClientIf.h</text>
</a>
</g>
</g>
<!-- Node4&#45;&gt;Node7 -->
<g id="edge10" class="edge">
<title>Node4&#45;&gt;Node7</title>
<path fill="none" stroke="midnightblue" d="M347.73,-168.3C354.06,-146.3 367.04,-87.9 338,-56 314.49,-30.18 275.79,-19.15 245.84,-14.46"/>
<polygon fill="midnightblue" stroke="midnightblue" points="246.04,-10.95 235.65,-13.05 245.08,-17.88 246.04,-10.95"/>
</g>
<!-- Node6&#45;&gt;Node7 -->
<g id="edge6" class="edge">
<title>Node6&#45;&gt;Node7</title>
<path fill="none" stroke="midnightblue" d="M203,-112.37C203,-94.62 203,-53.67 203,-29.6"/>
<polygon fill="midnightblue" stroke="midnightblue" points="206.5,-29.59 203,-19.59 199.5,-29.59 206.5,-29.59"/>
</g>
<!-- Node6&#45;&gt;Node8 -->
<g id="edge7" class="edge">
<title>Node6&#45;&gt;Node8</title>
<path fill="none" stroke="midnightblue" d="M192.4,-112.32C182.54,-104.26 167.65,-92.08 155.78,-82.37"/>
<polygon fill="midnightblue" stroke="midnightblue" points="157.75,-79.46 147.8,-75.83 153.32,-84.88 157.75,-79.46"/>
</g>
<!-- Node6&#45;&gt;Node9 -->
<g id="edge9" class="edge">
<title>Node6&#45;&gt;Node9</title>
<path fill="none" stroke="midnightblue" d="M215.37,-112.32C227.16,-104.06 245.13,-91.45 259.14,-81.63"/>
<polygon fill="midnightblue" stroke="midnightblue" points="261.48,-84.26 267.66,-75.65 257.46,-78.53 261.48,-84.26"/>
</g>
<!-- Node8&#45;&gt;Node7 -->
<g id="edge8" class="edge">
<title>Node8&#45;&gt;Node7</title>
<path fill="none" stroke="midnightblue" d="M147.6,-56.32C157.46,-48.26 172.35,-36.08 184.22,-26.37"/>
<polygon fill="midnightblue" stroke="midnightblue" points="186.68,-28.88 192.2,-19.83 182.25,-23.46 186.68,-28.88"/>
</g>
</g>
</svg>
