<?xml version="1.0" encoding="UTF-8" standalone="no"?>
<!DOCTYPE svg PUBLIC "-//W3C//DTD SVG 1.1//EN"
 "http://www.w3.org/Graphics/SVG/1.1/DTD/svg11.dtd">
<!-- Generated by graphviz version 2.43.0 (0)
 -->
<!-- Title: build/FRI&#45;Client&#45;SDK_Cpp/example/LBRWrenchSineOverlay/LBRWrenchSineOverlayClient.cpp Pages: 1 -->
<svg width="431pt" height="274pt"
 viewBox="0.00 0.00 431.00 274.00" xmlns="http://www.w3.org/2000/svg" xmlns:xlink="http://www.w3.org/1999/xlink">
<g id="graph0" class="graph" transform="scale(1 1) rotate(0) translate(4 270)">
<title>build/FRI&#45;Client&#45;SDK_Cpp/example/LBRWrenchSineOverlay/LBRWrenchSineOverlayClient.cpp</title>
<polygon fill="white" stroke="transparent" points="-4,4 -4,-270 427,-270 427,4 -4,4"/>
<!-- Node1 -->
<g id="node1" class="node">
<title>Node1</title>
<g id="a_node1"><a xlink:title=" ">
<polygon fill="#bfbfbf" stroke="black" points="23,-224.5 23,-265.5 211,-265.5 211,-224.5 23,-224.5"/>
<text text-anchor="start" x="31" y="-253.5" font-family="Helvetica,sans-Serif" font-size="10.00">build/FRI&#45;Client&#45;SDK</text>
<text text-anchor="start" x="31" y="-242.5" font-family="Helvetica,sans-Serif" font-size="10.00">_Cpp/example/LBRWrenchSineOverlay</text>
<text text-anchor="middle" x="117" y="-231.5" font-family="Helvetica,sans-Serif" font-size="10.00">/LBRWrenchSineOverlayClient.cpp</text>
</a>
</g>
</g>
<!-- Node2 -->
<g id="node2" class="node">
<title>Node2</title>
<g id="a_node2"><a xlink:title=" ">
<polygon fill="white" stroke="#bfbfbf" points="0,-168.5 0,-187.5 46,-187.5 46,-168.5 0,-168.5"/>
<text text-anchor="middle" x="23" y="-175.5" font-family="Helvetica,sans-Serif" font-size="10.00">cstring</text>
</a>
</g>
</g>
<!-- Node1&#45;&gt;Node2 -->
<g id="edge1" class="edge">
<title>Node1&#45;&gt;Node2</title>
<path fill="none" stroke="midnightblue" d="M88.8,-224.5C74.38,-214.53 57.15,-202.61 43.94,-193.48"/>
<polygon fill="midnightblue" stroke="midnightblue" points="45.73,-190.46 35.51,-187.65 41.75,-196.22 45.73,-190.46"/>
</g>
<!-- Node3 -->
<g id="node3" class="node">
<title>Node3</title>
<g id="a_node3"><a xlink:title=" ">
<polygon fill="white" stroke="#bfbfbf" points="64.5,-168.5 64.5,-187.5 107.5,-187.5 107.5,-168.5 64.5,-168.5"/>
<text text-anchor="middle" x="86" y="-175.5" font-family="Helvetica,sans-Serif" font-size="10.00">cstdio</text>
</a>
</g>
</g>
<!-- Node1&#45;&gt;Node3 -->
<g id="edge2" class="edge">
<title>Node1&#45;&gt;Node3</title>
<path fill="none" stroke="midnightblue" d="M107.7,-224.5C103.49,-215.68 98.56,-205.34 94.46,-196.74"/>
<polygon fill="midnightblue" stroke="midnightblue" points="97.59,-195.17 90.13,-187.65 91.27,-198.19 97.59,-195.17"/>
</g>
<!-- Node4 -->
<g id="node4" class="node">
<title>Node4</title>
<g id="a_node4"><a xlink:title=" ">
<polygon fill="white" stroke="#bfbfbf" points="125.5,-168.5 125.5,-187.5 172.5,-187.5 172.5,-168.5 125.5,-168.5"/>
<text text-anchor="middle" x="149" y="-175.5" font-family="Helvetica,sans-Serif" font-size="10.00">math.h</text>
</a>
</g>
</g>
<!-- Node1&#45;&gt;Node4 -->
<g id="edge3" class="edge">
<title>Node1&#45;&gt;Node4</title>
<path fill="none" stroke="midnightblue" d="M126.6,-224.5C130.94,-215.68 136.03,-205.34 140.26,-196.74"/>
<polygon fill="midnightblue" stroke="midnightblue" points="143.46,-198.17 144.74,-187.65 137.18,-195.08 143.46,-198.17"/>
</g>
<!-- Node5 -->
<g id="node5" class="node">
<title>Node5</title>
<g id="a_node5"><a xlink:href="_l_b_r_wrench_sine_overlay_client_8h.html" target="_top" xlink:title=" ">
<polygon fill="white" stroke="black" points="191,-168.5 191,-187.5 347,-187.5 347,-168.5 191,-168.5"/>
<text text-anchor="middle" x="269" y="-175.5" font-family="Helvetica,sans-Serif" font-size="10.00">LBRWrenchSineOverlayClient.h</text>
</a>
</g>
</g>
<!-- Node1&#45;&gt;Node5 -->
<g id="edge4" class="edge">
<title>Node1&#45;&gt;Node5</title>
<path fill="none" stroke="midnightblue" d="M162.61,-224.5C187.48,-213.86 217.55,-201 239.37,-191.67"/>
<polygon fill="midnightblue" stroke="midnightblue" points="240.95,-194.8 248.77,-187.65 238.2,-188.37 240.95,-194.8"/>
</g>
<!-- Node6 -->
<g id="node6" class="node">
<title>Node6</title>
<g id="a_node6"><a xlink:href="fri_l_b_r_client_8h.html" target="_top" xlink:title=" ">
<polygon fill="white" stroke="black" points="230,-112.5 230,-131.5 308,-131.5 308,-112.5 230,-112.5"/>
<text text-anchor="middle" x="269" y="-119.5" font-family="Helvetica,sans-Serif" font-size="10.00">friLBRClient.h</text>
</a>
</g>
</g>
<!-- Node5&#45;&gt;Node6 -->
<g id="edge5" class="edge">
<title>Node5&#45;&gt;Node6</title>
<path fill="none" stroke="midnightblue" d="M269,-168.08C269,-161.01 269,-150.86 269,-141.99"/>
<polygon fill="midnightblue" stroke="midnightblue" points="272.5,-141.75 269,-131.75 265.5,-141.75 272.5,-141.75"/>
</g>
<!-- Node7 -->
<g id="node7" class="node">
<title>Node7</title>
<g id="a_node7"><a xlink:href="fri_client_if_8h.html" target="_top" xlink:title=" ">
<polygon fill="white" stroke="black" points="203.5,-0.5 203.5,-19.5 268.5,-19.5 268.5,-0.5 203.5,-0.5"/>
<text text-anchor="middle" x="236" y="-7.5" font-family="Helvetica,sans-Serif" font-size="10.00">friClientIf.h</text>
</a>
</g>
</g>
<!-- Node6&#45;&gt;Node7 -->
<g id="edge6" class="edge">
<title>Node6&#45;&gt;Node7</title>
<path fill="none" stroke="midnightblue" d="M254.92,-112.26C243.65,-104.35 228.65,-91.58 222,-76 215.5,-60.77 220.68,-42.2 226.49,-28.82"/>
<polygon fill="midnightblue" stroke="midnightblue" points="229.68,-30.26 230.87,-19.73 223.37,-27.22 229.68,-30.26"/>
</g>
<!-- Node8 -->
<g id="node8" class="node">
<title>Node8</title>
<g id="a_node8"><a xlink:href="fri_l_b_r_state_8h.html" target="_top" xlink:title=" ">
<polygon fill="white" stroke="black" points="231,-56.5 231,-75.5 307,-75.5 307,-56.5 231,-56.5"/>
<text text-anchor="middle" x="269" y="-63.5" font-family="Helvetica,sans-Serif" font-size="10.00">friLBRState.h</text>
</a>
</g>
</g>
<!-- Node6&#45;&gt;Node8 -->
<g id="edge7" class="edge">
<title>Node6&#45;&gt;Node8</title>
<path fill="none" stroke="midnightblue" d="M269,-112.08C269,-105.01 269,-94.86 269,-85.99"/>
<polygon fill="midnightblue" stroke="midnightblue" points="272.5,-85.75 269,-75.75 265.5,-85.75 272.5,-85.75"/>
</g>
<!-- Node9 -->
<g id="node9" class="node">
<title>Node9</title>
<g id="a_node9"><a xlink:href="fri_l_b_r_command_8h.html" target="_top" xlink:title=" ">
<polygon fill="white" stroke="black" points="325,-56.5 325,-75.5 423,-75.5 423,-56.5 325,-56.5"/>
<text text-anchor="middle" x="374" y="-63.5" font-family="Helvetica,sans-Serif" font-size="10.00">friLBRCommand.h</text>
</a>
</g>
</g>
<!-- Node6&#45;&gt;Node9 -->
<g id="edge9" class="edge">
<title>Node6&#45;&gt;Node9</title>
<path fill="none" stroke="midnightblue" d="M285.87,-112.32C302.71,-103.66 328.81,-90.24 348.24,-80.25"/>
<polygon fill="midnightblue" stroke="midnightblue" points="349.88,-83.34 357.17,-75.65 346.68,-77.12 349.88,-83.34"/>
</g>
<!-- Node8&#45;&gt;Node7 -->
<g id="edge8" class="edge">
<title>Node8&#45;&gt;Node7</title>
<path fill="none" stroke="midnightblue" d="M263.55,-56.08C258.99,-48.61 252.33,-37.72 246.71,-28.52"/>
<polygon fill="midnightblue" stroke="midnightblue" points="249.55,-26.46 241.35,-19.75 243.58,-30.11 249.55,-26.46"/>
</g>
</g>
</svg>
