<?xml version="1.0" encoding="UTF-8" standalone="no"?>
<!DOCTYPE svg PUBLIC "-//W3C//DTD SVG 1.1//EN"
 "http://www.w3.org/Graphics/SVG/1.1/DTD/svg11.dtd">
<!-- Generated by graphviz version 2.43.0 (0)
 -->
<!-- Title: build/FRI&#45;Client&#45;SDK_Cpp/example/LBRJointSineOverlay/LBRJointSineOverlayClient.cpp Pages: 1 -->
<svg width="382pt" height="274pt"
 viewBox="0.00 0.00 381.50 274.00" xmlns="http://www.w3.org/2000/svg" xmlns:xlink="http://www.w3.org/1999/xlink">
<g id="graph0" class="graph" transform="scale(1 1) rotate(0) translate(4 270)">
<title>build/FRI&#45;Client&#45;SDK_Cpp/example/LBRJointSineOverlay/LBRJointSineOverlayClient.cpp</title>
<polygon fill="white" stroke="transparent" points="-4,4 -4,-270 377.5,-270 377.5,4 -4,4"/>
<!-- Node1 -->
<g id="node1" class="node">
<title>Node1</title>
<g id="a_node1"><a xlink:title=" ">
<polygon fill="#bfbfbf" stroke="black" points="110,-224.5 110,-265.5 286,-265.5 286,-224.5 110,-224.5"/>
<text text-anchor="start" x="118" y="-253.5" font-family="Helvetica,sans-Serif" font-size="10.00">build/FRI&#45;Client&#45;SDK</text>
<text text-anchor="start" x="118" y="-242.5" font-family="Helvetica,sans-Serif" font-size="10.00">_Cpp/example/LBRJointSineOverlay</text>
<text text-anchor="middle" x="198" y="-231.5" font-family="Helvetica,sans-Serif" font-size="10.00">/LBRJointSineOverlayClient.cpp</text>
</a>
</g>
</g>
<!-- Node2 -->
<g id="node2" class="node">
<title>Node2</title>
<g id="a_node2"><a xlink:title=" ">
<polygon fill="white" stroke="#bfbfbf" points="0,-168.5 0,-187.5 46,-187.5 46,-168.5 0,-168.5"/>
<text text-anchor="middle" x="23" y="-175.5" font-family="Helvetica,sans-Serif" font-size="10.00">cstring</text>
</a>
</g>
</g>
<!-- Node1&#45;&gt;Node2 -->
<g id="edge1" class="edge">
<title>Node1&#45;&gt;Node2</title>
<path fill="none" stroke="midnightblue" d="M145.49,-224.5C116.34,-213.67 80.98,-200.54 55.76,-191.17"/>
<polygon fill="midnightblue" stroke="midnightblue" points="56.89,-187.85 46.3,-187.65 54.45,-194.42 56.89,-187.85"/>
</g>
<!-- Node3 -->
<g id="node3" class="node">
<title>Node3</title>
<g id="a_node3"><a xlink:title=" ">
<polygon fill="white" stroke="#bfbfbf" points="64.5,-168.5 64.5,-187.5 107.5,-187.5 107.5,-168.5 64.5,-168.5"/>
<text text-anchor="middle" x="86" y="-175.5" font-family="Helvetica,sans-Serif" font-size="10.00">cstdio</text>
</a>
</g>
</g>
<!-- Node1&#45;&gt;Node3 -->
<g id="edge2" class="edge">
<title>Node1&#45;&gt;Node3</title>
<path fill="none" stroke="midnightblue" d="M164.4,-224.5C146.73,-214.24 125.5,-201.93 109.59,-192.69"/>
<polygon fill="midnightblue" stroke="midnightblue" points="111.31,-189.64 100.91,-187.65 107.8,-195.7 111.31,-189.64"/>
</g>
<!-- Node4 -->
<g id="node4" class="node">
<title>Node4</title>
<g id="a_node4"><a xlink:href="_l_b_r_joint_sine_overlay_client_8h.html" target="_top" xlink:title=" ">
<polygon fill="white" stroke="black" points="126,-168.5 126,-187.5 270,-187.5 270,-168.5 126,-168.5"/>
<text text-anchor="middle" x="198" y="-175.5" font-family="Helvetica,sans-Serif" font-size="10.00">LBRJointSineOverlayClient.h</text>
</a>
</g>
</g>
<!-- Node1&#45;&gt;Node4 -->
<g id="edge3" class="edge">
<title>Node1&#45;&gt;Node4</title>
<path fill="none" stroke="midnightblue" d="M198,-224.5C198,-216.07 198,-206.24 198,-197.87"/>
<polygon fill="midnightblue" stroke="midnightblue" points="201.5,-197.65 198,-187.65 194.5,-197.65 201.5,-197.65"/>
</g>
<!-- Node7 -->
<g id="node7" class="node">
<title>Node7</title>
<g id="a_node7"><a xlink:href="fri_l_b_r_state_8h.html" target="_top" xlink:title=" ">
<polygon fill="white" stroke="black" points="262,-56.5 262,-75.5 338,-75.5 338,-56.5 262,-56.5"/>
<text text-anchor="middle" x="300" y="-63.5" font-family="Helvetica,sans-Serif" font-size="10.00">friLBRState.h</text>
</a>
</g>
</g>
<!-- Node1&#45;&gt;Node7 -->
<g id="edge9" class="edge">
<title>Node1&#45;&gt;Node7</title>
<path fill="none" stroke="midnightblue" d="M239.21,-224.32C253.97,-215.26 269.33,-203.12 279,-188 299.22,-156.38 301.56,-111.03 301.05,-85.78"/>
<polygon fill="midnightblue" stroke="midnightblue" points="304.55,-85.58 300.67,-75.72 297.55,-85.85 304.55,-85.58"/>
</g>
<!-- Node9 -->
<g id="node9" class="node">
<title>Node9</title>
<g id="a_node9"><a xlink:title=" ">
<polygon fill="white" stroke="#bfbfbf" points="326.5,-168.5 326.5,-187.5 373.5,-187.5 373.5,-168.5 326.5,-168.5"/>
<text text-anchor="middle" x="350" y="-175.5" font-family="Helvetica,sans-Serif" font-size="10.00">math.h</text>
</a>
</g>
</g>
<!-- Node1&#45;&gt;Node9 -->
<g id="edge10" class="edge">
<title>Node1&#45;&gt;Node9</title>
<path fill="none" stroke="midnightblue" d="M243.61,-224.5C268.48,-213.86 298.55,-201 320.37,-191.67"/>
<polygon fill="midnightblue" stroke="midnightblue" points="321.95,-194.8 329.77,-187.65 319.2,-188.37 321.95,-194.8"/>
</g>
<!-- Node5 -->
<g id="node5" class="node">
<title>Node5</title>
<g id="a_node5"><a xlink:href="fri_l_b_r_client_8h.html" target="_top" xlink:title=" ">
<polygon fill="white" stroke="black" points="158,-112.5 158,-131.5 236,-131.5 236,-112.5 158,-112.5"/>
<text text-anchor="middle" x="197" y="-119.5" font-family="Helvetica,sans-Serif" font-size="10.00">friLBRClient.h</text>
</a>
</g>
</g>
<!-- Node4&#45;&gt;Node5 -->
<g id="edge4" class="edge">
<title>Node4&#45;&gt;Node5</title>
<path fill="none" stroke="midnightblue" d="M197.83,-168.08C197.7,-161.01 197.52,-150.86 197.35,-141.99"/>
<polygon fill="midnightblue" stroke="midnightblue" points="200.85,-141.68 197.16,-131.75 193.85,-141.81 200.85,-141.68"/>
</g>
<!-- Node6 -->
<g id="node6" class="node">
<title>Node6</title>
<g id="a_node6"><a xlink:href="fri_client_if_8h.html" target="_top" xlink:title=" ">
<polygon fill="white" stroke="black" points="176.5,-0.5 176.5,-19.5 241.5,-19.5 241.5,-0.5 176.5,-0.5"/>
<text text-anchor="middle" x="209" y="-7.5" font-family="Helvetica,sans-Serif" font-size="10.00">friClientIf.h</text>
</a>
</g>
</g>
<!-- Node5&#45;&gt;Node6 -->
<g id="edge5" class="edge">
<title>Node5&#45;&gt;Node6</title>
<path fill="none" stroke="midnightblue" d="M178.49,-112.46C156.42,-101 124.05,-79.37 137,-56 145.09,-41.41 160.1,-30.92 174.34,-23.76"/>
<polygon fill="midnightblue" stroke="midnightblue" points="175.89,-26.9 183.5,-19.53 172.95,-20.55 175.89,-26.9"/>
</g>
<!-- Node5&#45;&gt;Node7 -->
<g id="edge6" class="edge">
<title>Node5&#45;&gt;Node7</title>
<path fill="none" stroke="midnightblue" d="M213.55,-112.32C229.99,-103.7 255.43,-90.36 274.47,-80.39"/>
<polygon fill="midnightblue" stroke="midnightblue" points="276.26,-83.4 283.49,-75.65 273.01,-77.2 276.26,-83.4"/>
</g>
<!-- Node8 -->
<g id="node8" class="node">
<title>Node8</title>
<g id="a_node8"><a xlink:href="fri_l_b_r_command_8h.html" target="_top" xlink:title=" ">
<polygon fill="white" stroke="black" points="146,-56.5 146,-75.5 244,-75.5 244,-56.5 146,-56.5"/>
<text text-anchor="middle" x="195" y="-63.5" font-family="Helvetica,sans-Serif" font-size="10.00">friLBRCommand.h</text>
</a>
</g>
</g>
<!-- Node5&#45;&gt;Node8 -->
<g id="edge8" class="edge">
<title>Node5&#45;&gt;Node8</title>
<path fill="none" stroke="midnightblue" d="M196.67,-112.08C196.41,-105.01 196.03,-94.86 195.7,-85.99"/>
<polygon fill="midnightblue" stroke="midnightblue" points="199.19,-85.61 195.32,-75.75 192.2,-85.87 199.19,-85.61"/>
</g>
<!-- Node7&#45;&gt;Node6 -->
<g id="edge7" class="edge">
<title>Node7&#45;&gt;Node6</title>
<path fill="none" stroke="midnightblue" d="M285.38,-56.32C271.05,-47.82 248.99,-34.73 232.25,-24.8"/>
<polygon fill="midnightblue" stroke="midnightblue" points="233.97,-21.75 223.58,-19.65 230.4,-27.77 233.97,-21.75"/>
</g>
</g>
</svg>
