<?xml version="1.0" encoding="UTF-8" standalone="no"?>
<!DOCTYPE svg PUBLIC "-//W3C//DTD SVG 1.1//EN"
 "http://www.w3.org/Graphics/SVG/1.1/DTD/svg11.dtd">
<!-- Generated by graphviz version 2.43.0 (0)
 -->
<!-- Title: build/FRI&#45;Client&#45;SDK_Cpp/example/LBRTorqueSineOverlay/LBRTorqueSineOverlayClient.h Pages: 1 -->
<svg width="255pt" height="218pt"
 viewBox="0.00 0.00 254.50 218.00" xmlns="http://www.w3.org/2000/svg" xmlns:xlink="http://www.w3.org/1999/xlink">
<g id="graph0" class="graph" transform="scale(1 1) rotate(0) translate(4 214)">
<title>build/FRI&#45;Client&#45;SDK_Cpp/example/LBRTorqueSineOverlay/LBRTorqueSineOverlayClient.h</title>
<polygon fill="white" stroke="transparent" points="-4,4 -4,-214 250.5,-214 250.5,4 -4,4"/>
<!-- Node1 -->
<g id="node1" class="node">
<title>Node1</title>
<g id="a_node1"><a xlink:title=" ">
<polygon fill="#bfbfbf" stroke="black" points="0,-168.5 0,-209.5 185,-209.5 185,-168.5 0,-168.5"/>
<text text-anchor="start" x="8" y="-197.5" font-family="Helvetica,sans-Serif" font-size="10.00">build/FRI&#45;Client&#45;SDK</text>
<text text-anchor="start" x="8" y="-186.5" font-family="Helvetica,sans-Serif" font-size="10.00">_Cpp/example/LBRTorqueSineOverlay</text>
<text text-anchor="middle" x="92.5" y="-175.5" font-family="Helvetica,sans-Serif" font-size="10.00">/LBRTorqueSineOverlayClient.h</text>
</a>
</g>
</g>
<!-- Node2 -->
<g id="node2" class="node">
<title>Node2</title>
<g id="a_node2"><a xlink:href="fri_l_b_r_client_8h.html" target="_top" xlink:title=" ">
<polygon fill="white" stroke="black" points="53.5,-112.5 53.5,-131.5 131.5,-131.5 131.5,-112.5 53.5,-112.5"/>
<text text-anchor="middle" x="92.5" y="-119.5" font-family="Helvetica,sans-Serif" font-size="10.00">friLBRClient.h</text>
</a>
</g>
</g>
<!-- Node1&#45;&gt;Node2 -->
<g id="edge1" class="edge">
<title>Node1&#45;&gt;Node2</title>
<path fill="none" stroke="midnightblue" d="M92.5,-168.5C92.5,-160.07 92.5,-150.24 92.5,-141.87"/>
<polygon fill="midnightblue" stroke="midnightblue" points="96,-141.65 92.5,-131.65 89,-141.65 96,-141.65"/>
</g>
<!-- Node3 -->
<g id="node3" class="node">
<title>Node3</title>
<g id="a_node3"><a xlink:href="fri_client_if_8h.html" target="_top" xlink:title=" ">
<polygon fill="white" stroke="black" points="27,-0.5 27,-19.5 92,-19.5 92,-0.5 27,-0.5"/>
<text text-anchor="middle" x="59.5" y="-7.5" font-family="Helvetica,sans-Serif" font-size="10.00">friClientIf.h</text>
</a>
</g>
</g>
<!-- Node2&#45;&gt;Node3 -->
<g id="edge2" class="edge">
<title>Node2&#45;&gt;Node3</title>
<path fill="none" stroke="midnightblue" d="M78.42,-112.26C67.15,-104.35 52.15,-91.58 45.5,-76 39,-60.77 44.18,-42.2 49.99,-28.82"/>
<polygon fill="midnightblue" stroke="midnightblue" points="53.18,-30.26 54.37,-19.73 46.87,-27.22 53.18,-30.26"/>
</g>
<!-- Node4 -->
<g id="node4" class="node">
<title>Node4</title>
<g id="a_node4"><a xlink:href="fri_l_b_r_state_8h.html" target="_top" xlink:title=" ">
<polygon fill="white" stroke="black" points="54.5,-56.5 54.5,-75.5 130.5,-75.5 130.5,-56.5 54.5,-56.5"/>
<text text-anchor="middle" x="92.5" y="-63.5" font-family="Helvetica,sans-Serif" font-size="10.00">friLBRState.h</text>
</a>
</g>
</g>
<!-- Node2&#45;&gt;Node4 -->
<g id="edge3" class="edge">
<title>Node2&#45;&gt;Node4</title>
<path fill="none" stroke="midnightblue" d="M92.5,-112.08C92.5,-105.01 92.5,-94.86 92.5,-85.99"/>
<polygon fill="midnightblue" stroke="midnightblue" points="96,-85.75 92.5,-75.75 89,-85.75 96,-85.75"/>
</g>
<!-- Node5 -->
<g id="node5" class="node">
<title>Node5</title>
<g id="a_node5"><a xlink:href="fri_l_b_r_command_8h.html" target="_top" xlink:title=" ">
<polygon fill="white" stroke="black" points="148.5,-56.5 148.5,-75.5 246.5,-75.5 246.5,-56.5 148.5,-56.5"/>
<text text-anchor="middle" x="197.5" y="-63.5" font-family="Helvetica,sans-Serif" font-size="10.00">friLBRCommand.h</text>
</a>
</g>
</g>
<!-- Node2&#45;&gt;Node5 -->
<g id="edge5" class="edge">
<title>Node2&#45;&gt;Node5</title>
<path fill="none" stroke="midnightblue" d="M109.37,-112.32C126.21,-103.66 152.31,-90.24 171.74,-80.25"/>
<polygon fill="midnightblue" stroke="midnightblue" points="173.38,-83.34 180.67,-75.65 170.18,-77.12 173.38,-83.34"/>
</g>
<!-- Node4&#45;&gt;Node3 -->
<g id="edge4" class="edge">
<title>Node4&#45;&gt;Node3</title>
<path fill="none" stroke="midnightblue" d="M87.05,-56.08C82.49,-48.61 75.83,-37.72 70.21,-28.52"/>
<polygon fill="midnightblue" stroke="midnightblue" points="73.05,-26.46 64.85,-19.75 67.08,-30.11 73.05,-26.46"/>
</g>
</g>
</svg>
