<?xml version="1.0" encoding="UTF-8" standalone="no"?>
<!DOCTYPE svg PUBLIC "-//W3C//DTD SVG 1.1//EN"
 "http://www.w3.org/Graphics/SVG/1.1/DTD/svg11.dtd">
<!-- Generated by graphviz version 2.43.0 (0)
 -->
<!-- Title: build/FRI&#45;Client&#45;SDK_Cpp/example/LBRClientTemplate/MyLBRApp.cpp Pages: 1 -->
<svg width="594pt" height="274pt"
 viewBox="0.00 0.00 594.00 274.00" xmlns="http://www.w3.org/2000/svg" xmlns:xlink="http://www.w3.org/1999/xlink">
<g id="graph0" class="graph" transform="scale(1 1) rotate(0) translate(4 270)">
<title>build/FRI&#45;Client&#45;SDK_Cpp/example/LBRClientTemplate/MyLBRApp.cpp</title>
<polygon fill="white" stroke="transparent" points="-4,4 -4,-270 590,-270 590,4 -4,4"/>
<!-- Node1 -->
<g id="node1" class="node">
<title>Node1</title>
<g id="a_node1"><a xlink:title=" ">
<polygon fill="#bfbfbf" stroke="black" points="189.5,-224.5 189.5,-265.5 356.5,-265.5 356.5,-224.5 189.5,-224.5"/>
<text text-anchor="start" x="197.5" y="-253.5" font-family="Helvetica,sans-Serif" font-size="10.00">build/FRI&#45;Client&#45;SDK</text>
<text text-anchor="start" x="197.5" y="-242.5" font-family="Helvetica,sans-Serif" font-size="10.00">_Cpp/example/LBRClientTemplate</text>
<text text-anchor="middle" x="273" y="-231.5" font-family="Helvetica,sans-Serif" font-size="10.00">/MyLBRApp.cpp</text>
</a>
</g>
</g>
<!-- Node2 -->
<g id="node2" class="node">
<title>Node2</title>
<g id="a_node2"><a xlink:title=" ">
<polygon fill="white" stroke="#bfbfbf" points="270.5,-112.5 270.5,-131.5 315.5,-131.5 315.5,-112.5 270.5,-112.5"/>
<text text-anchor="middle" x="293" y="-119.5" font-family="Helvetica,sans-Serif" font-size="10.00">cstdlib</text>
</a>
</g>
</g>
<!-- Node1&#45;&gt;Node2 -->
<g id="edge1" class="edge">
<title>Node1&#45;&gt;Node2</title>
<path fill="none" stroke="midnightblue" d="M276.26,-224.29C280.05,-201.37 286.25,-163.85 289.95,-141.47"/>
<polygon fill="midnightblue" stroke="midnightblue" points="293.4,-142.01 291.58,-131.57 286.5,-140.87 293.4,-142.01"/>
</g>
<!-- Node3 -->
<g id="node3" class="node">
<title>Node3</title>
<g id="a_node3"><a xlink:title=" ">
<polygon fill="white" stroke="#bfbfbf" points="163.5,-168.5 163.5,-187.5 206.5,-187.5 206.5,-168.5 163.5,-168.5"/>
<text text-anchor="middle" x="185" y="-175.5" font-family="Helvetica,sans-Serif" font-size="10.00">cstdio</text>
</a>
</g>
</g>
<!-- Node1&#45;&gt;Node3 -->
<g id="edge2" class="edge">
<title>Node1&#45;&gt;Node3</title>
<path fill="none" stroke="midnightblue" d="M246.6,-224.5C233.23,-214.63 217.28,-202.84 204.96,-193.74"/>
<polygon fill="midnightblue" stroke="midnightblue" points="206.84,-190.78 196.71,-187.65 202.68,-196.41 206.84,-190.78"/>
</g>
<!-- Node4 -->
<g id="node4" class="node">
<title>Node4</title>
<g id="a_node4"><a xlink:title=" ">
<polygon fill="white" stroke="#bfbfbf" points="225,-168.5 225,-187.5 271,-187.5 271,-168.5 225,-168.5"/>
<text text-anchor="middle" x="248" y="-175.5" font-family="Helvetica,sans-Serif" font-size="10.00">cstring</text>
</a>
</g>
</g>
<!-- Node1&#45;&gt;Node4 -->
<g id="edge3" class="edge">
<title>Node1&#45;&gt;Node4</title>
<path fill="none" stroke="midnightblue" d="M265.5,-224.5C262.15,-215.78 258.22,-205.56 254.93,-197.02"/>
<polygon fill="midnightblue" stroke="midnightblue" points="258.18,-195.73 251.33,-187.65 251.65,-198.24 258.18,-195.73"/>
</g>
<!-- Node5 -->
<g id="node5" class="node">
<title>Node5</title>
<g id="a_node5"><a xlink:href="_my_l_b_r_client_8h.html" target="_top" xlink:title=" ">
<polygon fill="white" stroke="black" points="62.5,-168.5 62.5,-187.5 145.5,-187.5 145.5,-168.5 62.5,-168.5"/>
<text text-anchor="middle" x="104" y="-175.5" font-family="Helvetica,sans-Serif" font-size="10.00">MyLBRClient.h</text>
</a>
</g>
</g>
<!-- Node1&#45;&gt;Node5 -->
<g id="edge4" class="edge">
<title>Node1&#45;&gt;Node5</title>
<path fill="none" stroke="midnightblue" d="M222.29,-224.5C194.27,-213.72 160.3,-200.65 135.96,-191.29"/>
<polygon fill="midnightblue" stroke="midnightblue" points="137.09,-187.98 126.5,-187.65 134.57,-194.51 137.09,-187.98"/>
</g>
<!-- Node10 -->
<g id="node10" class="node">
<title>Node10</title>
<g id="a_node10"><a xlink:href="fri_udp_connection_8h.html" target="_top" xlink:title=" ">
<polygon fill="white" stroke="black" points="327.5,-168.5 327.5,-187.5 428.5,-187.5 428.5,-168.5 327.5,-168.5"/>
<text text-anchor="middle" x="378" y="-175.5" font-family="Helvetica,sans-Serif" font-size="10.00">friUdpConnection.h</text>
</a>
</g>
</g>
<!-- Node1&#45;&gt;Node10 -->
<g id="edge10" class="edge">
<title>Node1&#45;&gt;Node10</title>
<path fill="none" stroke="midnightblue" d="M304.5,-224.5C320.91,-214.34 340.6,-202.16 355.46,-192.95"/>
<polygon fill="midnightblue" stroke="midnightblue" points="357.36,-195.89 364.02,-187.65 353.68,-189.94 357.36,-195.89"/>
</g>
<!-- Node14 -->
<g id="node14" class="node">
<title>Node14</title>
<g id="a_node14"><a xlink:href="fri_client_application_8h.html" target="_top" xlink:title=" ">
<polygon fill="white" stroke="black" points="446.5,-168.5 446.5,-187.5 553.5,-187.5 553.5,-168.5 446.5,-168.5"/>
<text text-anchor="middle" x="500" y="-175.5" font-family="Helvetica,sans-Serif" font-size="10.00">friClientApplication.h</text>
</a>
</g>
</g>
<!-- Node1&#45;&gt;Node14 -->
<g id="edge15" class="edge">
<title>Node1&#45;&gt;Node14</title>
<path fill="none" stroke="midnightblue" d="M341.11,-224.5C380.04,-213.35 427.52,-199.76 460.38,-190.35"/>
<polygon fill="midnightblue" stroke="midnightblue" points="461.43,-193.68 470.08,-187.57 459.5,-186.96 461.43,-193.68"/>
</g>
<!-- Node6 -->
<g id="node6" class="node">
<title>Node6</title>
<g id="a_node6"><a xlink:href="fri_l_b_r_client_8h.html" target="_top" xlink:title=" ">
<polygon fill="white" stroke="black" points="65,-112.5 65,-131.5 143,-131.5 143,-112.5 65,-112.5"/>
<text text-anchor="middle" x="104" y="-119.5" font-family="Helvetica,sans-Serif" font-size="10.00">friLBRClient.h</text>
</a>
</g>
</g>
<!-- Node5&#45;&gt;Node6 -->
<g id="edge5" class="edge">
<title>Node5&#45;&gt;Node6</title>
<path fill="none" stroke="midnightblue" d="M104,-168.08C104,-161.01 104,-150.86 104,-141.99"/>
<polygon fill="midnightblue" stroke="midnightblue" points="107.5,-141.75 104,-131.75 100.5,-141.75 107.5,-141.75"/>
</g>
<!-- Node7 -->
<g id="node7" class="node">
<title>Node7</title>
<g id="a_node7"><a xlink:href="fri_client_if_8h.html" target="_top" xlink:title=" ">
<polygon fill="white" stroke="black" points="38.5,-0.5 38.5,-19.5 103.5,-19.5 103.5,-0.5 38.5,-0.5"/>
<text text-anchor="middle" x="71" y="-7.5" font-family="Helvetica,sans-Serif" font-size="10.00">friClientIf.h</text>
</a>
</g>
</g>
<!-- Node6&#45;&gt;Node7 -->
<g id="edge6" class="edge">
<title>Node6&#45;&gt;Node7</title>
<path fill="none" stroke="midnightblue" d="M101.47,-112.15C97.87,-99.63 91.04,-76.04 85,-56 82.34,-47.18 79.31,-37.41 76.75,-29.23"/>
<polygon fill="midnightblue" stroke="midnightblue" points="80.06,-28.1 73.73,-19.61 73.39,-30.2 80.06,-28.1"/>
</g>
<!-- Node8 -->
<g id="node8" class="node">
<title>Node8</title>
<g id="a_node8"><a xlink:href="fri_l_b_r_state_8h.html" target="_top" xlink:title=" ">
<polygon fill="white" stroke="black" points="0,-56.5 0,-75.5 76,-75.5 76,-56.5 0,-56.5"/>
<text text-anchor="middle" x="38" y="-63.5" font-family="Helvetica,sans-Serif" font-size="10.00">friLBRState.h</text>
</a>
</g>
</g>
<!-- Node6&#45;&gt;Node8 -->
<g id="edge7" class="edge">
<title>Node6&#45;&gt;Node8</title>
<path fill="none" stroke="midnightblue" d="M93.4,-112.32C83.54,-104.26 68.65,-92.08 56.78,-82.37"/>
<polygon fill="midnightblue" stroke="midnightblue" points="58.75,-79.46 48.8,-75.83 54.32,-84.88 58.75,-79.46"/>
</g>
<!-- Node9 -->
<g id="node9" class="node">
<title>Node9</title>
<g id="a_node9"><a xlink:href="fri_l_b_r_command_8h.html" target="_top" xlink:title=" ">
<polygon fill="white" stroke="black" points="132,-56.5 132,-75.5 230,-75.5 230,-56.5 132,-56.5"/>
<text text-anchor="middle" x="181" y="-63.5" font-family="Helvetica,sans-Serif" font-size="10.00">friLBRCommand.h</text>
</a>
</g>
</g>
<!-- Node6&#45;&gt;Node9 -->
<g id="edge9" class="edge">
<title>Node6&#45;&gt;Node9</title>
<path fill="none" stroke="midnightblue" d="M116.37,-112.32C128.16,-104.06 146.13,-91.45 160.14,-81.63"/>
<polygon fill="midnightblue" stroke="midnightblue" points="162.48,-84.26 168.66,-75.65 158.46,-78.53 162.48,-84.26"/>
</g>
<!-- Node8&#45;&gt;Node7 -->
<g id="edge8" class="edge">
<title>Node8&#45;&gt;Node7</title>
<path fill="none" stroke="midnightblue" d="M43.45,-56.08C48.01,-48.61 54.67,-37.72 60.29,-28.52"/>
<polygon fill="midnightblue" stroke="midnightblue" points="63.42,-30.11 65.65,-19.75 57.45,-26.46 63.42,-30.11"/>
</g>
<!-- Node10&#45;&gt;Node2 -->
<g id="edge11" class="edge">
<title>Node10&#45;&gt;Node2</title>
<path fill="none" stroke="midnightblue" d="M364.34,-168.32C351.08,-159.9 330.73,-146.97 315.15,-137.07"/>
<polygon fill="midnightblue" stroke="midnightblue" points="316.94,-134.06 306.62,-131.65 313.19,-139.97 316.94,-134.06"/>
</g>
<!-- Node11 -->
<g id="node11" class="node">
<title>Node11</title>
<g id="a_node11"><a xlink:title=" ">
<polygon fill="white" stroke="#bfbfbf" points="440.5,-112.5 440.5,-131.5 505.5,-131.5 505.5,-112.5 440.5,-112.5"/>
<text text-anchor="middle" x="473" y="-119.5" font-family="Helvetica,sans-Serif" font-size="10.00">netinet/in.h</text>
</a>
</g>
</g>
<!-- Node10&#45;&gt;Node11 -->
<g id="edge12" class="edge">
<title>Node10&#45;&gt;Node11</title>
<path fill="none" stroke="midnightblue" d="M393.26,-168.32C408.22,-159.82 431.25,-146.73 448.73,-136.8"/>
<polygon fill="midnightblue" stroke="midnightblue" points="450.81,-139.64 457.77,-131.65 447.35,-133.55 450.81,-139.64"/>
</g>
<!-- Node12 -->
<g id="node12" class="node">
<title>Node12</title>
<g id="a_node12"><a xlink:title=" ">
<polygon fill="white" stroke="#bfbfbf" points="524,-112.5 524,-131.5 586,-131.5 586,-112.5 524,-112.5"/>
<text text-anchor="middle" x="555" y="-119.5" font-family="Helvetica,sans-Serif" font-size="10.00">arpa/inet.h</text>
</a>
</g>
</g>
<!-- Node10&#45;&gt;Node12 -->
<g id="edge13" class="edge">
<title>Node10&#45;&gt;Node12</title>
<path fill="none" stroke="midnightblue" d="M406.05,-168.44C436.08,-159.28 483.91,-144.69 517.24,-134.52"/>
<polygon fill="midnightblue" stroke="midnightblue" points="518.54,-137.78 527.09,-131.52 516.5,-131.09 518.54,-137.78"/>
</g>
<!-- Node13 -->
<g id="node13" class="node">
<title>Node13</title>
<g id="a_node13"><a xlink:href="fri_connection_if_8h.html" target="_top" xlink:title=" ">
<polygon fill="white" stroke="black" points="333.5,-112.5 333.5,-131.5 422.5,-131.5 422.5,-112.5 333.5,-112.5"/>
<text text-anchor="middle" x="378" y="-119.5" font-family="Helvetica,sans-Serif" font-size="10.00">friConnectionIf.h</text>
</a>
</g>
</g>
<!-- Node10&#45;&gt;Node13 -->
<g id="edge14" class="edge">
<title>Node10&#45;&gt;Node13</title>
<path fill="none" stroke="midnightblue" d="M378,-168.08C378,-161.01 378,-150.86 378,-141.99"/>
<polygon fill="midnightblue" stroke="midnightblue" points="381.5,-141.75 378,-131.75 374.5,-141.75 381.5,-141.75"/>
</g>
</g>
</svg>
