<?xml version="1.0" encoding="UTF-8" standalone="no"?>
<!DOCTYPE svg PUBLIC "-//W3C//DTD SVG 1.1//EN"
 "http://www.w3.org/Graphics/SVG/1.1/DTD/svg11.dtd">
<!-- Generated by graphviz version 2.43.0 (0)
 -->
<!-- Title: build/FRI&#45;Client&#45;SDK_Cpp/example/LBRClientTemplate/MyLBRClient.h Pages: 1 -->
<svg width="246pt" height="218pt"
 viewBox="0.00 0.00 245.50 218.00" xmlns="http://www.w3.org/2000/svg" xmlns:xlink="http://www.w3.org/1999/xlink">
<g id="graph0" class="graph" transform="scale(1 1) rotate(0) translate(4 214)">
<title>build/FRI&#45;Client&#45;SDK_Cpp/example/LBRClientTemplate/MyLBRClient.h</title>
<polygon fill="white" stroke="transparent" points="-4,4 -4,-214 241.5,-214 241.5,4 -4,4"/>
<!-- Node1 -->
<g id="node1" class="node">
<title>Node1</title>
<g id="a_node1"><a xlink:title=" ">
<polygon fill="#bfbfbf" stroke="black" points="0,-168.5 0,-209.5 167,-209.5 167,-168.5 0,-168.5"/>
<text text-anchor="start" x="8" y="-197.5" font-family="Helvetica,sans-Serif" font-size="10.00">build/FRI&#45;Client&#45;SDK</text>
<text text-anchor="start" x="8" y="-186.5" font-family="Helvetica,sans-Serif" font-size="10.00">_Cpp/example/LBRClientTemplate</text>
<text text-anchor="middle" x="83.5" y="-175.5" font-family="Helvetica,sans-Serif" font-size="10.00">/MyLBRClient.h</text>
</a>
</g>
</g>
<!-- Node2 -->
<g id="node2" class="node">
<title>Node2</title>
<g id="a_node2"><a xlink:href="fri_l_b_r_client_8h.html" target="_top" xlink:title=" ">
<polygon fill="white" stroke="black" points="44.5,-112.5 44.5,-131.5 122.5,-131.5 122.5,-112.5 44.5,-112.5"/>
<text text-anchor="middle" x="83.5" y="-119.5" font-family="Helvetica,sans-Serif" font-size="10.00">friLBRClient.h</text>
</a>
</g>
</g>
<!-- Node1&#45;&gt;Node2 -->
<g id="edge1" class="edge">
<title>Node1&#45;&gt;Node2</title>
<path fill="none" stroke="midnightblue" d="M83.5,-168.5C83.5,-160.07 83.5,-150.24 83.5,-141.87"/>
<polygon fill="midnightblue" stroke="midnightblue" points="87,-141.65 83.5,-131.65 80,-141.65 87,-141.65"/>
</g>
<!-- Node3 -->
<g id="node3" class="node">
<title>Node3</title>
<g id="a_node3"><a xlink:href="fri_client_if_8h.html" target="_top" xlink:title=" ">
<polygon fill="white" stroke="black" points="18,-0.5 18,-19.5 83,-19.5 83,-0.5 18,-0.5"/>
<text text-anchor="middle" x="50.5" y="-7.5" font-family="Helvetica,sans-Serif" font-size="10.00">friClientIf.h</text>
</a>
</g>
</g>
<!-- Node2&#45;&gt;Node3 -->
<g id="edge2" class="edge">
<title>Node2&#45;&gt;Node3</title>
<path fill="none" stroke="midnightblue" d="M69.42,-112.26C58.15,-104.35 43.15,-91.58 36.5,-76 30,-60.77 35.18,-42.2 40.99,-28.82"/>
<polygon fill="midnightblue" stroke="midnightblue" points="44.18,-30.26 45.37,-19.73 37.87,-27.22 44.18,-30.26"/>
</g>
<!-- Node4 -->
<g id="node4" class="node">
<title>Node4</title>
<g id="a_node4"><a xlink:href="fri_l_b_r_state_8h.html" target="_top" xlink:title=" ">
<polygon fill="white" stroke="black" points="45.5,-56.5 45.5,-75.5 121.5,-75.5 121.5,-56.5 45.5,-56.5"/>
<text text-anchor="middle" x="83.5" y="-63.5" font-family="Helvetica,sans-Serif" font-size="10.00">friLBRState.h</text>
</a>
</g>
</g>
<!-- Node2&#45;&gt;Node4 -->
<g id="edge3" class="edge">
<title>Node2&#45;&gt;Node4</title>
<path fill="none" stroke="midnightblue" d="M83.5,-112.08C83.5,-105.01 83.5,-94.86 83.5,-85.99"/>
<polygon fill="midnightblue" stroke="midnightblue" points="87,-85.75 83.5,-75.75 80,-85.75 87,-85.75"/>
</g>
<!-- Node5 -->
<g id="node5" class="node">
<title>Node5</title>
<g id="a_node5"><a xlink:href="fri_l_b_r_command_8h.html" target="_top" xlink:title=" ">
<polygon fill="white" stroke="black" points="139.5,-56.5 139.5,-75.5 237.5,-75.5 237.5,-56.5 139.5,-56.5"/>
<text text-anchor="middle" x="188.5" y="-63.5" font-family="Helvetica,sans-Serif" font-size="10.00">friLBRCommand.h</text>
</a>
</g>
</g>
<!-- Node2&#45;&gt;Node5 -->
<g id="edge5" class="edge">
<title>Node2&#45;&gt;Node5</title>
<path fill="none" stroke="midnightblue" d="M100.37,-112.32C117.21,-103.66 143.31,-90.24 162.74,-80.25"/>
<polygon fill="midnightblue" stroke="midnightblue" points="164.38,-83.34 171.67,-75.65 161.18,-77.12 164.38,-83.34"/>
</g>
<!-- Node4&#45;&gt;Node3 -->
<g id="edge4" class="edge">
<title>Node4&#45;&gt;Node3</title>
<path fill="none" stroke="midnightblue" d="M78.05,-56.08C73.49,-48.61 66.83,-37.72 61.21,-28.52"/>
<polygon fill="midnightblue" stroke="midnightblue" points="64.05,-26.46 55.85,-19.75 58.08,-30.11 64.05,-26.46"/>
</g>
</g>
</svg>
