<?xml version="1.0" encoding="UTF-8" standalone="no"?>
<!DOCTYPE svg PUBLIC "-//W3C//DTD SVG 1.1//EN"
 "http://www.w3.org/Graphics/SVG/1.1/DTD/svg11.dtd">
<!-- Generated by graphviz version 2.43.0 (0)
 -->
<!-- Title: build/FRI&#45;Client&#45;SDK_Cpp/example/SimulatedTransformationProvider/SimulatedTransformationProviderApp.cpp Pages: 1 -->
<!--zoomable 240 -->
<svg id="main" version="1.1" xmlns="http://www.w3.org/2000/svg" xmlns:xlink="http://www.w3.org/1999/xlink" xml:space="preserve" onload="init(evt)">
<style type="text/css"><![CDATA[
.edge:hover path { stroke: red; }
.edge:hover polygon { stroke: red; fill: red; }
]]></style>
<script type="text/javascript"><![CDATA[
var edges = document.getElementsByTagName('g');
if (edges && edges.length) {
  for (var i=0;i<edges.length;i++) {
    if (edges[i].id.substr(0,4)=='edge') {
      edges[i].setAttribute('class','edge');
    }
  }
}
]]></script>
        <defs>
                <circle id="rim" cx="0" cy="0" r="7"/>
                <circle id="rim2" cx="0" cy="0" r="3.5"/>
                <g id="zoomPlus">
                        <use xlink:href="#rim" fill="#404040">
                                <set attributeName="fill" to="#808080" begin="zoomplus.mouseover" end="zoomplus.mouseout"/>
                        </use>
                        <path d="M-4,0h8M0,-4v8" fill="none" stroke="white" stroke-width="1.5" pointer-events="none"/>
                </g>
                <g id="zoomMin">
                        <use xlink:href="#rim" fill="#404040">
                                <set attributeName="fill" to="#808080" begin="zoomminus.mouseover" end="zoomminus.mouseout"/>
                        </use>
                        <path d="M-4,0h8" fill="none" stroke="white" stroke-width="1.5" pointer-events="none"/>
                </g>
                <g id="dirArrow">
                        <path fill="none" stroke="white" stroke-width="1.5" d="M0,-3.0v7 M-2.5,-0.5L0,-3.0L2.5,-0.5"/>
                </g>
               <g id="resetDef">
                       <use xlink:href="#rim2" fill="#404040">
                               <set attributeName="fill" to="#808080" begin="reset.mouseover" end="reset.mouseout"/>
                       </use>
               </g>
        </defs>

<script type="text/javascript">
var viewWidth = 755;
var viewHeight = 240;
var sectionId = 'dynsection-0';
</script>
<script xlink:href="svgpan.js"/>
<svg id="graph" class="graph">
<g id="viewport">
<title>build/FRI&#45;Client&#45;SDK_Cpp/example/SimulatedTransformationProvider/SimulatedTransformationProviderApp.cpp</title>
<polygon fill="white" stroke="transparent" points="-4,4 -4,-236 751,-236 751,4 -4,4"/>
<!-- Node1 -->
<g id="node1" class="node">
<title>Node1</title>
<g id="a_node1"><a xlink:title=" ">
<polygon fill="#bfbfbf" stroke="black" points="251,-179.5 251,-231.5 451,-231.5 451,-179.5 251,-179.5"/>
<text text-anchor="start" x="259" y="-219.5" font-family="Helvetica,sans-Serif" font-size="10.00">build/FRI&#45;Client&#45;SDK</text>
<text text-anchor="start" x="259" y="-208.5" font-family="Helvetica,sans-Serif" font-size="10.00">_Cpp/example/SimulatedTransformation</text>
<text text-anchor="start" x="259" y="-197.5" font-family="Helvetica,sans-Serif" font-size="10.00">Provider/SimulatedTransformationProvider</text>
<text text-anchor="middle" x="351" y="-186.5" font-family="Helvetica,sans-Serif" font-size="10.00">App.cpp</text>
</a>
</g>
</g>
<!-- Node2 -->
<g id="node2" class="node">
<title>Node2</title>
<g id="a_node2"><a xlink:title=" ">
<polygon fill="white" stroke="#bfbfbf" points="431.5,-56.5 431.5,-75.5 476.5,-75.5 476.5,-56.5 431.5,-56.5"/>
<text text-anchor="middle" x="454" y="-63.5" font-family="Helvetica,sans-Serif" font-size="10.00">cstdlib</text>
</a>
</g>
</g>
<!-- Node1&#45;&gt;Node2 -->
<g id="edge1" class="edge">
<title>Node1&#45;&gt;Node2</title>
<path fill="none" stroke="midnightblue" d="M402.44,-179.47C417.02,-169.98 431.5,-157.81 441,-143 451.93,-125.96 454.49,-102.52 454.74,-86.19"/>
<polygon fill="midnightblue" stroke="midnightblue" points="458.24,-85.71 454.61,-75.75 451.24,-85.8 458.24,-85.71"/>
</g>
<!-- Node3 -->
<g id="node3" class="node">
<title>Node3</title>
<g id="a_node3"><a xlink:title=" ">
<polygon fill="white" stroke="#bfbfbf" points="144.5,-118 144.5,-137 187.5,-137 187.5,-118 144.5,-118"/>
<text text-anchor="middle" x="166" y="-125" font-family="Helvetica,sans-Serif" font-size="10.00">cstdio</text>
</a>
</g>
</g>
<!-- Node1&#45;&gt;Node3 -->
<g id="edge2" class="edge">
<title>Node1&#45;&gt;Node3</title>
<path fill="none" stroke="midnightblue" d="M285.84,-179.44C258.28,-168.59 225.93,-155.53 197,-143 195.8,-142.48 194.59,-141.95 193.36,-141.4"/>
<polygon fill="midnightblue" stroke="midnightblue" points="194.5,-138.08 183.95,-137.11 191.6,-144.44 194.5,-138.08"/>
</g>
<!-- Node4 -->
<g id="node4" class="node">
<title>Node4</title>
<g id="a_node4"><a xlink:title=" ">
<polygon fill="white" stroke="#bfbfbf" points="206,-118 206,-137 252,-137 252,-118 206,-118"/>
<text text-anchor="middle" x="229" y="-125" font-family="Helvetica,sans-Serif" font-size="10.00">cstring</text>
</a>
</g>
</g>
<!-- Node1&#45;&gt;Node4 -->
<g id="edge3" class="edge">
<title>Node1&#45;&gt;Node4</title>
<path fill="none" stroke="midnightblue" d="M310.71,-179.4C291.1,-167.19 268.25,-152.95 251.71,-142.65"/>
<polygon fill="midnightblue" stroke="midnightblue" points="253.11,-139.39 242.77,-137.08 249.41,-145.34 253.11,-139.39"/>
</g>
<!-- Node5 -->
<g id="node5" class="node">
<title>Node5</title>
<g id="a_node5"><a xlink:href="fri_l_b_r_client_8h.html" target="_top" xlink:title=" ">
<polygon fill="white" stroke="black" points="48,-118 48,-137 126,-137 126,-118 48,-118"/>
<text text-anchor="middle" x="87" y="-125" font-family="Helvetica,sans-Serif" font-size="10.00">friLBRClient.h</text>
</a>
</g>
</g>
<!-- Node1&#45;&gt;Node5 -->
<g id="edge4" class="edge">
<title>Node1&#45;&gt;Node5</title>
<path fill="none" stroke="midnightblue" d="M261.84,-179.46C222.86,-168.42 176.62,-155.21 135,-143 131.64,-142.01 128.15,-140.98 124.66,-139.94"/>
<polygon fill="midnightblue" stroke="midnightblue" points="125.48,-136.53 114.9,-137.01 123.47,-143.24 125.48,-136.53"/>
</g>
<!-- Node9 -->
<g id="node9" class="node">
<title>Node9</title>
<g id="a_node9"><a xlink:href="_simulated_transformation_provider_client_8h.html" target="_top" xlink:title=" ">
<polygon fill="white" stroke="black" points="270.5,-112.5 270.5,-142.5 431.5,-142.5 431.5,-112.5 270.5,-112.5"/>
<text text-anchor="start" x="278.5" y="-130.5" font-family="Helvetica,sans-Serif" font-size="10.00">SimulatedTransformationProvider</text>
<text text-anchor="middle" x="351" y="-119.5" font-family="Helvetica,sans-Serif" font-size="10.00">Client.h</text>
</a>
</g>
</g>
<!-- Node1&#45;&gt;Node9 -->
<g id="edge9" class="edge">
<title>Node1&#45;&gt;Node9</title>
<path fill="none" stroke="midnightblue" d="M351,-179.19C351,-170.79 351,-161.44 351,-153.09"/>
<polygon fill="midnightblue" stroke="midnightblue" points="354.5,-152.85 351,-142.85 347.5,-152.85 354.5,-152.85"/>
</g>
<!-- Node12 -->
<g id="node12" class="node">
<title>Node12</title>
<g id="a_node12"><a xlink:href="fri_udp_connection_8h.html" target="_top" xlink:title=" ">
<polygon fill="white" stroke="black" points="488.5,-118 488.5,-137 589.5,-137 589.5,-118 488.5,-118"/>
<text text-anchor="middle" x="539" y="-125" font-family="Helvetica,sans-Serif" font-size="10.00">friUdpConnection.h</text>
</a>
</g>
</g>
<!-- Node1&#45;&gt;Node12 -->
<g id="edge13" class="edge">
<title>Node1&#45;&gt;Node12</title>
<path fill="none" stroke="midnightblue" d="M413.08,-179.4C444.99,-166.5 482.48,-151.35 508.2,-140.95"/>
<polygon fill="midnightblue" stroke="midnightblue" points="509.82,-144.07 517.78,-137.08 507.2,-137.58 509.82,-144.07"/>
</g>
<!-- Node16 -->
<g id="node16" class="node">
<title>Node16</title>
<g id="a_node16"><a xlink:href="fri_client_application_8h.html" target="_top" xlink:title=" ">
<polygon fill="white" stroke="black" points="607.5,-118 607.5,-137 714.5,-137 714.5,-118 607.5,-118"/>
<text text-anchor="middle" x="661" y="-125" font-family="Helvetica,sans-Serif" font-size="10.00">friClientApplication.h</text>
</a>
</g>
</g>
<!-- Node1&#45;&gt;Node16 -->
<g id="edge18" class="edge">
<title>Node1&#45;&gt;Node16</title>
<path fill="none" stroke="midnightblue" d="M451.22,-179.93C506.9,-166.28 573.41,-149.97 616.38,-139.44"/>
<polygon fill="midnightblue" stroke="midnightblue" points="617.37,-142.8 626.25,-137.02 615.7,-136 617.37,-142.8"/>
</g>
<!-- Node6 -->
<g id="node6" class="node">
<title>Node6</title>
<g id="a_node6"><a xlink:href="fri_client_if_8h.html" target="_top" xlink:title=" ">
<polygon fill="white" stroke="black" points="159.5,-0.5 159.5,-19.5 224.5,-19.5 224.5,-0.5 159.5,-0.5"/>
<text text-anchor="middle" x="192" y="-7.5" font-family="Helvetica,sans-Serif" font-size="10.00">friClientIf.h</text>
</a>
</g>
</g>
<!-- Node5&#45;&gt;Node6 -->
<g id="edge5" class="edge">
<title>Node5&#45;&gt;Node6</title>
<path fill="none" stroke="midnightblue" d="M93.48,-117.98C103.88,-104.45 125.17,-77.38 145,-56 154.51,-45.75 165.8,-34.89 174.94,-26.41"/>
<polygon fill="midnightblue" stroke="midnightblue" points="177.31,-28.99 182.31,-19.65 172.58,-23.83 177.31,-28.99"/>
</g>
<!-- Node7 -->
<g id="node7" class="node">
<title>Node7</title>
<g id="a_node7"><a xlink:href="fri_l_b_r_state_8h.html" target="_top" xlink:title=" ">
<polygon fill="white" stroke="black" points="154,-56.5 154,-75.5 230,-75.5 230,-56.5 154,-56.5"/>
<text text-anchor="middle" x="192" y="-63.5" font-family="Helvetica,sans-Serif" font-size="10.00">friLBRState.h</text>
</a>
</g>
</g>
<!-- Node5&#45;&gt;Node7 -->
<g id="edge6" class="edge">
<title>Node5&#45;&gt;Node7</title>
<path fill="none" stroke="midnightblue" d="M102.04,-117.98C119.28,-108.21 147.74,-92.08 168.03,-80.58"/>
<polygon fill="midnightblue" stroke="midnightblue" points="170.01,-83.48 176.98,-75.51 166.56,-77.39 170.01,-83.48"/>
</g>
<!-- Node8 -->
<g id="node8" class="node">
<title>Node8</title>
<g id="a_node8"><a xlink:href="fri_l_b_r_command_8h.html" target="_top" xlink:title=" ">
<polygon fill="white" stroke="black" points="0,-56.5 0,-75.5 98,-75.5 98,-56.5 0,-56.5"/>
<text text-anchor="middle" x="49" y="-63.5" font-family="Helvetica,sans-Serif" font-size="10.00">friLBRCommand.h</text>
</a>
</g>
</g>
<!-- Node5&#45;&gt;Node8 -->
<g id="edge8" class="edge">
<title>Node5&#45;&gt;Node8</title>
<path fill="none" stroke="midnightblue" d="M81.56,-117.98C75.91,-109.14 66.94,-95.09 59.84,-83.98"/>
<polygon fill="midnightblue" stroke="midnightblue" points="62.77,-82.05 54.43,-75.51 56.87,-85.82 62.77,-82.05"/>
</g>
<!-- Node7&#45;&gt;Node6 -->
<g id="edge7" class="edge">
<title>Node7&#45;&gt;Node6</title>
<path fill="none" stroke="midnightblue" d="M192,-56.08C192,-49.01 192,-38.86 192,-29.99"/>
<polygon fill="midnightblue" stroke="midnightblue" points="195.5,-29.75 192,-19.75 188.5,-29.75 195.5,-29.75"/>
</g>
<!-- Node10 -->
<g id="node10" class="node">
<title>Node10</title>
<g id="a_node10"><a xlink:href="fri_transformation_client_8h.html" target="_top" xlink:title=" ">
<polygon fill="white" stroke="black" points="269,-56.5 269,-75.5 393,-75.5 393,-56.5 269,-56.5"/>
<text text-anchor="middle" x="331" y="-63.5" font-family="Helvetica,sans-Serif" font-size="10.00">friTransformationClient.h</text>
</a>
</g>
</g>
<!-- Node9&#45;&gt;Node10 -->
<g id="edge10" class="edge">
<title>Node9&#45;&gt;Node10</title>
<path fill="none" stroke="midnightblue" d="M346.26,-112.4C343.53,-104.29 340.08,-94.01 337.14,-85.28"/>
<polygon fill="midnightblue" stroke="midnightblue" points="340.41,-84.02 333.91,-75.66 333.78,-86.25 340.41,-84.02"/>
</g>
<!-- Node10&#45;&gt;Node6 -->
<g id="edge12" class="edge">
<title>Node10&#45;&gt;Node6</title>
<path fill="none" stroke="midnightblue" d="M308.98,-56.44C285.9,-47.48 249.44,-33.31 223.36,-23.18"/>
<polygon fill="midnightblue" stroke="midnightblue" points="224.51,-19.88 213.92,-19.52 221.98,-26.4 224.51,-19.88"/>
</g>
<!-- Node11 -->
<g id="node11" class="node">
<title>Node11</title>
<g id="a_node11"><a xlink:title=" ">
<polygon fill="white" stroke="#bfbfbf" points="309,-0.5 309,-19.5 353,-19.5 353,-0.5 309,-0.5"/>
<text text-anchor="middle" x="331" y="-7.5" font-family="Helvetica,sans-Serif" font-size="10.00">vector</text>
</a>
</g>
</g>
<!-- Node10&#45;&gt;Node11 -->
<g id="edge11" class="edge">
<title>Node10&#45;&gt;Node11</title>
<path fill="none" stroke="midnightblue" d="M331,-56.08C331,-49.01 331,-38.86 331,-29.99"/>
<polygon fill="midnightblue" stroke="midnightblue" points="334.5,-29.75 331,-19.75 327.5,-29.75 334.5,-29.75"/>
</g>
<!-- Node12&#45;&gt;Node2 -->
<g id="edge14" class="edge">
<title>Node12&#45;&gt;Node2</title>
<path fill="none" stroke="midnightblue" d="M526.82,-117.98C513.19,-108.43 490.87,-92.81 474.53,-81.37"/>
<polygon fill="midnightblue" stroke="midnightblue" points="476.36,-78.38 466.16,-75.51 472.34,-84.11 476.36,-78.38"/>
</g>
<!-- Node13 -->
<g id="node13" class="node">
<title>Node13</title>
<g id="a_node13"><a xlink:title=" ">
<polygon fill="white" stroke="#bfbfbf" points="601.5,-56.5 601.5,-75.5 666.5,-75.5 666.5,-56.5 601.5,-56.5"/>
<text text-anchor="middle" x="634" y="-63.5" font-family="Helvetica,sans-Serif" font-size="10.00">netinet/in.h</text>
</a>
</g>
</g>
<!-- Node12&#45;&gt;Node13 -->
<g id="edge15" class="edge">
<title>Node12&#45;&gt;Node13</title>
<path fill="none" stroke="midnightblue" d="M552.61,-117.98C568.06,-108.3 593.49,-92.37 611.82,-80.89"/>
<polygon fill="midnightblue" stroke="midnightblue" points="613.8,-83.78 620.41,-75.51 610.08,-77.85 613.8,-83.78"/>
</g>
<!-- Node14 -->
<g id="node14" class="node">
<title>Node14</title>
<g id="a_node14"><a xlink:title=" ">
<polygon fill="white" stroke="#bfbfbf" points="685,-56.5 685,-75.5 747,-75.5 747,-56.5 685,-56.5"/>
<text text-anchor="middle" x="716" y="-63.5" font-family="Helvetica,sans-Serif" font-size="10.00">arpa/inet.h</text>
</a>
</g>
</g>
<!-- Node12&#45;&gt;Node14 -->
<g id="edge16" class="edge">
<title>Node12&#45;&gt;Node14</title>
<path fill="none" stroke="midnightblue" d="M564.36,-117.98C594.98,-107.68 646.66,-90.31 681.05,-78.75"/>
<polygon fill="midnightblue" stroke="midnightblue" points="682.32,-82.01 690.69,-75.51 680.09,-75.38 682.32,-82.01"/>
</g>
<!-- Node15 -->
<g id="node15" class="node">
<title>Node15</title>
<g id="a_node15"><a xlink:href="fri_connection_if_8h.html" target="_top" xlink:title=" ">
<polygon fill="white" stroke="black" points="494.5,-56.5 494.5,-75.5 583.5,-75.5 583.5,-56.5 494.5,-56.5"/>
<text text-anchor="middle" x="539" y="-63.5" font-family="Helvetica,sans-Serif" font-size="10.00">friConnectionIf.h</text>
</a>
</g>
</g>
<!-- Node12&#45;&gt;Node15 -->
<g id="edge17" class="edge">
<title>Node12&#45;&gt;Node15</title>
<path fill="none" stroke="midnightblue" d="M539,-117.98C539,-109.58 539,-96.48 539,-85.66"/>
<polygon fill="midnightblue" stroke="midnightblue" points="542.5,-85.51 539,-75.51 535.5,-85.51 542.5,-85.51"/>
</g>
</g>
</svg>
        <g id="navigator" transform="translate(0 0)" fill="#404254">
                <rect fill="#f2f5e9" fill-opacity="0.5" stroke="#606060" stroke-width=".5" x="0" y="0" width="60" height="60"/>
                <use id="zoomplus" xlink:href="#zoomPlus" x="17" y="9" onmousedown="handleZoom(evt,'in')"/>
                <use id="zoomminus" xlink:href="#zoomMin" x="42" y="9" onmousedown="handleZoom(evt,'out')"/>
                <use id="reset" xlink:href="#resetDef" x="30" y="36" onmousedown="handleReset()"/>
                <g id="arrowUp" xlink:href="#dirArrow" transform="translate(30 24)" onmousedown="handlePan(0,-1)">
                  <use xlink:href="#rim" fill="#404040">
                        <set attributeName="fill" to="#808080" begin="arrowUp.mouseover" end="arrowUp.mouseout"/>
                  </use>
                  <path fill="none" stroke="white" stroke-width="1.5" d="M0,-3.0v7 M-2.5,-0.5L0,-3.0L2.5,-0.5"/>
                </g>
                <g id="arrowRight" xlink:href="#dirArrow" transform="rotate(90) translate(36 -43)" onmousedown="handlePan(1,0)">
                  <use xlink:href="#rim" fill="#404040">
                        <set attributeName="fill" to="#808080" begin="arrowRight.mouseover" end="arrowRight.mouseout"/>
                  </use>
                  <path fill="none" stroke="white" stroke-width="1.5" d="M0,-3.0v7 M-2.5,-0.5L0,-3.0L2.5,-0.5"/>
                </g>
                <g id="arrowDown" xlink:href="#dirArrow" transform="rotate(180) translate(-30 -48)" onmousedown="handlePan(0,1)">
                  <use xlink:href="#rim" fill="#404040">
                        <set attributeName="fill" to="#808080" begin="arrowDown.mouseover" end="arrowDown.mouseout"/>
                  </use>
                  <path fill="none" stroke="white" stroke-width="1.5" d="M0,-3.0v7 M-2.5,-0.5L0,-3.0L2.5,-0.5"/>
                </g>
                <g id="arrowLeft" xlink:href="#dirArrow" transform="rotate(270) translate(-36 17)" onmousedown="handlePan(-1,0)">
                  <use xlink:href="#rim" fill="#404040">
                        <set attributeName="fill" to="#808080" begin="arrowLeft.mouseover" end="arrowLeft.mouseout"/>
                  </use>
                  <path fill="none" stroke="white" stroke-width="1.5" d="M0,-3.0v7 M-2.5,-0.5L0,-3.0L2.5,-0.5"/>
                </g>
        </g>
        <svg viewBox="0 0 15 15" width="100%" height="30px" preserveAspectRatio="xMaxYMin meet">
         <g id="arrow_out" transform="scale(0.3 0.3)">
          <a xlink:href="_simulated_transformation_provider_app_8cpp__incl_org.svg" target="_base">
           <rect id="button" ry="5" rx="5" y="6" x="6" height="38" width="38"
                fill="#f2f5e9" fill-opacity="0.5" stroke="#606060" stroke-width="1.0"/>
           <path id="arrow"
             d="M 11.500037,31.436501 C 11.940474,20.09759 22.043105,11.32322 32.158766,21.979434 L 37.068811,17.246167 C 37.068811,17.246167 37.088388,32 37.088388,32 L 22.160133,31.978069 C 22.160133,31.978069 26.997745,27.140456 26.997745,27.140456 C 18.528582,18.264221 13.291696,25.230495 11.500037,31.436501 z"
             style="fill:#404040;"/>
          </a>
         </g>
        </svg>
</svg>
