<?xml version="1.0" encoding="UTF-8" standalone="no"?>
<!DOCTYPE svg PUBLIC "-//W3C//DTD SVG 1.1//EN"
 "http://www.w3.org/Graphics/SVG/1.1/DTD/svg11.dtd">
<!-- Generated by graphviz version 2.43.0 (0)
 -->
<!-- Title: build/FRI&#45;Client&#45;SDK_Cpp/example/SimulatedTransformationProvider/SimulatedTransformationProviderClient.cpp Pages: 1 -->
<svg width="410pt" height="240pt"
 viewBox="0.00 0.00 409.50 240.00" xmlns="http://www.w3.org/2000/svg" xmlns:xlink="http://www.w3.org/1999/xlink">
<g id="graph0" class="graph" transform="scale(1 1) rotate(0) translate(4 236)">
<title>build/FRI&#45;Client&#45;SDK_Cpp/example/SimulatedTransformationProvider/SimulatedTransformationProviderClient.cpp</title>
<polygon fill="white" stroke="transparent" points="-4,4 -4,-236 405.5,-236 405.5,4 -4,4"/>
<!-- Node1 -->
<g id="node1" class="node">
<title>Node1</title>
<g id="a_node1"><a xlink:title=" ">
<polygon fill="#bfbfbf" stroke="black" points="46,-179.5 46,-231.5 246,-231.5 246,-179.5 46,-179.5"/>
<text text-anchor="start" x="54" y="-219.5" font-family="Helvetica,sans-Serif" font-size="10.00">build/FRI&#45;Client&#45;SDK</text>
<text text-anchor="start" x="54" y="-208.5" font-family="Helvetica,sans-Serif" font-size="10.00">_Cpp/example/SimulatedTransformation</text>
<text text-anchor="start" x="54" y="-197.5" font-family="Helvetica,sans-Serif" font-size="10.00">Provider/SimulatedTransformationProvider</text>
<text text-anchor="middle" x="146" y="-186.5" font-family="Helvetica,sans-Serif" font-size="10.00">Client.cpp</text>
</a>
</g>
</g>
<!-- Node2 -->
<g id="node2" class="node">
<title>Node2</title>
<g id="a_node2"><a xlink:title=" ">
<polygon fill="white" stroke="#bfbfbf" points="0,-118 0,-137 46,-137 46,-118 0,-118"/>
<text text-anchor="middle" x="23" y="-125" font-family="Helvetica,sans-Serif" font-size="10.00">cstring</text>
</a>
</g>
</g>
<!-- Node1&#45;&gt;Node2 -->
<g id="edge1" class="edge">
<title>Node1&#45;&gt;Node2</title>
<path fill="none" stroke="midnightblue" d="M105.38,-179.4C85.43,-167.07 62.14,-152.69 45.43,-142.36"/>
<polygon fill="midnightblue" stroke="midnightblue" points="47.23,-139.36 36.88,-137.08 43.55,-145.31 47.23,-139.36"/>
</g>
<!-- Node3 -->
<g id="node3" class="node">
<title>Node3</title>
<g id="a_node3"><a xlink:title=" ">
<polygon fill="white" stroke="#bfbfbf" points="64.5,-118 64.5,-137 107.5,-137 107.5,-118 64.5,-118"/>
<text text-anchor="middle" x="86" y="-125" font-family="Helvetica,sans-Serif" font-size="10.00">cstdio</text>
</a>
</g>
</g>
<!-- Node1&#45;&gt;Node3 -->
<g id="edge2" class="edge">
<title>Node1&#45;&gt;Node3</title>
<path fill="none" stroke="midnightblue" d="M126.02,-179.19C117.16,-167.97 106.99,-155.08 99.11,-145.11"/>
<polygon fill="midnightblue" stroke="midnightblue" points="101.82,-142.89 92.88,-137.21 96.32,-147.23 101.82,-142.89"/>
</g>
<!-- Node4 -->
<g id="node4" class="node">
<title>Node4</title>
<g id="a_node4"><a xlink:href="_simulated_transformation_provider_client_8h.html" target="_top" xlink:title=" ">
<polygon fill="white" stroke="black" points="125.5,-112.5 125.5,-142.5 286.5,-142.5 286.5,-112.5 125.5,-112.5"/>
<text text-anchor="start" x="133.5" y="-130.5" font-family="Helvetica,sans-Serif" font-size="10.00">SimulatedTransformationProvider</text>
<text text-anchor="middle" x="206" y="-119.5" font-family="Helvetica,sans-Serif" font-size="10.00">Client.h</text>
</a>
</g>
</g>
<!-- Node1&#45;&gt;Node4 -->
<g id="edge3" class="edge">
<title>Node1&#45;&gt;Node4</title>
<path fill="none" stroke="midnightblue" d="M165.98,-179.19C173.21,-170.03 181.32,-159.76 188.34,-150.86"/>
<polygon fill="midnightblue" stroke="midnightblue" points="191.23,-152.86 194.67,-142.85 185.73,-148.53 191.23,-152.86"/>
</g>
<!-- Node8 -->
<g id="node8" class="node">
<title>Node8</title>
<g id="a_node8"><a xlink:href="_simulated_data_8inc.html" target="_top" xlink:title=" ">
<polygon fill="white" stroke="black" points="304.5,-118 304.5,-137 401.5,-137 401.5,-118 304.5,-118"/>
<text text-anchor="middle" x="353" y="-125" font-family="Helvetica,sans-Serif" font-size="10.00">SimulatedData.inc</text>
</a>
</g>
</g>
<!-- Node1&#45;&gt;Node8 -->
<g id="edge7" class="edge">
<title>Node1&#45;&gt;Node8</title>
<path fill="none" stroke="midnightblue" d="M214.35,-179.4C249.96,-166.33 291.86,-150.95 320.21,-140.54"/>
<polygon fill="midnightblue" stroke="midnightblue" points="321.46,-143.81 329.64,-137.08 319.04,-137.24 321.46,-143.81"/>
</g>
<!-- Node5 -->
<g id="node5" class="node">
<title>Node5</title>
<g id="a_node5"><a xlink:href="fri_transformation_client_8h.html" target="_top" xlink:title=" ">
<polygon fill="white" stroke="black" points="144,-56.5 144,-75.5 268,-75.5 268,-56.5 144,-56.5"/>
<text text-anchor="middle" x="206" y="-63.5" font-family="Helvetica,sans-Serif" font-size="10.00">friTransformationClient.h</text>
</a>
</g>
</g>
<!-- Node4&#45;&gt;Node5 -->
<g id="edge4" class="edge">
<title>Node4&#45;&gt;Node5</title>
<path fill="none" stroke="midnightblue" d="M206,-112.4C206,-104.47 206,-94.46 206,-85.86"/>
<polygon fill="midnightblue" stroke="midnightblue" points="209.5,-85.66 206,-75.66 202.5,-85.66 209.5,-85.66"/>
</g>
<!-- Node6 -->
<g id="node6" class="node">
<title>Node6</title>
<g id="a_node6"><a xlink:title=" ">
<polygon fill="white" stroke="#bfbfbf" points="148,-0.5 148,-19.5 192,-19.5 192,-0.5 148,-0.5"/>
<text text-anchor="middle" x="170" y="-7.5" font-family="Helvetica,sans-Serif" font-size="10.00">vector</text>
</a>
</g>
</g>
<!-- Node5&#45;&gt;Node6 -->
<g id="edge5" class="edge">
<title>Node5&#45;&gt;Node6</title>
<path fill="none" stroke="midnightblue" d="M200.06,-56.08C195.02,-48.53 187.66,-37.49 181.49,-28.23"/>
<polygon fill="midnightblue" stroke="midnightblue" points="184.29,-26.13 175.83,-19.75 178.47,-30.01 184.29,-26.13"/>
</g>
<!-- Node7 -->
<g id="node7" class="node">
<title>Node7</title>
<g id="a_node7"><a xlink:href="fri_client_if_8h.html" target="_top" xlink:title=" ">
<polygon fill="white" stroke="black" points="210.5,-0.5 210.5,-19.5 275.5,-19.5 275.5,-0.5 210.5,-0.5"/>
<text text-anchor="middle" x="243" y="-7.5" font-family="Helvetica,sans-Serif" font-size="10.00">friClientIf.h</text>
</a>
</g>
</g>
<!-- Node5&#45;&gt;Node7 -->
<g id="edge6" class="edge">
<title>Node5&#45;&gt;Node7</title>
<path fill="none" stroke="midnightblue" d="M212.11,-56.08C217.28,-48.53 224.85,-37.49 231.19,-28.23"/>
<polygon fill="midnightblue" stroke="midnightblue" points="234.24,-29.98 237,-19.75 228.46,-26.02 234.24,-29.98"/>
</g>
</g>
</svg>
