<?xml version="1.0" encoding="UTF-8" standalone="no"?>
<!DOCTYPE svg PUBLIC "-//W3C//DTD SVG 1.1//EN"
 "http://www.w3.org/Graphics/SVG/1.1/DTD/svg11.dtd">
<!-- Generated by graphviz version 2.43.0 (0)
 -->
<!-- Title: main Pages: 1 -->
<svg width="1897pt" height="672pt"
 viewBox="0.00 0.00 1897.00 671.50" xmlns="http://www.w3.org/2000/svg" xmlns:xlink="http://www.w3.org/1999/xlink">
<g id="graph0" class="graph" transform="scale(1 1) rotate(0) translate(4 667.5)">
<title>main</title>
<polygon fill="white" stroke="transparent" points="-4,4 -4,-667.5 1893,-667.5 1893,4 -4,4"/>
<!-- Node1 -->
<g id="node1" class="node">
<title>Node1</title>
<g id="a_node1"><a xlink:title=" ">
<polygon fill="#bfbfbf" stroke="black" points="0,-344.5 0,-363.5 38,-363.5 38,-344.5 0,-344.5"/>
<text text-anchor="middle" x="19" y="-351.5" font-family="Helvetica,sans-Serif" font-size="10.00">main</text>
</a>
</g>
</g>
<!-- Node2 -->
<g id="node2" class="node">
<title>Node2</title>
<g id="a_node2"><a xlink:href="class_k_u_k_a_1_1_f_r_i_1_1_client_application.html#a17bc0e8dab4235fc53e0c568c3da3dbe" target="_top" xlink:title="Connect the FRI client application with a KUKA Sunrise controller.">
<polygon fill="white" stroke="black" points="74,-535 74,-565 220,-565 220,-535 74,-535"/>
<text text-anchor="start" x="82" y="-553" font-family="Helvetica,sans-Serif" font-size="10.00">KUKA::FRI::ClientApplication</text>
<text text-anchor="middle" x="147" y="-542" font-family="Helvetica,sans-Serif" font-size="10.00">::connect</text>
</a>
</g>
</g>
<!-- Node1&#45;&gt;Node2 -->
<g id="edge1" class="edge">
<title>Node1&#45;&gt;Node2</title>
<path fill="none" stroke="midnightblue" d="M26.25,-363.72C45.3,-393.36 103.05,-483.2 130.8,-526.36"/>
<polygon fill="midnightblue" stroke="midnightblue" points="127.89,-528.3 136.24,-534.82 133.78,-524.52 127.89,-528.3"/>
</g>
<!-- Node5 -->
<g id="node5" class="node">
<title>Node5</title>
<g id="a_node5"><a xlink:href="class_k_u_k_a_1_1_f_r_i_1_1_client_application.html#ae24af29c4f2fd5e678f2f71bdc94d1d9" target="_top" xlink:title="Disconnect the FRI client application from a KUKA Sunrise controller.">
<polygon fill="white" stroke="black" points="74,-584 74,-614 220,-614 220,-584 74,-584"/>
<text text-anchor="start" x="82" y="-602" font-family="Helvetica,sans-Serif" font-size="10.00">KUKA::FRI::ClientApplication</text>
<text text-anchor="middle" x="147" y="-591" font-family="Helvetica,sans-Serif" font-size="10.00">::disconnect</text>
</a>
</g>
</g>
<!-- Node1&#45;&gt;Node5 -->
<g id="edge4" class="edge">
<title>Node1&#45;&gt;Node5</title>
<path fill="none" stroke="midnightblue" d="M21.13,-363.72C25.76,-402.16 44.5,-542.97 74,-575 74.78,-575.85 75.59,-576.67 76.43,-577.46"/>
<polygon fill="midnightblue" stroke="midnightblue" points="74.6,-580.46 84.65,-583.81 78.88,-574.92 74.6,-580.46"/>
</g>
<!-- Node7 -->
<g id="node7" class="node">
<title>Node7</title>
<g id="a_node7"><a xlink:href="class_k_u_k_a_1_1_f_r_i_1_1_l_b_r_state.html#ae41a4b6e0be02090f239b73de4665dd1" target="_top" xlink:title="Get the current FRI session state.">
<polygon fill="white" stroke="black" points="89,-290 89,-320 205,-320 205,-290 89,-290"/>
<text text-anchor="start" x="97" y="-308" font-family="Helvetica,sans-Serif" font-size="10.00">KUKA::FRI::LBRState</text>
<text text-anchor="middle" x="147" y="-297" font-family="Helvetica,sans-Serif" font-size="10.00">::getSessionState</text>
</a>
</g>
</g>
<!-- Node1&#45;&gt;Node7 -->
<g id="edge7" class="edge">
<title>Node1&#45;&gt;Node7</title>
<path fill="none" stroke="midnightblue" d="M38.33,-345.39C48.71,-340.64 61.98,-334.75 74,-330 79.52,-327.82 85.31,-325.64 91.12,-323.52"/>
<polygon fill="midnightblue" stroke="midnightblue" points="92.62,-326.7 100.85,-320.03 90.25,-320.11 92.62,-326.7"/>
</g>
<!-- Node8 -->
<g id="node8" class="node">
<title>Node8</title>
<g id="a_node8"><a xlink:href="class_k_u_k_a_1_1_f_r_i_1_1_l_b_r_client.html#af99433aa6795f9b6764b0fb539188e6d" target="_top" xlink:title="Provide read access to the current robot state.">
<polygon fill="white" stroke="black" points="88,-241 88,-271 206,-271 206,-241 88,-241"/>
<text text-anchor="start" x="96" y="-259" font-family="Helvetica,sans-Serif" font-size="10.00">KUKA::FRI::LBRClient</text>
<text text-anchor="middle" x="147" y="-248" font-family="Helvetica,sans-Serif" font-size="10.00">::robotState</text>
</a>
</g>
</g>
<!-- Node1&#45;&gt;Node8 -->
<g id="edge8" class="edge">
<title>Node1&#45;&gt;Node8</title>
<path fill="none" stroke="midnightblue" d="M24.87,-344C32.96,-328.38 50.63,-298.18 74,-281 76.53,-279.14 79.21,-277.41 81.99,-275.8"/>
<polygon fill="midnightblue" stroke="midnightblue" points="83.87,-278.77 91.15,-271.07 80.66,-272.55 83.87,-278.77"/>
</g>
<!-- Node9 -->
<g id="node9" class="node">
<title>Node9</title>
<g id="a_node9"><a xlink:href="class_k_u_k_a_1_1_f_r_i_1_1_client_application.html#a9939bfd1fa78c59dc3675a6d2a5de7a7" target="_top" xlink:title="Run a single processing step.">
<polygon fill="white" stroke="black" points="74,-339 74,-369 220,-369 220,-339 74,-339"/>
<text text-anchor="start" x="82" y="-357" font-family="Helvetica,sans-Serif" font-size="10.00">KUKA::FRI::ClientApplication</text>
<text text-anchor="middle" x="147" y="-346" font-family="Helvetica,sans-Serif" font-size="10.00">::step</text>
</a>
</g>
</g>
<!-- Node1&#45;&gt;Node9 -->
<g id="edge9" class="edge">
<title>Node1&#45;&gt;Node9</title>
<path fill="none" stroke="midnightblue" d="M38.05,-354C45.27,-354 54.14,-354 63.66,-354"/>
<polygon fill="midnightblue" stroke="midnightblue" points="63.77,-357.5 73.77,-354 63.77,-350.5 63.77,-357.5"/>
</g>
<!-- Node3 -->
<g id="node3" class="node">
<title>Node3</title>
<g id="a_node3"><a xlink:href="class_k_u_k_a_1_1_f_r_i_1_1_i_connection.html#a61dca018a26afa39f543041487e8379c" target="_top" xlink:title="Checks whether a connection to the KUKA Sunrise controller is established.">
<polygon fill="white" stroke="black" points="272.5,-584 272.5,-614 397.5,-614 397.5,-584 272.5,-584"/>
<text text-anchor="start" x="280.5" y="-602" font-family="Helvetica,sans-Serif" font-size="10.00">KUKA::FRI::IConnection</text>
<text text-anchor="middle" x="335" y="-591" font-family="Helvetica,sans-Serif" font-size="10.00">::isOpen</text>
</a>
</g>
</g>
<!-- Node2&#45;&gt;Node3 -->
<g id="edge2" class="edge">
<title>Node2&#45;&gt;Node3</title>
<path fill="none" stroke="midnightblue" d="M205.07,-565.03C224.71,-570.21 246.87,-576.05 267.22,-581.41"/>
<polygon fill="midnightblue" stroke="midnightblue" points="266.48,-584.83 277.04,-583.99 268.26,-578.06 266.48,-584.83"/>
</g>
<!-- Node4 -->
<g id="node4" class="node">
<title>Node4</title>
<g id="a_node4"><a xlink:href="class_k_u_k_a_1_1_f_r_i_1_1_i_connection.html#aa28671be2311219b94f96295e34e6774" target="_top" xlink:title="Open a connection to the KUKA Sunrise controller.">
<polygon fill="white" stroke="black" points="272.5,-535 272.5,-565 397.5,-565 397.5,-535 272.5,-535"/>
<text text-anchor="start" x="280.5" y="-553" font-family="Helvetica,sans-Serif" font-size="10.00">KUKA::FRI::IConnection</text>
<text text-anchor="middle" x="335" y="-542" font-family="Helvetica,sans-Serif" font-size="10.00">::open</text>
</a>
</g>
</g>
<!-- Node2&#45;&gt;Node4 -->
<g id="edge3" class="edge">
<title>Node2&#45;&gt;Node4</title>
<path fill="none" stroke="midnightblue" d="M220.18,-550C233.93,-550 248.32,-550 262.07,-550"/>
<polygon fill="midnightblue" stroke="midnightblue" points="262.43,-553.5 272.43,-550 262.43,-546.5 262.43,-553.5"/>
</g>
<!-- Node5&#45;&gt;Node3 -->
<g id="edge6" class="edge">
<title>Node5&#45;&gt;Node3</title>
<path fill="none" stroke="midnightblue" d="M220.18,-599C233.93,-599 248.32,-599 262.07,-599"/>
<polygon fill="midnightblue" stroke="midnightblue" points="262.43,-602.5 272.43,-599 262.43,-595.5 262.43,-602.5"/>
</g>
<!-- Node6 -->
<g id="node6" class="node">
<title>Node6</title>
<g id="a_node6"><a xlink:href="class_k_u_k_a_1_1_f_r_i_1_1_i_connection.html#afbf9253c40ef19660654216ff3ee4381" target="_top" xlink:title="Close a connection to the KUKA Sunrise controller.">
<polygon fill="white" stroke="black" points="272.5,-633 272.5,-663 397.5,-663 397.5,-633 272.5,-633"/>
<text text-anchor="start" x="280.5" y="-651" font-family="Helvetica,sans-Serif" font-size="10.00">KUKA::FRI::IConnection</text>
<text text-anchor="middle" x="335" y="-640" font-family="Helvetica,sans-Serif" font-size="10.00">::close</text>
</a>
</g>
</g>
<!-- Node5&#45;&gt;Node6 -->
<g id="edge5" class="edge">
<title>Node5&#45;&gt;Node6</title>
<path fill="none" stroke="midnightblue" d="M205.07,-614.03C224.71,-619.21 246.87,-625.05 267.22,-630.41"/>
<polygon fill="midnightblue" stroke="midnightblue" points="266.48,-633.83 277.04,-632.99 268.26,-627.06 266.48,-633.83"/>
</g>
<!-- Node9&#45;&gt;Node3 -->
<g id="edge56" class="edge">
<title>Node9&#45;&gt;Node3</title>
<path fill="none" stroke="midnightblue" d="M153.54,-369.05C170.35,-413.95 221.68,-545.65 256,-575 258.35,-577.01 260.86,-578.85 263.49,-580.53"/>
<polygon fill="midnightblue" stroke="midnightblue" points="261.82,-583.6 272.26,-585.41 265.22,-577.49 261.82,-583.6"/>
</g>
<!-- Node10 -->
<g id="node10" class="node">
<title>Node10</title>
<g id="a_node10"><a xlink:href="class_k_u_k_a_1_1_f_r_i_1_1_i_client.html#ae2b1f840b048ba11ff10f8a1e72ab6c0" target="_top" xlink:title="Callback for the FRI session state &#39;Commanding&#39;.">
<polygon fill="white" stroke="black" points="284.5,-192 284.5,-222 385.5,-222 385.5,-192 284.5,-192"/>
<text text-anchor="start" x="292.5" y="-210" font-family="Helvetica,sans-Serif" font-size="10.00">KUKA::FRI::IClient</text>
<text text-anchor="middle" x="335" y="-199" font-family="Helvetica,sans-Serif" font-size="10.00">::command</text>
</a>
</g>
</g>
<!-- Node9&#45;&gt;Node10 -->
<g id="edge10" class="edge">
<title>Node9&#45;&gt;Node10</title>
<path fill="none" stroke="midnightblue" d="M208.24,-338.81C212.51,-336.31 216.5,-333.39 220,-330 253.3,-297.69 222.51,-264.12 256,-232 261.36,-226.86 267.79,-222.77 274.61,-219.53"/>
<polygon fill="midnightblue" stroke="midnightblue" points="276.2,-222.66 284.11,-215.6 273.53,-216.19 276.2,-222.66"/>
</g>
<!-- Node11 -->
<g id="node11" class="node">
<title>Node11</title>
<g id="a_node11"><a xlink:href="class_k_u_k_a_1_1_f_r_i_1_1_monitoring_message_decoder.html#aa72fb1e622847a636e6f5d7ac4770103" target="_top" xlink:title=" ">
<polygon fill="white" stroke="black" points="256,-143 256,-173 414,-173 414,-143 256,-143"/>
<text text-anchor="start" x="264" y="-161" font-family="Helvetica,sans-Serif" font-size="10.00">KUKA::FRI::MonitoringMessage</text>
<text text-anchor="middle" x="335" y="-150" font-family="Helvetica,sans-Serif" font-size="10.00">Decoder::decode</text>
</a>
</g>
</g>
<!-- Node9&#45;&gt;Node11 -->
<g id="edge11" class="edge">
<title>Node9&#45;&gt;Node11</title>
<path fill="none" stroke="midnightblue" d="M209.34,-338.81C213.26,-336.3 216.87,-333.39 220,-330 265.58,-280.54 210.13,-232.2 256,-183 257.23,-181.68 258.54,-180.42 259.9,-179.24"/>
<polygon fill="midnightblue" stroke="midnightblue" points="262.26,-181.85 268.29,-173.14 258.15,-176.18 262.26,-181.85"/>
</g>
<!-- Node39 -->
<g id="node35" class="node">
<title>Node39</title>
<g id="a_node35"><a xlink:href="class_k_u_k_a_1_1_f_r_i_1_1_command_message_encoder.html#a53c2553cb91250334d979f2aaa4006a4" target="_top" xlink:title=" ">
<polygon fill="white" stroke="black" points="256,-83 256,-113 414,-113 414,-83 256,-83"/>
<text text-anchor="start" x="264" y="-101" font-family="Helvetica,sans-Serif" font-size="10.00">KUKA::FRI::CommandMessage</text>
<text text-anchor="middle" x="335" y="-90" font-family="Helvetica,sans-Serif" font-size="10.00">Encoder::encode</text>
</a>
</g>
</g>
<!-- Node9&#45;&gt;Node39 -->
<g id="edge46" class="edge">
<title>Node9&#45;&gt;Node39</title>
<path fill="none" stroke="midnightblue" d="M209.9,-338.79C213.63,-336.29 217.06,-333.38 220,-330 278.09,-263.14 201.7,-203.97 256,-134 260.89,-127.7 267.13,-122.47 273.96,-118.12"/>
<polygon fill="midnightblue" stroke="midnightblue" points="275.87,-121.06 282.85,-113.08 272.42,-114.97 275.87,-121.06"/>
</g>
<!-- Node53 -->
<g id="node44" class="node">
<title>Node53</title>
<g id="a_node44"><a xlink:href="class_k_u_k_a_1_1_f_r_i_1_1_i_client.html#a2f5a76fadff18150efad48fd8eded1bc" target="_top" xlink:title="Callback for the FRI session states &#39;Monitoring Wait&#39; and &#39;Monitoring Ready&#39;.">
<polygon fill="white" stroke="black" points="284.5,-34 284.5,-64 385.5,-64 385.5,-34 284.5,-34"/>
<text text-anchor="start" x="292.5" y="-52" font-family="Helvetica,sans-Serif" font-size="10.00">KUKA::FRI::IClient</text>
<text text-anchor="middle" x="335" y="-41" font-family="Helvetica,sans-Serif" font-size="10.00">::monitor</text>
</a>
</g>
</g>
<!-- Node9&#45;&gt;Node53 -->
<g id="edge57" class="edge">
<title>Node9&#45;&gt;Node53</title>
<path fill="none" stroke="midnightblue" d="M210.06,-338.92C213.76,-336.39 217.13,-333.44 220,-330 293.52,-241.71 181.97,-161.87 256,-74 261.15,-67.88 267.81,-63.25 275.06,-59.74"/>
<polygon fill="midnightblue" stroke="midnightblue" points="276.56,-62.9 284.48,-55.87 273.9,-56.43 276.56,-62.9"/>
</g>
<!-- Node54 -->
<g id="node45" class="node">
<title>Node54</title>
<g id="a_node45"><a xlink:href="class_k_u_k_a_1_1_f_r_i_1_1_i_client.html#a1816c9c4e7b93ebca3178b7c5e7b58b3" target="_top" xlink:title="Callback that is called whenever the FRI session state changes.">
<polygon fill="white" stroke="black" points="284.5,-486 284.5,-516 385.5,-516 385.5,-486 284.5,-486"/>
<text text-anchor="start" x="292.5" y="-504" font-family="Helvetica,sans-Serif" font-size="10.00">KUKA::FRI::IClient</text>
<text text-anchor="middle" x="335" y="-493" font-family="Helvetica,sans-Serif" font-size="10.00">::onStateChange</text>
</a>
</g>
</g>
<!-- Node9&#45;&gt;Node54 -->
<g id="edge58" class="edge">
<title>Node9&#45;&gt;Node54</title>
<path fill="none" stroke="midnightblue" d="M157.32,-369.28C173.93,-395.25 211.15,-447.97 256,-477 261.75,-480.72 268.12,-483.9 274.66,-486.6"/>
<polygon fill="midnightblue" stroke="midnightblue" points="273.72,-489.98 284.31,-490.22 276.18,-483.43 273.72,-489.98"/>
</g>
<!-- Node55 -->
<g id="node46" class="node">
<title>Node55</title>
<g id="a_node46"><a xlink:href="class_k_u_k_a_1_1_f_r_i_1_1_transformation_client.html#aa21b0759e9a7a22516752841bede1a3c" target="_top" xlink:title="Callback which is called whenever a new FRI message arrives.">
<polygon fill="white" stroke="black" points="266,-437 266,-467 404,-467 404,-437 266,-437"/>
<text text-anchor="start" x="274" y="-455" font-family="Helvetica,sans-Serif" font-size="10.00">KUKA::FRI::Transformation</text>
<text text-anchor="middle" x="335" y="-444" font-family="Helvetica,sans-Serif" font-size="10.00">Client::provide</text>
</a>
</g>
</g>
<!-- Node9&#45;&gt;Node55 -->
<g id="edge59" class="edge">
<title>Node9&#45;&gt;Node55</title>
<path fill="none" stroke="midnightblue" d="M166.43,-369.23C187.12,-385.67 222.22,-411.7 256,-428 259.98,-429.92 264.16,-431.73 268.41,-433.43"/>
<polygon fill="midnightblue" stroke="midnightblue" points="267.23,-436.72 277.82,-436.96 269.69,-430.17 267.23,-436.72"/>
</g>
<!-- Node56 -->
<g id="node47" class="node">
<title>Node56</title>
<g id="a_node47"><a xlink:href="class_k_u_k_a_1_1_f_r_i_1_1_i_connection.html#a458e9479c2752e72c9ed820f9236eb3e" target="_top" xlink:title="Receive a new FRI monitoring message from the KUKA Sunrise controller.">
<polygon fill="white" stroke="black" points="272.5,-388 272.5,-418 397.5,-418 397.5,-388 272.5,-388"/>
<text text-anchor="start" x="280.5" y="-406" font-family="Helvetica,sans-Serif" font-size="10.00">KUKA::FRI::IConnection</text>
<text text-anchor="middle" x="335" y="-395" font-family="Helvetica,sans-Serif" font-size="10.00">::receive</text>
</a>
</g>
</g>
<!-- Node9&#45;&gt;Node56 -->
<g id="edge60" class="edge">
<title>Node9&#45;&gt;Node56</title>
<path fill="none" stroke="midnightblue" d="M205.07,-369.03C224.71,-374.21 246.87,-380.05 267.22,-385.41"/>
<polygon fill="midnightblue" stroke="midnightblue" points="266.48,-388.83 277.04,-387.99 268.26,-382.06 266.48,-388.83"/>
</g>
<!-- Node57 -->
<g id="node48" class="node">
<title>Node57</title>
<g id="a_node48"><a xlink:href="struct_k_u_k_a_1_1_f_r_i_1_1_client_data.html#aa6b42ef174e80c2e38d3401537e1a114" target="_top" xlink:title=" ">
<polygon fill="white" stroke="black" points="270.5,-339 270.5,-369 399.5,-369 399.5,-339 270.5,-339"/>
<text text-anchor="start" x="278.5" y="-357" font-family="Helvetica,sans-Serif" font-size="10.00">KUKA::FRI::ClientData</text>
<text text-anchor="middle" x="335" y="-346" font-family="Helvetica,sans-Serif" font-size="10.00">::resetCommandMessage</text>
</a>
</g>
</g>
<!-- Node9&#45;&gt;Node57 -->
<g id="edge61" class="edge">
<title>Node9&#45;&gt;Node57</title>
<path fill="none" stroke="midnightblue" d="M220.18,-354C233.23,-354 246.86,-354 259.97,-354"/>
<polygon fill="midnightblue" stroke="midnightblue" points="260.34,-357.5 270.34,-354 260.34,-350.5 260.34,-357.5"/>
</g>
<!-- Node58 -->
<g id="node49" class="node">
<title>Node58</title>
<g id="a_node49"><a xlink:href="class_k_u_k_a_1_1_f_r_i_1_1_i_connection.html#a4c8837816371fc6d6bab88dcb71db3d6" target="_top" xlink:title="Send a new FRI command message to the KUKA Sunrise controller.">
<polygon fill="white" stroke="black" points="272.5,-290 272.5,-320 397.5,-320 397.5,-290 272.5,-290"/>
<text text-anchor="start" x="280.5" y="-308" font-family="Helvetica,sans-Serif" font-size="10.00">KUKA::FRI::IConnection</text>
<text text-anchor="middle" x="335" y="-297" font-family="Helvetica,sans-Serif" font-size="10.00">::send</text>
</a>
</g>
</g>
<!-- Node9&#45;&gt;Node58 -->
<g id="edge62" class="edge">
<title>Node9&#45;&gt;Node58</title>
<path fill="none" stroke="midnightblue" d="M205.07,-338.97C224.71,-333.79 246.87,-327.95 267.22,-322.59"/>
<polygon fill="midnightblue" stroke="midnightblue" points="268.26,-325.94 277.04,-320.01 266.48,-319.17 268.26,-325.94"/>
</g>
<!-- Node59 -->
<g id="node50" class="node">
<title>Node59</title>
<g id="a_node50"><a xlink:href="class_k_u_k_a_1_1_f_r_i_1_1_i_client.html#ab02eabc2be3c968f53a36cd7b42373fe" target="_top" xlink:title="Callback for the FRI session state &#39;Commanding Wait&#39;.">
<polygon fill="white" stroke="black" points="284.5,-241 284.5,-271 385.5,-271 385.5,-241 284.5,-241"/>
<text text-anchor="start" x="292.5" y="-259" font-family="Helvetica,sans-Serif" font-size="10.00">KUKA::FRI::IClient</text>
<text text-anchor="middle" x="335" y="-248" font-family="Helvetica,sans-Serif" font-size="10.00">::waitForCommand</text>
</a>
</g>
</g>
<!-- Node9&#45;&gt;Node59 -->
<g id="edge63" class="edge">
<title>Node9&#45;&gt;Node59</title>
<path fill="none" stroke="midnightblue" d="M204.71,-338.91C210.11,-336.36 215.31,-333.41 220,-330 241.84,-314.09 234.06,-296.78 256,-281 261.66,-276.93 268.02,-273.5 274.59,-270.61"/>
<polygon fill="midnightblue" stroke="midnightblue" points="276.31,-273.7 284.33,-266.77 273.74,-267.19 276.31,-273.7"/>
</g>
<!-- Node12 -->
<g id="node12" class="node">
<title>Node12</title>
<g id="a_node12"><a xlink:href="pb__decode_8c.html#a75c9a727abe84bfaaef633ac68d48cfa" target="_top" xlink:title=" ">
<polygon fill="white" stroke="black" points="479,-171.5 479,-190.5 543,-190.5 543,-171.5 479,-171.5"/>
<text text-anchor="middle" x="511" y="-178.5" font-family="Helvetica,sans-Serif" font-size="10.00">pb_decode</text>
</a>
</g>
</g>
<!-- Node11&#45;&gt;Node12 -->
<g id="edge12" class="edge">
<title>Node11&#45;&gt;Node12</title>
<path fill="none" stroke="midnightblue" d="M414.09,-168.32C432.92,-170.81 452.3,-173.37 468.68,-175.54"/>
<polygon fill="midnightblue" stroke="midnightblue" points="468.59,-179.06 478.97,-176.9 469.51,-172.12 468.59,-179.06"/>
</g>
<!-- Node19 -->
<g id="node18" class="node">
<title>Node19</title>
<g id="a_node18"><a xlink:href="pb__decode_8c.html#a37dc2b0c54c27ddd29791e7522c85548" target="_top" xlink:title=" ">
<polygon fill="white" stroke="black" points="1424,-532.5 1424,-551.5 1543,-551.5 1543,-532.5 1424,-532.5"/>
<text text-anchor="middle" x="1483.5" y="-539.5" font-family="Helvetica,sans-Serif" font-size="10.00">pb_istream_from_buffer</text>
</a>
</g>
</g>
<!-- Node11&#45;&gt;Node19 -->
<g id="edge45" class="edge">
<title>Node11&#45;&gt;Node19</title>
<path fill="none" stroke="midnightblue" d="M397.2,-173.1C403.17,-175.88 408.89,-179.15 414,-183 583.37,-310.74 466.86,-580 679,-580 679,-580 679,-580 1183.5,-580 1274.78,-580 1297.68,-574.24 1388,-561 1401.59,-559.01 1416.18,-556.34 1429.73,-553.63"/>
<polygon fill="midnightblue" stroke="midnightblue" points="1430.76,-557 1439.86,-551.57 1429.36,-550.14 1430.76,-557"/>
</g>
<!-- Node13 -->
<g id="node13" class="node">
<title>Node13</title>
<g id="a_node13"><a xlink:href="pb__decode_8c.html#a0c0f95a964239344d503e724818e8fc0" target="_top" xlink:title=" ">
<polygon fill="white" stroke="black" points="634,-342.5 634,-361.5 726,-361.5 726,-342.5 634,-342.5"/>
<text text-anchor="middle" x="680" y="-349.5" font-family="Helvetica,sans-Serif" font-size="10.00">pb_decode_noinit</text>
</a>
</g>
</g>
<!-- Node12&#45;&gt;Node13 -->
<g id="edge13" class="edge">
<title>Node12&#45;&gt;Node13</title>
<path fill="none" stroke="midnightblue" d="M521.46,-190.68C548.78,-218.67 628.1,-299.88 662.62,-335.23"/>
<polygon fill="midnightblue" stroke="midnightblue" points="660.16,-337.71 669.65,-342.42 665.16,-332.82 660.16,-337.71"/>
</g>
<!-- Node36 -->
<g id="node32" class="node">
<title>Node36</title>
<g id="a_node32"><a xlink:href="pb__decode_8c.html#a086200ce4dac8198dc0537e64318d66e" target="_top" xlink:title=" ">
<polygon fill="white" stroke="black" points="608,-171.5 608,-190.5 752,-190.5 752,-171.5 608,-171.5"/>
<text text-anchor="middle" x="680" y="-178.5" font-family="Helvetica,sans-Serif" font-size="10.00">pb_message_set_to_defaults</text>
</a>
</g>
</g>
<!-- Node12&#45;&gt;Node36 -->
<g id="edge40" class="edge">
<title>Node12&#45;&gt;Node36</title>
<path fill="none" stroke="midnightblue" d="M543.02,-181C558.6,-181 578.29,-181 597.8,-181"/>
<polygon fill="midnightblue" stroke="midnightblue" points="597.97,-184.5 607.97,-181 597.97,-177.5 597.97,-184.5"/>
</g>
<!-- Node14 -->
<g id="node14" class="node">
<title>Node14</title>
<g id="a_node14"><a xlink:href="pb__decode_8c.html#a30eb2ecefe2a2095c1c668e3932b63fc" target="_top" xlink:title=" ">
<polygon fill="white" stroke="black" points="807,-456.5 807,-475.5 902,-475.5 902,-456.5 807,-456.5"/>
<text text-anchor="middle" x="854.5" y="-463.5" font-family="Helvetica,sans-Serif" font-size="10.00">decode_extension</text>
</a>
</g>
</g>
<!-- Node13&#45;&gt;Node14 -->
<g id="edge14" class="edge">
<title>Node13&#45;&gt;Node14</title>
<path fill="none" stroke="midnightblue" d="M690.16,-361.68C707.65,-379.69 747.68,-418.63 788,-442 795.15,-446.14 803.15,-449.79 811.02,-452.9"/>
<polygon fill="midnightblue" stroke="midnightblue" points="809.92,-456.22 820.51,-456.43 812.36,-449.66 809.92,-456.22"/>
</g>
<!-- Node16 -->
<g id="node16" class="node">
<title>Node16</title>
<g id="a_node16"><a xlink:href="pb__decode_8c.html#a48151430d329252cc54fd9764dd820f7" target="_top" xlink:title=" ">
<polygon fill="white" stroke="black" points="1147,-494.5 1147,-513.5 1218,-513.5 1218,-494.5 1147,-494.5"/>
<text text-anchor="middle" x="1182.5" y="-501.5" font-family="Helvetica,sans-Serif" font-size="10.00">decode_field</text>
</a>
</g>
</g>
<!-- Node13&#45;&gt;Node16 -->
<g id="edge30" class="edge">
<title>Node13&#45;&gt;Node16</title>
<path fill="none" stroke="midnightblue" d="M685.25,-361.69C697.11,-387.39 733.33,-457.18 788,-485 902.25,-543.15 1060.14,-526.33 1136.52,-513.15"/>
<polygon fill="midnightblue" stroke="midnightblue" points="1137.52,-516.53 1146.75,-511.33 1136.29,-509.64 1137.52,-516.53"/>
</g>
<!-- Node24 -->
<g id="node20" class="node">
<title>Node24</title>
<g id="a_node20"><a xlink:href="pb__decode_8c.html#ab5102942c8402c215f836364e1b775b1" target="_top" xlink:title=" ">
<polygon fill="white" stroke="black" points="1446.5,-456.5 1446.5,-475.5 1520.5,-475.5 1520.5,-456.5 1446.5,-456.5"/>
<text text-anchor="middle" x="1483.5" y="-463.5" font-family="Helvetica,sans-Serif" font-size="10.00">pb_skip_field</text>
</a>
</g>
</g>
<!-- Node13&#45;&gt;Node24 -->
<g id="edge39" class="edge">
<title>Node13&#45;&gt;Node24</title>
<path fill="none" stroke="midnightblue" d="M702.71,-361.62C724.03,-370.71 757.68,-384.09 788,-392 890.03,-418.6 917.06,-428 1022.5,-428 1022.5,-428 1022.5,-428 1183.5,-428 1274.78,-428 1297.68,-433.76 1388,-447 1403.89,-449.33 1421.15,-452.58 1436.52,-455.74"/>
<polygon fill="midnightblue" stroke="midnightblue" points="1435.8,-459.17 1446.31,-457.79 1437.24,-452.31 1435.8,-459.17"/>
</g>
<!-- Node31 -->
<g id="node27" class="node">
<title>Node31</title>
<g id="a_node27"><a xlink:href="pb__decode_8c.html#a45b7deb9b949803e7342070ca209d4be" target="_top" xlink:title=" ">
<polygon fill="white" stroke="black" points="803,-304.5 803,-323.5 906,-323.5 906,-304.5 803,-304.5"/>
<text text-anchor="middle" x="854.5" y="-311.5" font-family="Helvetica,sans-Serif" font-size="10.00">find_extension_field</text>
</a>
</g>
</g>
<!-- Node13&#45;&gt;Node31 -->
<g id="edge31" class="edge">
<title>Node13&#45;&gt;Node31</title>
<path fill="none" stroke="midnightblue" d="M724.53,-342.41C747.6,-337.33 776.13,-331.04 800.48,-325.68"/>
<polygon fill="midnightblue" stroke="midnightblue" points="801.27,-329.09 810.28,-323.52 799.77,-322.25 801.27,-329.09"/>
</g>
<!-- Node32 -->
<g id="node28" class="node">
<title>Node32</title>
<g id="a_node28"><a xlink:href="pb__decode_8c.html#ac2d909d6194bfbca3c31b95749c4e848" target="_top" xlink:title=" ">
<polygon fill="white" stroke="black" points="986.5,-285.5 986.5,-304.5 1060.5,-304.5 1060.5,-285.5 986.5,-285.5"/>
<text text-anchor="middle" x="1023.5" y="-292.5" font-family="Helvetica,sans-Serif" font-size="10.00">pb_field_next</text>
</a>
</g>
</g>
<!-- Node13&#45;&gt;Node32 -->
<g id="edge38" class="edge">
<title>Node13&#45;&gt;Node32</title>
<path fill="none" stroke="midnightblue" d="M726.23,-352.16C774.89,-351.46 854.29,-347.82 921,-333 945.83,-327.48 972.73,-317.2 992.6,-308.72"/>
<polygon fill="midnightblue" stroke="midnightblue" points="994.26,-311.82 1002.02,-304.61 991.46,-305.4 994.26,-311.82"/>
</g>
<!-- Node33 -->
<g id="node29" class="node">
<title>Node33</title>
<g id="a_node29"><a xlink:href="pb__decode_8c.html#aefe6134d81ea2f861f0111984553b23b" target="_top" xlink:title=" ">
<polygon fill="white" stroke="black" points="1442,-380.5 1442,-399.5 1525,-399.5 1525,-380.5 1442,-380.5"/>
<text text-anchor="middle" x="1483.5" y="-387.5" font-family="Helvetica,sans-Serif" font-size="10.00">pb_decode_tag</text>
</a>
</g>
</g>
<!-- Node13&#45;&gt;Node33 -->
<g id="edge33" class="edge">
<title>Node13&#45;&gt;Node33</title>
<path fill="none" stroke="midnightblue" d="M726.12,-360.25C791.3,-371.42 915.72,-390 1022.5,-390 1022.5,-390 1022.5,-390 1183.5,-390 1270.67,-390 1372.13,-390 1431.62,-390"/>
<polygon fill="midnightblue" stroke="midnightblue" points="1431.88,-393.5 1441.88,-390 1431.88,-386.5 1431.88,-393.5"/>
</g>
<!-- Node34 -->
<g id="node30" class="node">
<title>Node34</title>
<g id="a_node30"><a xlink:href="pb__decode_8c.html#a7897e383f3ae811b1afc2ecd36277512" target="_top" xlink:title=" ">
<polygon fill="white" stroke="black" points="819,-266.5 819,-285.5 890,-285.5 890,-266.5 819,-266.5"/>
<text text-anchor="middle" x="854.5" y="-273.5" font-family="Helvetica,sans-Serif" font-size="10.00">pb_field_find</text>
</a>
</g>
</g>
<!-- Node13&#45;&gt;Node34 -->
<g id="edge35" class="edge">
<title>Node13&#45;&gt;Node34</title>
<path fill="none" stroke="midnightblue" d="M696.46,-342.44C716.83,-330.16 754.07,-308.78 788,-295 794.71,-292.27 801.96,-289.76 809.1,-287.53"/>
<polygon fill="midnightblue" stroke="midnightblue" points="810.14,-290.87 818.71,-284.64 808.13,-284.16 810.14,-290.87"/>
</g>
<!-- Node35 -->
<g id="node31" class="node">
<title>Node35</title>
<g id="a_node31"><a xlink:href="pb__decode_8c.html#a1dd25c1621de36f7de14a3b9ba2c532d" target="_top" xlink:title=" ">
<polygon fill="white" stroke="black" points="820.5,-228.5 820.5,-247.5 888.5,-247.5 888.5,-228.5 820.5,-228.5"/>
<text text-anchor="middle" x="854.5" y="-235.5" font-family="Helvetica,sans-Serif" font-size="10.00">pb_field_init</text>
</a>
</g>
</g>
<!-- Node13&#45;&gt;Node35 -->
<g id="edge37" class="edge">
<title>Node13&#45;&gt;Node35</title>
<path fill="none" stroke="midnightblue" d="M689.11,-342.37C705.7,-323.27 745.59,-280.4 788,-257 795,-253.14 802.86,-249.99 810.64,-247.45"/>
<polygon fill="midnightblue" stroke="midnightblue" points="811.8,-250.76 820.39,-244.55 809.8,-244.05 811.8,-250.76"/>
</g>
<!-- Node15 -->
<g id="node15" class="node">
<title>Node15</title>
<g id="a_node15"><a xlink:href="pb__decode_8c.html#a7c09905fda4c6398697bcf0d42882c04" target="_top" xlink:title=" ">
<polygon fill="white" stroke="black" points="957,-456.5 957,-475.5 1090,-475.5 1090,-456.5 957,-456.5"/>
<text text-anchor="middle" x="1023.5" y="-463.5" font-family="Helvetica,sans-Serif" font-size="10.00">default_extension_decoder</text>
</a>
</g>
</g>
<!-- Node14&#45;&gt;Node15 -->
<g id="edge15" class="edge">
<title>Node14&#45;&gt;Node15</title>
<path fill="none" stroke="midnightblue" d="M902.02,-466C915.82,-466 931.31,-466 946.47,-466"/>
<polygon fill="midnightblue" stroke="midnightblue" points="946.89,-469.5 956.89,-466 946.89,-462.5 946.89,-469.5"/>
</g>
<!-- Node15&#45;&gt;Node16 -->
<g id="edge16" class="edge">
<title>Node15&#45;&gt;Node16</title>
<path fill="none" stroke="midnightblue" d="M1064.12,-475.59C1086.35,-480.97 1114.16,-487.7 1137.12,-493.26"/>
<polygon fill="midnightblue" stroke="midnightblue" points="1136.42,-496.69 1146.97,-495.64 1138.07,-489.89 1136.42,-496.69"/>
</g>
<!-- Node17 -->
<g id="node17" class="node">
<title>Node17</title>
<g id="a_node17"><a xlink:href="pb__decode_8c.html#a69a78d2efcd4b9057215ac8b79a5eb2b" target="_top" xlink:title=" ">
<polygon fill="white" stroke="red" points="1275,-532.5 1275,-551.5 1388,-551.5 1388,-532.5 1275,-532.5"/>
<text text-anchor="middle" x="1331.5" y="-539.5" font-family="Helvetica,sans-Serif" font-size="10.00">decode_callback_field</text>
</a>
</g>
</g>
<!-- Node16&#45;&gt;Node17 -->
<g id="edge17" class="edge">
<title>Node16&#45;&gt;Node17</title>
<path fill="none" stroke="midnightblue" d="M1218.34,-513.01C1237.91,-518.06 1262.59,-524.44 1283.81,-529.93"/>
<polygon fill="midnightblue" stroke="midnightblue" points="1283.05,-533.35 1293.6,-532.46 1284.8,-526.57 1283.05,-533.35"/>
</g>
<!-- Node29 -->
<g id="node25" class="node">
<title>Node29</title>
<g id="a_node25"><a xlink:href="pb__decode_8c.html#af65dd063304df2ed380dc411bb6caae6" target="_top" xlink:title=" ">
<polygon fill="white" stroke="red" points="1278.5,-494.5 1278.5,-513.5 1384.5,-513.5 1384.5,-494.5 1278.5,-494.5"/>
<text text-anchor="middle" x="1331.5" y="-501.5" font-family="Helvetica,sans-Serif" font-size="10.00">decode_pointer_field</text>
</a>
</g>
</g>
<!-- Node16&#45;&gt;Node29 -->
<g id="edge28" class="edge">
<title>Node16&#45;&gt;Node29</title>
<path fill="none" stroke="midnightblue" d="M1218.34,-504C1233.17,-504 1250.95,-504 1267.92,-504"/>
<polygon fill="midnightblue" stroke="midnightblue" points="1268.36,-507.5 1278.36,-504 1268.36,-500.5 1268.36,-507.5"/>
</g>
<!-- Node30 -->
<g id="node26" class="node">
<title>Node30</title>
<g id="a_node26"><a xlink:href="pb__decode_8c.html#a02c14bf9763a469e0414bf9a1eb13632" target="_top" xlink:title=" ">
<polygon fill="white" stroke="red" points="1281,-456.5 1281,-475.5 1382,-475.5 1382,-456.5 1281,-456.5"/>
<text text-anchor="middle" x="1331.5" y="-463.5" font-family="Helvetica,sans-Serif" font-size="10.00">decode_static_field</text>
</a>
</g>
</g>
<!-- Node16&#45;&gt;Node30 -->
<g id="edge29" class="edge">
<title>Node16&#45;&gt;Node30</title>
<path fill="none" stroke="midnightblue" d="M1218.34,-494.99C1237.91,-489.94 1262.59,-483.56 1283.81,-478.07"/>
<polygon fill="midnightblue" stroke="midnightblue" points="1284.8,-481.43 1293.6,-475.54 1283.05,-474.65 1284.8,-481.43"/>
</g>
<!-- Node17&#45;&gt;Node19 -->
<g id="edge18" class="edge">
<title>Node17&#45;&gt;Node19</title>
<path fill="none" stroke="midnightblue" d="M1388.35,-542C1396.59,-542 1405.15,-542 1413.6,-542"/>
<polygon fill="midnightblue" stroke="midnightblue" points="1413.84,-545.5 1423.84,-542 1413.84,-538.5 1413.84,-545.5"/>
</g>
<!-- Node17&#45;&gt;Node24 -->
<g id="edge20" class="edge">
<title>Node17&#45;&gt;Node24</title>
<path fill="none" stroke="midnightblue" d="M1364.08,-532.49C1372.02,-529.75 1380.43,-526.53 1388,-523 1413.82,-510.96 1441.52,-493.68 1460.21,-481.31"/>
<polygon fill="midnightblue" stroke="midnightblue" points="1462.26,-484.15 1468.61,-475.67 1458.36,-478.34 1462.26,-484.15"/>
</g>
<!-- Node20 -->
<g id="node19" class="node">
<title>Node20</title>
<g id="a_node19"><a xlink:href="pb__decode_8c.html#a9746f7244f9d14b2a095ddfcad55febe" target="_top" xlink:title=" ">
<polygon fill="white" stroke="black" points="1835,-503.5 1835,-522.5 1889,-522.5 1889,-503.5 1835,-503.5"/>
<text text-anchor="middle" x="1862" y="-510.5" font-family="Helvetica,sans-Serif" font-size="10.00">buf_read</text>
</a>
</g>
</g>
<!-- Node19&#45;&gt;Node20 -->
<g id="edge19" class="edge">
<title>Node19&#45;&gt;Node20</title>
<path fill="none" stroke="midnightblue" d="M1543.33,-537.47C1622.08,-531.4 1759.42,-520.82 1824.63,-515.8"/>
<polygon fill="midnightblue" stroke="midnightblue" points="1825.12,-519.27 1834.82,-515.02 1824.58,-512.29 1825.12,-519.27"/>
</g>
<!-- Node25 -->
<g id="node21" class="node">
<title>Node25</title>
<g id="a_node21"><a xlink:href="pb__decode_8c.html#ad54a52168427208d756087919ff82d41" target="_top" xlink:title=" ">
<polygon fill="white" stroke="black" points="1721.5,-475.5 1721.5,-494.5 1772.5,-494.5 1772.5,-475.5 1721.5,-475.5"/>
<text text-anchor="middle" x="1747" y="-482.5" font-family="Helvetica,sans-Serif" font-size="10.00">pb_read</text>
</a>
</g>
</g>
<!-- Node24&#45;&gt;Node25 -->
<g id="edge21" class="edge">
<title>Node24&#45;&gt;Node25</title>
<path fill="none" stroke="midnightblue" d="M1520.59,-475.01C1538.1,-478.93 1559.52,-483.06 1579,-485 1624.43,-489.52 1677.15,-488.48 1711.01,-487.01"/>
<polygon fill="midnightblue" stroke="midnightblue" points="1711.48,-490.49 1721.31,-486.52 1711.15,-483.5 1711.48,-490.49"/>
</g>
<!-- Node26 -->
<g id="node22" class="node">
<title>Node26</title>
<g id="a_node22"><a xlink:href="pb__decode_8c.html#afa3e9c4da6d998fd6315d4cbd51b02e4" target="_top" xlink:title=" ">
<polygon fill="white" stroke="black" points="1579,-418.5 1579,-437.5 1659,-437.5 1659,-418.5 1579,-418.5"/>
<text text-anchor="middle" x="1619" y="-425.5" font-family="Helvetica,sans-Serif" font-size="10.00">pb_skip_string</text>
</a>
</g>
</g>
<!-- Node24&#45;&gt;Node26 -->
<g id="edge23" class="edge">
<title>Node24&#45;&gt;Node26</title>
<path fill="none" stroke="midnightblue" d="M1518.19,-456.41C1535.26,-451.55 1556.2,-445.59 1574.48,-440.39"/>
<polygon fill="midnightblue" stroke="midnightblue" points="1575.66,-443.69 1584.32,-437.59 1573.75,-436.96 1575.66,-443.69"/>
</g>
<!-- Node27 -->
<g id="node24" class="node">
<title>Node27</title>
<g id="a_node24"><a xlink:href="pb__decode_8c.html#a57738ceef4b30349437900b245a33c77" target="_top" xlink:title=" ">
<polygon fill="white" stroke="black" points="1579,-456.5 1579,-475.5 1659,-475.5 1659,-456.5 1579,-456.5"/>
<text text-anchor="middle" x="1619" y="-463.5" font-family="Helvetica,sans-Serif" font-size="10.00">pb_skip_varint</text>
</a>
</g>
</g>
<!-- Node24&#45;&gt;Node27 -->
<g id="edge26" class="edge">
<title>Node24&#45;&gt;Node27</title>
<path fill="none" stroke="midnightblue" d="M1520.63,-466C1535.32,-466 1552.55,-466 1568.39,-466"/>
<polygon fill="midnightblue" stroke="midnightblue" points="1568.56,-469.5 1578.56,-466 1568.56,-462.5 1568.56,-469.5"/>
</g>
<!-- Node25&#45;&gt;Node20 -->
<g id="edge22" class="edge">
<title>Node25&#45;&gt;Node20</title>
<path fill="none" stroke="midnightblue" d="M1772.52,-491.08C1787.93,-494.89 1808.07,-499.89 1825.25,-504.14"/>
<polygon fill="midnightblue" stroke="midnightblue" points="1824.41,-507.54 1834.96,-506.55 1826.09,-500.74 1824.41,-507.54"/>
</g>
<!-- Node26&#45;&gt;Node25 -->
<g id="edge25" class="edge">
<title>Node26&#45;&gt;Node25</title>
<path fill="none" stroke="midnightblue" d="M1641.09,-437.54C1661.44,-446.75 1692.47,-460.78 1715.51,-471.21"/>
<polygon fill="midnightblue" stroke="midnightblue" points="1714.29,-474.5 1724.84,-475.43 1717.17,-468.12 1714.29,-474.5"/>
</g>
<!-- Node22 -->
<g id="node23" class="node">
<title>Node22</title>
<g id="a_node23"><a xlink:href="pb__decode_8c.html#abef49f760a21798e59538eec4aea23c2" target="_top" xlink:title=" ">
<polygon fill="white" stroke="red" points="1695,-399.5 1695,-418.5 1799,-418.5 1799,-399.5 1695,-399.5"/>
<text text-anchor="middle" x="1747" y="-406.5" font-family="Helvetica,sans-Serif" font-size="10.00">pb_decode_varint32</text>
</a>
</g>
</g>
<!-- Node26&#45;&gt;Node22 -->
<g id="edge24" class="edge">
<title>Node26&#45;&gt;Node22</title>
<path fill="none" stroke="midnightblue" d="M1659.18,-422.09C1667.28,-420.87 1675.99,-419.56 1684.67,-418.25"/>
<polygon fill="midnightblue" stroke="midnightblue" points="1685.42,-421.67 1694.79,-416.72 1684.38,-414.75 1685.42,-421.67"/>
</g>
<!-- Node27&#45;&gt;Node25 -->
<g id="edge27" class="edge">
<title>Node27&#45;&gt;Node25</title>
<path fill="none" stroke="midnightblue" d="M1659.18,-471.91C1675.77,-474.41 1694.95,-477.3 1711.05,-479.73"/>
<polygon fill="midnightblue" stroke="midnightblue" points="1710.72,-483.22 1721.13,-481.25 1711.77,-476.3 1710.72,-483.22"/>
</g>
<!-- Node31&#45;&gt;Node32 -->
<g id="edge32" class="edge">
<title>Node31&#45;&gt;Node32</title>
<path fill="none" stroke="midnightblue" d="M906.06,-308.25C928.44,-305.7 954.57,-302.73 976.4,-300.24"/>
<polygon fill="midnightblue" stroke="midnightblue" points="976.88,-303.71 986.42,-299.1 976.09,-296.76 976.88,-303.71"/>
</g>
<!-- Node33&#45;&gt;Node22 -->
<g id="edge34" class="edge">
<title>Node33&#45;&gt;Node22</title>
<path fill="none" stroke="midnightblue" d="M1525.07,-392.95C1567.8,-396.05 1635.57,-400.98 1684.79,-404.55"/>
<polygon fill="midnightblue" stroke="midnightblue" points="1684.77,-408.06 1695,-405.29 1685.28,-401.08 1684.77,-408.06"/>
</g>
<!-- Node34&#45;&gt;Node32 -->
<g id="edge36" class="edge">
<title>Node34&#45;&gt;Node32</title>
<path fill="none" stroke="midnightblue" d="M890.1,-279.94C915.09,-282.78 949.11,-286.65 976.4,-289.76"/>
<polygon fill="midnightblue" stroke="midnightblue" points="976.17,-293.25 986.5,-290.9 976.96,-286.3 976.17,-293.25"/>
</g>
<!-- Node36&#45;&gt;Node32 -->
<g id="edge44" class="edge">
<title>Node36&#45;&gt;Node32</title>
<path fill="none" stroke="midnightblue" d="M720.87,-171.44C770.25,-161.69 855.8,-151.75 921,-181 964.71,-200.61 997.31,-249.38 1012.69,-276.34"/>
<polygon fill="midnightblue" stroke="midnightblue" points="1009.67,-278.12 1017.56,-285.2 1015.8,-274.75 1009.67,-278.12"/>
</g>
<!-- Node36&#45;&gt;Node35 -->
<g id="edge43" class="edge">
<title>Node36&#45;&gt;Node35</title>
<path fill="none" stroke="midnightblue" d="M706.8,-190.64C728.38,-198.6 760.04,-209.99 788,-219 795.29,-221.35 803.07,-223.72 810.64,-225.96"/>
<polygon fill="midnightblue" stroke="midnightblue" points="809.82,-229.37 820.4,-228.81 811.78,-222.65 809.82,-229.37"/>
</g>
<!-- Node37 -->
<g id="node33" class="node">
<title>Node37</title>
<g id="a_node33"><a xlink:href="pb__syshdr_8h.html#a39dc31816e18e5a0b48da2865a4b698c" target="_top" xlink:title=" ">
<polygon fill="white" stroke="black" points="827.5,-114.5 827.5,-133.5 881.5,-133.5 881.5,-114.5 827.5,-114.5"/>
<text text-anchor="middle" x="854.5" y="-121.5" font-family="Helvetica,sans-Serif" font-size="10.00">memcpy</text>
</a>
</g>
</g>
<!-- Node36&#45;&gt;Node37 -->
<g id="edge41" class="edge">
<title>Node36&#45;&gt;Node37</title>
<path fill="none" stroke="midnightblue" d="M709.87,-171.46C739.47,-161.68 785.57,-146.45 817.52,-135.89"/>
<polygon fill="midnightblue" stroke="midnightblue" points="818.96,-139.1 827.36,-132.64 816.77,-132.45 818.96,-139.1"/>
</g>
<!-- Node38 -->
<g id="node34" class="node">
<title>Node38</title>
<g id="a_node34"><a xlink:href="pb__syshdr_8h.html#aebca9679ad3da8a3bfe87d58959c7ca5" target="_top" xlink:title=" ">
<polygon fill="white" stroke="black" points="828.5,-190.5 828.5,-209.5 880.5,-209.5 880.5,-190.5 828.5,-190.5"/>
<text text-anchor="middle" x="854.5" y="-197.5" font-family="Helvetica,sans-Serif" font-size="10.00">memset</text>
</a>
</g>
</g>
<!-- Node36&#45;&gt;Node38 -->
<g id="edge42" class="edge">
<title>Node36&#45;&gt;Node38</title>
<path fill="none" stroke="midnightblue" d="M752.16,-188.84C775.02,-191.36 799.35,-194.04 818.44,-196.14"/>
<polygon fill="midnightblue" stroke="midnightblue" points="818.13,-199.63 828.46,-197.24 818.9,-192.67 818.13,-199.63"/>
</g>
<!-- Node40 -->
<g id="node36" class="node">
<title>Node40</title>
<g id="a_node36"><a xlink:href="pb__encode_8c.html#af44dde5296bd546d99be35f15658af3e" target="_top" xlink:title=" ">
<polygon fill="white" stroke="black" points="479,-76.5 479,-95.5 543,-95.5 543,-76.5 479,-76.5"/>
<text text-anchor="middle" x="511" y="-83.5" font-family="Helvetica,sans-Serif" font-size="10.00">pb_encode</text>
</a>
</g>
</g>
<!-- Node39&#45;&gt;Node40 -->
<g id="edge47" class="edge">
<title>Node39&#45;&gt;Node40</title>
<path fill="none" stroke="midnightblue" d="M414.09,-92.61C432.92,-91.32 452.3,-89.98 468.68,-88.85"/>
<polygon fill="midnightblue" stroke="midnightblue" points="469.23,-92.32 478.97,-88.14 468.75,-85.34 469.23,-92.32"/>
</g>
<!-- Node52 -->
<g id="node42" class="node">
<title>Node52</title>
<g id="a_node42"><a xlink:href="pb__encode_8c.html#a52a102e2c3f0d96a08c1e62d5038092e" target="_top" xlink:title=" ">
<polygon fill="white" stroke="black" points="450,-19.5 450,-38.5 572,-38.5 572,-19.5 450,-19.5"/>
<text text-anchor="middle" x="511" y="-26.5" font-family="Helvetica,sans-Serif" font-size="10.00">pb_ostream_from_buffer</text>
</a>
</g>
</g>
<!-- Node39&#45;&gt;Node52 -->
<g id="edge54" class="edge">
<title>Node39&#45;&gt;Node52</title>
<path fill="none" stroke="midnightblue" d="M388.37,-82.99C397,-80.2 405.81,-77.16 414,-74 437.65,-64.87 463.64,-52.54 482.61,-43.09"/>
<polygon fill="midnightblue" stroke="midnightblue" points="484.21,-46.2 491.57,-38.58 481.07,-39.95 484.21,-46.2"/>
</g>
<!-- Node41 -->
<g id="node37" class="node">
<title>Node41</title>
<g id="a_node37"><a xlink:href="pb__encode_8c.html#a0c789b04243dc72075c00744134546c3" target="_top" xlink:title=" ">
<polygon fill="white" stroke="black" points="620.5,-38.5 620.5,-57.5 739.5,-57.5 739.5,-38.5 620.5,-38.5"/>
<text text-anchor="middle" x="680" y="-45.5" font-family="Helvetica,sans-Serif" font-size="10.00">encode_extension_field</text>
</a>
</g>
</g>
<!-- Node40&#45;&gt;Node41 -->
<g id="edge48" class="edge">
<title>Node40&#45;&gt;Node41</title>
<path fill="none" stroke="midnightblue" d="M543.02,-78.94C566.63,-73.57 599.64,-66.06 627.23,-59.78"/>
<polygon fill="midnightblue" stroke="midnightblue" points="628.15,-63.16 637.12,-57.53 626.6,-56.33 628.15,-63.16"/>
</g>
<!-- Node43 -->
<g id="node39" class="node">
<title>Node43</title>
<g id="a_node39"><a xlink:href="pb__encode_8c.html#a8aa23313175c09e050e2acbc54a17bd4" target="_top" xlink:title=" ">
<polygon fill="white" stroke="black" points="988,-57.5 988,-76.5 1059,-76.5 1059,-57.5 988,-57.5"/>
<text text-anchor="middle" x="1023.5" y="-64.5" font-family="Helvetica,sans-Serif" font-size="10.00">encode_field</text>
</a>
</g>
</g>
<!-- Node40&#45;&gt;Node43 -->
<g id="edge53" class="edge">
<title>Node40&#45;&gt;Node43</title>
<path fill="none" stroke="midnightblue" d="M543.17,-84.84C630.14,-81.6 875.79,-72.46 977.52,-68.67"/>
<polygon fill="midnightblue" stroke="midnightblue" points="977.9,-72.16 987.76,-68.29 977.64,-65.17 977.9,-72.16"/>
</g>
<!-- Node42 -->
<g id="node38" class="node">
<title>Node42</title>
<g id="a_node38"><a xlink:href="pb__encode_8c.html#a3a12936f07ae378d68408c7bee72e3c0" target="_top" xlink:title=" ">
<polygon fill="white" stroke="black" points="788,-38.5 788,-57.5 921,-57.5 921,-38.5 788,-38.5"/>
<text text-anchor="middle" x="854.5" y="-45.5" font-family="Helvetica,sans-Serif" font-size="10.00">default_extension_encoder</text>
</a>
</g>
</g>
<!-- Node41&#45;&gt;Node42 -->
<g id="edge49" class="edge">
<title>Node41&#45;&gt;Node42</title>
<path fill="none" stroke="midnightblue" d="M739.88,-48C752.05,-48 765.03,-48 777.7,-48"/>
<polygon fill="midnightblue" stroke="midnightblue" points="777.78,-51.5 787.78,-48 777.78,-44.5 777.78,-51.5"/>
</g>
<!-- Node42&#45;&gt;Node43 -->
<g id="edge50" class="edge">
<title>Node42&#45;&gt;Node43</title>
<path fill="none" stroke="midnightblue" d="M921.02,-55.45C939.94,-57.61 960.15,-59.91 977.52,-61.88"/>
<polygon fill="midnightblue" stroke="midnightblue" points="977.59,-65.41 987.92,-63.07 978.38,-58.46 977.59,-65.41"/>
</g>
<!-- Node44 -->
<g id="node40" class="node">
<title>Node44</title>
<g id="a_node40"><a xlink:href="pb__encode_8c.html#a1f186424780069ab183fb7d2360d274e" target="_top" xlink:title=" ">
<polygon fill="white" stroke="red" points="1132.5,-76.5 1132.5,-95.5 1232.5,-95.5 1232.5,-76.5 1132.5,-76.5"/>
<text text-anchor="middle" x="1182.5" y="-83.5" font-family="Helvetica,sans-Serif" font-size="10.00">encode_basic_field</text>
</a>
</g>
</g>
<!-- Node43&#45;&gt;Node44 -->
<g id="edge51" class="edge">
<title>Node43&#45;&gt;Node44</title>
<path fill="none" stroke="midnightblue" d="M1059.34,-71.22C1077.9,-73.46 1101.24,-76.29 1122.53,-78.86"/>
<polygon fill="midnightblue" stroke="midnightblue" points="1122.12,-82.34 1132.46,-80.07 1122.96,-75.39 1122.12,-82.34"/>
</g>
<!-- Node51 -->
<g id="node41" class="node">
<title>Node51</title>
<g id="a_node41"><a xlink:href="pb__encode_8c.html#aacffda1f85cad8e448a183dcc6c13559" target="_top" xlink:title=" ">
<polygon fill="white" stroke="black" points="1126,-38.5 1126,-57.5 1239,-57.5 1239,-38.5 1126,-38.5"/>
<text text-anchor="middle" x="1182.5" y="-45.5" font-family="Helvetica,sans-Serif" font-size="10.00">encode_callback_field</text>
</a>
</g>
</g>
<!-- Node43&#45;&gt;Node51 -->
<g id="edge52" class="edge">
<title>Node43&#45;&gt;Node51</title>
<path fill="none" stroke="midnightblue" d="M1059.34,-62.78C1075.96,-60.77 1096.4,-58.3 1115.78,-55.95"/>
<polygon fill="midnightblue" stroke="midnightblue" points="1116.28,-59.42 1125.79,-54.74 1115.44,-52.47 1116.28,-59.42"/>
</g>
<!-- Node49 -->
<g id="node43" class="node">
<title>Node49</title>
<g id="a_node43"><a xlink:href="pb__encode_8c.html#aa987a466c397e7769605789cc0b22054" target="_top" xlink:title=" ">
<polygon fill="white" stroke="black" points="652,-0.5 652,-19.5 708,-19.5 708,-0.5 652,-0.5"/>
<text text-anchor="middle" x="680" y="-7.5" font-family="Helvetica,sans-Serif" font-size="10.00">buf_write</text>
</a>
</g>
</g>
<!-- Node52&#45;&gt;Node49 -->
<g id="edge55" class="edge">
<title>Node52&#45;&gt;Node49</title>
<path fill="none" stroke="midnightblue" d="M572.29,-22.14C595.52,-19.5 621.36,-16.56 641.79,-14.23"/>
<polygon fill="midnightblue" stroke="midnightblue" points="642.4,-17.69 651.94,-13.08 641.6,-10.73 642.4,-17.69"/>
</g>
</g>
</svg>
