<?xml version="1.0" encoding="UTF-8" standalone="no"?>
<!DOCTYPE svg PUBLIC "-//W3C//DTD SVG 1.1//EN"
 "http://www.w3.org/Graphics/SVG/1.1/DTD/svg11.dtd">
<!-- Generated by graphviz version 2.43.0 (0)
 -->
<!-- Title: build/FRI&#45;Client&#45;SDK_Cpp/example/TransformationProvider/TransformationProviderApp.cpp Pages: 1 -->
<svg width="754pt" height="218pt"
 viewBox="0.00 0.00 754.00 218.00" xmlns="http://www.w3.org/2000/svg" xmlns:xlink="http://www.w3.org/1999/xlink">
<g id="graph0" class="graph" transform="scale(1 1) rotate(0) translate(4 214)">
<title>build/FRI&#45;Client&#45;SDK_Cpp/example/TransformationProvider/TransformationProviderApp.cpp</title>
<polygon fill="white" stroke="transparent" points="-4,4 -4,-214 750,-214 750,4 -4,4"/>
<!-- Node1 -->
<g id="node1" class="node">
<title>Node1</title>
<g id="a_node1"><a xlink:title=" ">
<polygon fill="#bfbfbf" stroke="black" points="209.5,-168.5 209.5,-209.5 402.5,-209.5 402.5,-168.5 209.5,-168.5"/>
<text text-anchor="start" x="217.5" y="-197.5" font-family="Helvetica,sans-Serif" font-size="10.00">build/FRI&#45;Client&#45;SDK</text>
<text text-anchor="start" x="217.5" y="-186.5" font-family="Helvetica,sans-Serif" font-size="10.00">_Cpp/example/Transformation</text>
<text text-anchor="middle" x="306" y="-175.5" font-family="Helvetica,sans-Serif" font-size="10.00">Provider/TransformationProviderApp.cpp</text>
</a>
</g>
</g>
<!-- Node2 -->
<g id="node2" class="node">
<title>Node2</title>
<g id="a_node2"><a xlink:title=" ">
<polygon fill="white" stroke="#bfbfbf" points="182.5,-56.5 182.5,-75.5 227.5,-75.5 227.5,-56.5 182.5,-56.5"/>
<text text-anchor="middle" x="205" y="-63.5" font-family="Helvetica,sans-Serif" font-size="10.00">cstdlib</text>
</a>
</g>
</g>
<!-- Node1&#45;&gt;Node2 -->
<g id="edge1" class="edge">
<title>Node1&#45;&gt;Node2</title>
<path fill="none" stroke="midnightblue" d="M305.36,-168.34C303.9,-151.78 299.54,-128.26 287,-112 274.48,-95.77 254.37,-84.6 237.2,-77.45"/>
<polygon fill="midnightblue" stroke="midnightblue" points="238.1,-74.05 227.51,-73.7 235.57,-80.58 238.1,-74.05"/>
</g>
<!-- Node3 -->
<g id="node3" class="node">
<title>Node3</title>
<g id="a_node3"><a xlink:title=" ">
<polygon fill="white" stroke="#bfbfbf" points="170.5,-112.5 170.5,-131.5 213.5,-131.5 213.5,-112.5 170.5,-112.5"/>
<text text-anchor="middle" x="192" y="-119.5" font-family="Helvetica,sans-Serif" font-size="10.00">cstdio</text>
</a>
</g>
</g>
<!-- Node1&#45;&gt;Node3 -->
<g id="edge2" class="edge">
<title>Node1&#45;&gt;Node3</title>
<path fill="none" stroke="midnightblue" d="M271.8,-168.5C253.81,-158.24 232.21,-145.93 216.01,-136.69"/>
<polygon fill="midnightblue" stroke="midnightblue" points="217.6,-133.57 207.18,-131.65 214.13,-139.65 217.6,-133.57"/>
</g>
<!-- Node4 -->
<g id="node4" class="node">
<title>Node4</title>
<g id="a_node4"><a xlink:title=" ">
<polygon fill="white" stroke="#bfbfbf" points="232,-112.5 232,-131.5 278,-131.5 278,-112.5 232,-112.5"/>
<text text-anchor="middle" x="255" y="-119.5" font-family="Helvetica,sans-Serif" font-size="10.00">cstring</text>
</a>
</g>
</g>
<!-- Node1&#45;&gt;Node4 -->
<g id="edge3" class="edge">
<title>Node1&#45;&gt;Node4</title>
<path fill="none" stroke="midnightblue" d="M290.7,-168.5C283.48,-159.3 274.96,-148.44 268.05,-139.63"/>
<polygon fill="midnightblue" stroke="midnightblue" points="270.72,-137.36 261.79,-131.65 265.21,-141.68 270.72,-137.36"/>
</g>
<!-- Node5 -->
<g id="node5" class="node">
<title>Node5</title>
<g id="a_node5"><a xlink:href="_transformation_provider_client_8h.html" target="_top" xlink:title=" ">
<polygon fill="white" stroke="black" points="0,-112.5 0,-131.5 152,-131.5 152,-112.5 0,-112.5"/>
<text text-anchor="middle" x="76" y="-119.5" font-family="Helvetica,sans-Serif" font-size="10.00">TransformationProviderClient.h</text>
</a>
</g>
</g>
<!-- Node1&#45;&gt;Node5 -->
<g id="edge4" class="edge">
<title>Node1&#45;&gt;Node5</title>
<path fill="none" stroke="midnightblue" d="M236.99,-168.5C197.54,-157.35 149.44,-143.76 116.15,-134.35"/>
<polygon fill="midnightblue" stroke="midnightblue" points="116.89,-130.92 106.31,-131.57 114.99,-137.65 116.89,-130.92"/>
</g>
<!-- Node9 -->
<g id="node9" class="node">
<title>Node9</title>
<g id="a_node9"><a xlink:href="fri_udp_connection_8h.html" target="_top" xlink:title=" ">
<polygon fill="white" stroke="black" points="334.5,-112.5 334.5,-131.5 435.5,-131.5 435.5,-112.5 334.5,-112.5"/>
<text text-anchor="middle" x="385" y="-119.5" font-family="Helvetica,sans-Serif" font-size="10.00">friUdpConnection.h</text>
</a>
</g>
</g>
<!-- Node1&#45;&gt;Node9 -->
<g id="edge8" class="edge">
<title>Node1&#45;&gt;Node9</title>
<path fill="none" stroke="midnightblue" d="M329.7,-168.5C341.58,-158.72 355.74,-147.07 366.76,-138.01"/>
<polygon fill="midnightblue" stroke="midnightblue" points="368.99,-140.71 374.48,-131.65 364.54,-135.3 368.99,-140.71"/>
</g>
<!-- Node13 -->
<g id="node13" class="node">
<title>Node13</title>
<g id="a_node13"><a xlink:href="fri_client_application_8h.html" target="_top" xlink:title=" ">
<polygon fill="white" stroke="black" points="453.5,-112.5 453.5,-131.5 560.5,-131.5 560.5,-112.5 453.5,-112.5"/>
<text text-anchor="middle" x="507" y="-119.5" font-family="Helvetica,sans-Serif" font-size="10.00">friClientApplication.h</text>
</a>
</g>
</g>
<!-- Node1&#45;&gt;Node13 -->
<g id="edge13" class="edge">
<title>Node1&#45;&gt;Node13</title>
<path fill="none" stroke="midnightblue" d="M366.31,-168.5C400.34,-157.49 441.73,-144.11 470.78,-134.71"/>
<polygon fill="midnightblue" stroke="midnightblue" points="472.07,-137.97 480.51,-131.57 469.92,-131.31 472.07,-137.97"/>
</g>
<!-- Node14 -->
<g id="node14" class="node">
<title>Node14</title>
<g id="a_node14"><a xlink:href="fri_l_b_r_client_8h.html" target="_top" xlink:title=" ">
<polygon fill="white" stroke="black" points="591,-112.5 591,-131.5 669,-131.5 669,-112.5 591,-112.5"/>
<text text-anchor="middle" x="630" y="-119.5" font-family="Helvetica,sans-Serif" font-size="10.00">friLBRClient.h</text>
</a>
</g>
</g>
<!-- Node1&#45;&gt;Node14 -->
<g id="edge14" class="edge">
<title>Node1&#45;&gt;Node14</title>
<path fill="none" stroke="midnightblue" d="M402.77,-168.59C461.49,-156.81 533.93,-142.27 581.01,-132.83"/>
<polygon fill="midnightblue" stroke="midnightblue" points="581.83,-136.23 590.94,-130.84 580.45,-129.37 581.83,-136.23"/>
</g>
<!-- Node6 -->
<g id="node6" class="node">
<title>Node6</title>
<g id="a_node6"><a xlink:href="fri_transformation_client_8h.html" target="_top" xlink:title=" ">
<polygon fill="white" stroke="black" points="27,-56.5 27,-75.5 151,-75.5 151,-56.5 27,-56.5"/>
<text text-anchor="middle" x="89" y="-63.5" font-family="Helvetica,sans-Serif" font-size="10.00">friTransformationClient.h</text>
</a>
</g>
</g>
<!-- Node5&#45;&gt;Node6 -->
<g id="edge5" class="edge">
<title>Node5&#45;&gt;Node6</title>
<path fill="none" stroke="midnightblue" d="M78.15,-112.08C79.87,-104.93 82.35,-94.64 84.5,-85.69"/>
<polygon fill="midnightblue" stroke="midnightblue" points="87.96,-86.29 86.89,-75.75 81.15,-84.65 87.96,-86.29"/>
</g>
<!-- Node7 -->
<g id="node7" class="node">
<title>Node7</title>
<g id="a_node7"><a xlink:title=" ">
<polygon fill="white" stroke="#bfbfbf" points="67,-0.5 67,-19.5 111,-19.5 111,-0.5 67,-0.5"/>
<text text-anchor="middle" x="89" y="-7.5" font-family="Helvetica,sans-Serif" font-size="10.00">vector</text>
</a>
</g>
</g>
<!-- Node6&#45;&gt;Node7 -->
<g id="edge6" class="edge">
<title>Node6&#45;&gt;Node7</title>
<path fill="none" stroke="midnightblue" d="M89,-56.08C89,-49.01 89,-38.86 89,-29.99"/>
<polygon fill="midnightblue" stroke="midnightblue" points="92.5,-29.75 89,-19.75 85.5,-29.75 92.5,-29.75"/>
</g>
<!-- Node8 -->
<g id="node8" class="node">
<title>Node8</title>
<g id="a_node8"><a xlink:href="fri_client_if_8h.html" target="_top" xlink:title=" ">
<polygon fill="white" stroke="black" points="609.5,-0.5 609.5,-19.5 674.5,-19.5 674.5,-0.5 609.5,-0.5"/>
<text text-anchor="middle" x="642" y="-7.5" font-family="Helvetica,sans-Serif" font-size="10.00">friClientIf.h</text>
</a>
</g>
</g>
<!-- Node6&#45;&gt;Node8 -->
<g id="edge7" class="edge">
<title>Node6&#45;&gt;Node8</title>
<path fill="none" stroke="midnightblue" d="M151.38,-58.24C158.67,-57.47 166,-56.71 173,-56 330.06,-40.05 516.86,-22.57 599.3,-14.94"/>
<polygon fill="midnightblue" stroke="midnightblue" points="599.66,-18.42 609.29,-14.01 599.01,-11.45 599.66,-18.42"/>
</g>
<!-- Node9&#45;&gt;Node2 -->
<g id="edge9" class="edge">
<title>Node9&#45;&gt;Node2</title>
<path fill="none" stroke="midnightblue" d="M356.48,-112.44C324.14,-102.74 271.51,-86.95 237.58,-76.77"/>
<polygon fill="midnightblue" stroke="midnightblue" points="238.27,-73.33 227.69,-73.81 236.26,-80.03 238.27,-73.33"/>
</g>
<!-- Node10 -->
<g id="node10" class="node">
<title>Node10</title>
<g id="a_node10"><a xlink:title=" ">
<polygon fill="white" stroke="#bfbfbf" points="352.5,-56.5 352.5,-75.5 417.5,-75.5 417.5,-56.5 352.5,-56.5"/>
<text text-anchor="middle" x="385" y="-63.5" font-family="Helvetica,sans-Serif" font-size="10.00">netinet/in.h</text>
</a>
</g>
</g>
<!-- Node9&#45;&gt;Node10 -->
<g id="edge10" class="edge">
<title>Node9&#45;&gt;Node10</title>
<path fill="none" stroke="midnightblue" d="M385,-112.08C385,-105.01 385,-94.86 385,-85.99"/>
<polygon fill="midnightblue" stroke="midnightblue" points="388.5,-85.75 385,-75.75 381.5,-85.75 388.5,-85.75"/>
</g>
<!-- Node11 -->
<g id="node11" class="node">
<title>Node11</title>
<g id="a_node11"><a xlink:title=" ">
<polygon fill="white" stroke="#bfbfbf" points="436,-56.5 436,-75.5 498,-75.5 498,-56.5 436,-56.5"/>
<text text-anchor="middle" x="467" y="-63.5" font-family="Helvetica,sans-Serif" font-size="10.00">arpa/inet.h</text>
</a>
</g>
</g>
<!-- Node9&#45;&gt;Node11 -->
<g id="edge11" class="edge">
<title>Node9&#45;&gt;Node11</title>
<path fill="none" stroke="midnightblue" d="M398.17,-112.32C410.85,-103.98 430.23,-91.21 445.21,-81.35"/>
<polygon fill="midnightblue" stroke="midnightblue" points="447.43,-84.08 453.86,-75.65 443.58,-78.23 447.43,-84.08"/>
</g>
<!-- Node12 -->
<g id="node12" class="node">
<title>Node12</title>
<g id="a_node12"><a xlink:href="fri_connection_if_8h.html" target="_top" xlink:title=" ">
<polygon fill="white" stroke="black" points="245.5,-56.5 245.5,-75.5 334.5,-75.5 334.5,-56.5 245.5,-56.5"/>
<text text-anchor="middle" x="290" y="-63.5" font-family="Helvetica,sans-Serif" font-size="10.00">friConnectionIf.h</text>
</a>
</g>
</g>
<!-- Node9&#45;&gt;Node12 -->
<g id="edge12" class="edge">
<title>Node9&#45;&gt;Node12</title>
<path fill="none" stroke="midnightblue" d="M369.74,-112.32C354.78,-103.82 331.75,-90.73 314.27,-80.8"/>
<polygon fill="midnightblue" stroke="midnightblue" points="315.65,-77.55 305.23,-75.65 312.19,-83.64 315.65,-77.55"/>
</g>
<!-- Node14&#45;&gt;Node8 -->
<g id="edge15" class="edge">
<title>Node14&#45;&gt;Node8</title>
<path fill="none" stroke="midnightblue" d="M630.94,-112.37C632.88,-94.62 637.35,-53.67 639.97,-29.6"/>
<polygon fill="midnightblue" stroke="midnightblue" points="643.46,-29.91 641.06,-19.59 636.5,-29.15 643.46,-29.91"/>
</g>
<!-- Node15 -->
<g id="node15" class="node">
<title>Node15</title>
<g id="a_node15"><a xlink:href="fri_l_b_r_state_8h.html" target="_top" xlink:title=" ">
<polygon fill="white" stroke="black" points="670,-56.5 670,-75.5 746,-75.5 746,-56.5 670,-56.5"/>
<text text-anchor="middle" x="708" y="-63.5" font-family="Helvetica,sans-Serif" font-size="10.00">friLBRState.h</text>
</a>
</g>
</g>
<!-- Node14&#45;&gt;Node15 -->
<g id="edge16" class="edge">
<title>Node14&#45;&gt;Node15</title>
<path fill="none" stroke="midnightblue" d="M642.53,-112.32C654.59,-103.98 673.03,-91.21 687.27,-81.35"/>
<polygon fill="midnightblue" stroke="midnightblue" points="689.27,-84.22 695.5,-75.65 685.28,-78.47 689.27,-84.22"/>
</g>
<!-- Node16 -->
<g id="node16" class="node">
<title>Node16</title>
<g id="a_node16"><a xlink:href="fri_l_b_r_command_8h.html" target="_top" xlink:title=" ">
<polygon fill="white" stroke="black" points="516,-56.5 516,-75.5 614,-75.5 614,-56.5 516,-56.5"/>
<text text-anchor="middle" x="565" y="-63.5" font-family="Helvetica,sans-Serif" font-size="10.00">friLBRCommand.h</text>
</a>
</g>
</g>
<!-- Node14&#45;&gt;Node16 -->
<g id="edge18" class="edge">
<title>Node14&#45;&gt;Node16</title>
<path fill="none" stroke="midnightblue" d="M619.56,-112.32C609.85,-104.26 595.18,-92.08 583.5,-82.37"/>
<polygon fill="midnightblue" stroke="midnightblue" points="585.56,-79.53 575.63,-75.83 581.09,-84.92 585.56,-79.53"/>
</g>
<!-- Node15&#45;&gt;Node8 -->
<g id="edge17" class="edge">
<title>Node15&#45;&gt;Node8</title>
<path fill="none" stroke="midnightblue" d="M697.4,-56.32C687.54,-48.26 672.65,-36.08 660.78,-26.37"/>
<polygon fill="midnightblue" stroke="midnightblue" points="662.75,-23.46 652.8,-19.83 658.32,-28.88 662.75,-23.46"/>
</g>
</g>
</svg>
