<?xml version="1.0" encoding="UTF-8" standalone="no"?>
<!DOCTYPE svg PUBLIC "-//W3C//DTD SVG 1.1//EN"
 "http://www.w3.org/Graphics/SVG/1.1/DTD/svg11.dtd">
<!-- Generated by graphviz version 2.43.0 (0)
 -->
<!-- Title: build/FRI&#45;Client&#45;SDK_Cpp/example/TransformationProvider/TransformationProviderClient.h Pages: 1 -->
<svg width="420pt" height="128pt"
 viewBox="0.00 0.00 420.00 128.00" xmlns="http://www.w3.org/2000/svg" xmlns:xlink="http://www.w3.org/1999/xlink">
<g id="graph0" class="graph" transform="scale(1 1) rotate(0) translate(4 124)">
<title>build/FRI&#45;Client&#45;SDK_Cpp/example/TransformationProvider/TransformationProviderClient.h</title>
<polygon fill="white" stroke="transparent" points="-4,4 -4,-124 416,-124 416,4 -4,4"/>
<!-- Node1 -->
<g id="node1" class="node">
<title>Node1</title>
<g id="a_node1"><a xlink:title=" ">
<polygon fill="#bfbfbf" stroke="black" points="108,-78.5 108,-119.5 299,-119.5 299,-78.5 108,-78.5"/>
<text text-anchor="start" x="116" y="-107.5" font-family="Helvetica,sans-Serif" font-size="10.00">build/FRI&#45;Client&#45;SDK</text>
<text text-anchor="start" x="116" y="-96.5" font-family="Helvetica,sans-Serif" font-size="10.00">_Cpp/example/Transformation</text>
<text text-anchor="middle" x="203.5" y="-85.5" font-family="Helvetica,sans-Serif" font-size="10.00">Provider/TransformationProviderClient.h</text>
</a>
</g>
</g>
<!-- Node2 -->
<g id="node2" class="node">
<title>Node2</title>
<g id="a_node2"><a xlink:href="_transformation_provider_app_8cpp.html" target="_top" xlink:title=" ">
<polygon fill="white" stroke="black" points="0,-0.5 0,-41.5 193,-41.5 193,-0.5 0,-0.5"/>
<text text-anchor="start" x="8" y="-29.5" font-family="Helvetica,sans-Serif" font-size="10.00">build/FRI&#45;Client&#45;SDK</text>
<text text-anchor="start" x="8" y="-18.5" font-family="Helvetica,sans-Serif" font-size="10.00">_Cpp/example/Transformation</text>
<text text-anchor="middle" x="96.5" y="-7.5" font-family="Helvetica,sans-Serif" font-size="10.00">Provider/TransformationProviderApp.cpp</text>
</a>
</g>
</g>
<!-- Node1&#45;&gt;Node2 -->
<g id="edge1" class="edge">
<title>Node1&#45;&gt;Node2</title>
<path fill="none" stroke="midnightblue" d="M167.79,-72.64C153.5,-62.49 137.3,-50.98 123.96,-41.51"/>
<polygon fill="midnightblue" stroke="midnightblue" points="165.77,-75.49 175.94,-78.43 169.82,-69.78 165.77,-75.49"/>
</g>
<!-- Node3 -->
<g id="node3" class="node">
<title>Node3</title>
<g id="a_node3"><a xlink:href="_transformation_provider_client_8cpp.html" target="_top" xlink:title=" ">
<polygon fill="white" stroke="black" points="211,-0.5 211,-41.5 412,-41.5 412,-0.5 211,-0.5"/>
<text text-anchor="start" x="219" y="-29.5" font-family="Helvetica,sans-Serif" font-size="10.00">build/FRI&#45;Client&#45;SDK</text>
<text text-anchor="start" x="219" y="-18.5" font-family="Helvetica,sans-Serif" font-size="10.00">_Cpp/example/Transformation</text>
<text text-anchor="middle" x="311.5" y="-7.5" font-family="Helvetica,sans-Serif" font-size="10.00">Provider/TransformationProviderClient.cpp</text>
</a>
</g>
</g>
<!-- Node1&#45;&gt;Node3 -->
<g id="edge2" class="edge">
<title>Node1&#45;&gt;Node3</title>
<path fill="none" stroke="midnightblue" d="M239.54,-72.64C253.97,-62.49 270.32,-50.98 283.78,-41.51"/>
<polygon fill="midnightblue" stroke="midnightblue" points="237.48,-69.81 231.31,-78.43 241.51,-75.54 237.48,-69.81"/>
</g>
</g>
</svg>
