<?xml version="1.0" encoding="UTF-8" standalone="no"?>
<!DOCTYPE svg PUBLIC "-//W3C//DTD SVG 1.1//EN"
 "http://www.w3.org/Graphics/SVG/1.1/DTD/svg11.dtd">
<!-- Generated by graphviz version 2.43.0 (0)
 -->
<!-- Title: KUKA::FRI::MonitoringMessageDecoder::decode Pages: 1 -->
<!--zoomable 458 -->
<svg id="main" version="1.1" xmlns="http://www.w3.org/2000/svg" xmlns:xlink="http://www.w3.org/1999/xlink" xml:space="preserve" onload="init(evt)">
<style type="text/css"><![CDATA[
.edge:hover path { stroke: red; }
.edge:hover polygon { stroke: red; fill: red; }
]]></style>
<script type="text/javascript"><![CDATA[
var edges = document.getElementsByTagName('g');
if (edges && edges.length) {
  for (var i=0;i<edges.length;i++) {
    if (edges[i].id.substr(0,4)=='edge') {
      edges[i].setAttribute('class','edge');
    }
  }
}
]]></script>
        <defs>
                <circle id="rim" cx="0" cy="0" r="7"/>
                <circle id="rim2" cx="0" cy="0" r="3.5"/>
                <g id="zoomPlus">
                        <use xlink:href="#rim" fill="#404040">
                                <set attributeName="fill" to="#808080" begin="zoomplus.mouseover" end="zoomplus.mouseout"/>
                        </use>
                        <path d="M-4,0h8M0,-4v8" fill="none" stroke="white" stroke-width="1.5" pointer-events="none"/>
                </g>
                <g id="zoomMin">
                        <use xlink:href="#rim" fill="#404040">
                                <set attributeName="fill" to="#808080" begin="zoomminus.mouseover" end="zoomminus.mouseout"/>
                        </use>
                        <path d="M-4,0h8" fill="none" stroke="white" stroke-width="1.5" pointer-events="none"/>
                </g>
                <g id="dirArrow">
                        <path fill="none" stroke="white" stroke-width="1.5" d="M0,-3.0v7 M-2.5,-0.5L0,-3.0L2.5,-0.5"/>
                </g>
               <g id="resetDef">
                       <use xlink:href="#rim2" fill="#404040">
                               <set attributeName="fill" to="#808080" begin="reset.mouseover" end="reset.mouseout"/>
                       </use>
               </g>
        </defs>

<script type="text/javascript">
var viewWidth = 1562;
var viewHeight = 458;
var sectionId = 'dynsection-2';
</script>
<script xlink:href="svgpan.js"/>
<svg id="graph" class="graph">
<g id="viewport">
<title>KUKA::FRI::MonitoringMessageDecoder::decode</title>
<polygon fill="white" stroke="transparent" points="-4,4 -4,-453.88 1558,-453.88 1558,4 -4,4"/>
<!-- Node1 -->
<g id="node1" class="node">
<title>Node1</title>
<g id="a_node1"><a xlink:title=" ">
<polygon fill="#bfbfbf" stroke="black" points="0,-82.88 0,-112.88 158,-112.88 158,-82.88 0,-82.88"/>
<text text-anchor="start" x="8" y="-100.88" font-family="Helvetica,sans-Serif" font-size="10.00">KUKA::FRI::MonitoringMessage</text>
<text text-anchor="middle" x="79" y="-89.88" font-family="Helvetica,sans-Serif" font-size="10.00">Decoder::decode</text>
</a>
</g>
</g>
<!-- Node2 -->
<g id="node2" class="node">
<title>Node2</title>
<g id="a_node2"><a xlink:href="pb__decode_8c.html#a75c9a727abe84bfaaef633ac68d48cfa" target="_top" xlink:title=" ">
<polygon fill="white" stroke="black" points="194,-183.38 194,-202.38 258,-202.38 258,-183.38 194,-183.38"/>
<text text-anchor="middle" x="226" y="-190.38" font-family="Helvetica,sans-Serif" font-size="10.00">pb_decode</text>
</a>
</g>
</g>
<!-- Node1&#45;&gt;Node2 -->
<g id="edge1" class="edge">
<title>Node1&#45;&gt;Node2</title>
<path fill="none" stroke="midnightblue" d="M102.98,-112.94C129.95,-130.61 174.45,-159.76 201.61,-177.56"/>
<polygon fill="midnightblue" stroke="midnightblue" points="199.82,-180.57 210.1,-183.12 203.65,-174.71 199.82,-180.57"/>
</g>
<!-- Node9 -->
<g id="node9" class="node">
<title>Node9</title>
<g id="a_node9"><a xlink:href="pb__decode_8c.html#a37dc2b0c54c27ddd29791e7522c85548" target="_top" xlink:title=" ">
<polygon fill="white" stroke="black" points="1059,-12.38 1059,-31.38 1178,-31.38 1178,-12.38 1059,-12.38"/>
<text text-anchor="middle" x="1118.5" y="-19.38" font-family="Helvetica,sans-Serif" font-size="10.00">pb_istream_from_buffer</text>
</a>
</g>
</g>
<!-- Node1&#45;&gt;Node9 -->
<g id="edge44" class="edge">
<title>Node1&#45;&gt;Node9</title>
<path fill="none" stroke="midnightblue" d="M113.45,-82.87C165.92,-60.72 271.29,-21.88 365,-21.88 365,-21.88 365,-21.88 824.5,-21.88 901.32,-21.88 989.46,-21.88 1048.84,-21.88"/>
<polygon fill="midnightblue" stroke="midnightblue" points="1048.85,-25.38 1058.85,-21.88 1048.85,-18.38 1048.85,-25.38"/>
</g>
<!-- Node3 -->
<g id="node3" class="node">
<title>Node3</title>
<g id="a_node3"><a xlink:href="pb__decode_8c.html#a0c0f95a964239344d503e724818e8fc0" target="_top" xlink:title=" ">
<polygon fill="white" stroke="black" points="320,-183.38 320,-202.38 412,-202.38 412,-183.38 320,-183.38"/>
<text text-anchor="middle" x="366" y="-190.38" font-family="Helvetica,sans-Serif" font-size="10.00">pb_decode_noinit</text>
</a>
</g>
</g>
<!-- Node2&#45;&gt;Node3 -->
<g id="edge2" class="edge">
<title>Node2&#45;&gt;Node3</title>
<path fill="none" stroke="midnightblue" d="M258.31,-192.88C273.54,-192.88 292.29,-192.88 309.81,-192.88"/>
<polygon fill="midnightblue" stroke="midnightblue" points="309.94,-196.38 319.94,-192.88 309.94,-189.38 309.94,-196.38"/>
</g>
<!-- Node26 -->
<g id="node26" class="node">
<title>Node26</title>
<g id="a_node26"><a xlink:href="pb__decode_8c.html#a086200ce4dac8198dc0537e64318d66e" target="_top" xlink:title=" ">
<polygon fill="white" stroke="black" points="294,-354.38 294,-373.38 438,-373.38 438,-354.38 294,-354.38"/>
<text text-anchor="middle" x="366" y="-361.38" font-family="Helvetica,sans-Serif" font-size="10.00">pb_message_set_to_defaults</text>
</a>
</g>
</g>
<!-- Node2&#45;&gt;Node26 -->
<g id="edge39" class="edge">
<title>Node2&#45;&gt;Node26</title>
<path fill="none" stroke="midnightblue" d="M234.81,-202.57C257.21,-230.31 321.84,-310.4 350.74,-346.21"/>
<polygon fill="midnightblue" stroke="midnightblue" points="348.27,-348.72 357.27,-354.31 353.71,-344.33 348.27,-348.72"/>
</g>
<!-- Node4 -->
<g id="node4" class="node">
<title>Node4</title>
<g id="a_node4"><a xlink:href="pb__decode_8c.html#a30eb2ecefe2a2095c1c668e3932b63fc" target="_top" xlink:title=" ">
<polygon fill="white" stroke="black" points="478,-126.38 478,-145.38 573,-145.38 573,-126.38 478,-126.38"/>
<text text-anchor="middle" x="525.5" y="-133.38" font-family="Helvetica,sans-Serif" font-size="10.00">decode_extension</text>
</a>
</g>
</g>
<!-- Node3&#45;&gt;Node4 -->
<g id="edge3" class="edge">
<title>Node3&#45;&gt;Node4</title>
<path fill="none" stroke="midnightblue" d="M393.36,-183.34C419.37,-173.93 459.33,-159.47 488.3,-148.98"/>
<polygon fill="midnightblue" stroke="midnightblue" points="489.84,-152.15 498.05,-145.45 487.46,-145.57 489.84,-152.15"/>
</g>
<!-- Node6 -->
<g id="node6" class="node">
<title>Node6</title>
<g id="a_node6"><a xlink:href="pb__decode_8c.html#a48151430d329252cc54fd9764dd820f7" target="_top" xlink:title=" ">
<polygon fill="white" stroke="black" points="788,-126.38 788,-145.38 859,-145.38 859,-126.38 788,-126.38"/>
<text text-anchor="middle" x="823.5" y="-133.38" font-family="Helvetica,sans-Serif" font-size="10.00">decode_field</text>
</a>
</g>
</g>
<!-- Node3&#45;&gt;Node6 -->
<g id="edge29" class="edge">
<title>Node3&#45;&gt;Node6</title>
<path fill="none" stroke="midnightblue" d="M376.17,-183.23C393.38,-165.91 432.54,-130.11 474,-116.88 579.42,-83.25 711.79,-107.27 779,-123.81"/>
<polygon fill="midnightblue" stroke="midnightblue" points="778.28,-127.23 788.83,-126.28 779.99,-120.45 778.28,-127.23"/>
</g>
<!-- Node14 -->
<g id="node14" class="node">
<title>Node14</title>
<g id="a_node14"><a xlink:href="pb__decode_8c.html#ab5102942c8402c215f836364e1b775b1" target="_top" xlink:title=" ">
<polygon fill="white" stroke="black" points="1081.5,-50.38 1081.5,-69.38 1155.5,-69.38 1155.5,-50.38 1081.5,-50.38"/>
<text text-anchor="middle" x="1118.5" y="-57.38" font-family="Helvetica,sans-Serif" font-size="10.00">pb_skip_field</text>
</a>
</g>
</g>
<!-- Node3&#45;&gt;Node14 -->
<g id="edge38" class="edge">
<title>Node3&#45;&gt;Node14</title>
<path fill="none" stroke="midnightblue" d="M374.39,-183.38C390.28,-163.69 429.84,-118.5 474,-96.88 556.96,-56.28 586.14,-59.88 678.5,-59.88 678.5,-59.88 678.5,-59.88 824.5,-59.88 911.66,-59.88 1013.39,-59.88 1071.15,-59.88"/>
<polygon fill="midnightblue" stroke="midnightblue" points="1071.41,-63.38 1081.41,-59.88 1071.41,-56.38 1071.41,-63.38"/>
</g>
<!-- Node21 -->
<g id="node21" class="node">
<title>Node21</title>
<g id="a_node21"><a xlink:href="pb__decode_8c.html#a45b7deb9b949803e7342070ca209d4be" target="_top" xlink:title=" ">
<polygon fill="white" stroke="black" points="474,-164.38 474,-183.38 577,-183.38 577,-164.38 474,-164.38"/>
<text text-anchor="middle" x="525.5" y="-171.38" font-family="Helvetica,sans-Serif" font-size="10.00">find_extension_field</text>
</a>
</g>
</g>
<!-- Node3&#45;&gt;Node21 -->
<g id="edge30" class="edge">
<title>Node3&#45;&gt;Node21</title>
<path fill="none" stroke="midnightblue" d="M412.13,-187.44C428.24,-185.5 446.66,-183.27 463.86,-181.2"/>
<polygon fill="midnightblue" stroke="midnightblue" points="464.31,-184.67 473.82,-180 463.48,-177.72 464.31,-184.67"/>
</g>
<!-- Node22 -->
<g id="node22" class="node">
<title>Node22</title>
<g id="a_node22"><a xlink:href="pb__decode_8c.html#ac2d909d6194bfbca3c31b95749c4e848" target="_top" xlink:title=" ">
<polygon fill="white" stroke="black" points="642.5,-221.38 642.5,-240.38 716.5,-240.38 716.5,-221.38 642.5,-221.38"/>
<text text-anchor="middle" x="679.5" y="-228.38" font-family="Helvetica,sans-Serif" font-size="10.00">pb_field_next</text>
</a>
</g>
</g>
<!-- Node3&#45;&gt;Node22 -->
<g id="edge37" class="edge">
<title>Node3&#45;&gt;Node22</title>
<path fill="none" stroke="midnightblue" d="M387.35,-202.47C408.47,-211.85 442.72,-225.49 474,-230.88 527.7,-240.14 590.52,-238.29 632.22,-235.33"/>
<polygon fill="midnightblue" stroke="midnightblue" points="632.65,-238.81 642.35,-234.56 632.12,-231.83 632.65,-238.81"/>
</g>
<!-- Node23 -->
<g id="node23" class="node">
<title>Node23</title>
<g id="a_node23"><a xlink:href="pb__decode_8c.html#aefe6134d81ea2f861f0111984553b23b" target="_top" xlink:title=" ">
<polygon fill="white" stroke="black" points="782,-240.38 782,-259.38 865,-259.38 865,-240.38 782,-240.38"/>
<text text-anchor="middle" x="823.5" y="-247.38" font-family="Helvetica,sans-Serif" font-size="10.00">pb_decode_tag</text>
</a>
</g>
</g>
<!-- Node3&#45;&gt;Node23 -->
<g id="edge32" class="edge">
<title>Node3&#45;&gt;Node23</title>
<path fill="none" stroke="midnightblue" d="M380.33,-202.57C399.78,-216.04 437.59,-239.79 474,-248.88 577.16,-274.64 702.9,-265.51 771.62,-257.25"/>
<polygon fill="midnightblue" stroke="midnightblue" points="772.25,-260.7 781.74,-255.99 771.39,-253.75 772.25,-260.7"/>
</g>
<!-- Node24 -->
<g id="node24" class="node">
<title>Node24</title>
<g id="a_node24"><a xlink:href="pb__decode_8c.html#a7897e383f3ae811b1afc2ecd36277512" target="_top" xlink:title=" ">
<polygon fill="white" stroke="black" points="490,-202.38 490,-221.38 561,-221.38 561,-202.38 490,-202.38"/>
<text text-anchor="middle" x="525.5" y="-209.38" font-family="Helvetica,sans-Serif" font-size="10.00">pb_field_find</text>
</a>
</g>
</g>
<!-- Node3&#45;&gt;Node24 -->
<g id="edge34" class="edge">
<title>Node3&#45;&gt;Node24</title>
<path fill="none" stroke="midnightblue" d="M412.13,-198.33C433.38,-200.89 458.65,-203.94 479.84,-206.5"/>
<polygon fill="midnightblue" stroke="midnightblue" points="479.53,-209.98 489.88,-207.71 480.37,-203.03 479.53,-209.98"/>
</g>
<!-- Node25 -->
<g id="node25" class="node">
<title>Node25</title>
<g id="a_node25"><a xlink:href="pb__decode_8c.html#a1dd25c1621de36f7de14a3b9ba2c532d" target="_top" xlink:title=" ">
<polygon fill="white" stroke="black" points="491.5,-316.38 491.5,-335.38 559.5,-335.38 559.5,-316.38 491.5,-316.38"/>
<text text-anchor="middle" x="525.5" y="-323.38" font-family="Helvetica,sans-Serif" font-size="10.00">pb_field_init</text>
</a>
</g>
</g>
<!-- Node3&#45;&gt;Node25 -->
<g id="edge36" class="edge">
<title>Node3&#45;&gt;Node25</title>
<path fill="none" stroke="midnightblue" d="M374.4,-202.44C390.62,-222.87 431.24,-271.41 474,-301.88 479.19,-305.58 485.03,-308.96 490.86,-311.94"/>
<polygon fill="midnightblue" stroke="midnightblue" points="489.37,-315.11 499.9,-316.28 492.41,-308.8 489.37,-315.11"/>
</g>
<!-- Node5 -->
<g id="node5" class="node">
<title>Node5</title>
<g id="a_node5"><a xlink:href="pb__decode_8c.html#a7c09905fda4c6398697bcf0d42882c04" target="_top" xlink:title=" ">
<polygon fill="white" stroke="black" points="613,-126.38 613,-145.38 746,-145.38 746,-126.38 613,-126.38"/>
<text text-anchor="middle" x="679.5" y="-133.38" font-family="Helvetica,sans-Serif" font-size="10.00">default_extension_decoder</text>
</a>
</g>
</g>
<!-- Node4&#45;&gt;Node5 -->
<g id="edge4" class="edge">
<title>Node4&#45;&gt;Node5</title>
<path fill="none" stroke="midnightblue" d="M573.35,-135.88C582.7,-135.88 592.75,-135.88 602.79,-135.88"/>
<polygon fill="midnightblue" stroke="midnightblue" points="602.81,-139.38 612.81,-135.88 602.81,-132.38 602.81,-139.38"/>
</g>
<!-- Node5&#45;&gt;Node6 -->
<g id="edge5" class="edge">
<title>Node5&#45;&gt;Node6</title>
<path fill="none" stroke="midnightblue" d="M746.1,-135.88C756.78,-135.88 767.62,-135.88 777.65,-135.88"/>
<polygon fill="midnightblue" stroke="midnightblue" points="777.77,-139.38 787.77,-135.88 777.77,-132.38 777.77,-139.38"/>
</g>
<!-- Node7 -->
<g id="node7" class="node">
<title>Node7</title>
<g id="a_node7"><a xlink:href="pb__decode_8c.html#a69a78d2efcd4b9057215ac8b79a5eb2b" target="_top" xlink:title=" ">
<polygon fill="white" stroke="black" points="901,-88.38 901,-107.38 1014,-107.38 1014,-88.38 901,-88.38"/>
<text text-anchor="middle" x="957.5" y="-95.38" font-family="Helvetica,sans-Serif" font-size="10.00">decode_callback_field</text>
</a>
</g>
</g>
<!-- Node6&#45;&gt;Node7 -->
<g id="edge6" class="edge">
<title>Node6&#45;&gt;Node7</title>
<path fill="none" stroke="midnightblue" d="M857.81,-126.29C874.69,-121.43 895.39,-115.47 913.47,-110.27"/>
<polygon fill="midnightblue" stroke="midnightblue" points="914.56,-113.6 923.2,-107.47 912.62,-106.87 914.56,-113.6"/>
</g>
<!-- Node19 -->
<g id="node19" class="node">
<title>Node19</title>
<g id="a_node19"><a xlink:href="pb__decode_8c.html#af65dd063304df2ed380dc411bb6caae6" target="_top" xlink:title=" ">
<polygon fill="white" stroke="black" points="904.5,-164.38 904.5,-183.38 1010.5,-183.38 1010.5,-164.38 904.5,-164.38"/>
<text text-anchor="middle" x="957.5" y="-171.38" font-family="Helvetica,sans-Serif" font-size="10.00">decode_pointer_field</text>
</a>
</g>
</g>
<!-- Node6&#45;&gt;Node19 -->
<g id="edge23" class="edge">
<title>Node6&#45;&gt;Node19</title>
<path fill="none" stroke="midnightblue" d="M857.81,-145.47C874.69,-150.33 895.39,-156.29 913.47,-161.5"/>
<polygon fill="midnightblue" stroke="midnightblue" points="912.62,-164.89 923.2,-164.3 914.56,-158.17 912.62,-164.89"/>
</g>
<!-- Node20 -->
<g id="node20" class="node">
<title>Node20</title>
<g id="a_node20"><a xlink:href="pb__decode_8c.html#a02c14bf9763a469e0414bf9a1eb13632" target="_top" xlink:title=" ">
<polygon fill="white" stroke="black" points="907,-126.38 907,-145.38 1008,-145.38 1008,-126.38 907,-126.38"/>
<text text-anchor="middle" x="957.5" y="-133.38" font-family="Helvetica,sans-Serif" font-size="10.00">decode_static_field</text>
</a>
</g>
</g>
<!-- Node6&#45;&gt;Node20 -->
<g id="edge26" class="edge">
<title>Node6&#45;&gt;Node20</title>
<path fill="none" stroke="midnightblue" d="M859.18,-135.88C870.69,-135.88 883.86,-135.88 896.71,-135.88"/>
<polygon fill="midnightblue" stroke="midnightblue" points="896.91,-139.38 906.91,-135.88 896.91,-132.38 896.91,-139.38"/>
</g>
<!-- Node8 -->
<g id="node8" class="node">
<title>Node8</title>
<g id="a_node8"><a xlink:href="pb__decode_8c.html#ac0a84ef26be0f3bf894deaee63e5114c" target="_top" xlink:title=" ">
<polygon fill="white" stroke="black" points="1050.5,-164.38 1050.5,-183.38 1186.5,-183.38 1186.5,-164.38 1050.5,-164.38"/>
<text text-anchor="middle" x="1118.5" y="-171.38" font-family="Helvetica,sans-Serif" font-size="10.00">pb_close_string_substream</text>
</a>
</g>
</g>
<!-- Node7&#45;&gt;Node8 -->
<g id="edge7" class="edge">
<title>Node7&#45;&gt;Node8</title>
<path fill="none" stroke="midnightblue" d="M994.61,-107.41C1001.33,-109.95 1008.09,-113.08 1014,-116.88 1033.57,-129.46 1030.09,-142.85 1050,-154.88 1053.58,-157.04 1057.41,-158.97 1061.36,-160.67"/>
<polygon fill="midnightblue" stroke="midnightblue" points="1060.15,-163.96 1070.74,-164.29 1062.66,-157.43 1060.15,-163.96"/>
</g>
<!-- Node7&#45;&gt;Node9 -->
<g id="edge8" class="edge">
<title>Node7&#45;&gt;Node9</title>
<path fill="none" stroke="midnightblue" d="M971.19,-88.35C988.28,-75.89 1020.04,-54.11 1050,-40.88 1055.35,-38.52 1061.07,-36.38 1066.83,-34.45"/>
<polygon fill="midnightblue" stroke="midnightblue" points="1068.02,-37.75 1076.51,-31.42 1065.92,-31.07 1068.02,-37.75"/>
</g>
<!-- Node11 -->
<g id="node11" class="node">
<title>Node11</title>
<g id="a_node11"><a xlink:href="pb__decode_8c.html#a7433fc394255932c4f00274e7f890721" target="_top" xlink:title=" ">
<polygon fill="white" stroke="black" points="1050,-126.38 1050,-145.38 1187,-145.38 1187,-126.38 1050,-126.38"/>
<text text-anchor="middle" x="1118.5" y="-133.38" font-family="Helvetica,sans-Serif" font-size="10.00">pb_make_string_substream</text>
</a>
</g>
</g>
<!-- Node7&#45;&gt;Node11 -->
<g id="edge10" class="edge">
<title>Node7&#45;&gt;Node11</title>
<path fill="none" stroke="midnightblue" d="M998.62,-107.47C1019.6,-112.49 1045.48,-118.67 1067.73,-123.99"/>
<polygon fill="midnightblue" stroke="midnightblue" points="1067.13,-127.44 1077.67,-126.36 1068.75,-120.63 1067.13,-127.44"/>
</g>
<!-- Node7&#45;&gt;Node14 -->
<g id="edge13" class="edge">
<title>Node7&#45;&gt;Node14</title>
<path fill="none" stroke="midnightblue" d="M998.62,-88.29C1020.82,-82.99 1048.5,-76.37 1071.56,-70.86"/>
<polygon fill="midnightblue" stroke="midnightblue" points="1072.55,-74.22 1081.46,-68.5 1070.92,-67.42 1072.55,-74.22"/>
</g>
<!-- Node18 -->
<g id="node18" class="node">
<title>Node18</title>
<g id="a_node18"><a xlink:href="pb__decode_8c.html#a3f23856ca4723854f204b46d5f10c3ec" target="_top" xlink:title=" ">
<polygon fill="white" stroke="black" points="1223,-126.38 1223,-145.38 1308,-145.38 1308,-126.38 1223,-126.38"/>
<text text-anchor="middle" x="1265.5" y="-133.38" font-family="Helvetica,sans-Serif" font-size="10.00">read_raw_value</text>
</a>
</g>
</g>
<!-- Node7&#45;&gt;Node18 -->
<g id="edge21" class="edge">
<title>Node7&#45;&gt;Node18</title>
<path fill="none" stroke="midnightblue" d="M1014.21,-100.06C1060.66,-102.46 1128.46,-107.33 1187,-116.88 1197.99,-118.68 1209.72,-121.22 1220.64,-123.86"/>
<polygon fill="midnightblue" stroke="midnightblue" points="1219.85,-127.27 1230.4,-126.29 1221.55,-120.48 1219.85,-127.27"/>
</g>
<!-- Node10 -->
<g id="node10" class="node">
<title>Node10</title>
<g id="a_node10"><a xlink:href="pb__decode_8c.html#a9746f7244f9d14b2a095ddfcad55febe" target="_top" xlink:title=" ">
<polygon fill="white" stroke="black" points="1492,-12.38 1492,-31.38 1546,-31.38 1546,-12.38 1492,-12.38"/>
<text text-anchor="middle" x="1519" y="-19.38" font-family="Helvetica,sans-Serif" font-size="10.00">buf_read</text>
</a>
</g>
</g>
<!-- Node9&#45;&gt;Node10 -->
<g id="edge9" class="edge">
<title>Node9&#45;&gt;Node10</title>
<path fill="none" stroke="midnightblue" d="M1161.56,-12.37C1180.27,-8.61 1202.62,-4.74 1223,-2.88 1316.15,5.6 1426.19,-7.63 1481.85,-15.95"/>
<polygon fill="midnightblue" stroke="midnightblue" points="1481.5,-19.44 1491.92,-17.49 1482.56,-12.52 1481.5,-19.44"/>
</g>
<!-- Node12 -->
<g id="node12" class="node">
<title>Node12</title>
<g id="a_node12"><a xlink:href="pb__decode_8c.html#abef49f760a21798e59538eec4aea23c2" target="_top" xlink:title=" ">
<polygon fill="white" stroke="black" points="1344,-164.38 1344,-183.38 1448,-183.38 1448,-164.38 1344,-164.38"/>
<text text-anchor="middle" x="1396" y="-171.38" font-family="Helvetica,sans-Serif" font-size="10.00">pb_decode_varint32</text>
</a>
</g>
</g>
<!-- Node11&#45;&gt;Node12 -->
<g id="edge11" class="edge">
<title>Node11&#45;&gt;Node12</title>
<path fill="none" stroke="midnightblue" d="M1167.3,-145.4C1184.78,-148.68 1204.74,-152.2 1223,-154.88 1259.48,-160.24 1300.51,-164.83 1333.34,-168.15"/>
<polygon fill="midnightblue" stroke="midnightblue" points="1333.4,-171.67 1343.7,-169.19 1334.1,-164.71 1333.4,-171.67"/>
</g>
<!-- Node13 -->
<g id="node13" class="node">
<title>Node13</title>
<g id="a_node13"><a xlink:href="pb__decode_8c.html#a13d38bcceb0a06bfc8c4c9c6da0f7258" target="_top" xlink:title=" ">
<polygon fill="white" stroke="black" points="1484,-164.38 1484,-183.38 1554,-183.38 1554,-164.38 1484,-164.38"/>
<text text-anchor="middle" x="1519" y="-171.38" font-family="Helvetica,sans-Serif" font-size="10.00">pb_readbyte</text>
</a>
</g>
</g>
<!-- Node12&#45;&gt;Node13 -->
<g id="edge12" class="edge">
<title>Node12&#45;&gt;Node13</title>
<path fill="none" stroke="midnightblue" d="M1448.31,-173.88C1456.74,-173.88 1465.41,-173.88 1473.64,-173.88"/>
<polygon fill="midnightblue" stroke="midnightblue" points="1473.79,-177.38 1483.79,-173.88 1473.79,-170.38 1473.79,-177.38"/>
</g>
<!-- Node15 -->
<g id="node15" class="node">
<title>Node15</title>
<g id="a_node15"><a xlink:href="pb__decode_8c.html#ad54a52168427208d756087919ff82d41" target="_top" xlink:title=" ">
<polygon fill="white" stroke="black" points="1370.5,-50.38 1370.5,-69.38 1421.5,-69.38 1421.5,-50.38 1370.5,-50.38"/>
<text text-anchor="middle" x="1396" y="-57.38" font-family="Helvetica,sans-Serif" font-size="10.00">pb_read</text>
</a>
</g>
</g>
<!-- Node14&#45;&gt;Node15 -->
<g id="edge14" class="edge">
<title>Node14&#45;&gt;Node15</title>
<path fill="none" stroke="midnightblue" d="M1155.52,-59.88C1208.73,-59.88 1307.72,-59.88 1360.22,-59.88"/>
<polygon fill="midnightblue" stroke="midnightblue" points="1360.38,-63.38 1370.38,-59.88 1360.38,-56.38 1360.38,-63.38"/>
</g>
<!-- Node16 -->
<g id="node16" class="node">
<title>Node16</title>
<g id="a_node16"><a xlink:href="pb__decode_8c.html#afa3e9c4da6d998fd6315d4cbd51b02e4" target="_top" xlink:title=" ">
<polygon fill="white" stroke="black" points="1225.5,-88.38 1225.5,-107.38 1305.5,-107.38 1305.5,-88.38 1225.5,-88.38"/>
<text text-anchor="middle" x="1265.5" y="-95.38" font-family="Helvetica,sans-Serif" font-size="10.00">pb_skip_string</text>
</a>
</g>
</g>
<!-- Node14&#45;&gt;Node16 -->
<g id="edge16" class="edge">
<title>Node14&#45;&gt;Node16</title>
<path fill="none" stroke="midnightblue" d="M1155.72,-69.37C1174.66,-74.34 1198.06,-80.47 1218.29,-85.77"/>
<polygon fill="midnightblue" stroke="midnightblue" points="1217.68,-89.23 1228.24,-88.38 1219.46,-82.46 1217.68,-89.23"/>
</g>
<!-- Node17 -->
<g id="node17" class="node">
<title>Node17</title>
<g id="a_node17"><a xlink:href="pb__decode_8c.html#a57738ceef4b30349437900b245a33c77" target="_top" xlink:title=" ">
<polygon fill="white" stroke="black" points="1225.5,-12.38 1225.5,-31.38 1305.5,-31.38 1305.5,-12.38 1225.5,-12.38"/>
<text text-anchor="middle" x="1265.5" y="-19.38" font-family="Helvetica,sans-Serif" font-size="10.00">pb_skip_varint</text>
</a>
</g>
</g>
<!-- Node14&#45;&gt;Node17 -->
<g id="edge19" class="edge">
<title>Node14&#45;&gt;Node17</title>
<path fill="none" stroke="midnightblue" d="M1155.72,-50.39C1174.66,-45.43 1198.06,-39.3 1218.29,-33.99"/>
<polygon fill="midnightblue" stroke="midnightblue" points="1219.46,-37.31 1228.24,-31.38 1217.68,-30.53 1219.46,-37.31"/>
</g>
<!-- Node15&#45;&gt;Node10 -->
<g id="edge15" class="edge">
<title>Node15&#45;&gt;Node10</title>
<path fill="none" stroke="midnightblue" d="M1421.78,-52.1C1439.09,-46.67 1462.48,-39.32 1481.86,-33.23"/>
<polygon fill="midnightblue" stroke="midnightblue" points="1483.09,-36.52 1491.58,-30.18 1480.99,-29.84 1483.09,-36.52"/>
</g>
<!-- Node16&#45;&gt;Node12 -->
<g id="edge17" class="edge">
<title>Node16&#45;&gt;Node12</title>
<path fill="none" stroke="midnightblue" d="M1289.2,-107.53C1295.39,-110.36 1302.03,-113.59 1308,-116.88 1331.15,-129.67 1356.29,-146.49 1373.56,-158.53"/>
<polygon fill="midnightblue" stroke="midnightblue" points="1371.64,-161.45 1381.83,-164.35 1375.67,-155.73 1371.64,-161.45"/>
</g>
<!-- Node16&#45;&gt;Node15 -->
<g id="edge18" class="edge">
<title>Node16&#45;&gt;Node15</title>
<path fill="none" stroke="midnightblue" d="M1298.93,-88.29C1317.71,-82.74 1341.34,-75.75 1360.47,-70.09"/>
<polygon fill="midnightblue" stroke="midnightblue" points="1361.69,-73.38 1370.29,-67.19 1359.71,-66.67 1361.69,-73.38"/>
</g>
<!-- Node17&#45;&gt;Node15 -->
<g id="edge20" class="edge">
<title>Node17&#45;&gt;Node15</title>
<path fill="none" stroke="midnightblue" d="M1298.93,-31.47C1317.71,-37.03 1341.34,-44.02 1360.47,-49.67"/>
<polygon fill="midnightblue" stroke="midnightblue" points="1359.71,-53.1 1370.29,-52.58 1361.69,-46.38 1359.71,-53.1"/>
</g>
<!-- Node18&#45;&gt;Node15 -->
<g id="edge22" class="edge">
<title>Node18&#45;&gt;Node15</title>
<path fill="none" stroke="midnightblue" d="M1289.2,-126.23C1295.39,-123.4 1302.03,-120.18 1308,-116.88 1331.15,-104.09 1356.29,-87.28 1373.56,-75.23"/>
<polygon fill="midnightblue" stroke="midnightblue" points="1375.67,-78.03 1381.83,-69.42 1371.64,-72.31 1375.67,-78.03"/>
</g>
<!-- Node19&#45;&gt;Node8 -->
<g id="edge24" class="edge">
<title>Node19&#45;&gt;Node8</title>
<path fill="none" stroke="midnightblue" d="M1010.56,-173.88C1020.07,-173.88 1030.18,-173.88 1040.24,-173.88"/>
<polygon fill="midnightblue" stroke="midnightblue" points="1040.26,-177.38 1050.26,-173.88 1040.26,-170.38 1040.26,-177.38"/>
</g>
<!-- Node19&#45;&gt;Node11 -->
<g id="edge25" class="edge">
<title>Node19&#45;&gt;Node11</title>
<path fill="none" stroke="midnightblue" d="M998.62,-164.29C1019.6,-159.28 1045.48,-153.1 1067.73,-147.78"/>
<polygon fill="midnightblue" stroke="midnightblue" points="1068.75,-151.13 1077.67,-145.4 1067.13,-144.32 1068.75,-151.13"/>
</g>
<!-- Node20&#45;&gt;Node8 -->
<g id="edge27" class="edge">
<title>Node20&#45;&gt;Node8</title>
<path fill="none" stroke="midnightblue" d="M998.62,-145.47C1019.6,-150.49 1045.48,-156.67 1067.73,-161.99"/>
<polygon fill="midnightblue" stroke="midnightblue" points="1067.13,-165.44 1077.67,-164.36 1068.75,-158.63 1067.13,-165.44"/>
</g>
<!-- Node20&#45;&gt;Node11 -->
<g id="edge28" class="edge">
<title>Node20&#45;&gt;Node11</title>
<path fill="none" stroke="midnightblue" d="M1008.37,-135.88C1018.31,-135.88 1028.97,-135.88 1039.59,-135.88"/>
<polygon fill="midnightblue" stroke="midnightblue" points="1039.74,-139.38 1049.74,-135.88 1039.74,-132.38 1039.74,-139.38"/>
</g>
<!-- Node21&#45;&gt;Node22 -->
<g id="edge31" class="edge">
<title>Node21&#45;&gt;Node22</title>
<path fill="none" stroke="midnightblue" d="M551.94,-183.42C577.04,-192.84 615.6,-207.3 643.57,-217.78"/>
<polygon fill="midnightblue" stroke="midnightblue" points="642.38,-221.08 652.98,-221.31 644.84,-214.52 642.38,-221.08"/>
</g>
<!-- Node23&#45;&gt;Node12 -->
<g id="edge33" class="edge">
<title>Node23&#45;&gt;Node12</title>
<path fill="none" stroke="midnightblue" d="M865.07,-244.48C963.67,-231.34 1216.34,-197.68 1333.56,-182.07"/>
<polygon fill="midnightblue" stroke="midnightblue" points="1334.35,-185.49 1343.8,-180.7 1333.42,-178.56 1334.35,-185.49"/>
</g>
<!-- Node24&#45;&gt;Node22 -->
<g id="edge35" class="edge">
<title>Node24&#45;&gt;Node22</title>
<path fill="none" stroke="midnightblue" d="M561.37,-216.24C582.43,-218.87 609.51,-222.26 632.32,-225.11"/>
<polygon fill="midnightblue" stroke="midnightblue" points="632.11,-228.61 642.47,-226.38 632.98,-221.67 632.11,-228.61"/>
</g>
<!-- Node26&#45;&gt;Node22 -->
<g id="edge43" class="edge">
<title>Node26&#45;&gt;Node22</title>
<path fill="none" stroke="midnightblue" d="M438.17,-370.16C480.6,-370.9 534.34,-366.38 577,-344.88 619.6,-323.42 652.47,-275.78 668.24,-249.38"/>
<polygon fill="midnightblue" stroke="midnightblue" points="671.45,-250.82 673.43,-240.41 665.39,-247.31 671.45,-250.82"/>
</g>
<!-- Node26&#45;&gt;Node25 -->
<g id="edge42" class="edge">
<title>Node26&#45;&gt;Node25</title>
<path fill="none" stroke="midnightblue" d="M406.74,-354.29C429.53,-348.8 458.14,-341.89 481.45,-336.27"/>
<polygon fill="midnightblue" stroke="midnightblue" points="482.52,-339.61 491.42,-333.87 480.87,-332.81 482.52,-339.61"/>
</g>
<!-- Node27 -->
<g id="node27" class="node">
<title>Node27</title>
<g id="a_node27"><a xlink:href="pb__syshdr_8h.html#a39dc31816e18e5a0b48da2865a4b698c" target="_top" xlink:title=" ">
<polygon fill="white" stroke="black" points="498.5,-430.38 498.5,-449.38 552.5,-449.38 552.5,-430.38 498.5,-430.38"/>
<text text-anchor="middle" x="525.5" y="-437.38" font-family="Helvetica,sans-Serif" font-size="10.00">memcpy</text>
</a>
</g>
</g>
<!-- Node26&#45;&gt;Node27 -->
<g id="edge40" class="edge">
<title>Node26&#45;&gt;Node27</title>
<path fill="none" stroke="midnightblue" d="M383.35,-373.45C404.05,-385.36 441.01,-405.97 474,-420.88 478.73,-423.02 483.79,-425.13 488.8,-427.11"/>
<polygon fill="midnightblue" stroke="midnightblue" points="487.7,-430.44 498.29,-430.76 490.21,-423.9 487.7,-430.44"/>
</g>
<!-- Node28 -->
<g id="node28" class="node">
<title>Node28</title>
<g id="a_node28"><a xlink:href="pb__syshdr_8h.html#aebca9679ad3da8a3bfe87d58959c7ca5" target="_top" xlink:title=" ">
<polygon fill="white" stroke="black" points="499.5,-392.38 499.5,-411.38 551.5,-411.38 551.5,-392.38 499.5,-392.38"/>
<text text-anchor="middle" x="525.5" y="-399.38" font-family="Helvetica,sans-Serif" font-size="10.00">memset</text>
</a>
</g>
</g>
<!-- Node26&#45;&gt;Node28 -->
<g id="edge41" class="edge">
<title>Node26&#45;&gt;Node28</title>
<path fill="none" stroke="midnightblue" d="M406.74,-373.47C432.1,-379.59 464.68,-387.45 489.13,-393.35"/>
<polygon fill="midnightblue" stroke="midnightblue" points="488.53,-396.81 499.07,-395.75 490.17,-390 488.53,-396.81"/>
</g>
</g>
</svg>
        <g id="navigator" transform="translate(0 0)" fill="#404254">
                <rect fill="#f2f5e9" fill-opacity="0.5" stroke="#606060" stroke-width=".5" x="0" y="0" width="60" height="60"/>
                <use id="zoomplus" xlink:href="#zoomPlus" x="17" y="9" onmousedown="handleZoom(evt,'in')"/>
                <use id="zoomminus" xlink:href="#zoomMin" x="42" y="9" onmousedown="handleZoom(evt,'out')"/>
                <use id="reset" xlink:href="#resetDef" x="30" y="36" onmousedown="handleReset()"/>
                <g id="arrowUp" xlink:href="#dirArrow" transform="translate(30 24)" onmousedown="handlePan(0,-1)">
                  <use xlink:href="#rim" fill="#404040">
                        <set attributeName="fill" to="#808080" begin="arrowUp.mouseover" end="arrowUp.mouseout"/>
                  </use>
                  <path fill="none" stroke="white" stroke-width="1.5" d="M0,-3.0v7 M-2.5,-0.5L0,-3.0L2.5,-0.5"/>
                </g>
                <g id="arrowRight" xlink:href="#dirArrow" transform="rotate(90) translate(36 -43)" onmousedown="handlePan(1,0)">
                  <use xlink:href="#rim" fill="#404040">
                        <set attributeName="fill" to="#808080" begin="arrowRight.mouseover" end="arrowRight.mouseout"/>
                  </use>
                  <path fill="none" stroke="white" stroke-width="1.5" d="M0,-3.0v7 M-2.5,-0.5L0,-3.0L2.5,-0.5"/>
                </g>
                <g id="arrowDown" xlink:href="#dirArrow" transform="rotate(180) translate(-30 -48)" onmousedown="handlePan(0,1)">
                  <use xlink:href="#rim" fill="#404040">
                        <set attributeName="fill" to="#808080" begin="arrowDown.mouseover" end="arrowDown.mouseout"/>
                  </use>
                  <path fill="none" stroke="white" stroke-width="1.5" d="M0,-3.0v7 M-2.5,-0.5L0,-3.0L2.5,-0.5"/>
                </g>
                <g id="arrowLeft" xlink:href="#dirArrow" transform="rotate(270) translate(-36 17)" onmousedown="handlePan(-1,0)">
                  <use xlink:href="#rim" fill="#404040">
                        <set attributeName="fill" to="#808080" begin="arrowLeft.mouseover" end="arrowLeft.mouseout"/>
                  </use>
                  <path fill="none" stroke="white" stroke-width="1.5" d="M0,-3.0v7 M-2.5,-0.5L0,-3.0L2.5,-0.5"/>
                </g>
        </g>
        <svg viewBox="0 0 15 15" width="100%" height="30px" preserveAspectRatio="xMaxYMin meet">
         <g id="arrow_out" transform="scale(0.3 0.3)">
          <a xlink:href="class_k_u_k_a_1_1_f_r_i_1_1_monitoring_message_decoder_aa72fb1e622847a636e6f5d7ac4770103_cgraph_org.svg" target="_base">
           <rect id="button" ry="5" rx="5" y="6" x="6" height="38" width="38"
                fill="#f2f5e9" fill-opacity="0.5" stroke="#606060" stroke-width="1.0"/>
           <path id="arrow"
             d="M 11.500037,31.436501 C 11.940474,20.09759 22.043105,11.32322 32.158766,21.979434 L 37.068811,17.246167 C 37.068811,17.246167 37.088388,32 37.088388,32 L 22.160133,31.978069 C 22.160133,31.978069 26.997745,27.140456 26.997745,27.140456 C 18.528582,18.264221 13.291696,25.230495 11.500037,31.436501 z"
             style="fill:#404040;"/>
          </a>
         </g>
        </svg>
</svg>
