<?xml version="1.0" encoding="UTF-8" standalone="no"?>
<!DOCTYPE svg PUBLIC "-//W3C//DTD SVG 1.1//EN"
 "http://www.w3.org/Graphics/SVG/1.1/DTD/svg11.dtd">
<!-- Generated by graphviz version 2.43.0 (0)
 -->
<!-- Title: LBRJointSineOverlayClient::onStateChange Pages: 1 -->
<svg width="298pt" height="88pt"
 viewBox="0.00 0.00 298.00 88.00" xmlns="http://www.w3.org/2000/svg" xmlns:xlink="http://www.w3.org/1999/xlink">
<g id="graph0" class="graph" transform="scale(1 1) rotate(0) translate(4 84)">
<title>LBRJointSineOverlayClient::onStateChange</title>
<polygon fill="white" stroke="transparent" points="-4,4 -4,-84 294,-84 294,4 -4,4"/>
<!-- Node1 -->
<g id="node1" class="node">
<title>Node1</title>
<g id="a_node1"><a xlink:title="Callback for FRI state changes.">
<polygon fill="#bfbfbf" stroke="black" points="0,-24.5 0,-54.5 136,-54.5 136,-24.5 0,-24.5"/>
<text text-anchor="start" x="8" y="-42.5" font-family="Helvetica,sans-Serif" font-size="10.00">LBRJointSineOverlayClient</text>
<text text-anchor="middle" x="68" y="-31.5" font-family="Helvetica,sans-Serif" font-size="10.00">::onStateChange</text>
</a>
</g>
</g>
<!-- Node2 -->
<g id="node2" class="node">
<title>Node2</title>
<g id="a_node2"><a xlink:href="class_k_u_k_a_1_1_f_r_i_1_1_l_b_r_state.html#a9d444c64abfae06e7f51d305b9800048" target="_top" xlink:title="Get the sample time in seconds.">
<polygon fill="white" stroke="black" points="173,-49.5 173,-79.5 289,-79.5 289,-49.5 173,-49.5"/>
<text text-anchor="start" x="181" y="-67.5" font-family="Helvetica,sans-Serif" font-size="10.00">KUKA::FRI::LBRState</text>
<text text-anchor="middle" x="231" y="-56.5" font-family="Helvetica,sans-Serif" font-size="10.00">::getSampleTime</text>
</a>
</g>
</g>
<!-- Node1&#45;&gt;Node2 -->
<g id="edge1" class="edge">
<title>Node1&#45;&gt;Node2</title>
<path fill="none" stroke="midnightblue" d="M136.35,-49.96C145.08,-51.31 154.02,-52.7 162.75,-54.06"/>
<polygon fill="midnightblue" stroke="midnightblue" points="162.46,-57.55 172.88,-55.63 163.54,-50.64 162.46,-57.55"/>
</g>
<!-- Node3 -->
<g id="node3" class="node">
<title>Node3</title>
<g id="a_node3"><a xlink:href="class_k_u_k_a_1_1_f_r_i_1_1_l_b_r_client.html#af99433aa6795f9b6764b0fb539188e6d" target="_top" xlink:title="Provide read access to the current robot state.">
<polygon fill="white" stroke="black" points="172,-0.5 172,-30.5 290,-30.5 290,-0.5 172,-0.5"/>
<text text-anchor="start" x="180" y="-18.5" font-family="Helvetica,sans-Serif" font-size="10.00">KUKA::FRI::LBRClient</text>
<text text-anchor="middle" x="231" y="-7.5" font-family="Helvetica,sans-Serif" font-size="10.00">::robotState</text>
</a>
</g>
</g>
<!-- Node1&#45;&gt;Node3 -->
<g id="edge2" class="edge">
<title>Node1&#45;&gt;Node3</title>
<path fill="none" stroke="midnightblue" d="M136.35,-29.46C144.74,-28.21 153.33,-26.93 161.73,-25.68"/>
<polygon fill="midnightblue" stroke="midnightblue" points="162.5,-29.1 171.87,-24.17 161.46,-22.18 162.5,-29.1"/>
</g>
</g>
</svg>
