<?xml version="1.0" encoding="UTF-8" standalone="no"?>
<!DOCTYPE svg PUBLIC "-//W3C//DTD SVG 1.1//EN"
 "http://www.w3.org/Graphics/SVG/1.1/DTD/svg11.dtd">
<!-- Generated by graphviz version 2.43.0 (0)
 -->
<!-- Title: KUKA::FRI::CommandMessageEncoder::CommandMessageEncoder Pages: 1 -->
<!--zoomable 104 -->
<svg id="main" version="1.1" xmlns="http://www.w3.org/2000/svg" xmlns:xlink="http://www.w3.org/1999/xlink" xml:space="preserve" onload="init(evt)">
<style type="text/css"><![CDATA[
.edge:hover path { stroke: red; }
.edge:hover polygon { stroke: red; fill: red; }
]]></style>
<script type="text/javascript"><![CDATA[
var edges = document.getElementsByTagName('g');
if (edges && edges.length) {
  for (var i=0;i<edges.length;i++) {
    if (edges[i].id.substr(0,4)=='edge') {
      edges[i].setAttribute('class','edge');
    }
  }
}
]]></script>
        <defs>
                <circle id="rim" cx="0" cy="0" r="7"/>
                <circle id="rim2" cx="0" cy="0" r="3.5"/>
                <g id="zoomPlus">
                        <use xlink:href="#rim" fill="#404040">
                                <set attributeName="fill" to="#808080" begin="zoomplus.mouseover" end="zoomplus.mouseout"/>
                        </use>
                        <path d="M-4,0h8M0,-4v8" fill="none" stroke="white" stroke-width="1.5" pointer-events="none"/>
                </g>
                <g id="zoomMin">
                        <use xlink:href="#rim" fill="#404040">
                                <set attributeName="fill" to="#808080" begin="zoomminus.mouseover" end="zoomminus.mouseout"/>
                        </use>
                        <path d="M-4,0h8" fill="none" stroke="white" stroke-width="1.5" pointer-events="none"/>
                </g>
                <g id="dirArrow">
                        <path fill="none" stroke="white" stroke-width="1.5" d="M0,-3.0v7 M-2.5,-0.5L0,-3.0L2.5,-0.5"/>
                </g>
               <g id="resetDef">
                       <use xlink:href="#rim2" fill="#404040">
                               <set attributeName="fill" to="#808080" begin="reset.mouseover" end="reset.mouseout"/>
                       </use>
               </g>
        </defs>

<script type="text/javascript">
var viewWidth = 1289;
var viewHeight = 104;
var sectionId = 'dynsection-1';
</script>
<script xlink:href="svgpan.js"/>
<svg id="graph" class="graph">
<g id="viewport">
<title>KUKA::FRI::CommandMessageEncoder::CommandMessageEncoder</title>
<polygon fill="white" stroke="transparent" points="-4,4 -4,-100 1285,-100 1285,4 -4,4"/>
<!-- Node1 -->
<g id="node1" class="node">
<title>Node1</title>
<g id="a_node1"><a xlink:title=" ">
<polygon fill="#bfbfbf" stroke="black" points="0,-52 0,-82 179,-82 179,-52 0,-52"/>
<text text-anchor="start" x="8" y="-70" font-family="Helvetica,sans-Serif" font-size="10.00">KUKA::FRI::CommandMessage</text>
<text text-anchor="middle" x="89.5" y="-59" font-family="Helvetica,sans-Serif" font-size="10.00">Encoder::CommandMessageEncoder</text>
</a>
</g>
</g>
<!-- Node2 -->
<g id="node2" class="node">
<title>Node2</title>
<g id="a_node2"><a xlink:href="class_k_u_k_a_1_1_f_r_i_1_1_command_message_encoder.html#a40f5b848100484d0e4fdbf6a80d79dac" target="_top" xlink:title=" ">
<polygon fill="white" stroke="black" points="215,-52 215,-82 373,-82 373,-52 215,-52"/>
<text text-anchor="start" x="223" y="-70" font-family="Helvetica,sans-Serif" font-size="10.00">KUKA::FRI::CommandMessage</text>
<text text-anchor="middle" x="294" y="-59" font-family="Helvetica,sans-Serif" font-size="10.00">Encoder::initMessage</text>
</a>
</g>
</g>
<!-- Node1&#45;&gt;Node2 -->
<g id="edge1" class="edge">
<title>Node1&#45;&gt;Node2</title>
<path fill="none" stroke="midnightblue" d="M179.02,-67C187.5,-67 196.09,-67 204.57,-67"/>
<polygon fill="midnightblue" stroke="midnightblue" points="204.83,-70.5 214.83,-67 204.83,-63.5 204.83,-70.5"/>
</g>
<!-- Node3 -->
<g id="node3" class="node">
<title>Node3</title>
<g id="a_node3"><a xlink:href="pb__frimessages__callbacks_8c.html#a5283f13633c8400371ab65d44d905901" target="_top" xlink:title=" ">
<polygon fill="white" stroke="black" points="409,-57.5 409,-76.5 518,-76.5 518,-57.5 409,-57.5"/>
<text text-anchor="middle" x="463.5" y="-64.5" font-family="Helvetica,sans-Serif" font-size="10.00">map_repeatedDouble</text>
</a>
</g>
</g>
<!-- Node2&#45;&gt;Node3 -->
<g id="edge2" class="edge">
<title>Node2&#45;&gt;Node3</title>
<path fill="none" stroke="midnightblue" d="M373.36,-67C381.74,-67 390.19,-67 398.38,-67"/>
<polygon fill="midnightblue" stroke="midnightblue" points="398.58,-70.5 408.58,-67 398.58,-63.5 398.58,-70.5"/>
</g>
<!-- Node4 -->
<g id="node4" class="node">
<title>Node4</title>
<g id="a_node4"><a xlink:href="pb__frimessages__callbacks_8c.html#ac9ec67cd47aed6ee622a420a41fa6540" target="_top" xlink:title=" ">
<polygon fill="white" stroke="black" points="554,-76.5 554,-95.5 676,-95.5 676,-76.5 554,-76.5"/>
<text text-anchor="middle" x="615" y="-83.5" font-family="Helvetica,sans-Serif" font-size="10.00">decode_repeatedDouble</text>
</a>
</g>
</g>
<!-- Node3&#45;&gt;Node4 -->
<g id="edge3" class="edge">
<title>Node3&#45;&gt;Node4</title>
<path fill="none" stroke="midnightblue" d="M518.05,-73.81C526.42,-74.87 535.18,-75.98 543.85,-77.08"/>
<polygon fill="midnightblue" stroke="midnightblue" points="543.61,-80.58 553.97,-78.37 544.49,-73.64 543.61,-80.58"/>
</g>
<!-- Node8 -->
<g id="node8" class="node">
<title>Node8</title>
<g id="a_node8"><a xlink:href="pb__frimessages__callbacks_8c.html#a3841575aaa517c808aeba5ab3e4f4e48" target="_top" xlink:title=" ">
<polygon fill="white" stroke="black" points="554,-38.5 554,-57.5 676,-57.5 676,-38.5 554,-38.5"/>
<text text-anchor="middle" x="615" y="-45.5" font-family="Helvetica,sans-Serif" font-size="10.00">encode_repeatedDouble</text>
</a>
</g>
</g>
<!-- Node3&#45;&gt;Node8 -->
<g id="edge7" class="edge">
<title>Node3&#45;&gt;Node8</title>
<path fill="none" stroke="midnightblue" d="M518.05,-60.19C526.42,-59.13 535.18,-58.02 543.85,-56.92"/>
<polygon fill="midnightblue" stroke="midnightblue" points="544.49,-60.36 553.97,-55.63 543.61,-53.42 544.49,-60.36"/>
</g>
<!-- Node5 -->
<g id="node5" class="node">
<title>Node5</title>
<g id="a_node5"><a xlink:href="pb__decode_8c.html#abdd5881d0bc42df1a78d46f487065681" target="_top" xlink:title=" ">
<polygon fill="white" stroke="black" points="722.5,-76.5 722.5,-95.5 823.5,-95.5 823.5,-76.5 722.5,-76.5"/>
<text text-anchor="middle" x="773" y="-83.5" font-family="Helvetica,sans-Serif" font-size="10.00">pb_decode_fixed64</text>
</a>
</g>
</g>
<!-- Node4&#45;&gt;Node5 -->
<g id="edge4" class="edge">
<title>Node4&#45;&gt;Node5</title>
<path fill="none" stroke="midnightblue" d="M676.31,-86C688.12,-86 700.49,-86 712.28,-86"/>
<polygon fill="midnightblue" stroke="midnightblue" points="712.45,-89.5 722.45,-86 712.45,-82.5 712.45,-89.5"/>
</g>
<!-- Node6 -->
<g id="node6" class="node">
<title>Node6</title>
<g id="a_node6"><a xlink:href="pb__decode_8c.html#ad54a52168427208d756087919ff82d41" target="_top" xlink:title=" ">
<polygon fill="white" stroke="black" points="895,-76.5 895,-95.5 946,-95.5 946,-76.5 895,-76.5"/>
<text text-anchor="middle" x="920.5" y="-83.5" font-family="Helvetica,sans-Serif" font-size="10.00">pb_read</text>
</a>
</g>
</g>
<!-- Node5&#45;&gt;Node6 -->
<g id="edge5" class="edge">
<title>Node5&#45;&gt;Node6</title>
<path fill="none" stroke="midnightblue" d="M823.67,-86C843.76,-86 866.48,-86 884.75,-86"/>
<polygon fill="midnightblue" stroke="midnightblue" points="884.94,-89.5 894.94,-86 884.94,-82.5 884.94,-89.5"/>
</g>
<!-- Node7 -->
<g id="node7" class="node">
<title>Node7</title>
<g id="a_node7"><a xlink:href="pb__decode_8c.html#a9746f7244f9d14b2a095ddfcad55febe" target="_top" xlink:title=" ">
<polygon fill="white" stroke="black" points="1026.5,-76.5 1026.5,-95.5 1080.5,-95.5 1080.5,-76.5 1026.5,-76.5"/>
<text text-anchor="middle" x="1053.5" y="-83.5" font-family="Helvetica,sans-Serif" font-size="10.00">buf_read</text>
</a>
</g>
</g>
<!-- Node6&#45;&gt;Node7 -->
<g id="edge6" class="edge">
<title>Node6&#45;&gt;Node7</title>
<path fill="none" stroke="midnightblue" d="M946.14,-86C965.85,-86 993.77,-86 1016.06,-86"/>
<polygon fill="midnightblue" stroke="midnightblue" points="1016.17,-89.5 1026.17,-86 1016.17,-82.5 1016.17,-89.5"/>
</g>
<!-- Node9 -->
<g id="node9" class="node">
<title>Node9</title>
<g id="a_node9"><a xlink:href="pb__encode_8c.html#ae61c01d23aaa60452a9f5d01e9a17833" target="_top" xlink:title=" ">
<polygon fill="white" stroke="black" points="870,-38.5 870,-57.5 971,-57.5 971,-38.5 870,-38.5"/>
<text text-anchor="middle" x="920.5" y="-45.5" font-family="Helvetica,sans-Serif" font-size="10.00">pb_encode_fixed64</text>
</a>
</g>
</g>
<!-- Node8&#45;&gt;Node9 -->
<g id="edge8" class="edge">
<title>Node8&#45;&gt;Node9</title>
<path fill="none" stroke="midnightblue" d="M676.32,-48C729.48,-48 806.5,-48 859.55,-48"/>
<polygon fill="midnightblue" stroke="midnightblue" points="859.82,-51.5 869.82,-48 859.82,-44.5 859.82,-51.5"/>
</g>
<!-- Node12 -->
<g id="node12" class="node">
<title>Node12</title>
<g id="a_node12"><a xlink:href="pb__encode_8c.html#a3e0f1ac29dce37f78220ecd6b9d21cba" target="_top" xlink:title=" ">
<polygon fill="white" stroke="black" points="712,-0.5 712,-19.5 834,-19.5 834,-0.5 712,-0.5"/>
<text text-anchor="middle" x="773" y="-7.5" font-family="Helvetica,sans-Serif" font-size="10.00">pb_encode_tag_for_field</text>
</a>
</g>
</g>
<!-- Node8&#45;&gt;Node12 -->
<g id="edge11" class="edge">
<title>Node8&#45;&gt;Node12</title>
<path fill="none" stroke="midnightblue" d="M655.37,-38.41C675.95,-33.4 701.34,-27.21 723.17,-21.89"/>
<polygon fill="midnightblue" stroke="midnightblue" points="724.03,-25.29 732.92,-19.52 722.37,-18.49 724.03,-25.29"/>
</g>
<!-- Node10 -->
<g id="node10" class="node">
<title>Node10</title>
<g id="a_node10"><a xlink:href="pb__encode_8c.html#a6f8d972fa4a439724532f0bcc07de81d" target="_top" xlink:title=" ">
<polygon fill="white" stroke="black" points="1136,-19.5 1136,-38.5 1189,-38.5 1189,-19.5 1136,-19.5"/>
<text text-anchor="middle" x="1162.5" y="-26.5" font-family="Helvetica,sans-Serif" font-size="10.00">pb_write</text>
</a>
</g>
</g>
<!-- Node9&#45;&gt;Node10 -->
<g id="edge9" class="edge">
<title>Node9&#45;&gt;Node10</title>
<path fill="none" stroke="midnightblue" d="M971.23,-44.06C1017.33,-40.41 1084.8,-35.07 1125.78,-31.83"/>
<polygon fill="midnightblue" stroke="midnightblue" points="1126.15,-35.31 1135.85,-31.03 1125.6,-28.33 1126.15,-35.31"/>
</g>
<!-- Node11 -->
<g id="node11" class="node">
<title>Node11</title>
<g id="a_node11"><a xlink:href="pb__encode_8c.html#aa987a466c397e7769605789cc0b22054" target="_top" xlink:title=" ">
<polygon fill="white" stroke="black" points="1225,-19.5 1225,-38.5 1281,-38.5 1281,-19.5 1225,-19.5"/>
<text text-anchor="middle" x="1253" y="-26.5" font-family="Helvetica,sans-Serif" font-size="10.00">buf_write</text>
</a>
</g>
</g>
<!-- Node10&#45;&gt;Node11 -->
<g id="edge10" class="edge">
<title>Node10&#45;&gt;Node11</title>
<path fill="none" stroke="midnightblue" d="M1189.1,-29C1197.08,-29 1206.06,-29 1214.68,-29"/>
<polygon fill="midnightblue" stroke="midnightblue" points="1214.92,-32.5 1224.92,-29 1214.92,-25.5 1214.92,-32.5"/>
</g>
<!-- Node13 -->
<g id="node13" class="node">
<title>Node13</title>
<g id="a_node13"><a xlink:href="pb__encode_8c.html#acfbcc89e5e4355b8c263d6d4f2bc8c6f" target="_top" xlink:title=" ">
<polygon fill="white" stroke="black" points="879,-0.5 879,-19.5 962,-19.5 962,-0.5 879,-0.5"/>
<text text-anchor="middle" x="920.5" y="-7.5" font-family="Helvetica,sans-Serif" font-size="10.00">pb_encode_tag</text>
</a>
</g>
</g>
<!-- Node12&#45;&gt;Node13 -->
<g id="edge12" class="edge">
<title>Node12&#45;&gt;Node13</title>
<path fill="none" stroke="midnightblue" d="M834.02,-10C845.53,-10 857.47,-10 868.66,-10"/>
<polygon fill="midnightblue" stroke="midnightblue" points="868.68,-13.5 878.68,-10 868.68,-6.5 868.68,-13.5"/>
</g>
<!-- Node14 -->
<g id="node14" class="node">
<title>Node14</title>
<g id="a_node14"><a xlink:href="pb__encode_8c.html#a568e2eb180774ef4e07de89508edb52b" target="_top" xlink:title=" ">
<polygon fill="white" stroke="black" points="1007,-0.5 1007,-19.5 1100,-19.5 1100,-0.5 1007,-0.5"/>
<text text-anchor="middle" x="1053.5" y="-7.5" font-family="Helvetica,sans-Serif" font-size="10.00">pb_encode_varint</text>
</a>
</g>
</g>
<!-- Node13&#45;&gt;Node14 -->
<g id="edge13" class="edge">
<title>Node13&#45;&gt;Node14</title>
<path fill="none" stroke="midnightblue" d="M962.23,-10C973.15,-10 985.15,-10 996.73,-10"/>
<polygon fill="midnightblue" stroke="midnightblue" points="996.77,-13.5 1006.77,-10 996.77,-6.5 996.77,-13.5"/>
</g>
<!-- Node14&#45;&gt;Node10 -->
<g id="edge14" class="edge">
<title>Node14&#45;&gt;Node10</title>
<path fill="none" stroke="midnightblue" d="M1100.19,-18.11C1108.73,-19.63 1117.55,-21.2 1125.75,-22.65"/>
<polygon fill="midnightblue" stroke="midnightblue" points="1125.26,-26.12 1135.72,-24.42 1126.49,-19.23 1125.26,-26.12"/>
</g>
</g>
</svg>
        <g id="navigator" transform="translate(0 0)" fill="#404254">
                <rect fill="#f2f5e9" fill-opacity="0.5" stroke="#606060" stroke-width=".5" x="0" y="0" width="60" height="60"/>
                <use id="zoomplus" xlink:href="#zoomPlus" x="17" y="9" onmousedown="handleZoom(evt,'in')"/>
                <use id="zoomminus" xlink:href="#zoomMin" x="42" y="9" onmousedown="handleZoom(evt,'out')"/>
                <use id="reset" xlink:href="#resetDef" x="30" y="36" onmousedown="handleReset()"/>
                <g id="arrowUp" xlink:href="#dirArrow" transform="translate(30 24)" onmousedown="handlePan(0,-1)">
                  <use xlink:href="#rim" fill="#404040">
                        <set attributeName="fill" to="#808080" begin="arrowUp.mouseover" end="arrowUp.mouseout"/>
                  </use>
                  <path fill="none" stroke="white" stroke-width="1.5" d="M0,-3.0v7 M-2.5,-0.5L0,-3.0L2.5,-0.5"/>
                </g>
                <g id="arrowRight" xlink:href="#dirArrow" transform="rotate(90) translate(36 -43)" onmousedown="handlePan(1,0)">
                  <use xlink:href="#rim" fill="#404040">
                        <set attributeName="fill" to="#808080" begin="arrowRight.mouseover" end="arrowRight.mouseout"/>
                  </use>
                  <path fill="none" stroke="white" stroke-width="1.5" d="M0,-3.0v7 M-2.5,-0.5L0,-3.0L2.5,-0.5"/>
                </g>
                <g id="arrowDown" xlink:href="#dirArrow" transform="rotate(180) translate(-30 -48)" onmousedown="handlePan(0,1)">
                  <use xlink:href="#rim" fill="#404040">
                        <set attributeName="fill" to="#808080" begin="arrowDown.mouseover" end="arrowDown.mouseout"/>
                  </use>
                  <path fill="none" stroke="white" stroke-width="1.5" d="M0,-3.0v7 M-2.5,-0.5L0,-3.0L2.5,-0.5"/>
                </g>
                <g id="arrowLeft" xlink:href="#dirArrow" transform="rotate(270) translate(-36 17)" onmousedown="handlePan(-1,0)">
                  <use xlink:href="#rim" fill="#404040">
                        <set attributeName="fill" to="#808080" begin="arrowLeft.mouseover" end="arrowLeft.mouseout"/>
                  </use>
                  <path fill="none" stroke="white" stroke-width="1.5" d="M0,-3.0v7 M-2.5,-0.5L0,-3.0L2.5,-0.5"/>
                </g>
        </g>
        <svg viewBox="0 0 15 15" width="100%" height="30px" preserveAspectRatio="xMaxYMin meet">
         <g id="arrow_out" transform="scale(0.3 0.3)">
          <a xlink:href="class_k_u_k_a_1_1_f_r_i_1_1_command_message_encoder_ab48adf8c90670d6c7bcbd82d108f9f47_cgraph_org.svg" target="_base">
           <rect id="button" ry="5" rx="5" y="6" x="6" height="38" width="38"
                fill="#f2f5e9" fill-opacity="0.5" stroke="#606060" stroke-width="1.0"/>
           <path id="arrow"
             d="M 11.500037,31.436501 C 11.940474,20.09759 22.043105,11.32322 32.158766,21.979434 L 37.068811,17.246167 C 37.068811,17.246167 37.088388,32 37.088388,32 L 22.160133,31.978069 C 22.160133,31.978069 26.997745,27.140456 26.997745,27.140456 C 18.528582,18.264221 13.291696,25.230495 11.500037,31.436501 z"
             style="fill:#404040;"/>
          </a>
         </g>
        </svg>
</svg>
