<?xml version="1.0" encoding="UTF-8" standalone="no"?>
<!DOCTYPE svg PUBLIC "-//W3C//DTD SVG 1.1//EN"
 "http://www.w3.org/Graphics/SVG/1.1/DTD/svg11.dtd">
<!-- Generated by graphviz version 2.43.0 (0)
 -->
<!-- Title: IOAccessClient::monitor Pages: 1 -->
<svg width="943pt" height="333pt"
 viewBox="0.00 0.00 943.00 333.00" xmlns="http://www.w3.org/2000/svg" xmlns:xlink="http://www.w3.org/1999/xlink">
<g id="graph0" class="graph" transform="scale(1 1) rotate(0) translate(4 329)">
<title>IOAccessClient::monitor</title>
<polygon fill="white" stroke="transparent" points="-4,4 -4,-329 939,-329 939,4 -4,4"/>
<!-- Node1 -->
<g id="node1" class="node">
<title>Node1</title>
<g id="a_node1"><a xlink:title="Callback for the FRI session states &#39;Monitoring Wait&#39; and &#39;Monitoring Ready&#39;.">
<polygon fill="#bfbfbf" stroke="black" points="0,-153 0,-172 124,-172 124,-153 0,-153"/>
<text text-anchor="middle" x="62" y="-160" font-family="Helvetica,sans-Serif" font-size="10.00">IOAccessClient::monitor</text>
</a>
</g>
</g>
<!-- Node2 -->
<g id="node2" class="node">
<title>Node2</title>
<g id="a_node2"><a xlink:href="class_i_o_access_client.html#a01d1b4f46c4b43527106ccfae8440255" target="_top" xlink:title=" ">
<polygon fill="white" stroke="black" points="160,-147.5 160,-177.5 297,-177.5 297,-147.5 160,-147.5"/>
<text text-anchor="start" x="168" y="-165.5" font-family="Helvetica,sans-Serif" font-size="10.00">IOAccessClient::getAndSet</text>
<text text-anchor="middle" x="228.5" y="-154.5" font-family="Helvetica,sans-Serif" font-size="10.00">Example</text>
</a>
</g>
</g>
<!-- Node1&#45;&gt;Node2 -->
<g id="edge1" class="edge">
<title>Node1&#45;&gt;Node2</title>
<path fill="none" stroke="midnightblue" d="M124.25,-162.5C132.59,-162.5 141.24,-162.5 149.82,-162.5"/>
<polygon fill="midnightblue" stroke="midnightblue" points="149.84,-166 159.84,-162.5 149.84,-159 149.84,-166"/>
</g>
<!-- Node3 -->
<g id="node3" class="node">
<title>Node3</title>
<g id="a_node3"><a xlink:href="class_k_u_k_a_1_1_f_r_i_1_1_l_b_r_state.html#a899e75d623dc6c3098bf247b6323d793" target="_top" xlink:title="Get analog IO value.">
<polygon fill="white" stroke="black" points="343.5,-294.5 343.5,-324.5 459.5,-324.5 459.5,-294.5 343.5,-294.5"/>
<text text-anchor="start" x="351.5" y="-312.5" font-family="Helvetica,sans-Serif" font-size="10.00">KUKA::FRI::LBRState</text>
<text text-anchor="middle" x="401.5" y="-301.5" font-family="Helvetica,sans-Serif" font-size="10.00">::getAnalogIOValue</text>
</a>
</g>
</g>
<!-- Node2&#45;&gt;Node3 -->
<g id="edge2" class="edge">
<title>Node2&#45;&gt;Node3</title>
<path fill="none" stroke="midnightblue" d="M238.4,-177.6C254.28,-203.28 289.89,-255.6 333,-285.5 335.15,-286.99 337.39,-288.39 339.71,-289.72"/>
<polygon fill="midnightblue" stroke="midnightblue" points="338.45,-293.01 348.94,-294.45 341.64,-286.78 338.45,-293.01"/>
</g>
<!-- Node6 -->
<g id="node6" class="node">
<title>Node6</title>
<g id="a_node6"><a xlink:href="class_k_u_k_a_1_1_f_r_i_1_1_l_b_r_state.html#aafaf0eacc7fb915ea08869afb31c5a3b" target="_top" xlink:title="Get boolean IO value.">
<polygon fill="white" stroke="black" points="343.5,-245.5 343.5,-275.5 459.5,-275.5 459.5,-245.5 343.5,-245.5"/>
<text text-anchor="start" x="351.5" y="-263.5" font-family="Helvetica,sans-Serif" font-size="10.00">KUKA::FRI::LBRState</text>
<text text-anchor="middle" x="401.5" y="-252.5" font-family="Helvetica,sans-Serif" font-size="10.00">::getBooleanIOValue</text>
</a>
</g>
</g>
<!-- Node2&#45;&gt;Node6 -->
<g id="edge5" class="edge">
<title>Node2&#45;&gt;Node6</title>
<path fill="none" stroke="midnightblue" d="M247.19,-177.51C267.03,-193.77 300.69,-219.63 333,-236.5 336.44,-238.29 340.04,-240.01 343.71,-241.63"/>
<polygon fill="midnightblue" stroke="midnightblue" points="342.36,-244.86 352.94,-245.49 345.06,-238.4 342.36,-244.86"/>
</g>
<!-- Node8 -->
<g id="node8" class="node">
<title>Node8</title>
<g id="a_node8"><a xlink:href="class_k_u_k_a_1_1_f_r_i_1_1_l_b_r_state.html#a6b1d593daf83e832a407e6088d3df152" target="_top" xlink:title="Get digital IO value.">
<polygon fill="white" stroke="black" points="343.5,-196.5 343.5,-226.5 459.5,-226.5 459.5,-196.5 343.5,-196.5"/>
<text text-anchor="start" x="351.5" y="-214.5" font-family="Helvetica,sans-Serif" font-size="10.00">KUKA::FRI::LBRState</text>
<text text-anchor="middle" x="401.5" y="-203.5" font-family="Helvetica,sans-Serif" font-size="10.00">::getDigitalIOValue</text>
</a>
</g>
</g>
<!-- Node2&#45;&gt;Node8 -->
<g id="edge8" class="edge">
<title>Node2&#45;&gt;Node8</title>
<path fill="none" stroke="midnightblue" d="M282.2,-177.6C299.92,-182.68 319.85,-188.39 338.23,-193.66"/>
<polygon fill="midnightblue" stroke="midnightblue" points="337.4,-197.06 347.97,-196.45 339.32,-190.33 337.4,-197.06"/>
</g>
<!-- Node10 -->
<g id="node10" class="node">
<title>Node10</title>
<g id="a_node10"><a xlink:href="class_k_u_k_a_1_1_f_r_i_1_1_l_b_r_client.html#aa6dcd610503f9c67153ffeb5d3fab203" target="_top" xlink:title="Provide write access to the robot commands.">
<polygon fill="white" stroke="black" points="342.5,-147.5 342.5,-177.5 460.5,-177.5 460.5,-147.5 342.5,-147.5"/>
<text text-anchor="start" x="350.5" y="-165.5" font-family="Helvetica,sans-Serif" font-size="10.00">KUKA::FRI::LBRClient</text>
<text text-anchor="middle" x="401.5" y="-154.5" font-family="Helvetica,sans-Serif" font-size="10.00">::robotCommand</text>
</a>
</g>
</g>
<!-- Node2&#45;&gt;Node10 -->
<g id="edge11" class="edge">
<title>Node2&#45;&gt;Node10</title>
<path fill="none" stroke="midnightblue" d="M297.08,-162.5C308.64,-162.5 320.65,-162.5 332.22,-162.5"/>
<polygon fill="midnightblue" stroke="midnightblue" points="332.25,-166 342.25,-162.5 332.25,-159 332.25,-166"/>
</g>
<!-- Node11 -->
<g id="node11" class="node">
<title>Node11</title>
<g id="a_node11"><a xlink:href="class_k_u_k_a_1_1_f_r_i_1_1_l_b_r_client.html#af99433aa6795f9b6764b0fb539188e6d" target="_top" xlink:title="Provide read access to the current robot state.">
<polygon fill="white" stroke="black" points="342.5,-98.5 342.5,-128.5 460.5,-128.5 460.5,-98.5 342.5,-98.5"/>
<text text-anchor="start" x="350.5" y="-116.5" font-family="Helvetica,sans-Serif" font-size="10.00">KUKA::FRI::LBRClient</text>
<text text-anchor="middle" x="401.5" y="-105.5" font-family="Helvetica,sans-Serif" font-size="10.00">::robotState</text>
</a>
</g>
</g>
<!-- Node2&#45;&gt;Node11 -->
<g id="edge12" class="edge">
<title>Node2&#45;&gt;Node11</title>
<path fill="none" stroke="midnightblue" d="M282.2,-147.4C299.92,-142.32 319.85,-136.61 338.23,-131.34"/>
<polygon fill="midnightblue" stroke="midnightblue" points="339.32,-134.67 347.97,-128.55 337.4,-127.94 339.32,-134.67"/>
</g>
<!-- Node12 -->
<g id="node12" class="node">
<title>Node12</title>
<g id="a_node12"><a xlink:href="class_k_u_k_a_1_1_f_r_i_1_1_l_b_r_command.html#ac62fc6a59a5cc24fcacda4b22a2ff2de" target="_top" xlink:title="Set analog output value.">
<polygon fill="white" stroke="black" points="333,-49.5 333,-79.5 470,-79.5 470,-49.5 333,-49.5"/>
<text text-anchor="start" x="341" y="-67.5" font-family="Helvetica,sans-Serif" font-size="10.00">KUKA::FRI::LBRCommand</text>
<text text-anchor="middle" x="401.5" y="-56.5" font-family="Helvetica,sans-Serif" font-size="10.00">::setAnalogIOValue</text>
</a>
</g>
</g>
<!-- Node2&#45;&gt;Node12 -->
<g id="edge13" class="edge">
<title>Node2&#45;&gt;Node12</title>
<path fill="none" stroke="midnightblue" d="M248,-147.21C268,-131.22 301.28,-106.19 333,-89.5 336.96,-87.41 341.14,-85.42 345.39,-83.54"/>
<polygon fill="midnightblue" stroke="midnightblue" points="346.91,-86.7 354.77,-79.59 344.2,-80.24 346.91,-86.7"/>
</g>
<!-- Node15 -->
<g id="node15" class="node">
<title>Node15</title>
<g id="a_node15"><a xlink:href="class_k_u_k_a_1_1_f_r_i_1_1_l_b_r_command.html#ab6f840a8c126235a5eec3ab0299f18aa" target="_top" xlink:title="Set digital output value.">
<polygon fill="white" stroke="black" points="333,-0.5 333,-30.5 470,-30.5 470,-0.5 333,-0.5"/>
<text text-anchor="start" x="341" y="-18.5" font-family="Helvetica,sans-Serif" font-size="10.00">KUKA::FRI::LBRCommand</text>
<text text-anchor="middle" x="401.5" y="-7.5" font-family="Helvetica,sans-Serif" font-size="10.00">::setDigitalIOValue</text>
</a>
</g>
</g>
<!-- Node2&#45;&gt;Node15 -->
<g id="edge17" class="edge">
<title>Node2&#45;&gt;Node15</title>
<path fill="none" stroke="midnightblue" d="M238.4,-147.4C254.28,-121.72 289.89,-69.4 333,-39.5 335.15,-38.01 337.39,-36.61 339.71,-35.28"/>
<polygon fill="midnightblue" stroke="midnightblue" points="341.64,-38.22 348.94,-30.55 338.45,-31.99 341.64,-38.22"/>
</g>
<!-- Node4 -->
<g id="node4" class="node">
<title>Node4</title>
<g id="a_node4"><a xlink:href="struct_k_u_k_a_1_1_f_r_i_1_1_client_data.html#ac77b81d510899c1afba106c2ec8c1727" target="_top" xlink:title=" ">
<polygon fill="white" stroke="black" points="661,-291.5 661,-321.5 780,-321.5 780,-291.5 661,-291.5"/>
<text text-anchor="start" x="669" y="-309.5" font-family="Helvetica,sans-Serif" font-size="10.00">KUKA::FRI::ClientData</text>
<text text-anchor="middle" x="720.5" y="-298.5" font-family="Helvetica,sans-Serif" font-size="10.00">::getAnalogIOValue</text>
</a>
</g>
</g>
<!-- Node3&#45;&gt;Node4 -->
<g id="edge3" class="edge">
<title>Node3&#45;&gt;Node4</title>
<path fill="none" stroke="midnightblue" d="M459.54,-308.96C513.18,-308.45 593.57,-307.69 650.74,-307.15"/>
<polygon fill="midnightblue" stroke="midnightblue" points="650.81,-310.65 660.77,-307.06 650.74,-303.65 650.81,-310.65"/>
</g>
<!-- Node5 -->
<g id="node5" class="node">
<title>Node5</title>
<g id="a_node5"><a xlink:href="struct_k_u_k_a_1_1_f_r_i_1_1_client_data.html#a5bce1775434444edbcecce32b0a7d06f" target="_top" xlink:title=" ">
<polygon fill="white" stroke="black" points="816,-218.5 816,-248.5 935,-248.5 935,-218.5 816,-218.5"/>
<text text-anchor="start" x="824" y="-236.5" font-family="Helvetica,sans-Serif" font-size="10.00">KUKA::FRI::ClientData</text>
<text text-anchor="middle" x="875.5" y="-225.5" font-family="Helvetica,sans-Serif" font-size="10.00">::getIOValue</text>
</a>
</g>
</g>
<!-- Node4&#45;&gt;Node5 -->
<g id="edge4" class="edge">
<title>Node4&#45;&gt;Node5</title>
<path fill="none" stroke="midnightblue" d="M757.86,-291.4C765.23,-288.22 772.89,-284.82 780,-281.5 798.85,-272.7 819.48,-262.31 836.65,-253.45"/>
<polygon fill="midnightblue" stroke="midnightblue" points="838.53,-256.42 845.79,-248.7 835.3,-250.2 838.53,-256.42"/>
</g>
<!-- Node7 -->
<g id="node7" class="node">
<title>Node7</title>
<g id="a_node7"><a xlink:href="struct_k_u_k_a_1_1_f_r_i_1_1_client_data.html#a38d771a0ba1bf366ed4c67320595354d" target="_top" xlink:title=" ">
<polygon fill="white" stroke="black" points="661,-241.5 661,-271.5 780,-271.5 780,-241.5 661,-241.5"/>
<text text-anchor="start" x="669" y="-259.5" font-family="Helvetica,sans-Serif" font-size="10.00">KUKA::FRI::ClientData</text>
<text text-anchor="middle" x="720.5" y="-248.5" font-family="Helvetica,sans-Serif" font-size="10.00">::getBooleanIOValue</text>
</a>
</g>
</g>
<!-- Node6&#45;&gt;Node7 -->
<g id="edge6" class="edge">
<title>Node6&#45;&gt;Node7</title>
<path fill="none" stroke="midnightblue" d="M459.54,-259.78C513.18,-259.1 593.57,-258.09 650.74,-257.37"/>
<polygon fill="midnightblue" stroke="midnightblue" points="650.82,-260.87 660.77,-257.24 650.73,-253.87 650.82,-260.87"/>
</g>
<!-- Node7&#45;&gt;Node5 -->
<g id="edge7" class="edge">
<title>Node7&#45;&gt;Node5</title>
<path fill="none" stroke="midnightblue" d="M780.22,-247.67C788.64,-246.41 797.36,-245.1 805.95,-243.81"/>
<polygon fill="midnightblue" stroke="midnightblue" points="806.57,-247.25 815.94,-242.3 805.53,-240.33 806.57,-247.25"/>
</g>
<!-- Node9 -->
<g id="node9" class="node">
<title>Node9</title>
<g id="a_node9"><a xlink:href="struct_k_u_k_a_1_1_f_r_i_1_1_client_data.html#add3e7842c27fd6322b4b1e1db2babc40" target="_top" xlink:title=" ">
<polygon fill="white" stroke="black" points="506,-196.5 506,-226.5 625,-226.5 625,-196.5 506,-196.5"/>
<text text-anchor="start" x="514" y="-214.5" font-family="Helvetica,sans-Serif" font-size="10.00">KUKA::FRI::ClientData</text>
<text text-anchor="middle" x="565.5" y="-203.5" font-family="Helvetica,sans-Serif" font-size="10.00">::getDigitalIOValue</text>
</a>
</g>
</g>
<!-- Node8&#45;&gt;Node9 -->
<g id="edge9" class="edge">
<title>Node8&#45;&gt;Node9</title>
<path fill="none" stroke="midnightblue" d="M459.62,-211.5C471.36,-211.5 483.84,-211.5 495.94,-211.5"/>
<polygon fill="midnightblue" stroke="midnightblue" points="495.98,-215 505.98,-211.5 495.98,-208 495.98,-215"/>
</g>
<!-- Node9&#45;&gt;Node5 -->
<g id="edge10" class="edge">
<title>Node9&#45;&gt;Node5</title>
<path fill="none" stroke="midnightblue" d="M625.16,-215.69C676.56,-219.36 751.33,-224.7 805.58,-228.58"/>
<polygon fill="midnightblue" stroke="midnightblue" points="805.58,-232.09 815.8,-229.31 806.07,-225.1 805.58,-232.09"/>
</g>
<!-- Node13 -->
<g id="node13" class="node">
<title>Node13</title>
<g id="a_node13"><a xlink:href="struct_k_u_k_a_1_1_f_r_i_1_1_client_data.html#a6f88f48e7296b0ff80e4cd9671eca371" target="_top" xlink:title=" ">
<polygon fill="white" stroke="black" points="506,-49.5 506,-79.5 625,-79.5 625,-49.5 506,-49.5"/>
<text text-anchor="start" x="514" y="-67.5" font-family="Helvetica,sans-Serif" font-size="10.00">KUKA::FRI::ClientData</text>
<text text-anchor="middle" x="565.5" y="-56.5" font-family="Helvetica,sans-Serif" font-size="10.00">::setAnalogIOValue</text>
</a>
</g>
</g>
<!-- Node12&#45;&gt;Node13 -->
<g id="edge14" class="edge">
<title>Node12&#45;&gt;Node13</title>
<path fill="none" stroke="midnightblue" d="M470.26,-64.5C478.65,-64.5 487.22,-64.5 495.62,-64.5"/>
<polygon fill="midnightblue" stroke="midnightblue" points="495.76,-68 505.76,-64.5 495.76,-61 495.76,-68"/>
</g>
<!-- Node14 -->
<g id="node14" class="node">
<title>Node14</title>
<g id="a_node14"><a xlink:href="struct_k_u_k_a_1_1_f_r_i_1_1_client_data.html#a95e1117745481a9624d4e868d9c0cbfe" target="_top" xlink:title=" ">
<polygon fill="white" stroke="black" points="661,-49.5 661,-79.5 780,-79.5 780,-49.5 661,-49.5"/>
<text text-anchor="start" x="669" y="-67.5" font-family="Helvetica,sans-Serif" font-size="10.00">KUKA::FRI::ClientData</text>
<text text-anchor="middle" x="720.5" y="-56.5" font-family="Helvetica,sans-Serif" font-size="10.00">::setIOValue</text>
</a>
</g>
</g>
<!-- Node13&#45;&gt;Node14 -->
<g id="edge15" class="edge">
<title>Node13&#45;&gt;Node14</title>
<path fill="none" stroke="midnightblue" d="M625.22,-64.5C633.54,-64.5 642.17,-64.5 650.67,-64.5"/>
<polygon fill="midnightblue" stroke="midnightblue" points="650.94,-68 660.94,-64.5 650.94,-61 650.94,-68"/>
</g>
<!-- Node14&#45;&gt;Node5 -->
<g id="edge16" class="edge">
<title>Node14&#45;&gt;Node5</title>
<path fill="none" stroke="midnightblue" d="M735.35,-79.8C762.32,-109.58 822.01,-175.52 853.73,-210.56"/>
<polygon fill="midnightblue" stroke="midnightblue" points="851.49,-213.3 860.79,-218.36 856.68,-208.6 851.49,-213.3"/>
</g>
<!-- Node16 -->
<g id="node16" class="node">
<title>Node16</title>
<g id="a_node16"><a xlink:href="struct_k_u_k_a_1_1_f_r_i_1_1_client_data.html#aac37310af7f0dd4db183106c278e0810" target="_top" xlink:title=" ">
<polygon fill="white" stroke="black" points="506,-0.5 506,-30.5 625,-30.5 625,-0.5 506,-0.5"/>
<text text-anchor="start" x="514" y="-18.5" font-family="Helvetica,sans-Serif" font-size="10.00">KUKA::FRI::ClientData</text>
<text text-anchor="middle" x="565.5" y="-7.5" font-family="Helvetica,sans-Serif" font-size="10.00">::setDigitalIOValue</text>
</a>
</g>
</g>
<!-- Node15&#45;&gt;Node16 -->
<g id="edge18" class="edge">
<title>Node15&#45;&gt;Node16</title>
<path fill="none" stroke="midnightblue" d="M470.26,-15.5C478.65,-15.5 487.22,-15.5 495.62,-15.5"/>
<polygon fill="midnightblue" stroke="midnightblue" points="495.76,-19 505.76,-15.5 495.76,-12 495.76,-19"/>
</g>
<!-- Node16&#45;&gt;Node14 -->
<g id="edge19" class="edge">
<title>Node16&#45;&gt;Node14</title>
<path fill="none" stroke="midnightblue" d="M613.65,-30.6C629.14,-35.56 646.52,-41.13 662.65,-46.29"/>
<polygon fill="midnightblue" stroke="midnightblue" points="661.91,-49.73 672.5,-49.45 664.05,-43.07 661.91,-49.73"/>
</g>
</g>
</svg>
