<?xml version="1.0" encoding="UTF-8" standalone="no"?>
<!DOCTYPE svg PUBLIC "-//W3C//DTD SVG 1.1//EN"
 "http://www.w3.org/Graphics/SVG/1.1/DTD/svg11.dtd">
<!-- Generated by graphviz version 2.43.0 (0)
 -->
<!-- Title: KUKA::FRI::TransformationClient::setTransformation Pages: 1 -->
<svg width="343pt" height="39pt"
 viewBox="0.00 0.00 343.00 39.00" xmlns="http://www.w3.org/2000/svg" xmlns:xlink="http://www.w3.org/1999/xlink">
<g id="graph0" class="graph" transform="scale(1 1) rotate(0) translate(4 35)">
<title>KUKA::FRI::TransformationClient::setTransformation</title>
<polygon fill="white" stroke="transparent" points="-4,4 -4,-35 339,-35 339,4 -4,4"/>
<!-- Node1 -->
<g id="node1" class="node">
<title>Node1</title>
<g id="a_node1"><a xlink:title="Provides a requested transformation matrix.">
<polygon fill="#bfbfbf" stroke="black" points="197,-0.5 197,-30.5 335,-30.5 335,-0.5 197,-0.5"/>
<text text-anchor="start" x="205" y="-18.5" font-family="Helvetica,sans-Serif" font-size="10.00">KUKA::FRI::Transformation</text>
<text text-anchor="middle" x="266" y="-7.5" font-family="Helvetica,sans-Serif" font-size="10.00">Client::setTransformation</text>
</a>
</g>
</g>
<!-- Node2 -->
<g id="node2" class="node">
<title>Node2</title>
<g id="a_node2"><a xlink:href="class_simulated_transformation_provider_client.html#ad7c1847511910657aa8f95573777697d" target="_top" xlink:title="Callback which is called whenever a new FRI message arrives.">
<polygon fill="white" stroke="black" points="0,-0.5 0,-30.5 161,-30.5 161,-0.5 0,-0.5"/>
<text text-anchor="start" x="8" y="-18.5" font-family="Helvetica,sans-Serif" font-size="10.00">SimulatedTransformationProvider</text>
<text text-anchor="middle" x="80.5" y="-7.5" font-family="Helvetica,sans-Serif" font-size="10.00">Client::provide</text>
</a>
</g>
</g>
<!-- Node1&#45;&gt;Node2 -->
<g id="edge1" class="edge">
<title>Node1&#45;&gt;Node2</title>
<path fill="none" stroke="midnightblue" d="M186.73,-15.5C178.29,-15.5 169.69,-15.5 161.23,-15.5"/>
<polygon fill="midnightblue" stroke="midnightblue" points="186.93,-19 196.93,-15.5 186.93,-12 186.93,-19"/>
</g>
</g>
</svg>
