<?xml version="1.0" encoding="UTF-8" standalone="no"?>
<!DOCTYPE svg PUBLIC "-//W3C//DTD SVG 1.1//EN"
 "http://www.w3.org/Graphics/SVG/1.1/DTD/svg11.dtd">
<!-- Generated by graphviz version 2.43.0 (0)
 -->
<!-- Title: IOAccessClient::getAndSetExample Pages: 1 -->
<svg width="783pt" height="333pt"
 viewBox="0.00 0.00 783.00 333.00" xmlns="http://www.w3.org/2000/svg" xmlns:xlink="http://www.w3.org/1999/xlink">
<g id="graph0" class="graph" transform="scale(1 1) rotate(0) translate(4 329)">
<title>IOAccessClient::getAndSetExample</title>
<polygon fill="white" stroke="transparent" points="-4,4 -4,-329 779,-329 779,4 -4,4"/>
<!-- Node1 -->
<g id="node1" class="node">
<title>Node1</title>
<g id="a_node1"><a xlink:title=" ">
<polygon fill="#bfbfbf" stroke="black" points="0,-147.5 0,-177.5 137,-177.5 137,-147.5 0,-147.5"/>
<text text-anchor="start" x="8" y="-165.5" font-family="Helvetica,sans-Serif" font-size="10.00">IOAccessClient::getAndSet</text>
<text text-anchor="middle" x="68.5" y="-154.5" font-family="Helvetica,sans-Serif" font-size="10.00">Example</text>
</a>
</g>
</g>
<!-- Node2 -->
<g id="node2" class="node">
<title>Node2</title>
<g id="a_node2"><a xlink:href="class_k_u_k_a_1_1_f_r_i_1_1_l_b_r_state.html#a899e75d623dc6c3098bf247b6323d793" target="_top" xlink:title="Get analog IO value.">
<polygon fill="white" stroke="black" points="183.5,-294.5 183.5,-324.5 299.5,-324.5 299.5,-294.5 183.5,-294.5"/>
<text text-anchor="start" x="191.5" y="-312.5" font-family="Helvetica,sans-Serif" font-size="10.00">KUKA::FRI::LBRState</text>
<text text-anchor="middle" x="241.5" y="-301.5" font-family="Helvetica,sans-Serif" font-size="10.00">::getAnalogIOValue</text>
</a>
</g>
</g>
<!-- Node1&#45;&gt;Node2 -->
<g id="edge1" class="edge">
<title>Node1&#45;&gt;Node2</title>
<path fill="none" stroke="midnightblue" d="M78.4,-177.6C94.28,-203.28 129.89,-255.6 173,-285.5 175.15,-286.99 177.39,-288.39 179.71,-289.72"/>
<polygon fill="midnightblue" stroke="midnightblue" points="178.45,-293.01 188.94,-294.45 181.64,-286.78 178.45,-293.01"/>
</g>
<!-- Node5 -->
<g id="node5" class="node">
<title>Node5</title>
<g id="a_node5"><a xlink:href="class_k_u_k_a_1_1_f_r_i_1_1_l_b_r_state.html#aafaf0eacc7fb915ea08869afb31c5a3b" target="_top" xlink:title="Get boolean IO value.">
<polygon fill="white" stroke="black" points="183.5,-245.5 183.5,-275.5 299.5,-275.5 299.5,-245.5 183.5,-245.5"/>
<text text-anchor="start" x="191.5" y="-263.5" font-family="Helvetica,sans-Serif" font-size="10.00">KUKA::FRI::LBRState</text>
<text text-anchor="middle" x="241.5" y="-252.5" font-family="Helvetica,sans-Serif" font-size="10.00">::getBooleanIOValue</text>
</a>
</g>
</g>
<!-- Node1&#45;&gt;Node5 -->
<g id="edge4" class="edge">
<title>Node1&#45;&gt;Node5</title>
<path fill="none" stroke="midnightblue" d="M87.19,-177.51C107.03,-193.77 140.69,-219.63 173,-236.5 176.44,-238.29 180.04,-240.01 183.71,-241.63"/>
<polygon fill="midnightblue" stroke="midnightblue" points="182.36,-244.86 192.94,-245.49 185.06,-238.4 182.36,-244.86"/>
</g>
<!-- Node7 -->
<g id="node7" class="node">
<title>Node7</title>
<g id="a_node7"><a xlink:href="class_k_u_k_a_1_1_f_r_i_1_1_l_b_r_state.html#a6b1d593daf83e832a407e6088d3df152" target="_top" xlink:title="Get digital IO value.">
<polygon fill="white" stroke="black" points="183.5,-196.5 183.5,-226.5 299.5,-226.5 299.5,-196.5 183.5,-196.5"/>
<text text-anchor="start" x="191.5" y="-214.5" font-family="Helvetica,sans-Serif" font-size="10.00">KUKA::FRI::LBRState</text>
<text text-anchor="middle" x="241.5" y="-203.5" font-family="Helvetica,sans-Serif" font-size="10.00">::getDigitalIOValue</text>
</a>
</g>
</g>
<!-- Node1&#45;&gt;Node7 -->
<g id="edge7" class="edge">
<title>Node1&#45;&gt;Node7</title>
<path fill="none" stroke="midnightblue" d="M122.2,-177.6C139.92,-182.68 159.85,-188.39 178.23,-193.66"/>
<polygon fill="midnightblue" stroke="midnightblue" points="177.4,-197.06 187.97,-196.45 179.32,-190.33 177.4,-197.06"/>
</g>
<!-- Node9 -->
<g id="node9" class="node">
<title>Node9</title>
<g id="a_node9"><a xlink:href="class_k_u_k_a_1_1_f_r_i_1_1_l_b_r_client.html#aa6dcd610503f9c67153ffeb5d3fab203" target="_top" xlink:title="Provide write access to the robot commands.">
<polygon fill="white" stroke="black" points="182.5,-147.5 182.5,-177.5 300.5,-177.5 300.5,-147.5 182.5,-147.5"/>
<text text-anchor="start" x="190.5" y="-165.5" font-family="Helvetica,sans-Serif" font-size="10.00">KUKA::FRI::LBRClient</text>
<text text-anchor="middle" x="241.5" y="-154.5" font-family="Helvetica,sans-Serif" font-size="10.00">::robotCommand</text>
</a>
</g>
</g>
<!-- Node1&#45;&gt;Node9 -->
<g id="edge10" class="edge">
<title>Node1&#45;&gt;Node9</title>
<path fill="none" stroke="midnightblue" d="M137.08,-162.5C148.64,-162.5 160.65,-162.5 172.22,-162.5"/>
<polygon fill="midnightblue" stroke="midnightblue" points="172.25,-166 182.25,-162.5 172.25,-159 172.25,-166"/>
</g>
<!-- Node10 -->
<g id="node10" class="node">
<title>Node10</title>
<g id="a_node10"><a xlink:href="class_k_u_k_a_1_1_f_r_i_1_1_l_b_r_client.html#af99433aa6795f9b6764b0fb539188e6d" target="_top" xlink:title="Provide read access to the current robot state.">
<polygon fill="white" stroke="black" points="182.5,-98.5 182.5,-128.5 300.5,-128.5 300.5,-98.5 182.5,-98.5"/>
<text text-anchor="start" x="190.5" y="-116.5" font-family="Helvetica,sans-Serif" font-size="10.00">KUKA::FRI::LBRClient</text>
<text text-anchor="middle" x="241.5" y="-105.5" font-family="Helvetica,sans-Serif" font-size="10.00">::robotState</text>
</a>
</g>
</g>
<!-- Node1&#45;&gt;Node10 -->
<g id="edge11" class="edge">
<title>Node1&#45;&gt;Node10</title>
<path fill="none" stroke="midnightblue" d="M122.2,-147.4C139.92,-142.32 159.85,-136.61 178.23,-131.34"/>
<polygon fill="midnightblue" stroke="midnightblue" points="179.32,-134.67 187.97,-128.55 177.4,-127.94 179.32,-134.67"/>
</g>
<!-- Node11 -->
<g id="node11" class="node">
<title>Node11</title>
<g id="a_node11"><a xlink:href="class_k_u_k_a_1_1_f_r_i_1_1_l_b_r_command.html#ac62fc6a59a5cc24fcacda4b22a2ff2de" target="_top" xlink:title="Set analog output value.">
<polygon fill="white" stroke="black" points="173,-49.5 173,-79.5 310,-79.5 310,-49.5 173,-49.5"/>
<text text-anchor="start" x="181" y="-67.5" font-family="Helvetica,sans-Serif" font-size="10.00">KUKA::FRI::LBRCommand</text>
<text text-anchor="middle" x="241.5" y="-56.5" font-family="Helvetica,sans-Serif" font-size="10.00">::setAnalogIOValue</text>
</a>
</g>
</g>
<!-- Node1&#45;&gt;Node11 -->
<g id="edge12" class="edge">
<title>Node1&#45;&gt;Node11</title>
<path fill="none" stroke="midnightblue" d="M88,-147.21C108,-131.22 141.28,-106.19 173,-89.5 176.96,-87.41 181.14,-85.42 185.39,-83.54"/>
<polygon fill="midnightblue" stroke="midnightblue" points="186.91,-86.7 194.77,-79.59 184.2,-80.24 186.91,-86.7"/>
</g>
<!-- Node14 -->
<g id="node14" class="node">
<title>Node14</title>
<g id="a_node14"><a xlink:href="class_k_u_k_a_1_1_f_r_i_1_1_l_b_r_command.html#ab6f840a8c126235a5eec3ab0299f18aa" target="_top" xlink:title="Set digital output value.">
<polygon fill="white" stroke="black" points="173,-0.5 173,-30.5 310,-30.5 310,-0.5 173,-0.5"/>
<text text-anchor="start" x="181" y="-18.5" font-family="Helvetica,sans-Serif" font-size="10.00">KUKA::FRI::LBRCommand</text>
<text text-anchor="middle" x="241.5" y="-7.5" font-family="Helvetica,sans-Serif" font-size="10.00">::setDigitalIOValue</text>
</a>
</g>
</g>
<!-- Node1&#45;&gt;Node14 -->
<g id="edge16" class="edge">
<title>Node1&#45;&gt;Node14</title>
<path fill="none" stroke="midnightblue" d="M78.4,-147.4C94.28,-121.72 129.89,-69.4 173,-39.5 175.15,-38.01 177.39,-36.61 179.71,-35.28"/>
<polygon fill="midnightblue" stroke="midnightblue" points="181.64,-38.22 188.94,-30.55 178.45,-31.99 181.64,-38.22"/>
</g>
<!-- Node3 -->
<g id="node3" class="node">
<title>Node3</title>
<g id="a_node3"><a xlink:href="struct_k_u_k_a_1_1_f_r_i_1_1_client_data.html#ac77b81d510899c1afba106c2ec8c1727" target="_top" xlink:title=" ">
<polygon fill="white" stroke="black" points="501,-291.5 501,-321.5 620,-321.5 620,-291.5 501,-291.5"/>
<text text-anchor="start" x="509" y="-309.5" font-family="Helvetica,sans-Serif" font-size="10.00">KUKA::FRI::ClientData</text>
<text text-anchor="middle" x="560.5" y="-298.5" font-family="Helvetica,sans-Serif" font-size="10.00">::getAnalogIOValue</text>
</a>
</g>
</g>
<!-- Node2&#45;&gt;Node3 -->
<g id="edge2" class="edge">
<title>Node2&#45;&gt;Node3</title>
<path fill="none" stroke="midnightblue" d="M299.54,-308.96C353.18,-308.45 433.57,-307.69 490.74,-307.15"/>
<polygon fill="midnightblue" stroke="midnightblue" points="490.81,-310.65 500.77,-307.06 490.74,-303.65 490.81,-310.65"/>
</g>
<!-- Node4 -->
<g id="node4" class="node">
<title>Node4</title>
<g id="a_node4"><a xlink:href="struct_k_u_k_a_1_1_f_r_i_1_1_client_data.html#a5bce1775434444edbcecce32b0a7d06f" target="_top" xlink:title=" ">
<polygon fill="white" stroke="black" points="656,-218.5 656,-248.5 775,-248.5 775,-218.5 656,-218.5"/>
<text text-anchor="start" x="664" y="-236.5" font-family="Helvetica,sans-Serif" font-size="10.00">KUKA::FRI::ClientData</text>
<text text-anchor="middle" x="715.5" y="-225.5" font-family="Helvetica,sans-Serif" font-size="10.00">::getIOValue</text>
</a>
</g>
</g>
<!-- Node3&#45;&gt;Node4 -->
<g id="edge3" class="edge">
<title>Node3&#45;&gt;Node4</title>
<path fill="none" stroke="midnightblue" d="M597.86,-291.4C605.23,-288.22 612.89,-284.82 620,-281.5 638.85,-272.7 659.48,-262.31 676.65,-253.45"/>
<polygon fill="midnightblue" stroke="midnightblue" points="678.53,-256.42 685.79,-248.7 675.3,-250.2 678.53,-256.42"/>
</g>
<!-- Node6 -->
<g id="node6" class="node">
<title>Node6</title>
<g id="a_node6"><a xlink:href="struct_k_u_k_a_1_1_f_r_i_1_1_client_data.html#a38d771a0ba1bf366ed4c67320595354d" target="_top" xlink:title=" ">
<polygon fill="white" stroke="black" points="501,-241.5 501,-271.5 620,-271.5 620,-241.5 501,-241.5"/>
<text text-anchor="start" x="509" y="-259.5" font-family="Helvetica,sans-Serif" font-size="10.00">KUKA::FRI::ClientData</text>
<text text-anchor="middle" x="560.5" y="-248.5" font-family="Helvetica,sans-Serif" font-size="10.00">::getBooleanIOValue</text>
</a>
</g>
</g>
<!-- Node5&#45;&gt;Node6 -->
<g id="edge5" class="edge">
<title>Node5&#45;&gt;Node6</title>
<path fill="none" stroke="midnightblue" d="M299.54,-259.78C353.18,-259.1 433.57,-258.09 490.74,-257.37"/>
<polygon fill="midnightblue" stroke="midnightblue" points="490.82,-260.87 500.77,-257.24 490.73,-253.87 490.82,-260.87"/>
</g>
<!-- Node6&#45;&gt;Node4 -->
<g id="edge6" class="edge">
<title>Node6&#45;&gt;Node4</title>
<path fill="none" stroke="midnightblue" d="M620.22,-247.67C628.64,-246.41 637.36,-245.1 645.95,-243.81"/>
<polygon fill="midnightblue" stroke="midnightblue" points="646.57,-247.25 655.94,-242.3 645.53,-240.33 646.57,-247.25"/>
</g>
<!-- Node8 -->
<g id="node8" class="node">
<title>Node8</title>
<g id="a_node8"><a xlink:href="struct_k_u_k_a_1_1_f_r_i_1_1_client_data.html#add3e7842c27fd6322b4b1e1db2babc40" target="_top" xlink:title=" ">
<polygon fill="white" stroke="black" points="346,-196.5 346,-226.5 465,-226.5 465,-196.5 346,-196.5"/>
<text text-anchor="start" x="354" y="-214.5" font-family="Helvetica,sans-Serif" font-size="10.00">KUKA::FRI::ClientData</text>
<text text-anchor="middle" x="405.5" y="-203.5" font-family="Helvetica,sans-Serif" font-size="10.00">::getDigitalIOValue</text>
</a>
</g>
</g>
<!-- Node7&#45;&gt;Node8 -->
<g id="edge8" class="edge">
<title>Node7&#45;&gt;Node8</title>
<path fill="none" stroke="midnightblue" d="M299.62,-211.5C311.36,-211.5 323.84,-211.5 335.94,-211.5"/>
<polygon fill="midnightblue" stroke="midnightblue" points="335.98,-215 345.98,-211.5 335.98,-208 335.98,-215"/>
</g>
<!-- Node8&#45;&gt;Node4 -->
<g id="edge9" class="edge">
<title>Node8&#45;&gt;Node4</title>
<path fill="none" stroke="midnightblue" d="M465.16,-215.69C516.56,-219.36 591.33,-224.7 645.58,-228.58"/>
<polygon fill="midnightblue" stroke="midnightblue" points="645.58,-232.09 655.8,-229.31 646.07,-225.1 645.58,-232.09"/>
</g>
<!-- Node12 -->
<g id="node12" class="node">
<title>Node12</title>
<g id="a_node12"><a xlink:href="struct_k_u_k_a_1_1_f_r_i_1_1_client_data.html#a6f88f48e7296b0ff80e4cd9671eca371" target="_top" xlink:title=" ">
<polygon fill="white" stroke="black" points="346,-49.5 346,-79.5 465,-79.5 465,-49.5 346,-49.5"/>
<text text-anchor="start" x="354" y="-67.5" font-family="Helvetica,sans-Serif" font-size="10.00">KUKA::FRI::ClientData</text>
<text text-anchor="middle" x="405.5" y="-56.5" font-family="Helvetica,sans-Serif" font-size="10.00">::setAnalogIOValue</text>
</a>
</g>
</g>
<!-- Node11&#45;&gt;Node12 -->
<g id="edge13" class="edge">
<title>Node11&#45;&gt;Node12</title>
<path fill="none" stroke="midnightblue" d="M310.26,-64.5C318.65,-64.5 327.22,-64.5 335.62,-64.5"/>
<polygon fill="midnightblue" stroke="midnightblue" points="335.76,-68 345.76,-64.5 335.76,-61 335.76,-68"/>
</g>
<!-- Node13 -->
<g id="node13" class="node">
<title>Node13</title>
<g id="a_node13"><a xlink:href="struct_k_u_k_a_1_1_f_r_i_1_1_client_data.html#a95e1117745481a9624d4e868d9c0cbfe" target="_top" xlink:title=" ">
<polygon fill="white" stroke="black" points="501,-49.5 501,-79.5 620,-79.5 620,-49.5 501,-49.5"/>
<text text-anchor="start" x="509" y="-67.5" font-family="Helvetica,sans-Serif" font-size="10.00">KUKA::FRI::ClientData</text>
<text text-anchor="middle" x="560.5" y="-56.5" font-family="Helvetica,sans-Serif" font-size="10.00">::setIOValue</text>
</a>
</g>
</g>
<!-- Node12&#45;&gt;Node13 -->
<g id="edge14" class="edge">
<title>Node12&#45;&gt;Node13</title>
<path fill="none" stroke="midnightblue" d="M465.22,-64.5C473.54,-64.5 482.17,-64.5 490.67,-64.5"/>
<polygon fill="midnightblue" stroke="midnightblue" points="490.94,-68 500.94,-64.5 490.94,-61 490.94,-68"/>
</g>
<!-- Node13&#45;&gt;Node4 -->
<g id="edge15" class="edge">
<title>Node13&#45;&gt;Node4</title>
<path fill="none" stroke="midnightblue" d="M575.35,-79.8C602.32,-109.58 662.01,-175.52 693.73,-210.56"/>
<polygon fill="midnightblue" stroke="midnightblue" points="691.49,-213.3 700.79,-218.36 696.68,-208.6 691.49,-213.3"/>
</g>
<!-- Node15 -->
<g id="node15" class="node">
<title>Node15</title>
<g id="a_node15"><a xlink:href="struct_k_u_k_a_1_1_f_r_i_1_1_client_data.html#aac37310af7f0dd4db183106c278e0810" target="_top" xlink:title=" ">
<polygon fill="white" stroke="black" points="346,-0.5 346,-30.5 465,-30.5 465,-0.5 346,-0.5"/>
<text text-anchor="start" x="354" y="-18.5" font-family="Helvetica,sans-Serif" font-size="10.00">KUKA::FRI::ClientData</text>
<text text-anchor="middle" x="405.5" y="-7.5" font-family="Helvetica,sans-Serif" font-size="10.00">::setDigitalIOValue</text>
</a>
</g>
</g>
<!-- Node14&#45;&gt;Node15 -->
<g id="edge17" class="edge">
<title>Node14&#45;&gt;Node15</title>
<path fill="none" stroke="midnightblue" d="M310.26,-15.5C318.65,-15.5 327.22,-15.5 335.62,-15.5"/>
<polygon fill="midnightblue" stroke="midnightblue" points="335.76,-19 345.76,-15.5 335.76,-12 335.76,-19"/>
</g>
<!-- Node15&#45;&gt;Node13 -->
<g id="edge18" class="edge">
<title>Node15&#45;&gt;Node13</title>
<path fill="none" stroke="midnightblue" d="M453.65,-30.6C469.14,-35.56 486.52,-41.13 502.65,-46.29"/>
<polygon fill="midnightblue" stroke="midnightblue" points="501.91,-49.73 512.5,-49.45 504.05,-43.07 501.91,-49.73"/>
</g>
</g>
</svg>
