<?xml version="1.0" encoding="UTF-8" standalone="no"?>
<!DOCTYPE svg PUBLIC "-//W3C//DTD SVG 1.1//EN"
 "http://www.w3.org/Graphics/SVG/1.1/DTD/svg11.dtd">
<!-- Generated by graphviz version 2.43.0 (0)
 -->
<!-- Title: KUKA::FRI::LBRClient::robotState Pages: 1 -->
<svg width="515pt" height="617pt"
 viewBox="0.00 0.00 515.00 617.00" xmlns="http://www.w3.org/2000/svg" xmlns:xlink="http://www.w3.org/1999/xlink">
<g id="graph0" class="graph" transform="scale(1 1) rotate(0) translate(4 613)">
<title>KUKA::FRI::LBRClient::robotState</title>
<polygon fill="white" stroke="transparent" points="-4,4 -4,-613 511,-613 511,4 -4,4"/>
<!-- Node1 -->
<g id="node1" class="node">
<title>Node1</title>
<g id="a_node1"><a xlink:title="Provide read access to the current robot state.">
<polygon fill="#bfbfbf" stroke="black" points="389,-294.5 389,-324.5 507,-324.5 507,-294.5 389,-294.5"/>
<text text-anchor="start" x="397" y="-312.5" font-family="Helvetica,sans-Serif" font-size="10.00">KUKA::FRI::LBRClient</text>
<text text-anchor="middle" x="448" y="-301.5" font-family="Helvetica,sans-Serif" font-size="10.00">::robotState</text>
</a>
</g>
</g>
<!-- Node2 -->
<g id="node2" class="node">
<title>Node2</title>
<g id="a_node2"><a xlink:href="class_l_b_r_joint_sine_overlay_client.html#af1c5d90f3aa1c1717f849f6c7f7a1ad5" target="_top" xlink:title="Callback for the FRI state &#39;Commanding Active&#39;.">
<polygon fill="white" stroke="black" points="211,-578.5 211,-608.5 347,-608.5 347,-578.5 211,-578.5"/>
<text text-anchor="start" x="219" y="-596.5" font-family="Helvetica,sans-Serif" font-size="10.00">LBRJointSineOverlayClient</text>
<text text-anchor="middle" x="279" y="-585.5" font-family="Helvetica,sans-Serif" font-size="10.00">::command</text>
</a>
</g>
</g>
<!-- Node1&#45;&gt;Node2 -->
<g id="edge1" class="edge">
<title>Node1&#45;&gt;Node2</title>
<path fill="none" stroke="midnightblue" d="M445.06,-334.76C439.76,-386.24 420.53,-503.92 353,-569.5 349.46,-572.94 345.42,-575.89 341.09,-578.41"/>
<polygon fill="midnightblue" stroke="midnightblue" points="448.57,-334.83 446.02,-324.55 441.6,-334.18 448.57,-334.83"/>
</g>
<!-- Node3 -->
<g id="node3" class="node">
<title>Node3</title>
<g id="a_node3"><a xlink:href="class_l_b_r_torque_sine_overlay_client.html#ac6be1b28bf0fbb6d4ef82b45e7cb28f4" target="_top" xlink:title="Callback for the FRI state &#39;Commanding Active&#39;.">
<polygon fill="white" stroke="black" points="207,-529.5 207,-559.5 351,-559.5 351,-529.5 207,-529.5"/>
<text text-anchor="start" x="215" y="-547.5" font-family="Helvetica,sans-Serif" font-size="10.00">LBRTorqueSineOverlayClient</text>
<text text-anchor="middle" x="279" y="-536.5" font-family="Helvetica,sans-Serif" font-size="10.00">::command</text>
</a>
</g>
</g>
<!-- Node1&#45;&gt;Node3 -->
<g id="edge2" class="edge">
<title>Node1&#45;&gt;Node3</title>
<path fill="none" stroke="midnightblue" d="M442.67,-334.58C433.77,-378.53 409.36,-469.59 353,-520.5 349.24,-523.9 344.98,-526.82 340.47,-529.32"/>
<polygon fill="midnightblue" stroke="midnightblue" points="446.11,-335.2 444.56,-324.72 439.24,-333.89 446.11,-335.2"/>
</g>
<!-- Node4 -->
<g id="node4" class="node">
<title>Node4</title>
<g id="a_node4"><a xlink:href="class_l_b_r_wrench_sine_overlay_client.html#ace90bc97d85544a1d2d12b0161a4a19b" target="_top" xlink:title="Callback for the FRI state &#39;Commanding Active&#39;.">
<polygon fill="white" stroke="black" points="205,-480.5 205,-510.5 353,-510.5 353,-480.5 205,-480.5"/>
<text text-anchor="start" x="213" y="-498.5" font-family="Helvetica,sans-Serif" font-size="10.00">LBRWrenchSineOverlayClient</text>
<text text-anchor="middle" x="279" y="-487.5" font-family="Helvetica,sans-Serif" font-size="10.00">::command</text>
</a>
</g>
</g>
<!-- Node1&#45;&gt;Node4 -->
<g id="edge3" class="edge">
<title>Node1&#45;&gt;Node4</title>
<path fill="none" stroke="midnightblue" d="M438.94,-334.52C426.25,-370.03 398.29,-434.78 353,-471.5 348.75,-474.95 343.99,-477.9 338.99,-480.44"/>
<polygon fill="midnightblue" stroke="midnightblue" points="442.3,-335.51 442.25,-324.92 435.68,-333.23 442.3,-335.51"/>
</g>
<!-- Node5 -->
<g id="node5" class="node">
<title>Node5</title>
<g id="a_node5"><a xlink:href="class_k_u_k_a_1_1_f_r_i_1_1_l_b_r_client.html#a30e219dc3f5d5fe6f121e81f7728b57b" target="_top" xlink:title="Callback for the FRI session state &#39;Commanding&#39;.">
<polygon fill="white" stroke="black" points="220,-431.5 220,-461.5 338,-461.5 338,-431.5 220,-431.5"/>
<text text-anchor="start" x="228" y="-449.5" font-family="Helvetica,sans-Serif" font-size="10.00">KUKA::FRI::LBRClient</text>
<text text-anchor="middle" x="279" y="-438.5" font-family="Helvetica,sans-Serif" font-size="10.00">::command</text>
</a>
</g>
</g>
<!-- Node1&#45;&gt;Node5 -->
<g id="edge4" class="edge">
<title>Node1&#45;&gt;Node5</title>
<path fill="none" stroke="midnightblue" d="M432.94,-333.32C416.72,-358.84 387.77,-398.85 353,-422.5 348.04,-425.88 342.56,-428.81 336.91,-431.34"/>
<polygon fill="midnightblue" stroke="midnightblue" points="436.03,-334.97 438.33,-324.63 430.08,-331.28 436.03,-334.97"/>
</g>
<!-- Node6 -->
<g id="node6" class="node">
<title>Node6</title>
<g id="a_node6"><a xlink:href="class_i_o_access_client.html#a01d1b4f46c4b43527106ccfae8440255" target="_top" xlink:title=" ">
<polygon fill="white" stroke="black" points="210.5,-382.5 210.5,-412.5 347.5,-412.5 347.5,-382.5 210.5,-382.5"/>
<text text-anchor="start" x="218.5" y="-400.5" font-family="Helvetica,sans-Serif" font-size="10.00">IOAccessClient::getAndSet</text>
<text text-anchor="middle" x="279" y="-389.5" font-family="Helvetica,sans-Serif" font-size="10.00">Example</text>
</a>
</g>
</g>
<!-- Node1&#45;&gt;Node6 -->
<g id="edge5" class="edge">
<title>Node1&#45;&gt;Node6</title>
<path fill="none" stroke="midnightblue" d="M419.4,-330.8C401.26,-344.08 376.6,-360.8 353,-372.5 345.68,-376.13 337.7,-379.45 329.8,-382.4"/>
<polygon fill="midnightblue" stroke="midnightblue" points="421.81,-333.37 427.75,-324.6 417.63,-327.75 421.81,-333.37"/>
</g>
<!-- Node10 -->
<g id="node10" class="node">
<title>Node10</title>
<g id="a_node10"><a xlink:href="_i_o_access_app_8cpp.html#a3c04138a5bfe5d72780bb7e82a18e627" target="_top" xlink:title=" ">
<polygon fill="white" stroke="black" points="260,-344 260,-363 298,-363 298,-344 260,-344"/>
<text text-anchor="middle" x="279" y="-351" font-family="Helvetica,sans-Serif" font-size="10.00">main</text>
</a>
</g>
</g>
<!-- Node1&#45;&gt;Node10 -->
<g id="edge9" class="edge">
<title>Node1&#45;&gt;Node10</title>
<path fill="none" stroke="midnightblue" d="M380.43,-327.25C371.22,-329.69 361.87,-332.16 353,-334.5 334.26,-339.43 312.79,-345.01 298.01,-348.84"/>
<polygon fill="midnightblue" stroke="midnightblue" points="381.58,-330.57 390.35,-324.62 379.78,-323.8 381.58,-330.57"/>
</g>
<!-- Node11 -->
<g id="node11" class="node">
<title>Node11</title>
<g id="a_node11"><a xlink:href="class_k_u_k_a_1_1_f_r_i_1_1_l_b_r_client.html#a11c4e9df043726944c8b1da6b426934e" target="_top" xlink:title="Callback for the FRI session states &#39;Monitoring Wait&#39; and &#39;Monitoring Ready&#39;.">
<polygon fill="white" stroke="black" points="220,-294.5 220,-324.5 338,-324.5 338,-294.5 220,-294.5"/>
<text text-anchor="start" x="228" y="-312.5" font-family="Helvetica,sans-Serif" font-size="10.00">KUKA::FRI::LBRClient</text>
<text text-anchor="middle" x="279" y="-301.5" font-family="Helvetica,sans-Serif" font-size="10.00">::monitor</text>
</a>
</g>
</g>
<!-- Node1&#45;&gt;Node11 -->
<g id="edge10" class="edge">
<title>Node1&#45;&gt;Node11</title>
<path fill="none" stroke="midnightblue" d="M378.47,-309.5C365.06,-309.5 351.12,-309.5 338.09,-309.5"/>
<polygon fill="midnightblue" stroke="midnightblue" points="378.59,-313 388.59,-309.5 378.59,-306 378.59,-313"/>
</g>
<!-- Node13 -->
<g id="node13" class="node">
<title>Node13</title>
<g id="a_node13"><a xlink:href="class_l_b_r_joint_sine_overlay_client.html#adedf6bd417f072359ba63ecbfeed0a07" target="_top" xlink:title="Callback for FRI state changes.">
<polygon fill="white" stroke="black" points="211,-245.5 211,-275.5 347,-275.5 347,-245.5 211,-245.5"/>
<text text-anchor="start" x="219" y="-263.5" font-family="Helvetica,sans-Serif" font-size="10.00">LBRJointSineOverlayClient</text>
<text text-anchor="middle" x="279" y="-252.5" font-family="Helvetica,sans-Serif" font-size="10.00">::onStateChange</text>
</a>
</g>
</g>
<!-- Node1&#45;&gt;Node13 -->
<g id="edge12" class="edge">
<title>Node1&#45;&gt;Node13</title>
<path fill="none" stroke="midnightblue" d="M385.77,-291.53C367.87,-286.28 348.51,-280.6 331.3,-275.55"/>
<polygon fill="midnightblue" stroke="midnightblue" points="384.95,-294.94 395.53,-294.4 386.92,-288.22 384.95,-294.94"/>
</g>
<!-- Node14 -->
<g id="node14" class="node">
<title>Node14</title>
<g id="a_node14"><a xlink:href="class_l_b_r_torque_sine_overlay_client.html#afc6eeb71f86b2265228d7b9a8865ad1f" target="_top" xlink:title="Callback for FRI state changes.">
<polygon fill="white" stroke="black" points="207,-196.5 207,-226.5 351,-226.5 351,-196.5 207,-196.5"/>
<text text-anchor="start" x="215" y="-214.5" font-family="Helvetica,sans-Serif" font-size="10.00">LBRTorqueSineOverlayClient</text>
<text text-anchor="middle" x="279" y="-203.5" font-family="Helvetica,sans-Serif" font-size="10.00">::onStateChange</text>
</a>
</g>
</g>
<!-- Node1&#45;&gt;Node14 -->
<g id="edge13" class="edge">
<title>Node1&#45;&gt;Node14</title>
<path fill="none" stroke="midnightblue" d="M423.12,-287.33C405,-271.44 378.86,-250.46 353,-236.5 346.16,-232.81 338.68,-229.51 331.19,-226.61"/>
<polygon fill="midnightblue" stroke="midnightblue" points="421.07,-290.19 430.86,-294.23 425.72,-284.96 421.07,-290.19"/>
</g>
<!-- Node15 -->
<g id="node15" class="node">
<title>Node15</title>
<g id="a_node15"><a xlink:href="class_l_b_r_wrench_sine_overlay_client.html#a057d71ac5c28057955f32799fda956a6" target="_top" xlink:title="Callback for FRI state changes.">
<polygon fill="white" stroke="black" points="205,-147.5 205,-177.5 353,-177.5 353,-147.5 205,-147.5"/>
<text text-anchor="start" x="213" y="-165.5" font-family="Helvetica,sans-Serif" font-size="10.00">LBRWrenchSineOverlayClient</text>
<text text-anchor="middle" x="279" y="-154.5" font-family="Helvetica,sans-Serif" font-size="10.00">::onStateChange</text>
</a>
</g>
</g>
<!-- Node1&#45;&gt;Node15 -->
<g id="edge14" class="edge">
<title>Node1&#45;&gt;Node15</title>
<path fill="none" stroke="midnightblue" d="M434.3,-285.53C418.64,-258.13 389.54,-213.7 353,-187.5 347.67,-183.67 341.7,-180.4 335.54,-177.6"/>
<polygon fill="midnightblue" stroke="midnightblue" points="431.35,-287.42 439.27,-294.45 437.46,-284.01 431.35,-287.42"/>
</g>
<!-- Node16 -->
<g id="node16" class="node">
<title>Node16</title>
<g id="a_node16"><a xlink:href="class_l_b_r_torque_sine_overlay_client.html#a8d34866a1ee8c864ee1c1abeccb5028b" target="_top" xlink:title="Callback for the FRI session state &#39;Commanding Wait&#39;.">
<polygon fill="white" stroke="black" points="207,-98.5 207,-128.5 351,-128.5 351,-98.5 207,-98.5"/>
<text text-anchor="start" x="215" y="-116.5" font-family="Helvetica,sans-Serif" font-size="10.00">LBRTorqueSineOverlayClient</text>
<text text-anchor="middle" x="279" y="-105.5" font-family="Helvetica,sans-Serif" font-size="10.00">::waitForCommand</text>
</a>
</g>
</g>
<!-- Node1&#45;&gt;Node16 -->
<g id="edge15" class="edge">
<title>Node1&#45;&gt;Node16</title>
<path fill="none" stroke="midnightblue" d="M439.63,-284.3C427.53,-247.19 399.97,-177.98 353,-138.5 348.39,-134.62 343.14,-131.33 337.62,-128.55"/>
<polygon fill="midnightblue" stroke="midnightblue" points="436.44,-285.8 442.77,-294.29 443.11,-283.71 436.44,-285.8"/>
</g>
<!-- Node17 -->
<g id="node17" class="node">
<title>Node17</title>
<g id="a_node17"><a xlink:href="class_l_b_r_wrench_sine_overlay_client.html#ac75b5b35086e28f88d85fb8be9fd38f7" target="_top" xlink:title="Callback for the FRI session state &#39;Commanding Wait&#39;.">
<polygon fill="white" stroke="black" points="205,-49.5 205,-79.5 353,-79.5 353,-49.5 205,-49.5"/>
<text text-anchor="start" x="213" y="-67.5" font-family="Helvetica,sans-Serif" font-size="10.00">LBRWrenchSineOverlayClient</text>
<text text-anchor="middle" x="279" y="-56.5" font-family="Helvetica,sans-Serif" font-size="10.00">::waitForCommand</text>
</a>
</g>
</g>
<!-- Node1&#45;&gt;Node17 -->
<g id="edge16" class="edge">
<title>Node1&#45;&gt;Node17</title>
<path fill="none" stroke="midnightblue" d="M443.1,-284.39C434.77,-239.09 411.04,-143.41 353,-89.5 348.88,-85.67 344.14,-82.43 339.11,-79.68"/>
<polygon fill="midnightblue" stroke="midnightblue" points="439.66,-285.01 444.82,-294.26 446.55,-283.81 439.66,-285.01"/>
</g>
<!-- Node18 -->
<g id="node18" class="node">
<title>Node18</title>
<g id="a_node18"><a xlink:href="class_k_u_k_a_1_1_f_r_i_1_1_l_b_r_client.html#ac949b46d6adcb4f9902c38c5a724fa0b" target="_top" xlink:title="Callback for the FRI session state &#39;Commanding Wait&#39;.">
<polygon fill="white" stroke="black" points="220,-0.5 220,-30.5 338,-30.5 338,-0.5 220,-0.5"/>
<text text-anchor="start" x="228" y="-18.5" font-family="Helvetica,sans-Serif" font-size="10.00">KUKA::FRI::LBRClient</text>
<text text-anchor="middle" x="279" y="-7.5" font-family="Helvetica,sans-Serif" font-size="10.00">::waitForCommand</text>
</a>
</g>
</g>
<!-- Node1&#45;&gt;Node18 -->
<g id="edge17" class="edge">
<title>Node1&#45;&gt;Node18</title>
<path fill="none" stroke="midnightblue" d="M445.34,-284.16C440.53,-231.45 422.12,-109.19 353,-40.5 348.72,-36.25 343.7,-32.72 338.31,-29.79"/>
<polygon fill="midnightblue" stroke="midnightblue" points="441.86,-284.63 446.17,-294.31 448.84,-284.05 441.86,-284.63"/>
</g>
<!-- Node7 -->
<g id="node7" class="node">
<title>Node7</title>
<g id="a_node7"><a xlink:href="class_i_o_access_client.html#ae855d596323dfa86d9d089203092ec04" target="_top" xlink:title="Callback for the FRI session state &#39;Commanding&#39;.">
<polygon fill="white" stroke="black" points="17.5,-426 17.5,-445 151.5,-445 151.5,-426 17.5,-426"/>
<text text-anchor="middle" x="84.5" y="-433" font-family="Helvetica,sans-Serif" font-size="10.00">IOAccessClient::command</text>
</a>
</g>
</g>
<!-- Node6&#45;&gt;Node7 -->
<g id="edge6" class="edge">
<title>Node6&#45;&gt;Node7</title>
<path fill="none" stroke="midnightblue" d="M200.51,-412.8C177.99,-417.24 154.04,-421.97 133.86,-425.95"/>
<polygon fill="midnightblue" stroke="midnightblue" points="201.27,-416.21 210.4,-410.84 199.91,-409.35 201.27,-416.21"/>
</g>
<!-- Node8 -->
<g id="node8" class="node">
<title>Node8</title>
<g id="a_node8"><a xlink:href="class_i_o_access_client.html#adbfc68a5d43cc546ba6e31b61c3528b4" target="_top" xlink:title="Callback for the FRI session states &#39;Monitoring Wait&#39; and &#39;Monitoring Ready&#39;.">
<polygon fill="white" stroke="black" points="22.5,-388 22.5,-407 146.5,-407 146.5,-388 22.5,-388"/>
<text text-anchor="middle" x="84.5" y="-395" font-family="Helvetica,sans-Serif" font-size="10.00">IOAccessClient::monitor</text>
</a>
</g>
</g>
<!-- Node6&#45;&gt;Node8 -->
<g id="edge7" class="edge">
<title>Node6&#45;&gt;Node8</title>
<path fill="none" stroke="midnightblue" d="M200.28,-397.5C182.37,-397.5 163.58,-397.5 146.51,-397.5"/>
<polygon fill="midnightblue" stroke="midnightblue" points="200.4,-401 210.4,-397.5 200.4,-394 200.4,-401"/>
</g>
<!-- Node9 -->
<g id="node9" class="node">
<title>Node9</title>
<g id="a_node9"><a xlink:href="class_i_o_access_client.html#ace9215030d5cdb787ad8f200ba073e8c" target="_top" xlink:title="Callback for the FRI session state &#39;Commanding Wait&#39;.">
<polygon fill="white" stroke="black" points="0,-350 0,-369 169,-369 169,-350 0,-350"/>
<text text-anchor="middle" x="84.5" y="-357" font-family="Helvetica,sans-Serif" font-size="10.00">IOAccessClient::waitForCommand</text>
</a>
</g>
</g>
<!-- Node6&#45;&gt;Node9 -->
<g id="edge8" class="edge">
<title>Node6&#45;&gt;Node9</title>
<path fill="none" stroke="midnightblue" d="M200.51,-382.2C177.99,-377.76 154.04,-373.03 133.86,-369.05"/>
<polygon fill="midnightblue" stroke="midnightblue" points="199.91,-385.65 210.4,-384.16 201.27,-378.79 199.91,-385.65"/>
</g>
<!-- Node12 -->
<g id="node12" class="node">
<title>Node12</title>
<g id="a_node12"><a xlink:href="class_my_l_b_r_client.html#a0edb8cb5b23dea3804b2946d374821ee" target="_top" xlink:title="Callback for the FRI session states &#39;Monitoring Wait&#39; and &#39;Monitoring Ready&#39;.">
<polygon fill="white" stroke="black" points="28,-300 28,-319 141,-319 141,-300 28,-300"/>
<text text-anchor="middle" x="84.5" y="-307" font-family="Helvetica,sans-Serif" font-size="10.00">MyLBRClient::monitor</text>
</a>
</g>
</g>
<!-- Node11&#45;&gt;Node12 -->
<g id="edge11" class="edge">
<title>Node11&#45;&gt;Node12</title>
<path fill="none" stroke="midnightblue" d="M209.82,-309.5C187.3,-309.5 162.54,-309.5 141.09,-309.5"/>
<polygon fill="midnightblue" stroke="midnightblue" points="209.98,-313 219.98,-309.5 209.98,-306 209.98,-313"/>
</g>
<!-- Node19 -->
<g id="node19" class="node">
<title>Node19</title>
<g id="a_node19"><a xlink:href="class_my_l_b_r_client.html#a32e8d5369604b74411c6c580b626e47c" target="_top" xlink:title="Callback for the FRI session state &#39;Commanding Wait&#39;.">
<polygon fill="white" stroke="black" points="5.5,-6 5.5,-25 163.5,-25 163.5,-6 5.5,-6"/>
<text text-anchor="middle" x="84.5" y="-13" font-family="Helvetica,sans-Serif" font-size="10.00">MyLBRClient::waitForCommand</text>
</a>
</g>
</g>
<!-- Node18&#45;&gt;Node19 -->
<g id="edge18" class="edge">
<title>Node18&#45;&gt;Node19</title>
<path fill="none" stroke="midnightblue" d="M209.82,-15.5C194.89,-15.5 178.97,-15.5 163.68,-15.5"/>
<polygon fill="midnightblue" stroke="midnightblue" points="209.98,-19 219.98,-15.5 209.98,-12 209.98,-19"/>
</g>
</g>
</svg>
