<?xml version="1.0" encoding="UTF-8" standalone="no"?>
<!DOCTYPE svg PUBLIC "-//W3C//DTD SVG 1.1//EN"
 "http://www.w3.org/Graphics/SVG/1.1/DTD/svg11.dtd">
<!-- Generated by graphviz version 2.43.0 (0)
 -->
<!-- Title: KUKA::FRI::LBRCommand::setWrench Pages: 1 -->
<svg width="329pt" height="88pt"
 viewBox="0.00 0.00 329.00 88.00" xmlns="http://www.w3.org/2000/svg" xmlns:xlink="http://www.w3.org/1999/xlink">
<g id="graph0" class="graph" transform="scale(1 1) rotate(0) translate(4 84)">
<title>KUKA::FRI::LBRCommand::setWrench</title>
<polygon fill="white" stroke="transparent" points="-4,4 -4,-84 325,-84 325,4 -4,4"/>
<!-- Node1 -->
<g id="node1" class="node">
<title>Node1</title>
<g id="a_node1"><a xlink:title="Set the applied wrench vector of the current interpolation step.">
<polygon fill="#bfbfbf" stroke="black" points="184,-24.5 184,-54.5 321,-54.5 321,-24.5 184,-24.5"/>
<text text-anchor="start" x="192" y="-42.5" font-family="Helvetica,sans-Serif" font-size="10.00">KUKA::FRI::LBRCommand</text>
<text text-anchor="middle" x="252.5" y="-31.5" font-family="Helvetica,sans-Serif" font-size="10.00">::setWrench</text>
</a>
</g>
</g>
<!-- Node2 -->
<g id="node2" class="node">
<title>Node2</title>
<g id="a_node2"><a xlink:href="class_l_b_r_wrench_sine_overlay_client.html#ace90bc97d85544a1d2d12b0161a4a19b" target="_top" xlink:title="Callback for the FRI state &#39;Commanding Active&#39;.">
<polygon fill="white" stroke="black" points="0,-49.5 0,-79.5 148,-79.5 148,-49.5 0,-49.5"/>
<text text-anchor="start" x="8" y="-67.5" font-family="Helvetica,sans-Serif" font-size="10.00">LBRWrenchSineOverlayClient</text>
<text text-anchor="middle" x="74" y="-56.5" font-family="Helvetica,sans-Serif" font-size="10.00">::command</text>
</a>
</g>
</g>
<!-- Node1&#45;&gt;Node2 -->
<g id="edge1" class="edge">
<title>Node1&#45;&gt;Node2</title>
<path fill="none" stroke="midnightblue" d="M173.82,-50.5C165.28,-51.71 156.61,-52.94 148.13,-54.14"/>
<polygon fill="midnightblue" stroke="midnightblue" points="174.35,-53.96 183.77,-49.09 173.37,-47.03 174.35,-53.96"/>
</g>
<!-- Node3 -->
<g id="node3" class="node">
<title>Node3</title>
<g id="a_node3"><a xlink:href="class_l_b_r_wrench_sine_overlay_client.html#ac75b5b35086e28f88d85fb8be9fd38f7" target="_top" xlink:title="Callback for the FRI session state &#39;Commanding Wait&#39;.">
<polygon fill="white" stroke="black" points="0,-0.5 0,-30.5 148,-30.5 148,-0.5 0,-0.5"/>
<text text-anchor="start" x="8" y="-18.5" font-family="Helvetica,sans-Serif" font-size="10.00">LBRWrenchSineOverlayClient</text>
<text text-anchor="middle" x="74" y="-7.5" font-family="Helvetica,sans-Serif" font-size="10.00">::waitForCommand</text>
</a>
</g>
</g>
<!-- Node1&#45;&gt;Node3 -->
<g id="edge2" class="edge">
<title>Node1&#45;&gt;Node3</title>
<path fill="none" stroke="midnightblue" d="M173.82,-28.94C165.28,-27.78 156.61,-26.6 148.13,-25.44"/>
<polygon fill="midnightblue" stroke="midnightblue" points="173.38,-32.41 183.77,-30.29 174.33,-25.47 173.38,-32.41"/>
</g>
</g>
</svg>
