<?xml version="1.0" encoding="UTF-8" standalone="no"?>
<!DOCTYPE svg PUBLIC "-//W3C//DTD SVG 1.1//EN"
 "http://www.w3.org/Graphics/SVG/1.1/DTD/svg11.dtd">
<!-- Generated by graphviz version 2.43.0 (0)
 -->
<!-- Title: KUKA::FRI::LBRState::getSampleTime Pages: 1 -->
<svg width="308pt" height="137pt"
 viewBox="0.00 0.00 308.00 137.00" xmlns="http://www.w3.org/2000/svg" xmlns:xlink="http://www.w3.org/1999/xlink">
<g id="graph0" class="graph" transform="scale(1 1) rotate(0) translate(4 133)">
<title>KUKA::FRI::LBRState::getSampleTime</title>
<polygon fill="white" stroke="transparent" points="-4,4 -4,-133 304,-133 304,4 -4,4"/>
<!-- Node1 -->
<g id="node1" class="node">
<title>Node1</title>
<g id="a_node1"><a xlink:title="Get the sample time in seconds.">
<polygon fill="#bfbfbf" stroke="black" points="184,-49.5 184,-79.5 300,-79.5 300,-49.5 184,-49.5"/>
<text text-anchor="start" x="192" y="-67.5" font-family="Helvetica,sans-Serif" font-size="10.00">KUKA::FRI::LBRState</text>
<text text-anchor="middle" x="242" y="-56.5" font-family="Helvetica,sans-Serif" font-size="10.00">::getSampleTime</text>
</a>
</g>
</g>
<!-- Node2 -->
<g id="node2" class="node">
<title>Node2</title>
<g id="a_node2"><a xlink:href="class_l_b_r_joint_sine_overlay_client.html#adedf6bd417f072359ba63ecbfeed0a07" target="_top" xlink:title="Callback for FRI state changes.">
<polygon fill="white" stroke="black" points="6,-98.5 6,-128.5 142,-128.5 142,-98.5 6,-98.5"/>
<text text-anchor="start" x="14" y="-116.5" font-family="Helvetica,sans-Serif" font-size="10.00">LBRJointSineOverlayClient</text>
<text text-anchor="middle" x="74" y="-105.5" font-family="Helvetica,sans-Serif" font-size="10.00">::onStateChange</text>
</a>
</g>
</g>
<!-- Node1&#45;&gt;Node2 -->
<g id="edge1" class="edge">
<title>Node1&#45;&gt;Node2</title>
<path fill="none" stroke="midnightblue" d="M180.13,-82.47C162.35,-87.72 143.1,-93.4 125.99,-98.45"/>
<polygon fill="midnightblue" stroke="midnightblue" points="181.24,-85.79 189.84,-79.6 179.26,-79.08 181.24,-85.79"/>
</g>
<!-- Node3 -->
<g id="node3" class="node">
<title>Node3</title>
<g id="a_node3"><a xlink:href="class_l_b_r_torque_sine_overlay_client.html#afc6eeb71f86b2265228d7b9a8865ad1f" target="_top" xlink:title="Callback for FRI state changes.">
<polygon fill="white" stroke="black" points="2,-49.5 2,-79.5 146,-79.5 146,-49.5 2,-49.5"/>
<text text-anchor="start" x="10" y="-67.5" font-family="Helvetica,sans-Serif" font-size="10.00">LBRTorqueSineOverlayClient</text>
<text text-anchor="middle" x="74" y="-56.5" font-family="Helvetica,sans-Serif" font-size="10.00">::onStateChange</text>
</a>
</g>
</g>
<!-- Node1&#45;&gt;Node3 -->
<g id="edge2" class="edge">
<title>Node1&#45;&gt;Node3</title>
<path fill="none" stroke="midnightblue" d="M173.71,-64.5C164.59,-64.5 155.2,-64.5 146.02,-64.5"/>
<polygon fill="midnightblue" stroke="midnightblue" points="173.87,-68 183.87,-64.5 173.87,-61 173.87,-68"/>
</g>
<!-- Node4 -->
<g id="node4" class="node">
<title>Node4</title>
<g id="a_node4"><a xlink:href="class_l_b_r_wrench_sine_overlay_client.html#a057d71ac5c28057955f32799fda956a6" target="_top" xlink:title="Callback for FRI state changes.">
<polygon fill="white" stroke="black" points="0,-0.5 0,-30.5 148,-30.5 148,-0.5 0,-0.5"/>
<text text-anchor="start" x="8" y="-18.5" font-family="Helvetica,sans-Serif" font-size="10.00">LBRWrenchSineOverlayClient</text>
<text text-anchor="middle" x="74" y="-7.5" font-family="Helvetica,sans-Serif" font-size="10.00">::onStateChange</text>
</a>
</g>
</g>
<!-- Node1&#45;&gt;Node4 -->
<g id="edge3" class="edge">
<title>Node1&#45;&gt;Node4</title>
<path fill="none" stroke="midnightblue" d="M180.13,-46.53C162.35,-41.28 143.1,-35.6 125.99,-30.55"/>
<polygon fill="midnightblue" stroke="midnightblue" points="179.26,-49.92 189.84,-49.4 181.24,-43.21 179.26,-49.92"/>
</g>
</g>
</svg>
