<?xml version="1.0" encoding="UTF-8" standalone="no"?>
<!DOCTYPE svg PUBLIC "-//W3C//DTD SVG 1.1//EN"
 "http://www.w3.org/Graphics/SVG/1.1/DTD/svg11.dtd">
<!-- Generated by graphviz version 2.43.0 (0)
 -->
<!-- Title: KUKA::FRI::MonitoringMessageDecoder::initMessage Pages: 1 -->
<!--zoomable 180 -->
<svg id="main" version="1.1" xmlns="http://www.w3.org/2000/svg" xmlns:xlink="http://www.w3.org/1999/xlink" xml:space="preserve" onload="init(evt)">
<style type="text/css"><![CDATA[
.edge:hover path { stroke: red; }
.edge:hover polygon { stroke: red; fill: red; }
]]></style>
<script type="text/javascript"><![CDATA[
var edges = document.getElementsByTagName('g');
if (edges && edges.length) {
  for (var i=0;i<edges.length;i++) {
    if (edges[i].id.substr(0,4)=='edge') {
      edges[i].setAttribute('class','edge');
    }
  }
}
]]></script>
        <defs>
                <circle id="rim" cx="0" cy="0" r="7"/>
                <circle id="rim2" cx="0" cy="0" r="3.5"/>
                <g id="zoomPlus">
                        <use xlink:href="#rim" fill="#404040">
                                <set attributeName="fill" to="#808080" begin="zoomplus.mouseover" end="zoomplus.mouseout"/>
                        </use>
                        <path d="M-4,0h8M0,-4v8" fill="none" stroke="white" stroke-width="1.5" pointer-events="none"/>
                </g>
                <g id="zoomMin">
                        <use xlink:href="#rim" fill="#404040">
                                <set attributeName="fill" to="#808080" begin="zoomminus.mouseover" end="zoomminus.mouseout"/>
                        </use>
                        <path d="M-4,0h8" fill="none" stroke="white" stroke-width="1.5" pointer-events="none"/>
                </g>
                <g id="dirArrow">
                        <path fill="none" stroke="white" stroke-width="1.5" d="M0,-3.0v7 M-2.5,-0.5L0,-3.0L2.5,-0.5"/>
                </g>
               <g id="resetDef">
                       <use xlink:href="#rim2" fill="#404040">
                               <set attributeName="fill" to="#808080" begin="reset.mouseover" end="reset.mouseout"/>
                       </use>
               </g>
        </defs>

<script type="text/javascript">
var viewWidth = 1064;
var viewHeight = 180;
var sectionId = 'dynsection-4';
</script>
<script xlink:href="svgpan.js"/>
<svg id="graph" class="graph">
<g id="viewport">
<title>KUKA::FRI::MonitoringMessageDecoder::initMessage</title>
<polygon fill="white" stroke="transparent" points="-4,4 -4,-176 1060,-176 1060,4 -4,4"/>
<!-- Node1 -->
<g id="node1" class="node">
<title>Node1</title>
<g id="a_node1"><a xlink:title=" ">
<polygon fill="#bfbfbf" stroke="black" points="0,-76 0,-106 158,-106 158,-76 0,-76"/>
<text text-anchor="start" x="8" y="-94" font-family="Helvetica,sans-Serif" font-size="10.00">KUKA::FRI::MonitoringMessage</text>
<text text-anchor="middle" x="79" y="-83" font-family="Helvetica,sans-Serif" font-size="10.00">Decoder::initMessage</text>
</a>
</g>
</g>
<!-- Node2 -->
<g id="node2" class="node">
<title>Node2</title>
<g id="a_node2"><a xlink:href="pb__frimessages__callbacks_8c.html#a5283f13633c8400371ab65d44d905901" target="_top" xlink:title=" ">
<polygon fill="white" stroke="black" points="194,-109.5 194,-128.5 303,-128.5 303,-109.5 194,-109.5"/>
<text text-anchor="middle" x="248.5" y="-116.5" font-family="Helvetica,sans-Serif" font-size="10.00">map_repeatedDouble</text>
</a>
</g>
</g>
<!-- Node1&#45;&gt;Node2 -->
<g id="edge1" class="edge">
<title>Node1&#45;&gt;Node2</title>
<path fill="none" stroke="midnightblue" d="M158.36,-104.1C166.83,-105.51 175.38,-106.94 183.65,-108.33"/>
<polygon fill="midnightblue" stroke="midnightblue" points="183.14,-111.79 193.58,-109.99 184.3,-104.89 183.14,-111.79"/>
</g>
<!-- Node14 -->
<g id="node14" class="node">
<title>Node14</title>
<g id="a_node14"><a xlink:href="pb__frimessages__callbacks_8c.html#a81a65250b51118ec352d28e397db9b6c" target="_top" xlink:title=" ">
<polygon fill="white" stroke="black" points="204,-62.5 204,-81.5 293,-81.5 293,-62.5 204,-62.5"/>
<text text-anchor="middle" x="248.5" y="-69.5" font-family="Helvetica,sans-Serif" font-size="10.00">map_repeatedInt</text>
</a>
</g>
</g>
<!-- Node1&#45;&gt;Node14 -->
<g id="edge14" class="edge">
<title>Node1&#45;&gt;Node14</title>
<path fill="none" stroke="midnightblue" d="M158.36,-82.11C170.35,-80.75 182.49,-79.37 193.79,-78.09"/>
<polygon fill="midnightblue" stroke="midnightblue" points="194.37,-81.55 203.91,-76.94 193.58,-74.59 194.37,-81.55"/>
</g>
<!-- Node3 -->
<g id="node3" class="node">
<title>Node3</title>
<g id="a_node3"><a xlink:href="pb__frimessages__callbacks_8c.html#ac9ec67cd47aed6ee622a420a41fa6540" target="_top" xlink:title=" ">
<polygon fill="white" stroke="black" points="339,-149.5 339,-168.5 461,-168.5 461,-149.5 339,-149.5"/>
<text text-anchor="middle" x="400" y="-156.5" font-family="Helvetica,sans-Serif" font-size="10.00">decode_repeatedDouble</text>
</a>
</g>
</g>
<!-- Node2&#45;&gt;Node3 -->
<g id="edge2" class="edge">
<title>Node2&#45;&gt;Node3</title>
<path fill="none" stroke="midnightblue" d="M285.31,-128.58C305.83,-134.07 331.79,-141.02 353.72,-146.89"/>
<polygon fill="midnightblue" stroke="midnightblue" points="352.92,-150.29 363.48,-149.5 354.73,-143.53 352.92,-150.29"/>
</g>
<!-- Node7 -->
<g id="node7" class="node">
<title>Node7</title>
<g id="a_node7"><a xlink:href="pb__frimessages__callbacks_8c.html#a3841575aaa517c808aeba5ab3e4f4e48" target="_top" xlink:title=" ">
<polygon fill="white" stroke="black" points="339,-109.5 339,-128.5 461,-128.5 461,-109.5 339,-109.5"/>
<text text-anchor="middle" x="400" y="-116.5" font-family="Helvetica,sans-Serif" font-size="10.00">encode_repeatedDouble</text>
</a>
</g>
</g>
<!-- Node2&#45;&gt;Node7 -->
<g id="edge6" class="edge">
<title>Node2&#45;&gt;Node7</title>
<path fill="none" stroke="midnightblue" d="M303.05,-119C311.42,-119 320.18,-119 328.85,-119"/>
<polygon fill="midnightblue" stroke="midnightblue" points="328.97,-122.5 338.97,-119 328.97,-115.5 328.97,-122.5"/>
</g>
<!-- Node4 -->
<g id="node4" class="node">
<title>Node4</title>
<g id="a_node4"><a xlink:href="pb__decode_8c.html#abdd5881d0bc42df1a78d46f487065681" target="_top" xlink:title=" ">
<polygon fill="white" stroke="black" points="507.5,-152.5 507.5,-171.5 608.5,-171.5 608.5,-152.5 507.5,-152.5"/>
<text text-anchor="middle" x="558" y="-159.5" font-family="Helvetica,sans-Serif" font-size="10.00">pb_decode_fixed64</text>
</a>
</g>
</g>
<!-- Node3&#45;&gt;Node4 -->
<g id="edge3" class="edge">
<title>Node3&#45;&gt;Node4</title>
<path fill="none" stroke="midnightblue" d="M461.31,-160.16C473.12,-160.39 485.49,-160.62 497.28,-160.85"/>
<polygon fill="midnightblue" stroke="midnightblue" points="497.39,-164.35 507.45,-161.05 497.52,-157.36 497.39,-164.35"/>
</g>
<!-- Node5 -->
<g id="node5" class="node">
<title>Node5</title>
<g id="a_node5"><a xlink:href="pb__decode_8c.html#ad54a52168427208d756087919ff82d41" target="_top" xlink:title=" ">
<polygon fill="white" stroke="black" points="671,-152.5 671,-171.5 722,-171.5 722,-152.5 671,-152.5"/>
<text text-anchor="middle" x="696.5" y="-159.5" font-family="Helvetica,sans-Serif" font-size="10.00">pb_read</text>
</a>
</g>
</g>
<!-- Node4&#45;&gt;Node5 -->
<g id="edge4" class="edge">
<title>Node4&#45;&gt;Node5</title>
<path fill="none" stroke="midnightblue" d="M608.67,-162C625.88,-162 644.81,-162 660.59,-162"/>
<polygon fill="midnightblue" stroke="midnightblue" points="660.95,-165.5 670.95,-162 660.95,-158.5 660.95,-165.5"/>
</g>
<!-- Node6 -->
<g id="node6" class="node">
<title>Node6</title>
<g id="a_node6"><a xlink:href="pb__decode_8c.html#a9746f7244f9d14b2a095ddfcad55febe" target="_top" xlink:title=" ">
<polygon fill="white" stroke="black" points="797.5,-152.5 797.5,-171.5 851.5,-171.5 851.5,-152.5 797.5,-152.5"/>
<text text-anchor="middle" x="824.5" y="-159.5" font-family="Helvetica,sans-Serif" font-size="10.00">buf_read</text>
</a>
</g>
</g>
<!-- Node5&#45;&gt;Node6 -->
<g id="edge5" class="edge">
<title>Node5&#45;&gt;Node6</title>
<path fill="none" stroke="midnightblue" d="M722.09,-162C740.6,-162 766.25,-162 787.12,-162"/>
<polygon fill="midnightblue" stroke="midnightblue" points="787.23,-165.5 797.23,-162 787.23,-158.5 787.23,-165.5"/>
</g>
<!-- Node8 -->
<g id="node8" class="node">
<title>Node8</title>
<g id="a_node8"><a xlink:href="pb__encode_8c.html#ae61c01d23aaa60452a9f5d01e9a17833" target="_top" xlink:title=" ">
<polygon fill="white" stroke="black" points="774,-114.5 774,-133.5 875,-133.5 875,-114.5 774,-114.5"/>
<text text-anchor="middle" x="824.5" y="-121.5" font-family="Helvetica,sans-Serif" font-size="10.00">pb_encode_fixed64</text>
</a>
</g>
</g>
<!-- Node7&#45;&gt;Node8 -->
<g id="edge7" class="edge">
<title>Node7&#45;&gt;Node8</title>
<path fill="none" stroke="midnightblue" d="M461.09,-119.71C541.43,-120.66 683.04,-122.34 763.39,-123.29"/>
<polygon fill="midnightblue" stroke="midnightblue" points="763.8,-126.79 773.84,-123.41 763.88,-119.79 763.8,-126.79"/>
</g>
<!-- Node11 -->
<g id="node11" class="node">
<title>Node11</title>
<g id="a_node11"><a xlink:href="pb__encode_8c.html#a3e0f1ac29dce37f78220ecd6b9d21cba" target="_top" xlink:title=" ">
<polygon fill="white" stroke="black" points="497,-76.5 497,-95.5 619,-95.5 619,-76.5 497,-76.5"/>
<text text-anchor="middle" x="558" y="-83.5" font-family="Helvetica,sans-Serif" font-size="10.00">pb_encode_tag_for_field</text>
</a>
</g>
</g>
<!-- Node7&#45;&gt;Node11 -->
<g id="edge10" class="edge">
<title>Node7&#45;&gt;Node11</title>
<path fill="none" stroke="midnightblue" d="M446.12,-109.46C463.58,-105.76 483.74,-101.5 502.04,-97.63"/>
<polygon fill="midnightblue" stroke="midnightblue" points="502.92,-101.02 511.98,-95.52 501.47,-94.17 502.92,-101.02"/>
</g>
<!-- Node9 -->
<g id="node9" class="node">
<title>Node9</title>
<g id="a_node9"><a xlink:href="pb__encode_8c.html#a6f8d972fa4a439724532f0bcc07de81d" target="_top" xlink:title=" ">
<polygon fill="white" stroke="black" points="911,-95.5 911,-114.5 964,-114.5 964,-95.5 911,-95.5"/>
<text text-anchor="middle" x="937.5" y="-102.5" font-family="Helvetica,sans-Serif" font-size="10.00">pb_write</text>
</a>
</g>
</g>
<!-- Node8&#45;&gt;Node9 -->
<g id="edge8" class="edge">
<title>Node8&#45;&gt;Node9</title>
<path fill="none" stroke="midnightblue" d="M875.16,-115.5C883.84,-114.01 892.72,-112.49 900.93,-111.09"/>
<polygon fill="midnightblue" stroke="midnightblue" points="901.64,-114.52 910.9,-109.38 900.45,-107.62 901.64,-114.52"/>
</g>
<!-- Node10 -->
<g id="node10" class="node">
<title>Node10</title>
<g id="a_node10"><a xlink:href="pb__encode_8c.html#aa987a466c397e7769605789cc0b22054" target="_top" xlink:title=" ">
<polygon fill="white" stroke="black" points="1000,-95.5 1000,-114.5 1056,-114.5 1056,-95.5 1000,-95.5"/>
<text text-anchor="middle" x="1028" y="-102.5" font-family="Helvetica,sans-Serif" font-size="10.00">buf_write</text>
</a>
</g>
</g>
<!-- Node9&#45;&gt;Node10 -->
<g id="edge9" class="edge">
<title>Node9&#45;&gt;Node10</title>
<path fill="none" stroke="midnightblue" d="M964.1,-105C972.08,-105 981.06,-105 989.68,-105"/>
<polygon fill="midnightblue" stroke="midnightblue" points="989.92,-108.5 999.92,-105 989.92,-101.5 989.92,-108.5"/>
</g>
<!-- Node12 -->
<g id="node12" class="node">
<title>Node12</title>
<g id="a_node12"><a xlink:href="pb__encode_8c.html#acfbcc89e5e4355b8c263d6d4f2bc8c6f" target="_top" xlink:title=" ">
<polygon fill="white" stroke="black" points="655,-76.5 655,-95.5 738,-95.5 738,-76.5 655,-76.5"/>
<text text-anchor="middle" x="696.5" y="-83.5" font-family="Helvetica,sans-Serif" font-size="10.00">pb_encode_tag</text>
</a>
</g>
</g>
<!-- Node11&#45;&gt;Node12 -->
<g id="edge11" class="edge">
<title>Node11&#45;&gt;Node12</title>
<path fill="none" stroke="midnightblue" d="M619.27,-86C627.7,-86 636.31,-86 644.55,-86"/>
<polygon fill="midnightblue" stroke="midnightblue" points="644.75,-89.5 654.75,-86 644.75,-82.5 644.75,-89.5"/>
</g>
<!-- Node13 -->
<g id="node13" class="node">
<title>Node13</title>
<g id="a_node13"><a xlink:href="pb__encode_8c.html#a568e2eb180774ef4e07de89508edb52b" target="_top" xlink:title=" ">
<polygon fill="white" stroke="black" points="778,-76.5 778,-95.5 871,-95.5 871,-76.5 778,-76.5"/>
<text text-anchor="middle" x="824.5" y="-83.5" font-family="Helvetica,sans-Serif" font-size="10.00">pb_encode_varint</text>
</a>
</g>
</g>
<!-- Node12&#45;&gt;Node13 -->
<g id="edge12" class="edge">
<title>Node12&#45;&gt;Node13</title>
<path fill="none" stroke="midnightblue" d="M738.06,-86C747.46,-86 757.62,-86 767.55,-86"/>
<polygon fill="midnightblue" stroke="midnightblue" points="767.77,-89.5 777.77,-86 767.77,-82.5 767.77,-89.5"/>
</g>
<!-- Node13&#45;&gt;Node9 -->
<g id="edge13" class="edge">
<title>Node13&#45;&gt;Node9</title>
<path fill="none" stroke="midnightblue" d="M871.29,-93.84C881.09,-95.52 891.32,-97.27 900.68,-98.87"/>
<polygon fill="midnightblue" stroke="midnightblue" points="900.38,-102.37 910.82,-100.6 901.56,-95.47 900.38,-102.37"/>
</g>
<!-- Node15 -->
<g id="node15" class="node">
<title>Node15</title>
<g id="a_node15"><a xlink:href="pb__frimessages__callbacks_8c.html#a73c0b03ce19bcaebfb2c5956739c255c" target="_top" xlink:title=" ">
<polygon fill="white" stroke="black" points="349,-19.5 349,-38.5 451,-38.5 451,-19.5 349,-19.5"/>
<text text-anchor="middle" x="400" y="-26.5" font-family="Helvetica,sans-Serif" font-size="10.00">decode_repeatedInt</text>
</a>
</g>
</g>
<!-- Node14&#45;&gt;Node15 -->
<g id="edge15" class="edge">
<title>Node14&#45;&gt;Node15</title>
<path fill="none" stroke="midnightblue" d="M282.68,-62.46C304.36,-56.22 332.87,-48.02 356.25,-41.3"/>
<polygon fill="midnightblue" stroke="midnightblue" points="357.27,-44.64 365.91,-38.52 355.34,-37.92 357.27,-44.64"/>
</g>
<!-- Node18 -->
<g id="node18" class="node">
<title>Node18</title>
<g id="a_node18"><a xlink:href="pb__frimessages__callbacks_8c.html#aca260ceb4ad963a7f5f6282ceaf17f2b" target="_top" xlink:title=" ">
<polygon fill="white" stroke="black" points="349,-62.5 349,-81.5 451,-81.5 451,-62.5 349,-62.5"/>
<text text-anchor="middle" x="400" y="-69.5" font-family="Helvetica,sans-Serif" font-size="10.00">encode_repeatedInt</text>
</a>
</g>
</g>
<!-- Node14&#45;&gt;Node18 -->
<g id="edge18" class="edge">
<title>Node14&#45;&gt;Node18</title>
<path fill="none" stroke="midnightblue" d="M293.14,-72C307.36,-72 323.4,-72 338.62,-72"/>
<polygon fill="midnightblue" stroke="midnightblue" points="338.99,-75.5 348.99,-72 338.99,-68.5 338.99,-75.5"/>
</g>
<!-- Node16 -->
<g id="node16" class="node">
<title>Node16</title>
<g id="a_node16"><a xlink:href="pb__decode_8c.html#a47bde3dca6b389ba0d58b1f0a7dad7c4" target="_top" xlink:title=" ">
<polygon fill="white" stroke="black" points="511.5,-0.5 511.5,-19.5 604.5,-19.5 604.5,-0.5 511.5,-0.5"/>
<text text-anchor="middle" x="558" y="-7.5" font-family="Helvetica,sans-Serif" font-size="10.00">pb_decode_varint</text>
</a>
</g>
</g>
<!-- Node15&#45;&gt;Node16 -->
<g id="edge16" class="edge">
<title>Node15&#45;&gt;Node16</title>
<path fill="none" stroke="midnightblue" d="M451.22,-22.88C467.22,-20.93 485.03,-18.77 501.39,-16.77"/>
<polygon fill="midnightblue" stroke="midnightblue" points="501.86,-20.24 511.37,-15.56 501.02,-13.29 501.86,-20.24"/>
</g>
<!-- Node17 -->
<g id="node17" class="node">
<title>Node17</title>
<g id="a_node17"><a xlink:href="pb__decode_8c.html#a13d38bcceb0a06bfc8c4c9c6da0f7258" target="_top" xlink:title=" ">
<polygon fill="white" stroke="black" points="661.5,-0.5 661.5,-19.5 731.5,-19.5 731.5,-0.5 661.5,-0.5"/>
<text text-anchor="middle" x="696.5" y="-7.5" font-family="Helvetica,sans-Serif" font-size="10.00">pb_readbyte</text>
</a>
</g>
</g>
<!-- Node16&#45;&gt;Node17 -->
<g id="edge17" class="edge">
<title>Node16&#45;&gt;Node17</title>
<path fill="none" stroke="midnightblue" d="M604.83,-10C619.67,-10 636.09,-10 650.83,-10"/>
<polygon fill="midnightblue" stroke="midnightblue" points="651.23,-13.5 661.23,-10 651.23,-6.5 651.23,-13.5"/>
</g>
<!-- Node18&#45;&gt;Node11 -->
<g id="edge19" class="edge">
<title>Node18&#45;&gt;Node11</title>
<path fill="none" stroke="midnightblue" d="M451.22,-76.51C462.56,-77.52 474.8,-78.62 486.8,-79.7"/>
<polygon fill="midnightblue" stroke="midnightblue" points="486.52,-83.19 496.79,-80.6 487.15,-76.22 486.52,-83.19"/>
</g>
<!-- Node18&#45;&gt;Node13 -->
<g id="edge20" class="edge">
<title>Node18&#45;&gt;Node13</title>
<path fill="none" stroke="midnightblue" d="M451.14,-67.39C517.14,-62.21 636.65,-55.87 738,-67 751.49,-68.48 765.97,-71.24 779.1,-74.2"/>
<polygon fill="midnightblue" stroke="midnightblue" points="778.31,-77.61 788.85,-76.49 779.91,-70.8 778.31,-77.61"/>
</g>
</g>
</svg>
        <g id="navigator" transform="translate(0 0)" fill="#404254">
                <rect fill="#f2f5e9" fill-opacity="0.5" stroke="#606060" stroke-width=".5" x="0" y="0" width="60" height="60"/>
                <use id="zoomplus" xlink:href="#zoomPlus" x="17" y="9" onmousedown="handleZoom(evt,'in')"/>
                <use id="zoomminus" xlink:href="#zoomMin" x="42" y="9" onmousedown="handleZoom(evt,'out')"/>
                <use id="reset" xlink:href="#resetDef" x="30" y="36" onmousedown="handleReset()"/>
                <g id="arrowUp" xlink:href="#dirArrow" transform="translate(30 24)" onmousedown="handlePan(0,-1)">
                  <use xlink:href="#rim" fill="#404040">
                        <set attributeName="fill" to="#808080" begin="arrowUp.mouseover" end="arrowUp.mouseout"/>
                  </use>
                  <path fill="none" stroke="white" stroke-width="1.5" d="M0,-3.0v7 M-2.5,-0.5L0,-3.0L2.5,-0.5"/>
                </g>
                <g id="arrowRight" xlink:href="#dirArrow" transform="rotate(90) translate(36 -43)" onmousedown="handlePan(1,0)">
                  <use xlink:href="#rim" fill="#404040">
                        <set attributeName="fill" to="#808080" begin="arrowRight.mouseover" end="arrowRight.mouseout"/>
                  </use>
                  <path fill="none" stroke="white" stroke-width="1.5" d="M0,-3.0v7 M-2.5,-0.5L0,-3.0L2.5,-0.5"/>
                </g>
                <g id="arrowDown" xlink:href="#dirArrow" transform="rotate(180) translate(-30 -48)" onmousedown="handlePan(0,1)">
                  <use xlink:href="#rim" fill="#404040">
                        <set attributeName="fill" to="#808080" begin="arrowDown.mouseover" end="arrowDown.mouseout"/>
                  </use>
                  <path fill="none" stroke="white" stroke-width="1.5" d="M0,-3.0v7 M-2.5,-0.5L0,-3.0L2.5,-0.5"/>
                </g>
                <g id="arrowLeft" xlink:href="#dirArrow" transform="rotate(270) translate(-36 17)" onmousedown="handlePan(-1,0)">
                  <use xlink:href="#rim" fill="#404040">
                        <set attributeName="fill" to="#808080" begin="arrowLeft.mouseover" end="arrowLeft.mouseout"/>
                  </use>
                  <path fill="none" stroke="white" stroke-width="1.5" d="M0,-3.0v7 M-2.5,-0.5L0,-3.0L2.5,-0.5"/>
                </g>
        </g>
        <svg viewBox="0 0 15 15" width="100%" height="30px" preserveAspectRatio="xMaxYMin meet">
         <g id="arrow_out" transform="scale(0.3 0.3)">
          <a xlink:href="class_k_u_k_a_1_1_f_r_i_1_1_monitoring_message_decoder_a5f7d8c50c6b2275a90ee8053eeeeda0a_cgraph_org.svg" target="_base">
           <rect id="button" ry="5" rx="5" y="6" x="6" height="38" width="38"
                fill="#f2f5e9" fill-opacity="0.5" stroke="#606060" stroke-width="1.0"/>
           <path id="arrow"
             d="M 11.500037,31.436501 C 11.940474,20.09759 22.043105,11.32322 32.158766,21.979434 L 37.068811,17.246167 C 37.068811,17.246167 37.088388,32 37.088388,32 L 22.160133,31.978069 C 22.160133,31.978069 26.997745,27.140456 26.997745,27.140456 C 18.528582,18.264221 13.291696,25.230495 11.500037,31.436501 z"
             style="fill:#404040;"/>
          </a>
         </g>
        </svg>
</svg>
