<?xml version="1.0" encoding="UTF-8" standalone="no"?>
<!DOCTYPE svg PUBLIC "-//W3C//DTD SVG 1.1//EN"
 "http://www.w3.org/Graphics/SVG/1.1/DTD/svg11.dtd">
<!-- Generated by graphviz version 2.43.0 (0)
 -->
<!-- Title: KUKA::FRI::LBRCommand::setJointPosition Pages: 1 -->
<svg width="511pt" height="186pt"
 viewBox="0.00 0.00 511.00 186.00" xmlns="http://www.w3.org/2000/svg" xmlns:xlink="http://www.w3.org/1999/xlink">
<g id="graph0" class="graph" transform="scale(1 1) rotate(0) translate(4 182)">
<title>KUKA::FRI::LBRCommand::setJointPosition</title>
<polygon fill="white" stroke="transparent" points="-4,4 -4,-182 507,-182 507,4 -4,4"/>
<!-- Node1 -->
<g id="node1" class="node">
<title>Node1</title>
<g id="a_node1"><a xlink:title="Set the joint positions for the current interpolation step.">
<polygon fill="#bfbfbf" stroke="black" points="366,-73.5 366,-103.5 503,-103.5 503,-73.5 366,-73.5"/>
<text text-anchor="start" x="374" y="-91.5" font-family="Helvetica,sans-Serif" font-size="10.00">KUKA::FRI::LBRCommand</text>
<text text-anchor="middle" x="434.5" y="-80.5" font-family="Helvetica,sans-Serif" font-size="10.00">::setJointPosition</text>
</a>
</g>
</g>
<!-- Node2 -->
<g id="node2" class="node">
<title>Node2</title>
<g id="a_node2"><a xlink:href="class_l_b_r_joint_sine_overlay_client.html#af1c5d90f3aa1c1717f849f6c7f7a1ad5" target="_top" xlink:title="Callback for the FRI state &#39;Commanding Active&#39;.">
<polygon fill="white" stroke="black" points="194,-147.5 194,-177.5 330,-177.5 330,-147.5 194,-147.5"/>
<text text-anchor="start" x="202" y="-165.5" font-family="Helvetica,sans-Serif" font-size="10.00">LBRJointSineOverlayClient</text>
<text text-anchor="middle" x="262" y="-154.5" font-family="Helvetica,sans-Serif" font-size="10.00">::command</text>
</a>
</g>
</g>
<!-- Node1&#45;&gt;Node2 -->
<g id="edge1" class="edge">
<title>Node1&#45;&gt;Node2</title>
<path fill="none" stroke="midnightblue" d="M395.34,-108.13C375.99,-117.78 351.98,-129.28 330,-138.5 322.71,-141.56 314.87,-144.59 307.22,-147.41"/>
<polygon fill="midnightblue" stroke="midnightblue" points="397.07,-111.18 404.43,-103.56 393.93,-104.93 397.07,-111.18"/>
</g>
<!-- Node3 -->
<g id="node3" class="node">
<title>Node3</title>
<g id="a_node3"><a xlink:href="class_k_u_k_a_1_1_f_r_i_1_1_l_b_r_client.html#a30e219dc3f5d5fe6f121e81f7728b57b" target="_top" xlink:title="Callback for the FRI session state &#39;Commanding&#39;.">
<polygon fill="white" stroke="black" points="203,-98.5 203,-128.5 321,-128.5 321,-98.5 203,-98.5"/>
<text text-anchor="start" x="211" y="-116.5" font-family="Helvetica,sans-Serif" font-size="10.00">KUKA::FRI::LBRClient</text>
<text text-anchor="middle" x="262" y="-105.5" font-family="Helvetica,sans-Serif" font-size="10.00">::command</text>
</a>
</g>
</g>
<!-- Node1&#45;&gt;Node3 -->
<g id="edge2" class="edge">
<title>Node1&#45;&gt;Node3</title>
<path fill="none" stroke="midnightblue" d="M355.5,-99.94C343.9,-101.64 332.12,-103.37 321.02,-104.99"/>
<polygon fill="midnightblue" stroke="midnightblue" points="356.24,-103.37 365.62,-98.45 355.22,-96.44 356.24,-103.37"/>
</g>
<!-- Node4 -->
<g id="node4" class="node">
<title>Node4</title>
<g id="a_node4"><a xlink:href="class_k_u_k_a_1_1_f_r_i_1_1_l_b_r_client.html#a11c4e9df043726944c8b1da6b426934e" target="_top" xlink:title="Callback for the FRI session states &#39;Monitoring Wait&#39; and &#39;Monitoring Ready&#39;.">
<polygon fill="white" stroke="black" points="203,-49.5 203,-79.5 321,-79.5 321,-49.5 203,-49.5"/>
<text text-anchor="start" x="211" y="-67.5" font-family="Helvetica,sans-Serif" font-size="10.00">KUKA::FRI::LBRClient</text>
<text text-anchor="middle" x="262" y="-56.5" font-family="Helvetica,sans-Serif" font-size="10.00">::monitor</text>
</a>
</g>
</g>
<!-- Node1&#45;&gt;Node4 -->
<g id="edge3" class="edge">
<title>Node1&#45;&gt;Node4</title>
<path fill="none" stroke="midnightblue" d="M355.5,-77.52C343.9,-75.89 332.12,-74.23 321.02,-72.67"/>
<polygon fill="midnightblue" stroke="midnightblue" points="355.23,-81.02 365.62,-78.95 356.21,-74.09 355.23,-81.02"/>
</g>
<!-- Node6 -->
<g id="node6" class="node">
<title>Node6</title>
<g id="a_node6"><a xlink:href="class_k_u_k_a_1_1_f_r_i_1_1_l_b_r_client.html#ac949b46d6adcb4f9902c38c5a724fa0b" target="_top" xlink:title="Callback for the FRI session state &#39;Commanding Wait&#39;.">
<polygon fill="white" stroke="black" points="203,-0.5 203,-30.5 321,-30.5 321,-0.5 203,-0.5"/>
<text text-anchor="start" x="211" y="-18.5" font-family="Helvetica,sans-Serif" font-size="10.00">KUKA::FRI::LBRClient</text>
<text text-anchor="middle" x="262" y="-7.5" font-family="Helvetica,sans-Serif" font-size="10.00">::waitForCommand</text>
</a>
</g>
</g>
<!-- Node1&#45;&gt;Node6 -->
<g id="edge5" class="edge">
<title>Node1&#45;&gt;Node6</title>
<path fill="none" stroke="midnightblue" d="M393.26,-68.96C374.23,-59.95 351.11,-49.32 330,-40.5 321.98,-37.15 313.34,-33.76 305.01,-30.61"/>
<polygon fill="midnightblue" stroke="midnightblue" points="391.99,-72.23 402.53,-73.37 395,-65.91 391.99,-72.23"/>
</g>
<!-- Node5 -->
<g id="node5" class="node">
<title>Node5</title>
<g id="a_node5"><a xlink:href="class_my_l_b_r_client.html#a0edb8cb5b23dea3804b2946d374821ee" target="_top" xlink:title="Callback for the FRI session states &#39;Monitoring Wait&#39; and &#39;Monitoring Ready&#39;.">
<polygon fill="white" stroke="black" points="22.5,-55 22.5,-74 135.5,-74 135.5,-55 22.5,-55"/>
<text text-anchor="middle" x="79" y="-62" font-family="Helvetica,sans-Serif" font-size="10.00">MyLBRClient::monitor</text>
</a>
</g>
</g>
<!-- Node4&#45;&gt;Node5 -->
<g id="edge4" class="edge">
<title>Node4&#45;&gt;Node5</title>
<path fill="none" stroke="midnightblue" d="M192.48,-64.5C173.72,-64.5 153.63,-64.5 135.69,-64.5"/>
<polygon fill="midnightblue" stroke="midnightblue" points="192.73,-68 202.73,-64.5 192.73,-61 192.73,-68"/>
</g>
<!-- Node7 -->
<g id="node7" class="node">
<title>Node7</title>
<g id="a_node7"><a xlink:href="class_my_l_b_r_client.html#a32e8d5369604b74411c6c580b626e47c" target="_top" xlink:title="Callback for the FRI session state &#39;Commanding Wait&#39;.">
<polygon fill="white" stroke="black" points="0,-6 0,-25 158,-25 158,-6 0,-6"/>
<text text-anchor="middle" x="79" y="-13" font-family="Helvetica,sans-Serif" font-size="10.00">MyLBRClient::waitForCommand</text>
</a>
</g>
</g>
<!-- Node6&#45;&gt;Node7 -->
<g id="edge6" class="edge">
<title>Node6&#45;&gt;Node7</title>
<path fill="none" stroke="midnightblue" d="M192.6,-15.5C181.4,-15.5 169.71,-15.5 158.29,-15.5"/>
<polygon fill="midnightblue" stroke="midnightblue" points="192.73,-19 202.73,-15.5 192.73,-12 192.73,-19"/>
</g>
</g>
</svg>
