<?xml version="1.0" encoding="UTF-8" standalone="no"?>
<!DOCTYPE svg PUBLIC "-//W3C//DTD SVG 1.1//EN"
 "http://www.w3.org/Graphics/SVG/1.1/DTD/svg11.dtd">
<!-- Generated by graphviz version 2.43.0 (0)
 -->
<!-- Title: LBRWrenchSineOverlayClient::onStateChange Pages: 1 -->
<svg width="310pt" height="88pt"
 viewBox="0.00 0.00 310.00 88.00" xmlns="http://www.w3.org/2000/svg" xmlns:xlink="http://www.w3.org/1999/xlink">
<g id="graph0" class="graph" transform="scale(1 1) rotate(0) translate(4 84)">
<title>LBRWrenchSineOverlayClient::onStateChange</title>
<polygon fill="white" stroke="transparent" points="-4,4 -4,-84 306,-84 306,4 -4,4"/>
<!-- Node1 -->
<g id="node1" class="node">
<title>Node1</title>
<g id="a_node1"><a xlink:title="Callback for FRI state changes.">
<polygon fill="#bfbfbf" stroke="black" points="0,-24.5 0,-54.5 148,-54.5 148,-24.5 0,-24.5"/>
<text text-anchor="start" x="8" y="-42.5" font-family="Helvetica,sans-Serif" font-size="10.00">LBRWrenchSineOverlayClient</text>
<text text-anchor="middle" x="74" y="-31.5" font-family="Helvetica,sans-Serif" font-size="10.00">::onStateChange</text>
</a>
</g>
</g>
<!-- Node2 -->
<g id="node2" class="node">
<title>Node2</title>
<g id="a_node2"><a xlink:href="class_k_u_k_a_1_1_f_r_i_1_1_l_b_r_state.html#a9d444c64abfae06e7f51d305b9800048" target="_top" xlink:title="Get the sample time in seconds.">
<polygon fill="white" stroke="black" points="185,-49.5 185,-79.5 301,-79.5 301,-49.5 185,-49.5"/>
<text text-anchor="start" x="193" y="-67.5" font-family="Helvetica,sans-Serif" font-size="10.00">KUKA::FRI::LBRState</text>
<text text-anchor="middle" x="243" y="-56.5" font-family="Helvetica,sans-Serif" font-size="10.00">::getSampleTime</text>
</a>
</g>
</g>
<!-- Node1&#45;&gt;Node2 -->
<g id="edge1" class="edge">
<title>Node1&#45;&gt;Node2</title>
<path fill="none" stroke="midnightblue" d="M148.25,-50.47C157.07,-51.79 166.04,-53.13 174.77,-54.44"/>
<polygon fill="midnightblue" stroke="midnightblue" points="174.47,-57.93 184.87,-55.95 175.5,-51.01 174.47,-57.93"/>
</g>
<!-- Node3 -->
<g id="node3" class="node">
<title>Node3</title>
<g id="a_node3"><a xlink:href="class_k_u_k_a_1_1_f_r_i_1_1_l_b_r_client.html#af99433aa6795f9b6764b0fb539188e6d" target="_top" xlink:title="Provide read access to the current robot state.">
<polygon fill="white" stroke="black" points="184,-0.5 184,-30.5 302,-30.5 302,-0.5 184,-0.5"/>
<text text-anchor="start" x="192" y="-18.5" font-family="Helvetica,sans-Serif" font-size="10.00">KUKA::FRI::LBRClient</text>
<text text-anchor="middle" x="243" y="-7.5" font-family="Helvetica,sans-Serif" font-size="10.00">::robotState</text>
</a>
</g>
</g>
<!-- Node1&#45;&gt;Node3 -->
<g id="edge2" class="edge">
<title>Node1&#45;&gt;Node3</title>
<path fill="none" stroke="midnightblue" d="M148.25,-28.97C156.72,-27.76 165.34,-26.52 173.74,-25.31"/>
<polygon fill="midnightblue" stroke="midnightblue" points="174.46,-28.74 183.86,-23.86 173.47,-21.81 174.46,-28.74"/>
</g>
</g>
</svg>
