<?xml version="1.0" encoding="UTF-8" standalone="no"?>
<!DOCTYPE svg PUBLIC "-//W3C//DTD SVG 1.1//EN"
 "http://www.w3.org/Graphics/SVG/1.1/DTD/svg11.dtd">
<!-- Generated by graphviz version 2.43.0 (0)
 -->
<!-- Title: LBRTorqueSineOverlayClient::onStateChange Pages: 1 -->
<svg width="306pt" height="88pt"
 viewBox="0.00 0.00 306.00 88.00" xmlns="http://www.w3.org/2000/svg" xmlns:xlink="http://www.w3.org/1999/xlink">
<g id="graph0" class="graph" transform="scale(1 1) rotate(0) translate(4 84)">
<title>LBRTorqueSineOverlayClient::onStateChange</title>
<polygon fill="white" stroke="transparent" points="-4,4 -4,-84 302,-84 302,4 -4,4"/>
<!-- Node1 -->
<g id="node1" class="node">
<title>Node1</title>
<g id="a_node1"><a xlink:title="Callback for FRI state changes.">
<polygon fill="#bfbfbf" stroke="black" points="0,-24.5 0,-54.5 144,-54.5 144,-24.5 0,-24.5"/>
<text text-anchor="start" x="8" y="-42.5" font-family="Helvetica,sans-Serif" font-size="10.00">LBRTorqueSineOverlayClient</text>
<text text-anchor="middle" x="72" y="-31.5" font-family="Helvetica,sans-Serif" font-size="10.00">::onStateChange</text>
</a>
</g>
</g>
<!-- Node2 -->
<g id="node2" class="node">
<title>Node2</title>
<g id="a_node2"><a xlink:href="class_k_u_k_a_1_1_f_r_i_1_1_l_b_r_state.html#a9d444c64abfae06e7f51d305b9800048" target="_top" xlink:title="Get the sample time in seconds.">
<polygon fill="white" stroke="black" points="181,-49.5 181,-79.5 297,-79.5 297,-49.5 181,-49.5"/>
<text text-anchor="start" x="189" y="-67.5" font-family="Helvetica,sans-Serif" font-size="10.00">KUKA::FRI::LBRState</text>
<text text-anchor="middle" x="239" y="-56.5" font-family="Helvetica,sans-Serif" font-size="10.00">::getSampleTime</text>
</a>
</g>
</g>
<!-- Node1&#45;&gt;Node2 -->
<g id="edge1" class="edge">
<title>Node1&#45;&gt;Node2</title>
<path fill="none" stroke="midnightblue" d="M144.41,-50.32C153.18,-51.65 162.11,-53 170.81,-54.32"/>
<polygon fill="midnightblue" stroke="midnightblue" points="170.48,-57.81 180.89,-55.85 171.52,-50.89 170.48,-57.81"/>
</g>
<!-- Node3 -->
<g id="node3" class="node">
<title>Node3</title>
<g id="a_node3"><a xlink:href="class_k_u_k_a_1_1_f_r_i_1_1_l_b_r_client.html#af99433aa6795f9b6764b0fb539188e6d" target="_top" xlink:title="Provide read access to the current robot state.">
<polygon fill="white" stroke="black" points="180,-0.5 180,-30.5 298,-30.5 298,-0.5 180,-0.5"/>
<text text-anchor="start" x="188" y="-18.5" font-family="Helvetica,sans-Serif" font-size="10.00">KUKA::FRI::LBRClient</text>
<text text-anchor="middle" x="239" y="-7.5" font-family="Helvetica,sans-Serif" font-size="10.00">::robotState</text>
</a>
</g>
</g>
<!-- Node1&#45;&gt;Node3 -->
<g id="edge2" class="edge">
<title>Node1&#45;&gt;Node3</title>
<path fill="none" stroke="midnightblue" d="M144.41,-29.11C152.83,-27.89 161.41,-26.64 169.79,-25.42"/>
<polygon fill="midnightblue" stroke="midnightblue" points="170.49,-28.86 179.88,-23.95 169.48,-21.93 170.49,-28.86"/>
</g>
</g>
</svg>
