<?xml version="1.0" encoding="UTF-8" standalone="no"?>
<!DOCTYPE svg PUBLIC "-//W3C//DTD SVG 1.1//EN"
 "http://www.w3.org/Graphics/SVG/1.1/DTD/svg11.dtd">
<!-- Generated by graphviz version 2.43.0 (0)
 -->
<!-- Title: SimulatedTransformationProviderClient::updateCurrentSensorData Pages: 1 -->
<svg width="356pt" height="127pt"
 viewBox="0.00 0.00 356.00 126.50" xmlns="http://www.w3.org/2000/svg" xmlns:xlink="http://www.w3.org/1999/xlink">
<g id="graph0" class="graph" transform="scale(1 1) rotate(0) translate(4 122.5)">
<title>SimulatedTransformationProviderClient::updateCurrentSensorData</title>
<polygon fill="white" stroke="transparent" points="-4,4 -4,-122.5 352,-122.5 352,4 -4,4"/>
<!-- Node1 -->
<g id="node1" class="node">
<title>Node1</title>
<g id="a_node1"><a xlink:title=" ">
<polygon fill="#bfbfbf" stroke="black" points="0,-39 0,-69 161,-69 161,-39 0,-39"/>
<text text-anchor="start" x="8" y="-57" font-family="Helvetica,sans-Serif" font-size="10.00">SimulatedTransformationProvider</text>
<text text-anchor="middle" x="80.5" y="-46" font-family="Helvetica,sans-Serif" font-size="10.00">Client::updateCurrentSensorData</text>
</a>
</g>
</g>
<!-- Node2 -->
<g id="node2" class="node">
<title>Node2</title>
<g id="a_node2"><a xlink:href="class_k_u_k_a_1_1_f_r_i_1_1_transformation_client.html#a1a068f1dae75a8478a1e63a3ffd2a0f2" target="_top" xlink:title="Get the nanoseconds elapsed since the last second (in Unix time).">
<polygon fill="white" stroke="black" points="197,-88 197,-118 348,-118 348,-88 197,-88"/>
<text text-anchor="start" x="205" y="-106" font-family="Helvetica,sans-Serif" font-size="10.00">KUKA::FRI::Transformation</text>
<text text-anchor="middle" x="272.5" y="-95" font-family="Helvetica,sans-Serif" font-size="10.00">Client::getTimestampNanoSec</text>
</a>
</g>
</g>
<!-- Node1&#45;&gt;Node2 -->
<g id="edge1" class="edge">
<title>Node1&#45;&gt;Node2</title>
<path fill="none" stroke="midnightblue" d="M139.8,-69.03C159.95,-74.23 182.71,-80.1 203.56,-85.48"/>
<polygon fill="midnightblue" stroke="midnightblue" points="202.76,-88.89 213.31,-87.99 204.5,-82.11 202.76,-88.89"/>
</g>
<!-- Node3 -->
<g id="node3" class="node">
<title>Node3</title>
<g id="a_node3"><a xlink:href="class_k_u_k_a_1_1_f_r_i_1_1_transformation_client.html#a98bd724fa7d308ceeb488881b986f2a0" target="_top" xlink:title="Get the timestamp of the current received FRI monitor message in Unix time.">
<polygon fill="white" stroke="black" points="203.5,-39 203.5,-69 341.5,-69 341.5,-39 203.5,-39"/>
<text text-anchor="start" x="211.5" y="-57" font-family="Helvetica,sans-Serif" font-size="10.00">KUKA::FRI::Transformation</text>
<text text-anchor="middle" x="272.5" y="-46" font-family="Helvetica,sans-Serif" font-size="10.00">Client::getTimestampSec</text>
</a>
</g>
</g>
<!-- Node1&#45;&gt;Node3 -->
<g id="edge2" class="edge">
<title>Node1&#45;&gt;Node3</title>
<path fill="none" stroke="midnightblue" d="M161.25,-54C171.87,-54 182.75,-54 193.35,-54"/>
<polygon fill="midnightblue" stroke="midnightblue" points="193.4,-57.5 203.4,-54 193.4,-50.5 193.4,-57.5"/>
</g>
<!-- Node4 -->
<g id="node4" class="node">
<title>Node4</title>
<g id="a_node4"><a xlink:href="pb__syshdr_8h.html#a39dc31816e18e5a0b48da2865a4b698c" target="_top" xlink:title=" ">
<polygon fill="white" stroke="black" points="245.5,-0.5 245.5,-19.5 299.5,-19.5 299.5,-0.5 245.5,-0.5"/>
<text text-anchor="middle" x="272.5" y="-7.5" font-family="Helvetica,sans-Serif" font-size="10.00">memcpy</text>
</a>
</g>
</g>
<!-- Node1&#45;&gt;Node4 -->
<g id="edge3" class="edge">
<title>Node1&#45;&gt;Node4</title>
<path fill="none" stroke="midnightblue" d="M146.36,-38.98C176.21,-32.07 210.5,-24.13 235.63,-18.31"/>
<polygon fill="midnightblue" stroke="midnightblue" points="236.51,-21.7 245.46,-16.03 234.93,-14.88 236.51,-21.7"/>
</g>
</g>
</svg>
