<?xml version="1.0" encoding="UTF-8" standalone="no"?>
<!DOCTYPE svg PUBLIC "-//W3C//DTD SVG 1.1//EN"
 "http://www.w3.org/Graphics/SVG/1.1/DTD/svg11.dtd">
<!-- Generated by graphviz version 2.43.0 (0)
 -->
<!-- Title: KUKA::FRI::LBRCommand Pages: 1 -->
<svg width="1054pt" height="408pt"
 viewBox="0.00 0.00 1054.00 408.00" xmlns="http://www.w3.org/2000/svg" xmlns:xlink="http://www.w3.org/1999/xlink">
<g id="graph0" class="graph" transform="scale(1 1) rotate(0) translate(4 404)">
<title>KUKA::FRI::LBRCommand</title>
<polygon fill="white" stroke="transparent" points="-4,4 -4,-404 1050,-404 1050,4 -4,4"/>
<!-- Node1 -->
<g id="node1" class="node">
<title>Node1</title>
<g id="a_node1"><a xlink:title="Wrapper class for the FRI command message for a KUKA LBR (leightweight) robot.">
<polygon fill="#bfbfbf" stroke="black" points="909,-243.5 909,-262.5 1046,-262.5 1046,-243.5 909,-243.5"/>
<text text-anchor="middle" x="977.5" y="-250.5" font-family="Helvetica,sans-Serif" font-size="10.00">KUKA::FRI::LBRCommand</text>
</a>
</g>
</g>
<!-- Node2 -->
<g id="node2" class="node">
<title>Node2</title>
<g id="a_node2"><a xlink:href="struct___f_r_i_command_message.html" target="_top" xlink:title=" ">
<polygon fill="white" stroke="black" points="683,-315.5 683,-334.5 806,-334.5 806,-315.5 683,-315.5"/>
<text text-anchor="middle" x="744.5" y="-322.5" font-family="Helvetica,sans-Serif" font-size="10.00">_FRICommandMessage</text>
</a>
</g>
</g>
<!-- Node2&#45;&gt;Node1 -->
<g id="edge1" class="edge">
<title>Node2&#45;&gt;Node1</title>
<path fill="none" stroke="#9a32cd" stroke-dasharray="5,2" d="M785.73,-312.46C831.27,-298.27 904.47,-275.45 945.7,-262.6"/>
<polygon fill="#9a32cd" stroke="#9a32cd" points="784.68,-309.12 776.18,-315.44 786.76,-315.8 784.68,-309.12"/>
<text text-anchor="middle" x="857.5" y="-302" font-family="Helvetica,sans-Serif" font-size="10.00"> _cmdMessage</text>
</g>
<!-- Node3 -->
<g id="node3" class="node">
<title>Node3</title>
<g id="a_node3"><a xlink:href="struct___message_command_data.html" target="_top" xlink:title=" ">
<polygon fill="white" stroke="black" points="428,-283.5 428,-302.5 556,-302.5 556,-283.5 428,-283.5"/>
<text text-anchor="middle" x="492" y="-290.5" font-family="Helvetica,sans-Serif" font-size="10.00">_MessageCommandData</text>
</a>
</g>
</g>
<!-- Node3&#45;&gt;Node2 -->
<g id="edge2" class="edge">
<title>Node3&#45;&gt;Node2</title>
<path fill="none" stroke="#9a32cd" stroke-dasharray="5,2" d="M523.92,-306.93C534.31,-311.95 545.84,-317.89 556,-324 564.46,-329.09 564.61,-333.96 574,-337 619.61,-351.75 675.62,-342.94 710.44,-334.54"/>
<polygon fill="#9a32cd" stroke="#9a32cd" points="525.3,-303.71 514.76,-302.6 522.31,-310.04 525.3,-303.71"/>
<text text-anchor="middle" x="619.5" y="-347" font-family="Helvetica,sans-Serif" font-size="10.00"> commandData</text>
</g>
<!-- Node4 -->
<g id="node4" class="node">
<title>Node4</title>
<g id="a_node4"><a xlink:href="struct___fri_i_o_value.html" target="_top" xlink:title=" ">
<polygon fill="white" stroke="black" points="179,-230.5 179,-249.5 247,-249.5 247,-230.5 179,-230.5"/>
<text text-anchor="middle" x="213" y="-237.5" font-family="Helvetica,sans-Serif" font-size="10.00">_FriIOValue</text>
</a>
</g>
</g>
<!-- Node4&#45;&gt;Node3 -->
<g id="edge3" class="edge">
<title>Node4&#45;&gt;Node3</title>
<path fill="none" stroke="#9a32cd" stroke-dasharray="5,2" d="M257.26,-248.28C307.09,-257.81 388.79,-273.44 441.22,-283.47"/>
<polygon fill="#9a32cd" stroke="#9a32cd" points="257.62,-244.78 247.14,-246.34 256.3,-251.66 257.62,-244.78"/>
<text text-anchor="middle" x="343.5" y="-280" font-family="Helvetica,sans-Serif" font-size="10.00"> writeIORequest</text>
</g>
<!-- Node14 -->
<g id="node14" class="node">
<title>Node14</title>
<g id="a_node14"><a xlink:href="struct___message_monitor_data.html" target="_top" xlink:title=" ">
<polygon fill="white" stroke="black" points="434.5,-188.5 434.5,-207.5 549.5,-207.5 549.5,-188.5 434.5,-188.5"/>
<text text-anchor="middle" x="492" y="-195.5" font-family="Helvetica,sans-Serif" font-size="10.00">_MessageMonitorData</text>
</a>
</g>
</g>
<!-- Node4&#45;&gt;Node14 -->
<g id="edge16" class="edge">
<title>Node4&#45;&gt;Node14</title>
<path fill="none" stroke="#9a32cd" stroke-dasharray="5,2" d="M257.36,-229.84C263.92,-228.45 270.63,-227.12 277,-226 330.14,-216.64 391.21,-208.95 434.47,-204.01"/>
<polygon fill="#9a32cd" stroke="#9a32cd" points="256.27,-226.49 247.24,-232.04 257.75,-233.33 256.27,-226.49"/>
<text text-anchor="middle" x="343.5" y="-229" font-family="Helvetica,sans-Serif" font-size="10.00"> readIORequest</text>
</g>
<!-- Node5 -->
<g id="node5" class="node">
<title>Node5</title>
<g id="a_node5"><a xlink:href="struct___transformation.html" target="_top" xlink:title=" ">
<polygon fill="white" stroke="black" points="169.5,-321.5 169.5,-340.5 256.5,-340.5 256.5,-321.5 169.5,-321.5"/>
<text text-anchor="middle" x="213" y="-328.5" font-family="Helvetica,sans-Serif" font-size="10.00">_Transformation</text>
</a>
</g>
</g>
<!-- Node5&#45;&gt;Node3 -->
<g id="edge4" class="edge">
<title>Node5&#45;&gt;Node3</title>
<path fill="none" stroke="#9a32cd" stroke-dasharray="5,2" d="M266.78,-324.22C306.25,-319.1 361.53,-311.8 410,-305 415.77,-304.19 421.77,-303.33 427.78,-302.46"/>
<polygon fill="#9a32cd" stroke="#9a32cd" points="266.32,-320.75 256.85,-325.51 267.22,-327.69 266.32,-320.75"/>
<text text-anchor="middle" x="343.5" y="-325" font-family="Helvetica,sans-Serif" font-size="10.00"> commandedTransformations</text>
</g>
<!-- Node13 -->
<g id="node13" class="node">
<title>Node13</title>
<g id="a_node13"><a xlink:href="struct___f_r_i_monitoring_message.html" target="_top" xlink:title=" ">
<polygon fill="white" stroke="black" points="683,-205.5 683,-224.5 806,-224.5 806,-205.5 683,-205.5"/>
<text text-anchor="middle" x="744.5" y="-212.5" font-family="Helvetica,sans-Serif" font-size="10.00">_FRIMonitoringMessage</text>
</a>
</g>
</g>
<!-- Node5&#45;&gt;Node13 -->
<g id="edge20" class="edge">
<title>Node5&#45;&gt;Node13</title>
<path fill="none" stroke="#9a32cd" stroke-dasharray="5,2" d="M266.91,-336.41C270.32,-336.64 273.71,-336.84 277,-337 336.04,-339.81 351.1,-342.01 410,-337 475.6,-331.42 503.94,-352.3 556,-312 571.42,-300.07 559.39,-284.9 574,-272 605.72,-244 624.92,-257.56 665,-244 683.03,-237.9 703.16,-230.45 718.53,-224.63"/>
<polygon fill="#9a32cd" stroke="#9a32cd" points="266.9,-332.9 256.66,-335.62 266.36,-339.87 266.9,-332.9"/>
<text text-anchor="middle" x="492" y="-340" font-family="Helvetica,sans-Serif" font-size="10.00"> requestedTransformations</text>
</g>
<!-- Node6 -->
<g id="node6" class="node">
<title>Node6</title>
<g id="a_node6"><a xlink:href="struct___time_stamp.html" target="_top" xlink:title=" ">
<polygon fill="white" stroke="black" points="5,-153.5 5,-172.5 77,-172.5 77,-153.5 5,-153.5"/>
<text text-anchor="middle" x="41" y="-160.5" font-family="Helvetica,sans-Serif" font-size="10.00">_TimeStamp</text>
</a>
</g>
</g>
<!-- Node6&#45;&gt;Node5 -->
<g id="edge5" class="edge">
<title>Node6&#45;&gt;Node5</title>
<path fill="none" stroke="#9a32cd" stroke-dasharray="5,2" d="M53.35,-181.57C73.02,-212.42 116.27,-274.53 167,-312 172.05,-315.73 177.94,-318.89 183.76,-321.5"/>
<polygon fill="#9a32cd" stroke="#9a32cd" points="56.08,-179.34 47.81,-172.72 50.15,-183.06 56.08,-179.34"/>
<text text-anchor="middle" x="124.5" y="-298" font-family="Helvetica,sans-Serif" font-size="10.00"> timestamp</text>
</g>
<!-- Node6&#45;&gt;Node14 -->
<g id="edge15" class="edge">
<title>Node6&#45;&gt;Node14</title>
<path fill="none" stroke="#9a32cd" stroke-dasharray="5,2" d="M87.24,-151.93C158.87,-136.72 301.42,-116.02 410,-161 420.45,-165.33 418.29,-173.19 428,-179 434.37,-182.81 441.57,-185.91 448.76,-188.42"/>
<polygon fill="#9a32cd" stroke="#9a32cd" points="86.21,-148.57 77.19,-154.12 87.71,-155.41 86.21,-148.57"/>
<text text-anchor="middle" x="213" y="-141" font-family="Helvetica,sans-Serif" font-size="10.00"> timestamp</text>
</g>
<!-- Node7 -->
<g id="node7" class="node">
<title>Node7</title>
<g id="a_node7"><a xlink:href="struct___joint_values.html" target="_top" xlink:title=" ">
<polygon fill="white" stroke="black" points="177,-60.5 177,-79.5 249,-79.5 249,-60.5 177,-60.5"/>
<text text-anchor="middle" x="213" y="-67.5" font-family="Helvetica,sans-Serif" font-size="10.00">_JointValues</text>
</a>
</g>
</g>
<!-- Node7&#45;&gt;Node3 -->
<g id="edge6" class="edge">
<title>Node7&#45;&gt;Node3</title>
<path fill="none" stroke="#9a32cd" stroke-dasharray="5,2" d="M226.56,-87.72C238.1,-102.79 256.48,-124.01 277,-137 329.49,-170.23 368.57,-133.7 410,-180 436.62,-209.75 402.36,-237.4 428,-268 433.74,-274.86 441.63,-279.84 449.88,-283.47"/>
<polygon fill="#9a32cd" stroke="#9a32cd" points="229.36,-85.62 220.59,-79.66 223.73,-89.78 229.36,-85.62"/>
<text text-anchor="middle" x="343.5" y="-194" font-family="Helvetica,sans-Serif" font-size="10.00"> jointPosition</text>
<text text-anchor="middle" x="343.5" y="-183" font-family="Helvetica,sans-Serif" font-size="10.00">jointTorque</text>
</g>
<!-- Node7&#45;&gt;Node14 -->
<g id="edge17" class="edge">
<title>Node7&#45;&gt;Node14</title>
<path fill="none" stroke="#9a32cd" stroke-dasharray="5,2" d="M259.13,-65.58C309.97,-61.65 388.34,-59.09 410,-78 444.35,-107.98 397.69,-144.94 428,-179 431.42,-182.84 435.58,-185.92 440.12,-188.38"/>
<polygon fill="#9a32cd" stroke="#9a32cd" points="258.73,-62.1 249.05,-66.4 259.3,-69.08 258.73,-62.1"/>
<text text-anchor="middle" x="343.5" y="-125" font-family="Helvetica,sans-Serif" font-size="10.00"> commandedJointPosition</text>
<text text-anchor="middle" x="343.5" y="-114" font-family="Helvetica,sans-Serif" font-size="10.00">commandedTorque</text>
<text text-anchor="middle" x="343.5" y="-103" font-family="Helvetica,sans-Serif" font-size="10.00">externalTorque</text>
<text text-anchor="middle" x="343.5" y="-92" font-family="Helvetica,sans-Serif" font-size="10.00">measuredJointPosition</text>
<text text-anchor="middle" x="343.5" y="-81" font-family="Helvetica,sans-Serif" font-size="10.00">measuredTorque</text>
</g>
<!-- Node17 -->
<g id="node17" class="node">
<title>Node17</title>
<g id="a_node17"><a xlink:href="struct___message_ipo_data.html" target="_top" xlink:title=" ">
<polygon fill="white" stroke="black" points="444,-150.5 444,-169.5 540,-169.5 540,-150.5 444,-150.5"/>
<text text-anchor="middle" x="492" y="-157.5" font-family="Helvetica,sans-Serif" font-size="10.00">_MessageIpoData</text>
</a>
</g>
</g>
<!-- Node7&#45;&gt;Node17 -->
<g id="edge24" class="edge">
<title>Node7&#45;&gt;Node17</title>
<path fill="none" stroke="#9a32cd" stroke-dasharray="5,2" d="M239.8,-55.64C280.83,-34.95 361.25,-3.47 410,-44 443.71,-72.03 398.74,-108.35 428,-141 432.35,-145.85 437.88,-149.48 443.86,-152.2"/>
<polygon fill="#9a32cd" stroke="#9a32cd" points="237.99,-52.64 230.73,-60.36 241.22,-58.85 237.99,-52.64"/>
<text text-anchor="middle" x="343.5" y="-47" font-family="Helvetica,sans-Serif" font-size="10.00"> jointPosition</text>
</g>
<!-- Node8 -->
<g id="node8" class="node">
<title>Node8</title>
<g id="a_node8"><a xlink:href="struct__pb__callback__t.html" target="_top" xlink:title=" ">
<polygon fill="white" stroke="black" points="0,-25.5 0,-44.5 82,-44.5 82,-25.5 0,-25.5"/>
<text text-anchor="middle" x="41" y="-32.5" font-family="Helvetica,sans-Serif" font-size="10.00">_pb_callback_t</text>
</a>
</g>
</g>
<!-- Node8&#45;&gt;Node7 -->
<g id="edge7" class="edge">
<title>Node8&#45;&gt;Node7</title>
<path fill="none" stroke="#9a32cd" stroke-dasharray="5,2" d="M92.4,-45.38C119.6,-50.98 152.49,-57.75 176.9,-62.77"/>
<polygon fill="#9a32cd" stroke="#9a32cd" points="92.79,-41.88 82.29,-43.29 91.38,-48.74 92.79,-41.88"/>
<text text-anchor="middle" x="124.5" y="-60" font-family="Helvetica,sans-Serif" font-size="10.00"> value</text>
</g>
<!-- Node15 -->
<g id="node15" class="node">
<title>Node15</title>
<g id="a_node15"><a xlink:href="struct___robot_info.html" target="_top" xlink:title=" ">
<polygon fill="white" stroke="black" points="311,-0.5 311,-19.5 376,-19.5 376,-0.5 311,-0.5"/>
<text text-anchor="middle" x="343.5" y="-7.5" font-family="Helvetica,sans-Serif" font-size="10.00">_RobotInfo</text>
</a>
</g>
</g>
<!-- Node8&#45;&gt;Node15 -->
<g id="edge19" class="edge">
<title>Node8&#45;&gt;Node15</title>
<path fill="none" stroke="#9a32cd" stroke-dasharray="5,2" d="M92.2,-30.82C154.43,-25.65 258.63,-16.98 310.77,-12.64"/>
<polygon fill="#9a32cd" stroke="#9a32cd" points="91.89,-27.34 82.21,-31.65 92.47,-34.31 91.89,-27.34"/>
<text text-anchor="middle" x="124.5" y="-34" font-family="Helvetica,sans-Serif" font-size="10.00"> driveState</text>
</g>
<!-- Node9 -->
<g id="node9" class="node">
<title>Node9</title>
<g id="a_node9"><a xlink:href="struct___cartesian_vector.html" target="_top" xlink:title=" ">
<polygon fill="white" stroke="black" points="167,-283.5 167,-302.5 259,-302.5 259,-283.5 167,-283.5"/>
<text text-anchor="middle" x="213" y="-290.5" font-family="Helvetica,sans-Serif" font-size="10.00">_CartesianVector</text>
</a>
</g>
</g>
<!-- Node9&#45;&gt;Node3 -->
<g id="edge8" class="edge">
<title>Node9&#45;&gt;Node3</title>
<path fill="none" stroke="#9a32cd" stroke-dasharray="5,2" d="M269.15,-293C314.9,-293 379.96,-293 427.8,-293"/>
<polygon fill="#9a32cd" stroke="#9a32cd" points="269.12,-289.5 259.12,-293 269.12,-296.5 269.12,-289.5"/>
<text text-anchor="middle" x="343.5" y="-296" font-family="Helvetica,sans-Serif" font-size="10.00"> cartesianWrenchFeedForward</text>
</g>
<!-- Node10 -->
<g id="node10" class="node">
<title>Node10</title>
<g id="a_node10"><a xlink:href="struct___message_header.html" target="_top" xlink:title=" ">
<polygon fill="white" stroke="black" points="445.5,-239.5 445.5,-258.5 538.5,-258.5 538.5,-239.5 445.5,-239.5"/>
<text text-anchor="middle" x="492" y="-246.5" font-family="Helvetica,sans-Serif" font-size="10.00">_MessageHeader</text>
</a>
</g>
</g>
<!-- Node10&#45;&gt;Node2 -->
<g id="edge9" class="edge">
<title>Node10&#45;&gt;Node2</title>
<path fill="none" stroke="#9a32cd" stroke-dasharray="5,2" d="M549,-260.72C582.94,-268.38 626.89,-279.31 665,-292 685.2,-298.73 707.51,-308.33 723.17,-315.44"/>
<polygon fill="#9a32cd" stroke="#9a32cd" points="549.33,-257.21 538.81,-258.45 547.81,-264.04 549.33,-257.21"/>
<text text-anchor="middle" x="619.5" y="-295" font-family="Helvetica,sans-Serif" font-size="10.00"> header</text>
</g>
<!-- Node10&#45;&gt;Node13 -->
<g id="edge13" class="edge">
<title>Node10&#45;&gt;Node13</title>
<path fill="none" stroke="#9a32cd" stroke-dasharray="5,2" d="M547.33,-237.58C556.22,-235.91 565.35,-234.31 574,-233 609.99,-227.55 650.52,-223.18 682.93,-220.11"/>
<polygon fill="#9a32cd" stroke="#9a32cd" points="546.6,-234.15 537.44,-239.48 547.92,-241.03 546.6,-234.15"/>
<text text-anchor="middle" x="619.5" y="-236" font-family="Helvetica,sans-Serif" font-size="10.00"> header</text>
</g>
<!-- Node11 -->
<g id="node11" class="node">
<title>Node11</title>
<g id="a_node11"><a xlink:href="struct___message_end_of.html" target="_top" xlink:title=" ">
<polygon fill="white" stroke="black" points="447.5,-379.5 447.5,-398.5 536.5,-398.5 536.5,-379.5 447.5,-379.5"/>
<text text-anchor="middle" x="492" y="-386.5" font-family="Helvetica,sans-Serif" font-size="10.00">_MessageEndOf</text>
</a>
</g>
</g>
<!-- Node11&#45;&gt;Node2 -->
<g id="edge10" class="edge">
<title>Node11&#45;&gt;Node2</title>
<path fill="none" stroke="#9a32cd" stroke-dasharray="5,2" d="M547.05,-382.9C581.31,-378.23 626.31,-370.57 665,-359 686.2,-352.66 709.32,-342.18 724.93,-334.53"/>
<polygon fill="#9a32cd" stroke="#9a32cd" points="546.23,-379.48 536.78,-384.26 547.15,-386.42 546.23,-379.48"/>
<text text-anchor="middle" x="619.5" y="-381" font-family="Helvetica,sans-Serif" font-size="10.00"> endOfMessageData</text>
</g>
<!-- Node11&#45;&gt;Node13 -->
<g id="edge22" class="edge">
<title>Node11&#45;&gt;Node13</title>
<path fill="none" stroke="#9a32cd" stroke-dasharray="5,2" d="M535.01,-375.3C542.6,-371.51 550,-366.79 556,-361 569.15,-348.29 559.69,-335.39 574,-324 606.47,-298.15 629.28,-324.15 665,-303 699,-282.87 726.35,-243.07 737.75,-224.71"/>
<polygon fill="#9a32cd" stroke="#9a32cd" points="533.41,-372.18 525.73,-379.48 536.29,-378.56 533.41,-372.18"/>
<text text-anchor="middle" x="619.5" y="-327" font-family="Helvetica,sans-Serif" font-size="10.00"> endOfMessageData</text>
</g>
<!-- Node12 -->
<g id="node12" class="node">
<title>Node12</title>
<g id="a_node12"><a xlink:href="struct___checksum.html" target="_top" xlink:title=" ">
<polygon fill="white" stroke="black" points="178.5,-379.5 178.5,-398.5 247.5,-398.5 247.5,-379.5 178.5,-379.5"/>
<text text-anchor="middle" x="213" y="-386.5" font-family="Helvetica,sans-Serif" font-size="10.00">_Checksum</text>
</a>
</g>
</g>
<!-- Node12&#45;&gt;Node11 -->
<g id="edge11" class="edge">
<title>Node12&#45;&gt;Node11</title>
<path fill="none" stroke="#9a32cd" stroke-dasharray="5,2" d="M257.89,-389C309.67,-389 395.26,-389 447.07,-389"/>
<polygon fill="#9a32cd" stroke="#9a32cd" points="257.69,-385.5 247.69,-389 257.69,-392.5 257.69,-385.5"/>
<text text-anchor="middle" x="343.5" y="-392" font-family="Helvetica,sans-Serif" font-size="10.00"> messageChecksum</text>
</g>
<!-- Node13&#45;&gt;Node1 -->
<g id="edge12" class="edge">
<title>Node13&#45;&gt;Node1</title>
<path fill="none" stroke="#9a32cd" stroke-dasharray="5,2" d="M813.61,-226.2C846.94,-231.69 886.63,-238.22 918.48,-243.46"/>
<polygon fill="#9a32cd" stroke="#9a32cd" points="813.93,-222.71 803.49,-224.54 812.79,-229.62 813.93,-222.71"/>
<text text-anchor="middle" x="857.5" y="-241" font-family="Helvetica,sans-Serif" font-size="10.00"> _monMessage</text>
</g>
<!-- Node14&#45;&gt;Node13 -->
<g id="edge14" class="edge">
<title>Node14&#45;&gt;Node13</title>
<path fill="none" stroke="#9a32cd" stroke-dasharray="5,2" d="M559.81,-195.37C591.73,-194.88 630.43,-195.41 665,-199 677.87,-200.34 691.74,-202.81 704.2,-205.42"/>
<polygon fill="#9a32cd" stroke="#9a32cd" points="559.63,-191.87 549.7,-195.56 559.77,-198.87 559.63,-191.87"/>
<text text-anchor="middle" x="619.5" y="-202" font-family="Helvetica,sans-Serif" font-size="10.00"> monitorData</text>
</g>
<!-- Node15&#45;&gt;Node13 -->
<g id="edge18" class="edge">
<title>Node15&#45;&gt;Node13</title>
<path fill="none" stroke="#9a32cd" stroke-dasharray="5,2" d="M386.57,-16.91C451.34,-29.17 577.19,-59.53 665,-122 698.4,-145.76 726.26,-186.92 737.79,-205.46"/>
<polygon fill="#9a32cd" stroke="#9a32cd" points="386.8,-13.4 376.34,-15.03 385.54,-20.28 386.8,-13.4"/>
<text text-anchor="middle" x="492" y="-67" font-family="Helvetica,sans-Serif" font-size="10.00"> robotInfo</text>
</g>
<!-- Node16 -->
<g id="node16" class="node">
<title>Node16</title>
<g id="a_node16"><a xlink:href="struct___connection_info.html" target="_top" xlink:title=" ">
<polygon fill="white" stroke="black" points="448,-112.5 448,-131.5 536,-131.5 536,-112.5 448,-112.5"/>
<text text-anchor="middle" x="492" y="-119.5" font-family="Helvetica,sans-Serif" font-size="10.00">_ConnectionInfo</text>
</a>
</g>
</g>
<!-- Node16&#45;&gt;Node13 -->
<g id="edge21" class="edge">
<title>Node16&#45;&gt;Node13</title>
<path fill="none" stroke="#9a32cd" stroke-dasharray="5,2" d="M546.23,-123C581.34,-125.4 627.57,-131.95 665,-149 694.81,-162.58 722.32,-190.73 735.44,-205.5"/>
<polygon fill="#9a32cd" stroke="#9a32cd" points="546.37,-119.5 536.18,-122.41 545.96,-126.49 546.37,-119.5"/>
<text text-anchor="middle" x="619.5" y="-152" font-family="Helvetica,sans-Serif" font-size="10.00"> connectionInfo</text>
</g>
<!-- Node17&#45;&gt;Node13 -->
<g id="edge23" class="edge">
<title>Node17&#45;&gt;Node13</title>
<path fill="none" stroke="#9a32cd" stroke-dasharray="5,2" d="M550.27,-162.3C584.12,-164.74 627.56,-169.74 665,-180 687.02,-186.04 710.76,-197.36 726.3,-205.49"/>
<polygon fill="#9a32cd" stroke="#9a32cd" points="550.3,-158.8 540.09,-161.63 549.83,-165.78 550.3,-158.8"/>
<text text-anchor="middle" x="619.5" y="-183" font-family="Helvetica,sans-Serif" font-size="10.00"> ipoData</text>
</g>
</g>
</svg>
