<?xml version="1.0" encoding="UTF-8" standalone="no"?>
<!DOCTYPE svg PUBLIC "-//W3C//DTD SVG 1.1//EN"
 "http://www.w3.org/Graphics/SVG/1.1/DTD/svg11.dtd">
<!-- Generated by graphviz version 2.43.0 (0)
 -->
<!-- Title: IOAccessClient::waitForCommand Pages: 1 -->
<!--zoomable 333 -->
<svg id="main" version="1.1" xmlns="http://www.w3.org/2000/svg" xmlns:xlink="http://www.w3.org/1999/xlink" xml:space="preserve" onload="init(evt)">
<style type="text/css"><![CDATA[
.edge:hover path { stroke: red; }
.edge:hover polygon { stroke: red; fill: red; }
]]></style>
<script type="text/javascript"><![CDATA[
var edges = document.getElementsByTagName('g');
if (edges && edges.length) {
  for (var i=0;i<edges.length;i++) {
    if (edges[i].id.substr(0,4)=='edge') {
      edges[i].setAttribute('class','edge');
    }
  }
}
]]></script>
        <defs>
                <circle id="rim" cx="0" cy="0" r="7"/>
                <circle id="rim2" cx="0" cy="0" r="3.5"/>
                <g id="zoomPlus">
                        <use xlink:href="#rim" fill="#404040">
                                <set attributeName="fill" to="#808080" begin="zoomplus.mouseover" end="zoomplus.mouseout"/>
                        </use>
                        <path d="M-4,0h8M0,-4v8" fill="none" stroke="white" stroke-width="1.5" pointer-events="none"/>
                </g>
                <g id="zoomMin">
                        <use xlink:href="#rim" fill="#404040">
                                <set attributeName="fill" to="#808080" begin="zoomminus.mouseover" end="zoomminus.mouseout"/>
                        </use>
                        <path d="M-4,0h8" fill="none" stroke="white" stroke-width="1.5" pointer-events="none"/>
                </g>
                <g id="dirArrow">
                        <path fill="none" stroke="white" stroke-width="1.5" d="M0,-3.0v7 M-2.5,-0.5L0,-3.0L2.5,-0.5"/>
                </g>
               <g id="resetDef">
                       <use xlink:href="#rim2" fill="#404040">
                               <set attributeName="fill" to="#808080" begin="reset.mouseover" end="reset.mouseout"/>
                       </use>
               </g>
        </defs>

<script type="text/javascript">
var viewWidth = 988;
var viewHeight = 333;
var sectionId = 'dynsection-6';
</script>
<script xlink:href="svgpan.js"/>
<svg id="graph" class="graph">
<g id="viewport">
<title>IOAccessClient::waitForCommand</title>
<polygon fill="white" stroke="transparent" points="-4,4 -4,-329 984,-329 984,4 -4,4"/>
<!-- Node1 -->
<g id="node1" class="node">
<title>Node1</title>
<g id="a_node1"><a xlink:title="Callback for the FRI session state &#39;Commanding Wait&#39;.">
<polygon fill="#bfbfbf" stroke="black" points="0,-153 0,-172 169,-172 169,-153 0,-153"/>
<text text-anchor="middle" x="84.5" y="-160" font-family="Helvetica,sans-Serif" font-size="10.00">IOAccessClient::waitForCommand</text>
</a>
</g>
</g>
<!-- Node2 -->
<g id="node2" class="node">
<title>Node2</title>
<g id="a_node2"><a xlink:href="class_i_o_access_client.html#a01d1b4f46c4b43527106ccfae8440255" target="_top" xlink:title=" ">
<polygon fill="white" stroke="black" points="205,-147.5 205,-177.5 342,-177.5 342,-147.5 205,-147.5"/>
<text text-anchor="start" x="213" y="-165.5" font-family="Helvetica,sans-Serif" font-size="10.00">IOAccessClient::getAndSet</text>
<text text-anchor="middle" x="273.5" y="-154.5" font-family="Helvetica,sans-Serif" font-size="10.00">Example</text>
</a>
</g>
</g>
<!-- Node1&#45;&gt;Node2 -->
<g id="edge1" class="edge">
<title>Node1&#45;&gt;Node2</title>
<path fill="none" stroke="midnightblue" d="M169.15,-162.5C177.66,-162.5 186.27,-162.5 194.71,-162.5"/>
<polygon fill="midnightblue" stroke="midnightblue" points="194.9,-166 204.9,-162.5 194.9,-159 194.9,-166"/>
</g>
<!-- Node3 -->
<g id="node3" class="node">
<title>Node3</title>
<g id="a_node3"><a xlink:href="class_k_u_k_a_1_1_f_r_i_1_1_l_b_r_state.html#a899e75d623dc6c3098bf247b6323d793" target="_top" xlink:title="Get analog IO value.">
<polygon fill="white" stroke="black" points="388.5,-294.5 388.5,-324.5 504.5,-324.5 504.5,-294.5 388.5,-294.5"/>
<text text-anchor="start" x="396.5" y="-312.5" font-family="Helvetica,sans-Serif" font-size="10.00">KUKA::FRI::LBRState</text>
<text text-anchor="middle" x="446.5" y="-301.5" font-family="Helvetica,sans-Serif" font-size="10.00">::getAnalogIOValue</text>
</a>
</g>
</g>
<!-- Node2&#45;&gt;Node3 -->
<g id="edge2" class="edge">
<title>Node2&#45;&gt;Node3</title>
<path fill="none" stroke="midnightblue" d="M283.4,-177.6C299.28,-203.28 334.89,-255.6 378,-285.5 380.15,-286.99 382.39,-288.39 384.71,-289.72"/>
<polygon fill="midnightblue" stroke="midnightblue" points="383.45,-293.01 393.94,-294.45 386.64,-286.78 383.45,-293.01"/>
</g>
<!-- Node6 -->
<g id="node6" class="node">
<title>Node6</title>
<g id="a_node6"><a xlink:href="class_k_u_k_a_1_1_f_r_i_1_1_l_b_r_state.html#aafaf0eacc7fb915ea08869afb31c5a3b" target="_top" xlink:title="Get boolean IO value.">
<polygon fill="white" stroke="black" points="388.5,-245.5 388.5,-275.5 504.5,-275.5 504.5,-245.5 388.5,-245.5"/>
<text text-anchor="start" x="396.5" y="-263.5" font-family="Helvetica,sans-Serif" font-size="10.00">KUKA::FRI::LBRState</text>
<text text-anchor="middle" x="446.5" y="-252.5" font-family="Helvetica,sans-Serif" font-size="10.00">::getBooleanIOValue</text>
</a>
</g>
</g>
<!-- Node2&#45;&gt;Node6 -->
<g id="edge5" class="edge">
<title>Node2&#45;&gt;Node6</title>
<path fill="none" stroke="midnightblue" d="M292.19,-177.51C312.03,-193.77 345.69,-219.63 378,-236.5 381.44,-238.29 385.04,-240.01 388.71,-241.63"/>
<polygon fill="midnightblue" stroke="midnightblue" points="387.36,-244.86 397.94,-245.49 390.06,-238.4 387.36,-244.86"/>
</g>
<!-- Node8 -->
<g id="node8" class="node">
<title>Node8</title>
<g id="a_node8"><a xlink:href="class_k_u_k_a_1_1_f_r_i_1_1_l_b_r_state.html#a6b1d593daf83e832a407e6088d3df152" target="_top" xlink:title="Get digital IO value.">
<polygon fill="white" stroke="black" points="388.5,-196.5 388.5,-226.5 504.5,-226.5 504.5,-196.5 388.5,-196.5"/>
<text text-anchor="start" x="396.5" y="-214.5" font-family="Helvetica,sans-Serif" font-size="10.00">KUKA::FRI::LBRState</text>
<text text-anchor="middle" x="446.5" y="-203.5" font-family="Helvetica,sans-Serif" font-size="10.00">::getDigitalIOValue</text>
</a>
</g>
</g>
<!-- Node2&#45;&gt;Node8 -->
<g id="edge8" class="edge">
<title>Node2&#45;&gt;Node8</title>
<path fill="none" stroke="midnightblue" d="M327.2,-177.6C344.92,-182.68 364.85,-188.39 383.23,-193.66"/>
<polygon fill="midnightblue" stroke="midnightblue" points="382.4,-197.06 392.97,-196.45 384.32,-190.33 382.4,-197.06"/>
</g>
<!-- Node10 -->
<g id="node10" class="node">
<title>Node10</title>
<g id="a_node10"><a xlink:href="class_k_u_k_a_1_1_f_r_i_1_1_l_b_r_client.html#aa6dcd610503f9c67153ffeb5d3fab203" target="_top" xlink:title="Provide write access to the robot commands.">
<polygon fill="white" stroke="black" points="387.5,-147.5 387.5,-177.5 505.5,-177.5 505.5,-147.5 387.5,-147.5"/>
<text text-anchor="start" x="395.5" y="-165.5" font-family="Helvetica,sans-Serif" font-size="10.00">KUKA::FRI::LBRClient</text>
<text text-anchor="middle" x="446.5" y="-154.5" font-family="Helvetica,sans-Serif" font-size="10.00">::robotCommand</text>
</a>
</g>
</g>
<!-- Node2&#45;&gt;Node10 -->
<g id="edge11" class="edge">
<title>Node2&#45;&gt;Node10</title>
<path fill="none" stroke="midnightblue" d="M342.08,-162.5C353.64,-162.5 365.65,-162.5 377.22,-162.5"/>
<polygon fill="midnightblue" stroke="midnightblue" points="377.25,-166 387.25,-162.5 377.25,-159 377.25,-166"/>
</g>
<!-- Node11 -->
<g id="node11" class="node">
<title>Node11</title>
<g id="a_node11"><a xlink:href="class_k_u_k_a_1_1_f_r_i_1_1_l_b_r_client.html#af99433aa6795f9b6764b0fb539188e6d" target="_top" xlink:title="Provide read access to the current robot state.">
<polygon fill="white" stroke="black" points="387.5,-98.5 387.5,-128.5 505.5,-128.5 505.5,-98.5 387.5,-98.5"/>
<text text-anchor="start" x="395.5" y="-116.5" font-family="Helvetica,sans-Serif" font-size="10.00">KUKA::FRI::LBRClient</text>
<text text-anchor="middle" x="446.5" y="-105.5" font-family="Helvetica,sans-Serif" font-size="10.00">::robotState</text>
</a>
</g>
</g>
<!-- Node2&#45;&gt;Node11 -->
<g id="edge12" class="edge">
<title>Node2&#45;&gt;Node11</title>
<path fill="none" stroke="midnightblue" d="M327.2,-147.4C344.92,-142.32 364.85,-136.61 383.23,-131.34"/>
<polygon fill="midnightblue" stroke="midnightblue" points="384.32,-134.67 392.97,-128.55 382.4,-127.94 384.32,-134.67"/>
</g>
<!-- Node12 -->
<g id="node12" class="node">
<title>Node12</title>
<g id="a_node12"><a xlink:href="class_k_u_k_a_1_1_f_r_i_1_1_l_b_r_command.html#ac62fc6a59a5cc24fcacda4b22a2ff2de" target="_top" xlink:title="Set analog output value.">
<polygon fill="white" stroke="black" points="378,-49.5 378,-79.5 515,-79.5 515,-49.5 378,-49.5"/>
<text text-anchor="start" x="386" y="-67.5" font-family="Helvetica,sans-Serif" font-size="10.00">KUKA::FRI::LBRCommand</text>
<text text-anchor="middle" x="446.5" y="-56.5" font-family="Helvetica,sans-Serif" font-size="10.00">::setAnalogIOValue</text>
</a>
</g>
</g>
<!-- Node2&#45;&gt;Node12 -->
<g id="edge13" class="edge">
<title>Node2&#45;&gt;Node12</title>
<path fill="none" stroke="midnightblue" d="M293,-147.21C313,-131.22 346.28,-106.19 378,-89.5 381.96,-87.41 386.14,-85.42 390.39,-83.54"/>
<polygon fill="midnightblue" stroke="midnightblue" points="391.91,-86.7 399.77,-79.59 389.2,-80.24 391.91,-86.7"/>
</g>
<!-- Node15 -->
<g id="node15" class="node">
<title>Node15</title>
<g id="a_node15"><a xlink:href="class_k_u_k_a_1_1_f_r_i_1_1_l_b_r_command.html#ab6f840a8c126235a5eec3ab0299f18aa" target="_top" xlink:title="Set digital output value.">
<polygon fill="white" stroke="black" points="378,-0.5 378,-30.5 515,-30.5 515,-0.5 378,-0.5"/>
<text text-anchor="start" x="386" y="-18.5" font-family="Helvetica,sans-Serif" font-size="10.00">KUKA::FRI::LBRCommand</text>
<text text-anchor="middle" x="446.5" y="-7.5" font-family="Helvetica,sans-Serif" font-size="10.00">::setDigitalIOValue</text>
</a>
</g>
</g>
<!-- Node2&#45;&gt;Node15 -->
<g id="edge17" class="edge">
<title>Node2&#45;&gt;Node15</title>
<path fill="none" stroke="midnightblue" d="M283.4,-147.4C299.28,-121.72 334.89,-69.4 378,-39.5 380.15,-38.01 382.39,-36.61 384.71,-35.28"/>
<polygon fill="midnightblue" stroke="midnightblue" points="386.64,-38.22 393.94,-30.55 383.45,-31.99 386.64,-38.22"/>
</g>
<!-- Node4 -->
<g id="node4" class="node">
<title>Node4</title>
<g id="a_node4"><a xlink:href="struct_k_u_k_a_1_1_f_r_i_1_1_client_data.html#ac77b81d510899c1afba106c2ec8c1727" target="_top" xlink:title=" ">
<polygon fill="white" stroke="black" points="706,-291.5 706,-321.5 825,-321.5 825,-291.5 706,-291.5"/>
<text text-anchor="start" x="714" y="-309.5" font-family="Helvetica,sans-Serif" font-size="10.00">KUKA::FRI::ClientData</text>
<text text-anchor="middle" x="765.5" y="-298.5" font-family="Helvetica,sans-Serif" font-size="10.00">::getAnalogIOValue</text>
</a>
</g>
</g>
<!-- Node3&#45;&gt;Node4 -->
<g id="edge3" class="edge">
<title>Node3&#45;&gt;Node4</title>
<path fill="none" stroke="midnightblue" d="M504.54,-308.96C558.18,-308.45 638.57,-307.69 695.74,-307.15"/>
<polygon fill="midnightblue" stroke="midnightblue" points="695.81,-310.65 705.77,-307.06 695.74,-303.65 695.81,-310.65"/>
</g>
<!-- Node5 -->
<g id="node5" class="node">
<title>Node5</title>
<g id="a_node5"><a xlink:href="struct_k_u_k_a_1_1_f_r_i_1_1_client_data.html#a5bce1775434444edbcecce32b0a7d06f" target="_top" xlink:title=" ">
<polygon fill="white" stroke="black" points="861,-218.5 861,-248.5 980,-248.5 980,-218.5 861,-218.5"/>
<text text-anchor="start" x="869" y="-236.5" font-family="Helvetica,sans-Serif" font-size="10.00">KUKA::FRI::ClientData</text>
<text text-anchor="middle" x="920.5" y="-225.5" font-family="Helvetica,sans-Serif" font-size="10.00">::getIOValue</text>
</a>
</g>
</g>
<!-- Node4&#45;&gt;Node5 -->
<g id="edge4" class="edge">
<title>Node4&#45;&gt;Node5</title>
<path fill="none" stroke="midnightblue" d="M802.86,-291.4C810.23,-288.22 817.89,-284.82 825,-281.5 843.85,-272.7 864.48,-262.31 881.65,-253.45"/>
<polygon fill="midnightblue" stroke="midnightblue" points="883.53,-256.42 890.79,-248.7 880.3,-250.2 883.53,-256.42"/>
</g>
<!-- Node7 -->
<g id="node7" class="node">
<title>Node7</title>
<g id="a_node7"><a xlink:href="struct_k_u_k_a_1_1_f_r_i_1_1_client_data.html#a38d771a0ba1bf366ed4c67320595354d" target="_top" xlink:title=" ">
<polygon fill="white" stroke="black" points="706,-241.5 706,-271.5 825,-271.5 825,-241.5 706,-241.5"/>
<text text-anchor="start" x="714" y="-259.5" font-family="Helvetica,sans-Serif" font-size="10.00">KUKA::FRI::ClientData</text>
<text text-anchor="middle" x="765.5" y="-248.5" font-family="Helvetica,sans-Serif" font-size="10.00">::getBooleanIOValue</text>
</a>
</g>
</g>
<!-- Node6&#45;&gt;Node7 -->
<g id="edge6" class="edge">
<title>Node6&#45;&gt;Node7</title>
<path fill="none" stroke="midnightblue" d="M504.54,-259.78C558.18,-259.1 638.57,-258.09 695.74,-257.37"/>
<polygon fill="midnightblue" stroke="midnightblue" points="695.82,-260.87 705.77,-257.24 695.73,-253.87 695.82,-260.87"/>
</g>
<!-- Node7&#45;&gt;Node5 -->
<g id="edge7" class="edge">
<title>Node7&#45;&gt;Node5</title>
<path fill="none" stroke="midnightblue" d="M825.22,-247.67C833.64,-246.41 842.36,-245.1 850.95,-243.81"/>
<polygon fill="midnightblue" stroke="midnightblue" points="851.57,-247.25 860.94,-242.3 850.53,-240.33 851.57,-247.25"/>
</g>
<!-- Node9 -->
<g id="node9" class="node">
<title>Node9</title>
<g id="a_node9"><a xlink:href="struct_k_u_k_a_1_1_f_r_i_1_1_client_data.html#add3e7842c27fd6322b4b1e1db2babc40" target="_top" xlink:title=" ">
<polygon fill="white" stroke="black" points="551,-196.5 551,-226.5 670,-226.5 670,-196.5 551,-196.5"/>
<text text-anchor="start" x="559" y="-214.5" font-family="Helvetica,sans-Serif" font-size="10.00">KUKA::FRI::ClientData</text>
<text text-anchor="middle" x="610.5" y="-203.5" font-family="Helvetica,sans-Serif" font-size="10.00">::getDigitalIOValue</text>
</a>
</g>
</g>
<!-- Node8&#45;&gt;Node9 -->
<g id="edge9" class="edge">
<title>Node8&#45;&gt;Node9</title>
<path fill="none" stroke="midnightblue" d="M504.62,-211.5C516.36,-211.5 528.84,-211.5 540.94,-211.5"/>
<polygon fill="midnightblue" stroke="midnightblue" points="540.98,-215 550.98,-211.5 540.98,-208 540.98,-215"/>
</g>
<!-- Node9&#45;&gt;Node5 -->
<g id="edge10" class="edge">
<title>Node9&#45;&gt;Node5</title>
<path fill="none" stroke="midnightblue" d="M670.16,-215.69C721.56,-219.36 796.33,-224.7 850.58,-228.58"/>
<polygon fill="midnightblue" stroke="midnightblue" points="850.58,-232.09 860.8,-229.31 851.07,-225.1 850.58,-232.09"/>
</g>
<!-- Node13 -->
<g id="node13" class="node">
<title>Node13</title>
<g id="a_node13"><a xlink:href="struct_k_u_k_a_1_1_f_r_i_1_1_client_data.html#a6f88f48e7296b0ff80e4cd9671eca371" target="_top" xlink:title=" ">
<polygon fill="white" stroke="black" points="551,-49.5 551,-79.5 670,-79.5 670,-49.5 551,-49.5"/>
<text text-anchor="start" x="559" y="-67.5" font-family="Helvetica,sans-Serif" font-size="10.00">KUKA::FRI::ClientData</text>
<text text-anchor="middle" x="610.5" y="-56.5" font-family="Helvetica,sans-Serif" font-size="10.00">::setAnalogIOValue</text>
</a>
</g>
</g>
<!-- Node12&#45;&gt;Node13 -->
<g id="edge14" class="edge">
<title>Node12&#45;&gt;Node13</title>
<path fill="none" stroke="midnightblue" d="M515.26,-64.5C523.65,-64.5 532.22,-64.5 540.62,-64.5"/>
<polygon fill="midnightblue" stroke="midnightblue" points="540.76,-68 550.76,-64.5 540.76,-61 540.76,-68"/>
</g>
<!-- Node14 -->
<g id="node14" class="node">
<title>Node14</title>
<g id="a_node14"><a xlink:href="struct_k_u_k_a_1_1_f_r_i_1_1_client_data.html#a95e1117745481a9624d4e868d9c0cbfe" target="_top" xlink:title=" ">
<polygon fill="white" stroke="black" points="706,-49.5 706,-79.5 825,-79.5 825,-49.5 706,-49.5"/>
<text text-anchor="start" x="714" y="-67.5" font-family="Helvetica,sans-Serif" font-size="10.00">KUKA::FRI::ClientData</text>
<text text-anchor="middle" x="765.5" y="-56.5" font-family="Helvetica,sans-Serif" font-size="10.00">::setIOValue</text>
</a>
</g>
</g>
<!-- Node13&#45;&gt;Node14 -->
<g id="edge15" class="edge">
<title>Node13&#45;&gt;Node14</title>
<path fill="none" stroke="midnightblue" d="M670.22,-64.5C678.54,-64.5 687.17,-64.5 695.67,-64.5"/>
<polygon fill="midnightblue" stroke="midnightblue" points="695.94,-68 705.94,-64.5 695.94,-61 695.94,-68"/>
</g>
<!-- Node14&#45;&gt;Node5 -->
<g id="edge16" class="edge">
<title>Node14&#45;&gt;Node5</title>
<path fill="none" stroke="midnightblue" d="M780.35,-79.8C807.32,-109.58 867.01,-175.52 898.73,-210.56"/>
<polygon fill="midnightblue" stroke="midnightblue" points="896.49,-213.3 905.79,-218.36 901.68,-208.6 896.49,-213.3"/>
</g>
<!-- Node16 -->
<g id="node16" class="node">
<title>Node16</title>
<g id="a_node16"><a xlink:href="struct_k_u_k_a_1_1_f_r_i_1_1_client_data.html#aac37310af7f0dd4db183106c278e0810" target="_top" xlink:title=" ">
<polygon fill="white" stroke="black" points="551,-0.5 551,-30.5 670,-30.5 670,-0.5 551,-0.5"/>
<text text-anchor="start" x="559" y="-18.5" font-family="Helvetica,sans-Serif" font-size="10.00">KUKA::FRI::ClientData</text>
<text text-anchor="middle" x="610.5" y="-7.5" font-family="Helvetica,sans-Serif" font-size="10.00">::setDigitalIOValue</text>
</a>
</g>
</g>
<!-- Node15&#45;&gt;Node16 -->
<g id="edge18" class="edge">
<title>Node15&#45;&gt;Node16</title>
<path fill="none" stroke="midnightblue" d="M515.26,-15.5C523.65,-15.5 532.22,-15.5 540.62,-15.5"/>
<polygon fill="midnightblue" stroke="midnightblue" points="540.76,-19 550.76,-15.5 540.76,-12 540.76,-19"/>
</g>
<!-- Node16&#45;&gt;Node14 -->
<g id="edge19" class="edge">
<title>Node16&#45;&gt;Node14</title>
<path fill="none" stroke="midnightblue" d="M658.65,-30.6C674.14,-35.56 691.52,-41.13 707.65,-46.29"/>
<polygon fill="midnightblue" stroke="midnightblue" points="706.91,-49.73 717.5,-49.45 709.05,-43.07 706.91,-49.73"/>
</g>
</g>
</svg>
        <g id="navigator" transform="translate(0 0)" fill="#404254">
                <rect fill="#f2f5e9" fill-opacity="0.5" stroke="#606060" stroke-width=".5" x="0" y="0" width="60" height="60"/>
                <use id="zoomplus" xlink:href="#zoomPlus" x="17" y="9" onmousedown="handleZoom(evt,'in')"/>
                <use id="zoomminus" xlink:href="#zoomMin" x="42" y="9" onmousedown="handleZoom(evt,'out')"/>
                <use id="reset" xlink:href="#resetDef" x="30" y="36" onmousedown="handleReset()"/>
                <g id="arrowUp" xlink:href="#dirArrow" transform="translate(30 24)" onmousedown="handlePan(0,-1)">
                  <use xlink:href="#rim" fill="#404040">
                        <set attributeName="fill" to="#808080" begin="arrowUp.mouseover" end="arrowUp.mouseout"/>
                  </use>
                  <path fill="none" stroke="white" stroke-width="1.5" d="M0,-3.0v7 M-2.5,-0.5L0,-3.0L2.5,-0.5"/>
                </g>
                <g id="arrowRight" xlink:href="#dirArrow" transform="rotate(90) translate(36 -43)" onmousedown="handlePan(1,0)">
                  <use xlink:href="#rim" fill="#404040">
                        <set attributeName="fill" to="#808080" begin="arrowRight.mouseover" end="arrowRight.mouseout"/>
                  </use>
                  <path fill="none" stroke="white" stroke-width="1.5" d="M0,-3.0v7 M-2.5,-0.5L0,-3.0L2.5,-0.5"/>
                </g>
                <g id="arrowDown" xlink:href="#dirArrow" transform="rotate(180) translate(-30 -48)" onmousedown="handlePan(0,1)">
                  <use xlink:href="#rim" fill="#404040">
                        <set attributeName="fill" to="#808080" begin="arrowDown.mouseover" end="arrowDown.mouseout"/>
                  </use>
                  <path fill="none" stroke="white" stroke-width="1.5" d="M0,-3.0v7 M-2.5,-0.5L0,-3.0L2.5,-0.5"/>
                </g>
                <g id="arrowLeft" xlink:href="#dirArrow" transform="rotate(270) translate(-36 17)" onmousedown="handlePan(-1,0)">
                  <use xlink:href="#rim" fill="#404040">
                        <set attributeName="fill" to="#808080" begin="arrowLeft.mouseover" end="arrowLeft.mouseout"/>
                  </use>
                  <path fill="none" stroke="white" stroke-width="1.5" d="M0,-3.0v7 M-2.5,-0.5L0,-3.0L2.5,-0.5"/>
                </g>
        </g>
        <svg viewBox="0 0 15 15" width="100%" height="30px" preserveAspectRatio="xMaxYMin meet">
         <g id="arrow_out" transform="scale(0.3 0.3)">
          <a xlink:href="class_i_o_access_client_ace9215030d5cdb787ad8f200ba073e8c_cgraph_org.svg" target="_base">
           <rect id="button" ry="5" rx="5" y="6" x="6" height="38" width="38"
                fill="#f2f5e9" fill-opacity="0.5" stroke="#606060" stroke-width="1.0"/>
           <path id="arrow"
             d="M 11.500037,31.436501 C 11.940474,20.09759 22.043105,11.32322 32.158766,21.979434 L 37.068811,17.246167 C 37.068811,17.246167 37.088388,32 37.088388,32 L 22.160133,31.978069 C 22.160133,31.978069 26.997745,27.140456 26.997745,27.140456 C 18.528582,18.264221 13.291696,25.230495 11.500037,31.436501 z"
             style="fill:#404040;"/>
          </a>
         </g>
        </svg>
</svg>
