<?xml version="1.0" encoding="UTF-8" standalone="no"?>
<!DOCTYPE svg PUBLIC "-//W3C//DTD SVG 1.1//EN"
 "http://www.w3.org/Graphics/SVG/1.1/DTD/svg11.dtd">
<!-- Generated by graphviz version 2.43.0 (0)
 -->
<!-- Title: KUKA::FRI::CommandMessageEncoder Pages: 1 -->
<!--zoomable 340 -->
<svg id="main" version="1.1" xmlns="http://www.w3.org/2000/svg" xmlns:xlink="http://www.w3.org/1999/xlink" xml:space="preserve" onload="init(evt)">
<style type="text/css"><![CDATA[
.edge:hover path { stroke: red; }
.edge:hover polygon { stroke: red; fill: red; }
]]></style>
<script type="text/javascript"><![CDATA[
var edges = document.getElementsByTagName('g');
if (edges && edges.length) {
  for (var i=0;i<edges.length;i++) {
    if (edges[i].id.substr(0,4)=='edge') {
      edges[i].setAttribute('class','edge');
    }
  }
}
]]></script>
        <defs>
                <circle id="rim" cx="0" cy="0" r="7"/>
                <circle id="rim2" cx="0" cy="0" r="3.5"/>
                <g id="zoomPlus">
                        <use xlink:href="#rim" fill="#404040">
                                <set attributeName="fill" to="#808080" begin="zoomplus.mouseover" end="zoomplus.mouseout"/>
                        </use>
                        <path d="M-4,0h8M0,-4v8" fill="none" stroke="white" stroke-width="1.5" pointer-events="none"/>
                </g>
                <g id="zoomMin">
                        <use xlink:href="#rim" fill="#404040">
                                <set attributeName="fill" to="#808080" begin="zoomminus.mouseover" end="zoomminus.mouseout"/>
                        </use>
                        <path d="M-4,0h8" fill="none" stroke="white" stroke-width="1.5" pointer-events="none"/>
                </g>
                <g id="dirArrow">
                        <path fill="none" stroke="white" stroke-width="1.5" d="M0,-3.0v7 M-2.5,-0.5L0,-3.0L2.5,-0.5"/>
                </g>
               <g id="resetDef">
                       <use xlink:href="#rim2" fill="#404040">
                               <set attributeName="fill" to="#808080" begin="reset.mouseover" end="reset.mouseout"/>
                       </use>
               </g>
        </defs>

<script type="text/javascript">
var viewWidth = 732;
var viewHeight = 340;
var sectionId = 'dynsection-0';
</script>
<script xlink:href="svgpan.js"/>
<svg id="graph" class="graph">
<g id="viewport">
<title>KUKA::FRI::CommandMessageEncoder</title>
<polygon fill="white" stroke="transparent" points="-4,4 -4,-336 728,-336 728,4 -4,4"/>
<!-- Node1 -->
<g id="node1" class="node">
<title>Node1</title>
<g id="a_node1"><a xlink:title=" ">
<polygon fill="#bfbfbf" stroke="black" points="446,-0.5 446,-30.5 604,-30.5 604,-0.5 446,-0.5"/>
<text text-anchor="start" x="454" y="-18.5" font-family="Helvetica,sans-Serif" font-size="10.00">KUKA::FRI::CommandMessage</text>
<text text-anchor="middle" x="525" y="-7.5" font-family="Helvetica,sans-Serif" font-size="10.00">Encoder</text>
</a>
</g>
</g>
<!-- Node2 -->
<g id="node2" class="node">
<title>Node2</title>
<g id="a_node2"><a xlink:href="struct___f_r_i_command_message.html" target="_top" xlink:title=" ">
<polygon fill="white" stroke="black" points="376.5,-84 376.5,-103 499.5,-103 499.5,-84 376.5,-84"/>
<text text-anchor="middle" x="438" y="-91" font-family="Helvetica,sans-Serif" font-size="10.00">_FRICommandMessage</text>
</a>
</g>
</g>
<!-- Node2&#45;&gt;Node1 -->
<g id="edge1" class="edge">
<title>Node2&#45;&gt;Node1</title>
<path fill="none" stroke="#9a32cd" stroke-dasharray="5,2" d="M455.85,-76.9C471.46,-63.27 493.91,-43.66 508.95,-30.52"/>
<polygon fill="#9a32cd" stroke="#9a32cd" points="453.21,-74.57 447.98,-83.78 457.81,-79.84 453.21,-74.57"/>
<text text-anchor="middle" x="518" y="-52" font-family="Helvetica,sans-Serif" font-size="10.00"> m_pMessage</text>
</g>
<!-- Node3 -->
<g id="node3" class="node">
<title>Node3</title>
<g id="a_node3"><a xlink:href="struct___message_command_data.html" target="_top" xlink:title=" ">
<polygon fill="white" stroke="black" points="214,-167.5 214,-186.5 342,-186.5 342,-167.5 214,-167.5"/>
<text text-anchor="middle" x="278" y="-174.5" font-family="Helvetica,sans-Serif" font-size="10.00">_MessageCommandData</text>
</a>
</g>
</g>
<!-- Node3&#45;&gt;Node2 -->
<g id="edge2" class="edge">
<title>Node3&#45;&gt;Node2</title>
<path fill="none" stroke="#9a32cd" stroke-dasharray="5,2" d="M296.11,-161.03C309.54,-150.48 328.61,-136.58 347,-127 366.34,-116.92 389.51,-108.7 407.62,-103.05"/>
<polygon fill="#9a32cd" stroke="#9a32cd" points="293.78,-158.42 288.17,-167.41 298.16,-163.88 293.78,-158.42"/>
<text text-anchor="middle" x="380.5" y="-135.5" font-family="Helvetica,sans-Serif" font-size="10.00"> commandData</text>
</g>
<!-- Node4 -->
<g id="node4" class="node">
<title>Node4</title>
<g id="a_node4"><a xlink:href="struct___fri_i_o_value.html" target="_top" xlink:title=" ">
<polygon fill="white" stroke="black" points="0,-245.5 0,-264.5 68,-264.5 68,-245.5 0,-245.5"/>
<text text-anchor="middle" x="34" y="-252.5" font-family="Helvetica,sans-Serif" font-size="10.00">_FriIOValue</text>
</a>
</g>
</g>
<!-- Node4&#45;&gt;Node3 -->
<g id="edge3" class="edge">
<title>Node4&#45;&gt;Node3</title>
<path fill="none" stroke="#9a32cd" stroke-dasharray="5,2" d="M36.12,-235.17C38.32,-224.66 42.82,-212.26 52,-205 76.37,-185.74 156.08,-179.95 213.94,-178.35"/>
<polygon fill="#9a32cd" stroke="#9a32cd" points="32.64,-234.73 34.55,-245.15 39.56,-235.81 32.64,-234.73"/>
<text text-anchor="middle" x="88" y="-213.5" font-family="Helvetica,sans-Serif" font-size="10.00"> writeIORequest</text>
</g>
<!-- Node5 -->
<g id="node5" class="node">
<title>Node5</title>
<g id="a_node5"><a xlink:href="struct___transformation.html" target="_top" xlink:title=" ">
<polygon fill="white" stroke="black" points="86.5,-245.5 86.5,-264.5 173.5,-264.5 173.5,-245.5 86.5,-245.5"/>
<text text-anchor="middle" x="130" y="-252.5" font-family="Helvetica,sans-Serif" font-size="10.00">_Transformation</text>
</a>
</g>
</g>
<!-- Node5&#45;&gt;Node3 -->
<g id="edge4" class="edge">
<title>Node5&#45;&gt;Node3</title>
<path fill="none" stroke="#9a32cd" stroke-dasharray="5,2" d="M127.38,-235.45C127.01,-225.22 128.52,-213 136,-205 146.8,-193.46 181.37,-186.74 213.69,-182.89"/>
<polygon fill="#9a32cd" stroke="#9a32cd" points="123.9,-235.86 128.32,-245.49 130.87,-235.21 123.9,-235.86"/>
<text text-anchor="middle" x="199.5" y="-213.5" font-family="Helvetica,sans-Serif" font-size="10.00"> commandedTransformations</text>
</g>
<!-- Node6 -->
<g id="node6" class="node">
<title>Node6</title>
<g id="a_node6"><a xlink:href="struct___time_stamp.html" target="_top" xlink:title=" ">
<polygon fill="white" stroke="black" points="94,-312.5 94,-331.5 166,-331.5 166,-312.5 94,-312.5"/>
<text text-anchor="middle" x="130" y="-319.5" font-family="Helvetica,sans-Serif" font-size="10.00">_TimeStamp</text>
</a>
</g>
</g>
<!-- Node6&#45;&gt;Node5 -->
<g id="edge5" class="edge">
<title>Node6&#45;&gt;Node5</title>
<path fill="none" stroke="#9a32cd" stroke-dasharray="5,2" d="M130,-302.04C130,-289.67 130,-274.12 130,-264.63"/>
<polygon fill="#9a32cd" stroke="#9a32cd" points="126.5,-302.23 130,-312.23 133.5,-302.23 126.5,-302.23"/>
<text text-anchor="middle" x="154.5" y="-286" font-family="Helvetica,sans-Serif" font-size="10.00"> timestamp</text>
</g>
<!-- Node7 -->
<g id="node7" class="node">
<title>Node7</title>
<g id="a_node7"><a xlink:href="struct___joint_values.html" target="_top" xlink:title=" ">
<polygon fill="white" stroke="black" points="224,-245.5 224,-264.5 296,-264.5 296,-245.5 224,-245.5"/>
<text text-anchor="middle" x="260" y="-252.5" font-family="Helvetica,sans-Serif" font-size="10.00">_JointValues</text>
</a>
</g>
</g>
<!-- Node7&#45;&gt;Node3 -->
<g id="edge6" class="edge">
<title>Node7&#45;&gt;Node3</title>
<path fill="none" stroke="#9a32cd" stroke-dasharray="5,2" d="M264.45,-235.22C268.12,-219.7 273.18,-198.36 275.96,-186.62"/>
<polygon fill="#9a32cd" stroke="#9a32cd" points="260.96,-234.74 262.06,-245.28 267.78,-236.36 260.96,-234.74"/>
<text text-anchor="middle" x="300.5" y="-219" font-family="Helvetica,sans-Serif" font-size="10.00"> jointPosition</text>
<text text-anchor="middle" x="300.5" y="-208" font-family="Helvetica,sans-Serif" font-size="10.00">jointTorque</text>
</g>
<!-- Node8 -->
<g id="node8" class="node">
<title>Node8</title>
<g id="a_node8"><a xlink:href="struct__pb__callback__t.html" target="_top" xlink:title=" ">
<polygon fill="white" stroke="black" points="219,-312.5 219,-331.5 301,-331.5 301,-312.5 219,-312.5"/>
<text text-anchor="middle" x="260" y="-319.5" font-family="Helvetica,sans-Serif" font-size="10.00">_pb_callback_t</text>
</a>
</g>
</g>
<!-- Node8&#45;&gt;Node7 -->
<g id="edge7" class="edge">
<title>Node8&#45;&gt;Node7</title>
<path fill="none" stroke="#9a32cd" stroke-dasharray="5,2" d="M260,-302.04C260,-289.67 260,-274.12 260,-264.63"/>
<polygon fill="#9a32cd" stroke="#9a32cd" points="256.5,-302.23 260,-312.23 263.5,-302.23 256.5,-302.23"/>
<text text-anchor="middle" x="273.5" y="-286" font-family="Helvetica,sans-Serif" font-size="10.00"> value</text>
</g>
<!-- Node9 -->
<g id="node9" class="node">
<title>Node9</title>
<g id="a_node9"><a xlink:href="struct___cartesian_vector.html" target="_top" xlink:title=" ">
<polygon fill="white" stroke="black" points="314,-245.5 314,-264.5 406,-264.5 406,-245.5 314,-245.5"/>
<text text-anchor="middle" x="360" y="-252.5" font-family="Helvetica,sans-Serif" font-size="10.00">_CartesianVector</text>
</a>
</g>
</g>
<!-- Node9&#45;&gt;Node3 -->
<g id="edge8" class="edge">
<title>Node9&#45;&gt;Node3</title>
<path fill="none" stroke="#9a32cd" stroke-dasharray="5,2" d="M353.21,-235.85C348.71,-225.77 341.97,-213.56 333,-205 324.61,-197 313.39,-190.91 303.28,-186.57"/>
<polygon fill="#9a32cd" stroke="#9a32cd" points="350.07,-237.42 357.09,-245.36 356.55,-234.78 350.07,-237.42"/>
<text text-anchor="middle" x="415.5" y="-213.5" font-family="Helvetica,sans-Serif" font-size="10.00"> cartesianWrenchFeedForward</text>
</g>
<!-- Node10 -->
<g id="node10" class="node">
<title>Node10</title>
<g id="a_node10"><a xlink:href="struct___message_header.html" target="_top" xlink:title=" ">
<polygon fill="white" stroke="black" points="360.5,-167.5 360.5,-186.5 453.5,-186.5 453.5,-167.5 360.5,-167.5"/>
<text text-anchor="middle" x="407" y="-174.5" font-family="Helvetica,sans-Serif" font-size="10.00">_MessageHeader</text>
</a>
</g>
</g>
<!-- Node10&#45;&gt;Node2 -->
<g id="edge9" class="edge">
<title>Node10&#45;&gt;Node2</title>
<path fill="none" stroke="#9a32cd" stroke-dasharray="5,2" d="M413.9,-157.85C420.38,-140.83 429.78,-116.11 434.71,-103.16"/>
<polygon fill="#9a32cd" stroke="#9a32cd" points="410.6,-156.69 410.32,-167.28 417.14,-159.18 410.6,-156.69"/>
<text text-anchor="middle" x="442.5" y="-135.5" font-family="Helvetica,sans-Serif" font-size="10.00"> header</text>
</g>
<!-- Node11 -->
<g id="node11" class="node">
<title>Node11</title>
<g id="a_node11"><a xlink:href="struct___message_end_of.html" target="_top" xlink:title=" ">
<polygon fill="white" stroke="black" points="471.5,-167.5 471.5,-186.5 560.5,-186.5 560.5,-167.5 471.5,-167.5"/>
<text text-anchor="middle" x="516" y="-174.5" font-family="Helvetica,sans-Serif" font-size="10.00">_MessageEndOf</text>
</a>
</g>
</g>
<!-- Node11&#45;&gt;Node2 -->
<g id="edge10" class="edge">
<title>Node11&#45;&gt;Node2</title>
<path fill="none" stroke="#9a32cd" stroke-dasharray="5,2" d="M500.44,-159.74C484.14,-142.71 459.15,-116.6 446.29,-103.16"/>
<polygon fill="#9a32cd" stroke="#9a32cd" points="498.21,-162.47 507.65,-167.28 503.27,-157.63 498.21,-162.47"/>
<text text-anchor="middle" x="534.5" y="-135.5" font-family="Helvetica,sans-Serif" font-size="10.00"> endOfMessageData</text>
</g>
<!-- Node12 -->
<g id="node12" class="node">
<title>Node12</title>
<g id="a_node12"><a xlink:href="struct___checksum.html" target="_top" xlink:title=" ">
<polygon fill="white" stroke="black" points="481.5,-245.5 481.5,-264.5 550.5,-264.5 550.5,-245.5 481.5,-245.5"/>
<text text-anchor="middle" x="516" y="-252.5" font-family="Helvetica,sans-Serif" font-size="10.00">_Checksum</text>
</a>
</g>
</g>
<!-- Node12&#45;&gt;Node11 -->
<g id="edge11" class="edge">
<title>Node12&#45;&gt;Node11</title>
<path fill="none" stroke="#9a32cd" stroke-dasharray="5,2" d="M516,-235.22C516,-219.7 516,-198.36 516,-186.62"/>
<polygon fill="#9a32cd" stroke="#9a32cd" points="512.5,-235.28 516,-245.28 519.5,-235.28 512.5,-235.28"/>
<text text-anchor="middle" x="561.5" y="-213.5" font-family="Helvetica,sans-Serif" font-size="10.00"> messageChecksum</text>
</g>
<!-- Node13 -->
<g id="node13" class="node">
<title>Node13</title>
<g id="a_node13"><a xlink:href="struct_k_u_k_a_1_1_f_r_i_1_1_command_message_encoder_1_1_local_command_data_container.html" target="_top" xlink:title=" ">
<polygon fill="white" stroke="black" points="534,-78.5 534,-108.5 724,-108.5 724,-78.5 534,-78.5"/>
<text text-anchor="start" x="542" y="-96.5" font-family="Helvetica,sans-Serif" font-size="10.00">KUKA::FRI::CommandMessage</text>
<text text-anchor="middle" x="629" y="-85.5" font-family="Helvetica,sans-Serif" font-size="10.00">Encoder::LocalCommandDataContainer</text>
</a>
</g>
</g>
<!-- Node13&#45;&gt;Node1 -->
<g id="edge12" class="edge">
<title>Node13&#45;&gt;Node1</title>
<path fill="none" stroke="#9a32cd" stroke-dasharray="5,2" d="M601.1,-72.11C583.21,-59.04 560.43,-42.39 544.47,-30.73"/>
<polygon fill="#9a32cd" stroke="#9a32cd" points="599.3,-75.13 609.44,-78.2 603.43,-69.48 599.3,-75.13"/>
<text text-anchor="middle" x="625.5" y="-52" font-family="Helvetica,sans-Serif" font-size="10.00"> m_tRecvContainer</text>
</g>
<!-- Node14 -->
<g id="node14" class="node">
<title>Node14</title>
<g id="a_node14"><a xlink:href="structrepeated_double_arguments.html" target="_top" xlink:title=" ">
<polygon fill="white" stroke="black" points="579,-167.5 579,-186.5 711,-186.5 711,-167.5 579,-167.5"/>
<text text-anchor="middle" x="645" y="-174.5" font-family="Helvetica,sans-Serif" font-size="10.00">repeatedDoubleArguments</text>
</a>
</g>
</g>
<!-- Node14&#45;&gt;Node13 -->
<g id="edge13" class="edge">
<title>Node14&#45;&gt;Node13</title>
<path fill="none" stroke="#9a32cd" stroke-dasharray="5,2" d="M641.31,-157.23C638.41,-142.41 634.41,-122.05 631.77,-108.6"/>
<polygon fill="#9a32cd" stroke="#9a32cd" points="637.93,-158.14 643.29,-167.28 644.8,-156.79 637.93,-158.14"/>
<text text-anchor="middle" x="667.5" y="-141" font-family="Helvetica,sans-Serif" font-size="10.00"> jointPosition</text>
<text text-anchor="middle" x="667.5" y="-130" font-family="Helvetica,sans-Serif" font-size="10.00">jointTorque</text>
</g>
</g>
</svg>
        <g id="navigator" transform="translate(0 0)" fill="#404254">
                <rect fill="#f2f5e9" fill-opacity="0.5" stroke="#606060" stroke-width=".5" x="0" y="0" width="60" height="60"/>
                <use id="zoomplus" xlink:href="#zoomPlus" x="17" y="9" onmousedown="handleZoom(evt,'in')"/>
                <use id="zoomminus" xlink:href="#zoomMin" x="42" y="9" onmousedown="handleZoom(evt,'out')"/>
                <use id="reset" xlink:href="#resetDef" x="30" y="36" onmousedown="handleReset()"/>
                <g id="arrowUp" xlink:href="#dirArrow" transform="translate(30 24)" onmousedown="handlePan(0,-1)">
                  <use xlink:href="#rim" fill="#404040">
                        <set attributeName="fill" to="#808080" begin="arrowUp.mouseover" end="arrowUp.mouseout"/>
                  </use>
                  <path fill="none" stroke="white" stroke-width="1.5" d="M0,-3.0v7 M-2.5,-0.5L0,-3.0L2.5,-0.5"/>
                </g>
                <g id="arrowRight" xlink:href="#dirArrow" transform="rotate(90) translate(36 -43)" onmousedown="handlePan(1,0)">
                  <use xlink:href="#rim" fill="#404040">
                        <set attributeName="fill" to="#808080" begin="arrowRight.mouseover" end="arrowRight.mouseout"/>
                  </use>
                  <path fill="none" stroke="white" stroke-width="1.5" d="M0,-3.0v7 M-2.5,-0.5L0,-3.0L2.5,-0.5"/>
                </g>
                <g id="arrowDown" xlink:href="#dirArrow" transform="rotate(180) translate(-30 -48)" onmousedown="handlePan(0,1)">
                  <use xlink:href="#rim" fill="#404040">
                        <set attributeName="fill" to="#808080" begin="arrowDown.mouseover" end="arrowDown.mouseout"/>
                  </use>
                  <path fill="none" stroke="white" stroke-width="1.5" d="M0,-3.0v7 M-2.5,-0.5L0,-3.0L2.5,-0.5"/>
                </g>
                <g id="arrowLeft" xlink:href="#dirArrow" transform="rotate(270) translate(-36 17)" onmousedown="handlePan(-1,0)">
                  <use xlink:href="#rim" fill="#404040">
                        <set attributeName="fill" to="#808080" begin="arrowLeft.mouseover" end="arrowLeft.mouseout"/>
                  </use>
                  <path fill="none" stroke="white" stroke-width="1.5" d="M0,-3.0v7 M-2.5,-0.5L0,-3.0L2.5,-0.5"/>
                </g>
        </g>
        <svg viewBox="0 0 15 15" width="100%" height="30px" preserveAspectRatio="xMaxYMin meet">
         <g id="arrow_out" transform="scale(0.3 0.3)">
          <a xlink:href="class_k_u_k_a_1_1_f_r_i_1_1_command_message_encoder__coll__graph_org.svg" target="_base">
           <rect id="button" ry="5" rx="5" y="6" x="6" height="38" width="38"
                fill="#f2f5e9" fill-opacity="0.5" stroke="#606060" stroke-width="1.0"/>
           <path id="arrow"
             d="M 11.500037,31.436501 C 11.940474,20.09759 22.043105,11.32322 32.158766,21.979434 L 37.068811,17.246167 C 37.068811,17.246167 37.088388,32 37.088388,32 L 22.160133,31.978069 C 22.160133,31.978069 26.997745,27.140456 26.997745,27.140456 C 18.528582,18.264221 13.291696,25.230495 11.500037,31.436501 z"
             style="fill:#404040;"/>
          </a>
         </g>
        </svg>
</svg>
