<?xml version="1.0" encoding="UTF-8" standalone="no"?>
<!DOCTYPE svg PUBLIC "-//W3C//DTD SVG 1.1//EN"
 "http://www.w3.org/Graphics/SVG/1.1/DTD/svg11.dtd">
<!-- Generated by graphviz version 2.43.0 (0)
 -->
<!-- Title: KUKA::FRI::LBRCommand::setTorque Pages: 1 -->
<svg width="325pt" height="88pt"
 viewBox="0.00 0.00 325.00 88.00" xmlns="http://www.w3.org/2000/svg" xmlns:xlink="http://www.w3.org/1999/xlink">
<g id="graph0" class="graph" transform="scale(1 1) rotate(0) translate(4 84)">
<title>KUKA::FRI::LBRCommand::setTorque</title>
<polygon fill="white" stroke="transparent" points="-4,4 -4,-84 321,-84 321,4 -4,4"/>
<!-- Node1 -->
<g id="node1" class="node">
<title>Node1</title>
<g id="a_node1"><a xlink:title="Set the applied joint torques for the current interpolation step.">
<polygon fill="#bfbfbf" stroke="black" points="180,-24.5 180,-54.5 317,-54.5 317,-24.5 180,-24.5"/>
<text text-anchor="start" x="188" y="-42.5" font-family="Helvetica,sans-Serif" font-size="10.00">KUKA::FRI::LBRCommand</text>
<text text-anchor="middle" x="248.5" y="-31.5" font-family="Helvetica,sans-Serif" font-size="10.00">::setTorque</text>
</a>
</g>
</g>
<!-- Node2 -->
<g id="node2" class="node">
<title>Node2</title>
<g id="a_node2"><a xlink:href="class_l_b_r_torque_sine_overlay_client.html#ac6be1b28bf0fbb6d4ef82b45e7cb28f4" target="_top" xlink:title="Callback for the FRI state &#39;Commanding Active&#39;.">
<polygon fill="white" stroke="black" points="0,-49.5 0,-79.5 144,-79.5 144,-49.5 0,-49.5"/>
<text text-anchor="start" x="8" y="-67.5" font-family="Helvetica,sans-Serif" font-size="10.00">LBRTorqueSineOverlayClient</text>
<text text-anchor="middle" x="72" y="-56.5" font-family="Helvetica,sans-Serif" font-size="10.00">::command</text>
</a>
</g>
</g>
<!-- Node1&#45;&gt;Node2 -->
<g id="edge1" class="edge">
<title>Node1&#45;&gt;Node2</title>
<path fill="none" stroke="midnightblue" d="M169.39,-50.69C161.02,-51.89 152.53,-53.11 144.24,-54.29"/>
<polygon fill="midnightblue" stroke="midnightblue" points="170.13,-54.12 179.53,-49.24 169.14,-47.19 170.13,-54.12"/>
</g>
<!-- Node3 -->
<g id="node3" class="node">
<title>Node3</title>
<g id="a_node3"><a xlink:href="class_l_b_r_torque_sine_overlay_client.html#a8d34866a1ee8c864ee1c1abeccb5028b" target="_top" xlink:title="Callback for the FRI session state &#39;Commanding Wait&#39;.">
<polygon fill="white" stroke="black" points="0,-0.5 0,-30.5 144,-30.5 144,-0.5 0,-0.5"/>
<text text-anchor="start" x="8" y="-18.5" font-family="Helvetica,sans-Serif" font-size="10.00">LBRTorqueSineOverlayClient</text>
<text text-anchor="middle" x="72" y="-7.5" font-family="Helvetica,sans-Serif" font-size="10.00">::waitForCommand</text>
</a>
</g>
</g>
<!-- Node1&#45;&gt;Node3 -->
<g id="edge2" class="edge">
<title>Node1&#45;&gt;Node3</title>
<path fill="none" stroke="midnightblue" d="M169.39,-28.76C161.02,-27.61 152.53,-26.44 144.24,-25.3"/>
<polygon fill="midnightblue" stroke="midnightblue" points="169.15,-32.26 179.53,-30.15 170.1,-25.32 169.15,-32.26"/>
</g>
</g>
</svg>
