<?xml version="1.0" encoding="UTF-8" standalone="no"?>
<!DOCTYPE svg PUBLIC "-//W3C//DTD SVG 1.1//EN"
 "http://www.w3.org/Graphics/SVG/1.1/DTD/svg11.dtd">
<!-- Generated by graphviz version 2.43.0 (0)
 -->
<!-- Title: KUKA::FRI::UdpConnection::isOpen Pages: 1 -->
<svg width="500pt" height="161pt"
 viewBox="0.00 0.00 500.00 161.00" xmlns="http://www.w3.org/2000/svg" xmlns:xlink="http://www.w3.org/1999/xlink">
<g id="graph0" class="graph" transform="scale(1 1) rotate(0) translate(4 157)">
<title>KUKA::FRI::UdpConnection::isOpen</title>
<polygon fill="white" stroke="transparent" points="-4,4 -4,-157 496,-157 496,4 -4,4"/>
<!-- Node1 -->
<g id="node1" class="node">
<title>Node1</title>
<g id="a_node1"><a xlink:title="Checks whether a connection to the KUKA Sunrise controller is established.">
<polygon fill="#bfbfbf" stroke="black" points="352,-49.5 352,-79.5 492,-79.5 492,-49.5 352,-49.5"/>
<text text-anchor="start" x="360" y="-67.5" font-family="Helvetica,sans-Serif" font-size="10.00">KUKA::FRI::UdpConnection</text>
<text text-anchor="middle" x="422" y="-56.5" font-family="Helvetica,sans-Serif" font-size="10.00">::isOpen</text>
</a>
</g>
</g>
<!-- Node2 -->
<g id="node2" class="node">
<title>Node2</title>
<g id="a_node2"><a xlink:href="class_k_u_k_a_1_1_f_r_i_1_1_udp_connection.html#aaa4a42e6ed80d5e5d0cd9e6774196104" target="_top" xlink:title="Close a connection to the KUKA Sunrise controller.">
<polygon fill="white" stroke="black" points="176,-98.5 176,-128.5 316,-128.5 316,-98.5 176,-98.5"/>
<text text-anchor="start" x="184" y="-116.5" font-family="Helvetica,sans-Serif" font-size="10.00">KUKA::FRI::UdpConnection</text>
<text text-anchor="middle" x="246" y="-105.5" font-family="Helvetica,sans-Serif" font-size="10.00">::close</text>
</a>
</g>
</g>
<!-- Node1&#45;&gt;Node2 -->
<g id="edge1" class="edge">
<title>Node1&#45;&gt;Node2</title>
<path fill="none" stroke="midnightblue" d="M357.72,-82.32C338.93,-87.61 318.55,-93.35 300.45,-98.45"/>
<polygon fill="midnightblue" stroke="midnightblue" points="358.7,-85.68 367.37,-79.6 356.8,-78.94 358.7,-85.68"/>
</g>
<!-- Node5 -->
<g id="node5" class="node">
<title>Node5</title>
<g id="a_node5"><a xlink:href="class_k_u_k_a_1_1_f_r_i_1_1_udp_connection.html#aae5a35cfb41f855e13030b145c20b2ff" target="_top" xlink:title="Receive a new FRI monitoring message from the KUKA Sunrise controller.">
<polygon fill="white" stroke="black" points="176,-49.5 176,-79.5 316,-79.5 316,-49.5 176,-49.5"/>
<text text-anchor="start" x="184" y="-67.5" font-family="Helvetica,sans-Serif" font-size="10.00">KUKA::FRI::UdpConnection</text>
<text text-anchor="middle" x="246" y="-56.5" font-family="Helvetica,sans-Serif" font-size="10.00">::receive</text>
</a>
</g>
</g>
<!-- Node1&#45;&gt;Node5 -->
<g id="edge4" class="edge">
<title>Node1&#45;&gt;Node5</title>
<path fill="none" stroke="midnightblue" d="M341.97,-64.5C333.38,-64.5 324.68,-64.5 316.22,-64.5"/>
<polygon fill="midnightblue" stroke="midnightblue" points="341.98,-68 351.98,-64.5 341.98,-61 341.98,-68"/>
</g>
<!-- Node6 -->
<g id="node6" class="node">
<title>Node6</title>
<g id="a_node6"><a xlink:href="class_k_u_k_a_1_1_f_r_i_1_1_udp_connection.html#a9d3bd85371dd6fc558409230ab4d6cee" target="_top" xlink:title="Send a new FRI command message to the KUKA Sunrise controller.">
<polygon fill="white" stroke="black" points="176,-0.5 176,-30.5 316,-30.5 316,-0.5 176,-0.5"/>
<text text-anchor="start" x="184" y="-18.5" font-family="Helvetica,sans-Serif" font-size="10.00">KUKA::FRI::UdpConnection</text>
<text text-anchor="middle" x="246" y="-7.5" font-family="Helvetica,sans-Serif" font-size="10.00">::send</text>
</a>
</g>
</g>
<!-- Node1&#45;&gt;Node6 -->
<g id="edge5" class="edge">
<title>Node1&#45;&gt;Node6</title>
<path fill="none" stroke="midnightblue" d="M357.72,-46.68C338.93,-41.39 318.55,-35.65 300.45,-30.55"/>
<polygon fill="midnightblue" stroke="midnightblue" points="356.8,-50.06 367.37,-49.4 358.7,-43.32 356.8,-50.06"/>
</g>
<!-- Node3 -->
<g id="node3" class="node">
<title>Node3</title>
<g id="a_node3"><a xlink:href="class_k_u_k_a_1_1_f_r_i_1_1_udp_connection.html#a5b26b390797f0a03fc7e3dc7b477b61b" target="_top" xlink:title="Open a connection to the KUKA Sunrise controller.">
<polygon fill="white" stroke="black" points="0,-122.5 0,-152.5 140,-152.5 140,-122.5 0,-122.5"/>
<text text-anchor="start" x="8" y="-140.5" font-family="Helvetica,sans-Serif" font-size="10.00">KUKA::FRI::UdpConnection</text>
<text text-anchor="middle" x="70" y="-129.5" font-family="Helvetica,sans-Serif" font-size="10.00">::open</text>
</a>
</g>
</g>
<!-- Node2&#45;&gt;Node3 -->
<g id="edge2" class="edge">
<title>Node2&#45;&gt;Node3</title>
<path fill="none" stroke="midnightblue" d="M165.97,-124.4C157.38,-125.59 148.68,-126.79 140.22,-127.95"/>
<polygon fill="midnightblue" stroke="midnightblue" points="166.55,-127.85 175.98,-123.02 165.6,-120.92 166.55,-127.85"/>
</g>
<!-- Node4 -->
<g id="node4" class="node">
<title>Node4</title>
<g id="a_node4"><a xlink:href="class_k_u_k_a_1_1_f_r_i_1_1_udp_connection.html#a0bdfc7d2ee2c2dc040da1ed55ef79c43" target="_top" xlink:title="Destructor.">
<polygon fill="white" stroke="black" points="0,-73.5 0,-103.5 140,-103.5 140,-73.5 0,-73.5"/>
<text text-anchor="start" x="8" y="-91.5" font-family="Helvetica,sans-Serif" font-size="10.00">KUKA::FRI::UdpConnection</text>
<text text-anchor="middle" x="70" y="-80.5" font-family="Helvetica,sans-Serif" font-size="10.00">::~UdpConnection</text>
</a>
</g>
</g>
<!-- Node2&#45;&gt;Node4 -->
<g id="edge3" class="edge">
<title>Node2&#45;&gt;Node4</title>
<path fill="none" stroke="midnightblue" d="M165.97,-102.14C157.38,-100.91 148.68,-99.66 140.22,-98.45"/>
<polygon fill="midnightblue" stroke="midnightblue" points="165.58,-105.63 175.98,-103.58 166.58,-98.7 165.58,-105.63"/>
</g>
</g>
</svg>
