<?xml version="1.0" encoding="UTF-8" standalone="no"?>
<!DOCTYPE svg PUBLIC "-//W3C//DTD SVG 1.1//EN"
 "http://www.w3.org/Graphics/SVG/1.1/DTD/svg11.dtd">
<!-- Generated by graphviz version 2.43.0 (0)
 -->
<!-- Title: KUKA::FRI::CommandMessageEncoder::encode Pages: 1 -->
<!--zoomable 170 -->
<svg id="main" version="1.1" xmlns="http://www.w3.org/2000/svg" xmlns:xlink="http://www.w3.org/1999/xlink" xml:space="preserve" onload="init(evt)">
<style type="text/css"><![CDATA[
.edge:hover path { stroke: red; }
.edge:hover polygon { stroke: red; fill: red; }
]]></style>
<script type="text/javascript"><![CDATA[
var edges = document.getElementsByTagName('g');
if (edges && edges.length) {
  for (var i=0;i<edges.length;i++) {
    if (edges[i].id.substr(0,4)=='edge') {
      edges[i].setAttribute('class','edge');
    }
  }
}
]]></script>
        <defs>
                <circle id="rim" cx="0" cy="0" r="7"/>
                <circle id="rim2" cx="0" cy="0" r="3.5"/>
                <g id="zoomPlus">
                        <use xlink:href="#rim" fill="#404040">
                                <set attributeName="fill" to="#808080" begin="zoomplus.mouseover" end="zoomplus.mouseout"/>
                        </use>
                        <path d="M-4,0h8M0,-4v8" fill="none" stroke="white" stroke-width="1.5" pointer-events="none"/>
                </g>
                <g id="zoomMin">
                        <use xlink:href="#rim" fill="#404040">
                                <set attributeName="fill" to="#808080" begin="zoomminus.mouseover" end="zoomminus.mouseout"/>
                        </use>
                        <path d="M-4,0h8" fill="none" stroke="white" stroke-width="1.5" pointer-events="none"/>
                </g>
                <g id="dirArrow">
                        <path fill="none" stroke="white" stroke-width="1.5" d="M0,-3.0v7 M-2.5,-0.5L0,-3.0L2.5,-0.5"/>
                </g>
               <g id="resetDef">
                       <use xlink:href="#rim2" fill="#404040">
                               <set attributeName="fill" to="#808080" begin="reset.mouseover" end="reset.mouseout"/>
                       </use>
               </g>
        </defs>

<script type="text/javascript">
var viewWidth = 1547;
var viewHeight = 170;
var sectionId = 'dynsection-2';
</script>
<script xlink:href="svgpan.js"/>
<svg id="graph" class="graph">
<g id="viewport">
<title>KUKA::FRI::CommandMessageEncoder::encode</title>
<polygon fill="white" stroke="transparent" points="-4,4 -4,-166 1543,-166 1543,4 -4,4"/>
<!-- Node1 -->
<g id="node1" class="node">
<title>Node1</title>
<g id="a_node1"><a xlink:title=" ">
<polygon fill="#bfbfbf" stroke="black" points="0,-23 0,-53 158,-53 158,-23 0,-23"/>
<text text-anchor="start" x="8" y="-41" font-family="Helvetica,sans-Serif" font-size="10.00">KUKA::FRI::CommandMessage</text>
<text text-anchor="middle" x="79" y="-30" font-family="Helvetica,sans-Serif" font-size="10.00">Encoder::encode</text>
</a>
</g>
</g>
<!-- Node2 -->
<g id="node2" class="node">
<title>Node2</title>
<g id="a_node2"><a xlink:href="pb__encode_8c.html#af44dde5296bd546d99be35f15658af3e" target="_top" xlink:title=" ">
<polygon fill="white" stroke="black" points="194,-47.5 194,-66.5 258,-66.5 258,-47.5 194,-47.5"/>
<text text-anchor="middle" x="226" y="-54.5" font-family="Helvetica,sans-Serif" font-size="10.00">pb_encode</text>
</a>
</g>
</g>
<!-- Node1&#45;&gt;Node2 -->
<g id="edge1" class="edge">
<title>Node1&#45;&gt;Node2</title>
<path fill="none" stroke="midnightblue" d="M158.02,-48.22C166.97,-49.4 175.81,-50.56 183.99,-51.63"/>
<polygon fill="midnightblue" stroke="midnightblue" points="183.59,-55.1 193.96,-52.93 184.5,-48.16 183.59,-55.1"/>
</g>
<!-- Node14 -->
<g id="node14" class="node">
<title>Node14</title>
<g id="a_node14"><a xlink:href="pb__encode_8c.html#a52a102e2c3f0d96a08c1e62d5038092e" target="_top" xlink:title=" ">
<polygon fill="white" stroke="black" points="294,-9.5 294,-28.5 416,-28.5 416,-9.5 294,-9.5"/>
<text text-anchor="middle" x="355" y="-16.5" font-family="Helvetica,sans-Serif" font-size="10.00">pb_ostream_from_buffer</text>
</a>
</g>
</g>
<!-- Node1&#45;&gt;Node14 -->
<g id="edge18" class="edge">
<title>Node1&#45;&gt;Node14</title>
<path fill="none" stroke="midnightblue" d="M158.15,-32.58C197.65,-29.84 245.2,-26.54 283.55,-23.88"/>
<polygon fill="midnightblue" stroke="midnightblue" points="283.87,-27.37 293.6,-23.19 283.39,-20.39 283.87,-27.37"/>
</g>
<!-- Node3 -->
<g id="node3" class="node">
<title>Node3</title>
<g id="a_node3"><a xlink:href="pb__encode_8c.html#a0c789b04243dc72075c00744134546c3" target="_top" xlink:title=" ">
<polygon fill="white" stroke="black" points="295.5,-85.5 295.5,-104.5 414.5,-104.5 414.5,-85.5 295.5,-85.5"/>
<text text-anchor="middle" x="355" y="-92.5" font-family="Helvetica,sans-Serif" font-size="10.00">encode_extension_field</text>
</a>
</g>
</g>
<!-- Node2&#45;&gt;Node3 -->
<g id="edge2" class="edge">
<title>Node2&#45;&gt;Node3</title>
<path fill="none" stroke="midnightblue" d="M258.07,-66.3C274.27,-71.14 294.33,-77.15 311.91,-82.41"/>
<polygon fill="midnightblue" stroke="midnightblue" points="311.34,-85.89 321.93,-85.4 313.35,-79.18 311.34,-85.89"/>
</g>
<!-- Node5 -->
<g id="node5" class="node">
<title>Node5</title>
<g id="a_node5"><a xlink:href="pb__encode_8c.html#a8aa23313175c09e050e2acbc54a17bd4" target="_top" xlink:title=" ">
<polygon fill="white" stroke="black" points="621,-85.5 621,-104.5 692,-104.5 692,-85.5 621,-85.5"/>
<text text-anchor="middle" x="656.5" y="-92.5" font-family="Helvetica,sans-Serif" font-size="10.00">encode_field</text>
</a>
</g>
</g>
<!-- Node2&#45;&gt;Node5 -->
<g id="edge17" class="edge">
<title>Node2&#45;&gt;Node5</title>
<path fill="none" stroke="midnightblue" d="M258.36,-56.46C320.91,-55.87 465.45,-56.94 585,-76 595.14,-77.62 605.92,-80.11 615.92,-82.77"/>
<polygon fill="midnightblue" stroke="midnightblue" points="615.04,-86.16 625.61,-85.45 616.91,-79.41 615.04,-86.16"/>
</g>
<!-- Node4 -->
<g id="node4" class="node">
<title>Node4</title>
<g id="a_node4"><a xlink:href="pb__encode_8c.html#a3a12936f07ae378d68408c7bee72e3c0" target="_top" xlink:title=" ">
<polygon fill="white" stroke="black" points="452,-85.5 452,-104.5 585,-104.5 585,-85.5 452,-85.5"/>
<text text-anchor="middle" x="518.5" y="-92.5" font-family="Helvetica,sans-Serif" font-size="10.00">default_extension_encoder</text>
</a>
</g>
</g>
<!-- Node3&#45;&gt;Node4 -->
<g id="edge3" class="edge">
<title>Node3&#45;&gt;Node4</title>
<path fill="none" stroke="midnightblue" d="M414.76,-95C423.54,-95 432.7,-95 441.77,-95"/>
<polygon fill="midnightblue" stroke="midnightblue" points="441.95,-98.5 451.95,-95 441.95,-91.5 441.95,-98.5"/>
</g>
<!-- Node4&#45;&gt;Node5 -->
<g id="edge4" class="edge">
<title>Node4&#45;&gt;Node5</title>
<path fill="none" stroke="midnightblue" d="M585.11,-95C593.8,-95 602.55,-95 610.77,-95"/>
<polygon fill="midnightblue" stroke="midnightblue" points="610.88,-98.5 620.88,-95 610.88,-91.5 610.88,-98.5"/>
</g>
<!-- Node6 -->
<g id="node6" class="node">
<title>Node6</title>
<g id="a_node6"><a xlink:href="pb__encode_8c.html#a1f186424780069ab183fb7d2360d274e" target="_top" xlink:title=" ">
<polygon fill="white" stroke="black" points="734.5,-85.5 734.5,-104.5 834.5,-104.5 834.5,-85.5 734.5,-85.5"/>
<text text-anchor="middle" x="784.5" y="-92.5" font-family="Helvetica,sans-Serif" font-size="10.00">encode_basic_field</text>
</a>
</g>
</g>
<!-- Node5&#45;&gt;Node6 -->
<g id="edge5" class="edge">
<title>Node5&#45;&gt;Node6</title>
<path fill="none" stroke="midnightblue" d="M692.26,-95C702.09,-95 713.07,-95 723.92,-95"/>
<polygon fill="midnightblue" stroke="midnightblue" points="724.23,-98.5 734.23,-95 724.23,-91.5 724.23,-98.5"/>
</g>
<!-- Node13 -->
<g id="node13" class="node">
<title>Node13</title>
<g id="a_node13"><a xlink:href="pb__encode_8c.html#aacffda1f85cad8e448a183dcc6c13559" target="_top" xlink:title=" ">
<polygon fill="white" stroke="black" points="728,-123.5 728,-142.5 841,-142.5 841,-123.5 728,-123.5"/>
<text text-anchor="middle" x="784.5" y="-130.5" font-family="Helvetica,sans-Serif" font-size="10.00">encode_callback_field</text>
</a>
</g>
</g>
<!-- Node5&#45;&gt;Node13 -->
<g id="edge16" class="edge">
<title>Node5&#45;&gt;Node13</title>
<path fill="none" stroke="midnightblue" d="M689.3,-104.59C705.26,-109.4 724.81,-115.3 741.95,-120.47"/>
<polygon fill="midnightblue" stroke="midnightblue" points="741.13,-123.88 751.72,-123.41 743.15,-117.18 741.13,-123.88"/>
</g>
<!-- Node7 -->
<g id="node7" class="node">
<title>Node7</title>
<g id="a_node7"><a xlink:href="pb__encode_8c.html#afb8fc9e49589eaae694eff25c858a19c" target="_top" xlink:title=" ">
<polygon fill="white" stroke="black" points="877,-85.5 877,-104.5 952,-104.5 952,-85.5 877,-85.5"/>
<text text-anchor="middle" x="914.5" y="-92.5" font-family="Helvetica,sans-Serif" font-size="10.00">encode_array</text>
</a>
</g>
</g>
<!-- Node6&#45;&gt;Node7 -->
<g id="edge6" class="edge">
<title>Node6&#45;&gt;Node7</title>
<path fill="none" stroke="midnightblue" d="M834.62,-95C845.09,-95 856.12,-95 866.51,-95"/>
<polygon fill="midnightblue" stroke="midnightblue" points="866.64,-98.5 876.64,-95 866.64,-91.5 866.64,-98.5"/>
</g>
<!-- Node12 -->
<g id="node12" class="node">
<title>Node12</title>
<g id="a_node12"><a xlink:href="pb__encode_8c.html#a3e0f1ac29dce37f78220ecd6b9d21cba" target="_top" xlink:title=" ">
<polygon fill="white" stroke="black" points="988,-142.5 988,-161.5 1110,-161.5 1110,-142.5 988,-142.5"/>
<text text-anchor="middle" x="1049" y="-149.5" font-family="Helvetica,sans-Serif" font-size="10.00">pb_encode_tag_for_field</text>
</a>
</g>
</g>
<!-- Node6&#45;&gt;Node12 -->
<g id="edge15" class="edge">
<title>Node6&#45;&gt;Node12</title>
<path fill="none" stroke="midnightblue" d="M829.44,-104.54C874.67,-114.36 945.24,-129.69 993.89,-140.25"/>
<polygon fill="midnightblue" stroke="midnightblue" points="993.41,-143.73 1003.92,-142.43 994.89,-136.89 993.41,-143.73"/>
</g>
<!-- Node8 -->
<g id="node8" class="node">
<title>Node8</title>
<g id="a_node8"><a xlink:href="pb__encode_8c.html#acfbcc89e5e4355b8c263d6d4f2bc8c6f" target="_top" xlink:title=" ">
<polygon fill="white" stroke="black" points="1146,-104.5 1146,-123.5 1229,-123.5 1229,-104.5 1146,-104.5"/>
<text text-anchor="middle" x="1187.5" y="-111.5" font-family="Helvetica,sans-Serif" font-size="10.00">pb_encode_tag</text>
</a>
</g>
</g>
<!-- Node7&#45;&gt;Node8 -->
<g id="edge7" class="edge">
<title>Node7&#45;&gt;Node8</title>
<path fill="none" stroke="midnightblue" d="M952.05,-97.56C999.32,-100.88 1081.92,-106.67 1135.39,-110.42"/>
<polygon fill="midnightblue" stroke="midnightblue" points="1135.45,-113.93 1145.67,-111.14 1135.94,-106.95 1135.45,-113.93"/>
</g>
<!-- Node9 -->
<g id="node9" class="node">
<title>Node9</title>
<g id="a_node9"><a xlink:href="pb__encode_8c.html#a568e2eb180774ef4e07de89508edb52b" target="_top" xlink:title=" ">
<polygon fill="white" stroke="black" points="1265,-66.5 1265,-85.5 1358,-85.5 1358,-66.5 1265,-66.5"/>
<text text-anchor="middle" x="1311.5" y="-73.5" font-family="Helvetica,sans-Serif" font-size="10.00">pb_encode_varint</text>
</a>
</g>
</g>
<!-- Node7&#45;&gt;Node9 -->
<g id="edge13" class="edge">
<title>Node7&#45;&gt;Node9</title>
<path fill="none" stroke="midnightblue" d="M952.31,-93.23C1021.82,-89.89 1172.8,-82.62 1254.8,-78.68"/>
<polygon fill="midnightblue" stroke="midnightblue" points="1255.11,-82.17 1264.93,-78.19 1254.77,-75.18 1255.11,-82.17"/>
</g>
<!-- Node10 -->
<g id="node10" class="node">
<title>Node10</title>
<g id="a_node10"><a xlink:href="pb__encode_8c.html#a6f8d972fa4a439724532f0bcc07de81d" target="_top" xlink:title=" ">
<polygon fill="white" stroke="black" points="1394,-28.5 1394,-47.5 1447,-47.5 1447,-28.5 1394,-28.5"/>
<text text-anchor="middle" x="1420.5" y="-35.5" font-family="Helvetica,sans-Serif" font-size="10.00">pb_write</text>
</a>
</g>
</g>
<!-- Node7&#45;&gt;Node10 -->
<g id="edge14" class="edge">
<title>Node7&#45;&gt;Node10</title>
<path fill="none" stroke="midnightblue" d="M952.27,-87.22C963.68,-84.99 976.33,-82.7 988,-81 1133.91,-59.69 1309.14,-45.82 1383.41,-40.48"/>
<polygon fill="midnightblue" stroke="midnightblue" points="1383.9,-43.95 1393.62,-39.75 1383.4,-36.97 1383.9,-43.95"/>
</g>
<!-- Node7&#45;&gt;Node12 -->
<g id="edge11" class="edge">
<title>Node7&#45;&gt;Node12</title>
<path fill="none" stroke="midnightblue" d="M935.7,-104.5C950.18,-111.24 970.2,-120.39 988,-128 996.4,-131.59 1005.52,-135.32 1014.05,-138.74"/>
<polygon fill="midnightblue" stroke="midnightblue" points="1012.79,-142 1023.37,-142.45 1015.37,-135.5 1012.79,-142"/>
</g>
<!-- Node8&#45;&gt;Node9 -->
<g id="edge8" class="edge">
<title>Node8&#45;&gt;Node9</title>
<path fill="none" stroke="midnightblue" d="M1219.29,-104.41C1234.6,-99.64 1253.32,-93.81 1269.8,-88.68"/>
<polygon fill="midnightblue" stroke="midnightblue" points="1271.22,-91.9 1279.72,-85.59 1269.14,-85.22 1271.22,-91.9"/>
</g>
<!-- Node9&#45;&gt;Node10 -->
<g id="edge9" class="edge">
<title>Node9&#45;&gt;Node10</title>
<path fill="none" stroke="midnightblue" d="M1339.5,-66.41C1353.08,-61.59 1369.71,-55.68 1384.28,-50.51"/>
<polygon fill="midnightblue" stroke="midnightblue" points="1385.73,-53.71 1393.98,-47.06 1383.39,-47.11 1385.73,-53.71"/>
</g>
<!-- Node11 -->
<g id="node11" class="node">
<title>Node11</title>
<g id="a_node11"><a xlink:href="pb__encode_8c.html#aa987a466c397e7769605789cc0b22054" target="_top" xlink:title=" ">
<polygon fill="white" stroke="black" points="1483,-9.5 1483,-28.5 1539,-28.5 1539,-9.5 1483,-9.5"/>
<text text-anchor="middle" x="1511" y="-16.5" font-family="Helvetica,sans-Serif" font-size="10.00">buf_write</text>
</a>
</g>
</g>
<!-- Node10&#45;&gt;Node11 -->
<g id="edge10" class="edge">
<title>Node10&#45;&gt;Node11</title>
<path fill="none" stroke="midnightblue" d="M1447.1,-32.5C1455.17,-30.77 1464.26,-28.82 1472.96,-26.95"/>
<polygon fill="midnightblue" stroke="midnightblue" points="1473.87,-30.34 1482.92,-24.81 1472.41,-23.49 1473.87,-30.34"/>
</g>
<!-- Node12&#45;&gt;Node8 -->
<g id="edge12" class="edge">
<title>Node12&#45;&gt;Node8</title>
<path fill="none" stroke="midnightblue" d="M1084.44,-142.41C1101.98,-137.53 1123.51,-131.54 1142.26,-126.32"/>
<polygon fill="midnightblue" stroke="midnightblue" points="1143.37,-129.64 1152.07,-123.59 1141.49,-122.9 1143.37,-129.64"/>
</g>
<!-- Node14&#45;&gt;Node11 -->
<g id="edge19" class="edge">
<title>Node14&#45;&gt;Node11</title>
<path fill="none" stroke="midnightblue" d="M416.16,-12.94C476.59,-7.38 572.4,0 655.5,0 655.5,0 655.5,0 1312.5,0 1368.63,0 1433.32,-7.7 1472.93,-13.29"/>
<polygon fill="midnightblue" stroke="midnightblue" points="1472.53,-16.77 1482.92,-14.74 1473.53,-9.84 1472.53,-16.77"/>
</g>
</g>
</svg>
        <g id="navigator" transform="translate(0 0)" fill="#404254">
                <rect fill="#f2f5e9" fill-opacity="0.5" stroke="#606060" stroke-width=".5" x="0" y="0" width="60" height="60"/>
                <use id="zoomplus" xlink:href="#zoomPlus" x="17" y="9" onmousedown="handleZoom(evt,'in')"/>
                <use id="zoomminus" xlink:href="#zoomMin" x="42" y="9" onmousedown="handleZoom(evt,'out')"/>
                <use id="reset" xlink:href="#resetDef" x="30" y="36" onmousedown="handleReset()"/>
                <g id="arrowUp" xlink:href="#dirArrow" transform="translate(30 24)" onmousedown="handlePan(0,-1)">
                  <use xlink:href="#rim" fill="#404040">
                        <set attributeName="fill" to="#808080" begin="arrowUp.mouseover" end="arrowUp.mouseout"/>
                  </use>
                  <path fill="none" stroke="white" stroke-width="1.5" d="M0,-3.0v7 M-2.5,-0.5L0,-3.0L2.5,-0.5"/>
                </g>
                <g id="arrowRight" xlink:href="#dirArrow" transform="rotate(90) translate(36 -43)" onmousedown="handlePan(1,0)">
                  <use xlink:href="#rim" fill="#404040">
                        <set attributeName="fill" to="#808080" begin="arrowRight.mouseover" end="arrowRight.mouseout"/>
                  </use>
                  <path fill="none" stroke="white" stroke-width="1.5" d="M0,-3.0v7 M-2.5,-0.5L0,-3.0L2.5,-0.5"/>
                </g>
                <g id="arrowDown" xlink:href="#dirArrow" transform="rotate(180) translate(-30 -48)" onmousedown="handlePan(0,1)">
                  <use xlink:href="#rim" fill="#404040">
                        <set attributeName="fill" to="#808080" begin="arrowDown.mouseover" end="arrowDown.mouseout"/>
                  </use>
                  <path fill="none" stroke="white" stroke-width="1.5" d="M0,-3.0v7 M-2.5,-0.5L0,-3.0L2.5,-0.5"/>
                </g>
                <g id="arrowLeft" xlink:href="#dirArrow" transform="rotate(270) translate(-36 17)" onmousedown="handlePan(-1,0)">
                  <use xlink:href="#rim" fill="#404040">
                        <set attributeName="fill" to="#808080" begin="arrowLeft.mouseover" end="arrowLeft.mouseout"/>
                  </use>
                  <path fill="none" stroke="white" stroke-width="1.5" d="M0,-3.0v7 M-2.5,-0.5L0,-3.0L2.5,-0.5"/>
                </g>
        </g>
        <svg viewBox="0 0 15 15" width="100%" height="30px" preserveAspectRatio="xMaxYMin meet">
         <g id="arrow_out" transform="scale(0.3 0.3)">
          <a xlink:href="class_k_u_k_a_1_1_f_r_i_1_1_command_message_encoder_a53c2553cb91250334d979f2aaa4006a4_cgraph_org.svg" target="_base">
           <rect id="button" ry="5" rx="5" y="6" x="6" height="38" width="38"
                fill="#f2f5e9" fill-opacity="0.5" stroke="#606060" stroke-width="1.0"/>
           <path id="arrow"
             d="M 11.500037,31.436501 C 11.940474,20.09759 22.043105,11.32322 32.158766,21.979434 L 37.068811,17.246167 C 37.068811,17.246167 37.088388,32 37.088388,32 L 22.160133,31.978069 C 22.160133,31.978069 26.997745,27.140456 26.997745,27.140456 C 18.528582,18.264221 13.291696,25.230495 11.500037,31.436501 z"
             style="fill:#404040;"/>
          </a>
         </g>
        </svg>
</svg>
