<?xml version="1.0" encoding="UTF-8" standalone="no"?>
<!DOCTYPE svg PUBLIC "-//W3C//DTD SVG 1.1//EN"
 "http://www.w3.org/Graphics/SVG/1.1/DTD/svg11.dtd">
<!-- Generated by graphviz version 2.43.0 (0)
 -->
<!-- Title: LBRJointSineOverlayClient::command Pages: 1 -->
<svg width="407pt" height="160pt"
 viewBox="0.00 0.00 407.00 159.87" xmlns="http://www.w3.org/2000/svg" xmlns:xlink="http://www.w3.org/1999/xlink">
<g id="graph0" class="graph" transform="scale(1 1) rotate(0) translate(4 155.87)">
<title>LBRJointSineOverlayClient::command</title>
<polygon fill="white" stroke="transparent" points="-4,4 -4,-155.87 403,-155.87 403,4 -4,4"/>
<!-- Node1 -->
<g id="node1" class="node">
<title>Node1</title>
<g id="a_node1"><a xlink:title="Callback for the FRI state &#39;Commanding Active&#39;.">
<polygon fill="#bfbfbf" stroke="black" points="0,-73.5 0,-103.5 136,-103.5 136,-73.5 0,-73.5"/>
<text text-anchor="start" x="8" y="-91.5" font-family="Helvetica,sans-Serif" font-size="10.00">LBRJointSineOverlayClient</text>
<text text-anchor="middle" x="68" y="-80.5" font-family="Helvetica,sans-Serif" font-size="10.00">::command</text>
</a>
</g>
</g>
<!-- Node2 -->
<g id="node2" class="node">
<title>Node2</title>
<g id="a_node2"><a xlink:href="pb__syshdr_8h.html#a39dc31816e18e5a0b48da2865a4b698c" target="_top" xlink:title=" ">
<polygon fill="white" stroke="black" points="345,-77 345,-96 399,-96 399,-77 345,-77"/>
<text text-anchor="middle" x="372" y="-84" font-family="Helvetica,sans-Serif" font-size="10.00">memcpy</text>
</a>
</g>
</g>
<!-- Node1&#45;&gt;Node2 -->
<g id="edge1" class="edge">
<title>Node1&#45;&gt;Node2</title>
<path fill="none" stroke="midnightblue" d="M92.41,-103.68C112.57,-115.8 142.94,-131.82 172,-138.5 231.34,-152.14 251.78,-159.32 309,-138.5 328.06,-131.57 345.34,-115.91 356.79,-103.58"/>
<polygon fill="midnightblue" stroke="midnightblue" points="359.42,-105.89 363.43,-96.08 354.18,-101.25 359.42,-105.89"/>
</g>
<!-- Node3 -->
<g id="node3" class="node">
<title>Node3</title>
<g id="a_node3"><a xlink:href="class_k_u_k_a_1_1_f_r_i_1_1_l_b_r_client.html#aa6dcd610503f9c67153ffeb5d3fab203" target="_top" xlink:title="Provide write access to the robot commands.">
<polygon fill="white" stroke="black" points="181.5,-98.5 181.5,-128.5 299.5,-128.5 299.5,-98.5 181.5,-98.5"/>
<text text-anchor="start" x="189.5" y="-116.5" font-family="Helvetica,sans-Serif" font-size="10.00">KUKA::FRI::LBRClient</text>
<text text-anchor="middle" x="240.5" y="-105.5" font-family="Helvetica,sans-Serif" font-size="10.00">::robotCommand</text>
</a>
</g>
</g>
<!-- Node1&#45;&gt;Node3 -->
<g id="edge2" class="edge">
<title>Node1&#45;&gt;Node3</title>
<path fill="none" stroke="midnightblue" d="M136.39,-98.38C147.9,-100.07 159.88,-101.83 171.42,-103.52"/>
<polygon fill="midnightblue" stroke="midnightblue" points="171.02,-107 181.42,-104.98 172.03,-100.07 171.02,-107"/>
</g>
<!-- Node4 -->
<g id="node4" class="node">
<title>Node4</title>
<g id="a_node4"><a xlink:href="class_k_u_k_a_1_1_f_r_i_1_1_l_b_r_client.html#af99433aa6795f9b6764b0fb539188e6d" target="_top" xlink:title="Provide read access to the current robot state.">
<polygon fill="white" stroke="black" points="181.5,-49.5 181.5,-79.5 299.5,-79.5 299.5,-49.5 181.5,-49.5"/>
<text text-anchor="start" x="189.5" y="-67.5" font-family="Helvetica,sans-Serif" font-size="10.00">KUKA::FRI::LBRClient</text>
<text text-anchor="middle" x="240.5" y="-56.5" font-family="Helvetica,sans-Serif" font-size="10.00">::robotState</text>
</a>
</g>
</g>
<!-- Node1&#45;&gt;Node4 -->
<g id="edge3" class="edge">
<title>Node1&#45;&gt;Node4</title>
<path fill="none" stroke="midnightblue" d="M136.39,-79.01C147.9,-77.39 159.88,-75.71 171.42,-74.08"/>
<polygon fill="midnightblue" stroke="midnightblue" points="172.01,-77.54 181.42,-72.68 171.03,-70.6 172.01,-77.54"/>
</g>
<!-- Node5 -->
<g id="node5" class="node">
<title>Node5</title>
<g id="a_node5"><a xlink:href="class_k_u_k_a_1_1_f_r_i_1_1_l_b_r_command.html#af250c07674fc06147243c8ce481709f6" target="_top" xlink:title="Set the joint positions for the current interpolation step.">
<polygon fill="white" stroke="black" points="172,-0.5 172,-30.5 309,-30.5 309,-0.5 172,-0.5"/>
<text text-anchor="start" x="180" y="-18.5" font-family="Helvetica,sans-Serif" font-size="10.00">KUKA::FRI::LBRCommand</text>
<text text-anchor="middle" x="240.5" y="-7.5" font-family="Helvetica,sans-Serif" font-size="10.00">::setJointPosition</text>
</a>
</g>
</g>
<!-- Node1&#45;&gt;Node5 -->
<g id="edge4" class="edge">
<title>Node1&#45;&gt;Node5</title>
<path fill="none" stroke="midnightblue" d="M99.81,-73.34C120.12,-63.55 147.42,-50.76 172,-40.5 177.05,-38.39 182.34,-36.28 187.65,-34.22"/>
<polygon fill="midnightblue" stroke="midnightblue" points="189.07,-37.42 197.17,-30.58 186.57,-30.88 189.07,-37.42"/>
</g>
<!-- Node5&#45;&gt;Node2 -->
<g id="edge5" class="edge">
<title>Node5&#45;&gt;Node2</title>
<path fill="none" stroke="midnightblue" d="M287.66,-30.6C294.96,-33.55 302.3,-36.87 309,-40.5 324.36,-48.82 340.16,-60.6 351.96,-70.15"/>
<polygon fill="midnightblue" stroke="midnightblue" points="349.85,-72.95 359.78,-76.63 354.31,-67.56 349.85,-72.95"/>
</g>
</g>
</svg>
