<?xml version="1.0" encoding="UTF-8" standalone="no"?>
<!DOCTYPE svg PUBLIC "-//W3C//DTD SVG 1.1//EN"
 "http://www.w3.org/Graphics/SVG/1.1/DTD/svg11.dtd">
<!-- Generated by graphviz version 2.43.0 (0)
 -->
<!-- Title: KUKA::FRI::ClientApplication Pages: 1 -->
<!--zoomable 557 -->
<svg id="main" version="1.1" xmlns="http://www.w3.org/2000/svg" xmlns:xlink="http://www.w3.org/1999/xlink" xml:space="preserve" onload="init(evt)">
<style type="text/css"><![CDATA[
.edge:hover path { stroke: red; }
.edge:hover polygon { stroke: red; fill: red; }
]]></style>
<script type="text/javascript"><![CDATA[
var edges = document.getElementsByTagName('g');
if (edges && edges.length) {
  for (var i=0;i<edges.length;i++) {
    if (edges[i].id.substr(0,4)=='edge') {
      edges[i].setAttribute('class','edge');
    }
  }
}
]]></script>
        <defs>
                <circle id="rim" cx="0" cy="0" r="7"/>
                <circle id="rim2" cx="0" cy="0" r="3.5"/>
                <g id="zoomPlus">
                        <use xlink:href="#rim" fill="#404040">
                                <set attributeName="fill" to="#808080" begin="zoomplus.mouseover" end="zoomplus.mouseout"/>
                        </use>
                        <path d="M-4,0h8M0,-4v8" fill="none" stroke="white" stroke-width="1.5" pointer-events="none"/>
                </g>
                <g id="zoomMin">
                        <use xlink:href="#rim" fill="#404040">
                                <set attributeName="fill" to="#808080" begin="zoomminus.mouseover" end="zoomminus.mouseout"/>
                        </use>
                        <path d="M-4,0h8" fill="none" stroke="white" stroke-width="1.5" pointer-events="none"/>
                </g>
                <g id="dirArrow">
                        <path fill="none" stroke="white" stroke-width="1.5" d="M0,-3.0v7 M-2.5,-0.5L0,-3.0L2.5,-0.5"/>
                </g>
               <g id="resetDef">
                       <use xlink:href="#rim2" fill="#404040">
                               <set attributeName="fill" to="#808080" begin="reset.mouseover" end="reset.mouseout"/>
                       </use>
               </g>
        </defs>

<script type="text/javascript">
var viewWidth = 1806;
var viewHeight = 557;
var sectionId = 'dynsection-0';
</script>
<script xlink:href="svgpan.js"/>
<svg id="graph" class="graph">
<g id="viewport">
<title>KUKA::FRI::ClientApplication</title>
<polygon fill="white" stroke="transparent" points="-4,4 -4,-553 1802,-553 1802,4 -4,4"/>
<!-- Node1 -->
<g id="node1" class="node">
<title>Node1</title>
<g id="a_node1"><a xlink:title="FRI client application class.">
<polygon fill="#bfbfbf" stroke="black" points="1652,-297.5 1652,-316.5 1798,-316.5 1798,-297.5 1652,-297.5"/>
<text text-anchor="middle" x="1725" y="-304.5" font-family="Helvetica,sans-Serif" font-size="10.00">KUKA::FRI::ClientApplication</text>
</a>
</g>
</g>
<!-- Node2 -->
<g id="node2" class="node">
<title>Node2</title>
<g id="a_node2"><a xlink:href="class_k_u_k_a_1_1_f_r_i_1_1_i_client.html" target="_top" xlink:title="FRI client interface.">
<polygon fill="white" stroke="black" points="1440.5,-349.5 1440.5,-368.5 1541.5,-368.5 1541.5,-349.5 1440.5,-349.5"/>
<text text-anchor="middle" x="1491" y="-356.5" font-family="Helvetica,sans-Serif" font-size="10.00">KUKA::FRI::IClient</text>
</a>
</g>
</g>
<!-- Node2&#45;&gt;Node1 -->
<g id="edge1" class="edge">
<title>Node2&#45;&gt;Node1</title>
<path fill="none" stroke="#9a32cd" stroke-dasharray="5,2" d="M1551.49,-350.12C1577.03,-345.9 1607.12,-340.37 1634,-334 1654.63,-329.11 1677.52,-322.22 1695.05,-316.63"/>
<polygon fill="#9a32cd" stroke="#9a32cd" points="1550.89,-346.67 1541.58,-351.73 1552.01,-353.58 1550.89,-346.67"/>
<text text-anchor="middle" x="1606" y="-349" font-family="Helvetica,sans-Serif" font-size="10.00"> _robotClient</text>
</g>
<!-- Node3 -->
<g id="node3" class="node">
<title>Node3</title>
<g id="a_node3"><a xlink:href="struct_k_u_k_a_1_1_f_r_i_1_1_client_data.html" target="_top" xlink:title=" ">
<polygon fill="white" stroke="black" points="1239,-284.5 1239,-303.5 1358,-303.5 1358,-284.5 1239,-284.5"/>
<text text-anchor="middle" x="1298.5" y="-291.5" font-family="Helvetica,sans-Serif" font-size="10.00">KUKA::FRI::ClientData</text>
</a>
</g>
</g>
<!-- Node3&#45;&gt;Node1 -->
<g id="edge2" class="edge">
<title>Node3&#45;&gt;Node1</title>
<path fill="none" stroke="#9a32cd" stroke-dasharray="5,2" d="M1368.38,-298.6C1370.95,-298.74 1373.5,-298.87 1376,-299 1465.72,-303.49 1488.19,-304.14 1578,-306 1602.08,-306.5 1628.39,-306.77 1651.96,-306.9"/>
<polygon fill="#9a32cd" stroke="#9a32cd" points="1368.56,-295.11 1358.38,-298.03 1368.16,-302.09 1368.56,-295.11"/>
<text text-anchor="middle" x="1491" y="-309" font-family="Helvetica,sans-Serif" font-size="10.00"> _data</text>
</g>
<!-- Node26 -->
<g id="node26" class="node">
<title>Node26</title>
<g id="a_node26"><a xlink:href="class_k_u_k_a_1_1_f_r_i_1_1_transformation_client.html" target="_top" xlink:title="Abstract FRI transformation client.">
<polygon fill="white" stroke="black" points="1422,-253 1422,-283 1560,-283 1560,-253 1422,-253"/>
<text text-anchor="start" x="1430" y="-271" font-family="Helvetica,sans-Serif" font-size="10.00">KUKA::FRI::Transformation</text>
<text text-anchor="middle" x="1491" y="-260" font-family="Helvetica,sans-Serif" font-size="10.00">Client</text>
</a>
</g>
</g>
<!-- Node3&#45;&gt;Node26 -->
<g id="edge37" class="edge">
<title>Node3&#45;&gt;Node26</title>
<path fill="none" stroke="#9a32cd" stroke-dasharray="5,2" d="M1368.3,-284.61C1385.72,-282.23 1404.42,-279.68 1421.81,-277.31"/>
<polygon fill="#9a32cd" stroke="#9a32cd" points="1367.65,-281.17 1358.21,-285.99 1368.59,-288.1 1367.65,-281.17"/>
<text text-anchor="middle" x="1390" y="-287" font-family="Helvetica,sans-Serif" font-size="10.00"> _data</text>
</g>
<!-- Node4 -->
<g id="node4" class="node">
<title>Node4</title>
<g id="a_node4"><a xlink:href="struct___f_r_i_command_message.html" target="_top" xlink:title=" ">
<polygon fill="white" stroke="black" points="729,-297.5 729,-316.5 852,-316.5 852,-297.5 729,-297.5"/>
<text text-anchor="middle" x="790.5" y="-304.5" font-family="Helvetica,sans-Serif" font-size="10.00">_FRICommandMessage</text>
</a>
</g>
</g>
<!-- Node4&#45;&gt;Node3 -->
<g id="edge3" class="edge">
<title>Node4&#45;&gt;Node3</title>
<path fill="none" stroke="#9a32cd" stroke-dasharray="5,2" d="M862.1,-305.19C962.66,-302.6 1145.31,-297.91 1238.85,-295.51"/>
<polygon fill="#9a32cd" stroke="#9a32cd" points="861.94,-301.69 852.03,-305.44 862.12,-308.69 861.94,-301.69"/>
<text text-anchor="middle" x="1086" y="-305" font-family="Helvetica,sans-Serif" font-size="10.00"> commandMsg</text>
</g>
<!-- Node24 -->
<g id="node24" class="node">
<title>Node24</title>
<g id="a_node24"><a xlink:href="class_k_u_k_a_1_1_f_r_i_1_1_command_message_encoder.html" target="_top" xlink:title=" ">
<polygon fill="white" stroke="black" points="1007,-337 1007,-367 1165,-367 1165,-337 1007,-337"/>
<text text-anchor="start" x="1015" y="-355" font-family="Helvetica,sans-Serif" font-size="10.00">KUKA::FRI::CommandMessage</text>
<text text-anchor="middle" x="1086" y="-344" font-family="Helvetica,sans-Serif" font-size="10.00">Encoder</text>
</a>
</g>
</g>
<!-- Node4&#45;&gt;Node24 -->
<g id="edge32" class="edge">
<title>Node4&#45;&gt;Node24</title>
<path fill="none" stroke="#9a32cd" stroke-dasharray="5,2" d="M862.28,-317.85C905.94,-324.55 962,-333.14 1006.95,-340.03"/>
<polygon fill="#9a32cd" stroke="#9a32cd" points="862.73,-314.38 852.31,-316.32 861.67,-321.3 862.73,-314.38"/>
<text text-anchor="middle" x="946.5" y="-340" font-family="Helvetica,sans-Serif" font-size="10.00"> m_pMessage</text>
</g>
<!-- Node5 -->
<g id="node5" class="node">
<title>Node5</title>
<g id="a_node5"><a xlink:href="struct___message_command_data.html" target="_top" xlink:title=" ">
<polygon fill="white" stroke="black" points="430,-281.5 430,-300.5 558,-300.5 558,-281.5 430,-281.5"/>
<text text-anchor="middle" x="494" y="-288.5" font-family="Helvetica,sans-Serif" font-size="10.00">_MessageCommandData</text>
</a>
</g>
</g>
<!-- Node5&#45;&gt;Node4 -->
<g id="edge4" class="edge">
<title>Node5&#45;&gt;Node4</title>
<path fill="none" stroke="#9a32cd" stroke-dasharray="5,2" d="M568.32,-290.56C601.53,-290.79 641.28,-291.65 677,-294 693.87,-295.11 712.1,-296.94 728.88,-298.89"/>
<polygon fill="#9a32cd" stroke="#9a32cd" points="568.25,-287.06 558.23,-290.51 568.22,-294.06 568.25,-287.06"/>
<text text-anchor="middle" x="627.5" y="-297" font-family="Helvetica,sans-Serif" font-size="10.00"> commandData</text>
</g>
<!-- Node6 -->
<g id="node6" class="node">
<title>Node6</title>
<g id="a_node6"><a xlink:href="struct___fri_i_o_value.html" target="_top" xlink:title=" ">
<polygon fill="white" stroke="black" points="179,-231.5 179,-250.5 247,-250.5 247,-231.5 179,-231.5"/>
<text text-anchor="middle" x="213" y="-238.5" font-family="Helvetica,sans-Serif" font-size="10.00">_FriIOValue</text>
</a>
</g>
</g>
<!-- Node6&#45;&gt;Node5 -->
<g id="edge5" class="edge">
<title>Node6&#45;&gt;Node5</title>
<path fill="none" stroke="#9a32cd" stroke-dasharray="5,2" d="M257.54,-242.8C297.57,-245.13 358.36,-250.37 410,-262 430.85,-266.69 453.72,-274.93 470.16,-281.42"/>
<polygon fill="#9a32cd" stroke="#9a32cd" points="257.5,-239.29 247.32,-242.24 257.12,-246.28 257.5,-239.29"/>
<text text-anchor="middle" x="343.5" y="-265" font-family="Helvetica,sans-Serif" font-size="10.00"> writeIORequest</text>
</g>
<!-- Node20 -->
<g id="node20" class="node">
<title>Node20</title>
<g id="a_node20"><a xlink:href="struct___message_monitor_data.html" target="_top" xlink:title=" ">
<polygon fill="white" stroke="black" points="436.5,-144.5 436.5,-163.5 551.5,-163.5 551.5,-144.5 436.5,-144.5"/>
<text text-anchor="middle" x="494" y="-151.5" font-family="Helvetica,sans-Serif" font-size="10.00">_MessageMonitorData</text>
</a>
</g>
</g>
<!-- Node6&#45;&gt;Node20 -->
<g id="edge22" class="edge">
<title>Node6&#45;&gt;Node20</title>
<path fill="none" stroke="#9a32cd" stroke-dasharray="5,2" d="M257.59,-233C314.38,-222.52 406.86,-205.2 410,-203 422.74,-194.08 415.69,-182.5 428,-173 433.03,-169.12 438.82,-166.03 444.84,-163.57"/>
<polygon fill="#9a32cd" stroke="#9a32cd" points="256.63,-229.62 247.43,-234.88 257.9,-236.5 256.63,-229.62"/>
<text text-anchor="middle" x="343.5" y="-232" font-family="Helvetica,sans-Serif" font-size="10.00"> readIORequest</text>
</g>
<!-- Node7 -->
<g id="node7" class="node">
<title>Node7</title>
<g id="a_node7"><a xlink:href="struct___transformation.html" target="_top" xlink:title=" ">
<polygon fill="white" stroke="black" points="169.5,-355.5 169.5,-374.5 256.5,-374.5 256.5,-355.5 169.5,-355.5"/>
<text text-anchor="middle" x="213" y="-362.5" font-family="Helvetica,sans-Serif" font-size="10.00">_Transformation</text>
</a>
</g>
</g>
<!-- Node7&#45;&gt;Node5 -->
<g id="edge6" class="edge">
<title>Node7&#45;&gt;Node5</title>
<path fill="none" stroke="#9a32cd" stroke-dasharray="5,2" d="M266.92,-361.89C316.63,-358.14 386.75,-350.45 410,-336 421.94,-328.58 416.6,-318.22 428,-310 433.34,-306.15 439.45,-303.07 445.75,-300.62"/>
<polygon fill="#9a32cd" stroke="#9a32cd" points="266.37,-358.43 256.65,-362.64 266.88,-365.41 266.37,-358.43"/>
<text text-anchor="middle" x="343.5" y="-365" font-family="Helvetica,sans-Serif" font-size="10.00"> commandedTransformations</text>
</g>
<!-- Node19 -->
<g id="node19" class="node">
<title>Node19</title>
<g id="a_node19"><a xlink:href="struct___f_r_i_monitoring_message.html" target="_top" xlink:title=" ">
<polygon fill="white" stroke="black" points="729,-200.5 729,-219.5 852,-219.5 852,-200.5 729,-200.5"/>
<text text-anchor="middle" x="790.5" y="-207.5" font-family="Helvetica,sans-Serif" font-size="10.00">_FRIMonitoringMessage</text>
</a>
</g>
</g>
<!-- Node7&#45;&gt;Node19 -->
<g id="edge26" class="edge">
<title>Node7&#45;&gt;Node19</title>
<path fill="none" stroke="#9a32cd" stroke-dasharray="5,2" d="M266.86,-372.09C374.86,-385.33 615.84,-408.23 677,-358 701.82,-337.61 677.77,-315.11 695,-288 714.63,-257.12 750.54,-232.53 771.99,-219.71"/>
<polygon fill="#9a32cd" stroke="#9a32cd" points="267.19,-368.6 256.83,-370.84 266.32,-375.55 267.19,-368.6"/>
<text text-anchor="middle" x="494" y="-392" font-family="Helvetica,sans-Serif" font-size="10.00"> requestedTransformations</text>
</g>
<!-- Node8 -->
<g id="node8" class="node">
<title>Node8</title>
<g id="a_node8"><a xlink:href="struct___time_stamp.html" target="_top" xlink:title=" ">
<polygon fill="white" stroke="black" points="5,-233.5 5,-252.5 77,-252.5 77,-233.5 5,-233.5"/>
<text text-anchor="middle" x="41" y="-240.5" font-family="Helvetica,sans-Serif" font-size="10.00">_TimeStamp</text>
</a>
</g>
</g>
<!-- Node8&#45;&gt;Node7 -->
<g id="edge7" class="edge">
<title>Node8&#45;&gt;Node7</title>
<path fill="none" stroke="#9a32cd" stroke-dasharray="5,2" d="M58.85,-259.63C81.79,-281.6 124.82,-320.47 167,-346 172.8,-349.51 179.37,-352.69 185.67,-355.39"/>
<polygon fill="#9a32cd" stroke="#9a32cd" points="61.23,-257.06 51.61,-252.62 56.36,-262.09 61.23,-257.06"/>
<text text-anchor="middle" x="124.5" y="-338" font-family="Helvetica,sans-Serif" font-size="10.00"> timestamp</text>
</g>
<!-- Node8&#45;&gt;Node20 -->
<g id="edge21" class="edge">
<title>Node8&#45;&gt;Node20</title>
<path fill="none" stroke="#9a32cd" stroke-dasharray="5,2" d="M84.78,-230.74C108.8,-224.19 139.39,-216.39 167,-211 273.97,-190.12 303.36,-200.53 410,-178 412.62,-177.45 438.21,-170.02 460.29,-163.58"/>
<polygon fill="#9a32cd" stroke="#9a32cd" points="83.63,-227.43 74.92,-233.46 85.49,-234.18 83.63,-227.43"/>
<text text-anchor="middle" x="213" y="-214" font-family="Helvetica,sans-Serif" font-size="10.00"> timestamp</text>
</g>
<!-- Node9 -->
<g id="node9" class="node">
<title>Node9</title>
<g id="a_node9"><a xlink:href="struct___joint_values.html" target="_top" xlink:title=" ">
<polygon fill="white" stroke="black" points="177,-53.5 177,-72.5 249,-72.5 249,-53.5 177,-53.5"/>
<text text-anchor="middle" x="213" y="-60.5" font-family="Helvetica,sans-Serif" font-size="10.00">_JointValues</text>
</a>
</g>
</g>
<!-- Node9&#45;&gt;Node5 -->
<g id="edge8" class="edge">
<title>Node9&#45;&gt;Node5</title>
<path fill="none" stroke="#9a32cd" stroke-dasharray="5,2" d="M226.04,-80.98C237.45,-96.75 255.95,-119.24 277,-133 329.12,-167.06 368.53,-130.55 410,-177 436.01,-206.13 403.29,-232.76 428,-263 434.84,-271.37 444.66,-277.3 454.6,-281.47"/>
<polygon fill="#9a32cd" stroke="#9a32cd" points="228.77,-78.78 220.17,-72.59 223.03,-82.79 228.77,-78.78"/>
<text text-anchor="middle" x="343.5" y="-191" font-family="Helvetica,sans-Serif" font-size="10.00"> jointPosition</text>
<text text-anchor="middle" x="343.5" y="-180" font-family="Helvetica,sans-Serif" font-size="10.00">jointTorque</text>
</g>
<!-- Node9&#45;&gt;Node20 -->
<g id="edge23" class="edge">
<title>Node9&#45;&gt;Node20</title>
<path fill="none" stroke="#9a32cd" stroke-dasharray="5,2" d="M259.62,-61.25C309.85,-60.22 386.6,-61.57 410,-78 425.95,-89.2 414.8,-103.66 428,-118 438.74,-129.68 454.17,-138.44 467.3,-144.4"/>
<polygon fill="#9a32cd" stroke="#9a32cd" points="259.24,-57.76 249.33,-61.5 259.41,-64.76 259.24,-57.76"/>
<text text-anchor="middle" x="343.5" y="-125" font-family="Helvetica,sans-Serif" font-size="10.00"> commandedJointPosition</text>
<text text-anchor="middle" x="343.5" y="-114" font-family="Helvetica,sans-Serif" font-size="10.00">commandedTorque</text>
<text text-anchor="middle" x="343.5" y="-103" font-family="Helvetica,sans-Serif" font-size="10.00">externalTorque</text>
<text text-anchor="middle" x="343.5" y="-92" font-family="Helvetica,sans-Serif" font-size="10.00">measuredJointPosition</text>
<text text-anchor="middle" x="343.5" y="-81" font-family="Helvetica,sans-Serif" font-size="10.00">measuredTorque</text>
</g>
<!-- Node23 -->
<g id="node23" class="node">
<title>Node23</title>
<g id="a_node23"><a xlink:href="struct___message_ipo_data.html" target="_top" xlink:title=" ">
<polygon fill="white" stroke="black" points="446,-89.5 446,-108.5 542,-108.5 542,-89.5 446,-89.5"/>
<text text-anchor="middle" x="494" y="-96.5" font-family="Helvetica,sans-Serif" font-size="10.00">_MessageIpoData</text>
</a>
</g>
</g>
<!-- Node9&#45;&gt;Node23 -->
<g id="edge30" class="edge">
<title>Node9&#45;&gt;Node23</title>
<path fill="none" stroke="#9a32cd" stroke-dasharray="5,2" d="M249.35,-50.36C258.26,-47.73 267.89,-45.34 277,-44 335.48,-35.37 353.4,-26.95 410,-44 439.46,-52.88 468.08,-76 482.78,-89.27"/>
<polygon fill="#9a32cd" stroke="#9a32cd" points="248.16,-47.07 239.66,-53.4 250.25,-53.75 248.16,-47.07"/>
<text text-anchor="middle" x="343.5" y="-47" font-family="Helvetica,sans-Serif" font-size="10.00"> jointPosition</text>
</g>
<!-- Node10 -->
<g id="node10" class="node">
<title>Node10</title>
<g id="a_node10"><a xlink:href="struct__pb__callback__t.html" target="_top" xlink:title=" ">
<polygon fill="white" stroke="black" points="0,-32.5 0,-51.5 82,-51.5 82,-32.5 0,-32.5"/>
<text text-anchor="middle" x="41" y="-39.5" font-family="Helvetica,sans-Serif" font-size="10.00">_pb_callback_t</text>
</a>
</g>
</g>
<!-- Node10&#45;&gt;Node9 -->
<g id="edge9" class="edge">
<title>Node10&#45;&gt;Node9</title>
<path fill="none" stroke="#9a32cd" stroke-dasharray="5,2" d="M92.4,-48.23C119.6,-51.59 152.49,-55.65 176.9,-58.66"/>
<polygon fill="#9a32cd" stroke="#9a32cd" points="92.64,-44.73 82.29,-46.98 91.78,-51.68 92.64,-44.73"/>
<text text-anchor="middle" x="124.5" y="-58" font-family="Helvetica,sans-Serif" font-size="10.00"> value</text>
</g>
<!-- Node21 -->
<g id="node21" class="node">
<title>Node21</title>
<g id="a_node21"><a xlink:href="struct___robot_info.html" target="_top" xlink:title=" ">
<polygon fill="white" stroke="black" points="311,-0.5 311,-19.5 376,-19.5 376,-0.5 311,-0.5"/>
<text text-anchor="middle" x="343.5" y="-7.5" font-family="Helvetica,sans-Serif" font-size="10.00">_RobotInfo</text>
</a>
</g>
</g>
<!-- Node10&#45;&gt;Node21 -->
<g id="edge25" class="edge">
<title>Node10&#45;&gt;Node21</title>
<path fill="none" stroke="#9a32cd" stroke-dasharray="5,2" d="M92.31,-35.87C94.91,-35.57 97.49,-35.28 100,-35 175.5,-26.55 264.35,-17.66 310.7,-13.1"/>
<polygon fill="#9a32cd" stroke="#9a32cd" points="91.76,-32.41 82.24,-37.05 92.58,-39.37 91.76,-32.41"/>
<text text-anchor="middle" x="124.5" y="-38" font-family="Helvetica,sans-Serif" font-size="10.00"> driveState</text>
</g>
<!-- Node11 -->
<g id="node11" class="node">
<title>Node11</title>
<g id="a_node11"><a xlink:href="struct___cartesian_vector.html" target="_top" xlink:title=" ">
<polygon fill="white" stroke="black" points="167,-317.5 167,-336.5 259,-336.5 259,-317.5 167,-317.5"/>
<text text-anchor="middle" x="213" y="-324.5" font-family="Helvetica,sans-Serif" font-size="10.00">_CartesianVector</text>
</a>
</g>
</g>
<!-- Node11&#45;&gt;Node5 -->
<g id="edge10" class="edge">
<title>Node11&#45;&gt;Node5</title>
<path fill="none" stroke="#9a32cd" stroke-dasharray="5,2" d="M269.41,-321.61C308.72,-317.58 362.69,-311.64 410,-305 419.41,-303.68 429.39,-302.13 439.04,-300.55"/>
<polygon fill="#9a32cd" stroke="#9a32cd" points="268.84,-318.15 259.24,-322.64 269.54,-325.11 268.84,-318.15"/>
<text text-anchor="middle" x="343.5" y="-324" font-family="Helvetica,sans-Serif" font-size="10.00"> cartesianWrenchFeedForward</text>
</g>
<!-- Node12 -->
<g id="node12" class="node">
<title>Node12</title>
<g id="a_node12"><a xlink:href="struct___message_header.html" target="_top" xlink:title=" ">
<polygon fill="white" stroke="black" points="447.5,-234.5 447.5,-253.5 540.5,-253.5 540.5,-234.5 447.5,-234.5"/>
<text text-anchor="middle" x="494" y="-241.5" font-family="Helvetica,sans-Serif" font-size="10.00">_MessageHeader</text>
</a>
</g>
</g>
<!-- Node12&#45;&gt;Node4 -->
<g id="edge11" class="edge">
<title>Node12&#45;&gt;Node4</title>
<path fill="none" stroke="#9a32cd" stroke-dasharray="5,2" d="M551.2,-252.47C587.31,-258.26 635.12,-266.57 677,-276 704.47,-282.19 735.28,-290.79 757.7,-297.37"/>
<polygon fill="#9a32cd" stroke="#9a32cd" points="551.29,-248.94 540.86,-250.83 550.19,-255.85 551.29,-248.94"/>
<text text-anchor="middle" x="627.5" y="-279" font-family="Helvetica,sans-Serif" font-size="10.00"> header</text>
</g>
<!-- Node12&#45;&gt;Node19 -->
<g id="edge19" class="edge">
<title>Node12&#45;&gt;Node19</title>
<path fill="none" stroke="#9a32cd" stroke-dasharray="5,2" d="M543.7,-232.26C554.92,-229.89 566.83,-227.63 578,-226 628.47,-218.65 686.23,-214.57 728.63,-212.38"/>
<polygon fill="#9a32cd" stroke="#9a32cd" points="542.67,-228.91 533.65,-234.46 544.16,-235.75 542.67,-228.91"/>
<text text-anchor="middle" x="627.5" y="-229" font-family="Helvetica,sans-Serif" font-size="10.00"> header</text>
</g>
<!-- Node13 -->
<g id="node13" class="node">
<title>Node13</title>
<g id="a_node13"><a xlink:href="struct___message_end_of.html" target="_top" xlink:title=" ">
<polygon fill="white" stroke="black" points="449.5,-319.5 449.5,-338.5 538.5,-338.5 538.5,-319.5 449.5,-319.5"/>
<text text-anchor="middle" x="494" y="-326.5" font-family="Helvetica,sans-Serif" font-size="10.00">_MessageEndOf</text>
</a>
</g>
</g>
<!-- Node13&#45;&gt;Node4 -->
<g id="edge12" class="edge">
<title>Node13&#45;&gt;Node4</title>
<path fill="none" stroke="#9a32cd" stroke-dasharray="5,2" d="M548.8,-336.43C558.5,-337.5 568.54,-338.43 578,-339 621.92,-341.64 633.42,-345.08 677,-339 707.37,-334.76 741.05,-324.39 763.57,-316.6"/>
<polygon fill="#9a32cd" stroke="#9a32cd" points="549.18,-332.96 538.85,-335.28 548.38,-339.91 549.18,-332.96"/>
<text text-anchor="middle" x="627.5" y="-346" font-family="Helvetica,sans-Serif" font-size="10.00"> endOfMessageData</text>
</g>
<!-- Node13&#45;&gt;Node19 -->
<g id="edge28" class="edge">
<title>Node13&#45;&gt;Node19</title>
<path fill="none" stroke="#9a32cd" stroke-dasharray="5,2" d="M548.63,-325.58C593.96,-322.03 654.93,-315.5 677,-305 686.94,-300.27 686.75,-295.28 695,-288 723.86,-262.51 759.15,-234.07 777.35,-219.6"/>
<polygon fill="#9a32cd" stroke="#9a32cd" points="548.35,-322.1 538.64,-326.34 548.88,-329.08 548.35,-322.1"/>
<text text-anchor="middle" x="627.5" y="-326" font-family="Helvetica,sans-Serif" font-size="10.00"> endOfMessageData</text>
</g>
<!-- Node14 -->
<g id="node14" class="node">
<title>Node14</title>
<g id="a_node14"><a xlink:href="struct___checksum.html" target="_top" xlink:title=" ">
<polygon fill="white" stroke="black" points="178.5,-279.5 178.5,-298.5 247.5,-298.5 247.5,-279.5 178.5,-279.5"/>
<text text-anchor="middle" x="213" y="-286.5" font-family="Helvetica,sans-Serif" font-size="10.00">_Checksum</text>
</a>
</g>
</g>
<!-- Node14&#45;&gt;Node13 -->
<g id="edge13" class="edge">
<title>Node14&#45;&gt;Node13</title>
<path fill="none" stroke="#9a32cd" stroke-dasharray="5,2" d="M257.77,-280.57C298.82,-274.73 361.03,-271.27 410,-292 420.42,-296.41 418.27,-304.23 428,-310 434.57,-313.9 442,-317.04 449.42,-319.56"/>
<polygon fill="#9a32cd" stroke="#9a32cd" points="257.17,-277.12 247.81,-282.1 258.23,-284.04 257.17,-277.12"/>
<text text-anchor="middle" x="343.5" y="-295" font-family="Helvetica,sans-Serif" font-size="10.00"> messageChecksum</text>
</g>
<!-- Node15 -->
<g id="node15" class="node">
<title>Node15</title>
<g id="a_node15"><a xlink:href="class_k_u_k_a_1_1_f_r_i_1_1_monitoring_message_decoder.html" target="_top" xlink:title=" ">
<polygon fill="white" stroke="black" points="1007,-240 1007,-270 1165,-270 1165,-240 1007,-240"/>
<text text-anchor="start" x="1015" y="-258" font-family="Helvetica,sans-Serif" font-size="10.00">KUKA::FRI::MonitoringMessage</text>
<text text-anchor="middle" x="1086" y="-247" font-family="Helvetica,sans-Serif" font-size="10.00">Decoder</text>
</a>
</g>
</g>
<!-- Node15&#45;&gt;Node3 -->
<g id="edge14" class="edge">
<title>Node15&#45;&gt;Node3</title>
<path fill="none" stroke="#9a32cd" stroke-dasharray="5,2" d="M1175,-271.3C1199.2,-275.79 1224.65,-280.5 1246.05,-284.47"/>
<polygon fill="#9a32cd" stroke="#9a32cd" points="1175.55,-267.85 1165.08,-269.47 1174.28,-274.73 1175.55,-267.85"/>
<text text-anchor="middle" x="1202" y="-283" font-family="Helvetica,sans-Serif" font-size="10.00"> decoder</text>
</g>
<!-- Node16 -->
<g id="node16" class="node">
<title>Node16</title>
<g id="a_node16"><a xlink:href="struct_k_u_k_a_1_1_f_r_i_1_1_monitoring_message_decoder_1_1_local_monitoring_data_container.html" target="_top" xlink:title=" ">
<polygon fill="white" stroke="black" points="695,-408 695,-438 886,-438 886,-408 695,-408"/>
<text text-anchor="start" x="703" y="-426" font-family="Helvetica,sans-Serif" font-size="10.00">KUKA::FRI::MonitoringMessage</text>
<text text-anchor="middle" x="790.5" y="-415" font-family="Helvetica,sans-Serif" font-size="10.00">Decoder::LocalMonitoringDataContainer</text>
</a>
</g>
</g>
<!-- Node16&#45;&gt;Node15 -->
<g id="edge15" class="edge">
<title>Node16&#45;&gt;Node15</title>
<path fill="none" stroke="#9a32cd" stroke-dasharray="5,2" d="M896.16,-405.44C929.83,-395.01 964.69,-378.41 989,-352 1009.88,-329.32 986.37,-307.91 1007,-285 1012.53,-278.85 1019.47,-273.96 1026.91,-270.06"/>
<polygon fill="#9a32cd" stroke="#9a32cd" points="894.84,-402.17 886.23,-408.35 896.81,-408.89 894.84,-402.17"/>
<text text-anchor="middle" x="946.5" y="-405" font-family="Helvetica,sans-Serif" font-size="10.00"> m_tSendContainer</text>
</g>
<!-- Node17 -->
<g id="node17" class="node">
<title>Node17</title>
<g id="a_node17"><a xlink:href="structrepeated_double_arguments.html" target="_top" xlink:title=" ">
<polygon fill="white" stroke="black" points="428,-493.5 428,-512.5 560,-512.5 560,-493.5 428,-493.5"/>
<text text-anchor="middle" x="494" y="-500.5" font-family="Helvetica,sans-Serif" font-size="10.00">repeatedDoubleArguments</text>
</a>
</g>
</g>
<!-- Node17&#45;&gt;Node16 -->
<g id="edge16" class="edge">
<title>Node17&#45;&gt;Node16</title>
<path fill="none" stroke="#9a32cd" stroke-dasharray="5,2" d="M515.9,-487.55C532.04,-476.41 555.37,-461.99 578,-454 599.52,-446.4 649.19,-438.95 694.98,-433.25"/>
<polygon fill="#9a32cd" stroke="#9a32cd" points="513.87,-484.7 507.73,-493.33 517.91,-490.41 513.87,-484.7"/>
<text text-anchor="middle" x="627.5" y="-512" font-family="Helvetica,sans-Serif" font-size="10.00"> m_AxQCmdIPO</text>
<text text-anchor="middle" x="627.5" y="-501" font-family="Helvetica,sans-Serif" font-size="10.00">m_AxQCmdT1mLocal</text>
<text text-anchor="middle" x="627.5" y="-490" font-family="Helvetica,sans-Serif" font-size="10.00">m_AxQMsrLocal</text>
<text text-anchor="middle" x="627.5" y="-479" font-family="Helvetica,sans-Serif" font-size="10.00">m_AxTauCmdLocal</text>
<text text-anchor="middle" x="627.5" y="-468" font-family="Helvetica,sans-Serif" font-size="10.00">m_AxTauExtMsrLocal</text>
<text text-anchor="middle" x="627.5" y="-457" font-family="Helvetica,sans-Serif" font-size="10.00">m_AxTauMsrLocal</text>
</g>
<!-- Node25 -->
<g id="node25" class="node">
<title>Node25</title>
<g id="a_node25"><a xlink:href="struct_k_u_k_a_1_1_f_r_i_1_1_command_message_encoder_1_1_local_command_data_container.html" target="_top" xlink:title=" ">
<polygon fill="white" stroke="black" points="695.5,-494 695.5,-524 885.5,-524 885.5,-494 695.5,-494"/>
<text text-anchor="start" x="703.5" y="-512" font-family="Helvetica,sans-Serif" font-size="10.00">KUKA::FRI::CommandMessage</text>
<text text-anchor="middle" x="790.5" y="-501" font-family="Helvetica,sans-Serif" font-size="10.00">Encoder::LocalCommandDataContainer</text>
</a>
</g>
</g>
<!-- Node17&#45;&gt;Node25 -->
<g id="edge34" class="edge">
<title>Node17&#45;&gt;Node25</title>
<path fill="none" stroke="#9a32cd" stroke-dasharray="5,2" d="M534.97,-515.24C548.49,-518.81 563.78,-522.23 578,-524 616.26,-528.77 658.63,-527.12 695.32,-523.51"/>
<polygon fill="#9a32cd" stroke="#9a32cd" points="535.58,-511.78 525.01,-512.51 533.73,-518.53 535.58,-511.78"/>
<text text-anchor="middle" x="627.5" y="-541" font-family="Helvetica,sans-Serif" font-size="10.00"> jointPosition</text>
<text text-anchor="middle" x="627.5" y="-530" font-family="Helvetica,sans-Serif" font-size="10.00">jointTorque</text>
</g>
<!-- Node18 -->
<g id="node18" class="node">
<title>Node18</title>
<g id="a_node18"><a xlink:href="structrepeated_int_arguments.html" target="_top" xlink:title=" ">
<polygon fill="white" stroke="black" points="437.5,-416.5 437.5,-435.5 550.5,-435.5 550.5,-416.5 437.5,-416.5"/>
<text text-anchor="middle" x="494" y="-423.5" font-family="Helvetica,sans-Serif" font-size="10.00">repeatedIntArguments</text>
</a>
</g>
</g>
<!-- Node18&#45;&gt;Node16 -->
<g id="edge17" class="edge">
<title>Node18&#45;&gt;Node16</title>
<path fill="none" stroke="#9a32cd" stroke-dasharray="5,2" d="M561.09,-424.29C566.81,-424.18 572.51,-424.08 578,-424 616.18,-423.45 658.25,-423.18 694.74,-423.06"/>
<polygon fill="#9a32cd" stroke="#9a32cd" points="560.73,-420.8 550.81,-424.51 560.88,-427.8 560.73,-420.8"/>
<text text-anchor="middle" x="627.5" y="-427" font-family="Helvetica,sans-Serif" font-size="10.00"> m_AxDriveStateLocal</text>
</g>
<!-- Node19&#45;&gt;Node3 -->
<g id="edge35" class="edge">
<title>Node19&#45;&gt;Node3</title>
<path fill="none" stroke="#9a32cd" stroke-dasharray="5,2" d="M862.3,-201.63C938.55,-194.93 1062.68,-190.73 1165,-219 1213.41,-232.38 1262.95,-267.21 1285.27,-284.28"/>
<polygon fill="#9a32cd" stroke="#9a32cd" points="861.97,-198.15 852.33,-202.55 862.61,-205.12 861.97,-198.15"/>
<text text-anchor="middle" x="1086" y="-222" font-family="Helvetica,sans-Serif" font-size="10.00"> monitoringMsg</text>
</g>
<!-- Node19&#45;&gt;Node15 -->
<g id="edge18" class="edge">
<title>Node19&#45;&gt;Node15</title>
<path fill="none" stroke="#9a32cd" stroke-dasharray="5,2" d="M862.28,-220.85C905.94,-227.55 962,-236.14 1006.95,-243.03"/>
<polygon fill="#9a32cd" stroke="#9a32cd" points="862.73,-217.38 852.31,-219.32 861.67,-224.3 862.73,-217.38"/>
<text text-anchor="middle" x="946.5" y="-243" font-family="Helvetica,sans-Serif" font-size="10.00"> m_pMessage</text>
</g>
<!-- Node20&#45;&gt;Node19 -->
<g id="edge20" class="edge">
<title>Node20&#45;&gt;Node19</title>
<path fill="none" stroke="#9a32cd" stroke-dasharray="5,2" d="M561.61,-158.68C596.27,-161.87 639.19,-167.01 677,-175 707.22,-181.39 740.93,-192.42 763.5,-200.39"/>
<polygon fill="#9a32cd" stroke="#9a32cd" points="561.87,-155.19 551.6,-157.79 561.25,-162.16 561.87,-155.19"/>
<text text-anchor="middle" x="627.5" y="-178" font-family="Helvetica,sans-Serif" font-size="10.00"> monitorData</text>
</g>
<!-- Node21&#45;&gt;Node19 -->
<g id="edge24" class="edge">
<title>Node21&#45;&gt;Node19</title>
<path fill="none" stroke="#9a32cd" stroke-dasharray="5,2" d="M386.27,-16.3C451.91,-27.58 581.56,-55.51 677,-112 720.47,-137.73 762.99,-181.12 780.79,-200.34"/>
<polygon fill="#9a32cd" stroke="#9a32cd" points="386.74,-12.83 376.3,-14.63 385.58,-19.73 386.74,-12.83"/>
<text text-anchor="middle" x="494" y="-63" font-family="Helvetica,sans-Serif" font-size="10.00"> robotInfo</text>
</g>
<!-- Node22 -->
<g id="node22" class="node">
<title>Node22</title>
<g id="a_node22"><a xlink:href="struct___connection_info.html" target="_top" xlink:title=" ">
<polygon fill="white" stroke="black" points="450,-182.5 450,-201.5 538,-201.5 538,-182.5 450,-182.5"/>
<text text-anchor="middle" x="494" y="-189.5" font-family="Helvetica,sans-Serif" font-size="10.00">_ConnectionInfo</text>
</a>
</g>
</g>
<!-- Node22&#45;&gt;Node19 -->
<g id="edge27" class="edge">
<title>Node22&#45;&gt;Node19</title>
<path fill="none" stroke="#9a32cd" stroke-dasharray="5,2" d="M548.46,-189.78C584.77,-188.81 633.85,-188.57 677,-192 698,-193.67 721,-197.06 740.7,-200.46"/>
<polygon fill="#9a32cd" stroke="#9a32cd" points="547.99,-186.29 538.1,-190.08 548.2,-193.29 547.99,-186.29"/>
<text text-anchor="middle" x="627.5" y="-195" font-family="Helvetica,sans-Serif" font-size="10.00"> connectionInfo</text>
</g>
<!-- Node23&#45;&gt;Node19 -->
<g id="edge29" class="edge">
<title>Node23&#45;&gt;Node19</title>
<path fill="none" stroke="#9a32cd" stroke-dasharray="5,2" d="M552.07,-109.68C588.57,-117.49 636.5,-129.59 677,-146 714.49,-161.19 754.88,-186.66 775.55,-200.44"/>
<polygon fill="#9a32cd" stroke="#9a32cd" points="552.59,-106.21 542.09,-107.59 551.16,-113.06 552.59,-106.21"/>
<text text-anchor="middle" x="627.5" y="-149" font-family="Helvetica,sans-Serif" font-size="10.00"> ipoData</text>
</g>
<!-- Node24&#45;&gt;Node3 -->
<g id="edge31" class="edge">
<title>Node24&#45;&gt;Node3</title>
<path fill="none" stroke="#9a32cd" stroke-dasharray="5,2" d="M1168.77,-334.62C1186.1,-330.51 1204.23,-325.88 1221,-321 1238.44,-315.92 1257.73,-309.1 1272.58,-303.59"/>
<polygon fill="#9a32cd" stroke="#9a32cd" points="1167.61,-331.3 1158.67,-336.98 1169.2,-338.11 1167.61,-331.3"/>
<text text-anchor="middle" x="1202" y="-334" font-family="Helvetica,sans-Serif" font-size="10.00"> encoder</text>
</g>
<!-- Node25&#45;&gt;Node24 -->
<g id="edge33" class="edge">
<title>Node25&#45;&gt;Node24</title>
<path fill="none" stroke="#9a32cd" stroke-dasharray="5,2" d="M841.92,-490.28C882.71,-474.31 941.06,-449.61 989,-422 1017.6,-405.53 1047.95,-382.3 1066.69,-367.2"/>
<polygon fill="#9a32cd" stroke="#9a32cd" points="840.52,-487.07 832.46,-493.95 843.05,-493.59 840.52,-487.07"/>
<text text-anchor="middle" x="946.5" y="-468" font-family="Helvetica,sans-Serif" font-size="10.00"> m_tRecvContainer</text>
</g>
<!-- Node26&#45;&gt;Node1 -->
<g id="edge36" class="edge">
<title>Node26&#45;&gt;Node1</title>
<path fill="none" stroke="#9a32cd" stroke-dasharray="5,2" d="M1570.21,-281.15C1602.02,-286.5 1638.1,-292.56 1667.31,-297.47"/>
<polygon fill="#9a32cd" stroke="#9a32cd" points="1570.48,-277.64 1560.04,-279.44 1569.32,-284.55 1570.48,-277.64"/>
<text text-anchor="middle" x="1606" y="-294" font-family="Helvetica,sans-Serif" font-size="10.00"> _trafoClient</text>
</g>
<!-- Node27 -->
<g id="node27" class="node">
<title>Node27</title>
<g id="a_node27"><a xlink:href="class_k_u_k_a_1_1_f_r_i_1_1_i_connection.html" target="_top" xlink:title="FRI connection interface.">
<polygon fill="white" stroke="black" points="1428.5,-214.5 1428.5,-233.5 1553.5,-233.5 1553.5,-214.5 1428.5,-214.5"/>
<text text-anchor="middle" x="1491" y="-221.5" font-family="Helvetica,sans-Serif" font-size="10.00">KUKA::FRI::IConnection</text>
</a>
</g>
</g>
<!-- Node27&#45;&gt;Node1 -->
<g id="edge38" class="edge">
<title>Node27&#45;&gt;Node1</title>
<path fill="none" stroke="#9a32cd" stroke-dasharray="5,2" d="M1537.24,-236.28C1544.86,-238.45 1552.67,-240.74 1560,-243 1593.17,-253.23 1601.6,-255.53 1634,-268 1658,-277.23 1685,-289.14 1703.11,-297.36"/>
<polygon fill="#9a32cd" stroke="#9a32cd" points="1537.97,-232.85 1527.4,-233.51 1536.07,-239.58 1537.97,-232.85"/>
<text text-anchor="middle" x="1606" y="-271" font-family="Helvetica,sans-Serif" font-size="10.00"> _connection</text>
</g>
</g>
</svg>
        <g id="navigator" transform="translate(0 0)" fill="#404254">
                <rect fill="#f2f5e9" fill-opacity="0.5" stroke="#606060" stroke-width=".5" x="0" y="0" width="60" height="60"/>
                <use id="zoomplus" xlink:href="#zoomPlus" x="17" y="9" onmousedown="handleZoom(evt,'in')"/>
                <use id="zoomminus" xlink:href="#zoomMin" x="42" y="9" onmousedown="handleZoom(evt,'out')"/>
                <use id="reset" xlink:href="#resetDef" x="30" y="36" onmousedown="handleReset()"/>
                <g id="arrowUp" xlink:href="#dirArrow" transform="translate(30 24)" onmousedown="handlePan(0,-1)">
                  <use xlink:href="#rim" fill="#404040">
                        <set attributeName="fill" to="#808080" begin="arrowUp.mouseover" end="arrowUp.mouseout"/>
                  </use>
                  <path fill="none" stroke="white" stroke-width="1.5" d="M0,-3.0v7 M-2.5,-0.5L0,-3.0L2.5,-0.5"/>
                </g>
                <g id="arrowRight" xlink:href="#dirArrow" transform="rotate(90) translate(36 -43)" onmousedown="handlePan(1,0)">
                  <use xlink:href="#rim" fill="#404040">
                        <set attributeName="fill" to="#808080" begin="arrowRight.mouseover" end="arrowRight.mouseout"/>
                  </use>
                  <path fill="none" stroke="white" stroke-width="1.5" d="M0,-3.0v7 M-2.5,-0.5L0,-3.0L2.5,-0.5"/>
                </g>
                <g id="arrowDown" xlink:href="#dirArrow" transform="rotate(180) translate(-30 -48)" onmousedown="handlePan(0,1)">
                  <use xlink:href="#rim" fill="#404040">
                        <set attributeName="fill" to="#808080" begin="arrowDown.mouseover" end="arrowDown.mouseout"/>
                  </use>
                  <path fill="none" stroke="white" stroke-width="1.5" d="M0,-3.0v7 M-2.5,-0.5L0,-3.0L2.5,-0.5"/>
                </g>
                <g id="arrowLeft" xlink:href="#dirArrow" transform="rotate(270) translate(-36 17)" onmousedown="handlePan(-1,0)">
                  <use xlink:href="#rim" fill="#404040">
                        <set attributeName="fill" to="#808080" begin="arrowLeft.mouseover" end="arrowLeft.mouseout"/>
                  </use>
                  <path fill="none" stroke="white" stroke-width="1.5" d="M0,-3.0v7 M-2.5,-0.5L0,-3.0L2.5,-0.5"/>
                </g>
        </g>
        <svg viewBox="0 0 15 15" width="100%" height="30px" preserveAspectRatio="xMaxYMin meet">
         <g id="arrow_out" transform="scale(0.3 0.3)">
          <a xlink:href="class_k_u_k_a_1_1_f_r_i_1_1_client_application__coll__graph_org.svg" target="_base">
           <rect id="button" ry="5" rx="5" y="6" x="6" height="38" width="38"
                fill="#f2f5e9" fill-opacity="0.5" stroke="#606060" stroke-width="1.0"/>
           <path id="arrow"
             d="M 11.500037,31.436501 C 11.940474,20.09759 22.043105,11.32322 32.158766,21.979434 L 37.068811,17.246167 C 37.068811,17.246167 37.088388,32 37.088388,32 L 22.160133,31.978069 C 22.160133,31.978069 26.997745,27.140456 26.997745,27.140456 C 18.528582,18.264221 13.291696,25.230495 11.500037,31.436501 z"
             style="fill:#404040;"/>
          </a>
         </g>
        </svg>
</svg>
