<?xml version="1.0" encoding="UTF-8" standalone="no"?>
<!DOCTYPE svg PUBLIC "-//W3C//DTD SVG 1.1//EN"
 "http://www.w3.org/Graphics/SVG/1.1/DTD/svg11.dtd">
<!-- Generated by graphviz version 2.43.0 (0)
 -->
<!-- Title: KUKA::FRI::IConnection::isOpen Pages: 1 -->
<svg width="497pt" height="137pt"
 viewBox="0.00 0.00 497.00 137.00" xmlns="http://www.w3.org/2000/svg" xmlns:xlink="http://www.w3.org/1999/xlink">
<g id="graph0" class="graph" transform="scale(1 1) rotate(0) translate(4 133)">
<title>KUKA::FRI::IConnection::isOpen</title>
<polygon fill="white" stroke="transparent" points="-4,4 -4,-133 493,-133 493,4 -4,4"/>
<!-- Node1 -->
<g id="node1" class="node">
<title>Node1</title>
<g id="a_node1"><a xlink:title="Checks whether a connection to the KUKA Sunrise controller is established.">
<polygon fill="#bfbfbf" stroke="black" points="364,-49.5 364,-79.5 489,-79.5 489,-49.5 364,-49.5"/>
<text text-anchor="start" x="372" y="-67.5" font-family="Helvetica,sans-Serif" font-size="10.00">KUKA::FRI::IConnection</text>
<text text-anchor="middle" x="426.5" y="-56.5" font-family="Helvetica,sans-Serif" font-size="10.00">::isOpen</text>
</a>
</g>
</g>
<!-- Node2 -->
<g id="node2" class="node">
<title>Node2</title>
<g id="a_node2"><a xlink:href="class_k_u_k_a_1_1_f_r_i_1_1_client_application.html#a17bc0e8dab4235fc53e0c568c3da3dbe" target="_top" xlink:title="Connect the FRI client application with a KUKA Sunrise controller.">
<polygon fill="white" stroke="black" points="182,-98.5 182,-128.5 328,-128.5 328,-98.5 182,-98.5"/>
<text text-anchor="start" x="190" y="-116.5" font-family="Helvetica,sans-Serif" font-size="10.00">KUKA::FRI::ClientApplication</text>
<text text-anchor="middle" x="255" y="-105.5" font-family="Helvetica,sans-Serif" font-size="10.00">::connect</text>
</a>
</g>
</g>
<!-- Node1&#45;&gt;Node2 -->
<g id="edge1" class="edge">
<title>Node1&#45;&gt;Node2</title>
<path fill="none" stroke="midnightblue" d="M363.6,-82.39C345.37,-87.66 325.61,-93.38 308.07,-98.45"/>
<polygon fill="midnightblue" stroke="midnightblue" points="364.63,-85.74 373.26,-79.6 362.68,-79.02 364.63,-85.74"/>
</g>
<!-- Node4 -->
<g id="node4" class="node">
<title>Node4</title>
<g id="a_node4"><a xlink:href="class_k_u_k_a_1_1_f_r_i_1_1_client_application.html#ae24af29c4f2fd5e678f2f71bdc94d1d9" target="_top" xlink:title="Disconnect the FRI client application from a KUKA Sunrise controller.">
<polygon fill="white" stroke="black" points="182,-0.5 182,-30.5 328,-30.5 328,-0.5 182,-0.5"/>
<text text-anchor="start" x="190" y="-18.5" font-family="Helvetica,sans-Serif" font-size="10.00">KUKA::FRI::ClientApplication</text>
<text text-anchor="middle" x="255" y="-7.5" font-family="Helvetica,sans-Serif" font-size="10.00">::disconnect</text>
</a>
</g>
</g>
<!-- Node1&#45;&gt;Node4 -->
<g id="edge3" class="edge">
<title>Node1&#45;&gt;Node4</title>
<path fill="none" stroke="midnightblue" d="M363.6,-46.61C345.37,-41.34 325.61,-35.62 308.07,-30.55"/>
<polygon fill="midnightblue" stroke="midnightblue" points="362.68,-49.98 373.26,-49.4 364.63,-43.26 362.68,-49.98"/>
</g>
<!-- Node6 -->
<g id="node6" class="node">
<title>Node6</title>
<g id="a_node6"><a xlink:href="class_k_u_k_a_1_1_f_r_i_1_1_client_application.html#a9939bfd1fa78c59dc3675a6d2a5de7a7" target="_top" xlink:title="Run a single processing step.">
<polygon fill="white" stroke="black" points="182,-49.5 182,-79.5 328,-79.5 328,-49.5 182,-49.5"/>
<text text-anchor="start" x="190" y="-67.5" font-family="Helvetica,sans-Serif" font-size="10.00">KUKA::FRI::ClientApplication</text>
<text text-anchor="middle" x="255" y="-56.5" font-family="Helvetica,sans-Serif" font-size="10.00">::step</text>
</a>
</g>
</g>
<!-- Node1&#45;&gt;Node6 -->
<g id="edge6" class="edge">
<title>Node1&#45;&gt;Node6</title>
<path fill="none" stroke="midnightblue" d="M353.68,-64.5C345.27,-64.5 336.69,-64.5 328.28,-64.5"/>
<polygon fill="midnightblue" stroke="midnightblue" points="353.83,-68 363.83,-64.5 353.83,-61 353.83,-68"/>
</g>
<!-- Node3 -->
<g id="node3" class="node">
<title>Node3</title>
<g id="a_node3"><a xlink:href="_i_o_access_app_8cpp.html#a3c04138a5bfe5d72780bb7e82a18e627" target="_top" xlink:title=" ">
<polygon fill="white" stroke="black" points="54,-55 54,-74 92,-74 92,-55 54,-55"/>
<text text-anchor="middle" x="73" y="-62" font-family="Helvetica,sans-Serif" font-size="10.00">main</text>
</a>
</g>
</g>
<!-- Node2&#45;&gt;Node3 -->
<g id="edge2" class="edge">
<title>Node2&#45;&gt;Node3</title>
<path fill="none" stroke="midnightblue" d="M188.53,-95.68C154.2,-86.33 114.72,-75.59 92.23,-69.46"/>
<polygon fill="midnightblue" stroke="midnightblue" points="187.96,-99.15 198.53,-98.4 189.8,-92.39 187.96,-99.15"/>
</g>
<!-- Node4&#45;&gt;Node3 -->
<g id="edge4" class="edge">
<title>Node4&#45;&gt;Node3</title>
<path fill="none" stroke="midnightblue" d="M188.53,-33.32C154.2,-42.67 114.72,-53.41 92.23,-59.54"/>
<polygon fill="midnightblue" stroke="midnightblue" points="189.8,-36.61 198.53,-30.6 187.96,-29.85 189.8,-36.61"/>
</g>
<!-- Node5 -->
<g id="node5" class="node">
<title>Node5</title>
<g id="a_node5"><a xlink:href="class_k_u_k_a_1_1_f_r_i_1_1_client_application.html#aa8d7e55e1f5d744e2a59a7c9c6c7ce8d" target="_top" xlink:title="Destructor.">
<polygon fill="white" stroke="black" points="0,-0.5 0,-30.5 146,-30.5 146,-0.5 0,-0.5"/>
<text text-anchor="start" x="8" y="-18.5" font-family="Helvetica,sans-Serif" font-size="10.00">KUKA::FRI::ClientApplication</text>
<text text-anchor="middle" x="73" y="-7.5" font-family="Helvetica,sans-Serif" font-size="10.00">::~ClientApplication</text>
</a>
</g>
</g>
<!-- Node4&#45;&gt;Node5 -->
<g id="edge5" class="edge">
<title>Node4&#45;&gt;Node5</title>
<path fill="none" stroke="midnightblue" d="M171.56,-15.5C163.09,-15.5 154.54,-15.5 146.19,-15.5"/>
<polygon fill="midnightblue" stroke="midnightblue" points="171.82,-19 181.82,-15.5 171.82,-12 171.82,-19"/>
</g>
<!-- Node6&#45;&gt;Node3 -->
<g id="edge7" class="edge">
<title>Node6&#45;&gt;Node3</title>
<path fill="none" stroke="midnightblue" d="M171.79,-64.5C142.01,-64.5 111.09,-64.5 92.19,-64.5"/>
<polygon fill="midnightblue" stroke="midnightblue" points="171.82,-68 181.82,-64.5 171.82,-61 171.82,-68"/>
</g>
</g>
</svg>
