<?xml version="1.0" encoding="UTF-8" standalone="no"?>
<!DOCTYPE svg PUBLIC "-//W3C//DTD SVG 1.1//EN"
 "http://www.w3.org/Graphics/SVG/1.1/DTD/svg11.dtd">
<!-- Generated by graphviz version 2.43.0 (0)
 -->
<!-- Title: KUKA::FRI::ClientApplication::connect Pages: 1 -->
<svg width="315pt" height="88pt"
 viewBox="0.00 0.00 315.00 88.00" xmlns="http://www.w3.org/2000/svg" xmlns:xlink="http://www.w3.org/1999/xlink">
<g id="graph0" class="graph" transform="scale(1 1) rotate(0) translate(4 84)">
<title>KUKA::FRI::ClientApplication::connect</title>
<polygon fill="white" stroke="transparent" points="-4,4 -4,-84 311,-84 311,4 -4,4"/>
<!-- Node1 -->
<g id="node1" class="node">
<title>Node1</title>
<g id="a_node1"><a xlink:title="Connect the FRI client application with a KUKA Sunrise controller.">
<polygon fill="#bfbfbf" stroke="black" points="0,-24.5 0,-54.5 146,-54.5 146,-24.5 0,-24.5"/>
<text text-anchor="start" x="8" y="-42.5" font-family="Helvetica,sans-Serif" font-size="10.00">KUKA::FRI::ClientApplication</text>
<text text-anchor="middle" x="73" y="-31.5" font-family="Helvetica,sans-Serif" font-size="10.00">::connect</text>
</a>
</g>
</g>
<!-- Node2 -->
<g id="node2" class="node">
<title>Node2</title>
<g id="a_node2"><a xlink:href="class_k_u_k_a_1_1_f_r_i_1_1_i_connection.html#a61dca018a26afa39f543041487e8379c" target="_top" xlink:title="Checks whether a connection to the KUKA Sunrise controller is established.">
<polygon fill="white" stroke="black" points="182,-49.5 182,-79.5 307,-79.5 307,-49.5 182,-49.5"/>
<text text-anchor="start" x="190" y="-67.5" font-family="Helvetica,sans-Serif" font-size="10.00">KUKA::FRI::IConnection</text>
<text text-anchor="middle" x="244.5" y="-56.5" font-family="Helvetica,sans-Serif" font-size="10.00">::isOpen</text>
</a>
</g>
</g>
<!-- Node1&#45;&gt;Node2 -->
<g id="edge1" class="edge">
<title>Node1&#45;&gt;Node2</title>
<path fill="none" stroke="midnightblue" d="M146.37,-50.17C154.75,-51.41 163.3,-52.67 171.67,-53.91"/>
<polygon fill="midnightblue" stroke="midnightblue" points="171.37,-57.4 181.78,-55.4 172.4,-50.47 171.37,-57.4"/>
</g>
<!-- Node3 -->
<g id="node3" class="node">
<title>Node3</title>
<g id="a_node3"><a xlink:href="class_k_u_k_a_1_1_f_r_i_1_1_i_connection.html#aa28671be2311219b94f96295e34e6774" target="_top" xlink:title="Open a connection to the KUKA Sunrise controller.">
<polygon fill="white" stroke="black" points="182,-0.5 182,-30.5 307,-30.5 307,-0.5 182,-0.5"/>
<text text-anchor="start" x="190" y="-18.5" font-family="Helvetica,sans-Serif" font-size="10.00">KUKA::FRI::IConnection</text>
<text text-anchor="middle" x="244.5" y="-7.5" font-family="Helvetica,sans-Serif" font-size="10.00">::open</text>
</a>
</g>
</g>
<!-- Node1&#45;&gt;Node3 -->
<g id="edge2" class="edge">
<title>Node1&#45;&gt;Node3</title>
<path fill="none" stroke="midnightblue" d="M146.37,-29.25C154.75,-28.07 163.3,-26.86 171.67,-25.67"/>
<polygon fill="midnightblue" stroke="midnightblue" points="172.37,-29.11 181.78,-24.24 171.39,-22.18 172.37,-29.11"/>
</g>
</g>
</svg>
