<?xml version="1.0" encoding="UTF-8" standalone="no"?>
<!DOCTYPE svg PUBLIC "-//W3C//DTD SVG 1.1//EN"
 "http://www.w3.org/Graphics/SVG/1.1/DTD/svg11.dtd">
<!-- Generated by graphviz version 2.43.0 (0)
 -->
<!-- Title: KUKA::FRI::ClientApplication::~ClientApplication Pages: 1 -->
<svg width="497pt" height="88pt"
 viewBox="0.00 0.00 497.00 88.00" xmlns="http://www.w3.org/2000/svg" xmlns:xlink="http://www.w3.org/1999/xlink">
<g id="graph0" class="graph" transform="scale(1 1) rotate(0) translate(4 84)">
<title>KUKA::FRI::ClientApplication::~ClientApplication</title>
<polygon fill="white" stroke="transparent" points="-4,4 -4,-84 493,-84 493,4 -4,4"/>
<!-- Node1 -->
<g id="node1" class="node">
<title>Node1</title>
<g id="a_node1"><a xlink:title="Destructor.">
<polygon fill="#bfbfbf" stroke="black" points="0,-24.5 0,-54.5 146,-54.5 146,-24.5 0,-24.5"/>
<text text-anchor="start" x="8" y="-42.5" font-family="Helvetica,sans-Serif" font-size="10.00">KUKA::FRI::ClientApplication</text>
<text text-anchor="middle" x="73" y="-31.5" font-family="Helvetica,sans-Serif" font-size="10.00">::~ClientApplication</text>
</a>
</g>
</g>
<!-- Node2 -->
<g id="node2" class="node">
<title>Node2</title>
<g id="a_node2"><a xlink:href="class_k_u_k_a_1_1_f_r_i_1_1_client_application.html#ae24af29c4f2fd5e678f2f71bdc94d1d9" target="_top" xlink:title="Disconnect the FRI client application from a KUKA Sunrise controller.">
<polygon fill="white" stroke="black" points="182,-24.5 182,-54.5 328,-54.5 328,-24.5 182,-24.5"/>
<text text-anchor="start" x="190" y="-42.5" font-family="Helvetica,sans-Serif" font-size="10.00">KUKA::FRI::ClientApplication</text>
<text text-anchor="middle" x="255" y="-31.5" font-family="Helvetica,sans-Serif" font-size="10.00">::disconnect</text>
</a>
</g>
</g>
<!-- Node1&#45;&gt;Node2 -->
<g id="edge1" class="edge">
<title>Node1&#45;&gt;Node2</title>
<path fill="none" stroke="midnightblue" d="M146.18,-39.5C154.52,-39.5 163.08,-39.5 171.54,-39.5"/>
<polygon fill="midnightblue" stroke="midnightblue" points="171.81,-43 181.81,-39.5 171.81,-36 171.81,-43"/>
</g>
<!-- Node3 -->
<g id="node3" class="node">
<title>Node3</title>
<g id="a_node3"><a xlink:href="class_k_u_k_a_1_1_f_r_i_1_1_i_connection.html#afbf9253c40ef19660654216ff3ee4381" target="_top" xlink:title="Close a connection to the KUKA Sunrise controller.">
<polygon fill="white" stroke="black" points="364,-49.5 364,-79.5 489,-79.5 489,-49.5 364,-49.5"/>
<text text-anchor="start" x="372" y="-67.5" font-family="Helvetica,sans-Serif" font-size="10.00">KUKA::FRI::IConnection</text>
<text text-anchor="middle" x="426.5" y="-56.5" font-family="Helvetica,sans-Serif" font-size="10.00">::close</text>
</a>
</g>
</g>
<!-- Node2&#45;&gt;Node3 -->
<g id="edge2" class="edge">
<title>Node2&#45;&gt;Node3</title>
<path fill="none" stroke="midnightblue" d="M328.37,-50.17C336.75,-51.41 345.3,-52.67 353.67,-53.91"/>
<polygon fill="midnightblue" stroke="midnightblue" points="353.37,-57.4 363.78,-55.4 354.4,-50.47 353.37,-57.4"/>
</g>
<!-- Node4 -->
<g id="node4" class="node">
<title>Node4</title>
<g id="a_node4"><a xlink:href="class_k_u_k_a_1_1_f_r_i_1_1_i_connection.html#a61dca018a26afa39f543041487e8379c" target="_top" xlink:title="Checks whether a connection to the KUKA Sunrise controller is established.">
<polygon fill="white" stroke="black" points="364,-0.5 364,-30.5 489,-30.5 489,-0.5 364,-0.5"/>
<text text-anchor="start" x="372" y="-18.5" font-family="Helvetica,sans-Serif" font-size="10.00">KUKA::FRI::IConnection</text>
<text text-anchor="middle" x="426.5" y="-7.5" font-family="Helvetica,sans-Serif" font-size="10.00">::isOpen</text>
</a>
</g>
</g>
<!-- Node2&#45;&gt;Node4 -->
<g id="edge3" class="edge">
<title>Node2&#45;&gt;Node4</title>
<path fill="none" stroke="midnightblue" d="M328.37,-29.25C336.75,-28.07 345.3,-26.86 353.67,-25.67"/>
<polygon fill="midnightblue" stroke="midnightblue" points="354.37,-29.11 363.78,-24.24 353.39,-22.18 354.37,-29.11"/>
</g>
</g>
</svg>
