<?xml version="1.0" encoding="UTF-8" standalone="no"?>
<!DOCTYPE svg PUBLIC "-//W3C//DTD SVG 1.1//EN"
 "http://www.w3.org/Graphics/SVG/1.1/DTD/svg11.dtd">
<!-- Generated by graphviz version 2.43.0 (0)
 -->
<!-- Title: KUKA::FRI::TransformationClient::getTimestampNanoSec Pages: 1 -->
<svg width="553pt" height="39pt"
 viewBox="0.00 0.00 553.00 39.00" xmlns="http://www.w3.org/2000/svg" xmlns:xlink="http://www.w3.org/1999/xlink">
<g id="graph0" class="graph" transform="scale(1 1) rotate(0) translate(4 35)">
<title>KUKA::FRI::TransformationClient::getTimestampNanoSec</title>
<polygon fill="white" stroke="transparent" points="-4,4 -4,-35 549,-35 549,4 -4,4"/>
<!-- Node1 -->
<g id="node1" class="node">
<title>Node1</title>
<g id="a_node1"><a xlink:title="Get the nanoseconds elapsed since the last second (in Unix time).">
<polygon fill="#bfbfbf" stroke="black" points="394,-0.5 394,-30.5 545,-30.5 545,-0.5 394,-0.5"/>
<text text-anchor="start" x="402" y="-18.5" font-family="Helvetica,sans-Serif" font-size="10.00">KUKA::FRI::Transformation</text>
<text text-anchor="middle" x="469.5" y="-7.5" font-family="Helvetica,sans-Serif" font-size="10.00">Client::getTimestampNanoSec</text>
</a>
</g>
</g>
<!-- Node2 -->
<g id="node2" class="node">
<title>Node2</title>
<g id="a_node2"><a xlink:href="class_simulated_transformation_provider_client.html#a9ffecdf8c7c5eca163cecbbbfd1db80f" target="_top" xlink:title=" ">
<polygon fill="white" stroke="black" points="197,-0.5 197,-30.5 358,-30.5 358,-0.5 197,-0.5"/>
<text text-anchor="start" x="205" y="-18.5" font-family="Helvetica,sans-Serif" font-size="10.00">SimulatedTransformationProvider</text>
<text text-anchor="middle" x="277.5" y="-7.5" font-family="Helvetica,sans-Serif" font-size="10.00">Client::updateCurrentSensorData</text>
</a>
</g>
</g>
<!-- Node1&#45;&gt;Node2 -->
<g id="edge1" class="edge">
<title>Node1&#45;&gt;Node2</title>
<path fill="none" stroke="midnightblue" d="M383.67,-15.5C375.19,-15.5 366.59,-15.5 358.16,-15.5"/>
<polygon fill="midnightblue" stroke="midnightblue" points="383.95,-19 393.95,-15.5 383.95,-12 383.95,-19"/>
</g>
<!-- Node3 -->
<g id="node3" class="node">
<title>Node3</title>
<g id="a_node3"><a xlink:href="class_simulated_transformation_provider_client.html#ad7c1847511910657aa8f95573777697d" target="_top" xlink:title="Callback which is called whenever a new FRI message arrives.">
<polygon fill="white" stroke="black" points="0,-0.5 0,-30.5 161,-30.5 161,-0.5 0,-0.5"/>
<text text-anchor="start" x="8" y="-18.5" font-family="Helvetica,sans-Serif" font-size="10.00">SimulatedTransformationProvider</text>
<text text-anchor="middle" x="80.5" y="-7.5" font-family="Helvetica,sans-Serif" font-size="10.00">Client::provide</text>
</a>
</g>
</g>
<!-- Node2&#45;&gt;Node3 -->
<g id="edge2" class="edge">
<title>Node2&#45;&gt;Node3</title>
<path fill="none" stroke="midnightblue" d="M186.88,-15.5C178.3,-15.5 169.64,-15.5 161.16,-15.5"/>
<polygon fill="midnightblue" stroke="midnightblue" points="186.9,-19 196.9,-15.5 186.9,-12 186.9,-19"/>
</g>
</g>
</svg>
