<?xml version="1.0" encoding="UTF-8" standalone="no"?>
<!DOCTYPE svg PUBLIC "-//W3C//DTD SVG 1.1//EN"
 "http://www.w3.org/Graphics/SVG/1.1/DTD/svg11.dtd">
<!-- Generated by graphviz version 2.43.0 (0)
 -->
<!-- Title: KUKA::FRI::CommandMessageEncoder::initMessage Pages: 1 -->
<svg width="1074pt" height="104pt"
 viewBox="0.00 0.00 1074.00 104.00" xmlns="http://www.w3.org/2000/svg" xmlns:xlink="http://www.w3.org/1999/xlink">
<g id="graph0" class="graph" transform="scale(1 1) rotate(0) translate(4 100)">
<title>KUKA::FRI::CommandMessageEncoder::initMessage</title>
<polygon fill="white" stroke="transparent" points="-4,4 -4,-100 1070,-100 1070,4 -4,4"/>
<!-- Node1 -->
<g id="node1" class="node">
<title>Node1</title>
<g id="a_node1"><a xlink:title=" ">
<polygon fill="#bfbfbf" stroke="black" points="0,-52 0,-82 158,-82 158,-52 0,-52"/>
<text text-anchor="start" x="8" y="-70" font-family="Helvetica,sans-Serif" font-size="10.00">KUKA::FRI::CommandMessage</text>
<text text-anchor="middle" x="79" y="-59" font-family="Helvetica,sans-Serif" font-size="10.00">Encoder::initMessage</text>
</a>
</g>
</g>
<!-- Node2 -->
<g id="node2" class="node">
<title>Node2</title>
<g id="a_node2"><a xlink:href="pb__frimessages__callbacks_8c.html#a5283f13633c8400371ab65d44d905901" target="_top" xlink:title=" ">
<polygon fill="white" stroke="black" points="194,-57.5 194,-76.5 303,-76.5 303,-57.5 194,-57.5"/>
<text text-anchor="middle" x="248.5" y="-64.5" font-family="Helvetica,sans-Serif" font-size="10.00">map_repeatedDouble</text>
</a>
</g>
</g>
<!-- Node1&#45;&gt;Node2 -->
<g id="edge1" class="edge">
<title>Node1&#45;&gt;Node2</title>
<path fill="none" stroke="midnightblue" d="M158.36,-67C166.74,-67 175.19,-67 183.38,-67"/>
<polygon fill="midnightblue" stroke="midnightblue" points="183.58,-70.5 193.58,-67 183.58,-63.5 183.58,-70.5"/>
</g>
<!-- Node3 -->
<g id="node3" class="node">
<title>Node3</title>
<g id="a_node3"><a xlink:href="pb__frimessages__callbacks_8c.html#ac9ec67cd47aed6ee622a420a41fa6540" target="_top" xlink:title=" ">
<polygon fill="white" stroke="black" points="339,-76.5 339,-95.5 461,-95.5 461,-76.5 339,-76.5"/>
<text text-anchor="middle" x="400" y="-83.5" font-family="Helvetica,sans-Serif" font-size="10.00">decode_repeatedDouble</text>
</a>
</g>
</g>
<!-- Node2&#45;&gt;Node3 -->
<g id="edge2" class="edge">
<title>Node2&#45;&gt;Node3</title>
<path fill="none" stroke="midnightblue" d="M303.05,-73.81C311.42,-74.87 320.18,-75.98 328.85,-77.08"/>
<polygon fill="midnightblue" stroke="midnightblue" points="328.61,-80.58 338.97,-78.37 329.49,-73.64 328.61,-80.58"/>
</g>
<!-- Node7 -->
<g id="node7" class="node">
<title>Node7</title>
<g id="a_node7"><a xlink:href="pb__frimessages__callbacks_8c.html#a3841575aaa517c808aeba5ab3e4f4e48" target="_top" xlink:title=" ">
<polygon fill="white" stroke="black" points="339,-38.5 339,-57.5 461,-57.5 461,-38.5 339,-38.5"/>
<text text-anchor="middle" x="400" y="-45.5" font-family="Helvetica,sans-Serif" font-size="10.00">encode_repeatedDouble</text>
</a>
</g>
</g>
<!-- Node2&#45;&gt;Node7 -->
<g id="edge6" class="edge">
<title>Node2&#45;&gt;Node7</title>
<path fill="none" stroke="midnightblue" d="M303.05,-60.19C311.42,-59.13 320.18,-58.02 328.85,-56.92"/>
<polygon fill="midnightblue" stroke="midnightblue" points="329.49,-60.36 338.97,-55.63 328.61,-53.42 329.49,-60.36"/>
</g>
<!-- Node4 -->
<g id="node4" class="node">
<title>Node4</title>
<g id="a_node4"><a xlink:href="pb__decode_8c.html#abdd5881d0bc42df1a78d46f487065681" target="_top" xlink:title=" ">
<polygon fill="white" stroke="black" points="507.5,-76.5 507.5,-95.5 608.5,-95.5 608.5,-76.5 507.5,-76.5"/>
<text text-anchor="middle" x="558" y="-83.5" font-family="Helvetica,sans-Serif" font-size="10.00">pb_decode_fixed64</text>
</a>
</g>
</g>
<!-- Node3&#45;&gt;Node4 -->
<g id="edge3" class="edge">
<title>Node3&#45;&gt;Node4</title>
<path fill="none" stroke="midnightblue" d="M461.31,-86C473.12,-86 485.49,-86 497.28,-86"/>
<polygon fill="midnightblue" stroke="midnightblue" points="497.45,-89.5 507.45,-86 497.45,-82.5 497.45,-89.5"/>
</g>
<!-- Node5 -->
<g id="node5" class="node">
<title>Node5</title>
<g id="a_node5"><a xlink:href="pb__decode_8c.html#ad54a52168427208d756087919ff82d41" target="_top" xlink:title=" ">
<polygon fill="white" stroke="black" points="680,-76.5 680,-95.5 731,-95.5 731,-76.5 680,-76.5"/>
<text text-anchor="middle" x="705.5" y="-83.5" font-family="Helvetica,sans-Serif" font-size="10.00">pb_read</text>
</a>
</g>
</g>
<!-- Node4&#45;&gt;Node5 -->
<g id="edge4" class="edge">
<title>Node4&#45;&gt;Node5</title>
<path fill="none" stroke="midnightblue" d="M608.67,-86C628.76,-86 651.48,-86 669.75,-86"/>
<polygon fill="midnightblue" stroke="midnightblue" points="669.94,-89.5 679.94,-86 669.94,-82.5 669.94,-89.5"/>
</g>
<!-- Node6 -->
<g id="node6" class="node">
<title>Node6</title>
<g id="a_node6"><a xlink:href="pb__decode_8c.html#a9746f7244f9d14b2a095ddfcad55febe" target="_top" xlink:title=" ">
<polygon fill="white" stroke="black" points="811.5,-76.5 811.5,-95.5 865.5,-95.5 865.5,-76.5 811.5,-76.5"/>
<text text-anchor="middle" x="838.5" y="-83.5" font-family="Helvetica,sans-Serif" font-size="10.00">buf_read</text>
</a>
</g>
</g>
<!-- Node5&#45;&gt;Node6 -->
<g id="edge5" class="edge">
<title>Node5&#45;&gt;Node6</title>
<path fill="none" stroke="midnightblue" d="M731.14,-86C750.85,-86 778.77,-86 801.06,-86"/>
<polygon fill="midnightblue" stroke="midnightblue" points="801.17,-89.5 811.17,-86 801.17,-82.5 801.17,-89.5"/>
</g>
<!-- Node8 -->
<g id="node8" class="node">
<title>Node8</title>
<g id="a_node8"><a xlink:href="pb__encode_8c.html#ae61c01d23aaa60452a9f5d01e9a17833" target="_top" xlink:title=" ">
<polygon fill="white" stroke="black" points="655,-38.5 655,-57.5 756,-57.5 756,-38.5 655,-38.5"/>
<text text-anchor="middle" x="705.5" y="-45.5" font-family="Helvetica,sans-Serif" font-size="10.00">pb_encode_fixed64</text>
</a>
</g>
</g>
<!-- Node7&#45;&gt;Node8 -->
<g id="edge7" class="edge">
<title>Node7&#45;&gt;Node8</title>
<path fill="none" stroke="midnightblue" d="M461.32,-48C514.48,-48 591.5,-48 644.55,-48"/>
<polygon fill="midnightblue" stroke="midnightblue" points="644.82,-51.5 654.82,-48 644.82,-44.5 644.82,-51.5"/>
</g>
<!-- Node11 -->
<g id="node11" class="node">
<title>Node11</title>
<g id="a_node11"><a xlink:href="pb__encode_8c.html#a3e0f1ac29dce37f78220ecd6b9d21cba" target="_top" xlink:title=" ">
<polygon fill="white" stroke="black" points="497,-0.5 497,-19.5 619,-19.5 619,-0.5 497,-0.5"/>
<text text-anchor="middle" x="558" y="-7.5" font-family="Helvetica,sans-Serif" font-size="10.00">pb_encode_tag_for_field</text>
</a>
</g>
</g>
<!-- Node7&#45;&gt;Node11 -->
<g id="edge10" class="edge">
<title>Node7&#45;&gt;Node11</title>
<path fill="none" stroke="midnightblue" d="M440.37,-38.41C460.95,-33.4 486.34,-27.21 508.17,-21.89"/>
<polygon fill="midnightblue" stroke="midnightblue" points="509.03,-25.29 517.92,-19.52 507.37,-18.49 509.03,-25.29"/>
</g>
<!-- Node9 -->
<g id="node9" class="node">
<title>Node9</title>
<g id="a_node9"><a xlink:href="pb__encode_8c.html#a6f8d972fa4a439724532f0bcc07de81d" target="_top" xlink:title=" ">
<polygon fill="white" stroke="black" points="921,-19.5 921,-38.5 974,-38.5 974,-19.5 921,-19.5"/>
<text text-anchor="middle" x="947.5" y="-26.5" font-family="Helvetica,sans-Serif" font-size="10.00">pb_write</text>
</a>
</g>
</g>
<!-- Node8&#45;&gt;Node9 -->
<g id="edge8" class="edge">
<title>Node8&#45;&gt;Node9</title>
<path fill="none" stroke="midnightblue" d="M756.23,-44.06C802.33,-40.41 869.8,-35.07 910.78,-31.83"/>
<polygon fill="midnightblue" stroke="midnightblue" points="911.15,-35.31 920.85,-31.03 910.6,-28.33 911.15,-35.31"/>
</g>
<!-- Node10 -->
<g id="node10" class="node">
<title>Node10</title>
<g id="a_node10"><a xlink:href="pb__encode_8c.html#aa987a466c397e7769605789cc0b22054" target="_top" xlink:title=" ">
<polygon fill="white" stroke="black" points="1010,-19.5 1010,-38.5 1066,-38.5 1066,-19.5 1010,-19.5"/>
<text text-anchor="middle" x="1038" y="-26.5" font-family="Helvetica,sans-Serif" font-size="10.00">buf_write</text>
</a>
</g>
</g>
<!-- Node9&#45;&gt;Node10 -->
<g id="edge9" class="edge">
<title>Node9&#45;&gt;Node10</title>
<path fill="none" stroke="midnightblue" d="M974.1,-29C982.08,-29 991.06,-29 999.68,-29"/>
<polygon fill="midnightblue" stroke="midnightblue" points="999.92,-32.5 1009.92,-29 999.92,-25.5 999.92,-32.5"/>
</g>
<!-- Node12 -->
<g id="node12" class="node">
<title>Node12</title>
<g id="a_node12"><a xlink:href="pb__encode_8c.html#acfbcc89e5e4355b8c263d6d4f2bc8c6f" target="_top" xlink:title=" ">
<polygon fill="white" stroke="black" points="664,-0.5 664,-19.5 747,-19.5 747,-0.5 664,-0.5"/>
<text text-anchor="middle" x="705.5" y="-7.5" font-family="Helvetica,sans-Serif" font-size="10.00">pb_encode_tag</text>
</a>
</g>
</g>
<!-- Node11&#45;&gt;Node12 -->
<g id="edge11" class="edge">
<title>Node11&#45;&gt;Node12</title>
<path fill="none" stroke="midnightblue" d="M619.02,-10C630.53,-10 642.47,-10 653.66,-10"/>
<polygon fill="midnightblue" stroke="midnightblue" points="653.68,-13.5 663.68,-10 653.68,-6.5 653.68,-13.5"/>
</g>
<!-- Node13 -->
<g id="node13" class="node">
<title>Node13</title>
<g id="a_node13"><a xlink:href="pb__encode_8c.html#a568e2eb180774ef4e07de89508edb52b" target="_top" xlink:title=" ">
<polygon fill="white" stroke="black" points="792,-0.5 792,-19.5 885,-19.5 885,-0.5 792,-0.5"/>
<text text-anchor="middle" x="838.5" y="-7.5" font-family="Helvetica,sans-Serif" font-size="10.00">pb_encode_varint</text>
</a>
</g>
</g>
<!-- Node12&#45;&gt;Node13 -->
<g id="edge12" class="edge">
<title>Node12&#45;&gt;Node13</title>
<path fill="none" stroke="midnightblue" d="M747.23,-10C758.15,-10 770.15,-10 781.73,-10"/>
<polygon fill="midnightblue" stroke="midnightblue" points="781.77,-13.5 791.77,-10 781.77,-6.5 781.77,-13.5"/>
</g>
<!-- Node13&#45;&gt;Node9 -->
<g id="edge13" class="edge">
<title>Node13&#45;&gt;Node9</title>
<path fill="none" stroke="midnightblue" d="M885.19,-18.11C893.73,-19.63 902.55,-21.2 910.75,-22.65"/>
<polygon fill="midnightblue" stroke="midnightblue" points="910.26,-26.12 920.72,-24.42 911.49,-19.23 910.26,-26.12"/>
</g>
</g>
</svg>
