<?xml version="1.0" encoding="UTF-8" standalone="no"?>
<!DOCTYPE svg PUBLIC "-//W3C//DTD SVG 1.1//EN"
 "http://www.w3.org/Graphics/SVG/1.1/DTD/svg11.dtd">
<!-- Generated by graphviz version 2.43.0 (0)
 -->
<!-- Title: SimulatedTransformationProviderClient Pages: 1 -->
<svg width="1766pt" height="556pt"
 viewBox="0.00 0.00 1766.00 556.00" xmlns="http://www.w3.org/2000/svg" xmlns:xlink="http://www.w3.org/1999/xlink">
<g id="graph0" class="graph" transform="scale(1 1) rotate(0) translate(4 552)">
<title>SimulatedTransformationProviderClient</title>
<polygon fill="white" stroke="transparent" points="-4,4 -4,-552 1762,-552 1762,4 -4,4"/>
<!-- Node1 -->
<g id="node1" class="node">
<title>Node1</title>
<g id="a_node1"><a xlink:title="Test client that sends back simulated transformations corresponding to a slight translation with chan...">
<polygon fill="#bfbfbf" stroke="black" points="1597,-279 1597,-309 1758,-309 1758,-279 1597,-279"/>
<text text-anchor="start" x="1605" y="-297" font-family="Helvetica,sans-Serif" font-size="10.00">SimulatedTransformationProvider</text>
<text text-anchor="middle" x="1677.5" y="-286" font-family="Helvetica,sans-Serif" font-size="10.00">Client</text>
</a>
</g>
</g>
<!-- Node2 -->
<g id="node2" class="node">
<title>Node2</title>
<g id="a_node2"><a xlink:href="class_k_u_k_a_1_1_f_r_i_1_1_transformation_client.html" target="_top" xlink:title="Abstract FRI transformation client.">
<polygon fill="white" stroke="black" points="1422,-279 1422,-309 1560,-309 1560,-279 1422,-279"/>
<text text-anchor="start" x="1430" y="-297" font-family="Helvetica,sans-Serif" font-size="10.00">KUKA::FRI::Transformation</text>
<text text-anchor="middle" x="1491" y="-286" font-family="Helvetica,sans-Serif" font-size="10.00">Client</text>
</a>
</g>
</g>
<!-- Node2&#45;&gt;Node1 -->
<g id="edge1" class="edge">
<title>Node2&#45;&gt;Node1</title>
<path fill="none" stroke="midnightblue" d="M1570.34,-294C1579.08,-294 1587.99,-294 1596.75,-294"/>
<polygon fill="midnightblue" stroke="midnightblue" points="1570.18,-290.5 1560.18,-294 1570.18,-297.5 1570.18,-290.5"/>
</g>
<!-- Node3 -->
<g id="node3" class="node">
<title>Node3</title>
<g id="a_node3"><a xlink:href="struct_k_u_k_a_1_1_f_r_i_1_1_client_data.html" target="_top" xlink:title=" ">
<polygon fill="white" stroke="black" points="1239,-284.5 1239,-303.5 1358,-303.5 1358,-284.5 1239,-284.5"/>
<text text-anchor="middle" x="1298.5" y="-291.5" font-family="Helvetica,sans-Serif" font-size="10.00">KUKA::FRI::ClientData</text>
</a>
</g>
</g>
<!-- Node3&#45;&gt;Node2 -->
<g id="edge2" class="edge">
<title>Node3&#45;&gt;Node2</title>
<path fill="none" stroke="#9a32cd" stroke-dasharray="5,2" d="M1368.3,-294C1385.72,-294 1404.42,-294 1421.81,-294"/>
<polygon fill="#9a32cd" stroke="#9a32cd" points="1368.21,-290.5 1358.21,-294 1368.21,-297.5 1368.21,-290.5"/>
<text text-anchor="middle" x="1390" y="-297" font-family="Helvetica,sans-Serif" font-size="10.00"> _data</text>
</g>
<!-- Node4 -->
<g id="node4" class="node">
<title>Node4</title>
<g id="a_node4"><a xlink:href="struct___f_r_i_command_message.html" target="_top" xlink:title=" ">
<polygon fill="white" stroke="black" points="729,-297.5 729,-316.5 852,-316.5 852,-297.5 729,-297.5"/>
<text text-anchor="middle" x="790.5" y="-304.5" font-family="Helvetica,sans-Serif" font-size="10.00">_FRICommandMessage</text>
</a>
</g>
</g>
<!-- Node4&#45;&gt;Node3 -->
<g id="edge3" class="edge">
<title>Node4&#45;&gt;Node3</title>
<path fill="none" stroke="#9a32cd" stroke-dasharray="5,2" d="M862.1,-305.19C962.66,-302.6 1145.31,-297.91 1238.85,-295.51"/>
<polygon fill="#9a32cd" stroke="#9a32cd" points="861.94,-301.69 852.03,-305.44 862.12,-308.69 861.94,-301.69"/>
<text text-anchor="middle" x="1086" y="-304" font-family="Helvetica,sans-Serif" font-size="10.00"> commandMsg</text>
</g>
<!-- Node24 -->
<g id="node24" class="node">
<title>Node24</title>
<g id="a_node24"><a xlink:href="class_k_u_k_a_1_1_f_r_i_1_1_command_message_encoder.html" target="_top" xlink:title=" ">
<polygon fill="white" stroke="black" points="1007,-337 1007,-367 1165,-367 1165,-337 1007,-337"/>
<text text-anchor="start" x="1015" y="-355" font-family="Helvetica,sans-Serif" font-size="10.00">KUKA::FRI::CommandMessage</text>
<text text-anchor="middle" x="1086" y="-344" font-family="Helvetica,sans-Serif" font-size="10.00">Encoder</text>
</a>
</g>
</g>
<!-- Node4&#45;&gt;Node24 -->
<g id="edge32" class="edge">
<title>Node4&#45;&gt;Node24</title>
<path fill="none" stroke="#9a32cd" stroke-dasharray="5,2" d="M862.28,-317.85C905.94,-324.55 962,-333.14 1006.95,-340.03"/>
<polygon fill="#9a32cd" stroke="#9a32cd" points="862.73,-314.38 852.31,-316.32 861.67,-321.3 862.73,-314.38"/>
<text text-anchor="middle" x="946.5" y="-339" font-family="Helvetica,sans-Serif" font-size="10.00"> m_pMessage</text>
</g>
<!-- Node5 -->
<g id="node5" class="node">
<title>Node5</title>
<g id="a_node5"><a xlink:href="struct___message_command_data.html" target="_top" xlink:title=" ">
<polygon fill="white" stroke="black" points="430,-281.5 430,-300.5 558,-300.5 558,-281.5 430,-281.5"/>
<text text-anchor="middle" x="494" y="-288.5" font-family="Helvetica,sans-Serif" font-size="10.00">_MessageCommandData</text>
</a>
</g>
</g>
<!-- Node5&#45;&gt;Node4 -->
<g id="edge4" class="edge">
<title>Node5&#45;&gt;Node4</title>
<path fill="none" stroke="#9a32cd" stroke-dasharray="5,2" d="M568.32,-290.56C601.53,-290.79 641.28,-291.65 677,-294 693.87,-295.11 712.1,-296.94 728.88,-298.89"/>
<polygon fill="#9a32cd" stroke="#9a32cd" points="568.25,-287.06 558.23,-290.51 568.22,-294.06 568.25,-287.06"/>
<text text-anchor="middle" x="627.5" y="-297" font-family="Helvetica,sans-Serif" font-size="10.00"> commandData</text>
</g>
<!-- Node6 -->
<g id="node6" class="node">
<title>Node6</title>
<g id="a_node6"><a xlink:href="struct___fri_i_o_value.html" target="_top" xlink:title=" ">
<polygon fill="white" stroke="black" points="179,-231.5 179,-250.5 247,-250.5 247,-231.5 179,-231.5"/>
<text text-anchor="middle" x="213" y="-238.5" font-family="Helvetica,sans-Serif" font-size="10.00">_FriIOValue</text>
</a>
</g>
</g>
<!-- Node6&#45;&gt;Node5 -->
<g id="edge5" class="edge">
<title>Node6&#45;&gt;Node5</title>
<path fill="none" stroke="#9a32cd" stroke-dasharray="5,2" d="M257.57,-242.39C297.62,-244.39 358.42,-249.23 410,-261 431.36,-265.87 454.76,-274.66 471.25,-281.47"/>
<polygon fill="#9a32cd" stroke="#9a32cd" points="257.5,-238.88 247.35,-241.92 257.18,-245.88 257.5,-238.88"/>
<text text-anchor="middle" x="343.5" y="-264" font-family="Helvetica,sans-Serif" font-size="10.00"> writeIORequest</text>
</g>
<!-- Node20 -->
<g id="node20" class="node">
<title>Node20</title>
<g id="a_node20"><a xlink:href="struct___message_monitor_data.html" target="_top" xlink:title=" ">
<polygon fill="white" stroke="black" points="436.5,-145.5 436.5,-164.5 551.5,-164.5 551.5,-145.5 436.5,-145.5"/>
<text text-anchor="middle" x="494" y="-152.5" font-family="Helvetica,sans-Serif" font-size="10.00">_MessageMonitorData</text>
</a>
</g>
</g>
<!-- Node6&#45;&gt;Node20 -->
<g id="edge22" class="edge">
<title>Node6&#45;&gt;Node20</title>
<path fill="none" stroke="#9a32cd" stroke-dasharray="5,2" d="M257.22,-231.98C263.84,-230.62 270.6,-229.26 277,-228 336.01,-216.37 360.38,-236.99 410,-203 422.52,-194.43 415.92,-183.18 428,-174 433.15,-170.09 439.08,-166.98 445.23,-164.51"/>
<polygon fill="#9a32cd" stroke="#9a32cd" points="256.09,-228.63 247,-234.08 257.5,-235.49 256.09,-228.63"/>
<text text-anchor="middle" x="343.5" y="-231" font-family="Helvetica,sans-Serif" font-size="10.00"> readIORequest</text>
</g>
<!-- Node7 -->
<g id="node7" class="node">
<title>Node7</title>
<g id="a_node7"><a xlink:href="struct___transformation.html" target="_top" xlink:title=" ">
<polygon fill="white" stroke="black" points="169.5,-355.5 169.5,-374.5 256.5,-374.5 256.5,-355.5 169.5,-355.5"/>
<text text-anchor="middle" x="213" y="-362.5" font-family="Helvetica,sans-Serif" font-size="10.00">_Transformation</text>
</a>
</g>
</g>
<!-- Node7&#45;&gt;Node5 -->
<g id="edge6" class="edge">
<title>Node7&#45;&gt;Node5</title>
<path fill="none" stroke="#9a32cd" stroke-dasharray="5,2" d="M266.87,-361.51C316.55,-357.42 386.63,-349.3 410,-335 421.68,-327.85 416.82,-317.91 428,-310 433.47,-306.13 439.73,-303.04 446.15,-300.58"/>
<polygon fill="#9a32cd" stroke="#9a32cd" points="266.3,-358.05 256.61,-362.32 266.85,-365.02 266.3,-358.05"/>
<text text-anchor="middle" x="343.5" y="-363" font-family="Helvetica,sans-Serif" font-size="10.00"> commandedTransformations</text>
</g>
<!-- Node19 -->
<g id="node19" class="node">
<title>Node19</title>
<g id="a_node19"><a xlink:href="struct___f_r_i_monitoring_message.html" target="_top" xlink:title=" ">
<polygon fill="white" stroke="black" points="729,-200.5 729,-219.5 852,-219.5 852,-200.5 729,-200.5"/>
<text text-anchor="middle" x="790.5" y="-207.5" font-family="Helvetica,sans-Serif" font-size="10.00">_FRIMonitoringMessage</text>
</a>
</g>
</g>
<!-- Node7&#45;&gt;Node19 -->
<g id="edge26" class="edge">
<title>Node7&#45;&gt;Node19</title>
<path fill="none" stroke="#9a32cd" stroke-dasharray="5,2" d="M266.86,-371.95C374.87,-384.93 615.84,-407.24 677,-357 701.49,-336.88 677.95,-314.72 695,-288 714.68,-257.16 750.58,-232.55 772.01,-219.72"/>
<polygon fill="#9a32cd" stroke="#9a32cd" points="267.18,-368.46 256.83,-370.73 266.33,-375.41 267.18,-368.46"/>
<text text-anchor="middle" x="494" y="-391" font-family="Helvetica,sans-Serif" font-size="10.00"> requestedTransformations</text>
</g>
<!-- Node8 -->
<g id="node8" class="node">
<title>Node8</title>
<g id="a_node8"><a xlink:href="struct___time_stamp.html" target="_top" xlink:title=" ">
<polygon fill="white" stroke="black" points="5,-233.5 5,-252.5 77,-252.5 77,-233.5 5,-233.5"/>
<text text-anchor="middle" x="41" y="-240.5" font-family="Helvetica,sans-Serif" font-size="10.00">_TimeStamp</text>
</a>
</g>
</g>
<!-- Node8&#45;&gt;Node7 -->
<g id="edge7" class="edge">
<title>Node8&#45;&gt;Node7</title>
<path fill="none" stroke="#9a32cd" stroke-dasharray="5,2" d="M58.85,-259.63C81.79,-281.6 124.82,-320.47 167,-346 172.8,-349.51 179.37,-352.69 185.67,-355.39"/>
<polygon fill="#9a32cd" stroke="#9a32cd" points="61.23,-257.06 51.61,-252.62 56.36,-262.09 61.23,-257.06"/>
<text text-anchor="middle" x="124.5" y="-337" font-family="Helvetica,sans-Serif" font-size="10.00"> timestamp</text>
</g>
<!-- Node8&#45;&gt;Node20 -->
<g id="edge21" class="edge">
<title>Node8&#45;&gt;Node20</title>
<path fill="none" stroke="#9a32cd" stroke-dasharray="5,2" d="M84.78,-230.74C108.8,-224.19 139.39,-216.39 167,-211 273.97,-190.12 303.24,-199.94 410,-178 427.58,-174.39 446.91,-169.11 462.5,-164.52"/>
<polygon fill="#9a32cd" stroke="#9a32cd" points="83.63,-227.43 74.92,-233.46 85.49,-234.18 83.63,-227.43"/>
<text text-anchor="middle" x="213" y="-214" font-family="Helvetica,sans-Serif" font-size="10.00"> timestamp</text>
</g>
<!-- Node9 -->
<g id="node9" class="node">
<title>Node9</title>
<g id="a_node9"><a xlink:href="struct___joint_values.html" target="_top" xlink:title=" ">
<polygon fill="white" stroke="black" points="177,-53.5 177,-72.5 249,-72.5 249,-53.5 177,-53.5"/>
<text text-anchor="middle" x="213" y="-60.5" font-family="Helvetica,sans-Serif" font-size="10.00">_JointValues</text>
</a>
</g>
</g>
<!-- Node9&#45;&gt;Node5 -->
<g id="edge8" class="edge">
<title>Node9&#45;&gt;Node5</title>
<path fill="none" stroke="#9a32cd" stroke-dasharray="5,2" d="M226.04,-80.98C237.45,-96.75 255.95,-119.24 277,-133 329.12,-167.06 368.31,-130.76 410,-177 434.98,-204.71 404.98,-229.63 428,-259 436.07,-269.3 448.31,-276.51 460,-281.44"/>
<polygon fill="#9a32cd" stroke="#9a32cd" points="228.77,-78.78 220.17,-72.59 223.03,-82.79 228.77,-78.78"/>
<text text-anchor="middle" x="343.5" y="-191" font-family="Helvetica,sans-Serif" font-size="10.00"> jointPosition</text>
<text text-anchor="middle" x="343.5" y="-180" font-family="Helvetica,sans-Serif" font-size="10.00">jointTorque</text>
</g>
<!-- Node9&#45;&gt;Node20 -->
<g id="edge23" class="edge">
<title>Node9&#45;&gt;Node20</title>
<path fill="none" stroke="#9a32cd" stroke-dasharray="5,2" d="M259.67,-61.18C309.95,-60.08 386.75,-61.36 410,-78 426.52,-89.82 414.29,-105.01 428,-120 438.38,-131.35 453.31,-139.75 466.25,-145.47"/>
<polygon fill="#9a32cd" stroke="#9a32cd" points="259.28,-57.69 249.37,-61.44 259.46,-64.68 259.28,-57.69"/>
<text text-anchor="middle" x="343.5" y="-125" font-family="Helvetica,sans-Serif" font-size="10.00"> commandedJointPosition</text>
<text text-anchor="middle" x="343.5" y="-114" font-family="Helvetica,sans-Serif" font-size="10.00">commandedTorque</text>
<text text-anchor="middle" x="343.5" y="-103" font-family="Helvetica,sans-Serif" font-size="10.00">externalTorque</text>
<text text-anchor="middle" x="343.5" y="-92" font-family="Helvetica,sans-Serif" font-size="10.00">measuredJointPosition</text>
<text text-anchor="middle" x="343.5" y="-81" font-family="Helvetica,sans-Serif" font-size="10.00">measuredTorque</text>
</g>
<!-- Node23 -->
<g id="node23" class="node">
<title>Node23</title>
<g id="a_node23"><a xlink:href="struct___message_ipo_data.html" target="_top" xlink:title=" ">
<polygon fill="white" stroke="black" points="446,-91.5 446,-110.5 542,-110.5 542,-91.5 446,-91.5"/>
<text text-anchor="middle" x="494" y="-98.5" font-family="Helvetica,sans-Serif" font-size="10.00">_MessageIpoData</text>
</a>
</g>
</g>
<!-- Node9&#45;&gt;Node23 -->
<g id="edge30" class="edge">
<title>Node9&#45;&gt;Node23</title>
<path fill="none" stroke="#9a32cd" stroke-dasharray="5,2" d="M249.35,-50.36C258.26,-47.73 267.89,-45.34 277,-44 335.48,-35.37 353.54,-26.48 410,-44 440.05,-53.33 468.88,-77.72 483.34,-91.38"/>
<polygon fill="#9a32cd" stroke="#9a32cd" points="248.16,-47.07 239.66,-53.4 250.25,-53.75 248.16,-47.07"/>
<text text-anchor="middle" x="343.5" y="-47" font-family="Helvetica,sans-Serif" font-size="10.00"> jointPosition</text>
</g>
<!-- Node10 -->
<g id="node10" class="node">
<title>Node10</title>
<g id="a_node10"><a xlink:href="struct__pb__callback__t.html" target="_top" xlink:title=" ">
<polygon fill="white" stroke="black" points="0,-32.5 0,-51.5 82,-51.5 82,-32.5 0,-32.5"/>
<text text-anchor="middle" x="41" y="-39.5" font-family="Helvetica,sans-Serif" font-size="10.00">_pb_callback_t</text>
</a>
</g>
</g>
<!-- Node10&#45;&gt;Node9 -->
<g id="edge9" class="edge">
<title>Node10&#45;&gt;Node9</title>
<path fill="none" stroke="#9a32cd" stroke-dasharray="5,2" d="M92.4,-48.23C119.6,-51.59 152.49,-55.65 176.9,-58.66"/>
<polygon fill="#9a32cd" stroke="#9a32cd" points="92.64,-44.73 82.29,-46.98 91.78,-51.68 92.64,-44.73"/>
<text text-anchor="middle" x="124.5" y="-58" font-family="Helvetica,sans-Serif" font-size="10.00"> value</text>
</g>
<!-- Node21 -->
<g id="node21" class="node">
<title>Node21</title>
<g id="a_node21"><a xlink:href="struct___robot_info.html" target="_top" xlink:title=" ">
<polygon fill="white" stroke="black" points="311,-0.5 311,-19.5 376,-19.5 376,-0.5 311,-0.5"/>
<text text-anchor="middle" x="343.5" y="-7.5" font-family="Helvetica,sans-Serif" font-size="10.00">_RobotInfo</text>
</a>
</g>
</g>
<!-- Node10&#45;&gt;Node21 -->
<g id="edge25" class="edge">
<title>Node10&#45;&gt;Node21</title>
<path fill="none" stroke="#9a32cd" stroke-dasharray="5,2" d="M92.31,-35.87C94.91,-35.57 97.49,-35.28 100,-35 175.5,-26.55 264.35,-17.66 310.7,-13.1"/>
<polygon fill="#9a32cd" stroke="#9a32cd" points="91.76,-32.41 82.24,-37.05 92.58,-39.37 91.76,-32.41"/>
<text text-anchor="middle" x="124.5" y="-38" font-family="Helvetica,sans-Serif" font-size="10.00"> driveState</text>
</g>
<!-- Node11 -->
<g id="node11" class="node">
<title>Node11</title>
<g id="a_node11"><a xlink:href="struct___cartesian_vector.html" target="_top" xlink:title=" ">
<polygon fill="white" stroke="black" points="167,-317.5 167,-336.5 259,-336.5 259,-317.5 167,-317.5"/>
<text text-anchor="middle" x="213" y="-324.5" font-family="Helvetica,sans-Serif" font-size="10.00">_CartesianVector</text>
</a>
</g>
</g>
<!-- Node11&#45;&gt;Node5 -->
<g id="edge10" class="edge">
<title>Node11&#45;&gt;Node5</title>
<path fill="none" stroke="#9a32cd" stroke-dasharray="5,2" d="M269.41,-321.61C308.72,-317.58 362.69,-311.64 410,-305 419.41,-303.68 429.39,-302.13 439.04,-300.55"/>
<polygon fill="#9a32cd" stroke="#9a32cd" points="268.84,-318.15 259.24,-322.64 269.54,-325.11 268.84,-318.15"/>
<text text-anchor="middle" x="343.5" y="-323" font-family="Helvetica,sans-Serif" font-size="10.00"> cartesianWrenchFeedForward</text>
</g>
<!-- Node12 -->
<g id="node12" class="node">
<title>Node12</title>
<g id="a_node12"><a xlink:href="struct___message_header.html" target="_top" xlink:title=" ">
<polygon fill="white" stroke="black" points="447.5,-230.5 447.5,-249.5 540.5,-249.5 540.5,-230.5 447.5,-230.5"/>
<text text-anchor="middle" x="494" y="-237.5" font-family="Helvetica,sans-Serif" font-size="10.00">_MessageHeader</text>
</a>
</g>
</g>
<!-- Node12&#45;&gt;Node4 -->
<g id="edge11" class="edge">
<title>Node12&#45;&gt;Node4</title>
<path fill="none" stroke="#9a32cd" stroke-dasharray="5,2" d="M550.73,-249.42C586.89,-255.85 634.94,-264.99 677,-275 704.85,-281.63 736.15,-290.66 758.65,-297.44"/>
<polygon fill="#9a32cd" stroke="#9a32cd" points="551.32,-245.97 540.86,-247.68 550.1,-252.86 551.32,-245.97"/>
<text text-anchor="middle" x="627.5" y="-278" font-family="Helvetica,sans-Serif" font-size="10.00"> header</text>
</g>
<!-- Node12&#45;&gt;Node19 -->
<g id="edge19" class="edge">
<title>Node12&#45;&gt;Node19</title>
<path fill="none" stroke="#9a32cd" stroke-dasharray="5,2" d="M550.69,-229.89C559.8,-228.44 569.15,-227.08 578,-226 628.63,-219.83 686.38,-215.65 728.73,-213.12"/>
<polygon fill="#9a32cd" stroke="#9a32cd" points="549.86,-226.48 540.55,-231.54 550.99,-233.38 549.86,-226.48"/>
<text text-anchor="middle" x="627.5" y="-229" font-family="Helvetica,sans-Serif" font-size="10.00"> header</text>
</g>
<!-- Node13 -->
<g id="node13" class="node">
<title>Node13</title>
<g id="a_node13"><a xlink:href="struct___message_end_of.html" target="_top" xlink:title=" ">
<polygon fill="white" stroke="black" points="449.5,-319.5 449.5,-338.5 538.5,-338.5 538.5,-319.5 449.5,-319.5"/>
<text text-anchor="middle" x="494" y="-326.5" font-family="Helvetica,sans-Serif" font-size="10.00">_MessageEndOf</text>
</a>
</g>
</g>
<!-- Node13&#45;&gt;Node4 -->
<g id="edge12" class="edge">
<title>Node13&#45;&gt;Node4</title>
<path fill="none" stroke="#9a32cd" stroke-dasharray="5,2" d="M548.8,-336.43C558.5,-337.5 568.54,-338.43 578,-339 621.92,-341.64 633.42,-345.08 677,-339 707.37,-334.76 741.05,-324.39 763.57,-316.6"/>
<polygon fill="#9a32cd" stroke="#9a32cd" points="549.18,-332.96 538.85,-335.28 548.38,-339.91 549.18,-332.96"/>
<text text-anchor="middle" x="627.5" y="-345" font-family="Helvetica,sans-Serif" font-size="10.00"> endOfMessageData</text>
</g>
<!-- Node13&#45;&gt;Node19 -->
<g id="edge28" class="edge">
<title>Node13&#45;&gt;Node19</title>
<path fill="none" stroke="#9a32cd" stroke-dasharray="5,2" d="M548.63,-325.58C593.96,-322.03 654.93,-315.5 677,-305 686.94,-300.27 686.75,-295.28 695,-288 723.86,-262.51 759.15,-234.07 777.35,-219.6"/>
<polygon fill="#9a32cd" stroke="#9a32cd" points="548.35,-322.1 538.64,-326.34 548.88,-329.08 548.35,-322.1"/>
<text text-anchor="middle" x="627.5" y="-325" font-family="Helvetica,sans-Serif" font-size="10.00"> endOfMessageData</text>
</g>
<!-- Node14 -->
<g id="node14" class="node">
<title>Node14</title>
<g id="a_node14"><a xlink:href="struct___checksum.html" target="_top" xlink:title=" ">
<polygon fill="white" stroke="black" points="178.5,-279.5 178.5,-298.5 247.5,-298.5 247.5,-279.5 178.5,-279.5"/>
<text text-anchor="middle" x="213" y="-286.5" font-family="Helvetica,sans-Serif" font-size="10.00">_Checksum</text>
</a>
</g>
</g>
<!-- Node14&#45;&gt;Node13 -->
<g id="edge13" class="edge">
<title>Node14&#45;&gt;Node13</title>
<path fill="none" stroke="#9a32cd" stroke-dasharray="5,2" d="M257.77,-280.57C298.82,-274.73 361.03,-271.27 410,-292 420.42,-296.41 418.27,-304.23 428,-310 434.57,-313.9 442,-317.04 449.42,-319.56"/>
<polygon fill="#9a32cd" stroke="#9a32cd" points="257.17,-277.12 247.81,-282.1 258.23,-284.04 257.17,-277.12"/>
<text text-anchor="middle" x="343.5" y="-295" font-family="Helvetica,sans-Serif" font-size="10.00"> messageChecksum</text>
</g>
<!-- Node15 -->
<g id="node15" class="node">
<title>Node15</title>
<g id="a_node15"><a xlink:href="class_k_u_k_a_1_1_f_r_i_1_1_monitoring_message_decoder.html" target="_top" xlink:title=" ">
<polygon fill="white" stroke="black" points="1007,-240 1007,-270 1165,-270 1165,-240 1007,-240"/>
<text text-anchor="start" x="1015" y="-258" font-family="Helvetica,sans-Serif" font-size="10.00">KUKA::FRI::MonitoringMessage</text>
<text text-anchor="middle" x="1086" y="-247" font-family="Helvetica,sans-Serif" font-size="10.00">Decoder</text>
</a>
</g>
</g>
<!-- Node15&#45;&gt;Node3 -->
<g id="edge14" class="edge">
<title>Node15&#45;&gt;Node3</title>
<path fill="none" stroke="#9a32cd" stroke-dasharray="5,2" d="M1175,-271.3C1199.2,-275.79 1224.65,-280.5 1246.05,-284.47"/>
<polygon fill="#9a32cd" stroke="#9a32cd" points="1175.55,-267.85 1165.08,-269.47 1174.28,-274.73 1175.55,-267.85"/>
<text text-anchor="middle" x="1202" y="-282" font-family="Helvetica,sans-Serif" font-size="10.00"> decoder</text>
</g>
<!-- Node16 -->
<g id="node16" class="node">
<title>Node16</title>
<g id="a_node16"><a xlink:href="struct_k_u_k_a_1_1_f_r_i_1_1_monitoring_message_decoder_1_1_local_monitoring_data_container.html" target="_top" xlink:title=" ">
<polygon fill="white" stroke="black" points="695,-408 695,-438 886,-438 886,-408 695,-408"/>
<text text-anchor="start" x="703" y="-426" font-family="Helvetica,sans-Serif" font-size="10.00">KUKA::FRI::MonitoringMessage</text>
<text text-anchor="middle" x="790.5" y="-415" font-family="Helvetica,sans-Serif" font-size="10.00">Decoder::LocalMonitoringDataContainer</text>
</a>
</g>
</g>
<!-- Node16&#45;&gt;Node15 -->
<g id="edge15" class="edge">
<title>Node16&#45;&gt;Node15</title>
<path fill="none" stroke="#9a32cd" stroke-dasharray="5,2" d="M895.66,-404.97C929.47,-394.38 964.54,-377.58 989,-351 1009.59,-328.62 986.61,-307.56 1007,-285 1012.55,-278.86 1019.49,-273.97 1026.93,-270.08"/>
<polygon fill="#9a32cd" stroke="#9a32cd" points="894.28,-401.73 885.69,-407.93 896.27,-408.44 894.28,-401.73"/>
<text text-anchor="middle" x="946.5" y="-403" font-family="Helvetica,sans-Serif" font-size="10.00"> m_tSendContainer</text>
</g>
<!-- Node17 -->
<g id="node17" class="node">
<title>Node17</title>
<g id="a_node17"><a xlink:href="structrepeated_double_arguments.html" target="_top" xlink:title=" ">
<polygon fill="white" stroke="black" points="428,-493.5 428,-512.5 560,-512.5 560,-493.5 428,-493.5"/>
<text text-anchor="middle" x="494" y="-500.5" font-family="Helvetica,sans-Serif" font-size="10.00">repeatedDoubleArguments</text>
</a>
</g>
</g>
<!-- Node17&#45;&gt;Node16 -->
<g id="edge16" class="edge">
<title>Node17&#45;&gt;Node16</title>
<path fill="none" stroke="#9a32cd" stroke-dasharray="5,2" d="M515.9,-487.55C532.04,-476.41 555.37,-461.99 578,-454 599.52,-446.4 649.19,-438.95 694.98,-433.25"/>
<polygon fill="#9a32cd" stroke="#9a32cd" points="513.87,-484.7 507.73,-493.33 517.91,-490.41 513.87,-484.7"/>
<text text-anchor="middle" x="627.5" y="-512" font-family="Helvetica,sans-Serif" font-size="10.00"> m_AxQCmdIPO</text>
<text text-anchor="middle" x="627.5" y="-501" font-family="Helvetica,sans-Serif" font-size="10.00">m_AxQCmdT1mLocal</text>
<text text-anchor="middle" x="627.5" y="-490" font-family="Helvetica,sans-Serif" font-size="10.00">m_AxQMsrLocal</text>
<text text-anchor="middle" x="627.5" y="-479" font-family="Helvetica,sans-Serif" font-size="10.00">m_AxTauCmdLocal</text>
<text text-anchor="middle" x="627.5" y="-468" font-family="Helvetica,sans-Serif" font-size="10.00">m_AxTauExtMsrLocal</text>
<text text-anchor="middle" x="627.5" y="-457" font-family="Helvetica,sans-Serif" font-size="10.00">m_AxTauMsrLocal</text>
</g>
<!-- Node25 -->
<g id="node25" class="node">
<title>Node25</title>
<g id="a_node25"><a xlink:href="struct_k_u_k_a_1_1_f_r_i_1_1_command_message_encoder_1_1_local_command_data_container.html" target="_top" xlink:title=" ">
<polygon fill="white" stroke="black" points="695.5,-494 695.5,-524 885.5,-524 885.5,-494 695.5,-494"/>
<text text-anchor="start" x="703.5" y="-512" font-family="Helvetica,sans-Serif" font-size="10.00">KUKA::FRI::CommandMessage</text>
<text text-anchor="middle" x="790.5" y="-501" font-family="Helvetica,sans-Serif" font-size="10.00">Encoder::LocalCommandDataContainer</text>
</a>
</g>
</g>
<!-- Node17&#45;&gt;Node25 -->
<g id="edge34" class="edge">
<title>Node17&#45;&gt;Node25</title>
<path fill="none" stroke="#9a32cd" stroke-dasharray="5,2" d="M534.97,-515.24C548.49,-518.81 563.78,-522.23 578,-524 616.26,-528.77 658.63,-527.12 695.32,-523.51"/>
<polygon fill="#9a32cd" stroke="#9a32cd" points="535.58,-511.78 525.01,-512.51 533.73,-518.53 535.58,-511.78"/>
<text text-anchor="middle" x="627.5" y="-540" font-family="Helvetica,sans-Serif" font-size="10.00"> jointPosition</text>
<text text-anchor="middle" x="627.5" y="-529" font-family="Helvetica,sans-Serif" font-size="10.00">jointTorque</text>
</g>
<!-- Node18 -->
<g id="node18" class="node">
<title>Node18</title>
<g id="a_node18"><a xlink:href="structrepeated_int_arguments.html" target="_top" xlink:title=" ">
<polygon fill="white" stroke="black" points="437.5,-416.5 437.5,-435.5 550.5,-435.5 550.5,-416.5 437.5,-416.5"/>
<text text-anchor="middle" x="494" y="-423.5" font-family="Helvetica,sans-Serif" font-size="10.00">repeatedIntArguments</text>
</a>
</g>
</g>
<!-- Node18&#45;&gt;Node16 -->
<g id="edge17" class="edge">
<title>Node18&#45;&gt;Node16</title>
<path fill="none" stroke="#9a32cd" stroke-dasharray="5,2" d="M561.09,-424.29C566.81,-424.18 572.51,-424.08 578,-424 616.18,-423.45 658.25,-423.18 694.74,-423.06"/>
<polygon fill="#9a32cd" stroke="#9a32cd" points="560.73,-420.8 550.81,-424.51 560.88,-427.8 560.73,-420.8"/>
<text text-anchor="middle" x="627.5" y="-427" font-family="Helvetica,sans-Serif" font-size="10.00"> m_AxDriveStateLocal</text>
</g>
<!-- Node19&#45;&gt;Node3 -->
<g id="edge35" class="edge">
<title>Node19&#45;&gt;Node3</title>
<path fill="none" stroke="#9a32cd" stroke-dasharray="5,2" d="M862.28,-201.99C938.51,-195.63 1062.63,-191.88 1165,-220 1213.27,-233.26 1262.88,-267.6 1285.25,-284.42"/>
<polygon fill="#9a32cd" stroke="#9a32cd" points="861.97,-198.5 852.31,-202.86 862.58,-205.48 861.97,-198.5"/>
<text text-anchor="middle" x="1086" y="-223" font-family="Helvetica,sans-Serif" font-size="10.00"> monitoringMsg</text>
</g>
<!-- Node19&#45;&gt;Node15 -->
<g id="edge18" class="edge">
<title>Node19&#45;&gt;Node15</title>
<path fill="none" stroke="#9a32cd" stroke-dasharray="5,2" d="M862.28,-220.85C905.94,-227.55 962,-236.14 1006.95,-243.03"/>
<polygon fill="#9a32cd" stroke="#9a32cd" points="862.73,-217.38 852.31,-219.32 861.67,-224.3 862.73,-217.38"/>
<text text-anchor="middle" x="946.5" y="-242" font-family="Helvetica,sans-Serif" font-size="10.00"> m_pMessage</text>
</g>
<!-- Node20&#45;&gt;Node19 -->
<g id="edge20" class="edge">
<title>Node20&#45;&gt;Node19</title>
<path fill="none" stroke="#9a32cd" stroke-dasharray="5,2" d="M561.61,-159.23C596.27,-162.21 639.19,-167.12 677,-175 707.24,-181.3 740.94,-192.35 763.51,-200.35"/>
<polygon fill="#9a32cd" stroke="#9a32cd" points="561.86,-155.74 551.6,-158.41 561.28,-162.72 561.86,-155.74"/>
<text text-anchor="middle" x="627.5" y="-178" font-family="Helvetica,sans-Serif" font-size="10.00"> monitorData</text>
</g>
<!-- Node21&#45;&gt;Node19 -->
<g id="edge24" class="edge">
<title>Node21&#45;&gt;Node19</title>
<path fill="none" stroke="#9a32cd" stroke-dasharray="5,2" d="M386.17,-16.63C451.66,-28.37 581.12,-57.07 677,-113 720.44,-138.34 762.97,-181.36 780.78,-200.42"/>
<polygon fill="#9a32cd" stroke="#9a32cd" points="386.67,-13.16 376.22,-14.88 385.46,-20.06 386.67,-13.16"/>
<text text-anchor="middle" x="494" y="-64" font-family="Helvetica,sans-Serif" font-size="10.00"> robotInfo</text>
</g>
<!-- Node22 -->
<g id="node22" class="node">
<title>Node22</title>
<g id="a_node22"><a xlink:href="struct___connection_info.html" target="_top" xlink:title=" ">
<polygon fill="white" stroke="black" points="450,-183.5 450,-202.5 538,-202.5 538,-183.5 450,-183.5"/>
<text text-anchor="middle" x="494" y="-190.5" font-family="Helvetica,sans-Serif" font-size="10.00">_ConnectionInfo</text>
</a>
</g>
</g>
<!-- Node22&#45;&gt;Node19 -->
<g id="edge27" class="edge">
<title>Node22&#45;&gt;Node19</title>
<path fill="none" stroke="#9a32cd" stroke-dasharray="5,2" d="M548.22,-192.26C558.12,-192.15 568.37,-192.06 578,-192 622,-191.73 633.14,-188.51 677,-192 698,-193.67 721,-197.06 740.7,-200.46"/>
<polygon fill="#9a32cd" stroke="#9a32cd" points="548.04,-188.77 538.08,-192.38 548.12,-195.77 548.04,-188.77"/>
<text text-anchor="middle" x="627.5" y="-195" font-family="Helvetica,sans-Serif" font-size="10.00"> connectionInfo</text>
</g>
<!-- Node23&#45;&gt;Node19 -->
<g id="edge29" class="edge">
<title>Node23&#45;&gt;Node19</title>
<path fill="none" stroke="#9a32cd" stroke-dasharray="5,2" d="M552.08,-110.92C588.59,-118.27 636.52,-129.84 677,-146 714.56,-161 754.92,-186.54 775.57,-200.39"/>
<polygon fill="#9a32cd" stroke="#9a32cd" points="552.59,-107.45 542.1,-108.95 551.24,-114.32 552.59,-107.45"/>
<text text-anchor="middle" x="627.5" y="-149" font-family="Helvetica,sans-Serif" font-size="10.00"> ipoData</text>
</g>
<!-- Node24&#45;&gt;Node3 -->
<g id="edge31" class="edge">
<title>Node24&#45;&gt;Node3</title>
<path fill="none" stroke="#9a32cd" stroke-dasharray="5,2" d="M1168.77,-334.62C1186.1,-330.51 1204.23,-325.88 1221,-321 1238.44,-315.92 1257.73,-309.1 1272.58,-303.59"/>
<polygon fill="#9a32cd" stroke="#9a32cd" points="1167.61,-331.3 1158.67,-336.98 1169.2,-338.11 1167.61,-331.3"/>
<text text-anchor="middle" x="1202" y="-333" font-family="Helvetica,sans-Serif" font-size="10.00"> encoder</text>
</g>
<!-- Node25&#45;&gt;Node24 -->
<g id="edge33" class="edge">
<title>Node25&#45;&gt;Node24</title>
<path fill="none" stroke="#9a32cd" stroke-dasharray="5,2" d="M841.92,-490.28C882.71,-474.31 941.06,-449.61 989,-422 1017.6,-405.53 1047.95,-382.3 1066.69,-367.2"/>
<polygon fill="#9a32cd" stroke="#9a32cd" points="840.52,-487.07 832.46,-493.95 843.05,-493.59 840.52,-487.07"/>
<text text-anchor="middle" x="946.5" y="-467" font-family="Helvetica,sans-Serif" font-size="10.00"> m_tRecvContainer</text>
</g>
</g>
</svg>
