<?xml version="1.0" encoding="UTF-8" standalone="no"?>
<!DOCTYPE svg PUBLIC "-//W3C//DTD SVG 1.1//EN"
 "http://www.w3.org/Graphics/SVG/1.1/DTD/svg11.dtd">
<!-- Generated by graphviz version 2.43.0 (0)
 -->
<!-- Title: KUKA::FRI::LBRState Pages: 1 -->
<!--zoomable 300 -->
<svg id="main" version="1.1" xmlns="http://www.w3.org/2000/svg" xmlns:xlink="http://www.w3.org/1999/xlink" xml:space="preserve" onload="init(evt)">
<style type="text/css"><![CDATA[
.edge:hover path { stroke: red; }
.edge:hover polygon { stroke: red; fill: red; }
]]></style>
<script type="text/javascript"><![CDATA[
var edges = document.getElementsByTagName('g');
if (edges && edges.length) {
  for (var i=0;i<edges.length;i++) {
    if (edges[i].id.substr(0,4)=='edge') {
      edges[i].setAttribute('class','edge');
    }
  }
}
]]></script>
        <defs>
                <circle id="rim" cx="0" cy="0" r="7"/>
                <circle id="rim2" cx="0" cy="0" r="3.5"/>
                <g id="zoomPlus">
                        <use xlink:href="#rim" fill="#404040">
                                <set attributeName="fill" to="#808080" begin="zoomplus.mouseover" end="zoomplus.mouseout"/>
                        </use>
                        <path d="M-4,0h8M0,-4v8" fill="none" stroke="white" stroke-width="1.5" pointer-events="none"/>
                </g>
                <g id="zoomMin">
                        <use xlink:href="#rim" fill="#404040">
                                <set attributeName="fill" to="#808080" begin="zoomminus.mouseover" end="zoomminus.mouseout"/>
                        </use>
                        <path d="M-4,0h8" fill="none" stroke="white" stroke-width="1.5" pointer-events="none"/>
                </g>
                <g id="dirArrow">
                        <path fill="none" stroke="white" stroke-width="1.5" d="M0,-3.0v7 M-2.5,-0.5L0,-3.0L2.5,-0.5"/>
                </g>
               <g id="resetDef">
                       <use xlink:href="#rim2" fill="#404040">
                               <set attributeName="fill" to="#808080" begin="reset.mouseover" end="reset.mouseout"/>
                       </use>
               </g>
        </defs>

<script type="text/javascript">
var viewWidth = 987;
var viewHeight = 300;
var sectionId = 'dynsection-0';
</script>
<script xlink:href="svgpan.js"/>
<svg id="graph" class="graph">
<g id="viewport">
<title>KUKA::FRI::LBRState</title>
<polygon fill="white" stroke="transparent" points="-4,4 -4,-296 983,-296 983,4 -4,4"/>
<!-- Node1 -->
<g id="node1" class="node">
<title>Node1</title>
<g id="a_node1"><a xlink:title="Wrapper class for the FRI monitoring message for a KUKA LBR (leightweight) robot.">
<polygon fill="#bfbfbf" stroke="black" points="863,-123.5 863,-142.5 979,-142.5 979,-123.5 863,-123.5"/>
<text text-anchor="middle" x="921" y="-130.5" font-family="Helvetica,sans-Serif" font-size="10.00">KUKA::FRI::LBRState</text>
</a>
</g>
</g>
<!-- Node2 -->
<g id="node2" class="node">
<title>Node2</title>
<g id="a_node2"><a xlink:href="struct___f_r_i_monitoring_message.html" target="_top" xlink:title=" ">
<polygon fill="white" stroke="black" points="655,-123.5 655,-142.5 778,-142.5 778,-123.5 655,-123.5"/>
<text text-anchor="middle" x="716.5" y="-130.5" font-family="Helvetica,sans-Serif" font-size="10.00">_FRIMonitoringMessage</text>
</a>
</g>
</g>
<!-- Node2&#45;&gt;Node1 -->
<g id="edge1" class="edge">
<title>Node2&#45;&gt;Node1</title>
<path fill="none" stroke="#9a32cd" stroke-dasharray="5,2" d="M788.5,-133C812.81,-133 839.67,-133 862.75,-133"/>
<polygon fill="#9a32cd" stroke="#9a32cd" points="788.26,-129.5 778.26,-133 788.26,-136.5 788.26,-129.5"/>
<text text-anchor="middle" x="820.5" y="-136" font-family="Helvetica,sans-Serif" font-size="10.00"> _message</text>
</g>
<!-- Node3 -->
<g id="node3" class="node">
<title>Node3</title>
<g id="a_node3"><a xlink:href="struct___message_header.html" target="_top" xlink:title=" ">
<polygon fill="white" stroke="black" points="398,-237.5 398,-256.5 491,-256.5 491,-237.5 398,-237.5"/>
<text text-anchor="middle" x="444.5" y="-244.5" font-family="Helvetica,sans-Serif" font-size="10.00">_MessageHeader</text>
</a>
</g>
</g>
<!-- Node3&#45;&gt;Node2 -->
<g id="edge2" class="edge">
<title>Node3&#45;&gt;Node2</title>
<path fill="none" stroke="#9a32cd" stroke-dasharray="5,2" d="M501.13,-247.31C541.04,-245.39 594.97,-238.25 637,-216 670.66,-198.18 697.98,-160.4 709.54,-142.63"/>
<polygon fill="#9a32cd" stroke="#9a32cd" points="500.9,-243.82 491.04,-247.7 501.17,-250.81 500.9,-243.82"/>
<text text-anchor="middle" x="578.5" y="-248" font-family="Helvetica,sans-Serif" font-size="10.00"> header</text>
</g>
<!-- Node4 -->
<g id="node4" class="node">
<title>Node4</title>
<g id="a_node4"><a xlink:href="struct___message_monitor_data.html" target="_top" xlink:title=" ">
<polygon fill="white" stroke="black" points="387,-161.5 387,-180.5 502,-180.5 502,-161.5 387,-161.5"/>
<text text-anchor="middle" x="444.5" y="-168.5" font-family="Helvetica,sans-Serif" font-size="10.00">_MessageMonitorData</text>
</a>
</g>
</g>
<!-- Node4&#45;&gt;Node2 -->
<g id="edge3" class="edge">
<title>Node4&#45;&gt;Node2</title>
<path fill="none" stroke="#9a32cd" stroke-dasharray="5,2" d="M512.29,-163.49C549.13,-159.13 595.67,-153.27 637,-147 645.76,-145.67 655.05,-144.13 664.05,-142.57"/>
<polygon fill="#9a32cd" stroke="#9a32cd" points="511.69,-160.04 502.17,-164.68 512.51,-166.99 511.69,-160.04"/>
<text text-anchor="middle" x="578.5" y="-165" font-family="Helvetica,sans-Serif" font-size="10.00"> monitorData</text>
</g>
<!-- Node5 -->
<g id="node5" class="node">
<title>Node5</title>
<g id="a_node5"><a xlink:href="struct___time_stamp.html" target="_top" xlink:title=" ">
<polygon fill="white" stroke="black" points="166,-259.5 166,-278.5 238,-278.5 238,-259.5 166,-259.5"/>
<text text-anchor="middle" x="202" y="-266.5" font-family="Helvetica,sans-Serif" font-size="10.00">_TimeStamp</text>
</a>
</g>
</g>
<!-- Node5&#45;&gt;Node4 -->
<g id="edge4" class="edge">
<title>Node5&#45;&gt;Node4</title>
<path fill="none" stroke="#9a32cd" stroke-dasharray="5,2" d="M235.47,-255.86C242.19,-253.39 249.28,-250.97 256,-249 305.27,-234.56 328.21,-256.18 369,-225 382.9,-214.38 373.74,-201.4 387,-190 391.47,-186.15 396.76,-183.08 402.26,-180.62"/>
<polygon fill="#9a32cd" stroke="#9a32cd" points="234.07,-252.65 225.96,-259.47 236.55,-259.19 234.07,-252.65"/>
<text text-anchor="middle" x="312.5" y="-252" font-family="Helvetica,sans-Serif" font-size="10.00"> timestamp</text>
</g>
<!-- Node10 -->
<g id="node10" class="node">
<title>Node10</title>
<g id="a_node10"><a xlink:href="struct___transformation.html" target="_top" xlink:title=" ">
<polygon fill="white" stroke="black" points="401,-199.5 401,-218.5 488,-218.5 488,-199.5 401,-199.5"/>
<text text-anchor="middle" x="444.5" y="-206.5" font-family="Helvetica,sans-Serif" font-size="10.00">_Transformation</text>
</a>
</g>
</g>
<!-- Node5&#45;&gt;Node10 -->
<g id="edge11" class="edge">
<title>Node5&#45;&gt;Node10</title>
<path fill="none" stroke="#9a32cd" stroke-dasharray="5,2" d="M248.16,-278.58C283.74,-283.58 333.15,-284.63 369,-262 383.46,-252.87 373.97,-239.07 387,-228 391.57,-224.11 396.98,-221.01 402.6,-218.54"/>
<polygon fill="#9a32cd" stroke="#9a32cd" points="248.48,-275.09 238.06,-277.01 247.4,-282.01 248.48,-275.09"/>
<text text-anchor="middle" x="312.5" y="-284" font-family="Helvetica,sans-Serif" font-size="10.00"> timestamp</text>
</g>
<!-- Node6 -->
<g id="node6" class="node">
<title>Node6</title>
<g id="a_node6"><a xlink:href="struct___fri_i_o_value.html" target="_top" xlink:title=" ">
<polygon fill="white" stroke="black" points="168,-206.5 168,-225.5 236,-225.5 236,-206.5 168,-206.5"/>
<text text-anchor="middle" x="202" y="-213.5" font-family="Helvetica,sans-Serif" font-size="10.00">_FriIOValue</text>
</a>
</g>
</g>
<!-- Node6&#45;&gt;Node4 -->
<g id="edge5" class="edge">
<title>Node6&#45;&gt;Node4</title>
<path fill="none" stroke="#9a32cd" stroke-dasharray="5,2" d="M246.02,-212.3C279.74,-208.91 327.69,-203.05 369,-194 385,-190.5 402.52,-185.17 416.55,-180.52"/>
<polygon fill="#9a32cd" stroke="#9a32cd" points="245.65,-208.82 236.04,-213.27 246.33,-215.78 245.65,-208.82"/>
<text text-anchor="middle" x="312.5" y="-213" font-family="Helvetica,sans-Serif" font-size="10.00"> readIORequest</text>
</g>
<!-- Node7 -->
<g id="node7" class="node">
<title>Node7</title>
<g id="a_node7"><a xlink:href="struct___joint_values.html" target="_top" xlink:title=" ">
<polygon fill="white" stroke="black" points="166,-99.5 166,-118.5 238,-118.5 238,-99.5 166,-99.5"/>
<text text-anchor="middle" x="202" y="-106.5" font-family="Helvetica,sans-Serif" font-size="10.00">_JointValues</text>
</a>
</g>
</g>
<!-- Node7&#45;&gt;Node4 -->
<g id="edge6" class="edge">
<title>Node7&#45;&gt;Node4</title>
<path fill="none" stroke="#9a32cd" stroke-dasharray="5,2" d="M248.25,-115.41C295.52,-122.21 363.57,-132.34 369,-135 378.88,-139.85 377.57,-146.34 387,-152 393.3,-155.78 400.45,-158.93 407.5,-161.5"/>
<polygon fill="#9a32cd" stroke="#9a32cd" points="248.61,-111.93 238.22,-113.97 247.62,-118.86 248.61,-111.93"/>
<text text-anchor="middle" x="312.5" y="-182" font-family="Helvetica,sans-Serif" font-size="10.00"> commandedJointPosition</text>
<text text-anchor="middle" x="312.5" y="-171" font-family="Helvetica,sans-Serif" font-size="10.00">commandedTorque</text>
<text text-anchor="middle" x="312.5" y="-160" font-family="Helvetica,sans-Serif" font-size="10.00">externalTorque</text>
<text text-anchor="middle" x="312.5" y="-149" font-family="Helvetica,sans-Serif" font-size="10.00">measuredJointPosition</text>
<text text-anchor="middle" x="312.5" y="-138" font-family="Helvetica,sans-Serif" font-size="10.00">measuredTorque</text>
</g>
<!-- Node14 -->
<g id="node14" class="node">
<title>Node14</title>
<g id="a_node14"><a xlink:href="struct___message_ipo_data.html" target="_top" xlink:title=" ">
<polygon fill="white" stroke="black" points="396.5,-123.5 396.5,-142.5 492.5,-142.5 492.5,-123.5 396.5,-123.5"/>
<text text-anchor="middle" x="444.5" y="-130.5" font-family="Helvetica,sans-Serif" font-size="10.00">_MessageIpoData</text>
</a>
</g>
</g>
<!-- Node7&#45;&gt;Node14 -->
<g id="edge16" class="edge">
<title>Node7&#45;&gt;Node14</title>
<path fill="none" stroke="#9a32cd" stroke-dasharray="5,2" d="M248.28,-102.99C281.87,-99.72 328.64,-97.67 369,-105 388.3,-108.51 409.12,-116.74 423.82,-123.37"/>
<polygon fill="#9a32cd" stroke="#9a32cd" points="247.88,-99.51 238.3,-104.04 248.61,-106.48 247.88,-99.51"/>
<text text-anchor="middle" x="312.5" y="-108" font-family="Helvetica,sans-Serif" font-size="10.00"> jointPosition</text>
</g>
<!-- Node8 -->
<g id="node8" class="node">
<title>Node8</title>
<g id="a_node8"><a xlink:href="struct__pb__callback__t.html" target="_top" xlink:title=" ">
<polygon fill="white" stroke="black" points="0,-78.5 0,-97.5 82,-97.5 82,-78.5 0,-78.5"/>
<text text-anchor="middle" x="41" y="-85.5" font-family="Helvetica,sans-Serif" font-size="10.00">_pb_callback_t</text>
</a>
</g>
</g>
<!-- Node8&#45;&gt;Node7 -->
<g id="edge7" class="edge">
<title>Node8&#45;&gt;Node7</title>
<path fill="none" stroke="#9a32cd" stroke-dasharray="5,2" d="M92.1,-94.62C116.03,-97.78 144.11,-101.49 165.76,-104.35"/>
<polygon fill="#9a32cd" stroke="#9a32cd" points="92.49,-91.14 82.12,-93.3 91.58,-98.08 92.49,-91.14"/>
<text text-anchor="middle" x="124" y="-104" font-family="Helvetica,sans-Serif" font-size="10.00"> value</text>
</g>
<!-- Node9 -->
<g id="node9" class="node">
<title>Node9</title>
<g id="a_node9"><a xlink:href="struct___robot_info.html" target="_top" xlink:title=" ">
<polygon fill="white" stroke="black" points="280,-61.5 280,-80.5 345,-80.5 345,-61.5 280,-61.5"/>
<text text-anchor="middle" x="312.5" y="-68.5" font-family="Helvetica,sans-Serif" font-size="10.00">_RobotInfo</text>
</a>
</g>
</g>
<!-- Node8&#45;&gt;Node9 -->
<g id="edge9" class="edge">
<title>Node8&#45;&gt;Node9</title>
<path fill="none" stroke="#9a32cd" stroke-dasharray="5,2" d="M92.3,-81.7C94.9,-81.45 97.48,-81.21 100,-81 163.74,-75.65 238.54,-72.96 279.92,-71.78"/>
<polygon fill="#9a32cd" stroke="#9a32cd" points="91.79,-78.24 82.21,-82.76 92.52,-85.2 91.79,-78.24"/>
<text text-anchor="middle" x="124" y="-84" font-family="Helvetica,sans-Serif" font-size="10.00"> driveState</text>
</g>
<!-- Node9&#45;&gt;Node2 -->
<g id="edge8" class="edge">
<title>Node9&#45;&gt;Node2</title>
<path fill="none" stroke="#9a32cd" stroke-dasharray="5,2" d="M355,-77.4C426.28,-88.39 572.25,-110.91 654.92,-123.66"/>
<polygon fill="#9a32cd" stroke="#9a32cd" points="355.46,-73.93 345.04,-75.87 354.39,-80.85 355.46,-73.93"/>
<text text-anchor="middle" x="444.5" y="-102" font-family="Helvetica,sans-Serif" font-size="10.00"> robotInfo</text>
</g>
<!-- Node10&#45;&gt;Node2 -->
<g id="edge10" class="edge">
<title>Node10&#45;&gt;Node2</title>
<path fill="none" stroke="#9a32cd" stroke-dasharray="5,2" d="M498.13,-205.13C537.3,-201.08 591.61,-192.97 637,-177 661.17,-168.5 686.59,-152.83 701.74,-142.67"/>
<polygon fill="#9a32cd" stroke="#9a32cd" points="497.62,-201.66 488.01,-206.12 498.3,-208.63 497.62,-201.66"/>
<text text-anchor="middle" x="578.5" y="-204" font-family="Helvetica,sans-Serif" font-size="10.00"> requestedTransformations</text>
</g>
<!-- Node11 -->
<g id="node11" class="node">
<title>Node11</title>
<g id="a_node11"><a xlink:href="struct___connection_info.html" target="_top" xlink:title=" ">
<polygon fill="white" stroke="black" points="400.5,-38.5 400.5,-57.5 488.5,-57.5 488.5,-38.5 400.5,-38.5"/>
<text text-anchor="middle" x="444.5" y="-45.5" font-family="Helvetica,sans-Serif" font-size="10.00">_ConnectionInfo</text>
</a>
</g>
</g>
<!-- Node11&#45;&gt;Node2 -->
<g id="edge12" class="edge">
<title>Node11&#45;&gt;Node2</title>
<path fill="none" stroke="#9a32cd" stroke-dasharray="5,2" d="M498.92,-45.87C538.5,-46.15 592.96,-50.56 637,-69 666.52,-81.36 693.74,-108.49 707.01,-123.15"/>
<polygon fill="#9a32cd" stroke="#9a32cd" points="498.68,-42.37 488.69,-45.88 498.69,-49.37 498.68,-42.37"/>
<text text-anchor="middle" x="578.5" y="-72" font-family="Helvetica,sans-Serif" font-size="10.00"> connectionInfo</text>
</g>
<!-- Node12 -->
<g id="node12" class="node">
<title>Node12</title>
<g id="a_node12"><a xlink:href="struct___message_end_of.html" target="_top" xlink:title=" ">
<polygon fill="white" stroke="black" points="400,-0.5 400,-19.5 489,-19.5 489,-0.5 400,-0.5"/>
<text text-anchor="middle" x="444.5" y="-7.5" font-family="Helvetica,sans-Serif" font-size="10.00">_MessageEndOf</text>
</a>
</g>
</g>
<!-- Node12&#45;&gt;Node2 -->
<g id="edge13" class="edge">
<title>Node12&#45;&gt;Node2</title>
<path fill="none" stroke="#9a32cd" stroke-dasharray="5,2" d="M499.3,-5.38C539.68,-4.37 595,-8.39 637,-32 675.52,-53.66 701.59,-102.68 711.29,-123.43"/>
<polygon fill="#9a32cd" stroke="#9a32cd" points="498.98,-1.89 489.11,-5.75 499.23,-8.89 498.98,-1.89"/>
<text text-anchor="middle" x="578.5" y="-35" font-family="Helvetica,sans-Serif" font-size="10.00"> endOfMessageData</text>
</g>
<!-- Node13 -->
<g id="node13" class="node">
<title>Node13</title>
<g id="a_node13"><a xlink:href="struct___checksum.html" target="_top" xlink:title=" ">
<polygon fill="white" stroke="black" points="167.5,-0.5 167.5,-19.5 236.5,-19.5 236.5,-0.5 167.5,-0.5"/>
<text text-anchor="middle" x="202" y="-7.5" font-family="Helvetica,sans-Serif" font-size="10.00">_Checksum</text>
</a>
</g>
</g>
<!-- Node13&#45;&gt;Node12 -->
<g id="edge14" class="edge">
<title>Node13&#45;&gt;Node12</title>
<path fill="none" stroke="#9a32cd" stroke-dasharray="5,2" d="M246.96,-10C290.41,-10 356.51,-10 399.85,-10"/>
<polygon fill="#9a32cd" stroke="#9a32cd" points="246.69,-6.5 236.69,-10 246.69,-13.5 246.69,-6.5"/>
<text text-anchor="middle" x="312.5" y="-13" font-family="Helvetica,sans-Serif" font-size="10.00"> messageChecksum</text>
</g>
<!-- Node14&#45;&gt;Node2 -->
<g id="edge15" class="edge">
<title>Node14&#45;&gt;Node2</title>
<path fill="none" stroke="#9a32cd" stroke-dasharray="5,2" d="M502.64,-133C547.3,-133 609.25,-133 654.8,-133"/>
<polygon fill="#9a32cd" stroke="#9a32cd" points="502.53,-129.5 492.53,-133 502.53,-136.5 502.53,-129.5"/>
<text text-anchor="middle" x="578.5" y="-136" font-family="Helvetica,sans-Serif" font-size="10.00"> ipoData</text>
</g>
</g>
</svg>
        <g id="navigator" transform="translate(0 0)" fill="#404254">
                <rect fill="#f2f5e9" fill-opacity="0.5" stroke="#606060" stroke-width=".5" x="0" y="0" width="60" height="60"/>
                <use id="zoomplus" xlink:href="#zoomPlus" x="17" y="9" onmousedown="handleZoom(evt,'in')"/>
                <use id="zoomminus" xlink:href="#zoomMin" x="42" y="9" onmousedown="handleZoom(evt,'out')"/>
                <use id="reset" xlink:href="#resetDef" x="30" y="36" onmousedown="handleReset()"/>
                <g id="arrowUp" xlink:href="#dirArrow" transform="translate(30 24)" onmousedown="handlePan(0,-1)">
                  <use xlink:href="#rim" fill="#404040">
                        <set attributeName="fill" to="#808080" begin="arrowUp.mouseover" end="arrowUp.mouseout"/>
                  </use>
                  <path fill="none" stroke="white" stroke-width="1.5" d="M0,-3.0v7 M-2.5,-0.5L0,-3.0L2.5,-0.5"/>
                </g>
                <g id="arrowRight" xlink:href="#dirArrow" transform="rotate(90) translate(36 -43)" onmousedown="handlePan(1,0)">
                  <use xlink:href="#rim" fill="#404040">
                        <set attributeName="fill" to="#808080" begin="arrowRight.mouseover" end="arrowRight.mouseout"/>
                  </use>
                  <path fill="none" stroke="white" stroke-width="1.5" d="M0,-3.0v7 M-2.5,-0.5L0,-3.0L2.5,-0.5"/>
                </g>
                <g id="arrowDown" xlink:href="#dirArrow" transform="rotate(180) translate(-30 -48)" onmousedown="handlePan(0,1)">
                  <use xlink:href="#rim" fill="#404040">
                        <set attributeName="fill" to="#808080" begin="arrowDown.mouseover" end="arrowDown.mouseout"/>
                  </use>
                  <path fill="none" stroke="white" stroke-width="1.5" d="M0,-3.0v7 M-2.5,-0.5L0,-3.0L2.5,-0.5"/>
                </g>
                <g id="arrowLeft" xlink:href="#dirArrow" transform="rotate(270) translate(-36 17)" onmousedown="handlePan(-1,0)">
                  <use xlink:href="#rim" fill="#404040">
                        <set attributeName="fill" to="#808080" begin="arrowLeft.mouseover" end="arrowLeft.mouseout"/>
                  </use>
                  <path fill="none" stroke="white" stroke-width="1.5" d="M0,-3.0v7 M-2.5,-0.5L0,-3.0L2.5,-0.5"/>
                </g>
        </g>
        <svg viewBox="0 0 15 15" width="100%" height="30px" preserveAspectRatio="xMaxYMin meet">
         <g id="arrow_out" transform="scale(0.3 0.3)">
          <a xlink:href="class_k_u_k_a_1_1_f_r_i_1_1_l_b_r_state__coll__graph_org.svg" target="_base">
           <rect id="button" ry="5" rx="5" y="6" x="6" height="38" width="38"
                fill="#f2f5e9" fill-opacity="0.5" stroke="#606060" stroke-width="1.0"/>
           <path id="arrow"
             d="M 11.500037,31.436501 C 11.940474,20.09759 22.043105,11.32322 32.158766,21.979434 L 37.068811,17.246167 C 37.068811,17.246167 37.088388,32 37.088388,32 L 22.160133,31.978069 C 22.160133,31.978069 26.997745,27.140456 26.997745,27.140456 C 18.528582,18.264221 13.291696,25.230495 11.500037,31.436501 z"
             style="fill:#404040;"/>
          </a>
         </g>
        </svg>
</svg>
