<?xml version="1.0" encoding="UTF-8" standalone="no"?>
<!DOCTYPE svg PUBLIC "-//W3C//DTD SVG 1.1//EN"
 "http://www.w3.org/Graphics/SVG/1.1/DTD/svg11.dtd">
<!-- Generated by graphviz version 2.43.0 (0)
 -->
<!-- Title: KUKA::FRI::IConnection::close Pages: 1 -->
<svg width="497pt" height="78pt"
 viewBox="0.00 0.00 497.00 77.50" xmlns="http://www.w3.org/2000/svg" xmlns:xlink="http://www.w3.org/1999/xlink">
<g id="graph0" class="graph" transform="scale(1 1) rotate(0) translate(4 73.5)">
<title>KUKA::FRI::IConnection::close</title>
<polygon fill="white" stroke="transparent" points="-4,4 -4,-73.5 493,-73.5 493,4 -4,4"/>
<!-- Node1 -->
<g id="node1" class="node">
<title>Node1</title>
<g id="a_node1"><a xlink:title="Close a connection to the KUKA Sunrise controller.">
<polygon fill="#bfbfbf" stroke="black" points="364,-22.5 364,-52.5 489,-52.5 489,-22.5 364,-22.5"/>
<text text-anchor="start" x="372" y="-40.5" font-family="Helvetica,sans-Serif" font-size="10.00">KUKA::FRI::IConnection</text>
<text text-anchor="middle" x="426.5" y="-29.5" font-family="Helvetica,sans-Serif" font-size="10.00">::close</text>
</a>
</g>
</g>
<!-- Node2 -->
<g id="node2" class="node">
<title>Node2</title>
<g id="a_node2"><a xlink:href="class_k_u_k_a_1_1_f_r_i_1_1_client_application.html#ae24af29c4f2fd5e678f2f71bdc94d1d9" target="_top" xlink:title="Disconnect the FRI client application from a KUKA Sunrise controller.">
<polygon fill="white" stroke="black" points="182,-22.5 182,-52.5 328,-52.5 328,-22.5 182,-22.5"/>
<text text-anchor="start" x="190" y="-40.5" font-family="Helvetica,sans-Serif" font-size="10.00">KUKA::FRI::ClientApplication</text>
<text text-anchor="middle" x="255" y="-29.5" font-family="Helvetica,sans-Serif" font-size="10.00">::disconnect</text>
</a>
</g>
</g>
<!-- Node1&#45;&gt;Node2 -->
<g id="edge1" class="edge">
<title>Node1&#45;&gt;Node2</title>
<path fill="none" stroke="midnightblue" d="M353.68,-37.5C345.27,-37.5 336.69,-37.5 328.28,-37.5"/>
<polygon fill="midnightblue" stroke="midnightblue" points="353.83,-41 363.83,-37.5 353.83,-34 353.83,-41"/>
</g>
<!-- Node3 -->
<g id="node3" class="node">
<title>Node3</title>
<g id="a_node3"><a xlink:href="_i_o_access_app_8cpp.html#a3c04138a5bfe5d72780bb7e82a18e627" target="_top" xlink:title=" ">
<polygon fill="white" stroke="black" points="54,-50 54,-69 92,-69 92,-50 54,-50"/>
<text text-anchor="middle" x="73" y="-57" font-family="Helvetica,sans-Serif" font-size="10.00">main</text>
</a>
</g>
</g>
<!-- Node2&#45;&gt;Node3 -->
<g id="edge2" class="edge">
<title>Node2&#45;&gt;Node3</title>
<path fill="none" stroke="midnightblue" d="M171.79,-47.55C142.01,-51.19 111.09,-54.97 92.19,-57.28"/>
<polygon fill="midnightblue" stroke="midnightblue" points="172.32,-51.01 181.82,-46.32 171.47,-44.06 172.32,-51.01"/>
</g>
<!-- Node4 -->
<g id="node4" class="node">
<title>Node4</title>
<g id="a_node4"><a xlink:href="class_k_u_k_a_1_1_f_r_i_1_1_client_application.html#aa8d7e55e1f5d744e2a59a7c9c6c7ce8d" target="_top" xlink:title="Destructor.">
<polygon fill="white" stroke="black" points="0,-0.5 0,-30.5 146,-30.5 146,-0.5 0,-0.5"/>
<text text-anchor="start" x="8" y="-18.5" font-family="Helvetica,sans-Serif" font-size="10.00">KUKA::FRI::ClientApplication</text>
<text text-anchor="middle" x="73" y="-7.5" font-family="Helvetica,sans-Serif" font-size="10.00">::~ClientApplication</text>
</a>
</g>
</g>
<!-- Node2&#45;&gt;Node4 -->
<g id="edge3" class="edge">
<title>Node2&#45;&gt;Node4</title>
<path fill="none" stroke="midnightblue" d="M171.84,-27.46C163.28,-26.41 154.63,-25.35 146.19,-24.32"/>
<polygon fill="midnightblue" stroke="midnightblue" points="171.47,-30.94 181.82,-28.68 172.32,-23.99 171.47,-30.94"/>
</g>
</g>
</svg>
