<?xml version="1.0" encoding="UTF-8" standalone="no"?>
<!DOCTYPE svg PUBLIC "-//W3C//DTD SVG 1.1//EN"
 "http://www.w3.org/Graphics/SVG/1.1/DTD/svg11.dtd">
<!-- Generated by graphviz version 2.43.0 (0)
 -->
<!-- Title: KUKA::FRI::TransformationClient Pages: 1 -->
<svg width="330pt" height="106pt"
 viewBox="0.00 0.00 330.00 106.00" xmlns="http://www.w3.org/2000/svg" xmlns:xlink="http://www.w3.org/1999/xlink">
<g id="graph0" class="graph" transform="scale(1 1) rotate(0) translate(4 102)">
<title>KUKA::FRI::TransformationClient</title>
<polygon fill="white" stroke="transparent" points="-4,4 -4,-102 326,-102 326,4 -4,4"/>
<!-- Node1 -->
<g id="node1" class="node">
<title>Node1</title>
<g id="a_node1"><a xlink:title="Abstract FRI transformation client.">
<polygon fill="#bfbfbf" stroke="black" points="96.5,-67.5 96.5,-97.5 234.5,-97.5 234.5,-67.5 96.5,-67.5"/>
<text text-anchor="start" x="104.5" y="-85.5" font-family="Helvetica,sans-Serif" font-size="10.00">KUKA::FRI::Transformation</text>
<text text-anchor="middle" x="165.5" y="-74.5" font-family="Helvetica,sans-Serif" font-size="10.00">Client</text>
</a>
</g>
</g>
<!-- Node2 -->
<g id="node2" class="node">
<title>Node2</title>
<g id="a_node2"><a xlink:href="class_simulated_transformation_provider_client.html" target="_top" xlink:title="Test client that sends back simulated transformations corresponding to a slight translation with chan...">
<polygon fill="white" stroke="black" points="0,-0.5 0,-30.5 161,-30.5 161,-0.5 0,-0.5"/>
<text text-anchor="start" x="8" y="-18.5" font-family="Helvetica,sans-Serif" font-size="10.00">SimulatedTransformationProvider</text>
<text text-anchor="middle" x="80.5" y="-7.5" font-family="Helvetica,sans-Serif" font-size="10.00">Client</text>
</a>
</g>
</g>
<!-- Node1&#45;&gt;Node2 -->
<g id="edge1" class="edge">
<title>Node1&#45;&gt;Node2</title>
<path fill="none" stroke="midnightblue" d="M138.91,-61.17C125.91,-51.23 110.6,-39.51 98.91,-30.58"/>
<polygon fill="midnightblue" stroke="midnightblue" points="136.99,-64.1 147.06,-67.4 141.24,-58.54 136.99,-64.1"/>
</g>
<!-- Node3 -->
<g id="node3" class="node">
<title>Node3</title>
<g id="a_node3"><a xlink:href="class_transformation_provider_client.html" target="_top" xlink:title="Example client for changing the transformation matrix of a robot frame.">
<polygon fill="white" stroke="black" points="179,-6 179,-25 322,-25 322,-6 179,-6"/>
<text text-anchor="middle" x="250.5" y="-13" font-family="Helvetica,sans-Serif" font-size="10.00">TransformationProviderClient</text>
</a>
</g>
</g>
<!-- Node1&#45;&gt;Node3 -->
<g id="edge2" class="edge">
<title>Node1&#45;&gt;Node3</title>
<path fill="none" stroke="midnightblue" d="M192.3,-61.01C208.08,-48.94 227.22,-34.3 239.13,-25.19"/>
<polygon fill="midnightblue" stroke="midnightblue" points="189.76,-58.54 183.94,-67.4 194.01,-64.1 189.76,-58.54"/>
</g>
</g>
</svg>
