<?xml version="1.0" encoding="UTF-8" standalone="no"?>
<!DOCTYPE svg PUBLIC "-//W3C//DTD SVG 1.1//EN"
 "http://www.w3.org/Graphics/SVG/1.1/DTD/svg11.dtd">
<!-- Generated by graphviz version 2.43.0 (0)
 -->
<!-- Title: LBRJointSineOverlayClient Pages: 1 -->
<svg width="1457pt" height="409pt"
 viewBox="0.00 0.00 1457.00 409.00" xmlns="http://www.w3.org/2000/svg" xmlns:xlink="http://www.w3.org/1999/xlink">
<g id="graph0" class="graph" transform="scale(1 1) rotate(0) translate(4 405)">
<title>LBRJointSineOverlayClient</title>
<polygon fill="white" stroke="transparent" points="-4,4 -4,-405 1453,-405 1453,4 -4,4"/>
<!-- Node1 -->
<g id="node1" class="node">
<title>Node1</title>
<g id="a_node1"><a xlink:title="Test client that can overlay interpolator joint positions with sine waves.">
<polygon fill="#bfbfbf" stroke="black" points="1313,-239.5 1313,-258.5 1449,-258.5 1449,-239.5 1313,-239.5"/>
<text text-anchor="middle" x="1381" y="-246.5" font-family="Helvetica,sans-Serif" font-size="10.00">LBRJointSineOverlayClient</text>
</a>
</g>
</g>
<!-- Node2 -->
<g id="node2" class="node">
<title>Node2</title>
<g id="a_node2"><a xlink:href="class_k_u_k_a_1_1_f_r_i_1_1_l_b_r_client.html" target="_top" xlink:title="Implementation of the IClient interface for the KUKA LBR (lightweight) robots.">
<polygon fill="white" stroke="black" points="1158,-239.5 1158,-258.5 1276,-258.5 1276,-239.5 1158,-239.5"/>
<text text-anchor="middle" x="1217" y="-246.5" font-family="Helvetica,sans-Serif" font-size="10.00">KUKA::FRI::LBRClient</text>
</a>
</g>
</g>
<!-- Node2&#45;&gt;Node1 -->
<g id="edge1" class="edge">
<title>Node2&#45;&gt;Node1</title>
<path fill="none" stroke="midnightblue" d="M1286.21,-249C1294.98,-249 1303.96,-249 1312.72,-249"/>
<polygon fill="midnightblue" stroke="midnightblue" points="1286.03,-245.5 1276.03,-249 1286.03,-252.5 1286.03,-245.5"/>
</g>
<!-- Node3 -->
<g id="node3" class="node">
<title>Node3</title>
<g id="a_node3"><a xlink:href="class_k_u_k_a_1_1_f_r_i_1_1_i_client.html" target="_top" xlink:title="FRI client interface.">
<polygon fill="white" stroke="black" points="927,-277.5 927,-296.5 1028,-296.5 1028,-277.5 927,-277.5"/>
<text text-anchor="middle" x="977.5" y="-284.5" font-family="Helvetica,sans-Serif" font-size="10.00">KUKA::FRI::IClient</text>
</a>
</g>
</g>
<!-- Node3&#45;&gt;Node2 -->
<g id="edge2" class="edge">
<title>Node3&#45;&gt;Node2</title>
<path fill="none" stroke="midnightblue" d="M1038.14,-279.28C1068.67,-275.13 1106.39,-269.71 1140,-264 1149.68,-262.36 1160.02,-260.43 1169.85,-258.52"/>
<polygon fill="midnightblue" stroke="midnightblue" points="1037.53,-275.83 1028.08,-280.64 1038.46,-282.77 1037.53,-275.83"/>
</g>
<!-- Node4 -->
<g id="node4" class="node">
<title>Node4</title>
<g id="a_node4"><a xlink:href="class_k_u_k_a_1_1_f_r_i_1_1_l_b_r_command.html" target="_top" xlink:title="Wrapper class for the FRI command message for a KUKA LBR (leightweight) robot.">
<polygon fill="white" stroke="black" points="909,-239.5 909,-258.5 1046,-258.5 1046,-239.5 909,-239.5"/>
<text text-anchor="middle" x="977.5" y="-246.5" font-family="Helvetica,sans-Serif" font-size="10.00">KUKA::FRI::LBRCommand</text>
</a>
</g>
</g>
<!-- Node4&#45;&gt;Node2 -->
<g id="edge3" class="edge">
<title>Node4&#45;&gt;Node2</title>
<path fill="none" stroke="#9a32cd" stroke-dasharray="5,2" d="M1056.33,-249C1089.39,-249 1127.27,-249 1157.84,-249"/>
<polygon fill="#9a32cd" stroke="#9a32cd" points="1056.24,-245.5 1046.24,-249 1056.24,-252.5 1056.24,-245.5"/>
<text text-anchor="middle" x="1102" y="-252" font-family="Helvetica,sans-Serif" font-size="10.00"> _robotCommand</text>
</g>
<!-- Node5 -->
<g id="node5" class="node">
<title>Node5</title>
<g id="a_node5"><a xlink:href="struct___f_r_i_command_message.html" target="_top" xlink:title=" ">
<polygon fill="white" stroke="black" points="683,-288.5 683,-307.5 806,-307.5 806,-288.5 683,-288.5"/>
<text text-anchor="middle" x="744.5" y="-295.5" font-family="Helvetica,sans-Serif" font-size="10.00">_FRICommandMessage</text>
</a>
</g>
</g>
<!-- Node5&#45;&gt;Node4 -->
<g id="edge4" class="edge">
<title>Node5&#45;&gt;Node4</title>
<path fill="none" stroke="#9a32cd" stroke-dasharray="5,2" d="M800.18,-286.4C840.19,-277.91 893.85,-266.53 931.42,-258.56"/>
<polygon fill="#9a32cd" stroke="#9a32cd" points="799.37,-283 790.31,-288.49 800.82,-289.84 799.37,-283"/>
<text text-anchor="middle" x="857.5" y="-283" font-family="Helvetica,sans-Serif" font-size="10.00"> _cmdMessage</text>
</g>
<!-- Node6 -->
<g id="node6" class="node">
<title>Node6</title>
<g id="a_node6"><a xlink:href="struct___message_command_data.html" target="_top" xlink:title=" ">
<polygon fill="white" stroke="black" points="428,-308.5 428,-327.5 556,-327.5 556,-308.5 428,-308.5"/>
<text text-anchor="middle" x="492" y="-315.5" font-family="Helvetica,sans-Serif" font-size="10.00">_MessageCommandData</text>
</a>
</g>
</g>
<!-- Node6&#45;&gt;Node5 -->
<g id="edge5" class="edge">
<title>Node6&#45;&gt;Node5</title>
<path fill="none" stroke="#9a32cd" stroke-dasharray="5,2" d="M538.21,-329.69C573.17,-336.94 622.6,-343.26 665,-334 688.14,-328.95 712.62,-316.42 727.97,-307.57"/>
<polygon fill="#9a32cd" stroke="#9a32cd" points="538.82,-326.24 528.3,-327.53 537.33,-333.08 538.82,-326.24"/>
<text text-anchor="middle" x="619.5" y="-341" font-family="Helvetica,sans-Serif" font-size="10.00"> commandData</text>
</g>
<!-- Node7 -->
<g id="node7" class="node">
<title>Node7</title>
<g id="a_node7"><a xlink:href="struct___fri_i_o_value.html" target="_top" xlink:title=" ">
<polygon fill="white" stroke="black" points="179,-229.5 179,-248.5 247,-248.5 247,-229.5 179,-229.5"/>
<text text-anchor="middle" x="213" y="-236.5" font-family="Helvetica,sans-Serif" font-size="10.00">_FriIOValue</text>
</a>
</g>
</g>
<!-- Node7&#45;&gt;Node6 -->
<g id="edge6" class="edge">
<title>Node7&#45;&gt;Node6</title>
<path fill="none" stroke="#9a32cd" stroke-dasharray="5,2" d="M257.23,-241.23C298.65,-244.93 361.81,-254.78 410,-281 419.94,-286.41 418.29,-293.19 428,-299 434.37,-302.81 441.57,-305.91 448.76,-308.42"/>
<polygon fill="#9a32cd" stroke="#9a32cd" points="257.44,-237.73 247.19,-240.41 256.87,-244.71 257.44,-237.73"/>
<text text-anchor="middle" x="343.5" y="-284" font-family="Helvetica,sans-Serif" font-size="10.00"> writeIORequest</text>
</g>
<!-- Node17 -->
<g id="node17" class="node">
<title>Node17</title>
<g id="a_node17"><a xlink:href="struct___message_monitor_data.html" target="_top" xlink:title=" ">
<polygon fill="white" stroke="black" points="434.5,-185.5 434.5,-204.5 549.5,-204.5 549.5,-185.5 434.5,-185.5"/>
<text text-anchor="middle" x="492" y="-192.5" font-family="Helvetica,sans-Serif" font-size="10.00">_MessageMonitorData</text>
</a>
</g>
</g>
<!-- Node7&#45;&gt;Node17 -->
<g id="edge19" class="edge">
<title>Node7&#45;&gt;Node17</title>
<path fill="none" stroke="#9a32cd" stroke-dasharray="5,2" d="M257.4,-229.69C263.96,-228.39 270.65,-227.11 277,-226 330.06,-216.69 390.88,-208.08 434.08,-202.31"/>
<polygon fill="#9a32cd" stroke="#9a32cd" points="256.38,-226.33 247.28,-231.75 257.78,-233.19 256.38,-226.33"/>
<text text-anchor="middle" x="343.5" y="-229" font-family="Helvetica,sans-Serif" font-size="10.00"> readIORequest</text>
</g>
<!-- Node8 -->
<g id="node8" class="node">
<title>Node8</title>
<g id="a_node8"><a xlink:href="struct___transformation.html" target="_top" xlink:title=" ">
<polygon fill="white" stroke="black" points="169.5,-275.5 169.5,-294.5 256.5,-294.5 256.5,-275.5 169.5,-275.5"/>
<text text-anchor="middle" x="213" y="-282.5" font-family="Helvetica,sans-Serif" font-size="10.00">_Transformation</text>
</a>
</g>
</g>
<!-- Node8&#45;&gt;Node6 -->
<g id="edge7" class="edge">
<title>Node8&#45;&gt;Node6</title>
<path fill="none" stroke="#9a32cd" stroke-dasharray="5,2" d="M266.57,-294.46C270.1,-295.01 273.6,-295.53 277,-296 327.5,-303 384.99,-308.79 427.65,-312.67"/>
<polygon fill="#9a32cd" stroke="#9a32cd" points="267.07,-291 256.64,-292.86 265.95,-297.91 267.07,-291"/>
<text text-anchor="middle" x="343.5" y="-313" font-family="Helvetica,sans-Serif" font-size="10.00"> commandedTransformations</text>
</g>
<!-- Node16 -->
<g id="node16" class="node">
<title>Node16</title>
<g id="a_node16"><a xlink:href="struct___f_r_i_monitoring_message.html" target="_top" xlink:title=" ">
<polygon fill="white" stroke="black" points="683,-201.5 683,-220.5 806,-220.5 806,-201.5 683,-201.5"/>
<text text-anchor="middle" x="744.5" y="-208.5" font-family="Helvetica,sans-Serif" font-size="10.00">_FRIMonitoringMessage</text>
</a>
</g>
</g>
<!-- Node8&#45;&gt;Node16 -->
<g id="edge23" class="edge">
<title>Node8&#45;&gt;Node16</title>
<path fill="none" stroke="#9a32cd" stroke-dasharray="5,2" d="M266.73,-291.87C307.93,-294.82 365.48,-293.43 410,-271 420.98,-265.47 417.17,-255.81 428,-250 470.79,-227.03 603.87,-217.21 682.86,-213.32"/>
<polygon fill="#9a32cd" stroke="#9a32cd" points="266.88,-288.37 256.62,-291.04 266.3,-295.35 266.88,-288.37"/>
<text text-anchor="middle" x="492" y="-253" font-family="Helvetica,sans-Serif" font-size="10.00"> requestedTransformations</text>
</g>
<!-- Node9 -->
<g id="node9" class="node">
<title>Node9</title>
<g id="a_node9"><a xlink:href="struct___time_stamp.html" target="_top" xlink:title=" ">
<polygon fill="white" stroke="black" points="5,-198.5 5,-217.5 77,-217.5 77,-198.5 5,-198.5"/>
<text text-anchor="middle" x="41" y="-205.5" font-family="Helvetica,sans-Serif" font-size="10.00">_TimeStamp</text>
</a>
</g>
</g>
<!-- Node9&#45;&gt;Node8 -->
<g id="edge8" class="edge">
<title>Node9&#45;&gt;Node8</title>
<path fill="none" stroke="#9a32cd" stroke-dasharray="5,2" d="M72.67,-221.89C106.81,-237.35 161.08,-261.94 190.81,-275.4"/>
<polygon fill="#9a32cd" stroke="#9a32cd" points="73.74,-218.53 63.19,-217.6 70.85,-224.91 73.74,-218.53"/>
<text text-anchor="middle" x="124.5" y="-258" font-family="Helvetica,sans-Serif" font-size="10.00"> timestamp</text>
</g>
<!-- Node9&#45;&gt;Node17 -->
<g id="edge18" class="edge">
<title>Node9&#45;&gt;Node17</title>
<path fill="none" stroke="#9a32cd" stroke-dasharray="5,2" d="M87.29,-206.69C169.72,-204.3 344.05,-199.25 434.25,-196.64"/>
<polygon fill="#9a32cd" stroke="#9a32cd" points="87.13,-203.19 77.23,-206.98 87.33,-210.19 87.13,-203.19"/>
<text text-anchor="middle" x="213" y="-207" font-family="Helvetica,sans-Serif" font-size="10.00"> timestamp</text>
</g>
<!-- Node10 -->
<g id="node10" class="node">
<title>Node10</title>
<g id="a_node10"><a xlink:href="struct___joint_values.html" target="_top" xlink:title=" ">
<polygon fill="white" stroke="black" points="177,-60.5 177,-79.5 249,-79.5 249,-60.5 177,-60.5"/>
<text text-anchor="middle" x="213" y="-67.5" font-family="Helvetica,sans-Serif" font-size="10.00">_JointValues</text>
</a>
</g>
</g>
<!-- Node10&#45;&gt;Node6 -->
<g id="edge9" class="edge">
<title>Node10&#45;&gt;Node6</title>
<path fill="none" stroke="#9a32cd" stroke-dasharray="5,2" d="M227.96,-87.86C239.71,-101.85 257.67,-120.9 277,-133 330.02,-166.18 370.03,-130.89 410,-179 444.47,-220.48 392.71,-258.22 428,-299 431.36,-302.89 435.49,-305.99 440.01,-308.48"/>
<polygon fill="#9a32cd" stroke="#9a32cd" points="230.51,-85.46 221.48,-79.91 225.09,-89.88 230.51,-85.46"/>
<text text-anchor="middle" x="343.5" y="-193" font-family="Helvetica,sans-Serif" font-size="10.00"> jointPosition</text>
<text text-anchor="middle" x="343.5" y="-182" font-family="Helvetica,sans-Serif" font-size="10.00">jointTorque</text>
</g>
<!-- Node10&#45;&gt;Node17 -->
<g id="edge20" class="edge">
<title>Node10&#45;&gt;Node17</title>
<path fill="none" stroke="#9a32cd" stroke-dasharray="5,2" d="M259.12,-65.6C309.94,-61.69 388.29,-59.15 410,-78 443.44,-107.03 398.48,-142.99 428,-176 431.43,-179.83 435.6,-182.9 440.14,-185.36"/>
<polygon fill="#9a32cd" stroke="#9a32cd" points="258.71,-62.12 249.03,-66.42 259.28,-69.1 258.71,-62.12"/>
<text text-anchor="middle" x="343.5" y="-125" font-family="Helvetica,sans-Serif" font-size="10.00"> commandedJointPosition</text>
<text text-anchor="middle" x="343.5" y="-114" font-family="Helvetica,sans-Serif" font-size="10.00">commandedTorque</text>
<text text-anchor="middle" x="343.5" y="-103" font-family="Helvetica,sans-Serif" font-size="10.00">externalTorque</text>
<text text-anchor="middle" x="343.5" y="-92" font-family="Helvetica,sans-Serif" font-size="10.00">measuredJointPosition</text>
<text text-anchor="middle" x="343.5" y="-81" font-family="Helvetica,sans-Serif" font-size="10.00">measuredTorque</text>
</g>
<!-- Node20 -->
<g id="node20" class="node">
<title>Node20</title>
<g id="a_node20"><a xlink:href="struct___message_ipo_data.html" target="_top" xlink:title=" ">
<polygon fill="white" stroke="black" points="444,-147.5 444,-166.5 540,-166.5 540,-147.5 444,-147.5"/>
<text text-anchor="middle" x="492" y="-154.5" font-family="Helvetica,sans-Serif" font-size="10.00">_MessageIpoData</text>
</a>
</g>
</g>
<!-- Node10&#45;&gt;Node20 -->
<g id="edge27" class="edge">
<title>Node10&#45;&gt;Node20</title>
<path fill="none" stroke="#9a32cd" stroke-dasharray="5,2" d="M239.73,-55.73C280.64,-35.17 360.93,-3.86 410,-44 441.24,-69.55 401.9,-102.22 428,-133 433.37,-139.34 440.61,-144.01 448.27,-147.45"/>
<polygon fill="#9a32cd" stroke="#9a32cd" points="237.95,-52.71 230.68,-60.42 241.17,-58.92 237.95,-52.71"/>
<text text-anchor="middle" x="343.5" y="-47" font-family="Helvetica,sans-Serif" font-size="10.00"> jointPosition</text>
</g>
<!-- Node11 -->
<g id="node11" class="node">
<title>Node11</title>
<g id="a_node11"><a xlink:href="struct__pb__callback__t.html" target="_top" xlink:title=" ">
<polygon fill="white" stroke="black" points="0,-25.5 0,-44.5 82,-44.5 82,-25.5 0,-25.5"/>
<text text-anchor="middle" x="41" y="-32.5" font-family="Helvetica,sans-Serif" font-size="10.00">_pb_callback_t</text>
</a>
</g>
</g>
<!-- Node11&#45;&gt;Node10 -->
<g id="edge10" class="edge">
<title>Node11&#45;&gt;Node10</title>
<path fill="none" stroke="#9a32cd" stroke-dasharray="5,2" d="M92.4,-45.38C119.6,-50.98 152.49,-57.75 176.9,-62.77"/>
<polygon fill="#9a32cd" stroke="#9a32cd" points="92.79,-41.88 82.29,-43.29 91.38,-48.74 92.79,-41.88"/>
<text text-anchor="middle" x="124.5" y="-60" font-family="Helvetica,sans-Serif" font-size="10.00"> value</text>
</g>
<!-- Node18 -->
<g id="node18" class="node">
<title>Node18</title>
<g id="a_node18"><a xlink:href="struct___robot_info.html" target="_top" xlink:title=" ">
<polygon fill="white" stroke="black" points="311,-0.5 311,-19.5 376,-19.5 376,-0.5 311,-0.5"/>
<text text-anchor="middle" x="343.5" y="-7.5" font-family="Helvetica,sans-Serif" font-size="10.00">_RobotInfo</text>
</a>
</g>
</g>
<!-- Node11&#45;&gt;Node18 -->
<g id="edge22" class="edge">
<title>Node11&#45;&gt;Node18</title>
<path fill="none" stroke="#9a32cd" stroke-dasharray="5,2" d="M92.2,-30.82C154.43,-25.65 258.63,-16.98 310.77,-12.64"/>
<polygon fill="#9a32cd" stroke="#9a32cd" points="91.89,-27.34 82.21,-31.65 92.47,-34.31 91.89,-27.34"/>
<text text-anchor="middle" x="124.5" y="-34" font-family="Helvetica,sans-Serif" font-size="10.00"> driveState</text>
</g>
<!-- Node12 -->
<g id="node12" class="node">
<title>Node12</title>
<g id="a_node12"><a xlink:href="struct___cartesian_vector.html" target="_top" xlink:title=" ">
<polygon fill="white" stroke="black" points="167,-342.5 167,-361.5 259,-361.5 259,-342.5 167,-342.5"/>
<text text-anchor="middle" x="213" y="-349.5" font-family="Helvetica,sans-Serif" font-size="10.00">_CartesianVector</text>
</a>
</g>
</g>
<!-- Node12&#45;&gt;Node6 -->
<g id="edge11" class="edge">
<title>Node12&#45;&gt;Node6</title>
<path fill="none" stroke="#9a32cd" stroke-dasharray="5,2" d="M269.15,-345.23C314.9,-339.62 379.96,-331.63 427.8,-325.76"/>
<polygon fill="#9a32cd" stroke="#9a32cd" points="268.62,-341.77 259.12,-346.46 269.47,-348.72 268.62,-341.77"/>
<text text-anchor="middle" x="343.5" y="-346" font-family="Helvetica,sans-Serif" font-size="10.00"> cartesianWrenchFeedForward</text>
</g>
<!-- Node13 -->
<g id="node13" class="node">
<title>Node13</title>
<g id="a_node13"><a xlink:href="struct___message_header.html" target="_top" xlink:title=" ">
<polygon fill="white" stroke="black" points="445.5,-270.5 445.5,-289.5 538.5,-289.5 538.5,-270.5 445.5,-270.5"/>
<text text-anchor="middle" x="492" y="-277.5" font-family="Helvetica,sans-Serif" font-size="10.00">_MessageHeader</text>
</a>
</g>
</g>
<!-- Node13&#45;&gt;Node5 -->
<g id="edge12" class="edge">
<title>Node13&#45;&gt;Node5</title>
<path fill="none" stroke="#9a32cd" stroke-dasharray="5,2" d="M548.8,-282.04C582.48,-283.5 626.25,-285.77 665,-289 670.74,-289.48 676.71,-290.04 682.68,-290.65"/>
<polygon fill="#9a32cd" stroke="#9a32cd" points="548.82,-278.54 538.68,-281.62 548.53,-285.54 548.82,-278.54"/>
<text text-anchor="middle" x="619.5" y="-292" font-family="Helvetica,sans-Serif" font-size="10.00"> header</text>
</g>
<!-- Node13&#45;&gt;Node16 -->
<g id="edge16" class="edge">
<title>Node13&#45;&gt;Node16</title>
<path fill="none" stroke="#9a32cd" stroke-dasharray="5,2" d="M537.26,-267.81C586.24,-254.32 664.16,-232.85 708.88,-220.53"/>
<polygon fill="#9a32cd" stroke="#9a32cd" points="536.28,-264.45 527.57,-270.48 538.14,-271.2 536.28,-264.45"/>
<text text-anchor="middle" x="619.5" y="-260" font-family="Helvetica,sans-Serif" font-size="10.00"> header</text>
</g>
<!-- Node14 -->
<g id="node14" class="node">
<title>Node14</title>
<g id="a_node14"><a xlink:href="struct___message_end_of.html" target="_top" xlink:title=" ">
<polygon fill="white" stroke="black" points="447.5,-380.5 447.5,-399.5 536.5,-399.5 536.5,-380.5 447.5,-380.5"/>
<text text-anchor="middle" x="492" y="-387.5" font-family="Helvetica,sans-Serif" font-size="10.00">_MessageEndOf</text>
</a>
</g>
</g>
<!-- Node14&#45;&gt;Node5 -->
<g id="edge13" class="edge">
<title>Node14&#45;&gt;Node5</title>
<path fill="none" stroke="#9a32cd" stroke-dasharray="5,2" d="M546.5,-384.09C581.34,-378.9 627.16,-369.51 665,-353 691.69,-341.35 718.57,-319.93 732.91,-307.54"/>
<polygon fill="#9a32cd" stroke="#9a32cd" points="545.93,-380.63 536.53,-385.5 546.92,-387.56 545.93,-380.63"/>
<text text-anchor="middle" x="619.5" y="-381" font-family="Helvetica,sans-Serif" font-size="10.00"> endOfMessageData</text>
</g>
<!-- Node14&#45;&gt;Node16 -->
<g id="edge25" class="edge">
<title>Node14&#45;&gt;Node16</title>
<path fill="none" stroke="#9a32cd" stroke-dasharray="5,2" d="M512.63,-373.72C525.12,-363.31 541.59,-349.46 556,-337 564.1,-330 564.49,-325.91 574,-321 610.88,-301.95 629.49,-321.5 665,-300 675.52,-293.63 674.91,-288.26 683,-279 701.29,-258.05 723.03,-233.77 734.83,-220.63"/>
<polygon fill="#9a32cd" stroke="#9a32cd" points="510.14,-371.24 504.69,-380.33 514.62,-376.62 510.14,-371.24"/>
<text text-anchor="middle" x="619.5" y="-324" font-family="Helvetica,sans-Serif" font-size="10.00"> endOfMessageData</text>
</g>
<!-- Node15 -->
<g id="node15" class="node">
<title>Node15</title>
<g id="a_node15"><a xlink:href="struct___checksum.html" target="_top" xlink:title=" ">
<polygon fill="white" stroke="black" points="178.5,-380.5 178.5,-399.5 247.5,-399.5 247.5,-380.5 178.5,-380.5"/>
<text text-anchor="middle" x="213" y="-387.5" font-family="Helvetica,sans-Serif" font-size="10.00">_Checksum</text>
</a>
</g>
</g>
<!-- Node15&#45;&gt;Node14 -->
<g id="edge14" class="edge">
<title>Node15&#45;&gt;Node14</title>
<path fill="none" stroke="#9a32cd" stroke-dasharray="5,2" d="M257.89,-390C309.67,-390 395.26,-390 447.07,-390"/>
<polygon fill="#9a32cd" stroke="#9a32cd" points="257.69,-386.5 247.69,-390 257.69,-393.5 257.69,-386.5"/>
<text text-anchor="middle" x="343.5" y="-393" font-family="Helvetica,sans-Serif" font-size="10.00"> messageChecksum</text>
</g>
<!-- Node16&#45;&gt;Node4 -->
<g id="edge15" class="edge">
<title>Node16&#45;&gt;Node4</title>
<path fill="none" stroke="#9a32cd" stroke-dasharray="5,2" d="M808.39,-222.33C813.67,-223.25 818.93,-224.15 824,-225 853.6,-229.97 886.49,-235.18 914.13,-239.48"/>
<polygon fill="#9a32cd" stroke="#9a32cd" points="808.71,-218.84 798.26,-220.56 807.5,-225.73 808.71,-218.84"/>
<text text-anchor="middle" x="857.5" y="-238" font-family="Helvetica,sans-Serif" font-size="10.00"> _monMessage</text>
</g>
<!-- Node21 -->
<g id="node21" class="node">
<title>Node21</title>
<g id="a_node21"><a xlink:href="class_k_u_k_a_1_1_f_r_i_1_1_l_b_r_state.html" target="_top" xlink:title="Wrapper class for the FRI monitoring message for a KUKA LBR (leightweight) robot.">
<polygon fill="white" stroke="black" points="919.5,-201.5 919.5,-220.5 1035.5,-220.5 1035.5,-201.5 919.5,-201.5"/>
<text text-anchor="middle" x="977.5" y="-208.5" font-family="Helvetica,sans-Serif" font-size="10.00">KUKA::FRI::LBRState</text>
</a>
</g>
</g>
<!-- Node16&#45;&gt;Node21 -->
<g id="edge29" class="edge">
<title>Node16&#45;&gt;Node21</title>
<path fill="none" stroke="#9a32cd" stroke-dasharray="5,2" d="M816.26,-211C849.34,-211 888.22,-211 919.39,-211"/>
<polygon fill="#9a32cd" stroke="#9a32cd" points="816.19,-207.5 806.19,-211 816.19,-214.5 816.19,-207.5"/>
<text text-anchor="middle" x="857.5" y="-214" font-family="Helvetica,sans-Serif" font-size="10.00"> _message</text>
</g>
<!-- Node17&#45;&gt;Node16 -->
<g id="edge17" class="edge">
<title>Node17&#45;&gt;Node16</title>
<path fill="none" stroke="#9a32cd" stroke-dasharray="5,2" d="M559.8,-192.56C591.71,-192.11 630.4,-192.62 665,-196 676.88,-197.16 689.63,-199.23 701.34,-201.47"/>
<polygon fill="#9a32cd" stroke="#9a32cd" points="559.62,-189.06 549.69,-192.73 559.74,-196.06 559.62,-189.06"/>
<text text-anchor="middle" x="619.5" y="-199" font-family="Helvetica,sans-Serif" font-size="10.00"> monitorData</text>
</g>
<!-- Node18&#45;&gt;Node16 -->
<g id="edge21" class="edge">
<title>Node18&#45;&gt;Node16</title>
<path fill="none" stroke="#9a32cd" stroke-dasharray="5,2" d="M386.01,-11.86C394.83,-14.04 403.44,-17.78 410,-24 432.36,-45.23 406.3,-69.1 428,-91 429.2,-92.21 663.45,-156.28 665,-157 690.93,-169.11 717.66,-189.52 732.27,-201.47"/>
<polygon fill="#9a32cd" stroke="#9a32cd" points="386.54,-8.4 376.07,-10 385.25,-15.28 386.54,-8.4"/>
<text text-anchor="middle" x="492" y="-129" font-family="Helvetica,sans-Serif" font-size="10.00"> robotInfo</text>
</g>
<!-- Node19 -->
<g id="node19" class="node">
<title>Node19</title>
<g id="a_node19"><a xlink:href="struct___connection_info.html" target="_top" xlink:title=" ">
<polygon fill="white" stroke="black" points="448,-62.5 448,-81.5 536,-81.5 536,-62.5 448,-62.5"/>
<text text-anchor="middle" x="492" y="-69.5" font-family="Helvetica,sans-Serif" font-size="10.00">_ConnectionInfo</text>
</a>
</g>
</g>
<!-- Node19&#45;&gt;Node16 -->
<g id="edge24" class="edge">
<title>Node19&#45;&gt;Node16</title>
<path fill="none" stroke="#9a32cd" stroke-dasharray="5,2" d="M546.51,-67.38C582.52,-66.82 629.69,-71.23 665,-93 707.51,-119.22 731.96,-178.05 740.27,-201.29"/>
<polygon fill="#9a32cd" stroke="#9a32cd" points="546.08,-63.89 536.19,-67.68 546.29,-70.89 546.08,-63.89"/>
<text text-anchor="middle" x="619.5" y="-96" font-family="Helvetica,sans-Serif" font-size="10.00"> connectionInfo</text>
</g>
<!-- Node20&#45;&gt;Node16 -->
<g id="edge26" class="edge">
<title>Node20&#45;&gt;Node16</title>
<path fill="none" stroke="#9a32cd" stroke-dasharray="5,2" d="M550.23,-159.45C584.07,-161.94 627.5,-166.94 665,-177 686.66,-182.81 710.08,-193.6 725.65,-201.47"/>
<polygon fill="#9a32cd" stroke="#9a32cd" points="550.27,-155.95 540.05,-158.76 549.79,-162.93 550.27,-155.95"/>
<text text-anchor="middle" x="619.5" y="-180" font-family="Helvetica,sans-Serif" font-size="10.00"> ipoData</text>
</g>
<!-- Node21&#45;&gt;Node2 -->
<g id="edge28" class="edge">
<title>Node21&#45;&gt;Node2</title>
<path fill="none" stroke="#9a32cd" stroke-dasharray="5,2" d="M1045.83,-219.77C1074.85,-223.76 1109.15,-228.76 1140,-234 1149.68,-235.64 1160.02,-237.57 1169.85,-239.48"/>
<polygon fill="#9a32cd" stroke="#9a32cd" points="1046.18,-216.29 1035.79,-218.4 1045.23,-223.22 1046.18,-216.29"/>
<text text-anchor="middle" x="1102" y="-237" font-family="Helvetica,sans-Serif" font-size="10.00"> _robotState</text>
</g>
</g>
</svg>
