<?xml version="1.0" encoding="UTF-8" standalone="no"?>
<!DOCTYPE svg PUBLIC "-//W3C//DTD SVG 1.1//EN"
 "http://www.w3.org/Graphics/SVG/1.1/DTD/svg11.dtd">
<!-- Generated by graphviz version 2.43.0 (0)
 -->
<!-- Title: SimulatedTransformationProviderClient::provide Pages: 1 -->
<!--zoomable 184 -->
<svg id="main" version="1.1" xmlns="http://www.w3.org/2000/svg" xmlns:xlink="http://www.w3.org/1999/xlink" xml:space="preserve" onload="init(evt)">
<style type="text/css"><![CDATA[
.edge:hover path { stroke: red; }
.edge:hover polygon { stroke: red; fill: red; }
]]></style>
<script type="text/javascript"><![CDATA[
var edges = document.getElementsByTagName('g');
if (edges && edges.length) {
  for (var i=0;i<edges.length;i++) {
    if (edges[i].id.substr(0,4)=='edge') {
      edges[i].setAttribute('class','edge');
    }
  }
}
]]></script>
        <defs>
                <circle id="rim" cx="0" cy="0" r="7"/>
                <circle id="rim2" cx="0" cy="0" r="3.5"/>
                <g id="zoomPlus">
                        <use xlink:href="#rim" fill="#404040">
                                <set attributeName="fill" to="#808080" begin="zoomplus.mouseover" end="zoomplus.mouseout"/>
                        </use>
                        <path d="M-4,0h8M0,-4v8" fill="none" stroke="white" stroke-width="1.5" pointer-events="none"/>
                </g>
                <g id="zoomMin">
                        <use xlink:href="#rim" fill="#404040">
                                <set attributeName="fill" to="#808080" begin="zoomminus.mouseover" end="zoomminus.mouseout"/>
                        </use>
                        <path d="M-4,0h8" fill="none" stroke="white" stroke-width="1.5" pointer-events="none"/>
                </g>
                <g id="dirArrow">
                        <path fill="none" stroke="white" stroke-width="1.5" d="M0,-3.0v7 M-2.5,-0.5L0,-3.0L2.5,-0.5"/>
                </g>
               <g id="resetDef">
                       <use xlink:href="#rim2" fill="#404040">
                               <set attributeName="fill" to="#808080" begin="reset.mouseover" end="reset.mouseout"/>
                       </use>
               </g>
        </defs>

<script type="text/javascript">
var viewWidth = 582;
var viewHeight = 184;
var sectionId = 'dynsection-2';
</script>
<script xlink:href="svgpan.js"/>
<svg id="graph" class="graph">
<g id="viewport">
<title>SimulatedTransformationProviderClient::provide</title>
<polygon fill="white" stroke="transparent" points="-4,4 -4,-180 578,-180 578,4 -4,4"/>
<!-- Node1 -->
<g id="node1" class="node">
<title>Node1</title>
<g id="a_node1"><a xlink:title="Callback which is called whenever a new FRI message arrives.">
<polygon fill="#bfbfbf" stroke="black" points="0,-96.5 0,-126.5 161,-126.5 161,-96.5 0,-96.5"/>
<text text-anchor="start" x="8" y="-114.5" font-family="Helvetica,sans-Serif" font-size="10.00">SimulatedTransformationProvider</text>
<text text-anchor="middle" x="80.5" y="-103.5" font-family="Helvetica,sans-Serif" font-size="10.00">Client::provide</text>
</a>
</g>
</g>
<!-- Node2 -->
<g id="node2" class="node">
<title>Node2</title>
<g id="a_node2"><a xlink:href="class_k_u_k_a_1_1_f_r_i_1_1_transformation_client.html#a4ba58c36a68750baf89c705f42239d78" target="_top" xlink:title="Returns a vector of identifiers of all requested transformation matrices.">
<polygon fill="white" stroke="black" points="197,-145.5 197,-175.5 387,-175.5 387,-145.5 197,-145.5"/>
<text text-anchor="start" x="205" y="-163.5" font-family="Helvetica,sans-Serif" font-size="10.00">KUKA::FRI::Transformation</text>
<text text-anchor="middle" x="292" y="-152.5" font-family="Helvetica,sans-Serif" font-size="10.00">Client::getRequestedTransformationIDs</text>
</a>
</g>
</g>
<!-- Node1&#45;&gt;Node2 -->
<g id="edge1" class="edge">
<title>Node1&#45;&gt;Node2</title>
<path fill="none" stroke="midnightblue" d="M145.78,-126.53C168.3,-131.8 193.78,-137.76 217.03,-143.2"/>
<polygon fill="midnightblue" stroke="midnightblue" points="216.31,-146.62 226.84,-145.49 217.9,-139.81 216.31,-146.62"/>
</g>
<!-- Node3 -->
<g id="node3" class="node">
<title>Node3</title>
<g id="a_node3"><a xlink:href="class_k_u_k_a_1_1_f_r_i_1_1_transformation_client.html#a57bf908a411b019bc97cfa3c671387ae" target="_top" xlink:title="Provides a requested transformation matrix.">
<polygon fill="white" stroke="black" points="223,-96.5 223,-126.5 361,-126.5 361,-96.5 223,-96.5"/>
<text text-anchor="start" x="231" y="-114.5" font-family="Helvetica,sans-Serif" font-size="10.00">KUKA::FRI::Transformation</text>
<text text-anchor="middle" x="292" y="-103.5" font-family="Helvetica,sans-Serif" font-size="10.00">Client::setTransformation</text>
</a>
</g>
</g>
<!-- Node1&#45;&gt;Node3 -->
<g id="edge2" class="edge">
<title>Node1&#45;&gt;Node3</title>
<path fill="none" stroke="midnightblue" d="M161,-111.5C177.87,-111.5 195.67,-111.5 212.51,-111.5"/>
<polygon fill="midnightblue" stroke="midnightblue" points="212.85,-115 222.85,-111.5 212.85,-108 212.85,-115"/>
</g>
<!-- Node5 -->
<g id="node5" class="node">
<title>Node5</title>
<g id="a_node5"><a xlink:href="class_simulated_transformation_provider_client.html#a9ffecdf8c7c5eca163cecbbbfd1db80f" target="_top" xlink:title=" ">
<polygon fill="white" stroke="black" points="211.5,-47.5 211.5,-77.5 372.5,-77.5 372.5,-47.5 211.5,-47.5"/>
<text text-anchor="start" x="219.5" y="-65.5" font-family="Helvetica,sans-Serif" font-size="10.00">SimulatedTransformationProvider</text>
<text text-anchor="middle" x="292" y="-54.5" font-family="Helvetica,sans-Serif" font-size="10.00">Client::updateCurrentSensorData</text>
</a>
</g>
</g>
<!-- Node1&#45;&gt;Node5 -->
<g id="edge4" class="edge">
<title>Node1&#45;&gt;Node5</title>
<path fill="none" stroke="midnightblue" d="M145.78,-96.47C168.3,-91.2 193.78,-85.24 217.03,-79.8"/>
<polygon fill="midnightblue" stroke="midnightblue" points="217.9,-83.19 226.84,-77.51 216.31,-76.38 217.9,-83.19"/>
</g>
<!-- Node4 -->
<g id="node4" class="node">
<title>Node4</title>
<g id="a_node4"><a xlink:href="pb__syshdr_8h.html#a39dc31816e18e5a0b48da2865a4b698c" target="_top" xlink:title=" ">
<polygon fill="white" stroke="black" points="471.5,-101 471.5,-120 525.5,-120 525.5,-101 471.5,-101"/>
<text text-anchor="middle" x="498.5" y="-108" font-family="Helvetica,sans-Serif" font-size="10.00">memcpy</text>
</a>
</g>
</g>
<!-- Node3&#45;&gt;Node4 -->
<g id="edge3" class="edge">
<title>Node3&#45;&gt;Node4</title>
<path fill="none" stroke="midnightblue" d="M361.1,-111.17C394.58,-111 433.58,-110.81 461.29,-110.68"/>
<polygon fill="midnightblue" stroke="midnightblue" points="461.33,-114.18 471.32,-110.63 461.3,-107.18 461.33,-114.18"/>
</g>
<!-- Node5&#45;&gt;Node4 -->
<g id="edge7" class="edge">
<title>Node5&#45;&gt;Node4</title>
<path fill="none" stroke="midnightblue" d="M357.14,-77.56C391.47,-85.61 432.47,-95.24 461.27,-102"/>
<polygon fill="midnightblue" stroke="midnightblue" points="460.76,-105.47 471.3,-104.35 462.36,-98.66 460.76,-105.47"/>
</g>
<!-- Node6 -->
<g id="node6" class="node">
<title>Node6</title>
<g id="a_node6"><a xlink:href="class_k_u_k_a_1_1_f_r_i_1_1_transformation_client.html#a1a068f1dae75a8478a1e63a3ffd2a0f2" target="_top" xlink:title="Get the nanoseconds elapsed since the last second (in Unix time).">
<polygon fill="white" stroke="black" points="423,-49.5 423,-79.5 574,-79.5 574,-49.5 423,-49.5"/>
<text text-anchor="start" x="431" y="-67.5" font-family="Helvetica,sans-Serif" font-size="10.00">KUKA::FRI::Transformation</text>
<text text-anchor="middle" x="498.5" y="-56.5" font-family="Helvetica,sans-Serif" font-size="10.00">Client::getTimestampNanoSec</text>
</a>
</g>
</g>
<!-- Node5&#45;&gt;Node6 -->
<g id="edge5" class="edge">
<title>Node5&#45;&gt;Node6</title>
<path fill="none" stroke="midnightblue" d="M372.65,-63.28C385.79,-63.41 399.45,-63.54 412.71,-63.67"/>
<polygon fill="midnightblue" stroke="midnightblue" points="412.72,-67.17 422.75,-63.77 412.79,-60.17 412.72,-67.17"/>
</g>
<!-- Node7 -->
<g id="node7" class="node">
<title>Node7</title>
<g id="a_node7"><a xlink:href="class_k_u_k_a_1_1_f_r_i_1_1_transformation_client.html#a98bd724fa7d308ceeb488881b986f2a0" target="_top" xlink:title="Get the timestamp of the current received FRI monitor message in Unix time.">
<polygon fill="white" stroke="black" points="429.5,-0.5 429.5,-30.5 567.5,-30.5 567.5,-0.5 429.5,-0.5"/>
<text text-anchor="start" x="437.5" y="-18.5" font-family="Helvetica,sans-Serif" font-size="10.00">KUKA::FRI::Transformation</text>
<text text-anchor="middle" x="498.5" y="-7.5" font-family="Helvetica,sans-Serif" font-size="10.00">Client::getTimestampSec</text>
</a>
</g>
</g>
<!-- Node5&#45;&gt;Node7 -->
<g id="edge6" class="edge">
<title>Node5&#45;&gt;Node7</title>
<path fill="none" stroke="midnightblue" d="M358.27,-47.5C378.65,-42.81 401.3,-37.61 422.31,-32.78"/>
<polygon fill="midnightblue" stroke="midnightblue" points="423.19,-36.17 432.15,-30.52 421.62,-29.35 423.19,-36.17"/>
</g>
</g>
</svg>
        <g id="navigator" transform="translate(0 0)" fill="#404254">
                <rect fill="#f2f5e9" fill-opacity="0.5" stroke="#606060" stroke-width=".5" x="0" y="0" width="60" height="60"/>
                <use id="zoomplus" xlink:href="#zoomPlus" x="17" y="9" onmousedown="handleZoom(evt,'in')"/>
                <use id="zoomminus" xlink:href="#zoomMin" x="42" y="9" onmousedown="handleZoom(evt,'out')"/>
                <use id="reset" xlink:href="#resetDef" x="30" y="36" onmousedown="handleReset()"/>
                <g id="arrowUp" xlink:href="#dirArrow" transform="translate(30 24)" onmousedown="handlePan(0,-1)">
                  <use xlink:href="#rim" fill="#404040">
                        <set attributeName="fill" to="#808080" begin="arrowUp.mouseover" end="arrowUp.mouseout"/>
                  </use>
                  <path fill="none" stroke="white" stroke-width="1.5" d="M0,-3.0v7 M-2.5,-0.5L0,-3.0L2.5,-0.5"/>
                </g>
                <g id="arrowRight" xlink:href="#dirArrow" transform="rotate(90) translate(36 -43)" onmousedown="handlePan(1,0)">
                  <use xlink:href="#rim" fill="#404040">
                        <set attributeName="fill" to="#808080" begin="arrowRight.mouseover" end="arrowRight.mouseout"/>
                  </use>
                  <path fill="none" stroke="white" stroke-width="1.5" d="M0,-3.0v7 M-2.5,-0.5L0,-3.0L2.5,-0.5"/>
                </g>
                <g id="arrowDown" xlink:href="#dirArrow" transform="rotate(180) translate(-30 -48)" onmousedown="handlePan(0,1)">
                  <use xlink:href="#rim" fill="#404040">
                        <set attributeName="fill" to="#808080" begin="arrowDown.mouseover" end="arrowDown.mouseout"/>
                  </use>
                  <path fill="none" stroke="white" stroke-width="1.5" d="M0,-3.0v7 M-2.5,-0.5L0,-3.0L2.5,-0.5"/>
                </g>
                <g id="arrowLeft" xlink:href="#dirArrow" transform="rotate(270) translate(-36 17)" onmousedown="handlePan(-1,0)">
                  <use xlink:href="#rim" fill="#404040">
                        <set attributeName="fill" to="#808080" begin="arrowLeft.mouseover" end="arrowLeft.mouseout"/>
                  </use>
                  <path fill="none" stroke="white" stroke-width="1.5" d="M0,-3.0v7 M-2.5,-0.5L0,-3.0L2.5,-0.5"/>
                </g>
        </g>
        <svg viewBox="0 0 15 15" width="100%" height="30px" preserveAspectRatio="xMaxYMin meet">
         <g id="arrow_out" transform="scale(0.3 0.3)">
          <a xlink:href="class_simulated_transformation_provider_client_ad7c1847511910657aa8f95573777697d_cgraph_org.svg" target="_base">
           <rect id="button" ry="5" rx="5" y="6" x="6" height="38" width="38"
                fill="#f2f5e9" fill-opacity="0.5" stroke="#606060" stroke-width="1.0"/>
           <path id="arrow"
             d="M 11.500037,31.436501 C 11.940474,20.09759 22.043105,11.32322 32.158766,21.979434 L 37.068811,17.246167 C 37.068811,17.246167 37.088388,32 37.088388,32 L 22.160133,31.978069 C 22.160133,31.978069 26.997745,27.140456 26.997745,27.140456 C 18.528582,18.264221 13.291696,25.230495 11.500037,31.436501 z"
             style="fill:#404040;"/>
          </a>
         </g>
        </svg>
</svg>
