<?xml version="1.0" encoding="UTF-8" standalone="no"?>
<!DOCTYPE svg PUBLIC "-//W3C//DTD SVG 1.1//EN"
 "http://www.w3.org/Graphics/SVG/1.1/DTD/svg11.dtd">
<!-- Generated by graphviz version 2.43.0 (0)
 -->
<!-- Title: KUKA::FRI::ClientApplication::step Pages: 1 -->
<svg width="1862pt" height="931pt"
 viewBox="0.00 0.00 1862.00 930.50" xmlns="http://www.w3.org/2000/svg" xmlns:xlink="http://www.w3.org/1999/xlink">
<g id="graph0" class="graph" transform="scale(1 1) rotate(0) translate(4 926.5)">
<title>KUKA::FRI::ClientApplication::step</title>
<polygon fill="white" stroke="transparent" points="-4,4 -4,-926.5 1858,-926.5 1858,4 -4,4"/>
<!-- Node1 -->
<g id="node1" class="node">
<title>Node1</title>
<g id="a_node1"><a xlink:title="Run a single processing step.">
<polygon fill="#bfbfbf" stroke="black" points="0,-245.5 0,-275.5 146,-275.5 146,-245.5 0,-245.5"/>
<text text-anchor="start" x="8" y="-263.5" font-family="Helvetica,sans-Serif" font-size="10.00">KUKA::FRI::ClientApplication</text>
<text text-anchor="middle" x="73" y="-252.5" font-family="Helvetica,sans-Serif" font-size="10.00">::step</text>
</a>
</g>
</g>
<!-- Node2 -->
<g id="node2" class="node">
<title>Node2</title>
<g id="a_node2"><a xlink:href="class_k_u_k_a_1_1_f_r_i_1_1_i_client.html#ae2b1f840b048ba11ff10f8a1e72ab6c0" target="_top" xlink:title="Callback for the FRI session state &#39;Commanding&#39;.">
<polygon fill="white" stroke="black" points="210.5,-490.5 210.5,-520.5 311.5,-520.5 311.5,-490.5 210.5,-490.5"/>
<text text-anchor="start" x="218.5" y="-508.5" font-family="Helvetica,sans-Serif" font-size="10.00">KUKA::FRI::IClient</text>
<text text-anchor="middle" x="261" y="-497.5" font-family="Helvetica,sans-Serif" font-size="10.00">::command</text>
</a>
</g>
</g>
<!-- Node1&#45;&gt;Node2 -->
<g id="edge1" class="edge">
<title>Node1&#45;&gt;Node2</title>
<path fill="none" stroke="midnightblue" d="M77.03,-275.67C85.81,-315.54 114.97,-424.19 182,-481.5 187.55,-486.25 194.03,-490.06 200.84,-493.11"/>
<polygon fill="midnightblue" stroke="midnightblue" points="199.69,-496.42 210.27,-496.83 202.25,-489.91 199.69,-496.42"/>
</g>
<!-- Node3 -->
<g id="node3" class="node">
<title>Node3</title>
<g id="a_node3"><a xlink:href="class_k_u_k_a_1_1_f_r_i_1_1_monitoring_message_decoder.html#aa72fb1e622847a636e6f5d7ac4770103" target="_top" xlink:title=" ">
<polygon fill="white" stroke="black" points="182,-441.5 182,-471.5 340,-471.5 340,-441.5 182,-441.5"/>
<text text-anchor="start" x="190" y="-459.5" font-family="Helvetica,sans-Serif" font-size="10.00">KUKA::FRI::MonitoringMessage</text>
<text text-anchor="middle" x="261" y="-448.5" font-family="Helvetica,sans-Serif" font-size="10.00">Decoder::decode</text>
</a>
</g>
</g>
<!-- Node1&#45;&gt;Node3 -->
<g id="edge2" class="edge">
<title>Node1&#45;&gt;Node3</title>
<path fill="none" stroke="midnightblue" d="M79.3,-275.68C91.77,-309.15 126.18,-389.69 182,-432.5 183.83,-433.9 185.74,-435.22 187.71,-436.46"/>
<polygon fill="midnightblue" stroke="midnightblue" points="186.28,-439.67 196.72,-441.44 189.66,-433.54 186.28,-439.67"/>
</g>
<!-- Node31 -->
<g id="node31" class="node">
<title>Node31</title>
<g id="a_node31"><a xlink:href="class_k_u_k_a_1_1_f_r_i_1_1_command_message_encoder.html#a53c2553cb91250334d979f2aaa4006a4" target="_top" xlink:title=" ">
<polygon fill="white" stroke="black" points="182,-392.5 182,-422.5 340,-422.5 340,-392.5 182,-392.5"/>
<text text-anchor="start" x="190" y="-410.5" font-family="Helvetica,sans-Serif" font-size="10.00">KUKA::FRI::CommandMessage</text>
<text text-anchor="middle" x="261" y="-399.5" font-family="Helvetica,sans-Serif" font-size="10.00">Encoder::encode</text>
</a>
</g>
</g>
<!-- Node1&#45;&gt;Node31 -->
<g id="edge47" class="edge">
<title>Node1&#45;&gt;Node31</title>
<path fill="none" stroke="midnightblue" d="M83.39,-275.6C100.09,-301.26 137.46,-353.44 182,-382.5 185.1,-384.52 188.38,-386.39 191.76,-388.12"/>
<polygon fill="midnightblue" stroke="midnightblue" points="190.38,-391.34 200.92,-392.37 193.32,-384.99 190.38,-391.34"/>
</g>
<!-- Node45 -->
<g id="node43" class="node">
<title>Node45</title>
<g id="a_node43"><a xlink:href="class_k_u_k_a_1_1_f_r_i_1_1_i_connection.html#a61dca018a26afa39f543041487e8379c" target="_top" xlink:title="Checks whether a connection to the KUKA Sunrise controller is established.">
<polygon fill="white" stroke="black" points="198.5,-343.5 198.5,-373.5 323.5,-373.5 323.5,-343.5 198.5,-343.5"/>
<text text-anchor="start" x="206.5" y="-361.5" font-family="Helvetica,sans-Serif" font-size="10.00">KUKA::FRI::IConnection</text>
<text text-anchor="middle" x="261" y="-350.5" font-family="Helvetica,sans-Serif" font-size="10.00">::isOpen</text>
</a>
</g>
</g>
<!-- Node1&#45;&gt;Node45 -->
<g id="edge62" class="edge">
<title>Node1&#45;&gt;Node45</title>
<path fill="none" stroke="midnightblue" d="M92.88,-275.72C113.68,-291.88 148.62,-317.28 182,-333.5 186.6,-335.73 191.44,-337.83 196.38,-339.79"/>
<polygon fill="midnightblue" stroke="midnightblue" points="195.33,-343.14 205.93,-343.39 197.8,-336.59 195.33,-343.14"/>
</g>
<!-- Node46 -->
<g id="node44" class="node">
<title>Node46</title>
<g id="a_node44"><a xlink:href="class_k_u_k_a_1_1_f_r_i_1_1_i_client.html#a2f5a76fadff18150efad48fd8eded1bc" target="_top" xlink:title="Callback for the FRI session states &#39;Monitoring Wait&#39; and &#39;Monitoring Ready&#39;.">
<polygon fill="white" stroke="black" points="210.5,-294.5 210.5,-324.5 311.5,-324.5 311.5,-294.5 210.5,-294.5"/>
<text text-anchor="start" x="218.5" y="-312.5" font-family="Helvetica,sans-Serif" font-size="10.00">KUKA::FRI::IClient</text>
<text text-anchor="middle" x="261" y="-301.5" font-family="Helvetica,sans-Serif" font-size="10.00">::monitor</text>
</a>
</g>
</g>
<!-- Node1&#45;&gt;Node46 -->
<g id="edge63" class="edge">
<title>Node1&#45;&gt;Node46</title>
<path fill="none" stroke="midnightblue" d="M131.07,-275.53C153.02,-281.32 178.12,-287.93 200.31,-293.77"/>
<polygon fill="midnightblue" stroke="midnightblue" points="199.71,-297.24 210.28,-296.4 201.5,-290.47 199.71,-297.24"/>
</g>
<!-- Node47 -->
<g id="node45" class="node">
<title>Node47</title>
<g id="a_node45"><a xlink:href="class_k_u_k_a_1_1_f_r_i_1_1_i_client.html#a1816c9c4e7b93ebca3178b7c5e7b58b3" target="_top" xlink:title="Callback that is called whenever the FRI session state changes.">
<polygon fill="white" stroke="black" points="210.5,-245.5 210.5,-275.5 311.5,-275.5 311.5,-245.5 210.5,-245.5"/>
<text text-anchor="start" x="218.5" y="-263.5" font-family="Helvetica,sans-Serif" font-size="10.00">KUKA::FRI::IClient</text>
<text text-anchor="middle" x="261" y="-252.5" font-family="Helvetica,sans-Serif" font-size="10.00">::onStateChange</text>
</a>
</g>
</g>
<!-- Node1&#45;&gt;Node47 -->
<g id="edge64" class="edge">
<title>Node1&#45;&gt;Node47</title>
<path fill="none" stroke="midnightblue" d="M146.18,-260.5C163.94,-260.5 182.76,-260.5 199.88,-260.5"/>
<polygon fill="midnightblue" stroke="midnightblue" points="200.3,-264 210.3,-260.5 200.3,-257 200.3,-264"/>
</g>
<!-- Node48 -->
<g id="node46" class="node">
<title>Node48</title>
<g id="a_node46"><a xlink:href="class_k_u_k_a_1_1_f_r_i_1_1_transformation_client.html#aa21b0759e9a7a22516752841bede1a3c" target="_top" xlink:title="Callback which is called whenever a new FRI message arrives.">
<polygon fill="white" stroke="black" points="192,-196.5 192,-226.5 330,-226.5 330,-196.5 192,-196.5"/>
<text text-anchor="start" x="200" y="-214.5" font-family="Helvetica,sans-Serif" font-size="10.00">KUKA::FRI::Transformation</text>
<text text-anchor="middle" x="261" y="-203.5" font-family="Helvetica,sans-Serif" font-size="10.00">Client::provide</text>
</a>
</g>
</g>
<!-- Node1&#45;&gt;Node48 -->
<g id="edge65" class="edge">
<title>Node1&#45;&gt;Node48</title>
<path fill="none" stroke="midnightblue" d="M131.07,-245.47C150.71,-240.29 172.87,-234.45 193.22,-229.09"/>
<polygon fill="midnightblue" stroke="midnightblue" points="194.26,-232.44 203.04,-226.51 192.48,-225.67 194.26,-232.44"/>
</g>
<!-- Node49 -->
<g id="node47" class="node">
<title>Node49</title>
<g id="a_node47"><a xlink:href="class_k_u_k_a_1_1_f_r_i_1_1_i_connection.html#a458e9479c2752e72c9ed820f9236eb3e" target="_top" xlink:title="Receive a new FRI monitoring message from the KUKA Sunrise controller.">
<polygon fill="white" stroke="black" points="198.5,-147.5 198.5,-177.5 323.5,-177.5 323.5,-147.5 198.5,-147.5"/>
<text text-anchor="start" x="206.5" y="-165.5" font-family="Helvetica,sans-Serif" font-size="10.00">KUKA::FRI::IConnection</text>
<text text-anchor="middle" x="261" y="-154.5" font-family="Helvetica,sans-Serif" font-size="10.00">::receive</text>
</a>
</g>
</g>
<!-- Node1&#45;&gt;Node49 -->
<g id="edge66" class="edge">
<title>Node1&#45;&gt;Node49</title>
<path fill="none" stroke="midnightblue" d="M92.43,-245.27C113.12,-228.83 148.22,-202.8 182,-186.5 185.98,-184.58 190.16,-182.77 194.41,-181.07"/>
<polygon fill="midnightblue" stroke="midnightblue" points="195.69,-184.33 203.82,-177.54 193.23,-177.78 195.69,-184.33"/>
</g>
<!-- Node50 -->
<g id="node48" class="node">
<title>Node50</title>
<g id="a_node48"><a xlink:href="struct_k_u_k_a_1_1_f_r_i_1_1_client_data.html#aa6b42ef174e80c2e38d3401537e1a114" target="_top" xlink:title=" ">
<polygon fill="white" stroke="black" points="196.5,-98.5 196.5,-128.5 325.5,-128.5 325.5,-98.5 196.5,-98.5"/>
<text text-anchor="start" x="204.5" y="-116.5" font-family="Helvetica,sans-Serif" font-size="10.00">KUKA::FRI::ClientData</text>
<text text-anchor="middle" x="261" y="-105.5" font-family="Helvetica,sans-Serif" font-size="10.00">::resetCommandMessage</text>
</a>
</g>
</g>
<!-- Node1&#45;&gt;Node50 -->
<g id="edge67" class="edge">
<title>Node1&#45;&gt;Node50</title>
<path fill="none" stroke="midnightblue" d="M83.32,-245.22C99.93,-219.25 137.15,-166.53 182,-137.5 184.45,-135.91 187.02,-134.42 189.66,-133.03"/>
<polygon fill="midnightblue" stroke="midnightblue" points="191.36,-136.1 198.89,-128.65 188.35,-129.78 191.36,-136.1"/>
</g>
<!-- Node51 -->
<g id="node49" class="node">
<title>Node51</title>
<g id="a_node49"><a xlink:href="class_k_u_k_a_1_1_f_r_i_1_1_i_connection.html#a4c8837816371fc6d6bab88dcb71db3d6" target="_top" xlink:title="Send a new FRI command message to the KUKA Sunrise controller.">
<polygon fill="white" stroke="black" points="198.5,-49.5 198.5,-79.5 323.5,-79.5 323.5,-49.5 198.5,-49.5"/>
<text text-anchor="start" x="206.5" y="-67.5" font-family="Helvetica,sans-Serif" font-size="10.00">KUKA::FRI::IConnection</text>
<text text-anchor="middle" x="261" y="-56.5" font-family="Helvetica,sans-Serif" font-size="10.00">::send</text>
</a>
</g>
</g>
<!-- Node1&#45;&gt;Node51 -->
<g id="edge68" class="edge">
<title>Node1&#45;&gt;Node51</title>
<path fill="none" stroke="midnightblue" d="M79.3,-245.32C91.77,-211.85 126.18,-131.31 182,-88.5 184.32,-86.72 186.77,-85.07 189.32,-83.55"/>
<polygon fill="midnightblue" stroke="midnightblue" points="191.09,-86.57 198.3,-78.81 187.82,-80.38 191.09,-86.57"/>
</g>
<!-- Node52 -->
<g id="node50" class="node">
<title>Node52</title>
<g id="a_node50"><a xlink:href="class_k_u_k_a_1_1_f_r_i_1_1_i_client.html#ab02eabc2be3c968f53a36cd7b42373fe" target="_top" xlink:title="Callback for the FRI session state &#39;Commanding Wait&#39;.">
<polygon fill="white" stroke="black" points="210.5,-0.5 210.5,-30.5 311.5,-30.5 311.5,-0.5 210.5,-0.5"/>
<text text-anchor="start" x="218.5" y="-18.5" font-family="Helvetica,sans-Serif" font-size="10.00">KUKA::FRI::IClient</text>
<text text-anchor="middle" x="261" y="-7.5" font-family="Helvetica,sans-Serif" font-size="10.00">::waitForCommand</text>
</a>
</g>
</g>
<!-- Node1&#45;&gt;Node52 -->
<g id="edge69" class="edge">
<title>Node1&#45;&gt;Node52</title>
<path fill="none" stroke="midnightblue" d="M77.03,-245.33C85.81,-205.46 114.97,-96.81 182,-39.5 187.55,-34.75 194.03,-30.94 200.84,-27.89"/>
<polygon fill="midnightblue" stroke="midnightblue" points="202.25,-31.09 210.27,-24.17 199.69,-24.58 202.25,-31.09"/>
</g>
<!-- Node4 -->
<g id="node4" class="node">
<title>Node4</title>
<g id="a_node4"><a xlink:href="pb__decode_8c.html#a75c9a727abe84bfaaef633ac68d48cfa" target="_top" xlink:title=" ">
<polygon fill="white" stroke="black" points="405,-542 405,-561 469,-561 469,-542 405,-542"/>
<text text-anchor="middle" x="437" y="-549" font-family="Helvetica,sans-Serif" font-size="10.00">pb_decode</text>
</a>
</g>
</g>
<!-- Node3&#45;&gt;Node4 -->
<g id="edge3" class="edge">
<title>Node3&#45;&gt;Node4</title>
<path fill="none" stroke="midnightblue" d="M316.61,-471.53C324.62,-474.44 332.65,-477.76 340,-481.5 369.18,-496.33 399.08,-519.67 417.58,-535.28"/>
<polygon fill="midnightblue" stroke="midnightblue" points="415.37,-537.99 425.24,-541.84 419.93,-532.68 415.37,-537.99"/>
</g>
<!-- Node11 -->
<g id="node11" class="node">
<title>Node11</title>
<g id="a_node11"><a xlink:href="pb__decode_8c.html#a37dc2b0c54c27ddd29791e7522c85548" target="_top" xlink:title=" ">
<polygon fill="white" stroke="black" points="1359,-637 1359,-656 1478,-656 1478,-637 1359,-637"/>
<text text-anchor="middle" x="1418.5" y="-644" font-family="Helvetica,sans-Serif" font-size="10.00">pb_istream_from_buffer</text>
</a>
</g>
</g>
<!-- Node3&#45;&gt;Node11 -->
<g id="edge46" class="edge">
<title>Node3&#45;&gt;Node11</title>
<path fill="none" stroke="midnightblue" d="M340.33,-456.5C409.85,-456.5 514.19,-456.5 605,-456.5 605,-456.5 605,-456.5 1109.5,-456.5 1240.21,-456.5 1361.89,-581.99 1402.89,-629"/>
<polygon fill="midnightblue" stroke="midnightblue" points="1400.42,-631.5 1409.59,-636.82 1405.74,-626.95 1400.42,-631.5"/>
</g>
<!-- Node5 -->
<g id="node5" class="node">
<title>Node5</title>
<g id="a_node5"><a xlink:href="pb__decode_8c.html#a0c0f95a964239344d503e724818e8fc0" target="_top" xlink:title=" ">
<polygon fill="white" stroke="black" points="560,-713 560,-732 652,-732 652,-713 560,-713"/>
<text text-anchor="middle" x="606" y="-720" font-family="Helvetica,sans-Serif" font-size="10.00">pb_decode_noinit</text>
</a>
</g>
</g>
<!-- Node4&#45;&gt;Node5 -->
<g id="edge4" class="edge">
<title>Node4&#45;&gt;Node5</title>
<path fill="none" stroke="midnightblue" d="M447.46,-561.18C474.78,-589.17 554.1,-670.38 588.62,-705.73"/>
<polygon fill="midnightblue" stroke="midnightblue" points="586.16,-708.21 595.65,-712.92 591.16,-703.32 586.16,-708.21"/>
</g>
<!-- Node28 -->
<g id="node28" class="node">
<title>Node28</title>
<g id="a_node28"><a xlink:href="pb__decode_8c.html#a086200ce4dac8198dc0537e64318d66e" target="_top" xlink:title=" ">
<polygon fill="white" stroke="black" points="534,-542 534,-561 678,-561 678,-542 534,-542"/>
<text text-anchor="middle" x="606" y="-549" font-family="Helvetica,sans-Serif" font-size="10.00">pb_message_set_to_defaults</text>
</a>
</g>
</g>
<!-- Node4&#45;&gt;Node28 -->
<g id="edge41" class="edge">
<title>Node4&#45;&gt;Node28</title>
<path fill="none" stroke="midnightblue" d="M469.02,-551.5C484.6,-551.5 504.29,-551.5 523.8,-551.5"/>
<polygon fill="midnightblue" stroke="midnightblue" points="523.97,-555 533.97,-551.5 523.97,-548 523.97,-555"/>
</g>
<!-- Node6 -->
<g id="node6" class="node">
<title>Node6</title>
<g id="a_node6"><a xlink:href="pb__decode_8c.html#a30eb2ecefe2a2095c1c668e3932b63fc" target="_top" xlink:title=" ">
<polygon fill="white" stroke="black" points="733,-865 733,-884 828,-884 828,-865 733,-865"/>
<text text-anchor="middle" x="780.5" y="-872" font-family="Helvetica,sans-Serif" font-size="10.00">decode_extension</text>
</a>
</g>
</g>
<!-- Node5&#45;&gt;Node6 -->
<g id="edge5" class="edge">
<title>Node5&#45;&gt;Node6</title>
<path fill="none" stroke="midnightblue" d="M612.68,-732.34C626.8,-756.01 665.9,-816.68 714,-850.5 719.99,-854.71 726.81,-858.28 733.73,-861.26"/>
<polygon fill="midnightblue" stroke="midnightblue" points="732.57,-864.57 743.16,-864.98 735.14,-858.06 732.57,-864.57"/>
</g>
<!-- Node8 -->
<g id="node8" class="node">
<title>Node8</title>
<g id="a_node8"><a xlink:href="pb__decode_8c.html#a48151430d329252cc54fd9764dd820f7" target="_top" xlink:title=" ">
<polygon fill="white" stroke="black" points="1073,-865 1073,-884 1144,-884 1144,-865 1073,-865"/>
<text text-anchor="middle" x="1108.5" y="-872" font-family="Helvetica,sans-Serif" font-size="10.00">decode_field</text>
</a>
</g>
</g>
<!-- Node5&#45;&gt;Node8 -->
<g id="edge31" class="edge">
<title>Node5&#45;&gt;Node8</title>
<path fill="none" stroke="midnightblue" d="M617.29,-732.19C635.35,-748.61 674.58,-781.74 714,-798.5 839.7,-851.95 882.01,-828.95 1016,-855.5 1031.26,-858.52 1047.92,-861.95 1062.8,-865.05"/>
<polygon fill="midnightblue" stroke="midnightblue" points="1062.27,-868.51 1072.77,-867.13 1063.7,-861.66 1062.27,-868.51"/>
</g>
<!-- Node16 -->
<g id="node16" class="node">
<title>Node16</title>
<g id="a_node16"><a xlink:href="pb__decode_8c.html#ab5102942c8402c215f836364e1b775b1" target="_top" xlink:title=" ">
<polygon fill="white" stroke="black" points="1381.5,-751 1381.5,-770 1455.5,-770 1455.5,-751 1381.5,-751"/>
<text text-anchor="middle" x="1418.5" y="-758" font-family="Helvetica,sans-Serif" font-size="10.00">pb_skip_field</text>
</a>
</g>
</g>
<!-- Node5&#45;&gt;Node16 -->
<g id="edge40" class="edge">
<title>Node5&#45;&gt;Node16</title>
<path fill="none" stroke="midnightblue" d="M652.12,-730.75C717.3,-741.92 841.72,-760.5 948.5,-760.5 948.5,-760.5 948.5,-760.5 1109.5,-760.5 1202.32,-760.5 1310.87,-760.5 1371.14,-760.5"/>
<polygon fill="midnightblue" stroke="midnightblue" points="1371.46,-764 1381.46,-760.5 1371.46,-757 1371.46,-764"/>
</g>
<!-- Node23 -->
<g id="node23" class="node">
<title>Node23</title>
<g id="a_node23"><a xlink:href="pb__decode_8c.html#a45b7deb9b949803e7342070ca209d4be" target="_top" xlink:title=" ">
<polygon fill="white" stroke="black" points="729,-675 729,-694 832,-694 832,-675 729,-675"/>
<text text-anchor="middle" x="780.5" y="-682" font-family="Helvetica,sans-Serif" font-size="10.00">find_extension_field</text>
</a>
</g>
</g>
<!-- Node5&#45;&gt;Node23 -->
<g id="edge32" class="edge">
<title>Node5&#45;&gt;Node23</title>
<path fill="none" stroke="midnightblue" d="M650.53,-712.91C673.6,-707.83 702.13,-701.54 726.48,-696.18"/>
<polygon fill="midnightblue" stroke="midnightblue" points="727.27,-699.59 736.28,-694.02 725.77,-692.75 727.27,-699.59"/>
</g>
<!-- Node24 -->
<g id="node24" class="node">
<title>Node24</title>
<g id="a_node24"><a xlink:href="pb__decode_8c.html#ac2d909d6194bfbca3c31b95749c4e848" target="_top" xlink:title=" ">
<polygon fill="white" stroke="black" points="912.5,-656 912.5,-675 986.5,-675 986.5,-656 912.5,-656"/>
<text text-anchor="middle" x="949.5" y="-663" font-family="Helvetica,sans-Serif" font-size="10.00">pb_field_next</text>
</a>
</g>
</g>
<!-- Node5&#45;&gt;Node24 -->
<g id="edge39" class="edge">
<title>Node5&#45;&gt;Node24</title>
<path fill="none" stroke="midnightblue" d="M652.23,-722.66C700.89,-721.96 780.29,-718.32 847,-703.5 871.83,-697.98 898.73,-687.7 918.6,-679.22"/>
<polygon fill="midnightblue" stroke="midnightblue" points="920.26,-682.32 928.02,-675.11 917.46,-675.9 920.26,-682.32"/>
</g>
<!-- Node25 -->
<g id="node25" class="node">
<title>Node25</title>
<g id="a_node25"><a xlink:href="pb__decode_8c.html#aefe6134d81ea2f861f0111984553b23b" target="_top" xlink:title=" ">
<polygon fill="white" stroke="black" points="908,-789 908,-808 991,-808 991,-789 908,-789"/>
<text text-anchor="middle" x="949.5" y="-796" font-family="Helvetica,sans-Serif" font-size="10.00">pb_decode_tag</text>
</a>
</g>
</g>
<!-- Node5&#45;&gt;Node25 -->
<g id="edge34" class="edge">
<title>Node5&#45;&gt;Node25</title>
<path fill="none" stroke="midnightblue" d="M622.26,-732.06C642.42,-744.18 679.43,-764.67 714,-774.5 775.61,-792.03 849.54,-797.09 897.69,-798.38"/>
<polygon fill="midnightblue" stroke="midnightblue" points="897.79,-801.89 907.86,-798.61 897.94,-794.89 897.79,-801.89"/>
</g>
<!-- Node26 -->
<g id="node26" class="node">
<title>Node26</title>
<g id="a_node26"><a xlink:href="pb__decode_8c.html#a7897e383f3ae811b1afc2ecd36277512" target="_top" xlink:title=" ">
<polygon fill="white" stroke="black" points="745,-637 745,-656 816,-656 816,-637 745,-637"/>
<text text-anchor="middle" x="780.5" y="-644" font-family="Helvetica,sans-Serif" font-size="10.00">pb_field_find</text>
</a>
</g>
</g>
<!-- Node5&#45;&gt;Node26 -->
<g id="edge36" class="edge">
<title>Node5&#45;&gt;Node26</title>
<path fill="none" stroke="midnightblue" d="M622.46,-712.94C642.83,-700.66 680.07,-679.28 714,-665.5 720.71,-662.77 727.96,-660.26 735.1,-658.03"/>
<polygon fill="midnightblue" stroke="midnightblue" points="736.14,-661.37 744.71,-655.14 734.13,-654.66 736.14,-661.37"/>
</g>
<!-- Node27 -->
<g id="node27" class="node">
<title>Node27</title>
<g id="a_node27"><a xlink:href="pb__decode_8c.html#a1dd25c1621de36f7de14a3b9ba2c532d" target="_top" xlink:title=" ">
<polygon fill="white" stroke="black" points="746.5,-599 746.5,-618 814.5,-618 814.5,-599 746.5,-599"/>
<text text-anchor="middle" x="780.5" y="-606" font-family="Helvetica,sans-Serif" font-size="10.00">pb_field_init</text>
</a>
</g>
</g>
<!-- Node5&#45;&gt;Node27 -->
<g id="edge38" class="edge">
<title>Node5&#45;&gt;Node27</title>
<path fill="none" stroke="midnightblue" d="M615.11,-712.87C631.7,-693.77 671.59,-650.9 714,-627.5 721,-623.64 728.86,-620.49 736.64,-617.95"/>
<polygon fill="midnightblue" stroke="midnightblue" points="737.8,-621.26 746.39,-615.05 735.8,-614.55 737.8,-621.26"/>
</g>
<!-- Node7 -->
<g id="node7" class="node">
<title>Node7</title>
<g id="a_node7"><a xlink:href="pb__decode_8c.html#a7c09905fda4c6398697bcf0d42882c04" target="_top" xlink:title=" ">
<polygon fill="white" stroke="black" points="883,-865 883,-884 1016,-884 1016,-865 883,-865"/>
<text text-anchor="middle" x="949.5" y="-872" font-family="Helvetica,sans-Serif" font-size="10.00">default_extension_decoder</text>
</a>
</g>
</g>
<!-- Node6&#45;&gt;Node7 -->
<g id="edge6" class="edge">
<title>Node6&#45;&gt;Node7</title>
<path fill="none" stroke="midnightblue" d="M828.02,-874.5C841.82,-874.5 857.31,-874.5 872.47,-874.5"/>
<polygon fill="midnightblue" stroke="midnightblue" points="872.89,-878 882.89,-874.5 872.89,-871 872.89,-878"/>
</g>
<!-- Node7&#45;&gt;Node8 -->
<g id="edge7" class="edge">
<title>Node7&#45;&gt;Node8</title>
<path fill="none" stroke="midnightblue" d="M1016.17,-874.5C1031.86,-874.5 1048.25,-874.5 1062.74,-874.5"/>
<polygon fill="midnightblue" stroke="midnightblue" points="1062.92,-878 1072.92,-874.5 1062.92,-871 1062.92,-878"/>
</g>
<!-- Node9 -->
<g id="node9" class="node">
<title>Node9</title>
<g id="a_node9"><a xlink:href="pb__decode_8c.html#a69a78d2efcd4b9057215ac8b79a5eb2b" target="_top" xlink:title=" ">
<polygon fill="white" stroke="black" points="1201,-827 1201,-846 1314,-846 1314,-827 1201,-827"/>
<text text-anchor="middle" x="1257.5" y="-834" font-family="Helvetica,sans-Serif" font-size="10.00">decode_callback_field</text>
</a>
</g>
</g>
<!-- Node8&#45;&gt;Node9 -->
<g id="edge8" class="edge">
<title>Node8&#45;&gt;Node9</title>
<path fill="none" stroke="midnightblue" d="M1144.34,-865.49C1163.91,-860.44 1188.59,-854.06 1209.81,-848.57"/>
<polygon fill="midnightblue" stroke="midnightblue" points="1210.8,-851.93 1219.6,-846.04 1209.05,-845.15 1210.8,-851.93"/>
</g>
<!-- Node21 -->
<g id="node21" class="node">
<title>Node21</title>
<g id="a_node21"><a xlink:href="pb__decode_8c.html#af65dd063304df2ed380dc411bb6caae6" target="_top" xlink:title=" ">
<polygon fill="white" stroke="black" points="1204.5,-865 1204.5,-884 1310.5,-884 1310.5,-865 1204.5,-865"/>
<text text-anchor="middle" x="1257.5" y="-872" font-family="Helvetica,sans-Serif" font-size="10.00">decode_pointer_field</text>
</a>
</g>
</g>
<!-- Node8&#45;&gt;Node21 -->
<g id="edge25" class="edge">
<title>Node8&#45;&gt;Node21</title>
<path fill="none" stroke="midnightblue" d="M1144.34,-874.5C1159.17,-874.5 1176.95,-874.5 1193.92,-874.5"/>
<polygon fill="midnightblue" stroke="midnightblue" points="1194.36,-878 1204.36,-874.5 1194.36,-871 1194.36,-878"/>
</g>
<!-- Node22 -->
<g id="node22" class="node">
<title>Node22</title>
<g id="a_node22"><a xlink:href="pb__decode_8c.html#a02c14bf9763a469e0414bf9a1eb13632" target="_top" xlink:title=" ">
<polygon fill="white" stroke="black" points="1207,-903 1207,-922 1308,-922 1308,-903 1207,-903"/>
<text text-anchor="middle" x="1257.5" y="-910" font-family="Helvetica,sans-Serif" font-size="10.00">decode_static_field</text>
</a>
</g>
</g>
<!-- Node8&#45;&gt;Node22 -->
<g id="edge28" class="edge">
<title>Node8&#45;&gt;Node22</title>
<path fill="none" stroke="midnightblue" d="M1144.34,-883.51C1163.91,-888.56 1188.59,-894.94 1209.81,-900.43"/>
<polygon fill="midnightblue" stroke="midnightblue" points="1209.05,-903.85 1219.6,-902.96 1210.8,-897.07 1209.05,-903.85"/>
</g>
<!-- Node10 -->
<g id="node10" class="node">
<title>Node10</title>
<g id="a_node10"><a xlink:href="pb__decode_8c.html#ac0a84ef26be0f3bf894deaee63e5114c" target="_top" xlink:title=" ">
<polygon fill="white" stroke="black" points="1350.5,-865 1350.5,-884 1486.5,-884 1486.5,-865 1350.5,-865"/>
<text text-anchor="middle" x="1418.5" y="-872" font-family="Helvetica,sans-Serif" font-size="10.00">pb_close_string_substream</text>
</a>
</g>
</g>
<!-- Node9&#45;&gt;Node10 -->
<g id="edge9" class="edge">
<title>Node9&#45;&gt;Node10</title>
<path fill="none" stroke="midnightblue" d="M1298.62,-846.09C1319.6,-851.1 1345.48,-857.29 1367.73,-862.61"/>
<polygon fill="midnightblue" stroke="midnightblue" points="1367.13,-866.06 1377.67,-864.98 1368.75,-859.25 1367.13,-866.06"/>
</g>
<!-- Node9&#45;&gt;Node11 -->
<g id="edge10" class="edge">
<title>Node9&#45;&gt;Node11</title>
<path fill="none" stroke="midnightblue" d="M1266.6,-826.82C1291.9,-796.59 1369.69,-703.64 1402.57,-664.34"/>
<polygon fill="midnightblue" stroke="midnightblue" points="1405.49,-666.31 1409.22,-656.39 1400.12,-661.81 1405.49,-666.31"/>
</g>
<!-- Node13 -->
<g id="node13" class="node">
<title>Node13</title>
<g id="a_node13"><a xlink:href="pb__decode_8c.html#a7433fc394255932c4f00274e7f890721" target="_top" xlink:title=" ">
<polygon fill="white" stroke="black" points="1350,-903 1350,-922 1487,-922 1487,-903 1350,-903"/>
<text text-anchor="middle" x="1418.5" y="-910" font-family="Helvetica,sans-Serif" font-size="10.00">pb_make_string_substream</text>
</a>
</g>
</g>
<!-- Node9&#45;&gt;Node13 -->
<g id="edge12" class="edge">
<title>Node9&#45;&gt;Node13</title>
<path fill="none" stroke="midnightblue" d="M1294.61,-846.02C1301.33,-848.57 1308.09,-851.7 1314,-855.5 1333.57,-868.08 1330.09,-881.47 1350,-893.5 1353.58,-895.66 1357.41,-897.58 1361.36,-899.29"/>
<polygon fill="midnightblue" stroke="midnightblue" points="1360.15,-902.58 1370.74,-902.91 1362.66,-896.04 1360.15,-902.58"/>
</g>
<!-- Node9&#45;&gt;Node16 -->
<g id="edge15" class="edge">
<title>Node9&#45;&gt;Node16</title>
<path fill="none" stroke="midnightblue" d="M1278.64,-826.87C1306.35,-813.63 1356.44,-789.69 1388.28,-774.47"/>
<polygon fill="midnightblue" stroke="midnightblue" points="1390.01,-777.52 1397.53,-770.05 1386.99,-771.2 1390.01,-777.52"/>
</g>
<!-- Node20 -->
<g id="node20" class="node">
<title>Node20</title>
<g id="a_node20"><a xlink:href="pb__decode_8c.html#a3f23856ca4723854f204b46d5f10c3ec" target="_top" xlink:title=" ">
<polygon fill="white" stroke="black" points="1523,-827 1523,-846 1608,-846 1608,-827 1523,-827"/>
<text text-anchor="middle" x="1565.5" y="-834" font-family="Helvetica,sans-Serif" font-size="10.00">read_raw_value</text>
</a>
</g>
</g>
<!-- Node9&#45;&gt;Node20 -->
<g id="edge23" class="edge">
<title>Node9&#45;&gt;Node20</title>
<path fill="none" stroke="midnightblue" d="M1314.27,-836.5C1370.79,-836.5 1457.53,-836.5 1512.62,-836.5"/>
<polygon fill="midnightblue" stroke="midnightblue" points="1512.86,-840 1522.86,-836.5 1512.86,-833 1512.86,-840"/>
</g>
<!-- Node12 -->
<g id="node12" class="node">
<title>Node12</title>
<g id="a_node12"><a xlink:href="pb__decode_8c.html#a9746f7244f9d14b2a095ddfcad55febe" target="_top" xlink:title=" ">
<polygon fill="white" stroke="black" points="1792,-675 1792,-694 1846,-694 1846,-675 1792,-675"/>
<text text-anchor="middle" x="1819" y="-682" font-family="Helvetica,sans-Serif" font-size="10.00">buf_read</text>
</a>
</g>
</g>
<!-- Node11&#45;&gt;Node12 -->
<g id="edge11" class="edge">
<title>Node11&#45;&gt;Node12</title>
<path fill="none" stroke="midnightblue" d="M1478.3,-652.11C1561.91,-660.08 1712.65,-674.45 1781.68,-681.04"/>
<polygon fill="midnightblue" stroke="midnightblue" points="1781.36,-684.52 1791.65,-681.99 1782.03,-677.55 1781.36,-684.52"/>
</g>
<!-- Node14 -->
<g id="node14" class="node">
<title>Node14</title>
<g id="a_node14"><a xlink:href="pb__decode_8c.html#abef49f760a21798e59538eec4aea23c2" target="_top" xlink:title=" ">
<polygon fill="white" stroke="black" points="1644,-789 1644,-808 1748,-808 1748,-789 1644,-789"/>
<text text-anchor="middle" x="1696" y="-796" font-family="Helvetica,sans-Serif" font-size="10.00">pb_decode_varint32</text>
</a>
</g>
</g>
<!-- Node13&#45;&gt;Node14 -->
<g id="edge13" class="edge">
<title>Node13&#45;&gt;Node14</title>
<path fill="none" stroke="midnightblue" d="M1454.24,-902.93C1464.78,-899.98 1476.38,-896.66 1487,-893.5 1541.02,-877.42 1557.05,-879.62 1608,-855.5 1632.18,-844.05 1657.52,-826.76 1674.57,-814.23"/>
<polygon fill="midnightblue" stroke="midnightblue" points="1676.77,-816.95 1682.68,-808.16 1672.58,-811.35 1676.77,-816.95"/>
</g>
<!-- Node15 -->
<g id="node15" class="node">
<title>Node15</title>
<g id="a_node15"><a xlink:href="pb__decode_8c.html#a13d38bcceb0a06bfc8c4c9c6da0f7258" target="_top" xlink:title=" ">
<polygon fill="white" stroke="black" points="1784,-789 1784,-808 1854,-808 1854,-789 1784,-789"/>
<text text-anchor="middle" x="1819" y="-796" font-family="Helvetica,sans-Serif" font-size="10.00">pb_readbyte</text>
</a>
</g>
</g>
<!-- Node14&#45;&gt;Node15 -->
<g id="edge14" class="edge">
<title>Node14&#45;&gt;Node15</title>
<path fill="none" stroke="midnightblue" d="M1748.31,-798.5C1756.74,-798.5 1765.41,-798.5 1773.64,-798.5"/>
<polygon fill="midnightblue" stroke="midnightblue" points="1773.79,-802 1783.79,-798.5 1773.79,-795 1773.79,-802"/>
</g>
<!-- Node17 -->
<g id="node17" class="node">
<title>Node17</title>
<g id="a_node17"><a xlink:href="pb__decode_8c.html#ad54a52168427208d756087919ff82d41" target="_top" xlink:title=" ">
<polygon fill="white" stroke="black" points="1670.5,-713 1670.5,-732 1721.5,-732 1721.5,-713 1670.5,-713"/>
<text text-anchor="middle" x="1696" y="-720" font-family="Helvetica,sans-Serif" font-size="10.00">pb_read</text>
</a>
</g>
</g>
<!-- Node16&#45;&gt;Node17 -->
<g id="edge16" class="edge">
<title>Node16&#45;&gt;Node17</title>
<path fill="none" stroke="midnightblue" d="M1455.8,-753.18C1475.6,-749.35 1500.59,-744.79 1523,-741.5 1570.41,-734.54 1625.51,-728.88 1660.32,-725.6"/>
<polygon fill="midnightblue" stroke="midnightblue" points="1660.8,-729.07 1670.43,-724.66 1660.15,-722.1 1660.8,-729.07"/>
</g>
<!-- Node18 -->
<g id="node18" class="node">
<title>Node18</title>
<g id="a_node18"><a xlink:href="pb__decode_8c.html#afa3e9c4da6d998fd6315d4cbd51b02e4" target="_top" xlink:title=" ">
<polygon fill="white" stroke="black" points="1525.5,-751 1525.5,-770 1605.5,-770 1605.5,-751 1525.5,-751"/>
<text text-anchor="middle" x="1565.5" y="-758" font-family="Helvetica,sans-Serif" font-size="10.00">pb_skip_string</text>
</a>
</g>
</g>
<!-- Node16&#45;&gt;Node18 -->
<g id="edge18" class="edge">
<title>Node16&#45;&gt;Node18</title>
<path fill="none" stroke="midnightblue" d="M1455.72,-760.5C1473.7,-760.5 1495.71,-760.5 1515.21,-760.5"/>
<polygon fill="midnightblue" stroke="midnightblue" points="1515.44,-764 1525.44,-760.5 1515.44,-757 1515.44,-764"/>
</g>
<!-- Node19 -->
<g id="node19" class="node">
<title>Node19</title>
<g id="a_node19"><a xlink:href="pb__decode_8c.html#a57738ceef4b30349437900b245a33c77" target="_top" xlink:title=" ">
<polygon fill="white" stroke="black" points="1525.5,-675 1525.5,-694 1605.5,-694 1605.5,-675 1525.5,-675"/>
<text text-anchor="middle" x="1565.5" y="-682" font-family="Helvetica,sans-Serif" font-size="10.00">pb_skip_varint</text>
</a>
</g>
</g>
<!-- Node16&#45;&gt;Node19 -->
<g id="edge21" class="edge">
<title>Node16&#45;&gt;Node19</title>
<path fill="none" stroke="midnightblue" d="M1437.86,-750.87C1462.92,-737.74 1508.03,-714.1 1537.09,-698.86"/>
<polygon fill="midnightblue" stroke="midnightblue" points="1539.05,-701.79 1546.28,-694.05 1535.8,-695.59 1539.05,-701.79"/>
</g>
<!-- Node17&#45;&gt;Node12 -->
<g id="edge17" class="edge">
<title>Node17&#45;&gt;Node12</title>
<path fill="none" stroke="midnightblue" d="M1721.78,-714.72C1739.09,-709.28 1762.48,-701.94 1781.86,-695.85"/>
<polygon fill="midnightblue" stroke="midnightblue" points="1783.09,-699.13 1791.58,-692.8 1780.99,-692.45 1783.09,-699.13"/>
</g>
<!-- Node18&#45;&gt;Node14 -->
<g id="edge19" class="edge">
<title>Node18&#45;&gt;Node14</title>
<path fill="none" stroke="midnightblue" d="M1598.93,-770.09C1615.21,-774.9 1635.14,-780.8 1652.62,-785.97"/>
<polygon fill="midnightblue" stroke="midnightblue" points="1652,-789.43 1662.58,-788.91 1653.99,-782.72 1652,-789.43"/>
</g>
<!-- Node18&#45;&gt;Node17 -->
<g id="edge20" class="edge">
<title>Node18&#45;&gt;Node17</title>
<path fill="none" stroke="midnightblue" d="M1598.93,-750.91C1617.71,-745.36 1641.34,-738.37 1660.47,-732.71"/>
<polygon fill="midnightblue" stroke="midnightblue" points="1661.69,-736 1670.29,-729.81 1659.71,-729.29 1661.69,-736"/>
</g>
<!-- Node19&#45;&gt;Node17 -->
<g id="edge22" class="edge">
<title>Node19&#45;&gt;Node17</title>
<path fill="none" stroke="midnightblue" d="M1598.93,-694.09C1617.71,-699.64 1641.34,-706.63 1660.47,-712.29"/>
<polygon fill="midnightblue" stroke="midnightblue" points="1659.71,-715.71 1670.29,-715.19 1661.69,-709 1659.71,-715.71"/>
</g>
<!-- Node20&#45;&gt;Node17 -->
<g id="edge24" class="edge">
<title>Node20&#45;&gt;Node17</title>
<path fill="none" stroke="midnightblue" d="M1577.46,-826.78C1599.46,-807.26 1649.23,-763.11 1676.41,-738.99"/>
<polygon fill="midnightblue" stroke="midnightblue" points="1678.91,-741.45 1684.07,-732.19 1674.27,-736.21 1678.91,-741.45"/>
</g>
<!-- Node21&#45;&gt;Node10 -->
<g id="edge26" class="edge">
<title>Node21&#45;&gt;Node10</title>
<path fill="none" stroke="midnightblue" d="M1310.56,-874.5C1320.07,-874.5 1330.18,-874.5 1340.24,-874.5"/>
<polygon fill="midnightblue" stroke="midnightblue" points="1340.26,-878 1350.26,-874.5 1340.26,-871 1340.26,-878"/>
</g>
<!-- Node21&#45;&gt;Node13 -->
<g id="edge27" class="edge">
<title>Node21&#45;&gt;Node13</title>
<path fill="none" stroke="midnightblue" d="M1298.62,-884.09C1319.6,-889.1 1345.48,-895.29 1367.73,-900.61"/>
<polygon fill="midnightblue" stroke="midnightblue" points="1367.13,-904.06 1377.67,-902.98 1368.75,-897.25 1367.13,-904.06"/>
</g>
<!-- Node22&#45;&gt;Node10 -->
<g id="edge29" class="edge">
<title>Node22&#45;&gt;Node10</title>
<path fill="none" stroke="midnightblue" d="M1298.62,-902.91C1319.6,-897.9 1345.48,-891.71 1367.73,-886.39"/>
<polygon fill="midnightblue" stroke="midnightblue" points="1368.75,-889.75 1377.67,-884.02 1367.13,-882.94 1368.75,-889.75"/>
</g>
<!-- Node22&#45;&gt;Node13 -->
<g id="edge30" class="edge">
<title>Node22&#45;&gt;Node13</title>
<path fill="none" stroke="midnightblue" d="M1308.37,-912.5C1318.31,-912.5 1328.97,-912.5 1339.59,-912.5"/>
<polygon fill="midnightblue" stroke="midnightblue" points="1339.74,-916 1349.74,-912.5 1339.74,-909 1339.74,-916"/>
</g>
<!-- Node23&#45;&gt;Node24 -->
<g id="edge33" class="edge">
<title>Node23&#45;&gt;Node24</title>
<path fill="none" stroke="midnightblue" d="M832.06,-678.75C854.44,-676.2 880.57,-673.23 902.4,-670.74"/>
<polygon fill="midnightblue" stroke="midnightblue" points="902.88,-674.21 912.42,-669.6 902.09,-667.26 902.88,-674.21"/>
</g>
<!-- Node25&#45;&gt;Node14 -->
<g id="edge35" class="edge">
<title>Node25&#45;&gt;Node14</title>
<path fill="none" stroke="midnightblue" d="M991.09,-798.5C1049.69,-798.5 1161.41,-798.5 1256.5,-798.5 1256.5,-798.5 1256.5,-798.5 1419.5,-798.5 1493.23,-798.5 1578.06,-798.5 1633.89,-798.5"/>
<polygon fill="midnightblue" stroke="midnightblue" points="1633.97,-802 1643.97,-798.5 1633.97,-795 1633.97,-802"/>
</g>
<!-- Node26&#45;&gt;Node24 -->
<g id="edge37" class="edge">
<title>Node26&#45;&gt;Node24</title>
<path fill="none" stroke="midnightblue" d="M816.1,-650.44C841.09,-653.28 875.11,-657.15 902.4,-660.26"/>
<polygon fill="midnightblue" stroke="midnightblue" points="902.17,-663.75 912.5,-661.4 902.96,-656.8 902.17,-663.75"/>
</g>
<!-- Node28&#45;&gt;Node24 -->
<g id="edge45" class="edge">
<title>Node28&#45;&gt;Node24</title>
<path fill="none" stroke="midnightblue" d="M678.25,-553.79C727.35,-557.5 793.18,-566.75 847,-589.5 880.53,-603.67 913.1,-631.25 931.95,-649"/>
<polygon fill="midnightblue" stroke="midnightblue" points="929.53,-651.52 939.16,-655.94 934.38,-646.48 929.53,-651.52"/>
</g>
<!-- Node28&#45;&gt;Node27 -->
<g id="edge44" class="edge">
<title>Node28&#45;&gt;Node27</title>
<path fill="none" stroke="midnightblue" d="M635.87,-561.04C664.61,-570.53 708.89,-585.17 740.68,-595.67"/>
<polygon fill="midnightblue" stroke="midnightblue" points="739.94,-599.11 750.53,-598.93 742.14,-592.47 739.94,-599.11"/>
</g>
<!-- Node29 -->
<g id="node29" class="node">
<title>Node29</title>
<g id="a_node29"><a xlink:href="pb__syshdr_8h.html#a39dc31816e18e5a0b48da2865a4b698c" target="_top" xlink:title=" ">
<polygon fill="white" stroke="black" points="753.5,-523 753.5,-542 807.5,-542 807.5,-523 753.5,-523"/>
<text text-anchor="middle" x="780.5" y="-530" font-family="Helvetica,sans-Serif" font-size="10.00">memcpy</text>
</a>
</g>
</g>
<!-- Node28&#45;&gt;Node29 -->
<g id="edge42" class="edge">
<title>Node28&#45;&gt;Node29</title>
<path fill="none" stroke="midnightblue" d="M678.16,-543.66C700.55,-541.2 724.35,-538.57 743.25,-536.49"/>
<polygon fill="midnightblue" stroke="midnightblue" points="743.65,-539.97 753.21,-535.4 742.89,-533.01 743.65,-539.97"/>
</g>
<!-- Node30 -->
<g id="node30" class="node">
<title>Node30</title>
<g id="a_node30"><a xlink:href="pb__syshdr_8h.html#aebca9679ad3da8a3bfe87d58959c7ca5" target="_top" xlink:title=" ">
<polygon fill="white" stroke="black" points="754.5,-485 754.5,-504 806.5,-504 806.5,-485 754.5,-485"/>
<text text-anchor="middle" x="780.5" y="-492" font-family="Helvetica,sans-Serif" font-size="10.00">memset</text>
</a>
</g>
</g>
<!-- Node28&#45;&gt;Node30 -->
<g id="edge43" class="edge">
<title>Node28&#45;&gt;Node30</title>
<path fill="none" stroke="midnightblue" d="M632.8,-541.86C654.38,-533.9 686.04,-522.51 714,-513.5 723.79,-510.35 734.47,-507.15 744.32,-504.29"/>
<polygon fill="midnightblue" stroke="midnightblue" points="745.55,-507.58 754.2,-501.46 743.62,-500.85 745.55,-507.58"/>
</g>
<!-- Node32 -->
<g id="node32" class="node">
<title>Node32</title>
<g id="a_node32"><a xlink:href="pb__encode_8c.html#af44dde5296bd546d99be35f15658af3e" target="_top" xlink:title=" ">
<polygon fill="white" stroke="black" points="405,-398 405,-417 469,-417 469,-398 405,-398"/>
<text text-anchor="middle" x="437" y="-405" font-family="Helvetica,sans-Serif" font-size="10.00">pb_encode</text>
</a>
</g>
</g>
<!-- Node31&#45;&gt;Node32 -->
<g id="edge48" class="edge">
<title>Node31&#45;&gt;Node32</title>
<path fill="none" stroke="midnightblue" d="M340.09,-407.5C358.92,-407.5 378.3,-407.5 394.68,-407.5"/>
<polygon fill="midnightblue" stroke="midnightblue" points="394.97,-411 404.97,-407.5 394.97,-404 394.97,-411"/>
</g>
<!-- Node44 -->
<g id="node41" class="node">
<title>Node44</title>
<g id="a_node41"><a xlink:href="pb__encode_8c.html#a52a102e2c3f0d96a08c1e62d5038092e" target="_top" xlink:title=" ">
<polygon fill="white" stroke="black" points="376,-347 376,-366 498,-366 498,-347 376,-347"/>
<text text-anchor="middle" x="437" y="-354" font-family="Helvetica,sans-Serif" font-size="10.00">pb_ostream_from_buffer</text>
</a>
</g>
</g>
<!-- Node31&#45;&gt;Node44 -->
<g id="edge60" class="edge">
<title>Node31&#45;&gt;Node44</title>
<path fill="none" stroke="midnightblue" d="M313.26,-392.47C338.9,-384.96 369.55,-375.98 393.81,-368.87"/>
<polygon fill="midnightblue" stroke="midnightblue" points="394.83,-372.21 403.44,-366.04 392.86,-365.5 394.83,-372.21"/>
</g>
<!-- Node33 -->
<g id="node33" class="node">
<title>Node33</title>
<g id="a_node33"><a xlink:href="pb__encode_8c.html#a0c789b04243dc72075c00744134546c3" target="_top" xlink:title=" ">
<polygon fill="white" stroke="black" points="546.5,-371 546.5,-390 665.5,-390 665.5,-371 546.5,-371"/>
<text text-anchor="middle" x="606" y="-378" font-family="Helvetica,sans-Serif" font-size="10.00">encode_extension_field</text>
</a>
</g>
</g>
<!-- Node32&#45;&gt;Node33 -->
<g id="edge49" class="edge">
<title>Node32&#45;&gt;Node33</title>
<path fill="none" stroke="midnightblue" d="M469.02,-402.48C488,-399.42 513.07,-395.36 536.51,-391.57"/>
<polygon fill="midnightblue" stroke="midnightblue" points="537.12,-395.02 546.43,-389.97 536,-388.11 537.12,-395.02"/>
</g>
<!-- Node35 -->
<g id="node35" class="node">
<title>Node35</title>
<g id="a_node35"><a xlink:href="pb__encode_8c.html#a8aa23313175c09e050e2acbc54a17bd4" target="_top" xlink:title=" ">
<polygon fill="white" stroke="black" points="914,-376 914,-395 985,-395 985,-376 914,-376"/>
<text text-anchor="middle" x="949.5" y="-383" font-family="Helvetica,sans-Serif" font-size="10.00">encode_field</text>
</a>
</g>
</g>
<!-- Node32&#45;&gt;Node35 -->
<g id="edge59" class="edge">
<title>Node32&#45;&gt;Node35</title>
<path fill="none" stroke="midnightblue" d="M469.1,-408.14C537.54,-409.26 706.28,-410.54 847,-399.5 865.68,-398.03 886.17,-395.4 903.82,-392.82"/>
<polygon fill="midnightblue" stroke="midnightblue" points="904.48,-396.26 913.85,-391.31 903.44,-389.34 904.48,-396.26"/>
</g>
<!-- Node34 -->
<g id="node34" class="node">
<title>Node34</title>
<g id="a_node34"><a xlink:href="pb__encode_8c.html#a3a12936f07ae378d68408c7bee72e3c0" target="_top" xlink:title=" ">
<polygon fill="white" stroke="black" points="714,-371 714,-390 847,-390 847,-371 714,-371"/>
<text text-anchor="middle" x="780.5" y="-378" font-family="Helvetica,sans-Serif" font-size="10.00">default_extension_encoder</text>
</a>
</g>
</g>
<!-- Node33&#45;&gt;Node34 -->
<g id="edge50" class="edge">
<title>Node33&#45;&gt;Node34</title>
<path fill="none" stroke="midnightblue" d="M665.88,-380.5C678.05,-380.5 691.03,-380.5 703.7,-380.5"/>
<polygon fill="midnightblue" stroke="midnightblue" points="703.78,-384 713.78,-380.5 703.78,-377 703.78,-384"/>
</g>
<!-- Node34&#45;&gt;Node35 -->
<g id="edge51" class="edge">
<title>Node34&#45;&gt;Node35</title>
<path fill="none" stroke="midnightblue" d="M847.02,-382.46C865.94,-383.03 886.15,-383.63 903.52,-384.15"/>
<polygon fill="midnightblue" stroke="midnightblue" points="903.82,-387.66 913.92,-384.46 904.03,-380.67 903.82,-387.66"/>
</g>
<!-- Node36 -->
<g id="node36" class="node">
<title>Node36</title>
<g id="a_node36"><a xlink:href="pb__encode_8c.html#a1f186424780069ab183fb7d2360d274e" target="_top" xlink:title=" ">
<polygon fill="white" stroke="black" points="1058.5,-395 1058.5,-414 1158.5,-414 1158.5,-395 1058.5,-395"/>
<text text-anchor="middle" x="1108.5" y="-402" font-family="Helvetica,sans-Serif" font-size="10.00">encode_basic_field</text>
</a>
</g>
</g>
<!-- Node35&#45;&gt;Node36 -->
<g id="edge52" class="edge">
<title>Node35&#45;&gt;Node36</title>
<path fill="none" stroke="midnightblue" d="M985.34,-389.72C1003.9,-391.96 1027.24,-394.79 1048.53,-397.36"/>
<polygon fill="midnightblue" stroke="midnightblue" points="1048.12,-400.84 1058.46,-398.57 1048.96,-393.89 1048.12,-400.84"/>
</g>
<!-- Node43 -->
<g id="node40" class="node">
<title>Node43</title>
<g id="a_node40"><a xlink:href="pb__encode_8c.html#aacffda1f85cad8e448a183dcc6c13559" target="_top" xlink:title=" ">
<polygon fill="white" stroke="black" points="1052,-357 1052,-376 1165,-376 1165,-357 1052,-357"/>
<text text-anchor="middle" x="1108.5" y="-364" font-family="Helvetica,sans-Serif" font-size="10.00">encode_callback_field</text>
</a>
</g>
</g>
<!-- Node35&#45;&gt;Node43 -->
<g id="edge58" class="edge">
<title>Node35&#45;&gt;Node43</title>
<path fill="none" stroke="midnightblue" d="M985.34,-381.28C1001.96,-379.27 1022.4,-376.8 1041.78,-374.45"/>
<polygon fill="midnightblue" stroke="midnightblue" points="1042.28,-377.92 1051.79,-373.24 1041.44,-370.97 1042.28,-377.92"/>
</g>
<!-- Node37 -->
<g id="node37" class="node">
<title>Node37</title>
<g id="a_node37"><a xlink:href="pb__encode_8c.html#afb8fc9e49589eaae694eff25c858a19c" target="_top" xlink:title=" ">
<polygon fill="white" stroke="red" points="1220,-404 1220,-423 1295,-423 1295,-404 1220,-404"/>
<text text-anchor="middle" x="1257.5" y="-411" font-family="Helvetica,sans-Serif" font-size="10.00">encode_array</text>
</a>
</g>
</g>
<!-- Node36&#45;&gt;Node37 -->
<g id="edge53" class="edge">
<title>Node36&#45;&gt;Node37</title>
<path fill="none" stroke="midnightblue" d="M1158.86,-407.52C1175.14,-408.52 1193.2,-409.62 1209.32,-410.61"/>
<polygon fill="midnightblue" stroke="midnightblue" points="1209.4,-414.12 1219.59,-411.24 1209.83,-407.14 1209.4,-414.12"/>
</g>
<!-- Node42 -->
<g id="node39" class="node">
<title>Node42</title>
<g id="a_node39"><a xlink:href="pb__encode_8c.html#a3e0f1ac29dce37f78220ecd6b9d21cba" target="_top" xlink:title=" ">
<polygon fill="white" stroke="black" points="1357.5,-366 1357.5,-385 1479.5,-385 1479.5,-366 1357.5,-366"/>
<text text-anchor="middle" x="1418.5" y="-373" font-family="Helvetica,sans-Serif" font-size="10.00">pb_encode_tag_for_field</text>
</a>
</g>
</g>
<!-- Node36&#45;&gt;Node42 -->
<g id="edge57" class="edge">
<title>Node36&#45;&gt;Node42</title>
<path fill="none" stroke="midnightblue" d="M1158.87,-398.91C1172.51,-397.42 1187.32,-395.85 1201,-394.5 1249.74,-389.7 1304.71,-384.88 1347.06,-381.3"/>
<polygon fill="midnightblue" stroke="midnightblue" points="1347.6,-384.77 1357.27,-380.44 1347.01,-377.79 1347.6,-384.77"/>
</g>
<!-- Node38 -->
<g id="node38" class="node">
<title>Node38</title>
<g id="a_node38"><a xlink:href="pb__encode_8c.html#acfbcc89e5e4355b8c263d6d4f2bc8c6f" target="_top" xlink:title=" ">
<polygon fill="white" stroke="red" points="1524,-385 1524,-404 1607,-404 1607,-385 1524,-385"/>
<text text-anchor="middle" x="1565.5" y="-392" font-family="Helvetica,sans-Serif" font-size="10.00">pb_encode_tag</text>
</a>
</g>
</g>
<!-- Node37&#45;&gt;Node38 -->
<g id="edge54" class="edge">
<title>Node37&#45;&gt;Node38</title>
<path fill="none" stroke="midnightblue" d="M1295.11,-411.23C1349.54,-407.85 1452.02,-401.48 1513.69,-397.65"/>
<polygon fill="midnightblue" stroke="midnightblue" points="1514.2,-401.13 1523.96,-397.02 1513.77,-394.14 1514.2,-401.13"/>
</g>
<!-- Node37&#45;&gt;Node42 -->
<g id="edge55" class="edge">
<title>Node37&#45;&gt;Node42</title>
<path fill="none" stroke="midnightblue" d="M1295.38,-404.69C1316.89,-399.55 1344.31,-392.99 1367.72,-387.4"/>
<polygon fill="midnightblue" stroke="midnightblue" points="1368.57,-390.79 1377.48,-385.06 1366.94,-383.98 1368.57,-390.79"/>
</g>
<!-- Node42&#45;&gt;Node38 -->
<g id="edge56" class="edge">
<title>Node42&#45;&gt;Node38</title>
<path fill="none" stroke="midnightblue" d="M1479.73,-383.39C1490.94,-384.86 1502.54,-386.38 1513.44,-387.81"/>
<polygon fill="midnightblue" stroke="midnightblue" points="1513.26,-391.32 1523.63,-389.14 1514.17,-384.38 1513.26,-391.32"/>
</g>
<!-- Node41 -->
<g id="node42" class="node">
<title>Node41</title>
<g id="a_node42"><a xlink:href="pb__encode_8c.html#aa987a466c397e7769605789cc0b22054" target="_top" xlink:title=" ">
<polygon fill="white" stroke="black" points="578,-333 578,-352 634,-352 634,-333 578,-333"/>
<text text-anchor="middle" x="606" y="-340" font-family="Helvetica,sans-Serif" font-size="10.00">buf_write</text>
</a>
</g>
</g>
<!-- Node44&#45;&gt;Node41 -->
<g id="edge61" class="edge">
<title>Node44&#45;&gt;Node41</title>
<path fill="none" stroke="midnightblue" d="M498.29,-351.45C521.52,-349.5 547.36,-347.33 567.79,-345.62"/>
<polygon fill="midnightblue" stroke="midnightblue" points="568.26,-349.09 577.94,-344.77 567.68,-342.12 568.26,-349.09"/>
</g>
</g>
</svg>
