<?xml version="1.0" encoding="UTF-8" standalone="no"?>
<!DOCTYPE svg PUBLIC "-//W3C//DTD SVG 1.1//EN"
 "http://www.w3.org/Graphics/SVG/1.1/DTD/svg11.dtd">
<!-- Generated by graphviz version 2.43.0 (0)
 -->
<!-- Title: KUKA::FRI::MonitoringMessageDecoder::MonitoringMessageDecoder Pages: 1 -->
<!--zoomable 180 -->
<svg id="main" version="1.1" xmlns="http://www.w3.org/2000/svg" xmlns:xlink="http://www.w3.org/1999/xlink" xml:space="preserve" onload="init(evt)">
<style type="text/css"><![CDATA[
.edge:hover path { stroke: red; }
.edge:hover polygon { stroke: red; fill: red; }
]]></style>
<script type="text/javascript"><![CDATA[
var edges = document.getElementsByTagName('g');
if (edges && edges.length) {
  for (var i=0;i<edges.length;i++) {
    if (edges[i].id.substr(0,4)=='edge') {
      edges[i].setAttribute('class','edge');
    }
  }
}
]]></script>
        <defs>
                <circle id="rim" cx="0" cy="0" r="7"/>
                <circle id="rim2" cx="0" cy="0" r="3.5"/>
                <g id="zoomPlus">
                        <use xlink:href="#rim" fill="#404040">
                                <set attributeName="fill" to="#808080" begin="zoomplus.mouseover" end="zoomplus.mouseout"/>
                        </use>
                        <path d="M-4,0h8M0,-4v8" fill="none" stroke="white" stroke-width="1.5" pointer-events="none"/>
                </g>
                <g id="zoomMin">
                        <use xlink:href="#rim" fill="#404040">
                                <set attributeName="fill" to="#808080" begin="zoomminus.mouseover" end="zoomminus.mouseout"/>
                        </use>
                        <path d="M-4,0h8" fill="none" stroke="white" stroke-width="1.5" pointer-events="none"/>
                </g>
                <g id="dirArrow">
                        <path fill="none" stroke="white" stroke-width="1.5" d="M0,-3.0v7 M-2.5,-0.5L0,-3.0L2.5,-0.5"/>
                </g>
               <g id="resetDef">
                       <use xlink:href="#rim2" fill="#404040">
                               <set attributeName="fill" to="#808080" begin="reset.mouseover" end="reset.mouseout"/>
                       </use>
               </g>
        </defs>

<script type="text/javascript">
var viewWidth = 1281;
var viewHeight = 180;
var sectionId = 'dynsection-1';
</script>
<script xlink:href="svgpan.js"/>
<svg id="graph" class="graph">
<g id="viewport">
<title>KUKA::FRI::MonitoringMessageDecoder::MonitoringMessageDecoder</title>
<polygon fill="white" stroke="transparent" points="-4,4 -4,-176 1277,-176 1277,4 -4,4"/>
<!-- Node1 -->
<g id="node1" class="node">
<title>Node1</title>
<g id="a_node1"><a xlink:title=" ">
<polygon fill="#bfbfbf" stroke="black" points="0,-76 0,-106 181,-106 181,-76 0,-76"/>
<text text-anchor="start" x="8" y="-94" font-family="Helvetica,sans-Serif" font-size="10.00">KUKA::FRI::MonitoringMessage</text>
<text text-anchor="middle" x="90.5" y="-83" font-family="Helvetica,sans-Serif" font-size="10.00">Decoder::MonitoringMessageDecoder</text>
</a>
</g>
</g>
<!-- Node2 -->
<g id="node2" class="node">
<title>Node2</title>
<g id="a_node2"><a xlink:href="class_k_u_k_a_1_1_f_r_i_1_1_monitoring_message_decoder.html#a5f7d8c50c6b2275a90ee8053eeeeda0a" target="_top" xlink:title=" ">
<polygon fill="white" stroke="black" points="217,-76 217,-106 375,-106 375,-76 217,-76"/>
<text text-anchor="start" x="225" y="-94" font-family="Helvetica,sans-Serif" font-size="10.00">KUKA::FRI::MonitoringMessage</text>
<text text-anchor="middle" x="296" y="-83" font-family="Helvetica,sans-Serif" font-size="10.00">Decoder::initMessage</text>
</a>
</g>
</g>
<!-- Node1&#45;&gt;Node2 -->
<g id="edge1" class="edge">
<title>Node1&#45;&gt;Node2</title>
<path fill="none" stroke="midnightblue" d="M181.05,-91C189.54,-91 198.15,-91 206.63,-91"/>
<polygon fill="midnightblue" stroke="midnightblue" points="206.89,-94.5 216.89,-91 206.89,-87.5 206.89,-94.5"/>
</g>
<!-- Node3 -->
<g id="node3" class="node">
<title>Node3</title>
<g id="a_node3"><a xlink:href="pb__frimessages__callbacks_8c.html#a5283f13633c8400371ab65d44d905901" target="_top" xlink:title=" ">
<polygon fill="white" stroke="black" points="411,-109.5 411,-128.5 520,-128.5 520,-109.5 411,-109.5"/>
<text text-anchor="middle" x="465.5" y="-116.5" font-family="Helvetica,sans-Serif" font-size="10.00">map_repeatedDouble</text>
</a>
</g>
</g>
<!-- Node2&#45;&gt;Node3 -->
<g id="edge2" class="edge">
<title>Node2&#45;&gt;Node3</title>
<path fill="none" stroke="midnightblue" d="M375.36,-104.1C383.83,-105.51 392.38,-106.94 400.65,-108.33"/>
<polygon fill="midnightblue" stroke="midnightblue" points="400.14,-111.79 410.58,-109.99 401.3,-104.89 400.14,-111.79"/>
</g>
<!-- Node15 -->
<g id="node15" class="node">
<title>Node15</title>
<g id="a_node15"><a xlink:href="pb__frimessages__callbacks_8c.html#a81a65250b51118ec352d28e397db9b6c" target="_top" xlink:title=" ">
<polygon fill="white" stroke="black" points="421,-62.5 421,-81.5 510,-81.5 510,-62.5 421,-62.5"/>
<text text-anchor="middle" x="465.5" y="-69.5" font-family="Helvetica,sans-Serif" font-size="10.00">map_repeatedInt</text>
</a>
</g>
</g>
<!-- Node2&#45;&gt;Node15 -->
<g id="edge15" class="edge">
<title>Node2&#45;&gt;Node15</title>
<path fill="none" stroke="midnightblue" d="M375.36,-82.11C387.35,-80.75 399.49,-79.37 410.79,-78.09"/>
<polygon fill="midnightblue" stroke="midnightblue" points="411.37,-81.55 420.91,-76.94 410.58,-74.59 411.37,-81.55"/>
</g>
<!-- Node4 -->
<g id="node4" class="node">
<title>Node4</title>
<g id="a_node4"><a xlink:href="pb__frimessages__callbacks_8c.html#ac9ec67cd47aed6ee622a420a41fa6540" target="_top" xlink:title=" ">
<polygon fill="white" stroke="black" points="556,-149.5 556,-168.5 678,-168.5 678,-149.5 556,-149.5"/>
<text text-anchor="middle" x="617" y="-156.5" font-family="Helvetica,sans-Serif" font-size="10.00">decode_repeatedDouble</text>
</a>
</g>
</g>
<!-- Node3&#45;&gt;Node4 -->
<g id="edge3" class="edge">
<title>Node3&#45;&gt;Node4</title>
<path fill="none" stroke="midnightblue" d="M502.31,-128.58C522.83,-134.07 548.79,-141.02 570.72,-146.89"/>
<polygon fill="midnightblue" stroke="midnightblue" points="569.92,-150.29 580.48,-149.5 571.73,-143.53 569.92,-150.29"/>
</g>
<!-- Node8 -->
<g id="node8" class="node">
<title>Node8</title>
<g id="a_node8"><a xlink:href="pb__frimessages__callbacks_8c.html#a3841575aaa517c808aeba5ab3e4f4e48" target="_top" xlink:title=" ">
<polygon fill="white" stroke="black" points="556,-109.5 556,-128.5 678,-128.5 678,-109.5 556,-109.5"/>
<text text-anchor="middle" x="617" y="-116.5" font-family="Helvetica,sans-Serif" font-size="10.00">encode_repeatedDouble</text>
</a>
</g>
</g>
<!-- Node3&#45;&gt;Node8 -->
<g id="edge7" class="edge">
<title>Node3&#45;&gt;Node8</title>
<path fill="none" stroke="midnightblue" d="M520.05,-119C528.42,-119 537.18,-119 545.85,-119"/>
<polygon fill="midnightblue" stroke="midnightblue" points="545.97,-122.5 555.97,-119 545.97,-115.5 545.97,-122.5"/>
</g>
<!-- Node5 -->
<g id="node5" class="node">
<title>Node5</title>
<g id="a_node5"><a xlink:href="pb__decode_8c.html#abdd5881d0bc42df1a78d46f487065681" target="_top" xlink:title=" ">
<polygon fill="white" stroke="black" points="724.5,-152.5 724.5,-171.5 825.5,-171.5 825.5,-152.5 724.5,-152.5"/>
<text text-anchor="middle" x="775" y="-159.5" font-family="Helvetica,sans-Serif" font-size="10.00">pb_decode_fixed64</text>
</a>
</g>
</g>
<!-- Node4&#45;&gt;Node5 -->
<g id="edge4" class="edge">
<title>Node4&#45;&gt;Node5</title>
<path fill="none" stroke="midnightblue" d="M678.31,-160.16C690.12,-160.39 702.49,-160.62 714.28,-160.85"/>
<polygon fill="midnightblue" stroke="midnightblue" points="714.39,-164.35 724.45,-161.05 714.52,-157.36 714.39,-164.35"/>
</g>
<!-- Node6 -->
<g id="node6" class="node">
<title>Node6</title>
<g id="a_node6"><a xlink:href="pb__decode_8c.html#ad54a52168427208d756087919ff82d41" target="_top" xlink:title=" ">
<polygon fill="white" stroke="black" points="888,-152.5 888,-171.5 939,-171.5 939,-152.5 888,-152.5"/>
<text text-anchor="middle" x="913.5" y="-159.5" font-family="Helvetica,sans-Serif" font-size="10.00">pb_read</text>
</a>
</g>
</g>
<!-- Node5&#45;&gt;Node6 -->
<g id="edge5" class="edge">
<title>Node5&#45;&gt;Node6</title>
<path fill="none" stroke="midnightblue" d="M825.67,-162C842.88,-162 861.81,-162 877.59,-162"/>
<polygon fill="midnightblue" stroke="midnightblue" points="877.95,-165.5 887.95,-162 877.95,-158.5 877.95,-165.5"/>
</g>
<!-- Node7 -->
<g id="node7" class="node">
<title>Node7</title>
<g id="a_node7"><a xlink:href="pb__decode_8c.html#a9746f7244f9d14b2a095ddfcad55febe" target="_top" xlink:title=" ">
<polygon fill="white" stroke="black" points="1014.5,-152.5 1014.5,-171.5 1068.5,-171.5 1068.5,-152.5 1014.5,-152.5"/>
<text text-anchor="middle" x="1041.5" y="-159.5" font-family="Helvetica,sans-Serif" font-size="10.00">buf_read</text>
</a>
</g>
</g>
<!-- Node6&#45;&gt;Node7 -->
<g id="edge6" class="edge">
<title>Node6&#45;&gt;Node7</title>
<path fill="none" stroke="midnightblue" d="M939.09,-162C957.6,-162 983.25,-162 1004.12,-162"/>
<polygon fill="midnightblue" stroke="midnightblue" points="1004.23,-165.5 1014.23,-162 1004.23,-158.5 1004.23,-165.5"/>
</g>
<!-- Node9 -->
<g id="node9" class="node">
<title>Node9</title>
<g id="a_node9"><a xlink:href="pb__encode_8c.html#ae61c01d23aaa60452a9f5d01e9a17833" target="_top" xlink:title=" ">
<polygon fill="white" stroke="black" points="991,-114.5 991,-133.5 1092,-133.5 1092,-114.5 991,-114.5"/>
<text text-anchor="middle" x="1041.5" y="-121.5" font-family="Helvetica,sans-Serif" font-size="10.00">pb_encode_fixed64</text>
</a>
</g>
</g>
<!-- Node8&#45;&gt;Node9 -->
<g id="edge8" class="edge">
<title>Node8&#45;&gt;Node9</title>
<path fill="none" stroke="midnightblue" d="M678.09,-119.71C758.43,-120.66 900.04,-122.34 980.39,-123.29"/>
<polygon fill="midnightblue" stroke="midnightblue" points="980.8,-126.79 990.84,-123.41 980.88,-119.79 980.8,-126.79"/>
</g>
<!-- Node12 -->
<g id="node12" class="node">
<title>Node12</title>
<g id="a_node12"><a xlink:href="pb__encode_8c.html#a3e0f1ac29dce37f78220ecd6b9d21cba" target="_top" xlink:title=" ">
<polygon fill="white" stroke="black" points="714,-76.5 714,-95.5 836,-95.5 836,-76.5 714,-76.5"/>
<text text-anchor="middle" x="775" y="-83.5" font-family="Helvetica,sans-Serif" font-size="10.00">pb_encode_tag_for_field</text>
</a>
</g>
</g>
<!-- Node8&#45;&gt;Node12 -->
<g id="edge11" class="edge">
<title>Node8&#45;&gt;Node12</title>
<path fill="none" stroke="midnightblue" d="M663.12,-109.46C680.58,-105.76 700.74,-101.5 719.04,-97.63"/>
<polygon fill="midnightblue" stroke="midnightblue" points="719.92,-101.02 728.98,-95.52 718.47,-94.17 719.92,-101.02"/>
</g>
<!-- Node10 -->
<g id="node10" class="node">
<title>Node10</title>
<g id="a_node10"><a xlink:href="pb__encode_8c.html#a6f8d972fa4a439724532f0bcc07de81d" target="_top" xlink:title=" ">
<polygon fill="white" stroke="black" points="1128,-95.5 1128,-114.5 1181,-114.5 1181,-95.5 1128,-95.5"/>
<text text-anchor="middle" x="1154.5" y="-102.5" font-family="Helvetica,sans-Serif" font-size="10.00">pb_write</text>
</a>
</g>
</g>
<!-- Node9&#45;&gt;Node10 -->
<g id="edge9" class="edge">
<title>Node9&#45;&gt;Node10</title>
<path fill="none" stroke="midnightblue" d="M1092.16,-115.5C1100.84,-114.01 1109.72,-112.49 1117.93,-111.09"/>
<polygon fill="midnightblue" stroke="midnightblue" points="1118.64,-114.52 1127.9,-109.38 1117.45,-107.62 1118.64,-114.52"/>
</g>
<!-- Node11 -->
<g id="node11" class="node">
<title>Node11</title>
<g id="a_node11"><a xlink:href="pb__encode_8c.html#aa987a466c397e7769605789cc0b22054" target="_top" xlink:title=" ">
<polygon fill="white" stroke="black" points="1217,-95.5 1217,-114.5 1273,-114.5 1273,-95.5 1217,-95.5"/>
<text text-anchor="middle" x="1245" y="-102.5" font-family="Helvetica,sans-Serif" font-size="10.00">buf_write</text>
</a>
</g>
</g>
<!-- Node10&#45;&gt;Node11 -->
<g id="edge10" class="edge">
<title>Node10&#45;&gt;Node11</title>
<path fill="none" stroke="midnightblue" d="M1181.1,-105C1189.08,-105 1198.06,-105 1206.68,-105"/>
<polygon fill="midnightblue" stroke="midnightblue" points="1206.92,-108.5 1216.92,-105 1206.92,-101.5 1206.92,-108.5"/>
</g>
<!-- Node13 -->
<g id="node13" class="node">
<title>Node13</title>
<g id="a_node13"><a xlink:href="pb__encode_8c.html#acfbcc89e5e4355b8c263d6d4f2bc8c6f" target="_top" xlink:title=" ">
<polygon fill="white" stroke="black" points="872,-76.5 872,-95.5 955,-95.5 955,-76.5 872,-76.5"/>
<text text-anchor="middle" x="913.5" y="-83.5" font-family="Helvetica,sans-Serif" font-size="10.00">pb_encode_tag</text>
</a>
</g>
</g>
<!-- Node12&#45;&gt;Node13 -->
<g id="edge12" class="edge">
<title>Node12&#45;&gt;Node13</title>
<path fill="none" stroke="midnightblue" d="M836.27,-86C844.7,-86 853.31,-86 861.55,-86"/>
<polygon fill="midnightblue" stroke="midnightblue" points="861.75,-89.5 871.75,-86 861.75,-82.5 861.75,-89.5"/>
</g>
<!-- Node14 -->
<g id="node14" class="node">
<title>Node14</title>
<g id="a_node14"><a xlink:href="pb__encode_8c.html#a568e2eb180774ef4e07de89508edb52b" target="_top" xlink:title=" ">
<polygon fill="white" stroke="black" points="995,-76.5 995,-95.5 1088,-95.5 1088,-76.5 995,-76.5"/>
<text text-anchor="middle" x="1041.5" y="-83.5" font-family="Helvetica,sans-Serif" font-size="10.00">pb_encode_varint</text>
</a>
</g>
</g>
<!-- Node13&#45;&gt;Node14 -->
<g id="edge13" class="edge">
<title>Node13&#45;&gt;Node14</title>
<path fill="none" stroke="midnightblue" d="M955.06,-86C964.46,-86 974.62,-86 984.55,-86"/>
<polygon fill="midnightblue" stroke="midnightblue" points="984.77,-89.5 994.77,-86 984.77,-82.5 984.77,-89.5"/>
</g>
<!-- Node14&#45;&gt;Node10 -->
<g id="edge14" class="edge">
<title>Node14&#45;&gt;Node10</title>
<path fill="none" stroke="midnightblue" d="M1088.29,-93.84C1098.09,-95.52 1108.32,-97.27 1117.68,-98.87"/>
<polygon fill="midnightblue" stroke="midnightblue" points="1117.38,-102.37 1127.82,-100.6 1118.56,-95.47 1117.38,-102.37"/>
</g>
<!-- Node16 -->
<g id="node16" class="node">
<title>Node16</title>
<g id="a_node16"><a xlink:href="pb__frimessages__callbacks_8c.html#a73c0b03ce19bcaebfb2c5956739c255c" target="_top" xlink:title=" ">
<polygon fill="white" stroke="black" points="566,-19.5 566,-38.5 668,-38.5 668,-19.5 566,-19.5"/>
<text text-anchor="middle" x="617" y="-26.5" font-family="Helvetica,sans-Serif" font-size="10.00">decode_repeatedInt</text>
</a>
</g>
</g>
<!-- Node15&#45;&gt;Node16 -->
<g id="edge16" class="edge">
<title>Node15&#45;&gt;Node16</title>
<path fill="none" stroke="midnightblue" d="M499.68,-62.46C521.36,-56.22 549.87,-48.02 573.25,-41.3"/>
<polygon fill="midnightblue" stroke="midnightblue" points="574.27,-44.64 582.91,-38.52 572.34,-37.92 574.27,-44.64"/>
</g>
<!-- Node19 -->
<g id="node19" class="node">
<title>Node19</title>
<g id="a_node19"><a xlink:href="pb__frimessages__callbacks_8c.html#aca260ceb4ad963a7f5f6282ceaf17f2b" target="_top" xlink:title=" ">
<polygon fill="white" stroke="black" points="566,-62.5 566,-81.5 668,-81.5 668,-62.5 566,-62.5"/>
<text text-anchor="middle" x="617" y="-69.5" font-family="Helvetica,sans-Serif" font-size="10.00">encode_repeatedInt</text>
</a>
</g>
</g>
<!-- Node15&#45;&gt;Node19 -->
<g id="edge19" class="edge">
<title>Node15&#45;&gt;Node19</title>
<path fill="none" stroke="midnightblue" d="M510.14,-72C524.36,-72 540.4,-72 555.62,-72"/>
<polygon fill="midnightblue" stroke="midnightblue" points="555.99,-75.5 565.99,-72 555.99,-68.5 555.99,-75.5"/>
</g>
<!-- Node17 -->
<g id="node17" class="node">
<title>Node17</title>
<g id="a_node17"><a xlink:href="pb__decode_8c.html#a47bde3dca6b389ba0d58b1f0a7dad7c4" target="_top" xlink:title=" ">
<polygon fill="white" stroke="black" points="728.5,-0.5 728.5,-19.5 821.5,-19.5 821.5,-0.5 728.5,-0.5"/>
<text text-anchor="middle" x="775" y="-7.5" font-family="Helvetica,sans-Serif" font-size="10.00">pb_decode_varint</text>
</a>
</g>
</g>
<!-- Node16&#45;&gt;Node17 -->
<g id="edge17" class="edge">
<title>Node16&#45;&gt;Node17</title>
<path fill="none" stroke="midnightblue" d="M668.22,-22.88C684.22,-20.93 702.03,-18.77 718.39,-16.77"/>
<polygon fill="midnightblue" stroke="midnightblue" points="718.86,-20.24 728.37,-15.56 718.02,-13.29 718.86,-20.24"/>
</g>
<!-- Node18 -->
<g id="node18" class="node">
<title>Node18</title>
<g id="a_node18"><a xlink:href="pb__decode_8c.html#a13d38bcceb0a06bfc8c4c9c6da0f7258" target="_top" xlink:title=" ">
<polygon fill="white" stroke="black" points="878.5,-0.5 878.5,-19.5 948.5,-19.5 948.5,-0.5 878.5,-0.5"/>
<text text-anchor="middle" x="913.5" y="-7.5" font-family="Helvetica,sans-Serif" font-size="10.00">pb_readbyte</text>
</a>
</g>
</g>
<!-- Node17&#45;&gt;Node18 -->
<g id="edge18" class="edge">
<title>Node17&#45;&gt;Node18</title>
<path fill="none" stroke="midnightblue" d="M821.83,-10C836.67,-10 853.09,-10 867.83,-10"/>
<polygon fill="midnightblue" stroke="midnightblue" points="868.23,-13.5 878.23,-10 868.23,-6.5 868.23,-13.5"/>
</g>
<!-- Node19&#45;&gt;Node12 -->
<g id="edge20" class="edge">
<title>Node19&#45;&gt;Node12</title>
<path fill="none" stroke="midnightblue" d="M668.22,-76.51C679.56,-77.52 691.8,-78.62 703.8,-79.7"/>
<polygon fill="midnightblue" stroke="midnightblue" points="703.52,-83.19 713.79,-80.6 704.15,-76.22 703.52,-83.19"/>
</g>
<!-- Node19&#45;&gt;Node14 -->
<g id="edge21" class="edge">
<title>Node19&#45;&gt;Node14</title>
<path fill="none" stroke="midnightblue" d="M668.14,-67.39C734.14,-62.21 853.65,-55.87 955,-67 968.49,-68.48 982.97,-71.24 996.1,-74.2"/>
<polygon fill="midnightblue" stroke="midnightblue" points="995.31,-77.61 1005.85,-76.49 996.91,-70.8 995.31,-77.61"/>
</g>
</g>
</svg>
        <g id="navigator" transform="translate(0 0)" fill="#404254">
                <rect fill="#f2f5e9" fill-opacity="0.5" stroke="#606060" stroke-width=".5" x="0" y="0" width="60" height="60"/>
                <use id="zoomplus" xlink:href="#zoomPlus" x="17" y="9" onmousedown="handleZoom(evt,'in')"/>
                <use id="zoomminus" xlink:href="#zoomMin" x="42" y="9" onmousedown="handleZoom(evt,'out')"/>
                <use id="reset" xlink:href="#resetDef" x="30" y="36" onmousedown="handleReset()"/>
                <g id="arrowUp" xlink:href="#dirArrow" transform="translate(30 24)" onmousedown="handlePan(0,-1)">
                  <use xlink:href="#rim" fill="#404040">
                        <set attributeName="fill" to="#808080" begin="arrowUp.mouseover" end="arrowUp.mouseout"/>
                  </use>
                  <path fill="none" stroke="white" stroke-width="1.5" d="M0,-3.0v7 M-2.5,-0.5L0,-3.0L2.5,-0.5"/>
                </g>
                <g id="arrowRight" xlink:href="#dirArrow" transform="rotate(90) translate(36 -43)" onmousedown="handlePan(1,0)">
                  <use xlink:href="#rim" fill="#404040">
                        <set attributeName="fill" to="#808080" begin="arrowRight.mouseover" end="arrowRight.mouseout"/>
                  </use>
                  <path fill="none" stroke="white" stroke-width="1.5" d="M0,-3.0v7 M-2.5,-0.5L0,-3.0L2.5,-0.5"/>
                </g>
                <g id="arrowDown" xlink:href="#dirArrow" transform="rotate(180) translate(-30 -48)" onmousedown="handlePan(0,1)">
                  <use xlink:href="#rim" fill="#404040">
                        <set attributeName="fill" to="#808080" begin="arrowDown.mouseover" end="arrowDown.mouseout"/>
                  </use>
                  <path fill="none" stroke="white" stroke-width="1.5" d="M0,-3.0v7 M-2.5,-0.5L0,-3.0L2.5,-0.5"/>
                </g>
                <g id="arrowLeft" xlink:href="#dirArrow" transform="rotate(270) translate(-36 17)" onmousedown="handlePan(-1,0)">
                  <use xlink:href="#rim" fill="#404040">
                        <set attributeName="fill" to="#808080" begin="arrowLeft.mouseover" end="arrowLeft.mouseout"/>
                  </use>
                  <path fill="none" stroke="white" stroke-width="1.5" d="M0,-3.0v7 M-2.5,-0.5L0,-3.0L2.5,-0.5"/>
                </g>
        </g>
        <svg viewBox="0 0 15 15" width="100%" height="30px" preserveAspectRatio="xMaxYMin meet">
         <g id="arrow_out" transform="scale(0.3 0.3)">
          <a xlink:href="class_k_u_k_a_1_1_f_r_i_1_1_monitoring_message_decoder_a839c031de8bf792b17b612fc6ef91d05_cgraph_org.svg" target="_base">
           <rect id="button" ry="5" rx="5" y="6" x="6" height="38" width="38"
                fill="#f2f5e9" fill-opacity="0.5" stroke="#606060" stroke-width="1.0"/>
           <path id="arrow"
             d="M 11.500037,31.436501 C 11.940474,20.09759 22.043105,11.32322 32.158766,21.979434 L 37.068811,17.246167 C 37.068811,17.246167 37.088388,32 37.088388,32 L 22.160133,31.978069 C 22.160133,31.978069 26.997745,27.140456 26.997745,27.140456 C 18.528582,18.264221 13.291696,25.230495 11.500037,31.436501 z"
             style="fill:#404040;"/>
          </a>
         </g>
        </svg>
</svg>
