<?xml version="1.0" encoding="UTF-8" standalone="no"?>
<!DOCTYPE svg PUBLIC "-//W3C//DTD SVG 1.1//EN"
 "http://www.w3.org/Graphics/SVG/1.1/DTD/svg11.dtd">
<!-- Generated by graphviz version 2.43.0 (0)
 -->
<!-- Title: KUKA::FRI::LBRClient Pages: 1 -->
<svg width="447pt" height="180pt"
 viewBox="0.00 0.00 447.00 180.00" xmlns="http://www.w3.org/2000/svg" xmlns:xlink="http://www.w3.org/1999/xlink">
<g id="graph0" class="graph" transform="scale(1 1) rotate(0) translate(4 176)">
<title>KUKA::FRI::LBRClient</title>
<polygon fill="white" stroke="transparent" points="-4,4 -4,-176 443,-176 443,4 -4,4"/>
<!-- Node1 -->
<g id="node1" class="node">
<title>Node1</title>
<g id="a_node1"><a xlink:title="Implementation of the IClient interface for the KUKA LBR (lightweight) robots.">
<polygon fill="#bfbfbf" stroke="black" points="137,-76.5 137,-95.5 255,-95.5 255,-76.5 137,-76.5"/>
<text text-anchor="middle" x="196" y="-83.5" font-family="Helvetica,sans-Serif" font-size="10.00">KUKA::FRI::LBRClient</text>
</a>
</g>
</g>
<!-- Node3 -->
<g id="node3" class="node">
<title>Node3</title>
<g id="a_node3"><a xlink:href="class_i_o_access_client.html" target="_top" xlink:title="Example client for Fieldbus access.">
<polygon fill="white" stroke="black" points="322,-152.5 322,-171.5 408,-171.5 408,-152.5 322,-152.5"/>
<text text-anchor="middle" x="365" y="-159.5" font-family="Helvetica,sans-Serif" font-size="10.00">IOAccessClient</text>
</a>
</g>
</g>
<!-- Node1&#45;&gt;Node3 -->
<g id="edge2" class="edge">
<title>Node1&#45;&gt;Node3</title>
<path fill="none" stroke="midnightblue" d="M218.3,-101.39C236.75,-114.11 264.56,-131.83 291,-143 300.77,-147.13 311.67,-150.55 322,-153.29"/>
<polygon fill="midnightblue" stroke="midnightblue" points="220.23,-98.48 210.04,-95.6 216.22,-104.21 220.23,-98.48"/>
</g>
<!-- Node4 -->
<g id="node4" class="node">
<title>Node4</title>
<g id="a_node4"><a xlink:href="class_l_b_r_joint_sine_overlay_client.html" target="_top" xlink:title="Test client that can overlay interpolator joint positions with sine waves.">
<polygon fill="white" stroke="black" points="297,-114.5 297,-133.5 433,-133.5 433,-114.5 297,-114.5"/>
<text text-anchor="middle" x="365" y="-121.5" font-family="Helvetica,sans-Serif" font-size="10.00">LBRJointSineOverlayClient</text>
</a>
</g>
</g>
<!-- Node1&#45;&gt;Node4 -->
<g id="edge3" class="edge">
<title>Node1&#45;&gt;Node4</title>
<path fill="none" stroke="midnightblue" d="M248.96,-97.82C272.51,-103.18 299.97,-109.43 322.16,-114.48"/>
<polygon fill="midnightblue" stroke="midnightblue" points="249.67,-94.4 239.14,-95.59 248.12,-101.22 249.67,-94.4"/>
</g>
<!-- Node5 -->
<g id="node5" class="node">
<title>Node5</title>
<g id="a_node5"><a xlink:href="class_l_b_r_torque_sine_overlay_client.html" target="_top" xlink:title="Test client that superposes joint torques with sine waves.">
<polygon fill="white" stroke="black" points="293,-76.5 293,-95.5 437,-95.5 437,-76.5 293,-76.5"/>
<text text-anchor="middle" x="365" y="-83.5" font-family="Helvetica,sans-Serif" font-size="10.00">LBRTorqueSineOverlayClient</text>
</a>
</g>
</g>
<!-- Node1&#45;&gt;Node5 -->
<g id="edge4" class="edge">
<title>Node1&#45;&gt;Node5</title>
<path fill="none" stroke="midnightblue" d="M265.51,-86C274.58,-86 283.88,-86 292.98,-86"/>
<polygon fill="midnightblue" stroke="midnightblue" points="265.41,-82.5 255.41,-86 265.41,-89.5 265.41,-82.5"/>
</g>
<!-- Node6 -->
<g id="node6" class="node">
<title>Node6</title>
<g id="a_node6"><a xlink:href="class_l_b_r_wrench_sine_overlay_client.html" target="_top" xlink:title="Test client that can overlay interpolator joint positions with sine waves.">
<polygon fill="white" stroke="black" points="291,-38.5 291,-57.5 439,-57.5 439,-38.5 291,-38.5"/>
<text text-anchor="middle" x="365" y="-45.5" font-family="Helvetica,sans-Serif" font-size="10.00">LBRWrenchSineOverlayClient</text>
</a>
</g>
</g>
<!-- Node1&#45;&gt;Node6 -->
<g id="edge5" class="edge">
<title>Node1&#45;&gt;Node6</title>
<path fill="none" stroke="midnightblue" d="M248.96,-74.18C272.51,-68.82 299.97,-62.57 322.16,-57.52"/>
<polygon fill="midnightblue" stroke="midnightblue" points="248.12,-70.78 239.14,-76.41 249.67,-77.6 248.12,-70.78"/>
</g>
<!-- Node7 -->
<g id="node7" class="node">
<title>Node7</title>
<g id="a_node7"><a xlink:href="class_my_l_b_r_client.html" target="_top" xlink:title="Template client implementation.">
<polygon fill="white" stroke="black" points="327.5,-0.5 327.5,-19.5 402.5,-19.5 402.5,-0.5 327.5,-0.5"/>
<text text-anchor="middle" x="365" y="-7.5" font-family="Helvetica,sans-Serif" font-size="10.00">MyLBRClient</text>
</a>
</g>
</g>
<!-- Node1&#45;&gt;Node7 -->
<g id="edge6" class="edge">
<title>Node1&#45;&gt;Node7</title>
<path fill="none" stroke="midnightblue" d="M218.3,-70.61C236.75,-57.89 264.56,-40.17 291,-29 302.46,-24.16 315.47,-20.29 327.3,-17.35"/>
<polygon fill="midnightblue" stroke="midnightblue" points="216.22,-67.79 210.04,-76.4 220.23,-73.52 216.22,-67.79"/>
</g>
<!-- Node2 -->
<g id="node2" class="node">
<title>Node2</title>
<g id="a_node2"><a xlink:href="class_k_u_k_a_1_1_f_r_i_1_1_i_client.html" target="_top" xlink:title="FRI client interface.">
<polygon fill="white" stroke="black" points="0,-76.5 0,-95.5 101,-95.5 101,-76.5 0,-76.5"/>
<text text-anchor="middle" x="50.5" y="-83.5" font-family="Helvetica,sans-Serif" font-size="10.00">KUKA::FRI::IClient</text>
</a>
</g>
</g>
<!-- Node2&#45;&gt;Node1 -->
<g id="edge1" class="edge">
<title>Node2&#45;&gt;Node1</title>
<path fill="none" stroke="midnightblue" d="M111.43,-86C119.87,-86 128.52,-86 136.92,-86"/>
<polygon fill="midnightblue" stroke="midnightblue" points="111.29,-82.5 101.29,-86 111.29,-89.5 111.29,-82.5"/>
</g>
</g>
</svg>
