<?xml version="1.0" encoding="UTF-8" standalone="no"?>
<!DOCTYPE svg PUBLIC "-//W3C//DTD SVG 1.1//EN"
 "http://www.w3.org/Graphics/SVG/1.1/DTD/svg11.dtd">
<!-- Generated by graphviz version 2.43.0 (0)
 -->
<!-- Title: MyLBRClient::monitor Pages: 1 -->
<svg width="538pt" height="137pt"
 viewBox="0.00 0.00 538.00 137.00" xmlns="http://www.w3.org/2000/svg" xmlns:xlink="http://www.w3.org/1999/xlink">
<g id="graph0" class="graph" transform="scale(1 1) rotate(0) translate(4 133)">
<title>MyLBRClient::monitor</title>
<polygon fill="white" stroke="transparent" points="-4,4 -4,-133 534,-133 534,4 -4,4"/>
<!-- Node1 -->
<g id="node1" class="node">
<title>Node1</title>
<g id="a_node1"><a xlink:title="Callback for the FRI session states &#39;Monitoring Wait&#39; and &#39;Monitoring Ready&#39;.">
<polygon fill="#bfbfbf" stroke="black" points="0,-55 0,-74 113,-74 113,-55 0,-55"/>
<text text-anchor="middle" x="56.5" y="-62" font-family="Helvetica,sans-Serif" font-size="10.00">MyLBRClient::monitor</text>
</a>
</g>
</g>
<!-- Node2 -->
<g id="node2" class="node">
<title>Node2</title>
<g id="a_node2"><a xlink:href="class_k_u_k_a_1_1_f_r_i_1_1_l_b_r_client.html#a11c4e9df043726944c8b1da6b426934e" target="_top" xlink:title="Callback for the FRI session states &#39;Monitoring Wait&#39; and &#39;Monitoring Ready&#39;.">
<polygon fill="white" stroke="black" points="149,-49.5 149,-79.5 267,-79.5 267,-49.5 149,-49.5"/>
<text text-anchor="start" x="157" y="-67.5" font-family="Helvetica,sans-Serif" font-size="10.00">KUKA::FRI::LBRClient</text>
<text text-anchor="middle" x="208" y="-56.5" font-family="Helvetica,sans-Serif" font-size="10.00">::monitor</text>
</a>
</g>
</g>
<!-- Node1&#45;&gt;Node2 -->
<g id="edge1" class="edge">
<title>Node1&#45;&gt;Node2</title>
<path fill="none" stroke="midnightblue" d="M113.17,-64.5C121.43,-64.5 130.03,-64.5 138.52,-64.5"/>
<polygon fill="midnightblue" stroke="midnightblue" points="138.78,-68 148.78,-64.5 138.78,-61 138.78,-68"/>
</g>
<!-- Node3 -->
<g id="node3" class="node">
<title>Node3</title>
<g id="a_node3"><a xlink:href="class_k_u_k_a_1_1_f_r_i_1_1_l_b_r_client.html#aa6dcd610503f9c67153ffeb5d3fab203" target="_top" xlink:title="Provide write access to the robot commands.">
<polygon fill="white" stroke="black" points="312.5,-98.5 312.5,-128.5 430.5,-128.5 430.5,-98.5 312.5,-98.5"/>
<text text-anchor="start" x="320.5" y="-116.5" font-family="Helvetica,sans-Serif" font-size="10.00">KUKA::FRI::LBRClient</text>
<text text-anchor="middle" x="371.5" y="-105.5" font-family="Helvetica,sans-Serif" font-size="10.00">::robotCommand</text>
</a>
</g>
</g>
<!-- Node2&#45;&gt;Node3 -->
<g id="edge2" class="edge">
<title>Node2&#45;&gt;Node3</title>
<path fill="none" stroke="midnightblue" d="M258.77,-79.6C275.28,-84.61 293.81,-90.23 310.97,-95.44"/>
<polygon fill="midnightblue" stroke="midnightblue" points="310.31,-98.89 320.89,-98.45 312.34,-92.2 310.31,-98.89"/>
</g>
<!-- Node4 -->
<g id="node4" class="node">
<title>Node4</title>
<g id="a_node4"><a xlink:href="class_k_u_k_a_1_1_f_r_i_1_1_l_b_r_client.html#af99433aa6795f9b6764b0fb539188e6d" target="_top" xlink:title="Provide read access to the current robot state.">
<polygon fill="white" stroke="black" points="312.5,-49.5 312.5,-79.5 430.5,-79.5 430.5,-49.5 312.5,-49.5"/>
<text text-anchor="start" x="320.5" y="-67.5" font-family="Helvetica,sans-Serif" font-size="10.00">KUKA::FRI::LBRClient</text>
<text text-anchor="middle" x="371.5" y="-56.5" font-family="Helvetica,sans-Serif" font-size="10.00">::robotState</text>
</a>
</g>
</g>
<!-- Node2&#45;&gt;Node4 -->
<g id="edge3" class="edge">
<title>Node2&#45;&gt;Node4</title>
<path fill="none" stroke="midnightblue" d="M267.31,-64.5C278.63,-64.5 290.59,-64.5 302.19,-64.5"/>
<polygon fill="midnightblue" stroke="midnightblue" points="302.28,-68 312.28,-64.5 302.28,-61 302.28,-68"/>
</g>
<!-- Node5 -->
<g id="node5" class="node">
<title>Node5</title>
<g id="a_node5"><a xlink:href="class_k_u_k_a_1_1_f_r_i_1_1_l_b_r_command.html#af250c07674fc06147243c8ce481709f6" target="_top" xlink:title="Set the joint positions for the current interpolation step.">
<polygon fill="white" stroke="black" points="303,-0.5 303,-30.5 440,-30.5 440,-0.5 303,-0.5"/>
<text text-anchor="start" x="311" y="-18.5" font-family="Helvetica,sans-Serif" font-size="10.00">KUKA::FRI::LBRCommand</text>
<text text-anchor="middle" x="371.5" y="-7.5" font-family="Helvetica,sans-Serif" font-size="10.00">::setJointPosition</text>
</a>
</g>
</g>
<!-- Node2&#45;&gt;Node5 -->
<g id="edge4" class="edge">
<title>Node2&#45;&gt;Node5</title>
<path fill="none" stroke="midnightblue" d="M258.77,-49.4C275.28,-44.39 293.81,-38.77 310.97,-33.56"/>
<polygon fill="midnightblue" stroke="midnightblue" points="312.34,-36.8 320.89,-30.55 310.31,-30.11 312.34,-36.8"/>
</g>
<!-- Node6 -->
<g id="node6" class="node">
<title>Node6</title>
<g id="a_node6"><a xlink:href="pb__syshdr_8h.html#a39dc31816e18e5a0b48da2865a4b698c" target="_top" xlink:title=" ">
<polygon fill="white" stroke="black" points="476,-6 476,-25 530,-25 530,-6 476,-6"/>
<text text-anchor="middle" x="503" y="-13" font-family="Helvetica,sans-Serif" font-size="10.00">memcpy</text>
</a>
</g>
</g>
<!-- Node5&#45;&gt;Node6 -->
<g id="edge5" class="edge">
<title>Node5&#45;&gt;Node6</title>
<path fill="none" stroke="midnightblue" d="M440.28,-15.5C449.05,-15.5 457.74,-15.5 465.71,-15.5"/>
<polygon fill="midnightblue" stroke="midnightblue" points="465.73,-19 475.73,-15.5 465.73,-12 465.73,-19"/>
</g>
</g>
</svg>
