<?xml version="1.0" encoding="UTF-8" standalone="no"?>
<!DOCTYPE svg PUBLIC "-//W3C//DTD SVG 1.1//EN"
 "http://www.w3.org/Graphics/SVG/1.1/DTD/svg11.dtd">
<!-- Generated by graphviz version 2.43.0 (0)
 -->
<!-- Title: KUKA::FRI::MonitoringMessageDecoder Pages: 1 -->
<svg width="1150pt" height="387pt"
 viewBox="0.00 0.00 1150.00 387.00" xmlns="http://www.w3.org/2000/svg" xmlns:xlink="http://www.w3.org/1999/xlink">
<g id="graph0" class="graph" transform="scale(1 1) rotate(0) translate(4 383)">
<title>KUKA::FRI::MonitoringMessageDecoder</title>
<polygon fill="white" stroke="transparent" points="-4,4 -4,-383 1146,-383 1146,4 -4,4"/>
<!-- Node1 -->
<g id="node1" class="node">
<title>Node1</title>
<g id="a_node1"><a xlink:title=" ">
<polygon fill="#bfbfbf" stroke="black" points="984,-195 984,-225 1142,-225 1142,-195 984,-195"/>
<text text-anchor="start" x="992" y="-213" font-family="Helvetica,sans-Serif" font-size="10.00">KUKA::FRI::MonitoringMessage</text>
<text text-anchor="middle" x="1063" y="-202" font-family="Helvetica,sans-Serif" font-size="10.00">Decoder</text>
</a>
</g>
</g>
<!-- Node2 -->
<g id="node2" class="node">
<title>Node2</title>
<g id="a_node2"><a xlink:href="struct_k_u_k_a_1_1_f_r_i_1_1_monitoring_message_decoder_1_1_local_monitoring_data_container.html" target="_top" xlink:title=" ">
<polygon fill="white" stroke="black" points="672,-270 672,-300 863,-300 863,-270 672,-270"/>
<text text-anchor="start" x="680" y="-288" font-family="Helvetica,sans-Serif" font-size="10.00">KUKA::FRI::MonitoringMessage</text>
<text text-anchor="middle" x="767.5" y="-277" font-family="Helvetica,sans-Serif" font-size="10.00">Decoder::LocalMonitoringDataContainer</text>
</a>
</g>
</g>
<!-- Node2&#45;&gt;Node1 -->
<g id="edge1" class="edge">
<title>Node2&#45;&gt;Node1</title>
<path fill="none" stroke="#9a32cd" stroke-dasharray="5,2" d="M837.37,-267.4C887.69,-254.54 955.21,-237.29 1003.05,-225.06"/>
<polygon fill="#9a32cd" stroke="#9a32cd" points="836.36,-264.05 827.54,-269.91 838.1,-270.83 836.36,-264.05"/>
<text text-anchor="middle" x="923.5" y="-257" font-family="Helvetica,sans-Serif" font-size="10.00"> m_tSendContainer</text>
</g>
<!-- Node3 -->
<g id="node3" class="node">
<title>Node3</title>
<g id="a_node3"><a xlink:href="structrepeated_double_arguments.html" target="_top" xlink:title=" ">
<polygon fill="white" stroke="black" points="387,-313.5 387,-332.5 519,-332.5 519,-313.5 387,-313.5"/>
<text text-anchor="middle" x="453" y="-320.5" font-family="Helvetica,sans-Serif" font-size="10.00">repeatedDoubleArguments</text>
</a>
</g>
</g>
<!-- Node3&#45;&gt;Node2 -->
<g id="edge2" class="edge">
<title>Node3&#45;&gt;Node2</title>
<path fill="none" stroke="#9a32cd" stroke-dasharray="5,2" d="M529.66,-314.62C567.09,-310.4 612.94,-305.1 654,-300 659.87,-299.27 665.9,-298.51 671.99,-297.73"/>
<polygon fill="#9a32cd" stroke="#9a32cd" points="528.89,-311.19 519.34,-315.79 529.67,-318.15 528.89,-311.19"/>
<text text-anchor="middle" x="595.5" y="-371" font-family="Helvetica,sans-Serif" font-size="10.00"> m_AxQCmdIPO</text>
<text text-anchor="middle" x="595.5" y="-360" font-family="Helvetica,sans-Serif" font-size="10.00">m_AxQCmdT1mLocal</text>
<text text-anchor="middle" x="595.5" y="-349" font-family="Helvetica,sans-Serif" font-size="10.00">m_AxQMsrLocal</text>
<text text-anchor="middle" x="595.5" y="-338" font-family="Helvetica,sans-Serif" font-size="10.00">m_AxTauCmdLocal</text>
<text text-anchor="middle" x="595.5" y="-327" font-family="Helvetica,sans-Serif" font-size="10.00">m_AxTauExtMsrLocal</text>
<text text-anchor="middle" x="595.5" y="-316" font-family="Helvetica,sans-Serif" font-size="10.00">m_AxTauMsrLocal</text>
</g>
<!-- Node4 -->
<g id="node4" class="node">
<title>Node4</title>
<g id="a_node4"><a xlink:href="structrepeated_int_arguments.html" target="_top" xlink:title=" ">
<polygon fill="white" stroke="black" points="396.5,-275.5 396.5,-294.5 509.5,-294.5 509.5,-275.5 396.5,-275.5"/>
<text text-anchor="middle" x="453" y="-282.5" font-family="Helvetica,sans-Serif" font-size="10.00">repeatedIntArguments</text>
</a>
</g>
</g>
<!-- Node4&#45;&gt;Node2 -->
<g id="edge3" class="edge">
<title>Node4&#45;&gt;Node2</title>
<path fill="none" stroke="#9a32cd" stroke-dasharray="5,2" d="M519.55,-285C563.75,-285 622.74,-285 671.99,-285"/>
<polygon fill="#9a32cd" stroke="#9a32cd" points="519.51,-281.5 509.51,-285 519.51,-288.5 519.51,-281.5"/>
<text text-anchor="middle" x="595.5" y="-288" font-family="Helvetica,sans-Serif" font-size="10.00"> m_AxDriveStateLocal</text>
</g>
<!-- Node5 -->
<g id="node5" class="node">
<title>Node5</title>
<g id="a_node5"><a xlink:href="struct___f_r_i_monitoring_message.html" target="_top" xlink:title=" ">
<polygon fill="white" stroke="black" points="706,-143.5 706,-162.5 829,-162.5 829,-143.5 706,-143.5"/>
<text text-anchor="middle" x="767.5" y="-150.5" font-family="Helvetica,sans-Serif" font-size="10.00">_FRIMonitoringMessage</text>
</a>
</g>
</g>
<!-- Node5&#45;&gt;Node1 -->
<g id="edge4" class="edge">
<title>Node5&#45;&gt;Node1</title>
<path fill="none" stroke="#9a32cd" stroke-dasharray="5,2" d="M827.56,-164.47C872.71,-173.24 935.35,-185.4 984.52,-194.95"/>
<polygon fill="#9a32cd" stroke="#9a32cd" points="828.11,-161.01 817.63,-162.54 826.77,-167.88 828.11,-161.01"/>
<text text-anchor="middle" x="923.5" y="-192" font-family="Helvetica,sans-Serif" font-size="10.00"> m_pMessage</text>
</g>
<!-- Node6 -->
<g id="node6" class="node">
<title>Node6</title>
<g id="a_node6"><a xlink:href="struct___message_header.html" target="_top" xlink:title=" ">
<polygon fill="white" stroke="black" points="406.5,-237.5 406.5,-256.5 499.5,-256.5 499.5,-237.5 406.5,-237.5"/>
<text text-anchor="middle" x="453" y="-244.5" font-family="Helvetica,sans-Serif" font-size="10.00">_MessageHeader</text>
</a>
</g>
</g>
<!-- Node6&#45;&gt;Node5 -->
<g id="edge5" class="edge">
<title>Node6&#45;&gt;Node5</title>
<path fill="none" stroke="#9a32cd" stroke-dasharray="5,2" d="M509.53,-242.39C550.34,-237.86 606.68,-229.16 654,-213 691.5,-200.19 731.56,-175.96 752.27,-162.54"/>
<polygon fill="#9a32cd" stroke="#9a32cd" points="509.08,-238.92 499.51,-243.46 509.82,-245.88 509.08,-238.92"/>
<text text-anchor="middle" x="595.5" y="-241" font-family="Helvetica,sans-Serif" font-size="10.00"> header</text>
</g>
<!-- Node7 -->
<g id="node7" class="node">
<title>Node7</title>
<g id="a_node7"><a xlink:href="struct___message_monitor_data.html" target="_top" xlink:title=" ">
<polygon fill="white" stroke="black" points="395.5,-161.5 395.5,-180.5 510.5,-180.5 510.5,-161.5 395.5,-161.5"/>
<text text-anchor="middle" x="453" y="-168.5" font-family="Helvetica,sans-Serif" font-size="10.00">_MessageMonitorData</text>
</a>
</g>
</g>
<!-- Node7&#45;&gt;Node5 -->
<g id="edge6" class="edge">
<title>Node7&#45;&gt;Node5</title>
<path fill="none" stroke="#9a32cd" stroke-dasharray="5,2" d="M520.91,-167.15C575.75,-163.99 652.71,-159.55 705.79,-156.5"/>
<polygon fill="#9a32cd" stroke="#9a32cd" points="520.37,-163.67 510.59,-167.74 520.78,-170.66 520.37,-163.67"/>
<text text-anchor="middle" x="595.5" y="-169" font-family="Helvetica,sans-Serif" font-size="10.00"> monitorData</text>
</g>
<!-- Node8 -->
<g id="node8" class="node">
<title>Node8</title>
<g id="a_node8"><a xlink:href="struct___time_stamp.html" target="_top" xlink:title=" ">
<polygon fill="white" stroke="black" points="166,-259.5 166,-278.5 238,-278.5 238,-259.5 166,-259.5"/>
<text text-anchor="middle" x="202" y="-266.5" font-family="Helvetica,sans-Serif" font-size="10.00">_TimeStamp</text>
</a>
</g>
</g>
<!-- Node8&#45;&gt;Node7 -->
<g id="edge7" class="edge">
<title>Node8&#45;&gt;Node7</title>
<path fill="none" stroke="#9a32cd" stroke-dasharray="5,2" d="M235.47,-255.86C242.19,-253.39 249.28,-250.97 256,-249 305.27,-234.56 328.21,-256.18 369,-225 382.9,-214.38 373.51,-201.14 387,-190 391.71,-186.11 397.2,-183.01 402.94,-180.55"/>
<polygon fill="#9a32cd" stroke="#9a32cd" points="234.07,-252.65 225.96,-259.47 236.55,-259.19 234.07,-252.65"/>
<text text-anchor="middle" x="312.5" y="-252" font-family="Helvetica,sans-Serif" font-size="10.00"> timestamp</text>
</g>
<!-- Node13 -->
<g id="node13" class="node">
<title>Node13</title>
<g id="a_node13"><a xlink:href="struct___transformation.html" target="_top" xlink:title=" ">
<polygon fill="white" stroke="black" points="409.5,-199.5 409.5,-218.5 496.5,-218.5 496.5,-199.5 409.5,-199.5"/>
<text text-anchor="middle" x="453" y="-206.5" font-family="Helvetica,sans-Serif" font-size="10.00">_Transformation</text>
</a>
</g>
</g>
<!-- Node8&#45;&gt;Node13 -->
<g id="edge14" class="edge">
<title>Node8&#45;&gt;Node13</title>
<path fill="none" stroke="#9a32cd" stroke-dasharray="5,2" d="M248.16,-278.58C283.74,-283.58 333.15,-284.63 369,-262 383.46,-252.87 373.75,-238.81 387,-228 393.47,-222.72 401.35,-218.91 409.36,-216.16"/>
<polygon fill="#9a32cd" stroke="#9a32cd" points="248.48,-275.09 238.06,-277.01 247.4,-282.01 248.48,-275.09"/>
<text text-anchor="middle" x="312.5" y="-284" font-family="Helvetica,sans-Serif" font-size="10.00"> timestamp</text>
</g>
<!-- Node9 -->
<g id="node9" class="node">
<title>Node9</title>
<g id="a_node9"><a xlink:href="struct___fri_i_o_value.html" target="_top" xlink:title=" ">
<polygon fill="white" stroke="black" points="168,-206.5 168,-225.5 236,-225.5 236,-206.5 168,-206.5"/>
<text text-anchor="middle" x="202" y="-213.5" font-family="Helvetica,sans-Serif" font-size="10.00">_FriIOValue</text>
</a>
</g>
</g>
<!-- Node9&#45;&gt;Node7 -->
<g id="edge8" class="edge">
<title>Node9&#45;&gt;Node7</title>
<path fill="none" stroke="#9a32cd" stroke-dasharray="5,2" d="M246.27,-211.93C279.93,-208.36 327.7,-202.42 369,-194 386.58,-190.42 405.92,-185.14 421.5,-180.54"/>
<polygon fill="#9a32cd" stroke="#9a32cd" points="245.88,-208.45 236.3,-212.96 246.6,-215.41 245.88,-208.45"/>
<text text-anchor="middle" x="312.5" y="-213" font-family="Helvetica,sans-Serif" font-size="10.00"> readIORequest</text>
</g>
<!-- Node10 -->
<g id="node10" class="node">
<title>Node10</title>
<g id="a_node10"><a xlink:href="struct___joint_values.html" target="_top" xlink:title=" ">
<polygon fill="white" stroke="black" points="166,-99.5 166,-118.5 238,-118.5 238,-99.5 166,-99.5"/>
<text text-anchor="middle" x="202" y="-106.5" font-family="Helvetica,sans-Serif" font-size="10.00">_JointValues</text>
</a>
</g>
</g>
<!-- Node10&#45;&gt;Node7 -->
<g id="edge9" class="edge">
<title>Node10&#45;&gt;Node7</title>
<path fill="none" stroke="#9a32cd" stroke-dasharray="5,2" d="M248.25,-115.41C295.52,-122.21 363.57,-132.34 369,-135 378.88,-139.85 377.45,-146.53 387,-152 393.63,-155.8 401.08,-158.9 408.51,-161.4"/>
<polygon fill="#9a32cd" stroke="#9a32cd" points="248.61,-111.93 238.22,-113.97 247.62,-118.86 248.61,-111.93"/>
<text text-anchor="middle" x="312.5" y="-182" font-family="Helvetica,sans-Serif" font-size="10.00"> commandedJointPosition</text>
<text text-anchor="middle" x="312.5" y="-171" font-family="Helvetica,sans-Serif" font-size="10.00">commandedTorque</text>
<text text-anchor="middle" x="312.5" y="-160" font-family="Helvetica,sans-Serif" font-size="10.00">externalTorque</text>
<text text-anchor="middle" x="312.5" y="-149" font-family="Helvetica,sans-Serif" font-size="10.00">measuredJointPosition</text>
<text text-anchor="middle" x="312.5" y="-138" font-family="Helvetica,sans-Serif" font-size="10.00">measuredTorque</text>
</g>
<!-- Node17 -->
<g id="node17" class="node">
<title>Node17</title>
<g id="a_node17"><a xlink:href="struct___message_ipo_data.html" target="_top" xlink:title=" ">
<polygon fill="white" stroke="black" points="405,-123.5 405,-142.5 501,-142.5 501,-123.5 405,-123.5"/>
<text text-anchor="middle" x="453" y="-130.5" font-family="Helvetica,sans-Serif" font-size="10.00">_MessageIpoData</text>
</a>
</g>
</g>
<!-- Node10&#45;&gt;Node17 -->
<g id="edge19" class="edge">
<title>Node10&#45;&gt;Node17</title>
<path fill="none" stroke="#9a32cd" stroke-dasharray="5,2" d="M248.21,-103.4C281.76,-100.33 328.52,-98.36 369,-105 380.18,-106.83 406.46,-116.02 426.48,-123.38"/>
<polygon fill="#9a32cd" stroke="#9a32cd" points="247.85,-99.92 238.24,-104.38 248.53,-106.89 247.85,-99.92"/>
<text text-anchor="middle" x="312.5" y="-108" font-family="Helvetica,sans-Serif" font-size="10.00"> jointPosition</text>
</g>
<!-- Node11 -->
<g id="node11" class="node">
<title>Node11</title>
<g id="a_node11"><a xlink:href="struct__pb__callback__t.html" target="_top" xlink:title=" ">
<polygon fill="white" stroke="black" points="0,-78.5 0,-97.5 82,-97.5 82,-78.5 0,-78.5"/>
<text text-anchor="middle" x="41" y="-85.5" font-family="Helvetica,sans-Serif" font-size="10.00">_pb_callback_t</text>
</a>
</g>
</g>
<!-- Node11&#45;&gt;Node10 -->
<g id="edge10" class="edge">
<title>Node11&#45;&gt;Node10</title>
<path fill="none" stroke="#9a32cd" stroke-dasharray="5,2" d="M92.1,-94.62C116.03,-97.78 144.11,-101.49 165.76,-104.35"/>
<polygon fill="#9a32cd" stroke="#9a32cd" points="92.49,-91.14 82.12,-93.3 91.58,-98.08 92.49,-91.14"/>
<text text-anchor="middle" x="124" y="-104" font-family="Helvetica,sans-Serif" font-size="10.00"> value</text>
</g>
<!-- Node12 -->
<g id="node12" class="node">
<title>Node12</title>
<g id="a_node12"><a xlink:href="struct___robot_info.html" target="_top" xlink:title=" ">
<polygon fill="white" stroke="black" points="280,-61.5 280,-80.5 345,-80.5 345,-61.5 280,-61.5"/>
<text text-anchor="middle" x="312.5" y="-68.5" font-family="Helvetica,sans-Serif" font-size="10.00">_RobotInfo</text>
</a>
</g>
</g>
<!-- Node11&#45;&gt;Node12 -->
<g id="edge12" class="edge">
<title>Node11&#45;&gt;Node12</title>
<path fill="none" stroke="#9a32cd" stroke-dasharray="5,2" d="M92.3,-81.7C94.9,-81.45 97.48,-81.21 100,-81 163.74,-75.65 238.54,-72.96 279.92,-71.78"/>
<polygon fill="#9a32cd" stroke="#9a32cd" points="91.79,-78.24 82.21,-82.76 92.52,-85.2 91.79,-78.24"/>
<text text-anchor="middle" x="124" y="-84" font-family="Helvetica,sans-Serif" font-size="10.00"> driveState</text>
</g>
<!-- Node12&#45;&gt;Node5 -->
<g id="edge11" class="edge">
<title>Node12&#45;&gt;Node5</title>
<path fill="none" stroke="#9a32cd" stroke-dasharray="5,2" d="M355.29,-76.95C396.88,-83 462.48,-92.9 519,-103 590.42,-115.77 672.94,-132.92 722.35,-143.46"/>
<polygon fill="#9a32cd" stroke="#9a32cd" points="355.66,-73.46 345.26,-75.49 354.65,-80.39 355.66,-73.46"/>
<text text-anchor="middle" x="453" y="-106" font-family="Helvetica,sans-Serif" font-size="10.00"> robotInfo</text>
</g>
<!-- Node13&#45;&gt;Node5 -->
<g id="edge13" class="edge">
<title>Node13&#45;&gt;Node5</title>
<path fill="none" stroke="#9a32cd" stroke-dasharray="5,2" d="M506.91,-203.13C547.38,-198.26 604.45,-190.61 654,-181 680.48,-175.87 710.06,-168.44 732.24,-162.52"/>
<polygon fill="#9a32cd" stroke="#9a32cd" points="506.26,-199.68 496.74,-204.33 507.08,-206.63 506.26,-199.68"/>
<text text-anchor="middle" x="595.5" y="-201" font-family="Helvetica,sans-Serif" font-size="10.00"> requestedTransformations</text>
</g>
<!-- Node14 -->
<g id="node14" class="node">
<title>Node14</title>
<g id="a_node14"><a xlink:href="struct___connection_info.html" target="_top" xlink:title=" ">
<polygon fill="white" stroke="black" points="409,-38.5 409,-57.5 497,-57.5 497,-38.5 409,-38.5"/>
<text text-anchor="middle" x="453" y="-45.5" font-family="Helvetica,sans-Serif" font-size="10.00">_ConnectionInfo</text>
</a>
</g>
</g>
<!-- Node14&#45;&gt;Node5 -->
<g id="edge15" class="edge">
<title>Node14&#45;&gt;Node5</title>
<path fill="none" stroke="#9a32cd" stroke-dasharray="5,2" d="M507.44,-46.01C548.8,-46.25 606.79,-50.53 654,-69 697.81,-86.14 739.5,-125.18 757.37,-143.36"/>
<polygon fill="#9a32cd" stroke="#9a32cd" points="507.29,-42.52 497.3,-46.03 507.31,-49.52 507.29,-42.52"/>
<text text-anchor="middle" x="595.5" y="-72" font-family="Helvetica,sans-Serif" font-size="10.00"> connectionInfo</text>
</g>
<!-- Node15 -->
<g id="node15" class="node">
<title>Node15</title>
<g id="a_node15"><a xlink:href="struct___message_end_of.html" target="_top" xlink:title=" ">
<polygon fill="white" stroke="black" points="408.5,-0.5 408.5,-19.5 497.5,-19.5 497.5,-0.5 408.5,-0.5"/>
<text text-anchor="middle" x="453" y="-7.5" font-family="Helvetica,sans-Serif" font-size="10.00">_MessageEndOf</text>
</a>
</g>
</g>
<!-- Node15&#45;&gt;Node5 -->
<g id="edge16" class="edge">
<title>Node15&#45;&gt;Node5</title>
<path fill="none" stroke="#9a32cd" stroke-dasharray="5,2" d="M507.84,-5.63C549.83,-4.52 608.46,-8.14 654,-31 706.53,-57.37 746.78,-119.18 760.96,-143.21"/>
<polygon fill="#9a32cd" stroke="#9a32cd" points="507.68,-2.14 497.81,-6 507.93,-9.13 507.68,-2.14"/>
<text text-anchor="middle" x="595.5" y="-34" font-family="Helvetica,sans-Serif" font-size="10.00"> endOfMessageData</text>
</g>
<!-- Node16 -->
<g id="node16" class="node">
<title>Node16</title>
<g id="a_node16"><a xlink:href="struct___checksum.html" target="_top" xlink:title=" ">
<polygon fill="white" stroke="black" points="167.5,-0.5 167.5,-19.5 236.5,-19.5 236.5,-0.5 167.5,-0.5"/>
<text text-anchor="middle" x="202" y="-7.5" font-family="Helvetica,sans-Serif" font-size="10.00">_Checksum</text>
</a>
</g>
</g>
<!-- Node16&#45;&gt;Node15 -->
<g id="edge17" class="edge">
<title>Node16&#45;&gt;Node15</title>
<path fill="none" stroke="#9a32cd" stroke-dasharray="5,2" d="M246.7,-10C292.06,-10 362.62,-10 408.07,-10"/>
<polygon fill="#9a32cd" stroke="#9a32cd" points="246.58,-6.5 236.58,-10 246.58,-13.5 246.58,-6.5"/>
<text text-anchor="middle" x="312.5" y="-13" font-family="Helvetica,sans-Serif" font-size="10.00"> messageChecksum</text>
</g>
<!-- Node17&#45;&gt;Node5 -->
<g id="edge18" class="edge">
<title>Node17&#45;&gt;Node5</title>
<path fill="none" stroke="#9a32cd" stroke-dasharray="5,2" d="M511.4,-135.78C551.39,-137.81 605.96,-140.76 654,-144 670.81,-145.13 689.02,-146.52 705.8,-147.87"/>
<polygon fill="#9a32cd" stroke="#9a32cd" points="511.46,-132.28 501.3,-135.27 511.11,-139.27 511.46,-132.28"/>
<text text-anchor="middle" x="595.5" y="-147" font-family="Helvetica,sans-Serif" font-size="10.00"> ipoData</text>
</g>
</g>
</svg>
