<?xml version="1.0" encoding="UTF-8" standalone="no"?>
<!DOCTYPE svg PUBLIC "-//W3C//DTD SVG 1.1//EN"
 "http://www.w3.org/Graphics/SVG/1.1/DTD/svg11.dtd">
<!-- Generated by graphviz version 2.43.0 (0)
 -->
<!-- Title: build/FRI&#45;Client&#45;SDK_Cpp/example Pages: 1 -->
<svg width="1030pt" height="175pt"
 viewBox="0.00 0.00 1030.00 175.00" xmlns="http://www.w3.org/2000/svg" xmlns:xlink="http://www.w3.org/1999/xlink">
<g id="graph0" class="graph" transform="scale(1 1) rotate(0) translate(4 171)">
<title>build/FRI&#45;Client&#45;SDK_Cpp/example</title>
<polygon fill="white" stroke="transparent" points="-4,4 -4,-171 1026,-171 1026,4 -4,4"/>
<g id="clust1" class="cluster">
<title>clusterdir_f27abc31c12fe454e82e76cf713f0d06</title>
<g id="a_clust1"><a xlink:href="dir_f27abc31c12fe454e82e76cf713f0d06.html" target="_top" xlink:title="FRI&#45;Client&#45;SDK_Cpp">
<polygon fill="#ddddee" stroke="black" points="8,-8 8,-159 1014,-159 1014,-8 8,-8"/>
<text text-anchor="middle" x="511" y="-147" font-family="Helvetica,sans-Serif" font-size="10.00">FRI&#45;Client&#45;SDK_Cpp</text>
</a>
</g>
</g>
<g id="clust2" class="cluster">
<title>clusterdir_2beff0effab5b69c730d557762ff71a6</title>
<g id="a_clust2"><a xlink:href="dir_2beff0effab5b69c730d557762ff71a6.html" target="_top">
<polygon fill="#eeeeff" stroke="black" points="16,-80 16,-132 1006,-132 1006,-80 16,-80"/>
</a>
</g>
</g>
<!-- dir_f4e29592698540b446864d2e6f8a2e42 -->
<g id="node1" class="node">
<title>dir_f4e29592698540b446864d2e6f8a2e42</title>
<g id="a_node1"><a xlink:href="dir_f4e29592698540b446864d2e6f8a2e42.html" target="_top" xlink:title="include">
<polygon fill="none" stroke="black" points="567,-52 513,-52 513,-16 567,-16 567,-52"/>
<text text-anchor="middle" x="540" y="-31.5" font-family="Helvetica,sans-Serif" font-size="10.00">include</text>
</a>
</g>
</g>
<!-- dir_2beff0effab5b69c730d557762ff71a6 -->
<g id="node2" class="node">
<title>dir_2beff0effab5b69c730d557762ff71a6</title>
<text text-anchor="middle" x="971" y="-103.5" font-family="Helvetica,sans-Serif" font-size="10.00">example</text>
</g>
<!-- dir_9c07145efc418b0554a9e04462b4b10f -->
<g id="node3" class="node">
<title>dir_9c07145efc418b0554a9e04462b4b10f</title>
<g id="a_node3"><a xlink:href="dir_9c07145efc418b0554a9e04462b4b10f.html" target="_top" xlink:title="IOAccess">
<polygon fill="white" stroke="black" points="926,-124 866,-124 866,-88 926,-88 926,-124"/>
<text text-anchor="middle" x="896" y="-103.5" font-family="Helvetica,sans-Serif" font-size="10.00">IOAccess</text>
</a>
</g>
</g>
<!-- dir_9c07145efc418b0554a9e04462b4b10f&#45;&gt;dir_f4e29592698540b446864d2e6f8a2e42 -->
<g id="edge5" class="edge">
<title>dir_9c07145efc418b0554a9e04462b4b10f&#45;&gt;dir_f4e29592698540b446864d2e6f8a2e42</title>
<path fill="none" stroke="black" d="M872.93,-87.94C867.89,-84.87 862.43,-82.02 857,-80 760.65,-44.22 638.11,-36.65 577.48,-35.21"/>
<polygon fill="black" stroke="black" points="577.31,-31.7 567.25,-35.01 577.18,-38.7 577.31,-31.7"/>
<g id="a_edge5&#45;headlabel"><a xlink:href="dir_000003_000010.html" target="_top" xlink:title="6">
<text text-anchor="middle" x="580.96" y="-26.43" font-family="Helvetica,sans-Serif" font-size="10.00">6</text>
</a>
</g>
</g>
<!-- dir_6a8a43abd2e8942fc96f5c55bda7548b -->
<g id="node4" class="node">
<title>dir_6a8a43abd2e8942fc96f5c55bda7548b</title>
<g id="a_node4"><a xlink:href="dir_6a8a43abd2e8942fc96f5c55bda7548b.html" target="_top" xlink:title="LBRClientTemplate">
<polygon fill="white" stroke="black" points="847.5,-124 746.5,-124 746.5,-88 847.5,-88 847.5,-124"/>
<text text-anchor="middle" x="797" y="-103.5" font-family="Helvetica,sans-Serif" font-size="10.00">LBRClientTemplate</text>
</a>
</g>
</g>
<!-- dir_6a8a43abd2e8942fc96f5c55bda7548b&#45;&gt;dir_f4e29592698540b446864d2e6f8a2e42 -->
<g id="edge2" class="edge">
<title>dir_6a8a43abd2e8942fc96f5c55bda7548b&#45;&gt;dir_f4e29592698540b446864d2e6f8a2e42</title>
<path fill="none" stroke="black" d="M758.63,-87.88C751.52,-85.03 744.09,-82.27 737,-80 682.29,-62.49 616.97,-48.97 577,-41.5"/>
<polygon fill="black" stroke="black" points="577.63,-38.06 567.16,-39.69 576.36,-44.94 577.63,-38.06"/>
<g id="a_edge2&#45;headlabel"><a xlink:href="dir_000004_000010.html" target="_top" xlink:title="3">
<text text-anchor="middle" x="581.67" y="-33.42" font-family="Helvetica,sans-Serif" font-size="10.00">3</text>
</a>
</g>
</g>
<!-- dir_92d690ad84145aad6d4270914baff7f2 -->
<g id="node5" class="node">
<title>dir_92d690ad84145aad6d4270914baff7f2</title>
<g id="a_node5"><a xlink:href="dir_92d690ad84145aad6d4270914baff7f2.html" target="_top" xlink:title="LBRJointSineOverlay">
<polygon fill="white" stroke="black" points="728,-124 618,-124 618,-88 728,-88 728,-124"/>
<text text-anchor="middle" x="673" y="-103.5" font-family="Helvetica,sans-Serif" font-size="10.00">LBRJointSineOverlay</text>
</a>
</g>
</g>
<!-- dir_92d690ad84145aad6d4270914baff7f2&#45;&gt;dir_f4e29592698540b446864d2e6f8a2e42 -->
<g id="edge4" class="edge">
<title>dir_92d690ad84145aad6d4270914baff7f2&#45;&gt;dir_f4e29592698540b446864d2e6f8a2e42</title>
<path fill="none" stroke="black" d="M640.46,-87.88C620.99,-77.63 596.21,-64.58 576.13,-54.01"/>
<polygon fill="black" stroke="black" points="577.75,-50.91 567.27,-49.35 574.49,-57.11 577.75,-50.91"/>
<g id="a_edge4&#45;headlabel"><a xlink:href="dir_000005_000010.html" target="_top" xlink:title="4">
<text text-anchor="middle" x="582.25" y="-47.57" font-family="Helvetica,sans-Serif" font-size="10.00">4</text>
</a>
</g>
</g>
<!-- dir_9f1bdb02ea88616d409f7a0c69fc1127 -->
<g id="node6" class="node">
<title>dir_9f1bdb02ea88616d409f7a0c69fc1127</title>
<g id="a_node6"><a xlink:href="dir_9f1bdb02ea88616d409f7a0c69fc1127.html" target="_top" xlink:title="LBRTorqueSineOverlay">
<polygon fill="white" stroke="black" points="599.5,-124 480.5,-124 480.5,-88 599.5,-88 599.5,-124"/>
<text text-anchor="middle" x="540" y="-103.5" font-family="Helvetica,sans-Serif" font-size="10.00">LBRTorqueSineOverlay</text>
</a>
</g>
</g>
<!-- dir_9f1bdb02ea88616d409f7a0c69fc1127&#45;&gt;dir_f4e29592698540b446864d2e6f8a2e42 -->
<g id="edge3" class="edge">
<title>dir_9f1bdb02ea88616d409f7a0c69fc1127&#45;&gt;dir_f4e29592698540b446864d2e6f8a2e42</title>
<path fill="none" stroke="black" d="M540,-87.7C540,-79.98 540,-70.71 540,-62.11"/>
<polygon fill="black" stroke="black" points="543.5,-62.1 540,-52.1 536.5,-62.1 543.5,-62.1"/>
<g id="a_edge3&#45;headlabel"><a xlink:href="dir_000006_000010.html" target="_top" xlink:title="3">
<text text-anchor="middle" x="546.34" y="-63.2" font-family="Helvetica,sans-Serif" font-size="10.00">3</text>
</a>
</g>
</g>
<!-- dir_68904e3e929f05e6f43bdef231b89c95 -->
<g id="node7" class="node">
<title>dir_68904e3e929f05e6f43bdef231b89c95</title>
<g id="a_node7"><a xlink:href="dir_68904e3e929f05e6f43bdef231b89c95.html" target="_top" xlink:title="LBRWrenchSineOverlay">
<polygon fill="white" stroke="black" points="462,-124 340,-124 340,-88 462,-88 462,-124"/>
<text text-anchor="middle" x="401" y="-103.5" font-family="Helvetica,sans-Serif" font-size="10.00">LBRWrenchSineOverlay</text>
</a>
</g>
</g>
<!-- dir_68904e3e929f05e6f43bdef231b89c95&#45;&gt;dir_f4e29592698540b446864d2e6f8a2e42 -->
<g id="edge6" class="edge">
<title>dir_68904e3e929f05e6f43bdef231b89c95&#45;&gt;dir_f4e29592698540b446864d2e6f8a2e42</title>
<path fill="none" stroke="black" d="M435,-87.88C455.87,-77.37 482.56,-63.92 503.82,-53.22"/>
<polygon fill="black" stroke="black" points="505.5,-56.29 512.86,-48.67 502.35,-50.04 505.5,-56.29"/>
<g id="a_edge6&#45;headlabel"><a xlink:href="dir_000007_000010.html" target="_top" xlink:title="3">
<text text-anchor="middle" x="503.57" y="-57.95" font-family="Helvetica,sans-Serif" font-size="10.00">3</text>
</a>
</g>
</g>
<!-- dir_aea2da43d83e6d83f93b08344e0f582c -->
<g id="node8" class="node">
<title>dir_aea2da43d83e6d83f93b08344e0f582c</title>
<g id="a_node8"><a xlink:href="dir_aea2da43d83e6d83f93b08344e0f582c.html" target="_top" xlink:title="SimulatedTransformationProvider">
<polygon fill="white" stroke="black" points="321.5,-124 160.5,-124 160.5,-88 321.5,-88 321.5,-124"/>
<text text-anchor="middle" x="241" y="-103.5" font-family="Helvetica,sans-Serif" font-size="10.00">SimulatedTransformationProvider</text>
</a>
</g>
</g>
<!-- dir_aea2da43d83e6d83f93b08344e0f582c&#45;&gt;dir_f4e29592698540b446864d2e6f8a2e42 -->
<g id="edge1" class="edge">
<title>dir_aea2da43d83e6d83f93b08344e0f582c&#45;&gt;dir_f4e29592698540b446864d2e6f8a2e42</title>
<path fill="none" stroke="black" d="M300.42,-87.96C310.59,-85.2 321.08,-82.44 331,-80 390.8,-65.27 460.89,-50.73 502.8,-42.32"/>
<polygon fill="black" stroke="black" points="503.71,-45.71 512.83,-40.32 502.34,-38.84 503.71,-45.71"/>
<g id="a_edge1&#45;headlabel"><a xlink:href="dir_000008_000010.html" target="_top" xlink:title="4">
<text text-anchor="middle" x="500.74" y="-46.7" font-family="Helvetica,sans-Serif" font-size="10.00">4</text>
</a>
</g>
</g>
<!-- dir_802695ffab5c6095b860d833cc28090c -->
<g id="node9" class="node">
<title>dir_802695ffab5c6095b860d833cc28090c</title>
<g id="a_node9"><a xlink:href="dir_802695ffab5c6095b860d833cc28090c.html" target="_top" xlink:title="TransformationProvider">
<polygon fill="white" stroke="black" points="142,-124 24,-124 24,-88 142,-88 142,-124"/>
<text text-anchor="middle" x="83" y="-103.5" font-family="Helvetica,sans-Serif" font-size="10.00">TransformationProvider</text>
</a>
</g>
</g>
<!-- dir_802695ffab5c6095b860d833cc28090c&#45;&gt;dir_f4e29592698540b446864d2e6f8a2e42 -->
<g id="edge7" class="edge">
<title>dir_802695ffab5c6095b860d833cc28090c&#45;&gt;dir_f4e29592698540b446864d2e6f8a2e42</title>
<path fill="none" stroke="black" d="M125.23,-87.95C133.97,-84.92 143.2,-82.08 152,-80 278.5,-50.18 433.07,-39.79 502.77,-36.45"/>
<polygon fill="black" stroke="black" points="502.99,-39.94 512.82,-35.99 502.67,-32.95 502.99,-39.94"/>
<g id="a_edge7&#45;headlabel"><a xlink:href="dir_000009_000010.html" target="_top" xlink:title="4">
<text text-anchor="middle" x="499.52" y="-40.44" font-family="Helvetica,sans-Serif" font-size="10.00">4</text>
</a>
</g>
</g>
</g>
</svg>
