<?xml version="1.0" encoding="UTF-8" standalone="no"?>
<!DOCTYPE svg PUBLIC "-//W3C//DTD SVG 1.1//EN"
 "http://www.w3.org/Graphics/SVG/1.1/DTD/svg11.dtd">
<!-- Generated by graphviz version 2.43.0 (0)
 -->
<!-- Title: build/FRI&#45;Client&#45;SDK_Cpp/example/TransformationProvider Pages: 1 -->
<svg width="158pt" height="151pt"
 viewBox="0.00 0.00 158.00 151.00" xmlns="http://www.w3.org/2000/svg" xmlns:xlink="http://www.w3.org/1999/xlink">
<g id="graph0" class="graph" transform="scale(1 1) rotate(0) translate(4 147)">
<title>build/FRI&#45;Client&#45;SDK_Cpp/example/TransformationProvider</title>
<polygon fill="white" stroke="transparent" points="-4,4 -4,-147 154,-147 154,4 -4,4"/>
<g id="clust1" class="cluster">
<title>clusterdir_2beff0effab5b69c730d557762ff71a6</title>
<g id="a_clust1"><a xlink:href="dir_2beff0effab5b69c730d557762ff71a6.html" target="_top" xlink:title="example">
<polygon fill="#ddddee" stroke="black" points="8,-64 8,-135 142,-135 142,-64 8,-64"/>
<text text-anchor="middle" x="75" y="-123" font-family="Helvetica,sans-Serif" font-size="10.00">example</text>
</a>
</g>
</g>
<!-- dir_802695ffab5c6095b860d833cc28090c -->
<g id="node1" class="node">
<title>dir_802695ffab5c6095b860d833cc28090c</title>
<g id="a_node1"><a xlink:href="dir_802695ffab5c6095b860d833cc28090c.html" target="_top" xlink:title="TransformationProvider">
<polygon fill="#eeeeff" stroke="black" points="134,-108 16,-108 16,-72 134,-72 134,-108"/>
<text text-anchor="middle" x="75" y="-87.5" font-family="Helvetica,sans-Serif" font-size="10.00">TransformationProvider</text>
</a>
</g>
</g>
<!-- dir_f4e29592698540b446864d2e6f8a2e42 -->
<g id="node2" class="node">
<title>dir_f4e29592698540b446864d2e6f8a2e42</title>
<g id="a_node2"><a xlink:href="dir_f4e29592698540b446864d2e6f8a2e42.html" target="_top" xlink:title="include">
<polygon fill="none" stroke="black" points="102,-36 48,-36 48,0 102,0 102,-36"/>
<text text-anchor="middle" x="75" y="-15.5" font-family="Helvetica,sans-Serif" font-size="10.00">include</text>
</a>
</g>
</g>
<!-- dir_802695ffab5c6095b860d833cc28090c&#45;&gt;dir_f4e29592698540b446864d2e6f8a2e42 -->
<g id="edge1" class="edge">
<title>dir_802695ffab5c6095b860d833cc28090c&#45;&gt;dir_f4e29592698540b446864d2e6f8a2e42</title>
<path fill="none" stroke="black" d="M75,-71.7C75,-63.98 75,-54.71 75,-46.11"/>
<polygon fill="black" stroke="black" points="78.5,-46.1 75,-36.1 71.5,-46.1 78.5,-46.1"/>
<g id="a_edge1&#45;headlabel"><a xlink:href="dir_000009_000010.html" target="_top" xlink:title="4">
<text text-anchor="middle" x="81.34" y="-47.2" font-family="Helvetica,sans-Serif" font-size="10.00">4</text>
</a>
</g>
</g>
</g>
</svg>
