<?xml version="1.0" encoding="UTF-8" standalone="no"?>
<!DOCTYPE svg PUBLIC "-//W3C//DTD SVG 1.1//EN"
 "http://www.w3.org/Graphics/SVG/1.1/DTD/svg11.dtd">
<!-- Generated by graphviz version 2.43.0 (0)
 -->
<!-- Title: build/FRI&#45;Client&#45;SDK_Cpp/src/protobuf Pages: 1 -->
<svg width="134pt" height="239pt"
 viewBox="0.00 0.00 134.00 239.00" xmlns="http://www.w3.org/2000/svg" xmlns:xlink="http://www.w3.org/1999/xlink">
<g id="graph0" class="graph" transform="scale(1 1) rotate(0) translate(4 235)">
<title>build/FRI&#45;Client&#45;SDK_Cpp/src/protobuf</title>
<polygon fill="white" stroke="transparent" points="-4,4 -4,-235 130,-235 130,4 -4,4"/>
<g id="clust1" class="cluster">
<title>clusterdir_3db3f3ed4f866ce7af3d4224c6625fb2</title>
<g id="a_clust1"><a xlink:href="dir_3db3f3ed4f866ce7af3d4224c6625fb2.html" target="_top" xlink:title="src">
<polygon fill="#ddddee" stroke="black" points="8,-8 8,-223 118,-223 118,-8 8,-8"/>
<text text-anchor="middle" x="63" y="-211" font-family="Helvetica,sans-Serif" font-size="10.00">src</text>
</a>
</g>
</g>
<!-- dir_4a62e3b8da9c3ffe4ae78c3fd1575902 -->
<g id="node1" class="node">
<title>dir_4a62e3b8da9c3ffe4ae78c3fd1575902</title>
<g id="a_node1"><a xlink:href="dir_4a62e3b8da9c3ffe4ae78c3fd1575902.html" target="_top" xlink:title="protobuf_gen">
<polygon fill="none" stroke="black" points="89.5,-124 16.5,-124 16.5,-88 89.5,-88 89.5,-124"/>
<text text-anchor="middle" x="53" y="-103.5" font-family="Helvetica,sans-Serif" font-size="10.00">protobuf_gen</text>
</a>
</g>
</g>
<!-- dir_fed29a1ea96af3e9bf2351c0f9e80dd6 -->
<g id="node2" class="node">
<title>dir_fed29a1ea96af3e9bf2351c0f9e80dd6</title>
<g id="a_node2"><a xlink:href="dir_fed29a1ea96af3e9bf2351c0f9e80dd6.html" target="_top" xlink:title="nanopb&#45;0.2.8">
<polygon fill="none" stroke="black" points="99.5,-52 26.5,-52 26.5,-16 99.5,-16 99.5,-52"/>
<text text-anchor="middle" x="63" y="-31.5" font-family="Helvetica,sans-Serif" font-size="10.00">nanopb&#45;0.2.8</text>
</a>
</g>
</g>
<!-- dir_4a62e3b8da9c3ffe4ae78c3fd1575902&#45;&gt;dir_fed29a1ea96af3e9bf2351c0f9e80dd6 -->
<g id="edge1" class="edge">
<title>dir_4a62e3b8da9c3ffe4ae78c3fd1575902&#45;&gt;dir_fed29a1ea96af3e9bf2351c0f9e80dd6</title>
<path fill="none" stroke="black" d="M55.47,-87.7C56.57,-79.98 57.9,-70.71 59.13,-62.11"/>
<polygon fill="black" stroke="black" points="62.61,-62.5 60.56,-52.1 55.68,-61.51 62.61,-62.5"/>
<g id="a_edge1&#45;headlabel"><a xlink:href="dir_000018_000016.html" target="_top" xlink:title="1">
<text text-anchor="middle" x="64.91" y="-63.96" font-family="Helvetica,sans-Serif" font-size="10.00">1</text>
</a>
</g>
</g>
<!-- dir_5d27b7bd9099df9cbf4aab8b97f4916a -->
<g id="node3" class="node">
<title>dir_5d27b7bd9099df9cbf4aab8b97f4916a</title>
<g id="a_node3"><a xlink:href="dir_5d27b7bd9099df9cbf4aab8b97f4916a.html" target="_top" xlink:title="protobuf">
<polygon fill="#eeeeff" stroke="black" points="95,-196 41,-196 41,-160 95,-160 95,-196"/>
<text text-anchor="middle" x="68" y="-175.5" font-family="Helvetica,sans-Serif" font-size="10.00">protobuf</text>
</a>
</g>
</g>
<!-- dir_5d27b7bd9099df9cbf4aab8b97f4916a&#45;&gt;dir_4a62e3b8da9c3ffe4ae78c3fd1575902 -->
<g id="edge2" class="edge">
<title>dir_5d27b7bd9099df9cbf4aab8b97f4916a&#45;&gt;dir_4a62e3b8da9c3ffe4ae78c3fd1575902</title>
<path fill="none" stroke="black" d="M64.29,-159.7C62.64,-151.98 60.65,-142.71 58.81,-134.11"/>
<polygon fill="black" stroke="black" points="62.18,-133.15 56.67,-124.1 55.34,-134.62 62.18,-133.15"/>
<g id="a_edge2&#45;headlabel"><a xlink:href="dir_000017_000018.html" target="_top" xlink:title="3">
<text text-anchor="middle" x="65.71" y="-133.57" font-family="Helvetica,sans-Serif" font-size="10.00">3</text>
</a>
</g>
</g>
<!-- dir_5d27b7bd9099df9cbf4aab8b97f4916a&#45;&gt;dir_fed29a1ea96af3e9bf2351c0f9e80dd6 -->
<g id="edge3" class="edge">
<title>dir_5d27b7bd9099df9cbf4aab8b97f4916a&#45;&gt;dir_fed29a1ea96af3e9bf2351c0f9e80dd6</title>
<path fill="none" stroke="black" d="M81.15,-159.91C87.92,-150.01 95.49,-136.96 99,-124 103.18,-108.56 103.7,-103.29 99,-88 95.99,-78.22 90.49,-68.62 84.68,-60.33"/>
<polygon fill="black" stroke="black" points="87.41,-58.13 78.61,-52.23 81.81,-62.33 87.41,-58.13"/>
<g id="a_edge3&#45;headlabel"><a xlink:href="dir_000017_000016.html" target="_top" xlink:title="5">
<text text-anchor="middle" x="91.83" y="-56.8" font-family="Helvetica,sans-Serif" font-size="10.00">5</text>
</a>
</g>
</g>
</g>
</svg>
