<?xml version="1.0" encoding="UTF-8" standalone="no"?>
<!DOCTYPE svg PUBLIC "-//W3C//DTD SVG 1.1//EN"
 "http://www.w3.org/Graphics/SVG/1.1/DTD/svg11.dtd">
<!-- Generated by graphviz version 2.43.0 (0)
 -->
<!-- Title: build/FRI&#45;Client&#45;SDK_Cpp/src/protobuf_gen Pages: 1 -->
<svg width="114pt" height="167pt"
 viewBox="0.00 0.00 114.00 167.00" xmlns="http://www.w3.org/2000/svg" xmlns:xlink="http://www.w3.org/1999/xlink">
<g id="graph0" class="graph" transform="scale(1 1) rotate(0) translate(4 163)">
<title>build/FRI&#45;Client&#45;SDK_Cpp/src/protobuf_gen</title>
<polygon fill="white" stroke="transparent" points="-4,4 -4,-163 110,-163 110,4 -4,4"/>
<g id="clust1" class="cluster">
<title>clusterdir_3db3f3ed4f866ce7af3d4224c6625fb2</title>
<g id="a_clust1"><a xlink:href="dir_3db3f3ed4f866ce7af3d4224c6625fb2.html" target="_top" xlink:title="src">
<polygon fill="#ddddee" stroke="black" points="8,-8 8,-151 98,-151 98,-8 8,-8"/>
<text text-anchor="middle" x="53" y="-139" font-family="Helvetica,sans-Serif" font-size="10.00">src</text>
</a>
</g>
</g>
<!-- dir_fed29a1ea96af3e9bf2351c0f9e80dd6 -->
<g id="node1" class="node">
<title>dir_fed29a1ea96af3e9bf2351c0f9e80dd6</title>
<g id="a_node1"><a xlink:href="dir_fed29a1ea96af3e9bf2351c0f9e80dd6.html" target="_top" xlink:title="nanopb&#45;0.2.8">
<polygon fill="none" stroke="black" points="89.5,-52 16.5,-52 16.5,-16 89.5,-16 89.5,-52"/>
<text text-anchor="middle" x="53" y="-31.5" font-family="Helvetica,sans-Serif" font-size="10.00">nanopb&#45;0.2.8</text>
</a>
</g>
</g>
<!-- dir_4a62e3b8da9c3ffe4ae78c3fd1575902 -->
<g id="node2" class="node">
<title>dir_4a62e3b8da9c3ffe4ae78c3fd1575902</title>
<g id="a_node2"><a xlink:href="dir_4a62e3b8da9c3ffe4ae78c3fd1575902.html" target="_top" xlink:title="protobuf_gen">
<polygon fill="#eeeeff" stroke="black" points="89.5,-124 16.5,-124 16.5,-88 89.5,-88 89.5,-124"/>
<text text-anchor="middle" x="53" y="-103.5" font-family="Helvetica,sans-Serif" font-size="10.00">protobuf_gen</text>
</a>
</g>
</g>
<!-- dir_4a62e3b8da9c3ffe4ae78c3fd1575902&#45;&gt;dir_fed29a1ea96af3e9bf2351c0f9e80dd6 -->
<g id="edge1" class="edge">
<title>dir_4a62e3b8da9c3ffe4ae78c3fd1575902&#45;&gt;dir_fed29a1ea96af3e9bf2351c0f9e80dd6</title>
<path fill="none" stroke="black" d="M53,-87.7C53,-79.98 53,-70.71 53,-62.11"/>
<polygon fill="black" stroke="black" points="56.5,-62.1 53,-52.1 49.5,-62.1 56.5,-62.1"/>
<g id="a_edge1&#45;headlabel"><a xlink:href="dir_000018_000016.html" target="_top" xlink:title="1">
<text text-anchor="middle" x="59.34" y="-63.2" font-family="Helvetica,sans-Serif" font-size="10.00">1</text>
</a>
</g>
</g>
</g>
</svg>
