<?xml version="1.0" encoding="UTF-8" standalone="no"?>
<!DOCTYPE svg PUBLIC "-//W3C//DTD SVG 1.1//EN"
 "http://www.w3.org/Graphics/SVG/1.1/DTD/svg11.dtd">
<!-- Generated by graphviz version 2.43.0 (0)
 -->
<!-- Title: build/FRI&#45;Client&#45;SDK_Cpp/example/LBRWrenchSineOverlay Pages: 1 -->
<svg width="162pt" height="151pt"
 viewBox="0.00 0.00 162.00 151.00" xmlns="http://www.w3.org/2000/svg" xmlns:xlink="http://www.w3.org/1999/xlink">
<g id="graph0" class="graph" transform="scale(1 1) rotate(0) translate(4 147)">
<title>build/FRI&#45;Client&#45;SDK_Cpp/example/LBRWrenchSineOverlay</title>
<polygon fill="white" stroke="transparent" points="-4,4 -4,-147 158,-147 158,4 -4,4"/>
<g id="clust1" class="cluster">
<title>clusterdir_2beff0effab5b69c730d557762ff71a6</title>
<g id="a_clust1"><a xlink:href="dir_2beff0effab5b69c730d557762ff71a6.html" target="_top" xlink:title="example">
<polygon fill="#ddddee" stroke="black" points="8,-64 8,-135 146,-135 146,-64 8,-64"/>
<text text-anchor="middle" x="77" y="-123" font-family="Helvetica,sans-Serif" font-size="10.00">example</text>
</a>
</g>
</g>
<!-- dir_68904e3e929f05e6f43bdef231b89c95 -->
<g id="node1" class="node">
<title>dir_68904e3e929f05e6f43bdef231b89c95</title>
<g id="a_node1"><a xlink:href="dir_68904e3e929f05e6f43bdef231b89c95.html" target="_top" xlink:title="LBRWrenchSineOverlay">
<polygon fill="#eeeeff" stroke="black" points="138,-108 16,-108 16,-72 138,-72 138,-108"/>
<text text-anchor="middle" x="77" y="-87.5" font-family="Helvetica,sans-Serif" font-size="10.00">LBRWrenchSineOverlay</text>
</a>
</g>
</g>
<!-- dir_f4e29592698540b446864d2e6f8a2e42 -->
<g id="node2" class="node">
<title>dir_f4e29592698540b446864d2e6f8a2e42</title>
<g id="a_node2"><a xlink:href="dir_f4e29592698540b446864d2e6f8a2e42.html" target="_top" xlink:title="include">
<polygon fill="none" stroke="black" points="104,-36 50,-36 50,0 104,0 104,-36"/>
<text text-anchor="middle" x="77" y="-15.5" font-family="Helvetica,sans-Serif" font-size="10.00">include</text>
</a>
</g>
</g>
<!-- dir_68904e3e929f05e6f43bdef231b89c95&#45;&gt;dir_f4e29592698540b446864d2e6f8a2e42 -->
<g id="edge1" class="edge">
<title>dir_68904e3e929f05e6f43bdef231b89c95&#45;&gt;dir_f4e29592698540b446864d2e6f8a2e42</title>
<path fill="none" stroke="black" d="M77,-71.7C77,-63.98 77,-54.71 77,-46.11"/>
<polygon fill="black" stroke="black" points="80.5,-46.1 77,-36.1 73.5,-46.1 80.5,-46.1"/>
<g id="a_edge1&#45;headlabel"><a xlink:href="dir_000007_000010.html" target="_top" xlink:title="3">
<text text-anchor="middle" x="83.34" y="-47.2" font-family="Helvetica,sans-Serif" font-size="10.00">3</text>
</a>
</g>
</g>
</g>
</svg>
