<?xml version="1.0" encoding="UTF-8" standalone="no"?>
<!DOCTYPE svg PUBLIC "-//W3C//DTD SVG 1.1//EN"
 "http://www.w3.org/Graphics/SVG/1.1/DTD/svg11.dtd">
<!-- Generated by graphviz version 2.43.0 (0)
 -->
<!-- Title: build/FRI&#45;Client&#45;SDK_Cpp Pages: 1 -->
<svg width="310pt" height="183pt"
 viewBox="0.00 0.00 310.00 183.00" xmlns="http://www.w3.org/2000/svg" xmlns:xlink="http://www.w3.org/1999/xlink">
<g id="graph0" class="graph" transform="scale(1 1) rotate(0) translate(4 179)">
<title>build/FRI&#45;Client&#45;SDK_Cpp</title>
<polygon fill="white" stroke="transparent" points="-4,4 -4,-179 306,-179 306,4 -4,4"/>
<g id="clust1" class="cluster">
<title>clusterdir_4fef79e7177ba769987a8da36c892c5f</title>
<g id="a_clust1"><a xlink:href="dir_4fef79e7177ba769987a8da36c892c5f.html" target="_top" xlink:title="build">
<polygon fill="#ddddee" stroke="black" points="8,-8 8,-167 294,-167 294,-8 8,-8"/>
<text text-anchor="middle" x="151" y="-155" font-family="Helvetica,sans-Serif" font-size="10.00">build</text>
</a>
</g>
</g>
<g id="clust2" class="cluster">
<title>clusterdir_f27abc31c12fe454e82e76cf713f0d06</title>
<g id="a_clust2"><a xlink:href="dir_f27abc31c12fe454e82e76cf713f0d06.html" target="_top">
<polygon fill="#eeeeff" stroke="black" points="16,-16 16,-140 286,-140 286,-16 16,-16"/>
</a>
</g>
</g>
<!-- dir_f27abc31c12fe454e82e76cf713f0d06 -->
<g id="node1" class="node">
<title>dir_f27abc31c12fe454e82e76cf713f0d06</title>
<text text-anchor="middle" x="223" y="-111.5" font-family="Helvetica,sans-Serif" font-size="10.00">FRI&#45;Client&#45;SDK_Cpp</text>
</g>
<!-- dir_2beff0effab5b69c730d557762ff71a6 -->
<g id="node2" class="node">
<title>dir_2beff0effab5b69c730d557762ff71a6</title>
<g id="a_node2"><a xlink:href="dir_2beff0effab5b69c730d557762ff71a6.html" target="_top" xlink:title="example">
<polygon fill="white" stroke="red" points="150,-132 96,-132 96,-96 150,-96 150,-132"/>
<text text-anchor="middle" x="123" y="-111.5" font-family="Helvetica,sans-Serif" font-size="10.00">example</text>
</a>
</g>
</g>
<!-- dir_f4e29592698540b446864d2e6f8a2e42 -->
<g id="node3" class="node">
<title>dir_f4e29592698540b446864d2e6f8a2e42</title>
<g id="a_node3"><a xlink:href="dir_f4e29592698540b446864d2e6f8a2e42.html" target="_top" xlink:title="include">
<polygon fill="white" stroke="black" points="114,-60 60,-60 60,-24 114,-24 114,-60"/>
<text text-anchor="middle" x="87" y="-39.5" font-family="Helvetica,sans-Serif" font-size="10.00">include</text>
</a>
</g>
</g>
<!-- dir_2beff0effab5b69c730d557762ff71a6&#45;&gt;dir_f4e29592698540b446864d2e6f8a2e42 -->
<g id="edge2" class="edge">
<title>dir_2beff0effab5b69c730d557762ff71a6&#45;&gt;dir_f4e29592698540b446864d2e6f8a2e42</title>
<path fill="none" stroke="black" d="M114.1,-95.7C110,-87.73 105.05,-78.1 100.51,-69.26"/>
<polygon fill="black" stroke="black" points="103.48,-67.4 95.8,-60.1 97.26,-70.6 103.48,-67.4"/>
<g id="a_edge2&#45;headlabel"><a xlink:href="dir_000002_000010.html" target="_top" xlink:title="27">
<text text-anchor="middle" x="107.65" y="-66.79" font-family="Helvetica,sans-Serif" font-size="10.00">27</text>
</a>
</g>
</g>
<!-- dir_3db3f3ed4f866ce7af3d4224c6625fb2 -->
<g id="node4" class="node">
<title>dir_3db3f3ed4f866ce7af3d4224c6625fb2</title>
<g id="a_node4"><a xlink:href="dir_3db3f3ed4f866ce7af3d4224c6625fb2.html" target="_top" xlink:title="src">
<polygon fill="white" stroke="red" points="78,-132 24,-132 24,-96 78,-96 78,-132"/>
<text text-anchor="middle" x="51" y="-111.5" font-family="Helvetica,sans-Serif" font-size="10.00">src</text>
</a>
</g>
</g>
<!-- dir_3db3f3ed4f866ce7af3d4224c6625fb2&#45;&gt;dir_f4e29592698540b446864d2e6f8a2e42 -->
<g id="edge1" class="edge">
<title>dir_3db3f3ed4f866ce7af3d4224c6625fb2&#45;&gt;dir_f4e29592698540b446864d2e6f8a2e42</title>
<path fill="none" stroke="black" d="M59.9,-95.7C64,-87.73 68.95,-78.1 73.49,-69.26"/>
<polygon fill="black" stroke="black" points="76.74,-70.6 78.2,-60.1 70.52,-67.4 76.74,-70.6"/>
<g id="a_edge1&#45;headlabel"><a xlink:href="dir_000011_000010.html" target="_top" xlink:title="12">
<text text-anchor="middle" x="77.62" y="-72.59" font-family="Helvetica,sans-Serif" font-size="10.00">12</text>
</a>
</g>
</g>
</g>
</svg>
