<?xml version="1.0" encoding="UTF-8" standalone="no"?>
<!DOCTYPE svg PUBLIC "-//W3C//DTD SVG 1.1//EN"
 "http://www.w3.org/Graphics/SVG/1.1/DTD/svg11.dtd">
<!-- Generated by graphviz version 2.43.0 (0)
 -->
<!-- Title: build/FRI&#45;Client&#45;SDK_Cpp/src/client_lbr Pages: 1 -->
<svg width="168pt" height="239pt"
 viewBox="0.00 0.00 168.00 239.00" xmlns="http://www.w3.org/2000/svg" xmlns:xlink="http://www.w3.org/1999/xlink">
<g id="graph0" class="graph" transform="scale(1 1) rotate(0) translate(4 235)">
<title>build/FRI&#45;Client&#45;SDK_Cpp/src/client_lbr</title>
<polygon fill="white" stroke="transparent" points="-4,4 -4,-235 164,-235 164,4 -4,4"/>
<g id="clust1" class="cluster">
<title>clusterdir_3db3f3ed4f866ce7af3d4224c6625fb2</title>
<g id="a_clust1"><a xlink:href="dir_3db3f3ed4f866ce7af3d4224c6625fb2.html" target="_top" xlink:title="src">
<polygon fill="#ddddee" stroke="black" points="8,-8 8,-223 98,-223 98,-8 8,-8"/>
<text text-anchor="middle" x="53" y="-211" font-family="Helvetica,sans-Serif" font-size="10.00">src</text>
</a>
</g>
</g>
<!-- dir_5d27b7bd9099df9cbf4aab8b97f4916a -->
<g id="node1" class="node">
<title>dir_5d27b7bd9099df9cbf4aab8b97f4916a</title>
<g id="a_node1"><a xlink:href="dir_5d27b7bd9099df9cbf4aab8b97f4916a.html" target="_top" xlink:title="protobuf">
<polygon fill="none" stroke="black" points="79,-52 25,-52 25,-16 79,-16 79,-52"/>
<text text-anchor="middle" x="52" y="-31.5" font-family="Helvetica,sans-Serif" font-size="10.00">protobuf</text>
</a>
</g>
</g>
<!-- dir_68f35b06d78bed33e27dbc572e4ccbf4 -->
<g id="node2" class="node">
<title>dir_68f35b06d78bed33e27dbc572e4ccbf4</title>
<g id="a_node2"><a xlink:href="dir_68f35b06d78bed33e27dbc572e4ccbf4.html" target="_top" xlink:title="base">
<polygon fill="none" stroke="black" points="90,-124 36,-124 36,-88 90,-88 90,-124"/>
<text text-anchor="middle" x="63" y="-103.5" font-family="Helvetica,sans-Serif" font-size="10.00">base</text>
</a>
</g>
</g>
<!-- dir_68f35b06d78bed33e27dbc572e4ccbf4&#45;&gt;dir_5d27b7bd9099df9cbf4aab8b97f4916a -->
<g id="edge4" class="edge">
<title>dir_68f35b06d78bed33e27dbc572e4ccbf4&#45;&gt;dir_5d27b7bd9099df9cbf4aab8b97f4916a</title>
<path fill="none" stroke="black" d="M60.28,-87.7C59.07,-79.98 57.61,-70.71 56.26,-62.11"/>
<polygon fill="black" stroke="black" points="59.7,-61.44 54.69,-52.1 52.78,-62.53 59.7,-61.44"/>
<g id="a_edge4&#45;headlabel"><a xlink:href="dir_000012_000017.html" target="_top" xlink:title="2">
<text text-anchor="middle" x="63.06" y="-62.05" font-family="Helvetica,sans-Serif" font-size="10.00">2</text>
</a>
</g>
</g>
<!-- dir_f4e29592698540b446864d2e6f8a2e42 -->
<g id="node4" class="node">
<title>dir_f4e29592698540b446864d2e6f8a2e42</title>
<g id="a_node4"><a xlink:href="dir_f4e29592698540b446864d2e6f8a2e42.html" target="_top" xlink:title="include">
<polygon fill="none" stroke="black" points="160,-52 106,-52 106,-16 160,-16 160,-52"/>
<text text-anchor="middle" x="133" y="-31.5" font-family="Helvetica,sans-Serif" font-size="10.00">include</text>
</a>
</g>
</g>
<!-- dir_68f35b06d78bed33e27dbc572e4ccbf4&#45;&gt;dir_f4e29592698540b446864d2e6f8a2e42 -->
<g id="edge5" class="edge">
<title>dir_68f35b06d78bed33e27dbc572e4ccbf4&#45;&gt;dir_f4e29592698540b446864d2e6f8a2e42</title>
<path fill="none" stroke="black" d="M80.3,-87.7C88.86,-79.14 99.34,-68.66 108.7,-59.3"/>
<polygon fill="black" stroke="black" points="111.3,-61.65 115.9,-52.1 106.35,-56.7 111.3,-61.65"/>
<g id="a_edge5&#45;headlabel"><a xlink:href="dir_000012_000010.html" target="_top" xlink:title="6">
<text text-anchor="middle" x="110.77" y="-63.7" font-family="Helvetica,sans-Serif" font-size="10.00">6</text>
</a>
</g>
</g>
<!-- dir_91a646e338a70861e1612eafff2828d2 -->
<g id="node3" class="node">
<title>dir_91a646e338a70861e1612eafff2828d2</title>
<g id="a_node3"><a xlink:href="dir_91a646e338a70861e1612eafff2828d2.html" target="_top" xlink:title="client_lbr">
<polygon fill="#eeeeff" stroke="black" points="90,-196 34,-196 34,-160 90,-160 90,-196"/>
<text text-anchor="middle" x="62" y="-175.5" font-family="Helvetica,sans-Serif" font-size="10.00">client_lbr</text>
</a>
</g>
</g>
<!-- dir_91a646e338a70861e1612eafff2828d2&#45;&gt;dir_5d27b7bd9099df9cbf4aab8b97f4916a -->
<g id="edge1" class="edge">
<title>dir_91a646e338a70861e1612eafff2828d2&#45;&gt;dir_5d27b7bd9099df9cbf4aab8b97f4916a</title>
<path fill="none" stroke="black" d="M46.82,-159.7C39.27,-149.94 30.93,-137.1 27,-124 22.4,-108.68 23.5,-103.61 27,-88 29.01,-79.01 32.73,-69.75 36.7,-61.53"/>
<polygon fill="black" stroke="black" points="39.91,-62.94 41.37,-52.44 33.68,-59.73 39.91,-62.94"/>
<g id="a_edge1&#45;headlabel"><a xlink:href="dir_000013_000017.html" target="_top" xlink:title="2">
<text text-anchor="middle" x="40.79" y="-64.93" font-family="Helvetica,sans-Serif" font-size="10.00">2</text>
</a>
</g>
</g>
<!-- dir_91a646e338a70861e1612eafff2828d2&#45;&gt;dir_68f35b06d78bed33e27dbc572e4ccbf4 -->
<g id="edge2" class="edge">
<title>dir_91a646e338a70861e1612eafff2828d2&#45;&gt;dir_68f35b06d78bed33e27dbc572e4ccbf4</title>
<path fill="none" stroke="black" d="M62.25,-159.7C62.36,-151.98 62.49,-142.71 62.61,-134.11"/>
<polygon fill="black" stroke="black" points="66.11,-134.15 62.76,-124.1 59.11,-134.05 66.11,-134.15"/>
<g id="a_edge2&#45;headlabel"><a xlink:href="dir_000013_000012.html" target="_top" xlink:title="3">
<text text-anchor="middle" x="68.9" y="-135.29" font-family="Helvetica,sans-Serif" font-size="10.00">3</text>
</a>
</g>
</g>
<!-- dir_91a646e338a70861e1612eafff2828d2&#45;&gt;dir_f4e29592698540b446864d2e6f8a2e42 -->
<g id="edge3" class="edge">
<title>dir_91a646e338a70861e1612eafff2828d2&#45;&gt;dir_f4e29592698540b446864d2e6f8a2e42</title>
<path fill="none" stroke="black" d="M75.81,-159.54C83.31,-149.53 92.38,-136.49 99,-124 109.6,-103.99 118.59,-79.93 124.65,-61.88"/>
<polygon fill="black" stroke="black" points="128.01,-62.86 127.8,-52.27 121.36,-60.69 128.01,-62.86"/>
<g id="a_edge3&#45;headlabel"><a xlink:href="dir_000013_000010.html" target="_top" xlink:title="4">
<text text-anchor="middle" x="129.59" y="-64.66" font-family="Helvetica,sans-Serif" font-size="10.00">4</text>
</a>
</g>
</g>
</g>
</svg>
