<?xml version="1.0" encoding="UTF-8" standalone="no"?>
<!DOCTYPE svg PUBLIC "-//W3C//DTD SVG 1.1//EN"
 "http://www.w3.org/Graphics/SVG/1.1/DTD/svg11.dtd">
<!-- Generated by graphviz version 2.43.0 (0)
 -->
<!-- Title: build/FRI&#45;Client&#45;SDK_Cpp/src/client_trafo Pages: 1 -->
<svg width="190pt" height="311pt"
 viewBox="0.00 0.00 190.00 311.00" xmlns="http://www.w3.org/2000/svg" xmlns:xlink="http://www.w3.org/1999/xlink">
<g id="graph0" class="graph" transform="scale(1 1) rotate(0) translate(4 307)">
<title>build/FRI&#45;Client&#45;SDK_Cpp/src/client_trafo</title>
<polygon fill="white" stroke="transparent" points="-4,4 -4,-307 186,-307 186,4 -4,4"/>
<g id="clust1" class="cluster">
<title>clusterdir_3db3f3ed4f866ce7af3d4224c6625fb2</title>
<g id="a_clust1"><a xlink:href="dir_3db3f3ed4f866ce7af3d4224c6625fb2.html" target="_top" xlink:title="src">
<polygon fill="#ddddee" stroke="black" points="8,-8 8,-295 118,-295 118,-8 8,-8"/>
<text text-anchor="middle" x="63" y="-283" font-family="Helvetica,sans-Serif" font-size="10.00">src</text>
</a>
</g>
</g>
<!-- dir_4a62e3b8da9c3ffe4ae78c3fd1575902 -->
<g id="node1" class="node">
<title>dir_4a62e3b8da9c3ffe4ae78c3fd1575902</title>
<g id="a_node1"><a xlink:href="dir_4a62e3b8da9c3ffe4ae78c3fd1575902.html" target="_top" xlink:title="protobuf_gen">
<polygon fill="none" stroke="black" points="99.5,-52 26.5,-52 26.5,-16 99.5,-16 99.5,-52"/>
<text text-anchor="middle" x="63" y="-31.5" font-family="Helvetica,sans-Serif" font-size="10.00">protobuf_gen</text>
</a>
</g>
</g>
<!-- dir_5d27b7bd9099df9cbf4aab8b97f4916a -->
<g id="node2" class="node">
<title>dir_5d27b7bd9099df9cbf4aab8b97f4916a</title>
<g id="a_node2"><a xlink:href="dir_5d27b7bd9099df9cbf4aab8b97f4916a.html" target="_top" xlink:title="protobuf">
<polygon fill="none" stroke="black" points="90,-124 36,-124 36,-88 90,-88 90,-124"/>
<text text-anchor="middle" x="63" y="-103.5" font-family="Helvetica,sans-Serif" font-size="10.00">protobuf</text>
</a>
</g>
</g>
<!-- dir_5d27b7bd9099df9cbf4aab8b97f4916a&#45;&gt;dir_4a62e3b8da9c3ffe4ae78c3fd1575902 -->
<g id="edge4" class="edge">
<title>dir_5d27b7bd9099df9cbf4aab8b97f4916a&#45;&gt;dir_4a62e3b8da9c3ffe4ae78c3fd1575902</title>
<path fill="none" stroke="black" d="M63,-87.7C63,-79.98 63,-70.71 63,-62.11"/>
<polygon fill="black" stroke="black" points="66.5,-62.1 63,-52.1 59.5,-62.1 66.5,-62.1"/>
<g id="a_edge4&#45;headlabel"><a xlink:href="dir_000017_000018.html" target="_top" xlink:title="3">
<text text-anchor="middle" x="69.34" y="-63.2" font-family="Helvetica,sans-Serif" font-size="10.00">3</text>
</a>
</g>
</g>
<!-- dir_68f35b06d78bed33e27dbc572e4ccbf4 -->
<g id="node3" class="node">
<title>dir_68f35b06d78bed33e27dbc572e4ccbf4</title>
<g id="a_node3"><a xlink:href="dir_68f35b06d78bed33e27dbc572e4ccbf4.html" target="_top" xlink:title="base">
<polygon fill="none" stroke="black" points="110,-196 56,-196 56,-160 110,-160 110,-196"/>
<text text-anchor="middle" x="83" y="-175.5" font-family="Helvetica,sans-Serif" font-size="10.00">base</text>
</a>
</g>
</g>
<!-- dir_68f35b06d78bed33e27dbc572e4ccbf4&#45;&gt;dir_4a62e3b8da9c3ffe4ae78c3fd1575902 -->
<g id="edge1" class="edge">
<title>dir_68f35b06d78bed33e27dbc572e4ccbf4&#45;&gt;dir_4a62e3b8da9c3ffe4ae78c3fd1575902</title>
<path fill="none" stroke="black" d="M90.78,-159.98C97.98,-141.85 106.52,-112.46 99,-88 95.99,-78.22 90.49,-68.62 84.68,-60.33"/>
<polygon fill="black" stroke="black" points="87.41,-58.13 78.61,-52.23 81.81,-62.33 87.41,-58.13"/>
<g id="a_edge1&#45;headlabel"><a xlink:href="dir_000012_000018.html" target="_top" xlink:title="2">
<text text-anchor="middle" x="91.83" y="-56.8" font-family="Helvetica,sans-Serif" font-size="10.00">2</text>
</a>
</g>
</g>
<!-- dir_68f35b06d78bed33e27dbc572e4ccbf4&#45;&gt;dir_5d27b7bd9099df9cbf4aab8b97f4916a -->
<g id="edge2" class="edge">
<title>dir_68f35b06d78bed33e27dbc572e4ccbf4&#45;&gt;dir_5d27b7bd9099df9cbf4aab8b97f4916a</title>
<path fill="none" stroke="black" d="M78.06,-159.7C75.83,-151.9 73.15,-142.51 70.67,-133.83"/>
<polygon fill="black" stroke="black" points="74,-132.76 67.89,-124.1 67.27,-134.68 74,-132.76"/>
<g id="a_edge2&#45;headlabel"><a xlink:href="dir_000012_000017.html" target="_top" xlink:title="2">
<text text-anchor="middle" x="77.72" y="-132.93" font-family="Helvetica,sans-Serif" font-size="10.00">2</text>
</a>
</g>
</g>
<!-- dir_f4e29592698540b446864d2e6f8a2e42 -->
<g id="node5" class="node">
<title>dir_f4e29592698540b446864d2e6f8a2e42</title>
<g id="a_node5"><a xlink:href="dir_f4e29592698540b446864d2e6f8a2e42.html" target="_top" xlink:title="include">
<polygon fill="none" stroke="black" points="182,-124 128,-124 128,-88 182,-88 182,-124"/>
<text text-anchor="middle" x="155" y="-103.5" font-family="Helvetica,sans-Serif" font-size="10.00">include</text>
</a>
</g>
</g>
<!-- dir_68f35b06d78bed33e27dbc572e4ccbf4&#45;&gt;dir_f4e29592698540b446864d2e6f8a2e42 -->
<g id="edge3" class="edge">
<title>dir_68f35b06d78bed33e27dbc572e4ccbf4&#45;&gt;dir_f4e29592698540b446864d2e6f8a2e42</title>
<path fill="none" stroke="black" d="M100.8,-159.7C109.6,-151.14 120.38,-140.66 130,-131.3"/>
<polygon fill="black" stroke="black" points="132.68,-133.58 137.41,-124.1 127.8,-128.57 132.68,-133.58"/>
<g id="a_edge3&#45;headlabel"><a xlink:href="dir_000012_000010.html" target="_top" xlink:title="6">
<text text-anchor="middle" x="132.08" y="-135.63" font-family="Helvetica,sans-Serif" font-size="10.00">6</text>
</a>
</g>
</g>
<!-- dir_9dd8d98f81bc2c97ab3a7456789db1d8 -->
<g id="node4" class="node">
<title>dir_9dd8d98f81bc2c97ab3a7456789db1d8</title>
<g id="a_node4"><a xlink:href="dir_9dd8d98f81bc2c97ab3a7456789db1d8.html" target="_top" xlink:title="client_trafo">
<polygon fill="#eeeeff" stroke="black" points="95.5,-268 30.5,-268 30.5,-232 95.5,-232 95.5,-268"/>
<text text-anchor="middle" x="63" y="-247.5" font-family="Helvetica,sans-Serif" font-size="10.00">client_trafo</text>
</a>
</g>
</g>
<!-- dir_9dd8d98f81bc2c97ab3a7456789db1d8&#45;&gt;dir_4a62e3b8da9c3ffe4ae78c3fd1575902 -->
<g id="edge5" class="edge">
<title>dir_9dd8d98f81bc2c97ab3a7456789db1d8&#45;&gt;dir_4a62e3b8da9c3ffe4ae78c3fd1575902</title>
<path fill="none" stroke="black" d="M53.38,-231.85C38.01,-202.17 11.17,-139.47 27,-88 30.01,-78.22 35.51,-68.62 41.32,-60.33"/>
<polygon fill="black" stroke="black" points="44.19,-62.33 47.39,-52.23 38.59,-58.13 44.19,-62.33"/>
<g id="a_edge5&#45;headlabel"><a xlink:href="dir_000014_000018.html" target="_top" xlink:title="1">
<text text-anchor="middle" x="44.31" y="-64.41" font-family="Helvetica,sans-Serif" font-size="10.00">1</text>
</a>
</g>
</g>
<!-- dir_9dd8d98f81bc2c97ab3a7456789db1d8&#45;&gt;dir_5d27b7bd9099df9cbf4aab8b97f4916a -->
<g id="edge6" class="edge">
<title>dir_9dd8d98f81bc2c97ab3a7456789db1d8&#45;&gt;dir_5d27b7bd9099df9cbf4aab8b97f4916a</title>
<path fill="none" stroke="black" d="M56.35,-231.63C52.8,-221.42 48.8,-208.17 47,-196 44.66,-180.17 44.66,-175.83 47,-160 48.28,-151.35 50.67,-142.15 53.22,-133.89"/>
<polygon fill="black" stroke="black" points="56.55,-134.96 56.35,-124.37 49.9,-132.78 56.55,-134.96"/>
<g id="a_edge6&#45;headlabel"><a xlink:href="dir_000014_000017.html" target="_top" xlink:title="1">
<text text-anchor="middle" x="58.12" y="-136.77" font-family="Helvetica,sans-Serif" font-size="10.00">1</text>
</a>
</g>
</g>
<!-- dir_9dd8d98f81bc2c97ab3a7456789db1d8&#45;&gt;dir_68f35b06d78bed33e27dbc572e4ccbf4 -->
<g id="edge7" class="edge">
<title>dir_9dd8d98f81bc2c97ab3a7456789db1d8&#45;&gt;dir_68f35b06d78bed33e27dbc572e4ccbf4</title>
<path fill="none" stroke="black" d="M67.94,-231.7C70.17,-223.9 72.85,-214.51 75.33,-205.83"/>
<polygon fill="black" stroke="black" points="78.73,-206.68 78.11,-196.1 72,-204.76 78.73,-206.68"/>
<g id="a_edge7&#45;headlabel"><a xlink:href="dir_000014_000012.html" target="_top" xlink:title="1">
<text text-anchor="middle" x="80.47" y="-208.42" font-family="Helvetica,sans-Serif" font-size="10.00">1</text>
</a>
</g>
</g>
<!-- dir_9dd8d98f81bc2c97ab3a7456789db1d8&#45;&gt;dir_f4e29592698540b446864d2e6f8a2e42 -->
<g id="edge8" class="edge">
<title>dir_9dd8d98f81bc2c97ab3a7456789db1d8&#45;&gt;dir_f4e29592698540b446864d2e6f8a2e42</title>
<path fill="none" stroke="black" d="M85.13,-231.96C96.43,-222.37 109.72,-209.6 119,-196 132.08,-176.83 141.58,-152.19 147.52,-133.7"/>
<polygon fill="black" stroke="black" points="150.87,-134.72 150.46,-124.13 144.18,-132.66 150.87,-134.72"/>
<g id="a_edge8&#45;headlabel"><a xlink:href="dir_000014_000010.html" target="_top" xlink:title="1">
<text text-anchor="middle" x="152.53" y="-136.49" font-family="Helvetica,sans-Serif" font-size="10.00">1</text>
</a>
</g>
</g>
</g>
</svg>
