<?xml version="1.0" encoding="UTF-8" standalone="no"?>
<!DOCTYPE svg PUBLIC "-//W3C//DTD SVG 1.1//EN"
 "http://www.w3.org/Graphics/SVG/1.1/DTD/svg11.dtd">
<!-- Generated by graphviz version 2.43.0 (0)
 -->
<!-- Title: build/FRI&#45;Client&#45;SDK_Cpp/src Pages: 1 -->
<svg width="412pt" height="399pt"
 viewBox="0.00 0.00 412.00 399.00" xmlns="http://www.w3.org/2000/svg" xmlns:xlink="http://www.w3.org/1999/xlink">
<g id="graph0" class="graph" transform="scale(1 1) rotate(0) translate(4 395)">
<title>build/FRI&#45;Client&#45;SDK_Cpp/src</title>
<polygon fill="white" stroke="transparent" points="-4,4 -4,-395 408,-395 408,4 -4,4"/>
<g id="clust1" class="cluster">
<title>clusterdir_f27abc31c12fe454e82e76cf713f0d06</title>
<g id="a_clust1"><a xlink:href="dir_f27abc31c12fe454e82e76cf713f0d06.html" target="_top" xlink:title="FRI&#45;Client&#45;SDK_Cpp">
<polygon fill="#ddddee" stroke="black" points="8,-8 8,-383 396,-383 396,-8 8,-8"/>
<text text-anchor="middle" x="202" y="-371" font-family="Helvetica,sans-Serif" font-size="10.00">FRI&#45;Client&#45;SDK_Cpp</text>
</a>
</g>
</g>
<g id="clust2" class="cluster">
<title>clusterdir_3db3f3ed4f866ce7af3d4224c6625fb2</title>
<g id="a_clust2"><a xlink:href="dir_3db3f3ed4f866ce7af3d4224c6625fb2.html" target="_top">
<polygon fill="#eeeeff" stroke="black" points="16,-16 16,-356 326,-356 326,-16 16,-16"/>
</a>
</g>
</g>
<!-- dir_f4e29592698540b446864d2e6f8a2e42 -->
<g id="node1" class="node">
<title>dir_f4e29592698540b446864d2e6f8a2e42</title>
<g id="a_node1"><a xlink:href="dir_f4e29592698540b446864d2e6f8a2e42.html" target="_top" xlink:title="include">
<polygon fill="none" stroke="black" points="388,-204 334,-204 334,-168 388,-168 388,-204"/>
<text text-anchor="middle" x="361" y="-183.5" font-family="Helvetica,sans-Serif" font-size="10.00">include</text>
</a>
</g>
</g>
<!-- dir_3db3f3ed4f866ce7af3d4224c6625fb2 -->
<g id="node2" class="node">
<title>dir_3db3f3ed4f866ce7af3d4224c6625fb2</title>
<text text-anchor="middle" x="291" y="-327.5" font-family="Helvetica,sans-Serif" font-size="10.00">src</text>
</g>
<!-- dir_68f35b06d78bed33e27dbc572e4ccbf4 -->
<g id="node3" class="node">
<title>dir_68f35b06d78bed33e27dbc572e4ccbf4</title>
<g id="a_node3"><a xlink:href="dir_68f35b06d78bed33e27dbc572e4ccbf4.html" target="_top" xlink:title="base">
<polygon fill="white" stroke="black" points="169,-276 115,-276 115,-240 169,-240 169,-276"/>
<text text-anchor="middle" x="142" y="-255.5" font-family="Helvetica,sans-Serif" font-size="10.00">base</text>
</a>
</g>
</g>
<!-- dir_68f35b06d78bed33e27dbc572e4ccbf4&#45;&gt;dir_f4e29592698540b446864d2e6f8a2e42 -->
<g id="edge8" class="edge">
<title>dir_68f35b06d78bed33e27dbc572e4ccbf4&#45;&gt;dir_f4e29592698540b446864d2e6f8a2e42</title>
<path fill="none" stroke="black" d="M169.19,-241.56C170.46,-241 171.74,-240.48 173,-240 236.77,-215.74 260.82,-228.14 324.17,-205.97"/>
<polygon fill="black" stroke="black" points="325.62,-209.17 333.81,-202.44 323.22,-202.59 325.62,-209.17"/>
<g id="a_edge8&#45;headlabel"><a xlink:href="dir_000012_000010.html" target="_top" xlink:title="6">
<text text-anchor="middle" x="323.23" y="-210.57" font-family="Helvetica,sans-Serif" font-size="10.00">6</text>
</a>
</g>
</g>
<!-- dir_5d27b7bd9099df9cbf4aab8b97f4916a -->
<g id="node8" class="node">
<title>dir_5d27b7bd9099df9cbf4aab8b97f4916a</title>
<g id="a_node8"><a xlink:href="dir_5d27b7bd9099df9cbf4aab8b97f4916a.html" target="_top" xlink:title="protobuf">
<polygon fill="white" stroke="black" points="123,-204 69,-204 69,-168 123,-168 123,-204"/>
<text text-anchor="middle" x="96" y="-183.5" font-family="Helvetica,sans-Serif" font-size="10.00">protobuf</text>
</a>
</g>
</g>
<!-- dir_68f35b06d78bed33e27dbc572e4ccbf4&#45;&gt;dir_5d27b7bd9099df9cbf4aab8b97f4916a -->
<g id="edge7" class="edge">
<title>dir_68f35b06d78bed33e27dbc572e4ccbf4&#45;&gt;dir_5d27b7bd9099df9cbf4aab8b97f4916a</title>
<path fill="none" stroke="black" d="M130.63,-239.7C125.28,-231.56 118.8,-221.69 112.89,-212.7"/>
<polygon fill="black" stroke="black" points="115.66,-210.54 107.24,-204.1 109.81,-214.38 115.66,-210.54"/>
<g id="a_edge7&#45;headlabel"><a xlink:href="dir_000012_000017.html" target="_top" xlink:title="2">
<text text-anchor="middle" x="120" y="-209.48" font-family="Helvetica,sans-Serif" font-size="10.00">2</text>
</a>
</g>
</g>
<!-- dir_4a62e3b8da9c3ffe4ae78c3fd1575902 -->
<g id="node9" class="node">
<title>dir_4a62e3b8da9c3ffe4ae78c3fd1575902</title>
<g id="a_node9"><a xlink:href="dir_4a62e3b8da9c3ffe4ae78c3fd1575902.html" target="_top" xlink:title="protobuf_gen">
<polygon fill="white" stroke="black" points="145.5,-132 72.5,-132 72.5,-96 145.5,-96 145.5,-132"/>
<text text-anchor="middle" x="109" y="-111.5" font-family="Helvetica,sans-Serif" font-size="10.00">protobuf_gen</text>
</a>
</g>
</g>
<!-- dir_68f35b06d78bed33e27dbc572e4ccbf4&#45;&gt;dir_4a62e3b8da9c3ffe4ae78c3fd1575902 -->
<g id="edge6" class="edge">
<title>dir_68f35b06d78bed33e27dbc572e4ccbf4&#45;&gt;dir_4a62e3b8da9c3ffe4ae78c3fd1575902</title>
<path fill="none" stroke="black" d="M141.59,-239.99C140.8,-221.87 138.53,-192.49 132,-168 129.62,-159.08 125.98,-149.73 122.3,-141.41"/>
<polygon fill="black" stroke="black" points="125.4,-139.79 118.02,-132.2 119.06,-142.74 125.4,-139.79"/>
<g id="a_edge6&#45;headlabel"><a xlink:href="dir_000012_000018.html" target="_top" xlink:title="2">
<text text-anchor="middle" x="129.49" y="-139.36" font-family="Helvetica,sans-Serif" font-size="10.00">2</text>
</a>
</g>
</g>
<!-- dir_91a646e338a70861e1612eafff2828d2 -->
<g id="node4" class="node">
<title>dir_91a646e338a70861e1612eafff2828d2</title>
<g id="a_node4"><a xlink:href="dir_91a646e338a70861e1612eafff2828d2.html" target="_top" xlink:title="client_lbr">
<polygon fill="white" stroke="black" points="164,-348 108,-348 108,-312 164,-312 164,-348"/>
<text text-anchor="middle" x="136" y="-327.5" font-family="Helvetica,sans-Serif" font-size="10.00">client_lbr</text>
</a>
</g>
</g>
<!-- dir_91a646e338a70861e1612eafff2828d2&#45;&gt;dir_f4e29592698540b446864d2e6f8a2e42 -->
<g id="edge3" class="edge">
<title>dir_91a646e338a70861e1612eafff2828d2&#45;&gt;dir_f4e29592698540b446864d2e6f8a2e42</title>
<path fill="none" stroke="black" d="M164.22,-315.87C167.18,-314.54 170.14,-313.23 173,-312 212.17,-295.09 225.81,-298.6 262,-276 291.07,-257.84 319.69,-230.85 338.62,-211.36"/>
<polygon fill="black" stroke="black" points="341.24,-213.68 345.62,-204.03 336.18,-208.84 341.24,-213.68"/>
<g id="a_edge3&#45;headlabel"><a xlink:href="dir_000013_000010.html" target="_top" xlink:title="4">
<text text-anchor="middle" x="340.81" y="-215.74" font-family="Helvetica,sans-Serif" font-size="10.00">4</text>
</a>
</g>
</g>
<!-- dir_91a646e338a70861e1612eafff2828d2&#45;&gt;dir_68f35b06d78bed33e27dbc572e4ccbf4 -->
<g id="edge2" class="edge">
<title>dir_91a646e338a70861e1612eafff2828d2&#45;&gt;dir_68f35b06d78bed33e27dbc572e4ccbf4</title>
<path fill="none" stroke="black" d="M137.48,-311.7C138.14,-303.98 138.94,-294.71 139.68,-286.11"/>
<polygon fill="black" stroke="black" points="143.17,-286.37 140.53,-276.1 136.19,-285.77 143.17,-286.37"/>
<g id="a_edge2&#45;headlabel"><a xlink:href="dir_000013_000012.html" target="_top" xlink:title="3">
<text text-anchor="middle" x="145.69" y="-287.69" font-family="Helvetica,sans-Serif" font-size="10.00">3</text>
</a>
</g>
</g>
<!-- dir_91a646e338a70861e1612eafff2828d2&#45;&gt;dir_5d27b7bd9099df9cbf4aab8b97f4916a -->
<g id="edge1" class="edge">
<title>dir_91a646e338a70861e1612eafff2828d2&#45;&gt;dir_5d27b7bd9099df9cbf4aab8b97f4916a</title>
<path fill="none" stroke="black" d="M123.83,-311.68C117.44,-301.71 110.11,-288.67 106,-276 99.5,-255.94 97.08,-232.16 96.24,-214.22"/>
<polygon fill="black" stroke="black" points="99.74,-214.04 95.91,-204.16 92.74,-214.27 99.74,-214.04"/>
<g id="a_edge1&#45;headlabel"><a xlink:href="dir_000013_000017.html" target="_top" xlink:title="2">
<text text-anchor="middle" x="102.69" y="-215.03" font-family="Helvetica,sans-Serif" font-size="10.00">2</text>
</a>
</g>
</g>
<!-- dir_9dd8d98f81bc2c97ab3a7456789db1d8 -->
<g id="node5" class="node">
<title>dir_9dd8d98f81bc2c97ab3a7456789db1d8</title>
<g id="a_node5"><a xlink:href="dir_9dd8d98f81bc2c97ab3a7456789db1d8.html" target="_top" xlink:title="client_trafo">
<polygon fill="white" stroke="black" points="89.5,-348 24.5,-348 24.5,-312 89.5,-312 89.5,-348"/>
<text text-anchor="middle" x="57" y="-327.5" font-family="Helvetica,sans-Serif" font-size="10.00">client_trafo</text>
</a>
</g>
</g>
<!-- dir_9dd8d98f81bc2c97ab3a7456789db1d8&#45;&gt;dir_f4e29592698540b446864d2e6f8a2e42 -->
<g id="edge14" class="edge">
<title>dir_9dd8d98f81bc2c97ab3a7456789db1d8&#45;&gt;dir_f4e29592698540b446864d2e6f8a2e42</title>
<path fill="none" stroke="black" d="M89.79,-315.07C139.76,-293.6 238,-250.48 325.07,-206.47"/>
<polygon fill="black" stroke="black" points="326.67,-209.58 334,-201.93 323.5,-203.34 326.67,-209.58"/>
<g id="a_edge14&#45;headlabel"><a xlink:href="dir_000014_000010.html" target="_top" xlink:title="1">
<text text-anchor="middle" x="324.75" y="-211.24" font-family="Helvetica,sans-Serif" font-size="10.00">1</text>
</a>
</g>
</g>
<!-- dir_9dd8d98f81bc2c97ab3a7456789db1d8&#45;&gt;dir_68f35b06d78bed33e27dbc572e4ccbf4 -->
<g id="edge13" class="edge">
<title>dir_9dd8d98f81bc2c97ab3a7456789db1d8&#45;&gt;dir_68f35b06d78bed33e27dbc572e4ccbf4</title>
<path fill="none" stroke="black" d="M78.01,-311.7C88.72,-302.88 101.89,-292.03 113.5,-282.47"/>
<polygon fill="black" stroke="black" points="115.74,-285.16 121.23,-276.1 111.29,-279.76 115.74,-285.16"/>
<g id="a_edge13&#45;headlabel"><a xlink:href="dir_000014_000012.html" target="_top" xlink:title="1">
<text text-anchor="middle" x="114.77" y="-287.14" font-family="Helvetica,sans-Serif" font-size="10.00">1</text>
</a>
</g>
</g>
<!-- dir_9dd8d98f81bc2c97ab3a7456789db1d8&#45;&gt;dir_5d27b7bd9099df9cbf4aab8b97f4916a -->
<g id="edge12" class="edge">
<title>dir_9dd8d98f81bc2c97ab3a7456789db1d8&#45;&gt;dir_5d27b7bd9099df9cbf4aab8b97f4916a</title>
<path fill="none" stroke="black" d="M61.7,-311.87C68.38,-287.56 80.67,-242.82 88.58,-214.01"/>
<polygon fill="black" stroke="black" points="92.01,-214.76 91.28,-204.19 85.26,-212.91 92.01,-214.76"/>
<g id="a_edge12&#45;headlabel"><a xlink:href="dir_000014_000017.html" target="_top" xlink:title="1">
<text text-anchor="middle" x="93.79" y="-216.48" font-family="Helvetica,sans-Serif" font-size="10.00">1</text>
</a>
</g>
</g>
<!-- dir_9dd8d98f81bc2c97ab3a7456789db1d8&#45;&gt;dir_4a62e3b8da9c3ffe4ae78c3fd1575902 -->
<g id="edge11" class="edge">
<title>dir_9dd8d98f81bc2c97ab3a7456789db1d8&#45;&gt;dir_4a62e3b8da9c3ffe4ae78c3fd1575902</title>
<path fill="none" stroke="black" d="M53.46,-311.76C48.04,-281.41 40.28,-217.02 60,-168 64.3,-157.32 71.82,-147.48 79.7,-139.25"/>
<polygon fill="black" stroke="black" points="82.24,-141.66 86.96,-132.17 77.36,-136.65 82.24,-141.66"/>
<g id="a_edge11&#45;headlabel"><a xlink:href="dir_000014_000018.html" target="_top" xlink:title="1">
<text text-anchor="middle" x="81.65" y="-143.7" font-family="Helvetica,sans-Serif" font-size="10.00">1</text>
</a>
</g>
</g>
<!-- dir_69577be7f3e80dda380dedf4fbf52821 -->
<g id="node6" class="node">
<title>dir_69577be7f3e80dda380dedf4fbf52821</title>
<g id="a_node6"><a xlink:href="dir_69577be7f3e80dda380dedf4fbf52821.html" target="_top" xlink:title="connection">
<polygon fill="white" stroke="black" points="246,-348 182,-348 182,-312 246,-312 246,-348"/>
<text text-anchor="middle" x="214" y="-327.5" font-family="Helvetica,sans-Serif" font-size="10.00">connection</text>
</a>
</g>
</g>
<!-- dir_69577be7f3e80dda380dedf4fbf52821&#45;&gt;dir_f4e29592698540b446864d2e6f8a2e42 -->
<g id="edge4" class="edge">
<title>dir_69577be7f3e80dda380dedf4fbf52821&#45;&gt;dir_f4e29592698540b446864d2e6f8a2e42</title>
<path fill="none" stroke="black" d="M246.14,-315.14C272.2,-303.43 306.32,-286.86 317,-276 334.22,-258.5 345.89,-232.93 352.87,-213.68"/>
<polygon fill="black" stroke="black" points="356.25,-214.6 356.18,-204 349.63,-212.33 356.25,-214.6"/>
<g id="a_edge4&#45;headlabel"><a xlink:href="dir_000015_000010.html" target="_top" xlink:title="1">
<text text-anchor="middle" x="357.78" y="-216.42" font-family="Helvetica,sans-Serif" font-size="10.00">1</text>
</a>
</g>
</g>
<!-- dir_fed29a1ea96af3e9bf2351c0f9e80dd6 -->
<g id="node7" class="node">
<title>dir_fed29a1ea96af3e9bf2351c0f9e80dd6</title>
<g id="a_node7"><a xlink:href="dir_fed29a1ea96af3e9bf2351c0f9e80dd6.html" target="_top" xlink:title="nanopb&#45;0.2.8">
<polygon fill="white" stroke="black" points="118.5,-60 45.5,-60 45.5,-24 118.5,-24 118.5,-60"/>
<text text-anchor="middle" x="82" y="-39.5" font-family="Helvetica,sans-Serif" font-size="10.00">nanopb&#45;0.2.8</text>
</a>
</g>
</g>
<!-- dir_5d27b7bd9099df9cbf4aab8b97f4916a&#45;&gt;dir_fed29a1ea96af3e9bf2351c0f9e80dd6 -->
<g id="edge10" class="edge">
<title>dir_5d27b7bd9099df9cbf4aab8b97f4916a&#45;&gt;dir_fed29a1ea96af3e9bf2351c0f9e80dd6</title>
<path fill="none" stroke="black" d="M81.67,-167.57C74.55,-157.76 66.69,-144.92 63,-132 57.12,-111.43 62.78,-87.72 69.41,-69.94"/>
<polygon fill="black" stroke="black" points="72.83,-70.81 73.35,-60.23 66.35,-68.18 72.83,-70.81"/>
<g id="a_edge10&#45;headlabel"><a xlink:href="dir_000017_000016.html" target="_top" xlink:title="5">
<text text-anchor="middle" x="74.11" y="-72.71" font-family="Helvetica,sans-Serif" font-size="10.00">5</text>
</a>
</g>
</g>
<!-- dir_5d27b7bd9099df9cbf4aab8b97f4916a&#45;&gt;dir_4a62e3b8da9c3ffe4ae78c3fd1575902 -->
<g id="edge9" class="edge">
<title>dir_5d27b7bd9099df9cbf4aab8b97f4916a&#45;&gt;dir_4a62e3b8da9c3ffe4ae78c3fd1575902</title>
<path fill="none" stroke="black" d="M99.21,-167.7C100.65,-159.98 102.37,-150.71 103.96,-142.11"/>
<polygon fill="black" stroke="black" points="107.44,-142.58 105.82,-132.1 100.56,-141.3 107.44,-142.58"/>
<g id="a_edge9&#45;headlabel"><a xlink:href="dir_000017_000018.html" target="_top" xlink:title="3">
<text text-anchor="middle" x="109.57" y="-144.13" font-family="Helvetica,sans-Serif" font-size="10.00">3</text>
</a>
</g>
</g>
<!-- dir_4a62e3b8da9c3ffe4ae78c3fd1575902&#45;&gt;dir_fed29a1ea96af3e9bf2351c0f9e80dd6 -->
<g id="edge5" class="edge">
<title>dir_4a62e3b8da9c3ffe4ae78c3fd1575902&#45;&gt;dir_fed29a1ea96af3e9bf2351c0f9e80dd6</title>
<path fill="none" stroke="black" d="M102.33,-95.7C99.29,-87.81 95.62,-78.3 92.24,-69.55"/>
<polygon fill="black" stroke="black" points="95.46,-68.17 88.6,-60.1 88.93,-70.69 95.46,-68.17"/>
<g id="a_edge5&#45;headlabel"><a xlink:href="dir_000018_000016.html" target="_top" xlink:title="1">
<text text-anchor="middle" x="99.4" y="-68.01" font-family="Helvetica,sans-Serif" font-size="10.00">1</text>
</a>
</g>
</g>
</g>
</svg>
