<?xml version="1.0" encoding="UTF-8" standalone="no"?>
<!DOCTYPE svg PUBLIC "-//W3C//DTD SVG 1.1//EN"
 "http://www.w3.org/Graphics/SVG/1.1/DTD/svg11.dtd">
<!-- Generated by graphviz version 2.43.0 (0)
 -->
<!-- Title: build/FRI&#45;Client&#45;SDK_Cpp/src/protobuf/friCommandMessageEncoder.cpp Pages: 1 -->
<svg width="306pt" height="330pt"
 viewBox="0.00 0.00 305.50 330.00" xmlns="http://www.w3.org/2000/svg" xmlns:xlink="http://www.w3.org/1999/xlink">
<g id="graph0" class="graph" transform="scale(1 1) rotate(0) translate(4 326)">
<title>build/FRI&#45;Client&#45;SDK_Cpp/src/protobuf/friCommandMessageEncoder.cpp</title>
<polygon fill="white" stroke="transparent" points="-4,4 -4,-326 301.5,-326 301.5,4 -4,4"/>
<!-- Node1 -->
<g id="node1" class="node">
<title>Node1</title>
<g id="a_node1"><a xlink:title=" ">
<polygon fill="#bfbfbf" stroke="black" points="62,-280.5 62,-321.5 213,-321.5 213,-280.5 62,-280.5"/>
<text text-anchor="start" x="70" y="-309.5" font-family="Helvetica,sans-Serif" font-size="10.00">build/FRI&#45;Client&#45;SDK</text>
<text text-anchor="start" x="70" y="-298.5" font-family="Helvetica,sans-Serif" font-size="10.00">_Cpp/src/protobuf/friCommand</text>
<text text-anchor="middle" x="137.5" y="-287.5" font-family="Helvetica,sans-Serif" font-size="10.00">MessageEncoder.cpp</text>
</a>
</g>
</g>
<!-- Node2 -->
<g id="node2" class="node">
<title>Node2</title>
<g id="a_node2"><a xlink:title=" ">
<polygon fill="white" stroke="#bfbfbf" points="0,-224.5 0,-243.5 43,-243.5 43,-224.5 0,-224.5"/>
<text text-anchor="middle" x="21.5" y="-231.5" font-family="Helvetica,sans-Serif" font-size="10.00">cstdio</text>
</a>
</g>
</g>
<!-- Node1&#45;&gt;Node2 -->
<g id="edge1" class="edge">
<title>Node1&#45;&gt;Node2</title>
<path fill="none" stroke="midnightblue" d="M102.7,-280.5C84.4,-270.24 62.41,-257.93 45.94,-248.69"/>
<polygon fill="midnightblue" stroke="midnightblue" points="47.38,-245.49 36.94,-243.65 43.95,-251.59 47.38,-245.49"/>
</g>
<!-- Node3 -->
<g id="node3" class="node">
<title>Node3</title>
<g id="a_node3"><a xlink:href="fri_command_message_encoder_8h.html" target="_top" xlink:title=" ">
<polygon fill="white" stroke="black" points="61,-224.5 61,-243.5 214,-243.5 214,-224.5 61,-224.5"/>
<text text-anchor="middle" x="137.5" y="-231.5" font-family="Helvetica,sans-Serif" font-size="10.00">friCommandMessageEncoder.h</text>
</a>
</g>
</g>
<!-- Node1&#45;&gt;Node3 -->
<g id="edge2" class="edge">
<title>Node1&#45;&gt;Node3</title>
<path fill="none" stroke="midnightblue" d="M137.5,-280.5C137.5,-272.07 137.5,-262.24 137.5,-253.87"/>
<polygon fill="midnightblue" stroke="midnightblue" points="141,-253.65 137.5,-243.65 134,-253.65 141,-253.65"/>
</g>
<!-- Node11 -->
<g id="node11" class="node">
<title>Node11</title>
<g id="a_node11"><a xlink:href="pb__encode_8h.html" target="_top" xlink:title=" ">
<polygon fill="white" stroke="black" points="225.5,-168.5 225.5,-187.5 297.5,-187.5 297.5,-168.5 225.5,-168.5"/>
<text text-anchor="middle" x="261.5" y="-175.5" font-family="Helvetica,sans-Serif" font-size="10.00">pb_encode.h</text>
</a>
</g>
</g>
<!-- Node1&#45;&gt;Node11 -->
<g id="edge12" class="edge">
<title>Node1&#45;&gt;Node11</title>
<path fill="none" stroke="midnightblue" d="M175.45,-280.49C191.55,-270.97 209.73,-258.45 223.5,-244 236.58,-230.28 247.03,-211.24 253.64,-197.32"/>
<polygon fill="midnightblue" stroke="midnightblue" points="257,-198.39 257.92,-187.84 250.62,-195.51 257,-198.39"/>
</g>
<!-- Node4 -->
<g id="node4" class="node">
<title>Node4</title>
<g id="a_node4"><a xlink:href="_f_r_i_messages_8pb_8h.html" target="_top" xlink:title=" ">
<polygon fill="white" stroke="black" points="30.5,-112.5 30.5,-131.5 130.5,-131.5 130.5,-112.5 30.5,-112.5"/>
<text text-anchor="middle" x="80.5" y="-119.5" font-family="Helvetica,sans-Serif" font-size="10.00">FRIMessages.pb.h</text>
</a>
</g>
</g>
<!-- Node3&#45;&gt;Node4 -->
<g id="edge3" class="edge">
<title>Node3&#45;&gt;Node4</title>
<path fill="none" stroke="midnightblue" d="M107.62,-224.39C89.96,-217.59 69.05,-206.15 58.5,-188 49.74,-172.94 58.17,-153.87 67.01,-140.29"/>
<polygon fill="midnightblue" stroke="midnightblue" points="70.04,-142.06 72.99,-131.88 64.34,-138.01 70.04,-142.06"/>
</g>
<!-- Node10 -->
<g id="node10" class="node">
<title>Node10</title>
<g id="a_node10"><a xlink:href="pb__frimessages__callbacks_8h.html" target="_top" xlink:title=" ">
<polygon fill="white" stroke="black" points="67.5,-168.5 67.5,-187.5 207.5,-187.5 207.5,-168.5 67.5,-168.5"/>
<text text-anchor="middle" x="137.5" y="-175.5" font-family="Helvetica,sans-Serif" font-size="10.00">pb_frimessages_callbacks.h</text>
</a>
</g>
</g>
<!-- Node3&#45;&gt;Node10 -->
<g id="edge9" class="edge">
<title>Node3&#45;&gt;Node10</title>
<path fill="none" stroke="midnightblue" d="M137.5,-224.08C137.5,-217.01 137.5,-206.86 137.5,-197.99"/>
<polygon fill="midnightblue" stroke="midnightblue" points="141,-197.75 137.5,-187.75 134,-197.75 141,-197.75"/>
</g>
<!-- Node5 -->
<g id="node5" class="node">
<title>Node5</title>
<g id="a_node5"><a xlink:href="pb_8h.html" target="_top" xlink:title=" ">
<polygon fill="white" stroke="black" points="141,-56.5 141,-75.5 176,-75.5 176,-56.5 141,-56.5"/>
<text text-anchor="middle" x="158.5" y="-63.5" font-family="Helvetica,sans-Serif" font-size="10.00">pb.h</text>
</a>
</g>
</g>
<!-- Node4&#45;&gt;Node5 -->
<g id="edge4" class="edge">
<title>Node4&#45;&gt;Node5</title>
<path fill="none" stroke="midnightblue" d="M93.03,-112.32C105.09,-103.98 123.53,-91.21 137.77,-81.35"/>
<polygon fill="midnightblue" stroke="midnightblue" points="139.77,-84.22 146,-75.65 135.78,-78.47 139.77,-84.22"/>
</g>
<!-- Node6 -->
<g id="node6" class="node">
<title>Node6</title>
<g id="a_node6"><a xlink:title=" ">
<polygon fill="white" stroke="#bfbfbf" points="29,-0.5 29,-19.5 78,-19.5 78,-0.5 29,-0.5"/>
<text text-anchor="middle" x="53.5" y="-7.5" font-family="Helvetica,sans-Serif" font-size="10.00">stdint.h</text>
</a>
</g>
</g>
<!-- Node5&#45;&gt;Node6 -->
<g id="edge5" class="edge">
<title>Node5&#45;&gt;Node6</title>
<path fill="none" stroke="midnightblue" d="M141.63,-56.32C124.79,-47.66 98.69,-34.24 79.26,-24.25"/>
<polygon fill="midnightblue" stroke="midnightblue" points="80.82,-21.12 70.33,-19.65 77.62,-27.34 80.82,-21.12"/>
</g>
<!-- Node7 -->
<g id="node7" class="node">
<title>Node7</title>
<g id="a_node7"><a xlink:title=" ">
<polygon fill="white" stroke="#bfbfbf" points="96.5,-0.5 96.5,-19.5 148.5,-19.5 148.5,-0.5 96.5,-0.5"/>
<text text-anchor="middle" x="122.5" y="-7.5" font-family="Helvetica,sans-Serif" font-size="10.00">stddef.h</text>
</a>
</g>
</g>
<!-- Node5&#45;&gt;Node7 -->
<g id="edge6" class="edge">
<title>Node5&#45;&gt;Node7</title>
<path fill="none" stroke="midnightblue" d="M152.56,-56.08C147.52,-48.53 140.16,-37.49 133.99,-28.23"/>
<polygon fill="midnightblue" stroke="midnightblue" points="136.79,-26.13 128.33,-19.75 130.97,-30.01 136.79,-26.13"/>
</g>
<!-- Node8 -->
<g id="node8" class="node">
<title>Node8</title>
<g id="a_node8"><a xlink:title=" ">
<polygon fill="white" stroke="#bfbfbf" points="166.5,-0.5 166.5,-19.5 222.5,-19.5 222.5,-0.5 166.5,-0.5"/>
<text text-anchor="middle" x="194.5" y="-7.5" font-family="Helvetica,sans-Serif" font-size="10.00">stdbool.h</text>
</a>
</g>
</g>
<!-- Node5&#45;&gt;Node8 -->
<g id="edge7" class="edge">
<title>Node5&#45;&gt;Node8</title>
<path fill="none" stroke="midnightblue" d="M164.44,-56.08C169.48,-48.53 176.84,-37.49 183.01,-28.23"/>
<polygon fill="midnightblue" stroke="midnightblue" points="186.03,-30.01 188.67,-19.75 180.21,-26.13 186.03,-30.01"/>
</g>
<!-- Node9 -->
<g id="node9" class="node">
<title>Node9</title>
<g id="a_node9"><a xlink:title=" ">
<polygon fill="white" stroke="#bfbfbf" points="241,-0.5 241,-19.5 290,-19.5 290,-0.5 241,-0.5"/>
<text text-anchor="middle" x="265.5" y="-7.5" font-family="Helvetica,sans-Serif" font-size="10.00">string.h</text>
</a>
</g>
</g>
<!-- Node5&#45;&gt;Node9 -->
<g id="edge8" class="edge">
<title>Node5&#45;&gt;Node9</title>
<path fill="none" stroke="midnightblue" d="M175.69,-56.32C192.85,-47.66 219.45,-34.24 239.25,-24.25"/>
<polygon fill="midnightblue" stroke="midnightblue" points="241,-27.28 248.35,-19.65 237.85,-21.04 241,-27.28"/>
</g>
<!-- Node10&#45;&gt;Node4 -->
<g id="edge11" class="edge">
<title>Node10&#45;&gt;Node4</title>
<path fill="none" stroke="midnightblue" d="M128.34,-168.32C120,-160.42 107.47,-148.55 97.32,-138.94"/>
<polygon fill="midnightblue" stroke="midnightblue" points="99.49,-136.17 89.82,-131.83 94.68,-141.25 99.49,-136.17"/>
</g>
<!-- Node10&#45;&gt;Node5 -->
<g id="edge10" class="edge">
<title>Node10&#45;&gt;Node5</title>
<path fill="none" stroke="midnightblue" d="M139.15,-168.37C142.54,-150.62 150.35,-109.67 154.95,-85.6"/>
<polygon fill="midnightblue" stroke="midnightblue" points="158.42,-86.07 156.86,-75.59 151.55,-84.76 158.42,-86.07"/>
</g>
<!-- Node11&#45;&gt;Node5 -->
<g id="edge13" class="edge">
<title>Node11&#45;&gt;Node5</title>
<path fill="none" stroke="midnightblue" d="M253.42,-168.37C236.19,-149.97 195.65,-106.67 173.53,-83.05"/>
<polygon fill="midnightblue" stroke="midnightblue" points="175.93,-80.5 166.54,-75.59 170.82,-85.28 175.93,-80.5"/>
</g>
</g>
</svg>
