<?xml version="1.0" encoding="UTF-8" standalone="no"?>
<!DOCTYPE svg PUBLIC "-//W3C//DTD SVG 1.1//EN"
 "http://www.w3.org/Graphics/SVG/1.1/DTD/svg11.dtd">
<!-- Generated by graphviz version 2.43.0 (0)
 -->
<!-- Title: build/FRI&#45;Client&#45;SDK_Cpp/src/client_lbr/friLBRClient.cpp Pages: 1 -->
<svg width="816pt" height="375pt"
 viewBox="0.00 0.00 815.50 375.00" xmlns="http://www.w3.org/2000/svg" xmlns:xlink="http://www.w3.org/1999/xlink">
<g id="graph0" class="graph" transform="scale(1 1) rotate(0) translate(4 371)">
<title>build/FRI&#45;Client&#45;SDK_Cpp/src/client_lbr/friLBRClient.cpp</title>
<polygon fill="white" stroke="transparent" points="-4,4 -4,-371 811.5,-371 811.5,4 -4,4"/>
<!-- Node1 -->
<g id="node1" class="node">
<title>Node1</title>
<g id="a_node1"><a xlink:title=" ">
<polygon fill="#bfbfbf" stroke="black" points="94.5,-336.5 94.5,-366.5 267.5,-366.5 267.5,-336.5 94.5,-336.5"/>
<text text-anchor="start" x="102.5" y="-354.5" font-family="Helvetica,sans-Serif" font-size="10.00">build/FRI&#45;Client&#45;SDK</text>
<text text-anchor="middle" x="181" y="-343.5" font-family="Helvetica,sans-Serif" font-size="10.00">_Cpp/src/client_lbr/friLBRClient.cpp</text>
</a>
</g>
</g>
<!-- Node2 -->
<g id="node2" class="node">
<title>Node2</title>
<g id="a_node2"><a xlink:title=" ">
<polygon fill="white" stroke="#bfbfbf" points="80.5,-280.5 80.5,-299.5 123.5,-299.5 123.5,-280.5 80.5,-280.5"/>
<text text-anchor="middle" x="102" y="-287.5" font-family="Helvetica,sans-Serif" font-size="10.00">cstdio</text>
</a>
</g>
</g>
<!-- Node1&#45;&gt;Node2 -->
<g id="edge1" class="edge">
<title>Node1&#45;&gt;Node2</title>
<path fill="none" stroke="midnightblue" d="M162.28,-336.4C150.09,-327.22 134.21,-315.26 121.81,-305.92"/>
<polygon fill="midnightblue" stroke="midnightblue" points="123.59,-302.88 113.5,-299.66 119.38,-308.47 123.59,-302.88"/>
</g>
<!-- Node3 -->
<g id="node3" class="node">
<title>Node3</title>
<g id="a_node3"><a xlink:href="fri_l_b_r_client_8h.html" target="_top" xlink:title=" ">
<polygon fill="white" stroke="black" points="142,-280.5 142,-299.5 220,-299.5 220,-280.5 142,-280.5"/>
<text text-anchor="middle" x="181" y="-287.5" font-family="Helvetica,sans-Serif" font-size="10.00">friLBRClient.h</text>
</a>
</g>
</g>
<!-- Node1&#45;&gt;Node3 -->
<g id="edge2" class="edge">
<title>Node1&#45;&gt;Node3</title>
<path fill="none" stroke="midnightblue" d="M181,-336.4C181,-328.47 181,-318.46 181,-309.86"/>
<polygon fill="midnightblue" stroke="midnightblue" points="184.5,-309.66 181,-299.66 177.5,-309.66 184.5,-309.66"/>
</g>
<!-- Node7 -->
<g id="node7" class="node">
<title>Node7</title>
<g id="a_node7"><a xlink:href="fri_client_data_8h.html" target="_top" xlink:title=" ">
<polygon fill="white" stroke="black" points="495,-280.5 495,-299.5 575,-299.5 575,-280.5 495,-280.5"/>
<text text-anchor="middle" x="535" y="-287.5" font-family="Helvetica,sans-Serif" font-size="10.00">friClientData.h</text>
</a>
</g>
</g>
<!-- Node1&#45;&gt;Node7 -->
<g id="edge7" class="edge">
<title>Node1&#45;&gt;Node7</title>
<path fill="none" stroke="midnightblue" d="M264.44,-336.47C332.9,-324.97 427.56,-309.06 484.85,-299.43"/>
<polygon fill="midnightblue" stroke="midnightblue" points="485.47,-302.87 494.75,-297.76 484.31,-295.97 485.47,-302.87"/>
</g>
<!-- Node4 -->
<g id="node4" class="node">
<title>Node4</title>
<g id="a_node4"><a xlink:href="fri_client_if_8h.html" target="_top" xlink:title=" ">
<polygon fill="white" stroke="black" points="187.5,-168.5 187.5,-187.5 252.5,-187.5 252.5,-168.5 187.5,-168.5"/>
<text text-anchor="middle" x="220" y="-175.5" font-family="Helvetica,sans-Serif" font-size="10.00">friClientIf.h</text>
</a>
</g>
</g>
<!-- Node3&#45;&gt;Node4 -->
<g id="edge3" class="edge">
<title>Node3&#45;&gt;Node4</title>
<path fill="none" stroke="midnightblue" d="M185.34,-280.18C189.66,-271.21 196.29,-256.84 201,-244 206.69,-228.48 211.86,-210.39 215.37,-197.25"/>
<polygon fill="midnightblue" stroke="midnightblue" points="218.77,-198.09 217.9,-187.53 211.99,-196.33 218.77,-198.09"/>
</g>
<!-- Node5 -->
<g id="node5" class="node">
<title>Node5</title>
<g id="a_node5"><a xlink:href="fri_l_b_r_state_8h.html" target="_top" xlink:title=" ">
<polygon fill="white" stroke="black" points="0,-224.5 0,-243.5 76,-243.5 76,-224.5 0,-224.5"/>
<text text-anchor="middle" x="38" y="-231.5" font-family="Helvetica,sans-Serif" font-size="10.00">friLBRState.h</text>
</a>
</g>
</g>
<!-- Node3&#45;&gt;Node5 -->
<g id="edge4" class="edge">
<title>Node3&#45;&gt;Node5</title>
<path fill="none" stroke="midnightblue" d="M158.34,-280.44C134.6,-271.48 97.09,-257.31 70.26,-247.18"/>
<polygon fill="midnightblue" stroke="midnightblue" points="71.14,-243.77 60.55,-243.52 68.67,-250.32 71.14,-243.77"/>
</g>
<!-- Node6 -->
<g id="node6" class="node">
<title>Node6</title>
<g id="a_node6"><a xlink:href="fri_l_b_r_command_8h.html" target="_top" xlink:title=" ">
<polygon fill="white" stroke="black" points="94,-224.5 94,-243.5 192,-243.5 192,-224.5 94,-224.5"/>
<text text-anchor="middle" x="143" y="-231.5" font-family="Helvetica,sans-Serif" font-size="10.00">friLBRCommand.h</text>
</a>
</g>
</g>
<!-- Node3&#45;&gt;Node6 -->
<g id="edge6" class="edge">
<title>Node3&#45;&gt;Node6</title>
<path fill="none" stroke="midnightblue" d="M174.73,-280.08C169.36,-272.46 161.48,-261.26 154.92,-251.94"/>
<polygon fill="midnightblue" stroke="midnightblue" points="157.78,-249.91 149.16,-243.75 152.05,-253.94 157.78,-249.91"/>
</g>
<!-- Node5&#45;&gt;Node4 -->
<g id="edge5" class="edge">
<title>Node5&#45;&gt;Node4</title>
<path fill="none" stroke="midnightblue" d="M66.84,-224.44C97.86,-215.24 147.33,-200.56 181.62,-190.39"/>
<polygon fill="midnightblue" stroke="midnightblue" points="182.71,-193.72 191.3,-187.52 180.71,-187.01 182.71,-193.72"/>
</g>
<!-- Node7&#45;&gt;Node4 -->
<g id="edge23" class="edge">
<title>Node7&#45;&gt;Node4</title>
<path fill="none" stroke="midnightblue" d="M494.93,-285.29C432.08,-278.93 313.67,-264.6 277,-244 256.84,-232.68 240.31,-211.45 230.33,-196.33"/>
<polygon fill="midnightblue" stroke="midnightblue" points="233.28,-194.45 225,-187.86 227.36,-198.18 233.28,-194.45"/>
</g>
<!-- Node8 -->
<g id="node8" class="node">
<title>Node8</title>
<g id="a_node8"><a xlink:title=" ">
<polygon fill="white" stroke="#bfbfbf" points="668,-224.5 668,-243.5 712,-243.5 712,-224.5 668,-224.5"/>
<text text-anchor="middle" x="690" y="-231.5" font-family="Helvetica,sans-Serif" font-size="10.00">vector</text>
</a>
</g>
</g>
<!-- Node7&#45;&gt;Node8 -->
<g id="edge8" class="edge">
<title>Node7&#45;&gt;Node8</title>
<path fill="none" stroke="midnightblue" d="M559.56,-280.44C586.13,-271.19 628.61,-256.39 657.83,-246.21"/>
<polygon fill="midnightblue" stroke="midnightblue" points="659.28,-249.41 667.57,-242.82 656.97,-242.8 659.28,-249.41"/>
</g>
<!-- Node9 -->
<g id="node9" class="node">
<title>Node9</title>
<g id="a_node9"><a xlink:href="_f_r_i_messages_8pb_8h.html" target="_top" xlink:title=" ">
<polygon fill="white" stroke="black" points="489,-112.5 489,-131.5 589,-131.5 589,-112.5 489,-112.5"/>
<text text-anchor="middle" x="539" y="-119.5" font-family="Helvetica,sans-Serif" font-size="10.00">FRIMessages.pb.h</text>
</a>
</g>
</g>
<!-- Node7&#45;&gt;Node9 -->
<g id="edge9" class="edge">
<title>Node7&#45;&gt;Node9</title>
<path fill="none" stroke="midnightblue" d="M569.18,-280.49C587.99,-273.88 609.74,-262.6 621,-244 645.02,-204.31 592.92,-159.6 561.16,-137.28"/>
<polygon fill="midnightblue" stroke="midnightblue" points="563.06,-134.34 552.83,-131.6 559.12,-140.13 563.06,-134.34"/>
</g>
<!-- Node15 -->
<g id="node15" class="node">
<title>Node15</title>
<g id="a_node15"><a xlink:href="fri_monitoring_message_decoder_8h.html" target="_top" xlink:title=" ">
<polygon fill="white" stroke="black" points="458,-224.5 458,-243.5 612,-243.5 612,-224.5 458,-224.5"/>
<text text-anchor="middle" x="535" y="-231.5" font-family="Helvetica,sans-Serif" font-size="10.00">friMonitoringMessageDecoder.h</text>
</a>
</g>
</g>
<!-- Node7&#45;&gt;Node15 -->
<g id="edge15" class="edge">
<title>Node7&#45;&gt;Node15</title>
<path fill="none" stroke="midnightblue" d="M535,-280.08C535,-273.01 535,-262.86 535,-253.99"/>
<polygon fill="midnightblue" stroke="midnightblue" points="538.5,-253.75 535,-243.75 531.5,-253.75 538.5,-253.75"/>
</g>
<!-- Node17 -->
<g id="node17" class="node">
<title>Node17</title>
<g id="a_node17"><a xlink:href="fri_command_message_encoder_8h.html" target="_top" xlink:title=" ">
<polygon fill="white" stroke="black" points="286.5,-224.5 286.5,-243.5 439.5,-243.5 439.5,-224.5 286.5,-224.5"/>
<text text-anchor="middle" x="363" y="-231.5" font-family="Helvetica,sans-Serif" font-size="10.00">friCommandMessageEncoder.h</text>
</a>
</g>
</g>
<!-- Node7&#45;&gt;Node17 -->
<g id="edge20" class="edge">
<title>Node7&#45;&gt;Node17</title>
<path fill="none" stroke="midnightblue" d="M507.75,-280.44C478.56,-271.28 432.08,-256.69 399.69,-246.52"/>
<polygon fill="midnightblue" stroke="midnightblue" points="400.72,-243.17 390.13,-243.52 398.62,-249.85 400.72,-243.17"/>
</g>
<!-- Node18 -->
<g id="node18" class="node">
<title>Node18</title>
<g id="a_node18"><a xlink:href="fri_exception_8h.html" target="_top" xlink:title=" ">
<polygon fill="white" stroke="black" points="730.5,-224.5 730.5,-243.5 807.5,-243.5 807.5,-224.5 730.5,-224.5"/>
<text text-anchor="middle" x="769" y="-231.5" font-family="Helvetica,sans-Serif" font-size="10.00">friException.h</text>
</a>
</g>
</g>
<!-- Node7&#45;&gt;Node18 -->
<g id="edge24" class="edge">
<title>Node7&#45;&gt;Node18</title>
<path fill="none" stroke="midnightblue" d="M572.08,-280.44C612.73,-271.06 678.03,-255.99 722.18,-245.8"/>
<polygon fill="midnightblue" stroke="midnightblue" points="723.14,-249.18 732.1,-243.52 721.56,-242.35 723.14,-249.18"/>
</g>
<!-- Node10 -->
<g id="node10" class="node">
<title>Node10</title>
<g id="a_node10"><a xlink:href="pb_8h.html" target="_top" xlink:title=" ">
<polygon fill="white" stroke="black" points="482.5,-56.5 482.5,-75.5 517.5,-75.5 517.5,-56.5 482.5,-56.5"/>
<text text-anchor="middle" x="500" y="-63.5" font-family="Helvetica,sans-Serif" font-size="10.00">pb.h</text>
</a>
</g>
</g>
<!-- Node9&#45;&gt;Node10 -->
<g id="edge10" class="edge">
<title>Node9&#45;&gt;Node10</title>
<path fill="none" stroke="midnightblue" d="M532.56,-112.08C527.05,-104.46 518.97,-93.26 512.24,-83.94"/>
<polygon fill="midnightblue" stroke="midnightblue" points="515.01,-81.81 506.32,-75.75 509.34,-85.91 515.01,-81.81"/>
</g>
<!-- Node11 -->
<g id="node11" class="node">
<title>Node11</title>
<g id="a_node11"><a xlink:title=" ">
<polygon fill="white" stroke="#bfbfbf" points="370.5,-0.5 370.5,-19.5 419.5,-19.5 419.5,-0.5 370.5,-0.5"/>
<text text-anchor="middle" x="395" y="-7.5" font-family="Helvetica,sans-Serif" font-size="10.00">stdint.h</text>
</a>
</g>
</g>
<!-- Node10&#45;&gt;Node11 -->
<g id="edge11" class="edge">
<title>Node10&#45;&gt;Node11</title>
<path fill="none" stroke="midnightblue" d="M483.13,-56.32C466.29,-47.66 440.19,-34.24 420.76,-24.25"/>
<polygon fill="midnightblue" stroke="midnightblue" points="422.32,-21.12 411.83,-19.65 419.12,-27.34 422.32,-21.12"/>
</g>
<!-- Node12 -->
<g id="node12" class="node">
<title>Node12</title>
<g id="a_node12"><a xlink:title=" ">
<polygon fill="white" stroke="#bfbfbf" points="438,-0.5 438,-19.5 490,-19.5 490,-0.5 438,-0.5"/>
<text text-anchor="middle" x="464" y="-7.5" font-family="Helvetica,sans-Serif" font-size="10.00">stddef.h</text>
</a>
</g>
</g>
<!-- Node10&#45;&gt;Node12 -->
<g id="edge12" class="edge">
<title>Node10&#45;&gt;Node12</title>
<path fill="none" stroke="midnightblue" d="M494.06,-56.08C489.02,-48.53 481.66,-37.49 475.49,-28.23"/>
<polygon fill="midnightblue" stroke="midnightblue" points="478.29,-26.13 469.83,-19.75 472.47,-30.01 478.29,-26.13"/>
</g>
<!-- Node13 -->
<g id="node13" class="node">
<title>Node13</title>
<g id="a_node13"><a xlink:title=" ">
<polygon fill="white" stroke="#bfbfbf" points="508,-0.5 508,-19.5 564,-19.5 564,-0.5 508,-0.5"/>
<text text-anchor="middle" x="536" y="-7.5" font-family="Helvetica,sans-Serif" font-size="10.00">stdbool.h</text>
</a>
</g>
</g>
<!-- Node10&#45;&gt;Node13 -->
<g id="edge13" class="edge">
<title>Node10&#45;&gt;Node13</title>
<path fill="none" stroke="midnightblue" d="M505.94,-56.08C510.98,-48.53 518.34,-37.49 524.51,-28.23"/>
<polygon fill="midnightblue" stroke="midnightblue" points="527.53,-30.01 530.17,-19.75 521.71,-26.13 527.53,-30.01"/>
</g>
<!-- Node14 -->
<g id="node14" class="node">
<title>Node14</title>
<g id="a_node14"><a xlink:title=" ">
<polygon fill="white" stroke="#bfbfbf" points="582.5,-0.5 582.5,-19.5 631.5,-19.5 631.5,-0.5 582.5,-0.5"/>
<text text-anchor="middle" x="607" y="-7.5" font-family="Helvetica,sans-Serif" font-size="10.00">string.h</text>
</a>
</g>
</g>
<!-- Node10&#45;&gt;Node14 -->
<g id="edge14" class="edge">
<title>Node10&#45;&gt;Node14</title>
<path fill="none" stroke="midnightblue" d="M517.19,-56.32C534.35,-47.66 560.95,-34.24 580.75,-24.25"/>
<polygon fill="midnightblue" stroke="midnightblue" points="582.5,-27.28 589.85,-19.65 579.35,-21.04 582.5,-27.28"/>
</g>
<!-- Node15&#45;&gt;Node9 -->
<g id="edge16" class="edge">
<title>Node15&#45;&gt;Node9</title>
<path fill="none" stroke="midnightblue" d="M536.24,-224.4C537.48,-215.36 539.3,-200.71 540,-188 540.86,-172.49 540.51,-154.86 539.99,-141.88"/>
<polygon fill="midnightblue" stroke="midnightblue" points="543.49,-141.67 539.53,-131.84 536.5,-141.99 543.49,-141.67"/>
</g>
<!-- Node16 -->
<g id="node16" class="node">
<title>Node16</title>
<g id="a_node16"><a xlink:href="pb__frimessages__callbacks_8h.html" target="_top" xlink:title=" ">
<polygon fill="white" stroke="black" points="391,-168.5 391,-187.5 531,-187.5 531,-168.5 391,-168.5"/>
<text text-anchor="middle" x="461" y="-175.5" font-family="Helvetica,sans-Serif" font-size="10.00">pb_frimessages_callbacks.h</text>
</a>
</g>
</g>
<!-- Node15&#45;&gt;Node16 -->
<g id="edge17" class="edge">
<title>Node15&#45;&gt;Node16</title>
<path fill="none" stroke="midnightblue" d="M523.11,-224.32C511.85,-216.11 494.71,-203.6 481.29,-193.81"/>
<polygon fill="midnightblue" stroke="midnightblue" points="483.25,-190.9 473.11,-187.83 479.12,-196.56 483.25,-190.9"/>
</g>
<!-- Node16&#45;&gt;Node9 -->
<g id="edge19" class="edge">
<title>Node16&#45;&gt;Node9</title>
<path fill="none" stroke="midnightblue" d="M473.53,-168.32C485.59,-159.98 504.03,-147.21 518.27,-137.35"/>
<polygon fill="midnightblue" stroke="midnightblue" points="520.27,-140.22 526.5,-131.65 516.28,-134.47 520.27,-140.22"/>
</g>
<!-- Node16&#45;&gt;Node10 -->
<g id="edge18" class="edge">
<title>Node16&#45;&gt;Node10</title>
<path fill="none" stroke="midnightblue" d="M463.1,-168.47C466.28,-155.93 472.72,-131.87 480,-112 483.31,-102.97 487.57,-93.19 491.31,-85.05"/>
<polygon fill="midnightblue" stroke="midnightblue" points="494.57,-86.36 495.66,-75.82 488.23,-83.38 494.57,-86.36"/>
</g>
<!-- Node17&#45;&gt;Node9 -->
<g id="edge21" class="edge">
<title>Node17&#45;&gt;Node9</title>
<path fill="none" stroke="midnightblue" d="M363.02,-224.09C363.56,-210.16 366.66,-183.26 382,-168 407.39,-142.74 445.96,-131.45 478.51,-126.5"/>
<polygon fill="midnightblue" stroke="midnightblue" points="479.4,-129.91 488.84,-125.1 478.46,-122.97 479.4,-129.91"/>
</g>
<!-- Node17&#45;&gt;Node16 -->
<g id="edge22" class="edge">
<title>Node17&#45;&gt;Node16</title>
<path fill="none" stroke="midnightblue" d="M378.75,-224.32C394.32,-215.74 418.38,-202.49 436.46,-192.52"/>
<polygon fill="midnightblue" stroke="midnightblue" points="438.22,-195.55 445.29,-187.65 434.85,-189.42 438.22,-195.55"/>
</g>
<!-- Node19 -->
<g id="node19" class="node">
<title>Node19</title>
<g id="a_node19"><a xlink:title=" ">
<polygon fill="white" stroke="#bfbfbf" points="746,-168.5 746,-187.5 792,-187.5 792,-168.5 746,-168.5"/>
<text text-anchor="middle" x="769" y="-175.5" font-family="Helvetica,sans-Serif" font-size="10.00">stdio.h</text>
</a>
</g>
</g>
<!-- Node18&#45;&gt;Node19 -->
<g id="edge25" class="edge">
<title>Node18&#45;&gt;Node19</title>
<path fill="none" stroke="midnightblue" d="M769,-224.08C769,-217.01 769,-206.86 769,-197.99"/>
<polygon fill="midnightblue" stroke="midnightblue" points="772.5,-197.75 769,-187.75 765.5,-197.75 772.5,-197.75"/>
</g>
</g>
</svg>
