<?xml version="1.0" encoding="UTF-8" standalone="no"?>
<!DOCTYPE svg PUBLIC "-//W3C//DTD SVG 1.1//EN"
 "http://www.w3.org/Graphics/SVG/1.1/DTD/svg11.dtd">
<!-- Generated by graphviz version 2.43.0 (0)
 -->
<!-- Title: build/FRI&#45;Client&#45;SDK_Cpp/src/base/friClientApplication.cpp Pages: 1 -->
<svg width="923pt" height="375pt"
 viewBox="0.00 0.00 923.00 375.00" xmlns="http://www.w3.org/2000/svg" xmlns:xlink="http://www.w3.org/1999/xlink">
<g id="graph0" class="graph" transform="scale(1 1) rotate(0) translate(4 371)">
<title>build/FRI&#45;Client&#45;SDK_Cpp/src/base/friClientApplication.cpp</title>
<polygon fill="white" stroke="transparent" points="-4,4 -4,-371 919,-371 919,4 -4,4"/>
<!-- Node1 -->
<g id="node1" class="node">
<title>Node1</title>
<g id="a_node1"><a xlink:title=" ">
<polygon fill="#bfbfbf" stroke="black" points="194.5,-336.5 194.5,-366.5 378.5,-366.5 378.5,-336.5 194.5,-336.5"/>
<text text-anchor="start" x="202.5" y="-354.5" font-family="Helvetica,sans-Serif" font-size="10.00">build/FRI&#45;Client&#45;SDK</text>
<text text-anchor="middle" x="286.5" y="-343.5" font-family="Helvetica,sans-Serif" font-size="10.00">_Cpp/src/base/friClientApplication.cpp</text>
</a>
</g>
</g>
<!-- Node2 -->
<g id="node2" class="node">
<title>Node2</title>
<g id="a_node2"><a xlink:title=" ">
<polygon fill="white" stroke="#bfbfbf" points="0,-280.5 0,-299.5 43,-299.5 43,-280.5 0,-280.5"/>
<text text-anchor="middle" x="21.5" y="-287.5" font-family="Helvetica,sans-Serif" font-size="10.00">cstdio</text>
</a>
</g>
</g>
<!-- Node1&#45;&gt;Node2 -->
<g id="edge1" class="edge">
<title>Node1&#45;&gt;Node2</title>
<path fill="none" stroke="midnightblue" d="M213.89,-336.46C169.73,-327.55 112.02,-315.27 52.95,-300.23"/>
<polygon fill="midnightblue" stroke="midnightblue" points="53.63,-296.79 43.07,-297.7 51.89,-303.57 53.63,-296.79"/>
</g>
<!-- Node3 -->
<g id="node3" class="node">
<title>Node3</title>
<g id="a_node3"><a xlink:href="fri_client_application_8h.html" target="_top" xlink:title=" ">
<polygon fill="white" stroke="black" points="61,-280.5 61,-299.5 168,-299.5 168,-280.5 61,-280.5"/>
<text text-anchor="middle" x="114.5" y="-287.5" font-family="Helvetica,sans-Serif" font-size="10.00">friClientApplication.h</text>
</a>
</g>
</g>
<!-- Node1&#45;&gt;Node3 -->
<g id="edge2" class="edge">
<title>Node1&#45;&gt;Node3</title>
<path fill="none" stroke="midnightblue" d="M245.74,-336.4C216.28,-326.21 176.91,-312.59 149,-302.93"/>
<polygon fill="midnightblue" stroke="midnightblue" points="149.87,-299.53 139.28,-299.57 147.58,-306.15 149.87,-299.53"/>
</g>
<!-- Node4 -->
<g id="node4" class="node">
<title>Node4</title>
<g id="a_node4"><a xlink:href="fri_client_if_8h.html" target="_top" xlink:title=" ">
<polygon fill="white" stroke="black" points="164,-224.5 164,-243.5 229,-243.5 229,-224.5 164,-224.5"/>
<text text-anchor="middle" x="196.5" y="-231.5" font-family="Helvetica,sans-Serif" font-size="10.00">friClientIf.h</text>
</a>
</g>
</g>
<!-- Node1&#45;&gt;Node4 -->
<g id="edge3" class="edge">
<title>Node1&#45;&gt;Node4</title>
<path fill="none" stroke="midnightblue" d="M258.36,-336.46C243.65,-327.81 226.46,-315.41 215.5,-300 205.81,-286.38 201.02,-267.84 198.68,-254.04"/>
<polygon fill="midnightblue" stroke="midnightblue" points="202.1,-253.2 197.24,-243.78 195.16,-254.17 202.1,-253.2"/>
</g>
<!-- Node5 -->
<g id="node5" class="node">
<title>Node5</title>
<g id="a_node5"><a xlink:href="fri_connection_if_8h.html" target="_top" xlink:title=" ">
<polygon fill="white" stroke="black" points="826,-280.5 826,-299.5 915,-299.5 915,-280.5 826,-280.5"/>
<text text-anchor="middle" x="870.5" y="-287.5" font-family="Helvetica,sans-Serif" font-size="10.00">friConnectionIf.h</text>
</a>
</g>
</g>
<!-- Node1&#45;&gt;Node5 -->
<g id="edge4" class="edge">
<title>Node1&#45;&gt;Node5</title>
<path fill="none" stroke="midnightblue" d="M378.66,-343.19C483.63,-334.51 660.21,-318.8 811.5,-300 812.8,-299.84 814.12,-299.67 815.45,-299.5"/>
<polygon fill="midnightblue" stroke="midnightblue" points="816.32,-302.91 825.76,-298.09 815.38,-295.97 816.32,-302.91"/>
</g>
<!-- Node6 -->
<g id="node6" class="node">
<title>Node6</title>
<g id="a_node6"><a xlink:href="fri_client_data_8h.html" target="_top" xlink:title=" ">
<polygon fill="white" stroke="black" points="366.5,-280.5 366.5,-299.5 446.5,-299.5 446.5,-280.5 366.5,-280.5"/>
<text text-anchor="middle" x="406.5" y="-287.5" font-family="Helvetica,sans-Serif" font-size="10.00">friClientData.h</text>
</a>
</g>
</g>
<!-- Node1&#45;&gt;Node6 -->
<g id="edge5" class="edge">
<title>Node1&#45;&gt;Node6</title>
<path fill="none" stroke="midnightblue" d="M314.94,-336.4C334.62,-326.64 360.64,-313.74 379.91,-304.18"/>
<polygon fill="midnightblue" stroke="midnightblue" points="381.63,-307.24 389.04,-299.66 378.52,-300.96 381.63,-307.24"/>
</g>
<!-- Node8 -->
<g id="node8" class="node">
<title>Node8</title>
<g id="a_node8"><a xlink:href="_f_r_i_messages_8pb_8h.html" target="_top" xlink:title=" ">
<polygon fill="white" stroke="black" points="571.5,-112.5 571.5,-131.5 671.5,-131.5 671.5,-112.5 571.5,-112.5"/>
<text text-anchor="middle" x="621.5" y="-119.5" font-family="Helvetica,sans-Serif" font-size="10.00">FRIMessages.pb.h</text>
</a>
</g>
</g>
<!-- Node1&#45;&gt;Node8 -->
<g id="edge24" class="edge">
<title>Node1&#45;&gt;Node8</title>
<path fill="none" stroke="midnightblue" d="M378.58,-343.05C501.99,-330.93 710.99,-302.21 757.5,-244 770.45,-227.8 762.37,-188.21 744.5,-168 728.36,-149.75 704.19,-138.89 681.53,-132.44"/>
<polygon fill="midnightblue" stroke="midnightblue" points="682.16,-128.99 671.6,-129.85 680.39,-135.76 682.16,-128.99"/>
</g>
<!-- Node19 -->
<g id="node19" class="node">
<title>Node19</title>
<g id="a_node19"><a xlink:href="fri_transformation_client_8h.html" target="_top" xlink:title=" ">
<polygon fill="white" stroke="black" points="224.5,-280.5 224.5,-299.5 348.5,-299.5 348.5,-280.5 224.5,-280.5"/>
<text text-anchor="middle" x="286.5" y="-287.5" font-family="Helvetica,sans-Serif" font-size="10.00">friTransformationClient.h</text>
</a>
</g>
</g>
<!-- Node1&#45;&gt;Node19 -->
<g id="edge25" class="edge">
<title>Node1&#45;&gt;Node19</title>
<path fill="none" stroke="midnightblue" d="M286.5,-336.4C286.5,-328.47 286.5,-318.46 286.5,-309.86"/>
<polygon fill="midnightblue" stroke="midnightblue" points="290,-309.66 286.5,-299.66 283,-309.66 290,-309.66"/>
</g>
<!-- Node6&#45;&gt;Node4 -->
<g id="edge21" class="edge">
<title>Node6&#45;&gt;Node4</title>
<path fill="none" stroke="midnightblue" d="M373.22,-280.44C336.95,-271.11 278.78,-256.16 239.17,-245.97"/>
<polygon fill="midnightblue" stroke="midnightblue" points="239.83,-242.53 229.27,-243.43 238.09,-249.31 239.83,-242.53"/>
</g>
<!-- Node7 -->
<g id="node7" class="node">
<title>Node7</title>
<g id="a_node7"><a xlink:title=" ">
<polygon fill="white" stroke="#bfbfbf" points="247.5,-224.5 247.5,-243.5 291.5,-243.5 291.5,-224.5 247.5,-224.5"/>
<text text-anchor="middle" x="269.5" y="-231.5" font-family="Helvetica,sans-Serif" font-size="10.00">vector</text>
</a>
</g>
</g>
<!-- Node6&#45;&gt;Node7 -->
<g id="edge6" class="edge">
<title>Node6&#45;&gt;Node7</title>
<path fill="none" stroke="midnightblue" d="M384.79,-280.44C362.15,-271.52 326.43,-257.44 300.75,-247.32"/>
<polygon fill="midnightblue" stroke="midnightblue" points="301.69,-243.93 291.11,-243.52 299.13,-250.44 301.69,-243.93"/>
</g>
<!-- Node6&#45;&gt;Node8 -->
<g id="edge7" class="edge">
<title>Node6&#45;&gt;Node8</title>
<path fill="none" stroke="midnightblue" d="M446.72,-289.86C527.02,-290.61 702.76,-287.17 740.5,-244 755.06,-227.34 743.14,-189.31 724.5,-168 710.54,-152.04 689.88,-141.52 670.72,-134.7"/>
<polygon fill="midnightblue" stroke="midnightblue" points="671.77,-131.36 661.18,-131.55 669.57,-138.01 671.77,-131.36"/>
</g>
<!-- Node14 -->
<g id="node14" class="node">
<title>Node14</title>
<g id="a_node14"><a xlink:href="fri_monitoring_message_decoder_8h.html" target="_top" xlink:title=" ">
<polygon fill="white" stroke="black" points="481.5,-224.5 481.5,-243.5 635.5,-243.5 635.5,-224.5 481.5,-224.5"/>
<text text-anchor="middle" x="558.5" y="-231.5" font-family="Helvetica,sans-Serif" font-size="10.00">friMonitoringMessageDecoder.h</text>
</a>
</g>
</g>
<!-- Node6&#45;&gt;Node14 -->
<g id="edge13" class="edge">
<title>Node6&#45;&gt;Node14</title>
<path fill="none" stroke="midnightblue" d="M430.58,-280.44C456.04,-271.4 496.39,-257.06 524.96,-246.92"/>
<polygon fill="midnightblue" stroke="midnightblue" points="526.28,-250.16 534.53,-243.52 523.93,-243.57 526.28,-250.16"/>
</g>
<!-- Node16 -->
<g id="node16" class="node">
<title>Node16</title>
<g id="a_node16"><a xlink:href="fri_command_message_encoder_8h.html" target="_top" xlink:title=" ">
<polygon fill="white" stroke="black" points="310,-224.5 310,-243.5 463,-243.5 463,-224.5 310,-224.5"/>
<text text-anchor="middle" x="386.5" y="-231.5" font-family="Helvetica,sans-Serif" font-size="10.00">friCommandMessageEncoder.h</text>
</a>
</g>
</g>
<!-- Node6&#45;&gt;Node16 -->
<g id="edge18" class="edge">
<title>Node6&#45;&gt;Node16</title>
<path fill="none" stroke="midnightblue" d="M403.2,-280.08C400.52,-272.85 396.65,-262.41 393.31,-253.4"/>
<polygon fill="midnightblue" stroke="midnightblue" points="396.5,-251.91 389.74,-243.75 389.93,-254.34 396.5,-251.91"/>
</g>
<!-- Node17 -->
<g id="node17" class="node">
<title>Node17</title>
<g id="a_node17"><a xlink:href="fri_exception_8h.html" target="_top" xlink:title=" ">
<polygon fill="white" stroke="black" points="654,-224.5 654,-243.5 731,-243.5 731,-224.5 654,-224.5"/>
<text text-anchor="middle" x="692.5" y="-231.5" font-family="Helvetica,sans-Serif" font-size="10.00">friException.h</text>
</a>
</g>
</g>
<!-- Node6&#45;&gt;Node17 -->
<g id="edge22" class="edge">
<title>Node6&#45;&gt;Node17</title>
<path fill="none" stroke="midnightblue" d="M446.57,-281.43C498.24,-271.68 588.04,-254.72 643.65,-244.22"/>
<polygon fill="midnightblue" stroke="midnightblue" points="644.44,-247.64 653.62,-242.34 643.14,-240.76 644.44,-247.64"/>
</g>
<!-- Node9 -->
<g id="node9" class="node">
<title>Node9</title>
<g id="a_node9"><a xlink:href="pb_8h.html" target="_top" xlink:title=" ">
<polygon fill="white" stroke="black" points="560,-56.5 560,-75.5 595,-75.5 595,-56.5 560,-56.5"/>
<text text-anchor="middle" x="577.5" y="-63.5" font-family="Helvetica,sans-Serif" font-size="10.00">pb.h</text>
</a>
</g>
</g>
<!-- Node8&#45;&gt;Node9 -->
<g id="edge8" class="edge">
<title>Node8&#45;&gt;Node9</title>
<path fill="none" stroke="midnightblue" d="M614.23,-112.08C607.96,-104.38 598.71,-93.03 591.07,-83.65"/>
<polygon fill="midnightblue" stroke="midnightblue" points="593.66,-81.29 584.63,-75.75 588.23,-85.71 593.66,-81.29"/>
</g>
<!-- Node10 -->
<g id="node10" class="node">
<title>Node10</title>
<g id="a_node10"><a xlink:title=" ">
<polygon fill="white" stroke="#bfbfbf" points="448,-0.5 448,-19.5 497,-19.5 497,-0.5 448,-0.5"/>
<text text-anchor="middle" x="472.5" y="-7.5" font-family="Helvetica,sans-Serif" font-size="10.00">stdint.h</text>
</a>
</g>
</g>
<!-- Node9&#45;&gt;Node10 -->
<g id="edge9" class="edge">
<title>Node9&#45;&gt;Node10</title>
<path fill="none" stroke="midnightblue" d="M560.63,-56.32C543.79,-47.66 517.69,-34.24 498.26,-24.25"/>
<polygon fill="midnightblue" stroke="midnightblue" points="499.82,-21.12 489.33,-19.65 496.62,-27.34 499.82,-21.12"/>
</g>
<!-- Node11 -->
<g id="node11" class="node">
<title>Node11</title>
<g id="a_node11"><a xlink:title=" ">
<polygon fill="white" stroke="#bfbfbf" points="515.5,-0.5 515.5,-19.5 567.5,-19.5 567.5,-0.5 515.5,-0.5"/>
<text text-anchor="middle" x="541.5" y="-7.5" font-family="Helvetica,sans-Serif" font-size="10.00">stddef.h</text>
</a>
</g>
</g>
<!-- Node9&#45;&gt;Node11 -->
<g id="edge10" class="edge">
<title>Node9&#45;&gt;Node11</title>
<path fill="none" stroke="midnightblue" d="M571.56,-56.08C566.52,-48.53 559.16,-37.49 552.99,-28.23"/>
<polygon fill="midnightblue" stroke="midnightblue" points="555.79,-26.13 547.33,-19.75 549.97,-30.01 555.79,-26.13"/>
</g>
<!-- Node12 -->
<g id="node12" class="node">
<title>Node12</title>
<g id="a_node12"><a xlink:title=" ">
<polygon fill="white" stroke="#bfbfbf" points="585.5,-0.5 585.5,-19.5 641.5,-19.5 641.5,-0.5 585.5,-0.5"/>
<text text-anchor="middle" x="613.5" y="-7.5" font-family="Helvetica,sans-Serif" font-size="10.00">stdbool.h</text>
</a>
</g>
</g>
<!-- Node9&#45;&gt;Node12 -->
<g id="edge11" class="edge">
<title>Node9&#45;&gt;Node12</title>
<path fill="none" stroke="midnightblue" d="M583.44,-56.08C588.48,-48.53 595.84,-37.49 602.01,-28.23"/>
<polygon fill="midnightblue" stroke="midnightblue" points="605.03,-30.01 607.67,-19.75 599.21,-26.13 605.03,-30.01"/>
</g>
<!-- Node13 -->
<g id="node13" class="node">
<title>Node13</title>
<g id="a_node13"><a xlink:title=" ">
<polygon fill="white" stroke="#bfbfbf" points="660,-0.5 660,-19.5 709,-19.5 709,-0.5 660,-0.5"/>
<text text-anchor="middle" x="684.5" y="-7.5" font-family="Helvetica,sans-Serif" font-size="10.00">string.h</text>
</a>
</g>
</g>
<!-- Node9&#45;&gt;Node13 -->
<g id="edge12" class="edge">
<title>Node9&#45;&gt;Node13</title>
<path fill="none" stroke="midnightblue" d="M594.69,-56.32C611.85,-47.66 638.45,-34.24 658.25,-24.25"/>
<polygon fill="midnightblue" stroke="midnightblue" points="660,-27.28 667.35,-19.65 656.85,-21.04 660,-27.28"/>
</g>
<!-- Node14&#45;&gt;Node8 -->
<g id="edge14" class="edge">
<title>Node14&#45;&gt;Node8</title>
<path fill="none" stroke="midnightblue" d="M571.87,-224.3C583.14,-216.24 598.78,-203.24 607.5,-188 615.66,-173.76 619.07,-155.28 620.5,-141.67"/>
<polygon fill="midnightblue" stroke="midnightblue" points="623.99,-141.83 621.28,-131.58 617.02,-141.28 623.99,-141.83"/>
</g>
<!-- Node15 -->
<g id="node15" class="node">
<title>Node15</title>
<g id="a_node15"><a xlink:href="pb__frimessages__callbacks_8h.html" target="_top" xlink:title=" ">
<polygon fill="white" stroke="black" points="458.5,-168.5 458.5,-187.5 598.5,-187.5 598.5,-168.5 458.5,-168.5"/>
<text text-anchor="middle" x="528.5" y="-175.5" font-family="Helvetica,sans-Serif" font-size="10.00">pb_frimessages_callbacks.h</text>
</a>
</g>
</g>
<!-- Node14&#45;&gt;Node15 -->
<g id="edge15" class="edge">
<title>Node14&#45;&gt;Node15</title>
<path fill="none" stroke="midnightblue" d="M553.55,-224.08C549.4,-216.61 543.35,-205.72 538.23,-196.52"/>
<polygon fill="midnightblue" stroke="midnightblue" points="541.28,-194.79 533.36,-187.75 535.16,-198.19 541.28,-194.79"/>
</g>
<!-- Node15&#45;&gt;Node8 -->
<g id="edge17" class="edge">
<title>Node15&#45;&gt;Node8</title>
<path fill="none" stroke="midnightblue" d="M543.44,-168.32C558.09,-159.82 580.63,-146.73 597.74,-136.8"/>
<polygon fill="midnightblue" stroke="midnightblue" points="599.7,-139.7 606.6,-131.65 596.19,-133.65 599.7,-139.7"/>
</g>
<!-- Node15&#45;&gt;Node9 -->
<g id="edge16" class="edge">
<title>Node15&#45;&gt;Node9</title>
<path fill="none" stroke="midnightblue" d="M532.34,-168.37C540.32,-150.46 558.83,-108.92 569.5,-84.95"/>
<polygon fill="midnightblue" stroke="midnightblue" points="572.8,-86.15 573.67,-75.59 566.41,-83.3 572.8,-86.15"/>
</g>
<!-- Node16&#45;&gt;Node8 -->
<g id="edge19" class="edge">
<title>Node16&#45;&gt;Node8</title>
<path fill="none" stroke="midnightblue" d="M392.39,-224.38C402.44,-210.37 424.26,-182.74 449.5,-168 483.71,-148.03 526.84,-136.77 561.36,-130.51"/>
<polygon fill="midnightblue" stroke="midnightblue" points="562.05,-133.94 571.31,-128.8 560.86,-127.05 562.05,-133.94"/>
</g>
<!-- Node16&#45;&gt;Node15 -->
<g id="edge20" class="edge">
<title>Node16&#45;&gt;Node15</title>
<path fill="none" stroke="midnightblue" d="M409,-224.44C432.58,-215.48 469.82,-201.31 496.46,-191.18"/>
<polygon fill="midnightblue" stroke="midnightblue" points="498,-194.34 506.1,-187.52 495.51,-187.8 498,-194.34"/>
</g>
<!-- Node18 -->
<g id="node18" class="node">
<title>Node18</title>
<g id="a_node18"><a xlink:title=" ">
<polygon fill="white" stroke="#bfbfbf" points="669.5,-168.5 669.5,-187.5 715.5,-187.5 715.5,-168.5 669.5,-168.5"/>
<text text-anchor="middle" x="692.5" y="-175.5" font-family="Helvetica,sans-Serif" font-size="10.00">stdio.h</text>
</a>
</g>
</g>
<!-- Node17&#45;&gt;Node18 -->
<g id="edge23" class="edge">
<title>Node17&#45;&gt;Node18</title>
<path fill="none" stroke="midnightblue" d="M692.5,-224.08C692.5,-217.01 692.5,-206.86 692.5,-197.99"/>
<polygon fill="midnightblue" stroke="midnightblue" points="696,-197.75 692.5,-187.75 689,-197.75 696,-197.75"/>
</g>
<!-- Node19&#45;&gt;Node4 -->
<g id="edge27" class="edge">
<title>Node19&#45;&gt;Node4</title>
<path fill="none" stroke="midnightblue" d="M272.04,-280.32C258,-271.9 236.45,-258.97 219.96,-249.07"/>
<polygon fill="midnightblue" stroke="midnightblue" points="221.3,-245.8 210.92,-243.65 217.7,-251.8 221.3,-245.8"/>
</g>
<!-- Node19&#45;&gt;Node7 -->
<g id="edge26" class="edge">
<title>Node19&#45;&gt;Node7</title>
<path fill="none" stroke="midnightblue" d="M283.69,-280.08C281.42,-272.85 278.13,-262.41 275.29,-253.4"/>
<polygon fill="midnightblue" stroke="midnightblue" points="278.6,-252.24 272.25,-243.75 271.92,-254.34 278.6,-252.24"/>
</g>
</g>
</svg>
