<?xml version="1.0" encoding="UTF-8" standalone="no"?>
<!DOCTYPE svg PUBLIC "-//W3C//DTD SVG 1.1//EN"
 "http://www.w3.org/Graphics/SVG/1.1/DTD/svg11.dtd">
<!-- Generated by graphviz version 2.43.0 (0)
 -->
<!-- Title: build/FRI&#45;Client&#45;SDK_Cpp/src/protobuf/friMonitoringMessageDecoder.h Pages: 1 -->
<svg width="939pt" height="206pt"
 viewBox="0.00 0.00 938.50 206.00" xmlns="http://www.w3.org/2000/svg" xmlns:xlink="http://www.w3.org/1999/xlink">
<g id="graph0" class="graph" transform="scale(1 1) rotate(0) translate(4 202)">
<title>build/FRI&#45;Client&#45;SDK_Cpp/src/protobuf/friMonitoringMessageDecoder.h</title>
<polygon fill="white" stroke="transparent" points="-4,4 -4,-202 934.5,-202 934.5,4 -4,4"/>
<!-- Node1 -->
<g id="node1" class="node">
<title>Node1</title>
<g id="a_node1"><a xlink:title=" ">
<polygon fill="#bfbfbf" stroke="black" points="497.5,-156.5 497.5,-197.5 648.5,-197.5 648.5,-156.5 497.5,-156.5"/>
<text text-anchor="start" x="505.5" y="-185.5" font-family="Helvetica,sans-Serif" font-size="10.00">build/FRI&#45;Client&#45;SDK</text>
<text text-anchor="start" x="505.5" y="-174.5" font-family="Helvetica,sans-Serif" font-size="10.00">_Cpp/src/protobuf/friMonitoring</text>
<text text-anchor="middle" x="573" y="-163.5" font-family="Helvetica,sans-Serif" font-size="10.00">MessageDecoder.h</text>
</a>
</g>
</g>
<!-- Node2 -->
<g id="node2" class="node">
<title>Node2</title>
<g id="a_node2"><a xlink:href="fri_client_data_8h.html" target="_top" xlink:title=" ">
<polygon fill="white" stroke="black" points="417,-84 417,-114 563,-114 563,-84 417,-84"/>
<text text-anchor="start" x="425" y="-102" font-family="Helvetica,sans-Serif" font-size="10.00">build/FRI&#45;Client&#45;SDK</text>
<text text-anchor="middle" x="490" y="-91" font-family="Helvetica,sans-Serif" font-size="10.00">_Cpp/src/base/friClientData.h</text>
</a>
</g>
</g>
<!-- Node1&#45;&gt;Node2 -->
<g id="edge1" class="edge">
<title>Node1&#45;&gt;Node2</title>
<path fill="none" stroke="midnightblue" d="M544.23,-149.66C531.24,-137.76 516.4,-124.18 505.54,-114.23"/>
<polygon fill="midnightblue" stroke="midnightblue" points="541.89,-152.26 551.63,-156.43 546.61,-147.09 541.89,-152.26"/>
</g>
<!-- Node8 -->
<g id="node8" class="node">
<title>Node8</title>
<g id="a_node8"><a xlink:href="fri_monitoring_message_decoder_8cpp.html" target="_top" xlink:title=" ">
<polygon fill="white" stroke="black" points="581.5,-78.5 581.5,-119.5 732.5,-119.5 732.5,-78.5 581.5,-78.5"/>
<text text-anchor="start" x="589.5" y="-107.5" font-family="Helvetica,sans-Serif" font-size="10.00">build/FRI&#45;Client&#45;SDK</text>
<text text-anchor="start" x="589.5" y="-96.5" font-family="Helvetica,sans-Serif" font-size="10.00">_Cpp/src/protobuf/friMonitoring</text>
<text text-anchor="middle" x="657" y="-85.5" font-family="Helvetica,sans-Serif" font-size="10.00">MessageDecoder.cpp</text>
</a>
</g>
</g>
<!-- Node1&#45;&gt;Node8 -->
<g id="edge7" class="edge">
<title>Node1&#45;&gt;Node8</title>
<path fill="none" stroke="midnightblue" d="M602.3,-149.49C613.2,-139.63 625.36,-128.63 635.44,-119.51"/>
<polygon fill="midnightblue" stroke="midnightblue" points="599.7,-147.12 594.63,-156.43 604.4,-152.31 599.7,-147.12"/>
</g>
<!-- Node3 -->
<g id="node3" class="node">
<title>Node3</title>
<g id="a_node3"><a xlink:href="fri_client_application_8cpp.html" target="_top" xlink:title=" ">
<polygon fill="white" stroke="black" points="0,-6 0,-36 184,-36 184,-6 0,-6"/>
<text text-anchor="start" x="8" y="-24" font-family="Helvetica,sans-Serif" font-size="10.00">build/FRI&#45;Client&#45;SDK</text>
<text text-anchor="middle" x="92" y="-13" font-family="Helvetica,sans-Serif" font-size="10.00">_Cpp/src/base/friClientApplication.cpp</text>
</a>
</g>
</g>
<!-- Node2&#45;&gt;Node3 -->
<g id="edge2" class="edge">
<title>Node2&#45;&gt;Node3</title>
<path fill="none" stroke="midnightblue" d="M406.63,-82.49C347.08,-71.36 265.08,-55.93 193,-42 183.08,-40.08 172.63,-38.04 162.35,-36.02"/>
<polygon fill="midnightblue" stroke="midnightblue" points="406.26,-85.98 416.73,-84.38 407.54,-79.1 406.26,-85.98"/>
</g>
<!-- Node4 -->
<g id="node4" class="node">
<title>Node4</title>
<g id="a_node4"><a xlink:href="fri_l_b_r_client_8cpp.html" target="_top" xlink:title=" ">
<polygon fill="white" stroke="black" points="202.5,-6 202.5,-36 375.5,-36 375.5,-6 202.5,-6"/>
<text text-anchor="start" x="210.5" y="-24" font-family="Helvetica,sans-Serif" font-size="10.00">build/FRI&#45;Client&#45;SDK</text>
<text text-anchor="middle" x="289" y="-13" font-family="Helvetica,sans-Serif" font-size="10.00">_Cpp/src/client_lbr/friLBRClient.cpp</text>
</a>
</g>
</g>
<!-- Node2&#45;&gt;Node4 -->
<g id="edge3" class="edge">
<title>Node2&#45;&gt;Node4</title>
<path fill="none" stroke="midnightblue" d="M442.97,-80.22C407.35,-66.75 359.07,-48.5 326.14,-36.04"/>
<polygon fill="midnightblue" stroke="midnightblue" points="442.07,-83.62 452.66,-83.88 444.55,-77.07 442.07,-83.62"/>
</g>
<!-- Node5 -->
<g id="node5" class="node">
<title>Node5</title>
<g id="a_node5"><a xlink:href="fri_l_b_r_command_8cpp.html" target="_top" xlink:title=" ">
<polygon fill="white" stroke="black" points="393.5,-6 393.5,-36 586.5,-36 586.5,-6 393.5,-6"/>
<text text-anchor="start" x="401.5" y="-24" font-family="Helvetica,sans-Serif" font-size="10.00">build/FRI&#45;Client&#45;SDK</text>
<text text-anchor="middle" x="490" y="-13" font-family="Helvetica,sans-Serif" font-size="10.00">_Cpp/src/client_lbr/friLBRCommand.cpp</text>
</a>
</g>
</g>
<!-- Node2&#45;&gt;Node5 -->
<g id="edge4" class="edge">
<title>Node2&#45;&gt;Node5</title>
<path fill="none" stroke="midnightblue" d="M490,-73.59C490,-61.26 490,-46.72 490,-36.23"/>
<polygon fill="midnightblue" stroke="midnightblue" points="486.5,-73.7 490,-83.7 493.5,-73.71 486.5,-73.7"/>
</g>
<!-- Node6 -->
<g id="node6" class="node">
<title>Node6</title>
<g id="a_node6"><a xlink:href="fri_l_b_r_state_8cpp.html" target="_top" xlink:title=" ">
<polygon fill="white" stroke="black" points="604.5,-6 604.5,-36 775.5,-36 775.5,-6 604.5,-6"/>
<text text-anchor="start" x="612.5" y="-24" font-family="Helvetica,sans-Serif" font-size="10.00">build/FRI&#45;Client&#45;SDK</text>
<text text-anchor="middle" x="690" y="-13" font-family="Helvetica,sans-Serif" font-size="10.00">_Cpp/src/client_lbr/friLBRState.cpp</text>
</a>
</g>
</g>
<!-- Node2&#45;&gt;Node6 -->
<g id="edge5" class="edge">
<title>Node2&#45;&gt;Node6</title>
<path fill="none" stroke="midnightblue" d="M536.79,-80.22C572.24,-66.75 620.27,-48.5 653.05,-36.04"/>
<polygon fill="midnightblue" stroke="midnightblue" points="535.25,-77.06 527.15,-83.88 537.74,-83.6 535.25,-77.06"/>
</g>
<!-- Node7 -->
<g id="node7" class="node">
<title>Node7</title>
<g id="a_node7"><a xlink:href="fri_transformation_client_8cpp.html" target="_top" xlink:title=" ">
<polygon fill="white" stroke="black" points="793.5,-0.5 793.5,-41.5 930.5,-41.5 930.5,-0.5 793.5,-0.5"/>
<text text-anchor="start" x="801.5" y="-29.5" font-family="Helvetica,sans-Serif" font-size="10.00">build/FRI&#45;Client&#45;SDK</text>
<text text-anchor="start" x="801.5" y="-18.5" font-family="Helvetica,sans-Serif" font-size="10.00">_Cpp/src/client_trafo</text>
<text text-anchor="middle" x="862" y="-7.5" font-family="Helvetica,sans-Serif" font-size="10.00">/friTransformationClient.cpp</text>
</a>
</g>
</g>
<!-- Node2&#45;&gt;Node7 -->
<g id="edge6" class="edge">
<title>Node2&#45;&gt;Node7</title>
<path fill="none" stroke="midnightblue" d="M556.28,-81.6C561.92,-80.34 567.56,-79.12 573,-78 666.62,-58.79 691.55,-62.03 785,-42 787.7,-41.42 790.45,-40.81 793.22,-40.18"/>
<polygon fill="midnightblue" stroke="midnightblue" points="555.11,-78.28 546.14,-83.92 556.67,-85.1 555.11,-78.28"/>
</g>
</g>
</svg>
