<?xml version="1.0" encoding="UTF-8" standalone="no"?>
<!DOCTYPE svg PUBLIC "-//W3C//DTD SVG 1.1//EN"
 "http://www.w3.org/Graphics/SVG/1.1/DTD/svg11.dtd">
<!-- Generated by graphviz version 2.43.0 (0)
 -->
<!-- Title: build/FRI&#45;Client&#45;SDK_Cpp/include/friConnectionIf.h Pages: 1 -->
<svg width="1574pt" height="195pt"
 viewBox="0.00 0.00 1574.00 195.00" xmlns="http://www.w3.org/2000/svg" xmlns:xlink="http://www.w3.org/1999/xlink">
<g id="graph0" class="graph" transform="scale(1 1) rotate(0) translate(4 191)">
<title>build/FRI&#45;Client&#45;SDK_Cpp/include/friConnectionIf.h</title>
<polygon fill="white" stroke="transparent" points="-4,4 -4,-191 1570,-191 1570,4 -4,4"/>
<!-- Node1 -->
<g id="node1" class="node">
<title>Node1</title>
<g id="a_node1"><a xlink:title=" ">
<polygon fill="#bfbfbf" stroke="black" points="737.5,-156.5 737.5,-186.5 886.5,-186.5 886.5,-156.5 737.5,-156.5"/>
<text text-anchor="start" x="745.5" y="-174.5" font-family="Helvetica,sans-Serif" font-size="10.00">build/FRI&#45;Client&#45;SDK</text>
<text text-anchor="middle" x="812" y="-163.5" font-family="Helvetica,sans-Serif" font-size="10.00">_Cpp/include/friConnectionIf.h</text>
</a>
</g>
</g>
<!-- Node2 -->
<g id="node2" class="node">
<title>Node2</title>
<g id="a_node2"><a xlink:href="fri_udp_connection_8h.html" target="_top" xlink:title=" ">
<polygon fill="white" stroke="black" points="636.5,-89.5 636.5,-119.5 797.5,-119.5 797.5,-89.5 636.5,-89.5"/>
<text text-anchor="start" x="644.5" y="-107.5" font-family="Helvetica,sans-Serif" font-size="10.00">build/FRI&#45;Client&#45;SDK</text>
<text text-anchor="middle" x="717" y="-96.5" font-family="Helvetica,sans-Serif" font-size="10.00">_Cpp/include/friUdpConnection.h</text>
</a>
</g>
</g>
<!-- Node1&#45;&gt;Node2 -->
<g id="edge1" class="edge">
<title>Node1&#45;&gt;Node2</title>
<path fill="none" stroke="midnightblue" d="M783.11,-150.73C768.41,-140.68 750.89,-128.68 737.57,-119.58"/>
<polygon fill="midnightblue" stroke="midnightblue" points="781.16,-153.64 791.39,-156.4 785.11,-147.86 781.16,-153.64"/>
</g>
<!-- Node11 -->
<g id="node11" class="node">
<title>Node11</title>
<g id="a_node11"><a xlink:href="fri_client_application_8cpp.html" target="_top" xlink:title=" ">
<polygon fill="white" stroke="black" points="816,-89.5 816,-119.5 1000,-119.5 1000,-89.5 816,-89.5"/>
<text text-anchor="start" x="824" y="-107.5" font-family="Helvetica,sans-Serif" font-size="10.00">build/FRI&#45;Client&#45;SDK</text>
<text text-anchor="middle" x="908" y="-96.5" font-family="Helvetica,sans-Serif" font-size="10.00">_Cpp/src/base/friClientApplication.cpp</text>
</a>
</g>
</g>
<!-- Node1&#45;&gt;Node11 -->
<g id="edge10" class="edge">
<title>Node1&#45;&gt;Node11</title>
<path fill="none" stroke="midnightblue" d="M841.19,-150.73C856.05,-140.68 873.76,-128.68 887.21,-119.58"/>
<polygon fill="midnightblue" stroke="midnightblue" points="839.15,-147.89 832.83,-156.4 843.07,-153.69 839.15,-147.89"/>
</g>
<!-- Node3 -->
<g id="node3" class="node">
<title>Node3</title>
<g id="a_node3"><a xlink:href="_i_o_access_app_8cpp.html" target="_top" xlink:title=" ">
<polygon fill="white" stroke="black" points="0,-6 0,-47 126,-47 126,-6 0,-6"/>
<text text-anchor="start" x="8" y="-35" font-family="Helvetica,sans-Serif" font-size="10.00">build/FRI&#45;Client&#45;SDK</text>
<text text-anchor="start" x="8" y="-24" font-family="Helvetica,sans-Serif" font-size="10.00">_Cpp/example/IOAccess</text>
<text text-anchor="middle" x="63" y="-13" font-family="Helvetica,sans-Serif" font-size="10.00">/IOAccessApp.cpp</text>
</a>
</g>
</g>
<!-- Node2&#45;&gt;Node3 -->
<g id="edge2" class="edge">
<title>Node2&#45;&gt;Node3</title>
<path fill="none" stroke="midnightblue" d="M626.29,-102.72C510.89,-100.11 306.02,-90.07 135,-53 127.87,-51.45 120.48,-49.4 113.28,-47.12"/>
<polygon fill="midnightblue" stroke="midnightblue" points="626.42,-106.22 636.5,-102.93 626.57,-99.22 626.42,-106.22"/>
</g>
<!-- Node4 -->
<g id="node4" class="node">
<title>Node4</title>
<g id="a_node4"><a xlink:href="_my_l_b_r_app_8cpp.html" target="_top" xlink:title=" ">
<polygon fill="white" stroke="black" points="144.5,-6 144.5,-47 311.5,-47 311.5,-6 144.5,-6"/>
<text text-anchor="start" x="152.5" y="-35" font-family="Helvetica,sans-Serif" font-size="10.00">build/FRI&#45;Client&#45;SDK</text>
<text text-anchor="start" x="152.5" y="-24" font-family="Helvetica,sans-Serif" font-size="10.00">_Cpp/example/LBRClientTemplate</text>
<text text-anchor="middle" x="228" y="-13" font-family="Helvetica,sans-Serif" font-size="10.00">/MyLBRApp.cpp</text>
</a>
</g>
</g>
<!-- Node2&#45;&gt;Node4 -->
<g id="edge3" class="edge">
<title>Node2&#45;&gt;Node4</title>
<path fill="none" stroke="midnightblue" d="M626.08,-95.69C545.22,-87.85 424.02,-73.92 320,-53 311.55,-51.3 302.74,-49.24 294.06,-47.03"/>
<polygon fill="midnightblue" stroke="midnightblue" points="625.94,-99.19 636.23,-96.66 626.61,-92.22 625.94,-99.19"/>
</g>
<!-- Node5 -->
<g id="node5" class="node">
<title>Node5</title>
<g id="a_node5"><a xlink:href="_l_b_r_joint_sine_overlay_app_8cpp.html" target="_top" xlink:title=" ">
<polygon fill="white" stroke="black" points="329,-6 329,-47 505,-47 505,-6 329,-6"/>
<text text-anchor="start" x="337" y="-35" font-family="Helvetica,sans-Serif" font-size="10.00">build/FRI&#45;Client&#45;SDK</text>
<text text-anchor="start" x="337" y="-24" font-family="Helvetica,sans-Serif" font-size="10.00">_Cpp/example/LBRJointSineOverlay</text>
<text text-anchor="middle" x="417" y="-13" font-family="Helvetica,sans-Serif" font-size="10.00">/LBRJointSineOverlayApp.cpp</text>
</a>
</g>
</g>
<!-- Node2&#45;&gt;Node5 -->
<g id="edge4" class="edge">
<title>Node2&#45;&gt;Node5</title>
<path fill="none" stroke="midnightblue" d="M649.06,-86.99C609.35,-77.26 558.29,-64.62 513,-53 505.57,-51.09 497.82,-49.08 490.09,-47.05"/>
<polygon fill="midnightblue" stroke="midnightblue" points="648.35,-90.42 658.9,-89.39 650.02,-83.62 648.35,-90.42"/>
</g>
<!-- Node6 -->
<g id="node6" class="node">
<title>Node6</title>
<g id="a_node6"><a xlink:href="_l_b_r_torque_sine_overlay_app_8cpp.html" target="_top" xlink:title=" ">
<polygon fill="white" stroke="black" points="522.5,-6 522.5,-47 707.5,-47 707.5,-6 522.5,-6"/>
<text text-anchor="start" x="530.5" y="-35" font-family="Helvetica,sans-Serif" font-size="10.00">build/FRI&#45;Client&#45;SDK</text>
<text text-anchor="start" x="530.5" y="-24" font-family="Helvetica,sans-Serif" font-size="10.00">_Cpp/example/LBRTorqueSineOverlay</text>
<text text-anchor="middle" x="615" y="-13" font-family="Helvetica,sans-Serif" font-size="10.00">/LBRTorqueSineOverlayApp.cpp</text>
</a>
</g>
</g>
<!-- Node2&#45;&gt;Node6 -->
<g id="edge5" class="edge">
<title>Node2&#45;&gt;Node6</title>
<path fill="none" stroke="midnightblue" d="M689.47,-82.99C674.54,-71.86 656.17,-58.18 641.41,-47.18"/>
<polygon fill="midnightblue" stroke="midnightblue" points="687.7,-86.04 697.81,-89.2 691.89,-80.42 687.7,-86.04"/>
</g>
<!-- Node7 -->
<g id="node7" class="node">
<title>Node7</title>
<g id="a_node7"><a xlink:href="_l_b_r_wrench_sine_overlay_app_8cpp.html" target="_top" xlink:title=" ">
<polygon fill="white" stroke="black" points="726,-6 726,-47 914,-47 914,-6 726,-6"/>
<text text-anchor="start" x="734" y="-35" font-family="Helvetica,sans-Serif" font-size="10.00">build/FRI&#45;Client&#45;SDK</text>
<text text-anchor="start" x="734" y="-24" font-family="Helvetica,sans-Serif" font-size="10.00">_Cpp/example/LBRWrenchSineOverlay</text>
<text text-anchor="middle" x="820" y="-13" font-family="Helvetica,sans-Serif" font-size="10.00">/LBRWrenchSineOverlayApp.cpp</text>
</a>
</g>
</g>
<!-- Node2&#45;&gt;Node7 -->
<g id="edge6" class="edge">
<title>Node2&#45;&gt;Node7</title>
<path fill="none" stroke="midnightblue" d="M744.8,-82.99C759.88,-71.86 778.43,-58.18 793.33,-47.18"/>
<polygon fill="midnightblue" stroke="midnightblue" points="742.34,-80.45 736.37,-89.2 746.5,-86.08 742.34,-80.45"/>
</g>
<!-- Node8 -->
<g id="node8" class="node">
<title>Node8</title>
<g id="a_node8"><a xlink:href="_simulated_transformation_provider_app_8cpp.html" target="_top" xlink:title=" ">
<polygon fill="white" stroke="black" points="932,-0.5 932,-52.5 1132,-52.5 1132,-0.5 932,-0.5"/>
<text text-anchor="start" x="940" y="-40.5" font-family="Helvetica,sans-Serif" font-size="10.00">build/FRI&#45;Client&#45;SDK</text>
<text text-anchor="start" x="940" y="-29.5" font-family="Helvetica,sans-Serif" font-size="10.00">_Cpp/example/SimulatedTransformation</text>
<text text-anchor="start" x="940" y="-18.5" font-family="Helvetica,sans-Serif" font-size="10.00">Provider/SimulatedTransformationProvider</text>
<text text-anchor="middle" x="1032" y="-7.5" font-family="Helvetica,sans-Serif" font-size="10.00">App.cpp</text>
</a>
</g>
</g>
<!-- Node2&#45;&gt;Node8 -->
<g id="edge7" class="edge">
<title>Node2&#45;&gt;Node8</title>
<path fill="none" stroke="midnightblue" d="M784.9,-87.12C827.75,-76.78 883.86,-63.24 931.78,-51.68"/>
<polygon fill="midnightblue" stroke="midnightblue" points="784.04,-83.72 775.14,-89.47 785.68,-90.53 784.04,-83.72"/>
</g>
<!-- Node9 -->
<g id="node9" class="node">
<title>Node9</title>
<g id="a_node9"><a xlink:href="_transformation_provider_app_8cpp.html" target="_top" xlink:title=" ">
<polygon fill="white" stroke="black" points="1150.5,-6 1150.5,-47 1343.5,-47 1343.5,-6 1150.5,-6"/>
<text text-anchor="start" x="1158.5" y="-35" font-family="Helvetica,sans-Serif" font-size="10.00">build/FRI&#45;Client&#45;SDK</text>
<text text-anchor="start" x="1158.5" y="-24" font-family="Helvetica,sans-Serif" font-size="10.00">_Cpp/example/Transformation</text>
<text text-anchor="middle" x="1247" y="-13" font-family="Helvetica,sans-Serif" font-size="10.00">Provider/TransformationProviderApp.cpp</text>
</a>
</g>
</g>
<!-- Node2&#45;&gt;Node9 -->
<g id="edge8" class="edge">
<title>Node2&#45;&gt;Node9</title>
<path fill="none" stroke="midnightblue" d="M807.88,-88.94C956.7,-69.51 997.05,-77.97 1141,-53 1150.79,-51.3 1161.02,-49.23 1171.11,-47"/>
<polygon fill="midnightblue" stroke="midnightblue" points="807.38,-85.47 797.92,-90.26 808.3,-92.41 807.38,-85.47"/>
</g>
<!-- Node10 -->
<g id="node10" class="node">
<title>Node10</title>
<g id="a_node10"><a xlink:href="fri_udp_connection_8cpp.html" target="_top" xlink:title=" ">
<polygon fill="white" stroke="black" points="1362,-11.5 1362,-41.5 1566,-41.5 1566,-11.5 1362,-11.5"/>
<text text-anchor="start" x="1370" y="-29.5" font-family="Helvetica,sans-Serif" font-size="10.00">build/FRI&#45;Client&#45;SDK</text>
<text text-anchor="middle" x="1464" y="-18.5" font-family="Helvetica,sans-Serif" font-size="10.00">_Cpp/src/connection/friUdpConnection.cpp</text>
</a>
</g>
</g>
<!-- Node2&#45;&gt;Node10 -->
<g id="edge9" class="edge">
<title>Node2&#45;&gt;Node10</title>
<path fill="none" stroke="midnightblue" d="M808.08,-88.96C1050.42,-62.35 1115.68,-87.86 1353,-53 1371.98,-50.21 1392.51,-45.88 1410.69,-41.57"/>
<polygon fill="midnightblue" stroke="midnightblue" points="807.45,-85.51 797.9,-90.1 808.23,-92.47 807.45,-85.51"/>
</g>
</g>
</svg>
