<?xml version="1.0" encoding="UTF-8" standalone="no"?>
<!DOCTYPE svg PUBLIC "-//W3C//DTD SVG 1.1//EN"
 "http://www.w3.org/Graphics/SVG/1.1/DTD/svg11.dtd">
<!-- Generated by graphviz version 2.43.0 (0)
 -->
<!-- Title: build/FRI&#45;Client&#45;SDK_Cpp/src/base/friClientData.h Pages: 1 -->
<svg width="613pt" height="319pt"
 viewBox="0.00 0.00 612.50 319.00" xmlns="http://www.w3.org/2000/svg" xmlns:xlink="http://www.w3.org/1999/xlink">
<g id="graph0" class="graph" transform="scale(1 1) rotate(0) translate(4 315)">
<title>build/FRI&#45;Client&#45;SDK_Cpp/src/base/friClientData.h</title>
<polygon fill="white" stroke="transparent" points="-4,4 -4,-315 608.5,-315 608.5,4 -4,4"/>
<!-- Node1 -->
<g id="node1" class="node">
<title>Node1</title>
<g id="a_node1"><a xlink:title=" ">
<polygon fill="#bfbfbf" stroke="black" points="190,-280.5 190,-310.5 336,-310.5 336,-280.5 190,-280.5"/>
<text text-anchor="start" x="198" y="-298.5" font-family="Helvetica,sans-Serif" font-size="10.00">build/FRI&#45;Client&#45;SDK</text>
<text text-anchor="middle" x="263" y="-287.5" font-family="Helvetica,sans-Serif" font-size="10.00">_Cpp/src/base/friClientData.h</text>
</a>
</g>
</g>
<!-- Node2 -->
<g id="node2" class="node">
<title>Node2</title>
<g id="a_node2"><a xlink:title=" ">
<polygon fill="white" stroke="#bfbfbf" points="0,-224.5 0,-243.5 44,-243.5 44,-224.5 0,-224.5"/>
<text text-anchor="middle" x="22" y="-231.5" font-family="Helvetica,sans-Serif" font-size="10.00">vector</text>
</a>
</g>
</g>
<!-- Node1&#45;&gt;Node2 -->
<g id="edge1" class="edge">
<title>Node1&#45;&gt;Node2</title>
<path fill="none" stroke="midnightblue" d="M205.55,-280.4C164.45,-270.3 107.81,-256.36 58,-244 56.73,-243.69 55.44,-243.36 54.14,-243.04"/>
<polygon fill="midnightblue" stroke="midnightblue" points="54.63,-239.56 44.08,-240.53 52.94,-246.35 54.63,-239.56"/>
</g>
<!-- Node3 -->
<g id="node3" class="node">
<title>Node3</title>
<g id="a_node3"><a xlink:href="_f_r_i_messages_8pb_8h.html" target="_top" xlink:title=" ">
<polygon fill="white" stroke="black" points="123,-112.5 123,-131.5 223,-131.5 223,-112.5 123,-112.5"/>
<text text-anchor="middle" x="173" y="-119.5" font-family="Helvetica,sans-Serif" font-size="10.00">FRIMessages.pb.h</text>
</a>
</g>
</g>
<!-- Node1&#45;&gt;Node3 -->
<g id="edge2" class="edge">
<title>Node1&#45;&gt;Node3</title>
<path fill="none" stroke="midnightblue" d="M189.69,-282.01C148.65,-273.36 103.31,-260.44 91,-244 63.06,-206.68 117.46,-160.6 150.4,-137.56"/>
<polygon fill="midnightblue" stroke="midnightblue" points="152.73,-140.21 159.04,-131.7 148.8,-134.42 152.73,-140.21"/>
</g>
<!-- Node9 -->
<g id="node9" class="node">
<title>Node9</title>
<g id="a_node9"><a xlink:href="fri_monitoring_message_decoder_8h.html" target="_top" xlink:title=" ">
<polygon fill="white" stroke="black" points="272,-224.5 272,-243.5 426,-243.5 426,-224.5 272,-224.5"/>
<text text-anchor="middle" x="349" y="-231.5" font-family="Helvetica,sans-Serif" font-size="10.00">friMonitoringMessageDecoder.h</text>
</a>
</g>
</g>
<!-- Node1&#45;&gt;Node9 -->
<g id="edge8" class="edge">
<title>Node1&#45;&gt;Node9</title>
<path fill="none" stroke="midnightblue" d="M283.38,-280.4C296.91,-271.04 314.61,-258.79 328.22,-249.38"/>
<polygon fill="midnightblue" stroke="midnightblue" points="330.25,-252.23 336.49,-243.66 326.27,-246.47 330.25,-252.23"/>
</g>
<!-- Node11 -->
<g id="node11" class="node">
<title>Node11</title>
<g id="a_node11"><a xlink:href="fri_command_message_encoder_8h.html" target="_top" xlink:title=" ">
<polygon fill="white" stroke="black" points="100.5,-224.5 100.5,-243.5 253.5,-243.5 253.5,-224.5 100.5,-224.5"/>
<text text-anchor="middle" x="177" y="-231.5" font-family="Helvetica,sans-Serif" font-size="10.00">friCommandMessageEncoder.h</text>
</a>
</g>
</g>
<!-- Node1&#45;&gt;Node11 -->
<g id="edge13" class="edge">
<title>Node1&#45;&gt;Node11</title>
<path fill="none" stroke="midnightblue" d="M242.62,-280.4C229.09,-271.04 211.39,-258.79 197.78,-249.38"/>
<polygon fill="midnightblue" stroke="midnightblue" points="199.73,-246.47 189.51,-243.66 195.75,-252.23 199.73,-246.47"/>
</g>
<!-- Node12 -->
<g id="node12" class="node">
<title>Node12</title>
<g id="a_node12"><a xlink:href="fri_client_if_8h.html" target="_top" xlink:title=" ">
<polygon fill="white" stroke="black" points="444.5,-224.5 444.5,-243.5 509.5,-243.5 509.5,-224.5 444.5,-224.5"/>
<text text-anchor="middle" x="477" y="-231.5" font-family="Helvetica,sans-Serif" font-size="10.00">friClientIf.h</text>
</a>
</g>
</g>
<!-- Node1&#45;&gt;Node12 -->
<g id="edge16" class="edge">
<title>Node1&#45;&gt;Node12</title>
<path fill="none" stroke="midnightblue" d="M313.44,-280.47C351.01,-270.03 401.62,-255.96 436.55,-246.25"/>
<polygon fill="midnightblue" stroke="midnightblue" points="437.71,-249.56 446.41,-243.51 435.83,-242.81 437.71,-249.56"/>
</g>
<!-- Node13 -->
<g id="node13" class="node">
<title>Node13</title>
<g id="a_node13"><a xlink:href="fri_exception_8h.html" target="_top" xlink:title=" ">
<polygon fill="white" stroke="black" points="527.5,-224.5 527.5,-243.5 604.5,-243.5 604.5,-224.5 527.5,-224.5"/>
<text text-anchor="middle" x="566" y="-231.5" font-family="Helvetica,sans-Serif" font-size="10.00">friException.h</text>
</a>
</g>
</g>
<!-- Node1&#45;&gt;Node13 -->
<g id="edge17" class="edge">
<title>Node1&#45;&gt;Node13</title>
<path fill="none" stroke="midnightblue" d="M334.42,-280.47C390.78,-269.41 467.87,-254.27 517.31,-244.56"/>
<polygon fill="midnightblue" stroke="midnightblue" points="518.29,-247.94 527.43,-242.57 516.94,-241.07 518.29,-247.94"/>
</g>
<!-- Node4 -->
<g id="node4" class="node">
<title>Node4</title>
<g id="a_node4"><a xlink:href="pb_8h.html" target="_top" xlink:title=" ">
<polygon fill="white" stroke="black" points="194.5,-56.5 194.5,-75.5 229.5,-75.5 229.5,-56.5 194.5,-56.5"/>
<text text-anchor="middle" x="212" y="-63.5" font-family="Helvetica,sans-Serif" font-size="10.00">pb.h</text>
</a>
</g>
</g>
<!-- Node3&#45;&gt;Node4 -->
<g id="edge3" class="edge">
<title>Node3&#45;&gt;Node4</title>
<path fill="none" stroke="midnightblue" d="M179.44,-112.08C184.95,-104.46 193.03,-93.26 199.76,-83.94"/>
<polygon fill="midnightblue" stroke="midnightblue" points="202.66,-85.91 205.68,-75.75 196.99,-81.81 202.66,-85.91"/>
</g>
<!-- Node5 -->
<g id="node5" class="node">
<title>Node5</title>
<g id="a_node5"><a xlink:title=" ">
<polygon fill="white" stroke="#bfbfbf" points="82.5,-0.5 82.5,-19.5 131.5,-19.5 131.5,-0.5 82.5,-0.5"/>
<text text-anchor="middle" x="107" y="-7.5" font-family="Helvetica,sans-Serif" font-size="10.00">stdint.h</text>
</a>
</g>
</g>
<!-- Node4&#45;&gt;Node5 -->
<g id="edge4" class="edge">
<title>Node4&#45;&gt;Node5</title>
<path fill="none" stroke="midnightblue" d="M195.13,-56.32C178.29,-47.66 152.19,-34.24 132.76,-24.25"/>
<polygon fill="midnightblue" stroke="midnightblue" points="134.32,-21.12 123.83,-19.65 131.12,-27.34 134.32,-21.12"/>
</g>
<!-- Node6 -->
<g id="node6" class="node">
<title>Node6</title>
<g id="a_node6"><a xlink:title=" ">
<polygon fill="white" stroke="#bfbfbf" points="150,-0.5 150,-19.5 202,-19.5 202,-0.5 150,-0.5"/>
<text text-anchor="middle" x="176" y="-7.5" font-family="Helvetica,sans-Serif" font-size="10.00">stddef.h</text>
</a>
</g>
</g>
<!-- Node4&#45;&gt;Node6 -->
<g id="edge5" class="edge">
<title>Node4&#45;&gt;Node6</title>
<path fill="none" stroke="midnightblue" d="M206.06,-56.08C201.02,-48.53 193.66,-37.49 187.49,-28.23"/>
<polygon fill="midnightblue" stroke="midnightblue" points="190.29,-26.13 181.83,-19.75 184.47,-30.01 190.29,-26.13"/>
</g>
<!-- Node7 -->
<g id="node7" class="node">
<title>Node7</title>
<g id="a_node7"><a xlink:title=" ">
<polygon fill="white" stroke="#bfbfbf" points="220,-0.5 220,-19.5 276,-19.5 276,-0.5 220,-0.5"/>
<text text-anchor="middle" x="248" y="-7.5" font-family="Helvetica,sans-Serif" font-size="10.00">stdbool.h</text>
</a>
</g>
</g>
<!-- Node4&#45;&gt;Node7 -->
<g id="edge6" class="edge">
<title>Node4&#45;&gt;Node7</title>
<path fill="none" stroke="midnightblue" d="M217.94,-56.08C222.98,-48.53 230.34,-37.49 236.51,-28.23"/>
<polygon fill="midnightblue" stroke="midnightblue" points="239.53,-30.01 242.17,-19.75 233.71,-26.13 239.53,-30.01"/>
</g>
<!-- Node8 -->
<g id="node8" class="node">
<title>Node8</title>
<g id="a_node8"><a xlink:title=" ">
<polygon fill="white" stroke="#bfbfbf" points="294.5,-0.5 294.5,-19.5 343.5,-19.5 343.5,-0.5 294.5,-0.5"/>
<text text-anchor="middle" x="319" y="-7.5" font-family="Helvetica,sans-Serif" font-size="10.00">string.h</text>
</a>
</g>
</g>
<!-- Node4&#45;&gt;Node8 -->
<g id="edge7" class="edge">
<title>Node4&#45;&gt;Node8</title>
<path fill="none" stroke="midnightblue" d="M229.19,-56.32C246.35,-47.66 272.95,-34.24 292.75,-24.25"/>
<polygon fill="midnightblue" stroke="midnightblue" points="294.5,-27.28 301.85,-19.65 291.35,-21.04 294.5,-27.28"/>
</g>
<!-- Node9&#45;&gt;Node3 -->
<g id="edge9" class="edge">
<title>Node9&#45;&gt;Node3</title>
<path fill="none" stroke="midnightblue" d="M348.98,-224.09C348.44,-210.16 345.34,-183.26 330,-168 304.61,-142.74 266.04,-131.45 233.49,-126.5"/>
<polygon fill="midnightblue" stroke="midnightblue" points="233.54,-122.97 223.16,-125.1 232.6,-129.91 233.54,-122.97"/>
</g>
<!-- Node10 -->
<g id="node10" class="node">
<title>Node10</title>
<g id="a_node10"><a xlink:href="pb__frimessages__callbacks_8h.html" target="_top" xlink:title=" ">
<polygon fill="white" stroke="black" points="181,-168.5 181,-187.5 321,-187.5 321,-168.5 181,-168.5"/>
<text text-anchor="middle" x="251" y="-175.5" font-family="Helvetica,sans-Serif" font-size="10.00">pb_frimessages_callbacks.h</text>
</a>
</g>
</g>
<!-- Node9&#45;&gt;Node10 -->
<g id="edge10" class="edge">
<title>Node9&#45;&gt;Node10</title>
<path fill="none" stroke="midnightblue" d="M333.25,-224.32C317.68,-215.74 293.62,-202.49 275.54,-192.52"/>
<polygon fill="midnightblue" stroke="midnightblue" points="277.15,-189.42 266.71,-187.65 273.78,-195.55 277.15,-189.42"/>
</g>
<!-- Node10&#45;&gt;Node3 -->
<g id="edge12" class="edge">
<title>Node10&#45;&gt;Node3</title>
<path fill="none" stroke="midnightblue" d="M238.47,-168.32C226.41,-159.98 207.97,-147.21 193.73,-137.35"/>
<polygon fill="midnightblue" stroke="midnightblue" points="195.72,-134.47 185.5,-131.65 191.73,-140.22 195.72,-134.47"/>
</g>
<!-- Node10&#45;&gt;Node4 -->
<g id="edge11" class="edge">
<title>Node10&#45;&gt;Node4</title>
<path fill="none" stroke="midnightblue" d="M248.9,-168.47C245.72,-155.93 239.28,-131.87 232,-112 228.69,-102.97 224.43,-93.19 220.69,-85.05"/>
<polygon fill="midnightblue" stroke="midnightblue" points="223.77,-83.38 216.34,-75.82 217.43,-86.36 223.77,-83.38"/>
</g>
<!-- Node11&#45;&gt;Node3 -->
<g id="edge14" class="edge">
<title>Node11&#45;&gt;Node3</title>
<path fill="none" stroke="midnightblue" d="M175.76,-224.4C174.52,-215.36 172.7,-200.71 172,-188 171.14,-172.49 171.49,-154.86 172.01,-141.88"/>
<polygon fill="midnightblue" stroke="midnightblue" points="175.5,-141.99 172.47,-131.84 168.51,-141.67 175.5,-141.99"/>
</g>
<!-- Node11&#45;&gt;Node10 -->
<g id="edge15" class="edge">
<title>Node11&#45;&gt;Node10</title>
<path fill="none" stroke="midnightblue" d="M188.89,-224.32C200.15,-216.11 217.29,-203.6 230.71,-193.81"/>
<polygon fill="midnightblue" stroke="midnightblue" points="232.88,-196.56 238.89,-187.83 228.75,-190.9 232.88,-196.56"/>
</g>
<!-- Node14 -->
<g id="node14" class="node">
<title>Node14</title>
<g id="a_node14"><a xlink:title=" ">
<polygon fill="white" stroke="#bfbfbf" points="543,-168.5 543,-187.5 589,-187.5 589,-168.5 543,-168.5"/>
<text text-anchor="middle" x="566" y="-175.5" font-family="Helvetica,sans-Serif" font-size="10.00">stdio.h</text>
</a>
</g>
</g>
<!-- Node13&#45;&gt;Node14 -->
<g id="edge18" class="edge">
<title>Node13&#45;&gt;Node14</title>
<path fill="none" stroke="midnightblue" d="M566,-224.08C566,-217.01 566,-206.86 566,-197.99"/>
<polygon fill="midnightblue" stroke="midnightblue" points="569.5,-197.75 566,-187.75 562.5,-197.75 569.5,-197.75"/>
</g>
</g>
</svg>
