<?xml version="1.0" encoding="UTF-8" standalone="no"?>
<!DOCTYPE svg PUBLIC "-//W3C//DTD SVG 1.1//EN"
 "http://www.w3.org/Graphics/SVG/1.1/DTD/svg11.dtd">
<!-- Generated by graphviz version 2.43.0 (0)
 -->
<!-- Title: build/FRI&#45;Client&#45;SDK_Cpp/include/friClientIf.h Pages: 1 -->
<svg width="2515pt" height="373pt"
 viewBox="0.00 0.00 2515.00 373.00" xmlns="http://www.w3.org/2000/svg" xmlns:xlink="http://www.w3.org/1999/xlink">
<g id="graph0" class="graph" transform="scale(1 1) rotate(0) translate(4 369)">
<title>build/FRI&#45;Client&#45;SDK_Cpp/include/friClientIf.h</title>
<polygon fill="white" stroke="transparent" points="-4,4 -4,-369 2511,-369 2511,4 -4,4"/>
<!-- Node1 -->
<g id="node1" class="node">
<title>Node1</title>
<g id="a_node1"><a xlink:title=" ">
<polygon fill="#bfbfbf" stroke="black" points="1298.5,-334.5 1298.5,-364.5 1423.5,-364.5 1423.5,-334.5 1298.5,-334.5"/>
<text text-anchor="start" x="1306.5" y="-352.5" font-family="Helvetica,sans-Serif" font-size="10.00">build/FRI&#45;Client&#45;SDK</text>
<text text-anchor="middle" x="1361" y="-341.5" font-family="Helvetica,sans-Serif" font-size="10.00">_Cpp/include/friClientIf.h</text>
</a>
</g>
</g>
<!-- Node2 -->
<g id="node2" class="node">
<title>Node2</title>
<g id="a_node2"><a xlink:href="_i_o_access_client_8h.html" target="_top" xlink:title=" ">
<polygon fill="white" stroke="black" points="186,-84 186,-125 312,-125 312,-84 186,-84"/>
<text text-anchor="start" x="194" y="-113" font-family="Helvetica,sans-Serif" font-size="10.00">build/FRI&#45;Client&#45;SDK</text>
<text text-anchor="start" x="194" y="-102" font-family="Helvetica,sans-Serif" font-size="10.00">_Cpp/example/IOAccess</text>
<text text-anchor="middle" x="249" y="-91" font-family="Helvetica,sans-Serif" font-size="10.00">/IOAccessClient.h</text>
</a>
</g>
</g>
<!-- Node1&#45;&gt;Node2 -->
<g id="edge1" class="edge">
<title>Node1&#45;&gt;Node2</title>
<path fill="none" stroke="midnightblue" d="M1287.97,-339.16C1153.78,-321.27 859.42,-278.7 616,-220 503.43,-192.86 374.87,-149.91 303.7,-125.05"/>
<polygon fill="midnightblue" stroke="midnightblue" points="1287.76,-342.66 1298.13,-340.5 1288.68,-335.72 1287.76,-342.66"/>
</g>
<!-- Node5 -->
<g id="node5" class="node">
<title>Node5</title>
<g id="a_node5"><a xlink:href="fri_l_b_r_client_8h.html" target="_top" xlink:title=" ">
<polygon fill="white" stroke="black" points="971,-178.5 971,-208.5 1109,-208.5 1109,-178.5 971,-178.5"/>
<text text-anchor="start" x="979" y="-196.5" font-family="Helvetica,sans-Serif" font-size="10.00">build/FRI&#45;Client&#45;SDK</text>
<text text-anchor="middle" x="1040" y="-185.5" font-family="Helvetica,sans-Serif" font-size="10.00">_Cpp/include/friLBRClient.h</text>
</a>
</g>
</g>
<!-- Node1&#45;&gt;Node5 -->
<g id="edge4" class="edge">
<title>Node1&#45;&gt;Node5</title>
<path fill="none" stroke="midnightblue" d="M1288.19,-345.94C1238.2,-341.25 1172.09,-329.02 1122,-298 1085.94,-275.67 1059.18,-231.56 1047.1,-208.81"/>
<polygon fill="midnightblue" stroke="midnightblue" points="1288.02,-349.44 1298.29,-346.81 1288.62,-342.46 1288.02,-349.44"/>
</g>
<!-- Node21 -->
<g id="node21" class="node">
<title>Node21</title>
<g id="a_node21"><a xlink:href="fri_l_b_r_state_8h.html" target="_top" xlink:title=" ">
<polygon fill="white" stroke="black" points="1131,-262 1131,-292 1267,-292 1267,-262 1131,-262"/>
<text text-anchor="start" x="1139" y="-280" font-family="Helvetica,sans-Serif" font-size="10.00">build/FRI&#45;Client&#45;SDK</text>
<text text-anchor="middle" x="1199" y="-269" font-family="Helvetica,sans-Serif" font-size="10.00">_Cpp/include/friLBRState.h</text>
</a>
</g>
</g>
<!-- Node1&#45;&gt;Node21 -->
<g id="edge21" class="edge">
<title>Node1&#45;&gt;Node21</title>
<path fill="none" stroke="midnightblue" d="M1319.28,-330.34C1291.89,-318.42 1256.6,-303.07 1231.34,-292.07"/>
<polygon fill="midnightblue" stroke="midnightblue" points="1318.04,-333.62 1328.61,-334.4 1320.83,-327.2 1318.04,-333.62"/>
</g>
<!-- Node24 -->
<g id="node24" class="node">
<title>Node24</title>
<g id="a_node24"><a xlink:href="fri_transformation_client_8h.html" target="_top" xlink:title=" ">
<polygon fill="white" stroke="black" points="1800,-256.5 1800,-297.5 1950,-297.5 1950,-256.5 1800,-256.5"/>
<text text-anchor="start" x="1808" y="-285.5" font-family="Helvetica,sans-Serif" font-size="10.00">build/FRI&#45;Client&#45;SDK</text>
<text text-anchor="start" x="1808" y="-274.5" font-family="Helvetica,sans-Serif" font-size="10.00">_Cpp/include/friTransformation</text>
<text text-anchor="middle" x="1875" y="-263.5" font-family="Helvetica,sans-Serif" font-size="10.00">Client.h</text>
</a>
</g>
</g>
<!-- Node1&#45;&gt;Node24 -->
<g id="edge27" class="edge">
<title>Node1&#45;&gt;Node24</title>
<path fill="none" stroke="midnightblue" d="M1433.52,-338.55C1530.41,-325.26 1701.28,-301.83 1799.61,-288.34"/>
<polygon fill="midnightblue" stroke="midnightblue" points="1432.94,-335.1 1423.51,-339.93 1433.9,-342.03 1432.94,-335.1"/>
</g>
<!-- Node29 -->
<g id="node29" class="node">
<title>Node29</title>
<g id="a_node29"><a xlink:href="fri_client_application_8cpp.html" target="_top" xlink:title=" ">
<polygon fill="white" stroke="black" points="1604,-178.5 1604,-208.5 1788,-208.5 1788,-178.5 1604,-178.5"/>
<text text-anchor="start" x="1612" y="-196.5" font-family="Helvetica,sans-Serif" font-size="10.00">build/FRI&#45;Client&#45;SDK</text>
<text text-anchor="middle" x="1696" y="-185.5" font-family="Helvetica,sans-Serif" font-size="10.00">_Cpp/src/base/friClientApplication.cpp</text>
</a>
</g>
</g>
<!-- Node1&#45;&gt;Node29 -->
<g id="edge36" class="edge">
<title>Node1&#45;&gt;Node29</title>
<path fill="none" stroke="midnightblue" d="M1433.73,-340.46C1477.13,-333.53 1532.31,-320.86 1577,-298 1622.1,-274.93 1664.16,-231.16 1684.02,-208.65"/>
<polygon fill="midnightblue" stroke="midnightblue" points="1433.17,-337.01 1423.81,-341.98 1434.23,-343.93 1433.17,-337.01"/>
</g>
<!-- Node31 -->
<g id="node31" class="node">
<title>Node31</title>
<g id="a_node31"><a xlink:href="fri_client_data_8h.html" target="_top" xlink:title=" ">
<polygon fill="white" stroke="black" points="1422,-262 1422,-292 1568,-292 1568,-262 1422,-262"/>
<text text-anchor="start" x="1430" y="-280" font-family="Helvetica,sans-Serif" font-size="10.00">build/FRI&#45;Client&#45;SDK</text>
<text text-anchor="middle" x="1495" y="-269" font-family="Helvetica,sans-Serif" font-size="10.00">_Cpp/src/base/friClientData.h</text>
</a>
</g>
</g>
<!-- Node1&#45;&gt;Node31 -->
<g id="edge37" class="edge">
<title>Node1&#45;&gt;Node31</title>
<path fill="none" stroke="midnightblue" d="M1396.7,-329.72C1419.18,-317.89 1447.72,-302.87 1468.25,-292.07"/>
<polygon fill="midnightblue" stroke="midnightblue" points="1395.02,-326.65 1387.79,-334.4 1398.27,-332.84 1395.02,-326.65"/>
</g>
<!-- Node3 -->
<g id="node3" class="node">
<title>Node3</title>
<g id="a_node3"><a xlink:href="_i_o_access_app_8cpp.html" target="_top" xlink:title=" ">
<polygon fill="white" stroke="black" points="0,-0.5 0,-41.5 126,-41.5 126,-0.5 0,-0.5"/>
<text text-anchor="start" x="8" y="-29.5" font-family="Helvetica,sans-Serif" font-size="10.00">build/FRI&#45;Client&#45;SDK</text>
<text text-anchor="start" x="8" y="-18.5" font-family="Helvetica,sans-Serif" font-size="10.00">_Cpp/example/IOAccess</text>
<text text-anchor="middle" x="63" y="-7.5" font-family="Helvetica,sans-Serif" font-size="10.00">/IOAccessApp.cpp</text>
</a>
</g>
</g>
<!-- Node2&#45;&gt;Node3 -->
<g id="edge2" class="edge">
<title>Node2&#45;&gt;Node3</title>
<path fill="none" stroke="midnightblue" d="M195.25,-79.95C167.43,-67.76 133.86,-53.05 107.51,-41.5"/>
<polygon fill="midnightblue" stroke="midnightblue" points="193.88,-83.17 204.45,-83.98 196.69,-76.76 193.88,-83.17"/>
</g>
<!-- Node4 -->
<g id="node4" class="node">
<title>Node4</title>
<g id="a_node4"><a xlink:href="_i_o_access_client_8cpp.html" target="_top" xlink:title=" ">
<polygon fill="white" stroke="black" points="144,-0.5 144,-41.5 270,-41.5 270,-0.5 144,-0.5"/>
<text text-anchor="start" x="152" y="-29.5" font-family="Helvetica,sans-Serif" font-size="10.00">build/FRI&#45;Client&#45;SDK</text>
<text text-anchor="start" x="152" y="-18.5" font-family="Helvetica,sans-Serif" font-size="10.00">_Cpp/example/IOAccess</text>
<text text-anchor="middle" x="207" y="-7.5" font-family="Helvetica,sans-Serif" font-size="10.00">/IOAccessClient.cpp</text>
</a>
</g>
</g>
<!-- Node2&#45;&gt;Node4 -->
<g id="edge3" class="edge">
<title>Node2&#45;&gt;Node4</title>
<path fill="none" stroke="midnightblue" d="M234.09,-74.56C228.45,-63.62 222.17,-51.43 217.07,-41.55"/>
<polygon fill="midnightblue" stroke="midnightblue" points="231.14,-76.49 238.83,-83.77 237.36,-73.28 231.14,-76.49"/>
</g>
<!-- Node5&#45;&gt;Node2 -->
<g id="edge5" class="edge">
<title>Node5&#45;&gt;Node2</title>
<path fill="none" stroke="midnightblue" d="M960.77,-183.79C803.55,-166.49 455.01,-128.16 312.05,-112.43"/>
<polygon fill="midnightblue" stroke="midnightblue" points="960.52,-187.28 970.84,-184.89 961.29,-180.32 960.52,-187.28"/>
</g>
<!-- Node6 -->
<g id="node6" class="node">
<title>Node6</title>
<g id="a_node6"><a xlink:href="_my_l_b_r_client_8h.html" target="_top" xlink:title=" ">
<polygon fill="white" stroke="black" points="760.5,-84 760.5,-125 927.5,-125 927.5,-84 760.5,-84"/>
<text text-anchor="start" x="768.5" y="-113" font-family="Helvetica,sans-Serif" font-size="10.00">build/FRI&#45;Client&#45;SDK</text>
<text text-anchor="start" x="768.5" y="-102" font-family="Helvetica,sans-Serif" font-size="10.00">_Cpp/example/LBRClientTemplate</text>
<text text-anchor="middle" x="844" y="-91" font-family="Helvetica,sans-Serif" font-size="10.00">/MyLBRClient.h</text>
</a>
</g>
</g>
<!-- Node5&#45;&gt;Node6 -->
<g id="edge6" class="edge">
<title>Node5&#45;&gt;Node6</title>
<path fill="none" stroke="midnightblue" d="M998.85,-174.24C966.38,-159.82 921.18,-139.76 887.99,-125.03"/>
<polygon fill="midnightblue" stroke="midnightblue" points="997.51,-177.47 1008.07,-178.33 1000.35,-171.07 997.51,-177.47"/>
</g>
<!-- Node9 -->
<g id="node9" class="node">
<title>Node9</title>
<g id="a_node9"><a xlink:href="_l_b_r_joint_sine_overlay_client_8h.html" target="_top" xlink:title=" ">
<polygon fill="white" stroke="black" points="1152,-84 1152,-125 1328,-125 1328,-84 1152,-84"/>
<text text-anchor="start" x="1160" y="-113" font-family="Helvetica,sans-Serif" font-size="10.00">build/FRI&#45;Client&#45;SDK</text>
<text text-anchor="start" x="1160" y="-102" font-family="Helvetica,sans-Serif" font-size="10.00">_Cpp/example/LBRJointSineOverlay</text>
<text text-anchor="middle" x="1240" y="-91" font-family="Helvetica,sans-Serif" font-size="10.00">/LBRJointSineOverlayClient.h</text>
</a>
</g>
</g>
<!-- Node5&#45;&gt;Node9 -->
<g id="edge9" class="edge">
<title>Node5&#45;&gt;Node9</title>
<path fill="none" stroke="midnightblue" d="M1081.99,-174.24C1115.12,-159.82 1161.25,-139.76 1195.11,-125.03"/>
<polygon fill="midnightblue" stroke="midnightblue" points="1080.35,-171.13 1072.58,-178.33 1083.14,-177.55 1080.35,-171.13"/>
</g>
<!-- Node12 -->
<g id="node12" class="node">
<title>Node12</title>
<g id="a_node12"><a xlink:href="_l_b_r_torque_sine_overlay_client_8h.html" target="_top" xlink:title=" ">
<polygon fill="white" stroke="black" points="491.5,-84 491.5,-125 676.5,-125 676.5,-84 491.5,-84"/>
<text text-anchor="start" x="499.5" y="-113" font-family="Helvetica,sans-Serif" font-size="10.00">build/FRI&#45;Client&#45;SDK</text>
<text text-anchor="start" x="499.5" y="-102" font-family="Helvetica,sans-Serif" font-size="10.00">_Cpp/example/LBRTorqueSineOverlay</text>
<text text-anchor="middle" x="584" y="-91" font-family="Helvetica,sans-Serif" font-size="10.00">/LBRTorqueSineOverlayClient.h</text>
</a>
</g>
</g>
<!-- Node5&#45;&gt;Node12 -->
<g id="edge12" class="edge">
<title>Node5&#45;&gt;Node12</title>
<path fill="none" stroke="midnightblue" d="M960.84,-177.4C881.81,-162.32 760.39,-139.15 676.85,-123.21"/>
<polygon fill="midnightblue" stroke="midnightblue" points="960.26,-180.85 970.74,-179.29 961.58,-173.97 960.26,-180.85"/>
</g>
<!-- Node15 -->
<g id="node15" class="node">
<title>Node15</title>
<g id="a_node15"><a xlink:href="_l_b_r_wrench_sine_overlay_client_8h.html" target="_top" xlink:title=" ">
<polygon fill="white" stroke="black" points="946,-84 946,-125 1134,-125 1134,-84 946,-84"/>
<text text-anchor="start" x="954" y="-113" font-family="Helvetica,sans-Serif" font-size="10.00">build/FRI&#45;Client&#45;SDK</text>
<text text-anchor="start" x="954" y="-102" font-family="Helvetica,sans-Serif" font-size="10.00">_Cpp/example/LBRWrenchSineOverlay</text>
<text text-anchor="middle" x="1040" y="-91" font-family="Helvetica,sans-Serif" font-size="10.00">/LBRWrenchSineOverlayClient.h</text>
</a>
</g>
</g>
<!-- Node5&#45;&gt;Node15 -->
<g id="edge15" class="edge">
<title>Node5&#45;&gt;Node15</title>
<path fill="none" stroke="midnightblue" d="M1040,-168.04C1040,-154.47 1040,-137.81 1040,-125.1"/>
<polygon fill="midnightblue" stroke="midnightblue" points="1036.5,-168.13 1040,-178.13 1043.5,-168.13 1036.5,-168.13"/>
</g>
<!-- Node18 -->
<g id="node18" class="node">
<title>Node18</title>
<g id="a_node18"><a xlink:href="_simulated_transformation_provider_app_8cpp.html" target="_top" xlink:title=" ">
<polygon fill="white" stroke="black" points="2089,-78.5 2089,-130.5 2289,-130.5 2289,-78.5 2089,-78.5"/>
<text text-anchor="start" x="2097" y="-118.5" font-family="Helvetica,sans-Serif" font-size="10.00">build/FRI&#45;Client&#45;SDK</text>
<text text-anchor="start" x="2097" y="-107.5" font-family="Helvetica,sans-Serif" font-size="10.00">_Cpp/example/SimulatedTransformation</text>
<text text-anchor="start" x="2097" y="-96.5" font-family="Helvetica,sans-Serif" font-size="10.00">Provider/SimulatedTransformationProvider</text>
<text text-anchor="middle" x="2189" y="-85.5" font-family="Helvetica,sans-Serif" font-size="10.00">App.cpp</text>
</a>
</g>
</g>
<!-- Node5&#45;&gt;Node18 -->
<g id="edge18" class="edge">
<title>Node5&#45;&gt;Node18</title>
<path fill="none" stroke="midnightblue" d="M1104.43,-176.21C1121.13,-172.58 1139.15,-169.16 1156,-167 1563.63,-114.68 1672.73,-186.06 2080,-131 2082.89,-130.61 2085.81,-130.18 2088.76,-129.71"/>
<polygon fill="midnightblue" stroke="midnightblue" points="1103.23,-172.89 1094.24,-178.49 1104.76,-179.72 1103.23,-172.89"/>
</g>
<!-- Node19 -->
<g id="node19" class="node">
<title>Node19</title>
<g id="a_node19"><a xlink:href="_transformation_provider_app_8cpp.html" target="_top" xlink:title=" ">
<polygon fill="white" stroke="black" points="1537.5,-84 1537.5,-125 1730.5,-125 1730.5,-84 1537.5,-84"/>
<text text-anchor="start" x="1545.5" y="-113" font-family="Helvetica,sans-Serif" font-size="10.00">build/FRI&#45;Client&#45;SDK</text>
<text text-anchor="start" x="1545.5" y="-102" font-family="Helvetica,sans-Serif" font-size="10.00">_Cpp/example/Transformation</text>
<text text-anchor="middle" x="1634" y="-91" font-family="Helvetica,sans-Serif" font-size="10.00">Provider/TransformationProviderApp.cpp</text>
</a>
</g>
</g>
<!-- Node5&#45;&gt;Node19 -->
<g id="edge19" class="edge">
<title>Node5&#45;&gt;Node19</title>
<path fill="none" stroke="midnightblue" d="M1089.49,-175.45C1100.42,-172.2 1112.01,-169.15 1123,-167 1300.34,-132.27 1349.67,-160.21 1528,-131 1537.99,-129.36 1548.44,-127.3 1558.71,-125.05"/>
<polygon fill="midnightblue" stroke="midnightblue" points="1088.21,-172.18 1079.67,-178.46 1090.26,-178.87 1088.21,-172.18"/>
</g>
<!-- Node20 -->
<g id="node20" class="node">
<title>Node20</title>
<g id="a_node20"><a xlink:href="fri_l_b_r_client_8cpp.html" target="_top" xlink:title=" ">
<polygon fill="white" stroke="black" points="1346.5,-89.5 1346.5,-119.5 1519.5,-119.5 1519.5,-89.5 1346.5,-89.5"/>
<text text-anchor="start" x="1354.5" y="-107.5" font-family="Helvetica,sans-Serif" font-size="10.00">build/FRI&#45;Client&#45;SDK</text>
<text text-anchor="middle" x="1433" y="-96.5" font-family="Helvetica,sans-Serif" font-size="10.00">_Cpp/src/client_lbr/friLBRClient.cpp</text>
</a>
</g>
</g>
<!-- Node5&#45;&gt;Node20 -->
<g id="edge20" class="edge">
<title>Node5&#45;&gt;Node20</title>
<path fill="none" stroke="midnightblue" d="M1091.64,-175.49C1101.96,-172.41 1112.77,-169.42 1123,-167 1216.86,-144.79 1242.74,-151.4 1337,-131 1352.17,-127.72 1368.54,-123.59 1383.39,-119.62"/>
<polygon fill="midnightblue" stroke="midnightblue" points="1090.48,-172.18 1081.93,-178.45 1092.52,-178.88 1090.48,-172.18"/>
</g>
<!-- Node7 -->
<g id="node7" class="node">
<title>Node7</title>
<g id="a_node7"><a xlink:href="_my_l_b_r_app_8cpp.html" target="_top" xlink:title=" ">
<polygon fill="white" stroke="black" points="694.5,-0.5 694.5,-41.5 861.5,-41.5 861.5,-0.5 694.5,-0.5"/>
<text text-anchor="start" x="702.5" y="-29.5" font-family="Helvetica,sans-Serif" font-size="10.00">build/FRI&#45;Client&#45;SDK</text>
<text text-anchor="start" x="702.5" y="-18.5" font-family="Helvetica,sans-Serif" font-size="10.00">_Cpp/example/LBRClientTemplate</text>
<text text-anchor="middle" x="778" y="-7.5" font-family="Helvetica,sans-Serif" font-size="10.00">/MyLBRApp.cpp</text>
</a>
</g>
</g>
<!-- Node6&#45;&gt;Node7 -->
<g id="edge7" class="edge">
<title>Node6&#45;&gt;Node7</title>
<path fill="none" stroke="midnightblue" d="M821.64,-75.88C812.5,-64.61 802.16,-51.83 793.83,-41.55"/>
<polygon fill="midnightblue" stroke="midnightblue" points="819.01,-78.2 828.02,-83.77 824.45,-73.8 819.01,-78.2"/>
</g>
<!-- Node8 -->
<g id="node8" class="node">
<title>Node8</title>
<g id="a_node8"><a xlink:href="_my_l_b_r_client_8cpp.html" target="_top" xlink:title=" ">
<polygon fill="white" stroke="black" points="879.5,-0.5 879.5,-41.5 1046.5,-41.5 1046.5,-0.5 879.5,-0.5"/>
<text text-anchor="start" x="887.5" y="-29.5" font-family="Helvetica,sans-Serif" font-size="10.00">build/FRI&#45;Client&#45;SDK</text>
<text text-anchor="start" x="887.5" y="-18.5" font-family="Helvetica,sans-Serif" font-size="10.00">_Cpp/example/LBRClientTemplate</text>
<text text-anchor="middle" x="963" y="-7.5" font-family="Helvetica,sans-Serif" font-size="10.00">/MyLBRClient.cpp</text>
</a>
</g>
</g>
<!-- Node6&#45;&gt;Node8 -->
<g id="edge8" class="edge">
<title>Node6&#45;&gt;Node8</title>
<path fill="none" stroke="midnightblue" d="M881.17,-78.04C898.32,-66.3 918.36,-52.57 934.32,-41.64"/>
<polygon fill="midnightblue" stroke="midnightblue" points="878.78,-75.44 872.5,-83.98 882.73,-81.22 878.78,-75.44"/>
</g>
<!-- Node10 -->
<g id="node10" class="node">
<title>Node10</title>
<g id="a_node10"><a xlink:href="_l_b_r_joint_sine_overlay_app_8cpp.html" target="_top" xlink:title=" ">
<polygon fill="white" stroke="black" points="1477,-0.5 1477,-41.5 1653,-41.5 1653,-0.5 1477,-0.5"/>
<text text-anchor="start" x="1485" y="-29.5" font-family="Helvetica,sans-Serif" font-size="10.00">build/FRI&#45;Client&#45;SDK</text>
<text text-anchor="start" x="1485" y="-18.5" font-family="Helvetica,sans-Serif" font-size="10.00">_Cpp/example/LBRJointSineOverlay</text>
<text text-anchor="middle" x="1565" y="-7.5" font-family="Helvetica,sans-Serif" font-size="10.00">/LBRJointSineOverlayApp.cpp</text>
</a>
</g>
</g>
<!-- Node9&#45;&gt;Node10 -->
<g id="edge10" class="edge">
<title>Node9&#45;&gt;Node10</title>
<path fill="none" stroke="midnightblue" d="M1323.72,-81.4C1328.21,-80.24 1332.66,-79.1 1337,-78 1385.79,-65.6 1440.56,-52.13 1484.2,-41.51"/>
<polygon fill="midnightblue" stroke="midnightblue" points="1322.65,-78.06 1313.85,-83.95 1324.41,-84.84 1322.65,-78.06"/>
</g>
<!-- Node11 -->
<g id="node11" class="node">
<title>Node11</title>
<g id="a_node11"><a xlink:href="_l_b_r_joint_sine_overlay_client_8cpp.html" target="_top" xlink:title=" ">
<polygon fill="white" stroke="black" points="1671,-0.5 1671,-41.5 1847,-41.5 1847,-0.5 1671,-0.5"/>
<text text-anchor="start" x="1679" y="-29.5" font-family="Helvetica,sans-Serif" font-size="10.00">build/FRI&#45;Client&#45;SDK</text>
<text text-anchor="start" x="1679" y="-18.5" font-family="Helvetica,sans-Serif" font-size="10.00">_Cpp/example/LBRJointSineOverlay</text>
<text text-anchor="middle" x="1759" y="-7.5" font-family="Helvetica,sans-Serif" font-size="10.00">/LBRJointSineOverlayClient.cpp</text>
</a>
</g>
</g>
<!-- Node9&#45;&gt;Node11 -->
<g id="edge11" class="edge">
<title>Node9&#45;&gt;Node11</title>
<path fill="none" stroke="midnightblue" d="M1319.38,-81.63C1325.32,-80.3 1331.24,-79.07 1337,-78 1479.88,-51.45 1518.46,-64.7 1662,-42 1664.89,-41.54 1667.82,-41.06 1670.78,-40.55"/>
<polygon fill="midnightblue" stroke="midnightblue" points="1318.35,-78.27 1309.4,-83.94 1319.93,-85.09 1318.35,-78.27"/>
</g>
<!-- Node13 -->
<g id="node13" class="node">
<title>Node13</title>
<g id="a_node13"><a xlink:href="_l_b_r_torque_sine_overlay_app_8cpp.html" target="_top" xlink:title=" ">
<polygon fill="white" stroke="black" points="491.5,-0.5 491.5,-41.5 676.5,-41.5 676.5,-0.5 491.5,-0.5"/>
<text text-anchor="start" x="499.5" y="-29.5" font-family="Helvetica,sans-Serif" font-size="10.00">build/FRI&#45;Client&#45;SDK</text>
<text text-anchor="start" x="499.5" y="-18.5" font-family="Helvetica,sans-Serif" font-size="10.00">_Cpp/example/LBRTorqueSineOverlay</text>
<text text-anchor="middle" x="584" y="-7.5" font-family="Helvetica,sans-Serif" font-size="10.00">/LBRTorqueSineOverlayApp.cpp</text>
</a>
</g>
</g>
<!-- Node12&#45;&gt;Node13 -->
<g id="edge13" class="edge">
<title>Node12&#45;&gt;Node13</title>
<path fill="none" stroke="midnightblue" d="M584,-73.56C584,-62.88 584,-51.13 584,-41.55"/>
<polygon fill="midnightblue" stroke="midnightblue" points="580.5,-73.77 584,-83.77 587.5,-73.77 580.5,-73.77"/>
</g>
<!-- Node14 -->
<g id="node14" class="node">
<title>Node14</title>
<g id="a_node14"><a xlink:href="_l_b_r_torque_sine_overlay_client_8cpp.html" target="_top" xlink:title=" ">
<polygon fill="white" stroke="black" points="288.5,-0.5 288.5,-41.5 473.5,-41.5 473.5,-0.5 288.5,-0.5"/>
<text text-anchor="start" x="296.5" y="-29.5" font-family="Helvetica,sans-Serif" font-size="10.00">build/FRI&#45;Client&#45;SDK</text>
<text text-anchor="start" x="296.5" y="-18.5" font-family="Helvetica,sans-Serif" font-size="10.00">_Cpp/example/LBRTorqueSineOverlay</text>
<text text-anchor="middle" x="381" y="-7.5" font-family="Helvetica,sans-Serif" font-size="10.00">/LBRTorqueSineOverlayClient.cpp</text>
</a>
</g>
</g>
<!-- Node12&#45;&gt;Node14 -->
<g id="edge14" class="edge">
<title>Node12&#45;&gt;Node14</title>
<path fill="none" stroke="midnightblue" d="M525.73,-80.11C495.29,-67.89 458.46,-53.1 429.58,-41.5"/>
<polygon fill="midnightblue" stroke="midnightblue" points="524.79,-83.5 535.38,-83.98 527.4,-77 524.79,-83.5"/>
</g>
<!-- Node16 -->
<g id="node16" class="node">
<title>Node16</title>
<g id="a_node16"><a xlink:href="_l_b_r_wrench_sine_overlay_app_8cpp.html" target="_top" xlink:title=" ">
<polygon fill="white" stroke="black" points="1065,-0.5 1065,-41.5 1253,-41.5 1253,-0.5 1065,-0.5"/>
<text text-anchor="start" x="1073" y="-29.5" font-family="Helvetica,sans-Serif" font-size="10.00">build/FRI&#45;Client&#45;SDK</text>
<text text-anchor="start" x="1073" y="-18.5" font-family="Helvetica,sans-Serif" font-size="10.00">_Cpp/example/LBRWrenchSineOverlay</text>
<text text-anchor="middle" x="1159" y="-7.5" font-family="Helvetica,sans-Serif" font-size="10.00">/LBRWrenchSineOverlayApp.cpp</text>
</a>
</g>
</g>
<!-- Node15&#45;&gt;Node16 -->
<g id="edge16" class="edge">
<title>Node15&#45;&gt;Node16</title>
<path fill="none" stroke="midnightblue" d="M1077.17,-78.04C1094.32,-66.3 1114.36,-52.57 1130.32,-41.64"/>
<polygon fill="midnightblue" stroke="midnightblue" points="1074.78,-75.44 1068.5,-83.98 1078.73,-81.22 1074.78,-75.44"/>
</g>
<!-- Node17 -->
<g id="node17" class="node">
<title>Node17</title>
<g id="a_node17"><a xlink:href="_l_b_r_wrench_sine_overlay_client_8cpp.html" target="_top" xlink:title=" ">
<polygon fill="white" stroke="black" points="1271,-0.5 1271,-41.5 1459,-41.5 1459,-0.5 1271,-0.5"/>
<text text-anchor="start" x="1279" y="-29.5" font-family="Helvetica,sans-Serif" font-size="10.00">build/FRI&#45;Client&#45;SDK</text>
<text text-anchor="start" x="1279" y="-18.5" font-family="Helvetica,sans-Serif" font-size="10.00">_Cpp/example/LBRWrenchSineOverlay</text>
<text text-anchor="middle" x="1365" y="-7.5" font-family="Helvetica,sans-Serif" font-size="10.00">/LBRWrenchSineOverlayClient.cpp</text>
</a>
</g>
</g>
<!-- Node15&#45;&gt;Node17 -->
<g id="edge17" class="edge">
<title>Node15&#45;&gt;Node17</title>
<path fill="none" stroke="midnightblue" d="M1127.63,-81.52C1177.41,-69.04 1239.18,-53.55 1287.23,-41.5"/>
<polygon fill="midnightblue" stroke="midnightblue" points="1126.69,-78.15 1117.85,-83.98 1128.4,-84.94 1126.69,-78.15"/>
</g>
<!-- Node21&#45;&gt;Node4 -->
<g id="edge22" class="edge">
<title>Node21&#45;&gt;Node4</title>
<path fill="none" stroke="midnightblue" d="M1120.7,-264.84C987.68,-244.85 709.83,-198.6 482,-131 397.56,-105.94 302.84,-65.54 249.51,-41.6"/>
<polygon fill="midnightblue" stroke="midnightblue" points="1120.39,-268.33 1130.8,-266.35 1121.43,-261.41 1120.39,-268.33"/>
</g>
<!-- Node21&#45;&gt;Node5 -->
<g id="edge24" class="edge">
<title>Node21&#45;&gt;Node5</title>
<path fill="none" stroke="midnightblue" d="M1162.69,-257.39C1133.75,-242.55 1093.85,-222.1 1067.51,-208.6"/>
<polygon fill="midnightblue" stroke="midnightblue" points="1161.17,-260.54 1171.67,-261.99 1164.36,-254.31 1161.17,-260.54"/>
</g>
<!-- Node21&#45;&gt;Node11 -->
<g id="edge23" class="edge">
<title>Node21&#45;&gt;Node11</title>
<path fill="none" stroke="midnightblue" d="M1178.29,-254.27C1157.88,-230.23 1132.84,-191.63 1156,-167 1245.07,-72.27 1643.1,-217.7 1740,-131 1764.91,-108.71 1764.73,-66.37 1762.07,-41.53"/>
<polygon fill="midnightblue" stroke="midnightblue" points="1175.72,-256.64 1184.96,-261.82 1180.97,-252.01 1175.72,-256.64"/>
</g>
<!-- Node22 -->
<g id="node22" class="node">
<title>Node22</title>
<g id="a_node22"><a xlink:href="fri_l_b_r_command_8cpp.html" target="_top" xlink:title=" ">
<polygon fill="white" stroke="black" points="1165.5,-178.5 1165.5,-208.5 1358.5,-208.5 1358.5,-178.5 1165.5,-178.5"/>
<text text-anchor="start" x="1173.5" y="-196.5" font-family="Helvetica,sans-Serif" font-size="10.00">build/FRI&#45;Client&#45;SDK</text>
<text text-anchor="middle" x="1262" y="-185.5" font-family="Helvetica,sans-Serif" font-size="10.00">_Cpp/src/client_lbr/friLBRCommand.cpp</text>
</a>
</g>
</g>
<!-- Node21&#45;&gt;Node22 -->
<g id="edge25" class="edge">
<title>Node21&#45;&gt;Node22</title>
<path fill="none" stroke="midnightblue" d="M1216.13,-253.83C1227.3,-239.39 1241.53,-220.99 1251.15,-208.53"/>
<polygon fill="midnightblue" stroke="midnightblue" points="1213.32,-251.75 1209.97,-261.8 1218.86,-256.03 1213.32,-251.75"/>
</g>
<!-- Node23 -->
<g id="node23" class="node">
<title>Node23</title>
<g id="a_node23"><a xlink:href="fri_l_b_r_state_8cpp.html" target="_top" xlink:title=" ">
<polygon fill="white" stroke="black" points="1376.5,-178.5 1376.5,-208.5 1547.5,-208.5 1547.5,-178.5 1376.5,-178.5"/>
<text text-anchor="start" x="1384.5" y="-196.5" font-family="Helvetica,sans-Serif" font-size="10.00">build/FRI&#45;Client&#45;SDK</text>
<text text-anchor="middle" x="1462" y="-185.5" font-family="Helvetica,sans-Serif" font-size="10.00">_Cpp/src/client_lbr/friLBRState.cpp</text>
</a>
</g>
</g>
<!-- Node21&#45;&gt;Node23 -->
<g id="edge26" class="edge">
<title>Node21&#45;&gt;Node23</title>
<path fill="none" stroke="midnightblue" d="M1253.86,-259C1302.04,-244.07 1371.33,-222.6 1416.5,-208.6"/>
<polygon fill="midnightblue" stroke="midnightblue" points="1252.73,-255.69 1244.21,-261.99 1254.8,-262.37 1252.73,-255.69"/>
</g>
<!-- Node25 -->
<g id="node25" class="node">
<title>Node25</title>
<g id="a_node25"><a xlink:href="_simulated_transformation_provider_client_8h.html" target="_top" xlink:title=" ">
<polygon fill="white" stroke="black" points="2171,-167.5 2171,-219.5 2371,-219.5 2371,-167.5 2171,-167.5"/>
<text text-anchor="start" x="2179" y="-207.5" font-family="Helvetica,sans-Serif" font-size="10.00">build/FRI&#45;Client&#45;SDK</text>
<text text-anchor="start" x="2179" y="-196.5" font-family="Helvetica,sans-Serif" font-size="10.00">_Cpp/example/SimulatedTransformation</text>
<text text-anchor="start" x="2179" y="-185.5" font-family="Helvetica,sans-Serif" font-size="10.00">Provider/SimulatedTransformationProvider</text>
<text text-anchor="middle" x="2271" y="-174.5" font-family="Helvetica,sans-Serif" font-size="10.00">Client.h</text>
</a>
</g>
</g>
<!-- Node24&#45;&gt;Node25 -->
<g id="edge28" class="edge">
<title>Node24&#45;&gt;Node25</title>
<path fill="none" stroke="midnightblue" d="M1960.17,-260.24C2017.36,-249.45 2094.34,-234.51 2162,-220 2164.95,-219.37 2167.93,-218.72 2170.95,-218.06"/>
<polygon fill="midnightblue" stroke="midnightblue" points="1959.27,-256.85 1950.09,-262.14 1960.56,-263.73 1959.27,-256.85"/>
</g>
<!-- Node27 -->
<g id="node27" class="node">
<title>Node27</title>
<g id="a_node27"><a xlink:href="_transformation_provider_client_8h.html" target="_top" xlink:title=" ">
<polygon fill="white" stroke="black" points="1961.5,-173 1961.5,-214 2152.5,-214 2152.5,-173 1961.5,-173"/>
<text text-anchor="start" x="1969.5" y="-202" font-family="Helvetica,sans-Serif" font-size="10.00">build/FRI&#45;Client&#45;SDK</text>
<text text-anchor="start" x="1969.5" y="-191" font-family="Helvetica,sans-Serif" font-size="10.00">_Cpp/example/Transformation</text>
<text text-anchor="middle" x="2057" y="-180" font-family="Helvetica,sans-Serif" font-size="10.00">Provider/TransformationProviderClient.h</text>
</a>
</g>
</g>
<!-- Node24&#45;&gt;Node27 -->
<g id="edge31" class="edge">
<title>Node24&#45;&gt;Node27</title>
<path fill="none" stroke="midnightblue" d="M1927.95,-252.29C1955.1,-240.13 1987.77,-225.5 2013.45,-214"/>
<polygon fill="midnightblue" stroke="midnightblue" points="1926.29,-249.2 1918.59,-256.48 1929.15,-255.59 1926.29,-249.2"/>
</g>
<!-- Node24&#45;&gt;Node29 -->
<g id="edge34" class="edge">
<title>Node24&#45;&gt;Node29</title>
<path fill="none" stroke="midnightblue" d="M1822.71,-252.19C1791.56,-238.01 1753.08,-220.49 1726.76,-208.5"/>
<polygon fill="midnightblue" stroke="midnightblue" points="1821.57,-255.52 1832.13,-256.48 1824.47,-249.15 1821.57,-255.52"/>
</g>
<!-- Node30 -->
<g id="node30" class="node">
<title>Node30</title>
<g id="a_node30"><a xlink:href="fri_transformation_client_8cpp.html" target="_top" xlink:title=" ">
<polygon fill="white" stroke="black" points="1806.5,-173 1806.5,-214 1943.5,-214 1943.5,-173 1806.5,-173"/>
<text text-anchor="start" x="1814.5" y="-202" font-family="Helvetica,sans-Serif" font-size="10.00">build/FRI&#45;Client&#45;SDK</text>
<text text-anchor="start" x="1814.5" y="-191" font-family="Helvetica,sans-Serif" font-size="10.00">_Cpp/src/client_trafo</text>
<text text-anchor="middle" x="1875" y="-180" font-family="Helvetica,sans-Serif" font-size="10.00">/friTransformationClient.cpp</text>
</a>
</g>
</g>
<!-- Node24&#45;&gt;Node30 -->
<g id="edge35" class="edge">
<title>Node24&#45;&gt;Node30</title>
<path fill="none" stroke="midnightblue" d="M1875,-246.06C1875,-235.38 1875,-223.63 1875,-214.05"/>
<polygon fill="midnightblue" stroke="midnightblue" points="1871.5,-246.27 1875,-256.27 1878.5,-246.27 1871.5,-246.27"/>
</g>
<!-- Node25&#45;&gt;Node18 -->
<g id="edge29" class="edge">
<title>Node25&#45;&gt;Node18</title>
<path fill="none" stroke="midnightblue" d="M2240.17,-159.79C2231.06,-150.13 2221.24,-139.71 2212.66,-130.61"/>
<polygon fill="midnightblue" stroke="midnightblue" points="2237.88,-162.46 2247.28,-167.34 2242.97,-157.66 2237.88,-162.46"/>
</g>
<!-- Node26 -->
<g id="node26" class="node">
<title>Node26</title>
<g id="a_node26"><a xlink:href="_simulated_transformation_provider_client_8cpp.html" target="_top" xlink:title=" ">
<polygon fill="white" stroke="black" points="2307,-78.5 2307,-130.5 2507,-130.5 2507,-78.5 2307,-78.5"/>
<text text-anchor="start" x="2315" y="-118.5" font-family="Helvetica,sans-Serif" font-size="10.00">build/FRI&#45;Client&#45;SDK</text>
<text text-anchor="start" x="2315" y="-107.5" font-family="Helvetica,sans-Serif" font-size="10.00">_Cpp/example/SimulatedTransformation</text>
<text text-anchor="start" x="2315" y="-96.5" font-family="Helvetica,sans-Serif" font-size="10.00">Provider/SimulatedTransformationProvider</text>
<text text-anchor="middle" x="2407" y="-85.5" font-family="Helvetica,sans-Serif" font-size="10.00">Client.cpp</text>
</a>
</g>
</g>
<!-- Node25&#45;&gt;Node26 -->
<g id="edge30" class="edge">
<title>Node25&#45;&gt;Node26</title>
<path fill="none" stroke="midnightblue" d="M2319.01,-161.79C2334.97,-151.58 2352.54,-140.34 2367.75,-130.61"/>
<polygon fill="midnightblue" stroke="midnightblue" points="2316.87,-159 2310.34,-167.34 2320.65,-164.9 2316.87,-159"/>
</g>
<!-- Node27&#45;&gt;Node19 -->
<g id="edge32" class="edge">
<title>Node27&#45;&gt;Node19</title>
<path fill="none" stroke="midnightblue" d="M1969.34,-170.67C1963.81,-169.4 1958.33,-168.17 1953,-167 1878.62,-150.72 1793.97,-134.51 1730.58,-122.82"/>
<polygon fill="midnightblue" stroke="midnightblue" points="1968.76,-174.14 1979.3,-173 1970.35,-167.32 1968.76,-174.14"/>
</g>
<!-- Node28 -->
<g id="node28" class="node">
<title>Node28</title>
<g id="a_node28"><a xlink:href="_transformation_provider_client_8cpp.html" target="_top" xlink:title=" ">
<polygon fill="white" stroke="black" points="1869.5,-84 1869.5,-125 2070.5,-125 2070.5,-84 1869.5,-84"/>
<text text-anchor="start" x="1877.5" y="-113" font-family="Helvetica,sans-Serif" font-size="10.00">build/FRI&#45;Client&#45;SDK</text>
<text text-anchor="start" x="1877.5" y="-102" font-family="Helvetica,sans-Serif" font-size="10.00">_Cpp/example/Transformation</text>
<text text-anchor="middle" x="1970" y="-91" font-family="Helvetica,sans-Serif" font-size="10.00">Provider/TransformationProviderClient.cpp</text>
</a>
</g>
</g>
<!-- Node27&#45;&gt;Node28 -->
<g id="edge33" class="edge">
<title>Node27&#45;&gt;Node28</title>
<path fill="none" stroke="midnightblue" d="M2029.9,-165.4C2016.87,-152.37 2001.55,-137.05 1989.66,-125.16"/>
<polygon fill="midnightblue" stroke="midnightblue" points="2027.71,-168.16 2037.26,-172.76 2032.66,-163.21 2027.71,-168.16"/>
</g>
<!-- Node31&#45;&gt;Node20 -->
<g id="edge39" class="edge">
<title>Node31&#45;&gt;Node20</title>
<path fill="none" stroke="midnightblue" d="M1526.38,-255.7C1537.96,-246.36 1549.76,-234.19 1556,-220 1565.48,-198.43 1568.38,-187.04 1556,-167 1541.5,-143.54 1515.05,-128.73 1490.38,-119.54"/>
<polygon fill="midnightblue" stroke="midnightblue" points="1523.94,-253.16 1518.08,-261.98 1528.16,-258.74 1523.94,-253.16"/>
</g>
<!-- Node31&#45;&gt;Node22 -->
<g id="edge40" class="edge">
<title>Node31&#45;&gt;Node22</title>
<path fill="none" stroke="midnightblue" d="M1445.33,-258.63C1402.69,-243.71 1342,-222.48 1302.31,-208.6"/>
<polygon fill="midnightblue" stroke="midnightblue" points="1444.35,-261.99 1454.95,-261.99 1446.66,-255.38 1444.35,-261.99"/>
</g>
<!-- Node31&#45;&gt;Node23 -->
<g id="edge41" class="edge">
<title>Node31&#45;&gt;Node23</title>
<path fill="none" stroke="midnightblue" d="M1485.36,-252.2C1479.62,-238.02 1472.54,-220.52 1467.68,-208.53"/>
<polygon fill="midnightblue" stroke="midnightblue" points="1482.25,-253.85 1489.25,-261.8 1488.74,-251.22 1482.25,-253.85"/>
</g>
<!-- Node31&#45;&gt;Node29 -->
<g id="edge38" class="edge">
<title>Node31&#45;&gt;Node29</title>
<path fill="none" stroke="midnightblue" d="M1539.02,-258.15C1575.74,-243.26 1627.35,-222.34 1661.23,-208.6"/>
<polygon fill="midnightblue" stroke="midnightblue" points="1537.51,-254.99 1529.55,-261.99 1540.14,-261.48 1537.51,-254.99"/>
</g>
<!-- Node31&#45;&gt;Node30 -->
<g id="edge42" class="edge">
<title>Node31&#45;&gt;Node30</title>
<path fill="none" stroke="midnightblue" d="M1578.17,-263.63C1639.19,-253.81 1723.83,-238.66 1797,-220 1803.9,-218.24 1811.08,-216.19 1818.17,-214.04"/>
<polygon fill="midnightblue" stroke="midnightblue" points="1577.53,-260.18 1568.21,-265.21 1578.63,-267.1 1577.53,-260.18"/>
</g>
</g>
</svg>
