<?xml version="1.0" encoding="UTF-8" standalone="no"?>
<!DOCTYPE svg PUBLIC "-//W3C//DTD SVG 1.1//EN"
 "http://www.w3.org/Graphics/SVG/1.1/DTD/svg11.dtd">
<!-- Generated by graphviz version 2.43.0 (0)
 -->
<!-- Title: build/FRI&#45;Client&#45;SDK_Cpp/src/client_lbr/friLBRState.cpp Pages: 1 -->
<svg width="627pt" height="375pt"
 viewBox="0.00 0.00 626.65 375.00" xmlns="http://www.w3.org/2000/svg" xmlns:xlink="http://www.w3.org/1999/xlink">
<g id="graph0" class="graph" transform="scale(1 1) rotate(0) translate(4 371)">
<title>build/FRI&#45;Client&#45;SDK_Cpp/src/client_lbr/friLBRState.cpp</title>
<polygon fill="white" stroke="transparent" points="-4,4 -4,-371 622.65,-371 622.65,4 -4,4"/>
<!-- Node1 -->
<g id="node1" class="node">
<title>Node1</title>
<g id="a_node1"><a xlink:title=" ">
<polygon fill="#bfbfbf" stroke="black" points="128,-336.5 128,-366.5 299,-366.5 299,-336.5 128,-336.5"/>
<text text-anchor="start" x="136" y="-354.5" font-family="Helvetica,sans-Serif" font-size="10.00">build/FRI&#45;Client&#45;SDK</text>
<text text-anchor="middle" x="213.5" y="-343.5" font-family="Helvetica,sans-Serif" font-size="10.00">_Cpp/src/client_lbr/friLBRState.cpp</text>
</a>
</g>
</g>
<!-- Node2 -->
<g id="node2" class="node">
<title>Node2</title>
<g id="a_node2"><a xlink:href="fri_l_b_r_state_8h.html" target="_top" xlink:title=" ">
<polygon fill="white" stroke="black" points="49.5,-280.5 49.5,-299.5 125.5,-299.5 125.5,-280.5 49.5,-280.5"/>
<text text-anchor="middle" x="87.5" y="-287.5" font-family="Helvetica,sans-Serif" font-size="10.00">friLBRState.h</text>
</a>
</g>
</g>
<!-- Node1&#45;&gt;Node2 -->
<g id="edge1" class="edge">
<title>Node1&#45;&gt;Node2</title>
<path fill="none" stroke="midnightblue" d="M183.64,-336.4C162.88,-326.59 135.4,-313.62 115.14,-304.05"/>
<polygon fill="midnightblue" stroke="midnightblue" points="116.37,-300.76 105.83,-299.66 113.38,-307.09 116.37,-300.76"/>
</g>
<!-- Node4 -->
<g id="node4" class="node">
<title>Node4</title>
<g id="a_node4"><a xlink:href="fri_client_data_8h.html" target="_top" xlink:title=" ">
<polygon fill="white" stroke="black" points="173.5,-280.5 173.5,-299.5 253.5,-299.5 253.5,-280.5 173.5,-280.5"/>
<text text-anchor="middle" x="213.5" y="-287.5" font-family="Helvetica,sans-Serif" font-size="10.00">friClientData.h</text>
</a>
</g>
</g>
<!-- Node1&#45;&gt;Node4 -->
<g id="edge3" class="edge">
<title>Node1&#45;&gt;Node4</title>
<path fill="none" stroke="midnightblue" d="M213.5,-336.4C213.5,-328.47 213.5,-318.46 213.5,-309.86"/>
<polygon fill="midnightblue" stroke="midnightblue" points="217,-309.66 213.5,-299.66 210,-309.66 217,-309.66"/>
</g>
<!-- Node13 -->
<g id="node13" class="node">
<title>Node13</title>
<g id="a_node13"><a xlink:href="pb__frimessages__callbacks_8h.html" target="_top" xlink:title=" ">
<polygon fill="white" stroke="black" points="448.5,-168.5 448.5,-187.5 588.5,-187.5 588.5,-168.5 448.5,-168.5"/>
<text text-anchor="middle" x="518.5" y="-175.5" font-family="Helvetica,sans-Serif" font-size="10.00">pb_frimessages_callbacks.h</text>
</a>
</g>
</g>
<!-- Node1&#45;&gt;Node13 -->
<g id="edge22" class="edge">
<title>Node1&#45;&gt;Node13</title>
<path fill="none" stroke="midnightblue" d="M299.06,-339.91C404.79,-324.87 575.45,-293.5 613.5,-244 632.01,-219.92 595.05,-201.52 561.96,-190.54"/>
<polygon fill="midnightblue" stroke="midnightblue" points="562.93,-187.18 552.34,-187.51 560.82,-193.85 562.93,-187.18"/>
</g>
<!-- Node3 -->
<g id="node3" class="node">
<title>Node3</title>
<g id="a_node3"><a xlink:href="fri_client_if_8h.html" target="_top" xlink:title=" ">
<polygon fill="white" stroke="black" points="0,-224.5 0,-243.5 65,-243.5 65,-224.5 0,-224.5"/>
<text text-anchor="middle" x="32.5" y="-231.5" font-family="Helvetica,sans-Serif" font-size="10.00">friClientIf.h</text>
</a>
</g>
</g>
<!-- Node2&#45;&gt;Node3 -->
<g id="edge2" class="edge">
<title>Node2&#45;&gt;Node3</title>
<path fill="none" stroke="midnightblue" d="M78.42,-280.08C70.33,-272.14 58.3,-260.34 48.59,-250.8"/>
<polygon fill="midnightblue" stroke="midnightblue" points="51,-248.26 41.41,-243.75 46.1,-253.25 51,-248.26"/>
</g>
<!-- Node4&#45;&gt;Node3 -->
<g id="edge19" class="edge">
<title>Node4&#45;&gt;Node3</title>
<path fill="none" stroke="midnightblue" d="M184.82,-280.44C153.97,-271.24 104.77,-256.56 70.67,-246.39"/>
<polygon fill="midnightblue" stroke="midnightblue" points="71.63,-243.02 61.05,-243.52 69.63,-249.73 71.63,-243.02"/>
</g>
<!-- Node5 -->
<g id="node5" class="node">
<title>Node5</title>
<g id="a_node5"><a xlink:title=" ">
<polygon fill="white" stroke="#bfbfbf" points="216.5,-224.5 216.5,-243.5 260.5,-243.5 260.5,-224.5 216.5,-224.5"/>
<text text-anchor="middle" x="238.5" y="-231.5" font-family="Helvetica,sans-Serif" font-size="10.00">vector</text>
</a>
</g>
</g>
<!-- Node4&#45;&gt;Node5 -->
<g id="edge4" class="edge">
<title>Node4&#45;&gt;Node5</title>
<path fill="none" stroke="midnightblue" d="M217.63,-280.08C221.01,-272.77 225.92,-262.18 230.12,-253.1"/>
<polygon fill="midnightblue" stroke="midnightblue" points="233.42,-254.3 234.45,-243.75 227.07,-251.36 233.42,-254.3"/>
</g>
<!-- Node6 -->
<g id="node6" class="node">
<title>Node6</title>
<g id="a_node6"><a xlink:href="_f_r_i_messages_8pb_8h.html" target="_top" xlink:title=" ">
<polygon fill="white" stroke="black" points="370.5,-112.5 370.5,-131.5 470.5,-131.5 470.5,-112.5 370.5,-112.5"/>
<text text-anchor="middle" x="420.5" y="-119.5" font-family="Helvetica,sans-Serif" font-size="10.00">FRIMessages.pb.h</text>
</a>
</g>
</g>
<!-- Node4&#45;&gt;Node6 -->
<g id="edge5" class="edge">
<title>Node4&#45;&gt;Node6</title>
<path fill="none" stroke="midnightblue" d="M209.52,-280.22C204.16,-266.93 196.47,-241.43 207.5,-224 240.83,-171.31 309.92,-145.56 360.41,-133.35"/>
<polygon fill="midnightblue" stroke="midnightblue" points="361.28,-136.74 370.24,-131.09 359.71,-129.92 361.28,-136.74"/>
</g>
<!-- Node12 -->
<g id="node12" class="node">
<title>Node12</title>
<g id="a_node12"><a xlink:href="fri_monitoring_message_decoder_8h.html" target="_top" xlink:title=" ">
<polygon fill="white" stroke="black" points="450.5,-224.5 450.5,-243.5 604.5,-243.5 604.5,-224.5 450.5,-224.5"/>
<text text-anchor="middle" x="527.5" y="-231.5" font-family="Helvetica,sans-Serif" font-size="10.00">friMonitoringMessageDecoder.h</text>
</a>
</g>
</g>
<!-- Node4&#45;&gt;Node12 -->
<g id="edge11" class="edge">
<title>Node4&#45;&gt;Node12</title>
<path fill="none" stroke="midnightblue" d="M253.59,-282.11C307.78,-272.79 404.83,-256.1 467.67,-245.29"/>
<polygon fill="midnightblue" stroke="midnightblue" points="468.57,-248.69 477.83,-243.54 467.38,-241.79 468.57,-248.69"/>
</g>
<!-- Node14 -->
<g id="node14" class="node">
<title>Node14</title>
<g id="a_node14"><a xlink:href="fri_command_message_encoder_8h.html" target="_top" xlink:title=" ">
<polygon fill="white" stroke="black" points="279,-224.5 279,-243.5 432,-243.5 432,-224.5 279,-224.5"/>
<text text-anchor="middle" x="355.5" y="-231.5" font-family="Helvetica,sans-Serif" font-size="10.00">friCommandMessageEncoder.h</text>
</a>
</g>
</g>
<!-- Node4&#45;&gt;Node14 -->
<g id="edge16" class="edge">
<title>Node4&#45;&gt;Node14</title>
<path fill="none" stroke="midnightblue" d="M236,-280.44C259.58,-271.48 296.82,-257.31 323.46,-247.18"/>
<polygon fill="midnightblue" stroke="midnightblue" points="325,-250.34 333.1,-243.52 322.51,-243.8 325,-250.34"/>
</g>
<!-- Node15 -->
<g id="node15" class="node">
<title>Node15</title>
<g id="a_node15"><a xlink:href="fri_exception_8h.html" target="_top" xlink:title=" ">
<polygon fill="white" stroke="black" points="83,-224.5 83,-243.5 160,-243.5 160,-224.5 83,-224.5"/>
<text text-anchor="middle" x="121.5" y="-231.5" font-family="Helvetica,sans-Serif" font-size="10.00">friException.h</text>
</a>
</g>
</g>
<!-- Node4&#45;&gt;Node15 -->
<g id="edge20" class="edge">
<title>Node4&#45;&gt;Node15</title>
<path fill="none" stroke="midnightblue" d="M198.72,-280.32C184.23,-271.82 161.93,-258.73 145.01,-248.8"/>
<polygon fill="midnightblue" stroke="midnightblue" points="146.64,-245.7 136.24,-243.65 143.1,-251.74 146.64,-245.7"/>
</g>
<!-- Node7 -->
<g id="node7" class="node">
<title>Node7</title>
<g id="a_node7"><a xlink:href="pb_8h.html" target="_top" xlink:title=" ">
<polygon fill="white" stroke="black" points="442,-56.5 442,-75.5 477,-75.5 477,-56.5 442,-56.5"/>
<text text-anchor="middle" x="459.5" y="-63.5" font-family="Helvetica,sans-Serif" font-size="10.00">pb.h</text>
</a>
</g>
</g>
<!-- Node6&#45;&gt;Node7 -->
<g id="edge6" class="edge">
<title>Node6&#45;&gt;Node7</title>
<path fill="none" stroke="midnightblue" d="M426.94,-112.08C432.45,-104.46 440.53,-93.26 447.26,-83.94"/>
<polygon fill="midnightblue" stroke="midnightblue" points="450.16,-85.91 453.18,-75.75 444.49,-81.81 450.16,-85.91"/>
</g>
<!-- Node8 -->
<g id="node8" class="node">
<title>Node8</title>
<g id="a_node8"><a xlink:title=" ">
<polygon fill="white" stroke="#bfbfbf" points="330,-0.5 330,-19.5 379,-19.5 379,-0.5 330,-0.5"/>
<text text-anchor="middle" x="354.5" y="-7.5" font-family="Helvetica,sans-Serif" font-size="10.00">stdint.h</text>
</a>
</g>
</g>
<!-- Node7&#45;&gt;Node8 -->
<g id="edge7" class="edge">
<title>Node7&#45;&gt;Node8</title>
<path fill="none" stroke="midnightblue" d="M442.63,-56.32C425.79,-47.66 399.69,-34.24 380.26,-24.25"/>
<polygon fill="midnightblue" stroke="midnightblue" points="381.82,-21.12 371.33,-19.65 378.62,-27.34 381.82,-21.12"/>
</g>
<!-- Node9 -->
<g id="node9" class="node">
<title>Node9</title>
<g id="a_node9"><a xlink:title=" ">
<polygon fill="white" stroke="#bfbfbf" points="397.5,-0.5 397.5,-19.5 449.5,-19.5 449.5,-0.5 397.5,-0.5"/>
<text text-anchor="middle" x="423.5" y="-7.5" font-family="Helvetica,sans-Serif" font-size="10.00">stddef.h</text>
</a>
</g>
</g>
<!-- Node7&#45;&gt;Node9 -->
<g id="edge8" class="edge">
<title>Node7&#45;&gt;Node9</title>
<path fill="none" stroke="midnightblue" d="M453.56,-56.08C448.52,-48.53 441.16,-37.49 434.99,-28.23"/>
<polygon fill="midnightblue" stroke="midnightblue" points="437.79,-26.13 429.33,-19.75 431.97,-30.01 437.79,-26.13"/>
</g>
<!-- Node10 -->
<g id="node10" class="node">
<title>Node10</title>
<g id="a_node10"><a xlink:title=" ">
<polygon fill="white" stroke="#bfbfbf" points="467.5,-0.5 467.5,-19.5 523.5,-19.5 523.5,-0.5 467.5,-0.5"/>
<text text-anchor="middle" x="495.5" y="-7.5" font-family="Helvetica,sans-Serif" font-size="10.00">stdbool.h</text>
</a>
</g>
</g>
<!-- Node7&#45;&gt;Node10 -->
<g id="edge9" class="edge">
<title>Node7&#45;&gt;Node10</title>
<path fill="none" stroke="midnightblue" d="M465.44,-56.08C470.48,-48.53 477.84,-37.49 484.01,-28.23"/>
<polygon fill="midnightblue" stroke="midnightblue" points="487.03,-30.01 489.67,-19.75 481.21,-26.13 487.03,-30.01"/>
</g>
<!-- Node11 -->
<g id="node11" class="node">
<title>Node11</title>
<g id="a_node11"><a xlink:title=" ">
<polygon fill="white" stroke="#bfbfbf" points="542,-0.5 542,-19.5 591,-19.5 591,-0.5 542,-0.5"/>
<text text-anchor="middle" x="566.5" y="-7.5" font-family="Helvetica,sans-Serif" font-size="10.00">string.h</text>
</a>
</g>
</g>
<!-- Node7&#45;&gt;Node11 -->
<g id="edge10" class="edge">
<title>Node7&#45;&gt;Node11</title>
<path fill="none" stroke="midnightblue" d="M476.69,-56.32C493.85,-47.66 520.45,-34.24 540.25,-24.25"/>
<polygon fill="midnightblue" stroke="midnightblue" points="542,-27.28 549.35,-19.65 538.85,-21.04 542,-27.28"/>
</g>
<!-- Node12&#45;&gt;Node6 -->
<g id="edge12" class="edge">
<title>Node12&#45;&gt;Node6</title>
<path fill="none" stroke="midnightblue" d="M497.43,-224.46C478.28,-217.56 454.38,-205.98 439.5,-188 428.62,-174.85 423.97,-155.71 421.98,-141.6"/>
<polygon fill="midnightblue" stroke="midnightblue" points="425.45,-141.14 420.89,-131.58 418.49,-141.9 425.45,-141.14"/>
</g>
<!-- Node12&#45;&gt;Node13 -->
<g id="edge13" class="edge">
<title>Node12&#45;&gt;Node13</title>
<path fill="none" stroke="midnightblue" d="M526.01,-224.08C524.82,-216.93 523.11,-206.64 521.62,-197.69"/>
<polygon fill="midnightblue" stroke="midnightblue" points="525.05,-197.04 519.96,-187.75 518.15,-198.19 525.05,-197.04"/>
</g>
<!-- Node13&#45;&gt;Node6 -->
<g id="edge15" class="edge">
<title>Node13&#45;&gt;Node6</title>
<path fill="none" stroke="midnightblue" d="M502.75,-168.32C487.18,-159.74 463.12,-146.49 445.04,-136.52"/>
<polygon fill="midnightblue" stroke="midnightblue" points="446.65,-133.42 436.21,-131.65 443.28,-139.55 446.65,-133.42"/>
</g>
<!-- Node13&#45;&gt;Node7 -->
<g id="edge14" class="edge">
<title>Node13&#45;&gt;Node7</title>
<path fill="none" stroke="midnightblue" d="M513.87,-168.37C504.22,-150.38 481.79,-108.55 468.95,-84.63"/>
<polygon fill="midnightblue" stroke="midnightblue" points="471.92,-82.75 464.11,-75.59 465.75,-86.06 471.92,-82.75"/>
</g>
<!-- Node14&#45;&gt;Node6 -->
<g id="edge17" class="edge">
<title>Node14&#45;&gt;Node6</title>
<path fill="none" stroke="midnightblue" d="M360.6,-224.37C371.28,-206.3 396.17,-164.18 410.27,-140.31"/>
<polygon fill="midnightblue" stroke="midnightblue" points="413.35,-141.98 415.42,-131.59 407.32,-138.42 413.35,-141.98"/>
</g>
<!-- Node14&#45;&gt;Node13 -->
<g id="edge18" class="edge">
<title>Node14&#45;&gt;Node13</title>
<path fill="none" stroke="midnightblue" d="M381.33,-224.44C408.75,-215.36 452.28,-200.94 482.93,-190.78"/>
<polygon fill="midnightblue" stroke="midnightblue" points="484.4,-193.98 492.79,-187.52 482.2,-187.34 484.4,-193.98"/>
</g>
<!-- Node16 -->
<g id="node16" class="node">
<title>Node16</title>
<g id="a_node16"><a xlink:title=" ">
<polygon fill="white" stroke="#bfbfbf" points="98.5,-168.5 98.5,-187.5 144.5,-187.5 144.5,-168.5 98.5,-168.5"/>
<text text-anchor="middle" x="121.5" y="-175.5" font-family="Helvetica,sans-Serif" font-size="10.00">stdio.h</text>
</a>
</g>
</g>
<!-- Node15&#45;&gt;Node16 -->
<g id="edge21" class="edge">
<title>Node15&#45;&gt;Node16</title>
<path fill="none" stroke="midnightblue" d="M121.5,-224.08C121.5,-217.01 121.5,-206.86 121.5,-197.99"/>
<polygon fill="midnightblue" stroke="midnightblue" points="125,-197.75 121.5,-187.75 118,-197.75 125,-197.75"/>
</g>
</g>
</svg>
