<?xml version="1.0" encoding="UTF-8" standalone="no"?>
<!DOCTYPE svg PUBLIC "-//W3C//DTD SVG 1.1//EN"
 "http://www.w3.org/Graphics/SVG/1.1/DTD/svg11.dtd">
<!-- Generated by graphviz version 2.43.0 (0)
 -->
<!-- Title: build/FRI&#45;Client&#45;SDK_Cpp/src/client_trafo/friTransformationClient.cpp Pages: 1 -->
<!--zoomable 386 -->
<svg id="main" version="1.1" xmlns="http://www.w3.org/2000/svg" xmlns:xlink="http://www.w3.org/1999/xlink" xml:space="preserve" onload="init(evt)">
<style type="text/css"><![CDATA[
.edge:hover path { stroke: red; }
.edge:hover polygon { stroke: red; fill: red; }
]]></style>
<script type="text/javascript"><![CDATA[
var edges = document.getElementsByTagName('g');
if (edges && edges.length) {
  for (var i=0;i<edges.length;i++) {
    if (edges[i].id.substr(0,4)=='edge') {
      edges[i].setAttribute('class','edge');
    }
  }
}
]]></script>
        <defs>
                <circle id="rim" cx="0" cy="0" r="7"/>
                <circle id="rim2" cx="0" cy="0" r="3.5"/>
                <g id="zoomPlus">
                        <use xlink:href="#rim" fill="#404040">
                                <set attributeName="fill" to="#808080" begin="zoomplus.mouseover" end="zoomplus.mouseout"/>
                        </use>
                        <path d="M-4,0h8M0,-4v8" fill="none" stroke="white" stroke-width="1.5" pointer-events="none"/>
                </g>
                <g id="zoomMin">
                        <use xlink:href="#rim" fill="#404040">
                                <set attributeName="fill" to="#808080" begin="zoomminus.mouseover" end="zoomminus.mouseout"/>
                        </use>
                        <path d="M-4,0h8" fill="none" stroke="white" stroke-width="1.5" pointer-events="none"/>
                </g>
                <g id="dirArrow">
                        <path fill="none" stroke="white" stroke-width="1.5" d="M0,-3.0v7 M-2.5,-0.5L0,-3.0L2.5,-0.5"/>
                </g>
               <g id="resetDef">
                       <use xlink:href="#rim2" fill="#404040">
                               <set attributeName="fill" to="#808080" begin="reset.mouseover" end="reset.mouseout"/>
                       </use>
               </g>
        </defs>

<script type="text/javascript">
var viewWidth = 801;
var viewHeight = 386;
var sectionId = 'dynsection-0';
</script>
<script xlink:href="svgpan.js"/>
<svg id="graph" class="graph">
<g id="viewport">
<title>build/FRI&#45;Client&#45;SDK_Cpp/src/client_trafo/friTransformationClient.cpp</title>
<polygon fill="white" stroke="transparent" points="-4,4 -4,-382 797,-382 797,4 -4,4"/>
<!-- Node1 -->
<g id="node1" class="node">
<title>Node1</title>
<g id="a_node1"><a xlink:title=" ">
<polygon fill="#bfbfbf" stroke="black" points="112.5,-336.5 112.5,-377.5 249.5,-377.5 249.5,-336.5 112.5,-336.5"/>
<text text-anchor="start" x="120.5" y="-365.5" font-family="Helvetica,sans-Serif" font-size="10.00">build/FRI&#45;Client&#45;SDK</text>
<text text-anchor="start" x="120.5" y="-354.5" font-family="Helvetica,sans-Serif" font-size="10.00">_Cpp/src/client_trafo</text>
<text text-anchor="middle" x="181" y="-343.5" font-family="Helvetica,sans-Serif" font-size="10.00">/friTransformationClient.cpp</text>
</a>
</g>
</g>
<!-- Node2 -->
<g id="node2" class="node">
<title>Node2</title>
<g id="a_node2"><a xlink:title=" ">
<polygon fill="white" stroke="#bfbfbf" points="0,-280.5 0,-299.5 46,-299.5 46,-280.5 0,-280.5"/>
<text text-anchor="middle" x="23" y="-287.5" font-family="Helvetica,sans-Serif" font-size="10.00">cstring</text>
</a>
</g>
</g>
<!-- Node1&#45;&gt;Node2 -->
<g id="edge1" class="edge">
<title>Node1&#45;&gt;Node2</title>
<path fill="none" stroke="midnightblue" d="M133.59,-336.5C107.62,-325.81 76.2,-312.89 53.49,-303.54"/>
<polygon fill="midnightblue" stroke="midnightblue" points="54.61,-300.22 44.03,-299.65 51.95,-306.69 54.61,-300.22"/>
</g>
<!-- Node3 -->
<g id="node3" class="node">
<title>Node3</title>
<g id="a_node3"><a xlink:title=" ">
<polygon fill="white" stroke="#bfbfbf" points="64.5,-280.5 64.5,-299.5 107.5,-299.5 107.5,-280.5 64.5,-280.5"/>
<text text-anchor="middle" x="86" y="-287.5" font-family="Helvetica,sans-Serif" font-size="10.00">cstdio</text>
</a>
</g>
</g>
<!-- Node1&#45;&gt;Node3 -->
<g id="edge2" class="edge">
<title>Node1&#45;&gt;Node3</title>
<path fill="none" stroke="midnightblue" d="M152.5,-336.5C137.93,-326.53 120.51,-314.61 107.16,-305.48"/>
<polygon fill="midnightblue" stroke="midnightblue" points="108.88,-302.41 98.65,-299.65 104.92,-308.19 108.88,-302.41"/>
</g>
<!-- Node4 -->
<g id="node4" class="node">
<title>Node4</title>
<g id="a_node4"><a xlink:href="fri_transformation_client_8h.html" target="_top" xlink:title=" ">
<polygon fill="white" stroke="black" points="164,-280.5 164,-299.5 288,-299.5 288,-280.5 164,-280.5"/>
<text text-anchor="middle" x="226" y="-287.5" font-family="Helvetica,sans-Serif" font-size="10.00">friTransformationClient.h</text>
</a>
</g>
</g>
<!-- Node1&#45;&gt;Node4 -->
<g id="edge3" class="edge">
<title>Node1&#45;&gt;Node4</title>
<path fill="none" stroke="midnightblue" d="M194.5,-336.5C200.8,-327.39 208.23,-316.66 214.29,-307.91"/>
<polygon fill="midnightblue" stroke="midnightblue" points="217.2,-309.87 220.01,-299.65 211.44,-305.88 217.2,-309.87"/>
</g>
<!-- Node7 -->
<g id="node7" class="node">
<title>Node7</title>
<g id="a_node7"><a xlink:href="fri_client_data_8h.html" target="_top" xlink:title=" ">
<polygon fill="white" stroke="black" points="308,-280.5 308,-299.5 388,-299.5 388,-280.5 308,-280.5"/>
<text text-anchor="middle" x="348" y="-287.5" font-family="Helvetica,sans-Serif" font-size="10.00">friClientData.h</text>
</a>
</g>
</g>
<!-- Node1&#45;&gt;Node7 -->
<g id="edge6" class="edge">
<title>Node1&#45;&gt;Node7</title>
<path fill="none" stroke="midnightblue" d="M231.11,-336.5C258.8,-325.72 292.37,-312.65 316.41,-303.29"/>
<polygon fill="midnightblue" stroke="midnightblue" points="317.72,-306.54 325.77,-299.65 315.18,-300.02 317.72,-306.54"/>
</g>
<!-- Node8 -->
<g id="node8" class="node">
<title>Node8</title>
<g id="a_node8"><a xlink:href="_f_r_i_messages_8pb_8h.html" target="_top" xlink:title=" ">
<polygon fill="white" stroke="black" points="556,-112.5 556,-131.5 656,-131.5 656,-112.5 556,-112.5"/>
<text text-anchor="middle" x="606" y="-119.5" font-family="Helvetica,sans-Serif" font-size="10.00">FRIMessages.pb.h</text>
</a>
</g>
</g>
<!-- Node1&#45;&gt;Node8 -->
<g id="edge25" class="edge">
<title>Node1&#45;&gt;Node8</title>
<path fill="none" stroke="midnightblue" d="M168.52,-336.14C152.89,-308.47 130.91,-257.88 155,-224 199.86,-160.9 433.36,-135.54 545.61,-126.88"/>
<polygon fill="midnightblue" stroke="midnightblue" points="546.05,-130.35 555.76,-126.11 545.53,-123.37 546.05,-130.35"/>
</g>
<!-- Node15 -->
<g id="node15" class="node">
<title>Node15</title>
<g id="a_node15"><a xlink:href="pb__frimessages__callbacks_8h.html" target="_top" xlink:title=" ">
<polygon fill="white" stroke="black" points="653,-168.5 653,-187.5 793,-187.5 793,-168.5 653,-168.5"/>
<text text-anchor="middle" x="723" y="-175.5" font-family="Helvetica,sans-Serif" font-size="10.00">pb_frimessages_callbacks.h</text>
</a>
</g>
</g>
<!-- Node1&#45;&gt;Node15 -->
<g id="edge26" class="edge">
<title>Node1&#45;&gt;Node15</title>
<path fill="none" stroke="midnightblue" d="M249.59,-353.69C391.88,-347.32 711.46,-324.19 778,-244 792.79,-226.18 768.89,-205.84 748.11,-192.73"/>
<polygon fill="midnightblue" stroke="midnightblue" points="749.9,-189.71 739.52,-187.58 746.3,-195.72 749.9,-189.71"/>
</g>
<!-- Node5 -->
<g id="node5" class="node">
<title>Node5</title>
<g id="a_node5"><a xlink:title=" ">
<polygon fill="white" stroke="#bfbfbf" points="164,-224.5 164,-243.5 208,-243.5 208,-224.5 164,-224.5"/>
<text text-anchor="middle" x="186" y="-231.5" font-family="Helvetica,sans-Serif" font-size="10.00">vector</text>
</a>
</g>
</g>
<!-- Node4&#45;&gt;Node5 -->
<g id="edge4" class="edge">
<title>Node4&#45;&gt;Node5</title>
<path fill="none" stroke="midnightblue" d="M219.39,-280.08C213.74,-272.46 205.46,-261.26 198.55,-251.94"/>
<polygon fill="midnightblue" stroke="midnightblue" points="201.25,-249.7 192.48,-243.75 195.62,-253.87 201.25,-249.7"/>
</g>
<!-- Node6 -->
<g id="node6" class="node">
<title>Node6</title>
<g id="a_node6"><a xlink:href="fri_client_if_8h.html" target="_top" xlink:title=" ">
<polygon fill="white" stroke="black" points="226.5,-224.5 226.5,-243.5 291.5,-243.5 291.5,-224.5 226.5,-224.5"/>
<text text-anchor="middle" x="259" y="-231.5" font-family="Helvetica,sans-Serif" font-size="10.00">friClientIf.h</text>
</a>
</g>
</g>
<!-- Node4&#45;&gt;Node6 -->
<g id="edge5" class="edge">
<title>Node4&#45;&gt;Node6</title>
<path fill="none" stroke="midnightblue" d="M231.45,-280.08C236.01,-272.61 242.67,-261.72 248.29,-252.52"/>
<polygon fill="midnightblue" stroke="midnightblue" points="251.42,-254.11 253.65,-243.75 245.45,-250.46 251.42,-254.11"/>
</g>
<!-- Node7&#45;&gt;Node5 -->
<g id="edge7" class="edge">
<title>Node7&#45;&gt;Node5</title>
<path fill="none" stroke="midnightblue" d="M322.33,-280.44C294.04,-271.01 248.48,-255.83 217.91,-245.64"/>
<polygon fill="midnightblue" stroke="midnightblue" points="218.76,-242.23 208.17,-242.39 216.55,-248.87 218.76,-242.23"/>
</g>
<!-- Node7&#45;&gt;Node6 -->
<g id="edge22" class="edge">
<title>Node7&#45;&gt;Node6</title>
<path fill="none" stroke="midnightblue" d="M333.7,-280.32C319.82,-271.9 298.51,-258.97 282.2,-249.07"/>
<polygon fill="midnightblue" stroke="midnightblue" points="283.63,-245.85 273.26,-243.65 280,-251.83 283.63,-245.85"/>
</g>
<!-- Node7&#45;&gt;Node8 -->
<g id="edge8" class="edge">
<title>Node7&#45;&gt;Node8</title>
<path fill="none" stroke="midnightblue" d="M388.24,-285.63C444.31,-280.13 542.02,-267.44 568,-244 597.33,-217.53 604.21,-168.72 605.71,-141.89"/>
<polygon fill="midnightblue" stroke="midnightblue" points="609.22,-141.68 606.07,-131.57 602.22,-141.44 609.22,-141.68"/>
</g>
<!-- Node14 -->
<g id="node14" class="node">
<title>Node14</title>
<g id="a_node14"><a xlink:href="fri_monitoring_message_decoder_8h.html" target="_top" xlink:title=" ">
<polygon fill="white" stroke="black" points="405,-224.5 405,-243.5 559,-243.5 559,-224.5 405,-224.5"/>
<text text-anchor="middle" x="482" y="-231.5" font-family="Helvetica,sans-Serif" font-size="10.00">friMonitoringMessageDecoder.h</text>
</a>
</g>
</g>
<!-- Node7&#45;&gt;Node14 -->
<g id="edge14" class="edge">
<title>Node7&#45;&gt;Node14</title>
<path fill="none" stroke="midnightblue" d="M369.23,-280.44C391.38,-271.52 426.32,-257.44 451.44,-247.32"/>
<polygon fill="midnightblue" stroke="midnightblue" points="452.9,-250.5 460.87,-243.52 450.28,-244.01 452.9,-250.5"/>
</g>
<!-- Node16 -->
<g id="node16" class="node">
<title>Node16</title>
<g id="a_node16"><a xlink:href="fri_command_message_encoder_8h.html" target="_top" xlink:title=" ">
<polygon fill="white" stroke="black" points="615.5,-224.5 615.5,-243.5 768.5,-243.5 768.5,-224.5 615.5,-224.5"/>
<text text-anchor="middle" x="692" y="-231.5" font-family="Helvetica,sans-Serif" font-size="10.00">friCommandMessageEncoder.h</text>
</a>
</g>
</g>
<!-- Node7&#45;&gt;Node16 -->
<g id="edge19" class="edge">
<title>Node7&#45;&gt;Node16</title>
<path fill="none" stroke="midnightblue" d="M388.13,-282.7C447,-273.46 557.38,-256.13 627.66,-245.1"/>
<polygon fill="midnightblue" stroke="midnightblue" points="628.39,-248.53 637.73,-243.52 627.3,-241.61 628.39,-248.53"/>
</g>
<!-- Node17 -->
<g id="node17" class="node">
<title>Node17</title>
<g id="a_node17"><a xlink:href="fri_exception_8h.html" target="_top" xlink:title=" ">
<polygon fill="white" stroke="black" points="309.5,-224.5 309.5,-243.5 386.5,-243.5 386.5,-224.5 309.5,-224.5"/>
<text text-anchor="middle" x="348" y="-231.5" font-family="Helvetica,sans-Serif" font-size="10.00">friException.h</text>
</a>
</g>
</g>
<!-- Node7&#45;&gt;Node17 -->
<g id="edge23" class="edge">
<title>Node7&#45;&gt;Node17</title>
<path fill="none" stroke="midnightblue" d="M348,-280.08C348,-273.01 348,-262.86 348,-253.99"/>
<polygon fill="midnightblue" stroke="midnightblue" points="351.5,-253.75 348,-243.75 344.5,-253.75 351.5,-253.75"/>
</g>
<!-- Node9 -->
<g id="node9" class="node">
<title>Node9</title>
<g id="a_node9"><a xlink:href="pb_8h.html" target="_top" xlink:title=" ">
<polygon fill="white" stroke="black" points="627.5,-56.5 627.5,-75.5 662.5,-75.5 662.5,-56.5 627.5,-56.5"/>
<text text-anchor="middle" x="645" y="-63.5" font-family="Helvetica,sans-Serif" font-size="10.00">pb.h</text>
</a>
</g>
</g>
<!-- Node8&#45;&gt;Node9 -->
<g id="edge9" class="edge">
<title>Node8&#45;&gt;Node9</title>
<path fill="none" stroke="midnightblue" d="M612.44,-112.08C617.95,-104.46 626.03,-93.26 632.76,-83.94"/>
<polygon fill="midnightblue" stroke="midnightblue" points="635.66,-85.91 638.68,-75.75 629.99,-81.81 635.66,-85.91"/>
</g>
<!-- Node10 -->
<g id="node10" class="node">
<title>Node10</title>
<g id="a_node10"><a xlink:title=" ">
<polygon fill="white" stroke="#bfbfbf" points="515.5,-0.5 515.5,-19.5 564.5,-19.5 564.5,-0.5 515.5,-0.5"/>
<text text-anchor="middle" x="540" y="-7.5" font-family="Helvetica,sans-Serif" font-size="10.00">stdint.h</text>
</a>
</g>
</g>
<!-- Node9&#45;&gt;Node10 -->
<g id="edge10" class="edge">
<title>Node9&#45;&gt;Node10</title>
<path fill="none" stroke="midnightblue" d="M628.13,-56.32C611.29,-47.66 585.19,-34.24 565.76,-24.25"/>
<polygon fill="midnightblue" stroke="midnightblue" points="567.32,-21.12 556.83,-19.65 564.12,-27.34 567.32,-21.12"/>
</g>
<!-- Node11 -->
<g id="node11" class="node">
<title>Node11</title>
<g id="a_node11"><a xlink:title=" ">
<polygon fill="white" stroke="#bfbfbf" points="583,-0.5 583,-19.5 635,-19.5 635,-0.5 583,-0.5"/>
<text text-anchor="middle" x="609" y="-7.5" font-family="Helvetica,sans-Serif" font-size="10.00">stddef.h</text>
</a>
</g>
</g>
<!-- Node9&#45;&gt;Node11 -->
<g id="edge11" class="edge">
<title>Node9&#45;&gt;Node11</title>
<path fill="none" stroke="midnightblue" d="M639.06,-56.08C634.02,-48.53 626.66,-37.49 620.49,-28.23"/>
<polygon fill="midnightblue" stroke="midnightblue" points="623.29,-26.13 614.83,-19.75 617.47,-30.01 623.29,-26.13"/>
</g>
<!-- Node12 -->
<g id="node12" class="node">
<title>Node12</title>
<g id="a_node12"><a xlink:title=" ">
<polygon fill="white" stroke="#bfbfbf" points="653,-0.5 653,-19.5 709,-19.5 709,-0.5 653,-0.5"/>
<text text-anchor="middle" x="681" y="-7.5" font-family="Helvetica,sans-Serif" font-size="10.00">stdbool.h</text>
</a>
</g>
</g>
<!-- Node9&#45;&gt;Node12 -->
<g id="edge12" class="edge">
<title>Node9&#45;&gt;Node12</title>
<path fill="none" stroke="midnightblue" d="M650.94,-56.08C655.98,-48.53 663.34,-37.49 669.51,-28.23"/>
<polygon fill="midnightblue" stroke="midnightblue" points="672.53,-30.01 675.17,-19.75 666.71,-26.13 672.53,-30.01"/>
</g>
<!-- Node13 -->
<g id="node13" class="node">
<title>Node13</title>
<g id="a_node13"><a xlink:title=" ">
<polygon fill="white" stroke="#bfbfbf" points="727.5,-0.5 727.5,-19.5 776.5,-19.5 776.5,-0.5 727.5,-0.5"/>
<text text-anchor="middle" x="752" y="-7.5" font-family="Helvetica,sans-Serif" font-size="10.00">string.h</text>
</a>
</g>
</g>
<!-- Node9&#45;&gt;Node13 -->
<g id="edge13" class="edge">
<title>Node9&#45;&gt;Node13</title>
<path fill="none" stroke="midnightblue" d="M662.19,-56.32C679.35,-47.66 705.95,-34.24 725.75,-24.25"/>
<polygon fill="midnightblue" stroke="midnightblue" points="727.5,-27.28 734.85,-19.65 724.35,-21.04 727.5,-27.28"/>
</g>
<!-- Node14&#45;&gt;Node8 -->
<g id="edge15" class="edge">
<title>Node14&#45;&gt;Node8</title>
<path fill="none" stroke="midnightblue" d="M491.73,-224.37C512.65,-205.81 562.13,-161.91 588.6,-138.44"/>
<polygon fill="midnightblue" stroke="midnightblue" points="591.16,-140.85 596.32,-131.59 586.51,-135.61 591.16,-140.85"/>
</g>
<!-- Node14&#45;&gt;Node15 -->
<g id="edge16" class="edge">
<title>Node14&#45;&gt;Node15</title>
<path fill="none" stroke="midnightblue" d="M520.19,-224.44C562.14,-215.04 629.59,-199.93 675.07,-189.74"/>
<polygon fill="midnightblue" stroke="midnightblue" points="676,-193.12 684.99,-187.52 674.47,-186.29 676,-193.12"/>
</g>
<!-- Node15&#45;&gt;Node8 -->
<g id="edge18" class="edge">
<title>Node15&#45;&gt;Node8</title>
<path fill="none" stroke="midnightblue" d="M704.46,-168.44C685.38,-159.64 655.43,-145.81 633.56,-135.72"/>
<polygon fill="midnightblue" stroke="midnightblue" points="635,-132.53 624.45,-131.52 632.07,-138.88 635,-132.53"/>
</g>
<!-- Node15&#45;&gt;Node9 -->
<g id="edge17" class="edge">
<title>Node15&#45;&gt;Node9</title>
<path fill="none" stroke="midnightblue" d="M716.88,-168.37C704.01,-150.22 673.93,-107.8 657.05,-83.99"/>
<polygon fill="midnightblue" stroke="midnightblue" points="659.73,-81.72 651.09,-75.59 654.02,-85.77 659.73,-81.72"/>
</g>
<!-- Node16&#45;&gt;Node8 -->
<g id="edge20" class="edge">
<title>Node16&#45;&gt;Node8</title>
<path fill="none" stroke="midnightblue" d="M681.23,-224.47C670.9,-215.94 655.25,-202.11 644,-188 632.31,-173.34 621.79,-154.7 614.8,-141.15"/>
<polygon fill="midnightblue" stroke="midnightblue" points="617.79,-139.3 610.18,-131.92 611.53,-142.43 617.79,-139.3"/>
</g>
<!-- Node16&#45;&gt;Node15 -->
<g id="edge21" class="edge">
<title>Node16&#45;&gt;Node15</title>
<path fill="none" stroke="midnightblue" d="M697.12,-224.08C701.41,-216.61 707.66,-205.72 712.94,-196.52"/>
<polygon fill="midnightblue" stroke="midnightblue" points="716.03,-198.17 717.98,-187.75 709.96,-194.68 716.03,-198.17"/>
</g>
<!-- Node18 -->
<g id="node18" class="node">
<title>Node18</title>
<g id="a_node18"><a xlink:title=" ">
<polygon fill="white" stroke="#bfbfbf" points="325,-168.5 325,-187.5 371,-187.5 371,-168.5 325,-168.5"/>
<text text-anchor="middle" x="348" y="-175.5" font-family="Helvetica,sans-Serif" font-size="10.00">stdio.h</text>
</a>
</g>
</g>
<!-- Node17&#45;&gt;Node18 -->
<g id="edge24" class="edge">
<title>Node17&#45;&gt;Node18</title>
<path fill="none" stroke="midnightblue" d="M348,-224.08C348,-217.01 348,-206.86 348,-197.99"/>
<polygon fill="midnightblue" stroke="midnightblue" points="351.5,-197.75 348,-187.75 344.5,-197.75 351.5,-197.75"/>
</g>
</g>
</svg>
        <g id="navigator" transform="translate(0 0)" fill="#404254">
                <rect fill="#f2f5e9" fill-opacity="0.5" stroke="#606060" stroke-width=".5" x="0" y="0" width="60" height="60"/>
                <use id="zoomplus" xlink:href="#zoomPlus" x="17" y="9" onmousedown="handleZoom(evt,'in')"/>
                <use id="zoomminus" xlink:href="#zoomMin" x="42" y="9" onmousedown="handleZoom(evt,'out')"/>
                <use id="reset" xlink:href="#resetDef" x="30" y="36" onmousedown="handleReset()"/>
                <g id="arrowUp" xlink:href="#dirArrow" transform="translate(30 24)" onmousedown="handlePan(0,-1)">
                  <use xlink:href="#rim" fill="#404040">
                        <set attributeName="fill" to="#808080" begin="arrowUp.mouseover" end="arrowUp.mouseout"/>
                  </use>
                  <path fill="none" stroke="white" stroke-width="1.5" d="M0,-3.0v7 M-2.5,-0.5L0,-3.0L2.5,-0.5"/>
                </g>
                <g id="arrowRight" xlink:href="#dirArrow" transform="rotate(90) translate(36 -43)" onmousedown="handlePan(1,0)">
                  <use xlink:href="#rim" fill="#404040">
                        <set attributeName="fill" to="#808080" begin="arrowRight.mouseover" end="arrowRight.mouseout"/>
                  </use>
                  <path fill="none" stroke="white" stroke-width="1.5" d="M0,-3.0v7 M-2.5,-0.5L0,-3.0L2.5,-0.5"/>
                </g>
                <g id="arrowDown" xlink:href="#dirArrow" transform="rotate(180) translate(-30 -48)" onmousedown="handlePan(0,1)">
                  <use xlink:href="#rim" fill="#404040">
                        <set attributeName="fill" to="#808080" begin="arrowDown.mouseover" end="arrowDown.mouseout"/>
                  </use>
                  <path fill="none" stroke="white" stroke-width="1.5" d="M0,-3.0v7 M-2.5,-0.5L0,-3.0L2.5,-0.5"/>
                </g>
                <g id="arrowLeft" xlink:href="#dirArrow" transform="rotate(270) translate(-36 17)" onmousedown="handlePan(-1,0)">
                  <use xlink:href="#rim" fill="#404040">
                        <set attributeName="fill" to="#808080" begin="arrowLeft.mouseover" end="arrowLeft.mouseout"/>
                  </use>
                  <path fill="none" stroke="white" stroke-width="1.5" d="M0,-3.0v7 M-2.5,-0.5L0,-3.0L2.5,-0.5"/>
                </g>
        </g>
        <svg viewBox="0 0 15 15" width="100%" height="30px" preserveAspectRatio="xMaxYMin meet">
         <g id="arrow_out" transform="scale(0.3 0.3)">
          <a xlink:href="fri_transformation_client_8cpp__incl_org.svg" target="_base">
           <rect id="button" ry="5" rx="5" y="6" x="6" height="38" width="38"
                fill="#f2f5e9" fill-opacity="0.5" stroke="#606060" stroke-width="1.0"/>
           <path id="arrow"
             d="M 11.500037,31.436501 C 11.940474,20.09759 22.043105,11.32322 32.158766,21.979434 L 37.068811,17.246167 C 37.068811,17.246167 37.088388,32 37.088388,32 L 22.160133,31.978069 C 22.160133,31.978069 26.997745,27.140456 26.997745,27.140456 C 18.528582,18.264221 13.291696,25.230495 11.500037,31.436501 z"
             style="fill:#404040;"/>
          </a>
         </g>
        </svg>
</svg>
