<?xml version="1.0" encoding="UTF-8" standalone="no"?>
<!DOCTYPE svg PUBLIC "-//W3C//DTD SVG 1.1//EN"
 "http://www.w3.org/Graphics/SVG/1.1/DTD/svg11.dtd">
<!-- Generated by graphviz version 2.43.0 (0)
 -->
<!-- Title: build/FRI&#45;Client&#45;SDK_Cpp/include/friClientApplication.h Pages: 1 -->
<svg width="1554pt" height="128pt"
 viewBox="0.00 0.00 1554.00 128.00" xmlns="http://www.w3.org/2000/svg" xmlns:xlink="http://www.w3.org/1999/xlink">
<g id="graph0" class="graph" transform="scale(1 1) rotate(0) translate(4 124)">
<title>build/FRI&#45;Client&#45;SDK_Cpp/include/friClientApplication.h</title>
<polygon fill="white" stroke="transparent" points="-4,4 -4,-124 1550,-124 1550,4 -4,4"/>
<!-- Node1 -->
<g id="node1" class="node">
<title>Node1</title>
<g id="a_node1"><a xlink:title=" ">
<polygon fill="#bfbfbf" stroke="black" points="633.5,-89.5 633.5,-119.5 800.5,-119.5 800.5,-89.5 633.5,-89.5"/>
<text text-anchor="start" x="641.5" y="-107.5" font-family="Helvetica,sans-Serif" font-size="10.00">build/FRI&#45;Client&#45;SDK</text>
<text text-anchor="middle" x="717" y="-96.5" font-family="Helvetica,sans-Serif" font-size="10.00">_Cpp/include/friClientApplication.h</text>
</a>
</g>
</g>
<!-- Node2 -->
<g id="node2" class="node">
<title>Node2</title>
<g id="a_node2"><a xlink:href="_i_o_access_app_8cpp.html" target="_top" xlink:title=" ">
<polygon fill="white" stroke="black" points="0,-6 0,-47 126,-47 126,-6 0,-6"/>
<text text-anchor="start" x="8" y="-35" font-family="Helvetica,sans-Serif" font-size="10.00">build/FRI&#45;Client&#45;SDK</text>
<text text-anchor="start" x="8" y="-24" font-family="Helvetica,sans-Serif" font-size="10.00">_Cpp/example/IOAccess</text>
<text text-anchor="middle" x="63" y="-13" font-family="Helvetica,sans-Serif" font-size="10.00">/IOAccessApp.cpp</text>
</a>
</g>
</g>
<!-- Node1&#45;&gt;Node2 -->
<g id="edge1" class="edge">
<title>Node1&#45;&gt;Node2</title>
<path fill="none" stroke="midnightblue" d="M622.86,-102.64C506.86,-99.91 304.34,-89.71 135,-53 127.87,-51.45 120.48,-49.4 113.28,-47.12"/>
<polygon fill="midnightblue" stroke="midnightblue" points="623.05,-106.14 633.12,-102.87 623.2,-99.15 623.05,-106.14"/>
</g>
<!-- Node3 -->
<g id="node3" class="node">
<title>Node3</title>
<g id="a_node3"><a xlink:href="_my_l_b_r_app_8cpp.html" target="_top" xlink:title=" ">
<polygon fill="white" stroke="black" points="144.5,-6 144.5,-47 311.5,-47 311.5,-6 144.5,-6"/>
<text text-anchor="start" x="152.5" y="-35" font-family="Helvetica,sans-Serif" font-size="10.00">build/FRI&#45;Client&#45;SDK</text>
<text text-anchor="start" x="152.5" y="-24" font-family="Helvetica,sans-Serif" font-size="10.00">_Cpp/example/LBRClientTemplate</text>
<text text-anchor="middle" x="228" y="-13" font-family="Helvetica,sans-Serif" font-size="10.00">/MyLBRApp.cpp</text>
</a>
</g>
</g>
<!-- Node1&#45;&gt;Node3 -->
<g id="edge2" class="edge">
<title>Node1&#45;&gt;Node3</title>
<path fill="none" stroke="midnightblue" d="M623.01,-95.39C542.18,-87.5 422.72,-73.66 320,-53 311.55,-51.3 302.74,-49.24 294.06,-47.03"/>
<polygon fill="midnightblue" stroke="midnightblue" points="622.88,-98.89 633.17,-96.37 623.55,-91.93 622.88,-98.89"/>
</g>
<!-- Node4 -->
<g id="node4" class="node">
<title>Node4</title>
<g id="a_node4"><a xlink:href="_l_b_r_joint_sine_overlay_app_8cpp.html" target="_top" xlink:title=" ">
<polygon fill="white" stroke="black" points="329,-6 329,-47 505,-47 505,-6 329,-6"/>
<text text-anchor="start" x="337" y="-35" font-family="Helvetica,sans-Serif" font-size="10.00">build/FRI&#45;Client&#45;SDK</text>
<text text-anchor="start" x="337" y="-24" font-family="Helvetica,sans-Serif" font-size="10.00">_Cpp/example/LBRJointSineOverlay</text>
<text text-anchor="middle" x="417" y="-13" font-family="Helvetica,sans-Serif" font-size="10.00">/LBRJointSineOverlayApp.cpp</text>
</a>
</g>
</g>
<!-- Node1&#45;&gt;Node4 -->
<g id="edge3" class="edge">
<title>Node1&#45;&gt;Node4</title>
<path fill="none" stroke="midnightblue" d="M649.06,-86.99C609.35,-77.26 558.29,-64.62 513,-53 505.57,-51.09 497.82,-49.08 490.09,-47.05"/>
<polygon fill="midnightblue" stroke="midnightblue" points="648.35,-90.42 658.9,-89.39 650.02,-83.62 648.35,-90.42"/>
</g>
<!-- Node5 -->
<g id="node5" class="node">
<title>Node5</title>
<g id="a_node5"><a xlink:href="_l_b_r_torque_sine_overlay_app_8cpp.html" target="_top" xlink:title=" ">
<polygon fill="white" stroke="black" points="522.5,-6 522.5,-47 707.5,-47 707.5,-6 522.5,-6"/>
<text text-anchor="start" x="530.5" y="-35" font-family="Helvetica,sans-Serif" font-size="10.00">build/FRI&#45;Client&#45;SDK</text>
<text text-anchor="start" x="530.5" y="-24" font-family="Helvetica,sans-Serif" font-size="10.00">_Cpp/example/LBRTorqueSineOverlay</text>
<text text-anchor="middle" x="615" y="-13" font-family="Helvetica,sans-Serif" font-size="10.00">/LBRTorqueSineOverlayApp.cpp</text>
</a>
</g>
</g>
<!-- Node1&#45;&gt;Node5 -->
<g id="edge4" class="edge">
<title>Node1&#45;&gt;Node5</title>
<path fill="none" stroke="midnightblue" d="M689.47,-82.99C674.54,-71.86 656.17,-58.18 641.41,-47.18"/>
<polygon fill="midnightblue" stroke="midnightblue" points="687.7,-86.04 697.81,-89.2 691.89,-80.42 687.7,-86.04"/>
</g>
<!-- Node6 -->
<g id="node6" class="node">
<title>Node6</title>
<g id="a_node6"><a xlink:href="_l_b_r_wrench_sine_overlay_app_8cpp.html" target="_top" xlink:title=" ">
<polygon fill="white" stroke="black" points="726,-6 726,-47 914,-47 914,-6 726,-6"/>
<text text-anchor="start" x="734" y="-35" font-family="Helvetica,sans-Serif" font-size="10.00">build/FRI&#45;Client&#45;SDK</text>
<text text-anchor="start" x="734" y="-24" font-family="Helvetica,sans-Serif" font-size="10.00">_Cpp/example/LBRWrenchSineOverlay</text>
<text text-anchor="middle" x="820" y="-13" font-family="Helvetica,sans-Serif" font-size="10.00">/LBRWrenchSineOverlayApp.cpp</text>
</a>
</g>
</g>
<!-- Node1&#45;&gt;Node6 -->
<g id="edge5" class="edge">
<title>Node1&#45;&gt;Node6</title>
<path fill="none" stroke="midnightblue" d="M744.8,-82.99C759.88,-71.86 778.43,-58.18 793.33,-47.18"/>
<polygon fill="midnightblue" stroke="midnightblue" points="742.34,-80.45 736.37,-89.2 746.5,-86.08 742.34,-80.45"/>
</g>
<!-- Node7 -->
<g id="node7" class="node">
<title>Node7</title>
<g id="a_node7"><a xlink:href="_simulated_transformation_provider_app_8cpp.html" target="_top" xlink:title=" ">
<polygon fill="white" stroke="black" points="932,-0.5 932,-52.5 1132,-52.5 1132,-0.5 932,-0.5"/>
<text text-anchor="start" x="940" y="-40.5" font-family="Helvetica,sans-Serif" font-size="10.00">build/FRI&#45;Client&#45;SDK</text>
<text text-anchor="start" x="940" y="-29.5" font-family="Helvetica,sans-Serif" font-size="10.00">_Cpp/example/SimulatedTransformation</text>
<text text-anchor="start" x="940" y="-18.5" font-family="Helvetica,sans-Serif" font-size="10.00">Provider/SimulatedTransformationProvider</text>
<text text-anchor="middle" x="1032" y="-7.5" font-family="Helvetica,sans-Serif" font-size="10.00">App.cpp</text>
</a>
</g>
</g>
<!-- Node1&#45;&gt;Node7 -->
<g id="edge6" class="edge">
<title>Node1&#45;&gt;Node7</title>
<path fill="none" stroke="midnightblue" d="M784.9,-87.12C827.75,-76.78 883.86,-63.24 931.78,-51.68"/>
<polygon fill="midnightblue" stroke="midnightblue" points="784.04,-83.72 775.14,-89.47 785.68,-90.53 784.04,-83.72"/>
</g>
<!-- Node8 -->
<g id="node8" class="node">
<title>Node8</title>
<g id="a_node8"><a xlink:href="_transformation_provider_app_8cpp.html" target="_top" xlink:title=" ">
<polygon fill="white" stroke="black" points="1150.5,-6 1150.5,-47 1343.5,-47 1343.5,-6 1150.5,-6"/>
<text text-anchor="start" x="1158.5" y="-35" font-family="Helvetica,sans-Serif" font-size="10.00">build/FRI&#45;Client&#45;SDK</text>
<text text-anchor="start" x="1158.5" y="-24" font-family="Helvetica,sans-Serif" font-size="10.00">_Cpp/example/Transformation</text>
<text text-anchor="middle" x="1247" y="-13" font-family="Helvetica,sans-Serif" font-size="10.00">Provider/TransformationProviderApp.cpp</text>
</a>
</g>
</g>
<!-- Node1&#45;&gt;Node8 -->
<g id="edge7" class="edge">
<title>Node1&#45;&gt;Node8</title>
<path fill="none" stroke="midnightblue" d="M810.72,-95.53C896.95,-87.44 1028.17,-73.22 1141,-53 1150.59,-51.28 1160.62,-49.22 1170.51,-47.03"/>
<polygon fill="midnightblue" stroke="midnightblue" points="810.33,-92.05 800.7,-96.46 810.98,-99.02 810.33,-92.05"/>
</g>
<!-- Node9 -->
<g id="node9" class="node">
<title>Node9</title>
<g id="a_node9"><a xlink:href="fri_client_application_8cpp.html" target="_top" xlink:title=" ">
<polygon fill="white" stroke="black" points="1362,-11.5 1362,-41.5 1546,-41.5 1546,-11.5 1362,-11.5"/>
<text text-anchor="start" x="1370" y="-29.5" font-family="Helvetica,sans-Serif" font-size="10.00">build/FRI&#45;Client&#45;SDK</text>
<text text-anchor="middle" x="1454" y="-18.5" font-family="Helvetica,sans-Serif" font-size="10.00">_Cpp/src/base/friClientApplication.cpp</text>
</a>
</g>
</g>
<!-- Node1&#45;&gt;Node9 -->
<g id="edge8" class="edge">
<title>Node1&#45;&gt;Node9</title>
<path fill="none" stroke="midnightblue" d="M810.89,-100.97C935.51,-96.5 1162.05,-84.46 1353,-53 1370.22,-50.16 1388.81,-45.84 1405.29,-41.56"/>
<polygon fill="midnightblue" stroke="midnightblue" points="810.5,-97.48 800.63,-101.33 810.74,-104.48 810.5,-97.48"/>
</g>
</g>
</svg>
