<?xml version="1.0" encoding="UTF-8" standalone="no"?>
<!DOCTYPE svg PUBLIC "-//W3C//DTD SVG 1.1//EN"
 "http://www.w3.org/Graphics/SVG/1.1/DTD/svg11.dtd">
<!-- Generated by graphviz version 2.43.0 (0)
 -->
<!-- Title: build/FRI&#45;Client&#45;SDK_Cpp/src/protobuf/friCommandMessageEncoder.h Pages: 1 -->
<svg width="269pt" height="274pt"
 viewBox="0.00 0.00 269.00 274.00" xmlns="http://www.w3.org/2000/svg" xmlns:xlink="http://www.w3.org/1999/xlink">
<g id="graph0" class="graph" transform="scale(1 1) rotate(0) translate(4 270)">
<title>build/FRI&#45;Client&#45;SDK_Cpp/src/protobuf/friCommandMessageEncoder.h</title>
<polygon fill="white" stroke="transparent" points="-4,4 -4,-270 265,-270 265,4 -4,4"/>
<!-- Node1 -->
<g id="node1" class="node">
<title>Node1</title>
<g id="a_node1"><a xlink:title=" ">
<polygon fill="#bfbfbf" stroke="black" points="44,-224.5 44,-265.5 195,-265.5 195,-224.5 44,-224.5"/>
<text text-anchor="start" x="52" y="-253.5" font-family="Helvetica,sans-Serif" font-size="10.00">build/FRI&#45;Client&#45;SDK</text>
<text text-anchor="start" x="52" y="-242.5" font-family="Helvetica,sans-Serif" font-size="10.00">_Cpp/src/protobuf/friCommand</text>
<text text-anchor="middle" x="119.5" y="-231.5" font-family="Helvetica,sans-Serif" font-size="10.00">MessageEncoder.h</text>
</a>
</g>
</g>
<!-- Node2 -->
<g id="node2" class="node">
<title>Node2</title>
<g id="a_node2"><a xlink:href="_f_r_i_messages_8pb_8h.html" target="_top" xlink:title=" ">
<polygon fill="white" stroke="black" points="40.5,-112.5 40.5,-131.5 140.5,-131.5 140.5,-112.5 40.5,-112.5"/>
<text text-anchor="middle" x="90.5" y="-119.5" font-family="Helvetica,sans-Serif" font-size="10.00">FRIMessages.pb.h</text>
</a>
</g>
</g>
<!-- Node1&#45;&gt;Node2 -->
<g id="edge1" class="edge">
<title>Node1&#45;&gt;Node2</title>
<path fill="none" stroke="midnightblue" d="M105.82,-224.25C99.52,-213.94 92.72,-200.84 89.5,-188 85.68,-172.76 86.31,-154.87 87.68,-141.72"/>
<polygon fill="midnightblue" stroke="midnightblue" points="91.18,-141.94 88.98,-131.58 84.24,-141.05 91.18,-141.94"/>
</g>
<!-- Node8 -->
<g id="node8" class="node">
<title>Node8</title>
<g id="a_node8"><a xlink:href="pb__frimessages__callbacks_8h.html" target="_top" xlink:title=" ">
<polygon fill="white" stroke="black" points="98.5,-168.5 98.5,-187.5 238.5,-187.5 238.5,-168.5 98.5,-168.5"/>
<text text-anchor="middle" x="168.5" y="-175.5" font-family="Helvetica,sans-Serif" font-size="10.00">pb_frimessages_callbacks.h</text>
</a>
</g>
</g>
<!-- Node1&#45;&gt;Node8 -->
<g id="edge7" class="edge">
<title>Node1&#45;&gt;Node8</title>
<path fill="none" stroke="midnightblue" d="M134.2,-224.5C141.06,-215.39 149.15,-204.66 155.75,-195.91"/>
<polygon fill="midnightblue" stroke="midnightblue" points="158.75,-197.74 161.98,-187.65 153.16,-193.53 158.75,-197.74"/>
</g>
<!-- Node3 -->
<g id="node3" class="node">
<title>Node3</title>
<g id="a_node3"><a xlink:href="pb_8h.html" target="_top" xlink:title=" ">
<polygon fill="white" stroke="black" points="112,-56.5 112,-75.5 147,-75.5 147,-56.5 112,-56.5"/>
<text text-anchor="middle" x="129.5" y="-63.5" font-family="Helvetica,sans-Serif" font-size="10.00">pb.h</text>
</a>
</g>
</g>
<!-- Node2&#45;&gt;Node3 -->
<g id="edge2" class="edge">
<title>Node2&#45;&gt;Node3</title>
<path fill="none" stroke="midnightblue" d="M96.94,-112.08C102.45,-104.46 110.53,-93.26 117.26,-83.94"/>
<polygon fill="midnightblue" stroke="midnightblue" points="120.16,-85.91 123.18,-75.75 114.49,-81.81 120.16,-85.91"/>
</g>
<!-- Node4 -->
<g id="node4" class="node">
<title>Node4</title>
<g id="a_node4"><a xlink:title=" ">
<polygon fill="white" stroke="#bfbfbf" points="0,-0.5 0,-19.5 49,-19.5 49,-0.5 0,-0.5"/>
<text text-anchor="middle" x="24.5" y="-7.5" font-family="Helvetica,sans-Serif" font-size="10.00">stdint.h</text>
</a>
</g>
</g>
<!-- Node3&#45;&gt;Node4 -->
<g id="edge3" class="edge">
<title>Node3&#45;&gt;Node4</title>
<path fill="none" stroke="midnightblue" d="M112.63,-56.32C95.79,-47.66 69.69,-34.24 50.26,-24.25"/>
<polygon fill="midnightblue" stroke="midnightblue" points="51.82,-21.12 41.33,-19.65 48.62,-27.34 51.82,-21.12"/>
</g>
<!-- Node5 -->
<g id="node5" class="node">
<title>Node5</title>
<g id="a_node5"><a xlink:title=" ">
<polygon fill="white" stroke="#bfbfbf" points="67.5,-0.5 67.5,-19.5 119.5,-19.5 119.5,-0.5 67.5,-0.5"/>
<text text-anchor="middle" x="93.5" y="-7.5" font-family="Helvetica,sans-Serif" font-size="10.00">stddef.h</text>
</a>
</g>
</g>
<!-- Node3&#45;&gt;Node5 -->
<g id="edge4" class="edge">
<title>Node3&#45;&gt;Node5</title>
<path fill="none" stroke="midnightblue" d="M123.56,-56.08C118.52,-48.53 111.16,-37.49 104.99,-28.23"/>
<polygon fill="midnightblue" stroke="midnightblue" points="107.79,-26.13 99.33,-19.75 101.97,-30.01 107.79,-26.13"/>
</g>
<!-- Node6 -->
<g id="node6" class="node">
<title>Node6</title>
<g id="a_node6"><a xlink:title=" ">
<polygon fill="white" stroke="#bfbfbf" points="137.5,-0.5 137.5,-19.5 193.5,-19.5 193.5,-0.5 137.5,-0.5"/>
<text text-anchor="middle" x="165.5" y="-7.5" font-family="Helvetica,sans-Serif" font-size="10.00">stdbool.h</text>
</a>
</g>
</g>
<!-- Node3&#45;&gt;Node6 -->
<g id="edge5" class="edge">
<title>Node3&#45;&gt;Node6</title>
<path fill="none" stroke="midnightblue" d="M135.44,-56.08C140.48,-48.53 147.84,-37.49 154.01,-28.23"/>
<polygon fill="midnightblue" stroke="midnightblue" points="157.03,-30.01 159.67,-19.75 151.21,-26.13 157.03,-30.01"/>
</g>
<!-- Node7 -->
<g id="node7" class="node">
<title>Node7</title>
<g id="a_node7"><a xlink:title=" ">
<polygon fill="white" stroke="#bfbfbf" points="212,-0.5 212,-19.5 261,-19.5 261,-0.5 212,-0.5"/>
<text text-anchor="middle" x="236.5" y="-7.5" font-family="Helvetica,sans-Serif" font-size="10.00">string.h</text>
</a>
</g>
</g>
<!-- Node3&#45;&gt;Node7 -->
<g id="edge6" class="edge">
<title>Node3&#45;&gt;Node7</title>
<path fill="none" stroke="midnightblue" d="M146.69,-56.32C163.85,-47.66 190.45,-34.24 210.25,-24.25"/>
<polygon fill="midnightblue" stroke="midnightblue" points="212,-27.28 219.35,-19.65 208.85,-21.04 212,-27.28"/>
</g>
<!-- Node8&#45;&gt;Node2 -->
<g id="edge9" class="edge">
<title>Node8&#45;&gt;Node2</title>
<path fill="none" stroke="midnightblue" d="M155.97,-168.32C143.91,-159.98 125.47,-147.21 111.23,-137.35"/>
<polygon fill="midnightblue" stroke="midnightblue" points="113.22,-134.47 103,-131.65 109.23,-140.22 113.22,-134.47"/>
</g>
<!-- Node8&#45;&gt;Node3 -->
<g id="edge8" class="edge">
<title>Node8&#45;&gt;Node3</title>
<path fill="none" stroke="midnightblue" d="M166.4,-168.47C163.22,-155.93 156.78,-131.87 149.5,-112 146.19,-102.97 141.93,-93.19 138.19,-85.05"/>
<polygon fill="midnightblue" stroke="midnightblue" points="141.27,-83.38 133.84,-75.82 134.93,-86.36 141.27,-83.38"/>
</g>
</g>
</svg>
