<?xml version="1.0" encoding="UTF-8" standalone="no"?>
<!DOCTYPE svg PUBLIC "-//W3C//DTD SVG 1.1//EN"
 "http://www.w3.org/Graphics/SVG/1.1/DTD/svg11.dtd">
<!-- Generated by graphviz version 2.43.0 (0)
 -->
<!-- Title: build/FRI&#45;Client&#45;SDK_Cpp/include/friTransformationClient.h Pages: 1 -->
<svg width="995pt" height="228pt"
 viewBox="0.00 0.00 994.50 228.00" xmlns="http://www.w3.org/2000/svg" xmlns:xlink="http://www.w3.org/1999/xlink">
<g id="graph0" class="graph" transform="scale(1 1) rotate(0) translate(4 224)">
<title>build/FRI&#45;Client&#45;SDK_Cpp/include/friTransformationClient.h</title>
<polygon fill="white" stroke="transparent" points="-4,4 -4,-224 990.5,-224 990.5,4 -4,4"/>
<!-- Node1 -->
<g id="node1" class="node">
<title>Node1</title>
<g id="a_node1"><a xlink:title=" ">
<polygon fill="#bfbfbf" stroke="black" points="561,-178.5 561,-219.5 711,-219.5 711,-178.5 561,-178.5"/>
<text text-anchor="start" x="569" y="-207.5" font-family="Helvetica,sans-Serif" font-size="10.00">build/FRI&#45;Client&#45;SDK</text>
<text text-anchor="start" x="569" y="-196.5" font-family="Helvetica,sans-Serif" font-size="10.00">_Cpp/include/friTransformation</text>
<text text-anchor="middle" x="636" y="-185.5" font-family="Helvetica,sans-Serif" font-size="10.00">Client.h</text>
</a>
</g>
</g>
<!-- Node2 -->
<g id="node2" class="node">
<title>Node2</title>
<g id="a_node2"><a xlink:href="_simulated_transformation_provider_client_8h.html" target="_top" xlink:title=" ">
<polygon fill="white" stroke="black" points="218,-89.5 218,-141.5 418,-141.5 418,-89.5 218,-89.5"/>
<text text-anchor="start" x="226" y="-129.5" font-family="Helvetica,sans-Serif" font-size="10.00">build/FRI&#45;Client&#45;SDK</text>
<text text-anchor="start" x="226" y="-118.5" font-family="Helvetica,sans-Serif" font-size="10.00">_Cpp/example/SimulatedTransformation</text>
<text text-anchor="start" x="226" y="-107.5" font-family="Helvetica,sans-Serif" font-size="10.00">Provider/SimulatedTransformationProvider</text>
<text text-anchor="middle" x="318" y="-96.5" font-family="Helvetica,sans-Serif" font-size="10.00">Client.h</text>
</a>
</g>
</g>
<!-- Node1&#45;&gt;Node2 -->
<g id="edge1" class="edge">
<title>Node1&#45;&gt;Node2</title>
<path fill="none" stroke="midnightblue" d="M550.8,-176.17C509.18,-165.5 458.89,-152.61 415.72,-141.54"/>
<polygon fill="midnightblue" stroke="midnightblue" points="550.08,-179.59 560.64,-178.69 551.82,-172.81 550.08,-179.59"/>
</g>
<!-- Node5 -->
<g id="node5" class="node">
<title>Node5</title>
<g id="a_node5"><a xlink:href="_transformation_provider_client_8h.html" target="_top" xlink:title=" ">
<polygon fill="white" stroke="black" points="437.5,-95 437.5,-136 628.5,-136 628.5,-95 437.5,-95"/>
<text text-anchor="start" x="445.5" y="-124" font-family="Helvetica,sans-Serif" font-size="10.00">build/FRI&#45;Client&#45;SDK</text>
<text text-anchor="start" x="445.5" y="-113" font-family="Helvetica,sans-Serif" font-size="10.00">_Cpp/example/Transformation</text>
<text text-anchor="middle" x="533" y="-102" font-family="Helvetica,sans-Serif" font-size="10.00">Provider/TransformationProviderClient.h</text>
</a>
</g>
</g>
<!-- Node1&#45;&gt;Node5 -->
<g id="edge4" class="edge">
<title>Node1&#45;&gt;Node5</title>
<path fill="none" stroke="midnightblue" d="M603.42,-172.22C588.67,-160.55 571.51,-146.97 557.83,-136.14"/>
<polygon fill="midnightblue" stroke="midnightblue" points="601.32,-175.02 611.33,-178.48 605.66,-169.53 601.32,-175.02"/>
</g>
<!-- Node8 -->
<g id="node8" class="node">
<title>Node8</title>
<g id="a_node8"><a xlink:href="fri_client_application_8cpp.html" target="_top" xlink:title=" ">
<polygon fill="white" stroke="black" points="647,-100.5 647,-130.5 831,-130.5 831,-100.5 647,-100.5"/>
<text text-anchor="start" x="655" y="-118.5" font-family="Helvetica,sans-Serif" font-size="10.00">build/FRI&#45;Client&#45;SDK</text>
<text text-anchor="middle" x="739" y="-107.5" font-family="Helvetica,sans-Serif" font-size="10.00">_Cpp/src/base/friClientApplication.cpp</text>
</a>
</g>
</g>
<!-- Node1&#45;&gt;Node8 -->
<g id="edge7" class="edge">
<title>Node1&#45;&gt;Node8</title>
<path fill="none" stroke="midnightblue" d="M668.9,-171.97C686.29,-158.21 706.94,-141.87 721.3,-130.5"/>
<polygon fill="midnightblue" stroke="midnightblue" points="666.34,-169.53 660.67,-178.48 670.68,-175.02 666.34,-169.53"/>
</g>
<!-- Node9 -->
<g id="node9" class="node">
<title>Node9</title>
<g id="a_node9"><a xlink:href="fri_transformation_client_8cpp.html" target="_top" xlink:title=" ">
<polygon fill="white" stroke="black" points="849.5,-95 849.5,-136 986.5,-136 986.5,-95 849.5,-95"/>
<text text-anchor="start" x="857.5" y="-124" font-family="Helvetica,sans-Serif" font-size="10.00">build/FRI&#45;Client&#45;SDK</text>
<text text-anchor="start" x="857.5" y="-113" font-family="Helvetica,sans-Serif" font-size="10.00">_Cpp/src/client_trafo</text>
<text text-anchor="middle" x="918" y="-102" font-family="Helvetica,sans-Serif" font-size="10.00">/friTransformationClient.cpp</text>
</a>
</g>
</g>
<!-- Node1&#45;&gt;Node9 -->
<g id="edge8" class="edge">
<title>Node1&#45;&gt;Node9</title>
<path fill="none" stroke="midnightblue" d="M720.55,-175.77C757.36,-165.84 800.93,-153.74 840,-142 846.28,-140.11 852.82,-138.08 859.32,-136.02"/>
<polygon fill="midnightblue" stroke="midnightblue" points="719.6,-172.4 710.85,-178.38 721.42,-179.16 719.6,-172.4"/>
</g>
<!-- Node3 -->
<g id="node3" class="node">
<title>Node3</title>
<g id="a_node3"><a xlink:href="_simulated_transformation_provider_app_8cpp.html" target="_top" xlink:title=" ">
<polygon fill="white" stroke="black" points="0,-0.5 0,-52.5 200,-52.5 200,-0.5 0,-0.5"/>
<text text-anchor="start" x="8" y="-40.5" font-family="Helvetica,sans-Serif" font-size="10.00">build/FRI&#45;Client&#45;SDK</text>
<text text-anchor="start" x="8" y="-29.5" font-family="Helvetica,sans-Serif" font-size="10.00">_Cpp/example/SimulatedTransformation</text>
<text text-anchor="start" x="8" y="-18.5" font-family="Helvetica,sans-Serif" font-size="10.00">Provider/SimulatedTransformationProvider</text>
<text text-anchor="middle" x="100" y="-7.5" font-family="Helvetica,sans-Serif" font-size="10.00">App.cpp</text>
</a>
</g>
</g>
<!-- Node2&#45;&gt;Node3 -->
<g id="edge2" class="edge">
<title>Node2&#45;&gt;Node3</title>
<path fill="none" stroke="midnightblue" d="M245.88,-85.72C218.98,-74.98 188.68,-62.89 162.7,-52.52"/>
<polygon fill="midnightblue" stroke="midnightblue" points="244.65,-89 255.24,-89.45 247.25,-82.5 244.65,-89"/>
</g>
<!-- Node4 -->
<g id="node4" class="node">
<title>Node4</title>
<g id="a_node4"><a xlink:href="_simulated_transformation_provider_client_8cpp.html" target="_top" xlink:title=" ">
<polygon fill="white" stroke="black" points="218,-0.5 218,-52.5 418,-52.5 418,-0.5 218,-0.5"/>
<text text-anchor="start" x="226" y="-40.5" font-family="Helvetica,sans-Serif" font-size="10.00">build/FRI&#45;Client&#45;SDK</text>
<text text-anchor="start" x="226" y="-29.5" font-family="Helvetica,sans-Serif" font-size="10.00">_Cpp/example/SimulatedTransformation</text>
<text text-anchor="start" x="226" y="-18.5" font-family="Helvetica,sans-Serif" font-size="10.00">Provider/SimulatedTransformationProvider</text>
<text text-anchor="middle" x="318" y="-7.5" font-family="Helvetica,sans-Serif" font-size="10.00">Client.cpp</text>
</a>
</g>
</g>
<!-- Node2&#45;&gt;Node4 -->
<g id="edge3" class="edge">
<title>Node2&#45;&gt;Node4</title>
<path fill="none" stroke="midnightblue" d="M318,-79.19C318,-70.28 318,-60.9 318,-52.61"/>
<polygon fill="midnightblue" stroke="midnightblue" points="314.5,-79.34 318,-89.34 321.5,-79.34 314.5,-79.34"/>
</g>
<!-- Node6 -->
<g id="node6" class="node">
<title>Node6</title>
<g id="a_node6"><a xlink:href="_transformation_provider_app_8cpp.html" target="_top" xlink:title=" ">
<polygon fill="white" stroke="black" points="436.5,-6 436.5,-47 629.5,-47 629.5,-6 436.5,-6"/>
<text text-anchor="start" x="444.5" y="-35" font-family="Helvetica,sans-Serif" font-size="10.00">build/FRI&#45;Client&#45;SDK</text>
<text text-anchor="start" x="444.5" y="-24" font-family="Helvetica,sans-Serif" font-size="10.00">_Cpp/example/Transformation</text>
<text text-anchor="middle" x="533" y="-13" font-family="Helvetica,sans-Serif" font-size="10.00">Provider/TransformationProviderApp.cpp</text>
</a>
</g>
</g>
<!-- Node5&#45;&gt;Node6 -->
<g id="edge5" class="edge">
<title>Node5&#45;&gt;Node6</title>
<path fill="none" stroke="midnightblue" d="M533,-84.44C533,-72.1 533,-58.16 533,-47.16"/>
<polygon fill="midnightblue" stroke="midnightblue" points="529.5,-84.76 533,-94.76 536.5,-84.76 529.5,-84.76"/>
</g>
<!-- Node7 -->
<g id="node7" class="node">
<title>Node7</title>
<g id="a_node7"><a xlink:href="_transformation_provider_client_8cpp.html" target="_top" xlink:title=" ">
<polygon fill="white" stroke="black" points="647.5,-6 647.5,-47 848.5,-47 848.5,-6 647.5,-6"/>
<text text-anchor="start" x="655.5" y="-35" font-family="Helvetica,sans-Serif" font-size="10.00">build/FRI&#45;Client&#45;SDK</text>
<text text-anchor="start" x="655.5" y="-24" font-family="Helvetica,sans-Serif" font-size="10.00">_Cpp/example/Transformation</text>
<text text-anchor="middle" x="748" y="-13" font-family="Helvetica,sans-Serif" font-size="10.00">Provider/TransformationProviderClient.cpp</text>
</a>
</g>
</g>
<!-- Node5&#45;&gt;Node7 -->
<g id="edge6" class="edge">
<title>Node5&#45;&gt;Node7</title>
<path fill="none" stroke="midnightblue" d="M590.61,-91.19C624.64,-77.42 667.24,-60.18 699.54,-47.11"/>
<polygon fill="midnightblue" stroke="midnightblue" points="589.21,-87.98 581.25,-94.98 591.83,-94.47 589.21,-87.98"/>
</g>
</g>
</svg>
