<?xml version="1.0" encoding="UTF-8" standalone="no"?>
<!DOCTYPE svg PUBLIC "-//W3C//DTD SVG 1.1//EN"
 "http://www.w3.org/Graphics/SVG/1.1/DTD/svg11.dtd">
<!-- Generated by graphviz version 2.43.0 (0)
 -->
<!-- Title: build/FRI&#45;Client&#45;SDK_Cpp/src/protobuf/friMonitoringMessageDecoder.cpp Pages: 1 -->
<svg width="307pt" height="330pt"
 viewBox="0.00 0.00 306.50 330.00" xmlns="http://www.w3.org/2000/svg" xmlns:xlink="http://www.w3.org/1999/xlink">
<g id="graph0" class="graph" transform="scale(1 1) rotate(0) translate(4 326)">
<title>build/FRI&#45;Client&#45;SDK_Cpp/src/protobuf/friMonitoringMessageDecoder.cpp</title>
<polygon fill="white" stroke="transparent" points="-4,4 -4,-326 302.5,-326 302.5,4 -4,4"/>
<!-- Node1 -->
<g id="node1" class="node">
<title>Node1</title>
<g id="a_node1"><a xlink:title=" ">
<polygon fill="#bfbfbf" stroke="black" points="63,-280.5 63,-321.5 214,-321.5 214,-280.5 63,-280.5"/>
<text text-anchor="start" x="71" y="-309.5" font-family="Helvetica,sans-Serif" font-size="10.00">build/FRI&#45;Client&#45;SDK</text>
<text text-anchor="start" x="71" y="-298.5" font-family="Helvetica,sans-Serif" font-size="10.00">_Cpp/src/protobuf/friMonitoring</text>
<text text-anchor="middle" x="138.5" y="-287.5" font-family="Helvetica,sans-Serif" font-size="10.00">MessageDecoder.cpp</text>
</a>
</g>
</g>
<!-- Node2 -->
<g id="node2" class="node">
<title>Node2</title>
<g id="a_node2"><a xlink:title=" ">
<polygon fill="white" stroke="#bfbfbf" points="0,-224.5 0,-243.5 43,-243.5 43,-224.5 0,-224.5"/>
<text text-anchor="middle" x="21.5" y="-231.5" font-family="Helvetica,sans-Serif" font-size="10.00">cstdio</text>
</a>
</g>
</g>
<!-- Node1&#45;&gt;Node2 -->
<g id="edge1" class="edge">
<title>Node1&#45;&gt;Node2</title>
<path fill="none" stroke="midnightblue" d="M103.4,-280.5C84.94,-270.24 62.77,-257.93 46.15,-248.69"/>
<polygon fill="midnightblue" stroke="midnightblue" points="47.52,-245.45 37.07,-243.65 44.12,-251.57 47.52,-245.45"/>
</g>
<!-- Node3 -->
<g id="node3" class="node">
<title>Node3</title>
<g id="a_node3"><a xlink:href="fri_monitoring_message_decoder_8h.html" target="_top" xlink:title=" ">
<polygon fill="white" stroke="black" points="61.5,-224.5 61.5,-243.5 215.5,-243.5 215.5,-224.5 61.5,-224.5"/>
<text text-anchor="middle" x="138.5" y="-231.5" font-family="Helvetica,sans-Serif" font-size="10.00">friMonitoringMessageDecoder.h</text>
</a>
</g>
</g>
<!-- Node1&#45;&gt;Node3 -->
<g id="edge2" class="edge">
<title>Node1&#45;&gt;Node3</title>
<path fill="none" stroke="midnightblue" d="M138.5,-280.5C138.5,-272.07 138.5,-262.24 138.5,-253.87"/>
<polygon fill="midnightblue" stroke="midnightblue" points="142,-253.65 138.5,-243.65 135,-253.65 142,-253.65"/>
</g>
<!-- Node11 -->
<g id="node11" class="node">
<title>Node11</title>
<g id="a_node11"><a xlink:href="pb__decode_8h.html" target="_top" xlink:title=" ">
<polygon fill="white" stroke="black" points="226.5,-168.5 226.5,-187.5 298.5,-187.5 298.5,-168.5 226.5,-168.5"/>
<text text-anchor="middle" x="262.5" y="-175.5" font-family="Helvetica,sans-Serif" font-size="10.00">pb_decode.h</text>
</a>
</g>
</g>
<!-- Node1&#45;&gt;Node11 -->
<g id="edge12" class="edge">
<title>Node1&#45;&gt;Node11</title>
<path fill="none" stroke="midnightblue" d="M176.45,-280.49C192.55,-270.97 210.73,-258.45 224.5,-244 237.58,-230.28 248.03,-211.24 254.64,-197.32"/>
<polygon fill="midnightblue" stroke="midnightblue" points="258,-198.39 258.92,-187.84 251.62,-195.51 258,-198.39"/>
</g>
<!-- Node4 -->
<g id="node4" class="node">
<title>Node4</title>
<g id="a_node4"><a xlink:href="_f_r_i_messages_8pb_8h.html" target="_top" xlink:title=" ">
<polygon fill="white" stroke="black" points="31.5,-112.5 31.5,-131.5 131.5,-131.5 131.5,-112.5 31.5,-112.5"/>
<text text-anchor="middle" x="81.5" y="-119.5" font-family="Helvetica,sans-Serif" font-size="10.00">FRIMessages.pb.h</text>
</a>
</g>
</g>
<!-- Node3&#45;&gt;Node4 -->
<g id="edge3" class="edge">
<title>Node3&#45;&gt;Node4</title>
<path fill="none" stroke="midnightblue" d="M108.62,-224.39C90.96,-217.59 70.05,-206.15 59.5,-188 50.74,-172.94 59.17,-153.87 68.01,-140.29"/>
<polygon fill="midnightblue" stroke="midnightblue" points="71.04,-142.06 73.99,-131.88 65.34,-138.01 71.04,-142.06"/>
</g>
<!-- Node10 -->
<g id="node10" class="node">
<title>Node10</title>
<g id="a_node10"><a xlink:href="pb__frimessages__callbacks_8h.html" target="_top" xlink:title=" ">
<polygon fill="white" stroke="black" points="68.5,-168.5 68.5,-187.5 208.5,-187.5 208.5,-168.5 68.5,-168.5"/>
<text text-anchor="middle" x="138.5" y="-175.5" font-family="Helvetica,sans-Serif" font-size="10.00">pb_frimessages_callbacks.h</text>
</a>
</g>
</g>
<!-- Node3&#45;&gt;Node10 -->
<g id="edge9" class="edge">
<title>Node3&#45;&gt;Node10</title>
<path fill="none" stroke="midnightblue" d="M138.5,-224.08C138.5,-217.01 138.5,-206.86 138.5,-197.99"/>
<polygon fill="midnightblue" stroke="midnightblue" points="142,-197.75 138.5,-187.75 135,-197.75 142,-197.75"/>
</g>
<!-- Node5 -->
<g id="node5" class="node">
<title>Node5</title>
<g id="a_node5"><a xlink:href="pb_8h.html" target="_top" xlink:title=" ">
<polygon fill="white" stroke="black" points="142,-56.5 142,-75.5 177,-75.5 177,-56.5 142,-56.5"/>
<text text-anchor="middle" x="159.5" y="-63.5" font-family="Helvetica,sans-Serif" font-size="10.00">pb.h</text>
</a>
</g>
</g>
<!-- Node4&#45;&gt;Node5 -->
<g id="edge4" class="edge">
<title>Node4&#45;&gt;Node5</title>
<path fill="none" stroke="midnightblue" d="M94.03,-112.32C106.09,-103.98 124.53,-91.21 138.77,-81.35"/>
<polygon fill="midnightblue" stroke="midnightblue" points="140.77,-84.22 147,-75.65 136.78,-78.47 140.77,-84.22"/>
</g>
<!-- Node6 -->
<g id="node6" class="node">
<title>Node6</title>
<g id="a_node6"><a xlink:title=" ">
<polygon fill="white" stroke="#bfbfbf" points="30,-0.5 30,-19.5 79,-19.5 79,-0.5 30,-0.5"/>
<text text-anchor="middle" x="54.5" y="-7.5" font-family="Helvetica,sans-Serif" font-size="10.00">stdint.h</text>
</a>
</g>
</g>
<!-- Node5&#45;&gt;Node6 -->
<g id="edge5" class="edge">
<title>Node5&#45;&gt;Node6</title>
<path fill="none" stroke="midnightblue" d="M142.63,-56.32C125.79,-47.66 99.69,-34.24 80.26,-24.25"/>
<polygon fill="midnightblue" stroke="midnightblue" points="81.82,-21.12 71.33,-19.65 78.62,-27.34 81.82,-21.12"/>
</g>
<!-- Node7 -->
<g id="node7" class="node">
<title>Node7</title>
<g id="a_node7"><a xlink:title=" ">
<polygon fill="white" stroke="#bfbfbf" points="97.5,-0.5 97.5,-19.5 149.5,-19.5 149.5,-0.5 97.5,-0.5"/>
<text text-anchor="middle" x="123.5" y="-7.5" font-family="Helvetica,sans-Serif" font-size="10.00">stddef.h</text>
</a>
</g>
</g>
<!-- Node5&#45;&gt;Node7 -->
<g id="edge6" class="edge">
<title>Node5&#45;&gt;Node7</title>
<path fill="none" stroke="midnightblue" d="M153.56,-56.08C148.52,-48.53 141.16,-37.49 134.99,-28.23"/>
<polygon fill="midnightblue" stroke="midnightblue" points="137.79,-26.13 129.33,-19.75 131.97,-30.01 137.79,-26.13"/>
</g>
<!-- Node8 -->
<g id="node8" class="node">
<title>Node8</title>
<g id="a_node8"><a xlink:title=" ">
<polygon fill="white" stroke="#bfbfbf" points="167.5,-0.5 167.5,-19.5 223.5,-19.5 223.5,-0.5 167.5,-0.5"/>
<text text-anchor="middle" x="195.5" y="-7.5" font-family="Helvetica,sans-Serif" font-size="10.00">stdbool.h</text>
</a>
</g>
</g>
<!-- Node5&#45;&gt;Node8 -->
<g id="edge7" class="edge">
<title>Node5&#45;&gt;Node8</title>
<path fill="none" stroke="midnightblue" d="M165.44,-56.08C170.48,-48.53 177.84,-37.49 184.01,-28.23"/>
<polygon fill="midnightblue" stroke="midnightblue" points="187.03,-30.01 189.67,-19.75 181.21,-26.13 187.03,-30.01"/>
</g>
<!-- Node9 -->
<g id="node9" class="node">
<title>Node9</title>
<g id="a_node9"><a xlink:title=" ">
<polygon fill="white" stroke="#bfbfbf" points="242,-0.5 242,-19.5 291,-19.5 291,-0.5 242,-0.5"/>
<text text-anchor="middle" x="266.5" y="-7.5" font-family="Helvetica,sans-Serif" font-size="10.00">string.h</text>
</a>
</g>
</g>
<!-- Node5&#45;&gt;Node9 -->
<g id="edge8" class="edge">
<title>Node5&#45;&gt;Node9</title>
<path fill="none" stroke="midnightblue" d="M176.69,-56.32C193.85,-47.66 220.45,-34.24 240.25,-24.25"/>
<polygon fill="midnightblue" stroke="midnightblue" points="242,-27.28 249.35,-19.65 238.85,-21.04 242,-27.28"/>
</g>
<!-- Node10&#45;&gt;Node4 -->
<g id="edge11" class="edge">
<title>Node10&#45;&gt;Node4</title>
<path fill="none" stroke="midnightblue" d="M129.34,-168.32C121,-160.42 108.47,-148.55 98.32,-138.94"/>
<polygon fill="midnightblue" stroke="midnightblue" points="100.49,-136.17 90.82,-131.83 95.68,-141.25 100.49,-136.17"/>
</g>
<!-- Node10&#45;&gt;Node5 -->
<g id="edge10" class="edge">
<title>Node10&#45;&gt;Node5</title>
<path fill="none" stroke="midnightblue" d="M140.15,-168.37C143.54,-150.62 151.35,-109.67 155.95,-85.6"/>
<polygon fill="midnightblue" stroke="midnightblue" points="159.42,-86.07 157.86,-75.59 152.55,-84.76 159.42,-86.07"/>
</g>
<!-- Node11&#45;&gt;Node5 -->
<g id="edge13" class="edge">
<title>Node11&#45;&gt;Node5</title>
<path fill="none" stroke="midnightblue" d="M254.42,-168.37C237.19,-149.97 196.65,-106.67 174.53,-83.05"/>
<polygon fill="midnightblue" stroke="midnightblue" points="176.93,-80.5 167.54,-75.59 171.82,-85.28 176.93,-80.5"/>
</g>
</g>
</svg>
