<?xml version="1.0" encoding="UTF-8" standalone="no"?>
<!DOCTYPE svg PUBLIC "-//W3C//DTD SVG 1.1//EN"
 "http://www.w3.org/Graphics/SVG/1.1/DTD/svg11.dtd">
<!-- Generated by graphviz version 2.43.0 (0)
 -->
<!-- Title: build/FRI&#45;Client&#45;SDK_Cpp/include/friLBRCommand.h Pages: 1 -->
<svg width="2066pt" height="273pt"
 viewBox="0.00 0.00 2065.50 273.00" xmlns="http://www.w3.org/2000/svg" xmlns:xlink="http://www.w3.org/1999/xlink">
<g id="graph0" class="graph" transform="scale(1 1) rotate(0) translate(4 269)">
<title>build/FRI&#45;Client&#45;SDK_Cpp/include/friLBRCommand.h</title>
<polygon fill="white" stroke="transparent" points="-4,4 -4,-269 2061.5,-269 2061.5,4 -4,4"/>
<!-- Node1 -->
<g id="node1" class="node">
<title>Node1</title>
<g id="a_node1"><a xlink:title=" ">
<polygon fill="#bfbfbf" stroke="black" points="1059,-234.5 1059,-264.5 1217,-264.5 1217,-234.5 1059,-234.5"/>
<text text-anchor="start" x="1067" y="-252.5" font-family="Helvetica,sans-Serif" font-size="10.00">build/FRI&#45;Client&#45;SDK</text>
<text text-anchor="middle" x="1138" y="-241.5" font-family="Helvetica,sans-Serif" font-size="10.00">_Cpp/include/friLBRCommand.h</text>
</a>
</g>
</g>
<!-- Node2 -->
<g id="node2" class="node">
<title>Node2</title>
<g id="a_node2"><a xlink:href="_i_o_access_client_8cpp.html" target="_top" xlink:title=" ">
<polygon fill="white" stroke="black" points="0,-0.5 0,-41.5 126,-41.5 126,-0.5 0,-0.5"/>
<text text-anchor="start" x="8" y="-29.5" font-family="Helvetica,sans-Serif" font-size="10.00">build/FRI&#45;Client&#45;SDK</text>
<text text-anchor="start" x="8" y="-18.5" font-family="Helvetica,sans-Serif" font-size="10.00">_Cpp/example/IOAccess</text>
<text text-anchor="middle" x="63" y="-7.5" font-family="Helvetica,sans-Serif" font-size="10.00">/IOAccessClient.cpp</text>
</a>
</g>
</g>
<!-- Node1&#45;&gt;Node2 -->
<g id="edge1" class="edge">
<title>Node1&#45;&gt;Node2</title>
<path fill="none" stroke="midnightblue" d="M1048.77,-247.52C832.53,-243.66 287.11,-224.64 135,-131 101.2,-110.19 79.97,-66.9 69.91,-41.58"/>
<polygon fill="midnightblue" stroke="midnightblue" points="1048.75,-251.02 1058.81,-247.69 1048.87,-244.02 1048.75,-251.02"/>
</g>
<!-- Node3 -->
<g id="node3" class="node">
<title>Node3</title>
<g id="a_node3"><a xlink:href="fri_l_b_r_client_8h.html" target="_top" xlink:title=" ">
<polygon fill="white" stroke="black" points="1069,-167.5 1069,-197.5 1207,-197.5 1207,-167.5 1069,-167.5"/>
<text text-anchor="start" x="1077" y="-185.5" font-family="Helvetica,sans-Serif" font-size="10.00">build/FRI&#45;Client&#45;SDK</text>
<text text-anchor="middle" x="1138" y="-174.5" font-family="Helvetica,sans-Serif" font-size="10.00">_Cpp/include/friLBRClient.h</text>
</a>
</g>
</g>
<!-- Node1&#45;&gt;Node3 -->
<g id="edge2" class="edge">
<title>Node1&#45;&gt;Node3</title>
<path fill="none" stroke="midnightblue" d="M1138,-224.11C1138,-215.15 1138,-205.32 1138,-197.58"/>
<polygon fill="midnightblue" stroke="midnightblue" points="1134.5,-224.4 1138,-234.4 1141.5,-224.4 1134.5,-224.4"/>
</g>
<!-- Node21 -->
<g id="node21" class="node">
<title>Node21</title>
<g id="a_node21"><a xlink:href="fri_l_b_r_command_8cpp.html" target="_top" xlink:title=" ">
<polygon fill="white" stroke="black" points="1225.5,-167.5 1225.5,-197.5 1418.5,-197.5 1418.5,-167.5 1225.5,-167.5"/>
<text text-anchor="start" x="1233.5" y="-185.5" font-family="Helvetica,sans-Serif" font-size="10.00">build/FRI&#45;Client&#45;SDK</text>
<text text-anchor="middle" x="1322" y="-174.5" font-family="Helvetica,sans-Serif" font-size="10.00">_Cpp/src/client_lbr/friLBRCommand.cpp</text>
</a>
</g>
</g>
<!-- Node1&#45;&gt;Node21 -->
<g id="edge21" class="edge">
<title>Node1&#45;&gt;Node21</title>
<path fill="none" stroke="midnightblue" d="M1187.67,-230.96C1217.3,-220.48 1254.44,-207.37 1282.15,-197.58"/>
<polygon fill="midnightblue" stroke="midnightblue" points="1186.19,-227.76 1177.93,-234.4 1188.52,-234.37 1186.19,-227.76"/>
</g>
<!-- Node4 -->
<g id="node4" class="node">
<title>Node4</title>
<g id="a_node4"><a xlink:href="_i_o_access_client_8h.html" target="_top" xlink:title=" ">
<polygon fill="white" stroke="black" points="144,-84 144,-125 270,-125 270,-84 144,-84"/>
<text text-anchor="start" x="152" y="-113" font-family="Helvetica,sans-Serif" font-size="10.00">build/FRI&#45;Client&#45;SDK</text>
<text text-anchor="start" x="152" y="-102" font-family="Helvetica,sans-Serif" font-size="10.00">_Cpp/example/IOAccess</text>
<text text-anchor="middle" x="207" y="-91" font-family="Helvetica,sans-Serif" font-size="10.00">/IOAccessClient.h</text>
</a>
</g>
</g>
<!-- Node3&#45;&gt;Node4 -->
<g id="edge3" class="edge">
<title>Node3&#45;&gt;Node4</title>
<path fill="none" stroke="midnightblue" d="M1058.24,-176.15C932.05,-167.54 678.61,-149.68 464,-131 397.78,-125.23 322.07,-117.6 270.07,-112.19"/>
<polygon fill="midnightblue" stroke="midnightblue" points="1058.37,-179.67 1068.58,-176.85 1058.84,-172.68 1058.37,-179.67"/>
</g>
<!-- Node6 -->
<g id="node6" class="node">
<title>Node6</title>
<g id="a_node6"><a xlink:href="_my_l_b_r_client_8h.html" target="_top" xlink:title=" ">
<polygon fill="white" stroke="black" points="473.5,-84 473.5,-125 640.5,-125 640.5,-84 473.5,-84"/>
<text text-anchor="start" x="481.5" y="-113" font-family="Helvetica,sans-Serif" font-size="10.00">build/FRI&#45;Client&#45;SDK</text>
<text text-anchor="start" x="481.5" y="-102" font-family="Helvetica,sans-Serif" font-size="10.00">_Cpp/example/LBRClientTemplate</text>
<text text-anchor="middle" x="557" y="-91" font-family="Helvetica,sans-Serif" font-size="10.00">/MyLBRClient.h</text>
</a>
</g>
</g>
<!-- Node3&#45;&gt;Node6 -->
<g id="edge6" class="edge">
<title>Node3&#45;&gt;Node6</title>
<path fill="none" stroke="midnightblue" d="M1058.79,-171.14C949.3,-156.82 752.59,-131.08 640.75,-116.46"/>
<polygon fill="midnightblue" stroke="midnightblue" points="1058.41,-174.62 1068.78,-172.45 1059.32,-167.68 1058.41,-174.62"/>
</g>
<!-- Node9 -->
<g id="node9" class="node">
<title>Node9</title>
<g id="a_node9"><a xlink:href="_l_b_r_joint_sine_overlay_client_8h.html" target="_top" xlink:title=" ">
<polygon fill="white" stroke="black" points="852,-84 852,-125 1028,-125 1028,-84 852,-84"/>
<text text-anchor="start" x="860" y="-113" font-family="Helvetica,sans-Serif" font-size="10.00">build/FRI&#45;Client&#45;SDK</text>
<text text-anchor="start" x="860" y="-102" font-family="Helvetica,sans-Serif" font-size="10.00">_Cpp/example/LBRJointSineOverlay</text>
<text text-anchor="middle" x="940" y="-91" font-family="Helvetica,sans-Serif" font-size="10.00">/LBRJointSineOverlayClient.h</text>
</a>
</g>
</g>
<!-- Node3&#45;&gt;Node9 -->
<g id="edge9" class="edge">
<title>Node3&#45;&gt;Node9</title>
<path fill="none" stroke="midnightblue" d="M1091.78,-163.76C1061.62,-152.18 1022.23,-137.06 991.14,-125.13"/>
<polygon fill="midnightblue" stroke="midnightblue" points="1090.63,-167.07 1101.22,-167.38 1093.14,-160.53 1090.63,-167.07"/>
</g>
<!-- Node12 -->
<g id="node12" class="node">
<title>Node12</title>
<g id="a_node12"><a xlink:href="_l_b_r_torque_sine_overlay_client_8h.html" target="_top" xlink:title=" ">
<polygon fill="white" stroke="black" points="1045.5,-84 1045.5,-125 1230.5,-125 1230.5,-84 1045.5,-84"/>
<text text-anchor="start" x="1053.5" y="-113" font-family="Helvetica,sans-Serif" font-size="10.00">build/FRI&#45;Client&#45;SDK</text>
<text text-anchor="start" x="1053.5" y="-102" font-family="Helvetica,sans-Serif" font-size="10.00">_Cpp/example/LBRTorqueSineOverlay</text>
<text text-anchor="middle" x="1138" y="-91" font-family="Helvetica,sans-Serif" font-size="10.00">/LBRTorqueSineOverlayClient.h</text>
</a>
</g>
</g>
<!-- Node3&#45;&gt;Node12 -->
<g id="edge12" class="edge">
<title>Node3&#45;&gt;Node12</title>
<path fill="none" stroke="midnightblue" d="M1138,-157.16C1138,-146.83 1138,-134.94 1138,-125.18"/>
<polygon fill="midnightblue" stroke="midnightblue" points="1134.5,-157.2 1138,-167.2 1141.5,-157.21 1134.5,-157.2"/>
</g>
<!-- Node15 -->
<g id="node15" class="node">
<title>Node15</title>
<g id="a_node15"><a xlink:href="_l_b_r_wrench_sine_overlay_client_8h.html" target="_top" xlink:title=" ">
<polygon fill="white" stroke="black" points="1249,-84 1249,-125 1437,-125 1437,-84 1249,-84"/>
<text text-anchor="start" x="1257" y="-113" font-family="Helvetica,sans-Serif" font-size="10.00">build/FRI&#45;Client&#45;SDK</text>
<text text-anchor="start" x="1257" y="-102" font-family="Helvetica,sans-Serif" font-size="10.00">_Cpp/example/LBRWrenchSineOverlay</text>
<text text-anchor="middle" x="1343" y="-91" font-family="Helvetica,sans-Serif" font-size="10.00">/LBRWrenchSineOverlayClient.h</text>
</a>
</g>
</g>
<!-- Node3&#45;&gt;Node15 -->
<g id="edge15" class="edge">
<title>Node3&#45;&gt;Node15</title>
<path fill="none" stroke="midnightblue" d="M1185.86,-163.76C1217.08,-152.18 1257.86,-137.06 1290.06,-125.13"/>
<polygon fill="midnightblue" stroke="midnightblue" points="1184.24,-160.63 1176.08,-167.38 1186.67,-167.19 1184.24,-160.63"/>
</g>
<!-- Node18 -->
<g id="node18" class="node">
<title>Node18</title>
<g id="a_node18"><a xlink:href="_simulated_transformation_provider_app_8cpp.html" target="_top" xlink:title=" ">
<polygon fill="white" stroke="black" points="1455,-78.5 1455,-130.5 1655,-130.5 1655,-78.5 1455,-78.5"/>
<text text-anchor="start" x="1463" y="-118.5" font-family="Helvetica,sans-Serif" font-size="10.00">build/FRI&#45;Client&#45;SDK</text>
<text text-anchor="start" x="1463" y="-107.5" font-family="Helvetica,sans-Serif" font-size="10.00">_Cpp/example/SimulatedTransformation</text>
<text text-anchor="start" x="1463" y="-96.5" font-family="Helvetica,sans-Serif" font-size="10.00">Provider/SimulatedTransformationProvider</text>
<text text-anchor="middle" x="1555" y="-85.5" font-family="Helvetica,sans-Serif" font-size="10.00">App.cpp</text>
</a>
</g>
</g>
<!-- Node3&#45;&gt;Node18 -->
<g id="edge18" class="edge">
<title>Node3&#45;&gt;Node18</title>
<path fill="none" stroke="midnightblue" d="M1217.44,-166.79C1319.71,-149.6 1347.62,-150.18 1446,-131 1448.96,-130.42 1451.95,-129.82 1454.98,-129.2"/>
<polygon fill="midnightblue" stroke="midnightblue" points="1216.58,-163.39 1207.3,-168.51 1217.75,-170.29 1216.58,-163.39"/>
</g>
<!-- Node19 -->
<g id="node19" class="node">
<title>Node19</title>
<g id="a_node19"><a xlink:href="_transformation_provider_app_8cpp.html" target="_top" xlink:title=" ">
<polygon fill="white" stroke="black" points="1673.5,-84 1673.5,-125 1866.5,-125 1866.5,-84 1673.5,-84"/>
<text text-anchor="start" x="1681.5" y="-113" font-family="Helvetica,sans-Serif" font-size="10.00">build/FRI&#45;Client&#45;SDK</text>
<text text-anchor="start" x="1681.5" y="-102" font-family="Helvetica,sans-Serif" font-size="10.00">_Cpp/example/Transformation</text>
<text text-anchor="middle" x="1770" y="-91" font-family="Helvetica,sans-Serif" font-size="10.00">Provider/TransformationProviderApp.cpp</text>
</a>
</g>
</g>
<!-- Node3&#45;&gt;Node19 -->
<g id="edge19" class="edge">
<title>Node3&#45;&gt;Node19</title>
<path fill="none" stroke="midnightblue" d="M1217.43,-166.91C1415.81,-141.42 1470.01,-161.93 1664,-131 1674.19,-129.38 1684.84,-127.29 1695.3,-125.01"/>
<polygon fill="midnightblue" stroke="midnightblue" points="1216.72,-163.47 1207.26,-168.24 1217.63,-170.41 1216.72,-163.47"/>
</g>
<!-- Node20 -->
<g id="node20" class="node">
<title>Node20</title>
<g id="a_node20"><a xlink:href="fri_l_b_r_client_8cpp.html" target="_top" xlink:title=" ">
<polygon fill="white" stroke="black" points="1884.5,-89.5 1884.5,-119.5 2057.5,-119.5 2057.5,-89.5 1884.5,-89.5"/>
<text text-anchor="start" x="1892.5" y="-107.5" font-family="Helvetica,sans-Serif" font-size="10.00">build/FRI&#45;Client&#45;SDK</text>
<text text-anchor="middle" x="1971" y="-96.5" font-family="Helvetica,sans-Serif" font-size="10.00">_Cpp/src/client_lbr/friLBRClient.cpp</text>
</a>
</g>
</g>
<!-- Node3&#45;&gt;Node20 -->
<g id="edge20" class="edge">
<title>Node3&#45;&gt;Node20</title>
<path fill="none" stroke="midnightblue" d="M1217.29,-166.96C1509.47,-133.09 1589.16,-176.81 1876,-131 1892.69,-128.33 1910.68,-123.92 1926.47,-119.5"/>
<polygon fill="midnightblue" stroke="midnightblue" points="1216.77,-163.5 1207.25,-168.15 1217.59,-170.45 1216.77,-163.5"/>
</g>
<!-- Node4&#45;&gt;Node2 -->
<g id="edge5" class="edge">
<title>Node4&#45;&gt;Node2</title>
<path fill="none" stroke="midnightblue" d="M163.73,-79.01C142.61,-67.06 117.55,-52.87 97.71,-41.64"/>
<polygon fill="midnightblue" stroke="midnightblue" points="162.08,-82.1 172.51,-83.98 165.53,-76.01 162.08,-82.1"/>
</g>
<!-- Node5 -->
<g id="node5" class="node">
<title>Node5</title>
<g id="a_node5"><a xlink:href="_i_o_access_app_8cpp.html" target="_top" xlink:title=" ">
<polygon fill="white" stroke="black" points="144,-0.5 144,-41.5 270,-41.5 270,-0.5 144,-0.5"/>
<text text-anchor="start" x="152" y="-29.5" font-family="Helvetica,sans-Serif" font-size="10.00">build/FRI&#45;Client&#45;SDK</text>
<text text-anchor="start" x="152" y="-18.5" font-family="Helvetica,sans-Serif" font-size="10.00">_Cpp/example/IOAccess</text>
<text text-anchor="middle" x="207" y="-7.5" font-family="Helvetica,sans-Serif" font-size="10.00">/IOAccessApp.cpp</text>
</a>
</g>
</g>
<!-- Node4&#45;&gt;Node5 -->
<g id="edge4" class="edge">
<title>Node4&#45;&gt;Node5</title>
<path fill="none" stroke="midnightblue" d="M207,-73.56C207,-62.88 207,-51.13 207,-41.55"/>
<polygon fill="midnightblue" stroke="midnightblue" points="203.5,-73.77 207,-83.77 210.5,-73.77 203.5,-73.77"/>
</g>
<!-- Node7 -->
<g id="node7" class="node">
<title>Node7</title>
<g id="a_node7"><a xlink:href="_my_l_b_r_app_8cpp.html" target="_top" xlink:title=" ">
<polygon fill="white" stroke="black" points="288.5,-0.5 288.5,-41.5 455.5,-41.5 455.5,-0.5 288.5,-0.5"/>
<text text-anchor="start" x="296.5" y="-29.5" font-family="Helvetica,sans-Serif" font-size="10.00">build/FRI&#45;Client&#45;SDK</text>
<text text-anchor="start" x="296.5" y="-18.5" font-family="Helvetica,sans-Serif" font-size="10.00">_Cpp/example/LBRClientTemplate</text>
<text text-anchor="middle" x="372" y="-7.5" font-family="Helvetica,sans-Serif" font-size="10.00">/MyLBRApp.cpp</text>
</a>
</g>
</g>
<!-- Node6&#45;&gt;Node7 -->
<g id="edge7" class="edge">
<title>Node6&#45;&gt;Node7</title>
<path fill="none" stroke="midnightblue" d="M503.18,-79.79C475.58,-67.63 442.37,-53 416.27,-41.5"/>
<polygon fill="midnightblue" stroke="midnightblue" points="502.13,-83.15 512.69,-83.98 504.95,-76.74 502.13,-83.15"/>
</g>
<!-- Node8 -->
<g id="node8" class="node">
<title>Node8</title>
<g id="a_node8"><a xlink:href="_my_l_b_r_client_8cpp.html" target="_top" xlink:title=" ">
<polygon fill="white" stroke="black" points="473.5,-0.5 473.5,-41.5 640.5,-41.5 640.5,-0.5 473.5,-0.5"/>
<text text-anchor="start" x="481.5" y="-29.5" font-family="Helvetica,sans-Serif" font-size="10.00">build/FRI&#45;Client&#45;SDK</text>
<text text-anchor="start" x="481.5" y="-18.5" font-family="Helvetica,sans-Serif" font-size="10.00">_Cpp/example/LBRClientTemplate</text>
<text text-anchor="middle" x="557" y="-7.5" font-family="Helvetica,sans-Serif" font-size="10.00">/MyLBRClient.cpp</text>
</a>
</g>
</g>
<!-- Node6&#45;&gt;Node8 -->
<g id="edge8" class="edge">
<title>Node6&#45;&gt;Node8</title>
<path fill="none" stroke="midnightblue" d="M557,-73.56C557,-62.88 557,-51.13 557,-41.55"/>
<polygon fill="midnightblue" stroke="midnightblue" points="553.5,-73.77 557,-83.77 560.5,-73.77 553.5,-73.77"/>
</g>
<!-- Node10 -->
<g id="node10" class="node">
<title>Node10</title>
<g id="a_node10"><a xlink:href="_l_b_r_joint_sine_overlay_app_8cpp.html" target="_top" xlink:title=" ">
<polygon fill="white" stroke="black" points="658,-0.5 658,-41.5 834,-41.5 834,-0.5 658,-0.5"/>
<text text-anchor="start" x="666" y="-29.5" font-family="Helvetica,sans-Serif" font-size="10.00">build/FRI&#45;Client&#45;SDK</text>
<text text-anchor="start" x="666" y="-18.5" font-family="Helvetica,sans-Serif" font-size="10.00">_Cpp/example/LBRJointSineOverlay</text>
<text text-anchor="middle" x="746" y="-7.5" font-family="Helvetica,sans-Serif" font-size="10.00">/LBRJointSineOverlayApp.cpp</text>
</a>
</g>
</g>
<!-- Node9&#45;&gt;Node10 -->
<g id="edge10" class="edge">
<title>Node9&#45;&gt;Node10</title>
<path fill="none" stroke="midnightblue" d="M883.94,-79.95C854.92,-67.76 819.91,-53.05 792.42,-41.5"/>
<polygon fill="midnightblue" stroke="midnightblue" points="882.96,-83.33 893.53,-83.98 885.67,-76.88 882.96,-83.33"/>
</g>
<!-- Node11 -->
<g id="node11" class="node">
<title>Node11</title>
<g id="a_node11"><a xlink:href="_l_b_r_joint_sine_overlay_client_8cpp.html" target="_top" xlink:title=" ">
<polygon fill="white" stroke="black" points="852,-0.5 852,-41.5 1028,-41.5 1028,-0.5 852,-0.5"/>
<text text-anchor="start" x="860" y="-29.5" font-family="Helvetica,sans-Serif" font-size="10.00">build/FRI&#45;Client&#45;SDK</text>
<text text-anchor="start" x="860" y="-18.5" font-family="Helvetica,sans-Serif" font-size="10.00">_Cpp/example/LBRJointSineOverlay</text>
<text text-anchor="middle" x="940" y="-7.5" font-family="Helvetica,sans-Serif" font-size="10.00">/LBRJointSineOverlayClient.cpp</text>
</a>
</g>
</g>
<!-- Node9&#45;&gt;Node11 -->
<g id="edge11" class="edge">
<title>Node9&#45;&gt;Node11</title>
<path fill="none" stroke="midnightblue" d="M940,-73.56C940,-62.88 940,-51.13 940,-41.55"/>
<polygon fill="midnightblue" stroke="midnightblue" points="936.5,-73.77 940,-83.77 943.5,-73.77 936.5,-73.77"/>
</g>
<!-- Node13 -->
<g id="node13" class="node">
<title>Node13</title>
<g id="a_node13"><a xlink:href="_l_b_r_torque_sine_overlay_app_8cpp.html" target="_top" xlink:title=" ">
<polygon fill="white" stroke="black" points="1045.5,-0.5 1045.5,-41.5 1230.5,-41.5 1230.5,-0.5 1045.5,-0.5"/>
<text text-anchor="start" x="1053.5" y="-29.5" font-family="Helvetica,sans-Serif" font-size="10.00">build/FRI&#45;Client&#45;SDK</text>
<text text-anchor="start" x="1053.5" y="-18.5" font-family="Helvetica,sans-Serif" font-size="10.00">_Cpp/example/LBRTorqueSineOverlay</text>
<text text-anchor="middle" x="1138" y="-7.5" font-family="Helvetica,sans-Serif" font-size="10.00">/LBRTorqueSineOverlayApp.cpp</text>
</a>
</g>
</g>
<!-- Node12&#45;&gt;Node13 -->
<g id="edge13" class="edge">
<title>Node12&#45;&gt;Node13</title>
<path fill="none" stroke="midnightblue" d="M1138,-73.56C1138,-62.88 1138,-51.13 1138,-41.55"/>
<polygon fill="midnightblue" stroke="midnightblue" points="1134.5,-73.77 1138,-83.77 1141.5,-73.77 1134.5,-73.77"/>
</g>
<!-- Node14 -->
<g id="node14" class="node">
<title>Node14</title>
<g id="a_node14"><a xlink:href="_l_b_r_torque_sine_overlay_client_8cpp.html" target="_top" xlink:title=" ">
<polygon fill="white" stroke="black" points="1248.5,-0.5 1248.5,-41.5 1433.5,-41.5 1433.5,-0.5 1248.5,-0.5"/>
<text text-anchor="start" x="1256.5" y="-29.5" font-family="Helvetica,sans-Serif" font-size="10.00">build/FRI&#45;Client&#45;SDK</text>
<text text-anchor="start" x="1256.5" y="-18.5" font-family="Helvetica,sans-Serif" font-size="10.00">_Cpp/example/LBRTorqueSineOverlay</text>
<text text-anchor="middle" x="1341" y="-7.5" font-family="Helvetica,sans-Serif" font-size="10.00">/LBRTorqueSineOverlayClient.cpp</text>
</a>
</g>
</g>
<!-- Node12&#45;&gt;Node14 -->
<g id="edge14" class="edge">
<title>Node12&#45;&gt;Node14</title>
<path fill="none" stroke="midnightblue" d="M1196.27,-80.11C1226.71,-67.89 1263.54,-53.1 1292.42,-41.5"/>
<polygon fill="midnightblue" stroke="midnightblue" points="1194.6,-77 1186.62,-83.98 1197.21,-83.5 1194.6,-77"/>
</g>
<!-- Node16 -->
<g id="node16" class="node">
<title>Node16</title>
<g id="a_node16"><a xlink:href="_l_b_r_wrench_sine_overlay_app_8cpp.html" target="_top" xlink:title=" ">
<polygon fill="white" stroke="black" points="1452,-0.5 1452,-41.5 1640,-41.5 1640,-0.5 1452,-0.5"/>
<text text-anchor="start" x="1460" y="-29.5" font-family="Helvetica,sans-Serif" font-size="10.00">build/FRI&#45;Client&#45;SDK</text>
<text text-anchor="start" x="1460" y="-18.5" font-family="Helvetica,sans-Serif" font-size="10.00">_Cpp/example/LBRWrenchSineOverlay</text>
<text text-anchor="middle" x="1546" y="-7.5" font-family="Helvetica,sans-Serif" font-size="10.00">/LBRWrenchSineOverlayApp.cpp</text>
</a>
</g>
</g>
<!-- Node15&#45;&gt;Node16 -->
<g id="edge16" class="edge">
<title>Node15&#45;&gt;Node16</title>
<path fill="none" stroke="midnightblue" d="M1401.27,-80.11C1431.71,-67.89 1468.54,-53.1 1497.42,-41.5"/>
<polygon fill="midnightblue" stroke="midnightblue" points="1399.6,-77 1391.62,-83.98 1402.21,-83.5 1399.6,-77"/>
</g>
<!-- Node17 -->
<g id="node17" class="node">
<title>Node17</title>
<g id="a_node17"><a xlink:href="_l_b_r_wrench_sine_overlay_client_8cpp.html" target="_top" xlink:title=" ">
<polygon fill="white" stroke="black" points="1658,-0.5 1658,-41.5 1846,-41.5 1846,-0.5 1658,-0.5"/>
<text text-anchor="start" x="1666" y="-29.5" font-family="Helvetica,sans-Serif" font-size="10.00">build/FRI&#45;Client&#45;SDK</text>
<text text-anchor="start" x="1666" y="-18.5" font-family="Helvetica,sans-Serif" font-size="10.00">_Cpp/example/LBRWrenchSineOverlay</text>
<text text-anchor="middle" x="1752" y="-7.5" font-family="Helvetica,sans-Serif" font-size="10.00">/LBRWrenchSineOverlayClient.cpp</text>
</a>
</g>
</g>
<!-- Node15&#45;&gt;Node17 -->
<g id="edge17" class="edge">
<title>Node15&#45;&gt;Node17</title>
<path fill="none" stroke="midnightblue" d="M1429.45,-81.65C1435.04,-80.38 1440.59,-79.15 1446,-78 1535.63,-58.98 1558.91,-58.73 1649,-42 1651.96,-41.45 1654.96,-40.89 1657.99,-40.32"/>
<polygon fill="midnightblue" stroke="midnightblue" points="1428.32,-78.32 1419.36,-83.99 1429.9,-85.14 1428.32,-78.32"/>
</g>
</g>
</svg>
