<?xml version="1.0" encoding="UTF-8" standalone="no"?>
<!DOCTYPE svg PUBLIC "-//W3C//DTD SVG 1.1//EN"
 "http://www.w3.org/Graphics/SVG/1.1/DTD/svg11.dtd">
<!-- Generated by graphviz version 2.43.0 (0)
 -->
<!-- Title: build/FRI&#45;Client&#45;SDK_Cpp/src/client_lbr/friLBRCommand.cpp Pages: 1 -->
<!--zoomable 375 -->
<svg id="main" version="1.1" xmlns="http://www.w3.org/2000/svg" xmlns:xlink="http://www.w3.org/1999/xlink" xml:space="preserve" onload="init(evt)">
<style type="text/css"><![CDATA[
.edge:hover path { stroke: red; }
.edge:hover polygon { stroke: red; fill: red; }
]]></style>
<script type="text/javascript"><![CDATA[
var edges = document.getElementsByTagName('g');
if (edges && edges.length) {
  for (var i=0;i<edges.length;i++) {
    if (edges[i].id.substr(0,4)=='edge') {
      edges[i].setAttribute('class','edge');
    }
  }
}
]]></script>
        <defs>
                <circle id="rim" cx="0" cy="0" r="7"/>
                <circle id="rim2" cx="0" cy="0" r="3.5"/>
                <g id="zoomPlus">
                        <use xlink:href="#rim" fill="#404040">
                                <set attributeName="fill" to="#808080" begin="zoomplus.mouseover" end="zoomplus.mouseout"/>
                        </use>
                        <path d="M-4,0h8M0,-4v8" fill="none" stroke="white" stroke-width="1.5" pointer-events="none"/>
                </g>
                <g id="zoomMin">
                        <use xlink:href="#rim" fill="#404040">
                                <set attributeName="fill" to="#808080" begin="zoomminus.mouseover" end="zoomminus.mouseout"/>
                        </use>
                        <path d="M-4,0h8" fill="none" stroke="white" stroke-width="1.5" pointer-events="none"/>
                </g>
                <g id="dirArrow">
                        <path fill="none" stroke="white" stroke-width="1.5" d="M0,-3.0v7 M-2.5,-0.5L0,-3.0L2.5,-0.5"/>
                </g>
               <g id="resetDef">
                       <use xlink:href="#rim2" fill="#404040">
                               <set attributeName="fill" to="#808080" begin="reset.mouseover" end="reset.mouseout"/>
                       </use>
               </g>
        </defs>

<script type="text/javascript">
var viewWidth = 767;
var viewHeight = 375;
var sectionId = 'dynsection-0';
</script>
<script xlink:href="svgpan.js"/>
<svg id="graph" class="graph">
<g id="viewport">
<title>build/FRI&#45;Client&#45;SDK_Cpp/src/client_lbr/friLBRCommand.cpp</title>
<polygon fill="white" stroke="transparent" points="-4,4 -4,-371 762.5,-371 762.5,4 -4,4"/>
<!-- Node1 -->
<g id="node1" class="node">
<title>Node1</title>
<g id="a_node1"><a xlink:title=" ">
<polygon fill="#bfbfbf" stroke="black" points="339,-336.5 339,-366.5 532,-366.5 532,-336.5 339,-336.5"/>
<text text-anchor="start" x="347" y="-354.5" font-family="Helvetica,sans-Serif" font-size="10.00">build/FRI&#45;Client&#45;SDK</text>
<text text-anchor="middle" x="435.5" y="-343.5" font-family="Helvetica,sans-Serif" font-size="10.00">_Cpp/src/client_lbr/friLBRCommand.cpp</text>
</a>
</g>
</g>
<!-- Node2 -->
<g id="node2" class="node">
<title>Node2</title>
<g id="a_node2"><a xlink:href="fri_l_b_r_state_8h.html" target="_top" xlink:title=" ">
<polygon fill="white" stroke="black" points="49.5,-280.5 49.5,-299.5 125.5,-299.5 125.5,-280.5 49.5,-280.5"/>
<text text-anchor="middle" x="87.5" y="-287.5" font-family="Helvetica,sans-Serif" font-size="10.00">friLBRState.h</text>
</a>
</g>
</g>
<!-- Node1&#45;&gt;Node2 -->
<g id="edge1" class="edge">
<title>Node1&#45;&gt;Node2</title>
<path fill="none" stroke="midnightblue" d="M353.47,-336.47C285.75,-324.9 191.94,-308.86 135.73,-299.25"/>
<polygon fill="midnightblue" stroke="midnightblue" points="136.13,-295.76 125.69,-297.53 134.95,-302.66 136.13,-295.76"/>
</g>
<!-- Node4 -->
<g id="node4" class="node">
<title>Node4</title>
<g id="a_node4"><a xlink:href="fri_l_b_r_command_8h.html" target="_top" xlink:title=" ">
<polygon fill="white" stroke="black" points="660.5,-280.5 660.5,-299.5 758.5,-299.5 758.5,-280.5 660.5,-280.5"/>
<text text-anchor="middle" x="709.5" y="-287.5" font-family="Helvetica,sans-Serif" font-size="10.00">friLBRCommand.h</text>
</a>
</g>
</g>
<!-- Node1&#45;&gt;Node4 -->
<g id="edge3" class="edge">
<title>Node1&#45;&gt;Node4</title>
<path fill="none" stroke="midnightblue" d="M500.09,-336.47C549.11,-325.83 615.5,-311.41 660.28,-301.69"/>
<polygon fill="midnightblue" stroke="midnightblue" points="661.3,-305.05 670.33,-299.51 659.81,-298.21 661.3,-305.05"/>
</g>
<!-- Node5 -->
<g id="node5" class="node">
<title>Node5</title>
<g id="a_node5"><a xlink:href="fri_client_data_8h.html" target="_top" xlink:title=" ">
<polygon fill="white" stroke="black" points="198.5,-280.5 198.5,-299.5 278.5,-299.5 278.5,-280.5 198.5,-280.5"/>
<text text-anchor="middle" x="238.5" y="-287.5" font-family="Helvetica,sans-Serif" font-size="10.00">friClientData.h</text>
</a>
</g>
</g>
<!-- Node1&#45;&gt;Node5 -->
<g id="edge4" class="edge">
<title>Node1&#45;&gt;Node5</title>
<path fill="none" stroke="midnightblue" d="M388.81,-336.4C354.62,-326.07 308.79,-312.23 276.76,-302.56"/>
<polygon fill="midnightblue" stroke="midnightblue" points="277.46,-299.11 266.88,-299.57 275.44,-305.81 277.46,-299.11"/>
</g>
<!-- Node14 -->
<g id="node14" class="node">
<title>Node14</title>
<g id="a_node14"><a xlink:href="pb__frimessages__callbacks_8h.html" target="_top" xlink:title=" ">
<polygon fill="white" stroke="black" points="448.5,-168.5 448.5,-187.5 588.5,-187.5 588.5,-168.5 448.5,-168.5"/>
<text text-anchor="middle" x="518.5" y="-175.5" font-family="Helvetica,sans-Serif" font-size="10.00">pb_frimessages_callbacks.h</text>
</a>
</g>
</g>
<!-- Node1&#45;&gt;Node14 -->
<g id="edge23" class="edge">
<title>Node1&#45;&gt;Node14</title>
<path fill="none" stroke="midnightblue" d="M484.31,-336.38C526.91,-321.17 586.06,-292.4 613.5,-244 627.86,-218.67 595.09,-201.11 564.19,-190.69"/>
<polygon fill="midnightblue" stroke="midnightblue" points="564.88,-187.24 554.29,-187.56 562.76,-193.91 564.88,-187.24"/>
</g>
<!-- Node3 -->
<g id="node3" class="node">
<title>Node3</title>
<g id="a_node3"><a xlink:href="fri_client_if_8h.html" target="_top" xlink:title=" ">
<polygon fill="white" stroke="black" points="0,-224.5 0,-243.5 65,-243.5 65,-224.5 0,-224.5"/>
<text text-anchor="middle" x="32.5" y="-231.5" font-family="Helvetica,sans-Serif" font-size="10.00">friClientIf.h</text>
</a>
</g>
</g>
<!-- Node2&#45;&gt;Node3 -->
<g id="edge2" class="edge">
<title>Node2&#45;&gt;Node3</title>
<path fill="none" stroke="midnightblue" d="M78.42,-280.08C70.33,-272.14 58.3,-260.34 48.59,-250.8"/>
<polygon fill="midnightblue" stroke="midnightblue" points="51,-248.26 41.41,-243.75 46.1,-253.25 51,-248.26"/>
</g>
<!-- Node5&#45;&gt;Node3 -->
<g id="edge20" class="edge">
<title>Node5&#45;&gt;Node3</title>
<path fill="none" stroke="midnightblue" d="M205.86,-280.44C170.45,-271.16 113.79,-256.31 74.95,-246.13"/>
<polygon fill="midnightblue" stroke="midnightblue" points="75.55,-242.67 64.99,-243.52 73.77,-249.44 75.55,-242.67"/>
</g>
<!-- Node6 -->
<g id="node6" class="node">
<title>Node6</title>
<g id="a_node6"><a xlink:title=" ">
<polygon fill="white" stroke="#bfbfbf" points="216.5,-224.5 216.5,-243.5 260.5,-243.5 260.5,-224.5 216.5,-224.5"/>
<text text-anchor="middle" x="238.5" y="-231.5" font-family="Helvetica,sans-Serif" font-size="10.00">vector</text>
</a>
</g>
</g>
<!-- Node5&#45;&gt;Node6 -->
<g id="edge5" class="edge">
<title>Node5&#45;&gt;Node6</title>
<path fill="none" stroke="midnightblue" d="M238.5,-280.08C238.5,-273.01 238.5,-262.86 238.5,-253.99"/>
<polygon fill="midnightblue" stroke="midnightblue" points="242,-253.75 238.5,-243.75 235,-253.75 242,-253.75"/>
</g>
<!-- Node7 -->
<g id="node7" class="node">
<title>Node7</title>
<g id="a_node7"><a xlink:href="_f_r_i_messages_8pb_8h.html" target="_top" xlink:title=" ">
<polygon fill="white" stroke="black" points="370.5,-112.5 370.5,-131.5 470.5,-131.5 470.5,-112.5 370.5,-112.5"/>
<text text-anchor="middle" x="420.5" y="-119.5" font-family="Helvetica,sans-Serif" font-size="10.00">FRIMessages.pb.h</text>
</a>
</g>
</g>
<!-- Node5&#45;&gt;Node7 -->
<g id="edge6" class="edge">
<title>Node5&#45;&gt;Node7</title>
<path fill="none" stroke="midnightblue" d="M228.74,-280.24C215.68,-267.43 195.47,-243.02 207.5,-224 240.83,-171.31 309.92,-145.56 360.41,-133.35"/>
<polygon fill="midnightblue" stroke="midnightblue" points="361.28,-136.74 370.24,-131.09 359.71,-129.92 361.28,-136.74"/>
</g>
<!-- Node13 -->
<g id="node13" class="node">
<title>Node13</title>
<g id="a_node13"><a xlink:href="fri_monitoring_message_decoder_8h.html" target="_top" xlink:title=" ">
<polygon fill="white" stroke="black" points="450.5,-224.5 450.5,-243.5 604.5,-243.5 604.5,-224.5 450.5,-224.5"/>
<text text-anchor="middle" x="527.5" y="-231.5" font-family="Helvetica,sans-Serif" font-size="10.00">friMonitoringMessageDecoder.h</text>
</a>
</g>
</g>
<!-- Node5&#45;&gt;Node13 -->
<g id="edge12" class="edge">
<title>Node5&#45;&gt;Node13</title>
<path fill="none" stroke="midnightblue" d="M278.68,-281.49C329.02,-272.09 415.5,-255.93 472.09,-245.35"/>
<polygon fill="midnightblue" stroke="midnightblue" points="472.76,-248.79 481.95,-243.51 471.47,-241.91 472.76,-248.79"/>
</g>
<!-- Node15 -->
<g id="node15" class="node">
<title>Node15</title>
<g id="a_node15"><a xlink:href="fri_command_message_encoder_8h.html" target="_top" xlink:title=" ">
<polygon fill="white" stroke="black" points="279,-224.5 279,-243.5 432,-243.5 432,-224.5 279,-224.5"/>
<text text-anchor="middle" x="355.5" y="-231.5" font-family="Helvetica,sans-Serif" font-size="10.00">friCommandMessageEncoder.h</text>
</a>
</g>
</g>
<!-- Node5&#45;&gt;Node15 -->
<g id="edge17" class="edge">
<title>Node5&#45;&gt;Node15</title>
<path fill="none" stroke="midnightblue" d="M257.04,-280.44C276.12,-271.64 306.07,-257.81 327.94,-247.72"/>
<polygon fill="midnightblue" stroke="midnightblue" points="329.43,-250.88 337.05,-243.52 326.5,-244.53 329.43,-250.88"/>
</g>
<!-- Node16 -->
<g id="node16" class="node">
<title>Node16</title>
<g id="a_node16"><a xlink:href="fri_exception_8h.html" target="_top" xlink:title=" ">
<polygon fill="white" stroke="black" points="83,-224.5 83,-243.5 160,-243.5 160,-224.5 83,-224.5"/>
<text text-anchor="middle" x="121.5" y="-231.5" font-family="Helvetica,sans-Serif" font-size="10.00">friException.h</text>
</a>
</g>
</g>
<!-- Node5&#45;&gt;Node16 -->
<g id="edge21" class="edge">
<title>Node5&#45;&gt;Node16</title>
<path fill="none" stroke="midnightblue" d="M219.96,-280.44C200.88,-271.64 170.93,-257.81 149.06,-247.72"/>
<polygon fill="midnightblue" stroke="midnightblue" points="150.5,-244.53 139.95,-243.52 147.57,-250.88 150.5,-244.53"/>
</g>
<!-- Node8 -->
<g id="node8" class="node">
<title>Node8</title>
<g id="a_node8"><a xlink:href="pb_8h.html" target="_top" xlink:title=" ">
<polygon fill="white" stroke="black" points="442,-56.5 442,-75.5 477,-75.5 477,-56.5 442,-56.5"/>
<text text-anchor="middle" x="459.5" y="-63.5" font-family="Helvetica,sans-Serif" font-size="10.00">pb.h</text>
</a>
</g>
</g>
<!-- Node7&#45;&gt;Node8 -->
<g id="edge7" class="edge">
<title>Node7&#45;&gt;Node8</title>
<path fill="none" stroke="midnightblue" d="M426.94,-112.08C432.45,-104.46 440.53,-93.26 447.26,-83.94"/>
<polygon fill="midnightblue" stroke="midnightblue" points="450.16,-85.91 453.18,-75.75 444.49,-81.81 450.16,-85.91"/>
</g>
<!-- Node9 -->
<g id="node9" class="node">
<title>Node9</title>
<g id="a_node9"><a xlink:title=" ">
<polygon fill="white" stroke="#bfbfbf" points="330,-0.5 330,-19.5 379,-19.5 379,-0.5 330,-0.5"/>
<text text-anchor="middle" x="354.5" y="-7.5" font-family="Helvetica,sans-Serif" font-size="10.00">stdint.h</text>
</a>
</g>
</g>
<!-- Node8&#45;&gt;Node9 -->
<g id="edge8" class="edge">
<title>Node8&#45;&gt;Node9</title>
<path fill="none" stroke="midnightblue" d="M442.63,-56.32C425.79,-47.66 399.69,-34.24 380.26,-24.25"/>
<polygon fill="midnightblue" stroke="midnightblue" points="381.82,-21.12 371.33,-19.65 378.62,-27.34 381.82,-21.12"/>
</g>
<!-- Node10 -->
<g id="node10" class="node">
<title>Node10</title>
<g id="a_node10"><a xlink:title=" ">
<polygon fill="white" stroke="#bfbfbf" points="397.5,-0.5 397.5,-19.5 449.5,-19.5 449.5,-0.5 397.5,-0.5"/>
<text text-anchor="middle" x="423.5" y="-7.5" font-family="Helvetica,sans-Serif" font-size="10.00">stddef.h</text>
</a>
</g>
</g>
<!-- Node8&#45;&gt;Node10 -->
<g id="edge9" class="edge">
<title>Node8&#45;&gt;Node10</title>
<path fill="none" stroke="midnightblue" d="M453.56,-56.08C448.52,-48.53 441.16,-37.49 434.99,-28.23"/>
<polygon fill="midnightblue" stroke="midnightblue" points="437.79,-26.13 429.33,-19.75 431.97,-30.01 437.79,-26.13"/>
</g>
<!-- Node11 -->
<g id="node11" class="node">
<title>Node11</title>
<g id="a_node11"><a xlink:title=" ">
<polygon fill="white" stroke="#bfbfbf" points="467.5,-0.5 467.5,-19.5 523.5,-19.5 523.5,-0.5 467.5,-0.5"/>
<text text-anchor="middle" x="495.5" y="-7.5" font-family="Helvetica,sans-Serif" font-size="10.00">stdbool.h</text>
</a>
</g>
</g>
<!-- Node8&#45;&gt;Node11 -->
<g id="edge10" class="edge">
<title>Node8&#45;&gt;Node11</title>
<path fill="none" stroke="midnightblue" d="M465.44,-56.08C470.48,-48.53 477.84,-37.49 484.01,-28.23"/>
<polygon fill="midnightblue" stroke="midnightblue" points="487.03,-30.01 489.67,-19.75 481.21,-26.13 487.03,-30.01"/>
</g>
<!-- Node12 -->
<g id="node12" class="node">
<title>Node12</title>
<g id="a_node12"><a xlink:title=" ">
<polygon fill="white" stroke="#bfbfbf" points="542,-0.5 542,-19.5 591,-19.5 591,-0.5 542,-0.5"/>
<text text-anchor="middle" x="566.5" y="-7.5" font-family="Helvetica,sans-Serif" font-size="10.00">string.h</text>
</a>
</g>
</g>
<!-- Node8&#45;&gt;Node12 -->
<g id="edge11" class="edge">
<title>Node8&#45;&gt;Node12</title>
<path fill="none" stroke="midnightblue" d="M476.69,-56.32C493.85,-47.66 520.45,-34.24 540.25,-24.25"/>
<polygon fill="midnightblue" stroke="midnightblue" points="542,-27.28 549.35,-19.65 538.85,-21.04 542,-27.28"/>
</g>
<!-- Node13&#45;&gt;Node7 -->
<g id="edge13" class="edge">
<title>Node13&#45;&gt;Node7</title>
<path fill="none" stroke="midnightblue" d="M497.43,-224.46C478.28,-217.56 454.38,-205.98 439.5,-188 428.62,-174.85 423.97,-155.71 421.98,-141.6"/>
<polygon fill="midnightblue" stroke="midnightblue" points="425.45,-141.14 420.89,-131.58 418.49,-141.9 425.45,-141.14"/>
</g>
<!-- Node13&#45;&gt;Node14 -->
<g id="edge14" class="edge">
<title>Node13&#45;&gt;Node14</title>
<path fill="none" stroke="midnightblue" d="M526.01,-224.08C524.82,-216.93 523.11,-206.64 521.62,-197.69"/>
<polygon fill="midnightblue" stroke="midnightblue" points="525.05,-197.04 519.96,-187.75 518.15,-198.19 525.05,-197.04"/>
</g>
<!-- Node14&#45;&gt;Node7 -->
<g id="edge16" class="edge">
<title>Node14&#45;&gt;Node7</title>
<path fill="none" stroke="midnightblue" d="M502.75,-168.32C487.18,-159.74 463.12,-146.49 445.04,-136.52"/>
<polygon fill="midnightblue" stroke="midnightblue" points="446.65,-133.42 436.21,-131.65 443.28,-139.55 446.65,-133.42"/>
</g>
<!-- Node14&#45;&gt;Node8 -->
<g id="edge15" class="edge">
<title>Node14&#45;&gt;Node8</title>
<path fill="none" stroke="midnightblue" d="M513.87,-168.37C504.22,-150.38 481.79,-108.55 468.95,-84.63"/>
<polygon fill="midnightblue" stroke="midnightblue" points="471.92,-82.75 464.11,-75.59 465.75,-86.06 471.92,-82.75"/>
</g>
<!-- Node15&#45;&gt;Node7 -->
<g id="edge18" class="edge">
<title>Node15&#45;&gt;Node7</title>
<path fill="none" stroke="midnightblue" d="M360.6,-224.37C371.28,-206.3 396.17,-164.18 410.27,-140.31"/>
<polygon fill="midnightblue" stroke="midnightblue" points="413.35,-141.98 415.42,-131.59 407.32,-138.42 413.35,-141.98"/>
</g>
<!-- Node15&#45;&gt;Node14 -->
<g id="edge19" class="edge">
<title>Node15&#45;&gt;Node14</title>
<path fill="none" stroke="midnightblue" d="M381.33,-224.44C408.75,-215.36 452.28,-200.94 482.93,-190.78"/>
<polygon fill="midnightblue" stroke="midnightblue" points="484.4,-193.98 492.79,-187.52 482.2,-187.34 484.4,-193.98"/>
</g>
<!-- Node17 -->
<g id="node17" class="node">
<title>Node17</title>
<g id="a_node17"><a xlink:title=" ">
<polygon fill="white" stroke="#bfbfbf" points="98.5,-168.5 98.5,-187.5 144.5,-187.5 144.5,-168.5 98.5,-168.5"/>
<text text-anchor="middle" x="121.5" y="-175.5" font-family="Helvetica,sans-Serif" font-size="10.00">stdio.h</text>
</a>
</g>
</g>
<!-- Node16&#45;&gt;Node17 -->
<g id="edge22" class="edge">
<title>Node16&#45;&gt;Node17</title>
<path fill="none" stroke="midnightblue" d="M121.5,-224.08C121.5,-217.01 121.5,-206.86 121.5,-197.99"/>
<polygon fill="midnightblue" stroke="midnightblue" points="125,-197.75 121.5,-187.75 118,-197.75 125,-197.75"/>
</g>
</g>
</svg>
        <g id="navigator" transform="translate(0 0)" fill="#404254">
                <rect fill="#f2f5e9" fill-opacity="0.5" stroke="#606060" stroke-width=".5" x="0" y="0" width="60" height="60"/>
                <use id="zoomplus" xlink:href="#zoomPlus" x="17" y="9" onmousedown="handleZoom(evt,'in')"/>
                <use id="zoomminus" xlink:href="#zoomMin" x="42" y="9" onmousedown="handleZoom(evt,'out')"/>
                <use id="reset" xlink:href="#resetDef" x="30" y="36" onmousedown="handleReset()"/>
                <g id="arrowUp" xlink:href="#dirArrow" transform="translate(30 24)" onmousedown="handlePan(0,-1)">
                  <use xlink:href="#rim" fill="#404040">
                        <set attributeName="fill" to="#808080" begin="arrowUp.mouseover" end="arrowUp.mouseout"/>
                  </use>
                  <path fill="none" stroke="white" stroke-width="1.5" d="M0,-3.0v7 M-2.5,-0.5L0,-3.0L2.5,-0.5"/>
                </g>
                <g id="arrowRight" xlink:href="#dirArrow" transform="rotate(90) translate(36 -43)" onmousedown="handlePan(1,0)">
                  <use xlink:href="#rim" fill="#404040">
                        <set attributeName="fill" to="#808080" begin="arrowRight.mouseover" end="arrowRight.mouseout"/>
                  </use>
                  <path fill="none" stroke="white" stroke-width="1.5" d="M0,-3.0v7 M-2.5,-0.5L0,-3.0L2.5,-0.5"/>
                </g>
                <g id="arrowDown" xlink:href="#dirArrow" transform="rotate(180) translate(-30 -48)" onmousedown="handlePan(0,1)">
                  <use xlink:href="#rim" fill="#404040">
                        <set attributeName="fill" to="#808080" begin="arrowDown.mouseover" end="arrowDown.mouseout"/>
                  </use>
                  <path fill="none" stroke="white" stroke-width="1.5" d="M0,-3.0v7 M-2.5,-0.5L0,-3.0L2.5,-0.5"/>
                </g>
                <g id="arrowLeft" xlink:href="#dirArrow" transform="rotate(270) translate(-36 17)" onmousedown="handlePan(-1,0)">
                  <use xlink:href="#rim" fill="#404040">
                        <set attributeName="fill" to="#808080" begin="arrowLeft.mouseover" end="arrowLeft.mouseout"/>
                  </use>
                  <path fill="none" stroke="white" stroke-width="1.5" d="M0,-3.0v7 M-2.5,-0.5L0,-3.0L2.5,-0.5"/>
                </g>
        </g>
        <svg viewBox="0 0 15 15" width="100%" height="30px" preserveAspectRatio="xMaxYMin meet">
         <g id="arrow_out" transform="scale(0.3 0.3)">
          <a xlink:href="fri_l_b_r_command_8cpp__incl_org.svg" target="_base">
           <rect id="button" ry="5" rx="5" y="6" x="6" height="38" width="38"
                fill="#f2f5e9" fill-opacity="0.5" stroke="#606060" stroke-width="1.0"/>
           <path id="arrow"
             d="M 11.500037,31.436501 C 11.940474,20.09759 22.043105,11.32322 32.158766,21.979434 L 37.068811,17.246167 C 37.068811,17.246167 37.088388,32 37.088388,32 L 22.160133,31.978069 C 22.160133,31.978069 26.997745,27.140456 26.997745,27.140456 C 18.528582,18.264221 13.291696,25.230495 11.500037,31.436501 z"
             style="fill:#404040;"/>
          </a>
         </g>
        </svg>
</svg>
