<?xml version="1.0" encoding="UTF-8" standalone="no"?>
<!DOCTYPE svg PUBLIC "-//W3C//DTD SVG 1.1//EN"
 "http://www.w3.org/Graphics/SVG/1.1/DTD/svg11.dtd">
<!-- Generated by graphviz version 2.43.0 (0)
 -->
<!-- Title: build/FRI&#45;Client&#45;SDK_Cpp/include/friException.h Pages: 1 -->
<svg width="939pt" height="184pt"
 viewBox="0.00 0.00 938.50 184.00" xmlns="http://www.w3.org/2000/svg" xmlns:xlink="http://www.w3.org/1999/xlink">
<g id="graph0" class="graph" transform="scale(1 1) rotate(0) translate(4 180)">
<title>build/FRI&#45;Client&#45;SDK_Cpp/include/friException.h</title>
<polygon fill="white" stroke="transparent" points="-4,4 -4,-180 934.5,-180 934.5,4 -4,4"/>
<!-- Node1 -->
<g id="node1" class="node">
<title>Node1</title>
<g id="a_node1"><a xlink:title=" ">
<polygon fill="#bfbfbf" stroke="black" points="421.5,-145.5 421.5,-175.5 558.5,-175.5 558.5,-145.5 421.5,-145.5"/>
<text text-anchor="start" x="429.5" y="-163.5" font-family="Helvetica,sans-Serif" font-size="10.00">build/FRI&#45;Client&#45;SDK</text>
<text text-anchor="middle" x="490" y="-152.5" font-family="Helvetica,sans-Serif" font-size="10.00">_Cpp/include/friException.h</text>
</a>
</g>
</g>
<!-- Node2 -->
<g id="node2" class="node">
<title>Node2</title>
<g id="a_node2"><a xlink:href="fri_client_data_8h.html" target="_top" xlink:title=" ">
<polygon fill="white" stroke="black" points="417,-78.5 417,-108.5 563,-108.5 563,-78.5 417,-78.5"/>
<text text-anchor="start" x="425" y="-96.5" font-family="Helvetica,sans-Serif" font-size="10.00">build/FRI&#45;Client&#45;SDK</text>
<text text-anchor="middle" x="490" y="-85.5" font-family="Helvetica,sans-Serif" font-size="10.00">_Cpp/src/base/friClientData.h</text>
</a>
</g>
</g>
<!-- Node1&#45;&gt;Node2 -->
<g id="edge1" class="edge">
<title>Node1&#45;&gt;Node2</title>
<path fill="none" stroke="midnightblue" d="M490,-135.11C490,-126.15 490,-116.32 490,-108.58"/>
<polygon fill="midnightblue" stroke="midnightblue" points="486.5,-135.4 490,-145.4 493.5,-135.4 486.5,-135.4"/>
</g>
<!-- Node3 -->
<g id="node3" class="node">
<title>Node3</title>
<g id="a_node3"><a xlink:href="fri_client_application_8cpp.html" target="_top" xlink:title=" ">
<polygon fill="white" stroke="black" points="0,-6 0,-36 184,-36 184,-6 0,-6"/>
<text text-anchor="start" x="8" y="-24" font-family="Helvetica,sans-Serif" font-size="10.00">build/FRI&#45;Client&#45;SDK</text>
<text text-anchor="middle" x="92" y="-13" font-family="Helvetica,sans-Serif" font-size="10.00">_Cpp/src/base/friClientApplication.cpp</text>
</a>
</g>
</g>
<!-- Node2&#45;&gt;Node3 -->
<g id="edge2" class="edge">
<title>Node2&#45;&gt;Node3</title>
<path fill="none" stroke="midnightblue" d="M406.86,-78.98C347.26,-69.14 265.09,-55.26 193,-42 182.8,-40.12 172.04,-38.07 161.5,-36.02"/>
<polygon fill="midnightblue" stroke="midnightblue" points="406.54,-82.48 416.97,-80.65 407.68,-75.57 406.54,-82.48"/>
</g>
<!-- Node4 -->
<g id="node4" class="node">
<title>Node4</title>
<g id="a_node4"><a xlink:href="fri_l_b_r_client_8cpp.html" target="_top" xlink:title=" ">
<polygon fill="white" stroke="black" points="202.5,-6 202.5,-36 375.5,-36 375.5,-6 202.5,-6"/>
<text text-anchor="start" x="210.5" y="-24" font-family="Helvetica,sans-Serif" font-size="10.00">build/FRI&#45;Client&#45;SDK</text>
<text text-anchor="middle" x="289" y="-13" font-family="Helvetica,sans-Serif" font-size="10.00">_Cpp/src/client_lbr/friLBRClient.cpp</text>
</a>
</g>
</g>
<!-- Node2&#45;&gt;Node4 -->
<g id="edge3" class="edge">
<title>Node2&#45;&gt;Node4</title>
<path fill="none" stroke="midnightblue" d="M440.01,-74.96C405.79,-62.96 361.01,-47.26 329.12,-36.07"/>
<polygon fill="midnightblue" stroke="midnightblue" points="439.21,-78.4 449.81,-78.4 441.53,-71.79 439.21,-78.4"/>
</g>
<!-- Node5 -->
<g id="node5" class="node">
<title>Node5</title>
<g id="a_node5"><a xlink:href="fri_l_b_r_command_8cpp.html" target="_top" xlink:title=" ">
<polygon fill="white" stroke="black" points="393.5,-6 393.5,-36 586.5,-36 586.5,-6 393.5,-6"/>
<text text-anchor="start" x="401.5" y="-24" font-family="Helvetica,sans-Serif" font-size="10.00">build/FRI&#45;Client&#45;SDK</text>
<text text-anchor="middle" x="490" y="-13" font-family="Helvetica,sans-Serif" font-size="10.00">_Cpp/src/client_lbr/friLBRCommand.cpp</text>
</a>
</g>
</g>
<!-- Node2&#45;&gt;Node5 -->
<g id="edge4" class="edge">
<title>Node2&#45;&gt;Node5</title>
<path fill="none" stroke="midnightblue" d="M490,-68.23C490,-57.57 490,-45.41 490,-36.25"/>
<polygon fill="midnightblue" stroke="midnightblue" points="486.5,-68.23 490,-78.23 493.5,-68.23 486.5,-68.23"/>
</g>
<!-- Node6 -->
<g id="node6" class="node">
<title>Node6</title>
<g id="a_node6"><a xlink:href="fri_l_b_r_state_8cpp.html" target="_top" xlink:title=" ">
<polygon fill="white" stroke="black" points="604.5,-6 604.5,-36 775.5,-36 775.5,-6 604.5,-6"/>
<text text-anchor="start" x="612.5" y="-24" font-family="Helvetica,sans-Serif" font-size="10.00">build/FRI&#45;Client&#45;SDK</text>
<text text-anchor="middle" x="690" y="-13" font-family="Helvetica,sans-Serif" font-size="10.00">_Cpp/src/client_lbr/friLBRState.cpp</text>
</a>
</g>
</g>
<!-- Node2&#45;&gt;Node6 -->
<g id="edge5" class="edge">
<title>Node2&#45;&gt;Node6</title>
<path fill="none" stroke="midnightblue" d="M539.75,-74.96C573.8,-62.96 618.35,-47.26 650.08,-36.07"/>
<polygon fill="midnightblue" stroke="midnightblue" points="538.26,-71.78 529.99,-78.4 540.59,-78.38 538.26,-71.78"/>
</g>
<!-- Node7 -->
<g id="node7" class="node">
<title>Node7</title>
<g id="a_node7"><a xlink:href="fri_transformation_client_8cpp.html" target="_top" xlink:title=" ">
<polygon fill="white" stroke="black" points="793.5,-0.5 793.5,-41.5 930.5,-41.5 930.5,-0.5 793.5,-0.5"/>
<text text-anchor="start" x="801.5" y="-29.5" font-family="Helvetica,sans-Serif" font-size="10.00">build/FRI&#45;Client&#45;SDK</text>
<text text-anchor="start" x="801.5" y="-18.5" font-family="Helvetica,sans-Serif" font-size="10.00">_Cpp/src/client_trafo</text>
<text text-anchor="middle" x="862" y="-7.5" font-family="Helvetica,sans-Serif" font-size="10.00">/friTransformationClient.cpp</text>
</a>
</g>
</g>
<!-- Node2&#45;&gt;Node7 -->
<g id="edge6" class="edge">
<title>Node2&#45;&gt;Node7</title>
<path fill="none" stroke="midnightblue" d="M573.13,-80.19C632.43,-70.95 713.93,-57.28 785,-42 787.7,-41.42 790.45,-40.81 793.22,-40.17"/>
<polygon fill="midnightblue" stroke="midnightblue" points="572.41,-76.76 563.07,-81.75 573.49,-83.68 572.41,-76.76"/>
</g>
</g>
</svg>
