<?xml version="1.0" encoding="UTF-8" standalone="no"?>
<!DOCTYPE svg PUBLIC "-//W3C//DTD SVG 1.1//EN"
 "http://www.w3.org/Graphics/SVG/1.1/DTD/svg11.dtd">
<!-- Generated by graphviz version 2.43.0 (0)
 -->
<!-- Title: build/FRI&#45;Client&#45;SDK_Cpp/include/friLBRState.h Pages: 1 -->
<svg width="2046pt" height="273pt"
 viewBox="0.00 0.00 2045.50 273.00" xmlns="http://www.w3.org/2000/svg" xmlns:xlink="http://www.w3.org/1999/xlink">
<g id="graph0" class="graph" transform="scale(1 1) rotate(0) translate(4 269)">
<title>build/FRI&#45;Client&#45;SDK_Cpp/include/friLBRState.h</title>
<polygon fill="white" stroke="transparent" points="-4,4 -4,-269 2041.5,-269 2041.5,4 -4,4"/>
<!-- Node1 -->
<g id="node1" class="node">
<title>Node1</title>
<g id="a_node1"><a xlink:title=" ">
<polygon fill="#bfbfbf" stroke="black" points="951,-234.5 951,-264.5 1087,-264.5 1087,-234.5 951,-234.5"/>
<text text-anchor="start" x="959" y="-252.5" font-family="Helvetica,sans-Serif" font-size="10.00">build/FRI&#45;Client&#45;SDK</text>
<text text-anchor="middle" x="1019" y="-241.5" font-family="Helvetica,sans-Serif" font-size="10.00">_Cpp/include/friLBRState.h</text>
</a>
</g>
</g>
<!-- Node2 -->
<g id="node2" class="node">
<title>Node2</title>
<g id="a_node2"><a xlink:href="_i_o_access_client_8cpp.html" target="_top" xlink:title=" ">
<polygon fill="white" stroke="black" points="0,-0.5 0,-41.5 126,-41.5 126,-0.5 0,-0.5"/>
<text text-anchor="start" x="8" y="-29.5" font-family="Helvetica,sans-Serif" font-size="10.00">build/FRI&#45;Client&#45;SDK</text>
<text text-anchor="start" x="8" y="-18.5" font-family="Helvetica,sans-Serif" font-size="10.00">_Cpp/example/IOAccess</text>
<text text-anchor="middle" x="63" y="-7.5" font-family="Helvetica,sans-Serif" font-size="10.00">/IOAccessClient.cpp</text>
</a>
</g>
</g>
<!-- Node1&#45;&gt;Node2 -->
<g id="edge1" class="edge">
<title>Node1&#45;&gt;Node2</title>
<path fill="none" stroke="midnightblue" d="M940.61,-246.29C750.12,-239.64 268.75,-214.78 135,-131 101.36,-109.93 80.07,-66.73 69.96,-41.5"/>
<polygon fill="midnightblue" stroke="midnightblue" points="940.71,-249.79 950.82,-246.64 940.95,-242.8 940.71,-249.79"/>
</g>
<!-- Node3 -->
<g id="node3" class="node">
<title>Node3</title>
<g id="a_node3"><a xlink:href="_l_b_r_joint_sine_overlay_client_8cpp.html" target="_top" xlink:title=" ">
<polygon fill="white" stroke="black" points="658,-0.5 658,-41.5 834,-41.5 834,-0.5 658,-0.5"/>
<text text-anchor="start" x="666" y="-29.5" font-family="Helvetica,sans-Serif" font-size="10.00">build/FRI&#45;Client&#45;SDK</text>
<text text-anchor="start" x="666" y="-18.5" font-family="Helvetica,sans-Serif" font-size="10.00">_Cpp/example/LBRJointSineOverlay</text>
<text text-anchor="middle" x="746" y="-7.5" font-family="Helvetica,sans-Serif" font-size="10.00">/LBRJointSineOverlayClient.cpp</text>
</a>
</g>
</g>
<!-- Node1&#45;&gt;Node3 -->
<g id="edge2" class="edge">
<title>Node1&#45;&gt;Node3</title>
<path fill="none" stroke="midnightblue" d="M977.64,-230.03C935.52,-209.85 869.92,-174.52 823,-131 794.12,-104.21 769.64,-64.94 756.45,-41.57"/>
<polygon fill="midnightblue" stroke="midnightblue" points="976.24,-233.24 986.78,-234.34 979.23,-226.91 976.24,-233.24"/>
</g>
<!-- Node4 -->
<g id="node4" class="node">
<title>Node4</title>
<g id="a_node4"><a xlink:href="fri_l_b_r_client_8h.html" target="_top" xlink:title=" ">
<polygon fill="white" stroke="black" points="950,-167.5 950,-197.5 1088,-197.5 1088,-167.5 950,-167.5"/>
<text text-anchor="start" x="958" y="-185.5" font-family="Helvetica,sans-Serif" font-size="10.00">build/FRI&#45;Client&#45;SDK</text>
<text text-anchor="middle" x="1019" y="-174.5" font-family="Helvetica,sans-Serif" font-size="10.00">_Cpp/include/friLBRClient.h</text>
</a>
</g>
</g>
<!-- Node1&#45;&gt;Node4 -->
<g id="edge3" class="edge">
<title>Node1&#45;&gt;Node4</title>
<path fill="none" stroke="midnightblue" d="M1019,-224.11C1019,-215.15 1019,-205.32 1019,-197.58"/>
<polygon fill="midnightblue" stroke="midnightblue" points="1015.5,-224.4 1019,-234.4 1022.5,-224.4 1015.5,-224.4"/>
</g>
<!-- Node21 -->
<g id="node21" class="node">
<title>Node21</title>
<g id="a_node21"><a xlink:href="fri_l_b_r_command_8cpp.html" target="_top" xlink:title=" ">
<polygon fill="white" stroke="black" points="1106.5,-167.5 1106.5,-197.5 1299.5,-197.5 1299.5,-167.5 1106.5,-167.5"/>
<text text-anchor="start" x="1114.5" y="-185.5" font-family="Helvetica,sans-Serif" font-size="10.00">build/FRI&#45;Client&#45;SDK</text>
<text text-anchor="middle" x="1203" y="-174.5" font-family="Helvetica,sans-Serif" font-size="10.00">_Cpp/src/client_lbr/friLBRCommand.cpp</text>
</a>
</g>
</g>
<!-- Node1&#45;&gt;Node21 -->
<g id="edge22" class="edge">
<title>Node1&#45;&gt;Node21</title>
<path fill="none" stroke="midnightblue" d="M1068.67,-230.96C1098.3,-220.48 1135.44,-207.37 1163.15,-197.58"/>
<polygon fill="midnightblue" stroke="midnightblue" points="1067.19,-227.76 1058.93,-234.4 1069.52,-234.37 1067.19,-227.76"/>
</g>
<!-- Node22 -->
<g id="node22" class="node">
<title>Node22</title>
<g id="a_node22"><a xlink:href="fri_l_b_r_state_8cpp.html" target="_top" xlink:title=" ">
<polygon fill="white" stroke="black" points="1317.5,-167.5 1317.5,-197.5 1488.5,-197.5 1488.5,-167.5 1317.5,-167.5"/>
<text text-anchor="start" x="1325.5" y="-185.5" font-family="Helvetica,sans-Serif" font-size="10.00">build/FRI&#45;Client&#45;SDK</text>
<text text-anchor="middle" x="1403" y="-174.5" font-family="Helvetica,sans-Serif" font-size="10.00">_Cpp/src/client_lbr/friLBRState.cpp</text>
</a>
</g>
</g>
<!-- Node1&#45;&gt;Node22 -->
<g id="edge23" class="edge">
<title>Node1&#45;&gt;Node22</title>
<path fill="none" stroke="midnightblue" d="M1097.37,-235.23C1162.19,-224.26 1254,-208.72 1320.05,-197.54"/>
<polygon fill="midnightblue" stroke="midnightblue" points="1096.48,-231.83 1087.21,-236.95 1097.65,-238.74 1096.48,-231.83"/>
</g>
<!-- Node5 -->
<g id="node5" class="node">
<title>Node5</title>
<g id="a_node5"><a xlink:href="_i_o_access_client_8h.html" target="_top" xlink:title=" ">
<polygon fill="white" stroke="black" points="144,-84 144,-125 270,-125 270,-84 144,-84"/>
<text text-anchor="start" x="152" y="-113" font-family="Helvetica,sans-Serif" font-size="10.00">build/FRI&#45;Client&#45;SDK</text>
<text text-anchor="start" x="152" y="-102" font-family="Helvetica,sans-Serif" font-size="10.00">_Cpp/example/IOAccess</text>
<text text-anchor="middle" x="207" y="-91" font-family="Helvetica,sans-Serif" font-size="10.00">/IOAccessClient.h</text>
</a>
</g>
</g>
<!-- Node4&#45;&gt;Node5 -->
<g id="edge4" class="edge">
<title>Node4&#45;&gt;Node5</title>
<path fill="none" stroke="midnightblue" d="M939.62,-174.48C831.89,-164.91 633.35,-147.11 464,-131 397.83,-124.71 322.11,-117.15 270.09,-111.9"/>
<polygon fill="midnightblue" stroke="midnightblue" points="939.49,-177.98 949.76,-175.38 940.11,-171.01 939.49,-177.98"/>
</g>
<!-- Node7 -->
<g id="node7" class="node">
<title>Node7</title>
<g id="a_node7"><a xlink:href="_my_l_b_r_client_8h.html" target="_top" xlink:title=" ">
<polygon fill="white" stroke="black" points="473.5,-84 473.5,-125 640.5,-125 640.5,-84 473.5,-84"/>
<text text-anchor="start" x="481.5" y="-113" font-family="Helvetica,sans-Serif" font-size="10.00">build/FRI&#45;Client&#45;SDK</text>
<text text-anchor="start" x="481.5" y="-102" font-family="Helvetica,sans-Serif" font-size="10.00">_Cpp/example/LBRClientTemplate</text>
<text text-anchor="middle" x="557" y="-91" font-family="Helvetica,sans-Serif" font-size="10.00">/MyLBRClient.h</text>
</a>
</g>
</g>
<!-- Node4&#45;&gt;Node7 -->
<g id="edge7" class="edge">
<title>Node4&#45;&gt;Node7</title>
<path fill="none" stroke="midnightblue" d="M939.91,-168.49C856.56,-154.78 725.81,-133.27 640.75,-119.28"/>
<polygon fill="midnightblue" stroke="midnightblue" points="939.4,-171.95 949.83,-170.12 940.53,-165.05 939.4,-171.95"/>
</g>
<!-- Node10 -->
<g id="node10" class="node">
<title>Node10</title>
<g id="a_node10"><a xlink:href="_l_b_r_joint_sine_overlay_client_8h.html" target="_top" xlink:title=" ">
<polygon fill="white" stroke="black" points="832,-84 832,-125 1008,-125 1008,-84 832,-84"/>
<text text-anchor="start" x="840" y="-113" font-family="Helvetica,sans-Serif" font-size="10.00">build/FRI&#45;Client&#45;SDK</text>
<text text-anchor="start" x="840" y="-102" font-family="Helvetica,sans-Serif" font-size="10.00">_Cpp/example/LBRJointSineOverlay</text>
<text text-anchor="middle" x="920" y="-91" font-family="Helvetica,sans-Serif" font-size="10.00">/LBRJointSineOverlayClient.h</text>
</a>
</g>
</g>
<!-- Node4&#45;&gt;Node10 -->
<g id="edge10" class="edge">
<title>Node4&#45;&gt;Node10</title>
<path fill="none" stroke="midnightblue" d="M992.28,-160.99C977.79,-149.86 959.96,-136.18 945.64,-125.18"/>
<polygon fill="midnightblue" stroke="midnightblue" points="990.32,-163.89 1000.38,-167.2 994.58,-158.34 990.32,-163.89"/>
</g>
<!-- Node12 -->
<g id="node12" class="node">
<title>Node12</title>
<g id="a_node12"><a xlink:href="_l_b_r_torque_sine_overlay_client_8h.html" target="_top" xlink:title=" ">
<polygon fill="white" stroke="black" points="1025.5,-84 1025.5,-125 1210.5,-125 1210.5,-84 1025.5,-84"/>
<text text-anchor="start" x="1033.5" y="-113" font-family="Helvetica,sans-Serif" font-size="10.00">build/FRI&#45;Client&#45;SDK</text>
<text text-anchor="start" x="1033.5" y="-102" font-family="Helvetica,sans-Serif" font-size="10.00">_Cpp/example/LBRTorqueSineOverlay</text>
<text text-anchor="middle" x="1118" y="-91" font-family="Helvetica,sans-Serif" font-size="10.00">/LBRTorqueSineOverlayClient.h</text>
</a>
</g>
</g>
<!-- Node4&#45;&gt;Node12 -->
<g id="edge13" class="edge">
<title>Node4&#45;&gt;Node12</title>
<path fill="none" stroke="midnightblue" d="M1045.72,-160.99C1060.21,-149.86 1078.04,-136.18 1092.36,-125.18"/>
<polygon fill="midnightblue" stroke="midnightblue" points="1043.42,-158.34 1037.62,-167.2 1047.68,-163.89 1043.42,-158.34"/>
</g>
<!-- Node15 -->
<g id="node15" class="node">
<title>Node15</title>
<g id="a_node15"><a xlink:href="_l_b_r_wrench_sine_overlay_client_8h.html" target="_top" xlink:title=" ">
<polygon fill="white" stroke="black" points="1229,-84 1229,-125 1417,-125 1417,-84 1229,-84"/>
<text text-anchor="start" x="1237" y="-113" font-family="Helvetica,sans-Serif" font-size="10.00">build/FRI&#45;Client&#45;SDK</text>
<text text-anchor="start" x="1237" y="-102" font-family="Helvetica,sans-Serif" font-size="10.00">_Cpp/example/LBRWrenchSineOverlay</text>
<text text-anchor="middle" x="1323" y="-91" font-family="Helvetica,sans-Serif" font-size="10.00">/LBRWrenchSineOverlayClient.h</text>
</a>
</g>
</g>
<!-- Node4&#45;&gt;Node15 -->
<g id="edge16" class="edge">
<title>Node4&#45;&gt;Node15</title>
<path fill="none" stroke="midnightblue" d="M1084.88,-165.03C1131.9,-153.28 1195.31,-137.42 1244.88,-125.03"/>
<polygon fill="midnightblue" stroke="midnightblue" points="1083.97,-161.65 1075.11,-167.47 1085.66,-168.44 1083.97,-161.65"/>
</g>
<!-- Node18 -->
<g id="node18" class="node">
<title>Node18</title>
<g id="a_node18"><a xlink:href="_simulated_transformation_provider_app_8cpp.html" target="_top" xlink:title=" ">
<polygon fill="white" stroke="black" points="1435,-78.5 1435,-130.5 1635,-130.5 1635,-78.5 1435,-78.5"/>
<text text-anchor="start" x="1443" y="-118.5" font-family="Helvetica,sans-Serif" font-size="10.00">build/FRI&#45;Client&#45;SDK</text>
<text text-anchor="start" x="1443" y="-107.5" font-family="Helvetica,sans-Serif" font-size="10.00">_Cpp/example/SimulatedTransformation</text>
<text text-anchor="start" x="1443" y="-96.5" font-family="Helvetica,sans-Serif" font-size="10.00">Provider/SimulatedTransformationProvider</text>
<text text-anchor="middle" x="1535" y="-85.5" font-family="Helvetica,sans-Serif" font-size="10.00">App.cpp</text>
</a>
</g>
</g>
<!-- Node4&#45;&gt;Node18 -->
<g id="edge19" class="edge">
<title>Node4&#45;&gt;Node18</title>
<path fill="none" stroke="midnightblue" d="M1098.5,-166.86C1244.3,-145.99 1284.27,-155.24 1426,-131 1428.87,-130.51 1431.78,-129.99 1434.72,-129.44"/>
<polygon fill="midnightblue" stroke="midnightblue" points="1097.67,-163.44 1088.28,-168.34 1098.68,-170.37 1097.67,-163.44"/>
</g>
<!-- Node19 -->
<g id="node19" class="node">
<title>Node19</title>
<g id="a_node19"><a xlink:href="_transformation_provider_app_8cpp.html" target="_top" xlink:title=" ">
<polygon fill="white" stroke="black" points="1653.5,-84 1653.5,-125 1846.5,-125 1846.5,-84 1653.5,-84"/>
<text text-anchor="start" x="1661.5" y="-113" font-family="Helvetica,sans-Serif" font-size="10.00">build/FRI&#45;Client&#45;SDK</text>
<text text-anchor="start" x="1661.5" y="-102" font-family="Helvetica,sans-Serif" font-size="10.00">_Cpp/example/Transformation</text>
<text text-anchor="middle" x="1750" y="-91" font-family="Helvetica,sans-Serif" font-size="10.00">Provider/TransformationProviderApp.cpp</text>
</a>
</g>
</g>
<!-- Node4&#45;&gt;Node19 -->
<g id="edge20" class="edge">
<title>Node4&#45;&gt;Node19</title>
<path fill="none" stroke="midnightblue" d="M1098.43,-166.93C1340.54,-137.52 1406.42,-167.12 1644,-131 1654.39,-129.42 1665.25,-127.33 1675.9,-125.02"/>
<polygon fill="midnightblue" stroke="midnightblue" points="1097.75,-163.49 1088.26,-168.19 1098.61,-170.43 1097.75,-163.49"/>
</g>
<!-- Node20 -->
<g id="node20" class="node">
<title>Node20</title>
<g id="a_node20"><a xlink:href="fri_l_b_r_client_8cpp.html" target="_top" xlink:title=" ">
<polygon fill="white" stroke="black" points="1864.5,-89.5 1864.5,-119.5 2037.5,-119.5 2037.5,-89.5 1864.5,-89.5"/>
<text text-anchor="start" x="1872.5" y="-107.5" font-family="Helvetica,sans-Serif" font-size="10.00">build/FRI&#45;Client&#45;SDK</text>
<text text-anchor="middle" x="1951" y="-96.5" font-family="Helvetica,sans-Serif" font-size="10.00">_Cpp/src/client_lbr/friLBRClient.cpp</text>
</a>
</g>
</g>
<!-- Node4&#45;&gt;Node20 -->
<g id="edge21" class="edge">
<title>Node4&#45;&gt;Node20</title>
<path fill="none" stroke="midnightblue" d="M1098.26,-166.97C1434.24,-129.11 1525.59,-182.57 1856,-131 1872.7,-128.39 1890.7,-123.99 1906.48,-119.57"/>
<polygon fill="midnightblue" stroke="midnightblue" points="1097.78,-163.5 1088.25,-168.12 1098.58,-170.46 1097.78,-163.5"/>
</g>
<!-- Node5&#45;&gt;Node2 -->
<g id="edge6" class="edge">
<title>Node5&#45;&gt;Node2</title>
<path fill="none" stroke="midnightblue" d="M163.73,-79.01C142.61,-67.06 117.55,-52.87 97.71,-41.64"/>
<polygon fill="midnightblue" stroke="midnightblue" points="162.08,-82.1 172.51,-83.98 165.53,-76.01 162.08,-82.1"/>
</g>
<!-- Node6 -->
<g id="node6" class="node">
<title>Node6</title>
<g id="a_node6"><a xlink:href="_i_o_access_app_8cpp.html" target="_top" xlink:title=" ">
<polygon fill="white" stroke="black" points="144,-0.5 144,-41.5 270,-41.5 270,-0.5 144,-0.5"/>
<text text-anchor="start" x="152" y="-29.5" font-family="Helvetica,sans-Serif" font-size="10.00">build/FRI&#45;Client&#45;SDK</text>
<text text-anchor="start" x="152" y="-18.5" font-family="Helvetica,sans-Serif" font-size="10.00">_Cpp/example/IOAccess</text>
<text text-anchor="middle" x="207" y="-7.5" font-family="Helvetica,sans-Serif" font-size="10.00">/IOAccessApp.cpp</text>
</a>
</g>
</g>
<!-- Node5&#45;&gt;Node6 -->
<g id="edge5" class="edge">
<title>Node5&#45;&gt;Node6</title>
<path fill="none" stroke="midnightblue" d="M207,-73.56C207,-62.88 207,-51.13 207,-41.55"/>
<polygon fill="midnightblue" stroke="midnightblue" points="203.5,-73.77 207,-83.77 210.5,-73.77 203.5,-73.77"/>
</g>
<!-- Node8 -->
<g id="node8" class="node">
<title>Node8</title>
<g id="a_node8"><a xlink:href="_my_l_b_r_app_8cpp.html" target="_top" xlink:title=" ">
<polygon fill="white" stroke="black" points="288.5,-0.5 288.5,-41.5 455.5,-41.5 455.5,-0.5 288.5,-0.5"/>
<text text-anchor="start" x="296.5" y="-29.5" font-family="Helvetica,sans-Serif" font-size="10.00">build/FRI&#45;Client&#45;SDK</text>
<text text-anchor="start" x="296.5" y="-18.5" font-family="Helvetica,sans-Serif" font-size="10.00">_Cpp/example/LBRClientTemplate</text>
<text text-anchor="middle" x="372" y="-7.5" font-family="Helvetica,sans-Serif" font-size="10.00">/MyLBRApp.cpp</text>
</a>
</g>
</g>
<!-- Node7&#45;&gt;Node8 -->
<g id="edge8" class="edge">
<title>Node7&#45;&gt;Node8</title>
<path fill="none" stroke="midnightblue" d="M503.18,-79.79C475.58,-67.63 442.37,-53 416.27,-41.5"/>
<polygon fill="midnightblue" stroke="midnightblue" points="502.13,-83.15 512.69,-83.98 504.95,-76.74 502.13,-83.15"/>
</g>
<!-- Node9 -->
<g id="node9" class="node">
<title>Node9</title>
<g id="a_node9"><a xlink:href="_my_l_b_r_client_8cpp.html" target="_top" xlink:title=" ">
<polygon fill="white" stroke="black" points="473.5,-0.5 473.5,-41.5 640.5,-41.5 640.5,-0.5 473.5,-0.5"/>
<text text-anchor="start" x="481.5" y="-29.5" font-family="Helvetica,sans-Serif" font-size="10.00">build/FRI&#45;Client&#45;SDK</text>
<text text-anchor="start" x="481.5" y="-18.5" font-family="Helvetica,sans-Serif" font-size="10.00">_Cpp/example/LBRClientTemplate</text>
<text text-anchor="middle" x="557" y="-7.5" font-family="Helvetica,sans-Serif" font-size="10.00">/MyLBRClient.cpp</text>
</a>
</g>
</g>
<!-- Node7&#45;&gt;Node9 -->
<g id="edge9" class="edge">
<title>Node7&#45;&gt;Node9</title>
<path fill="none" stroke="midnightblue" d="M557,-73.56C557,-62.88 557,-51.13 557,-41.55"/>
<polygon fill="midnightblue" stroke="midnightblue" points="553.5,-73.77 557,-83.77 560.5,-73.77 553.5,-73.77"/>
</g>
<!-- Node10&#45;&gt;Node3 -->
<g id="edge12" class="edge">
<title>Node10&#45;&gt;Node3</title>
<path fill="none" stroke="midnightblue" d="M869.04,-79.63C843.14,-67.5 812.08,-52.95 787.64,-41.5"/>
<polygon fill="midnightblue" stroke="midnightblue" points="867.78,-82.91 878.32,-83.98 870.75,-76.57 867.78,-82.91"/>
</g>
<!-- Node11 -->
<g id="node11" class="node">
<title>Node11</title>
<g id="a_node11"><a xlink:href="_l_b_r_joint_sine_overlay_app_8cpp.html" target="_top" xlink:title=" ">
<polygon fill="white" stroke="black" points="852,-0.5 852,-41.5 1028,-41.5 1028,-0.5 852,-0.5"/>
<text text-anchor="start" x="860" y="-29.5" font-family="Helvetica,sans-Serif" font-size="10.00">build/FRI&#45;Client&#45;SDK</text>
<text text-anchor="start" x="860" y="-18.5" font-family="Helvetica,sans-Serif" font-size="10.00">_Cpp/example/LBRJointSineOverlay</text>
<text text-anchor="middle" x="940" y="-7.5" font-family="Helvetica,sans-Serif" font-size="10.00">/LBRJointSineOverlayApp.cpp</text>
</a>
</g>
</g>
<!-- Node10&#45;&gt;Node11 -->
<g id="edge11" class="edge">
<title>Node10&#45;&gt;Node11</title>
<path fill="none" stroke="midnightblue" d="M927.26,-73.9C929.91,-63.13 932.83,-51.23 935.2,-41.55"/>
<polygon fill="midnightblue" stroke="midnightblue" points="923.83,-73.23 924.84,-83.77 930.62,-74.89 923.83,-73.23"/>
</g>
<!-- Node13 -->
<g id="node13" class="node">
<title>Node13</title>
<g id="a_node13"><a xlink:href="_l_b_r_torque_sine_overlay_app_8cpp.html" target="_top" xlink:title=" ">
<polygon fill="white" stroke="black" points="1045.5,-0.5 1045.5,-41.5 1230.5,-41.5 1230.5,-0.5 1045.5,-0.5"/>
<text text-anchor="start" x="1053.5" y="-29.5" font-family="Helvetica,sans-Serif" font-size="10.00">build/FRI&#45;Client&#45;SDK</text>
<text text-anchor="start" x="1053.5" y="-18.5" font-family="Helvetica,sans-Serif" font-size="10.00">_Cpp/example/LBRTorqueSineOverlay</text>
<text text-anchor="middle" x="1138" y="-7.5" font-family="Helvetica,sans-Serif" font-size="10.00">/LBRTorqueSineOverlayApp.cpp</text>
</a>
</g>
</g>
<!-- Node12&#45;&gt;Node13 -->
<g id="edge14" class="edge">
<title>Node12&#45;&gt;Node13</title>
<path fill="none" stroke="midnightblue" d="M1125.26,-73.9C1127.91,-63.13 1130.83,-51.23 1133.2,-41.55"/>
<polygon fill="midnightblue" stroke="midnightblue" points="1121.83,-73.23 1122.84,-83.77 1128.62,-74.89 1121.83,-73.23"/>
</g>
<!-- Node14 -->
<g id="node14" class="node">
<title>Node14</title>
<g id="a_node14"><a xlink:href="_l_b_r_torque_sine_overlay_client_8cpp.html" target="_top" xlink:title=" ">
<polygon fill="white" stroke="black" points="1248.5,-0.5 1248.5,-41.5 1433.5,-41.5 1433.5,-0.5 1248.5,-0.5"/>
<text text-anchor="start" x="1256.5" y="-29.5" font-family="Helvetica,sans-Serif" font-size="10.00">build/FRI&#45;Client&#45;SDK</text>
<text text-anchor="start" x="1256.5" y="-18.5" font-family="Helvetica,sans-Serif" font-size="10.00">_Cpp/example/LBRTorqueSineOverlay</text>
<text text-anchor="middle" x="1341" y="-7.5" font-family="Helvetica,sans-Serif" font-size="10.00">/LBRTorqueSineOverlayClient.cpp</text>
</a>
</g>
</g>
<!-- Node12&#45;&gt;Node14 -->
<g id="edge15" class="edge">
<title>Node12&#45;&gt;Node14</title>
<path fill="none" stroke="midnightblue" d="M1181.14,-80.42C1214.75,-68.14 1255.63,-53.2 1287.64,-41.5"/>
<polygon fill="midnightblue" stroke="midnightblue" points="1179.61,-77.26 1171.41,-83.98 1182.01,-83.83 1179.61,-77.26"/>
</g>
<!-- Node16 -->
<g id="node16" class="node">
<title>Node16</title>
<g id="a_node16"><a xlink:href="_l_b_r_wrench_sine_overlay_app_8cpp.html" target="_top" xlink:title=" ">
<polygon fill="white" stroke="black" points="1452,-0.5 1452,-41.5 1640,-41.5 1640,-0.5 1452,-0.5"/>
<text text-anchor="start" x="1460" y="-29.5" font-family="Helvetica,sans-Serif" font-size="10.00">build/FRI&#45;Client&#45;SDK</text>
<text text-anchor="start" x="1460" y="-18.5" font-family="Helvetica,sans-Serif" font-size="10.00">_Cpp/example/LBRWrenchSineOverlay</text>
<text text-anchor="middle" x="1546" y="-7.5" font-family="Helvetica,sans-Serif" font-size="10.00">/LBRWrenchSineOverlayApp.cpp</text>
</a>
</g>
</g>
<!-- Node15&#45;&gt;Node16 -->
<g id="edge17" class="edge">
<title>Node15&#45;&gt;Node16</title>
<path fill="none" stroke="midnightblue" d="M1386.14,-80.42C1419.75,-68.14 1460.63,-53.2 1492.64,-41.5"/>
<polygon fill="midnightblue" stroke="midnightblue" points="1384.61,-77.26 1376.41,-83.98 1387.01,-83.83 1384.61,-77.26"/>
</g>
<!-- Node17 -->
<g id="node17" class="node">
<title>Node17</title>
<g id="a_node17"><a xlink:href="_l_b_r_wrench_sine_overlay_client_8cpp.html" target="_top" xlink:title=" ">
<polygon fill="white" stroke="black" points="1658,-0.5 1658,-41.5 1846,-41.5 1846,-0.5 1658,-0.5"/>
<text text-anchor="start" x="1666" y="-29.5" font-family="Helvetica,sans-Serif" font-size="10.00">build/FRI&#45;Client&#45;SDK</text>
<text text-anchor="start" x="1666" y="-18.5" font-family="Helvetica,sans-Serif" font-size="10.00">_Cpp/example/LBRWrenchSineOverlay</text>
<text text-anchor="middle" x="1752" y="-7.5" font-family="Helvetica,sans-Serif" font-size="10.00">/LBRWrenchSineOverlayClient.cpp</text>
</a>
</g>
</g>
<!-- Node15&#45;&gt;Node17 -->
<g id="edge18" class="edge">
<title>Node15&#45;&gt;Node17</title>
<path fill="none" stroke="midnightblue" d="M1408.65,-81.73C1414.51,-80.41 1420.33,-79.16 1426,-78 1524.37,-57.92 1550.16,-59.57 1649,-42 1651.96,-41.47 1654.96,-40.93 1658,-40.38"/>
<polygon fill="midnightblue" stroke="midnightblue" points="1407.74,-78.34 1398.78,-83.99 1409.3,-85.17 1407.74,-78.34"/>
</g>
</g>
</svg>
