<?xml version="1.0" encoding="UTF-8" standalone="no"?>
<!DOCTYPE svg PUBLIC "-//W3C//DTD SVG 1.1//EN"
 "http://www.w3.org/Graphics/SVG/1.1/DTD/svg11.dtd">
<!-- Generated by graphviz version 2.43.0 (0)
 -->
<!-- Title: Graphical Class Hierarchy Pages: 1 -->
<svg width="343pt" height="78pt"
 viewBox="0.00 0.00 343.00 77.50" xmlns="http://www.w3.org/2000/svg" xmlns:xlink="http://www.w3.org/1999/xlink">
<g id="graph0" class="graph" transform="scale(1 1) rotate(0) translate(4 73.5)">
<title>Graphical Class Hierarchy</title>
<polygon fill="white" stroke="transparent" points="-4,4 -4,-73.5 339,-73.5 339,4 -4,4"/>
<!-- Node0 -->
<g id="node1" class="node">
<title>Node0</title>
<g id="a_node1"><a xlink:href="class_k_u_k_a_1_1_f_r_i_1_1_transformation_client.html" target="_top" xlink:title="Abstract FRI transformation client.">
<polygon fill="white" stroke="black" points="0,-17 0,-47 138,-47 138,-17 0,-17"/>
<text text-anchor="start" x="8" y="-35" font-family="Helvetica,sans-Serif" font-size="10.00">KUKA::FRI::Transformation</text>
<text text-anchor="middle" x="69" y="-24" font-family="Helvetica,sans-Serif" font-size="10.00">Client</text>
</a>
</g>
</g>
<!-- Node1 -->
<g id="node2" class="node">
<title>Node1</title>
<g id="a_node2"><a xlink:href="class_simulated_transformation_provider_client.html" target="_top" xlink:title="Test client that sends back simulated transformations corresponding to a slight translation with chan...">
<polygon fill="white" stroke="black" points="174,-39 174,-69 335,-69 335,-39 174,-39"/>
<text text-anchor="start" x="182" y="-57" font-family="Helvetica,sans-Serif" font-size="10.00">SimulatedTransformationProvider</text>
<text text-anchor="middle" x="254.5" y="-46" font-family="Helvetica,sans-Serif" font-size="10.00">Client</text>
</a>
</g>
</g>
<!-- Node0&#45;&gt;Node1 -->
<g id="edge1" class="edge">
<title>Node0&#45;&gt;Node1</title>
<path fill="none" stroke="midnightblue" d="M148.27,-41.38C156.71,-42.4 165.31,-43.43 173.77,-44.44"/>
<polygon fill="midnightblue" stroke="midnightblue" points="148.41,-37.88 138.07,-40.16 147.58,-44.83 148.41,-37.88"/>
</g>
<!-- Node2 -->
<g id="node3" class="node">
<title>Node2</title>
<g id="a_node3"><a xlink:href="class_transformation_provider_client.html" target="_top" xlink:title="Example client for changing the transformation matrix of a robot frame.">
<polygon fill="white" stroke="black" points="183,-0.5 183,-19.5 326,-19.5 326,-0.5 183,-0.5"/>
<text text-anchor="middle" x="254.5" y="-7.5" font-family="Helvetica,sans-Serif" font-size="10.00">TransformationProviderClient</text>
</a>
</g>
</g>
<!-- Node0&#45;&gt;Node2 -->
<g id="edge2" class="edge">
<title>Node0&#45;&gt;Node2</title>
<path fill="none" stroke="midnightblue" d="M148.09,-22.64C159.61,-21.26 171.42,-19.84 182.78,-18.48"/>
<polygon fill="midnightblue" stroke="midnightblue" points="147.58,-19.17 138.07,-23.84 148.41,-26.12 147.58,-19.17"/>
</g>
</g>
</svg>
