<?xml version="1.0" encoding="UTF-8" standalone="no"?>
<!DOCTYPE svg PUBLIC "-//W3C//DTD SVG 1.1//EN"
 "http://www.w3.org/Graphics/SVG/1.1/DTD/svg11.dtd">
<!-- Generated by graphviz version 2.43.0 (0)
 -->
<!-- Title: build/FRI&#45;Client&#45;SDK_Cpp/src/nanopb&#45;0.2.8/pb.h Pages: 1 -->
<!--zoomable 429 -->
<svg id="main" version="1.1" xmlns="http://www.w3.org/2000/svg" xmlns:xlink="http://www.w3.org/1999/xlink" xml:space="preserve" onload="init(evt)">
<style type="text/css"><![CDATA[
.edge:hover path { stroke: red; }
.edge:hover polygon { stroke: red; fill: red; }
]]></style>
<script type="text/javascript"><![CDATA[
var edges = document.getElementsByTagName('g');
if (edges && edges.length) {
  for (var i=0;i<edges.length;i++) {
    if (edges[i].id.substr(0,4)=='edge') {
      edges[i].setAttribute('class','edge');
    }
  }
}
]]></script>
        <defs>
                <circle id="rim" cx="0" cy="0" r="7"/>
                <circle id="rim2" cx="0" cy="0" r="3.5"/>
                <g id="zoomPlus">
                        <use xlink:href="#rim" fill="#404040">
                                <set attributeName="fill" to="#808080" begin="zoomplus.mouseover" end="zoomplus.mouseout"/>
                        </use>
                        <path d="M-4,0h8M0,-4v8" fill="none" stroke="white" stroke-width="1.5" pointer-events="none"/>
                </g>
                <g id="zoomMin">
                        <use xlink:href="#rim" fill="#404040">
                                <set attributeName="fill" to="#808080" begin="zoomminus.mouseover" end="zoomminus.mouseout"/>
                        </use>
                        <path d="M-4,0h8" fill="none" stroke="white" stroke-width="1.5" pointer-events="none"/>
                </g>
                <g id="dirArrow">
                        <path fill="none" stroke="white" stroke-width="1.5" d="M0,-3.0v7 M-2.5,-0.5L0,-3.0L2.5,-0.5"/>
                </g>
               <g id="resetDef">
                       <use xlink:href="#rim2" fill="#404040">
                               <set attributeName="fill" to="#808080" begin="reset.mouseover" end="reset.mouseout"/>
                       </use>
               </g>
        </defs>

<script type="text/javascript">
var viewWidth = 1007;
var viewHeight = 429;
var sectionId = 'dynsection-1';
</script>
<script xlink:href="svgpan.js"/>
<svg id="graph" class="graph">
<g id="viewport">
<title>build/FRI&#45;Client&#45;SDK_Cpp/src/nanopb&#45;0.2.8/pb.h</title>
<polygon fill="white" stroke="transparent" points="-4,4 -4,-425 1003,-425 1003,4 -4,4"/>
<!-- Node1 -->
<g id="node1" class="node">
<title>Node1</title>
<g id="a_node1"><a xlink:title=" ">
<polygon fill="#bfbfbf" stroke="black" points="242.5,-390.5 242.5,-420.5 379.5,-420.5 379.5,-390.5 242.5,-390.5"/>
<text text-anchor="start" x="250.5" y="-408.5" font-family="Helvetica,sans-Serif" font-size="10.00">build/FRI&#45;Client&#45;SDK</text>
<text text-anchor="middle" x="311" y="-397.5" font-family="Helvetica,sans-Serif" font-size="10.00">_Cpp/src/nanopb&#45;0.2.8/pb.h</text>
</a>
</g>
</g>
<!-- Node2 -->
<g id="node2" class="node">
<title>Node2</title>
<g id="a_node2"><a xlink:href="pb__decode_8c.html" target="_top" xlink:title=" ">
<polygon fill="white" stroke="black" points="0,-234.5 0,-275.5 116,-275.5 116,-234.5 0,-234.5"/>
<text text-anchor="start" x="8" y="-263.5" font-family="Helvetica,sans-Serif" font-size="10.00">build/FRI&#45;Client&#45;SDK</text>
<text text-anchor="start" x="8" y="-252.5" font-family="Helvetica,sans-Serif" font-size="10.00">_Cpp/src/nanopb&#45;0.2.8</text>
<text text-anchor="middle" x="58" y="-241.5" font-family="Helvetica,sans-Serif" font-size="10.00">/pb_decode.c</text>
</a>
</g>
</g>
<!-- Node1&#45;&gt;Node2 -->
<g id="edge1" class="edge">
<title>Node1&#45;&gt;Node2</title>
<path fill="none" stroke="midnightblue" d="M232.34,-393.85C179.68,-385.29 116.42,-371.76 96,-354 72.87,-333.88 63.73,-297.96 60.18,-275.65"/>
<polygon fill="midnightblue" stroke="midnightblue" points="231.95,-397.33 242.37,-395.44 233.05,-390.42 231.95,-397.33"/>
</g>
<!-- Node3 -->
<g id="node3" class="node">
<title>Node3</title>
<g id="a_node3"><a xlink:href="pb__decode_8h.html" target="_top" xlink:title=" ">
<polygon fill="white" stroke="black" points="105,-312.5 105,-353.5 221,-353.5 221,-312.5 105,-312.5"/>
<text text-anchor="start" x="113" y="-341.5" font-family="Helvetica,sans-Serif" font-size="10.00">build/FRI&#45;Client&#45;SDK</text>
<text text-anchor="start" x="113" y="-330.5" font-family="Helvetica,sans-Serif" font-size="10.00">_Cpp/src/nanopb&#45;0.2.8</text>
<text text-anchor="middle" x="163" y="-319.5" font-family="Helvetica,sans-Serif" font-size="10.00">/pb_decode.h</text>
</a>
</g>
</g>
<!-- Node1&#45;&gt;Node3 -->
<g id="edge2" class="edge">
<title>Node1&#45;&gt;Node3</title>
<path fill="none" stroke="midnightblue" d="M272.15,-386C251.19,-376.01 225.32,-363.69 204.03,-353.55"/>
<polygon fill="midnightblue" stroke="midnightblue" points="270.87,-389.26 281.41,-390.4 273.88,-382.94 270.87,-389.26"/>
</g>
<!-- Node6 -->
<g id="node6" class="node">
<title>Node6</title>
<g id="a_node6"><a xlink:href="pb__encode_8c.html" target="_top" xlink:title=" ">
<polygon fill="white" stroke="black" points="210,-234.5 210,-275.5 326,-275.5 326,-234.5 210,-234.5"/>
<text text-anchor="start" x="218" y="-263.5" font-family="Helvetica,sans-Serif" font-size="10.00">build/FRI&#45;Client&#45;SDK</text>
<text text-anchor="start" x="218" y="-252.5" font-family="Helvetica,sans-Serif" font-size="10.00">_Cpp/src/nanopb&#45;0.2.8</text>
<text text-anchor="middle" x="268" y="-241.5" font-family="Helvetica,sans-Serif" font-size="10.00">/pb_encode.c</text>
</a>
</g>
</g>
<!-- Node1&#45;&gt;Node6 -->
<g id="edge6" class="edge">
<title>Node1&#45;&gt;Node6</title>
<path fill="none" stroke="midnightblue" d="M298.4,-381.16C294.29,-372.79 290.01,-363.15 287,-354 278.29,-327.49 273.02,-295.57 270.31,-275.52"/>
<polygon fill="midnightblue" stroke="midnightblue" points="295.41,-383 303.07,-390.31 301.64,-379.82 295.41,-383"/>
</g>
<!-- Node7 -->
<g id="node7" class="node">
<title>Node7</title>
<g id="a_node7"><a xlink:href="pb__encode_8h.html" target="_top" xlink:title=" ">
<polygon fill="white" stroke="black" points="296,-312.5 296,-353.5 412,-353.5 412,-312.5 296,-312.5"/>
<text text-anchor="start" x="304" y="-341.5" font-family="Helvetica,sans-Serif" font-size="10.00">build/FRI&#45;Client&#45;SDK</text>
<text text-anchor="start" x="304" y="-330.5" font-family="Helvetica,sans-Serif" font-size="10.00">_Cpp/src/nanopb&#45;0.2.8</text>
<text text-anchor="middle" x="354" y="-319.5" font-family="Helvetica,sans-Serif" font-size="10.00">/pb_encode.h</text>
</a>
</g>
</g>
<!-- Node1&#45;&gt;Node7 -->
<g id="edge7" class="edge">
<title>Node1&#45;&gt;Node7</title>
<path fill="none" stroke="midnightblue" d="M324.91,-381.7C330.44,-372.63 336.73,-362.31 342.05,-353.59"/>
<polygon fill="midnightblue" stroke="midnightblue" points="321.92,-379.87 319.7,-390.23 327.9,-383.52 321.92,-379.87"/>
</g>
<!-- Node9 -->
<g id="node9" class="node">
<title>Node9</title>
<g id="a_node9"><a xlink:href="pb__frimessages__callbacks_8h.html" target="_top" xlink:title=" ">
<polygon fill="white" stroke="black" points="382,-234.5 382,-275.5 512,-275.5 512,-234.5 382,-234.5"/>
<text text-anchor="start" x="390" y="-263.5" font-family="Helvetica,sans-Serif" font-size="10.00">build/FRI&#45;Client&#45;SDK</text>
<text text-anchor="start" x="390" y="-252.5" font-family="Helvetica,sans-Serif" font-size="10.00">_Cpp/src/protobuf/pb</text>
<text text-anchor="middle" x="447" y="-241.5" font-family="Helvetica,sans-Serif" font-size="10.00">_frimessages_callbacks.h</text>
</a>
</g>
</g>
<!-- Node1&#45;&gt;Node9 -->
<g id="edge11" class="edge">
<title>Node1&#45;&gt;Node9</title>
<path fill="none" stroke="midnightblue" d="M374.49,-386.55C391.66,-378.97 408.84,-368.44 421,-354 439.82,-331.65 445.17,-297.08 446.6,-275.53"/>
<polygon fill="midnightblue" stroke="midnightblue" points="372.89,-383.42 364.98,-390.46 375.56,-389.89 372.89,-383.42"/>
</g>
<!-- Node18 -->
<g id="node18" class="node">
<title>Node18</title>
<g id="a_node18"><a xlink:href="_f_r_i_messages_8pb_8h.html" target="_top" xlink:title=" ">
<polygon fill="white" stroke="black" points="601,-312.5 601,-353.5 717,-353.5 717,-312.5 601,-312.5"/>
<text text-anchor="start" x="609" y="-341.5" font-family="Helvetica,sans-Serif" font-size="10.00">build/FRI&#45;Client&#45;SDK</text>
<text text-anchor="start" x="609" y="-330.5" font-family="Helvetica,sans-Serif" font-size="10.00">_Cpp/src/protobuf_gen</text>
<text text-anchor="middle" x="659" y="-319.5" font-family="Helvetica,sans-Serif" font-size="10.00">/FRIMessages.pb.h</text>
</a>
</g>
</g>
<!-- Node1&#45;&gt;Node18 -->
<g id="edge27" class="edge">
<title>Node1&#45;&gt;Node18</title>
<path fill="none" stroke="midnightblue" d="M389.82,-388.53C453.94,-375.54 542.97,-357.51 600.78,-345.79"/>
<polygon fill="midnightblue" stroke="midnightblue" points="388.86,-385.16 379.75,-390.57 390.25,-392.02 388.86,-385.16"/>
</g>
<!-- Node3&#45;&gt;Node2 -->
<g id="edge3" class="edge">
<title>Node3&#45;&gt;Node2</title>
<path fill="none" stroke="midnightblue" d="M127.56,-306.35C113.64,-296.27 97.92,-284.89 84.95,-275.51"/>
<polygon fill="midnightblue" stroke="midnightblue" points="125.81,-309.4 135.96,-312.43 129.91,-303.73 125.81,-309.4"/>
</g>
<!-- Node4 -->
<g id="node4" class="node">
<title>Node4</title>
<g id="a_node4"><a xlink:href="fri_monitoring_message_decoder_8cpp.html" target="_top" xlink:title=" ">
<polygon fill="white" stroke="black" points="109.5,-78.5 109.5,-119.5 260.5,-119.5 260.5,-78.5 109.5,-78.5"/>
<text text-anchor="start" x="117.5" y="-107.5" font-family="Helvetica,sans-Serif" font-size="10.00">build/FRI&#45;Client&#45;SDK</text>
<text text-anchor="start" x="117.5" y="-96.5" font-family="Helvetica,sans-Serif" font-size="10.00">_Cpp/src/protobuf/friMonitoring</text>
<text text-anchor="middle" x="185" y="-85.5" font-family="Helvetica,sans-Serif" font-size="10.00">MessageDecoder.cpp</text>
</a>
</g>
</g>
<!-- Node3&#45;&gt;Node4 -->
<g id="edge4" class="edge">
<title>Node3&#45;&gt;Node4</title>
<path fill="none" stroke="midnightblue" d="M159.65,-302.14C156.45,-266.87 153.42,-206.61 163,-156 165.37,-143.48 170.48,-130.17 175.18,-119.68"/>
<polygon fill="midnightblue" stroke="midnightblue" points="156.18,-302.63 160.63,-312.24 163.14,-301.95 156.18,-302.63"/>
</g>
<!-- Node5 -->
<g id="node5" class="node">
<title>Node5</title>
<g id="a_node5"><a xlink:href="pb__frimessages__callbacks_8c.html" target="_top" xlink:title=" ">
<polygon fill="white" stroke="black" points="172,-156.5 172,-197.5 302,-197.5 302,-156.5 172,-156.5"/>
<text text-anchor="start" x="180" y="-185.5" font-family="Helvetica,sans-Serif" font-size="10.00">build/FRI&#45;Client&#45;SDK</text>
<text text-anchor="start" x="180" y="-174.5" font-family="Helvetica,sans-Serif" font-size="10.00">_Cpp/src/protobuf/pb</text>
<text text-anchor="middle" x="237" y="-163.5" font-family="Helvetica,sans-Serif" font-size="10.00">_frimessages_callbacks.c</text>
</a>
</g>
</g>
<!-- Node3&#45;&gt;Node5 -->
<g id="edge5" class="edge">
<title>Node3&#45;&gt;Node5</title>
<path fill="none" stroke="midnightblue" d="M172.64,-302.65C179.56,-282.82 189.66,-256.3 201,-234 207.39,-221.43 215.87,-208.12 222.99,-197.64"/>
<polygon fill="midnightblue" stroke="midnightblue" points="169.24,-301.75 169.31,-312.35 175.86,-304.02 169.24,-301.75"/>
</g>
<!-- Node7&#45;&gt;Node5 -->
<g id="edge10" class="edge">
<title>Node7&#45;&gt;Node5</title>
<path fill="none" stroke="midnightblue" d="M354.55,-302.25C353.52,-281.38 349.18,-253.8 335,-234 323.7,-218.23 306.49,-206.28 289.62,-197.56"/>
<polygon fill="midnightblue" stroke="midnightblue" points="351.05,-302.56 354.82,-312.47 358.05,-302.38 351.05,-302.56"/>
</g>
<!-- Node7&#45;&gt;Node6 -->
<g id="edge8" class="edge">
<title>Node7&#45;&gt;Node6</title>
<path fill="none" stroke="midnightblue" d="M324.33,-305.78C313.09,-295.84 300.49,-284.72 290.07,-275.51"/>
<polygon fill="midnightblue" stroke="midnightblue" points="322.04,-308.43 331.85,-312.43 326.68,-303.18 322.04,-308.43"/>
</g>
<!-- Node8 -->
<g id="node8" class="node">
<title>Node8</title>
<g id="a_node8"><a xlink:href="fri_command_message_encoder_8cpp.html" target="_top" xlink:title=" ">
<polygon fill="white" stroke="black" points="661.5,-78.5 661.5,-119.5 812.5,-119.5 812.5,-78.5 661.5,-78.5"/>
<text text-anchor="start" x="669.5" y="-107.5" font-family="Helvetica,sans-Serif" font-size="10.00">build/FRI&#45;Client&#45;SDK</text>
<text text-anchor="start" x="669.5" y="-96.5" font-family="Helvetica,sans-Serif" font-size="10.00">_Cpp/src/protobuf/friCommand</text>
<text text-anchor="middle" x="737" y="-85.5" font-family="Helvetica,sans-Serif" font-size="10.00">MessageEncoder.cpp</text>
</a>
</g>
</g>
<!-- Node7&#45;&gt;Node8 -->
<g id="edge9" class="edge">
<title>Node7&#45;&gt;Node8</title>
<path fill="none" stroke="midnightblue" d="M421.76,-309.78C452.18,-299.68 488.46,-287.45 521,-276 571.94,-258.08 583.14,-249.03 635,-234 708.34,-212.75 754.99,-257.38 803,-198 814.74,-183.48 810.84,-172.94 803,-156 796.18,-141.27 783.37,-129 770.83,-119.74"/>
<polygon fill="midnightblue" stroke="midnightblue" points="420.5,-306.51 412.11,-312.98 422.7,-313.16 420.5,-306.51"/>
</g>
<!-- Node9&#45;&gt;Node5 -->
<g id="edge26" class="edge">
<title>Node9&#45;&gt;Node5</title>
<path fill="none" stroke="midnightblue" d="M383.14,-230.89C353.66,-220.22 319.04,-207.69 290.9,-197.51"/>
<polygon fill="midnightblue" stroke="midnightblue" points="382.33,-234.32 392.92,-234.43 384.71,-227.73 382.33,-234.32"/>
</g>
<!-- Node10 -->
<g id="node10" class="node">
<title>Node10</title>
<g id="a_node10"><a xlink:href="fri_l_b_r_command_8cpp.html" target="_top" xlink:title=" ">
<polygon fill="white" stroke="black" points="68.5,-6 68.5,-36 261.5,-36 261.5,-6 68.5,-6"/>
<text text-anchor="start" x="76.5" y="-24" font-family="Helvetica,sans-Serif" font-size="10.00">build/FRI&#45;Client&#45;SDK</text>
<text text-anchor="middle" x="165" y="-13" font-family="Helvetica,sans-Serif" font-size="10.00">_Cpp/src/client_lbr/friLBRCommand.cpp</text>
</a>
</g>
</g>
<!-- Node9&#45;&gt;Node10 -->
<g id="edge12" class="edge">
<title>Node9&#45;&gt;Node10</title>
<path fill="none" stroke="midnightblue" d="M407.17,-228.82C394.12,-219.79 379.92,-209.08 368,-198 317.36,-150.93 322.44,-121.88 269,-78 247.76,-60.56 220.26,-46.04 198.88,-36.15"/>
<polygon fill="midnightblue" stroke="midnightblue" points="405.31,-231.78 415.55,-234.5 409.24,-225.99 405.31,-231.78"/>
</g>
<!-- Node11 -->
<g id="node11" class="node">
<title>Node11</title>
<g id="a_node11"><a xlink:href="fri_l_b_r_state_8cpp.html" target="_top" xlink:title=" ">
<polygon fill="white" stroke="black" points="279.5,-6 279.5,-36 450.5,-36 450.5,-6 279.5,-6"/>
<text text-anchor="start" x="287.5" y="-24" font-family="Helvetica,sans-Serif" font-size="10.00">build/FRI&#45;Client&#45;SDK</text>
<text text-anchor="middle" x="365" y="-13" font-family="Helvetica,sans-Serif" font-size="10.00">_Cpp/src/client_lbr/friLBRState.cpp</text>
</a>
</g>
</g>
<!-- Node9&#45;&gt;Node11 -->
<g id="edge13" class="edge">
<title>Node9&#45;&gt;Node11</title>
<path fill="none" stroke="midnightblue" d="M411.49,-227.69C402.43,-219.22 393.65,-209.11 388,-198 360.19,-143.35 361.72,-67.31 363.78,-36.16"/>
<polygon fill="midnightblue" stroke="midnightblue" points="409.3,-230.43 419.11,-234.41 413.93,-225.18 409.3,-230.43"/>
</g>
<!-- Node12 -->
<g id="node12" class="node">
<title>Node12</title>
<g id="a_node12"><a xlink:href="fri_transformation_client_8cpp.html" target="_top" xlink:title=" ">
<polygon fill="white" stroke="black" points="659.5,-0.5 659.5,-41.5 796.5,-41.5 796.5,-0.5 659.5,-0.5"/>
<text text-anchor="start" x="667.5" y="-29.5" font-family="Helvetica,sans-Serif" font-size="10.00">build/FRI&#45;Client&#45;SDK</text>
<text text-anchor="start" x="667.5" y="-18.5" font-family="Helvetica,sans-Serif" font-size="10.00">_Cpp/src/client_trafo</text>
<text text-anchor="middle" x="728" y="-7.5" font-family="Helvetica,sans-Serif" font-size="10.00">/friTransformationClient.cpp</text>
</a>
</g>
</g>
<!-- Node9&#45;&gt;Node12 -->
<g id="edge14" class="edge">
<title>Node9&#45;&gt;Node12</title>
<path fill="none" stroke="midnightblue" d="M505.3,-230.06C522.88,-221.38 541.58,-210.56 557,-198 609.96,-154.87 603.91,-125.48 653,-78 666.78,-64.67 683.79,-51.73 698.13,-41.65"/>
<polygon fill="midnightblue" stroke="midnightblue" points="503.75,-226.92 496.24,-234.4 506.77,-233.24 503.75,-226.92"/>
</g>
<!-- Node13 -->
<g id="node13" class="node">
<title>Node13</title>
<g id="a_node13"><a xlink:href="fri_command_message_encoder_8h.html" target="_top" xlink:title=" ">
<polygon fill="white" stroke="black" points="642.5,-156.5 642.5,-197.5 793.5,-197.5 793.5,-156.5 642.5,-156.5"/>
<text text-anchor="start" x="650.5" y="-185.5" font-family="Helvetica,sans-Serif" font-size="10.00">build/FRI&#45;Client&#45;SDK</text>
<text text-anchor="start" x="650.5" y="-174.5" font-family="Helvetica,sans-Serif" font-size="10.00">_Cpp/src/protobuf/friCommand</text>
<text text-anchor="middle" x="718" y="-163.5" font-family="Helvetica,sans-Serif" font-size="10.00">MessageEncoder.h</text>
</a>
</g>
</g>
<!-- Node9&#45;&gt;Node13 -->
<g id="edge15" class="edge">
<title>Node9&#45;&gt;Node13</title>
<path fill="none" stroke="midnightblue" d="M522.08,-232.94C561.49,-221.89 609.48,-208.43 648.09,-197.6"/>
<polygon fill="midnightblue" stroke="midnightblue" points="520.94,-229.63 512.26,-235.7 522.83,-236.37 520.94,-229.63"/>
</g>
<!-- Node17 -->
<g id="node17" class="node">
<title>Node17</title>
<g id="a_node17"><a xlink:href="fri_monitoring_message_decoder_8h.html" target="_top" xlink:title=" ">
<polygon fill="white" stroke="black" points="396.5,-156.5 396.5,-197.5 547.5,-197.5 547.5,-156.5 396.5,-156.5"/>
<text text-anchor="start" x="404.5" y="-185.5" font-family="Helvetica,sans-Serif" font-size="10.00">build/FRI&#45;Client&#45;SDK</text>
<text text-anchor="start" x="404.5" y="-174.5" font-family="Helvetica,sans-Serif" font-size="10.00">_Cpp/src/protobuf/friMonitoring</text>
<text text-anchor="middle" x="472" y="-163.5" font-family="Helvetica,sans-Serif" font-size="10.00">MessageDecoder.h</text>
</a>
</g>
</g>
<!-- Node9&#45;&gt;Node17 -->
<g id="edge23" class="edge">
<title>Node9&#45;&gt;Node17</title>
<path fill="none" stroke="midnightblue" d="M456.58,-224.88C459.59,-215.72 462.85,-205.83 465.58,-197.51"/>
<polygon fill="midnightblue" stroke="midnightblue" points="453.24,-223.84 453.44,-234.43 459.89,-226.02 453.24,-223.84"/>
</g>
<!-- Node13&#45;&gt;Node8 -->
<g id="edge22" class="edge">
<title>Node13&#45;&gt;Node8</title>
<path fill="none" stroke="midnightblue" d="M725.35,-146.59C727.62,-137.51 730.06,-127.74 732.12,-119.51"/>
<polygon fill="midnightblue" stroke="midnightblue" points="721.92,-145.88 722.89,-156.43 728.71,-147.58 721.92,-145.88"/>
</g>
<!-- Node14 -->
<g id="node14" class="node">
<title>Node14</title>
<g id="a_node14"><a xlink:href="fri_client_data_8h.html" target="_top" xlink:title=" ">
<polygon fill="white" stroke="black" points="440,-84 440,-114 586,-114 586,-84 440,-84"/>
<text text-anchor="start" x="448" y="-102" font-family="Helvetica,sans-Serif" font-size="10.00">build/FRI&#45;Client&#45;SDK</text>
<text text-anchor="middle" x="513" y="-91" font-family="Helvetica,sans-Serif" font-size="10.00">_Cpp/src/base/friClientData.h</text>
</a>
</g>
</g>
<!-- Node13&#45;&gt;Node14 -->
<g id="edge16" class="edge">
<title>Node13&#45;&gt;Node14</title>
<path fill="none" stroke="midnightblue" d="M655.78,-152.93C621.64,-140.28 580.41,-124.99 551.05,-114.11"/>
<polygon fill="midnightblue" stroke="midnightblue" points="654.61,-156.23 665.21,-156.43 657.05,-149.67 654.61,-156.23"/>
</g>
<!-- Node14&#45;&gt;Node10 -->
<g id="edge19" class="edge">
<title>Node14&#45;&gt;Node10</title>
<path fill="none" stroke="midnightblue" d="M438.61,-81.75C376.33,-68.15 288.38,-48.95 229.15,-36.01"/>
<polygon fill="midnightblue" stroke="midnightblue" points="438.25,-85.26 448.77,-83.97 439.74,-78.42 438.25,-85.26"/>
</g>
<!-- Node14&#45;&gt;Node11 -->
<g id="edge20" class="edge">
<title>Node14&#45;&gt;Node11</title>
<path fill="none" stroke="midnightblue" d="M476.34,-79.17C450.33,-65.82 415.97,-48.18 392.34,-36.04"/>
<polygon fill="midnightblue" stroke="midnightblue" points="475.01,-82.43 485.51,-83.88 478.21,-76.2 475.01,-82.43"/>
</g>
<!-- Node14&#45;&gt;Node12 -->
<g id="edge21" class="edge">
<title>Node14&#45;&gt;Node12</title>
<path fill="none" stroke="midnightblue" d="M562.12,-80.64C595.09,-68.98 638.58,-53.61 672.75,-41.53"/>
<polygon fill="midnightblue" stroke="midnightblue" points="560.95,-77.34 552.68,-83.97 563.28,-83.94 560.95,-77.34"/>
</g>
<!-- Node15 -->
<g id="node15" class="node">
<title>Node15</title>
<g id="a_node15"><a xlink:href="fri_client_application_8cpp.html" target="_top" xlink:title=" ">
<polygon fill="white" stroke="black" points="815,-6 815,-36 999,-36 999,-6 815,-6"/>
<text text-anchor="start" x="823" y="-24" font-family="Helvetica,sans-Serif" font-size="10.00">build/FRI&#45;Client&#45;SDK</text>
<text text-anchor="middle" x="907" y="-13" font-family="Helvetica,sans-Serif" font-size="10.00">_Cpp/src/base/friClientApplication.cpp</text>
</a>
</g>
</g>
<!-- Node14&#45;&gt;Node15 -->
<g id="edge17" class="edge">
<title>Node14&#45;&gt;Node15</title>
<path fill="none" stroke="midnightblue" d="M596.13,-82.26C654.8,-71.12 735.24,-55.77 806,-42 815.83,-40.09 826.19,-38.06 836.38,-36.05"/>
<polygon fill="midnightblue" stroke="midnightblue" points="595.35,-78.85 586.18,-84.15 596.65,-85.73 595.35,-78.85"/>
</g>
<!-- Node16 -->
<g id="node16" class="node">
<title>Node16</title>
<g id="a_node16"><a xlink:href="fri_l_b_r_client_8cpp.html" target="_top" xlink:title=" ">
<polygon fill="white" stroke="black" points="468.5,-6 468.5,-36 641.5,-36 641.5,-6 468.5,-6"/>
<text text-anchor="start" x="476.5" y="-24" font-family="Helvetica,sans-Serif" font-size="10.00">build/FRI&#45;Client&#45;SDK</text>
<text text-anchor="middle" x="555" y="-13" font-family="Helvetica,sans-Serif" font-size="10.00">_Cpp/src/client_lbr/friLBRClient.cpp</text>
</a>
</g>
</g>
<!-- Node14&#45;&gt;Node16 -->
<g id="edge18" class="edge">
<title>Node14&#45;&gt;Node16</title>
<path fill="none" stroke="midnightblue" d="M525.87,-74.7C532.82,-62.14 541.16,-47.04 547.14,-36.23"/>
<polygon fill="midnightblue" stroke="midnightblue" points="522.67,-73.26 520.9,-83.7 528.8,-76.65 522.67,-73.26"/>
</g>
<!-- Node17&#45;&gt;Node4 -->
<g id="edge25" class="edge">
<title>Node17&#45;&gt;Node4</title>
<path fill="none" stroke="midnightblue" d="M388.38,-153.86C347.32,-142.98 298.29,-130 258.66,-119.51"/>
<polygon fill="midnightblue" stroke="midnightblue" points="387.53,-157.25 398.09,-156.43 389.32,-150.48 387.53,-157.25"/>
</g>
<!-- Node17&#45;&gt;Node14 -->
<g id="edge24" class="edge">
<title>Node17&#45;&gt;Node14</title>
<path fill="none" stroke="midnightblue" d="M487.48,-147.3C493.58,-136 500.31,-123.52 505.33,-114.23"/>
<polygon fill="midnightblue" stroke="midnightblue" points="484.23,-145.97 482.56,-156.43 490.39,-149.29 484.23,-145.97"/>
</g>
<!-- Node18&#45;&gt;Node9 -->
<g id="edge33" class="edge">
<title>Node18&#45;&gt;Node9</title>
<path fill="none" stroke="midnightblue" d="M594.92,-309.03C565.07,-298.33 529.94,-285.73 501.41,-275.51"/>
<polygon fill="midnightblue" stroke="midnightblue" points="593.81,-312.35 604.4,-312.43 596.17,-305.76 593.81,-312.35"/>
</g>
<!-- Node18&#45;&gt;Node12 -->
<g id="edge30" class="edge">
<title>Node18&#45;&gt;Node12</title>
<path fill="none" stroke="midnightblue" d="M726.8,-312.88C747.82,-304.32 769.71,-292.36 786,-276 812.68,-249.2 811.81,-234.92 820,-198 831.55,-145.93 848.35,-124.38 822,-78 812.99,-62.15 797.52,-50.31 781.7,-41.7"/>
<polygon fill="midnightblue" stroke="midnightblue" points="725.3,-309.71 717.23,-316.58 727.82,-316.24 725.3,-309.71"/>
</g>
<!-- Node18&#45;&gt;Node13 -->
<g id="edge31" class="edge">
<title>Node18&#45;&gt;Node13</title>
<path fill="none" stroke="midnightblue" d="M726.59,-311.88C743.31,-303.54 759.22,-291.95 769,-276 778.76,-260.09 775.74,-251.41 769,-234 763.59,-220.02 752.88,-207.39 742.67,-197.67"/>
<polygon fill="midnightblue" stroke="midnightblue" points="724.87,-308.82 717.26,-316.19 727.8,-315.18 724.87,-308.82"/>
</g>
<!-- Node18&#45;&gt;Node14 -->
<g id="edge29" class="edge">
<title>Node18&#45;&gt;Node14</title>
<path fill="none" stroke="midnightblue" d="M643.91,-303.17C624.98,-267.67 590.87,-205.97 557,-156 547.01,-141.26 534.34,-125.38 525.16,-114.31"/>
<polygon fill="midnightblue" stroke="midnightblue" points="641.06,-305.26 648.84,-312.45 647.24,-301.98 641.06,-305.26"/>
</g>
<!-- Node18&#45;&gt;Node15 -->
<g id="edge28" class="edge">
<title>Node18&#45;&gt;Node15</title>
<path fill="none" stroke="midnightblue" d="M727.15,-320.32C756.48,-312.23 789.19,-298.65 812,-276 882.49,-206 901.32,-78.84 905.76,-36.3"/>
<polygon fill="midnightblue" stroke="midnightblue" points="726.15,-316.96 717.35,-322.86 727.91,-323.74 726.15,-316.96"/>
</g>
<!-- Node18&#45;&gt;Node17 -->
<g id="edge32" class="edge">
<title>Node18&#45;&gt;Node17</title>
<path fill="none" stroke="midnightblue" d="M627.3,-305.89C590.08,-275.24 529.19,-225.1 495.79,-197.59"/>
<polygon fill="midnightblue" stroke="midnightblue" points="625.37,-308.84 635.32,-312.5 629.82,-303.44 625.37,-308.84"/>
</g>
<!-- Node19 -->
<g id="node19" class="node">
<title>Node19</title>
<g id="a_node19"><a xlink:href="_f_r_i_messages_8pb_8c.html" target="_top" xlink:title=" ">
<polygon fill="white" stroke="black" points="644,-234.5 644,-275.5 760,-275.5 760,-234.5 644,-234.5"/>
<text text-anchor="start" x="652" y="-263.5" font-family="Helvetica,sans-Serif" font-size="10.00">build/FRI&#45;Client&#45;SDK</text>
<text text-anchor="start" x="652" y="-252.5" font-family="Helvetica,sans-Serif" font-size="10.00">_Cpp/src/protobuf_gen</text>
<text text-anchor="middle" x="702" y="-241.5" font-family="Helvetica,sans-Serif" font-size="10.00">/FRIMessages.pb.c</text>
</a>
</g>
</g>
<!-- Node18&#45;&gt;Node19 -->
<g id="edge34" class="edge">
<title>Node18&#45;&gt;Node19</title>
<path fill="none" stroke="midnightblue" d="M675.14,-303.47C680.42,-294.14 686.15,-284.01 690.96,-275.51"/>
<polygon fill="midnightblue" stroke="midnightblue" points="671.95,-302 670.07,-312.43 678.04,-305.45 671.95,-302"/>
</g>
</g>
</svg>
        <g id="navigator" transform="translate(0 0)" fill="#404254">
                <rect fill="#f2f5e9" fill-opacity="0.5" stroke="#606060" stroke-width=".5" x="0" y="0" width="60" height="60"/>
                <use id="zoomplus" xlink:href="#zoomPlus" x="17" y="9" onmousedown="handleZoom(evt,'in')"/>
                <use id="zoomminus" xlink:href="#zoomMin" x="42" y="9" onmousedown="handleZoom(evt,'out')"/>
                <use id="reset" xlink:href="#resetDef" x="30" y="36" onmousedown="handleReset()"/>
                <g id="arrowUp" xlink:href="#dirArrow" transform="translate(30 24)" onmousedown="handlePan(0,-1)">
                  <use xlink:href="#rim" fill="#404040">
                        <set attributeName="fill" to="#808080" begin="arrowUp.mouseover" end="arrowUp.mouseout"/>
                  </use>
                  <path fill="none" stroke="white" stroke-width="1.5" d="M0,-3.0v7 M-2.5,-0.5L0,-3.0L2.5,-0.5"/>
                </g>
                <g id="arrowRight" xlink:href="#dirArrow" transform="rotate(90) translate(36 -43)" onmousedown="handlePan(1,0)">
                  <use xlink:href="#rim" fill="#404040">
                        <set attributeName="fill" to="#808080" begin="arrowRight.mouseover" end="arrowRight.mouseout"/>
                  </use>
                  <path fill="none" stroke="white" stroke-width="1.5" d="M0,-3.0v7 M-2.5,-0.5L0,-3.0L2.5,-0.5"/>
                </g>
                <g id="arrowDown" xlink:href="#dirArrow" transform="rotate(180) translate(-30 -48)" onmousedown="handlePan(0,1)">
                  <use xlink:href="#rim" fill="#404040">
                        <set attributeName="fill" to="#808080" begin="arrowDown.mouseover" end="arrowDown.mouseout"/>
                  </use>
                  <path fill="none" stroke="white" stroke-width="1.5" d="M0,-3.0v7 M-2.5,-0.5L0,-3.0L2.5,-0.5"/>
                </g>
                <g id="arrowLeft" xlink:href="#dirArrow" transform="rotate(270) translate(-36 17)" onmousedown="handlePan(-1,0)">
                  <use xlink:href="#rim" fill="#404040">
                        <set attributeName="fill" to="#808080" begin="arrowLeft.mouseover" end="arrowLeft.mouseout"/>
                  </use>
                  <path fill="none" stroke="white" stroke-width="1.5" d="M0,-3.0v7 M-2.5,-0.5L0,-3.0L2.5,-0.5"/>
                </g>
        </g>
        <svg viewBox="0 0 15 15" width="100%" height="30px" preserveAspectRatio="xMaxYMin meet">
         <g id="arrow_out" transform="scale(0.3 0.3)">
          <a xlink:href="pb_8h__dep__incl_org.svg" target="_base">
           <rect id="button" ry="5" rx="5" y="6" x="6" height="38" width="38"
                fill="#f2f5e9" fill-opacity="0.5" stroke="#606060" stroke-width="1.0"/>
           <path id="arrow"
             d="M 11.500037,31.436501 C 11.940474,20.09759 22.043105,11.32322 32.158766,21.979434 L 37.068811,17.246167 C 37.068811,17.246167 37.088388,32 37.088388,32 L 22.160133,31.978069 C 22.160133,31.978069 26.997745,27.140456 26.997745,27.140456 C 18.528582,18.264221 13.291696,25.230495 11.500037,31.436501 z"
             style="fill:#404040;"/>
          </a>
         </g>
        </svg>
</svg>
