<?xml version="1.0" encoding="UTF-8" standalone="no"?>
<!DOCTYPE svg PUBLIC "-//W3C//DTD SVG 1.1//EN"
 "http://www.w3.org/Graphics/SVG/1.1/DTD/svg11.dtd">
<!-- Generated by graphviz version 2.43.0 (0)
 -->
<!-- Title: pb_enc_submessage Pages: 1 -->
<svg width="1656pt" height="198pt"
 viewBox="0.00 0.00 1656.00 198.00" xmlns="http://www.w3.org/2000/svg" xmlns:xlink="http://www.w3.org/1999/xlink">
<g id="graph0" class="graph" transform="scale(1 1) rotate(0) translate(4 194)">
<title>pb_enc_submessage</title>
<polygon fill="white" stroke="transparent" points="-4,4 -4,-194 1652,-194 1652,4 -4,4"/>
<!-- Node1 -->
<g id="node1" class="node">
<title>Node1</title>
<g id="a_node1"><a xlink:title=" ">
<polygon fill="#bfbfbf" stroke="black" points="0,-47.5 0,-66.5 109,-66.5 109,-47.5 0,-47.5"/>
<text text-anchor="middle" x="54.5" y="-54.5" font-family="Helvetica,sans-Serif" font-size="10.00">pb_enc_submessage</text>
</a>
</g>
</g>
<!-- Node2 -->
<g id="node2" class="node">
<title>Node2</title>
<g id="a_node2"><a xlink:href="pb__encode_8c.html#a5c19520cad847fead01fae854b8a6f86" target="_top" xlink:title=" ">
<polygon fill="white" stroke="black" points="145,-47.5 145,-66.5 270,-66.5 270,-47.5 145,-47.5"/>
<text text-anchor="middle" x="207.5" y="-54.5" font-family="Helvetica,sans-Serif" font-size="10.00">pb_encode_submessage</text>
</a>
</g>
</g>
<!-- Node1&#45;&gt;Node2 -->
<g id="edge1" class="edge">
<title>Node1&#45;&gt;Node2</title>
<path fill="none" stroke="midnightblue" d="M109.16,-57C117.45,-57 126.12,-57 134.72,-57"/>
<polygon fill="midnightblue" stroke="midnightblue" points="134.77,-60.5 144.77,-57 134.77,-53.5 134.77,-60.5"/>
</g>
<!-- Node3 -->
<g id="node3" class="node">
<title>Node3</title>
<g id="a_node3"><a xlink:href="pb__encode_8c.html#af44dde5296bd546d99be35f15658af3e" target="_top" xlink:title=" ">
<polygon fill="white" stroke="black" points="306,-47.5 306,-66.5 370,-66.5 370,-47.5 306,-47.5"/>
<text text-anchor="middle" x="338" y="-54.5" font-family="Helvetica,sans-Serif" font-size="10.00">pb_encode</text>
</a>
</g>
</g>
<!-- Node2&#45;&gt;Node3 -->
<g id="edge2" class="edge">
<title>Node2&#45;&gt;Node3</title>
<path fill="none" stroke="midnightblue" d="M270.12,-57C278.81,-57 287.57,-57 295.76,-57"/>
<polygon fill="midnightblue" stroke="midnightblue" points="295.77,-60.5 305.77,-57 295.77,-53.5 295.77,-60.5"/>
</g>
<!-- Node10 -->
<g id="node10" class="node">
<title>Node10</title>
<g id="a_node10"><a xlink:href="pb__encode_8c.html#a568e2eb180774ef4e07de89508edb52b" target="_top" xlink:title=" ">
<polygon fill="white" stroke="black" points="1374,-85.5 1374,-104.5 1467,-104.5 1467,-85.5 1374,-85.5"/>
<text text-anchor="middle" x="1420.5" y="-92.5" font-family="Helvetica,sans-Serif" font-size="10.00">pb_encode_varint</text>
</a>
</g>
</g>
<!-- Node2&#45;&gt;Node10 -->
<g id="edge19" class="edge">
<title>Node2&#45;&gt;Node10</title>
<path fill="none" stroke="midnightblue" d="M233.88,-47.46C279.4,-31.23 378.22,0 464.5,0 464.5,0 464.5,0 1159,0 1251.36,0 1351.59,-53.36 1396.03,-80.1"/>
<polygon fill="midnightblue" stroke="midnightblue" points="1394.28,-83.13 1404.64,-85.37 1397.94,-77.16 1394.28,-83.13"/>
</g>
<!-- Node11 -->
<g id="node11" class="node">
<title>Node11</title>
<g id="a_node11"><a xlink:href="pb__encode_8c.html#a6f8d972fa4a439724532f0bcc07de81d" target="_top" xlink:title=" ">
<polygon fill="white" stroke="black" points="1503,-142.5 1503,-161.5 1556,-161.5 1556,-142.5 1503,-142.5"/>
<text text-anchor="middle" x="1529.5" y="-149.5" font-family="Helvetica,sans-Serif" font-size="10.00">pb_write</text>
</a>
</g>
</g>
<!-- Node2&#45;&gt;Node11 -->
<g id="edge20" class="edge">
<title>Node2&#45;&gt;Node11</title>
<path fill="none" stroke="midnightblue" d="M218.26,-66.57C250.44,-97.06 357.32,-190 464.5,-190 464.5,-190 464.5,-190 1297.5,-190 1367.44,-190 1447.74,-172.83 1492.86,-161.57"/>
<polygon fill="midnightblue" stroke="midnightblue" points="1493.92,-164.91 1502.75,-159.06 1492.19,-158.13 1493.92,-164.91"/>
</g>
<!-- Node4 -->
<g id="node4" class="node">
<title>Node4</title>
<g id="a_node4"><a xlink:href="pb__encode_8c.html#a0c789b04243dc72075c00744134546c3" target="_top" xlink:title=" ">
<polygon fill="white" stroke="black" points="406,-28.5 406,-47.5 525,-47.5 525,-28.5 406,-28.5"/>
<text text-anchor="middle" x="465.5" y="-35.5" font-family="Helvetica,sans-Serif" font-size="10.00">encode_extension_field</text>
</a>
</g>
</g>
<!-- Node3&#45;&gt;Node4 -->
<g id="edge3" class="edge">
<title>Node3&#45;&gt;Node4</title>
<path fill="none" stroke="midnightblue" d="M370.02,-52.3C378.02,-51.09 386.95,-49.74 396.04,-48.36"/>
<polygon fill="midnightblue" stroke="midnightblue" points="396.56,-51.83 405.93,-46.87 395.52,-44.9 396.56,-51.83"/>
</g>
<!-- Node6 -->
<g id="node6" class="node">
<title>Node6</title>
<g id="a_node6"><a xlink:href="pb__encode_8c.html#a8aa23313175c09e050e2acbc54a17bd4" target="_top" xlink:title=" ">
<polygon fill="white" stroke="black" points="730,-47.5 730,-66.5 801,-66.5 801,-47.5 730,-47.5"/>
<text text-anchor="middle" x="765.5" y="-54.5" font-family="Helvetica,sans-Serif" font-size="10.00">encode_field</text>
</a>
</g>
</g>
<!-- Node3&#45;&gt;Node6 -->
<g id="edge18" class="edge">
<title>Node3&#45;&gt;Node6</title>
<path fill="none" stroke="midnightblue" d="M370.29,-57C444.89,-57 633.42,-57 719.9,-57"/>
<polygon fill="midnightblue" stroke="midnightblue" points="719.93,-60.5 729.93,-57 719.93,-53.5 719.93,-60.5"/>
</g>
<!-- Node5 -->
<g id="node5" class="node">
<title>Node5</title>
<g id="a_node5"><a xlink:href="pb__encode_8c.html#a3a12936f07ae378d68408c7bee72e3c0" target="_top" xlink:title=" ">
<polygon fill="white" stroke="black" points="561,-28.5 561,-47.5 694,-47.5 694,-28.5 561,-28.5"/>
<text text-anchor="middle" x="627.5" y="-35.5" font-family="Helvetica,sans-Serif" font-size="10.00">default_extension_encoder</text>
</a>
</g>
</g>
<!-- Node4&#45;&gt;Node5 -->
<g id="edge4" class="edge">
<title>Node4&#45;&gt;Node5</title>
<path fill="none" stroke="midnightblue" d="M525.17,-38C533.5,-38 542.17,-38 550.77,-38"/>
<polygon fill="midnightblue" stroke="midnightblue" points="550.81,-41.5 560.81,-38 550.81,-34.5 550.81,-41.5"/>
</g>
<!-- Node5&#45;&gt;Node6 -->
<g id="edge5" class="edge">
<title>Node5&#45;&gt;Node6</title>
<path fill="none" stroke="midnightblue" d="M694.11,-47.17C702.8,-48.38 711.55,-49.6 719.77,-50.75"/>
<polygon fill="midnightblue" stroke="midnightblue" points="719.49,-54.25 729.88,-52.16 720.46,-47.31 719.49,-54.25"/>
</g>
<!-- Node7 -->
<g id="node7" class="node">
<title>Node7</title>
<g id="a_node7"><a xlink:href="pb__encode_8c.html#a1f186424780069ab183fb7d2360d274e" target="_top" xlink:title=" ">
<polygon fill="white" stroke="black" points="843.5,-66.5 843.5,-85.5 943.5,-85.5 943.5,-66.5 843.5,-66.5"/>
<text text-anchor="middle" x="893.5" y="-73.5" font-family="Helvetica,sans-Serif" font-size="10.00">encode_basic_field</text>
</a>
</g>
</g>
<!-- Node6&#45;&gt;Node7 -->
<g id="edge6" class="edge">
<title>Node6&#45;&gt;Node7</title>
<path fill="none" stroke="midnightblue" d="M801.26,-62.24C811.19,-63.74 822.3,-65.41 833.25,-67.07"/>
<polygon fill="midnightblue" stroke="midnightblue" points="832.82,-70.54 843.23,-68.57 833.86,-63.62 832.82,-70.54"/>
</g>
<!-- Node14 -->
<g id="node14" class="node">
<title>Node14</title>
<g id="a_node14"><a xlink:href="pb__encode_8c.html#aacffda1f85cad8e448a183dcc6c13559" target="_top" xlink:title=" ">
<polygon fill="white" stroke="black" points="837,-28.5 837,-47.5 950,-47.5 950,-28.5 837,-28.5"/>
<text text-anchor="middle" x="893.5" y="-35.5" font-family="Helvetica,sans-Serif" font-size="10.00">encode_callback_field</text>
</a>
</g>
</g>
<!-- Node6&#45;&gt;Node14 -->
<g id="edge17" class="edge">
<title>Node6&#45;&gt;Node14</title>
<path fill="none" stroke="midnightblue" d="M801.26,-51.76C809.2,-50.56 817.9,-49.25 826.66,-47.93"/>
<polygon fill="midnightblue" stroke="midnightblue" points="827.19,-51.39 836.55,-46.44 826.14,-44.47 827.19,-51.39"/>
</g>
<!-- Node8 -->
<g id="node8" class="node">
<title>Node8</title>
<g id="a_node8"><a xlink:href="pb__encode_8c.html#afb8fc9e49589eaae694eff25c858a19c" target="_top" xlink:title=" ">
<polygon fill="white" stroke="black" points="986,-66.5 986,-85.5 1061,-85.5 1061,-66.5 986,-66.5"/>
<text text-anchor="middle" x="1023.5" y="-73.5" font-family="Helvetica,sans-Serif" font-size="10.00">encode_array</text>
</a>
</g>
</g>
<!-- Node7&#45;&gt;Node8 -->
<g id="edge7" class="edge">
<title>Node7&#45;&gt;Node8</title>
<path fill="none" stroke="midnightblue" d="M943.62,-76C954.09,-76 965.12,-76 975.51,-76"/>
<polygon fill="midnightblue" stroke="midnightblue" points="975.64,-79.5 985.64,-76 975.64,-72.5 975.64,-79.5"/>
</g>
<!-- Node13 -->
<g id="node13" class="node">
<title>Node13</title>
<g id="a_node13"><a xlink:href="pb__encode_8c.html#a3e0f1ac29dce37f78220ecd6b9d21cba" target="_top" xlink:title=" ">
<polygon fill="white" stroke="black" points="1097,-28.5 1097,-47.5 1219,-47.5 1219,-28.5 1097,-28.5"/>
<text text-anchor="middle" x="1158" y="-35.5" font-family="Helvetica,sans-Serif" font-size="10.00">pb_encode_tag_for_field</text>
</a>
</g>
</g>
<!-- Node7&#45;&gt;Node13 -->
<g id="edge16" class="edge">
<title>Node7&#45;&gt;Node13</title>
<path fill="none" stroke="midnightblue" d="M936.25,-66.47C951.81,-63.14 969.66,-59.6 986,-57 1018.86,-51.77 1055.51,-47.5 1086.42,-44.34"/>
<polygon fill="midnightblue" stroke="midnightblue" points="1087.07,-47.79 1096.67,-43.31 1086.37,-40.82 1087.07,-47.79"/>
</g>
<!-- Node9 -->
<g id="node9" class="node">
<title>Node9</title>
<g id="a_node9"><a xlink:href="pb__encode_8c.html#acfbcc89e5e4355b8c263d6d4f2bc8c6f" target="_top" xlink:title=" ">
<polygon fill="white" stroke="black" points="1255,-66.5 1255,-85.5 1338,-85.5 1338,-66.5 1255,-66.5"/>
<text text-anchor="middle" x="1296.5" y="-73.5" font-family="Helvetica,sans-Serif" font-size="10.00">pb_encode_tag</text>
</a>
</g>
</g>
<!-- Node8&#45;&gt;Node9 -->
<g id="edge8" class="edge">
<title>Node8&#45;&gt;Node9</title>
<path fill="none" stroke="midnightblue" d="M1061.05,-76C1108.32,-76 1190.92,-76 1244.39,-76"/>
<polygon fill="midnightblue" stroke="midnightblue" points="1244.67,-79.5 1254.67,-76 1244.67,-72.5 1244.67,-79.5"/>
</g>
<!-- Node8&#45;&gt;Node10 -->
<g id="edge14" class="edge">
<title>Node8&#45;&gt;Node10</title>
<path fill="none" stroke="midnightblue" d="M1061.21,-84.26C1072.62,-86.52 1085.28,-88.69 1097,-90 1190.04,-100.39 1299.11,-99.34 1363.59,-97.36"/>
<polygon fill="midnightblue" stroke="midnightblue" points="1364.05,-100.85 1373.93,-97.03 1363.82,-93.85 1364.05,-100.85"/>
</g>
<!-- Node8&#45;&gt;Node11 -->
<g id="edge15" class="edge">
<title>Node8&#45;&gt;Node11</title>
<path fill="none" stroke="midnightblue" d="M1042.73,-85.62C1057.08,-92.73 1077.79,-102.01 1097,-107 1240.14,-144.16 1417.54,-150.79 1492.44,-151.86"/>
<polygon fill="midnightblue" stroke="midnightblue" points="1492.69,-155.36 1502.74,-151.98 1492.78,-148.36 1492.69,-155.36"/>
</g>
<!-- Node8&#45;&gt;Node13 -->
<g id="edge12" class="edge">
<title>Node8&#45;&gt;Node13</title>
<path fill="none" stroke="midnightblue" d="M1057.94,-66.41C1074.88,-61.55 1095.66,-55.59 1113.81,-50.39"/>
<polygon fill="midnightblue" stroke="midnightblue" points="1114.93,-53.71 1123.58,-47.59 1113,-46.98 1114.93,-53.71"/>
</g>
<!-- Node9&#45;&gt;Node10 -->
<g id="edge9" class="edge">
<title>Node9&#45;&gt;Node10</title>
<path fill="none" stroke="midnightblue" d="M1338.12,-82.33C1346.29,-83.6 1355.02,-84.96 1363.6,-86.29"/>
<polygon fill="midnightblue" stroke="midnightblue" points="1363.16,-89.77 1373.58,-87.85 1364.24,-82.85 1363.16,-89.77"/>
</g>
<!-- Node10&#45;&gt;Node11 -->
<g id="edge10" class="edge">
<title>Node10&#45;&gt;Node11</title>
<path fill="none" stroke="midnightblue" d="M1439.65,-104.67C1456.66,-113.73 1482.3,-127.39 1501.68,-137.71"/>
<polygon fill="midnightblue" stroke="midnightblue" points="1500.15,-140.86 1510.62,-142.47 1503.44,-134.68 1500.15,-140.86"/>
</g>
<!-- Node12 -->
<g id="node12" class="node">
<title>Node12</title>
<g id="a_node12"><a xlink:href="pb__encode_8c.html#aa987a466c397e7769605789cc0b22054" target="_top" xlink:title=" ">
<polygon fill="white" stroke="black" points="1592,-142.5 1592,-161.5 1648,-161.5 1648,-142.5 1592,-142.5"/>
<text text-anchor="middle" x="1620" y="-149.5" font-family="Helvetica,sans-Serif" font-size="10.00">buf_write</text>
</a>
</g>
</g>
<!-- Node11&#45;&gt;Node12 -->
<g id="edge11" class="edge">
<title>Node11&#45;&gt;Node12</title>
<path fill="none" stroke="midnightblue" d="M1556.1,-152C1564.08,-152 1573.06,-152 1581.68,-152"/>
<polygon fill="midnightblue" stroke="midnightblue" points="1581.92,-155.5 1591.92,-152 1581.92,-148.5 1581.92,-155.5"/>
</g>
<!-- Node13&#45;&gt;Node9 -->
<g id="edge13" class="edge">
<title>Node13&#45;&gt;Node9</title>
<path fill="none" stroke="midnightblue" d="M1193.44,-47.59C1210.98,-52.47 1232.51,-58.46 1251.26,-63.68"/>
<polygon fill="midnightblue" stroke="midnightblue" points="1250.49,-67.1 1261.07,-66.41 1252.37,-60.36 1250.49,-67.1"/>
</g>
</g>
</svg>
