<?xml version="1.0" encoding="UTF-8" standalone="no"?>
<!DOCTYPE svg PUBLIC "-//W3C//DTD SVG 1.1//EN"
 "http://www.w3.org/Graphics/SVG/1.1/DTD/svg11.dtd">
<!-- Generated by graphviz version 2.43.0 (0)
 -->
<!-- Title: pb_decode Pages: 1 -->
<svg width="1402pt" height="431pt"
 viewBox="0.00 0.00 1402.00 431.40" xmlns="http://www.w3.org/2000/svg" xmlns:xlink="http://www.w3.org/1999/xlink">
<g id="graph0" class="graph" transform="scale(1 1) rotate(0) translate(4 427.4)">
<title>pb_decode</title>
<polygon fill="white" stroke="transparent" points="-4,4 -4,-427.4 1398,-427.4 1398,4 -4,4"/>
<!-- Node1 -->
<g id="node1" class="node">
<title>Node1</title>
<g id="a_node1"><a xlink:title=" ">
<polygon fill="#bfbfbf" stroke="black" points="0,-152.5 0,-171.5 64,-171.5 64,-152.5 0,-152.5"/>
<text text-anchor="middle" x="32" y="-159.5" font-family="Helvetica,sans-Serif" font-size="10.00">pb_decode</text>
</a>
</g>
</g>
<!-- Node2 -->
<g id="node2" class="node">
<title>Node2</title>
<g id="a_node2"><a xlink:href="pb__decode_8c.html#a0c0f95a964239344d503e724818e8fc0" target="_top" xlink:title=" ">
<polygon fill="white" stroke="black" points="126,-228.5 126,-247.5 218,-247.5 218,-228.5 126,-228.5"/>
<text text-anchor="middle" x="172" y="-235.5" font-family="Helvetica,sans-Serif" font-size="10.00">pb_decode_noinit</text>
</a>
</g>
</g>
<!-- Node1&#45;&gt;Node2 -->
<g id="edge1" class="edge">
<title>Node1&#45;&gt;Node2</title>
<path fill="none" stroke="midnightblue" d="M50.48,-171.63C74.22,-184.7 116.88,-208.2 144.56,-223.44"/>
<polygon fill="midnightblue" stroke="midnightblue" points="143.22,-226.69 153.66,-228.45 146.59,-220.56 143.22,-226.69"/>
</g>
<!-- Node25 -->
<g id="node25" class="node">
<title>Node25</title>
<g id="a_node25"><a xlink:href="pb__decode_8c.html#a086200ce4dac8198dc0537e64318d66e" target="_top" xlink:title=" ">
<polygon fill="white" stroke="black" points="100,-76.5 100,-95.5 244,-95.5 244,-76.5 100,-76.5"/>
<text text-anchor="middle" x="172" y="-83.5" font-family="Helvetica,sans-Serif" font-size="10.00">pb_message_set_to_defaults</text>
</a>
</g>
</g>
<!-- Node1&#45;&gt;Node25 -->
<g id="edge38" class="edge">
<title>Node1&#45;&gt;Node25</title>
<path fill="none" stroke="midnightblue" d="M50.48,-152.37C74.22,-139.3 116.88,-115.8 144.56,-100.56"/>
<polygon fill="midnightblue" stroke="midnightblue" points="146.59,-103.44 153.66,-95.55 143.22,-97.31 146.59,-103.44"/>
</g>
<!-- Node3 -->
<g id="node3" class="node">
<title>Node3</title>
<g id="a_node3"><a xlink:href="pb__decode_8c.html#a30eb2ecefe2a2095c1c668e3932b63fc" target="_top" xlink:title=" ">
<polygon fill="white" stroke="black" points="284,-304.5 284,-323.5 379,-323.5 379,-304.5 284,-304.5"/>
<text text-anchor="middle" x="331.5" y="-311.5" font-family="Helvetica,sans-Serif" font-size="10.00">decode_extension</text>
</a>
</g>
</g>
<!-- Node2&#45;&gt;Node3 -->
<g id="edge2" class="edge">
<title>Node2&#45;&gt;Node3</title>
<path fill="none" stroke="midnightblue" d="M192.7,-247.64C214.14,-258.11 249.47,-275.33 280,-290 286.86,-293.3 294.25,-296.82 301.21,-300.13"/>
<polygon fill="midnightblue" stroke="midnightblue" points="299.8,-303.34 310.33,-304.46 302.8,-297.01 299.8,-303.34"/>
</g>
<!-- Node5 -->
<g id="node5" class="node">
<title>Node5</title>
<g id="a_node5"><a xlink:href="pb__decode_8c.html#a48151430d329252cc54fd9764dd820f7" target="_top" xlink:title=" ">
<polygon fill="white" stroke="black" points="594,-342.5 594,-361.5 665,-361.5 665,-342.5 594,-342.5"/>
<text text-anchor="middle" x="629.5" y="-349.5" font-family="Helvetica,sans-Serif" font-size="10.00">decode_field</text>
</a>
</g>
</g>
<!-- Node2&#45;&gt;Node5 -->
<g id="edge28" class="edge">
<title>Node2&#45;&gt;Node5</title>
<path fill="none" stroke="midnightblue" d="M179.98,-247.54C195.38,-267.69 234.51,-314.29 280,-333 382.2,-375.04 515.67,-366.82 583.98,-358.62"/>
<polygon fill="midnightblue" stroke="midnightblue" points="584.48,-362.08 593.97,-357.36 583.61,-355.14 584.48,-362.08"/>
</g>
<!-- Node13 -->
<g id="node13" class="node">
<title>Node13</title>
<g id="a_node13"><a xlink:href="pb__decode_8c.html#ab5102942c8402c215f836364e1b775b1" target="_top" xlink:title=" ">
<polygon fill="white" stroke="black" points="887.5,-266.5 887.5,-285.5 961.5,-285.5 961.5,-266.5 887.5,-266.5"/>
<text text-anchor="middle" x="924.5" y="-273.5" font-family="Helvetica,sans-Serif" font-size="10.00">pb_skip_field</text>
</a>
</g>
</g>
<!-- Node2&#45;&gt;Node13 -->
<g id="edge37" class="edge">
<title>Node2&#45;&gt;Node13</title>
<path fill="none" stroke="midnightblue" d="M218.19,-247.01C278.6,-258.24 389.16,-276 484.5,-276 484.5,-276 484.5,-276 630.5,-276 717.66,-276 819.39,-276 877.15,-276"/>
<polygon fill="midnightblue" stroke="midnightblue" points="877.41,-279.5 887.41,-276 877.41,-272.5 877.41,-279.5"/>
</g>
<!-- Node20 -->
<g id="node20" class="node">
<title>Node20</title>
<g id="a_node20"><a xlink:href="pb__decode_8c.html#a45b7deb9b949803e7342070ca209d4be" target="_top" xlink:title=" ">
<polygon fill="white" stroke="black" points="280,-190.5 280,-209.5 383,-209.5 383,-190.5 280,-190.5"/>
<text text-anchor="middle" x="331.5" y="-197.5" font-family="Helvetica,sans-Serif" font-size="10.00">find_extension_field</text>
</a>
</g>
</g>
<!-- Node2&#45;&gt;Node20 -->
<g id="edge29" class="edge">
<title>Node2&#45;&gt;Node20</title>
<path fill="none" stroke="midnightblue" d="M212.74,-228.41C233.53,-223.4 259.16,-217.21 281.2,-211.89"/>
<polygon fill="midnightblue" stroke="midnightblue" points="282.14,-215.27 291.04,-209.52 280.5,-208.46 282.14,-215.27"/>
</g>
<!-- Node21 -->
<g id="node21" class="node">
<title>Node21</title>
<g id="a_node21"><a xlink:href="pb__decode_8c.html#ac2d909d6194bfbca3c31b95749c4e848" target="_top" xlink:title=" ">
<polygon fill="white" stroke="black" points="448.5,-171.5 448.5,-190.5 522.5,-190.5 522.5,-171.5 448.5,-171.5"/>
<text text-anchor="middle" x="485.5" y="-178.5" font-family="Helvetica,sans-Serif" font-size="10.00">pb_field_next</text>
</a>
</g>
</g>
<!-- Node2&#45;&gt;Node21 -->
<g id="edge36" class="edge">
<title>Node2&#45;&gt;Node21</title>
<path fill="none" stroke="midnightblue" d="M218.2,-237.39C261.1,-236 327.14,-231.74 383,-219 407.8,-213.34 434.7,-203.07 454.58,-194.63"/>
<polygon fill="midnightblue" stroke="midnightblue" points="456.23,-197.73 464.01,-190.54 453.44,-191.31 456.23,-197.73"/>
</g>
<!-- Node22 -->
<g id="node22" class="node">
<title>Node22</title>
<g id="a_node22"><a xlink:href="pb__decode_8c.html#aefe6134d81ea2f861f0111984553b23b" target="_top" xlink:title=" ">
<polygon fill="white" stroke="black" points="588,-380.5 588,-399.5 671,-399.5 671,-380.5 588,-380.5"/>
<text text-anchor="middle" x="629.5" y="-387.5" font-family="Helvetica,sans-Serif" font-size="10.00">pb_decode_tag</text>
</a>
</g>
</g>
<!-- Node2&#45;&gt;Node22 -->
<g id="edge31" class="edge">
<title>Node2&#45;&gt;Node22</title>
<path fill="none" stroke="midnightblue" d="M178.18,-247.65C191.49,-271.35 229.37,-332.37 280,-359 375.69,-409.33 506.79,-404.66 577.8,-397.14"/>
<polygon fill="midnightblue" stroke="midnightblue" points="578.28,-400.61 587.83,-396.01 577.5,-393.65 578.28,-400.61"/>
</g>
<!-- Node23 -->
<g id="node23" class="node">
<title>Node23</title>
<g id="a_node23"><a xlink:href="pb__decode_8c.html#a7897e383f3ae811b1afc2ecd36277512" target="_top" xlink:title=" ">
<polygon fill="white" stroke="black" points="296,-152.5 296,-171.5 367,-171.5 367,-152.5 296,-152.5"/>
<text text-anchor="middle" x="331.5" y="-159.5" font-family="Helvetica,sans-Serif" font-size="10.00">pb_field_find</text>
</a>
</g>
</g>
<!-- Node2&#45;&gt;Node23 -->
<g id="edge33" class="edge">
<title>Node2&#45;&gt;Node23</title>
<path fill="none" stroke="midnightblue" d="M189.35,-228.43C210.05,-216.52 247.01,-195.92 280,-181 284.41,-179.01 289.09,-177.04 293.77,-175.18"/>
<polygon fill="midnightblue" stroke="midnightblue" points="295.18,-178.39 303.24,-171.52 292.65,-171.86 295.18,-178.39"/>
</g>
<!-- Node24 -->
<g id="node24" class="node">
<title>Node24</title>
<g id="a_node24"><a xlink:href="pb__decode_8c.html#a1dd25c1621de36f7de14a3b9ba2c532d" target="_top" xlink:title=" ">
<polygon fill="white" stroke="black" points="297.5,-114.5 297.5,-133.5 365.5,-133.5 365.5,-114.5 297.5,-114.5"/>
<text text-anchor="middle" x="331.5" y="-121.5" font-family="Helvetica,sans-Serif" font-size="10.00">pb_field_init</text>
</a>
</g>
</g>
<!-- Node2&#45;&gt;Node24 -->
<g id="edge35" class="edge">
<title>Node2&#45;&gt;Node24</title>
<path fill="none" stroke="midnightblue" d="M181.53,-228.36C198.57,-209.62 238.74,-167.9 280,-143 283.24,-141.05 286.71,-139.24 290.26,-137.57"/>
<polygon fill="midnightblue" stroke="midnightblue" points="291.93,-140.67 299.75,-133.52 289.18,-134.23 291.93,-140.67"/>
</g>
<!-- Node4 -->
<g id="node4" class="node">
<title>Node4</title>
<g id="a_node4"><a xlink:href="pb__decode_8c.html#a7c09905fda4c6398697bcf0d42882c04" target="_top" xlink:title=" ">
<polygon fill="white" stroke="black" points="419,-304.5 419,-323.5 552,-323.5 552,-304.5 419,-304.5"/>
<text text-anchor="middle" x="485.5" y="-311.5" font-family="Helvetica,sans-Serif" font-size="10.00">default_extension_decoder</text>
</a>
</g>
</g>
<!-- Node3&#45;&gt;Node4 -->
<g id="edge3" class="edge">
<title>Node3&#45;&gt;Node4</title>
<path fill="none" stroke="midnightblue" d="M379.35,-314C388.7,-314 398.75,-314 408.79,-314"/>
<polygon fill="midnightblue" stroke="midnightblue" points="408.81,-317.5 418.81,-314 408.81,-310.5 408.81,-317.5"/>
</g>
<!-- Node4&#45;&gt;Node5 -->
<g id="edge4" class="edge">
<title>Node4&#45;&gt;Node5</title>
<path fill="none" stroke="midnightblue" d="M522.33,-323.59C541.03,-328.59 564.08,-334.76 583.92,-340.07"/>
<polygon fill="midnightblue" stroke="midnightblue" points="583.1,-343.47 593.66,-342.68 584.91,-336.71 583.1,-343.47"/>
</g>
<!-- Node6 -->
<g id="node6" class="node">
<title>Node6</title>
<g id="a_node6"><a xlink:href="pb__decode_8c.html#a69a78d2efcd4b9057215ac8b79a5eb2b" target="_top" xlink:title=" ">
<polygon fill="white" stroke="black" points="707,-304.5 707,-323.5 820,-323.5 820,-304.5 707,-304.5"/>
<text text-anchor="middle" x="763.5" y="-311.5" font-family="Helvetica,sans-Serif" font-size="10.00">decode_callback_field</text>
</a>
</g>
</g>
<!-- Node5&#45;&gt;Node6 -->
<g id="edge5" class="edge">
<title>Node5&#45;&gt;Node6</title>
<path fill="none" stroke="midnightblue" d="M663.81,-342.41C680.69,-337.55 701.39,-331.59 719.47,-326.39"/>
<polygon fill="midnightblue" stroke="midnightblue" points="720.56,-329.72 729.2,-323.59 718.62,-322.99 720.56,-329.72"/>
</g>
<!-- Node18 -->
<g id="node18" class="node">
<title>Node18</title>
<g id="a_node18"><a xlink:href="pb__decode_8c.html#af65dd063304df2ed380dc411bb6caae6" target="_top" xlink:title=" ">
<polygon fill="white" stroke="black" points="710.5,-380.5 710.5,-399.5 816.5,-399.5 816.5,-380.5 710.5,-380.5"/>
<text text-anchor="middle" x="763.5" y="-387.5" font-family="Helvetica,sans-Serif" font-size="10.00">decode_pointer_field</text>
</a>
</g>
</g>
<!-- Node5&#45;&gt;Node18 -->
<g id="edge22" class="edge">
<title>Node5&#45;&gt;Node18</title>
<path fill="none" stroke="midnightblue" d="M663.81,-361.59C680.69,-366.45 701.39,-372.41 719.47,-377.61"/>
<polygon fill="midnightblue" stroke="midnightblue" points="718.62,-381.01 729.2,-380.41 720.56,-374.28 718.62,-381.01"/>
</g>
<!-- Node19 -->
<g id="node19" class="node">
<title>Node19</title>
<g id="a_node19"><a xlink:href="pb__decode_8c.html#a02c14bf9763a469e0414bf9a1eb13632" target="_top" xlink:title=" ">
<polygon fill="white" stroke="black" points="713,-342.5 713,-361.5 814,-361.5 814,-342.5 713,-342.5"/>
<text text-anchor="middle" x="763.5" y="-349.5" font-family="Helvetica,sans-Serif" font-size="10.00">decode_static_field</text>
</a>
</g>
</g>
<!-- Node5&#45;&gt;Node19 -->
<g id="edge25" class="edge">
<title>Node5&#45;&gt;Node19</title>
<path fill="none" stroke="midnightblue" d="M665.18,-352C676.69,-352 689.86,-352 702.71,-352"/>
<polygon fill="midnightblue" stroke="midnightblue" points="702.91,-355.5 712.91,-352 702.91,-348.5 702.91,-355.5"/>
</g>
<!-- Node7 -->
<g id="node7" class="node">
<title>Node7</title>
<g id="a_node7"><a xlink:href="pb__decode_8c.html#ac0a84ef26be0f3bf894deaee63e5114c" target="_top" xlink:title=" ">
<polygon fill="white" stroke="black" points="856.5,-342.5 856.5,-361.5 992.5,-361.5 992.5,-342.5 856.5,-342.5"/>
<text text-anchor="middle" x="924.5" y="-349.5" font-family="Helvetica,sans-Serif" font-size="10.00">pb_close_string_substream</text>
</a>
</g>
</g>
<!-- Node6&#45;&gt;Node7 -->
<g id="edge6" class="edge">
<title>Node6&#45;&gt;Node7</title>
<path fill="none" stroke="midnightblue" d="M804.62,-323.59C825.6,-328.6 851.48,-334.79 873.73,-340.11"/>
<polygon fill="midnightblue" stroke="midnightblue" points="873.13,-343.56 883.67,-342.48 874.75,-336.75 873.13,-343.56"/>
</g>
<!-- Node8 -->
<g id="node8" class="node">
<title>Node8</title>
<g id="a_node8"><a xlink:href="pb__decode_8c.html#a37dc2b0c54c27ddd29791e7522c85548" target="_top" xlink:title=" ">
<polygon fill="white" stroke="black" points="1029,-342.5 1029,-361.5 1148,-361.5 1148,-342.5 1029,-342.5"/>
<text text-anchor="middle" x="1088.5" y="-349.5" font-family="Helvetica,sans-Serif" font-size="10.00">pb_istream_from_buffer</text>
</a>
</g>
</g>
<!-- Node6&#45;&gt;Node8 -->
<g id="edge7" class="edge">
<title>Node6&#45;&gt;Node8</title>
<path fill="none" stroke="midnightblue" d="M820.11,-316.82C866.5,-319.61 934.27,-324.68 993,-333 1006.87,-334.96 1021.77,-337.67 1035.54,-340.43"/>
<polygon fill="midnightblue" stroke="midnightblue" points="1034.84,-343.86 1045.34,-342.44 1036.25,-337 1034.84,-343.86"/>
</g>
<!-- Node10 -->
<g id="node10" class="node">
<title>Node10</title>
<g id="a_node10"><a xlink:href="pb__decode_8c.html#a7433fc394255932c4f00274e7f890721" target="_top" xlink:title=" ">
<polygon fill="white" stroke="black" points="856,-380.5 856,-399.5 993,-399.5 993,-380.5 856,-380.5"/>
<text text-anchor="middle" x="924.5" y="-387.5" font-family="Helvetica,sans-Serif" font-size="10.00">pb_make_string_substream</text>
</a>
</g>
</g>
<!-- Node6&#45;&gt;Node10 -->
<g id="edge9" class="edge">
<title>Node6&#45;&gt;Node10</title>
<path fill="none" stroke="midnightblue" d="M800.61,-323.52C807.33,-326.07 814.09,-329.2 820,-333 839.57,-345.58 836.09,-358.97 856,-371 859.58,-373.16 863.41,-375.08 867.36,-376.79"/>
<polygon fill="midnightblue" stroke="midnightblue" points="866.15,-380.08 876.74,-380.41 868.66,-373.54 866.15,-380.08"/>
</g>
<!-- Node6&#45;&gt;Node13 -->
<g id="edge12" class="edge">
<title>Node6&#45;&gt;Node13</title>
<path fill="none" stroke="midnightblue" d="M804.62,-304.41C826.82,-299.11 854.5,-292.49 877.56,-286.98"/>
<polygon fill="midnightblue" stroke="midnightblue" points="878.55,-290.34 887.46,-284.61 876.92,-283.53 878.55,-290.34"/>
</g>
<!-- Node17 -->
<g id="node17" class="node">
<title>Node17</title>
<g id="a_node17"><a xlink:href="pb__decode_8c.html#a3f23856ca4723854f204b46d5f10c3ec" target="_top" xlink:title=" ">
<polygon fill="white" stroke="black" points="1046,-190.5 1046,-209.5 1131,-209.5 1131,-190.5 1046,-190.5"/>
<text text-anchor="middle" x="1088.5" y="-197.5" font-family="Helvetica,sans-Serif" font-size="10.00">read_raw_value</text>
</a>
</g>
</g>
<!-- Node6&#45;&gt;Node17 -->
<g id="edge20" class="edge">
<title>Node6&#45;&gt;Node17</title>
<path fill="none" stroke="midnightblue" d="M777.12,-304.32C794.15,-291.69 825.82,-269.73 856,-257 915.16,-232.04 987.62,-216.4 1035.54,-207.95"/>
<polygon fill="midnightblue" stroke="midnightblue" points="1036.42,-211.35 1045.68,-206.21 1035.23,-204.45 1036.42,-211.35"/>
</g>
<!-- Node9 -->
<g id="node9" class="node">
<title>Node9</title>
<g id="a_node9"><a xlink:href="pb__decode_8c.html#a9746f7244f9d14b2a095ddfcad55febe" target="_top" xlink:title=" ">
<polygon fill="white" stroke="black" points="1332,-304.5 1332,-323.5 1386,-323.5 1386,-304.5 1332,-304.5"/>
<text text-anchor="middle" x="1359" y="-311.5" font-family="Helvetica,sans-Serif" font-size="10.00">buf_read</text>
</a>
</g>
</g>
<!-- Node8&#45;&gt;Node9 -->
<g id="edge8" class="edge">
<title>Node8&#45;&gt;Node9</title>
<path fill="none" stroke="midnightblue" d="M1148.09,-343.71C1200.95,-336.23 1277.03,-325.46 1321.61,-319.15"/>
<polygon fill="midnightblue" stroke="midnightblue" points="1322.28,-322.59 1331.69,-317.72 1321.3,-315.66 1322.28,-322.59"/>
</g>
<!-- Node11 -->
<g id="node11" class="node">
<title>Node11</title>
<g id="a_node11"><a xlink:href="pb__decode_8c.html#abef49f760a21798e59538eec4aea23c2" target="_top" xlink:title=" ">
<polygon fill="white" stroke="black" points="1184,-380.5 1184,-399.5 1288,-399.5 1288,-380.5 1184,-380.5"/>
<text text-anchor="middle" x="1236" y="-387.5" font-family="Helvetica,sans-Serif" font-size="10.00">pb_decode_varint32</text>
</a>
</g>
</g>
<!-- Node10&#45;&gt;Node11 -->
<g id="edge10" class="edge">
<title>Node10&#45;&gt;Node11</title>
<path fill="none" stroke="midnightblue" d="M993.04,-390C1046.9,-390 1121.69,-390 1173.81,-390"/>
<polygon fill="midnightblue" stroke="midnightblue" points="1173.91,-393.5 1183.91,-390 1173.91,-386.5 1173.91,-393.5"/>
</g>
<!-- Node12 -->
<g id="node12" class="node">
<title>Node12</title>
<g id="a_node12"><a xlink:href="pb__decode_8c.html#a13d38bcceb0a06bfc8c4c9c6da0f7258" target="_top" xlink:title=" ">
<polygon fill="white" stroke="black" points="1324,-380.5 1324,-399.5 1394,-399.5 1394,-380.5 1324,-380.5"/>
<text text-anchor="middle" x="1359" y="-387.5" font-family="Helvetica,sans-Serif" font-size="10.00">pb_readbyte</text>
</a>
</g>
</g>
<!-- Node11&#45;&gt;Node12 -->
<g id="edge11" class="edge">
<title>Node11&#45;&gt;Node12</title>
<path fill="none" stroke="midnightblue" d="M1288.31,-390C1296.74,-390 1305.41,-390 1313.64,-390"/>
<polygon fill="midnightblue" stroke="midnightblue" points="1313.79,-393.5 1323.79,-390 1313.79,-386.5 1313.79,-393.5"/>
</g>
<!-- Node14 -->
<g id="node14" class="node">
<title>Node14</title>
<g id="a_node14"><a xlink:href="pb__decode_8c.html#ad54a52168427208d756087919ff82d41" target="_top" xlink:title=" ">
<polygon fill="white" stroke="black" points="1210.5,-266.5 1210.5,-285.5 1261.5,-285.5 1261.5,-266.5 1210.5,-266.5"/>
<text text-anchor="middle" x="1236" y="-273.5" font-family="Helvetica,sans-Serif" font-size="10.00">pb_read</text>
</a>
</g>
</g>
<!-- Node13&#45;&gt;Node14 -->
<g id="edge13" class="edge">
<title>Node13&#45;&gt;Node14</title>
<path fill="none" stroke="midnightblue" d="M961.68,-267.69C981.45,-263.58 1006.44,-259.05 1029,-257 1081.67,-252.21 1095.42,-251.32 1148,-257 1165.53,-258.89 1184.7,-262.87 1200.58,-266.7"/>
<polygon fill="midnightblue" stroke="midnightblue" points="1199.93,-270.14 1210.48,-269.17 1201.63,-263.35 1199.93,-270.14"/>
</g>
<!-- Node15 -->
<g id="node15" class="node">
<title>Node15</title>
<g id="a_node15"><a xlink:href="pb__decode_8c.html#afa3e9c4da6d998fd6315d4cbd51b02e4" target="_top" xlink:title=" ">
<polygon fill="white" stroke="black" points="1048.5,-304.5 1048.5,-323.5 1128.5,-323.5 1128.5,-304.5 1048.5,-304.5"/>
<text text-anchor="middle" x="1088.5" y="-311.5" font-family="Helvetica,sans-Serif" font-size="10.00">pb_skip_string</text>
</a>
</g>
</g>
<!-- Node13&#45;&gt;Node15 -->
<g id="edge15" class="edge">
<title>Node13&#45;&gt;Node15</title>
<path fill="none" stroke="midnightblue" d="M961.86,-284.53C984.49,-289.84 1013.88,-296.73 1038.54,-302.52"/>
<polygon fill="midnightblue" stroke="midnightblue" points="1037.9,-305.96 1048.44,-304.84 1039.5,-299.15 1037.9,-305.96"/>
</g>
<!-- Node16 -->
<g id="node16" class="node">
<title>Node16</title>
<g id="a_node16"><a xlink:href="pb__decode_8c.html#a57738ceef4b30349437900b245a33c77" target="_top" xlink:title=" ">
<polygon fill="white" stroke="black" points="1048.5,-266.5 1048.5,-285.5 1128.5,-285.5 1128.5,-266.5 1048.5,-266.5"/>
<text text-anchor="middle" x="1088.5" y="-273.5" font-family="Helvetica,sans-Serif" font-size="10.00">pb_skip_varint</text>
</a>
</g>
</g>
<!-- Node13&#45;&gt;Node16 -->
<g id="edge18" class="edge">
<title>Node13&#45;&gt;Node16</title>
<path fill="none" stroke="midnightblue" d="M961.86,-276C984.38,-276 1013.61,-276 1038.21,-276"/>
<polygon fill="midnightblue" stroke="midnightblue" points="1038.44,-279.5 1048.44,-276 1038.44,-272.5 1038.44,-279.5"/>
</g>
<!-- Node14&#45;&gt;Node9 -->
<g id="edge14" class="edge">
<title>Node14&#45;&gt;Node9</title>
<path fill="none" stroke="midnightblue" d="M1261.78,-283.78C1279.09,-289.22 1302.48,-296.56 1321.86,-302.65"/>
<polygon fill="midnightblue" stroke="midnightblue" points="1320.99,-306.05 1331.58,-305.7 1323.09,-299.37 1320.99,-306.05"/>
</g>
<!-- Node15&#45;&gt;Node11 -->
<g id="edge16" class="edge">
<title>Node15&#45;&gt;Node11</title>
<path fill="none" stroke="midnightblue" d="M1124.12,-323.56C1132.12,-326.23 1140.49,-329.4 1148,-333 1172.13,-344.57 1197.47,-361.84 1214.54,-374.34"/>
<polygon fill="midnightblue" stroke="midnightblue" points="1212.55,-377.22 1222.66,-380.38 1216.73,-371.6 1212.55,-377.22"/>
</g>
<!-- Node15&#45;&gt;Node14 -->
<g id="edge17" class="edge">
<title>Node15&#45;&gt;Node14</title>
<path fill="none" stroke="midnightblue" d="M1126.22,-304.41C1148.99,-298.46 1178.08,-290.87 1200.44,-285.03"/>
<polygon fill="midnightblue" stroke="midnightblue" points="1201.4,-288.39 1210.19,-282.48 1199.63,-281.62 1201.4,-288.39"/>
</g>
<!-- Node16&#45;&gt;Node14 -->
<g id="edge19" class="edge">
<title>Node16&#45;&gt;Node14</title>
<path fill="none" stroke="midnightblue" d="M1128.87,-276C1151.05,-276 1178.51,-276 1199.94,-276"/>
<polygon fill="midnightblue" stroke="midnightblue" points="1200.23,-279.5 1210.23,-276 1200.23,-272.5 1200.23,-279.5"/>
</g>
<!-- Node17&#45;&gt;Node14 -->
<g id="edge21" class="edge">
<title>Node17&#45;&gt;Node14</title>
<path fill="none" stroke="midnightblue" d="M1115.21,-209.58C1125.55,-213.69 1137.5,-218.74 1148,-224 1170.31,-235.16 1194.58,-249.91 1211.81,-260.84"/>
<polygon fill="midnightblue" stroke="midnightblue" points="1210.29,-264.03 1220.6,-266.48 1214.07,-258.14 1210.29,-264.03"/>
</g>
<!-- Node18&#45;&gt;Node7 -->
<g id="edge23" class="edge">
<title>Node18&#45;&gt;Node7</title>
<path fill="none" stroke="midnightblue" d="M804.62,-380.41C825.6,-375.4 851.48,-369.21 873.73,-363.89"/>
<polygon fill="midnightblue" stroke="midnightblue" points="874.75,-367.25 883.67,-361.52 873.13,-360.44 874.75,-367.25"/>
</g>
<!-- Node18&#45;&gt;Node10 -->
<g id="edge24" class="edge">
<title>Node18&#45;&gt;Node10</title>
<path fill="none" stroke="midnightblue" d="M816.56,-390C825.91,-390 835.83,-390 845.71,-390"/>
<polygon fill="midnightblue" stroke="midnightblue" points="845.97,-393.5 855.97,-390 845.97,-386.5 845.97,-393.5"/>
</g>
<!-- Node19&#45;&gt;Node7 -->
<g id="edge26" class="edge">
<title>Node19&#45;&gt;Node7</title>
<path fill="none" stroke="midnightblue" d="M814.37,-352C824.45,-352 835.27,-352 846.03,-352"/>
<polygon fill="midnightblue" stroke="midnightblue" points="846.32,-355.5 856.32,-352 846.32,-348.5 846.32,-355.5"/>
</g>
<!-- Node19&#45;&gt;Node10 -->
<g id="edge27" class="edge">
<title>Node19&#45;&gt;Node10</title>
<path fill="none" stroke="midnightblue" d="M804.62,-361.59C825.6,-366.6 851.48,-372.79 873.73,-378.11"/>
<polygon fill="midnightblue" stroke="midnightblue" points="873.13,-381.56 883.67,-380.48 874.75,-374.75 873.13,-381.56"/>
</g>
<!-- Node20&#45;&gt;Node21 -->
<g id="edge30" class="edge">
<title>Node20&#45;&gt;Node21</title>
<path fill="none" stroke="midnightblue" d="M383.11,-193.67C400.87,-191.45 420.72,-188.97 438.12,-186.8"/>
<polygon fill="midnightblue" stroke="midnightblue" points="438.55,-190.27 448.04,-185.56 437.68,-183.32 438.55,-190.27"/>
</g>
<!-- Node22&#45;&gt;Node11 -->
<g id="edge32" class="edge">
<title>Node22&#45;&gt;Node11</title>
<path fill="none" stroke="midnightblue" d="M661.44,-399.51C675.24,-403.27 691.79,-407.14 707,-409 901.56,-432.8 952.89,-422.77 1148,-404 1156.32,-403.2 1165.05,-402.1 1173.63,-400.87"/>
<polygon fill="midnightblue" stroke="midnightblue" points="1174.24,-404.32 1183.62,-399.38 1173.21,-397.4 1174.24,-404.32"/>
</g>
<!-- Node23&#45;&gt;Node21 -->
<g id="edge34" class="edge">
<title>Node23&#45;&gt;Node21</title>
<path fill="none" stroke="midnightblue" d="M367.37,-166.36C388.43,-168.99 415.51,-172.38 438.32,-175.23"/>
<polygon fill="midnightblue" stroke="midnightblue" points="438.11,-178.73 448.47,-176.5 438.98,-171.78 438.11,-178.73"/>
</g>
<!-- Node25&#45;&gt;Node21 -->
<g id="edge42" class="edge">
<title>Node25&#45;&gt;Node21</title>
<path fill="none" stroke="midnightblue" d="M244.22,-82.9C285.93,-83.39 338.91,-88.08 383,-105 417.17,-118.11 449.76,-146.25 468.42,-164.36"/>
<polygon fill="midnightblue" stroke="midnightblue" points="465.97,-166.86 475.53,-171.44 470.91,-161.9 465.97,-166.86"/>
</g>
<!-- Node25&#45;&gt;Node24 -->
<g id="edge41" class="edge">
<title>Node25&#45;&gt;Node24</title>
<path fill="none" stroke="midnightblue" d="M212.74,-95.59C235.53,-101.09 264.14,-107.99 287.45,-113.61"/>
<polygon fill="midnightblue" stroke="midnightblue" points="286.87,-117.07 297.42,-116.02 288.52,-110.27 286.87,-117.07"/>
</g>
<!-- Node26 -->
<g id="node26" class="node">
<title>Node26</title>
<g id="a_node26"><a xlink:href="pb__syshdr_8h.html#a39dc31816e18e5a0b48da2865a4b698c" target="_top" xlink:title=" ">
<polygon fill="white" stroke="black" points="304.5,-38.5 304.5,-57.5 358.5,-57.5 358.5,-38.5 304.5,-38.5"/>
<text text-anchor="middle" x="331.5" y="-45.5" font-family="Helvetica,sans-Serif" font-size="10.00">memcpy</text>
</a>
</g>
</g>
<!-- Node25&#45;&gt;Node26 -->
<g id="edge39" class="edge">
<title>Node25&#45;&gt;Node26</title>
<path fill="none" stroke="midnightblue" d="M212.74,-76.41C237.78,-70.37 269.86,-62.63 294.21,-56.76"/>
<polygon fill="midnightblue" stroke="midnightblue" points="295.23,-60.11 304.13,-54.36 293.58,-53.31 295.23,-60.11"/>
</g>
<!-- Node27 -->
<g id="node27" class="node">
<title>Node27</title>
<g id="a_node27"><a xlink:href="pb__syshdr_8h.html#aebca9679ad3da8a3bfe87d58959c7ca5" target="_top" xlink:title=" ">
<polygon fill="white" stroke="black" points="305.5,-0.5 305.5,-19.5 357.5,-19.5 357.5,-0.5 305.5,-0.5"/>
<text text-anchor="middle" x="331.5" y="-7.5" font-family="Helvetica,sans-Serif" font-size="10.00">memset</text>
</a>
</g>
</g>
<!-- Node25&#45;&gt;Node27 -->
<g id="edge40" class="edge">
<title>Node25&#45;&gt;Node27</title>
<path fill="none" stroke="midnightblue" d="M189.35,-76.43C210.05,-64.52 247.01,-43.92 280,-29 285.07,-26.71 290.5,-24.46 295.86,-22.35"/>
<polygon fill="midnightblue" stroke="midnightblue" points="297.23,-25.58 305.32,-18.74 294.73,-19.04 297.23,-25.58"/>
</g>
</g>
</svg>
