<?xml version="1.0" encoding="UTF-8" standalone="no"?>
<!DOCTYPE svg PUBLIC "-//W3C//DTD SVG 1.1//EN"
 "http://www.w3.org/Graphics/SVG/1.1/DTD/svg11.dtd">
<!-- Generated by graphviz version 2.43.0 (0)
 -->
<!-- Title: pb_dec_submessage Pages: 1 -->
<svg width="1547pt" height="546pt"
 viewBox="0.00 0.00 1547.00 545.89" xmlns="http://www.w3.org/2000/svg" xmlns:xlink="http://www.w3.org/1999/xlink">
<g id="graph0" class="graph" transform="scale(1 1) rotate(0) translate(4 541.89)">
<title>pb_dec_submessage</title>
<polygon fill="white" stroke="transparent" points="-4,4 -4,-541.89 1543,-541.89 1543,4 -4,4"/>
<!-- Node1 -->
<g id="node1" class="node">
<title>Node1</title>
<g id="a_node1"><a xlink:title=" ">
<polygon fill="#bfbfbf" stroke="black" points="0,-233.39 0,-252.39 109,-252.39 109,-233.39 0,-233.39"/>
<text text-anchor="middle" x="54.5" y="-240.39" font-family="Helvetica,sans-Serif" font-size="10.00">pb_dec_submessage</text>
</a>
</g>
</g>
<!-- Node2 -->
<g id="node2" class="node">
<title>Node2</title>
<g id="a_node2"><a xlink:href="pb__decode_8c.html#ac0a84ef26be0f3bf894deaee63e5114c" target="_top" xlink:title=" ">
<polygon fill="white" stroke="black" points="1001.5,-366.39 1001.5,-385.39 1137.5,-385.39 1137.5,-366.39 1001.5,-366.39"/>
<text text-anchor="middle" x="1069.5" y="-373.39" font-family="Helvetica,sans-Serif" font-size="10.00">pb_close_string_substream</text>
</a>
</g>
</g>
<!-- Node1&#45;&gt;Node2 -->
<g id="edge1" class="edge">
<title>Node1&#45;&gt;Node2</title>
<path fill="none" stroke="midnightblue" d="M62.83,-252.57C91.11,-288.75 197.52,-413.89 316,-413.89 316,-413.89 316,-413.89 775.5,-413.89 858.73,-413.89 954.16,-398.62 1012.89,-387.44"/>
<polygon fill="midnightblue" stroke="midnightblue" points="1013.91,-390.81 1023.06,-385.48 1012.58,-383.94 1013.91,-390.81"/>
</g>
<!-- Node3 -->
<g id="node3" class="node">
<title>Node3</title>
<g id="a_node3"><a xlink:href="pb__decode_8c.html#a75c9a727abe84bfaaef633ac68d48cfa" target="_top" xlink:title=" ">
<polygon fill="white" stroke="black" points="145,-214.39 145,-233.39 209,-233.39 209,-214.39 145,-214.39"/>
<text text-anchor="middle" x="177" y="-221.39" font-family="Helvetica,sans-Serif" font-size="10.00">pb_decode</text>
</a>
</g>
</g>
<!-- Node1&#45;&gt;Node3 -->
<g id="edge2" class="edge">
<title>Node1&#45;&gt;Node3</title>
<path fill="none" stroke="midnightblue" d="M109.05,-234.45C117.63,-233.09 126.39,-231.71 134.62,-230.41"/>
<polygon fill="midnightblue" stroke="midnightblue" points="135.38,-233.84 144.72,-228.82 134.29,-226.92 135.38,-233.84"/>
</g>
<!-- Node4 -->
<g id="node4" class="node">
<title>Node4</title>
<g id="a_node4"><a xlink:href="pb__decode_8c.html#a0c0f95a964239344d503e724818e8fc0" target="_top" xlink:title=" ">
<polygon fill="white" stroke="black" points="271,-252.39 271,-271.39 363,-271.39 363,-252.39 271,-252.39"/>
<text text-anchor="middle" x="317" y="-259.39" font-family="Helvetica,sans-Serif" font-size="10.00">pb_decode_noinit</text>
</a>
</g>
</g>
<!-- Node1&#45;&gt;Node4 -->
<g id="edge45" class="edge">
<title>Node1&#45;&gt;Node4</title>
<path fill="none" stroke="midnightblue" d="M109.16,-246.8C153.38,-250.03 215.86,-254.59 260.56,-257.85"/>
<polygon fill="midnightblue" stroke="midnightblue" points="260.43,-261.35 270.66,-258.58 260.94,-254.36 260.43,-261.35"/>
</g>
<!-- Node11 -->
<g id="node11" class="node">
<title>Node11</title>
<g id="a_node11"><a xlink:href="pb__decode_8c.html#a7433fc394255932c4f00274e7f890721" target="_top" xlink:title=" ">
<polygon fill="white" stroke="black" points="1001,-328.39 1001,-347.39 1138,-347.39 1138,-328.39 1001,-328.39"/>
<text text-anchor="middle" x="1069.5" y="-335.39" font-family="Helvetica,sans-Serif" font-size="10.00">pb_make_string_substream</text>
</a>
</g>
</g>
<!-- Node1&#45;&gt;Node11 -->
<g id="edge46" class="edge">
<title>Node1&#45;&gt;Node11</title>
<path fill="none" stroke="midnightblue" d="M63.68,-233.27C108.95,-181.27 333.82,61.26 528,-14.89 643.65,-60.24 627.91,-138.65 733,-204.89 828.41,-265.03 955.53,-306.35 1022.59,-325.59"/>
<polygon fill="midnightblue" stroke="midnightblue" points="1021.85,-329.02 1032.43,-328.37 1023.76,-322.28 1021.85,-329.02"/>
</g>
<!-- Node3&#45;&gt;Node4 -->
<g id="edge3" class="edge">
<title>Node3&#45;&gt;Node4</title>
<path fill="none" stroke="midnightblue" d="M209.31,-232.51C227.77,-237.59 251.4,-244.1 271.74,-249.7"/>
<polygon fill="midnightblue" stroke="midnightblue" points="270.85,-253.09 281.42,-252.37 272.71,-246.34 270.85,-253.09"/>
</g>
<!-- Node26 -->
<g id="node26" class="node">
<title>Node26</title>
<g id="a_node26"><a xlink:href="pb__decode_8c.html#a086200ce4dac8198dc0537e64318d66e" target="_top" xlink:title=" ">
<polygon fill="white" stroke="black" points="245,-100.39 245,-119.39 389,-119.39 389,-100.39 245,-100.39"/>
<text text-anchor="middle" x="317" y="-107.39" font-family="Helvetica,sans-Serif" font-size="10.00">pb_message_set_to_defaults</text>
</a>
</g>
</g>
<!-- Node3&#45;&gt;Node26 -->
<g id="edge40" class="edge">
<title>Node3&#45;&gt;Node26</title>
<path fill="none" stroke="midnightblue" d="M189.77,-214.17C213.5,-194.57 267.3,-150.12 296.42,-126.07"/>
<polygon fill="midnightblue" stroke="midnightblue" points="298.78,-128.65 304.26,-119.58 294.33,-123.25 298.78,-128.65"/>
</g>
<!-- Node5 -->
<g id="node5" class="node">
<title>Node5</title>
<g id="a_node5"><a xlink:href="pb__decode_8c.html#a30eb2ecefe2a2095c1c668e3932b63fc" target="_top" xlink:title=" ">
<polygon fill="white" stroke="black" points="429,-214.39 429,-233.39 524,-233.39 524,-214.39 429,-214.39"/>
<text text-anchor="middle" x="476.5" y="-221.39" font-family="Helvetica,sans-Serif" font-size="10.00">decode_extension</text>
</a>
</g>
</g>
<!-- Node4&#45;&gt;Node5 -->
<g id="edge4" class="edge">
<title>Node4&#45;&gt;Node5</title>
<path fill="none" stroke="midnightblue" d="M357.74,-252.3C378.53,-247.29 404.16,-241.1 426.2,-235.78"/>
<polygon fill="midnightblue" stroke="midnightblue" points="427.14,-239.16 436.04,-233.41 425.5,-232.35 427.14,-239.16"/>
</g>
<!-- Node7 -->
<g id="node7" class="node">
<title>Node7</title>
<g id="a_node7"><a xlink:href="pb__decode_8c.html#a48151430d329252cc54fd9764dd820f7" target="_top" xlink:title=" ">
<polygon fill="white" stroke="black" points="739,-366.39 739,-385.39 810,-385.39 810,-366.39 739,-366.39"/>
<text text-anchor="middle" x="774.5" y="-373.39" font-family="Helvetica,sans-Serif" font-size="10.00">decode_field</text>
</a>
</g>
</g>
<!-- Node4&#45;&gt;Node7 -->
<g id="edge30" class="edge">
<title>Node4&#45;&gt;Node7</title>
<path fill="none" stroke="midnightblue" d="M324.98,-271.43C340.38,-291.58 379.51,-338.18 425,-356.89 527.2,-398.93 660.67,-390.71 728.98,-382.51"/>
<polygon fill="midnightblue" stroke="midnightblue" points="729.48,-385.97 738.97,-381.25 728.61,-379.03 729.48,-385.97"/>
</g>
<!-- Node14 -->
<g id="node14" class="node">
<title>Node14</title>
<g id="a_node14"><a xlink:href="pb__decode_8c.html#ab5102942c8402c215f836364e1b775b1" target="_top" xlink:title=" ">
<polygon fill="white" stroke="black" points="1032.5,-480.39 1032.5,-499.39 1106.5,-499.39 1106.5,-480.39 1032.5,-480.39"/>
<text text-anchor="middle" x="1069.5" y="-487.39" font-family="Helvetica,sans-Serif" font-size="10.00">pb_skip_field</text>
</a>
</g>
</g>
<!-- Node4&#45;&gt;Node14 -->
<g id="edge39" class="edge">
<title>Node4&#45;&gt;Node14</title>
<path fill="none" stroke="midnightblue" d="M324.15,-271.4C352.92,-314.55 479.04,-489.89 629.5,-489.89 629.5,-489.89 629.5,-489.89 775.5,-489.89 862.66,-489.89 964.39,-489.89 1022.15,-489.89"/>
<polygon fill="midnightblue" stroke="midnightblue" points="1022.41,-493.39 1032.41,-489.89 1022.41,-486.39 1022.41,-493.39"/>
</g>
<!-- Node21 -->
<g id="node21" class="node">
<title>Node21</title>
<g id="a_node21"><a xlink:href="pb__decode_8c.html#a45b7deb9b949803e7342070ca209d4be" target="_top" xlink:title=" ">
<polygon fill="white" stroke="black" points="425,-328.39 425,-347.39 528,-347.39 528,-328.39 425,-328.39"/>
<text text-anchor="middle" x="476.5" y="-335.39" font-family="Helvetica,sans-Serif" font-size="10.00">find_extension_field</text>
</a>
</g>
</g>
<!-- Node4&#45;&gt;Node21 -->
<g id="edge31" class="edge">
<title>Node4&#45;&gt;Node21</title>
<path fill="none" stroke="midnightblue" d="M337.7,-271.52C359.14,-282 394.47,-299.22 425,-313.89 431.86,-317.18 439.25,-320.71 446.21,-324.02"/>
<polygon fill="midnightblue" stroke="midnightblue" points="444.8,-327.23 455.33,-328.35 447.8,-320.9 444.8,-327.23"/>
</g>
<!-- Node22 -->
<g id="node22" class="node">
<title>Node22</title>
<g id="a_node22"><a xlink:href="pb__decode_8c.html#ac2d909d6194bfbca3c31b95749c4e848" target="_top" xlink:title=" ">
<polygon fill="white" stroke="black" points="593.5,-290.39 593.5,-309.39 667.5,-309.39 667.5,-290.39 593.5,-290.39"/>
<text text-anchor="middle" x="630.5" y="-297.39" font-family="Helvetica,sans-Serif" font-size="10.00">pb_field_next</text>
</a>
</g>
</g>
<!-- Node4&#45;&gt;Node22 -->
<g id="edge38" class="edge">
<title>Node4&#45;&gt;Node22</title>
<path fill="none" stroke="midnightblue" d="M363.16,-270.77C382.2,-274.29 404.62,-278.14 425,-280.89 479.07,-288.19 541.58,-293.55 583.11,-296.68"/>
<polygon fill="midnightblue" stroke="midnightblue" points="582.96,-300.18 593.2,-297.43 583.48,-293.2 582.96,-300.18"/>
</g>
<!-- Node23 -->
<g id="node23" class="node">
<title>Node23</title>
<g id="a_node23"><a xlink:href="pb__decode_8c.html#aefe6134d81ea2f861f0111984553b23b" target="_top" xlink:title=" ">
<polygon fill="white" stroke="black" points="733,-176.39 733,-195.39 816,-195.39 816,-176.39 733,-176.39"/>
<text text-anchor="middle" x="774.5" y="-183.39" font-family="Helvetica,sans-Serif" font-size="10.00">pb_decode_tag</text>
</a>
</g>
</g>
<!-- Node4&#45;&gt;Node23 -->
<g id="edge33" class="edge">
<title>Node4&#45;&gt;Node23</title>
<path fill="none" stroke="midnightblue" d="M331.37,-252.27C350.86,-238.85 388.71,-215.01 425,-204.89 527.71,-176.25 653.88,-178 722.73,-181.9"/>
<polygon fill="midnightblue" stroke="midnightblue" points="722.67,-185.4 732.87,-182.51 723.1,-178.42 722.67,-185.4"/>
</g>
<!-- Node24 -->
<g id="node24" class="node">
<title>Node24</title>
<g id="a_node24"><a xlink:href="pb__decode_8c.html#a7897e383f3ae811b1afc2ecd36277512" target="_top" xlink:title=" ">
<polygon fill="white" stroke="black" points="441,-252.39 441,-271.39 512,-271.39 512,-252.39 441,-252.39"/>
<text text-anchor="middle" x="476.5" y="-259.39" font-family="Helvetica,sans-Serif" font-size="10.00">pb_field_find</text>
</a>
</g>
</g>
<!-- Node4&#45;&gt;Node24 -->
<g id="edge35" class="edge">
<title>Node4&#45;&gt;Node24</title>
<path fill="none" stroke="midnightblue" d="M363.13,-261.89C384.38,-261.89 409.65,-261.89 430.84,-261.89"/>
<polygon fill="midnightblue" stroke="midnightblue" points="430.88,-265.39 440.88,-261.89 430.88,-258.39 430.88,-265.39"/>
</g>
<!-- Node25 -->
<g id="node25" class="node">
<title>Node25</title>
<g id="a_node25"><a xlink:href="pb__decode_8c.html#a1dd25c1621de36f7de14a3b9ba2c532d" target="_top" xlink:title=" ">
<polygon fill="white" stroke="black" points="442.5,-138.39 442.5,-157.39 510.5,-157.39 510.5,-138.39 442.5,-138.39"/>
<text text-anchor="middle" x="476.5" y="-145.39" font-family="Helvetica,sans-Serif" font-size="10.00">pb_field_init</text>
</a>
</g>
</g>
<!-- Node4&#45;&gt;Node25 -->
<g id="edge37" class="edge">
<title>Node4&#45;&gt;Node25</title>
<path fill="none" stroke="midnightblue" d="M327.65,-252.28C345.64,-234.72 386,-196.97 425,-171.89 430.57,-168.31 436.76,-164.93 442.85,-161.9"/>
<polygon fill="midnightblue" stroke="midnightblue" points="444.68,-164.9 452.21,-157.45 441.68,-158.58 444.68,-164.9"/>
</g>
<!-- Node6 -->
<g id="node6" class="node">
<title>Node6</title>
<g id="a_node6"><a xlink:href="pb__decode_8c.html#a7c09905fda4c6398697bcf0d42882c04" target="_top" xlink:title=" ">
<polygon fill="white" stroke="black" points="564,-252.39 564,-271.39 697,-271.39 697,-252.39 564,-252.39"/>
<text text-anchor="middle" x="630.5" y="-259.39" font-family="Helvetica,sans-Serif" font-size="10.00">default_extension_decoder</text>
</a>
</g>
</g>
<!-- Node5&#45;&gt;Node6 -->
<g id="edge5" class="edge">
<title>Node5&#45;&gt;Node6</title>
<path fill="none" stroke="midnightblue" d="M515.86,-233.48C535.82,-238.47 560.43,-244.62 581.63,-249.92"/>
<polygon fill="midnightblue" stroke="midnightblue" points="580.87,-253.34 591.42,-252.37 582.57,-246.55 580.87,-253.34"/>
</g>
<!-- Node6&#45;&gt;Node7 -->
<g id="edge6" class="edge">
<title>Node6&#45;&gt;Node7</title>
<path fill="none" stroke="midnightblue" d="M677.84,-271.45C684.57,-273.92 691.19,-277.02 697,-280.89 726.8,-300.74 750.61,-335.82 763.34,-357.34"/>
<polygon fill="midnightblue" stroke="midnightblue" points="760.39,-359.23 768.39,-366.18 766.47,-355.76 760.39,-359.23"/>
</g>
<!-- Node8 -->
<g id="node8" class="node">
<title>Node8</title>
<g id="a_node8"><a xlink:href="pb__decode_8c.html#a69a78d2efcd4b9057215ac8b79a5eb2b" target="_top" xlink:title=" ">
<polygon fill="white" stroke="black" points="852,-442.39 852,-461.39 965,-461.39 965,-442.39 852,-442.39"/>
<text text-anchor="middle" x="908.5" y="-449.39" font-family="Helvetica,sans-Serif" font-size="10.00">decode_callback_field</text>
</a>
</g>
</g>
<!-- Node7&#45;&gt;Node8 -->
<g id="edge7" class="edge">
<title>Node7&#45;&gt;Node8</title>
<path fill="none" stroke="midnightblue" d="M792.22,-385.51C814.93,-398.59 855.73,-422.09 882.21,-437.33"/>
<polygon fill="midnightblue" stroke="midnightblue" points="880.51,-440.39 890.92,-442.34 884,-434.32 880.51,-440.39"/>
</g>
<!-- Node19 -->
<g id="node19" class="node">
<title>Node19</title>
<g id="a_node19"><a xlink:href="pb__decode_8c.html#af65dd063304df2ed380dc411bb6caae6" target="_top" xlink:title=" ">
<polygon fill="white" stroke="black" points="855.5,-328.39 855.5,-347.39 961.5,-347.39 961.5,-328.39 855.5,-328.39"/>
<text text-anchor="middle" x="908.5" y="-335.39" font-family="Helvetica,sans-Serif" font-size="10.00">decode_pointer_field</text>
</a>
</g>
</g>
<!-- Node7&#45;&gt;Node19 -->
<g id="edge24" class="edge">
<title>Node7&#45;&gt;Node19</title>
<path fill="none" stroke="midnightblue" d="M808.81,-366.3C825.69,-361.44 846.39,-355.48 864.47,-350.28"/>
<polygon fill="midnightblue" stroke="midnightblue" points="865.56,-353.61 874.2,-347.48 863.62,-346.88 865.56,-353.61"/>
</g>
<!-- Node20 -->
<g id="node20" class="node">
<title>Node20</title>
<g id="a_node20"><a xlink:href="pb__decode_8c.html#a02c14bf9763a469e0414bf9a1eb13632" target="_top" xlink:title=" ">
<polygon fill="white" stroke="black" points="858,-366.39 858,-385.39 959,-385.39 959,-366.39 858,-366.39"/>
<text text-anchor="middle" x="908.5" y="-373.39" font-family="Helvetica,sans-Serif" font-size="10.00">decode_static_field</text>
</a>
</g>
</g>
<!-- Node7&#45;&gt;Node20 -->
<g id="edge27" class="edge">
<title>Node7&#45;&gt;Node20</title>
<path fill="none" stroke="midnightblue" d="M810.18,-375.89C821.69,-375.89 834.86,-375.89 847.71,-375.89"/>
<polygon fill="midnightblue" stroke="midnightblue" points="847.91,-379.39 857.91,-375.89 847.91,-372.39 847.91,-379.39"/>
</g>
<!-- Node8&#45;&gt;Node2 -->
<g id="edge8" class="edge">
<title>Node8&#45;&gt;Node2</title>
<path fill="none" stroke="midnightblue" d="M935.31,-442.32C944.89,-438.36 955.7,-433.4 965,-427.89 982.44,-417.56 983.22,-409.63 1001,-399.89 1008.6,-395.72 1017.07,-392.04 1025.37,-388.9"/>
<polygon fill="midnightblue" stroke="midnightblue" points="1026.74,-392.13 1034.97,-385.45 1024.38,-385.54 1026.74,-392.13"/>
</g>
<!-- Node9 -->
<g id="node9" class="node">
<title>Node9</title>
<g id="a_node9"><a xlink:href="pb__decode_8c.html#a37dc2b0c54c27ddd29791e7522c85548" target="_top" xlink:title=" ">
<polygon fill="white" stroke="black" points="1174,-366.39 1174,-385.39 1293,-385.39 1293,-366.39 1174,-366.39"/>
<text text-anchor="middle" x="1233.5" y="-373.39" font-family="Helvetica,sans-Serif" font-size="10.00">pb_istream_from_buffer</text>
</a>
</g>
</g>
<!-- Node8&#45;&gt;Node9 -->
<g id="edge9" class="edge">
<title>Node8&#45;&gt;Node9</title>
<path fill="none" stroke="midnightblue" d="M950.08,-442.34C1009.03,-428.47 1118.26,-402.77 1182.22,-387.72"/>
<polygon fill="midnightblue" stroke="midnightblue" points="1183.15,-391.1 1192.08,-385.4 1181.55,-384.28 1183.15,-391.1"/>
</g>
<!-- Node8&#45;&gt;Node11 -->
<g id="edge11" class="edge">
<title>Node8&#45;&gt;Node11</title>
<path fill="none" stroke="midnightblue" d="M918.97,-442.25C930.05,-430.94 948.93,-411.62 965,-394.89 981.12,-378.11 981.09,-368.92 1001,-356.89 1004.58,-354.73 1008.41,-352.81 1012.36,-351.1"/>
<polygon fill="midnightblue" stroke="midnightblue" points="1013.66,-354.35 1021.74,-347.48 1011.15,-347.81 1013.66,-354.35"/>
</g>
<!-- Node8&#45;&gt;Node14 -->
<g id="edge14" class="edge">
<title>Node8&#45;&gt;Node14</title>
<path fill="none" stroke="midnightblue" d="M949.62,-461.48C971.82,-466.78 999.5,-473.4 1022.56,-478.91"/>
<polygon fill="midnightblue" stroke="midnightblue" points="1021.92,-482.36 1032.46,-481.28 1023.55,-475.55 1021.92,-482.36"/>
</g>
<!-- Node18 -->
<g id="node18" class="node">
<title>Node18</title>
<g id="a_node18"><a xlink:href="pb__decode_8c.html#a3f23856ca4723854f204b46d5f10c3ec" target="_top" xlink:title=" ">
<polygon fill="white" stroke="black" points="1191,-442.39 1191,-461.39 1276,-461.39 1276,-442.39 1191,-442.39"/>
<text text-anchor="middle" x="1233.5" y="-449.39" font-family="Helvetica,sans-Serif" font-size="10.00">read_raw_value</text>
</a>
</g>
</g>
<!-- Node8&#45;&gt;Node18 -->
<g id="edge22" class="edge">
<title>Node8&#45;&gt;Node18</title>
<path fill="none" stroke="midnightblue" d="M965.03,-451.89C1025.43,-451.89 1121.25,-451.89 1180.31,-451.89"/>
<polygon fill="midnightblue" stroke="midnightblue" points="1180.54,-455.39 1190.54,-451.89 1180.54,-448.39 1180.54,-455.39"/>
</g>
<!-- Node10 -->
<g id="node10" class="node">
<title>Node10</title>
<g id="a_node10"><a xlink:href="pb__decode_8c.html#a9746f7244f9d14b2a095ddfcad55febe" target="_top" xlink:title=" ">
<polygon fill="white" stroke="black" points="1477,-404.39 1477,-423.39 1531,-423.39 1531,-404.39 1477,-404.39"/>
<text text-anchor="middle" x="1504" y="-411.39" font-family="Helvetica,sans-Serif" font-size="10.00">buf_read</text>
</a>
</g>
</g>
<!-- Node9&#45;&gt;Node10 -->
<g id="edge10" class="edge">
<title>Node9&#45;&gt;Node10</title>
<path fill="none" stroke="midnightblue" d="M1293.09,-384.18C1345.95,-391.66 1422.03,-402.43 1466.61,-408.74"/>
<polygon fill="midnightblue" stroke="midnightblue" points="1466.3,-412.23 1476.69,-410.17 1467.28,-405.3 1466.3,-412.23"/>
</g>
<!-- Node12 -->
<g id="node12" class="node">
<title>Node12</title>
<g id="a_node12"><a xlink:href="pb__decode_8c.html#abef49f760a21798e59538eec4aea23c2" target="_top" xlink:title=" ">
<polygon fill="white" stroke="black" points="1329,-328.39 1329,-347.39 1433,-347.39 1433,-328.39 1329,-328.39"/>
<text text-anchor="middle" x="1381" y="-335.39" font-family="Helvetica,sans-Serif" font-size="10.00">pb_decode_varint32</text>
</a>
</g>
</g>
<!-- Node11&#45;&gt;Node12 -->
<g id="edge12" class="edge">
<title>Node11&#45;&gt;Node12</title>
<path fill="none" stroke="midnightblue" d="M1138.04,-337.89C1191.9,-337.89 1266.69,-337.89 1318.81,-337.89"/>
<polygon fill="midnightblue" stroke="midnightblue" points="1318.91,-341.39 1328.91,-337.89 1318.91,-334.39 1318.91,-341.39"/>
</g>
<!-- Node13 -->
<g id="node13" class="node">
<title>Node13</title>
<g id="a_node13"><a xlink:href="pb__decode_8c.html#a13d38bcceb0a06bfc8c4c9c6da0f7258" target="_top" xlink:title=" ">
<polygon fill="white" stroke="black" points="1469,-328.39 1469,-347.39 1539,-347.39 1539,-328.39 1469,-328.39"/>
<text text-anchor="middle" x="1504" y="-335.39" font-family="Helvetica,sans-Serif" font-size="10.00">pb_readbyte</text>
</a>
</g>
</g>
<!-- Node12&#45;&gt;Node13 -->
<g id="edge13" class="edge">
<title>Node12&#45;&gt;Node13</title>
<path fill="none" stroke="midnightblue" d="M1433.31,-337.89C1441.74,-337.89 1450.41,-337.89 1458.64,-337.89"/>
<polygon fill="midnightblue" stroke="midnightblue" points="1458.79,-341.39 1468.79,-337.89 1458.79,-334.39 1458.79,-341.39"/>
</g>
<!-- Node15 -->
<g id="node15" class="node">
<title>Node15</title>
<g id="a_node15"><a xlink:href="pb__decode_8c.html#ad54a52168427208d756087919ff82d41" target="_top" xlink:title=" ">
<polygon fill="white" stroke="black" points="1355.5,-442.39 1355.5,-461.39 1406.5,-461.39 1406.5,-442.39 1355.5,-442.39"/>
<text text-anchor="middle" x="1381" y="-449.39" font-family="Helvetica,sans-Serif" font-size="10.00">pb_read</text>
</a>
</g>
</g>
<!-- Node14&#45;&gt;Node15 -->
<g id="edge15" class="edge">
<title>Node14&#45;&gt;Node15</title>
<path fill="none" stroke="midnightblue" d="M1106.51,-488.25C1150.65,-485.92 1227.64,-480.77 1293,-470.89 1310.43,-468.25 1329.59,-464.2 1345.49,-460.51"/>
<polygon fill="midnightblue" stroke="midnightblue" points="1346.49,-463.87 1355.41,-458.15 1344.87,-457.06 1346.49,-463.87"/>
</g>
<!-- Node16 -->
<g id="node16" class="node">
<title>Node16</title>
<g id="a_node16"><a xlink:href="pb__decode_8c.html#afa3e9c4da6d998fd6315d4cbd51b02e4" target="_top" xlink:title=" ">
<polygon fill="white" stroke="black" points="1193.5,-404.39 1193.5,-423.39 1273.5,-423.39 1273.5,-404.39 1193.5,-404.39"/>
<text text-anchor="middle" x="1233.5" y="-411.39" font-family="Helvetica,sans-Serif" font-size="10.00">pb_skip_string</text>
</a>
</g>
</g>
<!-- Node14&#45;&gt;Node16 -->
<g id="edge17" class="edge">
<title>Node14&#45;&gt;Node16</title>
<path fill="none" stroke="midnightblue" d="M1085.81,-480.25C1105.62,-468.07 1141.43,-446.99 1174,-432.89 1179.02,-430.71 1184.38,-428.65 1189.73,-426.74"/>
<polygon fill="midnightblue" stroke="midnightblue" points="1190.97,-430.01 1199.3,-423.47 1188.7,-423.39 1190.97,-430.01"/>
</g>
<!-- Node17 -->
<g id="node17" class="node">
<title>Node17</title>
<g id="a_node17"><a xlink:href="pb__decode_8c.html#a57738ceef4b30349437900b245a33c77" target="_top" xlink:title=" ">
<polygon fill="white" stroke="black" points="1193.5,-518.39 1193.5,-537.39 1273.5,-537.39 1273.5,-518.39 1193.5,-518.39"/>
<text text-anchor="middle" x="1233.5" y="-525.39" font-family="Helvetica,sans-Serif" font-size="10.00">pb_skip_varint</text>
</a>
</g>
</g>
<!-- Node14&#45;&gt;Node17 -->
<g id="edge20" class="edge">
<title>Node14&#45;&gt;Node17</title>
<path fill="none" stroke="midnightblue" d="M1106.86,-498.42C1129.49,-503.73 1158.88,-510.62 1183.54,-516.4"/>
<polygon fill="midnightblue" stroke="midnightblue" points="1182.9,-519.85 1193.44,-518.73 1184.5,-513.03 1182.9,-519.85"/>
</g>
<!-- Node15&#45;&gt;Node10 -->
<g id="edge16" class="edge">
<title>Node15&#45;&gt;Node10</title>
<path fill="none" stroke="midnightblue" d="M1406.78,-444.11C1424.09,-438.67 1447.48,-431.33 1466.86,-425.24"/>
<polygon fill="midnightblue" stroke="midnightblue" points="1468.09,-428.52 1476.58,-422.19 1465.99,-421.84 1468.09,-428.52"/>
</g>
<!-- Node16&#45;&gt;Node12 -->
<g id="edge18" class="edge">
<title>Node16&#45;&gt;Node12</title>
<path fill="none" stroke="midnightblue" d="M1269.12,-404.33C1277.12,-401.66 1285.49,-398.49 1293,-394.89 1317.13,-383.32 1342.47,-366.05 1359.54,-353.55"/>
<polygon fill="midnightblue" stroke="midnightblue" points="1361.73,-356.29 1367.66,-347.51 1357.55,-350.67 1361.73,-356.29"/>
</g>
<!-- Node16&#45;&gt;Node15 -->
<g id="edge19" class="edge">
<title>Node16&#45;&gt;Node15</title>
<path fill="none" stroke="midnightblue" d="M1271.22,-423.48C1293.99,-429.43 1323.08,-437.02 1345.44,-442.86"/>
<polygon fill="midnightblue" stroke="midnightblue" points="1344.63,-446.27 1355.19,-445.41 1346.4,-439.5 1344.63,-446.27"/>
</g>
<!-- Node17&#45;&gt;Node15 -->
<g id="edge21" class="edge">
<title>Node17&#45;&gt;Node15</title>
<path fill="none" stroke="midnightblue" d="M1260.21,-518.31C1270.55,-514.2 1282.5,-509.15 1293,-503.89 1315.31,-492.73 1339.58,-477.98 1356.81,-467.05"/>
<polygon fill="midnightblue" stroke="midnightblue" points="1359.07,-469.75 1365.6,-461.41 1355.29,-463.86 1359.07,-469.75"/>
</g>
<!-- Node18&#45;&gt;Node15 -->
<g id="edge23" class="edge">
<title>Node18&#45;&gt;Node15</title>
<path fill="none" stroke="midnightblue" d="M1276.19,-451.89C1297.93,-451.89 1324.23,-451.89 1344.91,-451.89"/>
<polygon fill="midnightblue" stroke="midnightblue" points="1345.16,-455.39 1355.16,-451.89 1345.16,-448.39 1345.16,-455.39"/>
</g>
<!-- Node19&#45;&gt;Node2 -->
<g id="edge25" class="edge">
<title>Node19&#45;&gt;Node2</title>
<path fill="none" stroke="midnightblue" d="M949.62,-347.48C970.6,-352.49 996.48,-358.68 1018.73,-363.99"/>
<polygon fill="midnightblue" stroke="midnightblue" points="1018.13,-367.45 1028.67,-366.37 1019.75,-360.64 1018.13,-367.45"/>
</g>
<!-- Node19&#45;&gt;Node11 -->
<g id="edge26" class="edge">
<title>Node19&#45;&gt;Node11</title>
<path fill="none" stroke="midnightblue" d="M961.56,-337.89C970.91,-337.89 980.83,-337.89 990.71,-337.89"/>
<polygon fill="midnightblue" stroke="midnightblue" points="990.97,-341.39 1000.97,-337.89 990.97,-334.39 990.97,-341.39"/>
</g>
<!-- Node20&#45;&gt;Node2 -->
<g id="edge28" class="edge">
<title>Node20&#45;&gt;Node2</title>
<path fill="none" stroke="midnightblue" d="M959.37,-375.89C969.45,-375.89 980.27,-375.89 991.03,-375.89"/>
<polygon fill="midnightblue" stroke="midnightblue" points="991.32,-379.39 1001.32,-375.89 991.32,-372.39 991.32,-379.39"/>
</g>
<!-- Node20&#45;&gt;Node11 -->
<g id="edge29" class="edge">
<title>Node20&#45;&gt;Node11</title>
<path fill="none" stroke="midnightblue" d="M949.62,-366.3C970.6,-361.29 996.48,-355.1 1018.73,-349.78"/>
<polygon fill="midnightblue" stroke="midnightblue" points="1019.75,-353.14 1028.67,-347.41 1018.13,-346.33 1019.75,-353.14"/>
</g>
<!-- Node21&#45;&gt;Node22 -->
<g id="edge32" class="edge">
<title>Node21&#45;&gt;Node22</title>
<path fill="none" stroke="midnightblue" d="M515.86,-328.3C536.36,-323.18 561.74,-316.83 583.32,-311.43"/>
<polygon fill="midnightblue" stroke="midnightblue" points="584.4,-314.77 593.25,-308.95 582.7,-307.98 584.4,-314.77"/>
</g>
<!-- Node23&#45;&gt;Node12 -->
<g id="edge34" class="edge">
<title>Node23&#45;&gt;Node12</title>
<path fill="none" stroke="midnightblue" d="M816.14,-188.99C854.74,-192.41 914.27,-198.94 965,-209.89 1108.65,-240.9 1274.13,-298.89 1344.93,-324.8"/>
<polygon fill="midnightblue" stroke="midnightblue" points="1344.08,-328.22 1354.67,-328.38 1346.49,-321.65 1344.08,-328.22"/>
</g>
<!-- Node24&#45;&gt;Node22 -->
<g id="edge36" class="edge">
<title>Node24&#45;&gt;Node22</title>
<path fill="none" stroke="midnightblue" d="M512.37,-270.61C533.52,-275.89 560.75,-282.7 583.63,-288.42"/>
<polygon fill="midnightblue" stroke="midnightblue" points="582.92,-291.85 593.47,-290.88 584.62,-285.06 582.92,-291.85"/>
</g>
<!-- Node26&#45;&gt;Node22 -->
<g id="edge44" class="edge">
<title>Node26&#45;&gt;Node22</title>
<path fill="none" stroke="midnightblue" d="M361.44,-100.39C408.31,-92.87 482.36,-89.32 528,-128.89 580.46,-174.37 516.15,-230.59 564,-280.89 569.27,-286.43 576.06,-290.39 583.26,-293.2"/>
<polygon fill="midnightblue" stroke="midnightblue" points="582.63,-296.68 593.22,-296.38 584.76,-290.01 582.63,-296.68"/>
</g>
<!-- Node26&#45;&gt;Node25 -->
<g id="edge43" class="edge">
<title>Node26&#45;&gt;Node25</title>
<path fill="none" stroke="midnightblue" d="M357.74,-119.48C380.53,-124.98 409.14,-131.88 432.45,-137.5"/>
<polygon fill="midnightblue" stroke="midnightblue" points="431.87,-140.96 442.42,-139.91 433.52,-134.16 431.87,-140.96"/>
</g>
<!-- Node27 -->
<g id="node27" class="node">
<title>Node27</title>
<g id="a_node27"><a xlink:href="pb__syshdr_8h.html#a39dc31816e18e5a0b48da2865a4b698c" target="_top" xlink:title=" ">
<polygon fill="white" stroke="black" points="449.5,-24.39 449.5,-43.39 503.5,-43.39 503.5,-24.39 449.5,-24.39"/>
<text text-anchor="middle" x="476.5" y="-31.39" font-family="Helvetica,sans-Serif" font-size="10.00">memcpy</text>
</a>
</g>
</g>
<!-- Node26&#45;&gt;Node27 -->
<g id="edge41" class="edge">
<title>Node26&#45;&gt;Node27</title>
<path fill="none" stroke="midnightblue" d="M334.35,-100.32C355.05,-88.41 392.01,-67.81 425,-52.89 429.73,-50.75 434.79,-48.64 439.8,-46.66"/>
<polygon fill="midnightblue" stroke="midnightblue" points="441.21,-49.87 449.29,-43.02 438.7,-43.33 441.21,-49.87"/>
</g>
<!-- Node28 -->
<g id="node28" class="node">
<title>Node28</title>
<g id="a_node28"><a xlink:href="pb__syshdr_8h.html#aebca9679ad3da8a3bfe87d58959c7ca5" target="_top" xlink:title=" ">
<polygon fill="white" stroke="black" points="450.5,-62.39 450.5,-81.39 502.5,-81.39 502.5,-62.39 450.5,-62.39"/>
<text text-anchor="middle" x="476.5" y="-69.39" font-family="Helvetica,sans-Serif" font-size="10.00">memset</text>
</a>
</g>
</g>
<!-- Node26&#45;&gt;Node28 -->
<g id="edge42" class="edge">
<title>Node26&#45;&gt;Node28</title>
<path fill="none" stroke="midnightblue" d="M357.74,-100.3C383.1,-94.18 415.68,-86.32 440.13,-80.42"/>
<polygon fill="midnightblue" stroke="midnightblue" points="441.17,-83.77 450.07,-78.02 439.53,-76.97 441.17,-83.77"/>
</g>
</g>
</svg>
