<?xml version="1.0" encoding="UTF-8" standalone="no"?>
<!DOCTYPE svg PUBLIC "-//W3C//DTD SVG 1.1//EN"
 "http://www.w3.org/Graphics/SVG/1.1/DTD/svg11.dtd">
<!-- Generated by graphviz version 2.43.0 (0)
 -->
<!-- Title: decode_extension Pages: 1 -->
<svg width="781pt" height="116pt"
 viewBox="0.00 0.00 781.00 116.00" xmlns="http://www.w3.org/2000/svg" xmlns:xlink="http://www.w3.org/1999/xlink">
<g id="graph0" class="graph" transform="scale(1 1) rotate(0) translate(4 112)">
<title>decode_extension</title>
<polygon fill="white" stroke="transparent" points="-4,4 -4,-112 777,-112 777,4 -4,4"/>
<!-- Node1 -->
<g id="node1" class="node">
<title>Node1</title>
<g id="a_node1"><a xlink:title=" ">
<polygon fill="#bfbfbf" stroke="black" points="678,-66.5 678,-85.5 773,-85.5 773,-66.5 678,-66.5"/>
<text text-anchor="middle" x="725.5" y="-73.5" font-family="Helvetica,sans-Serif" font-size="10.00">decode_extension</text>
</a>
</g>
</g>
<!-- Node2 -->
<g id="node2" class="node">
<title>Node2</title>
<g id="a_node2"><a xlink:href="pb__decode_8c.html#a0c0f95a964239344d503e724818e8fc0" target="_top" xlink:title=" ">
<polygon fill="white" stroke="black" points="550,-66.5 550,-85.5 642,-85.5 642,-66.5 550,-66.5"/>
<text text-anchor="middle" x="596" y="-73.5" font-family="Helvetica,sans-Serif" font-size="10.00">pb_decode_noinit</text>
</a>
</g>
</g>
<!-- Node1&#45;&gt;Node2 -->
<g id="edge1" class="edge">
<title>Node1&#45;&gt;Node2</title>
<path fill="none" stroke="midnightblue" d="M667.48,-76C658.96,-76 650.27,-76 642.05,-76"/>
<polygon fill="midnightblue" stroke="midnightblue" points="667.75,-79.5 677.75,-76 667.75,-72.5 667.75,-79.5"/>
</g>
<!-- Node3 -->
<g id="node3" class="node">
<title>Node3</title>
<g id="a_node3"><a xlink:href="pb__decode_8c.html#adb01106a062444577e9e3f3a047db2ef" target="_top" xlink:title=" ">
<polygon fill="white" stroke="black" points="280.5,-88.5 280.5,-107.5 389.5,-107.5 389.5,-88.5 280.5,-88.5"/>
<text text-anchor="middle" x="335" y="-95.5" font-family="Helvetica,sans-Serif" font-size="10.00">pb_dec_submessage</text>
</a>
</g>
</g>
<!-- Node2&#45;&gt;Node3 -->
<g id="edge2" class="edge">
<title>Node2&#45;&gt;Node3</title>
<path fill="none" stroke="midnightblue" d="M539.85,-80.68C495.48,-84.45 433.49,-89.72 389.55,-93.45"/>
<polygon fill="midnightblue" stroke="midnightblue" points="540.22,-84.17 549.89,-79.83 539.63,-77.19 540.22,-84.17"/>
</g>
<!-- Node4 -->
<g id="node4" class="node">
<title>Node4</title>
<g id="a_node4"><a xlink:href="pb__decode_8c.html#a75c9a727abe84bfaaef633ac68d48cfa" target="_top" xlink:title=" ">
<polygon fill="white" stroke="black" points="450,-47.5 450,-66.5 514,-66.5 514,-47.5 450,-47.5"/>
<text text-anchor="middle" x="482" y="-54.5" font-family="Helvetica,sans-Serif" font-size="10.00">pb_decode</text>
</a>
</g>
</g>
<!-- Node2&#45;&gt;Node4 -->
<g id="edge3" class="edge">
<title>Node2&#45;&gt;Node4</title>
<path fill="none" stroke="midnightblue" d="M539.9,-66.65C531.11,-65.16 522.29,-63.67 514.31,-62.31"/>
<polygon fill="midnightblue" stroke="midnightblue" points="539.32,-70.1 549.77,-68.33 540.49,-63.2 539.32,-70.1"/>
</g>
<!-- Node4&#45;&gt;Node3 -->
<g id="edge7" class="edge">
<title>Node4&#45;&gt;Node3</title>
<path fill="none" stroke="midnightblue" d="M443.73,-69.81C434.09,-72.97 423.7,-76.23 414,-79 402.34,-82.33 389.6,-85.59 377.85,-88.44"/>
<polygon fill="midnightblue" stroke="midnightblue" points="445.05,-73.06 453.44,-66.59 442.85,-66.42 445.05,-73.06"/>
</g>
<!-- Node5 -->
<g id="node5" class="node">
<title>Node5</title>
<g id="a_node5"><a xlink:href="class_k_u_k_a_1_1_f_r_i_1_1_monitoring_message_decoder.html#aa72fb1e622847a636e6f5d7ac4770103" target="_top" xlink:title=" ">
<polygon fill="white" stroke="black" points="256,-39 256,-69 414,-69 414,-39 256,-39"/>
<text text-anchor="start" x="264" y="-57" font-family="Helvetica,sans-Serif" font-size="10.00">KUKA::FRI::MonitoringMessage</text>
<text text-anchor="middle" x="335" y="-46" font-family="Helvetica,sans-Serif" font-size="10.00">Decoder::decode</text>
</a>
</g>
</g>
<!-- Node4&#45;&gt;Node5 -->
<g id="edge4" class="edge">
<title>Node4&#45;&gt;Node5</title>
<path fill="none" stroke="midnightblue" d="M439.7,-56.15C431.64,-55.98 422.94,-55.8 414.12,-55.62"/>
<polygon fill="midnightblue" stroke="midnightblue" points="439.82,-59.65 449.89,-56.36 439.97,-52.65 439.82,-59.65"/>
</g>
<!-- Node8 -->
<g id="node8" class="node">
<title>Node8</title>
<g id="a_node8"><a xlink:href="pb__decode_8c.html#a7c030d7dee687e354a62a72d45dca39b" target="_top" xlink:title=" ">
<polygon fill="white" stroke="black" points="281,-0.5 281,-19.5 389,-19.5 389,-0.5 281,-0.5"/>
<text text-anchor="middle" x="335" y="-7.5" font-family="Helvetica,sans-Serif" font-size="10.00">pb_decode_delimited</text>
</a>
</g>
</g>
<!-- Node4&#45;&gt;Node8 -->
<g id="edge8" class="edge">
<title>Node4&#45;&gt;Node8</title>
<path fill="none" stroke="midnightblue" d="M449.88,-43.47C438.69,-38.86 425.89,-33.9 414,-30 402.31,-26.16 389.44,-22.6 377.58,-19.58"/>
<polygon fill="midnightblue" stroke="midnightblue" points="448.67,-46.75 459.24,-47.38 451.37,-40.29 448.67,-46.75"/>
</g>
<!-- Node6 -->
<g id="node6" class="node">
<title>Node6</title>
<g id="a_node6"><a xlink:href="class_k_u_k_a_1_1_f_r_i_1_1_client_application.html#a9939bfd1fa78c59dc3675a6d2a5de7a7" target="_top" xlink:title="Run a single processing step.">
<polygon fill="white" stroke="black" points="74,-39 74,-69 220,-69 220,-39 74,-39"/>
<text text-anchor="start" x="82" y="-57" font-family="Helvetica,sans-Serif" font-size="10.00">KUKA::FRI::ClientApplication</text>
<text text-anchor="middle" x="147" y="-46" font-family="Helvetica,sans-Serif" font-size="10.00">::step</text>
</a>
</g>
</g>
<!-- Node5&#45;&gt;Node6 -->
<g id="edge5" class="edge">
<title>Node5&#45;&gt;Node6</title>
<path fill="none" stroke="midnightblue" d="M245.88,-54C237.29,-54 228.65,-54 220.24,-54"/>
<polygon fill="midnightblue" stroke="midnightblue" points="245.93,-57.5 255.93,-54 245.93,-50.5 245.93,-57.5"/>
</g>
<!-- Node7 -->
<g id="node7" class="node">
<title>Node7</title>
<g id="a_node7"><a xlink:href="_i_o_access_app_8cpp.html#a3c04138a5bfe5d72780bb7e82a18e627" target="_top" xlink:title=" ">
<polygon fill="white" stroke="black" points="0,-44.5 0,-63.5 38,-63.5 38,-44.5 0,-44.5"/>
<text text-anchor="middle" x="19" y="-51.5" font-family="Helvetica,sans-Serif" font-size="10.00">main</text>
</a>
</g>
</g>
<!-- Node6&#45;&gt;Node7 -->
<g id="edge6" class="edge">
<title>Node6&#45;&gt;Node7</title>
<path fill="none" stroke="midnightblue" d="M63.74,-54C54.28,-54 45.45,-54 38.25,-54"/>
<polygon fill="midnightblue" stroke="midnightblue" points="63.8,-57.5 73.8,-54 63.8,-50.5 63.8,-57.5"/>
</g>
</g>
</svg>
