<?xml version="1.0" encoding="UTF-8" standalone="no"?>
<!DOCTYPE svg PUBLIC "-//W3C//DTD SVG 1.1//EN"
 "http://www.w3.org/Graphics/SVG/1.1/DTD/svg11.dtd">
<!-- Generated by graphviz version 2.43.0 (0)
 -->
<!-- Title: init_repeatedDouble Pages: 1 -->
<svg width="338pt" height="110pt"
 viewBox="0.00 0.00 338.00 110.00" xmlns="http://www.w3.org/2000/svg" xmlns:xlink="http://www.w3.org/1999/xlink">
<g id="graph0" class="graph" transform="scale(1 1) rotate(0) translate(4 106)">
<title>init_repeatedDouble</title>
<polygon fill="white" stroke="transparent" points="-4,4 -4,-106 334,-106 334,4 -4,4"/>
<!-- Node1 -->
<g id="node1" class="node">
<title>Node1</title>
<g id="a_node1"><a xlink:title=" ">
<polygon fill="#bfbfbf" stroke="black" points="227,-41.5 227,-60.5 330,-60.5 330,-41.5 227,-41.5"/>
<text text-anchor="middle" x="278.5" y="-48.5" font-family="Helvetica,sans-Serif" font-size="10.00">init_repeatedDouble</text>
</a>
</g>
</g>
<!-- Node2 -->
<g id="node2" class="node">
<title>Node2</title>
<g id="a_node2"><a xlink:href="struct_k_u_k_a_1_1_f_r_i_1_1_command_message_encoder_1_1_local_command_data_container.html#a4f149fa46f3cbdf7655f0f5ffcc25e92" target="_top" xlink:title=" ">
<polygon fill="white" stroke="black" points="0.5,-60.5 0.5,-101.5 190.5,-101.5 190.5,-60.5 0.5,-60.5"/>
<text text-anchor="start" x="8.5" y="-89.5" font-family="Helvetica,sans-Serif" font-size="10.00">KUKA::FRI::CommandMessage</text>
<text text-anchor="start" x="8.5" y="-78.5" font-family="Helvetica,sans-Serif" font-size="10.00">Encoder::LocalCommandDataContainer</text>
<text text-anchor="middle" x="95.5" y="-67.5" font-family="Helvetica,sans-Serif" font-size="10.00">::LocalCommandDataContainer</text>
</a>
</g>
</g>
<!-- Node1&#45;&gt;Node2 -->
<g id="edge1" class="edge">
<title>Node1&#45;&gt;Node2</title>
<path fill="none" stroke="midnightblue" d="M216.57,-61.1C208.18,-62.49 199.4,-63.94 190.58,-65.41"/>
<polygon fill="midnightblue" stroke="midnightblue" points="217.31,-64.52 226.6,-59.44 216.16,-57.62 217.31,-64.52"/>
</g>
<!-- Node3 -->
<g id="node3" class="node">
<title>Node3</title>
<g id="a_node3"><a xlink:href="struct_k_u_k_a_1_1_f_r_i_1_1_monitoring_message_decoder_1_1_local_monitoring_data_container.html#a9d1bb7fa8ed70d4cd63c274cb8ef9c30" target="_top" xlink:title=" ">
<polygon fill="white" stroke="black" points="0,-0.5 0,-41.5 191,-41.5 191,-0.5 0,-0.5"/>
<text text-anchor="start" x="8" y="-29.5" font-family="Helvetica,sans-Serif" font-size="10.00">KUKA::FRI::MonitoringMessage</text>
<text text-anchor="start" x="8" y="-18.5" font-family="Helvetica,sans-Serif" font-size="10.00">Decoder::LocalMonitoringDataContainer</text>
<text text-anchor="middle" x="95.5" y="-7.5" font-family="Helvetica,sans-Serif" font-size="10.00">::LocalMonitoringDataContainer</text>
</a>
</g>
</g>
<!-- Node1&#45;&gt;Node3 -->
<g id="edge2" class="edge">
<title>Node1&#45;&gt;Node3</title>
<path fill="none" stroke="midnightblue" d="M216.49,-40.89C208.34,-39.54 199.83,-38.13 191.27,-36.71"/>
<polygon fill="midnightblue" stroke="midnightblue" points="216.16,-44.38 226.6,-42.56 217.31,-37.48 216.16,-44.38"/>
</g>
</g>
</svg>
