<?xml version="1.0" encoding="UTF-8" standalone="no"?>
<!DOCTYPE svg PUBLIC "-//W3C//DTD SVG 1.1//EN"
 "http://www.w3.org/Graphics/SVG/1.1/DTD/svg11.dtd">
<!-- Generated by graphviz version 2.43.0 (0)
 -->
<!-- Title: buf_write Pages: 1 -->
<svg width="2004pt" height="598pt"
 viewBox="0.00 0.00 2004.00 598.00" xmlns="http://www.w3.org/2000/svg" xmlns:xlink="http://www.w3.org/1999/xlink">
<g id="graph0" class="graph" transform="scale(1 1) rotate(0) translate(4 594)">
<title>buf_write</title>
<polygon fill="white" stroke="transparent" points="-4,4 -4,-594 2000,-594 2000,4 -4,4"/>
<!-- Node1 -->
<g id="node1" class="node">
<title>Node1</title>
<g id="a_node1"><a xlink:title=" ">
<polygon fill="#bfbfbf" stroke="black" points="1940,-494.5 1940,-513.5 1996,-513.5 1996,-494.5 1940,-494.5"/>
<text text-anchor="middle" x="1968" y="-501.5" font-family="Helvetica,sans-Serif" font-size="10.00">buf_write</text>
</a>
</g>
</g>
<!-- Node2 -->
<g id="node2" class="node">
<title>Node2</title>
<g id="a_node2"><a xlink:href="pb__encode_8c.html#a52a102e2c3f0d96a08c1e62d5038092e" target="_top" xlink:title=" ">
<polygon fill="white" stroke="black" points="550,-570.5 550,-589.5 672,-589.5 672,-570.5 550,-570.5"/>
<text text-anchor="middle" x="611" y="-577.5" font-family="Helvetica,sans-Serif" font-size="10.00">pb_ostream_from_buffer</text>
</a>
</g>
</g>
<!-- Node1&#45;&gt;Node2 -->
<g id="edge1" class="edge">
<title>Node1&#45;&gt;Node2</title>
<path fill="none" stroke="midnightblue" d="M1943.69,-519.13C1907.23,-541.3 1833.8,-580 1765.5,-580 1765.5,-580 1765.5,-580 1003,-580 885.9,-580 749.08,-580 672.28,-580"/>
<polygon fill="midnightblue" stroke="midnightblue" points="1945.9,-521.88 1952.55,-513.63 1942.21,-515.93 1945.9,-521.88"/>
</g>
<!-- Node6 -->
<g id="node6" class="node">
<title>Node6</title>
<g id="a_node6"><a xlink:href="pb__encode_8c.html#a6f8d972fa4a439724532f0bcc07de81d" target="_top" xlink:title=" ">
<polygon fill="white" stroke="black" points="1851,-418.5 1851,-437.5 1904,-437.5 1904,-418.5 1851,-418.5"/>
<text text-anchor="middle" x="1877.5" y="-425.5" font-family="Helvetica,sans-Serif" font-size="10.00">pb_write</text>
</a>
</g>
</g>
<!-- Node1&#45;&gt;Node6 -->
<g id="edge5" class="edge">
<title>Node1&#45;&gt;Node6</title>
<path fill="none" stroke="midnightblue" d="M1947.79,-487.51C1930.02,-472.24 1904.2,-450.07 1889.62,-437.55"/>
<polygon fill="midnightblue" stroke="midnightblue" points="1945.92,-490.51 1955.79,-494.37 1950.49,-485.2 1945.92,-490.51"/>
</g>
<!-- Node3 -->
<g id="node3" class="node">
<title>Node3</title>
<g id="a_node3"><a xlink:href="class_k_u_k_a_1_1_f_r_i_1_1_command_message_encoder.html#a53c2553cb91250334d979f2aaa4006a4" target="_top" xlink:title=" ">
<polygon fill="white" stroke="black" points="256,-553 256,-583 414,-583 414,-553 256,-553"/>
<text text-anchor="start" x="264" y="-571" font-family="Helvetica,sans-Serif" font-size="10.00">KUKA::FRI::CommandMessage</text>
<text text-anchor="middle" x="335" y="-560" font-family="Helvetica,sans-Serif" font-size="10.00">Encoder::encode</text>
</a>
</g>
</g>
<!-- Node2&#45;&gt;Node3 -->
<g id="edge2" class="edge">
<title>Node2&#45;&gt;Node3</title>
<path fill="none" stroke="midnightblue" d="M539.81,-576.93C501.43,-575.25 453.79,-573.16 414.22,-571.43"/>
<polygon fill="midnightblue" stroke="midnightblue" points="539.73,-580.43 549.87,-577.37 540.03,-573.43 539.73,-580.43"/>
</g>
<!-- Node4 -->
<g id="node4" class="node">
<title>Node4</title>
<g id="a_node4"><a xlink:href="class_k_u_k_a_1_1_f_r_i_1_1_client_application.html#a9939bfd1fa78c59dc3675a6d2a5de7a7" target="_top" xlink:title="Run a single processing step.">
<polygon fill="white" stroke="black" points="74,-553 74,-583 220,-583 220,-553 74,-553"/>
<text text-anchor="start" x="82" y="-571" font-family="Helvetica,sans-Serif" font-size="10.00">KUKA::FRI::ClientApplication</text>
<text text-anchor="middle" x="147" y="-560" font-family="Helvetica,sans-Serif" font-size="10.00">::step</text>
</a>
</g>
</g>
<!-- Node3&#45;&gt;Node4 -->
<g id="edge3" class="edge">
<title>Node3&#45;&gt;Node4</title>
<path fill="none" stroke="midnightblue" d="M245.88,-568C237.29,-568 228.65,-568 220.24,-568"/>
<polygon fill="midnightblue" stroke="midnightblue" points="245.93,-571.5 255.93,-568 245.93,-564.5 245.93,-571.5"/>
</g>
<!-- Node5 -->
<g id="node5" class="node">
<title>Node5</title>
<g id="a_node5"><a xlink:href="_i_o_access_app_8cpp.html#a3c04138a5bfe5d72780bb7e82a18e627" target="_top" xlink:title=" ">
<polygon fill="white" stroke="black" points="0,-558.5 0,-577.5 38,-577.5 38,-558.5 0,-558.5"/>
<text text-anchor="middle" x="19" y="-565.5" font-family="Helvetica,sans-Serif" font-size="10.00">main</text>
</a>
</g>
</g>
<!-- Node4&#45;&gt;Node5 -->
<g id="edge4" class="edge">
<title>Node4&#45;&gt;Node5</title>
<path fill="none" stroke="midnightblue" d="M63.74,-568C54.28,-568 45.45,-568 38.25,-568"/>
<polygon fill="midnightblue" stroke="midnightblue" points="63.8,-571.5 73.8,-568 63.8,-564.5 63.8,-571.5"/>
</g>
<!-- Node7 -->
<g id="node7" class="node">
<title>Node7</title>
<g id="a_node7"><a xlink:href="pb__encode_8c.html#afb8fc9e49589eaae694eff25c858a19c" target="_top" xlink:title=" ">
<polygon fill="white" stroke="black" points="1287.5,-361.5 1287.5,-380.5 1362.5,-380.5 1362.5,-361.5 1287.5,-361.5"/>
<text text-anchor="middle" x="1325" y="-368.5" font-family="Helvetica,sans-Serif" font-size="10.00">encode_array</text>
</a>
</g>
</g>
<!-- Node6&#45;&gt;Node7 -->
<g id="edge6" class="edge">
<title>Node6&#45;&gt;Node7</title>
<path fill="none" stroke="midnightblue" d="M1840.83,-430.72C1763.48,-435.71 1574.97,-443.04 1422,-410 1393.69,-403.88 1363.02,-390.04 1344.15,-380.6"/>
<polygon fill="midnightblue" stroke="midnightblue" points="1841.25,-434.2 1850.99,-430.03 1840.78,-427.21 1841.25,-434.2"/>
</g>
<!-- Node13 -->
<g id="node13" class="node">
<title>Node13</title>
<g id="a_node13"><a xlink:href="pb__encode_8c.html#a5c19520cad847fead01fae854b8a6f86" target="_top" xlink:title=" ">
<polygon fill="white" stroke="black" points="272.5,-456.5 272.5,-475.5 397.5,-475.5 397.5,-456.5 272.5,-456.5"/>
<text text-anchor="middle" x="335" y="-463.5" font-family="Helvetica,sans-Serif" font-size="10.00">pb_encode_submessage</text>
</a>
</g>
</g>
<!-- Node6&#45;&gt;Node13 -->
<g id="edge31" class="edge">
<title>Node6&#45;&gt;Node13</title>
<path fill="none" stroke="midnightblue" d="M1841.15,-440.23C1832.67,-442.79 1823.58,-445.25 1815,-447 1734.01,-463.5 1712.65,-466 1630,-466 1630,-466 1630,-466 610,-466 537.1,-466 453.29,-466 397.76,-466"/>
<polygon fill="midnightblue" stroke="midnightblue" points="1842.28,-443.54 1850.76,-437.19 1840.17,-436.86 1842.28,-443.54"/>
</g>
<!-- Node17 -->
<g id="node17" class="node">
<title>Node17</title>
<g id="a_node17"><a xlink:href="pb__encode_8c.html#a10f037686377976d07531ce87f1cd913" target="_top" xlink:title=" ">
<polygon fill="white" stroke="black" points="1714,-494.5 1714,-513.5 1815,-513.5 1815,-494.5 1714,-494.5"/>
<text text-anchor="middle" x="1764.5" y="-501.5" font-family="Helvetica,sans-Serif" font-size="10.00">pb_encode_fixed32</text>
</a>
</g>
</g>
<!-- Node6&#45;&gt;Node17 -->
<g id="edge18" class="edge">
<title>Node6&#45;&gt;Node17</title>
<path fill="none" stroke="midnightblue" d="M1859.27,-444.61C1847.42,-455.5 1831,-469.59 1815,-480 1806.67,-485.42 1796.94,-490.39 1788.32,-494.39"/>
<polygon fill="midnightblue" stroke="midnightblue" points="1861.77,-447.06 1866.68,-437.67 1856.99,-441.95 1861.77,-447.06"/>
</g>
<!-- Node19 -->
<g id="node19" class="node">
<title>Node19</title>
<g id="a_node19"><a xlink:href="pb__encode_8c.html#ae61c01d23aaa60452a9f5d01e9a17833" target="_top" xlink:title=" ">
<polygon fill="white" stroke="black" points="1714,-38.5 1714,-57.5 1815,-57.5 1815,-38.5 1714,-38.5"/>
<text text-anchor="middle" x="1764.5" y="-45.5" font-family="Helvetica,sans-Serif" font-size="10.00">pb_encode_fixed64</text>
</a>
</g>
</g>
<!-- Node6&#45;&gt;Node19 -->
<g id="edge20" class="edge">
<title>Node6&#45;&gt;Node19</title>
<path fill="none" stroke="midnightblue" d="M1873.03,-408.47C1864.99,-364.65 1843.6,-255.42 1815,-167 1801.5,-125.27 1779.66,-77.68 1770.16,-57.67"/>
<polygon fill="midnightblue" stroke="midnightblue" points="1869.59,-409.15 1874.82,-418.37 1876.48,-407.9 1869.59,-409.15"/>
</g>
<!-- Node27 -->
<g id="node27" class="node">
<title>Node27</title>
<g id="a_node27"><a xlink:href="pb__encode_8c.html#a280ca371ad740196d282a50672a91da1" target="_top" xlink:title=" ">
<polygon fill="white" stroke="black" points="1582.5,-114.5 1582.5,-133.5 1675.5,-133.5 1675.5,-114.5 1582.5,-114.5"/>
<text text-anchor="middle" x="1629" y="-121.5" font-family="Helvetica,sans-Serif" font-size="10.00">pb_encode_string</text>
</a>
</g>
</g>
<!-- Node6&#45;&gt;Node27 -->
<g id="edge28" class="edge">
<title>Node6&#45;&gt;Node27</title>
<path fill="none" stroke="midnightblue" d="M1873.08,-408.3C1866.49,-374.66 1849.52,-305.15 1815,-257 1771.09,-195.76 1690.09,-152.01 1651.51,-133.64"/>
<polygon fill="midnightblue" stroke="midnightblue" points="1869.66,-409.05 1874.93,-418.24 1876.54,-407.77 1869.66,-409.05"/>
</g>
<!-- Node30 -->
<g id="node30" class="node">
<title>Node30</title>
<g id="a_node30"><a xlink:href="pb__encode_8c.html#a568e2eb180774ef4e07de89508edb52b" target="_top" xlink:title=" ">
<polygon fill="white" stroke="black" points="1718,-266.5 1718,-285.5 1811,-285.5 1811,-266.5 1718,-266.5"/>
<text text-anchor="middle" x="1764.5" y="-273.5" font-family="Helvetica,sans-Serif" font-size="10.00">pb_encode_varint</text>
</a>
</g>
</g>
<!-- Node6&#45;&gt;Node30 -->
<g id="edge32" class="edge">
<title>Node6&#45;&gt;Node30</title>
<path fill="none" stroke="midnightblue" d="M1863.64,-410.39C1840.06,-378.1 1790.66,-310.45 1772.44,-285.5"/>
<polygon fill="midnightblue" stroke="midnightblue" points="1860.83,-412.48 1869.56,-418.49 1866.49,-408.35 1860.83,-412.48"/>
</g>
<!-- Node8 -->
<g id="node8" class="node">
<title>Node8</title>
<g id="a_node8"><a xlink:href="pb__encode_8c.html#a1f186424780069ab183fb7d2360d274e" target="_top" xlink:title=" ">
<polygon fill="white" stroke="black" points="1123.5,-361.5 1123.5,-380.5 1223.5,-380.5 1223.5,-361.5 1123.5,-361.5"/>
<text text-anchor="middle" x="1173.5" y="-368.5" font-family="Helvetica,sans-Serif" font-size="10.00">encode_basic_field</text>
</a>
</g>
</g>
<!-- Node7&#45;&gt;Node8 -->
<g id="edge7" class="edge">
<title>Node7&#45;&gt;Node8</title>
<path fill="none" stroke="midnightblue" d="M1277.16,-371C1260.15,-371 1240.89,-371 1223.68,-371"/>
<polygon fill="midnightblue" stroke="midnightblue" points="1277.43,-374.5 1287.43,-371 1277.43,-367.5 1277.43,-374.5"/>
</g>
<!-- Node9 -->
<g id="node9" class="node">
<title>Node9</title>
<g id="a_node9"><a xlink:href="pb__encode_8c.html#a8aa23313175c09e050e2acbc54a17bd4" target="_top" xlink:title=" ">
<polygon fill="white" stroke="black" points="968.5,-494.5 968.5,-513.5 1039.5,-513.5 1039.5,-494.5 968.5,-494.5"/>
<text text-anchor="middle" x="1004" y="-501.5" font-family="Helvetica,sans-Serif" font-size="10.00">encode_field</text>
</a>
</g>
</g>
<!-- Node8&#45;&gt;Node9 -->
<g id="edge8" class="edge">
<title>Node8&#45;&gt;Node9</title>
<path fill="none" stroke="midnightblue" d="M1152.37,-386.98C1117.32,-414.82 1046.08,-471.38 1017.39,-494.16"/>
<polygon fill="midnightblue" stroke="midnightblue" points="1154.8,-389.52 1160.45,-380.57 1150.45,-384.04 1154.8,-389.52"/>
</g>
<!-- Node10 -->
<g id="node10" class="node">
<title>Node10</title>
<g id="a_node10"><a xlink:href="pb__encode_8c.html#a3a12936f07ae378d68408c7bee72e3c0" target="_top" xlink:title=" ">
<polygon fill="white" stroke="black" points="732,-494.5 732,-513.5 865,-513.5 865,-494.5 732,-494.5"/>
<text text-anchor="middle" x="798.5" y="-501.5" font-family="Helvetica,sans-Serif" font-size="10.00">default_extension_encoder</text>
</a>
</g>
</g>
<!-- Node9&#45;&gt;Node10 -->
<g id="edge9" class="edge">
<title>Node9&#45;&gt;Node10</title>
<path fill="none" stroke="midnightblue" d="M958.43,-504C931.09,-504 895.61,-504 865.1,-504"/>
<polygon fill="midnightblue" stroke="midnightblue" points="958.48,-507.5 968.48,-504 958.48,-500.5 958.48,-507.5"/>
</g>
<!-- Node12 -->
<g id="node12" class="node">
<title>Node12</title>
<g id="a_node12"><a xlink:href="pb__encode_8c.html#af44dde5296bd546d99be35f15658af3e" target="_top" xlink:title=" ">
<polygon fill="white" stroke="black" points="450,-510.5 450,-529.5 514,-529.5 514,-510.5 450,-510.5"/>
<text text-anchor="middle" x="482" y="-517.5" font-family="Helvetica,sans-Serif" font-size="10.00">pb_encode</text>
</a>
</g>
</g>
<!-- Node9&#45;&gt;Node12 -->
<g id="edge17" class="edge">
<title>Node9&#45;&gt;Node12</title>
<path fill="none" stroke="midnightblue" d="M958.36,-513.19C937.41,-517.06 912.03,-521.09 889,-523 749.56,-534.54 582.26,-526.38 514.14,-522.13"/>
<polygon fill="midnightblue" stroke="midnightblue" points="959.09,-516.62 968.26,-511.32 957.78,-509.74 959.09,-516.62"/>
</g>
<!-- Node11 -->
<g id="node11" class="node">
<title>Node11</title>
<g id="a_node11"><a xlink:href="pb__encode_8c.html#a0c789b04243dc72075c00744134546c3" target="_top" xlink:title=" ">
<polygon fill="white" stroke="black" points="551.5,-494.5 551.5,-513.5 670.5,-513.5 670.5,-494.5 551.5,-494.5"/>
<text text-anchor="middle" x="611" y="-501.5" font-family="Helvetica,sans-Serif" font-size="10.00">encode_extension_field</text>
</a>
</g>
</g>
<!-- Node10&#45;&gt;Node11 -->
<g id="edge10" class="edge">
<title>Node10&#45;&gt;Node11</title>
<path fill="none" stroke="midnightblue" d="M721.43,-504C704.53,-504 686.86,-504 670.78,-504"/>
<polygon fill="midnightblue" stroke="midnightblue" points="721.84,-507.5 731.84,-504 721.84,-500.5 721.84,-507.5"/>
</g>
<!-- Node11&#45;&gt;Node12 -->
<g id="edge11" class="edge">
<title>Node11&#45;&gt;Node12</title>
<path fill="none" stroke="midnightblue" d="M541.36,-512.65C531.82,-513.85 522.42,-515.03 514.06,-516.09"/>
<polygon fill="midnightblue" stroke="midnightblue" points="541.85,-516.11 551.33,-511.39 540.97,-509.17 541.85,-516.11"/>
</g>
<!-- Node12&#45;&gt;Node3 -->
<g id="edge12" class="edge">
<title>Node12&#45;&gt;Node3</title>
<path fill="none" stroke="midnightblue" d="M442.33,-532.8C423.62,-538.99 401.04,-546.47 381.5,-552.94"/>
<polygon fill="midnightblue" stroke="midnightblue" points="443.61,-536.06 452.01,-529.6 441.41,-529.42 443.61,-536.06"/>
</g>
<!-- Node12&#45;&gt;Node13 -->
<g id="edge13" class="edge">
<title>Node12&#45;&gt;Node13</title>
<path fill="none" stroke="midnightblue" d="M445.94,-506.94C420.01,-497.28 385.25,-484.34 361.82,-475.62"/>
<polygon fill="midnightblue" stroke="midnightblue" points="444.82,-510.26 455.41,-510.47 447.26,-503.7 444.82,-510.26"/>
</g>
<!-- Node16 -->
<g id="node16" class="node">
<title>Node16</title>
<g id="a_node16"><a xlink:href="pb__encode_8c.html#a7d0d58fcd08d5020b12133c31bbe57f1" target="_top" xlink:title=" ">
<polygon fill="white" stroke="black" points="279.5,-510.5 279.5,-529.5 390.5,-529.5 390.5,-510.5 279.5,-510.5"/>
<text text-anchor="middle" x="335" y="-517.5" font-family="Helvetica,sans-Serif" font-size="10.00">pb_get_encoded_size</text>
</a>
</g>
</g>
<!-- Node12&#45;&gt;Node16 -->
<g id="edge16" class="edge">
<title>Node12&#45;&gt;Node16</title>
<path fill="none" stroke="midnightblue" d="M439.75,-520C424.52,-520 407.01,-520 390.76,-520"/>
<polygon fill="midnightblue" stroke="midnightblue" points="439.89,-523.5 449.89,-520 439.89,-516.5 439.89,-523.5"/>
</g>
<!-- Node14 -->
<g id="node14" class="node">
<title>Node14</title>
<g id="a_node14"><a xlink:href="pb__encode_8c.html#a1f6fe701e8ba7999f934064f029c6630" target="_top" xlink:title=" ">
<polygon fill="white" stroke="black" points="92.5,-437.5 92.5,-456.5 201.5,-456.5 201.5,-437.5 92.5,-437.5"/>
<text text-anchor="middle" x="147" y="-444.5" font-family="Helvetica,sans-Serif" font-size="10.00">pb_enc_submessage</text>
</a>
</g>
</g>
<!-- Node13&#45;&gt;Node14 -->
<g id="edge14" class="edge">
<title>Node13&#45;&gt;Node14</title>
<path fill="none" stroke="midnightblue" d="M262.26,-458.67C242.13,-456.62 220.59,-454.42 201.71,-452.49"/>
<polygon fill="midnightblue" stroke="midnightblue" points="262.02,-462.17 272.32,-459.7 262.73,-455.2 262.02,-462.17"/>
</g>
<!-- Node15 -->
<g id="node15" class="node">
<title>Node15</title>
<g id="a_node15"><a xlink:href="pb__encode_8c.html#ada25a45ba2ec5aa0baa8c692b0f30361" target="_top" xlink:title=" ">
<polygon fill="white" stroke="black" points="93,-475.5 93,-494.5 201,-494.5 201,-475.5 93,-475.5"/>
<text text-anchor="middle" x="147" y="-482.5" font-family="Helvetica,sans-Serif" font-size="10.00">pb_encode_delimited</text>
</a>
</g>
</g>
<!-- Node13&#45;&gt;Node15 -->
<g id="edge15" class="edge">
<title>Node13&#45;&gt;Node15</title>
<path fill="none" stroke="midnightblue" d="M262.17,-473.34C241.84,-475.41 220.1,-477.64 201.1,-479.58"/>
<polygon fill="midnightblue" stroke="midnightblue" points="262.73,-476.8 272.32,-472.3 262.02,-469.83 262.73,-476.8"/>
</g>
<!-- Node18 -->
<g id="node18" class="node">
<title>Node18</title>
<g id="a_node18"><a xlink:href="pb__encode_8c.html#a6d3de4f90e7b9a4819123602843b88d0" target="_top" xlink:title=" ">
<polygon fill="white" stroke="black" points="1586.5,-494.5 1586.5,-513.5 1671.5,-513.5 1671.5,-494.5 1586.5,-494.5"/>
<text text-anchor="middle" x="1629" y="-501.5" font-family="Helvetica,sans-Serif" font-size="10.00">pb_enc_fixed32</text>
</a>
</g>
</g>
<!-- Node17&#45;&gt;Node18 -->
<g id="edge19" class="edge">
<title>Node17&#45;&gt;Node18</title>
<path fill="none" stroke="midnightblue" d="M1703.62,-504C1692.91,-504 1681.95,-504 1671.88,-504"/>
<polygon fill="midnightblue" stroke="midnightblue" points="1703.79,-507.5 1713.79,-504 1703.79,-500.5 1703.79,-507.5"/>
</g>
<!-- Node20 -->
<g id="node20" class="node">
<title>Node20</title>
<g id="a_node20"><a xlink:href="pb__frimessages__callbacks_8c.html#a3841575aaa517c808aeba5ab3e4f4e48" target="_top" xlink:title=" ">
<polygon fill="white" stroke="black" points="1264,-103.5 1264,-122.5 1386,-122.5 1386,-103.5 1264,-103.5"/>
<text text-anchor="middle" x="1325" y="-110.5" font-family="Helvetica,sans-Serif" font-size="10.00">encode_repeatedDouble</text>
</a>
</g>
</g>
<!-- Node19&#45;&gt;Node20 -->
<g id="edge21" class="edge">
<title>Node19&#45;&gt;Node20</title>
<path fill="none" stroke="midnightblue" d="M1703.7,-44.37C1634.68,-41.77 1518.29,-42.29 1422,-67 1391.75,-74.76 1359.6,-92.32 1341.24,-103.36"/>
<polygon fill="midnightblue" stroke="midnightblue" points="1703.82,-47.88 1713.95,-44.8 1704.1,-40.89 1703.82,-47.88"/>
</g>
<!-- Node26 -->
<g id="node26" class="node">
<title>Node26</title>
<g id="a_node26"><a xlink:href="pb__encode_8c.html#af3786ad7969edbdee86f14ba62aa61c8" target="_top" xlink:title=" ">
<polygon fill="white" stroke="black" points="1586.5,-0.5 1586.5,-19.5 1671.5,-19.5 1671.5,-0.5 1586.5,-0.5"/>
<text text-anchor="middle" x="1629" y="-7.5" font-family="Helvetica,sans-Serif" font-size="10.00">pb_enc_fixed64</text>
</a>
</g>
</g>
<!-- Node19&#45;&gt;Node26 -->
<g id="edge27" class="edge">
<title>Node19&#45;&gt;Node26</title>
<path fill="none" stroke="midnightblue" d="M1719.97,-35.61C1701.69,-30.41 1680.75,-24.45 1663.68,-19.59"/>
<polygon fill="midnightblue" stroke="midnightblue" points="1719.24,-39.04 1729.81,-38.41 1721.15,-32.31 1719.24,-39.04"/>
</g>
<!-- Node21 -->
<g id="node21" class="node">
<title>Node21</title>
<g id="a_node21"><a xlink:href="pb__frimessages__callbacks_8c.html#a5283f13633c8400371ab65d44d905901" target="_top" xlink:title=" ">
<polygon fill="white" stroke="black" points="1119,-103.5 1119,-122.5 1228,-122.5 1228,-103.5 1119,-103.5"/>
<text text-anchor="middle" x="1173.5" y="-110.5" font-family="Helvetica,sans-Serif" font-size="10.00">map_repeatedDouble</text>
</a>
</g>
</g>
<!-- Node20&#45;&gt;Node21 -->
<g id="edge22" class="edge">
<title>Node20&#45;&gt;Node21</title>
<path fill="none" stroke="midnightblue" d="M1253.41,-113C1244.99,-113 1236.49,-113 1228.35,-113"/>
<polygon fill="midnightblue" stroke="midnightblue" points="1253.62,-116.5 1263.62,-113 1253.62,-109.5 1253.62,-116.5"/>
</g>
<!-- Node22 -->
<g id="node22" class="node">
<title>Node22</title>
<g id="a_node22"><a xlink:href="class_k_u_k_a_1_1_f_r_i_1_1_command_message_encoder.html#a40f5b848100484d0e4fdbf6a80d79dac" target="_top" xlink:title=" ">
<polygon fill="white" stroke="black" points="925,-92 925,-122 1083,-122 1083,-92 925,-92"/>
<text text-anchor="start" x="933" y="-110" font-family="Helvetica,sans-Serif" font-size="10.00">KUKA::FRI::CommandMessage</text>
<text text-anchor="middle" x="1004" y="-99" font-family="Helvetica,sans-Serif" font-size="10.00">Encoder::initMessage</text>
</a>
</g>
</g>
<!-- Node21&#45;&gt;Node22 -->
<g id="edge23" class="edge">
<title>Node21&#45;&gt;Node22</title>
<path fill="none" stroke="midnightblue" d="M1108.34,-110.7C1100.11,-110.41 1091.63,-110.1 1083.21,-109.8"/>
<polygon fill="midnightblue" stroke="midnightblue" points="1108.46,-114.21 1118.58,-111.07 1108.71,-107.21 1108.46,-114.21"/>
</g>
<!-- Node24 -->
<g id="node24" class="node">
<title>Node24</title>
<g id="a_node24"><a xlink:href="class_k_u_k_a_1_1_f_r_i_1_1_monitoring_message_decoder.html#a5f7d8c50c6b2275a90ee8053eeeeda0a" target="_top" xlink:title=" ">
<polygon fill="white" stroke="black" points="925,-141 925,-171 1083,-171 1083,-141 925,-141"/>
<text text-anchor="start" x="933" y="-159" font-family="Helvetica,sans-Serif" font-size="10.00">KUKA::FRI::MonitoringMessage</text>
<text text-anchor="middle" x="1004" y="-148" font-family="Helvetica,sans-Serif" font-size="10.00">Decoder::initMessage</text>
</a>
</g>
</g>
<!-- Node21&#45;&gt;Node24 -->
<g id="edge25" class="edge">
<title>Node21&#45;&gt;Node24</title>
<path fill="none" stroke="midnightblue" d="M1125.57,-125.05C1106.3,-129.99 1083.78,-135.78 1063.45,-140.99"/>
<polygon fill="midnightblue" stroke="midnightblue" points="1126.51,-128.42 1135.33,-122.54 1124.77,-121.64 1126.51,-128.42"/>
</g>
<!-- Node23 -->
<g id="node23" class="node">
<title>Node23</title>
<g id="a_node23"><a xlink:href="class_k_u_k_a_1_1_f_r_i_1_1_command_message_encoder.html#ab48adf8c90670d6c7bcbd82d108f9f47" target="_top" xlink:title=" ">
<polygon fill="white" stroke="black" points="709,-92 709,-122 888,-122 888,-92 709,-92"/>
<text text-anchor="start" x="717" y="-110" font-family="Helvetica,sans-Serif" font-size="10.00">KUKA::FRI::CommandMessage</text>
<text text-anchor="middle" x="798.5" y="-99" font-family="Helvetica,sans-Serif" font-size="10.00">Encoder::CommandMessageEncoder</text>
</a>
</g>
</g>
<!-- Node22&#45;&gt;Node23 -->
<g id="edge24" class="edge">
<title>Node22&#45;&gt;Node23</title>
<path fill="none" stroke="midnightblue" d="M914.69,-107C905.92,-107 897.02,-107 888.25,-107"/>
<polygon fill="midnightblue" stroke="midnightblue" points="914.9,-110.5 924.9,-107 914.9,-103.5 914.9,-110.5"/>
</g>
<!-- Node25 -->
<g id="node25" class="node">
<title>Node25</title>
<g id="a_node25"><a xlink:href="class_k_u_k_a_1_1_f_r_i_1_1_monitoring_message_decoder.html#a839c031de8bf792b17b612fc6ef91d05" target="_top" xlink:title=" ">
<polygon fill="white" stroke="black" points="708,-141 708,-171 889,-171 889,-141 708,-141"/>
<text text-anchor="start" x="716" y="-159" font-family="Helvetica,sans-Serif" font-size="10.00">KUKA::FRI::MonitoringMessage</text>
<text text-anchor="middle" x="798.5" y="-148" font-family="Helvetica,sans-Serif" font-size="10.00">Decoder::MonitoringMessageDecoder</text>
</a>
</g>
</g>
<!-- Node24&#45;&gt;Node25 -->
<g id="edge26" class="edge">
<title>Node24&#45;&gt;Node25</title>
<path fill="none" stroke="midnightblue" d="M914.7,-156C906.27,-156 897.72,-156 889.28,-156"/>
<polygon fill="midnightblue" stroke="midnightblue" points="914.9,-159.5 924.9,-156 914.9,-152.5 914.9,-159.5"/>
</g>
<!-- Node28 -->
<g id="node28" class="node">
<title>Node28</title>
<g id="a_node28"><a xlink:href="pb__encode_8c.html#ad856083eab7b7f4ae3a0a2a9c073bb6e" target="_top" xlink:title=" ">
<polygon fill="white" stroke="black" points="1444.5,-76.5 1444.5,-95.5 1521.5,-95.5 1521.5,-76.5 1444.5,-76.5"/>
<text text-anchor="middle" x="1483" y="-83.5" font-family="Helvetica,sans-Serif" font-size="10.00">pb_enc_bytes</text>
</a>
</g>
</g>
<!-- Node27&#45;&gt;Node28 -->
<g id="edge29" class="edge">
<title>Node27&#45;&gt;Node28</title>
<path fill="none" stroke="midnightblue" d="M1581.83,-111.82C1561.84,-106.54 1538.78,-100.46 1520.08,-95.52"/>
<polygon fill="midnightblue" stroke="midnightblue" points="1581.1,-115.24 1591.66,-114.41 1582.89,-108.48 1581.1,-115.24"/>
</g>
<!-- Node29 -->
<g id="node29" class="node">
<title>Node29</title>
<g id="a_node29"><a xlink:href="pb__encode_8c.html#a43d7e4006be2299245e447b1afa3bb8a" target="_top" xlink:title=" ">
<polygon fill="white" stroke="black" points="1444.5,-114.5 1444.5,-133.5 1521.5,-133.5 1521.5,-114.5 1444.5,-114.5"/>
<text text-anchor="middle" x="1483" y="-121.5" font-family="Helvetica,sans-Serif" font-size="10.00">pb_enc_string</text>
</a>
</g>
</g>
<!-- Node27&#45;&gt;Node29 -->
<g id="edge30" class="edge">
<title>Node27&#45;&gt;Node29</title>
<path fill="none" stroke="midnightblue" d="M1572.09,-124C1555.16,-124 1536.98,-124 1521.55,-124"/>
<polygon fill="midnightblue" stroke="midnightblue" points="1572.44,-127.5 1582.44,-124 1572.44,-120.5 1572.44,-127.5"/>
</g>
<!-- Node30&#45;&gt;Node7 -->
<g id="edge33" class="edge">
<title>Node30&#45;&gt;Node7</title>
<path fill="none" stroke="midnightblue" d="M1753.41,-294.3C1739.71,-317.04 1712.88,-354.84 1678,-371 1572.23,-420.01 1428.65,-395.98 1362.33,-380.55"/>
<polygon fill="midnightblue" stroke="midnightblue" points="1756.48,-295.98 1758.46,-285.58 1750.42,-292.47 1756.48,-295.98"/>
</g>
<!-- Node30&#45;&gt;Node13 -->
<g id="edge40" class="edge">
<title>Node30&#45;&gt;Node13</title>
<path fill="none" stroke="midnightblue" d="M1745.14,-259.82C1728.75,-246.4 1703.47,-228.09 1678,-219 1596.41,-189.88 1570.63,-200 1484,-200 1484,-200 1484,-200 610,-200 459.83,-200 360.9,-408.23 340.09,-456.22"/>
<polygon fill="midnightblue" stroke="midnightblue" points="1742.95,-262.56 1752.85,-266.32 1747.46,-257.2 1742.95,-262.56"/>
</g>
<!-- Node30&#45;&gt;Node27 -->
<g id="edge39" class="edge">
<title>Node30&#45;&gt;Node27</title>
<path fill="none" stroke="midnightblue" d="M1751.96,-257.61C1730.92,-224.27 1687.62,-156.49 1678,-148 1671.43,-142.21 1663.22,-137.43 1655.45,-133.71"/>
<polygon fill="midnightblue" stroke="midnightblue" points="1749.19,-259.79 1757.48,-266.39 1755.12,-256.06 1749.19,-259.79"/>
</g>
<!-- Node31 -->
<g id="node31" class="node">
<title>Node31</title>
<g id="a_node31"><a xlink:href="pb__frimessages__callbacks_8c.html#aca260ceb4ad963a7f5f6282ceaf17f2b" target="_top" xlink:title=" ">
<polygon fill="white" stroke="black" points="1274,-152.5 1274,-171.5 1376,-171.5 1376,-152.5 1274,-152.5"/>
<text text-anchor="middle" x="1325" y="-159.5" font-family="Helvetica,sans-Serif" font-size="10.00">encode_repeatedInt</text>
</a>
</g>
</g>
<!-- Node30&#45;&gt;Node31 -->
<g id="edge34" class="edge">
<title>Node30&#45;&gt;Node31</title>
<path fill="none" stroke="midnightblue" d="M1746.02,-259.28C1736.41,-249.94 1724.36,-238 1714,-227 1697.37,-209.35 1699.74,-196.75 1678,-186 1579.85,-137.47 1447.15,-145.01 1376,-153.98"/>
<polygon fill="midnightblue" stroke="midnightblue" points="1743.81,-262.01 1753.43,-266.44 1748.67,-256.97 1743.81,-262.01"/>
</g>
<!-- Node33 -->
<g id="node33" class="node">
<title>Node33</title>
<g id="a_node33"><a xlink:href="pb__encode_8c.html#a475a5f7217dbd290eed58a59110d8b10" target="_top" xlink:title=" ">
<polygon fill="white" stroke="black" points="1587.5,-266.5 1587.5,-285.5 1670.5,-285.5 1670.5,-266.5 1587.5,-266.5"/>
<text text-anchor="middle" x="1629" y="-273.5" font-family="Helvetica,sans-Serif" font-size="10.00">pb_enc_uvarint</text>
</a>
</g>
</g>
<!-- Node30&#45;&gt;Node33 -->
<g id="edge37" class="edge">
<title>Node30&#45;&gt;Node33</title>
<path fill="none" stroke="midnightblue" d="M1707.72,-276C1695.37,-276 1682.51,-276 1670.89,-276"/>
<polygon fill="midnightblue" stroke="midnightblue" points="1707.93,-279.5 1717.93,-276 1707.93,-272.5 1707.93,-279.5"/>
</g>
<!-- Node34 -->
<g id="node34" class="node">
<title>Node34</title>
<g id="a_node34"><a xlink:href="pb__encode_8c.html#a7d6439adf6388fcd3c7ab58f74954d5c" target="_top" xlink:title=" ">
<polygon fill="white" stroke="black" points="1590.5,-228.5 1590.5,-247.5 1667.5,-247.5 1667.5,-228.5 1590.5,-228.5"/>
<text text-anchor="middle" x="1629" y="-235.5" font-family="Helvetica,sans-Serif" font-size="10.00">pb_enc_varint</text>
</a>
</g>
</g>
<!-- Node30&#45;&gt;Node34 -->
<g id="edge38" class="edge">
<title>Node30&#45;&gt;Node34</title>
<path fill="none" stroke="midnightblue" d="M1719.97,-263.61C1701.69,-258.41 1680.75,-252.45 1663.68,-247.59"/>
<polygon fill="midnightblue" stroke="midnightblue" points="1719.24,-267.04 1729.81,-266.41 1721.15,-260.31 1719.24,-267.04"/>
</g>
<!-- Node35 -->
<g id="node35" class="node">
<title>Node35</title>
<g id="a_node35"><a xlink:href="pb__encode_8c.html#a5cac93c05232ceb03e4be4abede22006" target="_top" xlink:title=" ">
<polygon fill="white" stroke="black" points="1580,-304.5 1580,-323.5 1678,-323.5 1678,-304.5 1580,-304.5"/>
<text text-anchor="middle" x="1629" y="-311.5" font-family="Helvetica,sans-Serif" font-size="10.00">pb_encode_svarint</text>
</a>
</g>
</g>
<!-- Node30&#45;&gt;Node35 -->
<g id="edge41" class="edge">
<title>Node30&#45;&gt;Node35</title>
<path fill="none" stroke="midnightblue" d="M1719.97,-288.39C1701.69,-293.59 1680.75,-299.55 1663.68,-304.41"/>
<polygon fill="midnightblue" stroke="midnightblue" points="1721.15,-291.69 1729.81,-285.59 1719.24,-284.96 1721.15,-291.69"/>
</g>
<!-- Node37 -->
<g id="node37" class="node">
<title>Node37</title>
<g id="a_node37"><a xlink:href="pb__encode_8c.html#acfbcc89e5e4355b8c263d6d4f2bc8c6f" target="_top" xlink:title=" ">
<polygon fill="white" stroke="black" points="1587.5,-342.5 1587.5,-361.5 1670.5,-361.5 1670.5,-342.5 1587.5,-342.5"/>
<text text-anchor="middle" x="1629" y="-349.5" font-family="Helvetica,sans-Serif" font-size="10.00">pb_encode_tag</text>
</a>
</g>
</g>
<!-- Node30&#45;&gt;Node37 -->
<g id="edge43" class="edge">
<title>Node30&#45;&gt;Node37</title>
<path fill="none" stroke="midnightblue" d="M1742.48,-291.84C1725.63,-304.08 1701.07,-320.92 1678,-333 1671.41,-336.45 1664.05,-339.66 1657.11,-342.43"/>
<polygon fill="midnightblue" stroke="midnightblue" points="1745.01,-294.32 1750.99,-285.57 1740.86,-288.69 1745.01,-294.32"/>
</g>
<!-- Node32 -->
<g id="node32" class="node">
<title>Node32</title>
<g id="a_node32"><a xlink:href="pb__frimessages__callbacks_8c.html#a81a65250b51118ec352d28e397db9b6c" target="_top" xlink:title=" ">
<polygon fill="white" stroke="black" points="1129,-149.5 1129,-168.5 1218,-168.5 1218,-149.5 1129,-149.5"/>
<text text-anchor="middle" x="1173.5" y="-156.5" font-family="Helvetica,sans-Serif" font-size="10.00">map_repeatedInt</text>
</a>
</g>
</g>
<!-- Node31&#45;&gt;Node32 -->
<g id="edge35" class="edge">
<title>Node31&#45;&gt;Node32</title>
<path fill="none" stroke="midnightblue" d="M1263.49,-160.79C1248.37,-160.48 1232.44,-160.16 1218.3,-159.88"/>
<polygon fill="midnightblue" stroke="midnightblue" points="1263.73,-164.29 1273.8,-160.99 1263.88,-157.29 1263.73,-164.29"/>
</g>
<!-- Node32&#45;&gt;Node24 -->
<g id="edge36" class="edge">
<title>Node32&#45;&gt;Node24</title>
<path fill="none" stroke="midnightblue" d="M1118.75,-158.04C1107.37,-157.83 1095.14,-157.61 1083.08,-157.4"/>
<polygon fill="midnightblue" stroke="midnightblue" points="1118.87,-161.54 1128.93,-158.22 1118.99,-154.54 1118.87,-161.54"/>
</g>
<!-- Node36 -->
<g id="node36" class="node">
<title>Node36</title>
<g id="a_node36"><a xlink:href="pb__encode_8c.html#ae41047e19b694c383f7bba74e1a7ab37" target="_top" xlink:title=" ">
<polygon fill="white" stroke="black" points="1441.5,-266.5 1441.5,-285.5 1524.5,-285.5 1524.5,-266.5 1441.5,-266.5"/>
<text text-anchor="middle" x="1483" y="-273.5" font-family="Helvetica,sans-Serif" font-size="10.00">pb_enc_svarint</text>
</a>
</g>
</g>
<!-- Node35&#45;&gt;Node36 -->
<g id="edge42" class="edge">
<title>Node35&#45;&gt;Node36</title>
<path fill="none" stroke="midnightblue" d="M1581.83,-301.82C1561.84,-296.54 1538.78,-290.46 1520.08,-285.52"/>
<polygon fill="midnightblue" stroke="midnightblue" points="1581.1,-305.24 1591.66,-304.41 1582.89,-298.48 1581.1,-305.24"/>
</g>
<!-- Node37&#45;&gt;Node7 -->
<g id="edge44" class="edge">
<title>Node37&#45;&gt;Node7</title>
<path fill="none" stroke="midnightblue" d="M1577.15,-355.2C1516.46,-359.02 1416.46,-365.31 1362.78,-368.69"/>
<polygon fill="midnightblue" stroke="midnightblue" points="1577.51,-358.68 1587.27,-354.56 1577.07,-351.7 1577.51,-358.68"/>
</g>
<!-- Node38 -->
<g id="node38" class="node">
<title>Node38</title>
<g id="a_node38"><a xlink:href="pb__encode_8c.html#a3e0f1ac29dce37f78220ecd6b9d21cba" target="_top" xlink:title=" ">
<polygon fill="white" stroke="black" points="1422,-304.5 1422,-323.5 1544,-323.5 1544,-304.5 1422,-304.5"/>
<text text-anchor="middle" x="1483" y="-311.5" font-family="Helvetica,sans-Serif" font-size="10.00">pb_encode_tag_for_field</text>
</a>
</g>
</g>
<!-- Node37&#45;&gt;Node38 -->
<g id="edge45" class="edge">
<title>Node37&#45;&gt;Node38</title>
<path fill="none" stroke="midnightblue" d="M1581.83,-339.82C1561.84,-334.54 1538.78,-328.46 1520.08,-323.52"/>
<polygon fill="midnightblue" stroke="midnightblue" points="1581.1,-343.24 1591.66,-342.41 1582.89,-336.48 1581.1,-343.24"/>
</g>
<!-- Node38&#45;&gt;Node7 -->
<g id="edge46" class="edge">
<title>Node38&#45;&gt;Node7</title>
<path fill="none" stroke="midnightblue" d="M1446.24,-327.07C1417.57,-337.54 1377.99,-352.01 1352.2,-361.43"/>
<polygon fill="midnightblue" stroke="midnightblue" points="1447.7,-330.26 1455.89,-323.54 1445.3,-323.69 1447.7,-330.26"/>
</g>
<!-- Node38&#45;&gt;Node8 -->
<g id="edge47" class="edge">
<title>Node38&#45;&gt;Node8</title>
<path fill="none" stroke="midnightblue" d="M1413.98,-325.2C1370.92,-332.45 1314.11,-342.32 1264,-352 1248.87,-354.92 1232.36,-358.36 1217.68,-361.5"/>
<polygon fill="midnightblue" stroke="midnightblue" points="1414.78,-328.61 1424.06,-323.51 1413.62,-321.71 1414.78,-328.61"/>
</g>
<!-- Node38&#45;&gt;Node20 -->
<g id="edge48" class="edge">
<title>Node38&#45;&gt;Node20</title>
<path fill="none" stroke="midnightblue" d="M1425.94,-298.7C1424.54,-297.55 1423.23,-296.32 1422,-295 1374.76,-244.12 1429.1,-197.42 1386,-143 1378.7,-133.78 1367.82,-127.16 1357.32,-122.53"/>
<polygon fill="midnightblue" stroke="midnightblue" points="1424.32,-301.82 1434.6,-304.37 1428.15,-295.96 1424.32,-301.82"/>
</g>
<!-- Node38&#45;&gt;Node31 -->
<g id="edge49" class="edge">
<title>Node38&#45;&gt;Node31</title>
<path fill="none" stroke="midnightblue" d="M1430.49,-300.21C1427.51,-298.65 1424.66,-296.92 1422,-295 1374.7,-260.79 1341.59,-196.08 1330.28,-171.66"/>
<polygon fill="midnightblue" stroke="midnightblue" points="1429.13,-303.44 1439.68,-304.4 1432.03,-297.07 1429.13,-303.44"/>
</g>
</g>
</svg>
