<?xml version="1.0" encoding="UTF-8" standalone="no"?>
<!DOCTYPE svg PUBLIC "-//W3C//DTD SVG 1.1//EN"
 "http://www.w3.org/Graphics/SVG/1.1/DTD/svg11.dtd">
<!-- Generated by graphviz version 2.43.0 (0)
 -->
<!-- Title: decode_field Pages: 1 -->
<svg width="802pt" height="208pt"
 viewBox="0.00 0.00 802.00 208.00" xmlns="http://www.w3.org/2000/svg" xmlns:xlink="http://www.w3.org/1999/xlink">
<g id="graph0" class="graph" transform="scale(1 1) rotate(0) translate(4 204)">
<title>decode_field</title>
<polygon fill="white" stroke="transparent" points="-4,4 -4,-204 798,-204 798,4 -4,4"/>
<!-- Node1 -->
<g id="node1" class="node">
<title>Node1</title>
<g id="a_node1"><a xlink:title=" ">
<polygon fill="#bfbfbf" stroke="black" points="0,-142.5 0,-161.5 71,-161.5 71,-142.5 0,-142.5"/>
<text text-anchor="middle" x="35.5" y="-149.5" font-family="Helvetica,sans-Serif" font-size="10.00">decode_field</text>
</a>
</g>
</g>
<!-- Node2 -->
<g id="node2" class="node">
<title>Node2</title>
<g id="a_node2"><a xlink:href="pb__decode_8c.html#a69a78d2efcd4b9057215ac8b79a5eb2b" target="_top" xlink:title=" ">
<polygon fill="white" stroke="black" points="107,-104.5 107,-123.5 220,-123.5 220,-104.5 107,-104.5"/>
<text text-anchor="middle" x="163.5" y="-111.5" font-family="Helvetica,sans-Serif" font-size="10.00">decode_callback_field</text>
</a>
</g>
</g>
<!-- Node1&#45;&gt;Node2 -->
<g id="edge1" class="edge">
<title>Node1&#45;&gt;Node2</title>
<path fill="none" stroke="midnightblue" d="M68.3,-142.41C84.26,-137.6 103.81,-131.7 120.95,-126.53"/>
<polygon fill="midnightblue" stroke="midnightblue" points="122.15,-129.82 130.72,-123.59 120.13,-123.12 122.15,-129.82"/>
</g>
<!-- Node14 -->
<g id="node14" class="node">
<title>Node14</title>
<g id="a_node14"><a xlink:href="pb__decode_8c.html#af65dd063304df2ed380dc411bb6caae6" target="_top" xlink:title=" ">
<polygon fill="white" stroke="black" points="110.5,-180.5 110.5,-199.5 216.5,-199.5 216.5,-180.5 110.5,-180.5"/>
<text text-anchor="middle" x="163.5" y="-187.5" font-family="Helvetica,sans-Serif" font-size="10.00">decode_pointer_field</text>
</a>
</g>
</g>
<!-- Node1&#45;&gt;Node14 -->
<g id="edge18" class="edge">
<title>Node1&#45;&gt;Node14</title>
<path fill="none" stroke="midnightblue" d="M68.3,-161.59C84.26,-166.4 103.81,-172.3 120.95,-177.47"/>
<polygon fill="midnightblue" stroke="midnightblue" points="120.13,-180.88 130.72,-180.41 122.15,-174.18 120.13,-180.88"/>
</g>
<!-- Node15 -->
<g id="node15" class="node">
<title>Node15</title>
<g id="a_node15"><a xlink:href="pb__decode_8c.html#a02c14bf9763a469e0414bf9a1eb13632" target="_top" xlink:title=" ">
<polygon fill="white" stroke="black" points="113,-142.5 113,-161.5 214,-161.5 214,-142.5 113,-142.5"/>
<text text-anchor="middle" x="163.5" y="-149.5" font-family="Helvetica,sans-Serif" font-size="10.00">decode_static_field</text>
</a>
</g>
</g>
<!-- Node1&#45;&gt;Node15 -->
<g id="edge21" class="edge">
<title>Node1&#45;&gt;Node15</title>
<path fill="none" stroke="midnightblue" d="M71.26,-152C80.98,-152 91.82,-152 102.55,-152"/>
<polygon fill="midnightblue" stroke="midnightblue" points="102.76,-155.5 112.76,-152 102.76,-148.5 102.76,-155.5"/>
</g>
<!-- Node3 -->
<g id="node3" class="node">
<title>Node3</title>
<g id="a_node3"><a xlink:href="pb__decode_8c.html#ac0a84ef26be0f3bf894deaee63e5114c" target="_top" xlink:title=" ">
<polygon fill="white" stroke="black" points="256.5,-142.5 256.5,-161.5 392.5,-161.5 392.5,-142.5 256.5,-142.5"/>
<text text-anchor="middle" x="324.5" y="-149.5" font-family="Helvetica,sans-Serif" font-size="10.00">pb_close_string_substream</text>
</a>
</g>
</g>
<!-- Node2&#45;&gt;Node3 -->
<g id="edge2" class="edge">
<title>Node2&#45;&gt;Node3</title>
<path fill="none" stroke="midnightblue" d="M204.62,-123.59C225.6,-128.6 251.48,-134.79 273.73,-140.11"/>
<polygon fill="midnightblue" stroke="midnightblue" points="273.13,-143.56 283.67,-142.48 274.75,-136.75 273.13,-143.56"/>
</g>
<!-- Node4 -->
<g id="node4" class="node">
<title>Node4</title>
<g id="a_node4"><a xlink:href="pb__decode_8c.html#a37dc2b0c54c27ddd29791e7522c85548" target="_top" xlink:title=" ">
<polygon fill="white" stroke="black" points="429,-0.5 429,-19.5 548,-19.5 548,-0.5 429,-0.5"/>
<text text-anchor="middle" x="488.5" y="-7.5" font-family="Helvetica,sans-Serif" font-size="10.00">pb_istream_from_buffer</text>
</a>
</g>
</g>
<!-- Node2&#45;&gt;Node4 -->
<g id="edge3" class="edge">
<title>Node2&#45;&gt;Node4</title>
<path fill="none" stroke="midnightblue" d="M179.47,-104.42C197.13,-93.48 227.69,-75.73 256,-65 309.26,-44.8 372.3,-30.41 419.14,-21.42"/>
<polygon fill="midnightblue" stroke="midnightblue" points="420,-24.82 429.18,-19.53 418.71,-17.94 420,-24.82"/>
</g>
<!-- Node6 -->
<g id="node6" class="node">
<title>Node6</title>
<g id="a_node6"><a xlink:href="pb__decode_8c.html#a7433fc394255932c4f00274e7f890721" target="_top" xlink:title=" ">
<polygon fill="white" stroke="black" points="256,-180.5 256,-199.5 393,-199.5 393,-180.5 256,-180.5"/>
<text text-anchor="middle" x="324.5" y="-187.5" font-family="Helvetica,sans-Serif" font-size="10.00">pb_make_string_substream</text>
</a>
</g>
</g>
<!-- Node2&#45;&gt;Node6 -->
<g id="edge5" class="edge">
<title>Node2&#45;&gt;Node6</title>
<path fill="none" stroke="midnightblue" d="M200.61,-123.52C207.33,-126.07 214.09,-129.2 220,-133 239.57,-145.58 236.09,-158.97 256,-171 259.58,-173.16 263.41,-175.08 267.36,-176.79"/>
<polygon fill="midnightblue" stroke="midnightblue" points="266.15,-180.08 276.74,-180.41 268.66,-173.54 266.15,-180.08"/>
</g>
<!-- Node9 -->
<g id="node9" class="node">
<title>Node9</title>
<g id="a_node9"><a xlink:href="pb__decode_8c.html#ab5102942c8402c215f836364e1b775b1" target="_top" xlink:title=" ">
<polygon fill="white" stroke="black" points="287.5,-104.5 287.5,-123.5 361.5,-123.5 361.5,-104.5 287.5,-104.5"/>
<text text-anchor="middle" x="324.5" y="-111.5" font-family="Helvetica,sans-Serif" font-size="10.00">pb_skip_field</text>
</a>
</g>
</g>
<!-- Node2&#45;&gt;Node9 -->
<g id="edge8" class="edge">
<title>Node2&#45;&gt;Node9</title>
<path fill="none" stroke="midnightblue" d="M220.11,-114C238.68,-114 259.16,-114 276.96,-114"/>
<polygon fill="midnightblue" stroke="midnightblue" points="277.1,-117.5 287.1,-114 277.1,-110.5 277.1,-117.5"/>
</g>
<!-- Node13 -->
<g id="node13" class="node">
<title>Node13</title>
<g id="a_node13"><a xlink:href="pb__decode_8c.html#a3f23856ca4723854f204b46d5f10c3ec" target="_top" xlink:title=" ">
<polygon fill="white" stroke="black" points="446,-38.5 446,-57.5 531,-57.5 531,-38.5 446,-38.5"/>
<text text-anchor="middle" x="488.5" y="-45.5" font-family="Helvetica,sans-Serif" font-size="10.00">read_raw_value</text>
</a>
</g>
</g>
<!-- Node2&#45;&gt;Node13 -->
<g id="edge16" class="edge">
<title>Node2&#45;&gt;Node13</title>
<path fill="none" stroke="midnightblue" d="M210.1,-104.49C224.76,-101.44 241.06,-98.07 256,-95 317.75,-82.32 388.82,-67.92 435.74,-58.44"/>
<polygon fill="midnightblue" stroke="midnightblue" points="436.56,-61.85 445.67,-56.43 435.17,-54.98 436.56,-61.85"/>
</g>
<!-- Node5 -->
<g id="node5" class="node">
<title>Node5</title>
<g id="a_node5"><a xlink:href="pb__decode_8c.html#a9746f7244f9d14b2a095ddfcad55febe" target="_top" xlink:title=" ">
<polygon fill="white" stroke="black" points="732,-48.5 732,-67.5 786,-67.5 786,-48.5 732,-48.5"/>
<text text-anchor="middle" x="759" y="-55.5" font-family="Helvetica,sans-Serif" font-size="10.00">buf_read</text>
</a>
</g>
</g>
<!-- Node4&#45;&gt;Node5 -->
<g id="edge4" class="edge">
<title>Node4&#45;&gt;Node5</title>
<path fill="none" stroke="midnightblue" d="M542.87,-19.54C595.79,-29 675.45,-43.24 721.53,-51.48"/>
<polygon fill="midnightblue" stroke="midnightblue" points="721.19,-54.98 731.65,-53.29 722.43,-48.08 721.19,-54.98"/>
</g>
<!-- Node7 -->
<g id="node7" class="node">
<title>Node7</title>
<g id="a_node7"><a xlink:href="pb__decode_8c.html#abef49f760a21798e59538eec4aea23c2" target="_top" xlink:title=" ">
<polygon fill="white" stroke="black" points="584,-171.5 584,-190.5 688,-190.5 688,-171.5 584,-171.5"/>
<text text-anchor="middle" x="636" y="-178.5" font-family="Helvetica,sans-Serif" font-size="10.00">pb_decode_varint32</text>
</a>
</g>
</g>
<!-- Node6&#45;&gt;Node7 -->
<g id="edge6" class="edge">
<title>Node6&#45;&gt;Node7</title>
<path fill="none" stroke="midnightblue" d="M393.04,-188.04C446.9,-186.47 521.69,-184.3 573.81,-182.78"/>
<polygon fill="midnightblue" stroke="midnightblue" points="574.02,-186.27 583.91,-182.49 573.82,-179.28 574.02,-186.27"/>
</g>
<!-- Node8 -->
<g id="node8" class="node">
<title>Node8</title>
<g id="a_node8"><a xlink:href="pb__decode_8c.html#a13d38bcceb0a06bfc8c4c9c6da0f7258" target="_top" xlink:title=" ">
<polygon fill="white" stroke="black" points="724,-171.5 724,-190.5 794,-190.5 794,-171.5 724,-171.5"/>
<text text-anchor="middle" x="759" y="-178.5" font-family="Helvetica,sans-Serif" font-size="10.00">pb_readbyte</text>
</a>
</g>
</g>
<!-- Node7&#45;&gt;Node8 -->
<g id="edge7" class="edge">
<title>Node7&#45;&gt;Node8</title>
<path fill="none" stroke="midnightblue" d="M688.31,-181C696.74,-181 705.41,-181 713.64,-181"/>
<polygon fill="midnightblue" stroke="midnightblue" points="713.79,-184.5 723.79,-181 713.79,-177.5 713.79,-184.5"/>
</g>
<!-- Node10 -->
<g id="node10" class="node">
<title>Node10</title>
<g id="a_node10"><a xlink:href="pb__decode_8c.html#ad54a52168427208d756087919ff82d41" target="_top" xlink:title=" ">
<polygon fill="white" stroke="black" points="610.5,-76.5 610.5,-95.5 661.5,-95.5 661.5,-76.5 610.5,-76.5"/>
<text text-anchor="middle" x="636" y="-83.5" font-family="Helvetica,sans-Serif" font-size="10.00">pb_read</text>
</a>
</g>
</g>
<!-- Node9&#45;&gt;Node10 -->
<g id="edge9" class="edge">
<title>Node9&#45;&gt;Node10</title>
<path fill="none" stroke="midnightblue" d="M361.5,-114.47C405.63,-114.6 482.62,-113.4 548,-105 565.48,-102.75 584.65,-98.74 600.54,-94.98"/>
<polygon fill="midnightblue" stroke="midnightblue" points="601.56,-98.33 610.45,-92.56 599.91,-91.53 601.56,-98.33"/>
</g>
<!-- Node11 -->
<g id="node11" class="node">
<title>Node11</title>
<g id="a_node11"><a xlink:href="pb__decode_8c.html#afa3e9c4da6d998fd6315d4cbd51b02e4" target="_top" xlink:title=" ">
<polygon fill="white" stroke="black" points="448.5,-152.5 448.5,-171.5 528.5,-171.5 528.5,-152.5 448.5,-152.5"/>
<text text-anchor="middle" x="488.5" y="-159.5" font-family="Helvetica,sans-Serif" font-size="10.00">pb_skip_string</text>
</a>
</g>
</g>
<!-- Node9&#45;&gt;Node11 -->
<g id="edge11" class="edge">
<title>Node9&#45;&gt;Node11</title>
<path fill="none" stroke="midnightblue" d="M359.88,-123.51C370.52,-126.5 382.25,-129.84 393,-133 410.72,-138.21 430.25,-144.17 446.94,-149.32"/>
<polygon fill="midnightblue" stroke="midnightblue" points="446.32,-152.8 456.91,-152.42 448.4,-146.11 446.32,-152.8"/>
</g>
<!-- Node12 -->
<g id="node12" class="node">
<title>Node12</title>
<g id="a_node12"><a xlink:href="pb__decode_8c.html#a57738ceef4b30349437900b245a33c77" target="_top" xlink:title=" ">
<polygon fill="white" stroke="black" points="448.5,-76.5 448.5,-95.5 528.5,-95.5 528.5,-76.5 448.5,-76.5"/>
<text text-anchor="middle" x="488.5" y="-83.5" font-family="Helvetica,sans-Serif" font-size="10.00">pb_skip_varint</text>
</a>
</g>
</g>
<!-- Node9&#45;&gt;Node12 -->
<g id="edge14" class="edge">
<title>Node9&#45;&gt;Node12</title>
<path fill="none" stroke="midnightblue" d="M361.86,-107.72C384.49,-103.8 413.88,-98.73 438.54,-94.46"/>
<polygon fill="midnightblue" stroke="midnightblue" points="439.18,-97.9 448.44,-92.75 437.99,-91.01 439.18,-97.9"/>
</g>
<!-- Node10&#45;&gt;Node5 -->
<g id="edge10" class="edge">
<title>Node10&#45;&gt;Node5</title>
<path fill="none" stroke="midnightblue" d="M661.78,-80.27C679.01,-76.28 702.26,-70.9 721.59,-66.42"/>
<polygon fill="midnightblue" stroke="midnightblue" points="722.62,-69.78 731.58,-64.11 721.05,-62.96 722.62,-69.78"/>
</g>
<!-- Node11&#45;&gt;Node7 -->
<g id="edge12" class="edge">
<title>Node11&#45;&gt;Node7</title>
<path fill="none" stroke="midnightblue" d="M528.87,-167.14C542.62,-168.94 558.39,-171 573.5,-172.97"/>
<polygon fill="midnightblue" stroke="midnightblue" points="573.46,-176.49 583.82,-174.32 574.36,-169.55 573.46,-176.49"/>
</g>
<!-- Node11&#45;&gt;Node10 -->
<g id="edge13" class="edge">
<title>Node11&#45;&gt;Node10</title>
<path fill="none" stroke="midnightblue" d="M515.21,-152.42C525.55,-148.31 537.5,-143.26 548,-138 570.31,-126.84 594.58,-112.09 611.81,-101.16"/>
<polygon fill="midnightblue" stroke="midnightblue" points="614.07,-103.86 620.6,-95.52 610.29,-97.97 614.07,-103.86"/>
</g>
<!-- Node12&#45;&gt;Node10 -->
<g id="edge15" class="edge">
<title>Node12&#45;&gt;Node10</title>
<path fill="none" stroke="midnightblue" d="M528.87,-86C551.05,-86 578.51,-86 599.94,-86"/>
<polygon fill="midnightblue" stroke="midnightblue" points="600.23,-89.5 610.23,-86 600.23,-82.5 600.23,-89.5"/>
</g>
<!-- Node13&#45;&gt;Node10 -->
<g id="edge17" class="edge">
<title>Node13&#45;&gt;Node10</title>
<path fill="none" stroke="midnightblue" d="M526.22,-57.59C548.99,-63.54 578.08,-71.13 600.44,-76.97"/>
<polygon fill="midnightblue" stroke="midnightblue" points="599.63,-80.38 610.19,-79.52 601.4,-73.61 599.63,-80.38"/>
</g>
<!-- Node14&#45;&gt;Node3 -->
<g id="edge19" class="edge">
<title>Node14&#45;&gt;Node3</title>
<path fill="none" stroke="midnightblue" d="M204.62,-180.41C225.6,-175.4 251.48,-169.21 273.73,-163.89"/>
<polygon fill="midnightblue" stroke="midnightblue" points="274.75,-167.25 283.67,-161.52 273.13,-160.44 274.75,-167.25"/>
</g>
<!-- Node14&#45;&gt;Node6 -->
<g id="edge20" class="edge">
<title>Node14&#45;&gt;Node6</title>
<path fill="none" stroke="midnightblue" d="M216.56,-190C225.91,-190 235.83,-190 245.71,-190"/>
<polygon fill="midnightblue" stroke="midnightblue" points="245.97,-193.5 255.97,-190 245.97,-186.5 245.97,-193.5"/>
</g>
<!-- Node15&#45;&gt;Node3 -->
<g id="edge22" class="edge">
<title>Node15&#45;&gt;Node3</title>
<path fill="none" stroke="midnightblue" d="M214.37,-152C224.45,-152 235.27,-152 246.03,-152"/>
<polygon fill="midnightblue" stroke="midnightblue" points="246.32,-155.5 256.32,-152 246.32,-148.5 246.32,-155.5"/>
</g>
<!-- Node15&#45;&gt;Node6 -->
<g id="edge23" class="edge">
<title>Node15&#45;&gt;Node6</title>
<path fill="none" stroke="midnightblue" d="M204.62,-161.59C225.6,-166.6 251.48,-172.79 273.73,-178.11"/>
<polygon fill="midnightblue" stroke="midnightblue" points="273.13,-181.56 283.67,-180.48 274.75,-174.75 273.13,-181.56"/>
</g>
</g>
</svg>
