<?xml version="1.0" encoding="UTF-8" standalone="no"?>
<!DOCTYPE svg PUBLIC "-//W3C//DTD SVG 1.1//EN"
 "http://www.w3.org/Graphics/SVG/1.1/DTD/svg11.dtd">
<!-- Generated by graphviz version 2.43.0 (0)
 -->
<!-- Title: decode_callback_field Pages: 1 -->
<svg width="712pt" height="218pt"
 viewBox="0.00 0.00 712.00 218.00" xmlns="http://www.w3.org/2000/svg" xmlns:xlink="http://www.w3.org/1999/xlink">
<g id="graph0" class="graph" transform="scale(1 1) rotate(0) translate(4 214)">
<title>decode_callback_field</title>
<polygon fill="white" stroke="transparent" points="-4,4 -4,-214 708,-214 708,4 -4,4"/>
<!-- Node1 -->
<g id="node1" class="node">
<title>Node1</title>
<g id="a_node1"><a xlink:title=" ">
<polygon fill="#bfbfbf" stroke="black" points="0,-95.5 0,-114.5 113,-114.5 113,-95.5 0,-95.5"/>
<text text-anchor="middle" x="56.5" y="-102.5" font-family="Helvetica,sans-Serif" font-size="10.00">decode_callback_field</text>
</a>
</g>
</g>
<!-- Node2 -->
<g id="node2" class="node">
<title>Node2</title>
<g id="a_node2"><a xlink:href="pb__decode_8c.html#ac0a84ef26be0f3bf894deaee63e5114c" target="_top" xlink:title=" ">
<polygon fill="white" stroke="black" points="149,-171.5 149,-190.5 285,-190.5 285,-171.5 149,-171.5"/>
<text text-anchor="middle" x="217" y="-178.5" font-family="Helvetica,sans-Serif" font-size="10.00">pb_close_string_substream</text>
</a>
</g>
</g>
<!-- Node1&#45;&gt;Node2 -->
<g id="edge1" class="edge">
<title>Node1&#45;&gt;Node2</title>
<path fill="none" stroke="midnightblue" d="M72.61,-114.67C90.42,-125.8 121.1,-144.19 149,-157 157.66,-160.97 167.18,-164.73 176.26,-168.04"/>
<polygon fill="midnightblue" stroke="midnightblue" points="175.28,-171.41 185.87,-171.45 177.62,-164.81 175.28,-171.41"/>
</g>
<!-- Node3 -->
<g id="node3" class="node">
<title>Node3</title>
<g id="a_node3"><a xlink:href="pb__decode_8c.html#a37dc2b0c54c27ddd29791e7522c85548" target="_top" xlink:title=" ">
<polygon fill="white" stroke="black" points="330,-0.5 330,-19.5 449,-19.5 449,-0.5 330,-0.5"/>
<text text-anchor="middle" x="389.5" y="-7.5" font-family="Helvetica,sans-Serif" font-size="10.00">pb_istream_from_buffer</text>
</a>
</g>
</g>
<!-- Node1&#45;&gt;Node3 -->
<g id="edge2" class="edge">
<title>Node1&#45;&gt;Node3</title>
<path fill="none" stroke="midnightblue" d="M69.4,-95.38C86.1,-82.4 117.96,-59.58 149,-48 204.23,-27.38 270.71,-17.95 319.59,-13.64"/>
<polygon fill="midnightblue" stroke="midnightblue" points="320.07,-17.11 329.75,-12.79 319.49,-10.13 320.07,-17.11"/>
</g>
<!-- Node5 -->
<g id="node5" class="node">
<title>Node5</title>
<g id="a_node5"><a xlink:href="pb__decode_8c.html#a7433fc394255932c4f00274e7f890721" target="_top" xlink:title=" ">
<polygon fill="white" stroke="black" points="321,-190.5 321,-209.5 458,-209.5 458,-190.5 321,-190.5"/>
<text text-anchor="middle" x="389.5" y="-197.5" font-family="Helvetica,sans-Serif" font-size="10.00">pb_make_string_substream</text>
</a>
</g>
</g>
<!-- Node1&#45;&gt;Node5 -->
<g id="edge4" class="edge">
<title>Node1&#45;&gt;Node5</title>
<path fill="none" stroke="midnightblue" d="M100.94,-114.58C157.1,-127.18 251.63,-149.23 285,-162 301.9,-168.47 304.2,-174.29 321,-181 326.86,-183.34 333.12,-185.51 339.37,-187.49"/>
<polygon fill="midnightblue" stroke="midnightblue" points="338.54,-190.9 349.13,-190.43 340.56,-184.19 338.54,-190.9"/>
</g>
<!-- Node8 -->
<g id="node8" class="node">
<title>Node8</title>
<g id="a_node8"><a xlink:href="pb__decode_8c.html#ab5102942c8402c215f836364e1b775b1" target="_top" xlink:title=" ">
<polygon fill="white" stroke="black" points="180,-95.5 180,-114.5 254,-114.5 254,-95.5 180,-95.5"/>
<text text-anchor="middle" x="217" y="-102.5" font-family="Helvetica,sans-Serif" font-size="10.00">pb_skip_field</text>
</a>
</g>
</g>
<!-- Node1&#45;&gt;Node8 -->
<g id="edge7" class="edge">
<title>Node1&#45;&gt;Node8</title>
<path fill="none" stroke="midnightblue" d="M113.38,-105C131.86,-105 152.2,-105 169.86,-105"/>
<polygon fill="midnightblue" stroke="midnightblue" points="169.92,-108.5 179.92,-105 169.92,-101.5 169.92,-108.5"/>
</g>
<!-- Node12 -->
<g id="node12" class="node">
<title>Node12</title>
<g id="a_node12"><a xlink:href="pb__decode_8c.html#a3f23856ca4723854f204b46d5f10c3ec" target="_top" xlink:title=" ">
<polygon fill="white" stroke="black" points="174.5,-57.5 174.5,-76.5 259.5,-76.5 259.5,-57.5 174.5,-57.5"/>
<text text-anchor="middle" x="217" y="-64.5" font-family="Helvetica,sans-Serif" font-size="10.00">read_raw_value</text>
</a>
</g>
</g>
<!-- Node1&#45;&gt;Node12 -->
<g id="edge15" class="edge">
<title>Node1&#45;&gt;Node12</title>
<path fill="none" stroke="midnightblue" d="M97.5,-95.41C118.41,-90.4 144.21,-84.21 166.39,-78.89"/>
<polygon fill="midnightblue" stroke="midnightblue" points="167.38,-82.26 176.29,-76.52 165.75,-75.45 167.38,-82.26"/>
</g>
<!-- Node4 -->
<g id="node4" class="node">
<title>Node4</title>
<g id="a_node4"><a xlink:href="pb__decode_8c.html#a9746f7244f9d14b2a095ddfcad55febe" target="_top" xlink:title=" ">
<polygon fill="white" stroke="black" points="642,-48.5 642,-67.5 696,-67.5 696,-48.5 642,-48.5"/>
<text text-anchor="middle" x="669" y="-55.5" font-family="Helvetica,sans-Serif" font-size="10.00">buf_read</text>
</a>
</g>
</g>
<!-- Node3&#45;&gt;Node4 -->
<g id="edge3" class="edge">
<title>Node3&#45;&gt;Node4</title>
<path fill="none" stroke="midnightblue" d="M445.66,-19.54C500.91,-29.1 584.36,-43.53 631.75,-51.73"/>
<polygon fill="midnightblue" stroke="midnightblue" points="631.4,-55.22 641.85,-53.48 632.59,-48.32 631.4,-55.22"/>
</g>
<!-- Node6 -->
<g id="node6" class="node">
<title>Node6</title>
<g id="a_node6"><a xlink:href="pb__decode_8c.html#abef49f760a21798e59538eec4aea23c2" target="_top" xlink:title=" ">
<polygon fill="white" stroke="black" points="494,-171.5 494,-190.5 598,-190.5 598,-171.5 494,-171.5"/>
<text text-anchor="middle" x="546" y="-178.5" font-family="Helvetica,sans-Serif" font-size="10.00">pb_decode_varint32</text>
</a>
</g>
</g>
<!-- Node5&#45;&gt;Node6 -->
<g id="edge5" class="edge">
<title>Node5&#45;&gt;Node6</title>
<path fill="none" stroke="midnightblue" d="M458.27,-191.67C466.68,-190.63 475.25,-189.58 483.56,-188.56"/>
<polygon fill="midnightblue" stroke="midnightblue" points="484.05,-192.02 493.55,-187.33 483.2,-185.07 484.05,-192.02"/>
</g>
<!-- Node7 -->
<g id="node7" class="node">
<title>Node7</title>
<g id="a_node7"><a xlink:href="pb__decode_8c.html#a13d38bcceb0a06bfc8c4c9c6da0f7258" target="_top" xlink:title=" ">
<polygon fill="white" stroke="black" points="634,-171.5 634,-190.5 704,-190.5 704,-171.5 634,-171.5"/>
<text text-anchor="middle" x="669" y="-178.5" font-family="Helvetica,sans-Serif" font-size="10.00">pb_readbyte</text>
</a>
</g>
</g>
<!-- Node6&#45;&gt;Node7 -->
<g id="edge6" class="edge">
<title>Node6&#45;&gt;Node7</title>
<path fill="none" stroke="midnightblue" d="M598.31,-181C606.74,-181 615.41,-181 623.64,-181"/>
<polygon fill="midnightblue" stroke="midnightblue" points="623.79,-184.5 633.79,-181 623.79,-177.5 623.79,-184.5"/>
</g>
<!-- Node9 -->
<g id="node9" class="node">
<title>Node9</title>
<g id="a_node9"><a xlink:href="pb__decode_8c.html#ad54a52168427208d756087919ff82d41" target="_top" xlink:title=" ">
<polygon fill="white" stroke="black" points="520.5,-76.5 520.5,-95.5 571.5,-95.5 571.5,-76.5 520.5,-76.5"/>
<text text-anchor="middle" x="546" y="-83.5" font-family="Helvetica,sans-Serif" font-size="10.00">pb_read</text>
</a>
</g>
</g>
<!-- Node8&#45;&gt;Node9 -->
<g id="edge8" class="edge">
<title>Node8&#45;&gt;Node9</title>
<path fill="none" stroke="midnightblue" d="M254.32,-107.42C301.44,-110 386.13,-112.76 458,-105 475.53,-103.11 494.7,-99.13 510.58,-95.3"/>
<polygon fill="midnightblue" stroke="midnightblue" points="511.63,-98.65 520.48,-92.83 509.93,-91.86 511.63,-98.65"/>
</g>
<!-- Node10 -->
<g id="node10" class="node">
<title>Node10</title>
<g id="a_node10"><a xlink:href="pb__decode_8c.html#afa3e9c4da6d998fd6315d4cbd51b02e4" target="_top" xlink:title=" ">
<polygon fill="white" stroke="black" points="349.5,-152.5 349.5,-171.5 429.5,-171.5 429.5,-152.5 349.5,-152.5"/>
<text text-anchor="middle" x="389.5" y="-159.5" font-family="Helvetica,sans-Serif" font-size="10.00">pb_skip_string</text>
</a>
</g>
</g>
<!-- Node8&#45;&gt;Node10 -->
<g id="edge10" class="edge">
<title>Node8&#45;&gt;Node10</title>
<path fill="none" stroke="midnightblue" d="M246.54,-114.54C274.94,-124.03 318.71,-138.67 350.13,-149.17"/>
<polygon fill="midnightblue" stroke="midnightblue" points="349.28,-152.58 359.87,-152.43 351.49,-145.94 349.28,-152.58"/>
</g>
<!-- Node11 -->
<g id="node11" class="node">
<title>Node11</title>
<g id="a_node11"><a xlink:href="pb__decode_8c.html#a57738ceef4b30349437900b245a33c77" target="_top" xlink:title=" ">
<polygon fill="white" stroke="black" points="349.5,-76.5 349.5,-95.5 429.5,-95.5 429.5,-76.5 349.5,-76.5"/>
<text text-anchor="middle" x="389.5" y="-83.5" font-family="Helvetica,sans-Serif" font-size="10.00">pb_skip_varint</text>
</a>
</g>
</g>
<!-- Node8&#45;&gt;Node11 -->
<g id="edge13" class="edge">
<title>Node8&#45;&gt;Node11</title>
<path fill="none" stroke="midnightblue" d="M254.16,-100.97C278.95,-98.21 312.14,-94.51 339.33,-91.48"/>
<polygon fill="midnightblue" stroke="midnightblue" points="339.87,-94.94 349.42,-90.35 339.1,-87.98 339.87,-94.94"/>
</g>
<!-- Node9&#45;&gt;Node4 -->
<g id="edge9" class="edge">
<title>Node9&#45;&gt;Node4</title>
<path fill="none" stroke="midnightblue" d="M571.78,-80.27C589.01,-76.28 612.26,-70.9 631.59,-66.42"/>
<polygon fill="midnightblue" stroke="midnightblue" points="632.62,-69.78 641.58,-64.11 631.05,-62.96 632.62,-69.78"/>
</g>
<!-- Node10&#45;&gt;Node6 -->
<g id="edge11" class="edge">
<title>Node10&#45;&gt;Node6</title>
<path fill="none" stroke="midnightblue" d="M429.89,-166.84C446.26,-168.86 465.64,-171.24 483.79,-173.47"/>
<polygon fill="midnightblue" stroke="midnightblue" points="483.36,-176.95 493.71,-174.69 484.22,-170 483.36,-176.95"/>
</g>
<!-- Node10&#45;&gt;Node9 -->
<g id="edge12" class="edge">
<title>Node10&#45;&gt;Node9</title>
<path fill="none" stroke="midnightblue" d="M421.25,-152.49C432.96,-148.51 446.3,-143.51 458,-138 480.7,-127.31 505.1,-112.39 522.27,-101.28"/>
<polygon fill="midnightblue" stroke="midnightblue" points="524.57,-103.96 531.01,-95.54 520.73,-98.11 524.57,-103.96"/>
</g>
<!-- Node11&#45;&gt;Node9 -->
<g id="edge14" class="edge">
<title>Node11&#45;&gt;Node9</title>
<path fill="none" stroke="midnightblue" d="M429.89,-86C454.65,-86 486.32,-86 510.16,-86"/>
<polygon fill="midnightblue" stroke="midnightblue" points="510.19,-89.5 520.19,-86 510.19,-82.5 510.19,-89.5"/>
</g>
<!-- Node12&#45;&gt;Node9 -->
<g id="edge16" class="edge">
<title>Node12&#45;&gt;Node9</title>
<path fill="none" stroke="midnightblue" d="M259.77,-64.29C307.76,-61.81 388.82,-59.53 458,-67 475.53,-68.89 494.7,-72.87 510.58,-76.7"/>
<polygon fill="midnightblue" stroke="midnightblue" points="509.93,-80.14 520.48,-79.17 511.63,-73.35 509.93,-80.14"/>
</g>
</g>
</svg>
