<?xml version="1.0" encoding="UTF-8" standalone="no"?>
<!DOCTYPE svg PUBLIC "-//W3C//DTD SVG 1.1//EN"
 "http://www.w3.org/Graphics/SVG/1.1/DTD/svg11.dtd">
<!-- Generated by graphviz version 2.43.0 (0)
 -->
<!-- Title: pb_encode_varint Pages: 1 -->
<svg width="282pt" height="28pt"
 viewBox="0.00 0.00 282.00 28.00" xmlns="http://www.w3.org/2000/svg" xmlns:xlink="http://www.w3.org/1999/xlink">
<g id="graph0" class="graph" transform="scale(1 1) rotate(0) translate(4 24)">
<title>pb_encode_varint</title>
<polygon fill="white" stroke="transparent" points="-4,4 -4,-24 278,-24 278,4 -4,4"/>
<!-- Node1 -->
<g id="node1" class="node">
<title>Node1</title>
<g id="a_node1"><a xlink:title=" ">
<polygon fill="#bfbfbf" stroke="black" points="0,-0.5 0,-19.5 93,-19.5 93,-0.5 0,-0.5"/>
<text text-anchor="middle" x="46.5" y="-7.5" font-family="Helvetica,sans-Serif" font-size="10.00">pb_encode_varint</text>
</a>
</g>
</g>
<!-- Node2 -->
<g id="node2" class="node">
<title>Node2</title>
<g id="a_node2"><a xlink:href="pb__encode_8c.html#a6f8d972fa4a439724532f0bcc07de81d" target="_top" xlink:title=" ">
<polygon fill="white" stroke="black" points="129,-0.5 129,-19.5 182,-19.5 182,-0.5 129,-0.5"/>
<text text-anchor="middle" x="155.5" y="-7.5" font-family="Helvetica,sans-Serif" font-size="10.00">pb_write</text>
</a>
</g>
</g>
<!-- Node1&#45;&gt;Node2 -->
<g id="edge1" class="edge">
<title>Node1&#45;&gt;Node2</title>
<path fill="none" stroke="midnightblue" d="M93.19,-10C101.64,-10 110.36,-10 118.47,-10"/>
<polygon fill="midnightblue" stroke="midnightblue" points="118.72,-13.5 128.72,-10 118.72,-6.5 118.72,-13.5"/>
</g>
<!-- Node3 -->
<g id="node3" class="node">
<title>Node3</title>
<g id="a_node3"><a xlink:href="pb__encode_8c.html#aa987a466c397e7769605789cc0b22054" target="_top" xlink:title=" ">
<polygon fill="white" stroke="black" points="218,-0.5 218,-19.5 274,-19.5 274,-0.5 218,-0.5"/>
<text text-anchor="middle" x="246" y="-7.5" font-family="Helvetica,sans-Serif" font-size="10.00">buf_write</text>
</a>
</g>
</g>
<!-- Node2&#45;&gt;Node3 -->
<g id="edge2" class="edge">
<title>Node2&#45;&gt;Node3</title>
<path fill="none" stroke="midnightblue" d="M182.1,-10C190.08,-10 199.06,-10 207.68,-10"/>
<polygon fill="midnightblue" stroke="midnightblue" points="207.92,-13.5 217.92,-10 207.92,-6.5 207.92,-13.5"/>
</g>
</g>
</svg>
