<?xml version="1.0" encoding="UTF-8" standalone="no"?>
<!DOCTYPE svg PUBLIC "-//W3C//DTD SVG 1.1//EN"
 "http://www.w3.org/Graphics/SVG/1.1/DTD/svg11.dtd">
<!-- Generated by graphviz version 2.43.0 (0)
 -->
<!-- Title: encode_array Pages: 1 -->
<svg width="670pt" height="101pt"
 viewBox="0.00 0.00 670.00 100.51" xmlns="http://www.w3.org/2000/svg" xmlns:xlink="http://www.w3.org/1999/xlink">
<g id="graph0" class="graph" transform="scale(1 1) rotate(0) translate(4 96.51)">
<title>encode_array</title>
<polygon fill="white" stroke="transparent" points="-4,4 -4,-96.51 666,-96.51 666,4 -4,4"/>
<!-- Node1 -->
<g id="node1" class="node">
<title>Node1</title>
<g id="a_node1"><a xlink:title=" ">
<polygon fill="#bfbfbf" stroke="black" points="0,-38.5 0,-57.5 75,-57.5 75,-38.5 0,-38.5"/>
<text text-anchor="middle" x="37.5" y="-45.5" font-family="Helvetica,sans-Serif" font-size="10.00">encode_array</text>
</a>
</g>
</g>
<!-- Node2 -->
<g id="node2" class="node">
<title>Node2</title>
<g id="a_node2"><a xlink:href="pb__encode_8c.html#acfbcc89e5e4355b8c263d6d4f2bc8c6f" target="_top" xlink:title=" ">
<polygon fill="white" stroke="black" points="269,-57.5 269,-76.5 352,-76.5 352,-57.5 269,-57.5"/>
<text text-anchor="middle" x="310.5" y="-64.5" font-family="Helvetica,sans-Serif" font-size="10.00">pb_encode_tag</text>
</a>
</g>
</g>
<!-- Node1&#45;&gt;Node2 -->
<g id="edge1" class="edge">
<title>Node1&#45;&gt;Node2</title>
<path fill="none" stroke="midnightblue" d="M51.86,-57.56C65.84,-66.91 88.78,-80.53 111,-86 163.99,-99.05 226.99,-88.82 267.58,-79.04"/>
<polygon fill="midnightblue" stroke="midnightblue" points="268.55,-82.4 277.39,-76.57 266.84,-75.61 268.55,-82.4"/>
</g>
<!-- Node3 -->
<g id="node3" class="node">
<title>Node3</title>
<g id="a_node3"><a xlink:href="pb__encode_8c.html#a568e2eb180774ef4e07de89508edb52b" target="_top" xlink:title=" ">
<polygon fill="white" stroke="black" points="388,-19.5 388,-38.5 481,-38.5 481,-19.5 388,-19.5"/>
<text text-anchor="middle" x="434.5" y="-26.5" font-family="Helvetica,sans-Serif" font-size="10.00">pb_encode_varint</text>
</a>
</g>
</g>
<!-- Node1&#45;&gt;Node3 -->
<g id="edge7" class="edge">
<title>Node1&#45;&gt;Node3</title>
<path fill="none" stroke="midnightblue" d="M75.31,-46.23C144.82,-42.89 295.8,-35.62 377.8,-31.68"/>
<polygon fill="midnightblue" stroke="midnightblue" points="378.11,-35.17 387.93,-31.19 377.77,-28.18 378.11,-35.17"/>
</g>
<!-- Node4 -->
<g id="node4" class="node">
<title>Node4</title>
<g id="a_node4"><a xlink:href="pb__encode_8c.html#a6f8d972fa4a439724532f0bcc07de81d" target="_top" xlink:title=" ">
<polygon fill="white" stroke="black" points="517,-0.5 517,-19.5 570,-19.5 570,-0.5 517,-0.5"/>
<text text-anchor="middle" x="543.5" y="-7.5" font-family="Helvetica,sans-Serif" font-size="10.00">pb_write</text>
</a>
</g>
</g>
<!-- Node1&#45;&gt;Node4 -->
<g id="edge8" class="edge">
<title>Node1&#45;&gt;Node4</title>
<path fill="none" stroke="midnightblue" d="M75.26,-40.13C86.67,-37.9 99.32,-35.63 111,-34 233.39,-16.93 264.54,-15.34 388,-10 428.69,-8.24 475.46,-8.57 506.79,-9.13"/>
<polygon fill="midnightblue" stroke="midnightblue" points="506.72,-12.63 516.79,-9.32 506.86,-5.63 506.72,-12.63"/>
</g>
<!-- Node6 -->
<g id="node6" class="node">
<title>Node6</title>
<g id="a_node6"><a xlink:href="pb__encode_8c.html#a3e0f1ac29dce37f78220ecd6b9d21cba" target="_top" xlink:title=" ">
<polygon fill="white" stroke="black" points="111,-57.5 111,-76.5 233,-76.5 233,-57.5 111,-57.5"/>
<text text-anchor="middle" x="172" y="-64.5" font-family="Helvetica,sans-Serif" font-size="10.00">pb_encode_tag_for_field</text>
</a>
</g>
</g>
<!-- Node1&#45;&gt;Node6 -->
<g id="edge5" class="edge">
<title>Node1&#45;&gt;Node6</title>
<path fill="none" stroke="midnightblue" d="M75.06,-53.24C83.13,-54.4 91.94,-55.66 100.84,-56.94"/>
<polygon fill="midnightblue" stroke="midnightblue" points="100.51,-60.43 110.9,-58.38 101.5,-53.5 100.51,-60.43"/>
</g>
<!-- Node2&#45;&gt;Node3 -->
<g id="edge2" class="edge">
<title>Node2&#45;&gt;Node3</title>
<path fill="none" stroke="midnightblue" d="M342.29,-57.41C357.6,-52.64 376.32,-46.81 392.8,-41.68"/>
<polygon fill="midnightblue" stroke="midnightblue" points="394.22,-44.9 402.72,-38.59 392.14,-38.22 394.22,-44.9"/>
</g>
<!-- Node3&#45;&gt;Node4 -->
<g id="edge3" class="edge">
<title>Node3&#45;&gt;Node4</title>
<path fill="none" stroke="midnightblue" d="M481.19,-20.89C489.73,-19.37 498.55,-17.8 506.75,-16.35"/>
<polygon fill="midnightblue" stroke="midnightblue" points="507.49,-19.77 516.72,-14.58 506.26,-12.88 507.49,-19.77"/>
</g>
<!-- Node5 -->
<g id="node5" class="node">
<title>Node5</title>
<g id="a_node5"><a xlink:href="pb__encode_8c.html#aa987a466c397e7769605789cc0b22054" target="_top" xlink:title=" ">
<polygon fill="white" stroke="black" points="606,-0.5 606,-19.5 662,-19.5 662,-0.5 606,-0.5"/>
<text text-anchor="middle" x="634" y="-7.5" font-family="Helvetica,sans-Serif" font-size="10.00">buf_write</text>
</a>
</g>
</g>
<!-- Node4&#45;&gt;Node5 -->
<g id="edge4" class="edge">
<title>Node4&#45;&gt;Node5</title>
<path fill="none" stroke="midnightblue" d="M570.1,-10C578.08,-10 587.06,-10 595.68,-10"/>
<polygon fill="midnightblue" stroke="midnightblue" points="595.92,-13.5 605.92,-10 595.92,-6.5 595.92,-13.5"/>
</g>
<!-- Node6&#45;&gt;Node2 -->
<g id="edge6" class="edge">
<title>Node6&#45;&gt;Node2</title>
<path fill="none" stroke="midnightblue" d="M233.27,-67C241.7,-67 250.31,-67 258.55,-67"/>
<polygon fill="midnightblue" stroke="midnightblue" points="258.75,-70.5 268.75,-67 258.75,-63.5 258.75,-70.5"/>
</g>
</g>
</svg>
