<?xml version="1.0" encoding="UTF-8" standalone="no"?>
<!DOCTYPE svg PUBLIC "-//W3C//DTD SVG 1.1//EN"
 "http://www.w3.org/Graphics/SVG/1.1/DTD/svg11.dtd">
<!-- Generated by graphviz version 2.43.0 (0)
 -->
<!-- Title: encode_field Pages: 1 -->
<svg width="926pt" height="142pt"
 viewBox="0.00 0.00 926.00 142.00" xmlns="http://www.w3.org/2000/svg" xmlns:xlink="http://www.w3.org/1999/xlink">
<g id="graph0" class="graph" transform="scale(1 1) rotate(0) translate(4 138)">
<title>encode_field</title>
<polygon fill="white" stroke="transparent" points="-4,4 -4,-138 922,-138 922,4 -4,4"/>
<!-- Node1 -->
<g id="node1" class="node">
<title>Node1</title>
<g id="a_node1"><a xlink:title=" ">
<polygon fill="#bfbfbf" stroke="black" points="0,-19.5 0,-38.5 71,-38.5 71,-19.5 0,-19.5"/>
<text text-anchor="middle" x="35.5" y="-26.5" font-family="Helvetica,sans-Serif" font-size="10.00">encode_field</text>
</a>
</g>
</g>
<!-- Node2 -->
<g id="node2" class="node">
<title>Node2</title>
<g id="a_node2"><a xlink:href="pb__encode_8c.html#a1f186424780069ab183fb7d2360d274e" target="_top" xlink:title=" ">
<polygon fill="white" stroke="black" points="113.5,-38.5 113.5,-57.5 213.5,-57.5 213.5,-38.5 113.5,-38.5"/>
<text text-anchor="middle" x="163.5" y="-45.5" font-family="Helvetica,sans-Serif" font-size="10.00">encode_basic_field</text>
</a>
</g>
</g>
<!-- Node1&#45;&gt;Node2 -->
<g id="edge1" class="edge">
<title>Node1&#45;&gt;Node2</title>
<path fill="none" stroke="midnightblue" d="M71.26,-34.24C81.19,-35.74 92.3,-37.41 103.25,-39.07"/>
<polygon fill="midnightblue" stroke="midnightblue" points="102.82,-42.54 113.23,-40.57 103.86,-35.62 102.82,-42.54"/>
</g>
<!-- Node9 -->
<g id="node9" class="node">
<title>Node9</title>
<g id="a_node9"><a xlink:href="pb__encode_8c.html#aacffda1f85cad8e448a183dcc6c13559" target="_top" xlink:title=" ">
<polygon fill="white" stroke="black" points="107,-0.5 107,-19.5 220,-19.5 220,-0.5 107,-0.5"/>
<text text-anchor="middle" x="163.5" y="-7.5" font-family="Helvetica,sans-Serif" font-size="10.00">encode_callback_field</text>
</a>
</g>
</g>
<!-- Node1&#45;&gt;Node9 -->
<g id="edge12" class="edge">
<title>Node1&#45;&gt;Node9</title>
<path fill="none" stroke="midnightblue" d="M71.26,-23.76C79.2,-22.56 87.9,-21.25 96.66,-19.93"/>
<polygon fill="midnightblue" stroke="midnightblue" points="97.19,-23.39 106.55,-18.44 96.14,-16.47 97.19,-23.39"/>
</g>
<!-- Node3 -->
<g id="node3" class="node">
<title>Node3</title>
<g id="a_node3"><a xlink:href="pb__encode_8c.html#afb8fc9e49589eaae694eff25c858a19c" target="_top" xlink:title=" ">
<polygon fill="white" stroke="black" points="256,-57.5 256,-76.5 331,-76.5 331,-57.5 256,-57.5"/>
<text text-anchor="middle" x="293.5" y="-64.5" font-family="Helvetica,sans-Serif" font-size="10.00">encode_array</text>
</a>
</g>
</g>
<!-- Node2&#45;&gt;Node3 -->
<g id="edge2" class="edge">
<title>Node2&#45;&gt;Node3</title>
<path fill="none" stroke="midnightblue" d="M213.62,-55.29C224.09,-56.85 235.12,-58.48 245.51,-60.02"/>
<polygon fill="midnightblue" stroke="midnightblue" points="245.23,-63.52 255.64,-61.53 246.26,-56.6 245.23,-63.52"/>
</g>
<!-- Node8 -->
<g id="node8" class="node">
<title>Node8</title>
<g id="a_node8"><a xlink:href="pb__encode_8c.html#a3e0f1ac29dce37f78220ecd6b9d21cba" target="_top" xlink:title=" ">
<polygon fill="white" stroke="black" points="367,-19.5 367,-38.5 489,-38.5 489,-19.5 367,-19.5"/>
<text text-anchor="middle" x="428" y="-26.5" font-family="Helvetica,sans-Serif" font-size="10.00">pb_encode_tag_for_field</text>
</a>
</g>
</g>
<!-- Node2&#45;&gt;Node8 -->
<g id="edge11" class="edge">
<title>Node2&#45;&gt;Node8</title>
<path fill="none" stroke="midnightblue" d="M213.57,-44.45C253.85,-41.53 311.42,-37.37 356.62,-34.09"/>
<polygon fill="midnightblue" stroke="midnightblue" points="356.92,-37.58 366.65,-33.37 356.42,-30.6 356.92,-37.58"/>
</g>
<!-- Node4 -->
<g id="node4" class="node">
<title>Node4</title>
<g id="a_node4"><a xlink:href="pb__encode_8c.html#acfbcc89e5e4355b8c263d6d4f2bc8c6f" target="_top" xlink:title=" ">
<polygon fill="white" stroke="black" points="525,-57.5 525,-76.5 608,-76.5 608,-57.5 525,-57.5"/>
<text text-anchor="middle" x="566.5" y="-64.5" font-family="Helvetica,sans-Serif" font-size="10.00">pb_encode_tag</text>
</a>
</g>
</g>
<!-- Node3&#45;&gt;Node4 -->
<g id="edge3" class="edge">
<title>Node3&#45;&gt;Node4</title>
<path fill="none" stroke="midnightblue" d="M331.05,-67C378.32,-67 460.92,-67 514.39,-67"/>
<polygon fill="midnightblue" stroke="midnightblue" points="514.67,-70.5 524.67,-67 514.67,-63.5 514.67,-70.5"/>
</g>
<!-- Node5 -->
<g id="node5" class="node">
<title>Node5</title>
<g id="a_node5"><a xlink:href="pb__encode_8c.html#a568e2eb180774ef4e07de89508edb52b" target="_top" xlink:title=" ">
<polygon fill="white" stroke="black" points="644,-95.5 644,-114.5 737,-114.5 737,-95.5 644,-95.5"/>
<text text-anchor="middle" x="690.5" y="-102.5" font-family="Helvetica,sans-Serif" font-size="10.00">pb_encode_varint</text>
</a>
</g>
</g>
<!-- Node3&#45;&gt;Node5 -->
<g id="edge9" class="edge">
<title>Node3&#45;&gt;Node5</title>
<path fill="none" stroke="midnightblue" d="M331.25,-74.96C342.66,-77.2 355.31,-79.44 367,-81 460.05,-93.4 569.11,-99.84 633.59,-102.82"/>
<polygon fill="midnightblue" stroke="midnightblue" points="633.78,-106.33 643.93,-103.28 634.1,-99.34 633.78,-106.33"/>
</g>
<!-- Node6 -->
<g id="node6" class="node">
<title>Node6</title>
<g id="a_node6"><a xlink:href="pb__encode_8c.html#a6f8d972fa4a439724532f0bcc07de81d" target="_top" xlink:title=" ">
<polygon fill="white" stroke="black" points="773,-114.5 773,-133.5 826,-133.5 826,-114.5 773,-114.5"/>
<text text-anchor="middle" x="799.5" y="-121.5" font-family="Helvetica,sans-Serif" font-size="10.00">pb_write</text>
</a>
</g>
</g>
<!-- Node3&#45;&gt;Node6 -->
<g id="edge10" class="edge">
<title>Node3&#45;&gt;Node6</title>
<path fill="none" stroke="midnightblue" d="M310.57,-76.58C324.85,-84.59 346.58,-95.55 367,-101 509.32,-138.96 687.16,-132.22 762.31,-127.02"/>
<polygon fill="midnightblue" stroke="midnightblue" points="762.92,-130.49 772.64,-126.27 762.41,-123.5 762.92,-130.49"/>
</g>
<!-- Node3&#45;&gt;Node8 -->
<g id="edge7" class="edge">
<title>Node3&#45;&gt;Node8</title>
<path fill="none" stroke="midnightblue" d="M327.94,-57.41C344.88,-52.55 365.66,-46.59 383.81,-41.39"/>
<polygon fill="midnightblue" stroke="midnightblue" points="384.93,-44.71 393.58,-38.59 383,-37.98 384.93,-44.71"/>
</g>
<!-- Node4&#45;&gt;Node5 -->
<g id="edge4" class="edge">
<title>Node4&#45;&gt;Node5</title>
<path fill="none" stroke="midnightblue" d="M598.29,-76.59C613.6,-81.36 632.32,-87.19 648.8,-92.32"/>
<polygon fill="midnightblue" stroke="midnightblue" points="648.14,-95.78 658.72,-95.41 650.22,-89.1 648.14,-95.78"/>
</g>
<!-- Node5&#45;&gt;Node6 -->
<g id="edge5" class="edge">
<title>Node5&#45;&gt;Node6</title>
<path fill="none" stroke="midnightblue" d="M737.19,-113.11C745.73,-114.63 754.55,-116.2 762.75,-117.65"/>
<polygon fill="midnightblue" stroke="midnightblue" points="762.26,-121.12 772.72,-119.42 763.49,-114.23 762.26,-121.12"/>
</g>
<!-- Node7 -->
<g id="node7" class="node">
<title>Node7</title>
<g id="a_node7"><a xlink:href="pb__encode_8c.html#aa987a466c397e7769605789cc0b22054" target="_top" xlink:title=" ">
<polygon fill="white" stroke="black" points="862,-114.5 862,-133.5 918,-133.5 918,-114.5 862,-114.5"/>
<text text-anchor="middle" x="890" y="-121.5" font-family="Helvetica,sans-Serif" font-size="10.00">buf_write</text>
</a>
</g>
</g>
<!-- Node6&#45;&gt;Node7 -->
<g id="edge6" class="edge">
<title>Node6&#45;&gt;Node7</title>
<path fill="none" stroke="midnightblue" d="M826.1,-124C834.08,-124 843.06,-124 851.68,-124"/>
<polygon fill="midnightblue" stroke="midnightblue" points="851.92,-127.5 861.92,-124 851.92,-120.5 851.92,-127.5"/>
</g>
<!-- Node8&#45;&gt;Node4 -->
<g id="edge8" class="edge">
<title>Node8&#45;&gt;Node4</title>
<path fill="none" stroke="midnightblue" d="M463.44,-38.59C480.98,-43.47 502.51,-49.46 521.26,-54.68"/>
<polygon fill="midnightblue" stroke="midnightblue" points="520.49,-58.1 531.07,-57.41 522.37,-51.36 520.49,-58.1"/>
</g>
</g>
</svg>
