<?xml version="1.0" encoding="UTF-8" standalone="no"?>
<!DOCTYPE svg PUBLIC "-//W3C//DTD SVG 1.1//EN"
 "http://www.w3.org/Graphics/SVG/1.1/DTD/svg11.dtd">
<!-- Generated by graphviz version 2.43.0 (0)
 -->
<!-- Title: default_extension_decoder Pages: 1 -->
<!--zoomable 208 -->
<svg id="main" version="1.1" xmlns="http://www.w3.org/2000/svg" xmlns:xlink="http://www.w3.org/1999/xlink" xml:space="preserve" onload="init(evt)">
<style type="text/css"><![CDATA[
.edge:hover path { stroke: red; }
.edge:hover polygon { stroke: red; fill: red; }
]]></style>
<script type="text/javascript"><![CDATA[
var edges = document.getElementsByTagName('g');
if (edges && edges.length) {
  for (var i=0;i<edges.length;i++) {
    if (edges[i].id.substr(0,4)=='edge') {
      edges[i].setAttribute('class','edge');
    }
  }
}
]]></script>
        <defs>
                <circle id="rim" cx="0" cy="0" r="7"/>
                <circle id="rim2" cx="0" cy="0" r="3.5"/>
                <g id="zoomPlus">
                        <use xlink:href="#rim" fill="#404040">
                                <set attributeName="fill" to="#808080" begin="zoomplus.mouseover" end="zoomplus.mouseout"/>
                        </use>
                        <path d="M-4,0h8M0,-4v8" fill="none" stroke="white" stroke-width="1.5" pointer-events="none"/>
                </g>
                <g id="zoomMin">
                        <use xlink:href="#rim" fill="#404040">
                                <set attributeName="fill" to="#808080" begin="zoomminus.mouseover" end="zoomminus.mouseout"/>
                        </use>
                        <path d="M-4,0h8" fill="none" stroke="white" stroke-width="1.5" pointer-events="none"/>
                </g>
                <g id="dirArrow">
                        <path fill="none" stroke="white" stroke-width="1.5" d="M0,-3.0v7 M-2.5,-0.5L0,-3.0L2.5,-0.5"/>
                </g>
               <g id="resetDef">
                       <use xlink:href="#rim2" fill="#404040">
                               <set attributeName="fill" to="#808080" begin="reset.mouseover" end="reset.mouseout"/>
                       </use>
               </g>
        </defs>

<script type="text/javascript">
var viewWidth = 971;
var viewHeight = 208;
var sectionId = 'dynsection-12';
</script>
<script xlink:href="svgpan.js"/>
<svg id="graph" class="graph">
<g id="viewport">
<title>default_extension_decoder</title>
<polygon fill="white" stroke="transparent" points="-4,4 -4,-204 967,-204 967,4 -4,4"/>
<!-- Node1 -->
<g id="node1" class="node">
<title>Node1</title>
<g id="a_node1"><a xlink:title=" ">
<polygon fill="#bfbfbf" stroke="black" points="0,-142.5 0,-161.5 133,-161.5 133,-142.5 0,-142.5"/>
<text text-anchor="middle" x="66.5" y="-149.5" font-family="Helvetica,sans-Serif" font-size="10.00">default_extension_decoder</text>
</a>
</g>
</g>
<!-- Node2 -->
<g id="node2" class="node">
<title>Node2</title>
<g id="a_node2"><a xlink:href="pb__decode_8c.html#a48151430d329252cc54fd9764dd820f7" target="_top" xlink:title=" ">
<polygon fill="white" stroke="black" points="169,-142.5 169,-161.5 240,-161.5 240,-142.5 169,-142.5"/>
<text text-anchor="middle" x="204.5" y="-149.5" font-family="Helvetica,sans-Serif" font-size="10.00">decode_field</text>
</a>
</g>
</g>
<!-- Node1&#45;&gt;Node2 -->
<g id="edge1" class="edge">
<title>Node1&#45;&gt;Node2</title>
<path fill="none" stroke="midnightblue" d="M133.11,-152C141.8,-152 150.55,-152 158.77,-152"/>
<polygon fill="midnightblue" stroke="midnightblue" points="158.88,-155.5 168.88,-152 158.88,-148.5 158.88,-155.5"/>
</g>
<!-- Node3 -->
<g id="node3" class="node">
<title>Node3</title>
<g id="a_node3"><a xlink:href="pb__decode_8c.html#a69a78d2efcd4b9057215ac8b79a5eb2b" target="_top" xlink:title=" ">
<polygon fill="white" stroke="black" points="276,-104.5 276,-123.5 389,-123.5 389,-104.5 276,-104.5"/>
<text text-anchor="middle" x="332.5" y="-111.5" font-family="Helvetica,sans-Serif" font-size="10.00">decode_callback_field</text>
</a>
</g>
</g>
<!-- Node2&#45;&gt;Node3 -->
<g id="edge2" class="edge">
<title>Node2&#45;&gt;Node3</title>
<path fill="none" stroke="midnightblue" d="M237.3,-142.41C253.26,-137.6 272.81,-131.7 289.95,-126.53"/>
<polygon fill="midnightblue" stroke="midnightblue" points="291.15,-129.82 299.72,-123.59 289.13,-123.12 291.15,-129.82"/>
</g>
<!-- Node15 -->
<g id="node15" class="node">
<title>Node15</title>
<g id="a_node15"><a xlink:href="pb__decode_8c.html#af65dd063304df2ed380dc411bb6caae6" target="_top" xlink:title=" ">
<polygon fill="white" stroke="black" points="279.5,-180.5 279.5,-199.5 385.5,-199.5 385.5,-180.5 279.5,-180.5"/>
<text text-anchor="middle" x="332.5" y="-187.5" font-family="Helvetica,sans-Serif" font-size="10.00">decode_pointer_field</text>
</a>
</g>
</g>
<!-- Node2&#45;&gt;Node15 -->
<g id="edge19" class="edge">
<title>Node2&#45;&gt;Node15</title>
<path fill="none" stroke="midnightblue" d="M237.3,-161.59C253.26,-166.4 272.81,-172.3 289.95,-177.47"/>
<polygon fill="midnightblue" stroke="midnightblue" points="289.13,-180.88 299.72,-180.41 291.15,-174.18 289.13,-180.88"/>
</g>
<!-- Node16 -->
<g id="node16" class="node">
<title>Node16</title>
<g id="a_node16"><a xlink:href="pb__decode_8c.html#a02c14bf9763a469e0414bf9a1eb13632" target="_top" xlink:title=" ">
<polygon fill="white" stroke="black" points="282,-142.5 282,-161.5 383,-161.5 383,-142.5 282,-142.5"/>
<text text-anchor="middle" x="332.5" y="-149.5" font-family="Helvetica,sans-Serif" font-size="10.00">decode_static_field</text>
</a>
</g>
</g>
<!-- Node2&#45;&gt;Node16 -->
<g id="edge22" class="edge">
<title>Node2&#45;&gt;Node16</title>
<path fill="none" stroke="midnightblue" d="M240.26,-152C249.98,-152 260.82,-152 271.55,-152"/>
<polygon fill="midnightblue" stroke="midnightblue" points="271.76,-155.5 281.76,-152 271.76,-148.5 271.76,-155.5"/>
</g>
<!-- Node4 -->
<g id="node4" class="node">
<title>Node4</title>
<g id="a_node4"><a xlink:href="pb__decode_8c.html#ac0a84ef26be0f3bf894deaee63e5114c" target="_top" xlink:title=" ">
<polygon fill="white" stroke="black" points="425.5,-142.5 425.5,-161.5 561.5,-161.5 561.5,-142.5 425.5,-142.5"/>
<text text-anchor="middle" x="493.5" y="-149.5" font-family="Helvetica,sans-Serif" font-size="10.00">pb_close_string_substream</text>
</a>
</g>
</g>
<!-- Node3&#45;&gt;Node4 -->
<g id="edge3" class="edge">
<title>Node3&#45;&gt;Node4</title>
<path fill="none" stroke="midnightblue" d="M373.62,-123.59C394.6,-128.6 420.48,-134.79 442.73,-140.11"/>
<polygon fill="midnightblue" stroke="midnightblue" points="442.13,-143.56 452.67,-142.48 443.75,-136.75 442.13,-143.56"/>
</g>
<!-- Node5 -->
<g id="node5" class="node">
<title>Node5</title>
<g id="a_node5"><a xlink:href="pb__decode_8c.html#a37dc2b0c54c27ddd29791e7522c85548" target="_top" xlink:title=" ">
<polygon fill="white" stroke="black" points="598,-0.5 598,-19.5 717,-19.5 717,-0.5 598,-0.5"/>
<text text-anchor="middle" x="657.5" y="-7.5" font-family="Helvetica,sans-Serif" font-size="10.00">pb_istream_from_buffer</text>
</a>
</g>
</g>
<!-- Node3&#45;&gt;Node5 -->
<g id="edge4" class="edge">
<title>Node3&#45;&gt;Node5</title>
<path fill="none" stroke="midnightblue" d="M348.47,-104.42C366.13,-93.48 396.69,-75.73 425,-65 478.26,-44.8 541.3,-30.41 588.14,-21.42"/>
<polygon fill="midnightblue" stroke="midnightblue" points="589,-24.82 598.18,-19.53 587.71,-17.94 589,-24.82"/>
</g>
<!-- Node7 -->
<g id="node7" class="node">
<title>Node7</title>
<g id="a_node7"><a xlink:href="pb__decode_8c.html#a7433fc394255932c4f00274e7f890721" target="_top" xlink:title=" ">
<polygon fill="white" stroke="black" points="425,-180.5 425,-199.5 562,-199.5 562,-180.5 425,-180.5"/>
<text text-anchor="middle" x="493.5" y="-187.5" font-family="Helvetica,sans-Serif" font-size="10.00">pb_make_string_substream</text>
</a>
</g>
</g>
<!-- Node3&#45;&gt;Node7 -->
<g id="edge6" class="edge">
<title>Node3&#45;&gt;Node7</title>
<path fill="none" stroke="midnightblue" d="M369.61,-123.52C376.33,-126.07 383.09,-129.2 389,-133 408.57,-145.58 405.09,-158.97 425,-171 428.58,-173.16 432.41,-175.08 436.36,-176.79"/>
<polygon fill="midnightblue" stroke="midnightblue" points="435.15,-180.08 445.74,-180.41 437.66,-173.54 435.15,-180.08"/>
</g>
<!-- Node10 -->
<g id="node10" class="node">
<title>Node10</title>
<g id="a_node10"><a xlink:href="pb__decode_8c.html#ab5102942c8402c215f836364e1b775b1" target="_top" xlink:title=" ">
<polygon fill="white" stroke="black" points="456.5,-104.5 456.5,-123.5 530.5,-123.5 530.5,-104.5 456.5,-104.5"/>
<text text-anchor="middle" x="493.5" y="-111.5" font-family="Helvetica,sans-Serif" font-size="10.00">pb_skip_field</text>
</a>
</g>
</g>
<!-- Node3&#45;&gt;Node10 -->
<g id="edge9" class="edge">
<title>Node3&#45;&gt;Node10</title>
<path fill="none" stroke="midnightblue" d="M389.11,-114C407.68,-114 428.16,-114 445.96,-114"/>
<polygon fill="midnightblue" stroke="midnightblue" points="446.1,-117.5 456.1,-114 446.1,-110.5 446.1,-117.5"/>
</g>
<!-- Node14 -->
<g id="node14" class="node">
<title>Node14</title>
<g id="a_node14"><a xlink:href="pb__decode_8c.html#a3f23856ca4723854f204b46d5f10c3ec" target="_top" xlink:title=" ">
<polygon fill="white" stroke="black" points="615,-38.5 615,-57.5 700,-57.5 700,-38.5 615,-38.5"/>
<text text-anchor="middle" x="657.5" y="-45.5" font-family="Helvetica,sans-Serif" font-size="10.00">read_raw_value</text>
</a>
</g>
</g>
<!-- Node3&#45;&gt;Node14 -->
<g id="edge17" class="edge">
<title>Node3&#45;&gt;Node14</title>
<path fill="none" stroke="midnightblue" d="M379.1,-104.49C393.76,-101.44 410.06,-98.07 425,-95 486.75,-82.32 557.82,-67.92 604.74,-58.44"/>
<polygon fill="midnightblue" stroke="midnightblue" points="605.56,-61.85 614.67,-56.43 604.17,-54.98 605.56,-61.85"/>
</g>
<!-- Node6 -->
<g id="node6" class="node">
<title>Node6</title>
<g id="a_node6"><a xlink:href="pb__decode_8c.html#a9746f7244f9d14b2a095ddfcad55febe" target="_top" xlink:title=" ">
<polygon fill="white" stroke="black" points="901,-48.5 901,-67.5 955,-67.5 955,-48.5 901,-48.5"/>
<text text-anchor="middle" x="928" y="-55.5" font-family="Helvetica,sans-Serif" font-size="10.00">buf_read</text>
</a>
</g>
</g>
<!-- Node5&#45;&gt;Node6 -->
<g id="edge5" class="edge">
<title>Node5&#45;&gt;Node6</title>
<path fill="none" stroke="midnightblue" d="M711.87,-19.54C764.79,-29 844.45,-43.24 890.53,-51.48"/>
<polygon fill="midnightblue" stroke="midnightblue" points="890.19,-54.98 900.65,-53.29 891.43,-48.08 890.19,-54.98"/>
</g>
<!-- Node8 -->
<g id="node8" class="node">
<title>Node8</title>
<g id="a_node8"><a xlink:href="pb__decode_8c.html#abef49f760a21798e59538eec4aea23c2" target="_top" xlink:title=" ">
<polygon fill="white" stroke="black" points="753,-171.5 753,-190.5 857,-190.5 857,-171.5 753,-171.5"/>
<text text-anchor="middle" x="805" y="-178.5" font-family="Helvetica,sans-Serif" font-size="10.00">pb_decode_varint32</text>
</a>
</g>
</g>
<!-- Node7&#45;&gt;Node8 -->
<g id="edge7" class="edge">
<title>Node7&#45;&gt;Node8</title>
<path fill="none" stroke="midnightblue" d="M562.04,-188.04C615.9,-186.47 690.69,-184.3 742.81,-182.78"/>
<polygon fill="midnightblue" stroke="midnightblue" points="743.02,-186.27 752.91,-182.49 742.82,-179.28 743.02,-186.27"/>
</g>
<!-- Node9 -->
<g id="node9" class="node">
<title>Node9</title>
<g id="a_node9"><a xlink:href="pb__decode_8c.html#a13d38bcceb0a06bfc8c4c9c6da0f7258" target="_top" xlink:title=" ">
<polygon fill="white" stroke="black" points="893,-171.5 893,-190.5 963,-190.5 963,-171.5 893,-171.5"/>
<text text-anchor="middle" x="928" y="-178.5" font-family="Helvetica,sans-Serif" font-size="10.00">pb_readbyte</text>
</a>
</g>
</g>
<!-- Node8&#45;&gt;Node9 -->
<g id="edge8" class="edge">
<title>Node8&#45;&gt;Node9</title>
<path fill="none" stroke="midnightblue" d="M857.31,-181C865.74,-181 874.41,-181 882.64,-181"/>
<polygon fill="midnightblue" stroke="midnightblue" points="882.79,-184.5 892.79,-181 882.79,-177.5 882.79,-184.5"/>
</g>
<!-- Node11 -->
<g id="node11" class="node">
<title>Node11</title>
<g id="a_node11"><a xlink:href="pb__decode_8c.html#ad54a52168427208d756087919ff82d41" target="_top" xlink:title=" ">
<polygon fill="white" stroke="black" points="779.5,-76.5 779.5,-95.5 830.5,-95.5 830.5,-76.5 779.5,-76.5"/>
<text text-anchor="middle" x="805" y="-83.5" font-family="Helvetica,sans-Serif" font-size="10.00">pb_read</text>
</a>
</g>
</g>
<!-- Node10&#45;&gt;Node11 -->
<g id="edge10" class="edge">
<title>Node10&#45;&gt;Node11</title>
<path fill="none" stroke="midnightblue" d="M530.5,-114.47C574.63,-114.6 651.62,-113.4 717,-105 734.48,-102.75 753.65,-98.74 769.54,-94.98"/>
<polygon fill="midnightblue" stroke="midnightblue" points="770.56,-98.33 779.45,-92.56 768.91,-91.53 770.56,-98.33"/>
</g>
<!-- Node12 -->
<g id="node12" class="node">
<title>Node12</title>
<g id="a_node12"><a xlink:href="pb__decode_8c.html#afa3e9c4da6d998fd6315d4cbd51b02e4" target="_top" xlink:title=" ">
<polygon fill="white" stroke="black" points="617.5,-152.5 617.5,-171.5 697.5,-171.5 697.5,-152.5 617.5,-152.5"/>
<text text-anchor="middle" x="657.5" y="-159.5" font-family="Helvetica,sans-Serif" font-size="10.00">pb_skip_string</text>
</a>
</g>
</g>
<!-- Node10&#45;&gt;Node12 -->
<g id="edge12" class="edge">
<title>Node10&#45;&gt;Node12</title>
<path fill="none" stroke="midnightblue" d="M528.88,-123.51C539.52,-126.5 551.25,-129.84 562,-133 579.72,-138.21 599.25,-144.17 615.94,-149.32"/>
<polygon fill="midnightblue" stroke="midnightblue" points="615.32,-152.8 625.91,-152.42 617.4,-146.11 615.32,-152.8"/>
</g>
<!-- Node13 -->
<g id="node13" class="node">
<title>Node13</title>
<g id="a_node13"><a xlink:href="pb__decode_8c.html#a57738ceef4b30349437900b245a33c77" target="_top" xlink:title=" ">
<polygon fill="white" stroke="black" points="617.5,-76.5 617.5,-95.5 697.5,-95.5 697.5,-76.5 617.5,-76.5"/>
<text text-anchor="middle" x="657.5" y="-83.5" font-family="Helvetica,sans-Serif" font-size="10.00">pb_skip_varint</text>
</a>
</g>
</g>
<!-- Node10&#45;&gt;Node13 -->
<g id="edge15" class="edge">
<title>Node10&#45;&gt;Node13</title>
<path fill="none" stroke="midnightblue" d="M530.86,-107.72C553.49,-103.8 582.88,-98.73 607.54,-94.46"/>
<polygon fill="midnightblue" stroke="midnightblue" points="608.18,-97.9 617.44,-92.75 606.99,-91.01 608.18,-97.9"/>
</g>
<!-- Node11&#45;&gt;Node6 -->
<g id="edge11" class="edge">
<title>Node11&#45;&gt;Node6</title>
<path fill="none" stroke="midnightblue" d="M830.78,-80.27C848.01,-76.28 871.26,-70.9 890.59,-66.42"/>
<polygon fill="midnightblue" stroke="midnightblue" points="891.62,-69.78 900.58,-64.11 890.05,-62.96 891.62,-69.78"/>
</g>
<!-- Node12&#45;&gt;Node8 -->
<g id="edge13" class="edge">
<title>Node12&#45;&gt;Node8</title>
<path fill="none" stroke="midnightblue" d="M697.87,-167.14C711.62,-168.94 727.39,-171 742.5,-172.97"/>
<polygon fill="midnightblue" stroke="midnightblue" points="742.46,-176.49 752.82,-174.32 743.36,-169.55 742.46,-176.49"/>
</g>
<!-- Node12&#45;&gt;Node11 -->
<g id="edge14" class="edge">
<title>Node12&#45;&gt;Node11</title>
<path fill="none" stroke="midnightblue" d="M684.21,-152.42C694.55,-148.31 706.5,-143.26 717,-138 739.31,-126.84 763.58,-112.09 780.81,-101.16"/>
<polygon fill="midnightblue" stroke="midnightblue" points="783.07,-103.86 789.6,-95.52 779.29,-97.97 783.07,-103.86"/>
</g>
<!-- Node13&#45;&gt;Node11 -->
<g id="edge16" class="edge">
<title>Node13&#45;&gt;Node11</title>
<path fill="none" stroke="midnightblue" d="M697.87,-86C720.05,-86 747.51,-86 768.94,-86"/>
<polygon fill="midnightblue" stroke="midnightblue" points="769.23,-89.5 779.23,-86 769.23,-82.5 769.23,-89.5"/>
</g>
<!-- Node14&#45;&gt;Node11 -->
<g id="edge18" class="edge">
<title>Node14&#45;&gt;Node11</title>
<path fill="none" stroke="midnightblue" d="M695.22,-57.59C717.99,-63.54 747.08,-71.13 769.44,-76.97"/>
<polygon fill="midnightblue" stroke="midnightblue" points="768.63,-80.38 779.19,-79.52 770.4,-73.61 768.63,-80.38"/>
</g>
<!-- Node15&#45;&gt;Node4 -->
<g id="edge20" class="edge">
<title>Node15&#45;&gt;Node4</title>
<path fill="none" stroke="midnightblue" d="M373.62,-180.41C394.6,-175.4 420.48,-169.21 442.73,-163.89"/>
<polygon fill="midnightblue" stroke="midnightblue" points="443.75,-167.25 452.67,-161.52 442.13,-160.44 443.75,-167.25"/>
</g>
<!-- Node15&#45;&gt;Node7 -->
<g id="edge21" class="edge">
<title>Node15&#45;&gt;Node7</title>
<path fill="none" stroke="midnightblue" d="M385.56,-190C394.91,-190 404.83,-190 414.71,-190"/>
<polygon fill="midnightblue" stroke="midnightblue" points="414.97,-193.5 424.97,-190 414.97,-186.5 414.97,-193.5"/>
</g>
<!-- Node16&#45;&gt;Node4 -->
<g id="edge23" class="edge">
<title>Node16&#45;&gt;Node4</title>
<path fill="none" stroke="midnightblue" d="M383.37,-152C393.45,-152 404.27,-152 415.03,-152"/>
<polygon fill="midnightblue" stroke="midnightblue" points="415.32,-155.5 425.32,-152 415.32,-148.5 415.32,-155.5"/>
</g>
<!-- Node16&#45;&gt;Node7 -->
<g id="edge24" class="edge">
<title>Node16&#45;&gt;Node7</title>
<path fill="none" stroke="midnightblue" d="M373.62,-161.59C394.6,-166.6 420.48,-172.79 442.73,-178.11"/>
<polygon fill="midnightblue" stroke="midnightblue" points="442.13,-181.56 452.67,-180.48 443.75,-174.75 442.13,-181.56"/>
</g>
</g>
</svg>
        <g id="navigator" transform="translate(0 0)" fill="#404254">
                <rect fill="#f2f5e9" fill-opacity="0.5" stroke="#606060" stroke-width=".5" x="0" y="0" width="60" height="60"/>
                <use id="zoomplus" xlink:href="#zoomPlus" x="17" y="9" onmousedown="handleZoom(evt,'in')"/>
                <use id="zoomminus" xlink:href="#zoomMin" x="42" y="9" onmousedown="handleZoom(evt,'out')"/>
                <use id="reset" xlink:href="#resetDef" x="30" y="36" onmousedown="handleReset()"/>
                <g id="arrowUp" xlink:href="#dirArrow" transform="translate(30 24)" onmousedown="handlePan(0,-1)">
                  <use xlink:href="#rim" fill="#404040">
                        <set attributeName="fill" to="#808080" begin="arrowUp.mouseover" end="arrowUp.mouseout"/>
                  </use>
                  <path fill="none" stroke="white" stroke-width="1.5" d="M0,-3.0v7 M-2.5,-0.5L0,-3.0L2.5,-0.5"/>
                </g>
                <g id="arrowRight" xlink:href="#dirArrow" transform="rotate(90) translate(36 -43)" onmousedown="handlePan(1,0)">
                  <use xlink:href="#rim" fill="#404040">
                        <set attributeName="fill" to="#808080" begin="arrowRight.mouseover" end="arrowRight.mouseout"/>
                  </use>
                  <path fill="none" stroke="white" stroke-width="1.5" d="M0,-3.0v7 M-2.5,-0.5L0,-3.0L2.5,-0.5"/>
                </g>
                <g id="arrowDown" xlink:href="#dirArrow" transform="rotate(180) translate(-30 -48)" onmousedown="handlePan(0,1)">
                  <use xlink:href="#rim" fill="#404040">
                        <set attributeName="fill" to="#808080" begin="arrowDown.mouseover" end="arrowDown.mouseout"/>
                  </use>
                  <path fill="none" stroke="white" stroke-width="1.5" d="M0,-3.0v7 M-2.5,-0.5L0,-3.0L2.5,-0.5"/>
                </g>
                <g id="arrowLeft" xlink:href="#dirArrow" transform="rotate(270) translate(-36 17)" onmousedown="handlePan(-1,0)">
                  <use xlink:href="#rim" fill="#404040">
                        <set attributeName="fill" to="#808080" begin="arrowLeft.mouseover" end="arrowLeft.mouseout"/>
                  </use>
                  <path fill="none" stroke="white" stroke-width="1.5" d="M0,-3.0v7 M-2.5,-0.5L0,-3.0L2.5,-0.5"/>
                </g>
        </g>
        <svg viewBox="0 0 15 15" width="100%" height="30px" preserveAspectRatio="xMaxYMin meet">
         <g id="arrow_out" transform="scale(0.3 0.3)">
          <a xlink:href="pb__decode_8c_a7c09905fda4c6398697bcf0d42882c04_cgraph_org.svg" target="_base">
           <rect id="button" ry="5" rx="5" y="6" x="6" height="38" width="38"
                fill="#f2f5e9" fill-opacity="0.5" stroke="#606060" stroke-width="1.0"/>
           <path id="arrow"
             d="M 11.500037,31.436501 C 11.940474,20.09759 22.043105,11.32322 32.158766,21.979434 L 37.068811,17.246167 C 37.068811,17.246167 37.088388,32 37.088388,32 L 22.160133,31.978069 C 22.160133,31.978069 26.997745,27.140456 26.997745,27.140456 C 18.528582,18.264221 13.291696,25.230495 11.500037,31.436501 z"
             style="fill:#404040;"/>
          </a>
         </g>
        </svg>
</svg>
