<?xml version="1.0" encoding="UTF-8" standalone="no"?>
<!DOCTYPE svg PUBLIC "-//W3C//DTD SVG 1.1//EN"
 "http://www.w3.org/Graphics/SVG/1.1/DTD/svg11.dtd">
<!-- Generated by graphviz version 2.43.0 (0)
 -->
<!-- Title: memset Pages: 1 -->
<svg width="790pt" height="127pt"
 viewBox="0.00 0.00 790.00 127.00" xmlns="http://www.w3.org/2000/svg" xmlns:xlink="http://www.w3.org/1999/xlink">
<g id="graph0" class="graph" transform="scale(1 1) rotate(0) translate(4 123)">
<title>memset</title>
<polygon fill="white" stroke="transparent" points="-4,4 -4,-123 786,-123 786,4 -4,4"/>
<!-- Node1 -->
<g id="node1" class="node">
<title>Node1</title>
<g id="a_node1"><a xlink:title=" ">
<polygon fill="#bfbfbf" stroke="black" points="730,-50 730,-69 782,-69 782,-50 730,-50"/>
<text text-anchor="middle" x="756" y="-57" font-family="Helvetica,sans-Serif" font-size="10.00">memset</text>
</a>
</g>
</g>
<!-- Node2 -->
<g id="node2" class="node">
<title>Node2</title>
<g id="a_node2"><a xlink:href="class_k_u_k_a_1_1_f_r_i_1_1_udp_connection.html#a5b26b390797f0a03fc7e3dc7b477b61b" target="_top" xlink:title="Open a connection to the KUKA Sunrise controller.">
<polygon fill="white" stroke="black" points="552,-88.5 552,-118.5 692,-118.5 692,-88.5 552,-88.5"/>
<text text-anchor="start" x="560" y="-106.5" font-family="Helvetica,sans-Serif" font-size="10.00">KUKA::FRI::UdpConnection</text>
<text text-anchor="middle" x="622" y="-95.5" font-family="Helvetica,sans-Serif" font-size="10.00">::open</text>
</a>
</g>
</g>
<!-- Node1&#45;&gt;Node2 -->
<g id="edge1" class="edge">
<title>Node1&#45;&gt;Node2</title>
<path fill="none" stroke="midnightblue" d="M720.37,-71.04C704.38,-76.37 685.19,-82.77 668.09,-88.47"/>
<polygon fill="midnightblue" stroke="midnightblue" points="721.48,-74.36 729.86,-67.88 719.27,-67.72 721.48,-74.36"/>
</g>
<!-- Node3 -->
<g id="node3" class="node">
<title>Node3</title>
<g id="a_node3"><a xlink:href="pb__decode_8c.html#a086200ce4dac8198dc0537e64318d66e" target="_top" xlink:title=" ">
<polygon fill="white" stroke="black" points="550,-50 550,-69 694,-69 694,-50 550,-50"/>
<text text-anchor="middle" x="622" y="-57" font-family="Helvetica,sans-Serif" font-size="10.00">pb_message_set_to_defaults</text>
</a>
</g>
</g>
<!-- Node1&#45;&gt;Node3 -->
<g id="edge2" class="edge">
<title>Node1&#45;&gt;Node3</title>
<path fill="none" stroke="midnightblue" d="M719.6,-59.5C711.69,-59.5 703.02,-59.5 694.23,-59.5"/>
<polygon fill="midnightblue" stroke="midnightblue" points="719.86,-63 729.86,-59.5 719.86,-56 719.86,-63"/>
</g>
<!-- Node10 -->
<g id="node10" class="node">
<title>Node10</title>
<g id="a_node10"><a xlink:href="class_k_u_k_a_1_1_f_r_i_1_1_udp_connection.html#aae5a35cfb41f855e13030b145c20b2ff" target="_top" xlink:title="Receive a new FRI monitoring message from the KUKA Sunrise controller.">
<polygon fill="white" stroke="black" points="552,-0.5 552,-30.5 692,-30.5 692,-0.5 552,-0.5"/>
<text text-anchor="start" x="560" y="-18.5" font-family="Helvetica,sans-Serif" font-size="10.00">KUKA::FRI::UdpConnection</text>
<text text-anchor="middle" x="622" y="-7.5" font-family="Helvetica,sans-Serif" font-size="10.00">::receive</text>
</a>
</g>
</g>
<!-- Node1&#45;&gt;Node10 -->
<g id="edge9" class="edge">
<title>Node1&#45;&gt;Node10</title>
<path fill="none" stroke="midnightblue" d="M720.37,-47.96C704.38,-42.63 685.19,-36.23 668.09,-30.53"/>
<polygon fill="midnightblue" stroke="midnightblue" points="719.27,-51.28 729.86,-51.12 721.48,-44.64 719.27,-51.28"/>
</g>
<!-- Node4 -->
<g id="node4" class="node">
<title>Node4</title>
<g id="a_node4"><a xlink:href="pb__decode_8c.html#a75c9a727abe84bfaaef633ac68d48cfa" target="_top" xlink:title=" ">
<polygon fill="white" stroke="black" points="450,-50 450,-69 514,-69 514,-50 450,-50"/>
<text text-anchor="middle" x="482" y="-57" font-family="Helvetica,sans-Serif" font-size="10.00">pb_decode</text>
</a>
</g>
</g>
<!-- Node3&#45;&gt;Node4 -->
<g id="edge3" class="edge">
<title>Node3&#45;&gt;Node4</title>
<path fill="none" stroke="midnightblue" d="M539.74,-59.5C530.75,-59.5 522.04,-59.5 514.26,-59.5"/>
<polygon fill="midnightblue" stroke="midnightblue" points="539.98,-63 549.98,-59.5 539.98,-56 539.98,-63"/>
</g>
<!-- Node5 -->
<g id="node5" class="node">
<title>Node5</title>
<g id="a_node5"><a xlink:href="class_k_u_k_a_1_1_f_r_i_1_1_monitoring_message_decoder.html#aa72fb1e622847a636e6f5d7ac4770103" target="_top" xlink:title=" ">
<polygon fill="white" stroke="black" points="256,-88.5 256,-118.5 414,-118.5 414,-88.5 256,-88.5"/>
<text text-anchor="start" x="264" y="-106.5" font-family="Helvetica,sans-Serif" font-size="10.00">KUKA::FRI::MonitoringMessage</text>
<text text-anchor="middle" x="335" y="-95.5" font-family="Helvetica,sans-Serif" font-size="10.00">Decoder::decode</text>
</a>
</g>
</g>
<!-- Node4&#45;&gt;Node5 -->
<g id="edge4" class="edge">
<title>Node4&#45;&gt;Node5</title>
<path fill="none" stroke="midnightblue" d="M440.27,-71.86C423.29,-77.01 403.41,-83.04 385.59,-88.45"/>
<polygon fill="midnightblue" stroke="midnightblue" points="441.34,-75.19 449.89,-68.94 439.31,-68.49 441.34,-75.19"/>
</g>
<!-- Node8 -->
<g id="node8" class="node">
<title>Node8</title>
<g id="a_node8"><a xlink:href="pb__decode_8c.html#adb01106a062444577e9e3f3a047db2ef" target="_top" xlink:title=" ">
<polygon fill="white" stroke="black" points="280.5,-50 280.5,-69 389.5,-69 389.5,-50 280.5,-50"/>
<text text-anchor="middle" x="335" y="-57" font-family="Helvetica,sans-Serif" font-size="10.00">pb_dec_submessage</text>
</a>
</g>
</g>
<!-- Node4&#45;&gt;Node8 -->
<g id="edge7" class="edge">
<title>Node4&#45;&gt;Node8</title>
<path fill="none" stroke="midnightblue" d="M439.55,-59.5C424,-59.5 406.1,-59.5 389.6,-59.5"/>
<polygon fill="midnightblue" stroke="midnightblue" points="439.89,-63 449.89,-59.5 439.89,-56 439.89,-63"/>
</g>
<!-- Node9 -->
<g id="node9" class="node">
<title>Node9</title>
<g id="a_node9"><a xlink:href="pb__decode_8c.html#a7c030d7dee687e354a62a72d45dca39b" target="_top" xlink:title=" ">
<polygon fill="white" stroke="black" points="281,-12 281,-31 389,-31 389,-12 281,-12"/>
<text text-anchor="middle" x="335" y="-19" font-family="Helvetica,sans-Serif" font-size="10.00">pb_decode_delimited</text>
</a>
</g>
</g>
<!-- Node4&#45;&gt;Node9 -->
<g id="edge8" class="edge">
<title>Node4&#45;&gt;Node9</title>
<path fill="none" stroke="midnightblue" d="M439.92,-47.59C431.37,-45.18 422.4,-42.71 414,-40.5 401.87,-37.3 388.63,-34.01 376.56,-31.07"/>
<polygon fill="midnightblue" stroke="midnightblue" points="439.13,-51 449.71,-50.36 441.04,-44.27 439.13,-51"/>
</g>
<!-- Node6 -->
<g id="node6" class="node">
<title>Node6</title>
<g id="a_node6"><a xlink:href="class_k_u_k_a_1_1_f_r_i_1_1_client_application.html#a9939bfd1fa78c59dc3675a6d2a5de7a7" target="_top" xlink:title="Run a single processing step.">
<polygon fill="white" stroke="black" points="74,-88.5 74,-118.5 220,-118.5 220,-88.5 74,-88.5"/>
<text text-anchor="start" x="82" y="-106.5" font-family="Helvetica,sans-Serif" font-size="10.00">KUKA::FRI::ClientApplication</text>
<text text-anchor="middle" x="147" y="-95.5" font-family="Helvetica,sans-Serif" font-size="10.00">::step</text>
</a>
</g>
</g>
<!-- Node5&#45;&gt;Node6 -->
<g id="edge5" class="edge">
<title>Node5&#45;&gt;Node6</title>
<path fill="none" stroke="midnightblue" d="M245.88,-103.5C237.29,-103.5 228.65,-103.5 220.24,-103.5"/>
<polygon fill="midnightblue" stroke="midnightblue" points="245.93,-107 255.93,-103.5 245.93,-100 245.93,-107"/>
</g>
<!-- Node7 -->
<g id="node7" class="node">
<title>Node7</title>
<g id="a_node7"><a xlink:href="_i_o_access_app_8cpp.html#a3c04138a5bfe5d72780bb7e82a18e627" target="_top" xlink:title=" ">
<polygon fill="white" stroke="black" points="0,-94 0,-113 38,-113 38,-94 0,-94"/>
<text text-anchor="middle" x="19" y="-101" font-family="Helvetica,sans-Serif" font-size="10.00">main</text>
</a>
</g>
</g>
<!-- Node6&#45;&gt;Node7 -->
<g id="edge6" class="edge">
<title>Node6&#45;&gt;Node7</title>
<path fill="none" stroke="midnightblue" d="M63.74,-103.5C54.28,-103.5 45.45,-103.5 38.25,-103.5"/>
<polygon fill="midnightblue" stroke="midnightblue" points="63.8,-107 73.8,-103.5 63.8,-100 63.8,-107"/>
</g>
</g>
</svg>
