<?xml version="1.0" encoding="UTF-8" standalone="no"?>
<!DOCTYPE svg PUBLIC "-//W3C//DTD SVG 1.1//EN"
 "http://www.w3.org/Graphics/SVG/1.1/DTD/svg11.dtd">
<!-- Generated by graphviz version 2.43.0 (0)
 -->
<!-- Title: read_raw_value Pages: 1 -->
<svg width="270pt" height="28pt"
 viewBox="0.00 0.00 270.00 28.00" xmlns="http://www.w3.org/2000/svg" xmlns:xlink="http://www.w3.org/1999/xlink">
<g id="graph0" class="graph" transform="scale(1 1) rotate(0) translate(4 24)">
<title>read_raw_value</title>
<polygon fill="white" stroke="transparent" points="-4,4 -4,-24 266,-24 266,4 -4,4"/>
<!-- Node1 -->
<g id="node1" class="node">
<title>Node1</title>
<g id="a_node1"><a xlink:title=" ">
<polygon fill="#bfbfbf" stroke="black" points="0,-0.5 0,-19.5 85,-19.5 85,-0.5 0,-0.5"/>
<text text-anchor="middle" x="42.5" y="-7.5" font-family="Helvetica,sans-Serif" font-size="10.00">read_raw_value</text>
</a>
</g>
</g>
<!-- Node2 -->
<g id="node2" class="node">
<title>Node2</title>
<g id="a_node2"><a xlink:href="pb__decode_8c.html#ad54a52168427208d756087919ff82d41" target="_top" xlink:title=" ">
<polygon fill="white" stroke="black" points="121,-0.5 121,-19.5 172,-19.5 172,-0.5 121,-0.5"/>
<text text-anchor="middle" x="146.5" y="-7.5" font-family="Helvetica,sans-Serif" font-size="10.00">pb_read</text>
</a>
</g>
</g>
<!-- Node1&#45;&gt;Node2 -->
<g id="edge1" class="edge">
<title>Node1&#45;&gt;Node2</title>
<path fill="none" stroke="midnightblue" d="M85.28,-10C93.79,-10 102.66,-10 110.88,-10"/>
<polygon fill="midnightblue" stroke="midnightblue" points="110.89,-13.5 120.89,-10 110.89,-6.5 110.89,-13.5"/>
</g>
<!-- Node3 -->
<g id="node3" class="node">
<title>Node3</title>
<g id="a_node3"><a xlink:href="pb__decode_8c.html#a9746f7244f9d14b2a095ddfcad55febe" target="_top" xlink:title=" ">
<polygon fill="white" stroke="black" points="208,-0.5 208,-19.5 262,-19.5 262,-0.5 208,-0.5"/>
<text text-anchor="middle" x="235" y="-7.5" font-family="Helvetica,sans-Serif" font-size="10.00">buf_read</text>
</a>
</g>
</g>
<!-- Node2&#45;&gt;Node3 -->
<g id="edge2" class="edge">
<title>Node2&#45;&gt;Node3</title>
<path fill="none" stroke="midnightblue" d="M172.06,-10C180.01,-10 189.01,-10 197.63,-10"/>
<polygon fill="midnightblue" stroke="midnightblue" points="197.87,-13.5 207.87,-10 197.87,-6.5 197.87,-13.5"/>
</g>
</g>
</svg>
