<?xml version="1.0" encoding="UTF-8" standalone="no"?>
<!DOCTYPE svg PUBLIC "-//W3C//DTD SVG 1.1//EN"
 "http://www.w3.org/Graphics/SVG/1.1/DTD/svg11.dtd">
<!-- Generated by graphviz version 2.43.0 (0)
 -->
<!-- Title: free_repeatedDouble Pages: 1 -->
<svg width="342pt" height="110pt"
 viewBox="0.00 0.00 342.00 110.00" xmlns="http://www.w3.org/2000/svg" xmlns:xlink="http://www.w3.org/1999/xlink">
<g id="graph0" class="graph" transform="scale(1 1) rotate(0) translate(4 106)">
<title>free_repeatedDouble</title>
<polygon fill="white" stroke="transparent" points="-4,4 -4,-106 338,-106 338,4 -4,4"/>
<!-- Node1 -->
<g id="node1" class="node">
<title>Node1</title>
<g id="a_node1"><a xlink:title=" ">
<polygon fill="#bfbfbf" stroke="black" points="227,-41.5 227,-60.5 334,-60.5 334,-41.5 227,-41.5"/>
<text text-anchor="middle" x="280.5" y="-48.5" font-family="Helvetica,sans-Serif" font-size="10.00">free_repeatedDouble</text>
</a>
</g>
</g>
<!-- Node2 -->
<g id="node2" class="node">
<title>Node2</title>
<g id="a_node2"><a xlink:href="struct_k_u_k_a_1_1_f_r_i_1_1_command_message_encoder_1_1_local_command_data_container.html#afb8a8303387188693a8221edf4491c4b" target="_top" xlink:title=" ">
<polygon fill="white" stroke="black" points="0.5,-60.5 0.5,-101.5 190.5,-101.5 190.5,-60.5 0.5,-60.5"/>
<text text-anchor="start" x="8.5" y="-89.5" font-family="Helvetica,sans-Serif" font-size="10.00">KUKA::FRI::CommandMessage</text>
<text text-anchor="start" x="8.5" y="-78.5" font-family="Helvetica,sans-Serif" font-size="10.00">Encoder::LocalCommandDataContainer</text>
<text text-anchor="middle" x="95.5" y="-67.5" font-family="Helvetica,sans-Serif" font-size="10.00">::~LocalCommandDataContainer</text>
</a>
</g>
</g>
<!-- Node1&#45;&gt;Node2 -->
<g id="edge1" class="edge">
<title>Node1&#45;&gt;Node2</title>
<path fill="none" stroke="midnightblue" d="M216.56,-61.32C208.18,-62.69 199.46,-64.12 190.7,-65.56"/>
<polygon fill="midnightblue" stroke="midnightblue" points="217.27,-64.75 226.57,-59.68 216.13,-57.84 217.27,-64.75"/>
</g>
<!-- Node3 -->
<g id="node3" class="node">
<title>Node3</title>
<g id="a_node3"><a xlink:href="struct_k_u_k_a_1_1_f_r_i_1_1_monitoring_message_decoder_1_1_local_monitoring_data_container.html#a38d73efc0127c1d61bf052787f06b345" target="_top" xlink:title=" ">
<polygon fill="white" stroke="black" points="0,-0.5 0,-41.5 191,-41.5 191,-0.5 0,-0.5"/>
<text text-anchor="start" x="8" y="-29.5" font-family="Helvetica,sans-Serif" font-size="10.00">KUKA::FRI::MonitoringMessage</text>
<text text-anchor="start" x="8" y="-18.5" font-family="Helvetica,sans-Serif" font-size="10.00">Decoder::LocalMonitoringDataContainer</text>
<text text-anchor="middle" x="95.5" y="-7.5" font-family="Helvetica,sans-Serif" font-size="10.00">::~LocalMonitoringDataContainer</text>
</a>
</g>
</g>
<!-- Node1&#45;&gt;Node3 -->
<g id="edge2" class="edge">
<title>Node1&#45;&gt;Node3</title>
<path fill="none" stroke="midnightblue" d="M216.65,-40.7C208.36,-39.34 199.72,-37.92 191.04,-36.5"/>
<polygon fill="midnightblue" stroke="midnightblue" points="216.13,-44.16 226.57,-42.32 217.27,-37.25 216.13,-44.16"/>
</g>
</g>
</svg>
