<?xml version="1.0" encoding="UTF-8" standalone="no"?>
<!DOCTYPE svg PUBLIC "-//W3C//DTD SVG 1.1//EN"
 "http://www.w3.org/Graphics/SVG/1.1/DTD/svg11.dtd">
<!-- Generated by graphviz version 2.43.0 (0)
 -->
<!-- Title: map_repeatedDouble Pages: 1 -->
<svg width="880pt" height="104pt"
 viewBox="0.00 0.00 880.00 104.00" xmlns="http://www.w3.org/2000/svg" xmlns:xlink="http://www.w3.org/1999/xlink">
<g id="graph0" class="graph" transform="scale(1 1) rotate(0) translate(4 100)">
<title>map_repeatedDouble</title>
<polygon fill="white" stroke="transparent" points="-4,4 -4,-100 876,-100 876,4 -4,4"/>
<!-- Node1 -->
<g id="node1" class="node">
<title>Node1</title>
<g id="a_node1"><a xlink:title=" ">
<polygon fill="#bfbfbf" stroke="black" points="0,-57.5 0,-76.5 109,-76.5 109,-57.5 0,-57.5"/>
<text text-anchor="middle" x="54.5" y="-64.5" font-family="Helvetica,sans-Serif" font-size="10.00">map_repeatedDouble</text>
</a>
</g>
</g>
<!-- Node2 -->
<g id="node2" class="node">
<title>Node2</title>
<g id="a_node2"><a xlink:href="pb__frimessages__callbacks_8c.html#ac9ec67cd47aed6ee622a420a41fa6540" target="_top" xlink:title=" ">
<polygon fill="white" stroke="black" points="145,-76.5 145,-95.5 267,-95.5 267,-76.5 145,-76.5"/>
<text text-anchor="middle" x="206" y="-83.5" font-family="Helvetica,sans-Serif" font-size="10.00">decode_repeatedDouble</text>
</a>
</g>
</g>
<!-- Node1&#45;&gt;Node2 -->
<g id="edge1" class="edge">
<title>Node1&#45;&gt;Node2</title>
<path fill="none" stroke="midnightblue" d="M109.05,-73.81C117.42,-74.87 126.18,-75.98 134.85,-77.08"/>
<polygon fill="midnightblue" stroke="midnightblue" points="134.61,-80.58 144.97,-78.37 135.49,-73.64 134.61,-80.58"/>
</g>
<!-- Node6 -->
<g id="node6" class="node">
<title>Node6</title>
<g id="a_node6"><a xlink:href="pb__frimessages__callbacks_8c.html#a3841575aaa517c808aeba5ab3e4f4e48" target="_top" xlink:title=" ">
<polygon fill="white" stroke="black" points="145,-38.5 145,-57.5 267,-57.5 267,-38.5 145,-38.5"/>
<text text-anchor="middle" x="206" y="-45.5" font-family="Helvetica,sans-Serif" font-size="10.00">encode_repeatedDouble</text>
</a>
</g>
</g>
<!-- Node1&#45;&gt;Node6 -->
<g id="edge5" class="edge">
<title>Node1&#45;&gt;Node6</title>
<path fill="none" stroke="midnightblue" d="M109.05,-60.19C117.42,-59.13 126.18,-58.02 134.85,-56.92"/>
<polygon fill="midnightblue" stroke="midnightblue" points="135.49,-60.36 144.97,-55.63 134.61,-53.42 135.49,-60.36"/>
</g>
<!-- Node3 -->
<g id="node3" class="node">
<title>Node3</title>
<g id="a_node3"><a xlink:href="pb__decode_8c.html#abdd5881d0bc42df1a78d46f487065681" target="_top" xlink:title=" ">
<polygon fill="white" stroke="black" points="313.5,-76.5 313.5,-95.5 414.5,-95.5 414.5,-76.5 313.5,-76.5"/>
<text text-anchor="middle" x="364" y="-83.5" font-family="Helvetica,sans-Serif" font-size="10.00">pb_decode_fixed64</text>
</a>
</g>
</g>
<!-- Node2&#45;&gt;Node3 -->
<g id="edge2" class="edge">
<title>Node2&#45;&gt;Node3</title>
<path fill="none" stroke="midnightblue" d="M267.31,-86C279.12,-86 291.49,-86 303.28,-86"/>
<polygon fill="midnightblue" stroke="midnightblue" points="303.45,-89.5 313.45,-86 303.45,-82.5 303.45,-89.5"/>
</g>
<!-- Node4 -->
<g id="node4" class="node">
<title>Node4</title>
<g id="a_node4"><a xlink:href="pb__decode_8c.html#ad54a52168427208d756087919ff82d41" target="_top" xlink:title=" ">
<polygon fill="white" stroke="black" points="486,-76.5 486,-95.5 537,-95.5 537,-76.5 486,-76.5"/>
<text text-anchor="middle" x="511.5" y="-83.5" font-family="Helvetica,sans-Serif" font-size="10.00">pb_read</text>
</a>
</g>
</g>
<!-- Node3&#45;&gt;Node4 -->
<g id="edge3" class="edge">
<title>Node3&#45;&gt;Node4</title>
<path fill="none" stroke="midnightblue" d="M414.67,-86C434.76,-86 457.48,-86 475.75,-86"/>
<polygon fill="midnightblue" stroke="midnightblue" points="475.94,-89.5 485.94,-86 475.94,-82.5 475.94,-89.5"/>
</g>
<!-- Node5 -->
<g id="node5" class="node">
<title>Node5</title>
<g id="a_node5"><a xlink:href="pb__decode_8c.html#a9746f7244f9d14b2a095ddfcad55febe" target="_top" xlink:title=" ">
<polygon fill="white" stroke="black" points="617.5,-76.5 617.5,-95.5 671.5,-95.5 671.5,-76.5 617.5,-76.5"/>
<text text-anchor="middle" x="644.5" y="-83.5" font-family="Helvetica,sans-Serif" font-size="10.00">buf_read</text>
</a>
</g>
</g>
<!-- Node4&#45;&gt;Node5 -->
<g id="edge4" class="edge">
<title>Node4&#45;&gt;Node5</title>
<path fill="none" stroke="midnightblue" d="M537.14,-86C556.85,-86 584.77,-86 607.06,-86"/>
<polygon fill="midnightblue" stroke="midnightblue" points="607.17,-89.5 617.17,-86 607.17,-82.5 607.17,-89.5"/>
</g>
<!-- Node7 -->
<g id="node7" class="node">
<title>Node7</title>
<g id="a_node7"><a xlink:href="pb__encode_8c.html#ae61c01d23aaa60452a9f5d01e9a17833" target="_top" xlink:title=" ">
<polygon fill="white" stroke="black" points="461,-38.5 461,-57.5 562,-57.5 562,-38.5 461,-38.5"/>
<text text-anchor="middle" x="511.5" y="-45.5" font-family="Helvetica,sans-Serif" font-size="10.00">pb_encode_fixed64</text>
</a>
</g>
</g>
<!-- Node6&#45;&gt;Node7 -->
<g id="edge6" class="edge">
<title>Node6&#45;&gt;Node7</title>
<path fill="none" stroke="midnightblue" d="M267.32,-48C320.48,-48 397.5,-48 450.55,-48"/>
<polygon fill="midnightblue" stroke="midnightblue" points="450.82,-51.5 460.82,-48 450.82,-44.5 450.82,-51.5"/>
</g>
<!-- Node10 -->
<g id="node10" class="node">
<title>Node10</title>
<g id="a_node10"><a xlink:href="pb__encode_8c.html#a3e0f1ac29dce37f78220ecd6b9d21cba" target="_top" xlink:title=" ">
<polygon fill="white" stroke="black" points="303,-0.5 303,-19.5 425,-19.5 425,-0.5 303,-0.5"/>
<text text-anchor="middle" x="364" y="-7.5" font-family="Helvetica,sans-Serif" font-size="10.00">pb_encode_tag_for_field</text>
</a>
</g>
</g>
<!-- Node6&#45;&gt;Node10 -->
<g id="edge9" class="edge">
<title>Node6&#45;&gt;Node10</title>
<path fill="none" stroke="midnightblue" d="M246.37,-38.41C266.95,-33.4 292.34,-27.21 314.17,-21.89"/>
<polygon fill="midnightblue" stroke="midnightblue" points="315.03,-25.29 323.92,-19.52 313.37,-18.49 315.03,-25.29"/>
</g>
<!-- Node8 -->
<g id="node8" class="node">
<title>Node8</title>
<g id="a_node8"><a xlink:href="pb__encode_8c.html#a6f8d972fa4a439724532f0bcc07de81d" target="_top" xlink:title=" ">
<polygon fill="white" stroke="black" points="727,-19.5 727,-38.5 780,-38.5 780,-19.5 727,-19.5"/>
<text text-anchor="middle" x="753.5" y="-26.5" font-family="Helvetica,sans-Serif" font-size="10.00">pb_write</text>
</a>
</g>
</g>
<!-- Node7&#45;&gt;Node8 -->
<g id="edge7" class="edge">
<title>Node7&#45;&gt;Node8</title>
<path fill="none" stroke="midnightblue" d="M562.23,-44.06C608.33,-40.41 675.8,-35.07 716.78,-31.83"/>
<polygon fill="midnightblue" stroke="midnightblue" points="717.15,-35.31 726.85,-31.03 716.6,-28.33 717.15,-35.31"/>
</g>
<!-- Node9 -->
<g id="node9" class="node">
<title>Node9</title>
<g id="a_node9"><a xlink:href="pb__encode_8c.html#aa987a466c397e7769605789cc0b22054" target="_top" xlink:title=" ">
<polygon fill="white" stroke="black" points="816,-19.5 816,-38.5 872,-38.5 872,-19.5 816,-19.5"/>
<text text-anchor="middle" x="844" y="-26.5" font-family="Helvetica,sans-Serif" font-size="10.00">buf_write</text>
</a>
</g>
</g>
<!-- Node8&#45;&gt;Node9 -->
<g id="edge8" class="edge">
<title>Node8&#45;&gt;Node9</title>
<path fill="none" stroke="midnightblue" d="M780.1,-29C788.08,-29 797.06,-29 805.68,-29"/>
<polygon fill="midnightblue" stroke="midnightblue" points="805.92,-32.5 815.92,-29 805.92,-25.5 805.92,-32.5"/>
</g>
<!-- Node11 -->
<g id="node11" class="node">
<title>Node11</title>
<g id="a_node11"><a xlink:href="pb__encode_8c.html#acfbcc89e5e4355b8c263d6d4f2bc8c6f" target="_top" xlink:title=" ">
<polygon fill="white" stroke="black" points="470,-0.5 470,-19.5 553,-19.5 553,-0.5 470,-0.5"/>
<text text-anchor="middle" x="511.5" y="-7.5" font-family="Helvetica,sans-Serif" font-size="10.00">pb_encode_tag</text>
</a>
</g>
</g>
<!-- Node10&#45;&gt;Node11 -->
<g id="edge10" class="edge">
<title>Node10&#45;&gt;Node11</title>
<path fill="none" stroke="midnightblue" d="M425.02,-10C436.53,-10 448.47,-10 459.66,-10"/>
<polygon fill="midnightblue" stroke="midnightblue" points="459.68,-13.5 469.68,-10 459.68,-6.5 459.68,-13.5"/>
</g>
<!-- Node12 -->
<g id="node12" class="node">
<title>Node12</title>
<g id="a_node12"><a xlink:href="pb__encode_8c.html#a568e2eb180774ef4e07de89508edb52b" target="_top" xlink:title=" ">
<polygon fill="white" stroke="black" points="598,-0.5 598,-19.5 691,-19.5 691,-0.5 598,-0.5"/>
<text text-anchor="middle" x="644.5" y="-7.5" font-family="Helvetica,sans-Serif" font-size="10.00">pb_encode_varint</text>
</a>
</g>
</g>
<!-- Node11&#45;&gt;Node12 -->
<g id="edge11" class="edge">
<title>Node11&#45;&gt;Node12</title>
<path fill="none" stroke="midnightblue" d="M553.23,-10C564.15,-10 576.15,-10 587.73,-10"/>
<polygon fill="midnightblue" stroke="midnightblue" points="587.77,-13.5 597.77,-10 587.77,-6.5 587.77,-13.5"/>
</g>
<!-- Node12&#45;&gt;Node8 -->
<g id="edge12" class="edge">
<title>Node12&#45;&gt;Node8</title>
<path fill="none" stroke="midnightblue" d="M691.19,-18.11C699.73,-19.63 708.55,-21.2 716.75,-22.65"/>
<polygon fill="midnightblue" stroke="midnightblue" points="716.26,-26.12 726.72,-24.42 717.49,-19.23 716.26,-26.12"/>
</g>
</g>
</svg>
