<?xml version="1.0" encoding="UTF-8" standalone="no"?>
<!DOCTYPE svg PUBLIC "-//W3C//DTD SVG 1.1//EN"
 "http://www.w3.org/Graphics/SVG/1.1/DTD/svg11.dtd">
<!-- Generated by graphviz version 2.43.0 (0)
 -->
<!-- Title: pb_decode_noinit Pages: 1 -->
<!--zoomable 379 -->
<svg id="main" version="1.1" xmlns="http://www.w3.org/2000/svg" xmlns:xlink="http://www.w3.org/1999/xlink" xml:space="preserve" onload="init(evt)">
<style type="text/css"><![CDATA[
.edge:hover path { stroke: red; }
.edge:hover polygon { stroke: red; fill: red; }
]]></style>
<script type="text/javascript"><![CDATA[
var edges = document.getElementsByTagName('g');
if (edges && edges.length) {
  for (var i=0;i<edges.length;i++) {
    if (edges[i].id.substr(0,4)=='edge') {
      edges[i].setAttribute('class','edge');
    }
  }
}
]]></script>
        <defs>
                <circle id="rim" cx="0" cy="0" r="7"/>
                <circle id="rim2" cx="0" cy="0" r="3.5"/>
                <g id="zoomPlus">
                        <use xlink:href="#rim" fill="#404040">
                                <set attributeName="fill" to="#808080" begin="zoomplus.mouseover" end="zoomplus.mouseout"/>
                        </use>
                        <path d="M-4,0h8M0,-4v8" fill="none" stroke="white" stroke-width="1.5" pointer-events="none"/>
                </g>
                <g id="zoomMin">
                        <use xlink:href="#rim" fill="#404040">
                                <set attributeName="fill" to="#808080" begin="zoomminus.mouseover" end="zoomminus.mouseout"/>
                        </use>
                        <path d="M-4,0h8" fill="none" stroke="white" stroke-width="1.5" pointer-events="none"/>
                </g>
                <g id="dirArrow">
                        <path fill="none" stroke="white" stroke-width="1.5" d="M0,-3.0v7 M-2.5,-0.5L0,-3.0L2.5,-0.5"/>
                </g>
               <g id="resetDef">
                       <use xlink:href="#rim2" fill="#404040">
                               <set attributeName="fill" to="#808080" begin="reset.mouseover" end="reset.mouseout"/>
                       </use>
               </g>
        </defs>

<script type="text/javascript">
var viewWidth = 1250;
var viewHeight = 379;
var sectionId = 'dynsection-32';
</script>
<script xlink:href="svgpan.js"/>
<svg id="graph" class="graph">
<g id="viewport">
<title>pb_decode_noinit</title>
<polygon fill="white" stroke="transparent" points="-4,4 -4,-374.51 1246,-374.51 1246,4 -4,4"/>
<!-- Node1 -->
<g id="node1" class="node">
<title>Node1</title>
<g id="a_node1"><a xlink:title=" ">
<polygon fill="#bfbfbf" stroke="black" points="0,-133.5 0,-152.5 92,-152.5 92,-133.5 0,-133.5"/>
<text text-anchor="middle" x="46" y="-140.5" font-family="Helvetica,sans-Serif" font-size="10.00">pb_decode_noinit</text>
</a>
</g>
</g>
<!-- Node2 -->
<g id="node2" class="node">
<title>Node2</title>
<g id="a_node2"><a xlink:href="pb__decode_8c.html#a30eb2ecefe2a2095c1c668e3932b63fc" target="_top" xlink:title=" ">
<polygon fill="white" stroke="black" points="132,-190.5 132,-209.5 227,-209.5 227,-190.5 132,-190.5"/>
<text text-anchor="middle" x="179.5" y="-197.5" font-family="Helvetica,sans-Serif" font-size="10.00">decode_extension</text>
</a>
</g>
</g>
<!-- Node1&#45;&gt;Node2 -->
<g id="edge1" class="edge">
<title>Node1&#45;&gt;Node2</title>
<path fill="none" stroke="midnightblue" d="M69.01,-152.54C90.34,-161.79 122.92,-175.91 147,-186.35"/>
<polygon fill="midnightblue" stroke="midnightblue" points="145.85,-189.66 156.42,-190.43 148.63,-183.24 145.85,-189.66"/>
</g>
<!-- Node4 -->
<g id="node4" class="node">
<title>Node4</title>
<g id="a_node4"><a xlink:href="pb__decode_8c.html#a48151430d329252cc54fd9764dd820f7" target="_top" xlink:title=" ">
<polygon fill="white" stroke="black" points="442,-199.5 442,-218.5 513,-218.5 513,-199.5 442,-199.5"/>
<text text-anchor="middle" x="477.5" y="-206.5" font-family="Helvetica,sans-Serif" font-size="10.00">decode_field</text>
</a>
</g>
</g>
<!-- Node1&#45;&gt;Node4 -->
<g id="edge27" class="edge">
<title>Node1&#45;&gt;Node4</title>
<path fill="none" stroke="midnightblue" d="M53.39,-152.59C65.52,-169.81 93.75,-205.45 128,-219 230.79,-259.67 364.28,-237.23 432.35,-221.02"/>
<polygon fill="midnightblue" stroke="midnightblue" points="433.43,-224.36 442.31,-218.58 431.76,-217.56 433.43,-224.36"/>
</g>
<!-- Node12 -->
<g id="node12" class="node">
<title>Node12</title>
<g id="a_node12"><a xlink:href="pb__decode_8c.html#ab5102942c8402c215f836364e1b775b1" target="_top" xlink:title=" ">
<polygon fill="white" stroke="black" points="735.5,-313.5 735.5,-332.5 809.5,-332.5 809.5,-313.5 735.5,-313.5"/>
<text text-anchor="middle" x="772.5" y="-320.5" font-family="Helvetica,sans-Serif" font-size="10.00">pb_skip_field</text>
</a>
</g>
</g>
<!-- Node1&#45;&gt;Node12 -->
<g id="edge36" class="edge">
<title>Node1&#45;&gt;Node12</title>
<path fill="none" stroke="midnightblue" d="M52.02,-152.7C62.95,-172.84 90.93,-219.27 128,-243 206.98,-293.57 238.72,-295 332.5,-295 332.5,-295 332.5,-295 478.5,-295 565.99,-295 667.52,-307.53 725.17,-315.82"/>
<polygon fill="midnightblue" stroke="midnightblue" points="724.66,-319.28 735.06,-317.27 725.67,-312.36 724.66,-319.28"/>
</g>
<!-- Node19 -->
<g id="node19" class="node">
<title>Node19</title>
<g id="a_node19"><a xlink:href="pb__decode_8c.html#a45b7deb9b949803e7342070ca209d4be" target="_top" xlink:title=" ">
<polygon fill="white" stroke="black" points="128,-76.5 128,-95.5 231,-95.5 231,-76.5 128,-76.5"/>
<text text-anchor="middle" x="179.5" y="-83.5" font-family="Helvetica,sans-Serif" font-size="10.00">find_extension_field</text>
</a>
</g>
</g>
<!-- Node1&#45;&gt;Node19 -->
<g id="edge28" class="edge">
<title>Node1&#45;&gt;Node19</title>
<path fill="none" stroke="midnightblue" d="M69.01,-133.46C90.34,-124.21 122.92,-110.09 147,-99.65"/>
<polygon fill="midnightblue" stroke="midnightblue" points="148.63,-102.76 156.42,-95.57 145.85,-96.34 148.63,-102.76"/>
</g>
<!-- Node20 -->
<g id="node20" class="node">
<title>Node20</title>
<g id="a_node20"><a xlink:href="pb__decode_8c.html#ac2d909d6194bfbca3c31b95749c4e848" target="_top" xlink:title=" ">
<polygon fill="white" stroke="black" points="296.5,-76.5 296.5,-95.5 370.5,-95.5 370.5,-76.5 296.5,-76.5"/>
<text text-anchor="middle" x="333.5" y="-83.5" font-family="Helvetica,sans-Serif" font-size="10.00">pb_field_next</text>
</a>
</g>
</g>
<!-- Node1&#45;&gt;Node20 -->
<g id="edge35" class="edge">
<title>Node1&#45;&gt;Node20</title>
<path fill="none" stroke="midnightblue" d="M92.24,-133.97C145.27,-123.38 232.69,-105.93 286.18,-95.25"/>
<polygon fill="midnightblue" stroke="midnightblue" points="286.96,-98.66 296.08,-93.27 285.59,-91.8 286.96,-98.66"/>
</g>
<!-- Node21 -->
<g id="node21" class="node">
<title>Node21</title>
<g id="a_node21"><a xlink:href="pb__decode_8c.html#aefe6134d81ea2f861f0111984553b23b" target="_top" xlink:title=" ">
<polygon fill="white" stroke="black" points="436,-142.5 436,-161.5 519,-161.5 519,-142.5 436,-142.5"/>
<text text-anchor="middle" x="477.5" y="-149.5" font-family="Helvetica,sans-Serif" font-size="10.00">pb_decode_tag</text>
</a>
</g>
</g>
<!-- Node1&#45;&gt;Node21 -->
<g id="edge30" class="edge">
<title>Node1&#45;&gt;Node21</title>
<path fill="none" stroke="midnightblue" d="M92.15,-143.95C172.79,-145.64 341,-149.16 425.6,-150.93"/>
<polygon fill="midnightblue" stroke="midnightblue" points="425.67,-154.44 435.74,-151.15 425.82,-147.44 425.67,-154.44"/>
</g>
<!-- Node22 -->
<g id="node22" class="node">
<title>Node22</title>
<g id="a_node22"><a xlink:href="pb__decode_8c.html#a7897e383f3ae811b1afc2ecd36277512" target="_top" xlink:title=" ">
<polygon fill="white" stroke="black" points="144,-38.5 144,-57.5 215,-57.5 215,-38.5 144,-38.5"/>
<text text-anchor="middle" x="179.5" y="-45.5" font-family="Helvetica,sans-Serif" font-size="10.00">pb_field_find</text>
</a>
</g>
</g>
<!-- Node1&#45;&gt;Node22 -->
<g id="edge32" class="edge">
<title>Node1&#45;&gt;Node22</title>
<path fill="none" stroke="midnightblue" d="M55.03,-133.31C68.59,-117.48 97.55,-85.95 128,-67 131.13,-65.05 134.48,-63.26 137.93,-61.61"/>
<polygon fill="midnightblue" stroke="midnightblue" points="139.37,-64.8 147.14,-57.6 136.58,-58.38 139.37,-64.8"/>
</g>
<!-- Node23 -->
<g id="node23" class="node">
<title>Node23</title>
<g id="a_node23"><a xlink:href="pb__decode_8c.html#a1dd25c1621de36f7de14a3b9ba2c532d" target="_top" xlink:title=" ">
<polygon fill="white" stroke="black" points="145.5,-0.5 145.5,-19.5 213.5,-19.5 213.5,-0.5 145.5,-0.5"/>
<text text-anchor="middle" x="179.5" y="-7.5" font-family="Helvetica,sans-Serif" font-size="10.00">pb_field_init</text>
</a>
</g>
</g>
<!-- Node1&#45;&gt;Node23 -->
<g id="edge34" class="edge">
<title>Node1&#45;&gt;Node23</title>
<path fill="none" stroke="midnightblue" d="M51.41,-133.28C61.73,-111.55 89.53,-58.64 128,-29 130.6,-27 133.43,-25.19 136.38,-23.56"/>
<polygon fill="midnightblue" stroke="midnightblue" points="137.99,-26.67 145.49,-19.18 134.96,-20.36 137.99,-26.67"/>
</g>
<!-- Node3 -->
<g id="node3" class="node">
<title>Node3</title>
<g id="a_node3"><a xlink:href="pb__decode_8c.html#a7c09905fda4c6398697bcf0d42882c04" target="_top" xlink:title=" ">
<polygon fill="white" stroke="black" points="267,-190.5 267,-209.5 400,-209.5 400,-190.5 267,-190.5"/>
<text text-anchor="middle" x="333.5" y="-197.5" font-family="Helvetica,sans-Serif" font-size="10.00">default_extension_decoder</text>
</a>
</g>
</g>
<!-- Node2&#45;&gt;Node3 -->
<g id="edge2" class="edge">
<title>Node2&#45;&gt;Node3</title>
<path fill="none" stroke="midnightblue" d="M227.35,-200C236.7,-200 246.75,-200 256.79,-200"/>
<polygon fill="midnightblue" stroke="midnightblue" points="256.81,-203.5 266.81,-200 256.81,-196.5 256.81,-203.5"/>
</g>
<!-- Node3&#45;&gt;Node4 -->
<g id="edge3" class="edge">
<title>Node3&#45;&gt;Node4</title>
<path fill="none" stroke="midnightblue" d="M400.1,-204.16C410.78,-204.83 421.62,-205.52 431.65,-206.16"/>
<polygon fill="midnightblue" stroke="midnightblue" points="431.57,-209.66 441.77,-206.8 432.01,-202.67 431.57,-209.66"/>
</g>
<!-- Node5 -->
<g id="node5" class="node">
<title>Node5</title>
<g id="a_node5"><a xlink:href="pb__decode_8c.html#a69a78d2efcd4b9057215ac8b79a5eb2b" target="_top" xlink:title=" ">
<polygon fill="white" stroke="black" points="555,-237.5 555,-256.5 668,-256.5 668,-237.5 555,-237.5"/>
<text text-anchor="middle" x="611.5" y="-244.5" font-family="Helvetica,sans-Serif" font-size="10.00">decode_callback_field</text>
</a>
</g>
</g>
<!-- Node4&#45;&gt;Node5 -->
<g id="edge4" class="edge">
<title>Node4&#45;&gt;Node5</title>
<path fill="none" stroke="midnightblue" d="M511.81,-218.59C528.69,-223.45 549.39,-229.41 567.47,-234.61"/>
<polygon fill="midnightblue" stroke="midnightblue" points="566.62,-238.01 577.2,-237.41 568.56,-231.28 566.62,-238.01"/>
</g>
<!-- Node17 -->
<g id="node17" class="node">
<title>Node17</title>
<g id="a_node17"><a xlink:href="pb__decode_8c.html#af65dd063304df2ed380dc411bb6caae6" target="_top" xlink:title=" ">
<polygon fill="white" stroke="black" points="558.5,-161.5 558.5,-180.5 664.5,-180.5 664.5,-161.5 558.5,-161.5"/>
<text text-anchor="middle" x="611.5" y="-168.5" font-family="Helvetica,sans-Serif" font-size="10.00">decode_pointer_field</text>
</a>
</g>
</g>
<!-- Node4&#45;&gt;Node17 -->
<g id="edge21" class="edge">
<title>Node4&#45;&gt;Node17</title>
<path fill="none" stroke="midnightblue" d="M511.81,-199.41C528.69,-194.55 549.39,-188.59 567.47,-183.39"/>
<polygon fill="midnightblue" stroke="midnightblue" points="568.56,-186.72 577.2,-180.59 566.62,-179.99 568.56,-186.72"/>
</g>
<!-- Node18 -->
<g id="node18" class="node">
<title>Node18</title>
<g id="a_node18"><a xlink:href="pb__decode_8c.html#a02c14bf9763a469e0414bf9a1eb13632" target="_top" xlink:title=" ">
<polygon fill="white" stroke="black" points="561,-199.5 561,-218.5 662,-218.5 662,-199.5 561,-199.5"/>
<text text-anchor="middle" x="611.5" y="-206.5" font-family="Helvetica,sans-Serif" font-size="10.00">decode_static_field</text>
</a>
</g>
</g>
<!-- Node4&#45;&gt;Node18 -->
<g id="edge24" class="edge">
<title>Node4&#45;&gt;Node18</title>
<path fill="none" stroke="midnightblue" d="M513.18,-209C524.69,-209 537.86,-209 550.71,-209"/>
<polygon fill="midnightblue" stroke="midnightblue" points="550.91,-212.5 560.91,-209 550.91,-205.5 550.91,-212.5"/>
</g>
<!-- Node6 -->
<g id="node6" class="node">
<title>Node6</title>
<g id="a_node6"><a xlink:href="pb__decode_8c.html#ac0a84ef26be0f3bf894deaee63e5114c" target="_top" xlink:title=" ">
<polygon fill="white" stroke="black" points="704.5,-199.5 704.5,-218.5 840.5,-218.5 840.5,-199.5 704.5,-199.5"/>
<text text-anchor="middle" x="772.5" y="-206.5" font-family="Helvetica,sans-Serif" font-size="10.00">pb_close_string_substream</text>
</a>
</g>
</g>
<!-- Node5&#45;&gt;Node6 -->
<g id="edge5" class="edge">
<title>Node5&#45;&gt;Node6</title>
<path fill="none" stroke="midnightblue" d="M652.62,-237.41C673.6,-232.4 699.48,-226.21 721.73,-220.89"/>
<polygon fill="midnightblue" stroke="midnightblue" points="722.75,-224.25 731.67,-218.52 721.13,-217.44 722.75,-224.25"/>
</g>
<!-- Node7 -->
<g id="node7" class="node">
<title>Node7</title>
<g id="a_node7"><a xlink:href="pb__decode_8c.html#a37dc2b0c54c27ddd29791e7522c85548" target="_top" xlink:title=" ">
<polygon fill="white" stroke="black" points="877,-218.5 877,-237.5 996,-237.5 996,-218.5 877,-218.5"/>
<text text-anchor="middle" x="936.5" y="-225.5" font-family="Helvetica,sans-Serif" font-size="10.00">pb_istream_from_buffer</text>
</a>
</g>
</g>
<!-- Node5&#45;&gt;Node7 -->
<g id="edge6" class="edge">
<title>Node5&#45;&gt;Node7</title>
<path fill="none" stroke="midnightblue" d="M668.03,-243.73C723.1,-240.49 807.61,-235.52 866.86,-232.04"/>
<polygon fill="midnightblue" stroke="midnightblue" points="867.11,-235.53 876.88,-231.45 866.69,-228.54 867.11,-235.53"/>
</g>
<!-- Node9 -->
<g id="node9" class="node">
<title>Node9</title>
<g id="a_node9"><a xlink:href="pb__decode_8c.html#a7433fc394255932c4f00274e7f890721" target="_top" xlink:title=" ">
<polygon fill="white" stroke="black" points="704,-161.5 704,-180.5 841,-180.5 841,-161.5 704,-161.5"/>
<text text-anchor="middle" x="772.5" y="-168.5" font-family="Helvetica,sans-Serif" font-size="10.00">pb_make_string_substream</text>
</a>
</g>
</g>
<!-- Node5&#45;&gt;Node9 -->
<g id="edge8" class="edge">
<title>Node5&#45;&gt;Node9</title>
<path fill="none" stroke="midnightblue" d="M648.61,-237.48C655.33,-234.93 662.09,-231.8 668,-228 687.57,-215.42 684.09,-202.03 704,-190 707.58,-187.84 711.41,-185.92 715.36,-184.21"/>
<polygon fill="midnightblue" stroke="midnightblue" points="716.66,-187.46 724.74,-180.59 714.15,-180.92 716.66,-187.46"/>
</g>
<!-- Node5&#45;&gt;Node12 -->
<g id="edge11" class="edge">
<title>Node5&#45;&gt;Node12</title>
<path fill="none" stroke="midnightblue" d="M627.61,-256.68C645.4,-267.82 676.09,-286.23 704,-299 712.72,-302.99 722.31,-306.76 731.46,-310.07"/>
<polygon fill="midnightblue" stroke="midnightblue" points="730.55,-313.46 741.15,-313.47 732.87,-306.85 730.55,-313.46"/>
</g>
<!-- Node16 -->
<g id="node16" class="node">
<title>Node16</title>
<g id="a_node16"><a xlink:href="pb__decode_8c.html#a3f23856ca4723854f204b46d5f10c3ec" target="_top" xlink:title=" ">
<polygon fill="white" stroke="black" points="894,-256.5 894,-275.5 979,-275.5 979,-256.5 894,-256.5"/>
<text text-anchor="middle" x="936.5" y="-263.5" font-family="Helvetica,sans-Serif" font-size="10.00">read_raw_value</text>
</a>
</g>
</g>
<!-- Node5&#45;&gt;Node16 -->
<g id="edge19" class="edge">
<title>Node5&#45;&gt;Node16</title>
<path fill="none" stroke="midnightblue" d="M668.03,-250.27C728.43,-253.82 824.25,-259.46 883.31,-262.93"/>
<polygon fill="midnightblue" stroke="midnightblue" points="883.35,-266.44 893.54,-263.53 883.76,-259.45 883.35,-266.44"/>
</g>
<!-- Node8 -->
<g id="node8" class="node">
<title>Node8</title>
<g id="a_node8"><a xlink:href="pb__decode_8c.html#a9746f7244f9d14b2a095ddfcad55febe" target="_top" xlink:title=" ">
<polygon fill="white" stroke="black" points="1180,-256.5 1180,-275.5 1234,-275.5 1234,-256.5 1180,-256.5"/>
<text text-anchor="middle" x="1207" y="-263.5" font-family="Helvetica,sans-Serif" font-size="10.00">buf_read</text>
</a>
</g>
</g>
<!-- Node7&#45;&gt;Node8 -->
<g id="edge7" class="edge">
<title>Node7&#45;&gt;Node8</title>
<path fill="none" stroke="midnightblue" d="M996.09,-236.29C1048.95,-243.77 1125.03,-254.54 1169.61,-260.85"/>
<polygon fill="midnightblue" stroke="midnightblue" points="1169.3,-264.34 1179.69,-262.28 1170.28,-257.41 1169.3,-264.34"/>
</g>
<!-- Node10 -->
<g id="node10" class="node">
<title>Node10</title>
<g id="a_node10"><a xlink:href="pb__decode_8c.html#abef49f760a21798e59538eec4aea23c2" target="_top" xlink:title=" ">
<polygon fill="white" stroke="black" points="1032,-161.5 1032,-180.5 1136,-180.5 1136,-161.5 1032,-161.5"/>
<text text-anchor="middle" x="1084" y="-168.5" font-family="Helvetica,sans-Serif" font-size="10.00">pb_decode_varint32</text>
</a>
</g>
</g>
<!-- Node9&#45;&gt;Node10 -->
<g id="edge9" class="edge">
<title>Node9&#45;&gt;Node10</title>
<path fill="none" stroke="midnightblue" d="M841.04,-171C894.9,-171 969.69,-171 1021.81,-171"/>
<polygon fill="midnightblue" stroke="midnightblue" points="1021.91,-174.5 1031.91,-171 1021.91,-167.5 1021.91,-174.5"/>
</g>
<!-- Node11 -->
<g id="node11" class="node">
<title>Node11</title>
<g id="a_node11"><a xlink:href="pb__decode_8c.html#a13d38bcceb0a06bfc8c4c9c6da0f7258" target="_top" xlink:title=" ">
<polygon fill="white" stroke="black" points="1172,-161.5 1172,-180.5 1242,-180.5 1242,-161.5 1172,-161.5"/>
<text text-anchor="middle" x="1207" y="-168.5" font-family="Helvetica,sans-Serif" font-size="10.00">pb_readbyte</text>
</a>
</g>
</g>
<!-- Node10&#45;&gt;Node11 -->
<g id="edge10" class="edge">
<title>Node10&#45;&gt;Node11</title>
<path fill="none" stroke="midnightblue" d="M1136.31,-171C1144.74,-171 1153.41,-171 1161.64,-171"/>
<polygon fill="midnightblue" stroke="midnightblue" points="1161.79,-174.5 1171.79,-171 1161.79,-167.5 1161.79,-174.5"/>
</g>
<!-- Node13 -->
<g id="node13" class="node">
<title>Node13</title>
<g id="a_node13"><a xlink:href="pb__decode_8c.html#ad54a52168427208d756087919ff82d41" target="_top" xlink:title=" ">
<polygon fill="white" stroke="black" points="1058.5,-294.5 1058.5,-313.5 1109.5,-313.5 1109.5,-294.5 1058.5,-294.5"/>
<text text-anchor="middle" x="1084" y="-301.5" font-family="Helvetica,sans-Serif" font-size="10.00">pb_read</text>
</a>
</g>
</g>
<!-- Node12&#45;&gt;Node13 -->
<g id="edge12" class="edge">
<title>Node12&#45;&gt;Node13</title>
<path fill="none" stroke="midnightblue" d="M793.15,-332.59C813.54,-341.97 846.66,-355.61 877,-361 929.07,-370.26 945.32,-376.12 996,-361 1022.52,-353.09 1048.47,-334.21 1065.03,-320.34"/>
<polygon fill="midnightblue" stroke="midnightblue" points="1067.51,-322.82 1072.78,-313.63 1062.93,-317.53 1067.51,-322.82"/>
</g>
<!-- Node14 -->
<g id="node14" class="node">
<title>Node14</title>
<g id="a_node14"><a xlink:href="pb__decode_8c.html#afa3e9c4da6d998fd6315d4cbd51b02e4" target="_top" xlink:title=" ">
<polygon fill="white" stroke="black" points="896.5,-294.5 896.5,-313.5 976.5,-313.5 976.5,-294.5 896.5,-294.5"/>
<text text-anchor="middle" x="936.5" y="-301.5" font-family="Helvetica,sans-Serif" font-size="10.00">pb_skip_string</text>
</a>
</g>
</g>
<!-- Node12&#45;&gt;Node14 -->
<g id="edge14" class="edge">
<title>Node12&#45;&gt;Node14</title>
<path fill="none" stroke="midnightblue" d="M809.86,-318.74C832.38,-316.09 861.61,-312.67 886.21,-309.78"/>
<polygon fill="midnightblue" stroke="midnightblue" points="886.91,-313.22 896.44,-308.58 886.1,-306.27 886.91,-313.22"/>
</g>
<!-- Node15 -->
<g id="node15" class="node">
<title>Node15</title>
<g id="a_node15"><a xlink:href="pb__decode_8c.html#a57738ceef4b30349437900b245a33c77" target="_top" xlink:title=" ">
<polygon fill="white" stroke="black" points="896.5,-332.5 896.5,-351.5 976.5,-351.5 976.5,-332.5 896.5,-332.5"/>
<text text-anchor="middle" x="936.5" y="-339.5" font-family="Helvetica,sans-Serif" font-size="10.00">pb_skip_varint</text>
</a>
</g>
</g>
<!-- Node12&#45;&gt;Node15 -->
<g id="edge17" class="edge">
<title>Node12&#45;&gt;Node15</title>
<path fill="none" stroke="midnightblue" d="M809.86,-327.26C832.38,-329.91 861.61,-333.33 886.21,-336.22"/>
<polygon fill="midnightblue" stroke="midnightblue" points="886.1,-339.73 896.44,-337.42 886.91,-332.78 886.1,-339.73"/>
</g>
<!-- Node13&#45;&gt;Node8 -->
<g id="edge13" class="edge">
<title>Node13&#45;&gt;Node8</title>
<path fill="none" stroke="midnightblue" d="M1109.78,-296.22C1127.09,-290.78 1150.48,-283.44 1169.86,-277.35"/>
<polygon fill="midnightblue" stroke="midnightblue" points="1171.09,-280.63 1179.58,-274.3 1168.99,-273.95 1171.09,-280.63"/>
</g>
<!-- Node14&#45;&gt;Node10 -->
<g id="edge15" class="edge">
<title>Node14&#45;&gt;Node10</title>
<path fill="none" stroke="midnightblue" d="M976.53,-294.99C983.37,-292.41 990.16,-289.14 996,-285 1032.05,-259.46 1059.92,-214.55 1073.63,-189.4"/>
<polygon fill="midnightblue" stroke="midnightblue" points="1076.75,-190.99 1078.33,-180.52 1070.56,-187.72 1076.75,-190.99"/>
</g>
<!-- Node14&#45;&gt;Node13 -->
<g id="edge16" class="edge">
<title>Node14&#45;&gt;Node13</title>
<path fill="none" stroke="midnightblue" d="M976.87,-304C999.05,-304 1026.51,-304 1047.94,-304"/>
<polygon fill="midnightblue" stroke="midnightblue" points="1048.23,-307.5 1058.23,-304 1048.23,-300.5 1048.23,-307.5"/>
</g>
<!-- Node15&#45;&gt;Node13 -->
<g id="edge18" class="edge">
<title>Node15&#45;&gt;Node13</title>
<path fill="none" stroke="midnightblue" d="M974.22,-332.41C996.99,-326.46 1026.08,-318.87 1048.44,-313.03"/>
<polygon fill="midnightblue" stroke="midnightblue" points="1049.4,-316.39 1058.19,-310.48 1047.63,-309.62 1049.4,-316.39"/>
</g>
<!-- Node16&#45;&gt;Node13 -->
<g id="edge20" class="edge">
<title>Node16&#45;&gt;Node13</title>
<path fill="none" stroke="midnightblue" d="M974.22,-275.59C996.99,-281.54 1026.08,-289.13 1048.44,-294.97"/>
<polygon fill="midnightblue" stroke="midnightblue" points="1047.63,-298.38 1058.19,-297.52 1049.4,-291.61 1047.63,-298.38"/>
</g>
<!-- Node17&#45;&gt;Node6 -->
<g id="edge22" class="edge">
<title>Node17&#45;&gt;Node6</title>
<path fill="none" stroke="midnightblue" d="M652.62,-180.59C673.6,-185.6 699.48,-191.79 721.73,-197.11"/>
<polygon fill="midnightblue" stroke="midnightblue" points="721.13,-200.56 731.67,-199.48 722.75,-193.75 721.13,-200.56"/>
</g>
<!-- Node17&#45;&gt;Node9 -->
<g id="edge23" class="edge">
<title>Node17&#45;&gt;Node9</title>
<path fill="none" stroke="midnightblue" d="M664.56,-171C673.91,-171 683.83,-171 693.71,-171"/>
<polygon fill="midnightblue" stroke="midnightblue" points="693.97,-174.5 703.97,-171 693.97,-167.5 693.97,-174.5"/>
</g>
<!-- Node18&#45;&gt;Node6 -->
<g id="edge25" class="edge">
<title>Node18&#45;&gt;Node6</title>
<path fill="none" stroke="midnightblue" d="M662.37,-209C672.45,-209 683.27,-209 694.03,-209"/>
<polygon fill="midnightblue" stroke="midnightblue" points="694.32,-212.5 704.32,-209 694.32,-205.5 694.32,-212.5"/>
</g>
<!-- Node18&#45;&gt;Node9 -->
<g id="edge26" class="edge">
<title>Node18&#45;&gt;Node9</title>
<path fill="none" stroke="midnightblue" d="M652.62,-199.41C673.6,-194.4 699.48,-188.21 721.73,-182.89"/>
<polygon fill="midnightblue" stroke="midnightblue" points="722.75,-186.25 731.67,-180.52 721.13,-179.44 722.75,-186.25"/>
</g>
<!-- Node19&#45;&gt;Node20 -->
<g id="edge29" class="edge">
<title>Node19&#45;&gt;Node20</title>
<path fill="none" stroke="midnightblue" d="M231.11,-86C248.71,-86 268.35,-86 285.63,-86"/>
<polygon fill="midnightblue" stroke="midnightblue" points="286.04,-89.5 296.04,-86 286.04,-82.5 286.04,-89.5"/>
</g>
<!-- Node21&#45;&gt;Node10 -->
<g id="edge31" class="edge">
<title>Node21&#45;&gt;Node10</title>
<path fill="none" stroke="midnightblue" d="M519.02,-150.97C586.04,-149.49 724.19,-147.42 841,-152 902.53,-154.41 972.65,-160.26 1021.52,-164.84"/>
<polygon fill="midnightblue" stroke="midnightblue" points="1021.33,-168.33 1031.61,-165.79 1021.99,-161.36 1021.33,-168.33"/>
</g>
<!-- Node22&#45;&gt;Node20 -->
<g id="edge33" class="edge">
<title>Node22&#45;&gt;Node20</title>
<path fill="none" stroke="midnightblue" d="M215.37,-56.72C236.52,-62.01 263.75,-68.81 286.63,-74.53"/>
<polygon fill="midnightblue" stroke="midnightblue" points="285.92,-77.96 296.47,-76.99 287.62,-71.17 285.92,-77.96"/>
</g>
</g>
</svg>
        <g id="navigator" transform="translate(0 0)" fill="#404254">
                <rect fill="#f2f5e9" fill-opacity="0.5" stroke="#606060" stroke-width=".5" x="0" y="0" width="60" height="60"/>
                <use id="zoomplus" xlink:href="#zoomPlus" x="17" y="9" onmousedown="handleZoom(evt,'in')"/>
                <use id="zoomminus" xlink:href="#zoomMin" x="42" y="9" onmousedown="handleZoom(evt,'out')"/>
                <use id="reset" xlink:href="#resetDef" x="30" y="36" onmousedown="handleReset()"/>
                <g id="arrowUp" xlink:href="#dirArrow" transform="translate(30 24)" onmousedown="handlePan(0,-1)">
                  <use xlink:href="#rim" fill="#404040">
                        <set attributeName="fill" to="#808080" begin="arrowUp.mouseover" end="arrowUp.mouseout"/>
                  </use>
                  <path fill="none" stroke="white" stroke-width="1.5" d="M0,-3.0v7 M-2.5,-0.5L0,-3.0L2.5,-0.5"/>
                </g>
                <g id="arrowRight" xlink:href="#dirArrow" transform="rotate(90) translate(36 -43)" onmousedown="handlePan(1,0)">
                  <use xlink:href="#rim" fill="#404040">
                        <set attributeName="fill" to="#808080" begin="arrowRight.mouseover" end="arrowRight.mouseout"/>
                  </use>
                  <path fill="none" stroke="white" stroke-width="1.5" d="M0,-3.0v7 M-2.5,-0.5L0,-3.0L2.5,-0.5"/>
                </g>
                <g id="arrowDown" xlink:href="#dirArrow" transform="rotate(180) translate(-30 -48)" onmousedown="handlePan(0,1)">
                  <use xlink:href="#rim" fill="#404040">
                        <set attributeName="fill" to="#808080" begin="arrowDown.mouseover" end="arrowDown.mouseout"/>
                  </use>
                  <path fill="none" stroke="white" stroke-width="1.5" d="M0,-3.0v7 M-2.5,-0.5L0,-3.0L2.5,-0.5"/>
                </g>
                <g id="arrowLeft" xlink:href="#dirArrow" transform="rotate(270) translate(-36 17)" onmousedown="handlePan(-1,0)">
                  <use xlink:href="#rim" fill="#404040">
                        <set attributeName="fill" to="#808080" begin="arrowLeft.mouseover" end="arrowLeft.mouseout"/>
                  </use>
                  <path fill="none" stroke="white" stroke-width="1.5" d="M0,-3.0v7 M-2.5,-0.5L0,-3.0L2.5,-0.5"/>
                </g>
        </g>
        <svg viewBox="0 0 15 15" width="100%" height="30px" preserveAspectRatio="xMaxYMin meet">
         <g id="arrow_out" transform="scale(0.3 0.3)">
          <a xlink:href="pb__decode_8c_a0c0f95a964239344d503e724818e8fc0_cgraph_org.svg" target="_base">
           <rect id="button" ry="5" rx="5" y="6" x="6" height="38" width="38"
                fill="#f2f5e9" fill-opacity="0.5" stroke="#606060" stroke-width="1.0"/>
           <path id="arrow"
             d="M 11.500037,31.436501 C 11.940474,20.09759 22.043105,11.32322 32.158766,21.979434 L 37.068811,17.246167 C 37.068811,17.246167 37.088388,32 37.088388,32 L 22.160133,31.978069 C 22.160133,31.978069 26.997745,27.140456 26.997745,27.140456 C 18.528582,18.264221 13.291696,25.230495 11.500037,31.436501 z"
             style="fill:#404040;"/>
          </a>
         </g>
        </svg>
</svg>
