<?xml version="1.0" encoding="UTF-8" standalone="no"?>
<!DOCTYPE svg PUBLIC "-//W3C//DTD SVG 1.1//EN"
 "http://www.w3.org/Graphics/SVG/1.1/DTD/svg11.dtd">
<!-- Generated by graphviz version 2.43.0 (0)
 -->
<!-- Title: pb_get_encoded_size Pages: 1 -->
<svg width="1497pt" height="142pt"
 viewBox="0.00 0.00 1497.00 142.00" xmlns="http://www.w3.org/2000/svg" xmlns:xlink="http://www.w3.org/1999/xlink">
<g id="graph0" class="graph" transform="scale(1 1) rotate(0) translate(4 138)">
<title>pb_get_encoded_size</title>
<polygon fill="white" stroke="transparent" points="-4,4 -4,-138 1493,-138 1493,4 -4,4"/>
<!-- Node1 -->
<g id="node1" class="node">
<title>Node1</title>
<g id="a_node1"><a xlink:title=" ">
<polygon fill="#bfbfbf" stroke="black" points="0,-19.5 0,-38.5 111,-38.5 111,-19.5 0,-19.5"/>
<text text-anchor="middle" x="55.5" y="-26.5" font-family="Helvetica,sans-Serif" font-size="10.00">pb_get_encoded_size</text>
</a>
</g>
</g>
<!-- Node2 -->
<g id="node2" class="node">
<title>Node2</title>
<g id="a_node2"><a xlink:href="pb__encode_8c.html#af44dde5296bd546d99be35f15658af3e" target="_top" xlink:title=" ">
<polygon fill="white" stroke="black" points="147,-19.5 147,-38.5 211,-38.5 211,-19.5 147,-19.5"/>
<text text-anchor="middle" x="179" y="-26.5" font-family="Helvetica,sans-Serif" font-size="10.00">pb_encode</text>
</a>
</g>
</g>
<!-- Node1&#45;&gt;Node2 -->
<g id="edge1" class="edge">
<title>Node1&#45;&gt;Node2</title>
<path fill="none" stroke="midnightblue" d="M111.21,-29C119.8,-29 128.55,-29 136.77,-29"/>
<polygon fill="midnightblue" stroke="midnightblue" points="136.85,-32.5 146.85,-29 136.85,-25.5 136.85,-32.5"/>
</g>
<!-- Node3 -->
<g id="node3" class="node">
<title>Node3</title>
<g id="a_node3"><a xlink:href="pb__encode_8c.html#a0c789b04243dc72075c00744134546c3" target="_top" xlink:title=" ">
<polygon fill="white" stroke="black" points="247,-38.5 247,-57.5 366,-57.5 366,-38.5 247,-38.5"/>
<text text-anchor="middle" x="306.5" y="-45.5" font-family="Helvetica,sans-Serif" font-size="10.00">encode_extension_field</text>
</a>
</g>
</g>
<!-- Node2&#45;&gt;Node3 -->
<g id="edge2" class="edge">
<title>Node2&#45;&gt;Node3</title>
<path fill="none" stroke="midnightblue" d="M211.02,-33.7C219.02,-34.91 227.95,-36.26 237.04,-37.64"/>
<polygon fill="midnightblue" stroke="midnightblue" points="236.52,-41.1 246.93,-39.13 237.56,-34.17 236.52,-41.1"/>
</g>
<!-- Node5 -->
<g id="node5" class="node">
<title>Node5</title>
<g id="a_node5"><a xlink:href="pb__encode_8c.html#a8aa23313175c09e050e2acbc54a17bd4" target="_top" xlink:title=" ">
<polygon fill="white" stroke="black" points="571,-19.5 571,-38.5 642,-38.5 642,-19.5 571,-19.5"/>
<text text-anchor="middle" x="606.5" y="-26.5" font-family="Helvetica,sans-Serif" font-size="10.00">encode_field</text>
</a>
</g>
</g>
<!-- Node2&#45;&gt;Node5 -->
<g id="edge17" class="edge">
<title>Node2&#45;&gt;Node5</title>
<path fill="none" stroke="midnightblue" d="M211.29,-29C285.89,-29 474.42,-29 560.9,-29"/>
<polygon fill="midnightblue" stroke="midnightblue" points="560.93,-32.5 570.93,-29 560.93,-25.5 560.93,-32.5"/>
</g>
<!-- Node4 -->
<g id="node4" class="node">
<title>Node4</title>
<g id="a_node4"><a xlink:href="pb__encode_8c.html#a3a12936f07ae378d68408c7bee72e3c0" target="_top" xlink:title=" ">
<polygon fill="white" stroke="black" points="402,-38.5 402,-57.5 535,-57.5 535,-38.5 402,-38.5"/>
<text text-anchor="middle" x="468.5" y="-45.5" font-family="Helvetica,sans-Serif" font-size="10.00">default_extension_encoder</text>
</a>
</g>
</g>
<!-- Node3&#45;&gt;Node4 -->
<g id="edge3" class="edge">
<title>Node3&#45;&gt;Node4</title>
<path fill="none" stroke="midnightblue" d="M366.17,-48C374.5,-48 383.17,-48 391.77,-48"/>
<polygon fill="midnightblue" stroke="midnightblue" points="391.81,-51.5 401.81,-48 391.81,-44.5 391.81,-51.5"/>
</g>
<!-- Node4&#45;&gt;Node5 -->
<g id="edge4" class="edge">
<title>Node4&#45;&gt;Node5</title>
<path fill="none" stroke="midnightblue" d="M535.11,-38.83C543.8,-37.62 552.55,-36.4 560.77,-35.25"/>
<polygon fill="midnightblue" stroke="midnightblue" points="561.46,-38.69 570.88,-33.84 560.49,-31.75 561.46,-38.69"/>
</g>
<!-- Node6 -->
<g id="node6" class="node">
<title>Node6</title>
<g id="a_node6"><a xlink:href="pb__encode_8c.html#a1f186424780069ab183fb7d2360d274e" target="_top" xlink:title=" ">
<polygon fill="white" stroke="black" points="684.5,-38.5 684.5,-57.5 784.5,-57.5 784.5,-38.5 684.5,-38.5"/>
<text text-anchor="middle" x="734.5" y="-45.5" font-family="Helvetica,sans-Serif" font-size="10.00">encode_basic_field</text>
</a>
</g>
</g>
<!-- Node5&#45;&gt;Node6 -->
<g id="edge5" class="edge">
<title>Node5&#45;&gt;Node6</title>
<path fill="none" stroke="midnightblue" d="M642.26,-34.24C652.19,-35.74 663.3,-37.41 674.25,-39.07"/>
<polygon fill="midnightblue" stroke="midnightblue" points="673.82,-42.54 684.23,-40.57 674.86,-35.62 673.82,-42.54"/>
</g>
<!-- Node13 -->
<g id="node13" class="node">
<title>Node13</title>
<g id="a_node13"><a xlink:href="pb__encode_8c.html#aacffda1f85cad8e448a183dcc6c13559" target="_top" xlink:title=" ">
<polygon fill="white" stroke="black" points="678,-0.5 678,-19.5 791,-19.5 791,-0.5 678,-0.5"/>
<text text-anchor="middle" x="734.5" y="-7.5" font-family="Helvetica,sans-Serif" font-size="10.00">encode_callback_field</text>
</a>
</g>
</g>
<!-- Node5&#45;&gt;Node13 -->
<g id="edge16" class="edge">
<title>Node5&#45;&gt;Node13</title>
<path fill="none" stroke="midnightblue" d="M642.26,-23.76C650.2,-22.56 658.9,-21.25 667.66,-19.93"/>
<polygon fill="midnightblue" stroke="midnightblue" points="668.19,-23.39 677.55,-18.44 667.14,-16.47 668.19,-23.39"/>
</g>
<!-- Node7 -->
<g id="node7" class="node">
<title>Node7</title>
<g id="a_node7"><a xlink:href="pb__encode_8c.html#afb8fc9e49589eaae694eff25c858a19c" target="_top" xlink:title=" ">
<polygon fill="white" stroke="black" points="827,-57.5 827,-76.5 902,-76.5 902,-57.5 827,-57.5"/>
<text text-anchor="middle" x="864.5" y="-64.5" font-family="Helvetica,sans-Serif" font-size="10.00">encode_array</text>
</a>
</g>
</g>
<!-- Node6&#45;&gt;Node7 -->
<g id="edge6" class="edge">
<title>Node6&#45;&gt;Node7</title>
<path fill="none" stroke="midnightblue" d="M784.62,-55.29C795.09,-56.85 806.12,-58.48 816.51,-60.02"/>
<polygon fill="midnightblue" stroke="midnightblue" points="816.23,-63.52 826.64,-61.53 817.26,-56.6 816.23,-63.52"/>
</g>
<!-- Node12 -->
<g id="node12" class="node">
<title>Node12</title>
<g id="a_node12"><a xlink:href="pb__encode_8c.html#a3e0f1ac29dce37f78220ecd6b9d21cba" target="_top" xlink:title=" ">
<polygon fill="white" stroke="black" points="938,-19.5 938,-38.5 1060,-38.5 1060,-19.5 938,-19.5"/>
<text text-anchor="middle" x="999" y="-26.5" font-family="Helvetica,sans-Serif" font-size="10.00">pb_encode_tag_for_field</text>
</a>
</g>
</g>
<!-- Node6&#45;&gt;Node12 -->
<g id="edge15" class="edge">
<title>Node6&#45;&gt;Node12</title>
<path fill="none" stroke="midnightblue" d="M784.57,-44.45C824.85,-41.53 882.42,-37.37 927.62,-34.09"/>
<polygon fill="midnightblue" stroke="midnightblue" points="927.92,-37.58 937.65,-33.37 927.42,-30.6 927.92,-37.58"/>
</g>
<!-- Node8 -->
<g id="node8" class="node">
<title>Node8</title>
<g id="a_node8"><a xlink:href="pb__encode_8c.html#acfbcc89e5e4355b8c263d6d4f2bc8c6f" target="_top" xlink:title=" ">
<polygon fill="white" stroke="black" points="1096,-57.5 1096,-76.5 1179,-76.5 1179,-57.5 1096,-57.5"/>
<text text-anchor="middle" x="1137.5" y="-64.5" font-family="Helvetica,sans-Serif" font-size="10.00">pb_encode_tag</text>
</a>
</g>
</g>
<!-- Node7&#45;&gt;Node8 -->
<g id="edge7" class="edge">
<title>Node7&#45;&gt;Node8</title>
<path fill="none" stroke="midnightblue" d="M902.05,-67C949.32,-67 1031.92,-67 1085.39,-67"/>
<polygon fill="midnightblue" stroke="midnightblue" points="1085.67,-70.5 1095.67,-67 1085.67,-63.5 1085.67,-70.5"/>
</g>
<!-- Node9 -->
<g id="node9" class="node">
<title>Node9</title>
<g id="a_node9"><a xlink:href="pb__encode_8c.html#a568e2eb180774ef4e07de89508edb52b" target="_top" xlink:title=" ">
<polygon fill="white" stroke="black" points="1215,-95.5 1215,-114.5 1308,-114.5 1308,-95.5 1215,-95.5"/>
<text text-anchor="middle" x="1261.5" y="-102.5" font-family="Helvetica,sans-Serif" font-size="10.00">pb_encode_varint</text>
</a>
</g>
</g>
<!-- Node7&#45;&gt;Node9 -->
<g id="edge13" class="edge">
<title>Node7&#45;&gt;Node9</title>
<path fill="none" stroke="midnightblue" d="M902.25,-74.96C913.66,-77.2 926.31,-79.44 938,-81 1031.05,-93.4 1140.11,-99.84 1204.59,-102.82"/>
<polygon fill="midnightblue" stroke="midnightblue" points="1204.78,-106.33 1214.93,-103.28 1205.1,-99.34 1204.78,-106.33"/>
</g>
<!-- Node10 -->
<g id="node10" class="node">
<title>Node10</title>
<g id="a_node10"><a xlink:href="pb__encode_8c.html#a6f8d972fa4a439724532f0bcc07de81d" target="_top" xlink:title=" ">
<polygon fill="white" stroke="black" points="1344,-114.5 1344,-133.5 1397,-133.5 1397,-114.5 1344,-114.5"/>
<text text-anchor="middle" x="1370.5" y="-121.5" font-family="Helvetica,sans-Serif" font-size="10.00">pb_write</text>
</a>
</g>
</g>
<!-- Node7&#45;&gt;Node10 -->
<g id="edge14" class="edge">
<title>Node7&#45;&gt;Node10</title>
<path fill="none" stroke="midnightblue" d="M881.57,-76.58C895.85,-84.59 917.58,-95.55 938,-101 1080.32,-138.96 1258.16,-132.22 1333.31,-127.02"/>
<polygon fill="midnightblue" stroke="midnightblue" points="1333.92,-130.49 1343.64,-126.27 1333.41,-123.5 1333.92,-130.49"/>
</g>
<!-- Node7&#45;&gt;Node12 -->
<g id="edge11" class="edge">
<title>Node7&#45;&gt;Node12</title>
<path fill="none" stroke="midnightblue" d="M898.94,-57.41C915.88,-52.55 936.66,-46.59 954.81,-41.39"/>
<polygon fill="midnightblue" stroke="midnightblue" points="955.93,-44.71 964.58,-38.59 954,-37.98 955.93,-44.71"/>
</g>
<!-- Node8&#45;&gt;Node9 -->
<g id="edge8" class="edge">
<title>Node8&#45;&gt;Node9</title>
<path fill="none" stroke="midnightblue" d="M1169.29,-76.59C1184.6,-81.36 1203.32,-87.19 1219.8,-92.32"/>
<polygon fill="midnightblue" stroke="midnightblue" points="1219.14,-95.78 1229.72,-95.41 1221.22,-89.1 1219.14,-95.78"/>
</g>
<!-- Node9&#45;&gt;Node10 -->
<g id="edge9" class="edge">
<title>Node9&#45;&gt;Node10</title>
<path fill="none" stroke="midnightblue" d="M1308.19,-113.11C1316.73,-114.63 1325.55,-116.2 1333.75,-117.65"/>
<polygon fill="midnightblue" stroke="midnightblue" points="1333.26,-121.12 1343.72,-119.42 1334.49,-114.23 1333.26,-121.12"/>
</g>
<!-- Node11 -->
<g id="node11" class="node">
<title>Node11</title>
<g id="a_node11"><a xlink:href="pb__encode_8c.html#aa987a466c397e7769605789cc0b22054" target="_top" xlink:title=" ">
<polygon fill="white" stroke="black" points="1433,-114.5 1433,-133.5 1489,-133.5 1489,-114.5 1433,-114.5"/>
<text text-anchor="middle" x="1461" y="-121.5" font-family="Helvetica,sans-Serif" font-size="10.00">buf_write</text>
</a>
</g>
</g>
<!-- Node10&#45;&gt;Node11 -->
<g id="edge10" class="edge">
<title>Node10&#45;&gt;Node11</title>
<path fill="none" stroke="midnightblue" d="M1397.1,-124C1405.08,-124 1414.06,-124 1422.68,-124"/>
<polygon fill="midnightblue" stroke="midnightblue" points="1422.92,-127.5 1432.92,-124 1422.92,-120.5 1422.92,-127.5"/>
</g>
<!-- Node12&#45;&gt;Node8 -->
<g id="edge12" class="edge">
<title>Node12&#45;&gt;Node8</title>
<path fill="none" stroke="midnightblue" d="M1034.44,-38.59C1051.98,-43.47 1073.51,-49.46 1092.26,-54.68"/>
<polygon fill="midnightblue" stroke="midnightblue" points="1091.49,-58.1 1102.07,-57.41 1093.37,-51.36 1091.49,-58.1"/>
</g>
</g>
</svg>
