<?xml version="1.0" encoding="UTF-8" standalone="no"?>
<!DOCTYPE svg PUBLIC "-//W3C//DTD SVG 1.1//EN"
 "http://www.w3.org/Graphics/SVG/1.1/DTD/svg11.dtd">
<!-- Generated by graphviz version 2.43.0 (0)
 -->
<!-- Title: build/FRI&#45;Client&#45;SDK_Cpp/src/protobuf/pb_frimessages_callbacks.h Pages: 1 -->
<!--zoomable 284 -->
<svg id="main" version="1.1" xmlns="http://www.w3.org/2000/svg" xmlns:xlink="http://www.w3.org/1999/xlink" xml:space="preserve" onload="init(evt)">
<style type="text/css"><![CDATA[
.edge:hover path { stroke: red; }
.edge:hover polygon { stroke: red; fill: red; }
]]></style>
<script type="text/javascript"><![CDATA[
var edges = document.getElementsByTagName('g');
if (edges && edges.length) {
  for (var i=0;i<edges.length;i++) {
    if (edges[i].id.substr(0,4)=='edge') {
      edges[i].setAttribute('class','edge');
    }
  }
}
]]></script>
        <defs>
                <circle id="rim" cx="0" cy="0" r="7"/>
                <circle id="rim2" cx="0" cy="0" r="3.5"/>
                <g id="zoomPlus">
                        <use xlink:href="#rim" fill="#404040">
                                <set attributeName="fill" to="#808080" begin="zoomplus.mouseover" end="zoomplus.mouseout"/>
                        </use>
                        <path d="M-4,0h8M0,-4v8" fill="none" stroke="white" stroke-width="1.5" pointer-events="none"/>
                </g>
                <g id="zoomMin">
                        <use xlink:href="#rim" fill="#404040">
                                <set attributeName="fill" to="#808080" begin="zoomminus.mouseover" end="zoomminus.mouseout"/>
                        </use>
                        <path d="M-4,0h8" fill="none" stroke="white" stroke-width="1.5" pointer-events="none"/>
                </g>
                <g id="dirArrow">
                        <path fill="none" stroke="white" stroke-width="1.5" d="M0,-3.0v7 M-2.5,-0.5L0,-3.0L2.5,-0.5"/>
                </g>
               <g id="resetDef">
                       <use xlink:href="#rim2" fill="#404040">
                               <set attributeName="fill" to="#808080" begin="reset.mouseover" end="reset.mouseout"/>
                       </use>
               </g>
        </defs>

<script type="text/javascript">
var viewWidth = 939;
var viewHeight = 284;
var sectionId = 'dynsection-1';
</script>
<script xlink:href="svgpan.js"/>
<svg id="graph" class="graph">
<g id="viewport">
<title>build/FRI&#45;Client&#45;SDK_Cpp/src/protobuf/pb_frimessages_callbacks.h</title>
<polygon fill="white" stroke="transparent" points="-4,4 -4,-280 935,-280 935,4 -4,4"/>
<!-- Node1 -->
<g id="node1" class="node">
<title>Node1</title>
<g id="a_node1"><a xlink:title=" ">
<polygon fill="#bfbfbf" stroke="black" points="610.5,-234.5 610.5,-275.5 740.5,-275.5 740.5,-234.5 610.5,-234.5"/>
<text text-anchor="start" x="618.5" y="-263.5" font-family="Helvetica,sans-Serif" font-size="10.00">build/FRI&#45;Client&#45;SDK</text>
<text text-anchor="start" x="618.5" y="-252.5" font-family="Helvetica,sans-Serif" font-size="10.00">_Cpp/src/protobuf/pb</text>
<text text-anchor="middle" x="675.5" y="-241.5" font-family="Helvetica,sans-Serif" font-size="10.00">_frimessages_callbacks.h</text>
</a>
</g>
</g>
<!-- Node2 -->
<g id="node2" class="node">
<title>Node2</title>
<g id="a_node2"><a xlink:href="fri_l_b_r_command_8cpp.html" target="_top" xlink:title=" ">
<polygon fill="white" stroke="black" points="0,-6 0,-36 193,-36 193,-6 0,-6"/>
<text text-anchor="start" x="8" y="-24" font-family="Helvetica,sans-Serif" font-size="10.00">build/FRI&#45;Client&#45;SDK</text>
<text text-anchor="middle" x="96.5" y="-13" font-family="Helvetica,sans-Serif" font-size="10.00">_Cpp/src/client_lbr/friLBRCommand.cpp</text>
</a>
</g>
</g>
<!-- Node1&#45;&gt;Node2 -->
<g id="edge1" class="edge">
<title>Node1&#45;&gt;Node2</title>
<path fill="none" stroke="midnightblue" d="M600.21,-245.78C537.43,-237.61 446.2,-222.68 369.5,-198 292.28,-173.16 271.94,-165.08 204.5,-120 166.61,-94.67 128.61,-56.51 109.39,-36.09"/>
<polygon fill="midnightblue" stroke="midnightblue" points="600.06,-249.29 610.42,-247.08 600.94,-242.34 600.06,-249.29"/>
</g>
<!-- Node3 -->
<g id="node3" class="node">
<title>Node3</title>
<g id="a_node3"><a xlink:href="fri_l_b_r_state_8cpp.html" target="_top" xlink:title=" ">
<polygon fill="white" stroke="black" points="605,-6 605,-36 776,-36 776,-6 605,-6"/>
<text text-anchor="start" x="613" y="-24" font-family="Helvetica,sans-Serif" font-size="10.00">build/FRI&#45;Client&#45;SDK</text>
<text text-anchor="middle" x="690.5" y="-13" font-family="Helvetica,sans-Serif" font-size="10.00">_Cpp/src/client_lbr/friLBRState.cpp</text>
</a>
</g>
</g>
<!-- Node1&#45;&gt;Node3 -->
<g id="edge2" class="edge">
<title>Node1&#45;&gt;Node3</title>
<path fill="none" stroke="midnightblue" d="M695.92,-225.99C701.06,-217.42 705.86,-207.7 708.5,-198 722.53,-146.55 716.76,-130.69 708.5,-78 706.22,-63.47 700.81,-47.57 696.51,-36.44"/>
<polygon fill="midnightblue" stroke="midnightblue" points="692.96,-224.13 690.53,-234.44 698.86,-227.89 692.96,-224.13"/>
</g>
<!-- Node4 -->
<g id="node4" class="node">
<title>Node4</title>
<g id="a_node4"><a xlink:href="fri_transformation_client_8cpp.html" target="_top" xlink:title=" ">
<polygon fill="white" stroke="black" points="794,-0.5 794,-41.5 931,-41.5 931,-0.5 794,-0.5"/>
<text text-anchor="start" x="802" y="-29.5" font-family="Helvetica,sans-Serif" font-size="10.00">build/FRI&#45;Client&#45;SDK</text>
<text text-anchor="start" x="802" y="-18.5" font-family="Helvetica,sans-Serif" font-size="10.00">_Cpp/src/client_trafo</text>
<text text-anchor="middle" x="862.5" y="-7.5" font-family="Helvetica,sans-Serif" font-size="10.00">/friTransformationClient.cpp</text>
</a>
</g>
</g>
<!-- Node1&#45;&gt;Node4 -->
<g id="edge3" class="edge">
<title>Node1&#45;&gt;Node4</title>
<path fill="none" stroke="midnightblue" d="M701.08,-226.8C709.35,-217.78 718.46,-207.58 726.5,-198 772.8,-142.84 823.82,-74.64 848.11,-41.68"/>
<polygon fill="midnightblue" stroke="midnightblue" points="698.28,-224.67 694.07,-234.39 703.43,-229.42 698.28,-224.67"/>
</g>
<!-- Node5 -->
<g id="node5" class="node">
<title>Node5</title>
<g id="a_node5"><a xlink:href="fri_command_message_encoder_8h.html" target="_top" xlink:title=" ">
<polygon fill="white" stroke="black" points="379,-156.5 379,-197.5 530,-197.5 530,-156.5 379,-156.5"/>
<text text-anchor="start" x="387" y="-185.5" font-family="Helvetica,sans-Serif" font-size="10.00">build/FRI&#45;Client&#45;SDK</text>
<text text-anchor="start" x="387" y="-174.5" font-family="Helvetica,sans-Serif" font-size="10.00">_Cpp/src/protobuf/friCommand</text>
<text text-anchor="middle" x="454.5" y="-163.5" font-family="Helvetica,sans-Serif" font-size="10.00">MessageEncoder.h</text>
</a>
</g>
</g>
<!-- Node1&#45;&gt;Node5 -->
<g id="edge4" class="edge">
<title>Node1&#45;&gt;Node5</title>
<path fill="none" stroke="midnightblue" d="M609.1,-231.17C577.9,-220.44 541.09,-207.78 511.22,-197.51"/>
<polygon fill="midnightblue" stroke="midnightblue" points="607.99,-234.49 618.59,-234.43 610.27,-227.87 607.99,-234.49"/>
</g>
<!-- Node10 -->
<g id="node10" class="node">
<title>Node10</title>
<g id="a_node10"><a xlink:href="fri_monitoring_message_decoder_8h.html" target="_top" xlink:title=" ">
<polygon fill="white" stroke="black" points="548,-156.5 548,-197.5 699,-197.5 699,-156.5 548,-156.5"/>
<text text-anchor="start" x="556" y="-185.5" font-family="Helvetica,sans-Serif" font-size="10.00">build/FRI&#45;Client&#45;SDK</text>
<text text-anchor="start" x="556" y="-174.5" font-family="Helvetica,sans-Serif" font-size="10.00">_Cpp/src/protobuf/friMonitoring</text>
<text text-anchor="middle" x="623.5" y="-163.5" font-family="Helvetica,sans-Serif" font-size="10.00">MessageDecoder.h</text>
</a>
</g>
</g>
<!-- Node1&#45;&gt;Node10 -->
<g id="edge12" class="edge">
<title>Node1&#45;&gt;Node10</title>
<path fill="none" stroke="midnightblue" d="M656.37,-226.05C649.89,-216.57 642.78,-206.18 636.85,-197.51"/>
<polygon fill="midnightblue" stroke="midnightblue" points="653.57,-228.15 662.11,-234.43 659.35,-224.2 653.57,-228.15"/>
</g>
<!-- Node12 -->
<g id="node12" class="node">
<title>Node12</title>
<g id="a_node12"><a xlink:href="pb__frimessages__callbacks_8c.html" target="_top" xlink:title=" ">
<polygon fill="white" stroke="black" points="793.5,-156.5 793.5,-197.5 923.5,-197.5 923.5,-156.5 793.5,-156.5"/>
<text text-anchor="start" x="801.5" y="-185.5" font-family="Helvetica,sans-Serif" font-size="10.00">build/FRI&#45;Client&#45;SDK</text>
<text text-anchor="start" x="801.5" y="-174.5" font-family="Helvetica,sans-Serif" font-size="10.00">_Cpp/src/protobuf/pb</text>
<text text-anchor="middle" x="858.5" y="-163.5" font-family="Helvetica,sans-Serif" font-size="10.00">_frimessages_callbacks.c</text>
</a>
</g>
</g>
<!-- Node1&#45;&gt;Node12 -->
<g id="edge15" class="edge">
<title>Node1&#45;&gt;Node12</title>
<path fill="none" stroke="midnightblue" d="M732.16,-230.47C757.63,-219.89 787.33,-207.56 811.53,-197.51"/>
<polygon fill="midnightblue" stroke="midnightblue" points="730.52,-227.36 722.63,-234.43 733.2,-233.82 730.52,-227.36"/>
</g>
<!-- Node6 -->
<g id="node6" class="node">
<title>Node6</title>
<g id="a_node6"><a xlink:href="fri_client_data_8h.html" target="_top" xlink:title=" ">
<polygon fill="white" stroke="black" points="383.5,-84 383.5,-114 529.5,-114 529.5,-84 383.5,-84"/>
<text text-anchor="start" x="391.5" y="-102" font-family="Helvetica,sans-Serif" font-size="10.00">build/FRI&#45;Client&#45;SDK</text>
<text text-anchor="middle" x="456.5" y="-91" font-family="Helvetica,sans-Serif" font-size="10.00">_Cpp/src/base/friClientData.h</text>
</a>
</g>
</g>
<!-- Node5&#45;&gt;Node6 -->
<g id="edge5" class="edge">
<title>Node5&#45;&gt;Node6</title>
<path fill="none" stroke="midnightblue" d="M455.28,-146.28C455.57,-135.25 455.89,-123.25 456.13,-114.23"/>
<polygon fill="midnightblue" stroke="midnightblue" points="451.78,-146.34 455.02,-156.43 458.78,-146.52 451.78,-146.34"/>
</g>
<!-- Node9 -->
<g id="node9" class="node">
<title>Node9</title>
<g id="a_node9"><a xlink:href="fri_command_message_encoder_8cpp.html" target="_top" xlink:title=" ">
<polygon fill="white" stroke="black" points="214,-78.5 214,-119.5 365,-119.5 365,-78.5 214,-78.5"/>
<text text-anchor="start" x="222" y="-107.5" font-family="Helvetica,sans-Serif" font-size="10.00">build/FRI&#45;Client&#45;SDK</text>
<text text-anchor="start" x="222" y="-96.5" font-family="Helvetica,sans-Serif" font-size="10.00">_Cpp/src/protobuf/friCommand</text>
<text text-anchor="middle" x="289.5" y="-85.5" font-family="Helvetica,sans-Serif" font-size="10.00">MessageEncoder.cpp</text>
</a>
</g>
</g>
<!-- Node5&#45;&gt;Node9 -->
<g id="edge11" class="edge">
<title>Node5&#45;&gt;Node9</title>
<path fill="none" stroke="midnightblue" d="M402.81,-152.19C379.98,-141.67 353.48,-129.47 331.85,-119.51"/>
<polygon fill="midnightblue" stroke="midnightblue" points="401.46,-155.42 412.01,-156.43 404.39,-149.07 401.46,-155.42"/>
</g>
<!-- Node6&#45;&gt;Node2 -->
<g id="edge8" class="edge">
<title>Node6&#45;&gt;Node2</title>
<path fill="none" stroke="midnightblue" d="M389.62,-81.66C384.17,-80.4 378.75,-79.16 373.5,-78 304.52,-62.72 225.5,-46.91 169.56,-36"/>
<polygon fill="midnightblue" stroke="midnightblue" points="388.88,-85.08 399.41,-83.95 390.47,-78.26 388.88,-85.08"/>
</g>
<!-- Node6&#45;&gt;Node3 -->
<g id="edge9" class="edge">
<title>Node6&#45;&gt;Node3</title>
<path fill="none" stroke="midnightblue" d="M509.38,-80.83C550.98,-67.31 608.24,-48.72 647.16,-36.07"/>
<polygon fill="midnightblue" stroke="midnightblue" points="508.12,-77.55 499.69,-83.97 510.28,-84.21 508.12,-77.55"/>
</g>
<!-- Node6&#45;&gt;Node4 -->
<g id="edge10" class="edge">
<title>Node6&#45;&gt;Node4</title>
<path fill="none" stroke="midnightblue" d="M520.96,-81.67C526.87,-80.36 532.79,-79.11 538.5,-78 647.4,-56.83 676.76,-63.98 785.5,-42 788.21,-41.45 790.96,-40.87 793.74,-40.26"/>
<polygon fill="midnightblue" stroke="midnightblue" points="520.01,-78.3 511.04,-83.94 521.56,-85.12 520.01,-78.3"/>
</g>
<!-- Node7 -->
<g id="node7" class="node">
<title>Node7</title>
<g id="a_node7"><a xlink:href="fri_client_application_8cpp.html" target="_top" xlink:title=" ">
<polygon fill="white" stroke="black" points="402.5,-6 402.5,-36 586.5,-36 586.5,-6 402.5,-6"/>
<text text-anchor="start" x="410.5" y="-24" font-family="Helvetica,sans-Serif" font-size="10.00">build/FRI&#45;Client&#45;SDK</text>
<text text-anchor="middle" x="494.5" y="-13" font-family="Helvetica,sans-Serif" font-size="10.00">_Cpp/src/base/friClientApplication.cpp</text>
</a>
</g>
</g>
<!-- Node6&#45;&gt;Node7 -->
<g id="edge6" class="edge">
<title>Node6&#45;&gt;Node7</title>
<path fill="none" stroke="midnightblue" d="M468.15,-74.7C474.43,-62.14 481.98,-47.04 487.38,-36.23"/>
<polygon fill="midnightblue" stroke="midnightblue" points="464.99,-73.2 463.65,-83.7 471.25,-76.33 464.99,-73.2"/>
</g>
<!-- Node8 -->
<g id="node8" class="node">
<title>Node8</title>
<g id="a_node8"><a xlink:href="fri_l_b_r_client_8cpp.html" target="_top" xlink:title=" ">
<polygon fill="white" stroke="black" points="211,-6 211,-36 384,-36 384,-6 211,-6"/>
<text text-anchor="start" x="219" y="-24" font-family="Helvetica,sans-Serif" font-size="10.00">build/FRI&#45;Client&#45;SDK</text>
<text text-anchor="middle" x="297.5" y="-13" font-family="Helvetica,sans-Serif" font-size="10.00">_Cpp/src/client_lbr/friLBRClient.cpp</text>
</a>
</g>
</g>
<!-- Node6&#45;&gt;Node8 -->
<g id="edge7" class="edge">
<title>Node6&#45;&gt;Node8</title>
<path fill="none" stroke="midnightblue" d="M417.85,-79.52C389.82,-66.13 352.49,-48.28 326.88,-36.04"/>
<polygon fill="midnightblue" stroke="midnightblue" points="416.43,-82.73 426.97,-83.88 419.45,-76.41 416.43,-82.73"/>
</g>
<!-- Node10&#45;&gt;Node6 -->
<g id="edge13" class="edge">
<title>Node10&#45;&gt;Node6</title>
<path fill="none" stroke="midnightblue" d="M571.38,-152.28C543.86,-139.76 511.01,-124.81 487.5,-114.11"/>
<polygon fill="midnightblue" stroke="midnightblue" points="569.94,-155.47 580.49,-156.43 572.84,-149.1 569.94,-155.47"/>
</g>
<!-- Node11 -->
<g id="node11" class="node">
<title>Node11</title>
<g id="a_node11"><a xlink:href="fri_monitoring_message_decoder_8cpp.html" target="_top" xlink:title=" ">
<polygon fill="white" stroke="black" points="548,-78.5 548,-119.5 699,-119.5 699,-78.5 548,-78.5"/>
<text text-anchor="start" x="556" y="-107.5" font-family="Helvetica,sans-Serif" font-size="10.00">build/FRI&#45;Client&#45;SDK</text>
<text text-anchor="start" x="556" y="-96.5" font-family="Helvetica,sans-Serif" font-size="10.00">_Cpp/src/protobuf/friMonitoring</text>
<text text-anchor="middle" x="623.5" y="-85.5" font-family="Helvetica,sans-Serif" font-size="10.00">MessageDecoder.cpp</text>
</a>
</g>
</g>
<!-- Node10&#45;&gt;Node11 -->
<g id="edge14" class="edge">
<title>Node10&#45;&gt;Node11</title>
<path fill="none" stroke="midnightblue" d="M623.5,-146.3C623.5,-137.3 623.5,-127.65 623.5,-119.51"/>
<polygon fill="midnightblue" stroke="midnightblue" points="620,-146.43 623.5,-156.43 627,-146.43 620,-146.43"/>
</g>
</g>
</svg>
        <g id="navigator" transform="translate(0 0)" fill="#404254">
                <rect fill="#f2f5e9" fill-opacity="0.5" stroke="#606060" stroke-width=".5" x="0" y="0" width="60" height="60"/>
                <use id="zoomplus" xlink:href="#zoomPlus" x="17" y="9" onmousedown="handleZoom(evt,'in')"/>
                <use id="zoomminus" xlink:href="#zoomMin" x="42" y="9" onmousedown="handleZoom(evt,'out')"/>
                <use id="reset" xlink:href="#resetDef" x="30" y="36" onmousedown="handleReset()"/>
                <g id="arrowUp" xlink:href="#dirArrow" transform="translate(30 24)" onmousedown="handlePan(0,-1)">
                  <use xlink:href="#rim" fill="#404040">
                        <set attributeName="fill" to="#808080" begin="arrowUp.mouseover" end="arrowUp.mouseout"/>
                  </use>
                  <path fill="none" stroke="white" stroke-width="1.5" d="M0,-3.0v7 M-2.5,-0.5L0,-3.0L2.5,-0.5"/>
                </g>
                <g id="arrowRight" xlink:href="#dirArrow" transform="rotate(90) translate(36 -43)" onmousedown="handlePan(1,0)">
                  <use xlink:href="#rim" fill="#404040">
                        <set attributeName="fill" to="#808080" begin="arrowRight.mouseover" end="arrowRight.mouseout"/>
                  </use>
                  <path fill="none" stroke="white" stroke-width="1.5" d="M0,-3.0v7 M-2.5,-0.5L0,-3.0L2.5,-0.5"/>
                </g>
                <g id="arrowDown" xlink:href="#dirArrow" transform="rotate(180) translate(-30 -48)" onmousedown="handlePan(0,1)">
                  <use xlink:href="#rim" fill="#404040">
                        <set attributeName="fill" to="#808080" begin="arrowDown.mouseover" end="arrowDown.mouseout"/>
                  </use>
                  <path fill="none" stroke="white" stroke-width="1.5" d="M0,-3.0v7 M-2.5,-0.5L0,-3.0L2.5,-0.5"/>
                </g>
                <g id="arrowLeft" xlink:href="#dirArrow" transform="rotate(270) translate(-36 17)" onmousedown="handlePan(-1,0)">
                  <use xlink:href="#rim" fill="#404040">
                        <set attributeName="fill" to="#808080" begin="arrowLeft.mouseover" end="arrowLeft.mouseout"/>
                  </use>
                  <path fill="none" stroke="white" stroke-width="1.5" d="M0,-3.0v7 M-2.5,-0.5L0,-3.0L2.5,-0.5"/>
                </g>
        </g>
        <svg viewBox="0 0 15 15" width="100%" height="30px" preserveAspectRatio="xMaxYMin meet">
         <g id="arrow_out" transform="scale(0.3 0.3)">
          <a xlink:href="pb__frimessages__callbacks_8h__dep__incl_org.svg" target="_base">
           <rect id="button" ry="5" rx="5" y="6" x="6" height="38" width="38"
                fill="#f2f5e9" fill-opacity="0.5" stroke="#606060" stroke-width="1.0"/>
           <path id="arrow"
             d="M 11.500037,31.436501 C 11.940474,20.09759 22.043105,11.32322 32.158766,21.979434 L 37.068811,17.246167 C 37.068811,17.246167 37.088388,32 37.088388,32 L 22.160133,31.978069 C 22.160133,31.978069 26.997745,27.140456 26.997745,27.140456 C 18.528582,18.264221 13.291696,25.230495 11.500037,31.436501 z"
             style="fill:#404040;"/>
          </a>
         </g>
        </svg>
</svg>
