<?xml version="1.0" encoding="UTF-8" standalone="no"?>
<!DOCTYPE svg PUBLIC "-//W3C//DTD SVG 1.1//EN"
 "http://www.w3.org/Graphics/SVG/1.1/DTD/svg11.dtd">
<!-- Generated by graphviz version 2.43.0 (0)
 -->
<!-- Title: decode_pointer_field Pages: 1 -->
<svg width="533pt" height="66pt"
 viewBox="0.00 0.00 533.00 66.00" xmlns="http://www.w3.org/2000/svg" xmlns:xlink="http://www.w3.org/1999/xlink">
<g id="graph0" class="graph" transform="scale(1 1) rotate(0) translate(4 62)">
<title>decode_pointer_field</title>
<polygon fill="white" stroke="transparent" points="-4,4 -4,-62 529,-62 529,4 -4,4"/>
<!-- Node1 -->
<g id="node1" class="node">
<title>Node1</title>
<g id="a_node1"><a xlink:title=" ">
<polygon fill="#bfbfbf" stroke="black" points="0,-19.5 0,-38.5 106,-38.5 106,-19.5 0,-19.5"/>
<text text-anchor="middle" x="53" y="-26.5" font-family="Helvetica,sans-Serif" font-size="10.00">decode_pointer_field</text>
</a>
</g>
</g>
<!-- Node2 -->
<g id="node2" class="node">
<title>Node2</title>
<g id="a_node2"><a xlink:href="pb__decode_8c.html#ac0a84ef26be0f3bf894deaee63e5114c" target="_top" xlink:title=" ">
<polygon fill="white" stroke="black" points="142.5,-38.5 142.5,-57.5 278.5,-57.5 278.5,-38.5 142.5,-38.5"/>
<text text-anchor="middle" x="210.5" y="-45.5" font-family="Helvetica,sans-Serif" font-size="10.00">pb_close_string_substream</text>
</a>
</g>
</g>
<!-- Node1&#45;&gt;Node2 -->
<g id="edge1" class="edge">
<title>Node1&#45;&gt;Node2</title>
<path fill="none" stroke="midnightblue" d="M106.21,-35.38C114.61,-36.41 123.45,-37.49 132.29,-38.57"/>
<polygon fill="midnightblue" stroke="midnightblue" points="131.89,-42.04 142.24,-39.78 132.74,-35.09 131.89,-42.04"/>
</g>
<!-- Node3 -->
<g id="node3" class="node">
<title>Node3</title>
<g id="a_node3"><a xlink:href="pb__decode_8c.html#a7433fc394255932c4f00274e7f890721" target="_top" xlink:title=" ">
<polygon fill="white" stroke="black" points="142,-0.5 142,-19.5 279,-19.5 279,-0.5 142,-0.5"/>
<text text-anchor="middle" x="210.5" y="-7.5" font-family="Helvetica,sans-Serif" font-size="10.00">pb_make_string_substream</text>
</a>
</g>
</g>
<!-- Node1&#45;&gt;Node3 -->
<g id="edge2" class="edge">
<title>Node1&#45;&gt;Node3</title>
<path fill="none" stroke="midnightblue" d="M106.21,-22.62C114.46,-21.61 123.13,-20.55 131.81,-19.49"/>
<polygon fill="midnightblue" stroke="midnightblue" points="132.46,-22.94 141.96,-18.25 131.61,-15.99 132.46,-22.94"/>
</g>
<!-- Node4 -->
<g id="node4" class="node">
<title>Node4</title>
<g id="a_node4"><a xlink:href="pb__decode_8c.html#abef49f760a21798e59538eec4aea23c2" target="_top" xlink:title=" ">
<polygon fill="white" stroke="black" points="315,-0.5 315,-19.5 419,-19.5 419,-0.5 315,-0.5"/>
<text text-anchor="middle" x="367" y="-7.5" font-family="Helvetica,sans-Serif" font-size="10.00">pb_decode_varint32</text>
</a>
</g>
</g>
<!-- Node3&#45;&gt;Node4 -->
<g id="edge3" class="edge">
<title>Node3&#45;&gt;Node4</title>
<path fill="none" stroke="midnightblue" d="M279.27,-10C287.59,-10 296.06,-10 304.29,-10"/>
<polygon fill="midnightblue" stroke="midnightblue" points="304.55,-13.5 314.55,-10 304.55,-6.5 304.55,-13.5"/>
</g>
<!-- Node5 -->
<g id="node5" class="node">
<title>Node5</title>
<g id="a_node5"><a xlink:href="pb__decode_8c.html#a13d38bcceb0a06bfc8c4c9c6da0f7258" target="_top" xlink:title=" ">
<polygon fill="white" stroke="black" points="455,-0.5 455,-19.5 525,-19.5 525,-0.5 455,-0.5"/>
<text text-anchor="middle" x="490" y="-7.5" font-family="Helvetica,sans-Serif" font-size="10.00">pb_readbyte</text>
</a>
</g>
</g>
<!-- Node4&#45;&gt;Node5 -->
<g id="edge4" class="edge">
<title>Node4&#45;&gt;Node5</title>
<path fill="none" stroke="midnightblue" d="M419.31,-10C427.74,-10 436.41,-10 444.64,-10"/>
<polygon fill="midnightblue" stroke="midnightblue" points="444.79,-13.5 454.79,-10 444.79,-6.5 444.79,-13.5"/>
</g>
</g>
</svg>
