<?xml version="1.0" encoding="UTF-8" standalone="no"?>
<!DOCTYPE svg PUBLIC "-//W3C//DTD SVG 1.1//EN"
 "http://www.w3.org/Graphics/SVG/1.1/DTD/svg11.dtd">
<!-- Generated by graphviz version 2.43.0 (0)
 -->
<!-- Title: pb_decode_delimited Pages: 1 -->
<!--zoomable 528 -->
<svg id="main" version="1.1" xmlns="http://www.w3.org/2000/svg" xmlns:xlink="http://www.w3.org/1999/xlink" xml:space="preserve" onload="init(evt)">
<style type="text/css"><![CDATA[
.edge:hover path { stroke: red; }
.edge:hover polygon { stroke: red; fill: red; }
]]></style>
<script type="text/javascript"><![CDATA[
var edges = document.getElementsByTagName('g');
if (edges && edges.length) {
  for (var i=0;i<edges.length;i++) {
    if (edges[i].id.substr(0,4)=='edge') {
      edges[i].setAttribute('class','edge');
    }
  }
}
]]></script>
        <defs>
                <circle id="rim" cx="0" cy="0" r="7"/>
                <circle id="rim2" cx="0" cy="0" r="3.5"/>
                <g id="zoomPlus">
                        <use xlink:href="#rim" fill="#404040">
                                <set attributeName="fill" to="#808080" begin="zoomplus.mouseover" end="zoomplus.mouseout"/>
                        </use>
                        <path d="M-4,0h8M0,-4v8" fill="none" stroke="white" stroke-width="1.5" pointer-events="none"/>
                </g>
                <g id="zoomMin">
                        <use xlink:href="#rim" fill="#404040">
                                <set attributeName="fill" to="#808080" begin="zoomminus.mouseover" end="zoomminus.mouseout"/>
                        </use>
                        <path d="M-4,0h8" fill="none" stroke="white" stroke-width="1.5" pointer-events="none"/>
                </g>
                <g id="dirArrow">
                        <path fill="none" stroke="white" stroke-width="1.5" d="M0,-3.0v7 M-2.5,-0.5L0,-3.0L2.5,-0.5"/>
                </g>
               <g id="resetDef">
                       <use xlink:href="#rim2" fill="#404040">
                               <set attributeName="fill" to="#808080" begin="reset.mouseover" end="reset.mouseout"/>
                       </use>
               </g>
        </defs>

<script type="text/javascript">
var viewWidth = 1546;
var viewHeight = 528;
var sectionId = 'dynsection-27';
</script>
<script xlink:href="svgpan.js"/>
<svg id="graph" class="graph">
<g id="viewport">
<title>pb_decode_delimited</title>
<polygon fill="white" stroke="transparent" points="-4,4 -4,-523.97 1542,-523.97 1542,4 -4,4"/>
<!-- Node1 -->
<g id="node1" class="node">
<title>Node1</title>
<g id="a_node1"><a xlink:title=" ">
<polygon fill="#bfbfbf" stroke="black" points="0,-177.88 0,-196.88 108,-196.88 108,-177.88 0,-177.88"/>
<text text-anchor="middle" x="54" y="-184.88" font-family="Helvetica,sans-Serif" font-size="10.00">pb_decode_delimited</text>
</a>
</g>
</g>
<!-- Node2 -->
<g id="node2" class="node">
<title>Node2</title>
<g id="a_node2"><a xlink:href="pb__decode_8c.html#ac0a84ef26be0f3bf894deaee63e5114c" target="_top" xlink:title=" ">
<polygon fill="white" stroke="black" points="1000.5,-367.88 1000.5,-386.88 1136.5,-386.88 1136.5,-367.88 1000.5,-367.88"/>
<text text-anchor="middle" x="1068.5" y="-374.88" font-family="Helvetica,sans-Serif" font-size="10.00">pb_close_string_substream</text>
</a>
</g>
</g>
<!-- Node1&#45;&gt;Node2 -->
<g id="edge1" class="edge">
<title>Node1&#45;&gt;Node2</title>
<path fill="none" stroke="midnightblue" d="M59.72,-196.89C81.88,-240.04 180.22,-415.38 315,-415.38 315,-415.38 315,-415.38 774.5,-415.38 857.73,-415.38 953.16,-400.12 1011.89,-388.94"/>
<polygon fill="midnightblue" stroke="midnightblue" points="1012.91,-392.31 1022.06,-386.97 1011.58,-385.43 1012.91,-392.31"/>
</g>
<!-- Node3 -->
<g id="node3" class="node">
<title>Node3</title>
<g id="a_node3"><a xlink:href="pb__decode_8c.html#a75c9a727abe84bfaaef633ac68d48cfa" target="_top" xlink:title=" ">
<polygon fill="white" stroke="black" points="144,-177.88 144,-196.88 208,-196.88 208,-177.88 144,-177.88"/>
<text text-anchor="middle" x="176" y="-184.88" font-family="Helvetica,sans-Serif" font-size="10.00">pb_decode</text>
</a>
</g>
</g>
<!-- Node1&#45;&gt;Node3 -->
<g id="edge2" class="edge">
<title>Node1&#45;&gt;Node3</title>
<path fill="none" stroke="midnightblue" d="M108.33,-187.38C116.87,-187.38 125.59,-187.38 133.79,-187.38"/>
<polygon fill="midnightblue" stroke="midnightblue" points="133.85,-190.88 143.85,-187.38 133.85,-183.88 133.85,-190.88"/>
</g>
<!-- Node11 -->
<g id="node11" class="node">
<title>Node11</title>
<g id="a_node11"><a xlink:href="pb__decode_8c.html#a7433fc394255932c4f00274e7f890721" target="_top" xlink:title=" ">
<polygon fill="white" stroke="black" points="1000,-329.88 1000,-348.88 1137,-348.88 1137,-329.88 1000,-329.88"/>
<text text-anchor="middle" x="1068.5" y="-336.88" font-family="Helvetica,sans-Serif" font-size="10.00">pb_make_string_substream</text>
</a>
</g>
</g>
<!-- Node1&#45;&gt;Node11 -->
<g id="edge45" class="edge">
<title>Node1&#45;&gt;Node11</title>
<path fill="none" stroke="midnightblue" d="M65.71,-177.63C117.17,-131.97 344.03,55.37 527,-16.38 642.65,-61.74 626.91,-140.14 732,-206.38 827.41,-266.53 954.53,-307.85 1021.59,-327.08"/>
<polygon fill="midnightblue" stroke="midnightblue" points="1020.85,-330.51 1031.43,-329.87 1022.76,-323.78 1020.85,-330.51"/>
</g>
<!-- Node4 -->
<g id="node4" class="node">
<title>Node4</title>
<g id="a_node4"><a xlink:href="pb__decode_8c.html#a0c0f95a964239344d503e724818e8fc0" target="_top" xlink:title=" ">
<polygon fill="white" stroke="black" points="270,-253.88 270,-272.88 362,-272.88 362,-253.88 270,-253.88"/>
<text text-anchor="middle" x="316" y="-260.88" font-family="Helvetica,sans-Serif" font-size="10.00">pb_decode_noinit</text>
</a>
</g>
</g>
<!-- Node3&#45;&gt;Node4 -->
<g id="edge3" class="edge">
<title>Node3&#45;&gt;Node4</title>
<path fill="none" stroke="midnightblue" d="M194.48,-197.01C218.22,-210.09 260.88,-233.58 288.56,-248.82"/>
<polygon fill="midnightblue" stroke="midnightblue" points="287.22,-252.08 297.66,-253.84 290.59,-245.95 287.22,-252.08"/>
</g>
<!-- Node26 -->
<g id="node26" class="node">
<title>Node26</title>
<g id="a_node26"><a xlink:href="pb__decode_8c.html#a086200ce4dac8198dc0537e64318d66e" target="_top" xlink:title=" ">
<polygon fill="white" stroke="black" points="244,-101.88 244,-120.88 388,-120.88 388,-101.88 244,-101.88"/>
<text text-anchor="middle" x="316" y="-108.88" font-family="Helvetica,sans-Serif" font-size="10.00">pb_message_set_to_defaults</text>
</a>
</g>
</g>
<!-- Node3&#45;&gt;Node26 -->
<g id="edge40" class="edge">
<title>Node3&#45;&gt;Node26</title>
<path fill="none" stroke="midnightblue" d="M194.48,-177.76C218.22,-164.68 260.88,-141.19 288.56,-125.95"/>
<polygon fill="midnightblue" stroke="midnightblue" points="290.59,-128.82 297.66,-120.93 287.22,-122.69 290.59,-128.82"/>
</g>
<!-- Node5 -->
<g id="node5" class="node">
<title>Node5</title>
<g id="a_node5"><a xlink:href="pb__decode_8c.html#a30eb2ecefe2a2095c1c668e3932b63fc" target="_top" xlink:title=" ">
<polygon fill="white" stroke="black" points="428,-367.88 428,-386.88 523,-386.88 523,-367.88 428,-367.88"/>
<text text-anchor="middle" x="475.5" y="-374.88" font-family="Helvetica,sans-Serif" font-size="10.00">decode_extension</text>
</a>
</g>
</g>
<!-- Node4&#45;&gt;Node5 -->
<g id="edge4" class="edge">
<title>Node4&#45;&gt;Node5</title>
<path fill="none" stroke="midnightblue" d="M326.65,-272.99C344.64,-290.55 385,-328.31 424,-353.38 429.57,-356.97 435.76,-360.35 441.85,-363.37"/>
<polygon fill="midnightblue" stroke="midnightblue" points="440.68,-366.69 451.21,-367.82 443.68,-360.37 440.68,-366.69"/>
</g>
<!-- Node7 -->
<g id="node7" class="node">
<title>Node7</title>
<g id="a_node7"><a xlink:href="pb__decode_8c.html#a48151430d329252cc54fd9764dd820f7" target="_top" xlink:title=" ">
<polygon fill="white" stroke="black" points="738,-367.88 738,-386.88 809,-386.88 809,-367.88 738,-367.88"/>
<text text-anchor="middle" x="773.5" y="-374.88" font-family="Helvetica,sans-Serif" font-size="10.00">decode_field</text>
</a>
</g>
</g>
<!-- Node4&#45;&gt;Node7 -->
<g id="edge30" class="edge">
<title>Node4&#45;&gt;Node7</title>
<path fill="none" stroke="midnightblue" d="M344.96,-273.01C366.44,-280.21 396.91,-290.06 424,-297.38 543.59,-329.73 575.43,-329.9 696,-358.38 706.4,-360.84 717.56,-363.56 728.07,-366.17"/>
<polygon fill="midnightblue" stroke="midnightblue" points="727.34,-369.59 737.89,-368.61 729.03,-362.8 727.34,-369.59"/>
</g>
<!-- Node14 -->
<g id="node14" class="node">
<title>Node14</title>
<g id="a_node14"><a xlink:href="pb__decode_8c.html#ab5102942c8402c215f836364e1b775b1" target="_top" xlink:title=" ">
<polygon fill="white" stroke="black" points="1031.5,-481.88 1031.5,-500.88 1105.5,-500.88 1105.5,-481.88 1031.5,-481.88"/>
<text text-anchor="middle" x="1068.5" y="-488.88" font-family="Helvetica,sans-Serif" font-size="10.00">pb_skip_field</text>
</a>
</g>
</g>
<!-- Node4&#45;&gt;Node14 -->
<g id="edge39" class="edge">
<title>Node4&#45;&gt;Node14</title>
<path fill="none" stroke="midnightblue" d="M322.56,-273.01C336.71,-296.79 376.39,-359.12 424,-396.38 502.92,-458.15 528.28,-491.38 628.5,-491.38 628.5,-491.38 628.5,-491.38 774.5,-491.38 861.66,-491.38 963.39,-491.38 1021.15,-491.38"/>
<polygon fill="midnightblue" stroke="midnightblue" points="1021.41,-494.88 1031.41,-491.38 1021.41,-487.88 1021.41,-494.88"/>
</g>
<!-- Node21 -->
<g id="node21" class="node">
<title>Node21</title>
<g id="a_node21"><a xlink:href="pb__decode_8c.html#a45b7deb9b949803e7342070ca209d4be" target="_top" xlink:title=" ">
<polygon fill="white" stroke="black" points="424,-253.88 424,-272.88 527,-272.88 527,-253.88 424,-253.88"/>
<text text-anchor="middle" x="475.5" y="-260.88" font-family="Helvetica,sans-Serif" font-size="10.00">find_extension_field</text>
</a>
</g>
</g>
<!-- Node4&#45;&gt;Node21 -->
<g id="edge31" class="edge">
<title>Node4&#45;&gt;Node21</title>
<path fill="none" stroke="midnightblue" d="M362.13,-263.38C378.09,-263.38 396.32,-263.38 413.38,-263.38"/>
<polygon fill="midnightblue" stroke="midnightblue" points="413.82,-266.88 423.82,-263.38 413.82,-259.88 413.82,-266.88"/>
</g>
<!-- Node22 -->
<g id="node22" class="node">
<title>Node22</title>
<g id="a_node22"><a xlink:href="pb__decode_8c.html#ac2d909d6194bfbca3c31b95749c4e848" target="_top" xlink:title=" ">
<polygon fill="white" stroke="black" points="592.5,-253.88 592.5,-272.88 666.5,-272.88 666.5,-253.88 592.5,-253.88"/>
<text text-anchor="middle" x="629.5" y="-260.88" font-family="Helvetica,sans-Serif" font-size="10.00">pb_field_next</text>
</a>
</g>
</g>
<!-- Node4&#45;&gt;Node22 -->
<g id="edge38" class="edge">
<title>Node4&#45;&gt;Node22</title>
<path fill="none" stroke="midnightblue" d="M360.5,-272.9C379.84,-276.66 402.95,-280.53 424,-282.38 469.6,-286.4 481.42,-286.61 527,-282.38 545.21,-280.69 565.01,-277.34 582.26,-273.91"/>
<polygon fill="midnightblue" stroke="midnightblue" points="582.99,-277.33 592.09,-271.89 581.59,-270.47 582.99,-277.33"/>
</g>
<!-- Node23 -->
<g id="node23" class="node">
<title>Node23</title>
<g id="a_node23"><a xlink:href="pb__decode_8c.html#aefe6134d81ea2f861f0111984553b23b" target="_top" xlink:title=" ">
<polygon fill="white" stroke="black" points="732,-177.88 732,-196.88 815,-196.88 815,-177.88 732,-177.88"/>
<text text-anchor="middle" x="773.5" y="-184.88" font-family="Helvetica,sans-Serif" font-size="10.00">pb_decode_tag</text>
</a>
</g>
</g>
<!-- Node4&#45;&gt;Node23 -->
<g id="edge33" class="edge">
<title>Node4&#45;&gt;Node23</title>
<path fill="none" stroke="midnightblue" d="M330.37,-253.76C349.86,-240.34 387.71,-216.5 424,-206.38 526.71,-177.74 652.88,-179.5 721.73,-183.4"/>
<polygon fill="midnightblue" stroke="midnightblue" points="721.67,-186.9 731.87,-184.01 722.1,-179.91 721.67,-186.9"/>
</g>
<!-- Node24 -->
<g id="node24" class="node">
<title>Node24</title>
<g id="a_node24"><a xlink:href="pb__decode_8c.html#a7897e383f3ae811b1afc2ecd36277512" target="_top" xlink:title=" ">
<polygon fill="white" stroke="black" points="440,-215.88 440,-234.88 511,-234.88 511,-215.88 440,-215.88"/>
<text text-anchor="middle" x="475.5" y="-222.88" font-family="Helvetica,sans-Serif" font-size="10.00">pb_field_find</text>
</a>
</g>
</g>
<!-- Node4&#45;&gt;Node24 -->
<g id="edge35" class="edge">
<title>Node4&#45;&gt;Node24</title>
<path fill="none" stroke="midnightblue" d="M356.74,-253.8C379.05,-248.41 406.94,-241.68 429.98,-236.12"/>
<polygon fill="midnightblue" stroke="midnightblue" points="430.96,-239.49 439.86,-233.74 429.31,-232.69 430.96,-239.49"/>
</g>
<!-- Node25 -->
<g id="node25" class="node">
<title>Node25</title>
<g id="a_node25"><a xlink:href="pb__decode_8c.html#a1dd25c1621de36f7de14a3b9ba2c532d" target="_top" xlink:title=" ">
<polygon fill="white" stroke="black" points="441.5,-139.88 441.5,-158.88 509.5,-158.88 509.5,-139.88 441.5,-139.88"/>
<text text-anchor="middle" x="475.5" y="-146.88" font-family="Helvetica,sans-Serif" font-size="10.00">pb_field_init</text>
</a>
</g>
</g>
<!-- Node4&#45;&gt;Node25 -->
<g id="edge37" class="edge">
<title>Node4&#45;&gt;Node25</title>
<path fill="none" stroke="midnightblue" d="M326.65,-253.77C344.64,-236.22 385,-198.46 424,-173.38 429.57,-169.8 435.76,-166.42 441.85,-163.39"/>
<polygon fill="midnightblue" stroke="midnightblue" points="443.68,-166.4 451.21,-158.94 440.68,-160.07 443.68,-166.4"/>
</g>
<!-- Node6 -->
<g id="node6" class="node">
<title>Node6</title>
<g id="a_node6"><a xlink:href="pb__decode_8c.html#a7c09905fda4c6398697bcf0d42882c04" target="_top" xlink:title=" ">
<polygon fill="white" stroke="black" points="563,-367.88 563,-386.88 696,-386.88 696,-367.88 563,-367.88"/>
<text text-anchor="middle" x="629.5" y="-374.88" font-family="Helvetica,sans-Serif" font-size="10.00">default_extension_decoder</text>
</a>
</g>
</g>
<!-- Node5&#45;&gt;Node6 -->
<g id="edge5" class="edge">
<title>Node5&#45;&gt;Node6</title>
<path fill="none" stroke="midnightblue" d="M523.35,-377.38C532.7,-377.38 542.75,-377.38 552.79,-377.38"/>
<polygon fill="midnightblue" stroke="midnightblue" points="552.81,-380.88 562.81,-377.38 552.81,-373.88 552.81,-380.88"/>
</g>
<!-- Node6&#45;&gt;Node7 -->
<g id="edge6" class="edge">
<title>Node6&#45;&gt;Node7</title>
<path fill="none" stroke="midnightblue" d="M696.1,-377.38C706.78,-377.38 717.62,-377.38 727.65,-377.38"/>
<polygon fill="midnightblue" stroke="midnightblue" points="727.77,-380.88 737.77,-377.38 727.77,-373.88 727.77,-380.88"/>
</g>
<!-- Node8 -->
<g id="node8" class="node">
<title>Node8</title>
<g id="a_node8"><a xlink:href="pb__decode_8c.html#a69a78d2efcd4b9057215ac8b79a5eb2b" target="_top" xlink:title=" ">
<polygon fill="white" stroke="black" points="851,-443.88 851,-462.88 964,-462.88 964,-443.88 851,-443.88"/>
<text text-anchor="middle" x="907.5" y="-450.88" font-family="Helvetica,sans-Serif" font-size="10.00">decode_callback_field</text>
</a>
</g>
</g>
<!-- Node7&#45;&gt;Node8 -->
<g id="edge7" class="edge">
<title>Node7&#45;&gt;Node8</title>
<path fill="none" stroke="midnightblue" d="M791.22,-387.01C813.93,-400.09 854.73,-423.58 881.21,-438.82"/>
<polygon fill="midnightblue" stroke="midnightblue" points="879.51,-441.88 889.92,-443.84 883,-435.81 879.51,-441.88"/>
</g>
<!-- Node19 -->
<g id="node19" class="node">
<title>Node19</title>
<g id="a_node19"><a xlink:href="pb__decode_8c.html#af65dd063304df2ed380dc411bb6caae6" target="_top" xlink:title=" ">
<polygon fill="white" stroke="black" points="854.5,-367.88 854.5,-386.88 960.5,-386.88 960.5,-367.88 854.5,-367.88"/>
<text text-anchor="middle" x="907.5" y="-374.88" font-family="Helvetica,sans-Serif" font-size="10.00">decode_pointer_field</text>
</a>
</g>
</g>
<!-- Node7&#45;&gt;Node19 -->
<g id="edge24" class="edge">
<title>Node7&#45;&gt;Node19</title>
<path fill="none" stroke="midnightblue" d="M809.18,-377.38C819.98,-377.38 832.24,-377.38 844.33,-377.38"/>
<polygon fill="midnightblue" stroke="midnightblue" points="844.4,-380.88 854.4,-377.38 844.4,-373.88 844.4,-380.88"/>
</g>
<!-- Node20 -->
<g id="node20" class="node">
<title>Node20</title>
<g id="a_node20"><a xlink:href="pb__decode_8c.html#a02c14bf9763a469e0414bf9a1eb13632" target="_top" xlink:title=" ">
<polygon fill="white" stroke="black" points="857,-329.88 857,-348.88 958,-348.88 958,-329.88 857,-329.88"/>
<text text-anchor="middle" x="907.5" y="-336.88" font-family="Helvetica,sans-Serif" font-size="10.00">decode_static_field</text>
</a>
</g>
</g>
<!-- Node7&#45;&gt;Node20 -->
<g id="edge27" class="edge">
<title>Node7&#45;&gt;Node20</title>
<path fill="none" stroke="midnightblue" d="M807.81,-367.8C824.69,-362.93 845.39,-356.97 863.47,-351.77"/>
<polygon fill="midnightblue" stroke="midnightblue" points="864.56,-355.1 873.2,-348.97 862.62,-348.37 864.56,-355.1"/>
</g>
<!-- Node8&#45;&gt;Node2 -->
<g id="edge8" class="edge">
<title>Node8&#45;&gt;Node2</title>
<path fill="none" stroke="midnightblue" d="M934.31,-443.82C943.89,-439.85 954.7,-434.89 964,-429.38 981.44,-419.06 982.22,-411.13 1000,-401.38 1007.6,-397.22 1016.07,-393.54 1024.37,-390.39"/>
<polygon fill="midnightblue" stroke="midnightblue" points="1025.74,-393.62 1033.97,-386.95 1023.38,-387.03 1025.74,-393.62"/>
</g>
<!-- Node9 -->
<g id="node9" class="node">
<title>Node9</title>
<g id="a_node9"><a xlink:href="pb__decode_8c.html#a37dc2b0c54c27ddd29791e7522c85548" target="_top" xlink:title=" ">
<polygon fill="white" stroke="black" points="1173,-367.88 1173,-386.88 1292,-386.88 1292,-367.88 1173,-367.88"/>
<text text-anchor="middle" x="1232.5" y="-374.88" font-family="Helvetica,sans-Serif" font-size="10.00">pb_istream_from_buffer</text>
</a>
</g>
</g>
<!-- Node8&#45;&gt;Node9 -->
<g id="edge9" class="edge">
<title>Node8&#45;&gt;Node9</title>
<path fill="none" stroke="midnightblue" d="M949.08,-443.84C1008.03,-429.97 1117.26,-404.27 1181.22,-389.21"/>
<polygon fill="midnightblue" stroke="midnightblue" points="1182.15,-392.59 1191.08,-386.89 1180.55,-385.78 1182.15,-392.59"/>
</g>
<!-- Node8&#45;&gt;Node11 -->
<g id="edge11" class="edge">
<title>Node8&#45;&gt;Node11</title>
<path fill="none" stroke="midnightblue" d="M917.97,-443.74C929.05,-432.44 947.93,-413.12 964,-396.38 980.12,-379.61 980.09,-370.41 1000,-358.38 1003.58,-356.22 1007.41,-354.3 1011.36,-352.59"/>
<polygon fill="midnightblue" stroke="midnightblue" points="1012.66,-355.84 1020.74,-348.98 1010.15,-349.31 1012.66,-355.84"/>
</g>
<!-- Node8&#45;&gt;Node14 -->
<g id="edge14" class="edge">
<title>Node8&#45;&gt;Node14</title>
<path fill="none" stroke="midnightblue" d="M948.62,-462.97C970.82,-468.28 998.5,-474.89 1021.56,-480.4"/>
<polygon fill="midnightblue" stroke="midnightblue" points="1020.92,-483.85 1031.46,-482.77 1022.55,-477.04 1020.92,-483.85"/>
</g>
<!-- Node18 -->
<g id="node18" class="node">
<title>Node18</title>
<g id="a_node18"><a xlink:href="pb__decode_8c.html#a3f23856ca4723854f204b46d5f10c3ec" target="_top" xlink:title=" ">
<polygon fill="white" stroke="black" points="1190,-443.88 1190,-462.88 1275,-462.88 1275,-443.88 1190,-443.88"/>
<text text-anchor="middle" x="1232.5" y="-450.88" font-family="Helvetica,sans-Serif" font-size="10.00">read_raw_value</text>
</a>
</g>
</g>
<!-- Node8&#45;&gt;Node18 -->
<g id="edge22" class="edge">
<title>Node8&#45;&gt;Node18</title>
<path fill="none" stroke="midnightblue" d="M964.03,-453.38C1024.43,-453.38 1120.25,-453.38 1179.31,-453.38"/>
<polygon fill="midnightblue" stroke="midnightblue" points="1179.54,-456.88 1189.54,-453.38 1179.54,-449.88 1179.54,-456.88"/>
</g>
<!-- Node10 -->
<g id="node10" class="node">
<title>Node10</title>
<g id="a_node10"><a xlink:href="pb__decode_8c.html#a9746f7244f9d14b2a095ddfcad55febe" target="_top" xlink:title=" ">
<polygon fill="white" stroke="black" points="1476,-405.88 1476,-424.88 1530,-424.88 1530,-405.88 1476,-405.88"/>
<text text-anchor="middle" x="1503" y="-412.88" font-family="Helvetica,sans-Serif" font-size="10.00">buf_read</text>
</a>
</g>
</g>
<!-- Node9&#45;&gt;Node10 -->
<g id="edge10" class="edge">
<title>Node9&#45;&gt;Node10</title>
<path fill="none" stroke="midnightblue" d="M1292.09,-385.68C1344.95,-393.16 1421.03,-403.92 1465.61,-410.23"/>
<polygon fill="midnightblue" stroke="midnightblue" points="1465.3,-413.72 1475.69,-411.66 1466.28,-406.79 1465.3,-413.72"/>
</g>
<!-- Node12 -->
<g id="node12" class="node">
<title>Node12</title>
<g id="a_node12"><a xlink:href="pb__decode_8c.html#abef49f760a21798e59538eec4aea23c2" target="_top" xlink:title=" ">
<polygon fill="white" stroke="black" points="1328,-329.88 1328,-348.88 1432,-348.88 1432,-329.88 1328,-329.88"/>
<text text-anchor="middle" x="1380" y="-336.88" font-family="Helvetica,sans-Serif" font-size="10.00">pb_decode_varint32</text>
</a>
</g>
</g>
<!-- Node11&#45;&gt;Node12 -->
<g id="edge12" class="edge">
<title>Node11&#45;&gt;Node12</title>
<path fill="none" stroke="midnightblue" d="M1137.04,-339.38C1190.9,-339.38 1265.69,-339.38 1317.81,-339.38"/>
<polygon fill="midnightblue" stroke="midnightblue" points="1317.91,-342.88 1327.91,-339.38 1317.91,-335.88 1317.91,-342.88"/>
</g>
<!-- Node13 -->
<g id="node13" class="node">
<title>Node13</title>
<g id="a_node13"><a xlink:href="pb__decode_8c.html#a13d38bcceb0a06bfc8c4c9c6da0f7258" target="_top" xlink:title=" ">
<polygon fill="white" stroke="black" points="1468,-329.88 1468,-348.88 1538,-348.88 1538,-329.88 1468,-329.88"/>
<text text-anchor="middle" x="1503" y="-336.88" font-family="Helvetica,sans-Serif" font-size="10.00">pb_readbyte</text>
</a>
</g>
</g>
<!-- Node12&#45;&gt;Node13 -->
<g id="edge13" class="edge">
<title>Node12&#45;&gt;Node13</title>
<path fill="none" stroke="midnightblue" d="M1432.31,-339.38C1440.74,-339.38 1449.41,-339.38 1457.64,-339.38"/>
<polygon fill="midnightblue" stroke="midnightblue" points="1457.79,-342.88 1467.79,-339.38 1457.79,-335.88 1457.79,-342.88"/>
</g>
<!-- Node15 -->
<g id="node15" class="node">
<title>Node15</title>
<g id="a_node15"><a xlink:href="pb__decode_8c.html#ad54a52168427208d756087919ff82d41" target="_top" xlink:title=" ">
<polygon fill="white" stroke="black" points="1354.5,-443.88 1354.5,-462.88 1405.5,-462.88 1405.5,-443.88 1354.5,-443.88"/>
<text text-anchor="middle" x="1380" y="-450.88" font-family="Helvetica,sans-Serif" font-size="10.00">pb_read</text>
</a>
</g>
</g>
<!-- Node14&#45;&gt;Node15 -->
<g id="edge15" class="edge">
<title>Node14&#45;&gt;Node15</title>
<path fill="none" stroke="midnightblue" d="M1099.73,-500.89C1143.22,-513.03 1225.5,-530.23 1292,-510.38 1318.52,-502.47 1344.47,-483.6 1361.03,-469.73"/>
<polygon fill="midnightblue" stroke="midnightblue" points="1363.51,-472.21 1368.78,-463.01 1358.93,-466.91 1363.51,-472.21"/>
</g>
<!-- Node16 -->
<g id="node16" class="node">
<title>Node16</title>
<g id="a_node16"><a xlink:href="pb__decode_8c.html#afa3e9c4da6d998fd6315d4cbd51b02e4" target="_top" xlink:title=" ">
<polygon fill="white" stroke="black" points="1192.5,-405.88 1192.5,-424.88 1272.5,-424.88 1272.5,-405.88 1192.5,-405.88"/>
<text text-anchor="middle" x="1232.5" y="-412.88" font-family="Helvetica,sans-Serif" font-size="10.00">pb_skip_string</text>
</a>
</g>
</g>
<!-- Node14&#45;&gt;Node16 -->
<g id="edge17" class="edge">
<title>Node14&#45;&gt;Node16</title>
<path fill="none" stroke="midnightblue" d="M1084.81,-481.74C1104.62,-469.56 1140.43,-448.49 1173,-434.38 1178.02,-432.21 1183.38,-430.14 1188.73,-428.23"/>
<polygon fill="midnightblue" stroke="midnightblue" points="1189.97,-431.51 1198.3,-424.96 1187.7,-424.88 1189.97,-431.51"/>
</g>
<!-- Node17 -->
<g id="node17" class="node">
<title>Node17</title>
<g id="a_node17"><a xlink:href="pb__decode_8c.html#a57738ceef4b30349437900b245a33c77" target="_top" xlink:title=" ">
<polygon fill="white" stroke="black" points="1192.5,-481.88 1192.5,-500.88 1272.5,-500.88 1272.5,-481.88 1192.5,-481.88"/>
<text text-anchor="middle" x="1232.5" y="-488.88" font-family="Helvetica,sans-Serif" font-size="10.00">pb_skip_varint</text>
</a>
</g>
</g>
<!-- Node14&#45;&gt;Node17 -->
<g id="edge20" class="edge">
<title>Node14&#45;&gt;Node17</title>
<path fill="none" stroke="midnightblue" d="M1105.86,-491.38C1128.38,-491.38 1157.61,-491.38 1182.21,-491.38"/>
<polygon fill="midnightblue" stroke="midnightblue" points="1182.44,-494.88 1192.44,-491.38 1182.44,-487.88 1182.44,-494.88"/>
</g>
<!-- Node15&#45;&gt;Node10 -->
<g id="edge16" class="edge">
<title>Node15&#45;&gt;Node10</title>
<path fill="none" stroke="midnightblue" d="M1405.78,-445.6C1423.09,-440.17 1446.48,-432.82 1465.86,-426.73"/>
<polygon fill="midnightblue" stroke="midnightblue" points="1467.09,-430.02 1475.58,-423.68 1464.99,-423.34 1467.09,-430.02"/>
</g>
<!-- Node16&#45;&gt;Node12 -->
<g id="edge18" class="edge">
<title>Node16&#45;&gt;Node12</title>
<path fill="none" stroke="midnightblue" d="M1268.12,-405.82C1276.12,-403.15 1284.49,-399.98 1292,-396.38 1316.13,-384.82 1341.47,-367.55 1358.54,-355.05"/>
<polygon fill="midnightblue" stroke="midnightblue" points="1360.73,-357.78 1366.66,-349 1356.55,-352.16 1360.73,-357.78"/>
</g>
<!-- Node16&#45;&gt;Node15 -->
<g id="edge19" class="edge">
<title>Node16&#45;&gt;Node15</title>
<path fill="none" stroke="midnightblue" d="M1270.22,-424.97C1292.99,-430.92 1322.08,-438.52 1344.44,-444.36"/>
<polygon fill="midnightblue" stroke="midnightblue" points="1343.63,-447.76 1354.19,-446.91 1345.4,-440.99 1343.63,-447.76"/>
</g>
<!-- Node17&#45;&gt;Node15 -->
<g id="edge21" class="edge">
<title>Node17&#45;&gt;Node15</title>
<path fill="none" stroke="midnightblue" d="M1270.22,-481.8C1292.99,-475.85 1322.08,-468.25 1344.44,-462.41"/>
<polygon fill="midnightblue" stroke="midnightblue" points="1345.4,-465.78 1354.19,-459.86 1343.63,-459 1345.4,-465.78"/>
</g>
<!-- Node18&#45;&gt;Node15 -->
<g id="edge23" class="edge">
<title>Node18&#45;&gt;Node15</title>
<path fill="none" stroke="midnightblue" d="M1275.19,-453.38C1296.93,-453.38 1323.23,-453.38 1343.91,-453.38"/>
<polygon fill="midnightblue" stroke="midnightblue" points="1344.16,-456.88 1354.16,-453.38 1344.16,-449.88 1344.16,-456.88"/>
</g>
<!-- Node19&#45;&gt;Node2 -->
<g id="edge25" class="edge">
<title>Node19&#45;&gt;Node2</title>
<path fill="none" stroke="midnightblue" d="M960.56,-377.38C970.07,-377.38 980.18,-377.38 990.24,-377.38"/>
<polygon fill="midnightblue" stroke="midnightblue" points="990.26,-380.88 1000.26,-377.38 990.26,-373.88 990.26,-380.88"/>
</g>
<!-- Node19&#45;&gt;Node11 -->
<g id="edge26" class="edge">
<title>Node19&#45;&gt;Node11</title>
<path fill="none" stroke="midnightblue" d="M948.62,-367.8C969.6,-362.78 995.48,-356.6 1017.73,-351.28"/>
<polygon fill="midnightblue" stroke="midnightblue" points="1018.75,-354.63 1027.67,-348.9 1017.13,-347.82 1018.75,-354.63"/>
</g>
<!-- Node20&#45;&gt;Node2 -->
<g id="edge28" class="edge">
<title>Node20&#45;&gt;Node2</title>
<path fill="none" stroke="midnightblue" d="M948.62,-348.97C969.6,-353.99 995.48,-360.17 1017.73,-365.49"/>
<polygon fill="midnightblue" stroke="midnightblue" points="1017.13,-368.94 1027.67,-367.86 1018.75,-362.14 1017.13,-368.94"/>
</g>
<!-- Node20&#45;&gt;Node11 -->
<g id="edge29" class="edge">
<title>Node20&#45;&gt;Node11</title>
<path fill="none" stroke="midnightblue" d="M958.37,-339.38C968.31,-339.38 978.97,-339.38 989.59,-339.38"/>
<polygon fill="midnightblue" stroke="midnightblue" points="989.74,-342.88 999.74,-339.38 989.74,-335.88 989.74,-342.88"/>
</g>
<!-- Node21&#45;&gt;Node22 -->
<g id="edge32" class="edge">
<title>Node21&#45;&gt;Node22</title>
<path fill="none" stroke="midnightblue" d="M527.11,-263.38C544.71,-263.38 564.35,-263.38 581.63,-263.38"/>
<polygon fill="midnightblue" stroke="midnightblue" points="582.04,-266.88 592.04,-263.38 582.04,-259.88 582.04,-266.88"/>
</g>
<!-- Node23&#45;&gt;Node12 -->
<g id="edge34" class="edge">
<title>Node23&#45;&gt;Node12</title>
<path fill="none" stroke="midnightblue" d="M815.14,-190.48C853.74,-193.9 913.27,-200.43 964,-211.38 1107.65,-242.39 1273.13,-300.38 1343.93,-326.29"/>
<polygon fill="midnightblue" stroke="midnightblue" points="1343.08,-329.71 1353.67,-329.88 1345.49,-323.14 1343.08,-329.71"/>
</g>
<!-- Node24&#45;&gt;Node22 -->
<g id="edge36" class="edge">
<title>Node24&#45;&gt;Node22</title>
<path fill="none" stroke="midnightblue" d="M511.37,-234.1C532.52,-239.39 559.75,-246.2 582.63,-251.92"/>
<polygon fill="midnightblue" stroke="midnightblue" points="581.92,-255.35 592.47,-254.38 583.62,-248.56 581.92,-255.35"/>
</g>
<!-- Node26&#45;&gt;Node22 -->
<g id="edge44" class="edge">
<title>Node26&#45;&gt;Node22</title>
<path fill="none" stroke="midnightblue" d="M365.41,-101.85C411.89,-95.62 481.56,-94.31 527,-130.38 566.96,-162.11 527.51,-202.73 563,-239.38 568.51,-245.07 575.48,-249.42 582.8,-252.74"/>
<polygon fill="midnightblue" stroke="midnightblue" points="581.59,-256.03 592.18,-256.43 584.15,-249.51 581.59,-256.03"/>
</g>
<!-- Node26&#45;&gt;Node25 -->
<g id="edge43" class="edge">
<title>Node26&#45;&gt;Node25</title>
<path fill="none" stroke="midnightblue" d="M356.74,-120.97C379.53,-126.47 408.14,-133.37 431.45,-139"/>
<polygon fill="midnightblue" stroke="midnightblue" points="430.87,-142.46 441.42,-141.4 432.52,-135.65 430.87,-142.46"/>
</g>
<!-- Node27 -->
<g id="node27" class="node">
<title>Node27</title>
<g id="a_node27"><a xlink:href="pb__syshdr_8h.html#a39dc31816e18e5a0b48da2865a4b698c" target="_top" xlink:title=" ">
<polygon fill="white" stroke="black" points="448.5,-25.88 448.5,-44.88 502.5,-44.88 502.5,-25.88 448.5,-25.88"/>
<text text-anchor="middle" x="475.5" y="-32.88" font-family="Helvetica,sans-Serif" font-size="10.00">memcpy</text>
</a>
</g>
</g>
<!-- Node26&#45;&gt;Node27 -->
<g id="edge41" class="edge">
<title>Node26&#45;&gt;Node27</title>
<path fill="none" stroke="midnightblue" d="M333.35,-101.82C354.05,-89.9 391.01,-69.3 424,-54.38 428.73,-52.24 433.79,-50.14 438.8,-48.16"/>
<polygon fill="midnightblue" stroke="midnightblue" points="440.21,-51.36 448.29,-44.51 437.7,-44.83 440.21,-51.36"/>
</g>
<!-- Node28 -->
<g id="node28" class="node">
<title>Node28</title>
<g id="a_node28"><a xlink:href="pb__syshdr_8h.html#aebca9679ad3da8a3bfe87d58959c7ca5" target="_top" xlink:title=" ">
<polygon fill="white" stroke="black" points="449.5,-63.88 449.5,-82.88 501.5,-82.88 501.5,-63.88 449.5,-63.88"/>
<text text-anchor="middle" x="475.5" y="-70.88" font-family="Helvetica,sans-Serif" font-size="10.00">memset</text>
</a>
</g>
</g>
<!-- Node26&#45;&gt;Node28 -->
<g id="edge42" class="edge">
<title>Node26&#45;&gt;Node28</title>
<path fill="none" stroke="midnightblue" d="M356.74,-101.8C382.1,-95.68 414.68,-87.82 439.13,-81.92"/>
<polygon fill="midnightblue" stroke="midnightblue" points="440.17,-85.27 449.07,-79.52 438.53,-78.46 440.17,-85.27"/>
</g>
</g>
</svg>
        <g id="navigator" transform="translate(0 0)" fill="#404254">
                <rect fill="#f2f5e9" fill-opacity="0.5" stroke="#606060" stroke-width=".5" x="0" y="0" width="60" height="60"/>
                <use id="zoomplus" xlink:href="#zoomPlus" x="17" y="9" onmousedown="handleZoom(evt,'in')"/>
                <use id="zoomminus" xlink:href="#zoomMin" x="42" y="9" onmousedown="handleZoom(evt,'out')"/>
                <use id="reset" xlink:href="#resetDef" x="30" y="36" onmousedown="handleReset()"/>
                <g id="arrowUp" xlink:href="#dirArrow" transform="translate(30 24)" onmousedown="handlePan(0,-1)">
                  <use xlink:href="#rim" fill="#404040">
                        <set attributeName="fill" to="#808080" begin="arrowUp.mouseover" end="arrowUp.mouseout"/>
                  </use>
                  <path fill="none" stroke="white" stroke-width="1.5" d="M0,-3.0v7 M-2.5,-0.5L0,-3.0L2.5,-0.5"/>
                </g>
                <g id="arrowRight" xlink:href="#dirArrow" transform="rotate(90) translate(36 -43)" onmousedown="handlePan(1,0)">
                  <use xlink:href="#rim" fill="#404040">
                        <set attributeName="fill" to="#808080" begin="arrowRight.mouseover" end="arrowRight.mouseout"/>
                  </use>
                  <path fill="none" stroke="white" stroke-width="1.5" d="M0,-3.0v7 M-2.5,-0.5L0,-3.0L2.5,-0.5"/>
                </g>
                <g id="arrowDown" xlink:href="#dirArrow" transform="rotate(180) translate(-30 -48)" onmousedown="handlePan(0,1)">
                  <use xlink:href="#rim" fill="#404040">
                        <set attributeName="fill" to="#808080" begin="arrowDown.mouseover" end="arrowDown.mouseout"/>
                  </use>
                  <path fill="none" stroke="white" stroke-width="1.5" d="M0,-3.0v7 M-2.5,-0.5L0,-3.0L2.5,-0.5"/>
                </g>
                <g id="arrowLeft" xlink:href="#dirArrow" transform="rotate(270) translate(-36 17)" onmousedown="handlePan(-1,0)">
                  <use xlink:href="#rim" fill="#404040">
                        <set attributeName="fill" to="#808080" begin="arrowLeft.mouseover" end="arrowLeft.mouseout"/>
                  </use>
                  <path fill="none" stroke="white" stroke-width="1.5" d="M0,-3.0v7 M-2.5,-0.5L0,-3.0L2.5,-0.5"/>
                </g>
        </g>
        <svg viewBox="0 0 15 15" width="100%" height="30px" preserveAspectRatio="xMaxYMin meet">
         <g id="arrow_out" transform="scale(0.3 0.3)">
          <a xlink:href="pb__decode_8c_a7c030d7dee687e354a62a72d45dca39b_cgraph_org.svg" target="_base">
           <rect id="button" ry="5" rx="5" y="6" x="6" height="38" width="38"
                fill="#f2f5e9" fill-opacity="0.5" stroke="#606060" stroke-width="1.0"/>
           <path id="arrow"
             d="M 11.500037,31.436501 C 11.940474,20.09759 22.043105,11.32322 32.158766,21.979434 L 37.068811,17.246167 C 37.068811,17.246167 37.088388,32 37.088388,32 L 22.160133,31.978069 C 22.160133,31.978069 26.997745,27.140456 26.997745,27.140456 C 18.528582,18.264221 13.291696,25.230495 11.500037,31.436501 z"
             style="fill:#404040;"/>
          </a>
         </g>
        </svg>
</svg>
