<?xml version="1.0" encoding="UTF-8" standalone="no"?>
<!DOCTYPE svg PUBLIC "-//W3C//DTD SVG 1.1//EN"
 "http://www.w3.org/Graphics/SVG/1.1/DTD/svg11.dtd">
<!-- Generated by graphviz version 2.43.0 (0)
 -->
<!-- Title: encode_basic_field Pages: 1 -->
<!--zoomable 116 -->
<svg id="main" version="1.1" xmlns="http://www.w3.org/2000/svg" xmlns:xlink="http://www.w3.org/1999/xlink" xml:space="preserve" onload="init(evt)">
<style type="text/css"><![CDATA[
.edge:hover path { stroke: red; }
.edge:hover polygon { stroke: red; fill: red; }
]]></style>
<script type="text/javascript"><![CDATA[
var edges = document.getElementsByTagName('g');
if (edges && edges.length) {
  for (var i=0;i<edges.length;i++) {
    if (edges[i].id.substr(0,4)=='edge') {
      edges[i].setAttribute('class','edge');
    }
  }
}
]]></script>
        <defs>
                <circle id="rim" cx="0" cy="0" r="7"/>
                <circle id="rim2" cx="0" cy="0" r="3.5"/>
                <g id="zoomPlus">
                        <use xlink:href="#rim" fill="#404040">
                                <set attributeName="fill" to="#808080" begin="zoomplus.mouseover" end="zoomplus.mouseout"/>
                        </use>
                        <path d="M-4,0h8M0,-4v8" fill="none" stroke="white" stroke-width="1.5" pointer-events="none"/>
                </g>
                <g id="zoomMin">
                        <use xlink:href="#rim" fill="#404040">
                                <set attributeName="fill" to="#808080" begin="zoomminus.mouseover" end="zoomminus.mouseout"/>
                        </use>
                        <path d="M-4,0h8" fill="none" stroke="white" stroke-width="1.5" pointer-events="none"/>
                </g>
                <g id="dirArrow">
                        <path fill="none" stroke="white" stroke-width="1.5" d="M0,-3.0v7 M-2.5,-0.5L0,-3.0L2.5,-0.5"/>
                </g>
               <g id="resetDef">
                       <use xlink:href="#rim2" fill="#404040">
                               <set attributeName="fill" to="#808080" begin="reset.mouseover" end="reset.mouseout"/>
                       </use>
               </g>
        </defs>

<script type="text/javascript">
var viewWidth = 1089;
var viewHeight = 116;
var sectionId = 'dynsection-7';
</script>
<script xlink:href="svgpan.js"/>
<svg id="graph" class="graph">
<g id="viewport">
<title>encode_basic_field</title>
<polygon fill="white" stroke="transparent" points="-4,4 -4,-111.5 1085,-111.5 1085,4 -4,4"/>
<!-- Node1 -->
<g id="node1" class="node">
<title>Node1</title>
<g id="a_node1"><a xlink:title=" ">
<polygon fill="#bfbfbf" stroke="black" points="981,-38.5 981,-57.5 1081,-57.5 1081,-38.5 981,-38.5"/>
<text text-anchor="middle" x="1031" y="-45.5" font-family="Helvetica,sans-Serif" font-size="10.00">encode_basic_field</text>
</a>
</g>
</g>
<!-- Node2 -->
<g id="node2" class="node">
<title>Node2</title>
<g id="a_node2"><a xlink:href="pb__encode_8c.html#a8aa23313175c09e050e2acbc54a17bd4" target="_top" xlink:title=" ">
<polygon fill="white" stroke="black" points="874,-38.5 874,-57.5 945,-57.5 945,-38.5 874,-38.5"/>
<text text-anchor="middle" x="909.5" y="-45.5" font-family="Helvetica,sans-Serif" font-size="10.00">encode_field</text>
</a>
</g>
</g>
<!-- Node1&#45;&gt;Node2 -->
<g id="edge1" class="edge">
<title>Node1&#45;&gt;Node2</title>
<path fill="none" stroke="midnightblue" d="M970.52,-48C961.81,-48 953.09,-48 945.1,-48"/>
<polygon fill="midnightblue" stroke="midnightblue" points="970.7,-51.5 980.7,-48 970.7,-44.5 970.7,-51.5"/>
</g>
<!-- Node3 -->
<g id="node3" class="node">
<title>Node3</title>
<g id="a_node3"><a xlink:href="pb__encode_8c.html#a3a12936f07ae378d68408c7bee72e3c0" target="_top" xlink:title=" ">
<polygon fill="white" stroke="black" points="705,-57.5 705,-76.5 838,-76.5 838,-57.5 705,-57.5"/>
<text text-anchor="middle" x="771.5" y="-64.5" font-family="Helvetica,sans-Serif" font-size="10.00">default_extension_encoder</text>
</a>
</g>
</g>
<!-- Node2&#45;&gt;Node3 -->
<g id="edge2" class="edge">
<title>Node2&#45;&gt;Node3</title>
<path fill="none" stroke="midnightblue" d="M863.73,-54.26C855.5,-55.4 846.75,-56.63 838.06,-57.84"/>
<polygon fill="midnightblue" stroke="midnightblue" points="864.41,-57.69 873.83,-52.84 863.44,-50.76 864.41,-57.69"/>
</g>
<!-- Node5 -->
<g id="node5" class="node">
<title>Node5</title>
<g id="a_node5"><a xlink:href="pb__encode_8c.html#af44dde5296bd546d99be35f15658af3e" target="_top" xlink:title=" ">
<polygon fill="white" stroke="black" points="450,-38.5 450,-57.5 514,-57.5 514,-38.5 450,-38.5"/>
<text text-anchor="middle" x="482" y="-45.5" font-family="Helvetica,sans-Serif" font-size="10.00">pb_encode</text>
</a>
</g>
</g>
<!-- Node2&#45;&gt;Node5 -->
<g id="edge12" class="edge">
<title>Node2&#45;&gt;Node5</title>
<path fill="none" stroke="midnightblue" d="M863.63,-48C777,-48 588.69,-48 514.22,-48"/>
<polygon fill="midnightblue" stroke="midnightblue" points="863.68,-51.5 873.68,-48 863.68,-44.5 863.68,-51.5"/>
</g>
<!-- Node4 -->
<g id="node4" class="node">
<title>Node4</title>
<g id="a_node4"><a xlink:href="pb__encode_8c.html#a0c789b04243dc72075c00744134546c3" target="_top" xlink:title=" ">
<polygon fill="white" stroke="black" points="550,-57.5 550,-76.5 669,-76.5 669,-57.5 550,-57.5"/>
<text text-anchor="middle" x="609.5" y="-64.5" font-family="Helvetica,sans-Serif" font-size="10.00">encode_extension_field</text>
</a>
</g>
</g>
<!-- Node3&#45;&gt;Node4 -->
<g id="edge3" class="edge">
<title>Node3&#45;&gt;Node4</title>
<path fill="none" stroke="midnightblue" d="M694.83,-67C686.16,-67 677.41,-67 669.01,-67"/>
<polygon fill="midnightblue" stroke="midnightblue" points="694.96,-70.5 704.96,-67 694.96,-63.5 694.96,-70.5"/>
</g>
<!-- Node4&#45;&gt;Node5 -->
<g id="edge4" class="edge">
<title>Node4&#45;&gt;Node5</title>
<path fill="none" stroke="midnightblue" d="M539.74,-56.59C530.86,-55.25 522.14,-53.93 514.3,-52.74"/>
<polygon fill="midnightblue" stroke="midnightblue" points="539.38,-60.08 549.79,-58.11 540.43,-53.15 539.38,-60.08"/>
</g>
<!-- Node6 -->
<g id="node6" class="node">
<title>Node6</title>
<g id="a_node6"><a xlink:href="class_k_u_k_a_1_1_f_r_i_1_1_command_message_encoder.html#a53c2553cb91250334d979f2aaa4006a4" target="_top" xlink:title=" ">
<polygon fill="white" stroke="black" points="256,-77 256,-107 414,-107 414,-77 256,-77"/>
<text text-anchor="start" x="264" y="-95" font-family="Helvetica,sans-Serif" font-size="10.00">KUKA::FRI::CommandMessage</text>
<text text-anchor="middle" x="335" y="-84" font-family="Helvetica,sans-Serif" font-size="10.00">Encoder::encode</text>
</a>
</g>
</g>
<!-- Node5&#45;&gt;Node6 -->
<g id="edge5" class="edge">
<title>Node5&#45;&gt;Node6</title>
<path fill="none" stroke="midnightblue" d="M440.27,-60.36C423.29,-65.51 403.41,-71.54 385.59,-76.95"/>
<polygon fill="midnightblue" stroke="midnightblue" points="441.34,-63.69 449.89,-57.44 439.31,-56.99 441.34,-63.69"/>
</g>
<!-- Node9 -->
<g id="node9" class="node">
<title>Node9</title>
<g id="a_node9"><a xlink:href="pb__encode_8c.html#a5c19520cad847fead01fae854b8a6f86" target="_top" xlink:title=" ">
<polygon fill="white" stroke="black" points="272.5,-38.5 272.5,-57.5 397.5,-57.5 397.5,-38.5 272.5,-38.5"/>
<text text-anchor="middle" x="335" y="-45.5" font-family="Helvetica,sans-Serif" font-size="10.00">pb_encode_submessage</text>
</a>
</g>
</g>
<!-- Node5&#45;&gt;Node9 -->
<g id="edge8" class="edge">
<title>Node5&#45;&gt;Node9</title>
<path fill="none" stroke="midnightblue" d="M439.81,-48C426.74,-48 411.98,-48 397.78,-48"/>
<polygon fill="midnightblue" stroke="midnightblue" points="439.89,-51.5 449.89,-48 439.89,-44.5 439.89,-51.5"/>
</g>
<!-- Node12 -->
<g id="node12" class="node">
<title>Node12</title>
<g id="a_node12"><a xlink:href="pb__encode_8c.html#a7d0d58fcd08d5020b12133c31bbe57f1" target="_top" xlink:title=" ">
<polygon fill="white" stroke="black" points="279.5,-0.5 279.5,-19.5 390.5,-19.5 390.5,-0.5 279.5,-0.5"/>
<text text-anchor="middle" x="335" y="-7.5" font-family="Helvetica,sans-Serif" font-size="10.00">pb_get_encoded_size</text>
</a>
</g>
</g>
<!-- Node5&#45;&gt;Node12 -->
<g id="edge11" class="edge">
<title>Node5&#45;&gt;Node12</title>
<path fill="none" stroke="midnightblue" d="M439.92,-36.09C431.37,-33.68 422.4,-31.21 414,-29 401.87,-25.8 388.63,-22.51 376.56,-19.57"/>
<polygon fill="midnightblue" stroke="midnightblue" points="439.13,-39.5 449.71,-38.86 441.04,-32.77 439.13,-39.5"/>
</g>
<!-- Node7 -->
<g id="node7" class="node">
<title>Node7</title>
<g id="a_node7"><a xlink:href="class_k_u_k_a_1_1_f_r_i_1_1_client_application.html#a9939bfd1fa78c59dc3675a6d2a5de7a7" target="_top" xlink:title="Run a single processing step.">
<polygon fill="white" stroke="black" points="74,-77 74,-107 220,-107 220,-77 74,-77"/>
<text text-anchor="start" x="82" y="-95" font-family="Helvetica,sans-Serif" font-size="10.00">KUKA::FRI::ClientApplication</text>
<text text-anchor="middle" x="147" y="-84" font-family="Helvetica,sans-Serif" font-size="10.00">::step</text>
</a>
</g>
</g>
<!-- Node6&#45;&gt;Node7 -->
<g id="edge6" class="edge">
<title>Node6&#45;&gt;Node7</title>
<path fill="none" stroke="midnightblue" d="M245.88,-92C237.29,-92 228.65,-92 220.24,-92"/>
<polygon fill="midnightblue" stroke="midnightblue" points="245.93,-95.5 255.93,-92 245.93,-88.5 245.93,-95.5"/>
</g>
<!-- Node8 -->
<g id="node8" class="node">
<title>Node8</title>
<g id="a_node8"><a xlink:href="_i_o_access_app_8cpp.html#a3c04138a5bfe5d72780bb7e82a18e627" target="_top" xlink:title=" ">
<polygon fill="white" stroke="black" points="0,-82.5 0,-101.5 38,-101.5 38,-82.5 0,-82.5"/>
<text text-anchor="middle" x="19" y="-89.5" font-family="Helvetica,sans-Serif" font-size="10.00">main</text>
</a>
</g>
</g>
<!-- Node7&#45;&gt;Node8 -->
<g id="edge7" class="edge">
<title>Node7&#45;&gt;Node8</title>
<path fill="none" stroke="midnightblue" d="M63.74,-92C54.28,-92 45.45,-92 38.25,-92"/>
<polygon fill="midnightblue" stroke="midnightblue" points="63.8,-95.5 73.8,-92 63.8,-88.5 63.8,-95.5"/>
</g>
<!-- Node10 -->
<g id="node10" class="node">
<title>Node10</title>
<g id="a_node10"><a xlink:href="pb__encode_8c.html#a1f6fe701e8ba7999f934064f029c6630" target="_top" xlink:title=" ">
<polygon fill="white" stroke="black" points="92.5,-38.5 92.5,-57.5 201.5,-57.5 201.5,-38.5 92.5,-38.5"/>
<text text-anchor="middle" x="147" y="-45.5" font-family="Helvetica,sans-Serif" font-size="10.00">pb_enc_submessage</text>
</a>
</g>
</g>
<!-- Node9&#45;&gt;Node10 -->
<g id="edge9" class="edge">
<title>Node9&#45;&gt;Node10</title>
<path fill="none" stroke="midnightblue" d="M262.26,-48C242.13,-48 220.59,-48 201.71,-48"/>
<polygon fill="midnightblue" stroke="midnightblue" points="262.32,-51.5 272.32,-48 262.32,-44.5 262.32,-51.5"/>
</g>
<!-- Node11 -->
<g id="node11" class="node">
<title>Node11</title>
<g id="a_node11"><a xlink:href="pb__encode_8c.html#ada25a45ba2ec5aa0baa8c692b0f30361" target="_top" xlink:title=" ">
<polygon fill="white" stroke="black" points="93,-0.5 93,-19.5 201,-19.5 201,-0.5 93,-0.5"/>
<text text-anchor="middle" x="147" y="-7.5" font-family="Helvetica,sans-Serif" font-size="10.00">pb_encode_delimited</text>
</a>
</g>
</g>
<!-- Node9&#45;&gt;Node11 -->
<g id="edge10" class="edge">
<title>Node9&#45;&gt;Node11</title>
<path fill="none" stroke="midnightblue" d="M277.17,-36.39C250.72,-30.99 219.64,-24.64 194.6,-19.52"/>
<polygon fill="midnightblue" stroke="midnightblue" points="276.57,-39.84 287.06,-38.41 277.97,-32.98 276.57,-39.84"/>
</g>
</g>
</svg>
        <g id="navigator" transform="translate(0 0)" fill="#404254">
                <rect fill="#f2f5e9" fill-opacity="0.5" stroke="#606060" stroke-width=".5" x="0" y="0" width="60" height="60"/>
                <use id="zoomplus" xlink:href="#zoomPlus" x="17" y="9" onmousedown="handleZoom(evt,'in')"/>
                <use id="zoomminus" xlink:href="#zoomMin" x="42" y="9" onmousedown="handleZoom(evt,'out')"/>
                <use id="reset" xlink:href="#resetDef" x="30" y="36" onmousedown="handleReset()"/>
                <g id="arrowUp" xlink:href="#dirArrow" transform="translate(30 24)" onmousedown="handlePan(0,-1)">
                  <use xlink:href="#rim" fill="#404040">
                        <set attributeName="fill" to="#808080" begin="arrowUp.mouseover" end="arrowUp.mouseout"/>
                  </use>
                  <path fill="none" stroke="white" stroke-width="1.5" d="M0,-3.0v7 M-2.5,-0.5L0,-3.0L2.5,-0.5"/>
                </g>
                <g id="arrowRight" xlink:href="#dirArrow" transform="rotate(90) translate(36 -43)" onmousedown="handlePan(1,0)">
                  <use xlink:href="#rim" fill="#404040">
                        <set attributeName="fill" to="#808080" begin="arrowRight.mouseover" end="arrowRight.mouseout"/>
                  </use>
                  <path fill="none" stroke="white" stroke-width="1.5" d="M0,-3.0v7 M-2.5,-0.5L0,-3.0L2.5,-0.5"/>
                </g>
                <g id="arrowDown" xlink:href="#dirArrow" transform="rotate(180) translate(-30 -48)" onmousedown="handlePan(0,1)">
                  <use xlink:href="#rim" fill="#404040">
                        <set attributeName="fill" to="#808080" begin="arrowDown.mouseover" end="arrowDown.mouseout"/>
                  </use>
                  <path fill="none" stroke="white" stroke-width="1.5" d="M0,-3.0v7 M-2.5,-0.5L0,-3.0L2.5,-0.5"/>
                </g>
                <g id="arrowLeft" xlink:href="#dirArrow" transform="rotate(270) translate(-36 17)" onmousedown="handlePan(-1,0)">
                  <use xlink:href="#rim" fill="#404040">
                        <set attributeName="fill" to="#808080" begin="arrowLeft.mouseover" end="arrowLeft.mouseout"/>
                  </use>
                  <path fill="none" stroke="white" stroke-width="1.5" d="M0,-3.0v7 M-2.5,-0.5L0,-3.0L2.5,-0.5"/>
                </g>
        </g>
        <svg viewBox="0 0 15 15" width="100%" height="30px" preserveAspectRatio="xMaxYMin meet">
         <g id="arrow_out" transform="scale(0.3 0.3)">
          <a xlink:href="pb__encode_8c_a1f186424780069ab183fb7d2360d274e_icgraph_org.svg" target="_base">
           <rect id="button" ry="5" rx="5" y="6" x="6" height="38" width="38"
                fill="#f2f5e9" fill-opacity="0.5" stroke="#606060" stroke-width="1.0"/>
           <path id="arrow"
             d="M 11.500037,31.436501 C 11.940474,20.09759 22.043105,11.32322 32.158766,21.979434 L 37.068811,17.246167 C 37.068811,17.246167 37.088388,32 37.088388,32 L 22.160133,31.978069 C 22.160133,31.978069 26.997745,27.140456 26.997745,27.140456 C 18.528582,18.264221 13.291696,25.230495 11.500037,31.436501 z"
             style="fill:#404040;"/>
          </a>
         </g>
        </svg>
</svg>
