<?xml version="1.0" encoding="UTF-8" standalone="no"?>
<!DOCTYPE svg PUBLIC "-//W3C//DTD SVG 1.1//EN"
 "http://www.w3.org/Graphics/SVG/1.1/DTD/svg11.dtd">
<!-- Generated by graphviz version 2.43.0 (0)
 -->
<!-- Title: pb_encode_submessage Pages: 1 -->
<svg width="1511pt" height="198pt"
 viewBox="0.00 0.00 1511.00 198.00" xmlns="http://www.w3.org/2000/svg" xmlns:xlink="http://www.w3.org/1999/xlink">
<g id="graph0" class="graph" transform="scale(1 1) rotate(0) translate(4 194)">
<title>pb_encode_submessage</title>
<polygon fill="white" stroke="transparent" points="-4,4 -4,-194 1507,-194 1507,4 -4,4"/>
<!-- Node1 -->
<g id="node1" class="node">
<title>Node1</title>
<g id="a_node1"><a xlink:title=" ">
<polygon fill="#bfbfbf" stroke="black" points="0,-47.5 0,-66.5 125,-66.5 125,-47.5 0,-47.5"/>
<text text-anchor="middle" x="62.5" y="-54.5" font-family="Helvetica,sans-Serif" font-size="10.00">pb_encode_submessage</text>
</a>
</g>
</g>
<!-- Node2 -->
<g id="node2" class="node">
<title>Node2</title>
<g id="a_node2"><a xlink:href="pb__encode_8c.html#af44dde5296bd546d99be35f15658af3e" target="_top" xlink:title=" ">
<polygon fill="white" stroke="black" points="161,-47.5 161,-66.5 225,-66.5 225,-47.5 161,-47.5"/>
<text text-anchor="middle" x="193" y="-54.5" font-family="Helvetica,sans-Serif" font-size="10.00">pb_encode</text>
</a>
</g>
</g>
<!-- Node1&#45;&gt;Node2 -->
<g id="edge1" class="edge">
<title>Node1&#45;&gt;Node2</title>
<path fill="none" stroke="midnightblue" d="M125.12,-57C133.81,-57 142.57,-57 150.76,-57"/>
<polygon fill="midnightblue" stroke="midnightblue" points="150.77,-60.5 160.77,-57 150.77,-53.5 150.77,-60.5"/>
</g>
<!-- Node9 -->
<g id="node9" class="node">
<title>Node9</title>
<g id="a_node9"><a xlink:href="pb__encode_8c.html#a568e2eb180774ef4e07de89508edb52b" target="_top" xlink:title=" ">
<polygon fill="white" stroke="black" points="1229,-85.5 1229,-104.5 1322,-104.5 1322,-85.5 1229,-85.5"/>
<text text-anchor="middle" x="1275.5" y="-92.5" font-family="Helvetica,sans-Serif" font-size="10.00">pb_encode_varint</text>
</a>
</g>
</g>
<!-- Node1&#45;&gt;Node9 -->
<g id="edge18" class="edge">
<title>Node1&#45;&gt;Node9</title>
<path fill="none" stroke="midnightblue" d="M88.88,-47.46C134.4,-31.23 233.22,0 319.5,0 319.5,0 319.5,0 1014,0 1106.36,0 1206.59,-53.36 1251.03,-80.1"/>
<polygon fill="midnightblue" stroke="midnightblue" points="1249.28,-83.13 1259.64,-85.37 1252.94,-77.16 1249.28,-83.13"/>
</g>
<!-- Node10 -->
<g id="node10" class="node">
<title>Node10</title>
<g id="a_node10"><a xlink:href="pb__encode_8c.html#a6f8d972fa4a439724532f0bcc07de81d" target="_top" xlink:title=" ">
<polygon fill="white" stroke="black" points="1358,-142.5 1358,-161.5 1411,-161.5 1411,-142.5 1358,-142.5"/>
<text text-anchor="middle" x="1384.5" y="-149.5" font-family="Helvetica,sans-Serif" font-size="10.00">pb_write</text>
</a>
</g>
</g>
<!-- Node1&#45;&gt;Node10 -->
<g id="edge19" class="edge">
<title>Node1&#45;&gt;Node10</title>
<path fill="none" stroke="midnightblue" d="M73.26,-66.57C105.44,-97.06 212.32,-190 319.5,-190 319.5,-190 319.5,-190 1152.5,-190 1222.44,-190 1302.74,-172.83 1347.86,-161.57"/>
<polygon fill="midnightblue" stroke="midnightblue" points="1348.92,-164.91 1357.75,-159.06 1347.19,-158.13 1348.92,-164.91"/>
</g>
<!-- Node3 -->
<g id="node3" class="node">
<title>Node3</title>
<g id="a_node3"><a xlink:href="pb__encode_8c.html#a0c789b04243dc72075c00744134546c3" target="_top" xlink:title=" ">
<polygon fill="white" stroke="black" points="261,-28.5 261,-47.5 380,-47.5 380,-28.5 261,-28.5"/>
<text text-anchor="middle" x="320.5" y="-35.5" font-family="Helvetica,sans-Serif" font-size="10.00">encode_extension_field</text>
</a>
</g>
</g>
<!-- Node2&#45;&gt;Node3 -->
<g id="edge2" class="edge">
<title>Node2&#45;&gt;Node3</title>
<path fill="none" stroke="midnightblue" d="M225.02,-52.3C233.02,-51.09 241.95,-49.74 251.04,-48.36"/>
<polygon fill="midnightblue" stroke="midnightblue" points="251.56,-51.83 260.93,-46.87 250.52,-44.9 251.56,-51.83"/>
</g>
<!-- Node5 -->
<g id="node5" class="node">
<title>Node5</title>
<g id="a_node5"><a xlink:href="pb__encode_8c.html#a8aa23313175c09e050e2acbc54a17bd4" target="_top" xlink:title=" ">
<polygon fill="white" stroke="black" points="585,-47.5 585,-66.5 656,-66.5 656,-47.5 585,-47.5"/>
<text text-anchor="middle" x="620.5" y="-54.5" font-family="Helvetica,sans-Serif" font-size="10.00">encode_field</text>
</a>
</g>
</g>
<!-- Node2&#45;&gt;Node5 -->
<g id="edge17" class="edge">
<title>Node2&#45;&gt;Node5</title>
<path fill="none" stroke="midnightblue" d="M225.29,-57C299.89,-57 488.42,-57 574.9,-57"/>
<polygon fill="midnightblue" stroke="midnightblue" points="574.93,-60.5 584.93,-57 574.93,-53.5 574.93,-60.5"/>
</g>
<!-- Node4 -->
<g id="node4" class="node">
<title>Node4</title>
<g id="a_node4"><a xlink:href="pb__encode_8c.html#a3a12936f07ae378d68408c7bee72e3c0" target="_top" xlink:title=" ">
<polygon fill="white" stroke="black" points="416,-28.5 416,-47.5 549,-47.5 549,-28.5 416,-28.5"/>
<text text-anchor="middle" x="482.5" y="-35.5" font-family="Helvetica,sans-Serif" font-size="10.00">default_extension_encoder</text>
</a>
</g>
</g>
<!-- Node3&#45;&gt;Node4 -->
<g id="edge3" class="edge">
<title>Node3&#45;&gt;Node4</title>
<path fill="none" stroke="midnightblue" d="M380.17,-38C388.5,-38 397.17,-38 405.77,-38"/>
<polygon fill="midnightblue" stroke="midnightblue" points="405.81,-41.5 415.81,-38 405.81,-34.5 405.81,-41.5"/>
</g>
<!-- Node4&#45;&gt;Node5 -->
<g id="edge4" class="edge">
<title>Node4&#45;&gt;Node5</title>
<path fill="none" stroke="midnightblue" d="M549.11,-47.17C557.8,-48.38 566.55,-49.6 574.77,-50.75"/>
<polygon fill="midnightblue" stroke="midnightblue" points="574.49,-54.25 584.88,-52.16 575.46,-47.31 574.49,-54.25"/>
</g>
<!-- Node6 -->
<g id="node6" class="node">
<title>Node6</title>
<g id="a_node6"><a xlink:href="pb__encode_8c.html#a1f186424780069ab183fb7d2360d274e" target="_top" xlink:title=" ">
<polygon fill="white" stroke="black" points="698.5,-66.5 698.5,-85.5 798.5,-85.5 798.5,-66.5 698.5,-66.5"/>
<text text-anchor="middle" x="748.5" y="-73.5" font-family="Helvetica,sans-Serif" font-size="10.00">encode_basic_field</text>
</a>
</g>
</g>
<!-- Node5&#45;&gt;Node6 -->
<g id="edge5" class="edge">
<title>Node5&#45;&gt;Node6</title>
<path fill="none" stroke="midnightblue" d="M656.26,-62.24C666.19,-63.74 677.3,-65.41 688.25,-67.07"/>
<polygon fill="midnightblue" stroke="midnightblue" points="687.82,-70.54 698.23,-68.57 688.86,-63.62 687.82,-70.54"/>
</g>
<!-- Node13 -->
<g id="node13" class="node">
<title>Node13</title>
<g id="a_node13"><a xlink:href="pb__encode_8c.html#aacffda1f85cad8e448a183dcc6c13559" target="_top" xlink:title=" ">
<polygon fill="white" stroke="black" points="692,-28.5 692,-47.5 805,-47.5 805,-28.5 692,-28.5"/>
<text text-anchor="middle" x="748.5" y="-35.5" font-family="Helvetica,sans-Serif" font-size="10.00">encode_callback_field</text>
</a>
</g>
</g>
<!-- Node5&#45;&gt;Node13 -->
<g id="edge16" class="edge">
<title>Node5&#45;&gt;Node13</title>
<path fill="none" stroke="midnightblue" d="M656.26,-51.76C664.2,-50.56 672.9,-49.25 681.66,-47.93"/>
<polygon fill="midnightblue" stroke="midnightblue" points="682.19,-51.39 691.55,-46.44 681.14,-44.47 682.19,-51.39"/>
</g>
<!-- Node7 -->
<g id="node7" class="node">
<title>Node7</title>
<g id="a_node7"><a xlink:href="pb__encode_8c.html#afb8fc9e49589eaae694eff25c858a19c" target="_top" xlink:title=" ">
<polygon fill="white" stroke="black" points="841,-66.5 841,-85.5 916,-85.5 916,-66.5 841,-66.5"/>
<text text-anchor="middle" x="878.5" y="-73.5" font-family="Helvetica,sans-Serif" font-size="10.00">encode_array</text>
</a>
</g>
</g>
<!-- Node6&#45;&gt;Node7 -->
<g id="edge6" class="edge">
<title>Node6&#45;&gt;Node7</title>
<path fill="none" stroke="midnightblue" d="M798.62,-76C809.09,-76 820.12,-76 830.51,-76"/>
<polygon fill="midnightblue" stroke="midnightblue" points="830.64,-79.5 840.64,-76 830.64,-72.5 830.64,-79.5"/>
</g>
<!-- Node12 -->
<g id="node12" class="node">
<title>Node12</title>
<g id="a_node12"><a xlink:href="pb__encode_8c.html#a3e0f1ac29dce37f78220ecd6b9d21cba" target="_top" xlink:title=" ">
<polygon fill="white" stroke="black" points="952,-28.5 952,-47.5 1074,-47.5 1074,-28.5 952,-28.5"/>
<text text-anchor="middle" x="1013" y="-35.5" font-family="Helvetica,sans-Serif" font-size="10.00">pb_encode_tag_for_field</text>
</a>
</g>
</g>
<!-- Node6&#45;&gt;Node12 -->
<g id="edge15" class="edge">
<title>Node6&#45;&gt;Node12</title>
<path fill="none" stroke="midnightblue" d="M791.25,-66.47C806.81,-63.14 824.66,-59.6 841,-57 873.86,-51.77 910.51,-47.5 941.42,-44.34"/>
<polygon fill="midnightblue" stroke="midnightblue" points="942.07,-47.79 951.67,-43.31 941.37,-40.82 942.07,-47.79"/>
</g>
<!-- Node8 -->
<g id="node8" class="node">
<title>Node8</title>
<g id="a_node8"><a xlink:href="pb__encode_8c.html#acfbcc89e5e4355b8c263d6d4f2bc8c6f" target="_top" xlink:title=" ">
<polygon fill="white" stroke="black" points="1110,-66.5 1110,-85.5 1193,-85.5 1193,-66.5 1110,-66.5"/>
<text text-anchor="middle" x="1151.5" y="-73.5" font-family="Helvetica,sans-Serif" font-size="10.00">pb_encode_tag</text>
</a>
</g>
</g>
<!-- Node7&#45;&gt;Node8 -->
<g id="edge7" class="edge">
<title>Node7&#45;&gt;Node8</title>
<path fill="none" stroke="midnightblue" d="M916.05,-76C963.32,-76 1045.92,-76 1099.39,-76"/>
<polygon fill="midnightblue" stroke="midnightblue" points="1099.67,-79.5 1109.67,-76 1099.67,-72.5 1099.67,-79.5"/>
</g>
<!-- Node7&#45;&gt;Node9 -->
<g id="edge13" class="edge">
<title>Node7&#45;&gt;Node9</title>
<path fill="none" stroke="midnightblue" d="M916.21,-84.26C927.62,-86.52 940.28,-88.69 952,-90 1045.04,-100.39 1154.11,-99.34 1218.59,-97.36"/>
<polygon fill="midnightblue" stroke="midnightblue" points="1219.05,-100.85 1228.93,-97.03 1218.82,-93.85 1219.05,-100.85"/>
</g>
<!-- Node7&#45;&gt;Node10 -->
<g id="edge14" class="edge">
<title>Node7&#45;&gt;Node10</title>
<path fill="none" stroke="midnightblue" d="M897.73,-85.62C912.08,-92.73 932.79,-102.01 952,-107 1095.14,-144.16 1272.54,-150.79 1347.44,-151.86"/>
<polygon fill="midnightblue" stroke="midnightblue" points="1347.69,-155.36 1357.74,-151.98 1347.78,-148.36 1347.69,-155.36"/>
</g>
<!-- Node7&#45;&gt;Node12 -->
<g id="edge11" class="edge">
<title>Node7&#45;&gt;Node12</title>
<path fill="none" stroke="midnightblue" d="M912.94,-66.41C929.88,-61.55 950.66,-55.59 968.81,-50.39"/>
<polygon fill="midnightblue" stroke="midnightblue" points="969.93,-53.71 978.58,-47.59 968,-46.98 969.93,-53.71"/>
</g>
<!-- Node8&#45;&gt;Node9 -->
<g id="edge8" class="edge">
<title>Node8&#45;&gt;Node9</title>
<path fill="none" stroke="midnightblue" d="M1193.12,-82.33C1201.29,-83.6 1210.02,-84.96 1218.6,-86.29"/>
<polygon fill="midnightblue" stroke="midnightblue" points="1218.16,-89.77 1228.58,-87.85 1219.24,-82.85 1218.16,-89.77"/>
</g>
<!-- Node9&#45;&gt;Node10 -->
<g id="edge9" class="edge">
<title>Node9&#45;&gt;Node10</title>
<path fill="none" stroke="midnightblue" d="M1294.65,-104.67C1311.66,-113.73 1337.3,-127.39 1356.68,-137.71"/>
<polygon fill="midnightblue" stroke="midnightblue" points="1355.15,-140.86 1365.62,-142.47 1358.44,-134.68 1355.15,-140.86"/>
</g>
<!-- Node11 -->
<g id="node11" class="node">
<title>Node11</title>
<g id="a_node11"><a xlink:href="pb__encode_8c.html#aa987a466c397e7769605789cc0b22054" target="_top" xlink:title=" ">
<polygon fill="white" stroke="black" points="1447,-142.5 1447,-161.5 1503,-161.5 1503,-142.5 1447,-142.5"/>
<text text-anchor="middle" x="1475" y="-149.5" font-family="Helvetica,sans-Serif" font-size="10.00">buf_write</text>
</a>
</g>
</g>
<!-- Node10&#45;&gt;Node11 -->
<g id="edge10" class="edge">
<title>Node10&#45;&gt;Node11</title>
<path fill="none" stroke="midnightblue" d="M1411.1,-152C1419.08,-152 1428.06,-152 1436.68,-152"/>
<polygon fill="midnightblue" stroke="midnightblue" points="1436.92,-155.5 1446.92,-152 1436.92,-148.5 1436.92,-155.5"/>
</g>
<!-- Node12&#45;&gt;Node8 -->
<g id="edge12" class="edge">
<title>Node12&#45;&gt;Node8</title>
<path fill="none" stroke="midnightblue" d="M1048.44,-47.59C1065.98,-52.47 1087.51,-58.46 1106.26,-63.68"/>
<polygon fill="midnightblue" stroke="midnightblue" points="1105.49,-67.1 1116.07,-66.41 1107.37,-60.36 1105.49,-67.1"/>
</g>
</g>
</svg>
