<?xml version="1.0" encoding="UTF-8" standalone="no"?>
<!DOCTYPE svg PUBLIC "-//W3C//DTD SVG 1.1//EN"
 "http://www.w3.org/Graphics/SVG/1.1/DTD/svg11.dtd">
<!-- Generated by graphviz version 2.43.0 (0)
 -->
<!-- Title: decode_repeatedInt Pages: 1 -->
<svg width="345pt" height="28pt"
 viewBox="0.00 0.00 345.00 28.00" xmlns="http://www.w3.org/2000/svg" xmlns:xlink="http://www.w3.org/1999/xlink">
<g id="graph0" class="graph" transform="scale(1 1) rotate(0) translate(4 24)">
<title>decode_repeatedInt</title>
<polygon fill="white" stroke="transparent" points="-4,4 -4,-24 341,-24 341,4 -4,4"/>
<!-- Node1 -->
<g id="node1" class="node">
<title>Node1</title>
<g id="a_node1"><a xlink:title=" ">
<polygon fill="#bfbfbf" stroke="black" points="0,-0.5 0,-19.5 102,-19.5 102,-0.5 0,-0.5"/>
<text text-anchor="middle" x="51" y="-7.5" font-family="Helvetica,sans-Serif" font-size="10.00">decode_repeatedInt</text>
</a>
</g>
</g>
<!-- Node2 -->
<g id="node2" class="node">
<title>Node2</title>
<g id="a_node2"><a xlink:href="pb__decode_8c.html#a47bde3dca6b389ba0d58b1f0a7dad7c4" target="_top" xlink:title=" ">
<polygon fill="white" stroke="black" points="138,-0.5 138,-19.5 231,-19.5 231,-0.5 138,-0.5"/>
<text text-anchor="middle" x="184.5" y="-7.5" font-family="Helvetica,sans-Serif" font-size="10.00">pb_decode_varint</text>
</a>
</g>
</g>
<!-- Node1&#45;&gt;Node2 -->
<g id="edge1" class="edge">
<title>Node1&#45;&gt;Node2</title>
<path fill="none" stroke="midnightblue" d="M102.09,-10C110.45,-10 119.17,-10 127.66,-10"/>
<polygon fill="midnightblue" stroke="midnightblue" points="127.87,-13.5 137.87,-10 127.87,-6.5 127.87,-13.5"/>
</g>
<!-- Node3 -->
<g id="node3" class="node">
<title>Node3</title>
<g id="a_node3"><a xlink:href="pb__decode_8c.html#a13d38bcceb0a06bfc8c4c9c6da0f7258" target="_top" xlink:title=" ">
<polygon fill="white" stroke="black" points="267,-0.5 267,-19.5 337,-19.5 337,-0.5 267,-0.5"/>
<text text-anchor="middle" x="302" y="-7.5" font-family="Helvetica,sans-Serif" font-size="10.00">pb_readbyte</text>
</a>
</g>
</g>
<!-- Node2&#45;&gt;Node3 -->
<g id="edge2" class="edge">
<title>Node2&#45;&gt;Node3</title>
<path fill="none" stroke="midnightblue" d="M231.15,-10C239.48,-10 248.17,-10 256.47,-10"/>
<polygon fill="midnightblue" stroke="midnightblue" points="256.73,-13.5 266.73,-10 256.73,-6.5 256.73,-13.5"/>
</g>
</g>
</svg>
