<?xml version="1.0" encoding="UTF-8" standalone="no"?>
<!DOCTYPE svg PUBLIC "-//W3C//DTD SVG 1.1//EN"
 "http://www.w3.org/Graphics/SVG/1.1/DTD/svg11.dtd">
<!-- Generated by graphviz version 2.43.0 (0)
 -->
<!-- Title: encode_extension_field Pages: 1 -->
<svg width="1250pt" height="142pt"
 viewBox="0.00 0.00 1250.00 142.00" xmlns="http://www.w3.org/2000/svg" xmlns:xlink="http://www.w3.org/1999/xlink">
<g id="graph0" class="graph" transform="scale(1 1) rotate(0) translate(4 138)">
<title>encode_extension_field</title>
<polygon fill="white" stroke="transparent" points="-4,4 -4,-138 1246,-138 1246,4 -4,4"/>
<!-- Node1 -->
<g id="node1" class="node">
<title>Node1</title>
<g id="a_node1"><a xlink:title=" ">
<polygon fill="#bfbfbf" stroke="black" points="0,-19.5 0,-38.5 119,-38.5 119,-19.5 0,-19.5"/>
<text text-anchor="middle" x="59.5" y="-26.5" font-family="Helvetica,sans-Serif" font-size="10.00">encode_extension_field</text>
</a>
</g>
</g>
<!-- Node2 -->
<g id="node2" class="node">
<title>Node2</title>
<g id="a_node2"><a xlink:href="pb__encode_8c.html#a3a12936f07ae378d68408c7bee72e3c0" target="_top" xlink:title=" ">
<polygon fill="white" stroke="black" points="155,-19.5 155,-38.5 288,-38.5 288,-19.5 155,-19.5"/>
<text text-anchor="middle" x="221.5" y="-26.5" font-family="Helvetica,sans-Serif" font-size="10.00">default_extension_encoder</text>
</a>
</g>
</g>
<!-- Node1&#45;&gt;Node2 -->
<g id="edge1" class="edge">
<title>Node1&#45;&gt;Node2</title>
<path fill="none" stroke="midnightblue" d="M119.17,-29C127.5,-29 136.17,-29 144.77,-29"/>
<polygon fill="midnightblue" stroke="midnightblue" points="144.81,-32.5 154.81,-29 144.81,-25.5 144.81,-32.5"/>
</g>
<!-- Node3 -->
<g id="node3" class="node">
<title>Node3</title>
<g id="a_node3"><a xlink:href="pb__encode_8c.html#a8aa23313175c09e050e2acbc54a17bd4" target="_top" xlink:title=" ">
<polygon fill="white" stroke="black" points="324,-19.5 324,-38.5 395,-38.5 395,-19.5 324,-19.5"/>
<text text-anchor="middle" x="359.5" y="-26.5" font-family="Helvetica,sans-Serif" font-size="10.00">encode_field</text>
</a>
</g>
</g>
<!-- Node2&#45;&gt;Node3 -->
<g id="edge2" class="edge">
<title>Node2&#45;&gt;Node3</title>
<path fill="none" stroke="midnightblue" d="M288.11,-29C296.8,-29 305.55,-29 313.77,-29"/>
<polygon fill="midnightblue" stroke="midnightblue" points="313.88,-32.5 323.88,-29 313.88,-25.5 313.88,-32.5"/>
</g>
<!-- Node4 -->
<g id="node4" class="node">
<title>Node4</title>
<g id="a_node4"><a xlink:href="pb__encode_8c.html#a1f186424780069ab183fb7d2360d274e" target="_top" xlink:title=" ">
<polygon fill="white" stroke="black" points="437.5,-38.5 437.5,-57.5 537.5,-57.5 537.5,-38.5 437.5,-38.5"/>
<text text-anchor="middle" x="487.5" y="-45.5" font-family="Helvetica,sans-Serif" font-size="10.00">encode_basic_field</text>
</a>
</g>
</g>
<!-- Node3&#45;&gt;Node4 -->
<g id="edge3" class="edge">
<title>Node3&#45;&gt;Node4</title>
<path fill="none" stroke="midnightblue" d="M395.26,-34.24C405.19,-35.74 416.3,-37.41 427.25,-39.07"/>
<polygon fill="midnightblue" stroke="midnightblue" points="426.82,-42.54 437.23,-40.57 427.86,-35.62 426.82,-42.54"/>
</g>
<!-- Node11 -->
<g id="node11" class="node">
<title>Node11</title>
<g id="a_node11"><a xlink:href="pb__encode_8c.html#aacffda1f85cad8e448a183dcc6c13559" target="_top" xlink:title=" ">
<polygon fill="white" stroke="black" points="431,-0.5 431,-19.5 544,-19.5 544,-0.5 431,-0.5"/>
<text text-anchor="middle" x="487.5" y="-7.5" font-family="Helvetica,sans-Serif" font-size="10.00">encode_callback_field</text>
</a>
</g>
</g>
<!-- Node3&#45;&gt;Node11 -->
<g id="edge14" class="edge">
<title>Node3&#45;&gt;Node11</title>
<path fill="none" stroke="midnightblue" d="M395.26,-23.76C403.2,-22.56 411.9,-21.25 420.66,-19.93"/>
<polygon fill="midnightblue" stroke="midnightblue" points="421.19,-23.39 430.55,-18.44 420.14,-16.47 421.19,-23.39"/>
</g>
<!-- Node5 -->
<g id="node5" class="node">
<title>Node5</title>
<g id="a_node5"><a xlink:href="pb__encode_8c.html#afb8fc9e49589eaae694eff25c858a19c" target="_top" xlink:title=" ">
<polygon fill="white" stroke="black" points="580,-57.5 580,-76.5 655,-76.5 655,-57.5 580,-57.5"/>
<text text-anchor="middle" x="617.5" y="-64.5" font-family="Helvetica,sans-Serif" font-size="10.00">encode_array</text>
</a>
</g>
</g>
<!-- Node4&#45;&gt;Node5 -->
<g id="edge4" class="edge">
<title>Node4&#45;&gt;Node5</title>
<path fill="none" stroke="midnightblue" d="M537.62,-55.29C548.09,-56.85 559.12,-58.48 569.51,-60.02"/>
<polygon fill="midnightblue" stroke="midnightblue" points="569.23,-63.52 579.64,-61.53 570.26,-56.6 569.23,-63.52"/>
</g>
<!-- Node10 -->
<g id="node10" class="node">
<title>Node10</title>
<g id="a_node10"><a xlink:href="pb__encode_8c.html#a3e0f1ac29dce37f78220ecd6b9d21cba" target="_top" xlink:title=" ">
<polygon fill="white" stroke="black" points="691,-19.5 691,-38.5 813,-38.5 813,-19.5 691,-19.5"/>
<text text-anchor="middle" x="752" y="-26.5" font-family="Helvetica,sans-Serif" font-size="10.00">pb_encode_tag_for_field</text>
</a>
</g>
</g>
<!-- Node4&#45;&gt;Node10 -->
<g id="edge13" class="edge">
<title>Node4&#45;&gt;Node10</title>
<path fill="none" stroke="midnightblue" d="M537.57,-44.45C577.85,-41.53 635.42,-37.37 680.62,-34.09"/>
<polygon fill="midnightblue" stroke="midnightblue" points="680.92,-37.58 690.65,-33.37 680.42,-30.6 680.92,-37.58"/>
</g>
<!-- Node6 -->
<g id="node6" class="node">
<title>Node6</title>
<g id="a_node6"><a xlink:href="pb__encode_8c.html#acfbcc89e5e4355b8c263d6d4f2bc8c6f" target="_top" xlink:title=" ">
<polygon fill="white" stroke="black" points="849,-57.5 849,-76.5 932,-76.5 932,-57.5 849,-57.5"/>
<text text-anchor="middle" x="890.5" y="-64.5" font-family="Helvetica,sans-Serif" font-size="10.00">pb_encode_tag</text>
</a>
</g>
</g>
<!-- Node5&#45;&gt;Node6 -->
<g id="edge5" class="edge">
<title>Node5&#45;&gt;Node6</title>
<path fill="none" stroke="midnightblue" d="M655.05,-67C702.32,-67 784.92,-67 838.39,-67"/>
<polygon fill="midnightblue" stroke="midnightblue" points="838.67,-70.5 848.67,-67 838.67,-63.5 838.67,-70.5"/>
</g>
<!-- Node7 -->
<g id="node7" class="node">
<title>Node7</title>
<g id="a_node7"><a xlink:href="pb__encode_8c.html#a568e2eb180774ef4e07de89508edb52b" target="_top" xlink:title=" ">
<polygon fill="white" stroke="black" points="968,-95.5 968,-114.5 1061,-114.5 1061,-95.5 968,-95.5"/>
<text text-anchor="middle" x="1014.5" y="-102.5" font-family="Helvetica,sans-Serif" font-size="10.00">pb_encode_varint</text>
</a>
</g>
</g>
<!-- Node5&#45;&gt;Node7 -->
<g id="edge11" class="edge">
<title>Node5&#45;&gt;Node7</title>
<path fill="none" stroke="midnightblue" d="M655.25,-74.96C666.66,-77.2 679.31,-79.44 691,-81 784.05,-93.4 893.11,-99.84 957.59,-102.82"/>
<polygon fill="midnightblue" stroke="midnightblue" points="957.78,-106.33 967.93,-103.28 958.1,-99.34 957.78,-106.33"/>
</g>
<!-- Node8 -->
<g id="node8" class="node">
<title>Node8</title>
<g id="a_node8"><a xlink:href="pb__encode_8c.html#a6f8d972fa4a439724532f0bcc07de81d" target="_top" xlink:title=" ">
<polygon fill="white" stroke="black" points="1097,-114.5 1097,-133.5 1150,-133.5 1150,-114.5 1097,-114.5"/>
<text text-anchor="middle" x="1123.5" y="-121.5" font-family="Helvetica,sans-Serif" font-size="10.00">pb_write</text>
</a>
</g>
</g>
<!-- Node5&#45;&gt;Node8 -->
<g id="edge12" class="edge">
<title>Node5&#45;&gt;Node8</title>
<path fill="none" stroke="midnightblue" d="M634.57,-76.58C648.85,-84.59 670.58,-95.55 691,-101 833.32,-138.96 1011.16,-132.22 1086.31,-127.02"/>
<polygon fill="midnightblue" stroke="midnightblue" points="1086.92,-130.49 1096.64,-126.27 1086.41,-123.5 1086.92,-130.49"/>
</g>
<!-- Node5&#45;&gt;Node10 -->
<g id="edge9" class="edge">
<title>Node5&#45;&gt;Node10</title>
<path fill="none" stroke="midnightblue" d="M651.94,-57.41C668.88,-52.55 689.66,-46.59 707.81,-41.39"/>
<polygon fill="midnightblue" stroke="midnightblue" points="708.93,-44.71 717.58,-38.59 707,-37.98 708.93,-44.71"/>
</g>
<!-- Node6&#45;&gt;Node7 -->
<g id="edge6" class="edge">
<title>Node6&#45;&gt;Node7</title>
<path fill="none" stroke="midnightblue" d="M922.29,-76.59C937.6,-81.36 956.32,-87.19 972.8,-92.32"/>
<polygon fill="midnightblue" stroke="midnightblue" points="972.14,-95.78 982.72,-95.41 974.22,-89.1 972.14,-95.78"/>
</g>
<!-- Node7&#45;&gt;Node8 -->
<g id="edge7" class="edge">
<title>Node7&#45;&gt;Node8</title>
<path fill="none" stroke="midnightblue" d="M1061.19,-113.11C1069.73,-114.63 1078.55,-116.2 1086.75,-117.65"/>
<polygon fill="midnightblue" stroke="midnightblue" points="1086.26,-121.12 1096.72,-119.42 1087.49,-114.23 1086.26,-121.12"/>
</g>
<!-- Node9 -->
<g id="node9" class="node">
<title>Node9</title>
<g id="a_node9"><a xlink:href="pb__encode_8c.html#aa987a466c397e7769605789cc0b22054" target="_top" xlink:title=" ">
<polygon fill="white" stroke="black" points="1186,-114.5 1186,-133.5 1242,-133.5 1242,-114.5 1186,-114.5"/>
<text text-anchor="middle" x="1214" y="-121.5" font-family="Helvetica,sans-Serif" font-size="10.00">buf_write</text>
</a>
</g>
</g>
<!-- Node8&#45;&gt;Node9 -->
<g id="edge8" class="edge">
<title>Node8&#45;&gt;Node9</title>
<path fill="none" stroke="midnightblue" d="M1150.1,-124C1158.08,-124 1167.06,-124 1175.68,-124"/>
<polygon fill="midnightblue" stroke="midnightblue" points="1175.92,-127.5 1185.92,-124 1175.92,-120.5 1175.92,-127.5"/>
</g>
<!-- Node10&#45;&gt;Node6 -->
<g id="edge10" class="edge">
<title>Node10&#45;&gt;Node6</title>
<path fill="none" stroke="midnightblue" d="M787.44,-38.59C804.98,-43.47 826.51,-49.46 845.26,-54.68"/>
<polygon fill="midnightblue" stroke="midnightblue" points="844.49,-58.1 855.07,-57.41 846.37,-51.36 844.49,-58.1"/>
</g>
</g>
</svg>
