<?xml version="1.0" encoding="UTF-8" standalone="no"?>
<!DOCTYPE svg PUBLIC "-//W3C//DTD SVG 1.1//EN"
 "http://www.w3.org/Graphics/SVG/1.1/DTD/svg11.dtd">
<!-- Generated by graphviz version 2.43.0 (0)
 -->
<!-- Title: pb_istream_from_buffer Pages: 1 -->
<svg width="1361pt" height="116pt"
 viewBox="0.00 0.00 1361.00 115.50" xmlns="http://www.w3.org/2000/svg" xmlns:xlink="http://www.w3.org/1999/xlink">
<g id="graph0" class="graph" transform="scale(1 1) rotate(0) translate(4 111.5)">
<title>pb_istream_from_buffer</title>
<polygon fill="white" stroke="transparent" points="-4,4 -4,-111.5 1357,-111.5 1357,4 -4,4"/>
<!-- Node1 -->
<g id="node1" class="node">
<title>Node1</title>
<g id="a_node1"><a xlink:title=" ">
<polygon fill="#bfbfbf" stroke="black" points="1234,-63.5 1234,-82.5 1353,-82.5 1353,-63.5 1234,-63.5"/>
<text text-anchor="middle" x="1293.5" y="-70.5" font-family="Helvetica,sans-Serif" font-size="10.00">pb_istream_from_buffer</text>
</a>
</g>
</g>
<!-- Node2 -->
<g id="node2" class="node">
<title>Node2</title>
<g id="a_node2"><a xlink:href="class_k_u_k_a_1_1_f_r_i_1_1_monitoring_message_decoder.html#aa72fb1e622847a636e6f5d7ac4770103" target="_top" xlink:title=" ">
<polygon fill="white" stroke="black" points="256,-77 256,-107 414,-107 414,-77 256,-77"/>
<text text-anchor="start" x="264" y="-95" font-family="Helvetica,sans-Serif" font-size="10.00">KUKA::FRI::MonitoringMessage</text>
<text text-anchor="middle" x="335" y="-84" font-family="Helvetica,sans-Serif" font-size="10.00">Decoder::decode</text>
</a>
</g>
</g>
<!-- Node1&#45;&gt;Node2 -->
<g id="edge1" class="edge">
<title>Node1&#45;&gt;Node2</title>
<path fill="none" stroke="midnightblue" d="M1223.55,-80.34C1167.35,-85.69 1085.89,-92 1014.5,-92 1014.5,-92 1014.5,-92 595,-92 534.3,-92 465.59,-92 414.2,-92"/>
<polygon fill="midnightblue" stroke="midnightblue" points="1224.12,-83.8 1233.74,-79.35 1223.45,-76.83 1224.12,-83.8"/>
</g>
<!-- Node5 -->
<g id="node5" class="node">
<title>Node5</title>
<g id="a_node5"><a xlink:href="pb__decode_8c.html#a69a78d2efcd4b9057215ac8b79a5eb2b" target="_top" xlink:title=" ">
<polygon fill="white" stroke="black" points="1085,-44.5 1085,-63.5 1198,-63.5 1198,-44.5 1085,-44.5"/>
<text text-anchor="middle" x="1141.5" y="-51.5" font-family="Helvetica,sans-Serif" font-size="10.00">decode_callback_field</text>
</a>
</g>
</g>
<!-- Node1&#45;&gt;Node5 -->
<g id="edge4" class="edge">
<title>Node1&#45;&gt;Node5</title>
<path fill="none" stroke="midnightblue" d="M1223.71,-64.29C1215.18,-63.21 1206.54,-62.11 1198.24,-61.06"/>
<polygon fill="midnightblue" stroke="midnightblue" points="1223.29,-67.76 1233.65,-65.55 1224.17,-60.82 1223.29,-67.76"/>
</g>
<!-- Node3 -->
<g id="node3" class="node">
<title>Node3</title>
<g id="a_node3"><a xlink:href="class_k_u_k_a_1_1_f_r_i_1_1_client_application.html#a9939bfd1fa78c59dc3675a6d2a5de7a7" target="_top" xlink:title="Run a single processing step.">
<polygon fill="white" stroke="black" points="74,-77 74,-107 220,-107 220,-77 74,-77"/>
<text text-anchor="start" x="82" y="-95" font-family="Helvetica,sans-Serif" font-size="10.00">KUKA::FRI::ClientApplication</text>
<text text-anchor="middle" x="147" y="-84" font-family="Helvetica,sans-Serif" font-size="10.00">::step</text>
</a>
</g>
</g>
<!-- Node2&#45;&gt;Node3 -->
<g id="edge2" class="edge">
<title>Node2&#45;&gt;Node3</title>
<path fill="none" stroke="midnightblue" d="M245.88,-92C237.29,-92 228.65,-92 220.24,-92"/>
<polygon fill="midnightblue" stroke="midnightblue" points="245.93,-95.5 255.93,-92 245.93,-88.5 245.93,-95.5"/>
</g>
<!-- Node4 -->
<g id="node4" class="node">
<title>Node4</title>
<g id="a_node4"><a xlink:href="_i_o_access_app_8cpp.html#a3c04138a5bfe5d72780bb7e82a18e627" target="_top" xlink:title=" ">
<polygon fill="white" stroke="black" points="0,-82.5 0,-101.5 38,-101.5 38,-82.5 0,-82.5"/>
<text text-anchor="middle" x="19" y="-89.5" font-family="Helvetica,sans-Serif" font-size="10.00">main</text>
</a>
</g>
</g>
<!-- Node3&#45;&gt;Node4 -->
<g id="edge3" class="edge">
<title>Node3&#45;&gt;Node4</title>
<path fill="none" stroke="midnightblue" d="M63.74,-92C54.28,-92 45.45,-92 38.25,-92"/>
<polygon fill="midnightblue" stroke="midnightblue" points="63.8,-95.5 73.8,-92 63.8,-88.5 63.8,-95.5"/>
</g>
<!-- Node6 -->
<g id="node6" class="node">
<title>Node6</title>
<g id="a_node6"><a xlink:href="pb__decode_8c.html#a48151430d329252cc54fd9764dd820f7" target="_top" xlink:title=" ">
<polygon fill="white" stroke="black" points="978,-44.5 978,-63.5 1049,-63.5 1049,-44.5 978,-44.5"/>
<text text-anchor="middle" x="1013.5" y="-51.5" font-family="Helvetica,sans-Serif" font-size="10.00">decode_field</text>
</a>
</g>
</g>
<!-- Node5&#45;&gt;Node6 -->
<g id="edge5" class="edge">
<title>Node5&#45;&gt;Node6</title>
<path fill="none" stroke="midnightblue" d="M1074.59,-54C1065.82,-54 1057.13,-54 1049.2,-54"/>
<polygon fill="midnightblue" stroke="midnightblue" points="1074.87,-57.5 1084.87,-54 1074.87,-50.5 1074.87,-57.5"/>
</g>
<!-- Node7 -->
<g id="node7" class="node">
<title>Node7</title>
<g id="a_node7"><a xlink:href="pb__decode_8c.html#a7c09905fda4c6398697bcf0d42882c04" target="_top" xlink:title=" ">
<polygon fill="white" stroke="black" points="809,-6.5 809,-25.5 942,-25.5 942,-6.5 809,-6.5"/>
<text text-anchor="middle" x="875.5" y="-13.5" font-family="Helvetica,sans-Serif" font-size="10.00">default_extension_decoder</text>
</a>
</g>
</g>
<!-- Node6&#45;&gt;Node7 -->
<g id="edge6" class="edge">
<title>Node6&#45;&gt;Node7</title>
<path fill="none" stroke="midnightblue" d="M968.41,-41.68C949.73,-36.46 928.28,-30.47 910.81,-25.59"/>
<polygon fill="midnightblue" stroke="midnightblue" points="967.61,-45.09 978.18,-44.41 969.49,-38.35 967.61,-45.09"/>
</g>
<!-- Node9 -->
<g id="node9" class="node">
<title>Node9</title>
<g id="a_node9"><a xlink:href="pb__decode_8c.html#a0c0f95a964239344d503e724818e8fc0" target="_top" xlink:title=" ">
<polygon fill="white" stroke="black" points="550,-22.5 550,-41.5 642,-41.5 642,-22.5 550,-22.5"/>
<text text-anchor="middle" x="596" y="-29.5" font-family="Helvetica,sans-Serif" font-size="10.00">pb_decode_noinit</text>
</a>
</g>
</g>
<!-- Node6&#45;&gt;Node9 -->
<g id="edge14" class="edge">
<title>Node6&#45;&gt;Node9</title>
<path fill="none" stroke="midnightblue" d="M967.57,-51.62C887.75,-47.39 722.1,-38.62 642.13,-34.39"/>
<polygon fill="midnightblue" stroke="midnightblue" points="967.62,-55.13 977.79,-52.16 967.99,-48.14 967.62,-55.13"/>
</g>
<!-- Node8 -->
<g id="node8" class="node">
<title>Node8</title>
<g id="a_node8"><a xlink:href="pb__decode_8c.html#a30eb2ecefe2a2095c1c668e3932b63fc" target="_top" xlink:title=" ">
<polygon fill="white" stroke="black" points="678,-6.5 678,-25.5 773,-25.5 773,-6.5 678,-6.5"/>
<text text-anchor="middle" x="725.5" y="-13.5" font-family="Helvetica,sans-Serif" font-size="10.00">decode_extension</text>
</a>
</g>
</g>
<!-- Node7&#45;&gt;Node8 -->
<g id="edge7" class="edge">
<title>Node7&#45;&gt;Node8</title>
<path fill="none" stroke="midnightblue" d="M798.52,-16C789.82,-16 781.15,-16 773.01,-16"/>
<polygon fill="midnightblue" stroke="midnightblue" points="798.72,-19.5 808.72,-16 798.72,-12.5 798.72,-19.5"/>
</g>
<!-- Node8&#45;&gt;Node9 -->
<g id="edge8" class="edge">
<title>Node8&#45;&gt;Node9</title>
<path fill="none" stroke="midnightblue" d="M667.76,-23.12C659.15,-24.2 650.36,-25.3 642.05,-26.35"/>
<polygon fill="midnightblue" stroke="midnightblue" points="668.26,-26.58 677.75,-21.87 667.39,-19.64 668.26,-26.58"/>
</g>
<!-- Node10 -->
<g id="node10" class="node">
<title>Node10</title>
<g id="a_node10"><a xlink:href="pb__decode_8c.html#adb01106a062444577e9e3f3a047db2ef" target="_top" xlink:title=" ">
<polygon fill="white" stroke="black" points="280.5,-0.5 280.5,-19.5 389.5,-19.5 389.5,-0.5 280.5,-0.5"/>
<text text-anchor="middle" x="335" y="-7.5" font-family="Helvetica,sans-Serif" font-size="10.00">pb_dec_submessage</text>
</a>
</g>
</g>
<!-- Node9&#45;&gt;Node10 -->
<g id="edge9" class="edge">
<title>Node9&#45;&gt;Node10</title>
<path fill="none" stroke="midnightblue" d="M539.85,-27.32C495.48,-23.55 433.49,-18.28 389.55,-14.55"/>
<polygon fill="midnightblue" stroke="midnightblue" points="539.63,-30.81 549.89,-28.17 540.22,-23.83 539.63,-30.81"/>
</g>
<!-- Node11 -->
<g id="node11" class="node">
<title>Node11</title>
<g id="a_node11"><a xlink:href="pb__decode_8c.html#a75c9a727abe84bfaaef633ac68d48cfa" target="_top" xlink:title=" ">
<polygon fill="white" stroke="black" points="450,-38.5 450,-57.5 514,-57.5 514,-38.5 450,-38.5"/>
<text text-anchor="middle" x="482" y="-45.5" font-family="Helvetica,sans-Serif" font-size="10.00">pb_decode</text>
</a>
</g>
</g>
<!-- Node9&#45;&gt;Node11 -->
<g id="edge10" class="edge">
<title>Node9&#45;&gt;Node11</title>
<path fill="none" stroke="midnightblue" d="M539.62,-39.91C530.92,-41.15 522.2,-42.4 514.31,-43.53"/>
<polygon fill="midnightblue" stroke="midnightblue" points="540.36,-43.34 549.77,-38.46 539.37,-36.41 540.36,-43.34"/>
</g>
<!-- Node11&#45;&gt;Node2 -->
<g id="edge11" class="edge">
<title>Node11&#45;&gt;Node2</title>
<path fill="none" stroke="midnightblue" d="M440.27,-60.36C423.29,-65.51 403.41,-71.54 385.59,-76.95"/>
<polygon fill="midnightblue" stroke="midnightblue" points="441.34,-63.69 449.89,-57.44 439.31,-56.99 441.34,-63.69"/>
</g>
<!-- Node11&#45;&gt;Node10 -->
<g id="edge12" class="edge">
<title>Node11&#45;&gt;Node10</title>
<path fill="none" stroke="midnightblue" d="M439.92,-36.09C431.37,-33.68 422.4,-31.21 414,-29 401.87,-25.8 388.63,-22.51 376.56,-19.57"/>
<polygon fill="midnightblue" stroke="midnightblue" points="439.13,-39.5 449.71,-38.86 441.04,-32.77 439.13,-39.5"/>
</g>
<!-- Node12 -->
<g id="node12" class="node">
<title>Node12</title>
<g id="a_node12"><a xlink:href="pb__decode_8c.html#a7c030d7dee687e354a62a72d45dca39b" target="_top" xlink:title=" ">
<polygon fill="white" stroke="black" points="281,-38.5 281,-57.5 389,-57.5 389,-38.5 281,-38.5"/>
<text text-anchor="middle" x="335" y="-45.5" font-family="Helvetica,sans-Serif" font-size="10.00">pb_decode_delimited</text>
</a>
</g>
</g>
<!-- Node11&#45;&gt;Node12 -->
<g id="edge13" class="edge">
<title>Node11&#45;&gt;Node12</title>
<path fill="none" stroke="midnightblue" d="M439.45,-48C423.74,-48 405.65,-48 389.03,-48"/>
<polygon fill="midnightblue" stroke="midnightblue" points="439.89,-51.5 449.89,-48 439.89,-44.5 439.89,-51.5"/>
</g>
</g>
</svg>
