<?xml version="1.0" encoding="UTF-8" standalone="no"?>
<!DOCTYPE svg PUBLIC "-//W3C//DTD SVG 1.1//EN"
 "http://www.w3.org/Graphics/SVG/1.1/DTD/svg11.dtd">
<!-- Generated by graphviz version 2.43.0 (0)
 -->
<!-- Title: buf_read Pages: 1 -->
<!--zoomable 332 -->
<svg id="main" version="1.1" xmlns="http://www.w3.org/2000/svg" xmlns:xlink="http://www.w3.org/1999/xlink" xml:space="preserve" onload="init(evt)">
<style type="text/css"><![CDATA[
.edge:hover path { stroke: red; }
.edge:hover polygon { stroke: red; fill: red; }
]]></style>
<script type="text/javascript"><![CDATA[
var edges = document.getElementsByTagName('g');
if (edges && edges.length) {
  for (var i=0;i<edges.length;i++) {
    if (edges[i].id.substr(0,4)=='edge') {
      edges[i].setAttribute('class','edge');
    }
  }
}
]]></script>
        <defs>
                <circle id="rim" cx="0" cy="0" r="7"/>
                <circle id="rim2" cx="0" cy="0" r="3.5"/>
                <g id="zoomPlus">
                        <use xlink:href="#rim" fill="#404040">
                                <set attributeName="fill" to="#808080" begin="zoomplus.mouseover" end="zoomplus.mouseout"/>
                        </use>
                        <path d="M-4,0h8M0,-4v8" fill="none" stroke="white" stroke-width="1.5" pointer-events="none"/>
                </g>
                <g id="zoomMin">
                        <use xlink:href="#rim" fill="#404040">
                                <set attributeName="fill" to="#808080" begin="zoomminus.mouseover" end="zoomminus.mouseout"/>
                        </use>
                        <path d="M-4,0h8" fill="none" stroke="white" stroke-width="1.5" pointer-events="none"/>
                </g>
                <g id="dirArrow">
                        <path fill="none" stroke="white" stroke-width="1.5" d="M0,-3.0v7 M-2.5,-0.5L0,-3.0L2.5,-0.5"/>
                </g>
               <g id="resetDef">
                       <use xlink:href="#rim2" fill="#404040">
                               <set attributeName="fill" to="#808080" begin="reset.mouseover" end="reset.mouseout"/>
                       </use>
               </g>
        </defs>

<script type="text/javascript">
var viewWidth = 1813;
var viewHeight = 332;
var sectionId = 'dynsection-1';
</script>
<script xlink:href="svgpan.js"/>
<svg id="graph" class="graph">
<g id="viewport">
<title>buf_read</title>
<polygon fill="white" stroke="transparent" points="-4,4 -4,-328 1809,-328 1809,4 -4,4"/>
<!-- Node1 -->
<g id="node1" class="node">
<title>Node1</title>
<g id="a_node1"><a xlink:title=" ">
<polygon fill="#bfbfbf" stroke="black" points="1751,-228.5 1751,-247.5 1805,-247.5 1805,-228.5 1751,-228.5"/>
<text text-anchor="middle" x="1778" y="-235.5" font-family="Helvetica,sans-Serif" font-size="10.00">buf_read</text>
</a>
</g>
</g>
<!-- Node2 -->
<g id="node2" class="node">
<title>Node2</title>
<g id="a_node2"><a xlink:href="pb__decode_8c.html#a37dc2b0c54c27ddd29791e7522c85548" target="_top" xlink:title=" ">
<polygon fill="white" stroke="black" points="1370.5,-304.5 1370.5,-323.5 1489.5,-323.5 1489.5,-304.5 1370.5,-304.5"/>
<text text-anchor="middle" x="1430" y="-311.5" font-family="Helvetica,sans-Serif" font-size="10.00">pb_istream_from_buffer</text>
</a>
</g>
</g>
<!-- Node1&#45;&gt;Node2 -->
<g id="edge1" class="edge">
<title>Node1&#45;&gt;Node2</title>
<path fill="none" stroke="midnightblue" d="M1748.01,-251.78C1718.51,-265.15 1671.12,-284.87 1628,-295 1582.34,-305.73 1529.37,-310.42 1489.86,-312.46"/>
<polygon fill="midnightblue" stroke="midnightblue" points="1749.67,-254.87 1757.3,-247.51 1746.75,-248.51 1749.67,-254.87"/>
</g>
<!-- Node14 -->
<g id="node14" class="node">
<title>Node14</title>
<g id="a_node14"><a xlink:href="pb__decode_8c.html#ad54a52168427208d756087919ff82d41" target="_top" xlink:title=" ">
<polygon fill="white" stroke="black" points="1664,-152.5 1664,-171.5 1715,-171.5 1715,-152.5 1664,-152.5"/>
<text text-anchor="middle" x="1689.5" y="-159.5" font-family="Helvetica,sans-Serif" font-size="10.00">pb_read</text>
</a>
</g>
</g>
<!-- Node1&#45;&gt;Node14 -->
<g id="edge16" class="edge">
<title>Node1&#45;&gt;Node14</title>
<path fill="none" stroke="midnightblue" d="M1758.23,-221.51C1740.85,-206.24 1715.62,-184.07 1701.37,-171.55"/>
<polygon fill="midnightblue" stroke="midnightblue" points="1756.22,-224.4 1766.04,-228.37 1760.84,-219.14 1756.22,-224.4"/>
</g>
<!-- Node3 -->
<g id="node3" class="node">
<title>Node3</title>
<g id="a_node3"><a xlink:href="class_k_u_k_a_1_1_f_r_i_1_1_monitoring_message_decoder.html#aa72fb1e622847a636e6f5d7ac4770103" target="_top" xlink:title=" ">
<polygon fill="white" stroke="black" points="256,-265 256,-295 414,-295 414,-265 256,-265"/>
<text text-anchor="start" x="264" y="-283" font-family="Helvetica,sans-Serif" font-size="10.00">KUKA::FRI::MonitoringMessage</text>
<text text-anchor="middle" x="335" y="-272" font-family="Helvetica,sans-Serif" font-size="10.00">Decoder::decode</text>
</a>
</g>
</g>
<!-- Node2&#45;&gt;Node3 -->
<g id="edge2" class="edge">
<title>Node2&#45;&gt;Node3</title>
<path fill="none" stroke="midnightblue" d="M1360.18,-315.01C1294.78,-315.88 1193.7,-317 1106,-317 1106,-317 1106,-317 595,-317 529.59,-317 455.82,-305.29 403.79,-295.05"/>
<polygon fill="midnightblue" stroke="midnightblue" points="1360.4,-318.51 1370.36,-314.87 1360.31,-311.51 1360.4,-318.51"/>
</g>
<!-- Node6 -->
<g id="node6" class="node">
<title>Node6</title>
<g id="a_node6"><a xlink:href="pb__decode_8c.html#a69a78d2efcd4b9057215ac8b79a5eb2b" target="_top" xlink:title=" ">
<polygon fill="white" stroke="black" points="1220,-152.5 1220,-171.5 1333,-171.5 1333,-152.5 1220,-152.5"/>
<text text-anchor="middle" x="1276.5" y="-159.5" font-family="Helvetica,sans-Serif" font-size="10.00">decode_callback_field</text>
</a>
</g>
</g>
<!-- Node2&#45;&gt;Node6 -->
<g id="edge5" class="edge">
<title>Node2&#45;&gt;Node6</title>
<path fill="none" stroke="midnightblue" d="M1377.02,-300.06C1374.21,-298.54 1371.51,-296.86 1369,-295 1345.35,-277.49 1298.93,-199.21 1283.01,-171.64"/>
<polygon fill="midnightblue" stroke="midnightblue" points="1375.75,-303.33 1386.3,-304.38 1378.71,-296.98 1375.75,-303.33"/>
</g>
<!-- Node4 -->
<g id="node4" class="node">
<title>Node4</title>
<g id="a_node4"><a xlink:href="class_k_u_k_a_1_1_f_r_i_1_1_client_application.html#a9939bfd1fa78c59dc3675a6d2a5de7a7" target="_top" xlink:title="Run a single processing step.">
<polygon fill="white" stroke="black" points="74,-265 74,-295 220,-295 220,-265 74,-265"/>
<text text-anchor="start" x="82" y="-283" font-family="Helvetica,sans-Serif" font-size="10.00">KUKA::FRI::ClientApplication</text>
<text text-anchor="middle" x="147" y="-272" font-family="Helvetica,sans-Serif" font-size="10.00">::step</text>
</a>
</g>
</g>
<!-- Node3&#45;&gt;Node4 -->
<g id="edge3" class="edge">
<title>Node3&#45;&gt;Node4</title>
<path fill="none" stroke="midnightblue" d="M245.88,-280C237.29,-280 228.65,-280 220.24,-280"/>
<polygon fill="midnightblue" stroke="midnightblue" points="245.93,-283.5 255.93,-280 245.93,-276.5 245.93,-283.5"/>
</g>
<!-- Node5 -->
<g id="node5" class="node">
<title>Node5</title>
<g id="a_node5"><a xlink:href="_i_o_access_app_8cpp.html#a3c04138a5bfe5d72780bb7e82a18e627" target="_top" xlink:title=" ">
<polygon fill="white" stroke="black" points="0,-270.5 0,-289.5 38,-289.5 38,-270.5 0,-270.5"/>
<text text-anchor="middle" x="19" y="-277.5" font-family="Helvetica,sans-Serif" font-size="10.00">main</text>
</a>
</g>
</g>
<!-- Node4&#45;&gt;Node5 -->
<g id="edge4" class="edge">
<title>Node4&#45;&gt;Node5</title>
<path fill="none" stroke="midnightblue" d="M63.74,-280C54.28,-280 45.45,-280 38.25,-280"/>
<polygon fill="midnightblue" stroke="midnightblue" points="63.8,-283.5 73.8,-280 63.8,-276.5 63.8,-283.5"/>
</g>
<!-- Node7 -->
<g id="node7" class="node">
<title>Node7</title>
<g id="a_node7"><a xlink:href="pb__decode_8c.html#a48151430d329252cc54fd9764dd820f7" target="_top" xlink:title=" ">
<polygon fill="white" stroke="black" points="1069.5,-152.5 1069.5,-171.5 1140.5,-171.5 1140.5,-152.5 1069.5,-152.5"/>
<text text-anchor="middle" x="1105" y="-159.5" font-family="Helvetica,sans-Serif" font-size="10.00">decode_field</text>
</a>
</g>
</g>
<!-- Node6&#45;&gt;Node7 -->
<g id="edge6" class="edge">
<title>Node6&#45;&gt;Node7</title>
<path fill="none" stroke="midnightblue" d="M1209.69,-162C1186.12,-162 1160.49,-162 1140.6,-162"/>
<polygon fill="midnightblue" stroke="midnightblue" points="1210,-165.5 1220,-162 1210,-158.5 1210,-165.5"/>
</g>
<!-- Node8 -->
<g id="node8" class="node">
<title>Node8</title>
<g id="a_node8"><a xlink:href="pb__decode_8c.html#a7c09905fda4c6398697bcf0d42882c04" target="_top" xlink:title=" ">
<polygon fill="white" stroke="black" points="833,-170.5 833,-189.5 966,-189.5 966,-170.5 833,-170.5"/>
<text text-anchor="middle" x="899.5" y="-177.5" font-family="Helvetica,sans-Serif" font-size="10.00">default_extension_decoder</text>
</a>
</g>
</g>
<!-- Node7&#45;&gt;Node8 -->
<g id="edge7" class="edge">
<title>Node7&#45;&gt;Node8</title>
<path fill="none" stroke="midnightblue" d="M1059.43,-165.94C1032.09,-168.36 996.61,-171.5 966.1,-174.2"/>
<polygon fill="midnightblue" stroke="midnightblue" points="1059.83,-169.42 1069.48,-165.05 1059.21,-162.45 1059.83,-169.42"/>
</g>
<!-- Node10 -->
<g id="node10" class="node">
<title>Node10</title>
<g id="a_node10"><a xlink:href="pb__decode_8c.html#a0c0f95a964239344d503e724818e8fc0" target="_top" xlink:title=" ">
<polygon fill="white" stroke="black" points="550,-151.5 550,-170.5 642,-170.5 642,-151.5 550,-151.5"/>
<text text-anchor="middle" x="596" y="-158.5" font-family="Helvetica,sans-Serif" font-size="10.00">pb_decode_noinit</text>
</a>
</g>
</g>
<!-- Node7&#45;&gt;Node10 -->
<g id="edge15" class="edge">
<title>Node7&#45;&gt;Node10</title>
<path fill="none" stroke="midnightblue" d="M1059.09,-161.52C1038.1,-161.31 1012.77,-161.1 990,-161 863.95,-160.45 715.15,-160.69 642.09,-160.87"/>
<polygon fill="midnightblue" stroke="midnightblue" points="1059.29,-165.02 1069.33,-161.62 1059.36,-158.02 1059.29,-165.02"/>
</g>
<!-- Node9 -->
<g id="node9" class="node">
<title>Node9</title>
<g id="a_node9"><a xlink:href="pb__decode_8c.html#a30eb2ecefe2a2095c1c668e3932b63fc" target="_top" xlink:title=" ">
<polygon fill="white" stroke="black" points="678,-170.5 678,-189.5 773,-189.5 773,-170.5 678,-170.5"/>
<text text-anchor="middle" x="725.5" y="-177.5" font-family="Helvetica,sans-Serif" font-size="10.00">decode_extension</text>
</a>
</g>
</g>
<!-- Node8&#45;&gt;Node9 -->
<g id="edge8" class="edge">
<title>Node8&#45;&gt;Node9</title>
<path fill="none" stroke="midnightblue" d="M822.59,-180C805.75,-180 788.38,-180 773.13,-180"/>
<polygon fill="midnightblue" stroke="midnightblue" points="822.98,-183.5 832.98,-180 822.98,-176.5 822.98,-183.5"/>
</g>
<!-- Node9&#45;&gt;Node10 -->
<g id="edge9" class="edge">
<title>Node9&#45;&gt;Node10</title>
<path fill="none" stroke="midnightblue" d="M667.76,-171.54C659.15,-170.26 650.36,-168.95 642.05,-167.71"/>
<polygon fill="midnightblue" stroke="midnightblue" points="667.34,-175.02 677.75,-173.03 668.37,-168.1 667.34,-175.02"/>
</g>
<!-- Node11 -->
<g id="node11" class="node">
<title>Node11</title>
<g id="a_node11"><a xlink:href="pb__decode_8c.html#adb01106a062444577e9e3f3a047db2ef" target="_top" xlink:title=" ">
<polygon fill="white" stroke="black" points="280.5,-151.5 280.5,-170.5 389.5,-170.5 389.5,-151.5 280.5,-151.5"/>
<text text-anchor="middle" x="335" y="-158.5" font-family="Helvetica,sans-Serif" font-size="10.00">pb_dec_submessage</text>
</a>
</g>
</g>
<!-- Node10&#45;&gt;Node11 -->
<g id="edge10" class="edge">
<title>Node10&#45;&gt;Node11</title>
<path fill="none" stroke="midnightblue" d="M539.85,-161C495.48,-161 433.49,-161 389.55,-161"/>
<polygon fill="midnightblue" stroke="midnightblue" points="539.89,-164.5 549.89,-161 539.89,-157.5 539.89,-164.5"/>
</g>
<!-- Node12 -->
<g id="node12" class="node">
<title>Node12</title>
<g id="a_node12"><a xlink:href="pb__decode_8c.html#a75c9a727abe84bfaaef633ac68d48cfa" target="_top" xlink:title=" ">
<polygon fill="white" stroke="black" points="450,-189.5 450,-208.5 514,-208.5 514,-189.5 450,-189.5"/>
<text text-anchor="middle" x="482" y="-196.5" font-family="Helvetica,sans-Serif" font-size="10.00">pb_decode</text>
</a>
</g>
</g>
<!-- Node10&#45;&gt;Node12 -->
<g id="edge11" class="edge">
<title>Node10&#45;&gt;Node12</title>
<path fill="none" stroke="midnightblue" d="M557.2,-173.83C542.17,-178.92 525.18,-184.69 511.25,-189.41"/>
<polygon fill="midnightblue" stroke="midnightblue" points="558.39,-177.12 566.74,-170.59 556.14,-170.49 558.39,-177.12"/>
</g>
<!-- Node12&#45;&gt;Node3 -->
<g id="edge12" class="edge">
<title>Node12&#45;&gt;Node3</title>
<path fill="none" stroke="midnightblue" d="M454.91,-213.58C428.96,-228.07 389.32,-250.21 363.04,-264.89"/>
<polygon fill="midnightblue" stroke="midnightblue" points="456.77,-216.54 463.8,-208.61 453.36,-210.43 456.77,-216.54"/>
</g>
<!-- Node12&#45;&gt;Node11 -->
<g id="edge13" class="edge">
<title>Node12&#45;&gt;Node11</title>
<path fill="none" stroke="midnightblue" d="M439.92,-187.09C431.37,-184.68 422.4,-182.21 414,-180 401.87,-176.8 388.63,-173.51 376.56,-170.57"/>
<polygon fill="midnightblue" stroke="midnightblue" points="439.13,-190.5 449.71,-189.86 441.04,-183.77 439.13,-190.5"/>
</g>
<!-- Node13 -->
<g id="node13" class="node">
<title>Node13</title>
<g id="a_node13"><a xlink:href="pb__decode_8c.html#a7c030d7dee687e354a62a72d45dca39b" target="_top" xlink:title=" ">
<polygon fill="white" stroke="black" points="281,-189.5 281,-208.5 389,-208.5 389,-189.5 281,-189.5"/>
<text text-anchor="middle" x="335" y="-196.5" font-family="Helvetica,sans-Serif" font-size="10.00">pb_decode_delimited</text>
</a>
</g>
</g>
<!-- Node12&#45;&gt;Node13 -->
<g id="edge14" class="edge">
<title>Node12&#45;&gt;Node13</title>
<path fill="none" stroke="midnightblue" d="M439.45,-199C423.74,-199 405.65,-199 389.03,-199"/>
<polygon fill="midnightblue" stroke="midnightblue" points="439.89,-202.5 449.89,-199 439.89,-195.5 439.89,-202.5"/>
</g>
<!-- Node15 -->
<g id="node15" class="node">
<title>Node15</title>
<g id="a_node15"><a xlink:href="pb__decode_8c.html#a15f2b12ed6c126fe4e54c7ae0b588cb3" target="_top" xlink:title=" ">
<polygon fill="white" stroke="black" points="1539,-0.5 1539,-19.5 1616,-19.5 1616,-0.5 1539,-0.5"/>
<text text-anchor="middle" x="1577.5" y="-7.5" font-family="Helvetica,sans-Serif" font-size="10.00">pb_dec_bytes</text>
</a>
</g>
</g>
<!-- Node14&#45;&gt;Node15 -->
<g id="edge17" class="edge">
<title>Node14&#45;&gt;Node15</title>
<path fill="none" stroke="midnightblue" d="M1684.47,-142.11C1677.67,-113.39 1661.26,-60.31 1628,-29 1623.91,-25.15 1618.96,-22.06 1613.79,-19.58"/>
<polygon fill="midnightblue" stroke="midnightblue" points="1681.11,-143.15 1686.69,-152.16 1687.95,-141.64 1681.11,-143.15"/>
</g>
<!-- Node16 -->
<g id="node16" class="node">
<title>Node16</title>
<g id="a_node16"><a xlink:href="pb__decode_8c.html#ac5cddfbfd98fb7a18ce912e1ee6405d4" target="_top" xlink:title=" ">
<polygon fill="white" stroke="black" points="1539,-266.5 1539,-285.5 1616,-285.5 1616,-266.5 1539,-266.5"/>
<text text-anchor="middle" x="1577.5" y="-273.5" font-family="Helvetica,sans-Serif" font-size="10.00">pb_dec_string</text>
</a>
</g>
</g>
<!-- Node14&#45;&gt;Node16 -->
<g id="edge18" class="edge">
<title>Node14&#45;&gt;Node16</title>
<path fill="none" stroke="midnightblue" d="M1680.91,-180.75C1671.45,-201.97 1653.37,-236.27 1628,-257 1623.3,-260.84 1617.73,-263.97 1612.05,-266.49"/>
<polygon fill="midnightblue" stroke="midnightblue" points="1684.16,-182.07 1684.86,-171.5 1677.72,-179.33 1684.16,-182.07"/>
</g>
<!-- Node17 -->
<g id="node17" class="node">
<title>Node17</title>
<g id="a_node17"><a xlink:href="pb__decode_8c.html#a314808b2293f16165a056be4f3dc28d6" target="_top" xlink:title=" ">
<polygon fill="white" stroke="black" points="1527,-190.5 1527,-209.5 1628,-209.5 1628,-190.5 1527,-190.5"/>
<text text-anchor="middle" x="1577.5" y="-197.5" font-family="Helvetica,sans-Serif" font-size="10.00">pb_decode_fixed32</text>
</a>
</g>
</g>
<!-- Node14&#45;&gt;Node17 -->
<g id="edge19" class="edge">
<title>Node14&#45;&gt;Node17</title>
<path fill="none" stroke="midnightblue" d="M1654.11,-173.88C1638.68,-179.21 1620.74,-185.41 1606.2,-190.43"/>
<polygon fill="midnightblue" stroke="midnightblue" points="1655.5,-177.1 1663.81,-170.53 1653.22,-170.49 1655.5,-177.1"/>
</g>
<!-- Node19 -->
<g id="node19" class="node">
<title>Node19</title>
<g id="a_node19"><a xlink:href="pb__decode_8c.html#abdd5881d0bc42df1a78d46f487065681" target="_top" xlink:title=" ">
<polygon fill="white" stroke="black" points="1527,-228.5 1527,-247.5 1628,-247.5 1628,-228.5 1527,-228.5"/>
<text text-anchor="middle" x="1577.5" y="-235.5" font-family="Helvetica,sans-Serif" font-size="10.00">pb_decode_fixed64</text>
</a>
</g>
</g>
<!-- Node14&#45;&gt;Node19 -->
<g id="edge21" class="edge">
<title>Node14&#45;&gt;Node19</title>
<path fill="none" stroke="midnightblue" d="M1673.69,-179.16C1662.24,-191.58 1645.44,-208.04 1628,-219 1622.15,-222.67 1615.49,-225.83 1608.98,-228.45"/>
<polygon fill="midnightblue" stroke="midnightblue" points="1676.33,-181.47 1680.4,-171.69 1671.12,-176.79 1676.33,-181.47"/>
</g>
<!-- Node27 -->
<g id="node27" class="node">
<title>Node27</title>
<g id="a_node27"><a xlink:href="pb__decode_8c.html#ab5102942c8402c215f836364e1b775b1" target="_top" xlink:title=" ">
<polygon fill="white" stroke="black" points="1393,-94.5 1393,-113.5 1467,-113.5 1467,-94.5 1393,-94.5"/>
<text text-anchor="middle" x="1430" y="-101.5" font-family="Helvetica,sans-Serif" font-size="10.00">pb_skip_field</text>
</a>
</g>
</g>
<!-- Node14&#45;&gt;Node27 -->
<g id="edge29" class="edge">
<title>Node14&#45;&gt;Node27</title>
<path fill="none" stroke="midnightblue" d="M1675.79,-144.26C1664.87,-130.66 1647.79,-112.91 1628,-105 1575.12,-83.86 1507.7,-89.79 1467.01,-96.53"/>
<polygon fill="midnightblue" stroke="midnightblue" points="1673.2,-146.63 1682.05,-152.46 1678.77,-142.39 1673.2,-146.63"/>
</g>
<!-- Node28 -->
<g id="node28" class="node">
<title>Node28</title>
<g id="a_node28"><a xlink:href="pb__decode_8c.html#afa3e9c4da6d998fd6315d4cbd51b02e4" target="_top" xlink:title=" ">
<polygon fill="white" stroke="black" points="1537.5,-38.5 1537.5,-57.5 1617.5,-57.5 1617.5,-38.5 1537.5,-38.5"/>
<text text-anchor="middle" x="1577.5" y="-45.5" font-family="Helvetica,sans-Serif" font-size="10.00">pb_skip_string</text>
</a>
</g>
</g>
<!-- Node14&#45;&gt;Node28 -->
<g id="edge32" class="edge">
<title>Node14&#45;&gt;Node28</title>
<path fill="none" stroke="midnightblue" d="M1679.61,-143.15C1669.47,-123.3 1651.24,-92.19 1628,-72 1621.22,-66.11 1612.75,-61.31 1604.74,-57.6"/>
<polygon fill="midnightblue" stroke="midnightblue" points="1676.6,-144.96 1684.16,-152.38 1682.88,-141.86 1676.6,-144.96"/>
</g>
<!-- Node29 -->
<g id="node29" class="node">
<title>Node29</title>
<g id="a_node29"><a xlink:href="pb__decode_8c.html#a57738ceef4b30349437900b245a33c77" target="_top" xlink:title=" ">
<polygon fill="white" stroke="black" points="1537.5,-114.5 1537.5,-133.5 1617.5,-133.5 1617.5,-114.5 1537.5,-114.5"/>
<text text-anchor="middle" x="1577.5" y="-121.5" font-family="Helvetica,sans-Serif" font-size="10.00">pb_skip_varint</text>
</a>
</g>
</g>
<!-- Node14&#45;&gt;Node29 -->
<g id="edge34" class="edge">
<title>Node14&#45;&gt;Node29</title>
<path fill="none" stroke="midnightblue" d="M1654.11,-150.12C1638.68,-144.79 1620.74,-138.59 1606.2,-133.57"/>
<polygon fill="midnightblue" stroke="midnightblue" points="1653.22,-153.51 1663.81,-153.47 1655.5,-146.9 1653.22,-153.51"/>
</g>
<!-- Node30 -->
<g id="node30" class="node">
<title>Node30</title>
<g id="a_node30"><a xlink:href="pb__decode_8c.html#a3f23856ca4723854f204b46d5f10c3ec" target="_top" xlink:title=" ">
<polygon fill="white" stroke="black" points="1387.5,-152.5 1387.5,-171.5 1472.5,-171.5 1472.5,-152.5 1387.5,-152.5"/>
<text text-anchor="middle" x="1430" y="-159.5" font-family="Helvetica,sans-Serif" font-size="10.00">read_raw_value</text>
</a>
</g>
</g>
<!-- Node14&#45;&gt;Node30 -->
<g id="edge36" class="edge">
<title>Node14&#45;&gt;Node30</title>
<path fill="none" stroke="midnightblue" d="M1653.53,-162C1606.57,-162 1523.22,-162 1472.94,-162"/>
<polygon fill="midnightblue" stroke="midnightblue" points="1653.81,-165.5 1663.81,-162 1653.81,-158.5 1653.81,-165.5"/>
</g>
<!-- Node18 -->
<g id="node18" class="node">
<title>Node18</title>
<g id="a_node18"><a xlink:href="pb__decode_8c.html#aa8a208f31461478599b828a29ebad089" target="_top" xlink:title=" ">
<polygon fill="white" stroke="black" points="1387.5,-190.5 1387.5,-209.5 1472.5,-209.5 1472.5,-190.5 1387.5,-190.5"/>
<text text-anchor="middle" x="1430" y="-197.5" font-family="Helvetica,sans-Serif" font-size="10.00">pb_dec_fixed32</text>
</a>
</g>
</g>
<!-- Node17&#45;&gt;Node18 -->
<g id="edge20" class="edge">
<title>Node17&#45;&gt;Node18</title>
<path fill="none" stroke="midnightblue" d="M1516.74,-200C1501.95,-200 1486.42,-200 1472.7,-200"/>
<polygon fill="midnightblue" stroke="midnightblue" points="1516.83,-203.5 1526.83,-200 1516.83,-196.5 1516.83,-203.5"/>
</g>
<!-- Node20 -->
<g id="node20" class="node">
<title>Node20</title>
<g id="a_node20"><a xlink:href="pb__frimessages__callbacks_8c.html#ac9ec67cd47aed6ee622a420a41fa6540" target="_top" xlink:title=" ">
<polygon fill="white" stroke="black" points="1369,-266.5 1369,-285.5 1491,-285.5 1491,-266.5 1369,-266.5"/>
<text text-anchor="middle" x="1430" y="-273.5" font-family="Helvetica,sans-Serif" font-size="10.00">decode_repeatedDouble</text>
</a>
</g>
</g>
<!-- Node19&#45;&gt;Node20 -->
<g id="edge22" class="edge">
<title>Node19&#45;&gt;Node20</title>
<path fill="none" stroke="midnightblue" d="M1529.85,-250.18C1509.65,-255.46 1486.35,-261.54 1467.45,-266.48"/>
<polygon fill="midnightblue" stroke="midnightblue" points="1530.99,-253.5 1539.78,-247.59 1529.22,-246.73 1530.99,-253.5"/>
</g>
<!-- Node26 -->
<g id="node26" class="node">
<title>Node26</title>
<g id="a_node26"><a xlink:href="pb__decode_8c.html#af959e63ff9d1e5c19d7a05d005ab72b7" target="_top" xlink:title=" ">
<polygon fill="white" stroke="black" points="1387.5,-228.5 1387.5,-247.5 1472.5,-247.5 1472.5,-228.5 1387.5,-228.5"/>
<text text-anchor="middle" x="1430" y="-235.5" font-family="Helvetica,sans-Serif" font-size="10.00">pb_dec_fixed64</text>
</a>
</g>
</g>
<!-- Node19&#45;&gt;Node26 -->
<g id="edge28" class="edge">
<title>Node19&#45;&gt;Node26</title>
<path fill="none" stroke="midnightblue" d="M1516.74,-238C1501.95,-238 1486.42,-238 1472.7,-238"/>
<polygon fill="midnightblue" stroke="midnightblue" points="1516.83,-241.5 1526.83,-238 1516.83,-234.5 1516.83,-241.5"/>
</g>
<!-- Node21 -->
<g id="node21" class="node">
<title>Node21</title>
<g id="a_node21"><a xlink:href="pb__frimessages__callbacks_8c.html#a5283f13633c8400371ab65d44d905901" target="_top" xlink:title=" ">
<polygon fill="white" stroke="black" points="1222,-263.5 1222,-282.5 1331,-282.5 1331,-263.5 1222,-263.5"/>
<text text-anchor="middle" x="1276.5" y="-270.5" font-family="Helvetica,sans-Serif" font-size="10.00">map_repeatedDouble</text>
</a>
</g>
</g>
<!-- Node20&#45;&gt;Node21 -->
<g id="edge23" class="edge">
<title>Node20&#45;&gt;Node21</title>
<path fill="none" stroke="midnightblue" d="M1358.43,-274.6C1349.29,-274.42 1340.04,-274.24 1331.23,-274.06"/>
<polygon fill="midnightblue" stroke="midnightblue" points="1358.62,-278.11 1368.69,-274.81 1358.76,-271.11 1358.62,-278.11"/>
</g>
<!-- Node22 -->
<g id="node22" class="node">
<title>Node22</title>
<g id="a_node22"><a xlink:href="class_k_u_k_a_1_1_f_r_i_1_1_command_message_encoder.html#a40f5b848100484d0e4fdbf6a80d79dac" target="_top" xlink:title=" ">
<polygon fill="white" stroke="black" points="1026,-209 1026,-239 1184,-239 1184,-209 1026,-209"/>
<text text-anchor="start" x="1034" y="-227" font-family="Helvetica,sans-Serif" font-size="10.00">KUKA::FRI::CommandMessage</text>
<text text-anchor="middle" x="1105" y="-216" font-family="Helvetica,sans-Serif" font-size="10.00">Encoder::initMessage</text>
</a>
</g>
</g>
<!-- Node21&#45;&gt;Node22 -->
<g id="edge24" class="edge">
<title>Node21&#45;&gt;Node22</title>
<path fill="none" stroke="midnightblue" d="M1232.72,-260.63C1210.03,-254.07 1181.96,-245.96 1158.02,-239.04"/>
<polygon fill="midnightblue" stroke="midnightblue" points="1231.84,-264.02 1242.42,-263.44 1233.78,-257.3 1231.84,-264.02"/>
</g>
<!-- Node24 -->
<g id="node24" class="node">
<title>Node24</title>
<g id="a_node24"><a xlink:href="class_k_u_k_a_1_1_f_r_i_1_1_monitoring_message_decoder.html#a5f7d8c50c6b2275a90ee8053eeeeda0a" target="_top" xlink:title=" ">
<polygon fill="white" stroke="black" points="1026,-258 1026,-288 1184,-288 1184,-258 1026,-258"/>
<text text-anchor="start" x="1034" y="-276" font-family="Helvetica,sans-Serif" font-size="10.00">KUKA::FRI::MonitoringMessage</text>
<text text-anchor="middle" x="1105" y="-265" font-family="Helvetica,sans-Serif" font-size="10.00">Decoder::initMessage</text>
</a>
</g>
</g>
<!-- Node21&#45;&gt;Node24 -->
<g id="edge26" class="edge">
<title>Node21&#45;&gt;Node24</title>
<path fill="none" stroke="midnightblue" d="M1211.81,-273C1202.75,-273 1193.35,-273 1184.05,-273"/>
<polygon fill="midnightblue" stroke="midnightblue" points="1211.87,-276.5 1221.87,-273 1211.87,-269.5 1211.87,-276.5"/>
</g>
<!-- Node23 -->
<g id="node23" class="node">
<title>Node23</title>
<g id="a_node23"><a xlink:href="class_k_u_k_a_1_1_f_r_i_1_1_command_message_encoder.html#ab48adf8c90670d6c7bcbd82d108f9f47" target="_top" xlink:title=" ">
<polygon fill="white" stroke="black" points="810,-209 810,-239 989,-239 989,-209 810,-209"/>
<text text-anchor="start" x="818" y="-227" font-family="Helvetica,sans-Serif" font-size="10.00">KUKA::FRI::CommandMessage</text>
<text text-anchor="middle" x="899.5" y="-216" font-family="Helvetica,sans-Serif" font-size="10.00">Encoder::CommandMessageEncoder</text>
</a>
</g>
</g>
<!-- Node22&#45;&gt;Node23 -->
<g id="edge25" class="edge">
<title>Node22&#45;&gt;Node23</title>
<path fill="none" stroke="midnightblue" d="M1015.69,-224C1006.92,-224 998.02,-224 989.25,-224"/>
<polygon fill="midnightblue" stroke="midnightblue" points="1015.9,-227.5 1025.9,-224 1015.9,-220.5 1015.9,-227.5"/>
</g>
<!-- Node25 -->
<g id="node25" class="node">
<title>Node25</title>
<g id="a_node25"><a xlink:href="class_k_u_k_a_1_1_f_r_i_1_1_monitoring_message_decoder.html#a839c031de8bf792b17b612fc6ef91d05" target="_top" xlink:title=" ">
<polygon fill="white" stroke="black" points="809,-258 809,-288 990,-288 990,-258 809,-258"/>
<text text-anchor="start" x="817" y="-276" font-family="Helvetica,sans-Serif" font-size="10.00">KUKA::FRI::MonitoringMessage</text>
<text text-anchor="middle" x="899.5" y="-265" font-family="Helvetica,sans-Serif" font-size="10.00">Decoder::MonitoringMessageDecoder</text>
</a>
</g>
</g>
<!-- Node24&#45;&gt;Node25 -->
<g id="edge27" class="edge">
<title>Node24&#45;&gt;Node25</title>
<path fill="none" stroke="midnightblue" d="M1015.7,-273C1007.27,-273 998.72,-273 990.28,-273"/>
<polygon fill="midnightblue" stroke="midnightblue" points="1015.9,-276.5 1025.9,-273 1015.9,-269.5 1015.9,-276.5"/>
</g>
<!-- Node27&#45;&gt;Node6 -->
<g id="edge30" class="edge">
<title>Node27&#45;&gt;Node6</title>
<path fill="none" stroke="midnightblue" d="M1394.57,-117.18C1366.55,-127.91 1327.68,-142.79 1302.55,-152.41"/>
<polygon fill="midnightblue" stroke="midnightblue" points="1395.9,-120.42 1403.98,-113.58 1393.39,-113.88 1395.9,-120.42"/>
</g>
<!-- Node27&#45;&gt;Node10 -->
<g id="edge31" class="edge">
<title>Node27&#45;&gt;Node10</title>
<path fill="none" stroke="midnightblue" d="M1382.31,-104C1319.51,-104 1204.33,-104 1106,-104 1106,-104 1106,-104 898.5,-104 797.55,-104 680.85,-135.23 627.03,-151.46"/>
<polygon fill="midnightblue" stroke="midnightblue" points="1382.67,-107.5 1392.67,-104 1382.67,-100.5 1382.67,-107.5"/>
</g>
<!-- Node28&#45;&gt;Node27 -->
<g id="edge33" class="edge">
<title>Node28&#45;&gt;Node27</title>
<path fill="none" stroke="midnightblue" d="M1541.82,-61.35C1515.29,-71.56 1479.35,-85.39 1455.69,-94.5"/>
<polygon fill="midnightblue" stroke="midnightblue" points="1543.41,-64.49 1551.49,-57.63 1540.9,-57.95 1543.41,-64.49"/>
</g>
<!-- Node29&#45;&gt;Node27 -->
<g id="edge35" class="edge">
<title>Node29&#45;&gt;Node27</title>
<path fill="none" stroke="midnightblue" d="M1527.16,-117.22C1507.58,-114.53 1485.48,-111.49 1467.41,-109"/>
<polygon fill="midnightblue" stroke="midnightblue" points="1526.74,-120.69 1537.13,-118.59 1527.7,-113.76 1526.74,-120.69"/>
</g>
<!-- Node30&#45;&gt;Node6 -->
<g id="edge37" class="edge">
<title>Node30&#45;&gt;Node6</title>
<path fill="none" stroke="midnightblue" d="M1377.11,-162C1362.91,-162 1347.46,-162 1333.07,-162"/>
<polygon fill="midnightblue" stroke="midnightblue" points="1377.2,-165.5 1387.2,-162 1377.2,-158.5 1377.2,-165.5"/>
</g>
</g>
</svg>
        <g id="navigator" transform="translate(0 0)" fill="#404254">
                <rect fill="#f2f5e9" fill-opacity="0.5" stroke="#606060" stroke-width=".5" x="0" y="0" width="60" height="60"/>
                <use id="zoomplus" xlink:href="#zoomPlus" x="17" y="9" onmousedown="handleZoom(evt,'in')"/>
                <use id="zoomminus" xlink:href="#zoomMin" x="42" y="9" onmousedown="handleZoom(evt,'out')"/>
                <use id="reset" xlink:href="#resetDef" x="30" y="36" onmousedown="handleReset()"/>
                <g id="arrowUp" xlink:href="#dirArrow" transform="translate(30 24)" onmousedown="handlePan(0,-1)">
                  <use xlink:href="#rim" fill="#404040">
                        <set attributeName="fill" to="#808080" begin="arrowUp.mouseover" end="arrowUp.mouseout"/>
                  </use>
                  <path fill="none" stroke="white" stroke-width="1.5" d="M0,-3.0v7 M-2.5,-0.5L0,-3.0L2.5,-0.5"/>
                </g>
                <g id="arrowRight" xlink:href="#dirArrow" transform="rotate(90) translate(36 -43)" onmousedown="handlePan(1,0)">
                  <use xlink:href="#rim" fill="#404040">
                        <set attributeName="fill" to="#808080" begin="arrowRight.mouseover" end="arrowRight.mouseout"/>
                  </use>
                  <path fill="none" stroke="white" stroke-width="1.5" d="M0,-3.0v7 M-2.5,-0.5L0,-3.0L2.5,-0.5"/>
                </g>
                <g id="arrowDown" xlink:href="#dirArrow" transform="rotate(180) translate(-30 -48)" onmousedown="handlePan(0,1)">
                  <use xlink:href="#rim" fill="#404040">
                        <set attributeName="fill" to="#808080" begin="arrowDown.mouseover" end="arrowDown.mouseout"/>
                  </use>
                  <path fill="none" stroke="white" stroke-width="1.5" d="M0,-3.0v7 M-2.5,-0.5L0,-3.0L2.5,-0.5"/>
                </g>
                <g id="arrowLeft" xlink:href="#dirArrow" transform="rotate(270) translate(-36 17)" onmousedown="handlePan(-1,0)">
                  <use xlink:href="#rim" fill="#404040">
                        <set attributeName="fill" to="#808080" begin="arrowLeft.mouseover" end="arrowLeft.mouseout"/>
                  </use>
                  <path fill="none" stroke="white" stroke-width="1.5" d="M0,-3.0v7 M-2.5,-0.5L0,-3.0L2.5,-0.5"/>
                </g>
        </g>
        <svg viewBox="0 0 15 15" width="100%" height="30px" preserveAspectRatio="xMaxYMin meet">
         <g id="arrow_out" transform="scale(0.3 0.3)">
          <a xlink:href="pb__decode_8c_a9746f7244f9d14b2a095ddfcad55febe_icgraph_org.svg" target="_base">
           <rect id="button" ry="5" rx="5" y="6" x="6" height="38" width="38"
                fill="#f2f5e9" fill-opacity="0.5" stroke="#606060" stroke-width="1.0"/>
           <path id="arrow"
             d="M 11.500037,31.436501 C 11.940474,20.09759 22.043105,11.32322 32.158766,21.979434 L 37.068811,17.246167 C 37.068811,17.246167 37.088388,32 37.088388,32 L 22.160133,31.978069 C 22.160133,31.978069 26.997745,27.140456 26.997745,27.140456 C 18.528582,18.264221 13.291696,25.230495 11.500037,31.436501 z"
             style="fill:#404040;"/>
          </a>
         </g>
        </svg>
</svg>
