<?xml version="1.0" encoding="UTF-8" standalone="no"?>
<!DOCTYPE svg PUBLIC "-//W3C//DTD SVG 1.1//EN"
 "http://www.w3.org/Graphics/SVG/1.1/DTD/svg11.dtd">
<!-- Generated by graphviz version 2.43.0 (0)
 -->
<!-- Title: pb_skip_field Pages: 1 -->
<svg width="444pt" height="78pt"
 viewBox="0.00 0.00 444.00 78.24" xmlns="http://www.w3.org/2000/svg" xmlns:xlink="http://www.w3.org/1999/xlink">
<g id="graph0" class="graph" transform="scale(1 1) rotate(0) translate(4 74.24)">
<title>pb_skip_field</title>
<polygon fill="white" stroke="transparent" points="-4,4 -4,-74.24 440,-74.24 440,4 -4,4"/>
<!-- Node1 -->
<g id="node1" class="node">
<title>Node1</title>
<g id="a_node1"><a xlink:title=" ">
<polygon fill="#bfbfbf" stroke="black" points="0,-38.5 0,-57.5 74,-57.5 74,-38.5 0,-38.5"/>
<text text-anchor="middle" x="37" y="-45.5" font-family="Helvetica,sans-Serif" font-size="10.00">pb_skip_field</text>
</a>
</g>
</g>
<!-- Node2 -->
<g id="node2" class="node">
<title>Node2</title>
<g id="a_node2"><a xlink:href="pb__decode_8c.html#ad54a52168427208d756087919ff82d41" target="_top" xlink:title=" ">
<polygon fill="white" stroke="black" points="252.5,-38.5 252.5,-57.5 303.5,-57.5 303.5,-38.5 252.5,-38.5"/>
<text text-anchor="middle" x="278" y="-45.5" font-family="Helvetica,sans-Serif" font-size="10.00">pb_read</text>
</a>
</g>
</g>
<!-- Node1&#45;&gt;Node2 -->
<g id="edge1" class="edge">
<title>Node1&#45;&gt;Node2</title>
<path fill="none" stroke="midnightblue" d="M67.09,-57.5C80.06,-61.27 95.64,-65.14 110,-67 145.26,-71.57 154.65,-70.82 190,-67 207.53,-65.11 226.7,-61.13 242.58,-57.3"/>
<polygon fill="midnightblue" stroke="midnightblue" points="243.63,-60.65 252.48,-54.83 241.93,-53.86 243.63,-60.65"/>
</g>
<!-- Node4 -->
<g id="node4" class="node">
<title>Node4</title>
<g id="a_node4"><a xlink:href="pb__decode_8c.html#afa3e9c4da6d998fd6315d4cbd51b02e4" target="_top" xlink:title=" ">
<polygon fill="white" stroke="black" points="110,-0.5 110,-19.5 190,-19.5 190,-0.5 110,-0.5"/>
<text text-anchor="middle" x="150" y="-7.5" font-family="Helvetica,sans-Serif" font-size="10.00">pb_skip_string</text>
</a>
</g>
</g>
<!-- Node1&#45;&gt;Node4 -->
<g id="edge3" class="edge">
<title>Node1&#45;&gt;Node4</title>
<path fill="none" stroke="midnightblue" d="M66.01,-38.41C79.68,-33.73 96.33,-28.03 111.12,-22.97"/>
<polygon fill="midnightblue" stroke="midnightblue" points="112.67,-26.14 121,-19.59 110.4,-19.51 112.67,-26.14"/>
</g>
<!-- Node7 -->
<g id="node7" class="node">
<title>Node7</title>
<g id="a_node7"><a xlink:href="pb__decode_8c.html#a57738ceef4b30349437900b245a33c77" target="_top" xlink:title=" ">
<polygon fill="white" stroke="black" points="110,-38.5 110,-57.5 190,-57.5 190,-38.5 110,-38.5"/>
<text text-anchor="middle" x="150" y="-45.5" font-family="Helvetica,sans-Serif" font-size="10.00">pb_skip_varint</text>
</a>
</g>
</g>
<!-- Node1&#45;&gt;Node7 -->
<g id="edge7" class="edge">
<title>Node1&#45;&gt;Node7</title>
<path fill="none" stroke="midnightblue" d="M74.04,-48C82.14,-48 90.87,-48 99.42,-48"/>
<polygon fill="midnightblue" stroke="midnightblue" points="99.69,-51.5 109.69,-48 99.69,-44.5 99.69,-51.5"/>
</g>
<!-- Node3 -->
<g id="node3" class="node">
<title>Node3</title>
<g id="a_node3"><a xlink:href="pb__decode_8c.html#a9746f7244f9d14b2a095ddfcad55febe" target="_top" xlink:title=" ">
<polygon fill="white" stroke="black" points="374,-38.5 374,-57.5 428,-57.5 428,-38.5 374,-38.5"/>
<text text-anchor="middle" x="401" y="-45.5" font-family="Helvetica,sans-Serif" font-size="10.00">buf_read</text>
</a>
</g>
</g>
<!-- Node2&#45;&gt;Node3 -->
<g id="edge2" class="edge">
<title>Node2&#45;&gt;Node3</title>
<path fill="none" stroke="midnightblue" d="M303.78,-48C320.93,-48 344.05,-48 363.33,-48"/>
<polygon fill="midnightblue" stroke="midnightblue" points="363.58,-51.5 373.58,-48 363.58,-44.5 363.58,-51.5"/>
</g>
<!-- Node4&#45;&gt;Node2 -->
<g id="edge6" class="edge">
<title>Node4&#45;&gt;Node2</title>
<path fill="none" stroke="midnightblue" d="M182.8,-19.59C201.09,-25.11 224.07,-32.04 242.76,-37.67"/>
<polygon fill="midnightblue" stroke="midnightblue" points="241.78,-41.04 252.37,-40.57 243.81,-34.33 241.78,-41.04"/>
</g>
<!-- Node5 -->
<g id="node5" class="node">
<title>Node5</title>
<g id="a_node5"><a xlink:href="pb__decode_8c.html#abef49f760a21798e59538eec4aea23c2" target="_top" xlink:title=" ">
<polygon fill="white" stroke="black" points="226,-0.5 226,-19.5 330,-19.5 330,-0.5 226,-0.5"/>
<text text-anchor="middle" x="278" y="-7.5" font-family="Helvetica,sans-Serif" font-size="10.00">pb_decode_varint32</text>
</a>
</g>
</g>
<!-- Node4&#45;&gt;Node5 -->
<g id="edge4" class="edge">
<title>Node4&#45;&gt;Node5</title>
<path fill="none" stroke="midnightblue" d="M190.18,-10C198.28,-10 206.99,-10 215.67,-10"/>
<polygon fill="midnightblue" stroke="midnightblue" points="215.79,-13.5 225.79,-10 215.79,-6.5 215.79,-13.5"/>
</g>
<!-- Node6 -->
<g id="node6" class="node">
<title>Node6</title>
<g id="a_node6"><a xlink:href="pb__decode_8c.html#a13d38bcceb0a06bfc8c4c9c6da0f7258" target="_top" xlink:title=" ">
<polygon fill="white" stroke="black" points="366,-0.5 366,-19.5 436,-19.5 436,-0.5 366,-0.5"/>
<text text-anchor="middle" x="401" y="-7.5" font-family="Helvetica,sans-Serif" font-size="10.00">pb_readbyte</text>
</a>
</g>
</g>
<!-- Node5&#45;&gt;Node6 -->
<g id="edge5" class="edge">
<title>Node5&#45;&gt;Node6</title>
<path fill="none" stroke="midnightblue" d="M330.31,-10C338.74,-10 347.41,-10 355.64,-10"/>
<polygon fill="midnightblue" stroke="midnightblue" points="355.79,-13.5 365.79,-10 355.79,-6.5 355.79,-13.5"/>
</g>
<!-- Node7&#45;&gt;Node2 -->
<g id="edge8" class="edge">
<title>Node7&#45;&gt;Node2</title>
<path fill="none" stroke="midnightblue" d="M190.18,-48C206.77,-48 225.95,-48 242.05,-48"/>
<polygon fill="midnightblue" stroke="midnightblue" points="242.13,-51.5 252.13,-48 242.13,-44.5 242.13,-51.5"/>
</g>
</g>
</svg>
