<?xml version="1.0" encoding="UTF-8" standalone="no"?>
<!DOCTYPE svg PUBLIC "-//W3C//DTD SVG 1.1//EN"
 "http://www.w3.org/Graphics/SVG/1.1/DTD/svg11.dtd">
<!-- Generated by graphviz version 2.43.0 (0)
 -->
<!-- Title: build/FRI&#45;Client&#45;SDK_Cpp/src/nanopb&#45;0.2.8/pb_decode.c Pages: 1 -->
<svg width="269pt" height="218pt"
 viewBox="0.00 0.00 269.00 218.00" xmlns="http://www.w3.org/2000/svg" xmlns:xlink="http://www.w3.org/1999/xlink">
<g id="graph0" class="graph" transform="scale(1 1) rotate(0) translate(4 214)">
<title>build/FRI&#45;Client&#45;SDK_Cpp/src/nanopb&#45;0.2.8/pb_decode.c</title>
<polygon fill="white" stroke="transparent" points="-4,4 -4,-214 265,-214 265,4 -4,4"/>
<!-- Node1 -->
<g id="node1" class="node">
<title>Node1</title>
<g id="a_node1"><a xlink:title=" ">
<polygon fill="#bfbfbf" stroke="black" points="71.5,-168.5 71.5,-209.5 187.5,-209.5 187.5,-168.5 71.5,-168.5"/>
<text text-anchor="start" x="79.5" y="-197.5" font-family="Helvetica,sans-Serif" font-size="10.00">build/FRI&#45;Client&#45;SDK</text>
<text text-anchor="start" x="79.5" y="-186.5" font-family="Helvetica,sans-Serif" font-size="10.00">_Cpp/src/nanopb&#45;0.2.8</text>
<text text-anchor="middle" x="129.5" y="-175.5" font-family="Helvetica,sans-Serif" font-size="10.00">/pb_decode.c</text>
</a>
</g>
</g>
<!-- Node2 -->
<g id="node2" class="node">
<title>Node2</title>
<g id="a_node2"><a xlink:href="pb_8h.html" target="_top" xlink:title=" ">
<polygon fill="white" stroke="black" points="112,-56.5 112,-75.5 147,-75.5 147,-56.5 112,-56.5"/>
<text text-anchor="middle" x="129.5" y="-63.5" font-family="Helvetica,sans-Serif" font-size="10.00">pb.h</text>
</a>
</g>
</g>
<!-- Node1&#45;&gt;Node2 -->
<g id="edge1" class="edge">
<title>Node1&#45;&gt;Node2</title>
<path fill="none" stroke="midnightblue" d="M122.75,-168.37C118.31,-153.05 113.78,-131.22 116.5,-112 117.77,-103.04 120.39,-93.37 122.95,-85.3"/>
<polygon fill="midnightblue" stroke="midnightblue" points="126.27,-86.4 126.16,-75.8 119.64,-84.16 126.27,-86.4"/>
</g>
<!-- Node7 -->
<g id="node7" class="node">
<title>Node7</title>
<g id="a_node7"><a xlink:href="pb__decode_8h.html" target="_top" xlink:title=" ">
<polygon fill="white" stroke="black" points="125.5,-112.5 125.5,-131.5 197.5,-131.5 197.5,-112.5 125.5,-112.5"/>
<text text-anchor="middle" x="161.5" y="-119.5" font-family="Helvetica,sans-Serif" font-size="10.00">pb_decode.h</text>
</a>
</g>
</g>
<!-- Node1&#45;&gt;Node7 -->
<g id="edge6" class="edge">
<title>Node1&#45;&gt;Node7</title>
<path fill="none" stroke="midnightblue" d="M139.1,-168.5C143.44,-159.68 148.53,-149.34 152.76,-140.74"/>
<polygon fill="midnightblue" stroke="midnightblue" points="155.96,-142.17 157.24,-131.65 149.68,-139.08 155.96,-142.17"/>
</g>
<!-- Node3 -->
<g id="node3" class="node">
<title>Node3</title>
<g id="a_node3"><a xlink:title=" ">
<polygon fill="white" stroke="#bfbfbf" points="0,-0.5 0,-19.5 49,-19.5 49,-0.5 0,-0.5"/>
<text text-anchor="middle" x="24.5" y="-7.5" font-family="Helvetica,sans-Serif" font-size="10.00">stdint.h</text>
</a>
</g>
</g>
<!-- Node2&#45;&gt;Node3 -->
<g id="edge2" class="edge">
<title>Node2&#45;&gt;Node3</title>
<path fill="none" stroke="midnightblue" d="M112.63,-56.32C95.79,-47.66 69.69,-34.24 50.26,-24.25"/>
<polygon fill="midnightblue" stroke="midnightblue" points="51.82,-21.12 41.33,-19.65 48.62,-27.34 51.82,-21.12"/>
</g>
<!-- Node4 -->
<g id="node4" class="node">
<title>Node4</title>
<g id="a_node4"><a xlink:title=" ">
<polygon fill="white" stroke="#bfbfbf" points="67.5,-0.5 67.5,-19.5 119.5,-19.5 119.5,-0.5 67.5,-0.5"/>
<text text-anchor="middle" x="93.5" y="-7.5" font-family="Helvetica,sans-Serif" font-size="10.00">stddef.h</text>
</a>
</g>
</g>
<!-- Node2&#45;&gt;Node4 -->
<g id="edge3" class="edge">
<title>Node2&#45;&gt;Node4</title>
<path fill="none" stroke="midnightblue" d="M123.56,-56.08C118.52,-48.53 111.16,-37.49 104.99,-28.23"/>
<polygon fill="midnightblue" stroke="midnightblue" points="107.79,-26.13 99.33,-19.75 101.97,-30.01 107.79,-26.13"/>
</g>
<!-- Node5 -->
<g id="node5" class="node">
<title>Node5</title>
<g id="a_node5"><a xlink:title=" ">
<polygon fill="white" stroke="#bfbfbf" points="137.5,-0.5 137.5,-19.5 193.5,-19.5 193.5,-0.5 137.5,-0.5"/>
<text text-anchor="middle" x="165.5" y="-7.5" font-family="Helvetica,sans-Serif" font-size="10.00">stdbool.h</text>
</a>
</g>
</g>
<!-- Node2&#45;&gt;Node5 -->
<g id="edge4" class="edge">
<title>Node2&#45;&gt;Node5</title>
<path fill="none" stroke="midnightblue" d="M135.44,-56.08C140.48,-48.53 147.84,-37.49 154.01,-28.23"/>
<polygon fill="midnightblue" stroke="midnightblue" points="157.03,-30.01 159.67,-19.75 151.21,-26.13 157.03,-30.01"/>
</g>
<!-- Node6 -->
<g id="node6" class="node">
<title>Node6</title>
<g id="a_node6"><a xlink:title=" ">
<polygon fill="white" stroke="#bfbfbf" points="212,-0.5 212,-19.5 261,-19.5 261,-0.5 212,-0.5"/>
<text text-anchor="middle" x="236.5" y="-7.5" font-family="Helvetica,sans-Serif" font-size="10.00">string.h</text>
</a>
</g>
</g>
<!-- Node2&#45;&gt;Node6 -->
<g id="edge5" class="edge">
<title>Node2&#45;&gt;Node6</title>
<path fill="none" stroke="midnightblue" d="M146.69,-56.32C163.85,-47.66 190.45,-34.24 210.25,-24.25"/>
<polygon fill="midnightblue" stroke="midnightblue" points="212,-27.28 219.35,-19.65 208.85,-21.04 212,-27.28"/>
</g>
<!-- Node7&#45;&gt;Node2 -->
<g id="edge7" class="edge">
<title>Node7&#45;&gt;Node2</title>
<path fill="none" stroke="midnightblue" d="M156.22,-112.08C151.79,-104.61 145.34,-93.72 139.88,-84.52"/>
<polygon fill="midnightblue" stroke="midnightblue" points="142.79,-82.57 134.69,-75.75 136.77,-86.14 142.79,-82.57"/>
</g>
</g>
</svg>
