<?xml version="1.0" encoding="UTF-8" standalone="no"?>
<!DOCTYPE svg PUBLIC "-//W3C//DTD SVG 1.1//EN"
 "http://www.w3.org/Graphics/SVG/1.1/DTD/svg11.dtd">
<!-- Generated by graphviz version 2.43.0 (0)
 -->
<!-- Title: pb_encode_tag Pages: 1 -->
<svg width="1668pt" height="205pt"
 viewBox="0.00 0.00 1668.00 205.00" xmlns="http://www.w3.org/2000/svg" xmlns:xlink="http://www.w3.org/1999/xlink">
<g id="graph0" class="graph" transform="scale(1 1) rotate(0) translate(4 201)">
<title>pb_encode_tag</title>
<polygon fill="white" stroke="transparent" points="-4,4 -4,-201 1664,-201 1664,4 -4,4"/>
<!-- Node1 -->
<g id="node1" class="node">
<title>Node1</title>
<g id="a_node1"><a xlink:title=" ">
<polygon fill="#bfbfbf" stroke="black" points="1577,-101 1577,-120 1660,-120 1660,-101 1577,-101"/>
<text text-anchor="middle" x="1618.5" y="-108" font-family="Helvetica,sans-Serif" font-size="10.00">pb_encode_tag</text>
</a>
</g>
</g>
<!-- Node2 -->
<g id="node2" class="node">
<title>Node2</title>
<g id="a_node2"><a xlink:href="pb__encode_8c.html#afb8fc9e49589eaae694eff25c858a19c" target="_top" xlink:title=" ">
<polygon fill="white" stroke="black" points="1284.5,-120 1284.5,-139 1359.5,-139 1359.5,-120 1284.5,-120"/>
<text text-anchor="middle" x="1322" y="-127" font-family="Helvetica,sans-Serif" font-size="10.00">encode_array</text>
</a>
</g>
</g>
<!-- Node1&#45;&gt;Node2 -->
<g id="edge1" class="edge">
<title>Node1&#45;&gt;Node2</title>
<path fill="none" stroke="midnightblue" d="M1566.64,-113.78C1507.59,-117.59 1411.64,-123.78 1359.52,-127.14"/>
<polygon fill="midnightblue" stroke="midnightblue" points="1567.11,-117.26 1576.86,-113.12 1566.66,-110.27 1567.11,-117.26"/>
</g>
<!-- Node15 -->
<g id="node15" class="node">
<title>Node15</title>
<g id="a_node15"><a xlink:href="pb__encode_8c.html#a3e0f1ac29dce37f78220ecd6b9d21cba" target="_top" xlink:title=" ">
<polygon fill="white" stroke="black" points="1419,-82 1419,-101 1541,-101 1541,-82 1419,-82"/>
<text text-anchor="middle" x="1480" y="-89" font-family="Helvetica,sans-Serif" font-size="10.00">pb_encode_tag_for_field</text>
</a>
</g>
</g>
<!-- Node1&#45;&gt;Node15 -->
<g id="edge15" class="edge">
<title>Node1&#45;&gt;Node15</title>
<path fill="none" stroke="midnightblue" d="M1566.91,-103.46C1558.51,-102.29 1549.74,-101.07 1541.14,-99.87"/>
<polygon fill="midnightblue" stroke="midnightblue" points="1566.53,-106.94 1576.92,-104.85 1567.49,-100.01 1566.53,-106.94"/>
</g>
<!-- Node3 -->
<g id="node3" class="node">
<title>Node3</title>
<g id="a_node3"><a xlink:href="pb__encode_8c.html#a1f186424780069ab183fb7d2360d274e" target="_top" xlink:title=" ">
<polygon fill="white" stroke="black" points="1120.5,-114 1120.5,-133 1220.5,-133 1220.5,-114 1120.5,-114"/>
<text text-anchor="middle" x="1170.5" y="-121" font-family="Helvetica,sans-Serif" font-size="10.00">encode_basic_field</text>
</a>
</g>
</g>
<!-- Node2&#45;&gt;Node3 -->
<g id="edge2" class="edge">
<title>Node2&#45;&gt;Node3</title>
<path fill="none" stroke="midnightblue" d="M1274.16,-127.62C1257.15,-126.94 1237.89,-126.16 1220.68,-125.47"/>
<polygon fill="midnightblue" stroke="midnightblue" points="1274.3,-131.13 1284.43,-128.03 1274.58,-124.13 1274.3,-131.13"/>
</g>
<!-- Node4 -->
<g id="node4" class="node">
<title>Node4</title>
<g id="a_node4"><a xlink:href="pb__encode_8c.html#a8aa23313175c09e050e2acbc54a17bd4" target="_top" xlink:title=" ">
<polygon fill="white" stroke="black" points="965.5,-114 965.5,-133 1036.5,-133 1036.5,-114 965.5,-114"/>
<text text-anchor="middle" x="1001" y="-121" font-family="Helvetica,sans-Serif" font-size="10.00">encode_field</text>
</a>
</g>
</g>
<!-- Node3&#45;&gt;Node4 -->
<g id="edge3" class="edge">
<title>Node3&#45;&gt;Node4</title>
<path fill="none" stroke="midnightblue" d="M1109.85,-123.5C1085.32,-123.5 1057.78,-123.5 1036.67,-123.5"/>
<polygon fill="midnightblue" stroke="midnightblue" points="1110.15,-127 1120.15,-123.5 1110.15,-120 1110.15,-127"/>
</g>
<!-- Node5 -->
<g id="node5" class="node">
<title>Node5</title>
<g id="a_node5"><a xlink:href="pb__encode_8c.html#a3a12936f07ae378d68408c7bee72e3c0" target="_top" xlink:title=" ">
<polygon fill="white" stroke="black" points="729,-147 729,-166 862,-166 862,-147 729,-147"/>
<text text-anchor="middle" x="795.5" y="-154" font-family="Helvetica,sans-Serif" font-size="10.00">default_extension_encoder</text>
</a>
</g>
</g>
<!-- Node4&#45;&gt;Node5 -->
<g id="edge4" class="edge">
<title>Node4&#45;&gt;Node5</title>
<path fill="none" stroke="midnightblue" d="M955.49,-130.72C926.04,-135.49 887.12,-141.81 855.15,-146.99"/>
<polygon fill="midnightblue" stroke="midnightblue" points="956.17,-134.15 965.48,-129.1 955.05,-127.24 956.17,-134.15"/>
</g>
<!-- Node7 -->
<g id="node7" class="node">
<title>Node7</title>
<g id="a_node7"><a xlink:href="pb__encode_8c.html#af44dde5296bd546d99be35f15658af3e" target="_top" xlink:title=" ">
<polygon fill="white" stroke="black" points="450,-128 450,-147 514,-147 514,-128 450,-128"/>
<text text-anchor="middle" x="482" y="-135" font-family="Helvetica,sans-Serif" font-size="10.00">pb_encode</text>
</a>
</g>
</g>
<!-- Node4&#45;&gt;Node7 -->
<g id="edge14" class="edge">
<title>Node4&#45;&gt;Node7</title>
<path fill="none" stroke="midnightblue" d="M955.23,-124.71C852.58,-127.49 602.29,-134.27 514.26,-136.65"/>
<polygon fill="midnightblue" stroke="midnightblue" points="955.37,-128.21 965.28,-124.44 955.18,-121.21 955.37,-128.21"/>
</g>
<!-- Node6 -->
<g id="node6" class="node">
<title>Node6</title>
<g id="a_node6"><a xlink:href="pb__encode_8c.html#a0c789b04243dc72075c00744134546c3" target="_top" xlink:title=" ">
<polygon fill="white" stroke="black" points="550,-147 550,-166 669,-166 669,-147 550,-147"/>
<text text-anchor="middle" x="609.5" y="-154" font-family="Helvetica,sans-Serif" font-size="10.00">encode_extension_field</text>
</a>
</g>
</g>
<!-- Node5&#45;&gt;Node6 -->
<g id="edge5" class="edge">
<title>Node5&#45;&gt;Node6</title>
<path fill="none" stroke="midnightblue" d="M718.66,-156.5C702.11,-156.5 684.84,-156.5 669.09,-156.5"/>
<polygon fill="midnightblue" stroke="midnightblue" points="718.85,-160 728.85,-156.5 718.85,-153 718.85,-160"/>
</g>
<!-- Node6&#45;&gt;Node7 -->
<g id="edge6" class="edge">
<title>Node6&#45;&gt;Node7</title>
<path fill="none" stroke="midnightblue" d="M539.74,-146.09C530.86,-144.75 522.14,-143.43 514.3,-142.24"/>
<polygon fill="midnightblue" stroke="midnightblue" points="539.38,-149.58 549.79,-147.61 540.43,-142.65 539.38,-149.58"/>
</g>
<!-- Node8 -->
<g id="node8" class="node">
<title>Node8</title>
<g id="a_node8"><a xlink:href="class_k_u_k_a_1_1_f_r_i_1_1_command_message_encoder.html#a53c2553cb91250334d979f2aaa4006a4" target="_top" xlink:title=" ">
<polygon fill="white" stroke="black" points="256,-166.5 256,-196.5 414,-196.5 414,-166.5 256,-166.5"/>
<text text-anchor="start" x="264" y="-184.5" font-family="Helvetica,sans-Serif" font-size="10.00">KUKA::FRI::CommandMessage</text>
<text text-anchor="middle" x="335" y="-173.5" font-family="Helvetica,sans-Serif" font-size="10.00">Encoder::encode</text>
</a>
</g>
</g>
<!-- Node7&#45;&gt;Node8 -->
<g id="edge7" class="edge">
<title>Node7&#45;&gt;Node8</title>
<path fill="none" stroke="midnightblue" d="M440.27,-149.86C423.29,-155.01 403.41,-161.04 385.59,-166.45"/>
<polygon fill="midnightblue" stroke="midnightblue" points="441.34,-153.19 449.89,-146.94 439.31,-146.49 441.34,-153.19"/>
</g>
<!-- Node11 -->
<g id="node11" class="node">
<title>Node11</title>
<g id="a_node11"><a xlink:href="pb__encode_8c.html#a5c19520cad847fead01fae854b8a6f86" target="_top" xlink:title=" ">
<polygon fill="white" stroke="black" points="272.5,-128 272.5,-147 397.5,-147 397.5,-128 272.5,-128"/>
<text text-anchor="middle" x="335" y="-135" font-family="Helvetica,sans-Serif" font-size="10.00">pb_encode_submessage</text>
</a>
</g>
</g>
<!-- Node7&#45;&gt;Node11 -->
<g id="edge10" class="edge">
<title>Node7&#45;&gt;Node11</title>
<path fill="none" stroke="midnightblue" d="M439.81,-137.5C426.74,-137.5 411.98,-137.5 397.78,-137.5"/>
<polygon fill="midnightblue" stroke="midnightblue" points="439.89,-141 449.89,-137.5 439.89,-134 439.89,-141"/>
</g>
<!-- Node14 -->
<g id="node14" class="node">
<title>Node14</title>
<g id="a_node14"><a xlink:href="pb__encode_8c.html#a7d0d58fcd08d5020b12133c31bbe57f1" target="_top" xlink:title=" ">
<polygon fill="white" stroke="black" points="279.5,-90 279.5,-109 390.5,-109 390.5,-90 279.5,-90"/>
<text text-anchor="middle" x="335" y="-97" font-family="Helvetica,sans-Serif" font-size="10.00">pb_get_encoded_size</text>
</a>
</g>
</g>
<!-- Node7&#45;&gt;Node14 -->
<g id="edge13" class="edge">
<title>Node7&#45;&gt;Node14</title>
<path fill="none" stroke="midnightblue" d="M439.92,-125.59C431.37,-123.18 422.4,-120.71 414,-118.5 401.87,-115.3 388.63,-112.01 376.56,-109.07"/>
<polygon fill="midnightblue" stroke="midnightblue" points="439.13,-129 449.71,-128.36 441.04,-122.27 439.13,-129"/>
</g>
<!-- Node9 -->
<g id="node9" class="node">
<title>Node9</title>
<g id="a_node9"><a xlink:href="class_k_u_k_a_1_1_f_r_i_1_1_client_application.html#a9939bfd1fa78c59dc3675a6d2a5de7a7" target="_top" xlink:title="Run a single processing step.">
<polygon fill="white" stroke="black" points="74,-166.5 74,-196.5 220,-196.5 220,-166.5 74,-166.5"/>
<text text-anchor="start" x="82" y="-184.5" font-family="Helvetica,sans-Serif" font-size="10.00">KUKA::FRI::ClientApplication</text>
<text text-anchor="middle" x="147" y="-173.5" font-family="Helvetica,sans-Serif" font-size="10.00">::step</text>
</a>
</g>
</g>
<!-- Node8&#45;&gt;Node9 -->
<g id="edge8" class="edge">
<title>Node8&#45;&gt;Node9</title>
<path fill="none" stroke="midnightblue" d="M245.88,-181.5C237.29,-181.5 228.65,-181.5 220.24,-181.5"/>
<polygon fill="midnightblue" stroke="midnightblue" points="245.93,-185 255.93,-181.5 245.93,-178 245.93,-185"/>
</g>
<!-- Node10 -->
<g id="node10" class="node">
<title>Node10</title>
<g id="a_node10"><a xlink:href="_i_o_access_app_8cpp.html#a3c04138a5bfe5d72780bb7e82a18e627" target="_top" xlink:title=" ">
<polygon fill="white" stroke="black" points="0,-172 0,-191 38,-191 38,-172 0,-172"/>
<text text-anchor="middle" x="19" y="-179" font-family="Helvetica,sans-Serif" font-size="10.00">main</text>
</a>
</g>
</g>
<!-- Node9&#45;&gt;Node10 -->
<g id="edge9" class="edge">
<title>Node9&#45;&gt;Node10</title>
<path fill="none" stroke="midnightblue" d="M63.74,-181.5C54.28,-181.5 45.45,-181.5 38.25,-181.5"/>
<polygon fill="midnightblue" stroke="midnightblue" points="63.8,-185 73.8,-181.5 63.8,-178 63.8,-185"/>
</g>
<!-- Node12 -->
<g id="node12" class="node">
<title>Node12</title>
<g id="a_node12"><a xlink:href="pb__encode_8c.html#a1f6fe701e8ba7999f934064f029c6630" target="_top" xlink:title=" ">
<polygon fill="white" stroke="black" points="92.5,-128 92.5,-147 201.5,-147 201.5,-128 92.5,-128"/>
<text text-anchor="middle" x="147" y="-135" font-family="Helvetica,sans-Serif" font-size="10.00">pb_enc_submessage</text>
</a>
</g>
</g>
<!-- Node11&#45;&gt;Node12 -->
<g id="edge11" class="edge">
<title>Node11&#45;&gt;Node12</title>
<path fill="none" stroke="midnightblue" d="M262.26,-137.5C242.13,-137.5 220.59,-137.5 201.71,-137.5"/>
<polygon fill="midnightblue" stroke="midnightblue" points="262.32,-141 272.32,-137.5 262.32,-134 262.32,-141"/>
</g>
<!-- Node13 -->
<g id="node13" class="node">
<title>Node13</title>
<g id="a_node13"><a xlink:href="pb__encode_8c.html#ada25a45ba2ec5aa0baa8c692b0f30361" target="_top" xlink:title=" ">
<polygon fill="white" stroke="black" points="93,-90 93,-109 201,-109 201,-90 93,-90"/>
<text text-anchor="middle" x="147" y="-97" font-family="Helvetica,sans-Serif" font-size="10.00">pb_encode_delimited</text>
</a>
</g>
</g>
<!-- Node11&#45;&gt;Node13 -->
<g id="edge12" class="edge">
<title>Node11&#45;&gt;Node13</title>
<path fill="none" stroke="midnightblue" d="M277.17,-125.89C250.72,-120.49 219.64,-114.14 194.6,-109.02"/>
<polygon fill="midnightblue" stroke="midnightblue" points="276.57,-129.34 287.06,-127.91 277.97,-122.48 276.57,-129.34"/>
</g>
<!-- Node15&#45;&gt;Node2 -->
<g id="edge16" class="edge">
<title>Node15&#45;&gt;Node2</title>
<path fill="none" stroke="midnightblue" d="M1429.83,-103.48C1407.11,-109.01 1380.6,-115.47 1359.67,-120.57"/>
<polygon fill="midnightblue" stroke="midnightblue" points="1430.75,-106.86 1439.63,-101.09 1429.09,-100.06 1430.75,-106.86"/>
</g>
<!-- Node15&#45;&gt;Node3 -->
<g id="edge17" class="edge">
<title>Node15&#45;&gt;Node3</title>
<path fill="none" stroke="midnightblue" d="M1408.73,-96.6C1365.96,-99.95 1310.26,-104.78 1261,-110.5 1247.9,-112.02 1233.76,-113.94 1220.67,-115.84"/>
<polygon fill="midnightblue" stroke="midnightblue" points="1409.06,-100.08 1418.76,-95.82 1408.52,-93.1 1409.06,-100.08"/>
</g>
<!-- Node16 -->
<g id="node16" class="node">
<title>Node16</title>
<g id="a_node16"><a xlink:href="pb__frimessages__callbacks_8c.html#a3841575aaa517c808aeba5ab3e4f4e48" target="_top" xlink:title=" ">
<polygon fill="white" stroke="black" points="1261,-44 1261,-63 1383,-63 1383,-44 1261,-44"/>
<text text-anchor="middle" x="1322" y="-51" font-family="Helvetica,sans-Serif" font-size="10.00">encode_repeatedDouble</text>
</a>
</g>
</g>
<!-- Node15&#45;&gt;Node16 -->
<g id="edge18" class="edge">
<title>Node15&#45;&gt;Node16</title>
<path fill="none" stroke="midnightblue" d="M1429.87,-79.53C1408.01,-74.21 1382.62,-68.02 1362.08,-63.02"/>
<polygon fill="midnightblue" stroke="midnightblue" points="1429.09,-82.94 1439.63,-81.91 1430.75,-76.14 1429.09,-82.94"/>
</g>
<!-- Node22 -->
<g id="node22" class="node">
<title>Node22</title>
<g id="a_node22"><a xlink:href="pb__frimessages__callbacks_8c.html#aca260ceb4ad963a7f5f6282ceaf17f2b" target="_top" xlink:title=" ">
<polygon fill="white" stroke="black" points="1271,-6 1271,-25 1373,-25 1373,-6 1271,-6"/>
<text text-anchor="middle" x="1322" y="-13" font-family="Helvetica,sans-Serif" font-size="10.00">encode_repeatedInt</text>
</a>
</g>
</g>
<!-- Node15&#45;&gt;Node22 -->
<g id="edge24" class="edge">
<title>Node15&#45;&gt;Node22</title>
<path fill="none" stroke="midnightblue" d="M1456.72,-76.27C1437.75,-63.81 1409.45,-46.35 1383,-34.5 1375.02,-30.93 1366.17,-27.73 1357.77,-25.03"/>
<polygon fill="midnightblue" stroke="midnightblue" points="1454.97,-79.31 1465.23,-81.95 1458.85,-73.49 1454.97,-79.31"/>
</g>
<!-- Node17 -->
<g id="node17" class="node">
<title>Node17</title>
<g id="a_node17"><a xlink:href="pb__frimessages__callbacks_8c.html#a5283f13633c8400371ab65d44d905901" target="_top" xlink:title=" ">
<polygon fill="white" stroke="black" points="1116,-44 1116,-63 1225,-63 1225,-44 1116,-44"/>
<text text-anchor="middle" x="1170.5" y="-51" font-family="Helvetica,sans-Serif" font-size="10.00">map_repeatedDouble</text>
</a>
</g>
</g>
<!-- Node16&#45;&gt;Node17 -->
<g id="edge19" class="edge">
<title>Node16&#45;&gt;Node17</title>
<path fill="none" stroke="midnightblue" d="M1250.41,-53.5C1241.99,-53.5 1233.49,-53.5 1225.35,-53.5"/>
<polygon fill="midnightblue" stroke="midnightblue" points="1250.62,-57 1260.62,-53.5 1250.62,-50 1250.62,-57"/>
</g>
<!-- Node18 -->
<g id="node18" class="node">
<title>Node18</title>
<g id="a_node18"><a xlink:href="class_k_u_k_a_1_1_f_r_i_1_1_command_message_encoder.html#a40f5b848100484d0e4fdbf6a80d79dac" target="_top" xlink:title=" ">
<polygon fill="white" stroke="black" points="922,-49.5 922,-79.5 1080,-79.5 1080,-49.5 922,-49.5"/>
<text text-anchor="start" x="930" y="-67.5" font-family="Helvetica,sans-Serif" font-size="10.00">KUKA::FRI::CommandMessage</text>
<text text-anchor="middle" x="1001" y="-56.5" font-family="Helvetica,sans-Serif" font-size="10.00">Encoder::initMessage</text>
</a>
</g>
</g>
<!-- Node17&#45;&gt;Node18 -->
<g id="edge20" class="edge">
<title>Node17&#45;&gt;Node18</title>
<path fill="none" stroke="midnightblue" d="M1105.34,-57.71C1097.11,-58.25 1088.63,-58.81 1080.21,-59.36"/>
<polygon fill="midnightblue" stroke="midnightblue" points="1105.83,-61.19 1115.58,-57.04 1105.37,-54.2 1105.83,-61.19"/>
</g>
<!-- Node20 -->
<g id="node20" class="node">
<title>Node20</title>
<g id="a_node20"><a xlink:href="class_k_u_k_a_1_1_f_r_i_1_1_monitoring_message_decoder.html#a5f7d8c50c6b2275a90ee8053eeeeda0a" target="_top" xlink:title=" ">
<polygon fill="white" stroke="black" points="922,-0.5 922,-30.5 1080,-30.5 1080,-0.5 922,-0.5"/>
<text text-anchor="start" x="930" y="-18.5" font-family="Helvetica,sans-Serif" font-size="10.00">KUKA::FRI::MonitoringMessage</text>
<text text-anchor="middle" x="1001" y="-7.5" font-family="Helvetica,sans-Serif" font-size="10.00">Decoder::initMessage</text>
</a>
</g>
</g>
<!-- Node17&#45;&gt;Node20 -->
<g id="edge22" class="edge">
<title>Node17&#45;&gt;Node20</title>
<path fill="none" stroke="midnightblue" d="M1117.32,-41.66C1101.83,-38.15 1084.65,-34.25 1068.38,-30.56"/>
<polygon fill="midnightblue" stroke="midnightblue" points="1116.71,-45.11 1127.23,-43.91 1118.25,-38.29 1116.71,-45.11"/>
</g>
<!-- Node19 -->
<g id="node19" class="node">
<title>Node19</title>
<g id="a_node19"><a xlink:href="class_k_u_k_a_1_1_f_r_i_1_1_command_message_encoder.html#ab48adf8c90670d6c7bcbd82d108f9f47" target="_top" xlink:title=" ">
<polygon fill="white" stroke="black" points="706,-49.5 706,-79.5 885,-79.5 885,-49.5 706,-49.5"/>
<text text-anchor="start" x="714" y="-67.5" font-family="Helvetica,sans-Serif" font-size="10.00">KUKA::FRI::CommandMessage</text>
<text text-anchor="middle" x="795.5" y="-56.5" font-family="Helvetica,sans-Serif" font-size="10.00">Encoder::CommandMessageEncoder</text>
</a>
</g>
</g>
<!-- Node18&#45;&gt;Node19 -->
<g id="edge21" class="edge">
<title>Node18&#45;&gt;Node19</title>
<path fill="none" stroke="midnightblue" d="M911.69,-64.5C902.92,-64.5 894.02,-64.5 885.25,-64.5"/>
<polygon fill="midnightblue" stroke="midnightblue" points="911.9,-68 921.9,-64.5 911.9,-61 911.9,-68"/>
</g>
<!-- Node21 -->
<g id="node21" class="node">
<title>Node21</title>
<g id="a_node21"><a xlink:href="class_k_u_k_a_1_1_f_r_i_1_1_monitoring_message_decoder.html#a839c031de8bf792b17b612fc6ef91d05" target="_top" xlink:title=" ">
<polygon fill="white" stroke="black" points="705,-0.5 705,-30.5 886,-30.5 886,-0.5 705,-0.5"/>
<text text-anchor="start" x="713" y="-18.5" font-family="Helvetica,sans-Serif" font-size="10.00">KUKA::FRI::MonitoringMessage</text>
<text text-anchor="middle" x="795.5" y="-7.5" font-family="Helvetica,sans-Serif" font-size="10.00">Decoder::MonitoringMessageDecoder</text>
</a>
</g>
</g>
<!-- Node20&#45;&gt;Node21 -->
<g id="edge23" class="edge">
<title>Node20&#45;&gt;Node21</title>
<path fill="none" stroke="midnightblue" d="M911.7,-15.5C903.27,-15.5 894.72,-15.5 886.28,-15.5"/>
<polygon fill="midnightblue" stroke="midnightblue" points="911.9,-19 921.9,-15.5 911.9,-12 911.9,-19"/>
</g>
<!-- Node23 -->
<g id="node23" class="node">
<title>Node23</title>
<g id="a_node23"><a xlink:href="pb__frimessages__callbacks_8c.html#a81a65250b51118ec352d28e397db9b6c" target="_top" xlink:title=" ">
<polygon fill="white" stroke="black" points="1126,-6 1126,-25 1215,-25 1215,-6 1126,-6"/>
<text text-anchor="middle" x="1170.5" y="-13" font-family="Helvetica,sans-Serif" font-size="10.00">map_repeatedInt</text>
</a>
</g>
</g>
<!-- Node22&#45;&gt;Node23 -->
<g id="edge25" class="edge">
<title>Node22&#45;&gt;Node23</title>
<path fill="none" stroke="midnightblue" d="M1260.49,-15.5C1245.37,-15.5 1229.44,-15.5 1215.3,-15.5"/>
<polygon fill="midnightblue" stroke="midnightblue" points="1260.8,-19 1270.8,-15.5 1260.8,-12 1260.8,-19"/>
</g>
<!-- Node23&#45;&gt;Node20 -->
<g id="edge26" class="edge">
<title>Node23&#45;&gt;Node20</title>
<path fill="none" stroke="midnightblue" d="M1115.75,-15.5C1104.37,-15.5 1092.14,-15.5 1080.08,-15.5"/>
<polygon fill="midnightblue" stroke="midnightblue" points="1115.93,-19 1125.93,-15.5 1115.93,-12 1115.93,-19"/>
</g>
</g>
</svg>
