<?xml version="1.0" encoding="UTF-8" standalone="no"?>
<!DOCTYPE svg PUBLIC "-//W3C//DTD SVG 1.1//EN"
 "http://www.w3.org/Graphics/SVG/1.1/DTD/svg11.dtd">
<!-- Generated by graphviz version 2.43.0 (0)
 -->
<!-- Title: pb_decode_varint32 Pages: 1 -->
<svg width="1647pt" height="322pt"
 viewBox="0.00 0.00 1647.00 322.00" xmlns="http://www.w3.org/2000/svg" xmlns:xlink="http://www.w3.org/1999/xlink">
<g id="graph0" class="graph" transform="scale(1 1) rotate(0) translate(4 318)">
<title>pb_decode_varint32</title>
<polygon fill="white" stroke="transparent" points="-4,4 -4,-318 1643,-318 1643,4 -4,4"/>
<!-- Node1 -->
<g id="node1" class="node">
<title>Node1</title>
<g id="a_node1"><a xlink:title=" ">
<polygon fill="#bfbfbf" stroke="black" points="1535,-218.5 1535,-237.5 1639,-237.5 1639,-218.5 1535,-218.5"/>
<text text-anchor="middle" x="1587" y="-225.5" font-family="Helvetica,sans-Serif" font-size="10.00">pb_decode_varint32</text>
</a>
</g>
</g>
<!-- Node2 -->
<g id="node2" class="node">
<title>Node2</title>
<g id="a_node2"><a xlink:href="pb__decode_8c.html#a15f2b12ed6c126fe4e54c7ae0b588cb3" target="_top" xlink:title=" ">
<polygon fill="white" stroke="black" points="1420.5,-294.5 1420.5,-313.5 1497.5,-313.5 1497.5,-294.5 1420.5,-294.5"/>
<text text-anchor="middle" x="1459" y="-301.5" font-family="Helvetica,sans-Serif" font-size="10.00">pb_dec_bytes</text>
</a>
</g>
</g>
<!-- Node1&#45;&gt;Node2 -->
<g id="edge1" class="edge">
<title>Node1&#45;&gt;Node2</title>
<path fill="none" stroke="midnightblue" d="M1564.18,-243.41C1546.86,-255.36 1521.86,-272.01 1499,-285 1493.24,-288.27 1486.83,-291.54 1480.9,-294.42"/>
<polygon fill="midnightblue" stroke="midnightblue" points="1566.27,-246.22 1572.47,-237.63 1562.27,-240.47 1566.27,-246.22"/>
</g>
<!-- Node3 -->
<g id="node3" class="node">
<title>Node3</title>
<g id="a_node3"><a xlink:href="pb__decode_8c.html#ac5cddfbfd98fb7a18ce912e1ee6405d4" target="_top" xlink:title=" ">
<polygon fill="white" stroke="black" points="1420.5,-256.5 1420.5,-275.5 1497.5,-275.5 1497.5,-256.5 1420.5,-256.5"/>
<text text-anchor="middle" x="1459" y="-263.5" font-family="Helvetica,sans-Serif" font-size="10.00">pb_dec_string</text>
</a>
</g>
</g>
<!-- Node1&#45;&gt;Node3 -->
<g id="edge2" class="edge">
<title>Node1&#45;&gt;Node3</title>
<path fill="none" stroke="midnightblue" d="M1544.44,-240.54C1527.29,-245.7 1507.75,-251.6 1491.78,-256.41"/>
<polygon fill="midnightblue" stroke="midnightblue" points="1545.64,-243.83 1554.2,-237.59 1543.62,-237.13 1545.64,-243.83"/>
</g>
<!-- Node4 -->
<g id="node4" class="node">
<title>Node4</title>
<g id="a_node4"><a xlink:href="pb__decode_8c.html#aefe6134d81ea2f861f0111984553b23b" target="_top" xlink:title=" ">
<polygon fill="white" stroke="black" points="978,-218.5 978,-237.5 1061,-237.5 1061,-218.5 978,-218.5"/>
<text text-anchor="middle" x="1019.5" y="-225.5" font-family="Helvetica,sans-Serif" font-size="10.00">pb_decode_tag</text>
</a>
</g>
</g>
<!-- Node1&#45;&gt;Node4 -->
<g id="edge3" class="edge">
<title>Node1&#45;&gt;Node4</title>
<path fill="none" stroke="midnightblue" d="M1524.67,-228C1408.42,-228 1158.92,-228 1061.07,-228"/>
<polygon fill="midnightblue" stroke="midnightblue" points="1524.82,-231.5 1534.82,-228 1524.82,-224.5 1524.82,-231.5"/>
</g>
<!-- Node12 -->
<g id="node12" class="node">
<title>Node12</title>
<g id="a_node12"><a xlink:href="pb__decode_8c.html#a7433fc394255932c4f00274e7f890721" target="_top" xlink:title=" ">
<polygon fill="white" stroke="black" points="1246,-85.5 1246,-104.5 1383,-104.5 1383,-85.5 1246,-85.5"/>
<text text-anchor="middle" x="1314.5" y="-92.5" font-family="Helvetica,sans-Serif" font-size="10.00">pb_make_string_substream</text>
</a>
</g>
</g>
<!-- Node1&#45;&gt;Node12 -->
<g id="edge12" class="edge">
<title>Node1&#45;&gt;Node12</title>
<path fill="none" stroke="midnightblue" d="M1564.69,-212.41C1547.49,-200.24 1522.38,-183.36 1499,-171 1445.65,-142.8 1379.49,-117.64 1342.96,-104.54"/>
<polygon fill="midnightblue" stroke="midnightblue" points="1562.75,-215.33 1572.91,-218.31 1566.82,-209.64 1562.75,-215.33"/>
</g>
<!-- Node19 -->
<g id="node19" class="node">
<title>Node19</title>
<g id="a_node19"><a xlink:href="pb__decode_8c.html#afa3e9c4da6d998fd6315d4cbd51b02e4" target="_top" xlink:title=" ">
<polygon fill="white" stroke="black" points="1419,-180.5 1419,-199.5 1499,-199.5 1499,-180.5 1419,-180.5"/>
<text text-anchor="middle" x="1459" y="-187.5" font-family="Helvetica,sans-Serif" font-size="10.00">pb_skip_string</text>
</a>
</g>
</g>
<!-- Node1&#45;&gt;Node19 -->
<g id="edge25" class="edge">
<title>Node1&#45;&gt;Node19</title>
<path fill="none" stroke="midnightblue" d="M1544.44,-215.46C1527.29,-210.3 1507.75,-204.4 1491.78,-199.59"/>
<polygon fill="midnightblue" stroke="midnightblue" points="1543.62,-218.87 1554.2,-218.41 1545.64,-212.17 1543.62,-218.87"/>
</g>
<!-- Node5 -->
<g id="node5" class="node">
<title>Node5</title>
<g id="a_node5"><a xlink:href="pb__decode_8c.html#a0c0f95a964239344d503e724818e8fc0" target="_top" xlink:title=" ">
<polygon fill="white" stroke="black" points="550,-113.5 550,-132.5 642,-132.5 642,-113.5 550,-113.5"/>
<text text-anchor="middle" x="596" y="-120.5" font-family="Helvetica,sans-Serif" font-size="10.00">pb_decode_noinit</text>
</a>
</g>
</g>
<!-- Node4&#45;&gt;Node5 -->
<g id="edge4" class="edge">
<title>Node4&#45;&gt;Node5</title>
<path fill="none" stroke="midnightblue" d="M967.57,-235.09C898.54,-242.38 773.01,-247.33 678,-204 643.26,-188.16 615.07,-150.52 603.14,-132.69"/>
<polygon fill="midnightblue" stroke="midnightblue" points="968.19,-238.54 977.74,-233.95 967.41,-231.58 968.19,-238.54"/>
</g>
<!-- Node6 -->
<g id="node6" class="node">
<title>Node6</title>
<g id="a_node6"><a xlink:href="pb__decode_8c.html#adb01106a062444577e9e3f3a047db2ef" target="_top" xlink:title=" ">
<polygon fill="white" stroke="black" points="280.5,-56.5 280.5,-75.5 389.5,-75.5 389.5,-56.5 280.5,-56.5"/>
<text text-anchor="middle" x="335" y="-63.5" font-family="Helvetica,sans-Serif" font-size="10.00">pb_dec_submessage</text>
</a>
</g>
</g>
<!-- Node5&#45;&gt;Node6 -->
<g id="edge5" class="edge">
<title>Node5&#45;&gt;Node6</title>
<path fill="none" stroke="midnightblue" d="M539.82,-117.38C512.47,-113.8 479.14,-108.25 450,-100 433.32,-95.28 430.47,-90.4 414,-85 403.27,-81.48 391.52,-78.29 380.48,-75.57"/>
<polygon fill="midnightblue" stroke="midnightblue" points="539.63,-120.88 549.98,-118.65 540.5,-113.93 539.63,-120.88"/>
</g>
<!-- Node7 -->
<g id="node7" class="node">
<title>Node7</title>
<g id="a_node7"><a xlink:href="pb__decode_8c.html#a75c9a727abe84bfaaef633ac68d48cfa" target="_top" xlink:title=" ">
<polygon fill="white" stroke="black" points="450,-71.5 450,-90.5 514,-90.5 514,-71.5 450,-71.5"/>
<text text-anchor="middle" x="482" y="-78.5" font-family="Helvetica,sans-Serif" font-size="10.00">pb_decode</text>
</a>
</g>
</g>
<!-- Node5&#45;&gt;Node7 -->
<g id="edge6" class="edge">
<title>Node5&#45;&gt;Node7</title>
<path fill="none" stroke="midnightblue" d="M560.18,-109.94C543.54,-103.7 523.97,-96.36 508.7,-90.64"/>
<polygon fill="midnightblue" stroke="midnightblue" points="558.99,-113.24 569.59,-113.47 561.45,-106.68 558.99,-113.24"/>
</g>
<!-- Node7&#45;&gt;Node6 -->
<g id="edge10" class="edge">
<title>Node7&#45;&gt;Node6</title>
<path fill="none" stroke="midnightblue" d="M439.55,-76.71C424,-75.1 406.1,-73.25 389.6,-71.55"/>
<polygon fill="midnightblue" stroke="midnightblue" points="439.59,-80.23 449.89,-77.78 440.31,-73.27 439.59,-80.23"/>
</g>
<!-- Node8 -->
<g id="node8" class="node">
<title>Node8</title>
<g id="a_node8"><a xlink:href="class_k_u_k_a_1_1_f_r_i_1_1_monitoring_message_decoder.html#aa72fb1e622847a636e6f5d7ac4770103" target="_top" xlink:title=" ">
<polygon fill="white" stroke="black" points="256,-95 256,-125 414,-125 414,-95 256,-95"/>
<text text-anchor="start" x="264" y="-113" font-family="Helvetica,sans-Serif" font-size="10.00">KUKA::FRI::MonitoringMessage</text>
<text text-anchor="middle" x="335" y="-102" font-family="Helvetica,sans-Serif" font-size="10.00">Decoder::decode</text>
</a>
</g>
</g>
<!-- Node7&#45;&gt;Node8 -->
<g id="edge7" class="edge">
<title>Node7&#45;&gt;Node8</title>
<path fill="none" stroke="midnightblue" d="M440.05,-89.19C430.98,-91 421.1,-92.98 411.15,-94.97"/>
<polygon fill="midnightblue" stroke="midnightblue" points="440.77,-92.61 449.89,-87.22 439.4,-85.75 440.77,-92.61"/>
</g>
<!-- Node11 -->
<g id="node11" class="node">
<title>Node11</title>
<g id="a_node11"><a xlink:href="pb__decode_8c.html#a7c030d7dee687e354a62a72d45dca39b" target="_top" xlink:title=" ">
<polygon fill="white" stroke="black" points="281,-9.5 281,-28.5 389,-28.5 389,-9.5 281,-9.5"/>
<text text-anchor="middle" x="335" y="-16.5" font-family="Helvetica,sans-Serif" font-size="10.00">pb_decode_delimited</text>
</a>
</g>
</g>
<!-- Node7&#45;&gt;Node11 -->
<g id="edge11" class="edge">
<title>Node7&#45;&gt;Node11</title>
<path fill="none" stroke="midnightblue" d="M454.51,-66.59C442.34,-60.23 427.61,-52.87 414,-47 398.15,-40.16 380.02,-33.58 365.23,-28.52"/>
<polygon fill="midnightblue" stroke="midnightblue" points="453.18,-69.85 463.65,-71.44 456.46,-63.67 453.18,-69.85"/>
</g>
<!-- Node9 -->
<g id="node9" class="node">
<title>Node9</title>
<g id="a_node9"><a xlink:href="class_k_u_k_a_1_1_f_r_i_1_1_client_application.html#a9939bfd1fa78c59dc3675a6d2a5de7a7" target="_top" xlink:title="Run a single processing step.">
<polygon fill="white" stroke="black" points="74,-95 74,-125 220,-125 220,-95 74,-95"/>
<text text-anchor="start" x="82" y="-113" font-family="Helvetica,sans-Serif" font-size="10.00">KUKA::FRI::ClientApplication</text>
<text text-anchor="middle" x="147" y="-102" font-family="Helvetica,sans-Serif" font-size="10.00">::step</text>
</a>
</g>
</g>
<!-- Node8&#45;&gt;Node9 -->
<g id="edge8" class="edge">
<title>Node8&#45;&gt;Node9</title>
<path fill="none" stroke="midnightblue" d="M245.88,-110C237.29,-110 228.65,-110 220.24,-110"/>
<polygon fill="midnightblue" stroke="midnightblue" points="245.93,-113.5 255.93,-110 245.93,-106.5 245.93,-113.5"/>
</g>
<!-- Node10 -->
<g id="node10" class="node">
<title>Node10</title>
<g id="a_node10"><a xlink:href="_i_o_access_app_8cpp.html#a3c04138a5bfe5d72780bb7e82a18e627" target="_top" xlink:title=" ">
<polygon fill="white" stroke="black" points="0,-100.5 0,-119.5 38,-119.5 38,-100.5 0,-100.5"/>
<text text-anchor="middle" x="19" y="-107.5" font-family="Helvetica,sans-Serif" font-size="10.00">main</text>
</a>
</g>
</g>
<!-- Node9&#45;&gt;Node10 -->
<g id="edge9" class="edge">
<title>Node9&#45;&gt;Node10</title>
<path fill="none" stroke="midnightblue" d="M63.74,-110C54.28,-110 45.45,-110 38.25,-110"/>
<polygon fill="midnightblue" stroke="midnightblue" points="63.8,-113.5 73.8,-110 63.8,-106.5 63.8,-113.5"/>
</g>
<!-- Node12&#45;&gt;Node6 -->
<g id="edge23" class="edge">
<title>Node12&#45;&gt;Node6</title>
<path fill="none" stroke="midnightblue" d="M1282.83,-81.42C1262.56,-73.03 1235.17,-62.78 1210,-57 1127.51,-38.04 1105.14,-38 1020.5,-38 1020.5,-38 1020.5,-38 595,-38 523.77,-38 442.15,-48.6 389.89,-56.75"/>
<polygon fill="midnightblue" stroke="midnightblue" points="1281.6,-84.7 1292.18,-85.37 1284.33,-78.25 1281.6,-84.7"/>
</g>
<!-- Node12&#45;&gt;Node11 -->
<g id="edge24" class="edge">
<title>Node12&#45;&gt;Node11</title>
<path fill="none" stroke="midnightblue" d="M1291.68,-79.7C1271.42,-66.21 1239.96,-47.04 1210,-36 1129.56,-6.37 1106.23,0 1020.5,0 1020.5,0 1020.5,0 595,0 523.76,0 441.8,-7.24 389.49,-12.78"/>
<polygon fill="midnightblue" stroke="midnightblue" points="1289.91,-82.73 1300.15,-85.45 1293.84,-76.94 1289.91,-82.73"/>
</g>
<!-- Node13 -->
<g id="node13" class="node">
<title>Node13</title>
<g id="a_node13"><a xlink:href="pb__decode_8c.html#a69a78d2efcd4b9057215ac8b79a5eb2b" target="_top" xlink:title=" ">
<polygon fill="white" stroke="black" points="1097,-142.5 1097,-161.5 1210,-161.5 1210,-142.5 1097,-142.5"/>
<text text-anchor="middle" x="1153.5" y="-149.5" font-family="Helvetica,sans-Serif" font-size="10.00">decode_callback_field</text>
</a>
</g>
</g>
<!-- Node12&#45;&gt;Node13 -->
<g id="edge13" class="edge">
<title>Node12&#45;&gt;Node13</title>
<path fill="none" stroke="midnightblue" d="M1278.41,-108.1C1258.4,-115.52 1232.84,-124.9 1210,-133 1201.17,-136.13 1191.52,-139.47 1182.78,-142.45"/>
<polygon fill="midnightblue" stroke="midnightblue" points="1279.88,-111.29 1288.04,-104.53 1277.44,-104.73 1279.88,-111.29"/>
</g>
<!-- Node17 -->
<g id="node17" class="node">
<title>Node17</title>
<g id="a_node17"><a xlink:href="pb__decode_8c.html#af65dd063304df2ed380dc411bb6caae6" target="_top" xlink:title=" ">
<polygon fill="white" stroke="black" points="1100.5,-66.5 1100.5,-85.5 1206.5,-85.5 1206.5,-66.5 1100.5,-66.5"/>
<text text-anchor="middle" x="1153.5" y="-73.5" font-family="Helvetica,sans-Serif" font-size="10.00">decode_pointer_field</text>
</a>
</g>
</g>
<!-- Node12&#45;&gt;Node17 -->
<g id="edge19" class="edge">
<title>Node12&#45;&gt;Node17</title>
<path fill="none" stroke="midnightblue" d="M1235.5,-85.68C1225.76,-84.51 1215.99,-83.35 1206.77,-82.25"/>
<polygon fill="midnightblue" stroke="midnightblue" points="1235.26,-89.18 1245.61,-86.89 1236.09,-82.23 1235.26,-89.18"/>
</g>
<!-- Node18 -->
<g id="node18" class="node">
<title>Node18</title>
<g id="a_node18"><a xlink:href="pb__decode_8c.html#a02c14bf9763a469e0414bf9a1eb13632" target="_top" xlink:title=" ">
<polygon fill="white" stroke="black" points="1103,-104.5 1103,-123.5 1204,-123.5 1204,-104.5 1103,-104.5"/>
<text text-anchor="middle" x="1153.5" y="-111.5" font-family="Helvetica,sans-Serif" font-size="10.00">decode_static_field</text>
</a>
</g>
</g>
<!-- Node12&#45;&gt;Node18 -->
<g id="edge21" class="edge">
<title>Node12&#45;&gt;Node18</title>
<path fill="none" stroke="midnightblue" d="M1235.49,-104.32C1224.9,-105.59 1214.28,-106.86 1204.37,-108.04"/>
<polygon fill="midnightblue" stroke="midnightblue" points="1236.09,-107.77 1245.61,-103.11 1235.26,-100.82 1236.09,-107.77"/>
</g>
<!-- Node14 -->
<g id="node14" class="node">
<title>Node14</title>
<g id="a_node14"><a xlink:href="pb__decode_8c.html#a48151430d329252cc54fd9764dd820f7" target="_top" xlink:title=" ">
<polygon fill="white" stroke="black" points="984,-104.5 984,-123.5 1055,-123.5 1055,-104.5 984,-104.5"/>
<text text-anchor="middle" x="1019.5" y="-111.5" font-family="Helvetica,sans-Serif" font-size="10.00">decode_field</text>
</a>
</g>
</g>
<!-- Node13&#45;&gt;Node14 -->
<g id="edge14" class="edge">
<title>Node13&#45;&gt;Node14</title>
<path fill="none" stroke="midnightblue" d="M1109.46,-139.61C1091.38,-134.41 1070.68,-128.45 1053.8,-123.59"/>
<polygon fill="midnightblue" stroke="midnightblue" points="1108.61,-143.01 1119.19,-142.41 1110.55,-136.28 1108.61,-143.01"/>
</g>
<!-- Node14&#45;&gt;Node5 -->
<g id="edge18" class="edge">
<title>Node14&#45;&gt;Node5</title>
<path fill="none" stroke="midnightblue" d="M973.82,-121.52C963.4,-122.97 952.34,-124.26 942,-125 834.61,-132.68 707.94,-128.59 642.01,-125.47"/>
<polygon fill="midnightblue" stroke="midnightblue" points="974.57,-124.94 983.96,-120.03 973.56,-118.02 974.57,-124.94"/>
</g>
<!-- Node15 -->
<g id="node15" class="node">
<title>Node15</title>
<g id="a_node15"><a xlink:href="pb__decode_8c.html#a7c09905fda4c6398697bcf0d42882c04" target="_top" xlink:title=" ">
<polygon fill="white" stroke="black" points="809,-96.5 809,-115.5 942,-115.5 942,-96.5 809,-96.5"/>
<text text-anchor="middle" x="875.5" y="-103.5" font-family="Helvetica,sans-Serif" font-size="10.00">default_extension_decoder</text>
</a>
</g>
</g>
<!-- Node14&#45;&gt;Node15 -->
<g id="edge15" class="edge">
<title>Node14&#45;&gt;Node15</title>
<path fill="none" stroke="midnightblue" d="M973.67,-111.47C963.67,-110.91 952.87,-110.3 942.22,-109.7"/>
<polygon fill="midnightblue" stroke="midnightblue" points="973.58,-114.97 983.76,-112.04 973.98,-107.99 973.58,-114.97"/>
</g>
<!-- Node16 -->
<g id="node16" class="node">
<title>Node16</title>
<g id="a_node16"><a xlink:href="pb__decode_8c.html#a30eb2ecefe2a2095c1c668e3932b63fc" target="_top" xlink:title=" ">
<polygon fill="white" stroke="black" points="678,-96.5 678,-115.5 773,-115.5 773,-96.5 678,-96.5"/>
<text text-anchor="middle" x="725.5" y="-103.5" font-family="Helvetica,sans-Serif" font-size="10.00">decode_extension</text>
</a>
</g>
</g>
<!-- Node15&#45;&gt;Node16 -->
<g id="edge16" class="edge">
<title>Node15&#45;&gt;Node16</title>
<path fill="none" stroke="midnightblue" d="M798.52,-106C789.82,-106 781.15,-106 773.01,-106"/>
<polygon fill="midnightblue" stroke="midnightblue" points="798.72,-109.5 808.72,-106 798.72,-102.5 798.72,-109.5"/>
</g>
<!-- Node16&#45;&gt;Node5 -->
<g id="edge17" class="edge">
<title>Node16&#45;&gt;Node5</title>
<path fill="none" stroke="midnightblue" d="M667.76,-113.57C659.15,-114.71 650.36,-115.88 642.05,-116.99"/>
<polygon fill="midnightblue" stroke="midnightblue" points="668.3,-117.02 677.75,-112.23 667.37,-110.09 668.3,-117.02"/>
</g>
<!-- Node17&#45;&gt;Node14 -->
<g id="edge20" class="edge">
<title>Node17&#45;&gt;Node14</title>
<path fill="none" stroke="midnightblue" d="M1109.46,-88.39C1091.38,-93.59 1070.68,-99.55 1053.8,-104.41"/>
<polygon fill="midnightblue" stroke="midnightblue" points="1110.55,-91.72 1119.19,-85.59 1108.61,-84.99 1110.55,-91.72"/>
</g>
<!-- Node18&#45;&gt;Node14 -->
<g id="edge22" class="edge">
<title>Node18&#45;&gt;Node14</title>
<path fill="none" stroke="midnightblue" d="M1092.74,-114C1079.84,-114 1066.62,-114 1055.08,-114"/>
<polygon fill="midnightblue" stroke="midnightblue" points="1092.97,-117.5 1102.97,-114 1092.97,-110.5 1092.97,-117.5"/>
</g>
<!-- Node20 -->
<g id="node20" class="node">
<title>Node20</title>
<g id="a_node20"><a xlink:href="pb__decode_8c.html#ab5102942c8402c215f836364e1b775b1" target="_top" xlink:title=" ">
<polygon fill="white" stroke="black" points="1277.5,-180.5 1277.5,-199.5 1351.5,-199.5 1351.5,-180.5 1277.5,-180.5"/>
<text text-anchor="middle" x="1314.5" y="-187.5" font-family="Helvetica,sans-Serif" font-size="10.00">pb_skip_field</text>
</a>
</g>
</g>
<!-- Node19&#45;&gt;Node20 -->
<g id="edge26" class="edge">
<title>Node19&#45;&gt;Node20</title>
<path fill="none" stroke="midnightblue" d="M1408.57,-190C1389.9,-190 1369.01,-190 1351.76,-190"/>
<polygon fill="midnightblue" stroke="midnightblue" points="1408.68,-193.5 1418.68,-190 1408.68,-186.5 1408.68,-193.5"/>
</g>
<!-- Node20&#45;&gt;Node5 -->
<g id="edge28" class="edge">
<title>Node20&#45;&gt;Node5</title>
<path fill="none" stroke="midnightblue" d="M1267.15,-190C1209.39,-190 1107.66,-190 1020.5,-190 1020.5,-190 1020.5,-190 874.5,-190 777.86,-190 667.43,-151.13 620.3,-132.6"/>
<polygon fill="midnightblue" stroke="midnightblue" points="1267.41,-193.5 1277.41,-190 1267.41,-186.5 1267.41,-193.5"/>
</g>
<!-- Node20&#45;&gt;Node13 -->
<g id="edge27" class="edge">
<title>Node20&#45;&gt;Node13</title>
<path fill="none" stroke="midnightblue" d="M1267.48,-179C1244.34,-173.47 1216.56,-166.83 1194.34,-161.52"/>
<polygon fill="midnightblue" stroke="midnightblue" points="1266.88,-182.46 1277.42,-181.38 1268.51,-175.65 1266.88,-182.46"/>
</g>
</g>
</svg>
