<?xml version="1.0" encoding="UTF-8" standalone="no"?>
<!DOCTYPE svg PUBLIC "-//W3C//DTD SVG 1.1//EN"
 "http://www.w3.org/Graphics/SVG/1.1/DTD/svg11.dtd">
<!-- Generated by graphviz version 2.43.0 (0)
 -->
<!-- Title: build/FRI&#45;Client&#45;SDK_Cpp/src/protobuf/pb_frimessages_callbacks.c Pages: 1 -->
<svg width="436pt" height="274pt"
 viewBox="0.00 0.00 436.00 274.00" xmlns="http://www.w3.org/2000/svg" xmlns:xlink="http://www.w3.org/1999/xlink">
<g id="graph0" class="graph" transform="scale(1 1) rotate(0) translate(4 270)">
<title>build/FRI&#45;Client&#45;SDK_Cpp/src/protobuf/pb_frimessages_callbacks.c</title>
<polygon fill="white" stroke="transparent" points="-4,4 -4,-270 432,-270 432,4 -4,4"/>
<!-- Node1 -->
<g id="node1" class="node">
<title>Node1</title>
<g id="a_node1"><a xlink:title=" ">
<polygon fill="#bfbfbf" stroke="black" points="135,-224.5 135,-265.5 265,-265.5 265,-224.5 135,-224.5"/>
<text text-anchor="start" x="143" y="-253.5" font-family="Helvetica,sans-Serif" font-size="10.00">build/FRI&#45;Client&#45;SDK</text>
<text text-anchor="start" x="143" y="-242.5" font-family="Helvetica,sans-Serif" font-size="10.00">_Cpp/src/protobuf/pb</text>
<text text-anchor="middle" x="200" y="-231.5" font-family="Helvetica,sans-Serif" font-size="10.00">_frimessages_callbacks.c</text>
</a>
</g>
</g>
<!-- Node2 -->
<g id="node2" class="node">
<title>Node2</title>
<g id="a_node2"><a xlink:title=" ">
<polygon fill="white" stroke="#bfbfbf" points="0,-168.5 0,-187.5 46,-187.5 46,-168.5 0,-168.5"/>
<text text-anchor="middle" x="23" y="-175.5" font-family="Helvetica,sans-Serif" font-size="10.00">stdio.h</text>
</a>
</g>
</g>
<!-- Node1&#45;&gt;Node2 -->
<g id="edge1" class="edge">
<title>Node1&#45;&gt;Node2</title>
<path fill="none" stroke="midnightblue" d="M146.89,-224.5C117.23,-213.6 81.21,-200.38 55.67,-191"/>
<polygon fill="midnightblue" stroke="midnightblue" points="56.69,-187.64 46.1,-187.48 54.28,-194.21 56.69,-187.64"/>
</g>
<!-- Node3 -->
<g id="node3" class="node">
<title>Node3</title>
<g id="a_node3"><a xlink:title=" ">
<polygon fill="white" stroke="#bfbfbf" points="64,-168.5 64,-187.5 112,-187.5 112,-168.5 64,-168.5"/>
<text text-anchor="middle" x="88" y="-175.5" font-family="Helvetica,sans-Serif" font-size="10.00">stdlib.h</text>
</a>
</g>
</g>
<!-- Node1&#45;&gt;Node3 -->
<g id="edge2" class="edge">
<title>Node1&#45;&gt;Node3</title>
<path fill="none" stroke="midnightblue" d="M166.4,-224.5C148.73,-214.24 127.5,-201.93 111.59,-192.69"/>
<polygon fill="midnightblue" stroke="midnightblue" points="113.31,-189.64 102.91,-187.65 109.8,-195.7 113.31,-189.64"/>
</g>
<!-- Node4 -->
<g id="node4" class="node">
<title>Node4</title>
<g id="a_node4"><a xlink:href="pb__frimessages__callbacks_8h.html" target="_top" xlink:title=" ">
<polygon fill="white" stroke="black" points="130,-168.5 130,-187.5 270,-187.5 270,-168.5 130,-168.5"/>
<text text-anchor="middle" x="200" y="-175.5" font-family="Helvetica,sans-Serif" font-size="10.00">pb_frimessages_callbacks.h</text>
</a>
</g>
</g>
<!-- Node1&#45;&gt;Node4 -->
<g id="edge3" class="edge">
<title>Node1&#45;&gt;Node4</title>
<path fill="none" stroke="midnightblue" d="M200,-224.5C200,-216.07 200,-206.24 200,-197.87"/>
<polygon fill="midnightblue" stroke="midnightblue" points="203.5,-197.65 200,-187.65 196.5,-197.65 203.5,-197.65"/>
</g>
<!-- Node11 -->
<g id="node11" class="node">
<title>Node11</title>
<g id="a_node11"><a xlink:href="pb__encode_8h.html" target="_top" xlink:title=" ">
<polygon fill="white" stroke="black" points="266,-112.5 266,-131.5 338,-131.5 338,-112.5 266,-112.5"/>
<text text-anchor="middle" x="302" y="-119.5" font-family="Helvetica,sans-Serif" font-size="10.00">pb_encode.h</text>
</a>
</g>
</g>
<!-- Node1&#45;&gt;Node11 -->
<g id="edge11" class="edge">
<title>Node1&#45;&gt;Node11</title>
<path fill="none" stroke="midnightblue" d="M237.3,-224.27C251.99,-214.94 267.95,-202.62 279,-188 289.36,-174.29 295.34,-155.5 298.59,-141.65"/>
<polygon fill="midnightblue" stroke="midnightblue" points="302.03,-142.3 300.64,-131.8 295.17,-140.87 302.03,-142.3"/>
</g>
<!-- Node12 -->
<g id="node12" class="node">
<title>Node12</title>
<g id="a_node12"><a xlink:href="pb__decode_8h.html" target="_top" xlink:title=" ">
<polygon fill="white" stroke="black" points="356,-112.5 356,-131.5 428,-131.5 428,-112.5 356,-112.5"/>
<text text-anchor="middle" x="392" y="-119.5" font-family="Helvetica,sans-Serif" font-size="10.00">pb_decode.h</text>
</a>
</g>
</g>
<!-- Node1&#45;&gt;Node12 -->
<g id="edge13" class="edge">
<title>Node1&#45;&gt;Node12</title>
<path fill="none" stroke="midnightblue" d="M236.28,-224.25C254.95,-213.84 277.94,-200.64 298,-188 324.11,-171.55 353.2,-151.1 372,-137.57"/>
<polygon fill="midnightblue" stroke="midnightblue" points="374.29,-140.23 380.35,-131.54 370.19,-134.56 374.29,-140.23"/>
</g>
<!-- Node5 -->
<g id="node5" class="node">
<title>Node5</title>
<g id="a_node5"><a xlink:href="pb_8h.html" target="_top" xlink:title=" ">
<polygon fill="white" stroke="black" points="232.5,-56.5 232.5,-75.5 267.5,-75.5 267.5,-56.5 232.5,-56.5"/>
<text text-anchor="middle" x="250" y="-63.5" font-family="Helvetica,sans-Serif" font-size="10.00">pb.h</text>
</a>
</g>
</g>
<!-- Node4&#45;&gt;Node5 -->
<g id="edge4" class="edge">
<title>Node4&#45;&gt;Node5</title>
<path fill="none" stroke="midnightblue" d="M181,-168.34C157.93,-156.59 123.87,-134.46 139,-112 157.48,-84.56 195.86,-73.85 222.26,-69.67"/>
<polygon fill="midnightblue" stroke="midnightblue" points="222.98,-73.1 232.42,-68.29 222.03,-66.17 222.98,-73.1"/>
</g>
<!-- Node10 -->
<g id="node10" class="node">
<title>Node10</title>
<g id="a_node10"><a xlink:href="_f_r_i_messages_8pb_8h.html" target="_top" xlink:title=" ">
<polygon fill="white" stroke="black" points="148,-112.5 148,-131.5 248,-131.5 248,-112.5 148,-112.5"/>
<text text-anchor="middle" x="198" y="-119.5" font-family="Helvetica,sans-Serif" font-size="10.00">FRIMessages.pb.h</text>
</a>
</g>
</g>
<!-- Node4&#45;&gt;Node10 -->
<g id="edge9" class="edge">
<title>Node4&#45;&gt;Node10</title>
<path fill="none" stroke="midnightblue" d="M199.67,-168.08C199.41,-161.01 199.03,-150.86 198.7,-141.99"/>
<polygon fill="midnightblue" stroke="midnightblue" points="202.19,-141.61 198.32,-131.75 195.2,-141.87 202.19,-141.61"/>
</g>
<!-- Node6 -->
<g id="node6" class="node">
<title>Node6</title>
<g id="a_node6"><a xlink:title=" ">
<polygon fill="white" stroke="#bfbfbf" points="120.5,-0.5 120.5,-19.5 169.5,-19.5 169.5,-0.5 120.5,-0.5"/>
<text text-anchor="middle" x="145" y="-7.5" font-family="Helvetica,sans-Serif" font-size="10.00">stdint.h</text>
</a>
</g>
</g>
<!-- Node5&#45;&gt;Node6 -->
<g id="edge5" class="edge">
<title>Node5&#45;&gt;Node6</title>
<path fill="none" stroke="midnightblue" d="M233.13,-56.32C216.29,-47.66 190.19,-34.24 170.76,-24.25"/>
<polygon fill="midnightblue" stroke="midnightblue" points="172.32,-21.12 161.83,-19.65 169.12,-27.34 172.32,-21.12"/>
</g>
<!-- Node7 -->
<g id="node7" class="node">
<title>Node7</title>
<g id="a_node7"><a xlink:title=" ">
<polygon fill="white" stroke="#bfbfbf" points="188,-0.5 188,-19.5 240,-19.5 240,-0.5 188,-0.5"/>
<text text-anchor="middle" x="214" y="-7.5" font-family="Helvetica,sans-Serif" font-size="10.00">stddef.h</text>
</a>
</g>
</g>
<!-- Node5&#45;&gt;Node7 -->
<g id="edge6" class="edge">
<title>Node5&#45;&gt;Node7</title>
<path fill="none" stroke="midnightblue" d="M244.06,-56.08C239.02,-48.53 231.66,-37.49 225.49,-28.23"/>
<polygon fill="midnightblue" stroke="midnightblue" points="228.29,-26.13 219.83,-19.75 222.47,-30.01 228.29,-26.13"/>
</g>
<!-- Node8 -->
<g id="node8" class="node">
<title>Node8</title>
<g id="a_node8"><a xlink:title=" ">
<polygon fill="white" stroke="#bfbfbf" points="258,-0.5 258,-19.5 314,-19.5 314,-0.5 258,-0.5"/>
<text text-anchor="middle" x="286" y="-7.5" font-family="Helvetica,sans-Serif" font-size="10.00">stdbool.h</text>
</a>
</g>
</g>
<!-- Node5&#45;&gt;Node8 -->
<g id="edge7" class="edge">
<title>Node5&#45;&gt;Node8</title>
<path fill="none" stroke="midnightblue" d="M255.94,-56.08C260.98,-48.53 268.34,-37.49 274.51,-28.23"/>
<polygon fill="midnightblue" stroke="midnightblue" points="277.53,-30.01 280.17,-19.75 271.71,-26.13 277.53,-30.01"/>
</g>
<!-- Node9 -->
<g id="node9" class="node">
<title>Node9</title>
<g id="a_node9"><a xlink:title=" ">
<polygon fill="white" stroke="#bfbfbf" points="332.5,-0.5 332.5,-19.5 381.5,-19.5 381.5,-0.5 332.5,-0.5"/>
<text text-anchor="middle" x="357" y="-7.5" font-family="Helvetica,sans-Serif" font-size="10.00">string.h</text>
</a>
</g>
</g>
<!-- Node5&#45;&gt;Node9 -->
<g id="edge8" class="edge">
<title>Node5&#45;&gt;Node9</title>
<path fill="none" stroke="midnightblue" d="M267.19,-56.32C284.35,-47.66 310.95,-34.24 330.75,-24.25"/>
<polygon fill="midnightblue" stroke="midnightblue" points="332.5,-27.28 339.85,-19.65 329.35,-21.04 332.5,-27.28"/>
</g>
<!-- Node10&#45;&gt;Node5 -->
<g id="edge10" class="edge">
<title>Node10&#45;&gt;Node5</title>
<path fill="none" stroke="midnightblue" d="M206.59,-112.08C214.16,-104.22 225.38,-92.57 234.51,-83.08"/>
<polygon fill="midnightblue" stroke="midnightblue" points="237.16,-85.38 241.57,-75.75 232.12,-80.53 237.16,-85.38"/>
</g>
<!-- Node11&#45;&gt;Node5 -->
<g id="edge12" class="edge">
<title>Node11&#45;&gt;Node5</title>
<path fill="none" stroke="midnightblue" d="M293.41,-112.08C285.84,-104.22 274.62,-92.57 265.49,-83.08"/>
<polygon fill="midnightblue" stroke="midnightblue" points="267.88,-80.53 258.43,-75.75 262.84,-85.38 267.88,-80.53"/>
</g>
<!-- Node12&#45;&gt;Node5 -->
<g id="edge14" class="edge">
<title>Node12&#45;&gt;Node5</title>
<path fill="none" stroke="midnightblue" d="M369.5,-112.44C344.54,-102.95 304.25,-87.63 277.45,-77.44"/>
<polygon fill="midnightblue" stroke="midnightblue" points="278.49,-74.09 267.9,-73.81 276,-80.63 278.49,-74.09"/>
</g>
</g>
</svg>
