<?xml version="1.0" encoding="UTF-8" standalone="no"?>
<!DOCTYPE svg PUBLIC "-//W3C//DTD SVG 1.1//EN"
 "http://www.w3.org/Graphics/SVG/1.1/DTD/svg11.dtd">
<!-- Generated by graphviz version 2.43.0 (0)
 -->
<!-- Title: decode_extension Pages: 1 -->
<svg width="1102pt" height="208pt"
 viewBox="0.00 0.00 1102.00 208.00" xmlns="http://www.w3.org/2000/svg" xmlns:xlink="http://www.w3.org/1999/xlink">
<g id="graph0" class="graph" transform="scale(1 1) rotate(0) translate(4 204)">
<title>decode_extension</title>
<polygon fill="white" stroke="transparent" points="-4,4 -4,-204 1098,-204 1098,4 -4,4"/>
<!-- Node1 -->
<g id="node1" class="node">
<title>Node1</title>
<g id="a_node1"><a xlink:title=" ">
<polygon fill="#bfbfbf" stroke="black" points="0,-142.5 0,-161.5 95,-161.5 95,-142.5 0,-142.5"/>
<text text-anchor="middle" x="47.5" y="-149.5" font-family="Helvetica,sans-Serif" font-size="10.00">decode_extension</text>
</a>
</g>
</g>
<!-- Node2 -->
<g id="node2" class="node">
<title>Node2</title>
<g id="a_node2"><a xlink:href="pb__decode_8c.html#a7c09905fda4c6398697bcf0d42882c04" target="_top" xlink:title=" ">
<polygon fill="white" stroke="black" points="131,-142.5 131,-161.5 264,-161.5 264,-142.5 131,-142.5"/>
<text text-anchor="middle" x="197.5" y="-149.5" font-family="Helvetica,sans-Serif" font-size="10.00">default_extension_decoder</text>
</a>
</g>
</g>
<!-- Node1&#45;&gt;Node2 -->
<g id="edge1" class="edge">
<title>Node1&#45;&gt;Node2</title>
<path fill="none" stroke="midnightblue" d="M95.33,-152C103.42,-152 112.02,-152 120.66,-152"/>
<polygon fill="midnightblue" stroke="midnightblue" points="120.78,-155.5 130.78,-152 120.78,-148.5 120.78,-155.5"/>
</g>
<!-- Node3 -->
<g id="node3" class="node">
<title>Node3</title>
<g id="a_node3"><a xlink:href="pb__decode_8c.html#a48151430d329252cc54fd9764dd820f7" target="_top" xlink:title=" ">
<polygon fill="white" stroke="black" points="300,-142.5 300,-161.5 371,-161.5 371,-142.5 300,-142.5"/>
<text text-anchor="middle" x="335.5" y="-149.5" font-family="Helvetica,sans-Serif" font-size="10.00">decode_field</text>
</a>
</g>
</g>
<!-- Node2&#45;&gt;Node3 -->
<g id="edge2" class="edge">
<title>Node2&#45;&gt;Node3</title>
<path fill="none" stroke="midnightblue" d="M264.11,-152C272.8,-152 281.55,-152 289.77,-152"/>
<polygon fill="midnightblue" stroke="midnightblue" points="289.88,-155.5 299.88,-152 289.88,-148.5 289.88,-155.5"/>
</g>
<!-- Node4 -->
<g id="node4" class="node">
<title>Node4</title>
<g id="a_node4"><a xlink:href="pb__decode_8c.html#a69a78d2efcd4b9057215ac8b79a5eb2b" target="_top" xlink:title=" ">
<polygon fill="white" stroke="black" points="407,-104.5 407,-123.5 520,-123.5 520,-104.5 407,-104.5"/>
<text text-anchor="middle" x="463.5" y="-111.5" font-family="Helvetica,sans-Serif" font-size="10.00">decode_callback_field</text>
</a>
</g>
</g>
<!-- Node3&#45;&gt;Node4 -->
<g id="edge3" class="edge">
<title>Node3&#45;&gt;Node4</title>
<path fill="none" stroke="midnightblue" d="M368.3,-142.41C384.26,-137.6 403.81,-131.7 420.95,-126.53"/>
<polygon fill="midnightblue" stroke="midnightblue" points="422.15,-129.82 430.72,-123.59 420.13,-123.12 422.15,-129.82"/>
</g>
<!-- Node16 -->
<g id="node16" class="node">
<title>Node16</title>
<g id="a_node16"><a xlink:href="pb__decode_8c.html#af65dd063304df2ed380dc411bb6caae6" target="_top" xlink:title=" ">
<polygon fill="white" stroke="black" points="410.5,-180.5 410.5,-199.5 516.5,-199.5 516.5,-180.5 410.5,-180.5"/>
<text text-anchor="middle" x="463.5" y="-187.5" font-family="Helvetica,sans-Serif" font-size="10.00">decode_pointer_field</text>
</a>
</g>
</g>
<!-- Node3&#45;&gt;Node16 -->
<g id="edge20" class="edge">
<title>Node3&#45;&gt;Node16</title>
<path fill="none" stroke="midnightblue" d="M368.3,-161.59C384.26,-166.4 403.81,-172.3 420.95,-177.47"/>
<polygon fill="midnightblue" stroke="midnightblue" points="420.13,-180.88 430.72,-180.41 422.15,-174.18 420.13,-180.88"/>
</g>
<!-- Node17 -->
<g id="node17" class="node">
<title>Node17</title>
<g id="a_node17"><a xlink:href="pb__decode_8c.html#a02c14bf9763a469e0414bf9a1eb13632" target="_top" xlink:title=" ">
<polygon fill="white" stroke="black" points="413,-142.5 413,-161.5 514,-161.5 514,-142.5 413,-142.5"/>
<text text-anchor="middle" x="463.5" y="-149.5" font-family="Helvetica,sans-Serif" font-size="10.00">decode_static_field</text>
</a>
</g>
</g>
<!-- Node3&#45;&gt;Node17 -->
<g id="edge23" class="edge">
<title>Node3&#45;&gt;Node17</title>
<path fill="none" stroke="midnightblue" d="M371.26,-152C380.98,-152 391.82,-152 402.55,-152"/>
<polygon fill="midnightblue" stroke="midnightblue" points="402.76,-155.5 412.76,-152 402.76,-148.5 402.76,-155.5"/>
</g>
<!-- Node5 -->
<g id="node5" class="node">
<title>Node5</title>
<g id="a_node5"><a xlink:href="pb__decode_8c.html#ac0a84ef26be0f3bf894deaee63e5114c" target="_top" xlink:title=" ">
<polygon fill="white" stroke="black" points="556.5,-142.5 556.5,-161.5 692.5,-161.5 692.5,-142.5 556.5,-142.5"/>
<text text-anchor="middle" x="624.5" y="-149.5" font-family="Helvetica,sans-Serif" font-size="10.00">pb_close_string_substream</text>
</a>
</g>
</g>
<!-- Node4&#45;&gt;Node5 -->
<g id="edge4" class="edge">
<title>Node4&#45;&gt;Node5</title>
<path fill="none" stroke="midnightblue" d="M504.62,-123.59C525.6,-128.6 551.48,-134.79 573.73,-140.11"/>
<polygon fill="midnightblue" stroke="midnightblue" points="573.13,-143.56 583.67,-142.48 574.75,-136.75 573.13,-143.56"/>
</g>
<!-- Node6 -->
<g id="node6" class="node">
<title>Node6</title>
<g id="a_node6"><a xlink:href="pb__decode_8c.html#a37dc2b0c54c27ddd29791e7522c85548" target="_top" xlink:title=" ">
<polygon fill="white" stroke="black" points="729,-0.5 729,-19.5 848,-19.5 848,-0.5 729,-0.5"/>
<text text-anchor="middle" x="788.5" y="-7.5" font-family="Helvetica,sans-Serif" font-size="10.00">pb_istream_from_buffer</text>
</a>
</g>
</g>
<!-- Node4&#45;&gt;Node6 -->
<g id="edge5" class="edge">
<title>Node4&#45;&gt;Node6</title>
<path fill="none" stroke="midnightblue" d="M479.47,-104.42C497.13,-93.48 527.69,-75.73 556,-65 609.26,-44.8 672.3,-30.41 719.14,-21.42"/>
<polygon fill="midnightblue" stroke="midnightblue" points="720,-24.82 729.18,-19.53 718.71,-17.94 720,-24.82"/>
</g>
<!-- Node8 -->
<g id="node8" class="node">
<title>Node8</title>
<g id="a_node8"><a xlink:href="pb__decode_8c.html#a7433fc394255932c4f00274e7f890721" target="_top" xlink:title=" ">
<polygon fill="white" stroke="black" points="556,-180.5 556,-199.5 693,-199.5 693,-180.5 556,-180.5"/>
<text text-anchor="middle" x="624.5" y="-187.5" font-family="Helvetica,sans-Serif" font-size="10.00">pb_make_string_substream</text>
</a>
</g>
</g>
<!-- Node4&#45;&gt;Node8 -->
<g id="edge7" class="edge">
<title>Node4&#45;&gt;Node8</title>
<path fill="none" stroke="midnightblue" d="M500.61,-123.52C507.33,-126.07 514.09,-129.2 520,-133 539.57,-145.58 536.09,-158.97 556,-171 559.58,-173.16 563.41,-175.08 567.36,-176.79"/>
<polygon fill="midnightblue" stroke="midnightblue" points="566.15,-180.08 576.74,-180.41 568.66,-173.54 566.15,-180.08"/>
</g>
<!-- Node11 -->
<g id="node11" class="node">
<title>Node11</title>
<g id="a_node11"><a xlink:href="pb__decode_8c.html#ab5102942c8402c215f836364e1b775b1" target="_top" xlink:title=" ">
<polygon fill="white" stroke="black" points="587.5,-104.5 587.5,-123.5 661.5,-123.5 661.5,-104.5 587.5,-104.5"/>
<text text-anchor="middle" x="624.5" y="-111.5" font-family="Helvetica,sans-Serif" font-size="10.00">pb_skip_field</text>
</a>
</g>
</g>
<!-- Node4&#45;&gt;Node11 -->
<g id="edge10" class="edge">
<title>Node4&#45;&gt;Node11</title>
<path fill="none" stroke="midnightblue" d="M520.11,-114C538.68,-114 559.16,-114 576.96,-114"/>
<polygon fill="midnightblue" stroke="midnightblue" points="577.1,-117.5 587.1,-114 577.1,-110.5 577.1,-117.5"/>
</g>
<!-- Node15 -->
<g id="node15" class="node">
<title>Node15</title>
<g id="a_node15"><a xlink:href="pb__decode_8c.html#a3f23856ca4723854f204b46d5f10c3ec" target="_top" xlink:title=" ">
<polygon fill="white" stroke="black" points="746,-38.5 746,-57.5 831,-57.5 831,-38.5 746,-38.5"/>
<text text-anchor="middle" x="788.5" y="-45.5" font-family="Helvetica,sans-Serif" font-size="10.00">read_raw_value</text>
</a>
</g>
</g>
<!-- Node4&#45;&gt;Node15 -->
<g id="edge18" class="edge">
<title>Node4&#45;&gt;Node15</title>
<path fill="none" stroke="midnightblue" d="M510.1,-104.49C524.76,-101.44 541.06,-98.07 556,-95 617.75,-82.32 688.82,-67.92 735.74,-58.44"/>
<polygon fill="midnightblue" stroke="midnightblue" points="736.56,-61.85 745.67,-56.43 735.17,-54.98 736.56,-61.85"/>
</g>
<!-- Node7 -->
<g id="node7" class="node">
<title>Node7</title>
<g id="a_node7"><a xlink:href="pb__decode_8c.html#a9746f7244f9d14b2a095ddfcad55febe" target="_top" xlink:title=" ">
<polygon fill="white" stroke="black" points="1032,-48.5 1032,-67.5 1086,-67.5 1086,-48.5 1032,-48.5"/>
<text text-anchor="middle" x="1059" y="-55.5" font-family="Helvetica,sans-Serif" font-size="10.00">buf_read</text>
</a>
</g>
</g>
<!-- Node6&#45;&gt;Node7 -->
<g id="edge6" class="edge">
<title>Node6&#45;&gt;Node7</title>
<path fill="none" stroke="midnightblue" d="M842.87,-19.54C895.79,-29 975.45,-43.24 1021.53,-51.48"/>
<polygon fill="midnightblue" stroke="midnightblue" points="1021.19,-54.98 1031.65,-53.29 1022.43,-48.08 1021.19,-54.98"/>
</g>
<!-- Node9 -->
<g id="node9" class="node">
<title>Node9</title>
<g id="a_node9"><a xlink:href="pb__decode_8c.html#abef49f760a21798e59538eec4aea23c2" target="_top" xlink:title=" ">
<polygon fill="white" stroke="black" points="884,-171.5 884,-190.5 988,-190.5 988,-171.5 884,-171.5"/>
<text text-anchor="middle" x="936" y="-178.5" font-family="Helvetica,sans-Serif" font-size="10.00">pb_decode_varint32</text>
</a>
</g>
</g>
<!-- Node8&#45;&gt;Node9 -->
<g id="edge8" class="edge">
<title>Node8&#45;&gt;Node9</title>
<path fill="none" stroke="midnightblue" d="M693.04,-188.04C746.9,-186.47 821.69,-184.3 873.81,-182.78"/>
<polygon fill="midnightblue" stroke="midnightblue" points="874.02,-186.27 883.91,-182.49 873.82,-179.28 874.02,-186.27"/>
</g>
<!-- Node10 -->
<g id="node10" class="node">
<title>Node10</title>
<g id="a_node10"><a xlink:href="pb__decode_8c.html#a13d38bcceb0a06bfc8c4c9c6da0f7258" target="_top" xlink:title=" ">
<polygon fill="white" stroke="black" points="1024,-171.5 1024,-190.5 1094,-190.5 1094,-171.5 1024,-171.5"/>
<text text-anchor="middle" x="1059" y="-178.5" font-family="Helvetica,sans-Serif" font-size="10.00">pb_readbyte</text>
</a>
</g>
</g>
<!-- Node9&#45;&gt;Node10 -->
<g id="edge9" class="edge">
<title>Node9&#45;&gt;Node10</title>
<path fill="none" stroke="midnightblue" d="M988.31,-181C996.74,-181 1005.41,-181 1013.64,-181"/>
<polygon fill="midnightblue" stroke="midnightblue" points="1013.79,-184.5 1023.79,-181 1013.79,-177.5 1013.79,-184.5"/>
</g>
<!-- Node12 -->
<g id="node12" class="node">
<title>Node12</title>
<g id="a_node12"><a xlink:href="pb__decode_8c.html#ad54a52168427208d756087919ff82d41" target="_top" xlink:title=" ">
<polygon fill="white" stroke="black" points="910.5,-76.5 910.5,-95.5 961.5,-95.5 961.5,-76.5 910.5,-76.5"/>
<text text-anchor="middle" x="936" y="-83.5" font-family="Helvetica,sans-Serif" font-size="10.00">pb_read</text>
</a>
</g>
</g>
<!-- Node11&#45;&gt;Node12 -->
<g id="edge11" class="edge">
<title>Node11&#45;&gt;Node12</title>
<path fill="none" stroke="midnightblue" d="M661.5,-114.47C705.63,-114.6 782.62,-113.4 848,-105 865.48,-102.75 884.65,-98.74 900.54,-94.98"/>
<polygon fill="midnightblue" stroke="midnightblue" points="901.56,-98.33 910.45,-92.56 899.91,-91.53 901.56,-98.33"/>
</g>
<!-- Node13 -->
<g id="node13" class="node">
<title>Node13</title>
<g id="a_node13"><a xlink:href="pb__decode_8c.html#afa3e9c4da6d998fd6315d4cbd51b02e4" target="_top" xlink:title=" ">
<polygon fill="white" stroke="black" points="748.5,-152.5 748.5,-171.5 828.5,-171.5 828.5,-152.5 748.5,-152.5"/>
<text text-anchor="middle" x="788.5" y="-159.5" font-family="Helvetica,sans-Serif" font-size="10.00">pb_skip_string</text>
</a>
</g>
</g>
<!-- Node11&#45;&gt;Node13 -->
<g id="edge13" class="edge">
<title>Node11&#45;&gt;Node13</title>
<path fill="none" stroke="midnightblue" d="M659.88,-123.51C670.52,-126.5 682.25,-129.84 693,-133 710.72,-138.21 730.25,-144.17 746.94,-149.32"/>
<polygon fill="midnightblue" stroke="midnightblue" points="746.32,-152.8 756.91,-152.42 748.4,-146.11 746.32,-152.8"/>
</g>
<!-- Node14 -->
<g id="node14" class="node">
<title>Node14</title>
<g id="a_node14"><a xlink:href="pb__decode_8c.html#a57738ceef4b30349437900b245a33c77" target="_top" xlink:title=" ">
<polygon fill="white" stroke="black" points="748.5,-76.5 748.5,-95.5 828.5,-95.5 828.5,-76.5 748.5,-76.5"/>
<text text-anchor="middle" x="788.5" y="-83.5" font-family="Helvetica,sans-Serif" font-size="10.00">pb_skip_varint</text>
</a>
</g>
</g>
<!-- Node11&#45;&gt;Node14 -->
<g id="edge16" class="edge">
<title>Node11&#45;&gt;Node14</title>
<path fill="none" stroke="midnightblue" d="M661.86,-107.72C684.49,-103.8 713.88,-98.73 738.54,-94.46"/>
<polygon fill="midnightblue" stroke="midnightblue" points="739.18,-97.9 748.44,-92.75 737.99,-91.01 739.18,-97.9"/>
</g>
<!-- Node12&#45;&gt;Node7 -->
<g id="edge12" class="edge">
<title>Node12&#45;&gt;Node7</title>
<path fill="none" stroke="midnightblue" d="M961.78,-80.27C979.01,-76.28 1002.26,-70.9 1021.59,-66.42"/>
<polygon fill="midnightblue" stroke="midnightblue" points="1022.62,-69.78 1031.58,-64.11 1021.05,-62.96 1022.62,-69.78"/>
</g>
<!-- Node13&#45;&gt;Node9 -->
<g id="edge14" class="edge">
<title>Node13&#45;&gt;Node9</title>
<path fill="none" stroke="midnightblue" d="M828.87,-167.14C842.62,-168.94 858.39,-171 873.5,-172.97"/>
<polygon fill="midnightblue" stroke="midnightblue" points="873.46,-176.49 883.82,-174.32 874.36,-169.55 873.46,-176.49"/>
</g>
<!-- Node13&#45;&gt;Node12 -->
<g id="edge15" class="edge">
<title>Node13&#45;&gt;Node12</title>
<path fill="none" stroke="midnightblue" d="M815.21,-152.42C825.55,-148.31 837.5,-143.26 848,-138 870.31,-126.84 894.58,-112.09 911.81,-101.16"/>
<polygon fill="midnightblue" stroke="midnightblue" points="914.07,-103.86 920.6,-95.52 910.29,-97.97 914.07,-103.86"/>
</g>
<!-- Node14&#45;&gt;Node12 -->
<g id="edge17" class="edge">
<title>Node14&#45;&gt;Node12</title>
<path fill="none" stroke="midnightblue" d="M828.87,-86C851.05,-86 878.51,-86 899.94,-86"/>
<polygon fill="midnightblue" stroke="midnightblue" points="900.23,-89.5 910.23,-86 900.23,-82.5 900.23,-89.5"/>
</g>
<!-- Node15&#45;&gt;Node12 -->
<g id="edge19" class="edge">
<title>Node15&#45;&gt;Node12</title>
<path fill="none" stroke="midnightblue" d="M826.22,-57.59C848.99,-63.54 878.08,-71.13 900.44,-76.97"/>
<polygon fill="midnightblue" stroke="midnightblue" points="899.63,-80.38 910.19,-79.52 901.4,-73.61 899.63,-80.38"/>
</g>
<!-- Node16&#45;&gt;Node5 -->
<g id="edge21" class="edge">
<title>Node16&#45;&gt;Node5</title>
<path fill="none" stroke="midnightblue" d="M504.62,-180.41C525.6,-175.4 551.48,-169.21 573.73,-163.89"/>
<polygon fill="midnightblue" stroke="midnightblue" points="574.75,-167.25 583.67,-161.52 573.13,-160.44 574.75,-167.25"/>
</g>
<!-- Node16&#45;&gt;Node8 -->
<g id="edge22" class="edge">
<title>Node16&#45;&gt;Node8</title>
<path fill="none" stroke="midnightblue" d="M516.56,-190C525.91,-190 535.83,-190 545.71,-190"/>
<polygon fill="midnightblue" stroke="midnightblue" points="545.97,-193.5 555.97,-190 545.97,-186.5 545.97,-193.5"/>
</g>
<!-- Node17&#45;&gt;Node5 -->
<g id="edge24" class="edge">
<title>Node17&#45;&gt;Node5</title>
<path fill="none" stroke="midnightblue" d="M514.37,-152C524.45,-152 535.27,-152 546.03,-152"/>
<polygon fill="midnightblue" stroke="midnightblue" points="546.32,-155.5 556.32,-152 546.32,-148.5 546.32,-155.5"/>
</g>
<!-- Node17&#45;&gt;Node8 -->
<g id="edge25" class="edge">
<title>Node17&#45;&gt;Node8</title>
<path fill="none" stroke="midnightblue" d="M504.62,-161.59C525.6,-166.6 551.48,-172.79 573.73,-178.11"/>
<polygon fill="midnightblue" stroke="midnightblue" points="573.13,-181.56 583.67,-180.48 574.75,-174.75 573.13,-181.56"/>
</g>
</g>
</svg>
