<?xml version="1.0" encoding="UTF-8" standalone="no"?>
<!DOCTYPE svg PUBLIC "-//W3C//DTD SVG 1.1//EN"
 "http://www.w3.org/Graphics/SVG/1.1/DTD/svg11.dtd">
<!-- Generated by graphviz version 2.43.0 (0)
 -->
<!-- Title: pb_message_set_to_defaults Pages: 1 -->
<svg width="702pt" height="116pt"
 viewBox="0.00 0.00 702.00 115.50" xmlns="http://www.w3.org/2000/svg" xmlns:xlink="http://www.w3.org/1999/xlink">
<g id="graph0" class="graph" transform="scale(1 1) rotate(0) translate(4 111.5)">
<title>pb_message_set_to_defaults</title>
<polygon fill="white" stroke="transparent" points="-4,4 -4,-111.5 698,-111.5 698,4 -4,4"/>
<!-- Node1 -->
<g id="node1" class="node">
<title>Node1</title>
<g id="a_node1"><a xlink:title=" ">
<polygon fill="#bfbfbf" stroke="black" points="550,-38.5 550,-57.5 694,-57.5 694,-38.5 550,-38.5"/>
<text text-anchor="middle" x="622" y="-45.5" font-family="Helvetica,sans-Serif" font-size="10.00">pb_message_set_to_defaults</text>
</a>
</g>
</g>
<!-- Node2 -->
<g id="node2" class="node">
<title>Node2</title>
<g id="a_node2"><a xlink:href="pb__decode_8c.html#a75c9a727abe84bfaaef633ac68d48cfa" target="_top" xlink:title=" ">
<polygon fill="white" stroke="black" points="450,-38.5 450,-57.5 514,-57.5 514,-38.5 450,-38.5"/>
<text text-anchor="middle" x="482" y="-45.5" font-family="Helvetica,sans-Serif" font-size="10.00">pb_decode</text>
</a>
</g>
</g>
<!-- Node1&#45;&gt;Node2 -->
<g id="edge1" class="edge">
<title>Node1&#45;&gt;Node2</title>
<path fill="none" stroke="midnightblue" d="M539.74,-48C530.75,-48 522.04,-48 514.26,-48"/>
<polygon fill="midnightblue" stroke="midnightblue" points="539.98,-51.5 549.98,-48 539.98,-44.5 539.98,-51.5"/>
</g>
<!-- Node3 -->
<g id="node3" class="node">
<title>Node3</title>
<g id="a_node3"><a xlink:href="class_k_u_k_a_1_1_f_r_i_1_1_monitoring_message_decoder.html#aa72fb1e622847a636e6f5d7ac4770103" target="_top" xlink:title=" ">
<polygon fill="white" stroke="black" points="256,-77 256,-107 414,-107 414,-77 256,-77"/>
<text text-anchor="start" x="264" y="-95" font-family="Helvetica,sans-Serif" font-size="10.00">KUKA::FRI::MonitoringMessage</text>
<text text-anchor="middle" x="335" y="-84" font-family="Helvetica,sans-Serif" font-size="10.00">Decoder::decode</text>
</a>
</g>
</g>
<!-- Node2&#45;&gt;Node3 -->
<g id="edge2" class="edge">
<title>Node2&#45;&gt;Node3</title>
<path fill="none" stroke="midnightblue" d="M440.27,-60.36C423.29,-65.51 403.41,-71.54 385.59,-76.95"/>
<polygon fill="midnightblue" stroke="midnightblue" points="441.34,-63.69 449.89,-57.44 439.31,-56.99 441.34,-63.69"/>
</g>
<!-- Node6 -->
<g id="node6" class="node">
<title>Node6</title>
<g id="a_node6"><a xlink:href="pb__decode_8c.html#adb01106a062444577e9e3f3a047db2ef" target="_top" xlink:title=" ">
<polygon fill="white" stroke="black" points="280.5,-38.5 280.5,-57.5 389.5,-57.5 389.5,-38.5 280.5,-38.5"/>
<text text-anchor="middle" x="335" y="-45.5" font-family="Helvetica,sans-Serif" font-size="10.00">pb_dec_submessage</text>
</a>
</g>
</g>
<!-- Node2&#45;&gt;Node6 -->
<g id="edge5" class="edge">
<title>Node2&#45;&gt;Node6</title>
<path fill="none" stroke="midnightblue" d="M439.55,-48C424,-48 406.1,-48 389.6,-48"/>
<polygon fill="midnightblue" stroke="midnightblue" points="439.89,-51.5 449.89,-48 439.89,-44.5 439.89,-51.5"/>
</g>
<!-- Node7 -->
<g id="node7" class="node">
<title>Node7</title>
<g id="a_node7"><a xlink:href="pb__decode_8c.html#a7c030d7dee687e354a62a72d45dca39b" target="_top" xlink:title=" ">
<polygon fill="white" stroke="black" points="281,-0.5 281,-19.5 389,-19.5 389,-0.5 281,-0.5"/>
<text text-anchor="middle" x="335" y="-7.5" font-family="Helvetica,sans-Serif" font-size="10.00">pb_decode_delimited</text>
</a>
</g>
</g>
<!-- Node2&#45;&gt;Node7 -->
<g id="edge6" class="edge">
<title>Node2&#45;&gt;Node7</title>
<path fill="none" stroke="midnightblue" d="M439.92,-36.09C431.37,-33.68 422.4,-31.21 414,-29 401.87,-25.8 388.63,-22.51 376.56,-19.57"/>
<polygon fill="midnightblue" stroke="midnightblue" points="439.13,-39.5 449.71,-38.86 441.04,-32.77 439.13,-39.5"/>
</g>
<!-- Node4 -->
<g id="node4" class="node">
<title>Node4</title>
<g id="a_node4"><a xlink:href="class_k_u_k_a_1_1_f_r_i_1_1_client_application.html#a9939bfd1fa78c59dc3675a6d2a5de7a7" target="_top" xlink:title="Run a single processing step.">
<polygon fill="white" stroke="black" points="74,-77 74,-107 220,-107 220,-77 74,-77"/>
<text text-anchor="start" x="82" y="-95" font-family="Helvetica,sans-Serif" font-size="10.00">KUKA::FRI::ClientApplication</text>
<text text-anchor="middle" x="147" y="-84" font-family="Helvetica,sans-Serif" font-size="10.00">::step</text>
</a>
</g>
</g>
<!-- Node3&#45;&gt;Node4 -->
<g id="edge3" class="edge">
<title>Node3&#45;&gt;Node4</title>
<path fill="none" stroke="midnightblue" d="M245.88,-92C237.29,-92 228.65,-92 220.24,-92"/>
<polygon fill="midnightblue" stroke="midnightblue" points="245.93,-95.5 255.93,-92 245.93,-88.5 245.93,-95.5"/>
</g>
<!-- Node5 -->
<g id="node5" class="node">
<title>Node5</title>
<g id="a_node5"><a xlink:href="_i_o_access_app_8cpp.html#a3c04138a5bfe5d72780bb7e82a18e627" target="_top" xlink:title=" ">
<polygon fill="white" stroke="black" points="0,-82.5 0,-101.5 38,-101.5 38,-82.5 0,-82.5"/>
<text text-anchor="middle" x="19" y="-89.5" font-family="Helvetica,sans-Serif" font-size="10.00">main</text>
</a>
</g>
</g>
<!-- Node4&#45;&gt;Node5 -->
<g id="edge4" class="edge">
<title>Node4&#45;&gt;Node5</title>
<path fill="none" stroke="midnightblue" d="M63.74,-92C54.28,-92 45.45,-92 38.25,-92"/>
<polygon fill="midnightblue" stroke="midnightblue" points="63.8,-95.5 73.8,-92 63.8,-88.5 63.8,-95.5"/>
</g>
</g>
</svg>
