<?xml version="1.0" encoding="UTF-8" standalone="no"?>
<!DOCTYPE svg PUBLIC "-//W3C//DTD SVG 1.1//EN"
 "http://www.w3.org/Graphics/SVG/1.1/DTD/svg11.dtd">
<!-- Generated by graphviz version 2.43.0 (0)
 -->
<!-- Title: pb_field_next Pages: 1 -->
<svg width="951pt" height="162pt"
 viewBox="0.00 0.00 951.00 162.00" xmlns="http://www.w3.org/2000/svg" xmlns:xlink="http://www.w3.org/1999/xlink">
<g id="graph0" class="graph" transform="scale(1 1) rotate(0) translate(4 158)">
<title>pb_field_next</title>
<polygon fill="white" stroke="transparent" points="-4,4 -4,-158 947,-158 947,4 -4,4"/>
<!-- Node1 -->
<g id="node1" class="node">
<title>Node1</title>
<g id="a_node1"><a xlink:title=" ">
<polygon fill="#bfbfbf" stroke="black" points="869,-77.5 869,-96.5 943,-96.5 943,-77.5 869,-77.5"/>
<text text-anchor="middle" x="906" y="-84.5" font-family="Helvetica,sans-Serif" font-size="10.00">pb_field_next</text>
</a>
</g>
</g>
<!-- Node2 -->
<g id="node2" class="node">
<title>Node2</title>
<g id="a_node2"><a xlink:href="pb__decode_8c.html#a45b7deb9b949803e7342070ca209d4be" target="_top" xlink:title=" ">
<polygon fill="white" stroke="black" points="730,-134.5 730,-153.5 833,-153.5 833,-134.5 730,-134.5"/>
<text text-anchor="middle" x="781.5" y="-141.5" font-family="Helvetica,sans-Serif" font-size="10.00">find_extension_field</text>
</a>
</g>
</g>
<!-- Node1&#45;&gt;Node2 -->
<g id="edge1" class="edge">
<title>Node1&#45;&gt;Node2</title>
<path fill="none" stroke="midnightblue" d="M875.13,-100.9C852.78,-111.3 822.79,-125.25 803.07,-134.43"/>
<polygon fill="midnightblue" stroke="midnightblue" points="876.91,-103.93 884.5,-96.54 873.95,-97.59 876.91,-103.93"/>
</g>
<!-- Node3 -->
<g id="node3" class="node">
<title>Node3</title>
<g id="a_node3"><a xlink:href="pb__decode_8c.html#a0c0f95a964239344d503e724818e8fc0" target="_top" xlink:title=" ">
<polygon fill="white" stroke="black" points="576,-88.5 576,-107.5 668,-107.5 668,-88.5 576,-88.5"/>
<text text-anchor="middle" x="622" y="-95.5" font-family="Helvetica,sans-Serif" font-size="10.00">pb_decode_noinit</text>
</a>
</g>
</g>
<!-- Node1&#45;&gt;Node3 -->
<g id="edge10" class="edge">
<title>Node1&#45;&gt;Node3</title>
<path fill="none" stroke="midnightblue" d="M858.91,-88.8C806.18,-90.85 720.4,-94.2 668.09,-96.24"/>
<polygon fill="midnightblue" stroke="midnightblue" points="859.14,-92.29 869,-88.4 858.87,-85.3 859.14,-92.29"/>
</g>
<!-- Node10 -->
<g id="node10" class="node">
<title>Node10</title>
<g id="a_node10"><a xlink:href="pb__decode_8c.html#a7897e383f3ae811b1afc2ecd36277512" target="_top" xlink:title=" ">
<polygon fill="white" stroke="black" points="746,-58.5 746,-77.5 817,-77.5 817,-58.5 746,-58.5"/>
<text text-anchor="middle" x="781.5" y="-65.5" font-family="Helvetica,sans-Serif" font-size="10.00">pb_field_find</text>
</a>
</g>
</g>
<!-- Node1&#45;&gt;Node10 -->
<g id="edge11" class="edge">
<title>Node1&#45;&gt;Node10</title>
<path fill="none" stroke="midnightblue" d="M858.62,-79.81C844.83,-77.67 829.97,-75.36 817.07,-73.36"/>
<polygon fill="midnightblue" stroke="midnightblue" points="858.49,-83.33 868.91,-81.4 859.56,-76.41 858.49,-83.33"/>
</g>
<!-- Node11 -->
<g id="node11" class="node">
<title>Node11</title>
<g id="a_node11"><a xlink:href="pb__decode_8c.html#a086200ce4dac8198dc0537e64318d66e" target="_top" xlink:title=" ">
<polygon fill="white" stroke="black" points="550,-36.5 550,-55.5 694,-55.5 694,-36.5 550,-36.5"/>
<text text-anchor="middle" x="622" y="-43.5" font-family="Helvetica,sans-Serif" font-size="10.00">pb_message_set_to_defaults</text>
</a>
</g>
</g>
<!-- Node1&#45;&gt;Node11 -->
<g id="edge13" class="edge">
<title>Node1&#45;&gt;Node11</title>
<path fill="none" stroke="midnightblue" d="M882.78,-71.75C869.09,-63.27 850.8,-53.55 833,-49 787.78,-37.46 735.28,-36.71 694.08,-38.84"/>
<polygon fill="midnightblue" stroke="midnightblue" points="881.16,-74.87 891.46,-77.34 884.95,-68.98 881.16,-74.87"/>
</g>
<!-- Node2&#45;&gt;Node3 -->
<g id="edge2" class="edge">
<title>Node2&#45;&gt;Node3</title>
<path fill="none" stroke="midnightblue" d="M737.94,-131.57C712.03,-124 679.45,-114.49 655.59,-107.52"/>
<polygon fill="midnightblue" stroke="midnightblue" points="737.29,-135.02 747.87,-134.47 739.25,-128.31 737.29,-135.02"/>
</g>
<!-- Node4 -->
<g id="node4" class="node">
<title>Node4</title>
<g id="a_node4"><a xlink:href="pb__decode_8c.html#adb01106a062444577e9e3f3a047db2ef" target="_top" xlink:title=" ">
<polygon fill="white" stroke="black" points="280.5,-88.5 280.5,-107.5 389.5,-107.5 389.5,-88.5 280.5,-88.5"/>
<text text-anchor="middle" x="335" y="-95.5" font-family="Helvetica,sans-Serif" font-size="10.00">pb_dec_submessage</text>
</a>
</g>
</g>
<!-- Node3&#45;&gt;Node4 -->
<g id="edge3" class="edge">
<title>Node3&#45;&gt;Node4</title>
<path fill="none" stroke="midnightblue" d="M565.69,-98C514.87,-98 440,-98 389.69,-98"/>
<polygon fill="midnightblue" stroke="midnightblue" points="565.84,-101.5 575.84,-98 565.84,-94.5 565.84,-101.5"/>
</g>
<!-- Node5 -->
<g id="node5" class="node">
<title>Node5</title>
<g id="a_node5"><a xlink:href="pb__decode_8c.html#a75c9a727abe84bfaaef633ac68d48cfa" target="_top" xlink:title=" ">
<polygon fill="white" stroke="black" points="450,-44.5 450,-63.5 514,-63.5 514,-44.5 450,-44.5"/>
<text text-anchor="middle" x="482" y="-51.5" font-family="Helvetica,sans-Serif" font-size="10.00">pb_decode</text>
</a>
</g>
</g>
<!-- Node3&#45;&gt;Node5 -->
<g id="edge4" class="edge">
<title>Node3&#45;&gt;Node5</title>
<path fill="none" stroke="midnightblue" d="M581.41,-85.38C559.59,-78.42 532.95,-69.92 512.89,-63.53"/>
<polygon fill="midnightblue" stroke="midnightblue" points="580.47,-88.75 591.06,-88.45 582.59,-82.08 580.47,-88.75"/>
</g>
<!-- Node5&#45;&gt;Node4 -->
<g id="edge8" class="edge">
<title>Node5&#45;&gt;Node4</title>
<path fill="none" stroke="midnightblue" d="M446.49,-67.05C436.11,-70.79 424.65,-74.73 414,-78 401.84,-81.73 388.47,-85.33 376.28,-88.43"/>
<polygon fill="midnightblue" stroke="midnightblue" points="447.86,-70.28 456.05,-63.56 445.46,-63.71 447.86,-70.28"/>
</g>
<!-- Node6 -->
<g id="node6" class="node">
<title>Node6</title>
<g id="a_node6"><a xlink:href="class_k_u_k_a_1_1_f_r_i_1_1_monitoring_message_decoder.html#aa72fb1e622847a636e6f5d7ac4770103" target="_top" xlink:title=" ">
<polygon fill="white" stroke="black" points="256,-39 256,-69 414,-69 414,-39 256,-39"/>
<text text-anchor="start" x="264" y="-57" font-family="Helvetica,sans-Serif" font-size="10.00">KUKA::FRI::MonitoringMessage</text>
<text text-anchor="middle" x="335" y="-46" font-family="Helvetica,sans-Serif" font-size="10.00">Decoder::decode</text>
</a>
</g>
</g>
<!-- Node5&#45;&gt;Node6 -->
<g id="edge5" class="edge">
<title>Node5&#45;&gt;Node6</title>
<path fill="none" stroke="midnightblue" d="M439.7,-54C431.64,-54 422.94,-54 414.12,-54"/>
<polygon fill="midnightblue" stroke="midnightblue" points="439.89,-57.5 449.89,-54 439.89,-50.5 439.89,-57.5"/>
</g>
<!-- Node9 -->
<g id="node9" class="node">
<title>Node9</title>
<g id="a_node9"><a xlink:href="pb__decode_8c.html#a7c030d7dee687e354a62a72d45dca39b" target="_top" xlink:title=" ">
<polygon fill="white" stroke="black" points="281,-0.5 281,-19.5 389,-19.5 389,-0.5 281,-0.5"/>
<text text-anchor="middle" x="335" y="-7.5" font-family="Helvetica,sans-Serif" font-size="10.00">pb_decode_delimited</text>
</a>
</g>
</g>
<!-- Node5&#45;&gt;Node9 -->
<g id="edge9" class="edge">
<title>Node5&#45;&gt;Node9</title>
<path fill="none" stroke="midnightblue" d="M447.93,-40.78C437.2,-36.72 425.18,-32.43 414,-29 402.81,-25.56 390.56,-22.33 379.16,-19.55"/>
<polygon fill="midnightblue" stroke="midnightblue" points="446.77,-44.08 457.36,-44.4 449.28,-37.55 446.77,-44.08"/>
</g>
<!-- Node7 -->
<g id="node7" class="node">
<title>Node7</title>
<g id="a_node7"><a xlink:href="class_k_u_k_a_1_1_f_r_i_1_1_client_application.html#a9939bfd1fa78c59dc3675a6d2a5de7a7" target="_top" xlink:title="Run a single processing step.">
<polygon fill="white" stroke="black" points="74,-39 74,-69 220,-69 220,-39 74,-39"/>
<text text-anchor="start" x="82" y="-57" font-family="Helvetica,sans-Serif" font-size="10.00">KUKA::FRI::ClientApplication</text>
<text text-anchor="middle" x="147" y="-46" font-family="Helvetica,sans-Serif" font-size="10.00">::step</text>
</a>
</g>
</g>
<!-- Node6&#45;&gt;Node7 -->
<g id="edge6" class="edge">
<title>Node6&#45;&gt;Node7</title>
<path fill="none" stroke="midnightblue" d="M245.88,-54C237.29,-54 228.65,-54 220.24,-54"/>
<polygon fill="midnightblue" stroke="midnightblue" points="245.93,-57.5 255.93,-54 245.93,-50.5 245.93,-57.5"/>
</g>
<!-- Node8 -->
<g id="node8" class="node">
<title>Node8</title>
<g id="a_node8"><a xlink:href="_i_o_access_app_8cpp.html#a3c04138a5bfe5d72780bb7e82a18e627" target="_top" xlink:title=" ">
<polygon fill="white" stroke="black" points="0,-44.5 0,-63.5 38,-63.5 38,-44.5 0,-44.5"/>
<text text-anchor="middle" x="19" y="-51.5" font-family="Helvetica,sans-Serif" font-size="10.00">main</text>
</a>
</g>
</g>
<!-- Node7&#45;&gt;Node8 -->
<g id="edge7" class="edge">
<title>Node7&#45;&gt;Node8</title>
<path fill="none" stroke="midnightblue" d="M63.74,-54C54.28,-54 45.45,-54 38.25,-54"/>
<polygon fill="midnightblue" stroke="midnightblue" points="63.8,-57.5 73.8,-54 63.8,-50.5 63.8,-57.5"/>
</g>
<!-- Node10&#45;&gt;Node3 -->
<g id="edge12" class="edge">
<title>Node10&#45;&gt;Node3</title>
<path fill="none" stroke="midnightblue" d="M735.91,-76.49C714.75,-80.52 689.5,-85.33 668.26,-89.38"/>
<polygon fill="midnightblue" stroke="midnightblue" points="736.77,-79.89 745.94,-74.58 735.46,-73.02 736.77,-79.89"/>
</g>
<!-- Node11&#45;&gt;Node5 -->
<g id="edge14" class="edge">
<title>Node11&#45;&gt;Node5</title>
<path fill="none" stroke="midnightblue" d="M539.74,-50.71C530.75,-51.23 522.04,-51.74 514.26,-52.19"/>
<polygon fill="midnightblue" stroke="midnightblue" points="540.2,-54.19 549.98,-50.12 539.79,-47.2 540.2,-54.19"/>
</g>
</g>
</svg>
