<?xml version="1.0" encoding="UTF-8" standalone="no"?>
<!DOCTYPE svg PUBLIC "-//W3C//DTD SVG 1.1//EN"
 "http://www.w3.org/Graphics/SVG/1.1/DTD/svg11.dtd">
<!-- Generated by graphviz version 2.43.0 (0)
 -->
<!-- Title: pb_encode_tag Pages: 1 -->
<svg width="401pt" height="28pt"
 viewBox="0.00 0.00 401.00 28.00" xmlns="http://www.w3.org/2000/svg" xmlns:xlink="http://www.w3.org/1999/xlink">
<g id="graph0" class="graph" transform="scale(1 1) rotate(0) translate(4 24)">
<title>pb_encode_tag</title>
<polygon fill="white" stroke="transparent" points="-4,4 -4,-24 397,-24 397,4 -4,4"/>
<!-- Node1 -->
<g id="node1" class="node">
<title>Node1</title>
<g id="a_node1"><a xlink:title=" ">
<polygon fill="#bfbfbf" stroke="black" points="0,-0.5 0,-19.5 83,-19.5 83,-0.5 0,-0.5"/>
<text text-anchor="middle" x="41.5" y="-7.5" font-family="Helvetica,sans-Serif" font-size="10.00">pb_encode_tag</text>
</a>
</g>
</g>
<!-- Node2 -->
<g id="node2" class="node">
<title>Node2</title>
<g id="a_node2"><a xlink:href="pb__encode_8c.html#a568e2eb180774ef4e07de89508edb52b" target="_top" xlink:title=" ">
<polygon fill="white" stroke="black" points="119,-0.5 119,-19.5 212,-19.5 212,-0.5 119,-0.5"/>
<text text-anchor="middle" x="165.5" y="-7.5" font-family="Helvetica,sans-Serif" font-size="10.00">pb_encode_varint</text>
</a>
</g>
</g>
<!-- Node1&#45;&gt;Node2 -->
<g id="edge1" class="edge">
<title>Node1&#45;&gt;Node2</title>
<path fill="none" stroke="midnightblue" d="M83.12,-10C91.21,-10 99.83,-10 108.32,-10"/>
<polygon fill="midnightblue" stroke="midnightblue" points="108.58,-13.5 118.58,-10 108.58,-6.5 108.58,-13.5"/>
</g>
<!-- Node3 -->
<g id="node3" class="node">
<title>Node3</title>
<g id="a_node3"><a xlink:href="pb__encode_8c.html#a6f8d972fa4a439724532f0bcc07de81d" target="_top" xlink:title=" ">
<polygon fill="white" stroke="black" points="248,-0.5 248,-19.5 301,-19.5 301,-0.5 248,-0.5"/>
<text text-anchor="middle" x="274.5" y="-7.5" font-family="Helvetica,sans-Serif" font-size="10.00">pb_write</text>
</a>
</g>
</g>
<!-- Node2&#45;&gt;Node3 -->
<g id="edge2" class="edge">
<title>Node2&#45;&gt;Node3</title>
<path fill="none" stroke="midnightblue" d="M212.19,-10C220.64,-10 229.36,-10 237.47,-10"/>
<polygon fill="midnightblue" stroke="midnightblue" points="237.72,-13.5 247.72,-10 237.72,-6.5 237.72,-13.5"/>
</g>
<!-- Node4 -->
<g id="node4" class="node">
<title>Node4</title>
<g id="a_node4"><a xlink:href="pb__encode_8c.html#aa987a466c397e7769605789cc0b22054" target="_top" xlink:title=" ">
<polygon fill="white" stroke="black" points="337,-0.5 337,-19.5 393,-19.5 393,-0.5 337,-0.5"/>
<text text-anchor="middle" x="365" y="-7.5" font-family="Helvetica,sans-Serif" font-size="10.00">buf_write</text>
</a>
</g>
</g>
<!-- Node3&#45;&gt;Node4 -->
<g id="edge3" class="edge">
<title>Node3&#45;&gt;Node4</title>
<path fill="none" stroke="midnightblue" d="M301.1,-10C309.08,-10 318.06,-10 326.68,-10"/>
<polygon fill="midnightblue" stroke="midnightblue" points="326.92,-13.5 336.92,-10 326.92,-6.5 326.92,-13.5"/>
</g>
</g>
</svg>
