<?xml version="1.0" encoding="UTF-8" standalone="no"?>
<!DOCTYPE svg PUBLIC "-//W3C//DTD SVG 1.1//EN"
 "http://www.w3.org/Graphics/SVG/1.1/DTD/svg11.dtd">
<!-- Generated by graphviz version 2.43.0 (0)
 -->
<!-- Title: pb_encode_string Pages: 1 -->
<svg width="411pt" height="47pt"
 viewBox="0.00 0.00 411.00 47.00" xmlns="http://www.w3.org/2000/svg" xmlns:xlink="http://www.w3.org/1999/xlink">
<g id="graph0" class="graph" transform="scale(1 1) rotate(0) translate(4 43)">
<title>pb_encode_string</title>
<polygon fill="white" stroke="transparent" points="-4,4 -4,-43 407,-43 407,4 -4,4"/>
<!-- Node1 -->
<g id="node1" class="node">
<title>Node1</title>
<g id="a_node1"><a xlink:title=" ">
<polygon fill="#bfbfbf" stroke="black" points="0,-0.5 0,-19.5 93,-19.5 93,-0.5 0,-0.5"/>
<text text-anchor="middle" x="46.5" y="-7.5" font-family="Helvetica,sans-Serif" font-size="10.00">pb_encode_string</text>
</a>
</g>
</g>
<!-- Node2 -->
<g id="node2" class="node">
<title>Node2</title>
<g id="a_node2"><a xlink:href="pb__encode_8c.html#a568e2eb180774ef4e07de89508edb52b" target="_top" xlink:title=" ">
<polygon fill="white" stroke="black" points="129,-19.5 129,-38.5 222,-38.5 222,-19.5 129,-19.5"/>
<text text-anchor="middle" x="175.5" y="-26.5" font-family="Helvetica,sans-Serif" font-size="10.00">pb_encode_varint</text>
</a>
</g>
</g>
<!-- Node1&#45;&gt;Node2 -->
<g id="edge1" class="edge">
<title>Node1&#45;&gt;Node2</title>
<path fill="none" stroke="midnightblue" d="M93.35,-16.86C101.53,-18.08 110.14,-19.37 118.57,-20.63"/>
<polygon fill="midnightblue" stroke="midnightblue" points="118.31,-24.13 128.72,-22.15 119.35,-17.21 118.31,-24.13"/>
</g>
<!-- Node3 -->
<g id="node3" class="node">
<title>Node3</title>
<g id="a_node3"><a xlink:href="pb__encode_8c.html#a6f8d972fa4a439724532f0bcc07de81d" target="_top" xlink:title=" ">
<polygon fill="white" stroke="black" points="258,-0.5 258,-19.5 311,-19.5 311,-0.5 258,-0.5"/>
<text text-anchor="middle" x="284.5" y="-7.5" font-family="Helvetica,sans-Serif" font-size="10.00">pb_write</text>
</a>
</g>
</g>
<!-- Node1&#45;&gt;Node3 -->
<g id="edge4" class="edge">
<title>Node1&#45;&gt;Node3</title>
<path fill="none" stroke="midnightblue" d="M93,-10C138.1,-10 206.26,-10 247.66,-10"/>
<polygon fill="midnightblue" stroke="midnightblue" points="247.82,-13.5 257.82,-10 247.82,-6.5 247.82,-13.5"/>
</g>
<!-- Node2&#45;&gt;Node3 -->
<g id="edge2" class="edge">
<title>Node2&#45;&gt;Node3</title>
<path fill="none" stroke="midnightblue" d="M222.19,-20.89C230.73,-19.37 239.55,-17.8 247.75,-16.35"/>
<polygon fill="midnightblue" stroke="midnightblue" points="248.49,-19.77 257.72,-14.58 247.26,-12.88 248.49,-19.77"/>
</g>
<!-- Node4 -->
<g id="node4" class="node">
<title>Node4</title>
<g id="a_node4"><a xlink:href="pb__encode_8c.html#aa987a466c397e7769605789cc0b22054" target="_top" xlink:title=" ">
<polygon fill="white" stroke="black" points="347,-0.5 347,-19.5 403,-19.5 403,-0.5 347,-0.5"/>
<text text-anchor="middle" x="375" y="-7.5" font-family="Helvetica,sans-Serif" font-size="10.00">buf_write</text>
</a>
</g>
</g>
<!-- Node3&#45;&gt;Node4 -->
<g id="edge3" class="edge">
<title>Node3&#45;&gt;Node4</title>
<path fill="none" stroke="midnightblue" d="M311.1,-10C319.08,-10 328.06,-10 336.68,-10"/>
<polygon fill="midnightblue" stroke="midnightblue" points="336.92,-13.5 346.92,-10 336.92,-6.5 336.92,-13.5"/>
</g>
</g>
</svg>
