<?xml version="1.0" encoding="UTF-8" standalone="no"?>
<!DOCTYPE svg PUBLIC "-//W3C//DTD SVG 1.1//EN"
 "http://www.w3.org/Graphics/SVG/1.1/DTD/svg11.dtd">
<!-- Generated by graphviz version 2.43.0 (0)
 -->
<!-- Title: pb_write Pages: 1 -->
<!--zoomable 496 -->
<svg id="main" version="1.1" xmlns="http://www.w3.org/2000/svg" xmlns:xlink="http://www.w3.org/1999/xlink" xml:space="preserve" onload="init(evt)">
<style type="text/css"><![CDATA[
.edge:hover path { stroke: red; }
.edge:hover polygon { stroke: red; fill: red; }
]]></style>
<script type="text/javascript"><![CDATA[
var edges = document.getElementsByTagName('g');
if (edges && edges.length) {
  for (var i=0;i<edges.length;i++) {
    if (edges[i].id.substr(0,4)=='edge') {
      edges[i].setAttribute('class','edge');
    }
  }
}
]]></script>
        <defs>
                <circle id="rim" cx="0" cy="0" r="7"/>
                <circle id="rim2" cx="0" cy="0" r="3.5"/>
                <g id="zoomPlus">
                        <use xlink:href="#rim" fill="#404040">
                                <set attributeName="fill" to="#808080" begin="zoomplus.mouseover" end="zoomplus.mouseout"/>
                        </use>
                        <path d="M-4,0h8M0,-4v8" fill="none" stroke="white" stroke-width="1.5" pointer-events="none"/>
                </g>
                <g id="zoomMin">
                        <use xlink:href="#rim" fill="#404040">
                                <set attributeName="fill" to="#808080" begin="zoomminus.mouseover" end="zoomminus.mouseout"/>
                        </use>
                        <path d="M-4,0h8" fill="none" stroke="white" stroke-width="1.5" pointer-events="none"/>
                </g>
                <g id="dirArrow">
                        <path fill="none" stroke="white" stroke-width="1.5" d="M0,-3.0v7 M-2.5,-0.5L0,-3.0L2.5,-0.5"/>
                </g>
               <g id="resetDef">
                       <use xlink:href="#rim2" fill="#404040">
                               <set attributeName="fill" to="#808080" begin="reset.mouseover" end="reset.mouseout"/>
                       </use>
               </g>
        </defs>

<script type="text/javascript">
var viewWidth = 1909;
var viewHeight = 496;
var sectionId = 'dynsection-25';
</script>
<script xlink:href="svgpan.js"/>
<svg id="graph" class="graph">
<g id="viewport">
<title>pb_write</title>
<polygon fill="white" stroke="transparent" points="-4,4 -4,-492.13 1905,-492.13 1905,4 -4,4"/>
<!-- Node1 -->
<g id="node1" class="node">
<title>Node1</title>
<g id="a_node1"><a xlink:title=" ">
<polygon fill="#bfbfbf" stroke="black" points="1848,-339.59 1848,-358.59 1901,-358.59 1901,-339.59 1848,-339.59"/>
<text text-anchor="middle" x="1874.5" y="-346.59" font-family="Helvetica,sans-Serif" font-size="10.00">pb_write</text>
</a>
</g>
</g>
<!-- Node2 -->
<g id="node2" class="node">
<title>Node2</title>
<g id="a_node2"><a xlink:href="pb__encode_8c.html#afb8fc9e49589eaae694eff25c858a19c" target="_top" xlink:title=" ">
<polygon fill="white" stroke="black" points="1284.5,-69.59 1284.5,-88.59 1359.5,-88.59 1359.5,-69.59 1284.5,-69.59"/>
<text text-anchor="middle" x="1322" y="-76.59" font-family="Helvetica,sans-Serif" font-size="10.00">encode_array</text>
</a>
</g>
</g>
<!-- Node1&#45;&gt;Node2 -->
<g id="edge1" class="edge">
<title>Node1&#45;&gt;Node2</title>
<path fill="none" stroke="midnightblue" d="M1869.32,-329.58C1855.12,-269.04 1802.32,-85.09 1675,-29.09 1570.85,16.71 1529.29,0.86 1419,-27.09 1386.66,-35.29 1353.41,-56.79 1335.79,-69.43"/>
<polygon fill="midnightblue" stroke="midnightblue" points="1865.92,-330.4 1871.53,-339.39 1872.75,-328.86 1865.92,-330.4"/>
</g>
<!-- Node11 -->
<g id="node11" class="node">
<title>Node11</title>
<g id="a_node11"><a xlink:href="pb__encode_8c.html#a5c19520cad847fead01fae854b8a6f86" target="_top" xlink:title=" ">
<polygon fill="white" stroke="black" points="272.5,-259.59 272.5,-278.59 397.5,-278.59 397.5,-259.59 272.5,-259.59"/>
<text text-anchor="middle" x="335" y="-266.59" font-family="Helvetica,sans-Serif" font-size="10.00">pb_encode_submessage</text>
</a>
</g>
</g>
<!-- Node1&#45;&gt;Node11 -->
<g id="edge28" class="edge">
<title>Node1&#45;&gt;Node11</title>
<path fill="none" stroke="midnightblue" d="M1867.09,-368.26C1858.38,-391.23 1840.53,-429.11 1812,-449.09 1743.25,-497.25 1710.94,-487.09 1627,-487.09 1627,-487.09 1627,-487.09 608.5,-487.09 473.09,-487.09 366.42,-320.93 341.51,-278.74"/>
<polygon fill="midnightblue" stroke="midnightblue" points="1870.48,-369.2 1870.55,-358.6 1863.89,-366.84 1870.48,-369.2"/>
</g>
<!-- Node15 -->
<g id="node15" class="node">
<title>Node15</title>
<g id="a_node15"><a xlink:href="pb__encode_8c.html#a10f037686377976d07531ce87f1cd913" target="_top" xlink:title=" ">
<polygon fill="white" stroke="black" points="1711,-420.59 1711,-439.59 1812,-439.59 1812,-420.59 1711,-420.59"/>
<text text-anchor="middle" x="1761.5" y="-427.59" font-family="Helvetica,sans-Serif" font-size="10.00">pb_encode_fixed32</text>
</a>
</g>
</g>
<!-- Node1&#45;&gt;Node15 -->
<g id="edge15" class="edge">
<title>Node1&#45;&gt;Node15</title>
<path fill="none" stroke="midnightblue" d="M1852.04,-364.75C1829.42,-381.26 1794.5,-406.74 1775.65,-420.5"/>
<polygon fill="midnightblue" stroke="midnightblue" points="1854.32,-367.42 1860.33,-358.7 1850.19,-361.77 1854.32,-367.42"/>
</g>
<!-- Node17 -->
<g id="node17" class="node">
<title>Node17</title>
<g id="a_node17"><a xlink:href="pb__encode_8c.html#ae61c01d23aaa60452a9f5d01e9a17833" target="_top" xlink:title=" ">
<polygon fill="white" stroke="black" points="1711,-363.59 1711,-382.59 1812,-382.59 1812,-363.59 1711,-363.59"/>
<text text-anchor="middle" x="1761.5" y="-370.59" font-family="Helvetica,sans-Serif" font-size="10.00">pb_encode_fixed64</text>
</a>
</g>
</g>
<!-- Node1&#45;&gt;Node17 -->
<g id="edge17" class="edge">
<title>Node1&#45;&gt;Node17</title>
<path fill="none" stroke="midnightblue" d="M1837.87,-356.8C1827.98,-358.93 1817.13,-361.28 1806.81,-363.51"/>
<polygon fill="midnightblue" stroke="midnightblue" points="1838.72,-360.19 1847.76,-354.66 1837.24,-353.35 1838.72,-360.19"/>
</g>
<!-- Node25 -->
<g id="node25" class="node">
<title>Node25</title>
<g id="a_node25"><a xlink:href="pb__encode_8c.html#a280ca371ad740196d282a50672a91da1" target="_top" xlink:title=" ">
<polygon fill="white" stroke="black" points="1579.5,-316.59 1579.5,-335.59 1672.5,-335.59 1672.5,-316.59 1579.5,-316.59"/>
<text text-anchor="middle" x="1626" y="-323.59" font-family="Helvetica,sans-Serif" font-size="10.00">pb_encode_string</text>
</a>
</g>
</g>
<!-- Node1&#45;&gt;Node25 -->
<g id="edge25" class="edge">
<title>Node1&#45;&gt;Node25</title>
<path fill="none" stroke="midnightblue" d="M1837.42,-345.73C1793.74,-341.65 1720.11,-334.78 1672.55,-330.34"/>
<polygon fill="midnightblue" stroke="midnightblue" points="1837.3,-349.23 1847.59,-346.67 1837.95,-342.26 1837.3,-349.23"/>
</g>
<!-- Node28 -->
<g id="node28" class="node">
<title>Node28</title>
<g id="a_node28"><a xlink:href="pb__encode_8c.html#a568e2eb180774ef4e07de89508edb52b" target="_top" xlink:title=" ">
<polygon fill="white" stroke="black" points="1715,-183.59 1715,-202.59 1808,-202.59 1808,-183.59 1715,-183.59"/>
<text text-anchor="middle" x="1761.5" y="-190.59" font-family="Helvetica,sans-Serif" font-size="10.00">pb_encode_varint</text>
</a>
</g>
</g>
<!-- Node1&#45;&gt;Node28 -->
<g id="edge29" class="edge">
<title>Node1&#45;&gt;Node28</title>
<path fill="none" stroke="midnightblue" d="M1860.64,-331.02C1837.06,-297.88 1787.66,-228.45 1769.44,-202.85"/>
<polygon fill="midnightblue" stroke="midnightblue" points="1857.91,-333.22 1866.56,-339.33 1863.61,-329.16 1857.91,-333.22"/>
</g>
<!-- Node3 -->
<g id="node3" class="node">
<title>Node3</title>
<g id="a_node3"><a xlink:href="pb__encode_8c.html#a1f186424780069ab183fb7d2360d274e" target="_top" xlink:title=" ">
<polygon fill="white" stroke="black" points="1120.5,-95.59 1120.5,-114.59 1220.5,-114.59 1220.5,-95.59 1120.5,-95.59"/>
<text text-anchor="middle" x="1170.5" y="-102.59" font-family="Helvetica,sans-Serif" font-size="10.00">encode_basic_field</text>
</a>
</g>
</g>
<!-- Node2&#45;&gt;Node3 -->
<g id="edge2" class="edge">
<title>Node2&#45;&gt;Node3</title>
<path fill="none" stroke="midnightblue" d="M1274.16,-87.24C1257.15,-90.2 1237.89,-93.55 1220.68,-96.54"/>
<polygon fill="midnightblue" stroke="midnightblue" points="1275.18,-90.61 1284.43,-85.45 1273.98,-83.72 1275.18,-90.61"/>
</g>
<!-- Node4 -->
<g id="node4" class="node">
<title>Node4</title>
<g id="a_node4"><a xlink:href="pb__encode_8c.html#a8aa23313175c09e050e2acbc54a17bd4" target="_top" xlink:title=" ">
<polygon fill="white" stroke="black" points="965.5,-95.59 965.5,-114.59 1036.5,-114.59 1036.5,-95.59 965.5,-95.59"/>
<text text-anchor="middle" x="1001" y="-102.59" font-family="Helvetica,sans-Serif" font-size="10.00">encode_field</text>
</a>
</g>
</g>
<!-- Node3&#45;&gt;Node4 -->
<g id="edge3" class="edge">
<title>Node3&#45;&gt;Node4</title>
<path fill="none" stroke="midnightblue" d="M1109.85,-105.09C1085.32,-105.09 1057.78,-105.09 1036.67,-105.09"/>
<polygon fill="midnightblue" stroke="midnightblue" points="1110.15,-108.59 1120.15,-105.09 1110.15,-101.59 1110.15,-108.59"/>
</g>
<!-- Node5 -->
<g id="node5" class="node">
<title>Node5</title>
<g id="a_node5"><a xlink:href="pb__encode_8c.html#a3a12936f07ae378d68408c7bee72e3c0" target="_top" xlink:title=" ">
<polygon fill="white" stroke="black" points="729,-122.59 729,-141.59 862,-141.59 862,-122.59 729,-122.59"/>
<text text-anchor="middle" x="795.5" y="-129.59" font-family="Helvetica,sans-Serif" font-size="10.00">default_extension_encoder</text>
</a>
</g>
</g>
<!-- Node4&#45;&gt;Node5 -->
<g id="edge4" class="edge">
<title>Node4&#45;&gt;Node5</title>
<path fill="none" stroke="midnightblue" d="M955.43,-111.01C928.09,-114.63 892.61,-119.34 862.1,-123.39"/>
<polygon fill="midnightblue" stroke="midnightblue" points="956.03,-114.46 965.48,-109.67 955.11,-107.52 956.03,-114.46"/>
</g>
<!-- Node7 -->
<g id="node7" class="node">
<title>Node7</title>
<g id="a_node7"><a xlink:href="pb__encode_8c.html#af44dde5296bd546d99be35f15658af3e" target="_top" xlink:title=" ">
<polygon fill="white" stroke="black" points="450,-122.59 450,-141.59 514,-141.59 514,-122.59 450,-122.59"/>
<text text-anchor="middle" x="482" y="-129.59" font-family="Helvetica,sans-Serif" font-size="10.00">pb_encode</text>
</a>
</g>
</g>
<!-- Node4&#45;&gt;Node7 -->
<g id="edge14" class="edge">
<title>Node4&#45;&gt;Node7</title>
<path fill="none" stroke="midnightblue" d="M954.94,-102.07C873.55,-97.47 696.84,-91.34 550,-113.09 536.84,-115.04 522.62,-118.82 510.68,-122.5"/>
<polygon fill="midnightblue" stroke="midnightblue" points="955.12,-105.59 965.31,-102.68 955.53,-98.6 955.12,-105.59"/>
</g>
<!-- Node6 -->
<g id="node6" class="node">
<title>Node6</title>
<g id="a_node6"><a xlink:href="pb__encode_8c.html#a0c789b04243dc72075c00744134546c3" target="_top" xlink:title=" ">
<polygon fill="white" stroke="black" points="550,-122.59 550,-141.59 669,-141.59 669,-122.59 550,-122.59"/>
<text text-anchor="middle" x="609.5" y="-129.59" font-family="Helvetica,sans-Serif" font-size="10.00">encode_extension_field</text>
</a>
</g>
</g>
<!-- Node5&#45;&gt;Node6 -->
<g id="edge5" class="edge">
<title>Node5&#45;&gt;Node6</title>
<path fill="none" stroke="midnightblue" d="M718.66,-132.09C702.11,-132.09 684.84,-132.09 669.09,-132.09"/>
<polygon fill="midnightblue" stroke="midnightblue" points="718.85,-135.59 728.85,-132.09 718.85,-128.59 718.85,-135.59"/>
</g>
<!-- Node6&#45;&gt;Node7 -->
<g id="edge6" class="edge">
<title>Node6&#45;&gt;Node7</title>
<path fill="none" stroke="midnightblue" d="M539.74,-132.09C530.86,-132.09 522.14,-132.09 514.3,-132.09"/>
<polygon fill="midnightblue" stroke="midnightblue" points="539.79,-135.59 549.79,-132.09 539.79,-128.59 539.79,-135.59"/>
</g>
<!-- Node8 -->
<g id="node8" class="node">
<title>Node8</title>
<g id="a_node8"><a xlink:href="class_k_u_k_a_1_1_f_r_i_1_1_command_message_encoder.html#a53c2553cb91250334d979f2aaa4006a4" target="_top" xlink:title=" ">
<polygon fill="white" stroke="black" points="256,-139.09 256,-169.09 414,-169.09 414,-139.09 256,-139.09"/>
<text text-anchor="start" x="264" y="-157.09" font-family="Helvetica,sans-Serif" font-size="10.00">KUKA::FRI::CommandMessage</text>
<text text-anchor="middle" x="335" y="-146.09" font-family="Helvetica,sans-Serif" font-size="10.00">Encoder::encode</text>
</a>
</g>
</g>
<!-- Node7&#45;&gt;Node8 -->
<g id="edge7" class="edge">
<title>Node7&#45;&gt;Node8</title>
<path fill="none" stroke="midnightblue" d="M439.97,-138.32C431.83,-139.55 423.04,-140.89 414.12,-142.24"/>
<polygon fill="midnightblue" stroke="midnightblue" points="440.53,-141.77 449.89,-136.81 439.48,-134.85 440.53,-141.77"/>
</g>
<!-- Node7&#45;&gt;Node11 -->
<g id="edge10" class="edge">
<title>Node7&#45;&gt;Node11</title>
<path fill="none" stroke="midnightblue" d="M463.15,-148.96C432.49,-177.92 370.8,-236.22 346.33,-259.33"/>
<polygon fill="midnightblue" stroke="midnightblue" points="465.71,-151.36 470.57,-141.95 460.9,-146.27 465.71,-151.36"/>
</g>
<!-- Node14 -->
<g id="node14" class="node">
<title>Node14</title>
<g id="a_node14"><a xlink:href="pb__encode_8c.html#a7d0d58fcd08d5020b12133c31bbe57f1" target="_top" xlink:title=" ">
<polygon fill="white" stroke="black" points="279.5,-100.59 279.5,-119.59 390.5,-119.59 390.5,-100.59 279.5,-100.59"/>
<text text-anchor="middle" x="335" y="-107.59" font-family="Helvetica,sans-Serif" font-size="10.00">pb_get_encoded_size</text>
</a>
</g>
</g>
<!-- Node7&#45;&gt;Node14 -->
<g id="edge13" class="edge">
<title>Node7&#45;&gt;Node14</title>
<path fill="none" stroke="midnightblue" d="M439.75,-125.83C424.52,-123.52 407.01,-120.87 390.76,-118.4"/>
<polygon fill="midnightblue" stroke="midnightblue" points="439.48,-129.33 449.89,-127.37 440.53,-122.41 439.48,-129.33"/>
</g>
<!-- Node9 -->
<g id="node9" class="node">
<title>Node9</title>
<g id="a_node9"><a xlink:href="class_k_u_k_a_1_1_f_r_i_1_1_client_application.html#a9939bfd1fa78c59dc3675a6d2a5de7a7" target="_top" xlink:title="Run a single processing step.">
<polygon fill="white" stroke="black" points="74,-139.09 74,-169.09 220,-169.09 220,-139.09 74,-139.09"/>
<text text-anchor="start" x="82" y="-157.09" font-family="Helvetica,sans-Serif" font-size="10.00">KUKA::FRI::ClientApplication</text>
<text text-anchor="middle" x="147" y="-146.09" font-family="Helvetica,sans-Serif" font-size="10.00">::step</text>
</a>
</g>
</g>
<!-- Node8&#45;&gt;Node9 -->
<g id="edge8" class="edge">
<title>Node8&#45;&gt;Node9</title>
<path fill="none" stroke="midnightblue" d="M245.88,-154.09C237.29,-154.09 228.65,-154.09 220.24,-154.09"/>
<polygon fill="midnightblue" stroke="midnightblue" points="245.93,-157.59 255.93,-154.09 245.93,-150.59 245.93,-157.59"/>
</g>
<!-- Node10 -->
<g id="node10" class="node">
<title>Node10</title>
<g id="a_node10"><a xlink:href="_i_o_access_app_8cpp.html#a3c04138a5bfe5d72780bb7e82a18e627" target="_top" xlink:title=" ">
<polygon fill="white" stroke="black" points="0,-144.59 0,-163.59 38,-163.59 38,-144.59 0,-144.59"/>
<text text-anchor="middle" x="19" y="-151.59" font-family="Helvetica,sans-Serif" font-size="10.00">main</text>
</a>
</g>
</g>
<!-- Node9&#45;&gt;Node10 -->
<g id="edge9" class="edge">
<title>Node9&#45;&gt;Node10</title>
<path fill="none" stroke="midnightblue" d="M63.74,-154.09C54.28,-154.09 45.45,-154.09 38.25,-154.09"/>
<polygon fill="midnightblue" stroke="midnightblue" points="63.8,-157.59 73.8,-154.09 63.8,-150.59 63.8,-157.59"/>
</g>
<!-- Node12 -->
<g id="node12" class="node">
<title>Node12</title>
<g id="a_node12"><a xlink:href="pb__encode_8c.html#a1f6fe701e8ba7999f934064f029c6630" target="_top" xlink:title=" ">
<polygon fill="white" stroke="black" points="92.5,-240.59 92.5,-259.59 201.5,-259.59 201.5,-240.59 92.5,-240.59"/>
<text text-anchor="middle" x="147" y="-247.59" font-family="Helvetica,sans-Serif" font-size="10.00">pb_enc_submessage</text>
</a>
</g>
</g>
<!-- Node11&#45;&gt;Node12 -->
<g id="edge11" class="edge">
<title>Node11&#45;&gt;Node12</title>
<path fill="none" stroke="midnightblue" d="M262.26,-261.76C242.13,-259.71 220.59,-257.51 201.71,-255.58"/>
<polygon fill="midnightblue" stroke="midnightblue" points="262.02,-265.26 272.32,-262.79 262.73,-258.29 262.02,-265.26"/>
</g>
<!-- Node13 -->
<g id="node13" class="node">
<title>Node13</title>
<g id="a_node13"><a xlink:href="pb__encode_8c.html#ada25a45ba2ec5aa0baa8c692b0f30361" target="_top" xlink:title=" ">
<polygon fill="white" stroke="black" points="93,-278.59 93,-297.59 201,-297.59 201,-278.59 93,-278.59"/>
<text text-anchor="middle" x="147" y="-285.59" font-family="Helvetica,sans-Serif" font-size="10.00">pb_encode_delimited</text>
</a>
</g>
</g>
<!-- Node11&#45;&gt;Node13 -->
<g id="edge12" class="edge">
<title>Node11&#45;&gt;Node13</title>
<path fill="none" stroke="midnightblue" d="M262.17,-276.43C241.84,-278.51 220.1,-280.73 201.1,-282.67"/>
<polygon fill="midnightblue" stroke="midnightblue" points="262.73,-279.89 272.32,-275.39 262.02,-272.93 262.73,-279.89"/>
</g>
<!-- Node16 -->
<g id="node16" class="node">
<title>Node16</title>
<g id="a_node16"><a xlink:href="pb__encode_8c.html#a6d3de4f90e7b9a4819123602843b88d0" target="_top" xlink:title=" ">
<polygon fill="white" stroke="black" points="1583.5,-439.59 1583.5,-458.59 1668.5,-458.59 1668.5,-439.59 1583.5,-439.59"/>
<text text-anchor="middle" x="1626" y="-446.59" font-family="Helvetica,sans-Serif" font-size="10.00">pb_enc_fixed32</text>
</a>
</g>
</g>
<!-- Node15&#45;&gt;Node16 -->
<g id="edge16" class="edge">
<title>Node15&#45;&gt;Node16</title>
<path fill="none" stroke="midnightblue" d="M1700.62,-438.61C1689.91,-440.14 1678.95,-441.7 1668.88,-443.13"/>
<polygon fill="midnightblue" stroke="midnightblue" points="1701.38,-442.04 1710.79,-437.17 1700.4,-435.11 1701.38,-442.04"/>
</g>
<!-- Node18 -->
<g id="node18" class="node">
<title>Node18</title>
<g id="a_node18"><a xlink:href="pb__frimessages__callbacks_8c.html#a3841575aaa517c808aeba5ab3e4f4e48" target="_top" xlink:title=" ">
<polygon fill="white" stroke="black" points="1261,-210.59 1261,-229.59 1383,-229.59 1383,-210.59 1261,-210.59"/>
<text text-anchor="middle" x="1322" y="-217.59" font-family="Helvetica,sans-Serif" font-size="10.00">encode_repeatedDouble</text>
</a>
</g>
</g>
<!-- Node17&#45;&gt;Node18 -->
<g id="edge18" class="edge">
<title>Node17&#45;&gt;Node18</title>
<path fill="none" stroke="midnightblue" d="M1700.68,-377.99C1615.87,-383.85 1465.77,-389.92 1419,-364.09 1364.03,-333.73 1334.83,-256.97 1325.96,-229.8"/>
<polygon fill="midnightblue" stroke="midnightblue" points="1700.96,-381.48 1710.69,-377.28 1700.46,-374.5 1700.96,-381.48"/>
</g>
<!-- Node24 -->
<g id="node24" class="node">
<title>Node24</title>
<g id="a_node24"><a xlink:href="pb__encode_8c.html#af3786ad7969edbdee86f14ba62aa61c8" target="_top" xlink:title=" ">
<polygon fill="white" stroke="black" points="1583.5,-401.59 1583.5,-420.59 1668.5,-420.59 1668.5,-401.59 1583.5,-401.59"/>
<text text-anchor="middle" x="1626" y="-408.59" font-family="Helvetica,sans-Serif" font-size="10.00">pb_enc_fixed64</text>
</a>
</g>
</g>
<!-- Node17&#45;&gt;Node24 -->
<g id="edge24" class="edge">
<title>Node17&#45;&gt;Node24</title>
<path fill="none" stroke="midnightblue" d="M1716.97,-385.48C1698.69,-390.69 1677.75,-396.65 1660.68,-401.51"/>
<polygon fill="midnightblue" stroke="midnightblue" points="1718.15,-388.79 1726.81,-382.68 1716.24,-382.05 1718.15,-388.79"/>
</g>
<!-- Node19 -->
<g id="node19" class="node">
<title>Node19</title>
<g id="a_node19"><a xlink:href="pb__frimessages__callbacks_8c.html#a5283f13633c8400371ab65d44d905901" target="_top" xlink:title=" ">
<polygon fill="white" stroke="black" points="1116,-210.59 1116,-229.59 1225,-229.59 1225,-210.59 1116,-210.59"/>
<text text-anchor="middle" x="1170.5" y="-217.59" font-family="Helvetica,sans-Serif" font-size="10.00">map_repeatedDouble</text>
</a>
</g>
</g>
<!-- Node18&#45;&gt;Node19 -->
<g id="edge19" class="edge">
<title>Node18&#45;&gt;Node19</title>
<path fill="none" stroke="midnightblue" d="M1250.41,-220.09C1241.99,-220.09 1233.49,-220.09 1225.35,-220.09"/>
<polygon fill="midnightblue" stroke="midnightblue" points="1250.62,-223.59 1260.62,-220.09 1250.62,-216.59 1250.62,-223.59"/>
</g>
<!-- Node20 -->
<g id="node20" class="node">
<title>Node20</title>
<g id="a_node20"><a xlink:href="class_k_u_k_a_1_1_f_r_i_1_1_command_message_encoder.html#a40f5b848100484d0e4fdbf6a80d79dac" target="_top" xlink:title=" ">
<polygon fill="white" stroke="black" points="922,-210.09 922,-240.09 1080,-240.09 1080,-210.09 922,-210.09"/>
<text text-anchor="start" x="930" y="-228.09" font-family="Helvetica,sans-Serif" font-size="10.00">KUKA::FRI::CommandMessage</text>
<text text-anchor="middle" x="1001" y="-217.09" font-family="Helvetica,sans-Serif" font-size="10.00">Encoder::initMessage</text>
</a>
</g>
</g>
<!-- Node19&#45;&gt;Node20 -->
<g id="edge20" class="edge">
<title>Node19&#45;&gt;Node20</title>
<path fill="none" stroke="midnightblue" d="M1105.34,-222.01C1097.11,-222.25 1088.63,-222.51 1080.21,-222.76"/>
<polygon fill="midnightblue" stroke="midnightblue" points="1105.69,-225.5 1115.58,-221.7 1105.48,-218.5 1105.69,-225.5"/>
</g>
<!-- Node22 -->
<g id="node22" class="node">
<title>Node22</title>
<g id="a_node22"><a xlink:href="class_k_u_k_a_1_1_f_r_i_1_1_monitoring_message_decoder.html#a5f7d8c50c6b2275a90ee8053eeeeda0a" target="_top" xlink:title=" ">
<polygon fill="white" stroke="black" points="922,-161.09 922,-191.09 1080,-191.09 1080,-161.09 922,-161.09"/>
<text text-anchor="start" x="930" y="-179.09" font-family="Helvetica,sans-Serif" font-size="10.00">KUKA::FRI::MonitoringMessage</text>
<text text-anchor="middle" x="1001" y="-168.09" font-family="Helvetica,sans-Serif" font-size="10.00">Decoder::initMessage</text>
</a>
</g>
</g>
<!-- Node19&#45;&gt;Node22 -->
<g id="edge22" class="edge">
<title>Node19&#45;&gt;Node22</title>
<path fill="none" stroke="midnightblue" d="M1123.45,-208C1103.64,-202.79 1080.27,-196.65 1059.35,-191.16"/>
<polygon fill="midnightblue" stroke="midnightblue" points="1122.59,-211.39 1133.15,-210.55 1124.37,-204.62 1122.59,-211.39"/>
</g>
<!-- Node21 -->
<g id="node21" class="node">
<title>Node21</title>
<g id="a_node21"><a xlink:href="class_k_u_k_a_1_1_f_r_i_1_1_command_message_encoder.html#ab48adf8c90670d6c7bcbd82d108f9f47" target="_top" xlink:title=" ">
<polygon fill="white" stroke="black" points="706,-210.09 706,-240.09 885,-240.09 885,-210.09 706,-210.09"/>
<text text-anchor="start" x="714" y="-228.09" font-family="Helvetica,sans-Serif" font-size="10.00">KUKA::FRI::CommandMessage</text>
<text text-anchor="middle" x="795.5" y="-217.09" font-family="Helvetica,sans-Serif" font-size="10.00">Encoder::CommandMessageEncoder</text>
</a>
</g>
</g>
<!-- Node20&#45;&gt;Node21 -->
<g id="edge21" class="edge">
<title>Node20&#45;&gt;Node21</title>
<path fill="none" stroke="midnightblue" d="M911.69,-225.09C902.92,-225.09 894.02,-225.09 885.25,-225.09"/>
<polygon fill="midnightblue" stroke="midnightblue" points="911.9,-228.59 921.9,-225.09 911.9,-221.59 911.9,-228.59"/>
</g>
<!-- Node23 -->
<g id="node23" class="node">
<title>Node23</title>
<g id="a_node23"><a xlink:href="class_k_u_k_a_1_1_f_r_i_1_1_monitoring_message_decoder.html#a839c031de8bf792b17b612fc6ef91d05" target="_top" xlink:title=" ">
<polygon fill="white" stroke="black" points="705,-161.09 705,-191.09 886,-191.09 886,-161.09 705,-161.09"/>
<text text-anchor="start" x="713" y="-179.09" font-family="Helvetica,sans-Serif" font-size="10.00">KUKA::FRI::MonitoringMessage</text>
<text text-anchor="middle" x="795.5" y="-168.09" font-family="Helvetica,sans-Serif" font-size="10.00">Decoder::MonitoringMessageDecoder</text>
</a>
</g>
</g>
<!-- Node22&#45;&gt;Node23 -->
<g id="edge23" class="edge">
<title>Node22&#45;&gt;Node23</title>
<path fill="none" stroke="midnightblue" d="M911.7,-176.09C903.27,-176.09 894.72,-176.09 886.28,-176.09"/>
<polygon fill="midnightblue" stroke="midnightblue" points="911.9,-179.59 921.9,-176.09 911.9,-172.59 911.9,-179.59"/>
</g>
<!-- Node26 -->
<g id="node26" class="node">
<title>Node26</title>
<g id="a_node26"><a xlink:href="pb__encode_8c.html#ad856083eab7b7f4ae3a0a2a9c073bb6e" target="_top" xlink:title=" ">
<polygon fill="white" stroke="black" points="1441.5,-297.59 1441.5,-316.59 1518.5,-316.59 1518.5,-297.59 1441.5,-297.59"/>
<text text-anchor="middle" x="1480" y="-304.59" font-family="Helvetica,sans-Serif" font-size="10.00">pb_enc_bytes</text>
</a>
</g>
</g>
<!-- Node25&#45;&gt;Node26 -->
<g id="edge26" class="edge">
<title>Node25&#45;&gt;Node26</title>
<path fill="none" stroke="midnightblue" d="M1569.09,-318.72C1552.16,-316.48 1533.98,-314.08 1518.55,-312.05"/>
<polygon fill="midnightblue" stroke="midnightblue" points="1569.07,-322.24 1579.44,-320.08 1569.98,-315.3 1569.07,-322.24"/>
</g>
<!-- Node27 -->
<g id="node27" class="node">
<title>Node27</title>
<g id="a_node27"><a xlink:href="pb__encode_8c.html#a43d7e4006be2299245e447b1afa3bb8a" target="_top" xlink:title=" ">
<polygon fill="white" stroke="black" points="1441.5,-335.59 1441.5,-354.59 1518.5,-354.59 1518.5,-335.59 1441.5,-335.59"/>
<text text-anchor="middle" x="1480" y="-342.59" font-family="Helvetica,sans-Serif" font-size="10.00">pb_enc_string</text>
</a>
</g>
</g>
<!-- Node25&#45;&gt;Node27 -->
<g id="edge27" class="edge">
<title>Node25&#45;&gt;Node27</title>
<path fill="none" stroke="midnightblue" d="M1569.09,-333.47C1552.16,-335.7 1533.98,-338.1 1518.55,-340.14"/>
<polygon fill="midnightblue" stroke="midnightblue" points="1569.98,-336.88 1579.44,-332.1 1569.07,-329.94 1569.98,-336.88"/>
</g>
<!-- Node28&#45;&gt;Node2 -->
<g id="edge30" class="edge">
<title>Node28&#45;&gt;Node2</title>
<path fill="none" stroke="midnightblue" d="M1754.73,-173.78C1744.42,-143.15 1719.61,-84.45 1675,-60.09 1565.69,-0.41 1407.74,-47.62 1347.55,-69.49"/>
<polygon fill="midnightblue" stroke="midnightblue" points="1751.41,-174.87 1757.78,-183.33 1758.08,-172.74 1751.41,-174.87"/>
</g>
<!-- Node28&#45;&gt;Node11 -->
<g id="edge37" class="edge">
<title>Node28&#45;&gt;Node11</title>
<path fill="none" stroke="midnightblue" d="M1733.91,-207.22C1717.36,-215.51 1695.4,-225.6 1675,-232.09 1591.36,-258.72 1568.78,-269.09 1481,-269.09 1481,-269.09 1481,-269.09 608.5,-269.09 536.12,-269.09 452.92,-269.09 397.69,-269.09"/>
<polygon fill="midnightblue" stroke="midnightblue" points="1735.67,-210.26 1742.98,-202.59 1732.48,-204.02 1735.67,-210.26"/>
</g>
<!-- Node28&#45;&gt;Node25 -->
<g id="edge36" class="edge">
<title>Node28&#45;&gt;Node25</title>
<path fill="none" stroke="midnightblue" d="M1744.83,-210.4C1727.98,-228.81 1700.21,-258.61 1675,-283.09 1662.8,-294.94 1648.17,-307.88 1638.29,-316.43"/>
<polygon fill="midnightblue" stroke="midnightblue" points="1747.61,-212.54 1751.76,-202.79 1742.44,-207.83 1747.61,-212.54"/>
</g>
<!-- Node29 -->
<g id="node29" class="node">
<title>Node29</title>
<g id="a_node29"><a xlink:href="pb__frimessages__callbacks_8c.html#aca260ceb4ad963a7f5f6282ceaf17f2b" target="_top" xlink:title=" ">
<polygon fill="white" stroke="black" points="1271,-166.59 1271,-185.59 1373,-185.59 1373,-166.59 1271,-166.59"/>
<text text-anchor="middle" x="1322" y="-173.59" font-family="Helvetica,sans-Serif" font-size="10.00">encode_repeatedInt</text>
</a>
</g>
</g>
<!-- Node28&#45;&gt;Node29 -->
<g id="edge31" class="edge">
<title>Node28&#45;&gt;Node29</title>
<path fill="none" stroke="midnightblue" d="M1716.1,-204.89C1702.97,-207.85 1688.49,-210.61 1675,-212.09 1561.9,-224.51 1530.95,-232.39 1419,-212.09 1404.64,-209.49 1369.28,-195.45 1345.72,-185.69"/>
<polygon fill="midnightblue" stroke="midnightblue" points="1716.91,-208.3 1725.85,-202.6 1715.31,-201.48 1716.91,-208.3"/>
</g>
<!-- Node31 -->
<g id="node31" class="node">
<title>Node31</title>
<g id="a_node31"><a xlink:href="pb__encode_8c.html#a475a5f7217dbd290eed58a59110d8b10" target="_top" xlink:title=" ">
<polygon fill="white" stroke="black" points="1584.5,-145.59 1584.5,-164.59 1667.5,-164.59 1667.5,-145.59 1584.5,-145.59"/>
<text text-anchor="middle" x="1626" y="-152.59" font-family="Helvetica,sans-Serif" font-size="10.00">pb_enc_uvarint</text>
</a>
</g>
</g>
<!-- Node28&#45;&gt;Node31 -->
<g id="edge34" class="edge">
<title>Node28&#45;&gt;Node31</title>
<path fill="none" stroke="midnightblue" d="M1716.97,-180.7C1698.69,-175.5 1677.75,-169.54 1660.68,-164.68"/>
<polygon fill="midnightblue" stroke="midnightblue" points="1716.24,-184.13 1726.81,-183.5 1718.15,-177.4 1716.24,-184.13"/>
</g>
<!-- Node32 -->
<g id="node32" class="node">
<title>Node32</title>
<g id="a_node32"><a xlink:href="pb__encode_8c.html#a7d6439adf6388fcd3c7ab58f74954d5c" target="_top" xlink:title=" ">
<polygon fill="white" stroke="black" points="1587.5,-107.59 1587.5,-126.59 1664.5,-126.59 1664.5,-107.59 1587.5,-107.59"/>
<text text-anchor="middle" x="1626" y="-114.59" font-family="Helvetica,sans-Serif" font-size="10.00">pb_enc_varint</text>
</a>
</g>
</g>
<!-- Node28&#45;&gt;Node32 -->
<g id="edge35" class="edge">
<title>Node28&#45;&gt;Node32</title>
<path fill="none" stroke="midnightblue" d="M1739.48,-177.25C1722.63,-165.01 1698.07,-148.17 1675,-136.09 1668.41,-132.64 1661.05,-129.43 1654.11,-126.67"/>
<polygon fill="midnightblue" stroke="midnightblue" points="1737.86,-180.41 1747.99,-183.52 1742.01,-174.77 1737.86,-180.41"/>
</g>
<!-- Node33 -->
<g id="node33" class="node">
<title>Node33</title>
<g id="a_node33"><a xlink:href="pb__encode_8c.html#a5cac93c05232ceb03e4be4abede22006" target="_top" xlink:title=" ">
<polygon fill="white" stroke="black" points="1577,-183.59 1577,-202.59 1675,-202.59 1675,-183.59 1577,-183.59"/>
<text text-anchor="middle" x="1626" y="-190.59" font-family="Helvetica,sans-Serif" font-size="10.00">pb_encode_svarint</text>
</a>
</g>
</g>
<!-- Node28&#45;&gt;Node33 -->
<g id="edge38" class="edge">
<title>Node28&#45;&gt;Node33</title>
<path fill="none" stroke="midnightblue" d="M1704.8,-193.09C1694.93,-193.09 1684.73,-193.09 1675.1,-193.09"/>
<polygon fill="midnightblue" stroke="midnightblue" points="1704.93,-196.59 1714.93,-193.09 1704.93,-189.59 1704.93,-196.59"/>
</g>
<!-- Node35 -->
<g id="node35" class="node">
<title>Node35</title>
<g id="a_node35"><a xlink:href="pb__encode_8c.html#acfbcc89e5e4355b8c263d6d4f2bc8c6f" target="_top" xlink:title=" ">
<polygon fill="white" stroke="black" points="1584.5,-69.59 1584.5,-88.59 1667.5,-88.59 1667.5,-69.59 1584.5,-69.59"/>
<text text-anchor="middle" x="1626" y="-76.59" font-family="Helvetica,sans-Serif" font-size="10.00">pb_encode_tag</text>
</a>
</g>
</g>
<!-- Node28&#45;&gt;Node35 -->
<g id="edge40" class="edge">
<title>Node28&#45;&gt;Node35</title>
<path fill="none" stroke="midnightblue" d="M1748.25,-175.05C1733.19,-154.04 1705.79,-119.5 1675,-98.09 1669.63,-94.36 1663.42,-91.21 1657.28,-88.61"/>
<polygon fill="midnightblue" stroke="midnightblue" points="1745.5,-177.22 1754.1,-183.4 1751.23,-173.2 1745.5,-177.22"/>
</g>
<!-- Node30 -->
<g id="node30" class="node">
<title>Node30</title>
<g id="a_node30"><a xlink:href="pb__frimessages__callbacks_8c.html#a81a65250b51118ec352d28e397db9b6c" target="_top" xlink:title=" ">
<polygon fill="white" stroke="black" points="1126,-166.59 1126,-185.59 1215,-185.59 1215,-166.59 1126,-166.59"/>
<text text-anchor="middle" x="1170.5" y="-173.59" font-family="Helvetica,sans-Serif" font-size="10.00">map_repeatedInt</text>
</a>
</g>
</g>
<!-- Node29&#45;&gt;Node30 -->
<g id="edge32" class="edge">
<title>Node29&#45;&gt;Node30</title>
<path fill="none" stroke="midnightblue" d="M1260.49,-176.09C1245.37,-176.09 1229.44,-176.09 1215.3,-176.09"/>
<polygon fill="midnightblue" stroke="midnightblue" points="1260.8,-179.59 1270.8,-176.09 1260.8,-172.59 1260.8,-179.59"/>
</g>
<!-- Node30&#45;&gt;Node22 -->
<g id="edge33" class="edge">
<title>Node30&#45;&gt;Node22</title>
<path fill="none" stroke="midnightblue" d="M1115.75,-176.09C1104.37,-176.09 1092.14,-176.09 1080.08,-176.09"/>
<polygon fill="midnightblue" stroke="midnightblue" points="1115.93,-179.59 1125.93,-176.09 1115.93,-172.59 1115.93,-179.59"/>
</g>
<!-- Node34 -->
<g id="node34" class="node">
<title>Node34</title>
<g id="a_node34"><a xlink:href="pb__encode_8c.html#ae41047e19b694c383f7bba74e1a7ab37" target="_top" xlink:title=" ">
<polygon fill="white" stroke="black" points="1438.5,-183.59 1438.5,-202.59 1521.5,-202.59 1521.5,-183.59 1438.5,-183.59"/>
<text text-anchor="middle" x="1480" y="-190.59" font-family="Helvetica,sans-Serif" font-size="10.00">pb_enc_svarint</text>
</a>
</g>
</g>
<!-- Node33&#45;&gt;Node34 -->
<g id="edge39" class="edge">
<title>Node33&#45;&gt;Node34</title>
<path fill="none" stroke="midnightblue" d="M1566.43,-193.09C1551.45,-193.09 1535.65,-193.09 1521.78,-193.09"/>
<polygon fill="midnightblue" stroke="midnightblue" points="1566.65,-196.59 1576.65,-193.09 1566.65,-189.59 1566.65,-196.59"/>
</g>
<!-- Node35&#45;&gt;Node2 -->
<g id="edge41" class="edge">
<title>Node35&#45;&gt;Node2</title>
<path fill="none" stroke="midnightblue" d="M1574.15,-79.09C1513.46,-79.09 1413.46,-79.09 1359.78,-79.09"/>
<polygon fill="midnightblue" stroke="midnightblue" points="1574.27,-82.59 1584.27,-79.09 1574.27,-75.59 1574.27,-82.59"/>
</g>
<!-- Node36 -->
<g id="node36" class="node">
<title>Node36</title>
<g id="a_node36"><a xlink:href="pb__encode_8c.html#a3e0f1ac29dce37f78220ecd6b9d21cba" target="_top" xlink:title=" ">
<polygon fill="white" stroke="black" points="1419,-107.59 1419,-126.59 1541,-126.59 1541,-107.59 1419,-107.59"/>
<text text-anchor="middle" x="1480" y="-114.59" font-family="Helvetica,sans-Serif" font-size="10.00">pb_encode_tag_for_field</text>
</a>
</g>
</g>
<!-- Node35&#45;&gt;Node36 -->
<g id="edge42" class="edge">
<title>Node35&#45;&gt;Node36</title>
<path fill="none" stroke="midnightblue" d="M1578.83,-91.28C1558.84,-96.55 1535.78,-102.64 1517.08,-107.57"/>
<polygon fill="midnightblue" stroke="midnightblue" points="1579.89,-94.62 1588.66,-88.68 1578.1,-87.85 1579.89,-94.62"/>
</g>
<!-- Node36&#45;&gt;Node2 -->
<g id="edge43" class="edge">
<title>Node36&#45;&gt;Node2</title>
<path fill="none" stroke="midnightblue" d="M1429.83,-105.12C1407.11,-99.58 1380.6,-93.12 1359.67,-88.03"/>
<polygon fill="midnightblue" stroke="midnightblue" points="1429.09,-108.54 1439.63,-107.5 1430.75,-101.74 1429.09,-108.54"/>
</g>
<!-- Node36&#45;&gt;Node3 -->
<g id="edge44" class="edge">
<title>Node36&#45;&gt;Node3</title>
<path fill="none" stroke="midnightblue" d="M1408.89,-114.36C1351.44,-112.11 1271.59,-109 1220.73,-107.01"/>
<polygon fill="midnightblue" stroke="midnightblue" points="1408.85,-117.86 1418.98,-114.75 1409.13,-110.86 1408.85,-117.86"/>
</g>
<!-- Node36&#45;&gt;Node18 -->
<g id="edge45" class="edge">
<title>Node36&#45;&gt;Node18</title>
<path fill="none" stroke="midnightblue" d="M1461.76,-133.69C1443.38,-150.75 1412.87,-177.25 1383,-195.09 1372.93,-201.11 1361.13,-206.37 1350.68,-210.48"/>
<polygon fill="midnightblue" stroke="midnightblue" points="1464.2,-136.21 1469.08,-126.8 1459.4,-131.11 1464.2,-136.21"/>
</g>
<!-- Node36&#45;&gt;Node29 -->
<g id="edge46" class="edge">
<title>Node36&#45;&gt;Node29</title>
<path fill="none" stroke="midnightblue" d="M1444.2,-130.26C1415.06,-141.27 1374.18,-156.74 1348.14,-166.58"/>
<polygon fill="midnightblue" stroke="midnightblue" points="1445.47,-133.51 1453.59,-126.7 1443,-126.97 1445.47,-133.51"/>
</g>
</g>
</svg>
        <g id="navigator" transform="translate(0 0)" fill="#404254">
                <rect fill="#f2f5e9" fill-opacity="0.5" stroke="#606060" stroke-width=".5" x="0" y="0" width="60" height="60"/>
                <use id="zoomplus" xlink:href="#zoomPlus" x="17" y="9" onmousedown="handleZoom(evt,'in')"/>
                <use id="zoomminus" xlink:href="#zoomMin" x="42" y="9" onmousedown="handleZoom(evt,'out')"/>
                <use id="reset" xlink:href="#resetDef" x="30" y="36" onmousedown="handleReset()"/>
                <g id="arrowUp" xlink:href="#dirArrow" transform="translate(30 24)" onmousedown="handlePan(0,-1)">
                  <use xlink:href="#rim" fill="#404040">
                        <set attributeName="fill" to="#808080" begin="arrowUp.mouseover" end="arrowUp.mouseout"/>
                  </use>
                  <path fill="none" stroke="white" stroke-width="1.5" d="M0,-3.0v7 M-2.5,-0.5L0,-3.0L2.5,-0.5"/>
                </g>
                <g id="arrowRight" xlink:href="#dirArrow" transform="rotate(90) translate(36 -43)" onmousedown="handlePan(1,0)">
                  <use xlink:href="#rim" fill="#404040">
                        <set attributeName="fill" to="#808080" begin="arrowRight.mouseover" end="arrowRight.mouseout"/>
                  </use>
                  <path fill="none" stroke="white" stroke-width="1.5" d="M0,-3.0v7 M-2.5,-0.5L0,-3.0L2.5,-0.5"/>
                </g>
                <g id="arrowDown" xlink:href="#dirArrow" transform="rotate(180) translate(-30 -48)" onmousedown="handlePan(0,1)">
                  <use xlink:href="#rim" fill="#404040">
                        <set attributeName="fill" to="#808080" begin="arrowDown.mouseover" end="arrowDown.mouseout"/>
                  </use>
                  <path fill="none" stroke="white" stroke-width="1.5" d="M0,-3.0v7 M-2.5,-0.5L0,-3.0L2.5,-0.5"/>
                </g>
                <g id="arrowLeft" xlink:href="#dirArrow" transform="rotate(270) translate(-36 17)" onmousedown="handlePan(-1,0)">
                  <use xlink:href="#rim" fill="#404040">
                        <set attributeName="fill" to="#808080" begin="arrowLeft.mouseover" end="arrowLeft.mouseout"/>
                  </use>
                  <path fill="none" stroke="white" stroke-width="1.5" d="M0,-3.0v7 M-2.5,-0.5L0,-3.0L2.5,-0.5"/>
                </g>
        </g>
        <svg viewBox="0 0 15 15" width="100%" height="30px" preserveAspectRatio="xMaxYMin meet">
         <g id="arrow_out" transform="scale(0.3 0.3)">
          <a xlink:href="pb__encode_8h_a77c2c3f2fd80f66a1d96047562a36678_icgraph_org.svg" target="_base">
           <rect id="button" ry="5" rx="5" y="6" x="6" height="38" width="38"
                fill="#f2f5e9" fill-opacity="0.5" stroke="#606060" stroke-width="1.0"/>
           <path id="arrow"
             d="M 11.500037,31.436501 C 11.940474,20.09759 22.043105,11.32322 32.158766,21.979434 L 37.068811,17.246167 C 37.068811,17.246167 37.088388,32 37.088388,32 L 22.160133,31.978069 C 22.160133,31.978069 26.997745,27.140456 26.997745,27.140456 C 18.528582,18.264221 13.291696,25.230495 11.500037,31.436501 z"
             style="fill:#404040;"/>
          </a>
         </g>
        </svg>
</svg>
