<?xml version="1.0" encoding="UTF-8" standalone="no"?>
<!DOCTYPE svg PUBLIC "-//W3C//DTD SVG 1.1//EN"
 "http://www.w3.org/Graphics/SVG/1.1/DTD/svg11.dtd">
<!-- Generated by graphviz version 2.43.0 (0)
 -->
<!-- Title: pb_encode_varint Pages: 1 -->
<svg width="1812pt" height="343pt"
 viewBox="0.00 0.00 1812.00 343.00" xmlns="http://www.w3.org/2000/svg" xmlns:xlink="http://www.w3.org/1999/xlink">
<g id="graph0" class="graph" transform="scale(1 1) rotate(0) translate(4 339)">
<title>pb_encode_varint</title>
<polygon fill="white" stroke="transparent" points="-4,4 -4,-339 1808,-339 1808,4 -4,4"/>
<!-- Node1 -->
<g id="node1" class="node">
<title>Node1</title>
<g id="a_node1"><a xlink:title=" ">
<polygon fill="#bfbfbf" stroke="black" points="1711,-133.5 1711,-152.5 1804,-152.5 1804,-133.5 1711,-133.5"/>
<text text-anchor="middle" x="1757.5" y="-140.5" font-family="Helvetica,sans-Serif" font-size="10.00">pb_encode_varint</text>
</a>
</g>
</g>
<!-- Node2 -->
<g id="node2" class="node">
<title>Node2</title>
<g id="a_node2"><a xlink:href="pb__encode_8c.html#afb8fc9e49589eaae694eff25c858a19c" target="_top" xlink:title=" ">
<polygon fill="white" stroke="black" points="1284.5,-304.5 1284.5,-323.5 1359.5,-323.5 1359.5,-304.5 1284.5,-304.5"/>
<text text-anchor="middle" x="1322" y="-311.5" font-family="Helvetica,sans-Serif" font-size="10.00">encode_array</text>
</a>
</g>
</g>
<!-- Node1&#45;&gt;Node2 -->
<g id="edge1" class="edge">
<title>Node1&#45;&gt;Node2</title>
<path fill="none" stroke="midnightblue" d="M1748.17,-162.18C1735.97,-187.92 1710.74,-233.13 1675,-257 1576.28,-322.92 1427.96,-322.07 1359.73,-317.49"/>
<polygon fill="midnightblue" stroke="midnightblue" points="1751.5,-163.32 1752.46,-152.76 1745.13,-160.41 1751.5,-163.32"/>
</g>
<!-- Node11 -->
<g id="node11" class="node">
<title>Node11</title>
<g id="a_node11"><a xlink:href="pb__encode_8c.html#a5c19520cad847fead01fae854b8a6f86" target="_top" xlink:title=" ">
<polygon fill="white" stroke="black" points="272.5,-171.5 272.5,-190.5 397.5,-190.5 397.5,-171.5 272.5,-171.5"/>
<text text-anchor="middle" x="335" y="-178.5" font-family="Helvetica,sans-Serif" font-size="10.00">pb_encode_submessage</text>
</a>
</g>
</g>
<!-- Node1&#45;&gt;Node11 -->
<g id="edge24" class="edge">
<title>Node1&#45;&gt;Node11</title>
<path fill="none" stroke="midnightblue" d="M1700.75,-149.11C1645.15,-154.66 1557.28,-162 1481,-162 1481,-162 1481,-162 608.5,-162 535.94,-162 452.78,-168.79 397.6,-174.25"/>
<polygon fill="midnightblue" stroke="midnightblue" points="1701.15,-152.58 1710.74,-148.09 1700.44,-145.62 1701.15,-152.58"/>
</g>
<!-- Node15 -->
<g id="node15" class="node">
<title>Node15</title>
<g id="a_node15"><a xlink:href="pb__frimessages__callbacks_8c.html#aca260ceb4ad963a7f5f6282ceaf17f2b" target="_top" xlink:title=" ">
<polygon fill="white" stroke="black" points="1271,-190.5 1271,-209.5 1373,-209.5 1373,-190.5 1271,-190.5"/>
<text text-anchor="middle" x="1322" y="-197.5" font-family="Helvetica,sans-Serif" font-size="10.00">encode_repeatedInt</text>
</a>
</g>
</g>
<!-- Node1&#45;&gt;Node15 -->
<g id="edge15" class="edge">
<title>Node1&#45;&gt;Node15</title>
<path fill="none" stroke="midnightblue" d="M1728.2,-157.05C1712.84,-164 1693.3,-171.78 1675,-176 1569.65,-200.27 1442.24,-202.48 1373.28,-201.52"/>
<polygon fill="midnightblue" stroke="midnightblue" points="1730.05,-160.04 1737.63,-152.64 1727.09,-153.7 1730.05,-160.04"/>
</g>
<!-- Node19 -->
<g id="node19" class="node">
<title>Node19</title>
<g id="a_node19"><a xlink:href="pb__encode_8c.html#a475a5f7217dbd290eed58a59110d8b10" target="_top" xlink:title=" ">
<polygon fill="white" stroke="black" points="1584.5,-114.5 1584.5,-133.5 1667.5,-133.5 1667.5,-114.5 1584.5,-114.5"/>
<text text-anchor="middle" x="1626" y="-121.5" font-family="Helvetica,sans-Serif" font-size="10.00">pb_enc_uvarint</text>
</a>
</g>
</g>
<!-- Node1&#45;&gt;Node19 -->
<g id="edge19" class="edge">
<title>Node1&#45;&gt;Node19</title>
<path fill="none" stroke="midnightblue" d="M1700.73,-134.82C1689.56,-133.18 1678.03,-131.49 1667.5,-129.94"/>
<polygon fill="midnightblue" stroke="midnightblue" points="1700.44,-138.31 1710.84,-136.3 1701.46,-131.39 1700.44,-138.31"/>
</g>
<!-- Node20 -->
<g id="node20" class="node">
<title>Node20</title>
<g id="a_node20"><a xlink:href="pb__encode_8c.html#a7d6439adf6388fcd3c7ab58f74954d5c" target="_top" xlink:title=" ">
<polygon fill="white" stroke="black" points="1587.5,-76.5 1587.5,-95.5 1664.5,-95.5 1664.5,-76.5 1587.5,-76.5"/>
<text text-anchor="middle" x="1626" y="-83.5" font-family="Helvetica,sans-Serif" font-size="10.00">pb_enc_varint</text>
</a>
</g>
</g>
<!-- Node1&#45;&gt;Node20 -->
<g id="edge20" class="edge">
<title>Node1&#45;&gt;Node20</title>
<path fill="none" stroke="midnightblue" d="M1727.79,-129.11C1712.26,-121.72 1692.69,-112.62 1675,-105 1667.59,-101.81 1659.46,-98.51 1652.03,-95.58"/>
<polygon fill="midnightblue" stroke="midnightblue" points="1726.35,-132.3 1736.89,-133.46 1729.37,-125.98 1726.35,-132.3"/>
</g>
<!-- Node21 -->
<g id="node21" class="node">
<title>Node21</title>
<g id="a_node21"><a xlink:href="pb__encode_8c.html#a280ca371ad740196d282a50672a91da1" target="_top" xlink:title=" ">
<polygon fill="white" stroke="black" points="1579.5,-38.5 1579.5,-57.5 1672.5,-57.5 1672.5,-38.5 1579.5,-38.5"/>
<text text-anchor="middle" x="1626" y="-45.5" font-family="Helvetica,sans-Serif" font-size="10.00">pb_encode_string</text>
</a>
</g>
</g>
<!-- Node1&#45;&gt;Node21 -->
<g id="edge21" class="edge">
<title>Node1&#45;&gt;Node21</title>
<path fill="none" stroke="midnightblue" d="M1741.71,-125.88C1726.41,-109.04 1701.14,-83.52 1675,-67 1669.24,-63.36 1662.67,-60.21 1656.28,-57.57"/>
<polygon fill="midnightblue" stroke="midnightblue" points="1739.11,-128.23 1748.37,-133.37 1744.34,-123.58 1739.11,-128.23"/>
</g>
<!-- Node24 -->
<g id="node24" class="node">
<title>Node24</title>
<g id="a_node24"><a xlink:href="pb__encode_8c.html#a5cac93c05232ceb03e4be4abede22006" target="_top" xlink:title=" ">
<polygon fill="white" stroke="black" points="1577,-0.5 1577,-19.5 1675,-19.5 1675,-0.5 1577,-0.5"/>
<text text-anchor="middle" x="1626" y="-7.5" font-family="Helvetica,sans-Serif" font-size="10.00">pb_encode_svarint</text>
</a>
</g>
</g>
<!-- Node1&#45;&gt;Node24 -->
<g id="edge25" class="edge">
<title>Node1&#45;&gt;Node24</title>
<path fill="none" stroke="midnightblue" d="M1747.43,-124.19C1734.54,-99.26 1708.69,-55.34 1675,-29 1670.13,-25.19 1664.4,-22.06 1658.62,-19.51"/>
<polygon fill="midnightblue" stroke="midnightblue" points="1744.4,-125.95 1752.01,-133.32 1750.66,-122.82 1744.4,-125.95"/>
</g>
<!-- Node26 -->
<g id="node26" class="node">
<title>Node26</title>
<g id="a_node26"><a xlink:href="pb__encode_8c.html#acfbcc89e5e4355b8c263d6d4f2bc8c6f" target="_top" xlink:title=" ">
<polygon fill="white" stroke="black" points="1584.5,-228.5 1584.5,-247.5 1667.5,-247.5 1667.5,-228.5 1584.5,-228.5"/>
<text text-anchor="middle" x="1626" y="-235.5" font-family="Helvetica,sans-Serif" font-size="10.00">pb_encode_tag</text>
</a>
</g>
</g>
<!-- Node1&#45;&gt;Node26 -->
<g id="edge27" class="edge">
<title>Node1&#45;&gt;Node26</title>
<path fill="none" stroke="midnightblue" d="M1739.73,-159.88C1723.94,-175.2 1699.16,-197.82 1675,-214 1666.95,-219.39 1657.52,-224.36 1649.16,-228.37"/>
<polygon fill="midnightblue" stroke="midnightblue" points="1742.45,-162.11 1747.12,-152.6 1737.54,-157.13 1742.45,-162.11"/>
</g>
<!-- Node3 -->
<g id="node3" class="node">
<title>Node3</title>
<g id="a_node3"><a xlink:href="pb__encode_8c.html#a1f186424780069ab183fb7d2360d274e" target="_top" xlink:title=" ">
<polygon fill="white" stroke="black" points="1120.5,-296.5 1120.5,-315.5 1220.5,-315.5 1220.5,-296.5 1120.5,-296.5"/>
<text text-anchor="middle" x="1170.5" y="-303.5" font-family="Helvetica,sans-Serif" font-size="10.00">encode_basic_field</text>
</a>
</g>
</g>
<!-- Node2&#45;&gt;Node3 -->
<g id="edge2" class="edge">
<title>Node2&#45;&gt;Node3</title>
<path fill="none" stroke="midnightblue" d="M1274.16,-311.49C1257.15,-310.58 1237.89,-309.55 1220.68,-308.63"/>
<polygon fill="midnightblue" stroke="midnightblue" points="1274.26,-315 1284.43,-312.04 1274.63,-308.01 1274.26,-315"/>
</g>
<!-- Node4 -->
<g id="node4" class="node">
<title>Node4</title>
<g id="a_node4"><a xlink:href="pb__encode_8c.html#a8aa23313175c09e050e2acbc54a17bd4" target="_top" xlink:title=" ">
<polygon fill="white" stroke="black" points="965.5,-296.5 965.5,-315.5 1036.5,-315.5 1036.5,-296.5 965.5,-296.5"/>
<text text-anchor="middle" x="1001" y="-303.5" font-family="Helvetica,sans-Serif" font-size="10.00">encode_field</text>
</a>
</g>
</g>
<!-- Node3&#45;&gt;Node4 -->
<g id="edge3" class="edge">
<title>Node3&#45;&gt;Node4</title>
<path fill="none" stroke="midnightblue" d="M1109.85,-306C1085.32,-306 1057.78,-306 1036.67,-306"/>
<polygon fill="midnightblue" stroke="midnightblue" points="1110.15,-309.5 1120.15,-306 1110.15,-302.5 1110.15,-309.5"/>
</g>
<!-- Node5 -->
<g id="node5" class="node">
<title>Node5</title>
<g id="a_node5"><a xlink:href="pb__encode_8c.html#a3a12936f07ae378d68408c7bee72e3c0" target="_top" xlink:title=" ">
<polygon fill="white" stroke="black" points="729,-289.5 729,-308.5 862,-308.5 862,-289.5 729,-289.5"/>
<text text-anchor="middle" x="795.5" y="-296.5" font-family="Helvetica,sans-Serif" font-size="10.00">default_extension_encoder</text>
</a>
</g>
</g>
<!-- Node4&#45;&gt;Node5 -->
<g id="edge4" class="edge">
<title>Node4&#45;&gt;Node5</title>
<path fill="none" stroke="midnightblue" d="M955.43,-304.47C928.09,-303.53 892.61,-302.31 862.1,-301.26"/>
<polygon fill="midnightblue" stroke="midnightblue" points="955.36,-307.97 965.48,-304.81 955.61,-300.97 955.36,-307.97"/>
</g>
<!-- Node7 -->
<g id="node7" class="node">
<title>Node7</title>
<g id="a_node7"><a xlink:href="pb__encode_8c.html#af44dde5296bd546d99be35f15658af3e" target="_top" xlink:title=" ">
<polygon fill="white" stroke="black" points="450,-289.5 450,-308.5 514,-308.5 514,-289.5 450,-289.5"/>
<text text-anchor="middle" x="482" y="-296.5" font-family="Helvetica,sans-Serif" font-size="10.00">pb_encode</text>
</a>
</g>
</g>
<!-- Node4&#45;&gt;Node7 -->
<g id="edge14" class="edge">
<title>Node4&#45;&gt;Node7</title>
<path fill="none" stroke="midnightblue" d="M955.47,-311.78C934.44,-314.23 908.97,-316.79 886,-318 736.87,-325.83 697.91,-338.57 550,-318 536.59,-316.14 522.09,-312.27 510.02,-308.5"/>
<polygon fill="midnightblue" stroke="midnightblue" points="955.89,-315.26 965.4,-310.6 955.06,-308.31 955.89,-315.26"/>
</g>
<!-- Node6 -->
<g id="node6" class="node">
<title>Node6</title>
<g id="a_node6"><a xlink:href="pb__encode_8c.html#a0c789b04243dc72075c00744134546c3" target="_top" xlink:title=" ">
<polygon fill="white" stroke="black" points="550,-289.5 550,-308.5 669,-308.5 669,-289.5 550,-289.5"/>
<text text-anchor="middle" x="609.5" y="-296.5" font-family="Helvetica,sans-Serif" font-size="10.00">encode_extension_field</text>
</a>
</g>
</g>
<!-- Node5&#45;&gt;Node6 -->
<g id="edge5" class="edge">
<title>Node5&#45;&gt;Node6</title>
<path fill="none" stroke="midnightblue" d="M718.66,-299C702.11,-299 684.84,-299 669.09,-299"/>
<polygon fill="midnightblue" stroke="midnightblue" points="718.85,-302.5 728.85,-299 718.85,-295.5 718.85,-302.5"/>
</g>
<!-- Node6&#45;&gt;Node7 -->
<g id="edge6" class="edge">
<title>Node6&#45;&gt;Node7</title>
<path fill="none" stroke="midnightblue" d="M539.74,-299C530.86,-299 522.14,-299 514.3,-299"/>
<polygon fill="midnightblue" stroke="midnightblue" points="539.79,-302.5 549.79,-299 539.79,-295.5 539.79,-302.5"/>
</g>
<!-- Node8 -->
<g id="node8" class="node">
<title>Node8</title>
<g id="a_node8"><a xlink:href="class_k_u_k_a_1_1_f_r_i_1_1_command_message_encoder.html#a53c2553cb91250334d979f2aaa4006a4" target="_top" xlink:title=" ">
<polygon fill="white" stroke="black" points="256,-266 256,-296 414,-296 414,-266 256,-266"/>
<text text-anchor="start" x="264" y="-284" font-family="Helvetica,sans-Serif" font-size="10.00">KUKA::FRI::CommandMessage</text>
<text text-anchor="middle" x="335" y="-273" font-family="Helvetica,sans-Serif" font-size="10.00">Encoder::encode</text>
</a>
</g>
</g>
<!-- Node7&#45;&gt;Node8 -->
<g id="edge7" class="edge">
<title>Node7&#45;&gt;Node8</title>
<path fill="none" stroke="midnightblue" d="M439.7,-293.87C431.64,-292.87 422.94,-291.79 414.12,-290.7"/>
<polygon fill="midnightblue" stroke="midnightblue" points="439.54,-297.38 449.89,-295.14 440.4,-290.43 439.54,-297.38"/>
</g>
<!-- Node7&#45;&gt;Node11 -->
<g id="edge10" class="edge">
<title>Node7&#45;&gt;Node11</title>
<path fill="none" stroke="midnightblue" d="M461.3,-282.97C430.79,-258.14 373.03,-211.13 348.03,-190.79"/>
<polygon fill="midnightblue" stroke="midnightblue" points="459.17,-285.75 469.13,-289.34 463.59,-280.32 459.17,-285.75"/>
</g>
<!-- Node14 -->
<g id="node14" class="node">
<title>Node14</title>
<g id="a_node14"><a xlink:href="pb__encode_8c.html#a7d0d58fcd08d5020b12133c31bbe57f1" target="_top" xlink:title=" ">
<polygon fill="white" stroke="black" points="279.5,-315.5 279.5,-334.5 390.5,-334.5 390.5,-315.5 279.5,-315.5"/>
<text text-anchor="middle" x="335" y="-322.5" font-family="Helvetica,sans-Serif" font-size="10.00">pb_get_encoded_size</text>
</a>
</g>
</g>
<!-- Node7&#45;&gt;Node14 -->
<g id="edge13" class="edge">
<title>Node7&#45;&gt;Node14</title>
<path fill="none" stroke="midnightblue" d="M439.9,-306.37C424.09,-309.2 405.81,-312.48 389.03,-315.49"/>
<polygon fill="midnightblue" stroke="midnightblue" points="440.67,-309.79 449.89,-304.58 439.43,-302.9 440.67,-309.79"/>
</g>
<!-- Node9 -->
<g id="node9" class="node">
<title>Node9</title>
<g id="a_node9"><a xlink:href="class_k_u_k_a_1_1_f_r_i_1_1_client_application.html#a9939bfd1fa78c59dc3675a6d2a5de7a7" target="_top" xlink:title="Run a single processing step.">
<polygon fill="white" stroke="black" points="74,-266 74,-296 220,-296 220,-266 74,-266"/>
<text text-anchor="start" x="82" y="-284" font-family="Helvetica,sans-Serif" font-size="10.00">KUKA::FRI::ClientApplication</text>
<text text-anchor="middle" x="147" y="-273" font-family="Helvetica,sans-Serif" font-size="10.00">::step</text>
</a>
</g>
</g>
<!-- Node8&#45;&gt;Node9 -->
<g id="edge8" class="edge">
<title>Node8&#45;&gt;Node9</title>
<path fill="none" stroke="midnightblue" d="M245.88,-281C237.29,-281 228.65,-281 220.24,-281"/>
<polygon fill="midnightblue" stroke="midnightblue" points="245.93,-284.5 255.93,-281 245.93,-277.5 245.93,-284.5"/>
</g>
<!-- Node10 -->
<g id="node10" class="node">
<title>Node10</title>
<g id="a_node10"><a xlink:href="_i_o_access_app_8cpp.html#a3c04138a5bfe5d72780bb7e82a18e627" target="_top" xlink:title=" ">
<polygon fill="white" stroke="black" points="0,-271.5 0,-290.5 38,-290.5 38,-271.5 0,-271.5"/>
<text text-anchor="middle" x="19" y="-278.5" font-family="Helvetica,sans-Serif" font-size="10.00">main</text>
</a>
</g>
</g>
<!-- Node9&#45;&gt;Node10 -->
<g id="edge9" class="edge">
<title>Node9&#45;&gt;Node10</title>
<path fill="none" stroke="midnightblue" d="M63.74,-281C54.28,-281 45.45,-281 38.25,-281"/>
<polygon fill="midnightblue" stroke="midnightblue" points="63.8,-284.5 73.8,-281 63.8,-277.5 63.8,-284.5"/>
</g>
<!-- Node12 -->
<g id="node12" class="node">
<title>Node12</title>
<g id="a_node12"><a xlink:href="pb__encode_8c.html#a1f6fe701e8ba7999f934064f029c6630" target="_top" xlink:title=" ">
<polygon fill="white" stroke="black" points="92.5,-152.5 92.5,-171.5 201.5,-171.5 201.5,-152.5 92.5,-152.5"/>
<text text-anchor="middle" x="147" y="-159.5" font-family="Helvetica,sans-Serif" font-size="10.00">pb_enc_submessage</text>
</a>
</g>
</g>
<!-- Node11&#45;&gt;Node12 -->
<g id="edge11" class="edge">
<title>Node11&#45;&gt;Node12</title>
<path fill="none" stroke="midnightblue" d="M262.26,-173.67C242.13,-171.62 220.59,-169.42 201.71,-167.49"/>
<polygon fill="midnightblue" stroke="midnightblue" points="262.02,-177.17 272.32,-174.7 262.73,-170.2 262.02,-177.17"/>
</g>
<!-- Node13 -->
<g id="node13" class="node">
<title>Node13</title>
<g id="a_node13"><a xlink:href="pb__encode_8c.html#ada25a45ba2ec5aa0baa8c692b0f30361" target="_top" xlink:title=" ">
<polygon fill="white" stroke="black" points="93,-190.5 93,-209.5 201,-209.5 201,-190.5 93,-190.5"/>
<text text-anchor="middle" x="147" y="-197.5" font-family="Helvetica,sans-Serif" font-size="10.00">pb_encode_delimited</text>
</a>
</g>
</g>
<!-- Node11&#45;&gt;Node13 -->
<g id="edge12" class="edge">
<title>Node11&#45;&gt;Node13</title>
<path fill="none" stroke="midnightblue" d="M262.17,-188.34C241.84,-190.41 220.1,-192.64 201.1,-194.58"/>
<polygon fill="midnightblue" stroke="midnightblue" points="262.73,-191.8 272.32,-187.3 262.02,-184.83 262.73,-191.8"/>
</g>
<!-- Node16 -->
<g id="node16" class="node">
<title>Node16</title>
<g id="a_node16"><a xlink:href="pb__frimessages__callbacks_8c.html#a81a65250b51118ec352d28e397db9b6c" target="_top" xlink:title=" ">
<polygon fill="white" stroke="black" points="1126,-190.5 1126,-209.5 1215,-209.5 1215,-190.5 1126,-190.5"/>
<text text-anchor="middle" x="1170.5" y="-197.5" font-family="Helvetica,sans-Serif" font-size="10.00">map_repeatedInt</text>
</a>
</g>
</g>
<!-- Node15&#45;&gt;Node16 -->
<g id="edge16" class="edge">
<title>Node15&#45;&gt;Node16</title>
<path fill="none" stroke="midnightblue" d="M1260.49,-200C1245.37,-200 1229.44,-200 1215.3,-200"/>
<polygon fill="midnightblue" stroke="midnightblue" points="1260.8,-203.5 1270.8,-200 1260.8,-196.5 1260.8,-203.5"/>
</g>
<!-- Node17 -->
<g id="node17" class="node">
<title>Node17</title>
<g id="a_node17"><a xlink:href="class_k_u_k_a_1_1_f_r_i_1_1_monitoring_message_decoder.html#a5f7d8c50c6b2275a90ee8053eeeeda0a" target="_top" xlink:title=" ">
<polygon fill="white" stroke="black" points="922,-191 922,-221 1080,-221 1080,-191 922,-191"/>
<text text-anchor="start" x="930" y="-209" font-family="Helvetica,sans-Serif" font-size="10.00">KUKA::FRI::MonitoringMessage</text>
<text text-anchor="middle" x="1001" y="-198" font-family="Helvetica,sans-Serif" font-size="10.00">Decoder::initMessage</text>
</a>
</g>
</g>
<!-- Node16&#45;&gt;Node17 -->
<g id="edge17" class="edge">
<title>Node16&#45;&gt;Node17</title>
<path fill="none" stroke="midnightblue" d="M1115.75,-201.93C1104.37,-202.33 1092.14,-202.77 1080.08,-203.2"/>
<polygon fill="midnightblue" stroke="midnightblue" points="1116.06,-205.42 1125.93,-201.56 1115.81,-198.42 1116.06,-205.42"/>
</g>
<!-- Node18 -->
<g id="node18" class="node">
<title>Node18</title>
<g id="a_node18"><a xlink:href="class_k_u_k_a_1_1_f_r_i_1_1_monitoring_message_decoder.html#a839c031de8bf792b17b612fc6ef91d05" target="_top" xlink:title=" ">
<polygon fill="white" stroke="black" points="705,-191 705,-221 886,-221 886,-191 705,-191"/>
<text text-anchor="start" x="713" y="-209" font-family="Helvetica,sans-Serif" font-size="10.00">KUKA::FRI::MonitoringMessage</text>
<text text-anchor="middle" x="795.5" y="-198" font-family="Helvetica,sans-Serif" font-size="10.00">Decoder::MonitoringMessageDecoder</text>
</a>
</g>
</g>
<!-- Node17&#45;&gt;Node18 -->
<g id="edge18" class="edge">
<title>Node17&#45;&gt;Node18</title>
<path fill="none" stroke="midnightblue" d="M911.7,-206C903.27,-206 894.72,-206 886.28,-206"/>
<polygon fill="midnightblue" stroke="midnightblue" points="911.9,-209.5 921.9,-206 911.9,-202.5 911.9,-209.5"/>
</g>
<!-- Node22 -->
<g id="node22" class="node">
<title>Node22</title>
<g id="a_node22"><a xlink:href="pb__encode_8c.html#ad856083eab7b7f4ae3a0a2a9c073bb6e" target="_top" xlink:title=" ">
<polygon fill="white" stroke="black" points="1441.5,-76.5 1441.5,-95.5 1518.5,-95.5 1518.5,-76.5 1441.5,-76.5"/>
<text text-anchor="middle" x="1480" y="-83.5" font-family="Helvetica,sans-Serif" font-size="10.00">pb_enc_bytes</text>
</a>
</g>
</g>
<!-- Node21&#45;&gt;Node22 -->
<g id="edge22" class="edge">
<title>Node21&#45;&gt;Node22</title>
<path fill="none" stroke="midnightblue" d="M1578.83,-60.18C1558.84,-65.46 1535.78,-71.54 1517.08,-76.48"/>
<polygon fill="midnightblue" stroke="midnightblue" points="1579.89,-63.52 1588.66,-57.59 1578.1,-56.76 1579.89,-63.52"/>
</g>
<!-- Node23 -->
<g id="node23" class="node">
<title>Node23</title>
<g id="a_node23"><a xlink:href="pb__encode_8c.html#a43d7e4006be2299245e447b1afa3bb8a" target="_top" xlink:title=" ">
<polygon fill="white" stroke="black" points="1441.5,-38.5 1441.5,-57.5 1518.5,-57.5 1518.5,-38.5 1441.5,-38.5"/>
<text text-anchor="middle" x="1480" y="-45.5" font-family="Helvetica,sans-Serif" font-size="10.00">pb_enc_string</text>
</a>
</g>
</g>
<!-- Node21&#45;&gt;Node23 -->
<g id="edge23" class="edge">
<title>Node21&#45;&gt;Node23</title>
<path fill="none" stroke="midnightblue" d="M1569.09,-48C1552.16,-48 1533.98,-48 1518.55,-48"/>
<polygon fill="midnightblue" stroke="midnightblue" points="1569.44,-51.5 1579.44,-48 1569.44,-44.5 1569.44,-51.5"/>
</g>
<!-- Node25 -->
<g id="node25" class="node">
<title>Node25</title>
<g id="a_node25"><a xlink:href="pb__encode_8c.html#ae41047e19b694c383f7bba74e1a7ab37" target="_top" xlink:title=" ">
<polygon fill="white" stroke="black" points="1438.5,-0.5 1438.5,-19.5 1521.5,-19.5 1521.5,-0.5 1438.5,-0.5"/>
<text text-anchor="middle" x="1480" y="-7.5" font-family="Helvetica,sans-Serif" font-size="10.00">pb_enc_svarint</text>
</a>
</g>
</g>
<!-- Node24&#45;&gt;Node25 -->
<g id="edge26" class="edge">
<title>Node24&#45;&gt;Node25</title>
<path fill="none" stroke="midnightblue" d="M1566.43,-10C1551.45,-10 1535.65,-10 1521.78,-10"/>
<polygon fill="midnightblue" stroke="midnightblue" points="1566.65,-13.5 1576.65,-10 1566.65,-6.5 1566.65,-13.5"/>
</g>
<!-- Node26&#45;&gt;Node2 -->
<g id="edge28" class="edge">
<title>Node26&#45;&gt;Node2</title>
<path fill="none" stroke="midnightblue" d="M1577.01,-250.08C1516.58,-265.28 1414.1,-291.08 1359.61,-304.79"/>
<polygon fill="midnightblue" stroke="midnightblue" points="1578.21,-253.38 1587.06,-247.55 1576.51,-246.59 1578.21,-253.38"/>
</g>
<!-- Node27 -->
<g id="node27" class="node">
<title>Node27</title>
<g id="a_node27"><a xlink:href="pb__encode_8c.html#a3e0f1ac29dce37f78220ecd6b9d21cba" target="_top" xlink:title=" ">
<polygon fill="white" stroke="black" points="1419,-228.5 1419,-247.5 1541,-247.5 1541,-228.5 1419,-228.5"/>
<text text-anchor="middle" x="1480" y="-235.5" font-family="Helvetica,sans-Serif" font-size="10.00">pb_encode_tag_for_field</text>
</a>
</g>
</g>
<!-- Node26&#45;&gt;Node27 -->
<g id="edge29" class="edge">
<title>Node26&#45;&gt;Node27</title>
<path fill="none" stroke="midnightblue" d="M1574.12,-238C1563.43,-238 1552.06,-238 1541.07,-238"/>
<polygon fill="midnightblue" stroke="midnightblue" points="1574.12,-241.5 1584.12,-238 1574.12,-234.5 1574.12,-241.5"/>
</g>
<!-- Node27&#45;&gt;Node2 -->
<g id="edge30" class="edge">
<title>Node27&#45;&gt;Node2</title>
<path fill="none" stroke="midnightblue" d="M1441.12,-251.27C1433.61,-254.42 1425.91,-258.04 1419,-262 1401.42,-272.09 1400.58,-279.91 1383,-290 1373.17,-295.64 1361.76,-300.56 1351.54,-304.46"/>
<polygon fill="midnightblue" stroke="midnightblue" points="1442.47,-254.5 1450.46,-247.54 1439.87,-248 1442.47,-254.5"/>
</g>
<!-- Node27&#45;&gt;Node3 -->
<g id="edge31" class="edge">
<title>Node27&#45;&gt;Node3</title>
<path fill="none" stroke="midnightblue" d="M1425.93,-249.74C1366.17,-262.95 1270.2,-284.17 1214.78,-296.43"/>
<polygon fill="midnightblue" stroke="midnightblue" points="1426.91,-253.1 1435.92,-247.53 1425.4,-246.27 1426.91,-253.1"/>
</g>
<!-- Node27&#45;&gt;Node15 -->
<g id="edge37" class="edge">
<title>Node27&#45;&gt;Node15</title>
<path fill="none" stroke="midnightblue" d="M1429.87,-226.03C1408.01,-220.71 1382.62,-214.52 1362.08,-209.52"/>
<polygon fill="midnightblue" stroke="midnightblue" points="1429.09,-229.44 1439.63,-228.41 1430.75,-222.64 1429.09,-229.44"/>
</g>
<!-- Node28 -->
<g id="node28" class="node">
<title>Node28</title>
<g id="a_node28"><a xlink:href="pb__frimessages__callbacks_8c.html#a3841575aaa517c808aeba5ab3e4f4e48" target="_top" xlink:title=" ">
<polygon fill="white" stroke="black" points="1261,-228.5 1261,-247.5 1383,-247.5 1383,-228.5 1261,-228.5"/>
<text text-anchor="middle" x="1322" y="-235.5" font-family="Helvetica,sans-Serif" font-size="10.00">encode_repeatedDouble</text>
</a>
</g>
</g>
<!-- Node27&#45;&gt;Node28 -->
<g id="edge32" class="edge">
<title>Node27&#45;&gt;Node28</title>
<path fill="none" stroke="midnightblue" d="M1408.46,-238C1400.01,-238 1391.44,-238 1383.15,-238"/>
<polygon fill="midnightblue" stroke="midnightblue" points="1408.69,-241.5 1418.69,-238 1408.69,-234.5 1408.69,-241.5"/>
</g>
<!-- Node29 -->
<g id="node29" class="node">
<title>Node29</title>
<g id="a_node29"><a xlink:href="pb__frimessages__callbacks_8c.html#a5283f13633c8400371ab65d44d905901" target="_top" xlink:title=" ">
<polygon fill="white" stroke="black" points="1116,-228.5 1116,-247.5 1225,-247.5 1225,-228.5 1116,-228.5"/>
<text text-anchor="middle" x="1170.5" y="-235.5" font-family="Helvetica,sans-Serif" font-size="10.00">map_repeatedDouble</text>
</a>
</g>
</g>
<!-- Node28&#45;&gt;Node29 -->
<g id="edge33" class="edge">
<title>Node28&#45;&gt;Node29</title>
<path fill="none" stroke="midnightblue" d="M1250.41,-238C1241.99,-238 1233.49,-238 1225.35,-238"/>
<polygon fill="midnightblue" stroke="midnightblue" points="1250.62,-241.5 1260.62,-238 1250.62,-234.5 1250.62,-241.5"/>
</g>
<!-- Node29&#45;&gt;Node17 -->
<g id="edge36" class="edge">
<title>Node29&#45;&gt;Node17</title>
<path fill="none" stroke="midnightblue" d="M1109.86,-226.61C1100.24,-224.77 1090.15,-222.84 1080.17,-220.93"/>
<polygon fill="midnightblue" stroke="midnightblue" points="1109.22,-230.05 1119.7,-228.49 1110.53,-223.17 1109.22,-230.05"/>
</g>
<!-- Node30 -->
<g id="node30" class="node">
<title>Node30</title>
<g id="a_node30"><a xlink:href="class_k_u_k_a_1_1_f_r_i_1_1_command_message_encoder.html#a40f5b848100484d0e4fdbf6a80d79dac" target="_top" xlink:title=" ">
<polygon fill="white" stroke="black" points="922,-240 922,-270 1080,-270 1080,-240 922,-240"/>
<text text-anchor="start" x="930" y="-258" font-family="Helvetica,sans-Serif" font-size="10.00">KUKA::FRI::CommandMessage</text>
<text text-anchor="middle" x="1001" y="-247" font-family="Helvetica,sans-Serif" font-size="10.00">Encoder::initMessage</text>
</a>
</g>
</g>
<!-- Node29&#45;&gt;Node30 -->
<g id="edge34" class="edge">
<title>Node29&#45;&gt;Node30</title>
<path fill="none" stroke="midnightblue" d="M1105.61,-244.48C1097.3,-245.33 1088.72,-246.2 1080.21,-247.06"/>
<polygon fill="midnightblue" stroke="midnightblue" points="1105.98,-247.96 1115.58,-243.47 1105.28,-241 1105.98,-247.96"/>
</g>
<!-- Node31 -->
<g id="node31" class="node">
<title>Node31</title>
<g id="a_node31"><a xlink:href="class_k_u_k_a_1_1_f_r_i_1_1_command_message_encoder.html#ab48adf8c90670d6c7bcbd82d108f9f47" target="_top" xlink:title=" ">
<polygon fill="white" stroke="black" points="706,-240 706,-270 885,-270 885,-240 706,-240"/>
<text text-anchor="start" x="714" y="-258" font-family="Helvetica,sans-Serif" font-size="10.00">KUKA::FRI::CommandMessage</text>
<text text-anchor="middle" x="795.5" y="-247" font-family="Helvetica,sans-Serif" font-size="10.00">Encoder::CommandMessageEncoder</text>
</a>
</g>
</g>
<!-- Node30&#45;&gt;Node31 -->
<g id="edge35" class="edge">
<title>Node30&#45;&gt;Node31</title>
<path fill="none" stroke="midnightblue" d="M911.69,-255C902.92,-255 894.02,-255 885.25,-255"/>
<polygon fill="midnightblue" stroke="midnightblue" points="911.9,-258.5 921.9,-255 911.9,-251.5 911.9,-258.5"/>
</g>
</g>
</svg>
