<?xml version="1.0" encoding="UTF-8" standalone="no"?>
<!DOCTYPE svg PUBLIC "-//W3C//DTD SVG 1.1//EN"
 "http://www.w3.org/Graphics/SVG/1.1/DTD/svg11.dtd">
<!-- Generated by graphviz version 2.43.0 (0)
 -->
<!-- Title: memcpy Pages: 1 -->
<svg width="906pt" height="508pt"
 viewBox="0.00 0.00 906.00 507.50" xmlns="http://www.w3.org/2000/svg" xmlns:xlink="http://www.w3.org/1999/xlink">
<g id="graph0" class="graph" transform="scale(1 1) rotate(0) translate(4 503.5)">
<title>memcpy</title>
<polygon fill="white" stroke="transparent" points="-4,4 -4,-503.5 902,-503.5 902,4 -4,4"/>
<!-- Node1 -->
<g id="node1" class="node">
<title>Node1</title>
<g id="a_node1"><a xlink:title=" ">
<polygon fill="#bfbfbf" stroke="black" points="844,-202 844,-221 898,-221 898,-202 844,-202"/>
<text text-anchor="middle" x="871" y="-209" font-family="Helvetica,sans-Serif" font-size="10.00">memcpy</text>
</a>
</g>
</g>
<!-- Node2 -->
<g id="node2" class="node">
<title>Node2</title>
<g id="a_node2"><a xlink:href="class_l_b_r_joint_sine_overlay_client.html#af1c5d90f3aa1c1717f849f6c7f7a1ad5" target="_top" xlink:title="Callback for the FRI state &#39;Commanding Active&#39;.">
<polygon fill="white" stroke="black" points="462.5,-392.5 462.5,-422.5 598.5,-422.5 598.5,-392.5 462.5,-392.5"/>
<text text-anchor="start" x="470.5" y="-410.5" font-family="Helvetica,sans-Serif" font-size="10.00">LBRJointSineOverlayClient</text>
<text text-anchor="middle" x="530.5" y="-399.5" font-family="Helvetica,sans-Serif" font-size="10.00">::command</text>
</a>
</g>
</g>
<!-- Node1&#45;&gt;Node2 -->
<g id="edge1" class="edge">
<title>Node1&#45;&gt;Node2</title>
<path fill="none" stroke="midnightblue" d="M865.5,-231.14C858.21,-258.47 841.15,-307.64 808,-334.5 748.21,-382.95 659.46,-399.49 598.74,-405"/>
<polygon fill="midnightblue" stroke="midnightblue" points="868.96,-231.75 867.98,-221.2 862.16,-230.06 868.96,-231.75"/>
</g>
<!-- Node3 -->
<g id="node3" class="node">
<title>Node3</title>
<g id="a_node3"><a xlink:href="pb__decode_8c.html#a086200ce4dac8198dc0537e64318d66e" target="_top" xlink:title=" ">
<polygon fill="white" stroke="black" points="655.5,-425 655.5,-444 799.5,-444 799.5,-425 655.5,-425"/>
<text text-anchor="middle" x="727.5" y="-432" font-family="Helvetica,sans-Serif" font-size="10.00">pb_message_set_to_defaults</text>
</a>
</g>
</g>
<!-- Node1&#45;&gt;Node3 -->
<g id="edge2" class="edge">
<title>Node1&#45;&gt;Node3</title>
<path fill="none" stroke="midnightblue" d="M868.19,-231.38C863.9,-267.84 850.1,-346.07 808,-394.5 795.53,-408.84 776.69,-418.64 760.48,-424.94"/>
<polygon fill="midnightblue" stroke="midnightblue" points="871.7,-231.41 869.27,-221.1 864.74,-230.68 871.7,-231.41"/>
</g>
<!-- Node10 -->
<g id="node10" class="node">
<title>Node10</title>
<g id="a_node10"><a xlink:href="class_k_u_k_a_1_1_f_r_i_1_1_l_b_r_command.html#af250c07674fc06147243c8ce481709f6" target="_top" xlink:title="Set the joint positions for the current interpolation step.">
<polygon fill="white" stroke="black" points="659,-294.5 659,-324.5 796,-324.5 796,-294.5 659,-294.5"/>
<text text-anchor="start" x="667" y="-312.5" font-family="Helvetica,sans-Serif" font-size="10.00">KUKA::FRI::LBRCommand</text>
<text text-anchor="middle" x="727.5" y="-301.5" font-family="Helvetica,sans-Serif" font-size="10.00">::setJointPosition</text>
</a>
</g>
</g>
<!-- Node1&#45;&gt;Node10 -->
<g id="edge9" class="edge">
<title>Node1&#45;&gt;Node10</title>
<path fill="none" stroke="midnightblue" d="M847.89,-226.81C821.3,-245.23 776.95,-275.94 750.44,-294.31"/>
<polygon fill="midnightblue" stroke="midnightblue" points="849.95,-229.65 856.17,-221.08 845.96,-223.89 849.95,-229.65"/>
</g>
<!-- Node16 -->
<g id="node16" class="node">
<title>Node16</title>
<g id="a_node16"><a xlink:href="class_k_u_k_a_1_1_f_r_i_1_1_l_b_r_command.html#a187acae4fba3bb182ff32106cbef969f" target="_top" xlink:title="Set the applied joint torques for the current interpolation step.">
<polygon fill="white" stroke="black" points="659,-196.5 659,-226.5 796,-226.5 796,-196.5 659,-196.5"/>
<text text-anchor="start" x="667" y="-214.5" font-family="Helvetica,sans-Serif" font-size="10.00">KUKA::FRI::LBRCommand</text>
<text text-anchor="middle" x="727.5" y="-203.5" font-family="Helvetica,sans-Serif" font-size="10.00">::setTorque</text>
</a>
</g>
</g>
<!-- Node1&#45;&gt;Node16 -->
<g id="edge16" class="edge">
<title>Node1&#45;&gt;Node16</title>
<path fill="none" stroke="midnightblue" d="M833.67,-211.5C822.19,-211.5 809.1,-211.5 796.16,-211.5"/>
<polygon fill="midnightblue" stroke="midnightblue" points="833.72,-215 843.72,-211.5 833.72,-208 833.72,-215"/>
</g>
<!-- Node19 -->
<g id="node19" class="node">
<title>Node19</title>
<g id="a_node19"><a xlink:href="class_k_u_k_a_1_1_f_r_i_1_1_transformation_client.html#a57bf908a411b019bc97cfa3c671387ae" target="_top" xlink:title="Provides a requested transformation matrix.">
<polygon fill="white" stroke="black" points="658.5,-98.5 658.5,-128.5 796.5,-128.5 796.5,-98.5 658.5,-98.5"/>
<text text-anchor="start" x="666.5" y="-116.5" font-family="Helvetica,sans-Serif" font-size="10.00">KUKA::FRI::Transformation</text>
<text text-anchor="middle" x="727.5" y="-105.5" font-family="Helvetica,sans-Serif" font-size="10.00">Client::setTransformation</text>
</a>
</g>
</g>
<!-- Node1&#45;&gt;Node19 -->
<g id="edge19" class="edge">
<title>Node1&#45;&gt;Node19</title>
<path fill="none" stroke="midnightblue" d="M858.8,-193.18C847.79,-176.65 829.54,-152.79 808,-138.5 802.21,-134.66 795.8,-131.38 789.2,-128.59"/>
<polygon fill="midnightblue" stroke="midnightblue" points="856.07,-195.41 864.41,-201.95 861.96,-191.64 856.07,-195.41"/>
</g>
<!-- Node21 -->
<g id="node21" class="node">
<title>Node21</title>
<g id="a_node21"><a xlink:href="class_k_u_k_a_1_1_f_r_i_1_1_l_b_r_command.html#a12381f33c4cb6e03956833b0b5abd669" target="_top" xlink:title="Set the applied wrench vector of the current interpolation step.">
<polygon fill="white" stroke="black" points="659,-49.5 659,-79.5 796,-79.5 796,-49.5 659,-49.5"/>
<text text-anchor="start" x="667" y="-67.5" font-family="Helvetica,sans-Serif" font-size="10.00">KUKA::FRI::LBRCommand</text>
<text text-anchor="middle" x="727.5" y="-56.5" font-family="Helvetica,sans-Serif" font-size="10.00">::setWrench</text>
</a>
</g>
</g>
<!-- Node1&#45;&gt;Node21 -->
<g id="edge21" class="edge">
<title>Node1&#45;&gt;Node21</title>
<path fill="none" stroke="midnightblue" d="M865.37,-192.02C857.92,-164.88 840.67,-115.94 808,-88.5 803.92,-85.07 799.35,-82.13 794.53,-79.61"/>
<polygon fill="midnightblue" stroke="midnightblue" points="862.03,-193.07 867.91,-201.88 868.81,-191.32 862.03,-193.07"/>
</g>
<!-- Node24 -->
<g id="node24" class="node">
<title>Node24</title>
<g id="a_node24"><a xlink:href="class_simulated_transformation_provider_client.html#a9ffecdf8c7c5eca163cecbbbfd1db80f" target="_top" xlink:title=" ">
<polygon fill="white" stroke="black" points="647,-147.5 647,-177.5 808,-177.5 808,-147.5 647,-147.5"/>
<text text-anchor="start" x="655" y="-165.5" font-family="Helvetica,sans-Serif" font-size="10.00">SimulatedTransformationProvider</text>
<text text-anchor="middle" x="727.5" y="-154.5" font-family="Helvetica,sans-Serif" font-size="10.00">Client::updateCurrentSensorData</text>
</a>
</g>
</g>
<!-- Node1&#45;&gt;Node24 -->
<g id="edge24" class="edge">
<title>Node1&#45;&gt;Node24</title>
<path fill="none" stroke="midnightblue" d="M836.95,-198.25C827.63,-194.64 817.46,-190.81 808,-187.5 798.44,-184.15 788.17,-180.76 778.28,-177.61"/>
<polygon fill="midnightblue" stroke="midnightblue" points="835.7,-201.52 846.29,-201.91 838.25,-195 835.7,-201.52"/>
</g>
<!-- Node4 -->
<g id="node4" class="node">
<title>Node4</title>
<g id="a_node4"><a xlink:href="pb__decode_8c.html#a75c9a727abe84bfaaef633ac68d48cfa" target="_top" xlink:title=" ">
<polygon fill="white" stroke="black" points="498.5,-442 498.5,-461 562.5,-461 562.5,-442 498.5,-442"/>
<text text-anchor="middle" x="530.5" y="-449" font-family="Helvetica,sans-Serif" font-size="10.00">pb_decode</text>
</a>
</g>
</g>
<!-- Node3&#45;&gt;Node4 -->
<g id="edge3" class="edge">
<title>Node3&#45;&gt;Node4</title>
<path fill="none" stroke="midnightblue" d="M645.07,-441.6C615.94,-444.14 584.84,-446.85 562.57,-448.79"/>
<polygon fill="midnightblue" stroke="midnightblue" points="645.61,-445.06 655.27,-440.71 645.01,-438.09 645.61,-445.06"/>
</g>
<!-- Node5 -->
<g id="node5" class="node">
<title>Node5</title>
<g id="a_node5"><a xlink:href="class_k_u_k_a_1_1_f_r_i_1_1_monitoring_message_decoder.html#aa72fb1e622847a636e6f5d7ac4770103" target="_top" xlink:title=" ">
<polygon fill="white" stroke="black" points="256,-392.5 256,-422.5 414,-422.5 414,-392.5 256,-392.5"/>
<text text-anchor="start" x="264" y="-410.5" font-family="Helvetica,sans-Serif" font-size="10.00">KUKA::FRI::MonitoringMessage</text>
<text text-anchor="middle" x="335" y="-399.5" font-family="Helvetica,sans-Serif" font-size="10.00">Decoder::decode</text>
</a>
</g>
</g>
<!-- Node4&#45;&gt;Node5 -->
<g id="edge4" class="edge">
<title>Node4&#45;&gt;Node5</title>
<path fill="none" stroke="midnightblue" d="M488.53,-442.18C463.5,-436.49 430.92,-429.08 402.29,-422.57"/>
<polygon fill="midnightblue" stroke="midnightblue" points="487.88,-445.63 498.41,-444.43 489.44,-438.8 487.88,-445.63"/>
</g>
<!-- Node8 -->
<g id="node8" class="node">
<title>Node8</title>
<g id="a_node8"><a xlink:href="pb__decode_8c.html#adb01106a062444577e9e3f3a047db2ef" target="_top" xlink:title=" ">
<polygon fill="white" stroke="black" points="280.5,-480 280.5,-499 389.5,-499 389.5,-480 280.5,-480"/>
<text text-anchor="middle" x="335" y="-487" font-family="Helvetica,sans-Serif" font-size="10.00">pb_dec_submessage</text>
</a>
</g>
</g>
<!-- Node4&#45;&gt;Node8 -->
<g id="edge7" class="edge">
<title>Node4&#45;&gt;Node8</title>
<path fill="none" stroke="midnightblue" d="M488.55,-459.54C458.11,-465.52 416.47,-473.7 384.39,-480"/>
<polygon fill="midnightblue" stroke="midnightblue" points="489.27,-462.97 498.41,-457.61 487.92,-456.1 489.27,-462.97"/>
</g>
<!-- Node9 -->
<g id="node9" class="node">
<title>Node9</title>
<g id="a_node9"><a xlink:href="pb__decode_8c.html#a7c030d7dee687e354a62a72d45dca39b" target="_top" xlink:title=" ">
<polygon fill="white" stroke="black" points="281,-442 281,-461 389,-461 389,-442 281,-442"/>
<text text-anchor="middle" x="335" y="-449" font-family="Helvetica,sans-Serif" font-size="10.00">pb_decode_delimited</text>
</a>
</g>
</g>
<!-- Node4&#45;&gt;Node9 -->
<g id="edge8" class="edge">
<title>Node4&#45;&gt;Node9</title>
<path fill="none" stroke="midnightblue" d="M488.25,-451.5C459.37,-451.5 420.52,-451.5 389.3,-451.5"/>
<polygon fill="midnightblue" stroke="midnightblue" points="488.41,-455 498.41,-451.5 488.41,-448 488.41,-455"/>
</g>
<!-- Node6 -->
<g id="node6" class="node">
<title>Node6</title>
<g id="a_node6"><a xlink:href="class_k_u_k_a_1_1_f_r_i_1_1_client_application.html#a9939bfd1fa78c59dc3675a6d2a5de7a7" target="_top" xlink:title="Run a single processing step.">
<polygon fill="white" stroke="black" points="74,-392.5 74,-422.5 220,-422.5 220,-392.5 74,-392.5"/>
<text text-anchor="start" x="82" y="-410.5" font-family="Helvetica,sans-Serif" font-size="10.00">KUKA::FRI::ClientApplication</text>
<text text-anchor="middle" x="147" y="-399.5" font-family="Helvetica,sans-Serif" font-size="10.00">::step</text>
</a>
</g>
</g>
<!-- Node5&#45;&gt;Node6 -->
<g id="edge5" class="edge">
<title>Node5&#45;&gt;Node6</title>
<path fill="none" stroke="midnightblue" d="M245.88,-407.5C237.29,-407.5 228.65,-407.5 220.24,-407.5"/>
<polygon fill="midnightblue" stroke="midnightblue" points="245.93,-411 255.93,-407.5 245.93,-404 245.93,-411"/>
</g>
<!-- Node7 -->
<g id="node7" class="node">
<title>Node7</title>
<g id="a_node7"><a xlink:href="_i_o_access_app_8cpp.html#a3c04138a5bfe5d72780bb7e82a18e627" target="_top" xlink:title=" ">
<polygon fill="white" stroke="black" points="0,-398 0,-417 38,-417 38,-398 0,-398"/>
<text text-anchor="middle" x="19" y="-405" font-family="Helvetica,sans-Serif" font-size="10.00">main</text>
</a>
</g>
</g>
<!-- Node6&#45;&gt;Node7 -->
<g id="edge6" class="edge">
<title>Node6&#45;&gt;Node7</title>
<path fill="none" stroke="midnightblue" d="M63.74,-407.5C54.28,-407.5 45.45,-407.5 38.25,-407.5"/>
<polygon fill="midnightblue" stroke="midnightblue" points="63.8,-411 73.8,-407.5 63.8,-404 63.8,-411"/>
</g>
<!-- Node10&#45;&gt;Node2 -->
<g id="edge10" class="edge">
<title>Node10&#45;&gt;Node2</title>
<path fill="none" stroke="midnightblue" d="M698.49,-330.59C675.85,-346.84 642.65,-368.93 611,-383.5 603.8,-386.82 596.02,-389.82 588.25,-392.48"/>
<polygon fill="midnightblue" stroke="midnightblue" points="700.59,-333.39 706.62,-324.67 696.48,-327.72 700.59,-333.39"/>
</g>
<!-- Node11 -->
<g id="node11" class="node">
<title>Node11</title>
<g id="a_node11"><a xlink:href="class_k_u_k_a_1_1_f_r_i_1_1_l_b_r_client.html#a30e219dc3f5d5fe6f121e81f7728b57b" target="_top" xlink:title="Callback for the FRI session state &#39;Commanding&#39;.">
<polygon fill="white" stroke="black" points="471.5,-294.5 471.5,-324.5 589.5,-324.5 589.5,-294.5 471.5,-294.5"/>
<text text-anchor="start" x="479.5" y="-312.5" font-family="Helvetica,sans-Serif" font-size="10.00">KUKA::FRI::LBRClient</text>
<text text-anchor="middle" x="530.5" y="-301.5" font-family="Helvetica,sans-Serif" font-size="10.00">::command</text>
</a>
</g>
</g>
<!-- Node10&#45;&gt;Node11 -->
<g id="edge11" class="edge">
<title>Node10&#45;&gt;Node11</title>
<path fill="none" stroke="midnightblue" d="M648.67,-309.5C628.97,-309.5 608.16,-309.5 589.63,-309.5"/>
<polygon fill="midnightblue" stroke="midnightblue" points="648.85,-313 658.85,-309.5 648.85,-306 648.85,-313"/>
</g>
<!-- Node12 -->
<g id="node12" class="node">
<title>Node12</title>
<g id="a_node12"><a xlink:href="class_k_u_k_a_1_1_f_r_i_1_1_l_b_r_client.html#a11c4e9df043726944c8b1da6b426934e" target="_top" xlink:title="Callback for the FRI session states &#39;Monitoring Wait&#39; and &#39;Monitoring Ready&#39;.">
<polygon fill="white" stroke="black" points="471.5,-245.5 471.5,-275.5 589.5,-275.5 589.5,-245.5 471.5,-245.5"/>
<text text-anchor="start" x="479.5" y="-263.5" font-family="Helvetica,sans-Serif" font-size="10.00">KUKA::FRI::LBRClient</text>
<text text-anchor="middle" x="530.5" y="-252.5" font-family="Helvetica,sans-Serif" font-size="10.00">::monitor</text>
</a>
</g>
</g>
<!-- Node10&#45;&gt;Node12 -->
<g id="edge12" class="edge">
<title>Node10&#45;&gt;Node12</title>
<path fill="none" stroke="midnightblue" d="M656.72,-291.97C634.71,-286.43 610.65,-280.39 589.55,-275.09"/>
<polygon fill="midnightblue" stroke="midnightblue" points="656.12,-295.42 666.67,-294.47 657.82,-288.63 656.12,-295.42"/>
</g>
<!-- Node14 -->
<g id="node14" class="node">
<title>Node14</title>
<g id="a_node14"><a xlink:href="class_k_u_k_a_1_1_f_r_i_1_1_l_b_r_client.html#ac949b46d6adcb4f9902c38c5a724fa0b" target="_top" xlink:title="Callback for the FRI session state &#39;Commanding Wait&#39;.">
<polygon fill="white" stroke="black" points="471.5,-343.5 471.5,-373.5 589.5,-373.5 589.5,-343.5 471.5,-343.5"/>
<text text-anchor="start" x="479.5" y="-361.5" font-family="Helvetica,sans-Serif" font-size="10.00">KUKA::FRI::LBRClient</text>
<text text-anchor="middle" x="530.5" y="-350.5" font-family="Helvetica,sans-Serif" font-size="10.00">::waitForCommand</text>
</a>
</g>
</g>
<!-- Node10&#45;&gt;Node14 -->
<g id="edge14" class="edge">
<title>Node10&#45;&gt;Node14</title>
<path fill="none" stroke="midnightblue" d="M656.72,-327.03C634.71,-332.57 610.65,-338.61 589.55,-343.91"/>
<polygon fill="midnightblue" stroke="midnightblue" points="657.82,-330.37 666.67,-324.53 656.12,-323.58 657.82,-330.37"/>
</g>
<!-- Node13 -->
<g id="node13" class="node">
<title>Node13</title>
<g id="a_node13"><a xlink:href="class_my_l_b_r_client.html#a0edb8cb5b23dea3804b2946d374821ee" target="_top" xlink:title="Callback for the FRI session states &#39;Monitoring Wait&#39; and &#39;Monitoring Ready&#39;.">
<polygon fill="white" stroke="black" points="278.5,-251 278.5,-270 391.5,-270 391.5,-251 278.5,-251"/>
<text text-anchor="middle" x="335" y="-258" font-family="Helvetica,sans-Serif" font-size="10.00">MyLBRClient::monitor</text>
</a>
</g>
</g>
<!-- Node12&#45;&gt;Node13 -->
<g id="edge13" class="edge">
<title>Node12&#45;&gt;Node13</title>
<path fill="none" stroke="midnightblue" d="M461.17,-260.5C438.42,-260.5 413.37,-260.5 391.69,-260.5"/>
<polygon fill="midnightblue" stroke="midnightblue" points="461.44,-264 471.44,-260.5 461.44,-257 461.44,-264"/>
</g>
<!-- Node15 -->
<g id="node15" class="node">
<title>Node15</title>
<g id="a_node15"><a xlink:href="class_my_l_b_r_client.html#a32e8d5369604b74411c6c580b626e47c" target="_top" xlink:title="Callback for the FRI session state &#39;Commanding Wait&#39;.">
<polygon fill="white" stroke="black" points="256,-349 256,-368 414,-368 414,-349 256,-349"/>
<text text-anchor="middle" x="335" y="-356" font-family="Helvetica,sans-Serif" font-size="10.00">MyLBRClient::waitForCommand</text>
</a>
</g>
</g>
<!-- Node14&#45;&gt;Node15 -->
<g id="edge15" class="edge">
<title>Node14&#45;&gt;Node15</title>
<path fill="none" stroke="midnightblue" d="M461.09,-358.5C445.88,-358.5 429.63,-358.5 414.06,-358.5"/>
<polygon fill="midnightblue" stroke="midnightblue" points="461.44,-362 471.44,-358.5 461.44,-355 461.44,-362"/>
</g>
<!-- Node17 -->
<g id="node17" class="node">
<title>Node17</title>
<g id="a_node17"><a xlink:href="class_l_b_r_torque_sine_overlay_client.html#ac6be1b28bf0fbb6d4ef82b45e7cb28f4" target="_top" xlink:title="Callback for the FRI state &#39;Commanding Active&#39;.">
<polygon fill="white" stroke="black" points="458.5,-196.5 458.5,-226.5 602.5,-226.5 602.5,-196.5 458.5,-196.5"/>
<text text-anchor="start" x="466.5" y="-214.5" font-family="Helvetica,sans-Serif" font-size="10.00">LBRTorqueSineOverlayClient</text>
<text text-anchor="middle" x="530.5" y="-203.5" font-family="Helvetica,sans-Serif" font-size="10.00">::command</text>
</a>
</g>
</g>
<!-- Node16&#45;&gt;Node17 -->
<g id="edge17" class="edge">
<title>Node16&#45;&gt;Node17</title>
<path fill="none" stroke="midnightblue" d="M648.49,-211.5C633.36,-211.5 617.58,-211.5 602.68,-211.5"/>
<polygon fill="midnightblue" stroke="midnightblue" points="648.85,-215 658.85,-211.5 648.85,-208 648.85,-215"/>
</g>
<!-- Node18 -->
<g id="node18" class="node">
<title>Node18</title>
<g id="a_node18"><a xlink:href="class_l_b_r_torque_sine_overlay_client.html#a8d34866a1ee8c864ee1c1abeccb5028b" target="_top" xlink:title="Callback for the FRI session state &#39;Commanding Wait&#39;.">
<polygon fill="white" stroke="black" points="458.5,-147.5 458.5,-177.5 602.5,-177.5 602.5,-147.5 458.5,-147.5"/>
<text text-anchor="start" x="466.5" y="-165.5" font-family="Helvetica,sans-Serif" font-size="10.00">LBRTorqueSineOverlayClient</text>
<text text-anchor="middle" x="530.5" y="-154.5" font-family="Helvetica,sans-Serif" font-size="10.00">::waitForCommand</text>
</a>
</g>
</g>
<!-- Node16&#45;&gt;Node18 -->
<g id="edge18" class="edge">
<title>Node16&#45;&gt;Node18</title>
<path fill="none" stroke="midnightblue" d="M656.95,-194.02C635.46,-188.62 611.99,-182.72 591.22,-177.51"/>
<polygon fill="midnightblue" stroke="midnightblue" points="656.12,-197.42 666.67,-196.47 657.82,-190.63 656.12,-197.42"/>
</g>
<!-- Node20 -->
<g id="node20" class="node">
<title>Node20</title>
<g id="a_node20"><a xlink:href="class_simulated_transformation_provider_client.html#ad7c1847511910657aa8f95573777697d" target="_top" xlink:title="Callback which is called whenever a new FRI message arrives.">
<polygon fill="white" stroke="black" points="450,-98.5 450,-128.5 611,-128.5 611,-98.5 450,-98.5"/>
<text text-anchor="start" x="458" y="-116.5" font-family="Helvetica,sans-Serif" font-size="10.00">SimulatedTransformationProvider</text>
<text text-anchor="middle" x="530.5" y="-105.5" font-family="Helvetica,sans-Serif" font-size="10.00">Client::provide</text>
</a>
</g>
</g>
<!-- Node19&#45;&gt;Node20 -->
<g id="edge20" class="edge">
<title>Node19&#45;&gt;Node20</title>
<path fill="none" stroke="midnightblue" d="M648.15,-113.5C635.92,-113.5 623.28,-113.5 611.03,-113.5"/>
<polygon fill="midnightblue" stroke="midnightblue" points="648.3,-117 658.3,-113.5 648.3,-110 648.3,-117"/>
</g>
<!-- Node22 -->
<g id="node22" class="node">
<title>Node22</title>
<g id="a_node22"><a xlink:href="class_l_b_r_wrench_sine_overlay_client.html#ace90bc97d85544a1d2d12b0161a4a19b" target="_top" xlink:title="Callback for the FRI state &#39;Commanding Active&#39;.">
<polygon fill="white" stroke="black" points="456.5,-49.5 456.5,-79.5 604.5,-79.5 604.5,-49.5 456.5,-49.5"/>
<text text-anchor="start" x="464.5" y="-67.5" font-family="Helvetica,sans-Serif" font-size="10.00">LBRWrenchSineOverlayClient</text>
<text text-anchor="middle" x="530.5" y="-56.5" font-family="Helvetica,sans-Serif" font-size="10.00">::command</text>
</a>
</g>
</g>
<!-- Node21&#45;&gt;Node22 -->
<g id="edge22" class="edge">
<title>Node21&#45;&gt;Node22</title>
<path fill="none" stroke="midnightblue" d="M648.45,-64.5C634.01,-64.5 618.98,-64.5 604.69,-64.5"/>
<polygon fill="midnightblue" stroke="midnightblue" points="648.85,-68 658.85,-64.5 648.85,-61 648.85,-68"/>
</g>
<!-- Node23 -->
<g id="node23" class="node">
<title>Node23</title>
<g id="a_node23"><a xlink:href="class_l_b_r_wrench_sine_overlay_client.html#ac75b5b35086e28f88d85fb8be9fd38f7" target="_top" xlink:title="Callback for the FRI session state &#39;Commanding Wait&#39;.">
<polygon fill="white" stroke="black" points="456.5,-0.5 456.5,-30.5 604.5,-30.5 604.5,-0.5 456.5,-0.5"/>
<text text-anchor="start" x="464.5" y="-18.5" font-family="Helvetica,sans-Serif" font-size="10.00">LBRWrenchSineOverlayClient</text>
<text text-anchor="middle" x="530.5" y="-7.5" font-family="Helvetica,sans-Serif" font-size="10.00">::waitForCommand</text>
</a>
</g>
</g>
<!-- Node21&#45;&gt;Node23 -->
<g id="edge23" class="edge">
<title>Node21&#45;&gt;Node23</title>
<path fill="none" stroke="midnightblue" d="M656.95,-47.02C635.46,-41.62 611.99,-35.72 591.22,-30.51"/>
<polygon fill="midnightblue" stroke="midnightblue" points="656.12,-50.42 666.67,-49.47 657.82,-43.63 656.12,-50.42"/>
</g>
<!-- Node24&#45;&gt;Node20 -->
<g id="edge25" class="edge">
<title>Node24&#45;&gt;Node20</title>
<path fill="none" stroke="midnightblue" d="M656.95,-145.02C635.46,-139.62 611.99,-133.72 591.22,-128.51"/>
<polygon fill="midnightblue" stroke="midnightblue" points="656.12,-148.42 666.67,-147.47 657.82,-141.63 656.12,-148.42"/>
</g>
</g>
</svg>
