<?xml version="1.0" encoding="UTF-8" standalone="no"?>
<!DOCTYPE svg PUBLIC "-//W3C//DTD SVG 1.1//EN"
 "http://www.w3.org/Graphics/SVG/1.1/DTD/svg11.dtd">
<!-- Generated by graphviz version 2.43.0 (0)
 -->
<!-- Title: pb_read Pages: 1 -->
<!--zoomable 337 -->
<svg id="main" version="1.1" xmlns="http://www.w3.org/2000/svg" xmlns:xlink="http://www.w3.org/1999/xlink" xml:space="preserve" onload="init(evt)">
<style type="text/css"><![CDATA[
.edge:hover path { stroke: red; }
.edge:hover polygon { stroke: red; fill: red; }
]]></style>
<script type="text/javascript"><![CDATA[
var edges = document.getElementsByTagName('g');
if (edges && edges.length) {
  for (var i=0;i<edges.length;i++) {
    if (edges[i].id.substr(0,4)=='edge') {
      edges[i].setAttribute('class','edge');
    }
  }
}
]]></script>
        <defs>
                <circle id="rim" cx="0" cy="0" r="7"/>
                <circle id="rim2" cx="0" cy="0" r="3.5"/>
                <g id="zoomPlus">
                        <use xlink:href="#rim" fill="#404040">
                                <set attributeName="fill" to="#808080" begin="zoomplus.mouseover" end="zoomplus.mouseout"/>
                        </use>
                        <path d="M-4,0h8M0,-4v8" fill="none" stroke="white" stroke-width="1.5" pointer-events="none"/>
                </g>
                <g id="zoomMin">
                        <use xlink:href="#rim" fill="#404040">
                                <set attributeName="fill" to="#808080" begin="zoomminus.mouseover" end="zoomminus.mouseout"/>
                        </use>
                        <path d="M-4,0h8" fill="none" stroke="white" stroke-width="1.5" pointer-events="none"/>
                </g>
                <g id="dirArrow">
                        <path fill="none" stroke="white" stroke-width="1.5" d="M0,-3.0v7 M-2.5,-0.5L0,-3.0L2.5,-0.5"/>
                </g>
               <g id="resetDef">
                       <use xlink:href="#rim2" fill="#404040">
                               <set attributeName="fill" to="#808080" begin="reset.mouseover" end="reset.mouseout"/>
                       </use>
               </g>
        </defs>

<script type="text/javascript">
var viewWidth = 1723;
var viewHeight = 337;
var sectionId = 'dynsection-23';
</script>
<script xlink:href="svgpan.js"/>
<svg id="graph" class="graph">
<g id="viewport">
<title>pb_read</title>
<polygon fill="white" stroke="transparent" points="-4,4 -4,-332.5 1719,-332.5 1719,4 -4,4"/>
<!-- Node1 -->
<g id="node1" class="node">
<title>Node1</title>
<g id="a_node1"><a xlink:title=" ">
<polygon fill="#bfbfbf" stroke="black" points="1664,-176 1664,-195 1715,-195 1715,-176 1664,-176"/>
<text text-anchor="middle" x="1689.5" y="-183" font-family="Helvetica,sans-Serif" font-size="10.00">pb_read</text>
</a>
</g>
</g>
<!-- Node2 -->
<g id="node2" class="node">
<title>Node2</title>
<g id="a_node2"><a xlink:href="pb__decode_8c.html#a15f2b12ed6c126fe4e54c7ae0b588cb3" target="_top" xlink:title=" ">
<polygon fill="white" stroke="black" points="1539,-309 1539,-328 1616,-328 1616,-309 1539,-309"/>
<text text-anchor="middle" x="1577.5" y="-316" font-family="Helvetica,sans-Serif" font-size="10.00">pb_dec_bytes</text>
</a>
</g>
</g>
<!-- Node1&#45;&gt;Node2 -->
<g id="edge1" class="edge">
<title>Node1&#45;&gt;Node2</title>
<path fill="none" stroke="midnightblue" d="M1682.87,-205.05C1674.69,-230.17 1657.23,-273.62 1628,-299.5 1623.66,-303.34 1618.46,-306.45 1613.08,-308.94"/>
<polygon fill="midnightblue" stroke="midnightblue" points="1686.3,-205.8 1685.9,-195.21 1679.61,-203.74 1686.3,-205.8"/>
</g>
<!-- Node3 -->
<g id="node3" class="node">
<title>Node3</title>
<g id="a_node3"><a xlink:href="pb__decode_8c.html#ac5cddfbfd98fb7a18ce912e1ee6405d4" target="_top" xlink:title=" ">
<polygon fill="white" stroke="black" points="1539,-271 1539,-290 1616,-290 1616,-271 1539,-271"/>
<text text-anchor="middle" x="1577.5" y="-278" font-family="Helvetica,sans-Serif" font-size="10.00">pb_dec_string</text>
</a>
</g>
</g>
<!-- Node1&#45;&gt;Node3 -->
<g id="edge2" class="edge">
<title>Node1&#45;&gt;Node3</title>
<path fill="none" stroke="midnightblue" d="M1677.8,-204.01C1667.12,-221.03 1649.26,-245.92 1628,-261.5 1622.88,-265.25 1616.92,-268.37 1610.95,-270.91"/>
<polygon fill="midnightblue" stroke="midnightblue" points="1681.05,-205.39 1683.23,-195.02 1675.06,-201.77 1681.05,-205.39"/>
</g>
<!-- Node4 -->
<g id="node4" class="node">
<title>Node4</title>
<g id="a_node4"><a xlink:href="pb__decode_8c.html#a314808b2293f16165a056be4f3dc28d6" target="_top" xlink:title=" ">
<polygon fill="white" stroke="black" points="1527,-233 1527,-252 1628,-252 1628,-233 1527,-233"/>
<text text-anchor="middle" x="1577.5" y="-240" font-family="Helvetica,sans-Serif" font-size="10.00">pb_decode_fixed32</text>
</a>
</g>
</g>
<!-- Node1&#45;&gt;Node4 -->
<g id="edge3" class="edge">
<title>Node1&#45;&gt;Node4</title>
<path fill="none" stroke="midnightblue" d="M1666.67,-200.65C1655.42,-208.09 1641.31,-216.85 1628,-223.5 1621.08,-226.96 1613.38,-230.19 1606.14,-232.98"/>
<polygon fill="midnightblue" stroke="midnightblue" points="1668.67,-203.53 1675.01,-195.04 1664.76,-197.72 1668.67,-203.53"/>
</g>
<!-- Node6 -->
<g id="node6" class="node">
<title>Node6</title>
<g id="a_node6"><a xlink:href="pb__decode_8c.html#abdd5881d0bc42df1a78d46f487065681" target="_top" xlink:title=" ">
<polygon fill="white" stroke="black" points="1527,-195 1527,-214 1628,-214 1628,-195 1527,-195"/>
<text text-anchor="middle" x="1577.5" y="-202" font-family="Helvetica,sans-Serif" font-size="10.00">pb_decode_fixed64</text>
</a>
</g>
</g>
<!-- Node1&#45;&gt;Node6 -->
<g id="edge5" class="edge">
<title>Node1&#45;&gt;Node6</title>
<path fill="none" stroke="midnightblue" d="M1653.95,-191.47C1645.81,-192.87 1636.98,-194.4 1628.32,-195.89"/>
<polygon fill="midnightblue" stroke="midnightblue" points="1654.56,-194.92 1663.81,-189.76 1653.36,-188.02 1654.56,-194.92"/>
</g>
<!-- Node14 -->
<g id="node14" class="node">
<title>Node14</title>
<g id="a_node14"><a xlink:href="pb__decode_8c.html#ab5102942c8402c215f836364e1b775b1" target="_top" xlink:title=" ">
<polygon fill="white" stroke="black" points="1393,-107 1393,-126 1467,-126 1467,-107 1393,-107"/>
<text text-anchor="middle" x="1430" y="-114" font-family="Helvetica,sans-Serif" font-size="10.00">pb_skip_field</text>
</a>
</g>
</g>
<!-- Node1&#45;&gt;Node14 -->
<g id="edge13" class="edge">
<title>Node1&#45;&gt;Node14</title>
<path fill="none" stroke="midnightblue" d="M1653.99,-178.23C1621.15,-171.11 1570.44,-159.6 1527,-147.5 1503.72,-141.01 1477.64,-132.51 1458.55,-126.05"/>
<polygon fill="midnightblue" stroke="midnightblue" points="1653.48,-181.7 1663.99,-180.38 1654.95,-174.86 1653.48,-181.7"/>
</g>
<!-- Node26 -->
<g id="node26" class="node">
<title>Node26</title>
<g id="a_node26"><a xlink:href="pb__decode_8c.html#afa3e9c4da6d998fd6315d4cbd51b02e4" target="_top" xlink:title=" ">
<polygon fill="white" stroke="black" points="1537.5,-119 1537.5,-138 1617.5,-138 1617.5,-119 1537.5,-119"/>
<text text-anchor="middle" x="1577.5" y="-126" font-family="Helvetica,sans-Serif" font-size="10.00">pb_skip_string</text>
</a>
</g>
</g>
<!-- Node1&#45;&gt;Node26 -->
<g id="edge28" class="edge">
<title>Node1&#45;&gt;Node26</title>
<path fill="none" stroke="midnightblue" d="M1662.59,-171.01C1651.94,-165.15 1639.44,-158.39 1628,-152.5 1618.49,-147.6 1607.83,-142.4 1598.84,-138.09"/>
<polygon fill="midnightblue" stroke="midnightblue" points="1660.96,-174.11 1671.41,-175.89 1664.35,-167.99 1660.96,-174.11"/>
</g>
<!-- Node27 -->
<g id="node27" class="node">
<title>Node27</title>
<g id="a_node27"><a xlink:href="pb__decode_8c.html#a57738ceef4b30349437900b245a33c77" target="_top" xlink:title=" ">
<polygon fill="white" stroke="black" points="1537.5,-81 1537.5,-100 1617.5,-100 1617.5,-81 1537.5,-81"/>
<text text-anchor="middle" x="1577.5" y="-88" font-family="Helvetica,sans-Serif" font-size="10.00">pb_skip_varint</text>
</a>
</g>
</g>
<!-- Node1&#45;&gt;Node27 -->
<g id="edge30" class="edge">
<title>Node1&#45;&gt;Node27</title>
<path fill="none" stroke="midnightblue" d="M1677.8,-166.99C1667.12,-149.97 1649.26,-125.08 1628,-109.5 1622.88,-105.75 1616.92,-102.63 1610.95,-100.09"/>
<polygon fill="midnightblue" stroke="midnightblue" points="1675.06,-169.23 1683.23,-175.98 1681.05,-165.61 1675.06,-169.23"/>
</g>
<!-- Node28 -->
<g id="node28" class="node">
<title>Node28</title>
<g id="a_node28"><a xlink:href="pb__decode_8c.html#a3f23856ca4723854f204b46d5f10c3ec" target="_top" xlink:title=" ">
<polygon fill="white" stroke="black" points="1387.5,-45 1387.5,-64 1472.5,-64 1472.5,-45 1387.5,-45"/>
<text text-anchor="middle" x="1430" y="-52" font-family="Helvetica,sans-Serif" font-size="10.00">read_raw_value</text>
</a>
</g>
</g>
<!-- Node1&#45;&gt;Node28 -->
<g id="edge32" class="edge">
<title>Node1&#45;&gt;Node28</title>
<path fill="none" stroke="midnightblue" d="M1684.19,-165.77C1677.29,-139.37 1661.03,-93.35 1628,-71.5 1581.76,-40.91 1515.46,-42.15 1472.81,-47.23"/>
<polygon fill="midnightblue" stroke="midnightblue" points="1680.85,-166.85 1686.6,-175.76 1687.66,-165.21 1680.85,-166.85"/>
</g>
<!-- Node5 -->
<g id="node5" class="node">
<title>Node5</title>
<g id="a_node5"><a xlink:href="pb__decode_8c.html#aa8a208f31461478599b828a29ebad089" target="_top" xlink:title=" ">
<polygon fill="white" stroke="black" points="1387.5,-233 1387.5,-252 1472.5,-252 1472.5,-233 1387.5,-233"/>
<text text-anchor="middle" x="1430" y="-240" font-family="Helvetica,sans-Serif" font-size="10.00">pb_dec_fixed32</text>
</a>
</g>
</g>
<!-- Node4&#45;&gt;Node5 -->
<g id="edge4" class="edge">
<title>Node4&#45;&gt;Node5</title>
<path fill="none" stroke="midnightblue" d="M1516.74,-242.5C1501.95,-242.5 1486.42,-242.5 1472.7,-242.5"/>
<polygon fill="midnightblue" stroke="midnightblue" points="1516.83,-246 1526.83,-242.5 1516.83,-239 1516.83,-246"/>
</g>
<!-- Node7 -->
<g id="node7" class="node">
<title>Node7</title>
<g id="a_node7"><a xlink:href="pb__frimessages__callbacks_8c.html#ac9ec67cd47aed6ee622a420a41fa6540" target="_top" xlink:title=" ">
<polygon fill="white" stroke="black" points="1369,-157 1369,-176 1491,-176 1491,-157 1369,-157"/>
<text text-anchor="middle" x="1430" y="-164" font-family="Helvetica,sans-Serif" font-size="10.00">decode_repeatedDouble</text>
</a>
</g>
</g>
<!-- Node6&#45;&gt;Node7 -->
<g id="edge6" class="edge">
<title>Node6&#45;&gt;Node7</title>
<path fill="none" stroke="midnightblue" d="M1529.85,-192.32C1509.65,-187.04 1486.35,-180.96 1467.45,-176.02"/>
<polygon fill="midnightblue" stroke="midnightblue" points="1529.22,-195.77 1539.78,-194.91 1530.99,-189 1529.22,-195.77"/>
</g>
<!-- Node13 -->
<g id="node13" class="node">
<title>Node13</title>
<g id="a_node13"><a xlink:href="pb__decode_8c.html#af959e63ff9d1e5c19d7a05d005ab72b7" target="_top" xlink:title=" ">
<polygon fill="white" stroke="black" points="1387.5,-195 1387.5,-214 1472.5,-214 1472.5,-195 1387.5,-195"/>
<text text-anchor="middle" x="1430" y="-202" font-family="Helvetica,sans-Serif" font-size="10.00">pb_dec_fixed64</text>
</a>
</g>
</g>
<!-- Node6&#45;&gt;Node13 -->
<g id="edge12" class="edge">
<title>Node6&#45;&gt;Node13</title>
<path fill="none" stroke="midnightblue" d="M1516.74,-204.5C1501.95,-204.5 1486.42,-204.5 1472.7,-204.5"/>
<polygon fill="midnightblue" stroke="midnightblue" points="1516.83,-208 1526.83,-204.5 1516.83,-201 1516.83,-208"/>
</g>
<!-- Node8 -->
<g id="node8" class="node">
<title>Node8</title>
<g id="a_node8"><a xlink:href="pb__frimessages__callbacks_8c.html#a5283f13633c8400371ab65d44d905901" target="_top" xlink:title=" ">
<polygon fill="white" stroke="black" points="1222,-157 1222,-176 1331,-176 1331,-157 1222,-157"/>
<text text-anchor="middle" x="1276.5" y="-164" font-family="Helvetica,sans-Serif" font-size="10.00">map_repeatedDouble</text>
</a>
</g>
</g>
<!-- Node7&#45;&gt;Node8 -->
<g id="edge7" class="edge">
<title>Node7&#45;&gt;Node8</title>
<path fill="none" stroke="midnightblue" d="M1358.43,-166.5C1349.29,-166.5 1340.04,-166.5 1331.23,-166.5"/>
<polygon fill="midnightblue" stroke="midnightblue" points="1358.69,-170 1368.69,-166.5 1358.69,-163 1358.69,-170"/>
</g>
<!-- Node9 -->
<g id="node9" class="node">
<title>Node9</title>
<g id="a_node9"><a xlink:href="class_k_u_k_a_1_1_f_r_i_1_1_command_message_encoder.html#a40f5b848100484d0e4fdbf6a80d79dac" target="_top" xlink:title=" ">
<polygon fill="white" stroke="black" points="1026,-198.5 1026,-228.5 1184,-228.5 1184,-198.5 1026,-198.5"/>
<text text-anchor="start" x="1034" y="-216.5" font-family="Helvetica,sans-Serif" font-size="10.00">KUKA::FRI::CommandMessage</text>
<text text-anchor="middle" x="1105" y="-205.5" font-family="Helvetica,sans-Serif" font-size="10.00">Encoder::initMessage</text>
</a>
</g>
</g>
<!-- Node8&#45;&gt;Node9 -->
<g id="edge8" class="edge">
<title>Node8&#45;&gt;Node9</title>
<path fill="none" stroke="midnightblue" d="M1231.56,-178.68C1209.79,-184.72 1183.3,-192.07 1160.27,-198.45"/>
<polygon fill="midnightblue" stroke="midnightblue" points="1232.5,-182.06 1241.2,-176.01 1230.63,-175.31 1232.5,-182.06"/>
</g>
<!-- Node11 -->
<g id="node11" class="node">
<title>Node11</title>
<g id="a_node11"><a xlink:href="class_k_u_k_a_1_1_f_r_i_1_1_monitoring_message_decoder.html#a5f7d8c50c6b2275a90ee8053eeeeda0a" target="_top" xlink:title=" ">
<polygon fill="white" stroke="black" points="1026,-149.5 1026,-179.5 1184,-179.5 1184,-149.5 1026,-149.5"/>
<text text-anchor="start" x="1034" y="-167.5" font-family="Helvetica,sans-Serif" font-size="10.00">KUKA::FRI::MonitoringMessage</text>
<text text-anchor="middle" x="1105" y="-156.5" font-family="Helvetica,sans-Serif" font-size="10.00">Decoder::initMessage</text>
</a>
</g>
</g>
<!-- Node8&#45;&gt;Node11 -->
<g id="edge10" class="edge">
<title>Node8&#45;&gt;Node11</title>
<path fill="none" stroke="midnightblue" d="M1211.81,-165.75C1202.75,-165.64 1193.35,-165.53 1184.05,-165.42"/>
<polygon fill="midnightblue" stroke="midnightblue" points="1211.83,-169.25 1221.87,-165.87 1211.91,-162.25 1211.83,-169.25"/>
</g>
<!-- Node10 -->
<g id="node10" class="node">
<title>Node10</title>
<g id="a_node10"><a xlink:href="class_k_u_k_a_1_1_f_r_i_1_1_command_message_encoder.html#ab48adf8c90670d6c7bcbd82d108f9f47" target="_top" xlink:title=" ">
<polygon fill="white" stroke="black" points="810,-198.5 810,-228.5 989,-228.5 989,-198.5 810,-198.5"/>
<text text-anchor="start" x="818" y="-216.5" font-family="Helvetica,sans-Serif" font-size="10.00">KUKA::FRI::CommandMessage</text>
<text text-anchor="middle" x="899.5" y="-205.5" font-family="Helvetica,sans-Serif" font-size="10.00">Encoder::CommandMessageEncoder</text>
</a>
</g>
</g>
<!-- Node9&#45;&gt;Node10 -->
<g id="edge9" class="edge">
<title>Node9&#45;&gt;Node10</title>
<path fill="none" stroke="midnightblue" d="M1015.69,-213.5C1006.92,-213.5 998.02,-213.5 989.25,-213.5"/>
<polygon fill="midnightblue" stroke="midnightblue" points="1015.9,-217 1025.9,-213.5 1015.9,-210 1015.9,-217"/>
</g>
<!-- Node12 -->
<g id="node12" class="node">
<title>Node12</title>
<g id="a_node12"><a xlink:href="class_k_u_k_a_1_1_f_r_i_1_1_monitoring_message_decoder.html#a839c031de8bf792b17b612fc6ef91d05" target="_top" xlink:title=" ">
<polygon fill="white" stroke="black" points="809,-149.5 809,-179.5 990,-179.5 990,-149.5 809,-149.5"/>
<text text-anchor="start" x="817" y="-167.5" font-family="Helvetica,sans-Serif" font-size="10.00">KUKA::FRI::MonitoringMessage</text>
<text text-anchor="middle" x="899.5" y="-156.5" font-family="Helvetica,sans-Serif" font-size="10.00">Decoder::MonitoringMessageDecoder</text>
</a>
</g>
</g>
<!-- Node11&#45;&gt;Node12 -->
<g id="edge11" class="edge">
<title>Node11&#45;&gt;Node12</title>
<path fill="none" stroke="midnightblue" d="M1015.7,-164.5C1007.27,-164.5 998.72,-164.5 990.28,-164.5"/>
<polygon fill="midnightblue" stroke="midnightblue" points="1015.9,-168 1025.9,-164.5 1015.9,-161 1015.9,-168"/>
</g>
<!-- Node15 -->
<g id="node15" class="node">
<title>Node15</title>
<g id="a_node15"><a xlink:href="pb__decode_8c.html#a69a78d2efcd4b9057215ac8b79a5eb2b" target="_top" xlink:title=" ">
<polygon fill="white" stroke="black" points="1220,-61 1220,-80 1333,-80 1333,-61 1220,-61"/>
<text text-anchor="middle" x="1276.5" y="-68" font-family="Helvetica,sans-Serif" font-size="10.00">decode_callback_field</text>
</a>
</g>
</g>
<!-- Node14&#45;&gt;Node15 -->
<g id="edge14" class="edge">
<title>Node14&#45;&gt;Node15</title>
<path fill="none" stroke="midnightblue" d="M1387.73,-103.97C1362.86,-96.42 1331.69,-86.95 1308.85,-80.02"/>
<polygon fill="midnightblue" stroke="midnightblue" points="1387.02,-107.41 1397.61,-106.97 1389.06,-100.71 1387.02,-107.41"/>
</g>
<!-- Node19 -->
<g id="node19" class="node">
<title>Node19</title>
<g id="a_node19"><a xlink:href="pb__decode_8c.html#a0c0f95a964239344d503e724818e8fc0" target="_top" xlink:title=" ">
<polygon fill="white" stroke="black" points="550,-69 550,-88 642,-88 642,-69 550,-69"/>
<text text-anchor="middle" x="596" y="-76" font-family="Helvetica,sans-Serif" font-size="10.00">pb_decode_noinit</text>
</a>
</g>
</g>
<!-- Node14&#45;&gt;Node19 -->
<g id="edge27" class="edge">
<title>Node14&#45;&gt;Node19</title>
<path fill="none" stroke="midnightblue" d="M1382.31,-116.5C1319.51,-116.5 1204.33,-116.5 1106,-116.5 1106,-116.5 1106,-116.5 898.5,-116.5 800.14,-116.5 775.14,-112.99 678,-97.5 663.02,-95.11 646.71,-91.49 632.67,-88.04"/>
<polygon fill="midnightblue" stroke="midnightblue" points="1382.67,-120 1392.67,-116.5 1382.67,-113 1382.67,-120"/>
</g>
<!-- Node16 -->
<g id="node16" class="node">
<title>Node16</title>
<g id="a_node16"><a xlink:href="pb__decode_8c.html#a48151430d329252cc54fd9764dd820f7" target="_top" xlink:title=" ">
<polygon fill="white" stroke="black" points="1069.5,-61 1069.5,-80 1140.5,-80 1140.5,-61 1069.5,-61"/>
<text text-anchor="middle" x="1105" y="-68" font-family="Helvetica,sans-Serif" font-size="10.00">decode_field</text>
</a>
</g>
</g>
<!-- Node15&#45;&gt;Node16 -->
<g id="edge15" class="edge">
<title>Node15&#45;&gt;Node16</title>
<path fill="none" stroke="midnightblue" d="M1209.69,-70.5C1186.12,-70.5 1160.49,-70.5 1140.6,-70.5"/>
<polygon fill="midnightblue" stroke="midnightblue" points="1210,-74 1220,-70.5 1210,-67 1210,-74"/>
</g>
<!-- Node17 -->
<g id="node17" class="node">
<title>Node17</title>
<g id="a_node17"><a xlink:href="pb__decode_8c.html#a7c09905fda4c6398697bcf0d42882c04" target="_top" xlink:title=" ">
<polygon fill="white" stroke="black" points="833,-69 833,-88 966,-88 966,-69 833,-69"/>
<text text-anchor="middle" x="899.5" y="-76" font-family="Helvetica,sans-Serif" font-size="10.00">default_extension_decoder</text>
</a>
</g>
</g>
<!-- Node16&#45;&gt;Node17 -->
<g id="edge16" class="edge">
<title>Node16&#45;&gt;Node17</title>
<path fill="none" stroke="midnightblue" d="M1059.43,-72.25C1032.09,-73.33 996.61,-74.72 966.1,-75.92"/>
<polygon fill="midnightblue" stroke="midnightblue" points="1059.62,-75.75 1069.48,-71.86 1059.35,-68.75 1059.62,-75.75"/>
</g>
<!-- Node16&#45;&gt;Node19 -->
<g id="edge26" class="edge">
<title>Node16&#45;&gt;Node19</title>
<path fill="none" stroke="midnightblue" d="M1059.17,-65.17C1038.19,-62.93 1012.85,-60.6 990,-59.5 851.49,-52.83 815.75,-43.56 678,-59.5 661.93,-61.36 644.42,-65.23 629.8,-68.99"/>
<polygon fill="midnightblue" stroke="midnightblue" points="1059.07,-68.68 1069.39,-66.29 1059.83,-61.72 1059.07,-68.68"/>
</g>
<!-- Node18 -->
<g id="node18" class="node">
<title>Node18</title>
<g id="a_node18"><a xlink:href="pb__decode_8c.html#a30eb2ecefe2a2095c1c668e3932b63fc" target="_top" xlink:title=" ">
<polygon fill="white" stroke="black" points="678,-69 678,-88 773,-88 773,-69 678,-69"/>
<text text-anchor="middle" x="725.5" y="-76" font-family="Helvetica,sans-Serif" font-size="10.00">decode_extension</text>
</a>
</g>
</g>
<!-- Node17&#45;&gt;Node18 -->
<g id="edge17" class="edge">
<title>Node17&#45;&gt;Node18</title>
<path fill="none" stroke="midnightblue" d="M822.59,-78.5C805.75,-78.5 788.38,-78.5 773.13,-78.5"/>
<polygon fill="midnightblue" stroke="midnightblue" points="822.98,-82 832.98,-78.5 822.98,-75 822.98,-82"/>
</g>
<!-- Node18&#45;&gt;Node19 -->
<g id="edge18" class="edge">
<title>Node18&#45;&gt;Node19</title>
<path fill="none" stroke="midnightblue" d="M667.48,-78.5C658.96,-78.5 650.27,-78.5 642.05,-78.5"/>
<polygon fill="midnightblue" stroke="midnightblue" points="667.75,-82 677.75,-78.5 667.75,-75 667.75,-82"/>
</g>
<!-- Node20 -->
<g id="node20" class="node">
<title>Node20</title>
<g id="a_node20"><a xlink:href="pb__decode_8c.html#adb01106a062444577e9e3f3a047db2ef" target="_top" xlink:title=" ">
<polygon fill="white" stroke="black" points="280.5,-88 280.5,-107 389.5,-107 389.5,-88 280.5,-88"/>
<text text-anchor="middle" x="335" y="-95" font-family="Helvetica,sans-Serif" font-size="10.00">pb_dec_submessage</text>
</a>
</g>
</g>
<!-- Node19&#45;&gt;Node20 -->
<g id="edge19" class="edge">
<title>Node19&#45;&gt;Node20</title>
<path fill="none" stroke="midnightblue" d="M539.85,-82.55C495.48,-85.8 433.49,-90.35 389.55,-93.57"/>
<polygon fill="midnightblue" stroke="midnightblue" points="540.17,-86.03 549.89,-81.81 539.66,-79.05 540.17,-86.03"/>
</g>
<!-- Node21 -->
<g id="node21" class="node">
<title>Node21</title>
<g id="a_node21"><a xlink:href="pb__decode_8c.html#a75c9a727abe84bfaaef633ac68d48cfa" target="_top" xlink:title=" ">
<polygon fill="white" stroke="black" points="450,-50 450,-69 514,-69 514,-50 450,-50"/>
<text text-anchor="middle" x="482" y="-57" font-family="Helvetica,sans-Serif" font-size="10.00">pb_decode</text>
</a>
</g>
</g>
<!-- Node19&#45;&gt;Node21 -->
<g id="edge20" class="edge">
<title>Node19&#45;&gt;Node21</title>
<path fill="none" stroke="midnightblue" d="M539.9,-69.15C531.11,-67.66 522.29,-66.17 514.31,-64.81"/>
<polygon fill="midnightblue" stroke="midnightblue" points="539.32,-72.6 549.77,-70.83 540.49,-65.7 539.32,-72.6"/>
</g>
<!-- Node21&#45;&gt;Node20 -->
<g id="edge24" class="edge">
<title>Node21&#45;&gt;Node20</title>
<path fill="none" stroke="midnightblue" d="M439.92,-71.41C431.37,-73.82 422.4,-76.29 414,-78.5 401.87,-81.7 388.63,-84.99 376.56,-87.93"/>
<polygon fill="midnightblue" stroke="midnightblue" points="441.04,-74.73 449.71,-68.64 439.13,-68 441.04,-74.73"/>
</g>
<!-- Node22 -->
<g id="node22" class="node">
<title>Node22</title>
<g id="a_node22"><a xlink:href="class_k_u_k_a_1_1_f_r_i_1_1_monitoring_message_decoder.html#aa72fb1e622847a636e6f5d7ac4770103" target="_top" xlink:title=" ">
<polygon fill="white" stroke="black" points="256,-0.5 256,-30.5 414,-30.5 414,-0.5 256,-0.5"/>
<text text-anchor="start" x="264" y="-18.5" font-family="Helvetica,sans-Serif" font-size="10.00">KUKA::FRI::MonitoringMessage</text>
<text text-anchor="middle" x="335" y="-7.5" font-family="Helvetica,sans-Serif" font-size="10.00">Decoder::decode</text>
</a>
</g>
</g>
<!-- Node21&#45;&gt;Node22 -->
<g id="edge21" class="edge">
<title>Node21&#45;&gt;Node22</title>
<path fill="none" stroke="midnightblue" d="M440.27,-47.14C423.29,-41.99 403.41,-35.96 385.59,-30.55"/>
<polygon fill="midnightblue" stroke="midnightblue" points="439.31,-50.51 449.89,-50.06 441.34,-43.81 439.31,-50.51"/>
</g>
<!-- Node25 -->
<g id="node25" class="node">
<title>Node25</title>
<g id="a_node25"><a xlink:href="pb__decode_8c.html#a7c030d7dee687e354a62a72d45dca39b" target="_top" xlink:title=" ">
<polygon fill="white" stroke="black" points="281,-50 281,-69 389,-69 389,-50 281,-50"/>
<text text-anchor="middle" x="335" y="-57" font-family="Helvetica,sans-Serif" font-size="10.00">pb_decode_delimited</text>
</a>
</g>
</g>
<!-- Node21&#45;&gt;Node25 -->
<g id="edge25" class="edge">
<title>Node21&#45;&gt;Node25</title>
<path fill="none" stroke="midnightblue" d="M439.45,-59.5C423.74,-59.5 405.65,-59.5 389.03,-59.5"/>
<polygon fill="midnightblue" stroke="midnightblue" points="439.89,-63 449.89,-59.5 439.89,-56 439.89,-63"/>
</g>
<!-- Node23 -->
<g id="node23" class="node">
<title>Node23</title>
<g id="a_node23"><a xlink:href="class_k_u_k_a_1_1_f_r_i_1_1_client_application.html#a9939bfd1fa78c59dc3675a6d2a5de7a7" target="_top" xlink:title="Run a single processing step.">
<polygon fill="white" stroke="black" points="74,-0.5 74,-30.5 220,-30.5 220,-0.5 74,-0.5"/>
<text text-anchor="start" x="82" y="-18.5" font-family="Helvetica,sans-Serif" font-size="10.00">KUKA::FRI::ClientApplication</text>
<text text-anchor="middle" x="147" y="-7.5" font-family="Helvetica,sans-Serif" font-size="10.00">::step</text>
</a>
</g>
</g>
<!-- Node22&#45;&gt;Node23 -->
<g id="edge22" class="edge">
<title>Node22&#45;&gt;Node23</title>
<path fill="none" stroke="midnightblue" d="M245.88,-15.5C237.29,-15.5 228.65,-15.5 220.24,-15.5"/>
<polygon fill="midnightblue" stroke="midnightblue" points="245.93,-19 255.93,-15.5 245.93,-12 245.93,-19"/>
</g>
<!-- Node24 -->
<g id="node24" class="node">
<title>Node24</title>
<g id="a_node24"><a xlink:href="_i_o_access_app_8cpp.html#a3c04138a5bfe5d72780bb7e82a18e627" target="_top" xlink:title=" ">
<polygon fill="white" stroke="black" points="0,-6 0,-25 38,-25 38,-6 0,-6"/>
<text text-anchor="middle" x="19" y="-13" font-family="Helvetica,sans-Serif" font-size="10.00">main</text>
</a>
</g>
</g>
<!-- Node23&#45;&gt;Node24 -->
<g id="edge23" class="edge">
<title>Node23&#45;&gt;Node24</title>
<path fill="none" stroke="midnightblue" d="M63.74,-15.5C54.28,-15.5 45.45,-15.5 38.25,-15.5"/>
<polygon fill="midnightblue" stroke="midnightblue" points="63.8,-19 73.8,-15.5 63.8,-12 63.8,-19"/>
</g>
<!-- Node26&#45;&gt;Node14 -->
<g id="edge29" class="edge">
<title>Node26&#45;&gt;Node14</title>
<path fill="none" stroke="midnightblue" d="M1527.16,-124.43C1507.58,-122.82 1485.48,-120.99 1467.41,-119.5"/>
<polygon fill="midnightblue" stroke="midnightblue" points="1526.87,-127.92 1537.13,-125.25 1527.45,-120.94 1526.87,-127.92"/>
</g>
<!-- Node27&#45;&gt;Node14 -->
<g id="edge31" class="edge">
<title>Node27&#45;&gt;Node14</title>
<path fill="none" stroke="midnightblue" d="M1527.16,-99.32C1507.58,-102.81 1485.48,-106.76 1467.41,-109.99"/>
<polygon fill="midnightblue" stroke="midnightblue" points="1527.9,-102.74 1537.13,-97.54 1526.67,-95.85 1527.9,-102.74"/>
</g>
<!-- Node28&#45;&gt;Node15 -->
<g id="edge33" class="edge">
<title>Node28&#45;&gt;Node15</title>
<path fill="none" stroke="midnightblue" d="M1377.11,-59.98C1362.91,-61.48 1347.46,-63.11 1333.07,-64.63"/>
<polygon fill="midnightblue" stroke="midnightblue" points="1377.62,-63.45 1387.2,-58.91 1376.89,-56.48 1377.62,-63.45"/>
</g>
</g>
</svg>
        <g id="navigator" transform="translate(0 0)" fill="#404254">
                <rect fill="#f2f5e9" fill-opacity="0.5" stroke="#606060" stroke-width=".5" x="0" y="0" width="60" height="60"/>
                <use id="zoomplus" xlink:href="#zoomPlus" x="17" y="9" onmousedown="handleZoom(evt,'in')"/>
                <use id="zoomminus" xlink:href="#zoomMin" x="42" y="9" onmousedown="handleZoom(evt,'out')"/>
                <use id="reset" xlink:href="#resetDef" x="30" y="36" onmousedown="handleReset()"/>
                <g id="arrowUp" xlink:href="#dirArrow" transform="translate(30 24)" onmousedown="handlePan(0,-1)">
                  <use xlink:href="#rim" fill="#404040">
                        <set attributeName="fill" to="#808080" begin="arrowUp.mouseover" end="arrowUp.mouseout"/>
                  </use>
                  <path fill="none" stroke="white" stroke-width="1.5" d="M0,-3.0v7 M-2.5,-0.5L0,-3.0L2.5,-0.5"/>
                </g>
                <g id="arrowRight" xlink:href="#dirArrow" transform="rotate(90) translate(36 -43)" onmousedown="handlePan(1,0)">
                  <use xlink:href="#rim" fill="#404040">
                        <set attributeName="fill" to="#808080" begin="arrowRight.mouseover" end="arrowRight.mouseout"/>
                  </use>
                  <path fill="none" stroke="white" stroke-width="1.5" d="M0,-3.0v7 M-2.5,-0.5L0,-3.0L2.5,-0.5"/>
                </g>
                <g id="arrowDown" xlink:href="#dirArrow" transform="rotate(180) translate(-30 -48)" onmousedown="handlePan(0,1)">
                  <use xlink:href="#rim" fill="#404040">
                        <set attributeName="fill" to="#808080" begin="arrowDown.mouseover" end="arrowDown.mouseout"/>
                  </use>
                  <path fill="none" stroke="white" stroke-width="1.5" d="M0,-3.0v7 M-2.5,-0.5L0,-3.0L2.5,-0.5"/>
                </g>
                <g id="arrowLeft" xlink:href="#dirArrow" transform="rotate(270) translate(-36 17)" onmousedown="handlePan(-1,0)">
                  <use xlink:href="#rim" fill="#404040">
                        <set attributeName="fill" to="#808080" begin="arrowLeft.mouseover" end="arrowLeft.mouseout"/>
                  </use>
                  <path fill="none" stroke="white" stroke-width="1.5" d="M0,-3.0v7 M-2.5,-0.5L0,-3.0L2.5,-0.5"/>
                </g>
        </g>
        <svg viewBox="0 0 15 15" width="100%" height="30px" preserveAspectRatio="xMaxYMin meet">
         <g id="arrow_out" transform="scale(0.3 0.3)">
          <a xlink:href="pb__decode_8h_a81cd2e3722eccc181a5b73e447349471_icgraph_org.svg" target="_base">
           <rect id="button" ry="5" rx="5" y="6" x="6" height="38" width="38"
                fill="#f2f5e9" fill-opacity="0.5" stroke="#606060" stroke-width="1.0"/>
           <path id="arrow"
             d="M 11.500037,31.436501 C 11.940474,20.09759 22.043105,11.32322 32.158766,21.979434 L 37.068811,17.246167 C 37.068811,17.246167 37.088388,32 37.088388,32 L 22.160133,31.978069 C 22.160133,31.978069 26.997745,27.140456 26.997745,27.140456 C 18.528582,18.264221 13.291696,25.230495 11.500037,31.436501 z"
             style="fill:#404040;"/>
          </a>
         </g>
        </svg>
</svg>
