<?xml version="1.0" encoding="UTF-8" standalone="no"?>
<!DOCTYPE svg PUBLIC "-//W3C//DTD SVG 1.1//EN"
 "http://www.w3.org/Graphics/SVG/1.1/DTD/svg11.dtd">
<!-- Generated by graphviz version 2.43.0 (0)
 -->
<!-- Title: default_extension_encoder Pages: 1 -->
<svg width="1095pt" height="142pt"
 viewBox="0.00 0.00 1095.00 142.00" xmlns="http://www.w3.org/2000/svg" xmlns:xlink="http://www.w3.org/1999/xlink">
<g id="graph0" class="graph" transform="scale(1 1) rotate(0) translate(4 138)">
<title>default_extension_encoder</title>
<polygon fill="white" stroke="transparent" points="-4,4 -4,-138 1091,-138 1091,4 -4,4"/>
<!-- Node1 -->
<g id="node1" class="node">
<title>Node1</title>
<g id="a_node1"><a xlink:title=" ">
<polygon fill="#bfbfbf" stroke="black" points="0,-19.5 0,-38.5 133,-38.5 133,-19.5 0,-19.5"/>
<text text-anchor="middle" x="66.5" y="-26.5" font-family="Helvetica,sans-Serif" font-size="10.00">default_extension_encoder</text>
</a>
</g>
</g>
<!-- Node2 -->
<g id="node2" class="node">
<title>Node2</title>
<g id="a_node2"><a xlink:href="pb__encode_8c.html#a8aa23313175c09e050e2acbc54a17bd4" target="_top" xlink:title=" ">
<polygon fill="white" stroke="black" points="169,-19.5 169,-38.5 240,-38.5 240,-19.5 169,-19.5"/>
<text text-anchor="middle" x="204.5" y="-26.5" font-family="Helvetica,sans-Serif" font-size="10.00">encode_field</text>
</a>
</g>
</g>
<!-- Node1&#45;&gt;Node2 -->
<g id="edge1" class="edge">
<title>Node1&#45;&gt;Node2</title>
<path fill="none" stroke="midnightblue" d="M133.11,-29C141.8,-29 150.55,-29 158.77,-29"/>
<polygon fill="midnightblue" stroke="midnightblue" points="158.88,-32.5 168.88,-29 158.88,-25.5 158.88,-32.5"/>
</g>
<!-- Node3 -->
<g id="node3" class="node">
<title>Node3</title>
<g id="a_node3"><a xlink:href="pb__encode_8c.html#a1f186424780069ab183fb7d2360d274e" target="_top" xlink:title=" ">
<polygon fill="white" stroke="black" points="282.5,-38.5 282.5,-57.5 382.5,-57.5 382.5,-38.5 282.5,-38.5"/>
<text text-anchor="middle" x="332.5" y="-45.5" font-family="Helvetica,sans-Serif" font-size="10.00">encode_basic_field</text>
</a>
</g>
</g>
<!-- Node2&#45;&gt;Node3 -->
<g id="edge2" class="edge">
<title>Node2&#45;&gt;Node3</title>
<path fill="none" stroke="midnightblue" d="M240.26,-34.24C250.19,-35.74 261.3,-37.41 272.25,-39.07"/>
<polygon fill="midnightblue" stroke="midnightblue" points="271.82,-42.54 282.23,-40.57 272.86,-35.62 271.82,-42.54"/>
</g>
<!-- Node10 -->
<g id="node10" class="node">
<title>Node10</title>
<g id="a_node10"><a xlink:href="pb__encode_8c.html#aacffda1f85cad8e448a183dcc6c13559" target="_top" xlink:title=" ">
<polygon fill="white" stroke="black" points="276,-0.5 276,-19.5 389,-19.5 389,-0.5 276,-0.5"/>
<text text-anchor="middle" x="332.5" y="-7.5" font-family="Helvetica,sans-Serif" font-size="10.00">encode_callback_field</text>
</a>
</g>
</g>
<!-- Node2&#45;&gt;Node10 -->
<g id="edge13" class="edge">
<title>Node2&#45;&gt;Node10</title>
<path fill="none" stroke="midnightblue" d="M240.26,-23.76C248.2,-22.56 256.9,-21.25 265.66,-19.93"/>
<polygon fill="midnightblue" stroke="midnightblue" points="266.19,-23.39 275.55,-18.44 265.14,-16.47 266.19,-23.39"/>
</g>
<!-- Node4 -->
<g id="node4" class="node">
<title>Node4</title>
<g id="a_node4"><a xlink:href="pb__encode_8c.html#afb8fc9e49589eaae694eff25c858a19c" target="_top" xlink:title=" ">
<polygon fill="white" stroke="black" points="425,-57.5 425,-76.5 500,-76.5 500,-57.5 425,-57.5"/>
<text text-anchor="middle" x="462.5" y="-64.5" font-family="Helvetica,sans-Serif" font-size="10.00">encode_array</text>
</a>
</g>
</g>
<!-- Node3&#45;&gt;Node4 -->
<g id="edge3" class="edge">
<title>Node3&#45;&gt;Node4</title>
<path fill="none" stroke="midnightblue" d="M382.62,-55.29C393.09,-56.85 404.12,-58.48 414.51,-60.02"/>
<polygon fill="midnightblue" stroke="midnightblue" points="414.23,-63.52 424.64,-61.53 415.26,-56.6 414.23,-63.52"/>
</g>
<!-- Node9 -->
<g id="node9" class="node">
<title>Node9</title>
<g id="a_node9"><a xlink:href="pb__encode_8c.html#a3e0f1ac29dce37f78220ecd6b9d21cba" target="_top" xlink:title=" ">
<polygon fill="white" stroke="black" points="536,-19.5 536,-38.5 658,-38.5 658,-19.5 536,-19.5"/>
<text text-anchor="middle" x="597" y="-26.5" font-family="Helvetica,sans-Serif" font-size="10.00">pb_encode_tag_for_field</text>
</a>
</g>
</g>
<!-- Node3&#45;&gt;Node9 -->
<g id="edge12" class="edge">
<title>Node3&#45;&gt;Node9</title>
<path fill="none" stroke="midnightblue" d="M382.57,-44.45C422.85,-41.53 480.42,-37.37 525.62,-34.09"/>
<polygon fill="midnightblue" stroke="midnightblue" points="525.92,-37.58 535.65,-33.37 525.42,-30.6 525.92,-37.58"/>
</g>
<!-- Node5 -->
<g id="node5" class="node">
<title>Node5</title>
<g id="a_node5"><a xlink:href="pb__encode_8c.html#acfbcc89e5e4355b8c263d6d4f2bc8c6f" target="_top" xlink:title=" ">
<polygon fill="white" stroke="black" points="694,-57.5 694,-76.5 777,-76.5 777,-57.5 694,-57.5"/>
<text text-anchor="middle" x="735.5" y="-64.5" font-family="Helvetica,sans-Serif" font-size="10.00">pb_encode_tag</text>
</a>
</g>
</g>
<!-- Node4&#45;&gt;Node5 -->
<g id="edge4" class="edge">
<title>Node4&#45;&gt;Node5</title>
<path fill="none" stroke="midnightblue" d="M500.05,-67C547.32,-67 629.92,-67 683.39,-67"/>
<polygon fill="midnightblue" stroke="midnightblue" points="683.67,-70.5 693.67,-67 683.67,-63.5 683.67,-70.5"/>
</g>
<!-- Node6 -->
<g id="node6" class="node">
<title>Node6</title>
<g id="a_node6"><a xlink:href="pb__encode_8c.html#a568e2eb180774ef4e07de89508edb52b" target="_top" xlink:title=" ">
<polygon fill="white" stroke="black" points="813,-95.5 813,-114.5 906,-114.5 906,-95.5 813,-95.5"/>
<text text-anchor="middle" x="859.5" y="-102.5" font-family="Helvetica,sans-Serif" font-size="10.00">pb_encode_varint</text>
</a>
</g>
</g>
<!-- Node4&#45;&gt;Node6 -->
<g id="edge10" class="edge">
<title>Node4&#45;&gt;Node6</title>
<path fill="none" stroke="midnightblue" d="M500.25,-74.96C511.66,-77.2 524.31,-79.44 536,-81 629.05,-93.4 738.11,-99.84 802.59,-102.82"/>
<polygon fill="midnightblue" stroke="midnightblue" points="802.78,-106.33 812.93,-103.28 803.1,-99.34 802.78,-106.33"/>
</g>
<!-- Node7 -->
<g id="node7" class="node">
<title>Node7</title>
<g id="a_node7"><a xlink:href="pb__encode_8c.html#a6f8d972fa4a439724532f0bcc07de81d" target="_top" xlink:title=" ">
<polygon fill="white" stroke="black" points="942,-114.5 942,-133.5 995,-133.5 995,-114.5 942,-114.5"/>
<text text-anchor="middle" x="968.5" y="-121.5" font-family="Helvetica,sans-Serif" font-size="10.00">pb_write</text>
</a>
</g>
</g>
<!-- Node4&#45;&gt;Node7 -->
<g id="edge11" class="edge">
<title>Node4&#45;&gt;Node7</title>
<path fill="none" stroke="midnightblue" d="M479.57,-76.58C493.85,-84.59 515.58,-95.55 536,-101 678.32,-138.96 856.16,-132.22 931.31,-127.02"/>
<polygon fill="midnightblue" stroke="midnightblue" points="931.92,-130.49 941.64,-126.27 931.41,-123.5 931.92,-130.49"/>
</g>
<!-- Node4&#45;&gt;Node9 -->
<g id="edge8" class="edge">
<title>Node4&#45;&gt;Node9</title>
<path fill="none" stroke="midnightblue" d="M496.94,-57.41C513.88,-52.55 534.66,-46.59 552.81,-41.39"/>
<polygon fill="midnightblue" stroke="midnightblue" points="553.93,-44.71 562.58,-38.59 552,-37.98 553.93,-44.71"/>
</g>
<!-- Node5&#45;&gt;Node6 -->
<g id="edge5" class="edge">
<title>Node5&#45;&gt;Node6</title>
<path fill="none" stroke="midnightblue" d="M767.29,-76.59C782.6,-81.36 801.32,-87.19 817.8,-92.32"/>
<polygon fill="midnightblue" stroke="midnightblue" points="817.14,-95.78 827.72,-95.41 819.22,-89.1 817.14,-95.78"/>
</g>
<!-- Node6&#45;&gt;Node7 -->
<g id="edge6" class="edge">
<title>Node6&#45;&gt;Node7</title>
<path fill="none" stroke="midnightblue" d="M906.19,-113.11C914.73,-114.63 923.55,-116.2 931.75,-117.65"/>
<polygon fill="midnightblue" stroke="midnightblue" points="931.26,-121.12 941.72,-119.42 932.49,-114.23 931.26,-121.12"/>
</g>
<!-- Node8 -->
<g id="node8" class="node">
<title>Node8</title>
<g id="a_node8"><a xlink:href="pb__encode_8c.html#aa987a466c397e7769605789cc0b22054" target="_top" xlink:title=" ">
<polygon fill="white" stroke="black" points="1031,-114.5 1031,-133.5 1087,-133.5 1087,-114.5 1031,-114.5"/>
<text text-anchor="middle" x="1059" y="-121.5" font-family="Helvetica,sans-Serif" font-size="10.00">buf_write</text>
</a>
</g>
</g>
<!-- Node7&#45;&gt;Node8 -->
<g id="edge7" class="edge">
<title>Node7&#45;&gt;Node8</title>
<path fill="none" stroke="midnightblue" d="M995.1,-124C1003.08,-124 1012.06,-124 1020.68,-124"/>
<polygon fill="midnightblue" stroke="midnightblue" points="1020.92,-127.5 1030.92,-124 1020.92,-120.5 1020.92,-127.5"/>
</g>
<!-- Node9&#45;&gt;Node5 -->
<g id="edge9" class="edge">
<title>Node9&#45;&gt;Node5</title>
<path fill="none" stroke="midnightblue" d="M632.44,-38.59C649.98,-43.47 671.51,-49.46 690.26,-54.68"/>
<polygon fill="midnightblue" stroke="midnightblue" points="689.49,-58.1 700.07,-57.41 691.37,-51.36 689.49,-58.1"/>
</g>
</g>
</svg>
