<?xml version="1.0" encoding="UTF-8" standalone="no"?>
<!DOCTYPE svg PUBLIC "-//W3C//DTD SVG 1.1//EN"
 "http://www.w3.org/Graphics/SVG/1.1/DTD/svg11.dtd">
<!-- Generated by graphviz version 2.43.0 (0)
 -->
<!-- Title: decode_repeatedDouble Pages: 1 -->
<svg width="444pt" height="28pt"
 viewBox="0.00 0.00 444.00 28.00" xmlns="http://www.w3.org/2000/svg" xmlns:xlink="http://www.w3.org/1999/xlink">
<g id="graph0" class="graph" transform="scale(1 1) rotate(0) translate(4 24)">
<title>decode_repeatedDouble</title>
<polygon fill="white" stroke="transparent" points="-4,4 -4,-24 440,-24 440,4 -4,4"/>
<!-- Node1 -->
<g id="node1" class="node">
<title>Node1</title>
<g id="a_node1"><a xlink:title=" ">
<polygon fill="#bfbfbf" stroke="black" points="0,-0.5 0,-19.5 122,-19.5 122,-0.5 0,-0.5"/>
<text text-anchor="middle" x="61" y="-7.5" font-family="Helvetica,sans-Serif" font-size="10.00">decode_repeatedDouble</text>
</a>
</g>
</g>
<!-- Node2 -->
<g id="node2" class="node">
<title>Node2</title>
<g id="a_node2"><a xlink:href="pb__decode_8c.html#abdd5881d0bc42df1a78d46f487065681" target="_top" xlink:title=" ">
<polygon fill="white" stroke="black" points="158,-0.5 158,-19.5 259,-19.5 259,-0.5 158,-0.5"/>
<text text-anchor="middle" x="208.5" y="-7.5" font-family="Helvetica,sans-Serif" font-size="10.00">pb_decode_fixed64</text>
</a>
</g>
</g>
<!-- Node1&#45;&gt;Node2 -->
<g id="edge1" class="edge">
<title>Node1&#45;&gt;Node2</title>
<path fill="none" stroke="midnightblue" d="M122.02,-10C130.48,-10 139.18,-10 147.63,-10"/>
<polygon fill="midnightblue" stroke="midnightblue" points="147.8,-13.5 157.8,-10 147.8,-6.5 147.8,-13.5"/>
</g>
<!-- Node3 -->
<g id="node3" class="node">
<title>Node3</title>
<g id="a_node3"><a xlink:href="pb__decode_8c.html#ad54a52168427208d756087919ff82d41" target="_top" xlink:title=" ">
<polygon fill="white" stroke="black" points="295,-0.5 295,-19.5 346,-19.5 346,-0.5 295,-0.5"/>
<text text-anchor="middle" x="320.5" y="-7.5" font-family="Helvetica,sans-Serif" font-size="10.00">pb_read</text>
</a>
</g>
</g>
<!-- Node2&#45;&gt;Node3 -->
<g id="edge2" class="edge">
<title>Node2&#45;&gt;Node3</title>
<path fill="none" stroke="midnightblue" d="M259.03,-10C267.67,-10 276.5,-10 284.64,-10"/>
<polygon fill="midnightblue" stroke="midnightblue" points="284.88,-13.5 294.88,-10 284.88,-6.5 284.88,-13.5"/>
</g>
<!-- Node4 -->
<g id="node4" class="node">
<title>Node4</title>
<g id="a_node4"><a xlink:href="pb__decode_8c.html#a9746f7244f9d14b2a095ddfcad55febe" target="_top" xlink:title=" ">
<polygon fill="white" stroke="black" points="382,-0.5 382,-19.5 436,-19.5 436,-0.5 382,-0.5"/>
<text text-anchor="middle" x="409" y="-7.5" font-family="Helvetica,sans-Serif" font-size="10.00">buf_read</text>
</a>
</g>
</g>
<!-- Node3&#45;&gt;Node4 -->
<g id="edge3" class="edge">
<title>Node3&#45;&gt;Node4</title>
<path fill="none" stroke="midnightblue" d="M346.06,-10C354.01,-10 363.01,-10 371.63,-10"/>
<polygon fill="midnightblue" stroke="midnightblue" points="371.87,-13.5 381.87,-10 371.87,-6.5 371.87,-13.5"/>
</g>
</g>
</svg>
