<?xml version="1.0" encoding="UTF-8" standalone="no"?>
<!DOCTYPE svg PUBLIC "-//W3C//DTD SVG 1.1//EN"
 "http://www.w3.org/Graphics/SVG/1.1/DTD/svg11.dtd">
<!-- Generated by graphviz version 2.43.0 (0)
 -->
<!-- Title: pb_encode_delimited Pages: 1 -->
<svg width="1655pt" height="198pt"
 viewBox="0.00 0.00 1655.00 198.00" xmlns="http://www.w3.org/2000/svg" xmlns:xlink="http://www.w3.org/1999/xlink">
<g id="graph0" class="graph" transform="scale(1 1) rotate(0) translate(4 194)">
<title>pb_encode_delimited</title>
<polygon fill="white" stroke="transparent" points="-4,4 -4,-194 1651,-194 1651,4 -4,4"/>
<!-- Node1 -->
<g id="node1" class="node">
<title>Node1</title>
<g id="a_node1"><a xlink:title=" ">
<polygon fill="#bfbfbf" stroke="black" points="0,-47.5 0,-66.5 108,-66.5 108,-47.5 0,-47.5"/>
<text text-anchor="middle" x="54" y="-54.5" font-family="Helvetica,sans-Serif" font-size="10.00">pb_encode_delimited</text>
</a>
</g>
</g>
<!-- Node2 -->
<g id="node2" class="node">
<title>Node2</title>
<g id="a_node2"><a xlink:href="pb__encode_8c.html#a5c19520cad847fead01fae854b8a6f86" target="_top" xlink:title=" ">
<polygon fill="white" stroke="black" points="144,-47.5 144,-66.5 269,-66.5 269,-47.5 144,-47.5"/>
<text text-anchor="middle" x="206.5" y="-54.5" font-family="Helvetica,sans-Serif" font-size="10.00">pb_encode_submessage</text>
</a>
</g>
</g>
<!-- Node1&#45;&gt;Node2 -->
<g id="edge1" class="edge">
<title>Node1&#45;&gt;Node2</title>
<path fill="none" stroke="midnightblue" d="M108.06,-57C116.39,-57 125.13,-57 133.8,-57"/>
<polygon fill="midnightblue" stroke="midnightblue" points="133.92,-60.5 143.92,-57 133.92,-53.5 133.92,-60.5"/>
</g>
<!-- Node3 -->
<g id="node3" class="node">
<title>Node3</title>
<g id="a_node3"><a xlink:href="pb__encode_8c.html#af44dde5296bd546d99be35f15658af3e" target="_top" xlink:title=" ">
<polygon fill="white" stroke="black" points="305,-47.5 305,-66.5 369,-66.5 369,-47.5 305,-47.5"/>
<text text-anchor="middle" x="337" y="-54.5" font-family="Helvetica,sans-Serif" font-size="10.00">pb_encode</text>
</a>
</g>
</g>
<!-- Node2&#45;&gt;Node3 -->
<g id="edge2" class="edge">
<title>Node2&#45;&gt;Node3</title>
<path fill="none" stroke="midnightblue" d="M269.12,-57C277.81,-57 286.57,-57 294.76,-57"/>
<polygon fill="midnightblue" stroke="midnightblue" points="294.77,-60.5 304.77,-57 294.77,-53.5 294.77,-60.5"/>
</g>
<!-- Node10 -->
<g id="node10" class="node">
<title>Node10</title>
<g id="a_node10"><a xlink:href="pb__encode_8c.html#a568e2eb180774ef4e07de89508edb52b" target="_top" xlink:title=" ">
<polygon fill="white" stroke="black" points="1373,-85.5 1373,-104.5 1466,-104.5 1466,-85.5 1373,-85.5"/>
<text text-anchor="middle" x="1419.5" y="-92.5" font-family="Helvetica,sans-Serif" font-size="10.00">pb_encode_varint</text>
</a>
</g>
</g>
<!-- Node2&#45;&gt;Node10 -->
<g id="edge19" class="edge">
<title>Node2&#45;&gt;Node10</title>
<path fill="none" stroke="midnightblue" d="M232.88,-47.46C278.4,-31.23 377.22,0 463.5,0 463.5,0 463.5,0 1158,0 1250.36,0 1350.59,-53.36 1395.03,-80.1"/>
<polygon fill="midnightblue" stroke="midnightblue" points="1393.28,-83.13 1403.64,-85.37 1396.94,-77.16 1393.28,-83.13"/>
</g>
<!-- Node11 -->
<g id="node11" class="node">
<title>Node11</title>
<g id="a_node11"><a xlink:href="pb__encode_8c.html#a6f8d972fa4a439724532f0bcc07de81d" target="_top" xlink:title=" ">
<polygon fill="white" stroke="black" points="1502,-142.5 1502,-161.5 1555,-161.5 1555,-142.5 1502,-142.5"/>
<text text-anchor="middle" x="1528.5" y="-149.5" font-family="Helvetica,sans-Serif" font-size="10.00">pb_write</text>
</a>
</g>
</g>
<!-- Node2&#45;&gt;Node11 -->
<g id="edge20" class="edge">
<title>Node2&#45;&gt;Node11</title>
<path fill="none" stroke="midnightblue" d="M217.26,-66.57C249.44,-97.06 356.32,-190 463.5,-190 463.5,-190 463.5,-190 1296.5,-190 1366.44,-190 1446.74,-172.83 1491.86,-161.57"/>
<polygon fill="midnightblue" stroke="midnightblue" points="1492.92,-164.91 1501.75,-159.06 1491.19,-158.13 1492.92,-164.91"/>
</g>
<!-- Node4 -->
<g id="node4" class="node">
<title>Node4</title>
<g id="a_node4"><a xlink:href="pb__encode_8c.html#a0c789b04243dc72075c00744134546c3" target="_top" xlink:title=" ">
<polygon fill="white" stroke="black" points="405,-28.5 405,-47.5 524,-47.5 524,-28.5 405,-28.5"/>
<text text-anchor="middle" x="464.5" y="-35.5" font-family="Helvetica,sans-Serif" font-size="10.00">encode_extension_field</text>
</a>
</g>
</g>
<!-- Node3&#45;&gt;Node4 -->
<g id="edge3" class="edge">
<title>Node3&#45;&gt;Node4</title>
<path fill="none" stroke="midnightblue" d="M369.02,-52.3C377.02,-51.09 385.95,-49.74 395.04,-48.36"/>
<polygon fill="midnightblue" stroke="midnightblue" points="395.56,-51.83 404.93,-46.87 394.52,-44.9 395.56,-51.83"/>
</g>
<!-- Node6 -->
<g id="node6" class="node">
<title>Node6</title>
<g id="a_node6"><a xlink:href="pb__encode_8c.html#a8aa23313175c09e050e2acbc54a17bd4" target="_top" xlink:title=" ">
<polygon fill="white" stroke="black" points="729,-47.5 729,-66.5 800,-66.5 800,-47.5 729,-47.5"/>
<text text-anchor="middle" x="764.5" y="-54.5" font-family="Helvetica,sans-Serif" font-size="10.00">encode_field</text>
</a>
</g>
</g>
<!-- Node3&#45;&gt;Node6 -->
<g id="edge18" class="edge">
<title>Node3&#45;&gt;Node6</title>
<path fill="none" stroke="midnightblue" d="M369.29,-57C443.89,-57 632.42,-57 718.9,-57"/>
<polygon fill="midnightblue" stroke="midnightblue" points="718.93,-60.5 728.93,-57 718.93,-53.5 718.93,-60.5"/>
</g>
<!-- Node5 -->
<g id="node5" class="node">
<title>Node5</title>
<g id="a_node5"><a xlink:href="pb__encode_8c.html#a3a12936f07ae378d68408c7bee72e3c0" target="_top" xlink:title=" ">
<polygon fill="white" stroke="black" points="560,-28.5 560,-47.5 693,-47.5 693,-28.5 560,-28.5"/>
<text text-anchor="middle" x="626.5" y="-35.5" font-family="Helvetica,sans-Serif" font-size="10.00">default_extension_encoder</text>
</a>
</g>
</g>
<!-- Node4&#45;&gt;Node5 -->
<g id="edge4" class="edge">
<title>Node4&#45;&gt;Node5</title>
<path fill="none" stroke="midnightblue" d="M524.17,-38C532.5,-38 541.17,-38 549.77,-38"/>
<polygon fill="midnightblue" stroke="midnightblue" points="549.81,-41.5 559.81,-38 549.81,-34.5 549.81,-41.5"/>
</g>
<!-- Node5&#45;&gt;Node6 -->
<g id="edge5" class="edge">
<title>Node5&#45;&gt;Node6</title>
<path fill="none" stroke="midnightblue" d="M693.11,-47.17C701.8,-48.38 710.55,-49.6 718.77,-50.75"/>
<polygon fill="midnightblue" stroke="midnightblue" points="718.49,-54.25 728.88,-52.16 719.46,-47.31 718.49,-54.25"/>
</g>
<!-- Node7 -->
<g id="node7" class="node">
<title>Node7</title>
<g id="a_node7"><a xlink:href="pb__encode_8c.html#a1f186424780069ab183fb7d2360d274e" target="_top" xlink:title=" ">
<polygon fill="white" stroke="black" points="842.5,-66.5 842.5,-85.5 942.5,-85.5 942.5,-66.5 842.5,-66.5"/>
<text text-anchor="middle" x="892.5" y="-73.5" font-family="Helvetica,sans-Serif" font-size="10.00">encode_basic_field</text>
</a>
</g>
</g>
<!-- Node6&#45;&gt;Node7 -->
<g id="edge6" class="edge">
<title>Node6&#45;&gt;Node7</title>
<path fill="none" stroke="midnightblue" d="M800.26,-62.24C810.19,-63.74 821.3,-65.41 832.25,-67.07"/>
<polygon fill="midnightblue" stroke="midnightblue" points="831.82,-70.54 842.23,-68.57 832.86,-63.62 831.82,-70.54"/>
</g>
<!-- Node14 -->
<g id="node14" class="node">
<title>Node14</title>
<g id="a_node14"><a xlink:href="pb__encode_8c.html#aacffda1f85cad8e448a183dcc6c13559" target="_top" xlink:title=" ">
<polygon fill="white" stroke="black" points="836,-28.5 836,-47.5 949,-47.5 949,-28.5 836,-28.5"/>
<text text-anchor="middle" x="892.5" y="-35.5" font-family="Helvetica,sans-Serif" font-size="10.00">encode_callback_field</text>
</a>
</g>
</g>
<!-- Node6&#45;&gt;Node14 -->
<g id="edge17" class="edge">
<title>Node6&#45;&gt;Node14</title>
<path fill="none" stroke="midnightblue" d="M800.26,-51.76C808.2,-50.56 816.9,-49.25 825.66,-47.93"/>
<polygon fill="midnightblue" stroke="midnightblue" points="826.19,-51.39 835.55,-46.44 825.14,-44.47 826.19,-51.39"/>
</g>
<!-- Node8 -->
<g id="node8" class="node">
<title>Node8</title>
<g id="a_node8"><a xlink:href="pb__encode_8c.html#afb8fc9e49589eaae694eff25c858a19c" target="_top" xlink:title=" ">
<polygon fill="white" stroke="black" points="985,-66.5 985,-85.5 1060,-85.5 1060,-66.5 985,-66.5"/>
<text text-anchor="middle" x="1022.5" y="-73.5" font-family="Helvetica,sans-Serif" font-size="10.00">encode_array</text>
</a>
</g>
</g>
<!-- Node7&#45;&gt;Node8 -->
<g id="edge7" class="edge">
<title>Node7&#45;&gt;Node8</title>
<path fill="none" stroke="midnightblue" d="M942.62,-76C953.09,-76 964.12,-76 974.51,-76"/>
<polygon fill="midnightblue" stroke="midnightblue" points="974.64,-79.5 984.64,-76 974.64,-72.5 974.64,-79.5"/>
</g>
<!-- Node13 -->
<g id="node13" class="node">
<title>Node13</title>
<g id="a_node13"><a xlink:href="pb__encode_8c.html#a3e0f1ac29dce37f78220ecd6b9d21cba" target="_top" xlink:title=" ">
<polygon fill="white" stroke="black" points="1096,-28.5 1096,-47.5 1218,-47.5 1218,-28.5 1096,-28.5"/>
<text text-anchor="middle" x="1157" y="-35.5" font-family="Helvetica,sans-Serif" font-size="10.00">pb_encode_tag_for_field</text>
</a>
</g>
</g>
<!-- Node7&#45;&gt;Node13 -->
<g id="edge16" class="edge">
<title>Node7&#45;&gt;Node13</title>
<path fill="none" stroke="midnightblue" d="M935.25,-66.47C950.81,-63.14 968.66,-59.6 985,-57 1017.86,-51.77 1054.51,-47.5 1085.42,-44.34"/>
<polygon fill="midnightblue" stroke="midnightblue" points="1086.07,-47.79 1095.67,-43.31 1085.37,-40.82 1086.07,-47.79"/>
</g>
<!-- Node9 -->
<g id="node9" class="node">
<title>Node9</title>
<g id="a_node9"><a xlink:href="pb__encode_8c.html#acfbcc89e5e4355b8c263d6d4f2bc8c6f" target="_top" xlink:title=" ">
<polygon fill="white" stroke="black" points="1254,-66.5 1254,-85.5 1337,-85.5 1337,-66.5 1254,-66.5"/>
<text text-anchor="middle" x="1295.5" y="-73.5" font-family="Helvetica,sans-Serif" font-size="10.00">pb_encode_tag</text>
</a>
</g>
</g>
<!-- Node8&#45;&gt;Node9 -->
<g id="edge8" class="edge">
<title>Node8&#45;&gt;Node9</title>
<path fill="none" stroke="midnightblue" d="M1060.05,-76C1107.32,-76 1189.92,-76 1243.39,-76"/>
<polygon fill="midnightblue" stroke="midnightblue" points="1243.67,-79.5 1253.67,-76 1243.67,-72.5 1243.67,-79.5"/>
</g>
<!-- Node8&#45;&gt;Node10 -->
<g id="edge14" class="edge">
<title>Node8&#45;&gt;Node10</title>
<path fill="none" stroke="midnightblue" d="M1060.21,-84.26C1071.62,-86.52 1084.28,-88.69 1096,-90 1189.04,-100.39 1298.11,-99.34 1362.59,-97.36"/>
<polygon fill="midnightblue" stroke="midnightblue" points="1363.05,-100.85 1372.93,-97.03 1362.82,-93.85 1363.05,-100.85"/>
</g>
<!-- Node8&#45;&gt;Node11 -->
<g id="edge15" class="edge">
<title>Node8&#45;&gt;Node11</title>
<path fill="none" stroke="midnightblue" d="M1041.73,-85.62C1056.08,-92.73 1076.79,-102.01 1096,-107 1239.14,-144.16 1416.54,-150.79 1491.44,-151.86"/>
<polygon fill="midnightblue" stroke="midnightblue" points="1491.69,-155.36 1501.74,-151.98 1491.78,-148.36 1491.69,-155.36"/>
</g>
<!-- Node8&#45;&gt;Node13 -->
<g id="edge12" class="edge">
<title>Node8&#45;&gt;Node13</title>
<path fill="none" stroke="midnightblue" d="M1056.94,-66.41C1073.88,-61.55 1094.66,-55.59 1112.81,-50.39"/>
<polygon fill="midnightblue" stroke="midnightblue" points="1113.93,-53.71 1122.58,-47.59 1112,-46.98 1113.93,-53.71"/>
</g>
<!-- Node9&#45;&gt;Node10 -->
<g id="edge9" class="edge">
<title>Node9&#45;&gt;Node10</title>
<path fill="none" stroke="midnightblue" d="M1337.12,-82.33C1345.29,-83.6 1354.02,-84.96 1362.6,-86.29"/>
<polygon fill="midnightblue" stroke="midnightblue" points="1362.16,-89.77 1372.58,-87.85 1363.24,-82.85 1362.16,-89.77"/>
</g>
<!-- Node10&#45;&gt;Node11 -->
<g id="edge10" class="edge">
<title>Node10&#45;&gt;Node11</title>
<path fill="none" stroke="midnightblue" d="M1438.65,-104.67C1455.66,-113.73 1481.3,-127.39 1500.68,-137.71"/>
<polygon fill="midnightblue" stroke="midnightblue" points="1499.15,-140.86 1509.62,-142.47 1502.44,-134.68 1499.15,-140.86"/>
</g>
<!-- Node12 -->
<g id="node12" class="node">
<title>Node12</title>
<g id="a_node12"><a xlink:href="pb__encode_8c.html#aa987a466c397e7769605789cc0b22054" target="_top" xlink:title=" ">
<polygon fill="white" stroke="black" points="1591,-142.5 1591,-161.5 1647,-161.5 1647,-142.5 1591,-142.5"/>
<text text-anchor="middle" x="1619" y="-149.5" font-family="Helvetica,sans-Serif" font-size="10.00">buf_write</text>
</a>
</g>
</g>
<!-- Node11&#45;&gt;Node12 -->
<g id="edge11" class="edge">
<title>Node11&#45;&gt;Node12</title>
<path fill="none" stroke="midnightblue" d="M1555.1,-152C1563.08,-152 1572.06,-152 1580.68,-152"/>
<polygon fill="midnightblue" stroke="midnightblue" points="1580.92,-155.5 1590.92,-152 1580.92,-148.5 1580.92,-155.5"/>
</g>
<!-- Node13&#45;&gt;Node9 -->
<g id="edge13" class="edge">
<title>Node13&#45;&gt;Node9</title>
<path fill="none" stroke="midnightblue" d="M1192.44,-47.59C1209.98,-52.47 1231.51,-58.46 1250.26,-63.68"/>
<polygon fill="midnightblue" stroke="midnightblue" points="1249.49,-67.1 1260.07,-66.41 1251.37,-60.36 1249.49,-67.1"/>
</g>
</g>
</svg>
