<?xml version="1.0" encoding="UTF-8" standalone="no"?>
<!DOCTYPE svg PUBLIC "-//W3C//DTD SVG 1.1//EN"
 "http://www.w3.org/Graphics/SVG/1.1/DTD/svg11.dtd">
<!-- Generated by graphviz version 2.43.0 (0)
 -->
<!-- Title: pb_encode_string Pages: 1 -->
<svg width="214pt" height="66pt"
 viewBox="0.00 0.00 214.00 66.00" xmlns="http://www.w3.org/2000/svg" xmlns:xlink="http://www.w3.org/1999/xlink">
<g id="graph0" class="graph" transform="scale(1 1) rotate(0) translate(4 62)">
<title>pb_encode_string</title>
<polygon fill="white" stroke="transparent" points="-4,4 -4,-62 210,-62 210,4 -4,4"/>
<!-- Node1 -->
<g id="node1" class="node">
<title>Node1</title>
<g id="a_node1"><a xlink:title=" ">
<polygon fill="#bfbfbf" stroke="black" points="113,-19.5 113,-38.5 206,-38.5 206,-19.5 113,-19.5"/>
<text text-anchor="middle" x="159.5" y="-26.5" font-family="Helvetica,sans-Serif" font-size="10.00">pb_encode_string</text>
</a>
</g>
</g>
<!-- Node2 -->
<g id="node2" class="node">
<title>Node2</title>
<g id="a_node2"><a xlink:href="pb__encode_8c.html#ad856083eab7b7f4ae3a0a2a9c073bb6e" target="_top" xlink:title=" ">
<polygon fill="white" stroke="black" points="0,-38.5 0,-57.5 77,-57.5 77,-38.5 0,-38.5"/>
<text text-anchor="middle" x="38.5" y="-45.5" font-family="Helvetica,sans-Serif" font-size="10.00">pb_enc_bytes</text>
</a>
</g>
</g>
<!-- Node1&#45;&gt;Node2 -->
<g id="edge1" class="edge">
<title>Node1&#45;&gt;Node2</title>
<path fill="none" stroke="midnightblue" d="M102.74,-37.9C94.06,-39.29 85.28,-40.69 77.13,-41.99"/>
<polygon fill="midnightblue" stroke="midnightblue" points="103.51,-41.32 112.83,-36.29 102.41,-34.41 103.51,-41.32"/>
</g>
<!-- Node3 -->
<g id="node3" class="node">
<title>Node3</title>
<g id="a_node3"><a xlink:href="pb__encode_8c.html#a43d7e4006be2299245e447b1afa3bb8a" target="_top" xlink:title=" ">
<polygon fill="white" stroke="black" points="0,-0.5 0,-19.5 77,-19.5 77,-0.5 0,-0.5"/>
<text text-anchor="middle" x="38.5" y="-7.5" font-family="Helvetica,sans-Serif" font-size="10.00">pb_enc_string</text>
</a>
</g>
</g>
<!-- Node1&#45;&gt;Node3 -->
<g id="edge2" class="edge">
<title>Node1&#45;&gt;Node3</title>
<path fill="none" stroke="midnightblue" d="M102.74,-20.1C94.06,-18.71 85.28,-17.31 77.13,-16.01"/>
<polygon fill="midnightblue" stroke="midnightblue" points="102.41,-23.59 112.83,-21.71 103.51,-16.68 102.41,-23.59"/>
</g>
</g>
</svg>
