<?xml version="1.0" encoding="UTF-8" standalone="no"?>
<!DOCTYPE svg PUBLIC "-//W3C//DTD SVG 1.1//EN"
 "http://www.w3.org/Graphics/SVG/1.1/DTD/svg11.dtd">
<!-- Generated by graphviz version 2.43.0 (0)
 -->
<!-- Title: pb_field_init Pages: 1 -->
<svg width="806pt" height="116pt"
 viewBox="0.00 0.00 806.00 116.00" xmlns="http://www.w3.org/2000/svg" xmlns:xlink="http://www.w3.org/1999/xlink">
<g id="graph0" class="graph" transform="scale(1 1) rotate(0) translate(4 112)">
<title>pb_field_init</title>
<polygon fill="white" stroke="transparent" points="-4,4 -4,-112 802,-112 802,4 -4,4"/>
<!-- Node1 -->
<g id="node1" class="node">
<title>Node1</title>
<g id="a_node1"><a xlink:title=" ">
<polygon fill="#bfbfbf" stroke="black" points="730,-66.5 730,-85.5 798,-85.5 798,-66.5 730,-66.5"/>
<text text-anchor="middle" x="764" y="-73.5" font-family="Helvetica,sans-Serif" font-size="10.00">pb_field_init</text>
</a>
</g>
</g>
<!-- Node2 -->
<g id="node2" class="node">
<title>Node2</title>
<g id="a_node2"><a xlink:href="pb__decode_8c.html#a0c0f95a964239344d503e724818e8fc0" target="_top" xlink:title=" ">
<polygon fill="white" stroke="black" points="576,-85.5 576,-104.5 668,-104.5 668,-85.5 576,-85.5"/>
<text text-anchor="middle" x="622" y="-92.5" font-family="Helvetica,sans-Serif" font-size="10.00">pb_decode_noinit</text>
</a>
</g>
</g>
<!-- Node1&#45;&gt;Node2 -->
<g id="edge1" class="edge">
<title>Node1&#45;&gt;Node2</title>
<path fill="none" stroke="midnightblue" d="M719.47,-81.91C703.15,-84.12 684.58,-86.64 668.12,-88.88"/>
<polygon fill="midnightblue" stroke="midnightblue" points="720.38,-85.32 729.82,-80.5 719.44,-78.38 720.38,-85.32"/>
</g>
<!-- Node9 -->
<g id="node9" class="node">
<title>Node9</title>
<g id="a_node9"><a xlink:href="pb__decode_8c.html#a086200ce4dac8198dc0537e64318d66e" target="_top" xlink:title=" ">
<polygon fill="white" stroke="black" points="550,-47.5 550,-66.5 694,-66.5 694,-47.5 550,-47.5"/>
<text text-anchor="middle" x="622" y="-54.5" font-family="Helvetica,sans-Serif" font-size="10.00">pb_message_set_to_defaults</text>
</a>
</g>
</g>
<!-- Node1&#45;&gt;Node9 -->
<g id="edge9" class="edge">
<title>Node1&#45;&gt;Node9</title>
<path fill="none" stroke="midnightblue" d="M719.83,-70.14C711.35,-68.99 702.25,-67.75 693.14,-66.52"/>
<polygon fill="midnightblue" stroke="midnightblue" points="719.44,-73.62 729.82,-71.5 720.38,-66.68 719.44,-73.62"/>
</g>
<!-- Node3 -->
<g id="node3" class="node">
<title>Node3</title>
<g id="a_node3"><a xlink:href="pb__decode_8c.html#adb01106a062444577e9e3f3a047db2ef" target="_top" xlink:title=" ">
<polygon fill="white" stroke="black" points="280.5,-88.5 280.5,-107.5 389.5,-107.5 389.5,-88.5 280.5,-88.5"/>
<text text-anchor="middle" x="335" y="-95.5" font-family="Helvetica,sans-Serif" font-size="10.00">pb_dec_submessage</text>
</a>
</g>
</g>
<!-- Node2&#45;&gt;Node3 -->
<g id="edge2" class="edge">
<title>Node2&#45;&gt;Node3</title>
<path fill="none" stroke="midnightblue" d="M565.69,-95.58C514.87,-96.12 440,-96.91 389.69,-97.43"/>
<polygon fill="midnightblue" stroke="midnightblue" points="565.88,-99.08 575.84,-95.48 565.8,-92.08 565.88,-99.08"/>
</g>
<!-- Node4 -->
<g id="node4" class="node">
<title>Node4</title>
<g id="a_node4"><a xlink:href="pb__decode_8c.html#a75c9a727abe84bfaaef633ac68d48cfa" target="_top" xlink:title=" ">
<polygon fill="white" stroke="black" points="450,-47.5 450,-66.5 514,-66.5 514,-47.5 450,-47.5"/>
<text text-anchor="middle" x="482" y="-54.5" font-family="Helvetica,sans-Serif" font-size="10.00">pb_decode</text>
</a>
</g>
</g>
<!-- Node2&#45;&gt;Node4 -->
<g id="edge3" class="edge">
<title>Node2&#45;&gt;Node4</title>
<path fill="none" stroke="midnightblue" d="M575.19,-82.85C566.8,-80.59 558.13,-78.24 550,-76 538.34,-72.79 525.57,-69.19 514.33,-65.99"/>
<polygon fill="midnightblue" stroke="midnightblue" points="574.29,-86.23 584.85,-85.44 576.1,-79.47 574.29,-86.23"/>
</g>
<!-- Node4&#45;&gt;Node3 -->
<g id="edge7" class="edge">
<title>Node4&#45;&gt;Node3</title>
<path fill="none" stroke="midnightblue" d="M442.08,-69.58C432.9,-72.44 423.13,-75.4 414,-78 401.36,-81.6 387.49,-85.25 374.99,-88.43"/>
<polygon fill="midnightblue" stroke="midnightblue" points="443.26,-72.88 451.75,-66.54 441.16,-66.2 443.26,-72.88"/>
</g>
<!-- Node5 -->
<g id="node5" class="node">
<title>Node5</title>
<g id="a_node5"><a xlink:href="class_k_u_k_a_1_1_f_r_i_1_1_monitoring_message_decoder.html#aa72fb1e622847a636e6f5d7ac4770103" target="_top" xlink:title=" ">
<polygon fill="white" stroke="black" points="256,-39 256,-69 414,-69 414,-39 256,-39"/>
<text text-anchor="start" x="264" y="-57" font-family="Helvetica,sans-Serif" font-size="10.00">KUKA::FRI::MonitoringMessage</text>
<text text-anchor="middle" x="335" y="-46" font-family="Helvetica,sans-Serif" font-size="10.00">Decoder::decode</text>
</a>
</g>
</g>
<!-- Node4&#45;&gt;Node5 -->
<g id="edge4" class="edge">
<title>Node4&#45;&gt;Node5</title>
<path fill="none" stroke="midnightblue" d="M439.7,-56.15C431.64,-55.98 422.94,-55.8 414.12,-55.62"/>
<polygon fill="midnightblue" stroke="midnightblue" points="439.82,-59.65 449.89,-56.36 439.97,-52.65 439.82,-59.65"/>
</g>
<!-- Node8 -->
<g id="node8" class="node">
<title>Node8</title>
<g id="a_node8"><a xlink:href="pb__decode_8c.html#a7c030d7dee687e354a62a72d45dca39b" target="_top" xlink:title=" ">
<polygon fill="white" stroke="black" points="281,-0.5 281,-19.5 389,-19.5 389,-0.5 281,-0.5"/>
<text text-anchor="middle" x="335" y="-7.5" font-family="Helvetica,sans-Serif" font-size="10.00">pb_decode_delimited</text>
</a>
</g>
</g>
<!-- Node4&#45;&gt;Node8 -->
<g id="edge8" class="edge">
<title>Node4&#45;&gt;Node8</title>
<path fill="none" stroke="midnightblue" d="M451.33,-43.42C439.83,-38.47 426.45,-33.09 414,-29 403.27,-25.48 391.53,-22.28 380.48,-19.56"/>
<polygon fill="midnightblue" stroke="midnightblue" points="449.93,-46.63 460.49,-47.44 452.74,-40.22 449.93,-46.63"/>
</g>
<!-- Node6 -->
<g id="node6" class="node">
<title>Node6</title>
<g id="a_node6"><a xlink:href="class_k_u_k_a_1_1_f_r_i_1_1_client_application.html#a9939bfd1fa78c59dc3675a6d2a5de7a7" target="_top" xlink:title="Run a single processing step.">
<polygon fill="white" stroke="black" points="74,-39 74,-69 220,-69 220,-39 74,-39"/>
<text text-anchor="start" x="82" y="-57" font-family="Helvetica,sans-Serif" font-size="10.00">KUKA::FRI::ClientApplication</text>
<text text-anchor="middle" x="147" y="-46" font-family="Helvetica,sans-Serif" font-size="10.00">::step</text>
</a>
</g>
</g>
<!-- Node5&#45;&gt;Node6 -->
<g id="edge5" class="edge">
<title>Node5&#45;&gt;Node6</title>
<path fill="none" stroke="midnightblue" d="M245.88,-54C237.29,-54 228.65,-54 220.24,-54"/>
<polygon fill="midnightblue" stroke="midnightblue" points="245.93,-57.5 255.93,-54 245.93,-50.5 245.93,-57.5"/>
</g>
<!-- Node7 -->
<g id="node7" class="node">
<title>Node7</title>
<g id="a_node7"><a xlink:href="_i_o_access_app_8cpp.html#a3c04138a5bfe5d72780bb7e82a18e627" target="_top" xlink:title=" ">
<polygon fill="white" stroke="black" points="0,-44.5 0,-63.5 38,-63.5 38,-44.5 0,-44.5"/>
<text text-anchor="middle" x="19" y="-51.5" font-family="Helvetica,sans-Serif" font-size="10.00">main</text>
</a>
</g>
</g>
<!-- Node6&#45;&gt;Node7 -->
<g id="edge6" class="edge">
<title>Node6&#45;&gt;Node7</title>
<path fill="none" stroke="midnightblue" d="M63.74,-54C54.28,-54 45.45,-54 38.25,-54"/>
<polygon fill="midnightblue" stroke="midnightblue" points="63.8,-57.5 73.8,-54 63.8,-50.5 63.8,-57.5"/>
</g>
<!-- Node9&#45;&gt;Node4 -->
<g id="edge10" class="edge">
<title>Node9&#45;&gt;Node4</title>
<path fill="none" stroke="midnightblue" d="M539.74,-57C530.75,-57 522.04,-57 514.26,-57"/>
<polygon fill="midnightblue" stroke="midnightblue" points="539.98,-60.5 549.98,-57 539.98,-53.5 539.98,-60.5"/>
</g>
</g>
</svg>
