<?xml version="1.0" encoding="UTF-8" standalone="no"?>
<!DOCTYPE svg PUBLIC "-//W3C//DTD SVG 1.1//EN"
 "http://www.w3.org/Graphics/SVG/1.1/DTD/svg11.dtd">
<!-- Generated by graphviz version 2.43.0 (0)
 -->
<!-- Title: pb_readbyte Pages: 1 -->
<svg width="1918pt" height="373pt"
 viewBox="0.00 0.00 1918.00 373.00" xmlns="http://www.w3.org/2000/svg" xmlns:xlink="http://www.w3.org/1999/xlink">
<g id="graph0" class="graph" transform="scale(1 1) rotate(0) translate(4 369)">
<title>pb_readbyte</title>
<polygon fill="white" stroke="transparent" points="-4,4 -4,-369 1914,-369 1914,4 -4,4"/>
<!-- Node1 -->
<g id="node1" class="node">
<title>Node1</title>
<g id="a_node1"><a xlink:title=" ">
<polygon fill="#bfbfbf" stroke="black" points="1840,-152.5 1840,-171.5 1910,-171.5 1910,-152.5 1840,-152.5"/>
<text text-anchor="middle" x="1875" y="-159.5" font-family="Helvetica,sans-Serif" font-size="10.00">pb_readbyte</text>
</a>
</g>
</g>
<!-- Node2 -->
<g id="node2" class="node">
<title>Node2</title>
<g id="a_node2"><a xlink:href="pb__decode_8c.html#a47bde3dca6b389ba0d58b1f0a7dad7c4" target="_top" xlink:title=" ">
<polygon fill="white" stroke="black" points="1705.5,-269.5 1705.5,-288.5 1798.5,-288.5 1798.5,-269.5 1705.5,-269.5"/>
<text text-anchor="middle" x="1752" y="-276.5" font-family="Helvetica,sans-Serif" font-size="10.00">pb_decode_varint</text>
</a>
</g>
</g>
<!-- Node1&#45;&gt;Node2 -->
<g id="edge1" class="edge">
<title>Node1&#45;&gt;Node2</title>
<path fill="none" stroke="midnightblue" d="M1856.9,-178.53C1831.28,-203.31 1783.72,-249.3 1763.04,-269.29"/>
<polygon fill="midnightblue" stroke="midnightblue" points="1859.34,-181.04 1864.1,-171.57 1854.48,-176.01 1859.34,-181.04"/>
</g>
<!-- Node11 -->
<g id="node11" class="node">
<title>Node11</title>
<g id="a_node11"><a xlink:href="pb__decode_8c.html#abef49f760a21798e59538eec4aea23c2" target="_top" xlink:title=" ">
<polygon fill="white" stroke="black" points="1700,-95.5 1700,-114.5 1804,-114.5 1804,-95.5 1700,-95.5"/>
<text text-anchor="middle" x="1752" y="-102.5" font-family="Helvetica,sans-Serif" font-size="10.00">pb_decode_varint32</text>
</a>
</g>
</g>
<!-- Node1&#45;&gt;Node11 -->
<g id="edge10" class="edge">
<title>Node1&#45;&gt;Node11</title>
<path fill="none" stroke="midnightblue" d="M1844.5,-148.1C1822.42,-137.7 1792.8,-123.75 1773.32,-114.57"/>
<polygon fill="midnightblue" stroke="midnightblue" points="1843.21,-151.36 1853.75,-152.46 1846.19,-145.03 1843.21,-151.36"/>
</g>
<!-- Node3 -->
<g id="node3" class="node">
<title>Node3</title>
<g id="a_node3"><a xlink:href="pb__frimessages__callbacks_8c.html#a73c0b03ce19bcaebfb2c5956739c255c" target="_top" xlink:title=" ">
<polygon fill="white" stroke="black" points="1562,-231.5 1562,-250.5 1664,-250.5 1664,-231.5 1562,-231.5"/>
<text text-anchor="middle" x="1613" y="-238.5" font-family="Helvetica,sans-Serif" font-size="10.00">decode_repeatedInt</text>
</a>
</g>
</g>
<!-- Node2&#45;&gt;Node3 -->
<g id="edge2" class="edge">
<title>Node2&#45;&gt;Node3</title>
<path fill="none" stroke="midnightblue" d="M1706.59,-266.68C1687.77,-261.46 1666.16,-255.47 1648.56,-250.59"/>
<polygon fill="midnightblue" stroke="midnightblue" points="1705.86,-270.11 1716.43,-269.41 1707.73,-263.37 1705.86,-270.11"/>
</g>
<!-- Node7 -->
<g id="node7" class="node">
<title>Node7</title>
<g id="a_node7"><a xlink:href="pb__decode_8c.html#ab49344bb28b526b19312a4af590f55d8" target="_top" xlink:title=" ">
<polygon fill="white" stroke="black" points="1571.5,-345.5 1571.5,-364.5 1654.5,-364.5 1654.5,-345.5 1571.5,-345.5"/>
<text text-anchor="middle" x="1613" y="-352.5" font-family="Helvetica,sans-Serif" font-size="10.00">pb_dec_uvarint</text>
</a>
</g>
</g>
<!-- Node2&#45;&gt;Node7 -->
<g id="edge6" class="edge">
<title>Node2&#45;&gt;Node7</title>
<path fill="none" stroke="midnightblue" d="M1730.09,-294.56C1712.93,-306.86 1687.7,-323.91 1664,-336 1657.13,-339.5 1649.46,-342.73 1642.23,-345.49"/>
<polygon fill="midnightblue" stroke="midnightblue" points="1732.24,-297.33 1738.27,-288.61 1728.12,-291.66 1732.24,-297.33"/>
</g>
<!-- Node8 -->
<g id="node8" class="node">
<title>Node8</title>
<g id="a_node8"><a xlink:href="pb__decode_8c.html#a2e8b9b6b511f76d740e68e25741927fa" target="_top" xlink:title=" ">
<polygon fill="white" stroke="black" points="1574.5,-307.5 1574.5,-326.5 1651.5,-326.5 1651.5,-307.5 1574.5,-307.5"/>
<text text-anchor="middle" x="1613" y="-314.5" font-family="Helvetica,sans-Serif" font-size="10.00">pb_dec_varint</text>
</a>
</g>
</g>
<!-- Node2&#45;&gt;Node8 -->
<g id="edge7" class="edge">
<title>Node2&#45;&gt;Node8</title>
<path fill="none" stroke="midnightblue" d="M1706.59,-291.32C1687.77,-296.54 1666.16,-302.53 1648.56,-307.41"/>
<polygon fill="midnightblue" stroke="midnightblue" points="1707.73,-294.63 1716.43,-288.59 1705.86,-287.89 1707.73,-294.63"/>
</g>
<!-- Node9 -->
<g id="node9" class="node">
<title>Node9</title>
<g id="a_node9"><a xlink:href="pb__decode_8c.html#ac65955bdfa42d9b5652c82121c7da00f" target="_top" xlink:title=" ">
<polygon fill="white" stroke="black" points="1564,-269.5 1564,-288.5 1662,-288.5 1662,-269.5 1564,-269.5"/>
<text text-anchor="middle" x="1613" y="-276.5" font-family="Helvetica,sans-Serif" font-size="10.00">pb_decode_svarint</text>
</a>
</g>
</g>
<!-- Node2&#45;&gt;Node9 -->
<g id="edge8" class="edge">
<title>Node2&#45;&gt;Node9</title>
<path fill="none" stroke="midnightblue" d="M1695.1,-279C1684.2,-279 1672.86,-279 1662.24,-279"/>
<polygon fill="midnightblue" stroke="midnightblue" points="1695.38,-282.5 1705.38,-279 1695.38,-275.5 1695.38,-282.5"/>
</g>
<!-- Node4 -->
<g id="node4" class="node">
<title>Node4</title>
<g id="a_node4"><a xlink:href="pb__frimessages__callbacks_8c.html#a81a65250b51118ec352d28e397db9b6c" target="_top" xlink:title=" ">
<polygon fill="white" stroke="black" points="1413,-231.5 1413,-250.5 1502,-250.5 1502,-231.5 1413,-231.5"/>
<text text-anchor="middle" x="1457.5" y="-238.5" font-family="Helvetica,sans-Serif" font-size="10.00">map_repeatedInt</text>
</a>
</g>
</g>
<!-- Node3&#45;&gt;Node4 -->
<g id="edge3" class="edge">
<title>Node3&#45;&gt;Node4</title>
<path fill="none" stroke="midnightblue" d="M1551.62,-241C1535.11,-241 1517.54,-241 1502.17,-241"/>
<polygon fill="midnightblue" stroke="midnightblue" points="1551.74,-244.5 1561.74,-241 1551.74,-237.5 1551.74,-244.5"/>
</g>
<!-- Node5 -->
<g id="node5" class="node">
<title>Node5</title>
<g id="a_node5"><a xlink:href="class_k_u_k_a_1_1_f_r_i_1_1_monitoring_message_decoder.html#a5f7d8c50c6b2275a90ee8053eeeeda0a" target="_top" xlink:title=" ">
<polygon fill="white" stroke="black" points="1195,-286 1195,-316 1353,-316 1353,-286 1195,-286"/>
<text text-anchor="start" x="1203" y="-304" font-family="Helvetica,sans-Serif" font-size="10.00">KUKA::FRI::MonitoringMessage</text>
<text text-anchor="middle" x="1274" y="-293" font-family="Helvetica,sans-Serif" font-size="10.00">Decoder::initMessage</text>
</a>
</g>
</g>
<!-- Node4&#45;&gt;Node5 -->
<g id="edge4" class="edge">
<title>Node4&#45;&gt;Node5</title>
<path fill="none" stroke="midnightblue" d="M1410.8,-253.39C1403.48,-255.51 1396.01,-257.75 1389,-260 1364.06,-267.98 1336.42,-277.9 1314.6,-285.98"/>
<polygon fill="midnightblue" stroke="midnightblue" points="1411.97,-256.7 1420.63,-250.59 1410.05,-249.96 1411.97,-256.7"/>
</g>
<!-- Node6 -->
<g id="node6" class="node">
<title>Node6</title>
<g id="a_node6"><a xlink:href="class_k_u_k_a_1_1_f_r_i_1_1_monitoring_message_decoder.html#a839c031de8bf792b17b612fc6ef91d05" target="_top" xlink:title=" ">
<polygon fill="white" stroke="black" points="978,-286 978,-316 1159,-316 1159,-286 978,-286"/>
<text text-anchor="start" x="986" y="-304" font-family="Helvetica,sans-Serif" font-size="10.00">KUKA::FRI::MonitoringMessage</text>
<text text-anchor="middle" x="1068.5" y="-293" font-family="Helvetica,sans-Serif" font-size="10.00">Decoder::MonitoringMessageDecoder</text>
</a>
</g>
</g>
<!-- Node5&#45;&gt;Node6 -->
<g id="edge5" class="edge">
<title>Node5&#45;&gt;Node6</title>
<path fill="none" stroke="midnightblue" d="M1184.7,-301C1176.27,-301 1167.72,-301 1159.28,-301"/>
<polygon fill="midnightblue" stroke="midnightblue" points="1184.9,-304.5 1194.9,-301 1184.9,-297.5 1184.9,-304.5"/>
</g>
<!-- Node10 -->
<g id="node10" class="node">
<title>Node10</title>
<g id="a_node10"><a xlink:href="pb__decode_8c.html#a617bbe7dacb7abd3b7734598b83632b1" target="_top" xlink:title=" ">
<polygon fill="white" stroke="black" points="1416,-269.5 1416,-288.5 1499,-288.5 1499,-269.5 1416,-269.5"/>
<text text-anchor="middle" x="1457.5" y="-276.5" font-family="Helvetica,sans-Serif" font-size="10.00">pb_dec_svarint</text>
</a>
</g>
</g>
<!-- Node9&#45;&gt;Node10 -->
<g id="edge9" class="edge">
<title>Node9&#45;&gt;Node10</title>
<path fill="none" stroke="midnightblue" d="M1553.66,-279C1535.52,-279 1515.92,-279 1499.25,-279"/>
<polygon fill="midnightblue" stroke="midnightblue" points="1553.85,-282.5 1563.85,-279 1553.85,-275.5 1553.85,-282.5"/>
</g>
<!-- Node12 -->
<g id="node12" class="node">
<title>Node12</title>
<g id="a_node12"><a xlink:href="pb__decode_8c.html#a15f2b12ed6c126fe4e54c7ae0b588cb3" target="_top" xlink:title=" ">
<polygon fill="white" stroke="black" points="1574.5,-76.5 1574.5,-95.5 1651.5,-95.5 1651.5,-76.5 1574.5,-76.5"/>
<text text-anchor="middle" x="1613" y="-83.5" font-family="Helvetica,sans-Serif" font-size="10.00">pb_dec_bytes</text>
</a>
</g>
</g>
<!-- Node11&#45;&gt;Node12 -->
<g id="edge11" class="edge">
<title>Node11&#45;&gt;Node12</title>
<path fill="none" stroke="midnightblue" d="M1689.73,-96.5C1676.81,-94.71 1663.53,-92.87 1651.78,-91.24"/>
<polygon fill="midnightblue" stroke="midnightblue" points="1689.6,-100.02 1699.99,-97.93 1690.56,-93.08 1689.6,-100.02"/>
</g>
<!-- Node13 -->
<g id="node13" class="node">
<title>Node13</title>
<g id="a_node13"><a xlink:href="pb__decode_8c.html#ac5cddfbfd98fb7a18ce912e1ee6405d4" target="_top" xlink:title=" ">
<polygon fill="white" stroke="black" points="1574.5,-38.5 1574.5,-57.5 1651.5,-57.5 1651.5,-38.5 1574.5,-38.5"/>
<text text-anchor="middle" x="1613" y="-45.5" font-family="Helvetica,sans-Serif" font-size="10.00">pb_dec_string</text>
</a>
</g>
</g>
<!-- Node11&#45;&gt;Node13 -->
<g id="edge12" class="edge">
<title>Node11&#45;&gt;Node13</title>
<path fill="none" stroke="midnightblue" d="M1720.78,-91.37C1704.11,-83.96 1683.01,-74.76 1664,-67 1656.18,-63.81 1647.6,-60.48 1639.79,-57.53"/>
<polygon fill="midnightblue" stroke="midnightblue" points="1719.47,-94.62 1730.03,-95.5 1722.32,-88.22 1719.47,-94.62"/>
</g>
<!-- Node14 -->
<g id="node14" class="node">
<title>Node14</title>
<g id="a_node14"><a xlink:href="pb__decode_8c.html#aefe6134d81ea2f861f0111984553b23b" target="_top" xlink:title=" ">
<polygon fill="white" stroke="black" points="834,-0.5 834,-19.5 917,-19.5 917,-0.5 834,-0.5"/>
<text text-anchor="middle" x="875.5" y="-7.5" font-family="Helvetica,sans-Serif" font-size="10.00">pb_decode_tag</text>
</a>
</g>
</g>
<!-- Node11&#45;&gt;Node14 -->
<g id="edge13" class="edge">
<title>Node11&#45;&gt;Node14</title>
<path fill="none" stroke="midnightblue" d="M1736.87,-87.39C1721.19,-69.27 1694.1,-41.91 1664,-29 1579.7,7.15 1550.22,-10 1458.5,-10 1458.5,-10 1458.5,-10 1273,-10 1142.9,-10 988.78,-10 917.03,-10"/>
<polygon fill="midnightblue" stroke="midnightblue" points="1734.51,-90.03 1743.62,-95.44 1739.88,-85.53 1734.51,-90.03"/>
</g>
<!-- Node22 -->
<g id="node22" class="node">
<title>Node22</title>
<g id="a_node22"><a xlink:href="pb__decode_8c.html#a7433fc394255932c4f00274e7f890721" target="_top" xlink:title=" ">
<polygon fill="white" stroke="black" points="1389,-152.5 1389,-171.5 1526,-171.5 1526,-152.5 1389,-152.5"/>
<text text-anchor="middle" x="1457.5" y="-159.5" font-family="Helvetica,sans-Serif" font-size="10.00">pb_make_string_substream</text>
</a>
</g>
</g>
<!-- Node11&#45;&gt;Node22 -->
<g id="edge22" class="edge">
<title>Node11&#45;&gt;Node22</title>
<path fill="none" stroke="midnightblue" d="M1724.4,-119.28C1707.57,-127.63 1685.08,-137.57 1664,-143 1618.89,-154.61 1566.6,-159.33 1526.06,-161.16"/>
<polygon fill="midnightblue" stroke="midnightblue" points="1726.28,-122.25 1733.6,-114.59 1723.1,-116.01 1726.28,-122.25"/>
</g>
<!-- Node29 -->
<g id="node29" class="node">
<title>Node29</title>
<g id="a_node29"><a xlink:href="pb__decode_8c.html#afa3e9c4da6d998fd6315d4cbd51b02e4" target="_top" xlink:title=" ">
<polygon fill="white" stroke="black" points="1573,-114.5 1573,-133.5 1653,-133.5 1653,-114.5 1573,-114.5"/>
<text text-anchor="middle" x="1613" y="-121.5" font-family="Helvetica,sans-Serif" font-size="10.00">pb_skip_string</text>
</a>
</g>
</g>
<!-- Node11&#45;&gt;Node29 -->
<g id="edge35" class="edge">
<title>Node11&#45;&gt;Node29</title>
<path fill="none" stroke="midnightblue" d="M1690.03,-113.46C1677.48,-115.2 1664.58,-116.98 1653.06,-118.58"/>
<polygon fill="midnightblue" stroke="midnightblue" points="1690.56,-116.92 1699.99,-112.07 1689.6,-109.98 1690.56,-116.92"/>
</g>
<!-- Node15 -->
<g id="node15" class="node">
<title>Node15</title>
<g id="a_node15"><a xlink:href="pb__decode_8c.html#a0c0f95a964239344d503e724818e8fc0" target="_top" xlink:title=" ">
<polygon fill="white" stroke="black" points="550,-112.5 550,-131.5 642,-131.5 642,-112.5 550,-112.5"/>
<text text-anchor="middle" x="596" y="-119.5" font-family="Helvetica,sans-Serif" font-size="10.00">pb_decode_noinit</text>
</a>
</g>
</g>
<!-- Node14&#45;&gt;Node15 -->
<g id="edge14" class="edge">
<title>Node14&#45;&gt;Node15</title>
<path fill="none" stroke="midnightblue" d="M823.61,-6.81C782.19,-6.36 723.38,-10.71 678,-34 642.16,-52.39 614.12,-93.45 602.65,-112.25"/>
<polygon fill="midnightblue" stroke="midnightblue" points="823.67,-10.32 833.74,-7.02 823.82,-3.32 823.67,-10.32"/>
</g>
<!-- Node16 -->
<g id="node16" class="node">
<title>Node16</title>
<g id="a_node16"><a xlink:href="pb__decode_8c.html#adb01106a062444577e9e3f3a047db2ef" target="_top" xlink:title=" ">
<polygon fill="white" stroke="black" points="280.5,-162.5 280.5,-181.5 389.5,-181.5 389.5,-162.5 280.5,-162.5"/>
<text text-anchor="middle" x="335" y="-169.5" font-family="Helvetica,sans-Serif" font-size="10.00">pb_dec_submessage</text>
</a>
</g>
</g>
<!-- Node15&#45;&gt;Node16 -->
<g id="edge15" class="edge">
<title>Node15&#45;&gt;Node16</title>
<path fill="none" stroke="midnightblue" d="M539.84,-132.65C494.07,-141.48 429.56,-153.94 385.45,-162.45"/>
<polygon fill="midnightblue" stroke="midnightblue" points="540.73,-136.04 549.89,-130.71 539.4,-129.17 540.73,-136.04"/>
</g>
<!-- Node17 -->
<g id="node17" class="node">
<title>Node17</title>
<g id="a_node17"><a xlink:href="pb__decode_8c.html#a75c9a727abe84bfaaef633ac68d48cfa" target="_top" xlink:title=" ">
<polygon fill="white" stroke="black" points="450,-209.5 450,-228.5 514,-228.5 514,-209.5 450,-209.5"/>
<text text-anchor="middle" x="482" y="-216.5" font-family="Helvetica,sans-Serif" font-size="10.00">pb_decode</text>
</a>
</g>
</g>
<!-- Node15&#45;&gt;Node17 -->
<g id="edge16" class="edge">
<title>Node15&#45;&gt;Node17</title>
<path fill="none" stroke="midnightblue" d="M576.27,-138.22C552.78,-158.56 513.28,-192.78 494.1,-209.38"/>
<polygon fill="midnightblue" stroke="midnightblue" points="578.58,-140.85 583.85,-131.66 574,-135.56 578.58,-140.85"/>
</g>
<!-- Node17&#45;&gt;Node16 -->
<g id="edge20" class="edge">
<title>Node17&#45;&gt;Node16</title>
<path fill="none" stroke="midnightblue" d="M449.88,-205.47C438.69,-200.86 425.89,-195.9 414,-192 402.31,-188.16 389.44,-184.6 377.58,-181.58"/>
<polygon fill="midnightblue" stroke="midnightblue" points="448.67,-208.75 459.24,-209.38 451.37,-202.29 448.67,-208.75"/>
</g>
<!-- Node18 -->
<g id="node18" class="node">
<title>Node18</title>
<g id="a_node18"><a xlink:href="class_k_u_k_a_1_1_f_r_i_1_1_monitoring_message_decoder.html#aa72fb1e622847a636e6f5d7ac4770103" target="_top" xlink:title=" ">
<polygon fill="white" stroke="black" points="256,-201 256,-231 414,-231 414,-201 256,-201"/>
<text text-anchor="start" x="264" y="-219" font-family="Helvetica,sans-Serif" font-size="10.00">KUKA::FRI::MonitoringMessage</text>
<text text-anchor="middle" x="335" y="-208" font-family="Helvetica,sans-Serif" font-size="10.00">Decoder::decode</text>
</a>
</g>
</g>
<!-- Node17&#45;&gt;Node18 -->
<g id="edge17" class="edge">
<title>Node17&#45;&gt;Node18</title>
<path fill="none" stroke="midnightblue" d="M439.7,-218.15C431.64,-217.98 422.94,-217.8 414.12,-217.62"/>
<polygon fill="midnightblue" stroke="midnightblue" points="439.82,-221.65 449.89,-218.36 439.97,-214.65 439.82,-221.65"/>
</g>
<!-- Node21 -->
<g id="node21" class="node">
<title>Node21</title>
<g id="a_node21"><a xlink:href="pb__decode_8c.html#a7c030d7dee687e354a62a72d45dca39b" target="_top" xlink:title=" ">
<polygon fill="white" stroke="black" points="281,-250.5 281,-269.5 389,-269.5 389,-250.5 281,-250.5"/>
<text text-anchor="middle" x="335" y="-257.5" font-family="Helvetica,sans-Serif" font-size="10.00">pb_decode_delimited</text>
</a>
</g>
</g>
<!-- Node17&#45;&gt;Node21 -->
<g id="edge21" class="edge">
<title>Node17&#45;&gt;Node21</title>
<path fill="none" stroke="midnightblue" d="M443.73,-231.81C434.09,-234.97 423.7,-238.23 414,-241 402.34,-244.33 389.6,-247.59 377.85,-250.44"/>
<polygon fill="midnightblue" stroke="midnightblue" points="445.05,-235.06 453.44,-228.59 442.85,-228.42 445.05,-235.06"/>
</g>
<!-- Node19 -->
<g id="node19" class="node">
<title>Node19</title>
<g id="a_node19"><a xlink:href="class_k_u_k_a_1_1_f_r_i_1_1_client_application.html#a9939bfd1fa78c59dc3675a6d2a5de7a7" target="_top" xlink:title="Run a single processing step.">
<polygon fill="white" stroke="black" points="74,-201 74,-231 220,-231 220,-201 74,-201"/>
<text text-anchor="start" x="82" y="-219" font-family="Helvetica,sans-Serif" font-size="10.00">KUKA::FRI::ClientApplication</text>
<text text-anchor="middle" x="147" y="-208" font-family="Helvetica,sans-Serif" font-size="10.00">::step</text>
</a>
</g>
</g>
<!-- Node18&#45;&gt;Node19 -->
<g id="edge18" class="edge">
<title>Node18&#45;&gt;Node19</title>
<path fill="none" stroke="midnightblue" d="M245.88,-216C237.29,-216 228.65,-216 220.24,-216"/>
<polygon fill="midnightblue" stroke="midnightblue" points="245.93,-219.5 255.93,-216 245.93,-212.5 245.93,-219.5"/>
</g>
<!-- Node20 -->
<g id="node20" class="node">
<title>Node20</title>
<g id="a_node20"><a xlink:href="_i_o_access_app_8cpp.html#a3c04138a5bfe5d72780bb7e82a18e627" target="_top" xlink:title=" ">
<polygon fill="white" stroke="black" points="0,-206.5 0,-225.5 38,-225.5 38,-206.5 0,-206.5"/>
<text text-anchor="middle" x="19" y="-213.5" font-family="Helvetica,sans-Serif" font-size="10.00">main</text>
</a>
</g>
</g>
<!-- Node19&#45;&gt;Node20 -->
<g id="edge19" class="edge">
<title>Node19&#45;&gt;Node20</title>
<path fill="none" stroke="midnightblue" d="M63.74,-216C54.28,-216 45.45,-216 38.25,-216"/>
<polygon fill="midnightblue" stroke="midnightblue" points="63.8,-219.5 73.8,-216 63.8,-212.5 63.8,-219.5"/>
</g>
<!-- Node22&#45;&gt;Node16 -->
<g id="edge33" class="edge">
<title>Node22&#45;&gt;Node16</title>
<path fill="none" stroke="midnightblue" d="M1404.5,-173.45C1388.11,-176.55 1369.87,-179.46 1353,-181 1283.07,-187.37 1265.22,-181.37 1195,-181 890.39,-179.4 525.03,-174.63 389.77,-172.76"/>
<polygon fill="midnightblue" stroke="midnightblue" points="1405.3,-176.86 1414.44,-171.51 1403.95,-169.99 1405.3,-176.86"/>
</g>
<!-- Node22&#45;&gt;Node21 -->
<g id="edge34" class="edge">
<title>Node22&#45;&gt;Node21</title>
<path fill="none" stroke="midnightblue" d="M1424.5,-175.42C1359.07,-201.62 1204.73,-257 1069.5,-257 1069.5,-257 1069.5,-257 595,-257 523.73,-257 441.42,-258.15 389.07,-259.03"/>
<polygon fill="midnightblue" stroke="midnightblue" points="1425.91,-178.63 1433.86,-171.63 1423.28,-172.14 1425.91,-178.63"/>
</g>
<!-- Node23 -->
<g id="node23" class="node">
<title>Node23</title>
<g id="a_node23"><a xlink:href="pb__decode_8c.html#a69a78d2efcd4b9057215ac8b79a5eb2b" target="_top" xlink:title=" ">
<polygon fill="white" stroke="black" points="1217.5,-76.5 1217.5,-95.5 1330.5,-95.5 1330.5,-76.5 1217.5,-76.5"/>
<text text-anchor="middle" x="1274" y="-83.5" font-family="Helvetica,sans-Serif" font-size="10.00">decode_callback_field</text>
</a>
</g>
</g>
<!-- Node22&#45;&gt;Node23 -->
<g id="edge23" class="edge">
<title>Node22&#45;&gt;Node23</title>
<path fill="none" stroke="midnightblue" d="M1433.42,-146.96C1413,-134.23 1382.01,-116.29 1353,-105 1343.52,-101.31 1333.1,-98.18 1323.05,-95.59"/>
<polygon fill="midnightblue" stroke="midnightblue" points="1431.7,-150.01 1442.02,-152.4 1435.44,-144.1 1431.7,-150.01"/>
</g>
<!-- Node27 -->
<g id="node27" class="node">
<title>Node27</title>
<g id="a_node27"><a xlink:href="pb__decode_8c.html#af65dd063304df2ed380dc411bb6caae6" target="_top" xlink:title=" ">
<polygon fill="white" stroke="black" points="1221,-114.5 1221,-133.5 1327,-133.5 1327,-114.5 1221,-114.5"/>
<text text-anchor="middle" x="1274" y="-121.5" font-family="Helvetica,sans-Serif" font-size="10.00">decode_pointer_field</text>
</a>
</g>
</g>
<!-- Node22&#45;&gt;Node27 -->
<g id="edge29" class="edge">
<title>Node22&#45;&gt;Node27</title>
<path fill="none" stroke="midnightblue" d="M1400.71,-150.32C1374.97,-144.93 1344.8,-138.61 1320.47,-133.52"/>
<polygon fill="midnightblue" stroke="midnightblue" points="1400.19,-153.79 1410.7,-152.41 1401.63,-146.94 1400.19,-153.79"/>
</g>
<!-- Node28 -->
<g id="node28" class="node">
<title>Node28</title>
<g id="a_node28"><a xlink:href="pb__decode_8c.html#a02c14bf9763a469e0414bf9a1eb13632" target="_top" xlink:title=" ">
<polygon fill="white" stroke="black" points="1223.5,-152.5 1223.5,-171.5 1324.5,-171.5 1324.5,-152.5 1223.5,-152.5"/>
<text text-anchor="middle" x="1274" y="-159.5" font-family="Helvetica,sans-Serif" font-size="10.00">decode_static_field</text>
</a>
</g>
</g>
<!-- Node22&#45;&gt;Node28 -->
<g id="edge31" class="edge">
<title>Node22&#45;&gt;Node28</title>
<path fill="none" stroke="midnightblue" d="M1378.83,-162C1360.52,-162 1341.47,-162 1324.77,-162"/>
<polygon fill="midnightblue" stroke="midnightblue" points="1378.92,-165.5 1388.92,-162 1378.92,-158.5 1378.92,-165.5"/>
</g>
<!-- Node24 -->
<g id="node24" class="node">
<title>Node24</title>
<g id="a_node24"><a xlink:href="pb__decode_8c.html#a48151430d329252cc54fd9764dd820f7" target="_top" xlink:title=" ">
<polygon fill="white" stroke="black" points="1033,-114.5 1033,-133.5 1104,-133.5 1104,-114.5 1033,-114.5"/>
<text text-anchor="middle" x="1068.5" y="-121.5" font-family="Helvetica,sans-Serif" font-size="10.00">decode_field</text>
</a>
</g>
</g>
<!-- Node23&#45;&gt;Node24 -->
<g id="edge24" class="edge">
<title>Node23&#45;&gt;Node24</title>
<path fill="none" stroke="midnightblue" d="M1211.74,-97.44C1176.58,-104 1133.71,-112.01 1104.28,-117.5"/>
<polygon fill="midnightblue" stroke="midnightblue" points="1212.72,-100.82 1221.91,-95.54 1211.44,-93.94 1212.72,-100.82"/>
</g>
<!-- Node24&#45;&gt;Node15 -->
<g id="edge28" class="edge">
<title>Node24&#45;&gt;Node15</title>
<path fill="none" stroke="midnightblue" d="M1022.79,-123.81C933.09,-123.43 732.12,-122.57 642.11,-122.19"/>
<polygon fill="midnightblue" stroke="midnightblue" points="1022.89,-127.31 1032.9,-123.85 1022.92,-120.31 1022.89,-127.31"/>
</g>
<!-- Node25 -->
<g id="node25" class="node">
<title>Node25</title>
<g id="a_node25"><a xlink:href="pb__decode_8c.html#a7c09905fda4c6398697bcf0d42882c04" target="_top" xlink:title=" ">
<polygon fill="white" stroke="black" points="809,-143.5 809,-162.5 942,-162.5 942,-143.5 809,-143.5"/>
<text text-anchor="middle" x="875.5" y="-150.5" font-family="Helvetica,sans-Serif" font-size="10.00">default_extension_decoder</text>
</a>
</g>
</g>
<!-- Node24&#45;&gt;Node25 -->
<g id="edge25" class="edge">
<title>Node24&#45;&gt;Node25</title>
<path fill="none" stroke="midnightblue" d="M1022.7,-130.8C997.89,-134.57 966.64,-139.31 939.41,-143.45"/>
<polygon fill="midnightblue" stroke="midnightblue" points="1023.55,-134.21 1032.91,-129.25 1022.5,-127.29 1023.55,-134.21"/>
</g>
<!-- Node26 -->
<g id="node26" class="node">
<title>Node26</title>
<g id="a_node26"><a xlink:href="pb__decode_8c.html#a30eb2ecefe2a2095c1c668e3932b63fc" target="_top" xlink:title=" ">
<polygon fill="white" stroke="black" points="678,-143.5 678,-162.5 773,-162.5 773,-143.5 678,-143.5"/>
<text text-anchor="middle" x="725.5" y="-150.5" font-family="Helvetica,sans-Serif" font-size="10.00">decode_extension</text>
</a>
</g>
</g>
<!-- Node25&#45;&gt;Node26 -->
<g id="edge26" class="edge">
<title>Node25&#45;&gt;Node26</title>
<path fill="none" stroke="midnightblue" d="M798.52,-153C789.82,-153 781.15,-153 773.01,-153"/>
<polygon fill="midnightblue" stroke="midnightblue" points="798.72,-156.5 808.72,-153 798.72,-149.5 798.72,-156.5"/>
</g>
<!-- Node26&#45;&gt;Node15 -->
<g id="edge27" class="edge">
<title>Node26&#45;&gt;Node15</title>
<path fill="none" stroke="midnightblue" d="M675.13,-141C662.29,-137.87 648.63,-134.55 636.38,-131.58"/>
<polygon fill="midnightblue" stroke="midnightblue" points="674.66,-144.48 685.21,-143.45 676.32,-137.68 674.66,-144.48"/>
</g>
<!-- Node27&#45;&gt;Node24 -->
<g id="edge30" class="edge">
<title>Node27&#45;&gt;Node24</title>
<path fill="none" stroke="midnightblue" d="M1210.73,-124C1175.74,-124 1133.38,-124 1104.23,-124"/>
<polygon fill="midnightblue" stroke="midnightblue" points="1210.86,-127.5 1220.86,-124 1210.86,-120.5 1210.86,-127.5"/>
</g>
<!-- Node28&#45;&gt;Node24 -->
<g id="edge32" class="edge">
<title>Node28&#45;&gt;Node24</title>
<path fill="none" stroke="midnightblue" d="M1213.24,-150.84C1177.77,-144.22 1134.05,-136.05 1104.2,-130.48"/>
<polygon fill="midnightblue" stroke="midnightblue" points="1213.01,-154.36 1223.48,-152.75 1214.29,-147.48 1213.01,-154.36"/>
</g>
<!-- Node30 -->
<g id="node30" class="node">
<title>Node30</title>
<g id="a_node30"><a xlink:href="pb__decode_8c.html#ab5102942c8402c215f836364e1b775b1" target="_top" xlink:title=" ">
<polygon fill="white" stroke="black" points="1420.5,-76.5 1420.5,-95.5 1494.5,-95.5 1494.5,-76.5 1420.5,-76.5"/>
<text text-anchor="middle" x="1457.5" y="-83.5" font-family="Helvetica,sans-Serif" font-size="10.00">pb_skip_field</text>
</a>
</g>
</g>
<!-- Node29&#45;&gt;Node30 -->
<g id="edge36" class="edge">
<title>Node29&#45;&gt;Node30</title>
<path fill="none" stroke="midnightblue" d="M1563.32,-111.95C1541.03,-106.43 1515.09,-100.01 1494.59,-94.93"/>
<polygon fill="midnightblue" stroke="midnightblue" points="1562.72,-115.41 1573.27,-114.41 1564.4,-108.61 1562.72,-115.41"/>
</g>
<!-- Node30&#45;&gt;Node15 -->
<g id="edge38" class="edge">
<title>Node30&#45;&gt;Node15</title>
<path fill="none" stroke="midnightblue" d="M1410.13,-76.32C1392.33,-72.91 1371.79,-69.35 1353,-67 1227.69,-51.35 1195.78,-48 1069.5,-48 1069.5,-48 1069.5,-48 874.5,-48 775.53,-48 663.2,-92.49 617.73,-112.48"/>
<polygon fill="midnightblue" stroke="midnightblue" points="1409.77,-79.81 1420.25,-78.29 1411.11,-72.94 1409.77,-79.81"/>
</g>
<!-- Node30&#45;&gt;Node23 -->
<g id="edge37" class="edge">
<title>Node30&#45;&gt;Node23</title>
<path fill="none" stroke="midnightblue" d="M1410.18,-86C1385.92,-86 1356.04,-86 1330.54,-86"/>
<polygon fill="midnightblue" stroke="midnightblue" points="1410.21,-89.5 1420.21,-86 1410.21,-82.5 1410.21,-89.5"/>
</g>
</g>
</svg>
