<?xml version="1.0" encoding="UTF-8" standalone="no"?>
<!DOCTYPE svg PUBLIC "-//W3C//DTD SVG 1.1//EN"
 "http://www.w3.org/Graphics/SVG/1.1/DTD/svg11.dtd">
<!-- Generated by graphviz version 2.43.0 (0)
 -->
<!-- Title: KUKA::FRI::CommandMessageEncoder::LocalCommandDataContainer::~LocalCommandDataContainer Pages: 1 -->
<svg width="341pt" height="50pt"
 viewBox="0.00 0.00 341.00 50.00" xmlns="http://www.w3.org/2000/svg" xmlns:xlink="http://www.w3.org/1999/xlink">
<g id="graph0" class="graph" transform="scale(1 1) rotate(0) translate(4 46)">
<title>KUKA::FRI::CommandMessageEncoder::LocalCommandDataContainer::~LocalCommandDataContainer</title>
<polygon fill="white" stroke="transparent" points="-4,4 -4,-46 337,-46 337,4 -4,4"/>
<!-- Node1 -->
<g id="node1" class="node">
<title>Node1</title>
<g id="a_node1"><a xlink:title=" ">
<polygon fill="#bfbfbf" stroke="black" points="0,-0.5 0,-41.5 190,-41.5 190,-0.5 0,-0.5"/>
<text text-anchor="start" x="8" y="-29.5" font-family="Helvetica,sans-Serif" font-size="10.00">KUKA::FRI::CommandMessage</text>
<text text-anchor="start" x="8" y="-18.5" font-family="Helvetica,sans-Serif" font-size="10.00">Encoder::LocalCommandDataContainer</text>
<text text-anchor="middle" x="95" y="-7.5" font-family="Helvetica,sans-Serif" font-size="10.00">::~LocalCommandDataContainer</text>
</a>
</g>
</g>
<!-- Node2 -->
<g id="node2" class="node">
<title>Node2</title>
<g id="a_node2"><a xlink:href="pb__frimessages__callbacks_8c.html#a7b699fd7035a38bb0b52c322e4a9cd89" target="_top" xlink:title=" ">
<polygon fill="white" stroke="black" points="226,-11.5 226,-30.5 333,-30.5 333,-11.5 226,-11.5"/>
<text text-anchor="middle" x="279.5" y="-18.5" font-family="Helvetica,sans-Serif" font-size="10.00">free_repeatedDouble</text>
</a>
</g>
</g>
<!-- Node1&#45;&gt;Node2 -->
<g id="edge1" class="edge">
<title>Node1&#45;&gt;Node2</title>
<path fill="none" stroke="midnightblue" d="M190.19,-21C198.77,-21 207.31,-21 215.52,-21"/>
<polygon fill="midnightblue" stroke="midnightblue" points="215.71,-24.5 225.71,-21 215.71,-17.5 215.71,-24.5"/>
</g>
</g>
</svg>
