<?xml version="1.0" encoding="UTF-8" standalone="no"?>
<!DOCTYPE svg PUBLIC "-//W3C//DTD SVG 1.1//EN"
 "http://www.w3.org/Graphics/SVG/1.1/DTD/svg11.dtd">
<!-- Generated by graphviz version 2.43.0 (0)
 -->
<!-- Title: KUKA::FRI::MonitoringMessageDecoder::LocalMonitoringDataContainer Pages: 1 -->
<svg width="312pt" height="161pt"
 viewBox="0.00 0.00 312.00 161.00" xmlns="http://www.w3.org/2000/svg" xmlns:xlink="http://www.w3.org/1999/xlink">
<g id="graph0" class="graph" transform="scale(1 1) rotate(0) translate(4 157)">
<title>KUKA::FRI::MonitoringMessageDecoder::LocalMonitoringDataContainer</title>
<polygon fill="white" stroke="transparent" points="-4,4 -4,-157 308,-157 308,4 -4,4"/>
<!-- Node1 -->
<g id="node1" class="node">
<title>Node1</title>
<g id="a_node1"><a xlink:title=" ">
<polygon fill="#bfbfbf" stroke="black" points="40.5,-0.5 40.5,-30.5 231.5,-30.5 231.5,-0.5 40.5,-0.5"/>
<text text-anchor="start" x="48.5" y="-18.5" font-family="Helvetica,sans-Serif" font-size="10.00">KUKA::FRI::MonitoringMessage</text>
<text text-anchor="middle" x="136" y="-7.5" font-family="Helvetica,sans-Serif" font-size="10.00">Decoder::LocalMonitoringDataContainer</text>
</a>
</g>
</g>
<!-- Node2 -->
<g id="node2" class="node">
<title>Node2</title>
<g id="a_node2"><a xlink:href="structrepeated_double_arguments.html" target="_top" xlink:title=" ">
<polygon fill="white" stroke="black" points="0,-133.5 0,-152.5 132,-152.5 132,-133.5 0,-133.5"/>
<text text-anchor="middle" x="66" y="-140.5" font-family="Helvetica,sans-Serif" font-size="10.00">repeatedDoubleArguments</text>
</a>
</g>
</g>
<!-- Node2&#45;&gt;Node1 -->
<g id="edge1" class="edge">
<title>Node2&#45;&gt;Node1</title>
<path fill="none" stroke="#9a32cd" stroke-dasharray="5,2" d="M66.5,-123.22C67.87,-103.2 72.56,-71.38 88,-49 93.09,-41.63 100.44,-35.45 107.86,-30.54"/>
<polygon fill="#9a32cd" stroke="#9a32cd" points="62.99,-123.33 66.02,-133.48 69.98,-123.66 62.99,-123.33"/>
<text text-anchor="middle" x="136.5" y="-107" font-family="Helvetica,sans-Serif" font-size="10.00"> m_AxQCmdIPO</text>
<text text-anchor="middle" x="136.5" y="-96" font-family="Helvetica,sans-Serif" font-size="10.00">m_AxQCmdT1mLocal</text>
<text text-anchor="middle" x="136.5" y="-85" font-family="Helvetica,sans-Serif" font-size="10.00">m_AxQMsrLocal</text>
<text text-anchor="middle" x="136.5" y="-74" font-family="Helvetica,sans-Serif" font-size="10.00">m_AxTauCmdLocal</text>
<text text-anchor="middle" x="136.5" y="-63" font-family="Helvetica,sans-Serif" font-size="10.00">m_AxTauExtMsrLocal</text>
<text text-anchor="middle" x="136.5" y="-52" font-family="Helvetica,sans-Serif" font-size="10.00">m_AxTauMsrLocal</text>
</g>
<!-- Node3 -->
<g id="node3" class="node">
<title>Node3</title>
<g id="a_node3"><a xlink:href="structrepeated_int_arguments.html" target="_top" xlink:title=" ">
<polygon fill="white" stroke="black" points="150.5,-133.5 150.5,-152.5 263.5,-152.5 263.5,-133.5 150.5,-133.5"/>
<text text-anchor="middle" x="207" y="-140.5" font-family="Helvetica,sans-Serif" font-size="10.00">repeatedIntArguments</text>
</a>
</g>
</g>
<!-- Node3&#45;&gt;Node1 -->
<g id="edge2" class="edge">
<title>Node3&#45;&gt;Node1</title>
<path fill="none" stroke="#9a32cd" stroke-dasharray="5,2" d="M206.56,-123.47C205.25,-103.45 200.62,-71.41 185,-49 179.86,-41.63 172.47,-35.49 164.97,-30.6"/>
<polygon fill="#9a32cd" stroke="#9a32cd" points="203.06,-123.63 207.01,-133.47 210.06,-123.32 203.06,-123.63"/>
<text text-anchor="middle" x="254.5" y="-79.5" font-family="Helvetica,sans-Serif" font-size="10.00"> m_AxDriveStateLocal</text>
</g>
</g>
</svg>
