<?xml version="1.0" encoding="UTF-8" standalone="no"?>
<!DOCTYPE svg PUBLIC "-//W3C//DTD SVG 1.1//EN"
 "http://www.w3.org/Graphics/SVG/1.1/DTD/svg11.dtd">
<!-- Generated by graphviz version 2.43.0 (0)
 -->
<!-- Title: _MessageMonitorData Pages: 1 -->
<svg width="336pt" height="206pt"
 viewBox="0.00 0.00 336.00 206.00" xmlns="http://www.w3.org/2000/svg" xmlns:xlink="http://www.w3.org/1999/xlink">
<g id="graph0" class="graph" transform="scale(1 1) rotate(0) translate(4 202)">
<title>_MessageMonitorData</title>
<polygon fill="white" stroke="transparent" points="-4,4 -4,-202 332,-202 332,4 -4,4"/>
<!-- Node1 -->
<g id="node1" class="node">
<title>Node1</title>
<g id="a_node1"><a xlink:title=" ">
<polygon fill="#bfbfbf" stroke="black" points="66.5,-0.5 66.5,-19.5 181.5,-19.5 181.5,-0.5 66.5,-0.5"/>
<text text-anchor="middle" x="124" y="-7.5" font-family="Helvetica,sans-Serif" font-size="10.00">_MessageMonitorData</text>
</a>
</g>
</g>
<!-- Node2 -->
<g id="node2" class="node">
<title>Node2</title>
<g id="a_node2"><a xlink:href="struct___time_stamp.html" target="_top" xlink:title=" ">
<polygon fill="white" stroke="black" points="0,-111.5 0,-130.5 72,-130.5 72,-111.5 0,-111.5"/>
<text text-anchor="middle" x="36" y="-118.5" font-family="Helvetica,sans-Serif" font-size="10.00">_TimeStamp</text>
</a>
</g>
</g>
<!-- Node2&#45;&gt;Node1 -->
<g id="edge1" class="edge">
<title>Node2&#45;&gt;Node1</title>
<path fill="none" stroke="#9a32cd" stroke-dasharray="5,2" d="M40.03,-101.35C44.76,-83.26 54.2,-55.98 71,-38 78.54,-29.93 89.04,-23.89 98.7,-19.59"/>
<polygon fill="#9a32cd" stroke="#9a32cd" points="36.58,-100.72 37.66,-111.26 43.39,-102.34 36.58,-100.72"/>
<text text-anchor="middle" x="95.5" y="-63" font-family="Helvetica,sans-Serif" font-size="10.00"> timestamp</text>
</g>
<!-- Node3 -->
<g id="node3" class="node">
<title>Node3</title>
<g id="a_node3"><a xlink:href="struct___fri_i_o_value.html" target="_top" xlink:title=" ">
<polygon fill="white" stroke="black" points="90,-111.5 90,-130.5 158,-130.5 158,-111.5 90,-111.5"/>
<text text-anchor="middle" x="124" y="-118.5" font-family="Helvetica,sans-Serif" font-size="10.00">_FriIOValue</text>
</a>
</g>
</g>
<!-- Node3&#45;&gt;Node1 -->
<g id="edge2" class="edge">
<title>Node3&#45;&gt;Node1</title>
<path fill="none" stroke="#9a32cd" stroke-dasharray="5,2" d="M124,-101.19C124,-77.28 124,-36.99 124,-19.51"/>
<polygon fill="#9a32cd" stroke="#9a32cd" points="120.5,-101.45 124,-111.45 127.5,-101.45 120.5,-101.45"/>
<text text-anchor="middle" x="159" y="-63" font-family="Helvetica,sans-Serif" font-size="10.00"> readIORequest</text>
</g>
<!-- Node4 -->
<g id="node4" class="node">
<title>Node4</title>
<g id="a_node4"><a xlink:href="struct___joint_values.html" target="_top" xlink:title=" ">
<polygon fill="white" stroke="black" points="181,-111.5 181,-130.5 253,-130.5 253,-111.5 181,-111.5"/>
<text text-anchor="middle" x="217" y="-118.5" font-family="Helvetica,sans-Serif" font-size="10.00">_JointValues</text>
</a>
</g>
</g>
<!-- Node4&#45;&gt;Node1 -->
<g id="edge3" class="edge">
<title>Node4&#45;&gt;Node1</title>
<path fill="none" stroke="#9a32cd" stroke-dasharray="5,2" d="M216.69,-101.09C215.39,-82.81 210.71,-55.39 195,-38 187.31,-29.49 176.64,-23.64 165.92,-19.63"/>
<polygon fill="#9a32cd" stroke="#9a32cd" points="213.19,-101.29 217.12,-111.12 220.18,-100.98 213.19,-101.29"/>
<text text-anchor="middle" x="271.5" y="-85" font-family="Helvetica,sans-Serif" font-size="10.00"> commandedJointPosition</text>
<text text-anchor="middle" x="271.5" y="-74" font-family="Helvetica,sans-Serif" font-size="10.00">commandedTorque</text>
<text text-anchor="middle" x="271.5" y="-63" font-family="Helvetica,sans-Serif" font-size="10.00">externalTorque</text>
<text text-anchor="middle" x="271.5" y="-52" font-family="Helvetica,sans-Serif" font-size="10.00">measuredJointPosition</text>
<text text-anchor="middle" x="271.5" y="-41" font-family="Helvetica,sans-Serif" font-size="10.00">measuredTorque</text>
</g>
<!-- Node5 -->
<g id="node5" class="node">
<title>Node5</title>
<g id="a_node5"><a xlink:href="struct__pb__callback__t.html" target="_top" xlink:title=" ">
<polygon fill="white" stroke="black" points="176,-178.5 176,-197.5 258,-197.5 258,-178.5 176,-178.5"/>
<text text-anchor="middle" x="217" y="-185.5" font-family="Helvetica,sans-Serif" font-size="10.00">_pb_callback_t</text>
</a>
</g>
</g>
<!-- Node5&#45;&gt;Node4 -->
<g id="edge4" class="edge">
<title>Node5&#45;&gt;Node4</title>
<path fill="none" stroke="#9a32cd" stroke-dasharray="5,2" d="M217,-168.04C217,-155.67 217,-140.12 217,-130.63"/>
<polygon fill="#9a32cd" stroke="#9a32cd" points="213.5,-168.23 217,-178.23 220.5,-168.23 213.5,-168.23"/>
<text text-anchor="middle" x="230.5" y="-152" font-family="Helvetica,sans-Serif" font-size="10.00"> value</text>
</g>
</g>
</svg>
