<?xml version="1.0" encoding="UTF-8" standalone="no"?>
<!DOCTYPE svg PUBLIC "-//W3C//DTD SVG 1.1//EN"
 "http://www.w3.org/Graphics/SVG/1.1/DTD/svg11.dtd">
<!-- Generated by graphviz version 2.43.0 (0)
 -->
<!-- Title: _MessageCommandData Pages: 1 -->
<svg width="491pt" height="173pt"
 viewBox="0.00 0.00 491.00 173.00" xmlns="http://www.w3.org/2000/svg" xmlns:xlink="http://www.w3.org/1999/xlink">
<g id="graph0" class="graph" transform="scale(1 1) rotate(0) translate(4 169)">
<title>_MessageCommandData</title>
<polygon fill="white" stroke="transparent" points="-4,4 -4,-169 487,-169 487,4 -4,4"/>
<!-- Node1 -->
<g id="node1" class="node">
<title>Node1</title>
<g id="a_node1"><a xlink:title=" ">
<polygon fill="#bfbfbf" stroke="black" points="140,-0.5 140,-19.5 268,-19.5 268,-0.5 140,-0.5"/>
<text text-anchor="middle" x="204" y="-7.5" font-family="Helvetica,sans-Serif" font-size="10.00">_MessageCommandData</text>
</a>
</g>
</g>
<!-- Node2 -->
<g id="node2" class="node">
<title>Node2</title>
<g id="a_node2"><a xlink:href="struct___fri_i_o_value.html" target="_top" xlink:title=" ">
<polygon fill="white" stroke="black" points="0,-78.5 0,-97.5 68,-97.5 68,-78.5 0,-78.5"/>
<text text-anchor="middle" x="34" y="-85.5" font-family="Helvetica,sans-Serif" font-size="10.00">_FriIOValue</text>
</a>
</g>
</g>
<!-- Node2&#45;&gt;Node1 -->
<g id="edge1" class="edge">
<title>Node2&#45;&gt;Node1</title>
<path fill="none" stroke="#9a32cd" stroke-dasharray="5,2" d="M33.43,-68.21C34.16,-57.89 36.92,-45.67 45,-38 58.66,-25.04 101.86,-18.25 139.78,-14.71"/>
<polygon fill="#9a32cd" stroke="#9a32cd" points="29.93,-68.3 33.28,-78.35 36.93,-68.41 29.93,-68.3"/>
<text text-anchor="middle" x="81" y="-46.5" font-family="Helvetica,sans-Serif" font-size="10.00"> writeIORequest</text>
</g>
<!-- Node3 -->
<g id="node3" class="node">
<title>Node3</title>
<g id="a_node3"><a xlink:href="struct___transformation.html" target="_top" xlink:title=" ">
<polygon fill="white" stroke="black" points="86.5,-78.5 86.5,-97.5 173.5,-97.5 173.5,-78.5 86.5,-78.5"/>
<text text-anchor="middle" x="130" y="-85.5" font-family="Helvetica,sans-Serif" font-size="10.00">_Transformation</text>
</a>
</g>
</g>
<!-- Node3&#45;&gt;Node1 -->
<g id="edge2" class="edge">
<title>Node3&#45;&gt;Node1</title>
<path fill="none" stroke="#9a32cd" stroke-dasharray="5,2" d="M123.15,-68.78C120.64,-58.83 119.75,-46.78 126,-38 132.07,-29.48 141.02,-23.62 150.71,-19.6"/>
<polygon fill="#9a32cd" stroke="#9a32cd" points="119.87,-70.03 126.24,-78.5 126.54,-67.91 119.87,-70.03"/>
<text text-anchor="middle" x="189.5" y="-46.5" font-family="Helvetica,sans-Serif" font-size="10.00"> commandedTransformations</text>
</g>
<!-- Node4 -->
<g id="node4" class="node">
<title>Node4</title>
<g id="a_node4"><a xlink:href="struct___time_stamp.html" target="_top" xlink:title=" ">
<polygon fill="white" stroke="black" points="94,-145.5 94,-164.5 166,-164.5 166,-145.5 94,-145.5"/>
<text text-anchor="middle" x="130" y="-152.5" font-family="Helvetica,sans-Serif" font-size="10.00">_TimeStamp</text>
</a>
</g>
</g>
<!-- Node4&#45;&gt;Node3 -->
<g id="edge3" class="edge">
<title>Node4&#45;&gt;Node3</title>
<path fill="none" stroke="#9a32cd" stroke-dasharray="5,2" d="M130,-135.04C130,-122.67 130,-107.12 130,-97.63"/>
<polygon fill="#9a32cd" stroke="#9a32cd" points="126.5,-135.23 130,-145.23 133.5,-135.23 126.5,-135.23"/>
<text text-anchor="middle" x="154.5" y="-119" font-family="Helvetica,sans-Serif" font-size="10.00"> timestamp</text>
</g>
<!-- Node5 -->
<g id="node5" class="node">
<title>Node5</title>
<g id="a_node5"><a xlink:href="struct___joint_values.html" target="_top" xlink:title=" ">
<polygon fill="white" stroke="black" points="233,-78.5 233,-97.5 305,-97.5 305,-78.5 233,-78.5"/>
<text text-anchor="middle" x="269" y="-85.5" font-family="Helvetica,sans-Serif" font-size="10.00">_JointValues</text>
</a>
</g>
</g>
<!-- Node5&#45;&gt;Node1 -->
<g id="edge4" class="edge">
<title>Node5&#45;&gt;Node1</title>
<path fill="none" stroke="#9a32cd" stroke-dasharray="5,2" d="M268.13,-68.37C266.82,-58.46 263.8,-46.58 257,-38 250.46,-29.74 240.72,-23.78 231.36,-19.59"/>
<polygon fill="#9a32cd" stroke="#9a32cd" points="264.65,-68.79 268.99,-78.45 271.62,-68.19 264.65,-68.79"/>
<text text-anchor="middle" x="294.5" y="-52" font-family="Helvetica,sans-Serif" font-size="10.00"> jointPosition</text>
<text text-anchor="middle" x="294.5" y="-41" font-family="Helvetica,sans-Serif" font-size="10.00">jointTorque</text>
</g>
<!-- Node6 -->
<g id="node6" class="node">
<title>Node6</title>
<g id="a_node6"><a xlink:href="struct__pb__callback__t.html" target="_top" xlink:title=" ">
<polygon fill="white" stroke="black" points="228,-145.5 228,-164.5 310,-164.5 310,-145.5 228,-145.5"/>
<text text-anchor="middle" x="269" y="-152.5" font-family="Helvetica,sans-Serif" font-size="10.00">_pb_callback_t</text>
</a>
</g>
</g>
<!-- Node6&#45;&gt;Node5 -->
<g id="edge5" class="edge">
<title>Node6&#45;&gt;Node5</title>
<path fill="none" stroke="#9a32cd" stroke-dasharray="5,2" d="M269,-135.04C269,-122.67 269,-107.12 269,-97.63"/>
<polygon fill="#9a32cd" stroke="#9a32cd" points="265.5,-135.23 269,-145.23 272.5,-135.23 265.5,-135.23"/>
<text text-anchor="middle" x="282.5" y="-119" font-family="Helvetica,sans-Serif" font-size="10.00"> value</text>
</g>
<!-- Node7 -->
<g id="node7" class="node">
<title>Node7</title>
<g id="a_node7"><a xlink:href="struct___cartesian_vector.html" target="_top" xlink:title=" ">
<polygon fill="white" stroke="black" points="323,-78.5 323,-97.5 415,-97.5 415,-78.5 323,-78.5"/>
<text text-anchor="middle" x="369" y="-85.5" font-family="Helvetica,sans-Serif" font-size="10.00">_CartesianVector</text>
</a>
</g>
</g>
<!-- Node7&#45;&gt;Node1 -->
<g id="edge6" class="edge">
<title>Node7&#45;&gt;Node1</title>
<path fill="none" stroke="#9a32cd" stroke-dasharray="5,2" d="M358.35,-69.61C350.88,-58.88 339.94,-45.74 327,-38 309.36,-27.45 288.1,-21.01 268.24,-17.08"/>
<polygon fill="#9a32cd" stroke="#9a32cd" points="355.58,-71.77 363.98,-78.22 361.44,-67.93 355.58,-71.77"/>
<text text-anchor="middle" x="416.5" y="-46.5" font-family="Helvetica,sans-Serif" font-size="10.00"> cartesianWrenchFeedForward</text>
</g>
</g>
</svg>
