<?xml version="1.0" encoding="UTF-8" standalone="no"?>
<!DOCTYPE svg PUBLIC "-//W3C//DTD SVG 1.1//EN"
 "http://www.w3.org/Graphics/SVG/1.1/DTD/svg11.dtd">
<!-- Generated by graphviz version 2.43.0 (0)
 -->
<!-- Title: _FRICommandMessage Pages: 1 -->
<svg width="615pt" height="240pt"
 viewBox="0.00 0.00 615.00 240.00" xmlns="http://www.w3.org/2000/svg" xmlns:xlink="http://www.w3.org/1999/xlink">
<g id="graph0" class="graph" transform="scale(1 1) rotate(0) translate(4 236)">
<title>_FRICommandMessage</title>
<polygon fill="white" stroke="transparent" points="-4,4 -4,-236 611,-236 611,4 -4,4"/>
<!-- Node1 -->
<g id="node1" class="node">
<title>Node1</title>
<g id="a_node1"><a xlink:title=" ">
<polygon fill="#bfbfbf" stroke="black" points="345.5,-0.5 345.5,-19.5 468.5,-19.5 468.5,-0.5 345.5,-0.5"/>
<text text-anchor="middle" x="407" y="-7.5" font-family="Helvetica,sans-Serif" font-size="10.00">_FRICommandMessage</text>
</a>
</g>
</g>
<!-- Node2 -->
<g id="node2" class="node">
<title>Node2</title>
<g id="a_node2"><a xlink:href="struct___message_command_data.html" target="_top" xlink:title=" ">
<polygon fill="white" stroke="black" points="214,-67.5 214,-86.5 342,-86.5 342,-67.5 214,-67.5"/>
<text text-anchor="middle" x="278" y="-74.5" font-family="Helvetica,sans-Serif" font-size="10.00">_MessageCommandData</text>
</a>
</g>
</g>
<!-- Node2&#45;&gt;Node1 -->
<g id="edge1" class="edge">
<title>Node2&#45;&gt;Node1</title>
<path fill="none" stroke="#9a32cd" stroke-dasharray="5,2" d="M297.9,-61.42C308.81,-53.83 322.76,-44.75 336,-38 350.21,-30.75 366.85,-24.32 380.45,-19.56"/>
<polygon fill="#9a32cd" stroke="#9a32cd" points="295.67,-58.71 289.54,-67.36 299.72,-64.42 295.67,-58.71"/>
<text text-anchor="middle" x="369.5" y="-41" font-family="Helvetica,sans-Serif" font-size="10.00"> commandData</text>
</g>
<!-- Node3 -->
<g id="node3" class="node">
<title>Node3</title>
<g id="a_node3"><a xlink:href="struct___fri_i_o_value.html" target="_top" xlink:title=" ">
<polygon fill="white" stroke="black" points="0,-145.5 0,-164.5 68,-164.5 68,-145.5 0,-145.5"/>
<text text-anchor="middle" x="34" y="-152.5" font-family="Helvetica,sans-Serif" font-size="10.00">_FriIOValue</text>
</a>
</g>
</g>
<!-- Node3&#45;&gt;Node2 -->
<g id="edge2" class="edge">
<title>Node3&#45;&gt;Node2</title>
<path fill="none" stroke="#9a32cd" stroke-dasharray="5,2" d="M36.12,-135.17C38.32,-124.66 42.82,-112.26 52,-105 76.37,-85.74 156.08,-79.95 213.94,-78.35"/>
<polygon fill="#9a32cd" stroke="#9a32cd" points="32.64,-134.73 34.55,-145.15 39.56,-135.81 32.64,-134.73"/>
<text text-anchor="middle" x="88" y="-113.5" font-family="Helvetica,sans-Serif" font-size="10.00"> writeIORequest</text>
</g>
<!-- Node4 -->
<g id="node4" class="node">
<title>Node4</title>
<g id="a_node4"><a xlink:href="struct___transformation.html" target="_top" xlink:title=" ">
<polygon fill="white" stroke="black" points="86.5,-145.5 86.5,-164.5 173.5,-164.5 173.5,-145.5 86.5,-145.5"/>
<text text-anchor="middle" x="130" y="-152.5" font-family="Helvetica,sans-Serif" font-size="10.00">_Transformation</text>
</a>
</g>
</g>
<!-- Node4&#45;&gt;Node2 -->
<g id="edge3" class="edge">
<title>Node4&#45;&gt;Node2</title>
<path fill="none" stroke="#9a32cd" stroke-dasharray="5,2" d="M127.38,-135.45C127.01,-125.22 128.52,-113 136,-105 146.8,-93.46 181.37,-86.74 213.69,-82.89"/>
<polygon fill="#9a32cd" stroke="#9a32cd" points="123.9,-135.86 128.32,-145.49 130.87,-135.21 123.9,-135.86"/>
<text text-anchor="middle" x="199.5" y="-113.5" font-family="Helvetica,sans-Serif" font-size="10.00"> commandedTransformations</text>
</g>
<!-- Node5 -->
<g id="node5" class="node">
<title>Node5</title>
<g id="a_node5"><a xlink:href="struct___time_stamp.html" target="_top" xlink:title=" ">
<polygon fill="white" stroke="black" points="94,-212.5 94,-231.5 166,-231.5 166,-212.5 94,-212.5"/>
<text text-anchor="middle" x="130" y="-219.5" font-family="Helvetica,sans-Serif" font-size="10.00">_TimeStamp</text>
</a>
</g>
</g>
<!-- Node5&#45;&gt;Node4 -->
<g id="edge4" class="edge">
<title>Node5&#45;&gt;Node4</title>
<path fill="none" stroke="#9a32cd" stroke-dasharray="5,2" d="M130,-202.04C130,-189.67 130,-174.12 130,-164.63"/>
<polygon fill="#9a32cd" stroke="#9a32cd" points="126.5,-202.23 130,-212.23 133.5,-202.23 126.5,-202.23"/>
<text text-anchor="middle" x="154.5" y="-186" font-family="Helvetica,sans-Serif" font-size="10.00"> timestamp</text>
</g>
<!-- Node6 -->
<g id="node6" class="node">
<title>Node6</title>
<g id="a_node6"><a xlink:href="struct___joint_values.html" target="_top" xlink:title=" ">
<polygon fill="white" stroke="black" points="224,-145.5 224,-164.5 296,-164.5 296,-145.5 224,-145.5"/>
<text text-anchor="middle" x="260" y="-152.5" font-family="Helvetica,sans-Serif" font-size="10.00">_JointValues</text>
</a>
</g>
</g>
<!-- Node6&#45;&gt;Node2 -->
<g id="edge5" class="edge">
<title>Node6&#45;&gt;Node2</title>
<path fill="none" stroke="#9a32cd" stroke-dasharray="5,2" d="M264.45,-135.22C268.12,-119.7 273.18,-98.36 275.96,-86.62"/>
<polygon fill="#9a32cd" stroke="#9a32cd" points="260.96,-134.74 262.06,-145.28 267.78,-136.36 260.96,-134.74"/>
<text text-anchor="middle" x="300.5" y="-119" font-family="Helvetica,sans-Serif" font-size="10.00"> jointPosition</text>
<text text-anchor="middle" x="300.5" y="-108" font-family="Helvetica,sans-Serif" font-size="10.00">jointTorque</text>
</g>
<!-- Node7 -->
<g id="node7" class="node">
<title>Node7</title>
<g id="a_node7"><a xlink:href="struct__pb__callback__t.html" target="_top" xlink:title=" ">
<polygon fill="white" stroke="black" points="219,-212.5 219,-231.5 301,-231.5 301,-212.5 219,-212.5"/>
<text text-anchor="middle" x="260" y="-219.5" font-family="Helvetica,sans-Serif" font-size="10.00">_pb_callback_t</text>
</a>
</g>
</g>
<!-- Node7&#45;&gt;Node6 -->
<g id="edge6" class="edge">
<title>Node7&#45;&gt;Node6</title>
<path fill="none" stroke="#9a32cd" stroke-dasharray="5,2" d="M260,-202.04C260,-189.67 260,-174.12 260,-164.63"/>
<polygon fill="#9a32cd" stroke="#9a32cd" points="256.5,-202.23 260,-212.23 263.5,-202.23 256.5,-202.23"/>
<text text-anchor="middle" x="273.5" y="-186" font-family="Helvetica,sans-Serif" font-size="10.00"> value</text>
</g>
<!-- Node8 -->
<g id="node8" class="node">
<title>Node8</title>
<g id="a_node8"><a xlink:href="struct___cartesian_vector.html" target="_top" xlink:title=" ">
<polygon fill="white" stroke="black" points="314,-145.5 314,-164.5 406,-164.5 406,-145.5 314,-145.5"/>
<text text-anchor="middle" x="360" y="-152.5" font-family="Helvetica,sans-Serif" font-size="10.00">_CartesianVector</text>
</a>
</g>
</g>
<!-- Node8&#45;&gt;Node2 -->
<g id="edge7" class="edge">
<title>Node8&#45;&gt;Node2</title>
<path fill="none" stroke="#9a32cd" stroke-dasharray="5,2" d="M353.21,-135.85C348.71,-125.77 341.97,-113.56 333,-105 324.61,-97 313.39,-90.91 303.28,-86.57"/>
<polygon fill="#9a32cd" stroke="#9a32cd" points="350.07,-137.42 357.09,-145.36 356.55,-134.78 350.07,-137.42"/>
<text text-anchor="middle" x="415.5" y="-113.5" font-family="Helvetica,sans-Serif" font-size="10.00"> cartesianWrenchFeedForward</text>
</g>
<!-- Node9 -->
<g id="node9" class="node">
<title>Node9</title>
<g id="a_node9"><a xlink:href="struct___message_header.html" target="_top" xlink:title=" ">
<polygon fill="white" stroke="black" points="360.5,-67.5 360.5,-86.5 453.5,-86.5 453.5,-67.5 360.5,-67.5"/>
<text text-anchor="middle" x="407" y="-74.5" font-family="Helvetica,sans-Serif" font-size="10.00">_MessageHeader</text>
</a>
</g>
</g>
<!-- Node9&#45;&gt;Node1 -->
<g id="edge8" class="edge">
<title>Node9&#45;&gt;Node1</title>
<path fill="none" stroke="#9a32cd" stroke-dasharray="5,2" d="M407,-57.04C407,-44.67 407,-29.12 407,-19.63"/>
<polygon fill="#9a32cd" stroke="#9a32cd" points="403.5,-57.23 407,-67.23 410.5,-57.23 403.5,-57.23"/>
<text text-anchor="middle" x="423.5" y="-41" font-family="Helvetica,sans-Serif" font-size="10.00"> header</text>
</g>
<!-- Node10 -->
<g id="node10" class="node">
<title>Node10</title>
<g id="a_node10"><a xlink:href="struct___message_end_of.html" target="_top" xlink:title=" ">
<polygon fill="white" stroke="black" points="471.5,-67.5 471.5,-86.5 560.5,-86.5 560.5,-67.5 471.5,-67.5"/>
<text text-anchor="middle" x="516" y="-74.5" font-family="Helvetica,sans-Serif" font-size="10.00">_MessageEndOf</text>
</a>
</g>
</g>
<!-- Node10&#45;&gt;Node1 -->
<g id="edge9" class="edge">
<title>Node10&#45;&gt;Node1</title>
<path fill="none" stroke="#9a32cd" stroke-dasharray="5,2" d="M492.43,-61.94C470.84,-49.07 439.58,-30.43 421.47,-19.63"/>
<polygon fill="#9a32cd" stroke="#9a32cd" points="490.92,-65.12 501.3,-67.23 494.5,-59.11 490.92,-65.12"/>
<text text-anchor="middle" x="513.5" y="-41" font-family="Helvetica,sans-Serif" font-size="10.00"> endOfMessageData</text>
</g>
<!-- Node11 -->
<g id="node11" class="node">
<title>Node11</title>
<g id="a_node11"><a xlink:href="struct___checksum.html" target="_top" xlink:title=" ">
<polygon fill="white" stroke="black" points="481.5,-145.5 481.5,-164.5 550.5,-164.5 550.5,-145.5 481.5,-145.5"/>
<text text-anchor="middle" x="516" y="-152.5" font-family="Helvetica,sans-Serif" font-size="10.00">_Checksum</text>
</a>
</g>
</g>
<!-- Node11&#45;&gt;Node10 -->
<g id="edge10" class="edge">
<title>Node11&#45;&gt;Node10</title>
<path fill="none" stroke="#9a32cd" stroke-dasharray="5,2" d="M516,-135.22C516,-119.7 516,-98.36 516,-86.62"/>
<polygon fill="#9a32cd" stroke="#9a32cd" points="512.5,-135.28 516,-145.28 519.5,-135.28 512.5,-135.28"/>
<text text-anchor="middle" x="561.5" y="-113.5" font-family="Helvetica,sans-Serif" font-size="10.00"> messageChecksum</text>
</g>
</g>
</svg>
