<?xml version="1.0" encoding="UTF-8" standalone="no"?>
<!DOCTYPE svg PUBLIC "-//W3C//DTD SVG 1.1//EN"
 "http://www.w3.org/Graphics/SVG/1.1/DTD/svg11.dtd">
<!-- Generated by graphviz version 2.43.0 (0)
 -->
<!-- Title: KUKA::FRI::ClientData::setAnalogIOValue Pages: 1 -->
<!--zoomable 121 -->
<svg id="main" version="1.1" xmlns="http://www.w3.org/2000/svg" xmlns:xlink="http://www.w3.org/1999/xlink" xml:space="preserve" onload="init(evt)">
<style type="text/css"><![CDATA[
.edge:hover path { stroke: red; }
.edge:hover polygon { stroke: red; fill: red; }
]]></style>
<script type="text/javascript"><![CDATA[
var edges = document.getElementsByTagName('g');
if (edges && edges.length) {
  for (var i=0;i<edges.length;i++) {
    if (edges[i].id.substr(0,4)=='edge') {
      edges[i].setAttribute('class','edge');
    }
  }
}
]]></script>
        <defs>
                <circle id="rim" cx="0" cy="0" r="7"/>
                <circle id="rim2" cx="0" cy="0" r="3.5"/>
                <g id="zoomPlus">
                        <use xlink:href="#rim" fill="#404040">
                                <set attributeName="fill" to="#808080" begin="zoomplus.mouseover" end="zoomplus.mouseout"/>
                        </use>
                        <path d="M-4,0h8M0,-4v8" fill="none" stroke="white" stroke-width="1.5" pointer-events="none"/>
                </g>
                <g id="zoomMin">
                        <use xlink:href="#rim" fill="#404040">
                                <set attributeName="fill" to="#808080" begin="zoomminus.mouseover" end="zoomminus.mouseout"/>
                        </use>
                        <path d="M-4,0h8" fill="none" stroke="white" stroke-width="1.5" pointer-events="none"/>
                </g>
                <g id="dirArrow">
                        <path fill="none" stroke="white" stroke-width="1.5" d="M0,-3.0v7 M-2.5,-0.5L0,-3.0L2.5,-0.5"/>
                </g>
               <g id="resetDef">
                       <use xlink:href="#rim2" fill="#404040">
                               <set attributeName="fill" to="#808080" begin="reset.mouseover" end="reset.mouseout"/>
                       </use>
               </g>
        </defs>

<script type="text/javascript">
var viewWidth = 679;
var viewHeight = 121;
var sectionId = 'dynsection-10';
</script>
<script xlink:href="svgpan.js"/>
<svg id="graph" class="graph">
<g id="viewport">
<title>KUKA::FRI::ClientData::setAnalogIOValue</title>
<polygon fill="white" stroke="transparent" points="-4,4 -4,-116.5 675,-116.5 675,4 -4,4"/>
<!-- Node1 -->
<g id="node1" class="node">
<title>Node1</title>
<g id="a_node1"><a xlink:title=" ">
<polygon fill="#bfbfbf" stroke="black" points="552,-24.5 552,-54.5 671,-54.5 671,-24.5 552,-24.5"/>
<text text-anchor="start" x="560" y="-42.5" font-family="Helvetica,sans-Serif" font-size="10.00">KUKA::FRI::ClientData</text>
<text text-anchor="middle" x="611.5" y="-31.5" font-family="Helvetica,sans-Serif" font-size="10.00">::setAnalogIOValue</text>
</a>
</g>
</g>
<!-- Node2 -->
<g id="node2" class="node">
<title>Node2</title>
<g id="a_node2"><a xlink:href="class_k_u_k_a_1_1_f_r_i_1_1_l_b_r_command.html#ac62fc6a59a5cc24fcacda4b22a2ff2de" target="_top" xlink:title="Set analog output value.">
<polygon fill="white" stroke="black" points="378.5,-49.5 378.5,-79.5 515.5,-79.5 515.5,-49.5 378.5,-49.5"/>
<text text-anchor="start" x="386.5" y="-67.5" font-family="Helvetica,sans-Serif" font-size="10.00">KUKA::FRI::LBRCommand</text>
<text text-anchor="middle" x="447" y="-56.5" font-family="Helvetica,sans-Serif" font-size="10.00">::setAnalogIOValue</text>
</a>
</g>
</g>
<!-- Node1&#45;&gt;Node2 -->
<g id="edge1" class="edge">
<title>Node1&#45;&gt;Node2</title>
<path fill="none" stroke="midnightblue" d="M541.8,-50.07C533.16,-51.4 524.32,-52.76 515.69,-54.09"/>
<polygon fill="midnightblue" stroke="midnightblue" points="542.48,-53.51 551.83,-48.53 541.42,-46.59 542.48,-53.51"/>
</g>
<!-- Node7 -->
<g id="node7" class="node">
<title>Node7</title>
<g id="a_node7"><a xlink:href="class_k_u_k_a_1_1_f_r_i_1_1_transformation_client.html#ac1398d9f6d287c1218b0449be23598cb" target="_top" xlink:title="Set analog output value.">
<polygon fill="white" stroke="black" points="378,-0.5 378,-30.5 516,-30.5 516,-0.5 378,-0.5"/>
<text text-anchor="start" x="386" y="-18.5" font-family="Helvetica,sans-Serif" font-size="10.00">KUKA::FRI::Transformation</text>
<text text-anchor="middle" x="447" y="-7.5" font-family="Helvetica,sans-Serif" font-size="10.00">Client::setAnalogIOValue</text>
</a>
</g>
</g>
<!-- Node1&#45;&gt;Node7 -->
<g id="edge6" class="edge">
<title>Node1&#45;&gt;Node7</title>
<path fill="none" stroke="midnightblue" d="M541.68,-29.34C533.26,-28.09 524.66,-26.82 516.25,-25.58"/>
<polygon fill="midnightblue" stroke="midnightblue" points="541.43,-32.84 551.83,-30.84 542.45,-25.91 541.43,-32.84"/>
</g>
<!-- Node3 -->
<g id="node3" class="node">
<title>Node3</title>
<g id="a_node3"><a xlink:href="class_i_o_access_client.html#a01d1b4f46c4b43527106ccfae8440255" target="_top" xlink:title=" ">
<polygon fill="white" stroke="black" points="205,-49.5 205,-79.5 342,-79.5 342,-49.5 205,-49.5"/>
<text text-anchor="start" x="213" y="-67.5" font-family="Helvetica,sans-Serif" font-size="10.00">IOAccessClient::getAndSet</text>
<text text-anchor="middle" x="273.5" y="-56.5" font-family="Helvetica,sans-Serif" font-size="10.00">Example</text>
</a>
</g>
</g>
<!-- Node2&#45;&gt;Node3 -->
<g id="edge2" class="edge">
<title>Node2&#45;&gt;Node3</title>
<path fill="none" stroke="midnightblue" d="M368.09,-64.5C359.41,-64.5 350.61,-64.5 342.07,-64.5"/>
<polygon fill="midnightblue" stroke="midnightblue" points="368.22,-68 378.22,-64.5 368.22,-61 368.22,-68"/>
</g>
<!-- Node4 -->
<g id="node4" class="node">
<title>Node4</title>
<g id="a_node4"><a xlink:href="class_i_o_access_client.html#ae855d596323dfa86d9d089203092ec04" target="_top" xlink:title="Callback for the FRI session state &#39;Commanding&#39;.">
<polygon fill="white" stroke="black" points="17.5,-93 17.5,-112 151.5,-112 151.5,-93 17.5,-93"/>
<text text-anchor="middle" x="84.5" y="-100" font-family="Helvetica,sans-Serif" font-size="10.00">IOAccessClient::command</text>
</a>
</g>
</g>
<!-- Node3&#45;&gt;Node4 -->
<g id="edge3" class="edge">
<title>Node3&#45;&gt;Node4</title>
<path fill="none" stroke="midnightblue" d="M195,-80.25C173.75,-84.57 151.37,-89.11 132.42,-92.97"/>
<polygon fill="midnightblue" stroke="midnightblue" points="195.89,-83.64 204.99,-78.22 194.49,-76.78 195.89,-83.64"/>
</g>
<!-- Node5 -->
<g id="node5" class="node">
<title>Node5</title>
<g id="a_node5"><a xlink:href="class_i_o_access_client.html#adbfc68a5d43cc546ba6e31b61c3528b4" target="_top" xlink:title="Callback for the FRI session states &#39;Monitoring Wait&#39; and &#39;Monitoring Ready&#39;.">
<polygon fill="white" stroke="black" points="22.5,-55 22.5,-74 146.5,-74 146.5,-55 22.5,-55"/>
<text text-anchor="middle" x="84.5" y="-62" font-family="Helvetica,sans-Serif" font-size="10.00">IOAccessClient::monitor</text>
</a>
</g>
</g>
<!-- Node3&#45;&gt;Node5 -->
<g id="edge4" class="edge">
<title>Node3&#45;&gt;Node5</title>
<path fill="none" stroke="midnightblue" d="M194.59,-64.5C178.61,-64.5 162,-64.5 146.7,-64.5"/>
<polygon fill="midnightblue" stroke="midnightblue" points="194.99,-68 204.99,-64.5 194.99,-61 194.99,-68"/>
</g>
<!-- Node6 -->
<g id="node6" class="node">
<title>Node6</title>
<g id="a_node6"><a xlink:href="class_i_o_access_client.html#ace9215030d5cdb787ad8f200ba073e8c" target="_top" xlink:title="Callback for the FRI session state &#39;Commanding Wait&#39;.">
<polygon fill="white" stroke="black" points="0,-17 0,-36 169,-36 169,-17 0,-17"/>
<text text-anchor="middle" x="84.5" y="-24" font-family="Helvetica,sans-Serif" font-size="10.00">IOAccessClient::waitForCommand</text>
</a>
</g>
</g>
<!-- Node3&#45;&gt;Node6 -->
<g id="edge5" class="edge">
<title>Node3&#45;&gt;Node6</title>
<path fill="none" stroke="midnightblue" d="M195,-48.75C173.75,-44.43 151.37,-39.89 132.42,-36.03"/>
<polygon fill="midnightblue" stroke="midnightblue" points="194.49,-52.22 204.99,-50.78 195.89,-45.36 194.49,-52.22"/>
</g>
</g>
</svg>
        <g id="navigator" transform="translate(0 0)" fill="#404254">
                <rect fill="#f2f5e9" fill-opacity="0.5" stroke="#606060" stroke-width=".5" x="0" y="0" width="60" height="60"/>
                <use id="zoomplus" xlink:href="#zoomPlus" x="17" y="9" onmousedown="handleZoom(evt,'in')"/>
                <use id="zoomminus" xlink:href="#zoomMin" x="42" y="9" onmousedown="handleZoom(evt,'out')"/>
                <use id="reset" xlink:href="#resetDef" x="30" y="36" onmousedown="handleReset()"/>
                <g id="arrowUp" xlink:href="#dirArrow" transform="translate(30 24)" onmousedown="handlePan(0,-1)">
                  <use xlink:href="#rim" fill="#404040">
                        <set attributeName="fill" to="#808080" begin="arrowUp.mouseover" end="arrowUp.mouseout"/>
                  </use>
                  <path fill="none" stroke="white" stroke-width="1.5" d="M0,-3.0v7 M-2.5,-0.5L0,-3.0L2.5,-0.5"/>
                </g>
                <g id="arrowRight" xlink:href="#dirArrow" transform="rotate(90) translate(36 -43)" onmousedown="handlePan(1,0)">
                  <use xlink:href="#rim" fill="#404040">
                        <set attributeName="fill" to="#808080" begin="arrowRight.mouseover" end="arrowRight.mouseout"/>
                  </use>
                  <path fill="none" stroke="white" stroke-width="1.5" d="M0,-3.0v7 M-2.5,-0.5L0,-3.0L2.5,-0.5"/>
                </g>
                <g id="arrowDown" xlink:href="#dirArrow" transform="rotate(180) translate(-30 -48)" onmousedown="handlePan(0,1)">
                  <use xlink:href="#rim" fill="#404040">
                        <set attributeName="fill" to="#808080" begin="arrowDown.mouseover" end="arrowDown.mouseout"/>
                  </use>
                  <path fill="none" stroke="white" stroke-width="1.5" d="M0,-3.0v7 M-2.5,-0.5L0,-3.0L2.5,-0.5"/>
                </g>
                <g id="arrowLeft" xlink:href="#dirArrow" transform="rotate(270) translate(-36 17)" onmousedown="handlePan(-1,0)">
                  <use xlink:href="#rim" fill="#404040">
                        <set attributeName="fill" to="#808080" begin="arrowLeft.mouseover" end="arrowLeft.mouseout"/>
                  </use>
                  <path fill="none" stroke="white" stroke-width="1.5" d="M0,-3.0v7 M-2.5,-0.5L0,-3.0L2.5,-0.5"/>
                </g>
        </g>
        <svg viewBox="0 0 15 15" width="100%" height="30px" preserveAspectRatio="xMaxYMin meet">
         <g id="arrow_out" transform="scale(0.3 0.3)">
          <a xlink:href="struct_k_u_k_a_1_1_f_r_i_1_1_client_data_a6f88f48e7296b0ff80e4cd9671eca371_icgraph_org.svg" target="_base">
           <rect id="button" ry="5" rx="5" y="6" x="6" height="38" width="38"
                fill="#f2f5e9" fill-opacity="0.5" stroke="#606060" stroke-width="1.0"/>
           <path id="arrow"
             d="M 11.500037,31.436501 C 11.940474,20.09759 22.043105,11.32322 32.158766,21.979434 L 37.068811,17.246167 C 37.068811,17.246167 37.088388,32 37.088388,32 L 22.160133,31.978069 C 22.160133,31.978069 26.997745,27.140456 26.997745,27.140456 C 18.528582,18.264221 13.291696,25.230495 11.500037,31.436501 z"
             style="fill:#404040;"/>
          </a>
         </g>
        </svg>
</svg>
