<?xml version="1.0" encoding="UTF-8" standalone="no"?>
<!DOCTYPE svg PUBLIC "-//W3C//DTD SVG 1.1//EN"
 "http://www.w3.org/Graphics/SVG/1.1/DTD/svg11.dtd">
<!-- Generated by graphviz version 2.43.0 (0)
 -->
<!-- Title: KUKA::FRI::ClientData::getIOValue Pages: 1 -->
<svg width="1008pt" height="468pt"
 viewBox="0.00 0.00 1008.00 468.00" xmlns="http://www.w3.org/2000/svg" xmlns:xlink="http://www.w3.org/1999/xlink">
<g id="graph0" class="graph" transform="scale(1 1) rotate(0) translate(4 464)">
<title>KUKA::FRI::ClientData::getIOValue</title>
<polygon fill="white" stroke="transparent" points="-4,4 -4,-464 1004,-464 1004,4 -4,4"/>
<!-- Node1 -->
<g id="node1" class="node">
<title>Node1</title>
<g id="a_node1"><a xlink:title=" ">
<polygon fill="#bfbfbf" stroke="black" points="881,-291.5 881,-321.5 1000,-321.5 1000,-291.5 881,-291.5"/>
<text text-anchor="start" x="889" y="-309.5" font-family="Helvetica,sans-Serif" font-size="10.00">KUKA::FRI::ClientData</text>
<text text-anchor="middle" x="940.5" y="-298.5" font-family="Helvetica,sans-Serif" font-size="10.00">::getIOValue</text>
</a>
</g>
</g>
<!-- Node2 -->
<g id="node2" class="node">
<title>Node2</title>
<g id="a_node2"><a xlink:href="struct_k_u_k_a_1_1_f_r_i_1_1_client_data.html#ac77b81d510899c1afba106c2ec8c1727" target="_top" xlink:title=" ">
<polygon fill="white" stroke="black" points="726,-404.5 726,-434.5 845,-434.5 845,-404.5 726,-404.5"/>
<text text-anchor="start" x="734" y="-422.5" font-family="Helvetica,sans-Serif" font-size="10.00">KUKA::FRI::ClientData</text>
<text text-anchor="middle" x="785.5" y="-411.5" font-family="Helvetica,sans-Serif" font-size="10.00">::getAnalogIOValue</text>
</a>
</g>
</g>
<!-- Node1&#45;&gt;Node2 -->
<g id="edge1" class="edge">
<title>Node1&#45;&gt;Node2</title>
<path fill="none" stroke="midnightblue" d="M911.13,-327.45C880.87,-349.8 833.69,-384.65 806.9,-404.43"/>
<polygon fill="midnightblue" stroke="midnightblue" points="913.22,-330.26 919.18,-321.51 909.06,-324.63 913.22,-330.26"/>
</g>
<!-- Node9 -->
<g id="node9" class="node">
<title>Node9</title>
<g id="a_node9"><a xlink:href="struct_k_u_k_a_1_1_f_r_i_1_1_client_data.html#a38d771a0ba1bf366ed4c67320595354d" target="_top" xlink:title=" ">
<polygon fill="white" stroke="black" points="726,-316.5 726,-346.5 845,-346.5 845,-316.5 726,-316.5"/>
<text text-anchor="start" x="734" y="-334.5" font-family="Helvetica,sans-Serif" font-size="10.00">KUKA::FRI::ClientData</text>
<text text-anchor="middle" x="785.5" y="-323.5" font-family="Helvetica,sans-Serif" font-size="10.00">::getBooleanIOValue</text>
</a>
</g>
</g>
<!-- Node1&#45;&gt;Node9 -->
<g id="edge8" class="edge">
<title>Node1&#45;&gt;Node9</title>
<path fill="none" stroke="midnightblue" d="M870.79,-317.73C862.2,-319.13 853.47,-320.56 845.06,-321.93"/>
<polygon fill="midnightblue" stroke="midnightblue" points="871.48,-321.16 880.78,-316.09 870.35,-314.25 871.48,-321.16"/>
</g>
<!-- Node12 -->
<g id="node12" class="node">
<title>Node12</title>
<g id="a_node12"><a xlink:href="struct_k_u_k_a_1_1_f_r_i_1_1_client_data.html#add3e7842c27fd6322b4b1e1db2babc40" target="_top" xlink:title=" ">
<polygon fill="white" stroke="black" points="726,-267.5 726,-297.5 845,-297.5 845,-267.5 726,-267.5"/>
<text text-anchor="start" x="734" y="-285.5" font-family="Helvetica,sans-Serif" font-size="10.00">KUKA::FRI::ClientData</text>
<text text-anchor="middle" x="785.5" y="-274.5" font-family="Helvetica,sans-Serif" font-size="10.00">::getDigitalIOValue</text>
</a>
</g>
</g>
<!-- Node1&#45;&gt;Node12 -->
<g id="edge12" class="edge">
<title>Node1&#45;&gt;Node12</title>
<path fill="none" stroke="midnightblue" d="M870.79,-295.72C862.2,-294.37 853.47,-293.01 845.06,-291.69"/>
<polygon fill="midnightblue" stroke="midnightblue" points="870.36,-299.2 880.78,-297.29 871.45,-292.28 870.36,-299.2"/>
</g>
<!-- Node15 -->
<g id="node15" class="node">
<title>Node15</title>
<g id="a_node15"><a xlink:href="struct_k_u_k_a_1_1_f_r_i_1_1_client_data.html#a95e1117745481a9624d4e868d9c0cbfe" target="_top" xlink:title=" ">
<polygon fill="white" stroke="black" points="726,-145.5 726,-175.5 845,-175.5 845,-145.5 726,-145.5"/>
<text text-anchor="start" x="734" y="-163.5" font-family="Helvetica,sans-Serif" font-size="10.00">KUKA::FRI::ClientData</text>
<text text-anchor="middle" x="785.5" y="-152.5" font-family="Helvetica,sans-Serif" font-size="10.00">::setIOValue</text>
</a>
</g>
</g>
<!-- Node1&#45;&gt;Node15 -->
<g id="edge16" class="edge">
<title>Node1&#45;&gt;Node15</title>
<path fill="none" stroke="midnightblue" d="M916.25,-284.32C884.82,-254.32 829.57,-201.6 802.44,-175.71"/>
<polygon fill="midnightblue" stroke="midnightblue" points="914.05,-287.05 923.7,-291.43 918.88,-281.99 914.05,-287.05"/>
</g>
<!-- Node3 -->
<g id="node3" class="node">
<title>Node3</title>
<g id="a_node3"><a xlink:href="class_k_u_k_a_1_1_f_r_i_1_1_l_b_r_state.html#a899e75d623dc6c3098bf247b6323d793" target="_top" xlink:title="Get analog IO value.">
<polygon fill="white" stroke="black" points="389,-429.5 389,-459.5 505,-459.5 505,-429.5 389,-429.5"/>
<text text-anchor="start" x="397" y="-447.5" font-family="Helvetica,sans-Serif" font-size="10.00">KUKA::FRI::LBRState</text>
<text text-anchor="middle" x="447" y="-436.5" font-family="Helvetica,sans-Serif" font-size="10.00">::getAnalogIOValue</text>
</a>
</g>
</g>
<!-- Node2&#45;&gt;Node3 -->
<g id="edge2" class="edge">
<title>Node2&#45;&gt;Node3</title>
<path fill="none" stroke="midnightblue" d="M727.7,-437.06C715.38,-440.15 702.35,-442.89 690,-444.5 627.3,-452.65 554.68,-451.22 505.48,-448.65"/>
<polygon fill="midnightblue" stroke="midnightblue" points="728.6,-440.44 737.39,-434.52 726.83,-433.67 728.6,-440.44"/>
</g>
<!-- Node8 -->
<g id="node8" class="node">
<title>Node8</title>
<g id="a_node8"><a xlink:href="class_k_u_k_a_1_1_f_r_i_1_1_transformation_client.html#a89372b343411592a679386417d9b69fa" target="_top" xlink:title="Get analog IO value.">
<polygon fill="white" stroke="black" points="552,-404.5 552,-434.5 690,-434.5 690,-404.5 552,-404.5"/>
<text text-anchor="start" x="560" y="-422.5" font-family="Helvetica,sans-Serif" font-size="10.00">KUKA::FRI::Transformation</text>
<text text-anchor="middle" x="621" y="-411.5" font-family="Helvetica,sans-Serif" font-size="10.00">Client::getAnalogIOValue</text>
</a>
</g>
</g>
<!-- Node2&#45;&gt;Node8 -->
<g id="edge7" class="edge">
<title>Node2&#45;&gt;Node8</title>
<path fill="none" stroke="midnightblue" d="M715.68,-419.5C707.26,-419.5 698.66,-419.5 690.25,-419.5"/>
<polygon fill="midnightblue" stroke="midnightblue" points="715.83,-423 725.83,-419.5 715.83,-416 715.83,-423"/>
</g>
<!-- Node4 -->
<g id="node4" class="node">
<title>Node4</title>
<g id="a_node4"><a xlink:href="class_i_o_access_client.html#a01d1b4f46c4b43527106ccfae8440255" target="_top" xlink:title=" ">
<polygon fill="white" stroke="black" points="205,-289.5 205,-319.5 342,-319.5 342,-289.5 205,-289.5"/>
<text text-anchor="start" x="213" y="-307.5" font-family="Helvetica,sans-Serif" font-size="10.00">IOAccessClient::getAndSet</text>
<text text-anchor="middle" x="273.5" y="-296.5" font-family="Helvetica,sans-Serif" font-size="10.00">Example</text>
</a>
</g>
</g>
<!-- Node3&#45;&gt;Node4 -->
<g id="edge3" class="edge">
<title>Node3&#45;&gt;Node4</title>
<path fill="none" stroke="midnightblue" d="M419.4,-422.79C384.28,-394.11 323.33,-344.36 292.9,-319.52"/>
<polygon fill="midnightblue" stroke="midnightblue" points="417.36,-425.64 427.32,-429.25 421.79,-420.22 417.36,-425.64"/>
</g>
<!-- Node5 -->
<g id="node5" class="node">
<title>Node5</title>
<g id="a_node5"><a xlink:href="class_i_o_access_client.html#ae855d596323dfa86d9d089203092ec04" target="_top" xlink:title="Callback for the FRI session state &#39;Commanding&#39;.">
<polygon fill="white" stroke="black" points="17.5,-333 17.5,-352 151.5,-352 151.5,-333 17.5,-333"/>
<text text-anchor="middle" x="84.5" y="-340" font-family="Helvetica,sans-Serif" font-size="10.00">IOAccessClient::command</text>
</a>
</g>
</g>
<!-- Node4&#45;&gt;Node5 -->
<g id="edge4" class="edge">
<title>Node4&#45;&gt;Node5</title>
<path fill="none" stroke="midnightblue" d="M195,-320.25C173.75,-324.57 151.37,-329.11 132.42,-332.97"/>
<polygon fill="midnightblue" stroke="midnightblue" points="195.89,-323.64 204.99,-318.22 194.49,-316.78 195.89,-323.64"/>
</g>
<!-- Node6 -->
<g id="node6" class="node">
<title>Node6</title>
<g id="a_node6"><a xlink:href="class_i_o_access_client.html#adbfc68a5d43cc546ba6e31b61c3528b4" target="_top" xlink:title="Callback for the FRI session states &#39;Monitoring Wait&#39; and &#39;Monitoring Ready&#39;.">
<polygon fill="white" stroke="black" points="22.5,-295 22.5,-314 146.5,-314 146.5,-295 22.5,-295"/>
<text text-anchor="middle" x="84.5" y="-302" font-family="Helvetica,sans-Serif" font-size="10.00">IOAccessClient::monitor</text>
</a>
</g>
</g>
<!-- Node4&#45;&gt;Node6 -->
<g id="edge5" class="edge">
<title>Node4&#45;&gt;Node6</title>
<path fill="none" stroke="midnightblue" d="M194.59,-304.5C178.61,-304.5 162,-304.5 146.7,-304.5"/>
<polygon fill="midnightblue" stroke="midnightblue" points="194.99,-308 204.99,-304.5 194.99,-301 194.99,-308"/>
</g>
<!-- Node7 -->
<g id="node7" class="node">
<title>Node7</title>
<g id="a_node7"><a xlink:href="class_i_o_access_client.html#ace9215030d5cdb787ad8f200ba073e8c" target="_top" xlink:title="Callback for the FRI session state &#39;Commanding Wait&#39;.">
<polygon fill="white" stroke="black" points="0,-257 0,-276 169,-276 169,-257 0,-257"/>
<text text-anchor="middle" x="84.5" y="-264" font-family="Helvetica,sans-Serif" font-size="10.00">IOAccessClient::waitForCommand</text>
</a>
</g>
</g>
<!-- Node4&#45;&gt;Node7 -->
<g id="edge6" class="edge">
<title>Node4&#45;&gt;Node7</title>
<path fill="none" stroke="midnightblue" d="M195,-288.75C173.75,-284.43 151.37,-279.89 132.42,-276.03"/>
<polygon fill="midnightblue" stroke="midnightblue" points="194.49,-292.22 204.99,-290.78 195.89,-285.36 194.49,-292.22"/>
</g>
<!-- Node10 -->
<g id="node10" class="node">
<title>Node10</title>
<g id="a_node10"><a xlink:href="class_k_u_k_a_1_1_f_r_i_1_1_l_b_r_state.html#aafaf0eacc7fb915ea08869afb31c5a3b" target="_top" xlink:title="Get boolean IO value.">
<polygon fill="white" stroke="black" points="389,-347.5 389,-377.5 505,-377.5 505,-347.5 389,-347.5"/>
<text text-anchor="start" x="397" y="-365.5" font-family="Helvetica,sans-Serif" font-size="10.00">KUKA::FRI::LBRState</text>
<text text-anchor="middle" x="447" y="-354.5" font-family="Helvetica,sans-Serif" font-size="10.00">::getBooleanIOValue</text>
</a>
</g>
</g>
<!-- Node9&#45;&gt;Node10 -->
<g id="edge9" class="edge">
<title>Node9&#45;&gt;Node10</title>
<path fill="none" stroke="midnightblue" d="M726.51,-349.12C714.54,-352.11 701.94,-354.8 690,-356.5 627.18,-365.46 554.27,-365.94 505.03,-364.82"/>
<polygon fill="midnightblue" stroke="midnightblue" points="727.59,-352.46 736.39,-346.55 725.83,-345.68 727.59,-352.46"/>
</g>
<!-- Node11 -->
<g id="node11" class="node">
<title>Node11</title>
<g id="a_node11"><a xlink:href="class_k_u_k_a_1_1_f_r_i_1_1_transformation_client.html#a59cd06de6602d90343ca921d838a15a2" target="_top" xlink:title="Get boolean IO value.">
<polygon fill="white" stroke="black" points="552,-316.5 552,-346.5 690,-346.5 690,-316.5 552,-316.5"/>
<text text-anchor="start" x="560" y="-334.5" font-family="Helvetica,sans-Serif" font-size="10.00">KUKA::FRI::Transformation</text>
<text text-anchor="middle" x="621" y="-323.5" font-family="Helvetica,sans-Serif" font-size="10.00">Client::getBooleanIOValue</text>
</a>
</g>
</g>
<!-- Node9&#45;&gt;Node11 -->
<g id="edge11" class="edge">
<title>Node9&#45;&gt;Node11</title>
<path fill="none" stroke="midnightblue" d="M715.68,-331.5C707.26,-331.5 698.66,-331.5 690.25,-331.5"/>
<polygon fill="midnightblue" stroke="midnightblue" points="715.83,-335 725.83,-331.5 715.83,-328 715.83,-335"/>
</g>
<!-- Node10&#45;&gt;Node4 -->
<g id="edge10" class="edge">
<title>Node10&#45;&gt;Node4</title>
<path fill="none" stroke="midnightblue" d="M391.9,-344.2C368.39,-336.25 341.19,-327.05 318.89,-319.51"/>
<polygon fill="midnightblue" stroke="midnightblue" points="390.79,-347.52 401.39,-347.41 393.04,-340.89 390.79,-347.52"/>
</g>
<!-- Node13 -->
<g id="node13" class="node">
<title>Node13</title>
<g id="a_node13"><a xlink:href="class_k_u_k_a_1_1_f_r_i_1_1_l_b_r_state.html#a6b1d593daf83e832a407e6088d3df152" target="_top" xlink:title="Get digital IO value.">
<polygon fill="white" stroke="black" points="563,-267.5 563,-297.5 679,-297.5 679,-267.5 563,-267.5"/>
<text text-anchor="start" x="571" y="-285.5" font-family="Helvetica,sans-Serif" font-size="10.00">KUKA::FRI::LBRState</text>
<text text-anchor="middle" x="621" y="-274.5" font-family="Helvetica,sans-Serif" font-size="10.00">::getDigitalIOValue</text>
</a>
</g>
</g>
<!-- Node12&#45;&gt;Node13 -->
<g id="edge13" class="edge">
<title>Node12&#45;&gt;Node13</title>
<path fill="none" stroke="midnightblue" d="M715.73,-282.5C703.57,-282.5 691.02,-282.5 679.22,-282.5"/>
<polygon fill="midnightblue" stroke="midnightblue" points="715.83,-286 725.83,-282.5 715.83,-279 715.83,-286"/>
</g>
<!-- Node14 -->
<g id="node14" class="node">
<title>Node14</title>
<g id="a_node14"><a xlink:href="class_k_u_k_a_1_1_f_r_i_1_1_transformation_client.html#aed32a3e6179a4a9652f26d1027996640" target="_top" xlink:title="Get digital IO value.">
<polygon fill="white" stroke="black" points="552,-218.5 552,-248.5 690,-248.5 690,-218.5 552,-218.5"/>
<text text-anchor="start" x="560" y="-236.5" font-family="Helvetica,sans-Serif" font-size="10.00">KUKA::FRI::Transformation</text>
<text text-anchor="middle" x="621" y="-225.5" font-family="Helvetica,sans-Serif" font-size="10.00">Client::getDigitalIOValue</text>
</a>
</g>
</g>
<!-- Node12&#45;&gt;Node14 -->
<g id="edge15" class="edge">
<title>Node12&#45;&gt;Node14</title>
<path fill="none" stroke="midnightblue" d="M724.43,-264.39C707.16,-259.18 688.51,-253.55 671.92,-248.55"/>
<polygon fill="midnightblue" stroke="midnightblue" points="723.83,-267.86 734.42,-267.4 725.85,-261.16 723.83,-267.86"/>
</g>
<!-- Node13&#45;&gt;Node4 -->
<g id="edge14" class="edge">
<title>Node13&#45;&gt;Node4</title>
<path fill="none" stroke="midnightblue" d="M552.69,-286.79C491.89,-290.66 402.88,-296.33 342.02,-300.2"/>
<polygon fill="midnightblue" stroke="midnightblue" points="553.19,-290.26 562.95,-286.13 552.75,-283.28 553.19,-290.26"/>
</g>
<!-- Node16 -->
<g id="node16" class="node">
<title>Node16</title>
<g id="a_node16"><a xlink:href="struct_k_u_k_a_1_1_f_r_i_1_1_client_data.html#a6f88f48e7296b0ff80e4cd9671eca371" target="_top" xlink:title=" ">
<polygon fill="white" stroke="black" points="561.5,-169.5 561.5,-199.5 680.5,-199.5 680.5,-169.5 561.5,-169.5"/>
<text text-anchor="start" x="569.5" y="-187.5" font-family="Helvetica,sans-Serif" font-size="10.00">KUKA::FRI::ClientData</text>
<text text-anchor="middle" x="621" y="-176.5" font-family="Helvetica,sans-Serif" font-size="10.00">::setAnalogIOValue</text>
</a>
</g>
</g>
<!-- Node15&#45;&gt;Node16 -->
<g id="edge17" class="edge">
<title>Node15&#45;&gt;Node16</title>
<path fill="none" stroke="midnightblue" d="M715.68,-170.66C704,-172.39 691.97,-174.17 680.58,-175.85"/>
<polygon fill="midnightblue" stroke="midnightblue" points="716.45,-174.09 725.83,-169.16 715.43,-167.16 716.45,-174.09"/>
</g>
<!-- Node19 -->
<g id="node19" class="node">
<title>Node19</title>
<g id="a_node19"><a xlink:href="struct_k_u_k_a_1_1_f_r_i_1_1_client_data.html#aa7c834328bdfa5bb2ee826bb68145b51" target="_top" xlink:title=" ">
<polygon fill="white" stroke="black" points="561.5,-120.5 561.5,-150.5 680.5,-150.5 680.5,-120.5 561.5,-120.5"/>
<text text-anchor="start" x="569.5" y="-138.5" font-family="Helvetica,sans-Serif" font-size="10.00">KUKA::FRI::ClientData</text>
<text text-anchor="middle" x="621" y="-127.5" font-family="Helvetica,sans-Serif" font-size="10.00">::setBooleanIOValue</text>
</a>
</g>
</g>
<!-- Node15&#45;&gt;Node19 -->
<g id="edge21" class="edge">
<title>Node15&#45;&gt;Node19</title>
<path fill="none" stroke="midnightblue" d="M715.68,-149.91C704,-148.12 691.97,-146.26 680.58,-144.51"/>
<polygon fill="midnightblue" stroke="midnightblue" points="715.42,-153.41 725.83,-151.47 716.48,-146.49 715.42,-153.41"/>
</g>
<!-- Node22 -->
<g id="node22" class="node">
<title>Node22</title>
<g id="a_node22"><a xlink:href="struct_k_u_k_a_1_1_f_r_i_1_1_client_data.html#aac37310af7f0dd4db183106c278e0810" target="_top" xlink:title=" ">
<polygon fill="white" stroke="black" points="561.5,-49.5 561.5,-79.5 680.5,-79.5 680.5,-49.5 561.5,-49.5"/>
<text text-anchor="start" x="569.5" y="-67.5" font-family="Helvetica,sans-Serif" font-size="10.00">KUKA::FRI::ClientData</text>
<text text-anchor="middle" x="621" y="-56.5" font-family="Helvetica,sans-Serif" font-size="10.00">::setDigitalIOValue</text>
</a>
</g>
</g>
<!-- Node15&#45;&gt;Node22 -->
<g id="edge24" class="edge">
<title>Node15&#45;&gt;Node22</title>
<path fill="none" stroke="midnightblue" d="M750.1,-140.18C719.44,-122.07 675.27,-95.97 647.63,-79.64"/>
<polygon fill="midnightblue" stroke="midnightblue" points="748.36,-143.22 758.75,-145.29 751.92,-137.19 748.36,-143.22"/>
</g>
<!-- Node17 -->
<g id="node17" class="node">
<title>Node17</title>
<g id="a_node17"><a xlink:href="class_k_u_k_a_1_1_f_r_i_1_1_l_b_r_command.html#ac62fc6a59a5cc24fcacda4b22a2ff2de" target="_top" xlink:title="Set analog output value.">
<polygon fill="white" stroke="black" points="378.5,-245.5 378.5,-275.5 515.5,-275.5 515.5,-245.5 378.5,-245.5"/>
<text text-anchor="start" x="386.5" y="-263.5" font-family="Helvetica,sans-Serif" font-size="10.00">KUKA::FRI::LBRCommand</text>
<text text-anchor="middle" x="447" y="-252.5" font-family="Helvetica,sans-Serif" font-size="10.00">::setAnalogIOValue</text>
</a>
</g>
</g>
<!-- Node16&#45;&gt;Node17 -->
<g id="edge18" class="edge">
<title>Node16&#45;&gt;Node17</title>
<path fill="none" stroke="midnightblue" d="M564.21,-203.48C560.01,-205.37 555.9,-207.38 552,-209.5 534.43,-219.05 533.63,-227.06 516,-236.5 509.93,-239.75 503.33,-242.71 496.7,-245.36"/>
<polygon fill="midnightblue" stroke="midnightblue" points="565.64,-206.67 573.48,-199.54 562.9,-200.23 565.64,-206.67"/>
</g>
<!-- Node18 -->
<g id="node18" class="node">
<title>Node18</title>
<g id="a_node18"><a xlink:href="class_k_u_k_a_1_1_f_r_i_1_1_transformation_client.html#ac1398d9f6d287c1218b0449be23598cb" target="_top" xlink:title="Set analog output value.">
<polygon fill="white" stroke="black" points="378,-196.5 378,-226.5 516,-226.5 516,-196.5 378,-196.5"/>
<text text-anchor="start" x="386" y="-214.5" font-family="Helvetica,sans-Serif" font-size="10.00">KUKA::FRI::Transformation</text>
<text text-anchor="middle" x="447" y="-203.5" font-family="Helvetica,sans-Serif" font-size="10.00">Client::setAnalogIOValue</text>
</a>
</g>
</g>
<!-- Node16&#45;&gt;Node18 -->
<g id="edge20" class="edge">
<title>Node16&#45;&gt;Node18</title>
<path fill="none" stroke="midnightblue" d="M551.28,-195.29C539.73,-197.1 527.75,-198.98 516.22,-200.79"/>
<polygon fill="midnightblue" stroke="midnightblue" points="551.95,-198.72 561.29,-193.72 550.87,-191.81 551.95,-198.72"/>
</g>
<!-- Node17&#45;&gt;Node4 -->
<g id="edge19" class="edge">
<title>Node17&#45;&gt;Node4</title>
<path fill="none" stroke="midnightblue" d="M377.42,-278.09C362.73,-281.86 347.34,-285.81 333.07,-289.47"/>
<polygon fill="midnightblue" stroke="midnightblue" points="378.64,-281.39 387.46,-275.52 376.9,-274.61 378.64,-281.39"/>
</g>
<!-- Node20 -->
<g id="node20" class="node">
<title>Node20</title>
<g id="a_node20"><a xlink:href="class_k_u_k_a_1_1_f_r_i_1_1_l_b_r_command.html#acf4aacbc5a1667df9e6288619870f3a1" target="_top" xlink:title="Set boolean output value.">
<polygon fill="white" stroke="black" points="378.5,-147.5 378.5,-177.5 515.5,-177.5 515.5,-147.5 378.5,-147.5"/>
<text text-anchor="start" x="386.5" y="-165.5" font-family="Helvetica,sans-Serif" font-size="10.00">KUKA::FRI::LBRCommand</text>
<text text-anchor="middle" x="447" y="-154.5" font-family="Helvetica,sans-Serif" font-size="10.00">::setBooleanIOValue</text>
</a>
</g>
</g>
<!-- Node19&#45;&gt;Node20 -->
<g id="edge22" class="edge">
<title>Node19&#45;&gt;Node20</title>
<path fill="none" stroke="midnightblue" d="M551.14,-146.31C539.44,-148.15 527.29,-150.05 515.62,-151.88"/>
<polygon fill="midnightblue" stroke="midnightblue" points="551.95,-149.72 561.29,-144.72 550.87,-142.81 551.95,-149.72"/>
</g>
<!-- Node21 -->
<g id="node21" class="node">
<title>Node21</title>
<g id="a_node21"><a xlink:href="class_k_u_k_a_1_1_f_r_i_1_1_transformation_client.html#a905bbbadfa4e347683b03eef44761878" target="_top" xlink:title="Set boolean output value.">
<polygon fill="white" stroke="black" points="378,-98.5 378,-128.5 516,-128.5 516,-98.5 378,-98.5"/>
<text text-anchor="start" x="386" y="-116.5" font-family="Helvetica,sans-Serif" font-size="10.00">KUKA::FRI::Transformation</text>
<text text-anchor="middle" x="447" y="-105.5" font-family="Helvetica,sans-Serif" font-size="10.00">Client::setBooleanIOValue</text>
</a>
</g>
</g>
<!-- Node19&#45;&gt;Node21 -->
<g id="edge23" class="edge">
<title>Node19&#45;&gt;Node21</title>
<path fill="none" stroke="midnightblue" d="M551.28,-126.71C539.73,-125.23 527.75,-123.7 516.22,-122.23"/>
<polygon fill="midnightblue" stroke="midnightblue" points="550.93,-130.19 561.29,-127.99 551.81,-123.25 550.93,-130.19"/>
</g>
<!-- Node23 -->
<g id="node23" class="node">
<title>Node23</title>
<g id="a_node23"><a xlink:href="class_k_u_k_a_1_1_f_r_i_1_1_l_b_r_command.html#ab6f840a8c126235a5eec3ab0299f18aa" target="_top" xlink:title="Set digital output value.">
<polygon fill="white" stroke="black" points="378.5,-49.5 378.5,-79.5 515.5,-79.5 515.5,-49.5 378.5,-49.5"/>
<text text-anchor="start" x="386.5" y="-67.5" font-family="Helvetica,sans-Serif" font-size="10.00">KUKA::FRI::LBRCommand</text>
<text text-anchor="middle" x="447" y="-56.5" font-family="Helvetica,sans-Serif" font-size="10.00">::setDigitalIOValue</text>
</a>
</g>
</g>
<!-- Node22&#45;&gt;Node23 -->
<g id="edge25" class="edge">
<title>Node22&#45;&gt;Node23</title>
<path fill="none" stroke="midnightblue" d="M551.14,-64.5C539.44,-64.5 527.29,-64.5 515.62,-64.5"/>
<polygon fill="midnightblue" stroke="midnightblue" points="551.29,-68 561.29,-64.5 551.29,-61 551.29,-68"/>
</g>
<!-- Node24 -->
<g id="node24" class="node">
<title>Node24</title>
<g id="a_node24"><a xlink:href="class_k_u_k_a_1_1_f_r_i_1_1_transformation_client.html#abb273934a7401f75be4677c31403e15f" target="_top" xlink:title="Set digital output value.">
<polygon fill="white" stroke="black" points="378,-0.5 378,-30.5 516,-30.5 516,-0.5 378,-0.5"/>
<text text-anchor="start" x="386" y="-18.5" font-family="Helvetica,sans-Serif" font-size="10.00">KUKA::FRI::Transformation</text>
<text text-anchor="middle" x="447" y="-7.5" font-family="Helvetica,sans-Serif" font-size="10.00">Client::setDigitalIOValue</text>
</a>
</g>
</g>
<!-- Node22&#45;&gt;Node24 -->
<g id="edge27" class="edge">
<title>Node22&#45;&gt;Node24</title>
<path fill="none" stroke="midnightblue" d="M557.19,-46.61C538.69,-41.34 518.64,-35.62 500.83,-30.55"/>
<polygon fill="midnightblue" stroke="midnightblue" points="556.41,-50.02 566.99,-49.4 558.33,-43.29 556.41,-50.02"/>
</g>
<!-- Node23&#45;&gt;Node4 -->
<g id="edge26" class="edge">
<title>Node23&#45;&gt;Node4</title>
<path fill="none" stroke="midnightblue" d="M383.52,-85.05C381.59,-86.44 379.74,-87.92 378,-89.5 314.97,-146.73 286.44,-250.62 277.64,-289.38"/>
<polygon fill="midnightblue" stroke="midnightblue" points="385.79,-87.76 392.44,-79.52 382.1,-81.81 385.79,-87.76"/>
</g>
</g>
</svg>
