<?xml version="1.0" encoding="UTF-8" standalone="no"?>
<!DOCTYPE svg PUBLIC "-//W3C//DTD SVG 1.1//EN"
 "http://www.w3.org/Graphics/SVG/1.1/DTD/svg11.dtd">
<!-- Generated by graphviz version 2.43.0 (0)
 -->
<!-- Title: _MessageIpoData Pages: 1 -->
<svg width="113pt" height="162pt"
 viewBox="0.00 0.00 113.00 162.00" xmlns="http://www.w3.org/2000/svg" xmlns:xlink="http://www.w3.org/1999/xlink">
<g id="graph0" class="graph" transform="scale(1 1) rotate(0) translate(4 158)">
<title>_MessageIpoData</title>
<polygon fill="white" stroke="transparent" points="-4,4 -4,-158 109,-158 109,4 -4,4"/>
<!-- Node1 -->
<g id="node1" class="node">
<title>Node1</title>
<g id="a_node1"><a xlink:title=" ">
<polygon fill="#bfbfbf" stroke="black" points="0,-0.5 0,-19.5 96,-19.5 96,-0.5 0,-0.5"/>
<text text-anchor="middle" x="48" y="-7.5" font-family="Helvetica,sans-Serif" font-size="10.00">_MessageIpoData</text>
</a>
</g>
</g>
<!-- Node2 -->
<g id="node2" class="node">
<title>Node2</title>
<g id="a_node2"><a xlink:href="struct___joint_values.html" target="_top" xlink:title=" ">
<polygon fill="white" stroke="black" points="12,-67.5 12,-86.5 84,-86.5 84,-67.5 12,-67.5"/>
<text text-anchor="middle" x="48" y="-74.5" font-family="Helvetica,sans-Serif" font-size="10.00">_JointValues</text>
</a>
</g>
</g>
<!-- Node2&#45;&gt;Node1 -->
<g id="edge1" class="edge">
<title>Node2&#45;&gt;Node1</title>
<path fill="none" stroke="#9a32cd" stroke-dasharray="5,2" d="M48,-57.04C48,-44.67 48,-29.12 48,-19.63"/>
<polygon fill="#9a32cd" stroke="#9a32cd" points="44.5,-57.23 48,-67.23 51.5,-57.23 44.5,-57.23"/>
<text text-anchor="middle" x="76.5" y="-41" font-family="Helvetica,sans-Serif" font-size="10.00"> jointPosition</text>
</g>
<!-- Node3 -->
<g id="node3" class="node">
<title>Node3</title>
<g id="a_node3"><a xlink:href="struct__pb__callback__t.html" target="_top" xlink:title=" ">
<polygon fill="white" stroke="black" points="7,-134.5 7,-153.5 89,-153.5 89,-134.5 7,-134.5"/>
<text text-anchor="middle" x="48" y="-141.5" font-family="Helvetica,sans-Serif" font-size="10.00">_pb_callback_t</text>
</a>
</g>
</g>
<!-- Node3&#45;&gt;Node2 -->
<g id="edge2" class="edge">
<title>Node3&#45;&gt;Node2</title>
<path fill="none" stroke="#9a32cd" stroke-dasharray="5,2" d="M48,-124.04C48,-111.67 48,-96.12 48,-86.63"/>
<polygon fill="#9a32cd" stroke="#9a32cd" points="44.5,-124.23 48,-134.23 51.5,-124.23 44.5,-124.23"/>
<text text-anchor="middle" x="61.5" y="-108" font-family="Helvetica,sans-Serif" font-size="10.00"> value</text>
</g>
</g>
</svg>
