<?xml version="1.0" encoding="UTF-8" standalone="no"?>
<!DOCTYPE svg PUBLIC "-//W3C//DTD SVG 1.1//EN"
 "http://www.w3.org/Graphics/SVG/1.1/DTD/svg11.dtd">
<!-- Generated by graphviz version 2.43.0 (0)
 -->
<!-- Title: KUKA::FRI::ClientData::setIOValue Pages: 1 -->
<svg width="834pt" height="284pt"
 viewBox="0.00 0.00 834.00 284.00" xmlns="http://www.w3.org/2000/svg" xmlns:xlink="http://www.w3.org/1999/xlink">
<g id="graph0" class="graph" transform="scale(1 1) rotate(0) translate(4 280)">
<title>KUKA::FRI::ClientData::setIOValue</title>
<polygon fill="white" stroke="transparent" points="-4,4 -4,-280 830,-280 830,4 -4,4"/>
<!-- Node1 -->
<g id="node1" class="node">
<title>Node1</title>
<g id="a_node1"><a xlink:title=" ">
<polygon fill="#bfbfbf" stroke="black" points="707,-123.5 707,-153.5 826,-153.5 826,-123.5 707,-123.5"/>
<text text-anchor="start" x="715" y="-141.5" font-family="Helvetica,sans-Serif" font-size="10.00">KUKA::FRI::ClientData</text>
<text text-anchor="middle" x="766.5" y="-130.5" font-family="Helvetica,sans-Serif" font-size="10.00">::setIOValue</text>
</a>
</g>
</g>
<!-- Node2 -->
<g id="node2" class="node">
<title>Node2</title>
<g id="a_node2"><a xlink:href="struct_k_u_k_a_1_1_f_r_i_1_1_client_data.html#a6f88f48e7296b0ff80e4cd9671eca371" target="_top" xlink:title=" ">
<polygon fill="white" stroke="black" points="552,-196.5 552,-226.5 671,-226.5 671,-196.5 552,-196.5"/>
<text text-anchor="start" x="560" y="-214.5" font-family="Helvetica,sans-Serif" font-size="10.00">KUKA::FRI::ClientData</text>
<text text-anchor="middle" x="611.5" y="-203.5" font-family="Helvetica,sans-Serif" font-size="10.00">::setAnalogIOValue</text>
</a>
</g>
</g>
<!-- Node1&#45;&gt;Node2 -->
<g id="edge1" class="edge">
<title>Node1&#45;&gt;Node2</title>
<path fill="none" stroke="midnightblue" d="M724.49,-158.07C699.27,-170.1 667.44,-185.29 644.16,-196.39"/>
<polygon fill="midnightblue" stroke="midnightblue" points="726.28,-161.09 733.8,-153.63 723.27,-154.77 726.28,-161.09"/>
</g>
<!-- Node9 -->
<g id="node9" class="node">
<title>Node9</title>
<g id="a_node9"><a xlink:href="struct_k_u_k_a_1_1_f_r_i_1_1_client_data.html#aa7c834328bdfa5bb2ee826bb68145b51" target="_top" xlink:title=" ">
<polygon fill="white" stroke="black" points="552,-123.5 552,-153.5 671,-153.5 671,-123.5 552,-123.5"/>
<text text-anchor="start" x="560" y="-141.5" font-family="Helvetica,sans-Serif" font-size="10.00">KUKA::FRI::ClientData</text>
<text text-anchor="middle" x="611.5" y="-130.5" font-family="Helvetica,sans-Serif" font-size="10.00">::setBooleanIOValue</text>
</a>
</g>
</g>
<!-- Node1&#45;&gt;Node9 -->
<g id="edge8" class="edge">
<title>Node1&#45;&gt;Node9</title>
<path fill="none" stroke="midnightblue" d="M696.51,-138.5C688.01,-138.5 679.38,-138.5 671.06,-138.5"/>
<polygon fill="midnightblue" stroke="midnightblue" points="696.78,-142 706.78,-138.5 696.78,-135 696.78,-142"/>
</g>
<!-- Node12 -->
<g id="node12" class="node">
<title>Node12</title>
<g id="a_node12"><a xlink:href="struct_k_u_k_a_1_1_f_r_i_1_1_client_data.html#aac37310af7f0dd4db183106c278e0810" target="_top" xlink:title=" ">
<polygon fill="white" stroke="black" points="552,-49.5 552,-79.5 671,-79.5 671,-49.5 552,-49.5"/>
<text text-anchor="start" x="560" y="-67.5" font-family="Helvetica,sans-Serif" font-size="10.00">KUKA::FRI::ClientData</text>
<text text-anchor="middle" x="611.5" y="-56.5" font-family="Helvetica,sans-Serif" font-size="10.00">::setDigitalIOValue</text>
</a>
</g>
</g>
<!-- Node1&#45;&gt;Node12 -->
<g id="edge11" class="edge">
<title>Node1&#45;&gt;Node12</title>
<path fill="none" stroke="midnightblue" d="M725.1,-118.96C699.56,-106.61 667.04,-90.88 643.53,-79.51"/>
<polygon fill="midnightblue" stroke="midnightblue" points="723.64,-122.14 734.17,-123.35 726.69,-115.84 723.64,-122.14"/>
</g>
<!-- Node3 -->
<g id="node3" class="node">
<title>Node3</title>
<g id="a_node3"><a xlink:href="class_k_u_k_a_1_1_f_r_i_1_1_l_b_r_command.html#ac62fc6a59a5cc24fcacda4b22a2ff2de" target="_top" xlink:title="Set analog output value.">
<polygon fill="white" stroke="black" points="378.5,-245.5 378.5,-275.5 515.5,-275.5 515.5,-245.5 378.5,-245.5"/>
<text text-anchor="start" x="386.5" y="-263.5" font-family="Helvetica,sans-Serif" font-size="10.00">KUKA::FRI::LBRCommand</text>
<text text-anchor="middle" x="447" y="-252.5" font-family="Helvetica,sans-Serif" font-size="10.00">::setAnalogIOValue</text>
</a>
</g>
</g>
<!-- Node2&#45;&gt;Node3 -->
<g id="edge2" class="edge">
<title>Node2&#45;&gt;Node3</title>
<path fill="none" stroke="midnightblue" d="M550.43,-229.61C533.16,-234.82 514.51,-240.45 497.92,-245.45"/>
<polygon fill="midnightblue" stroke="midnightblue" points="551.85,-232.84 560.42,-226.6 549.83,-226.14 551.85,-232.84"/>
</g>
<!-- Node8 -->
<g id="node8" class="node">
<title>Node8</title>
<g id="a_node8"><a xlink:href="class_k_u_k_a_1_1_f_r_i_1_1_transformation_client.html#ac1398d9f6d287c1218b0449be23598cb" target="_top" xlink:title="Set analog output value.">
<polygon fill="white" stroke="black" points="378,-196.5 378,-226.5 516,-226.5 516,-196.5 378,-196.5"/>
<text text-anchor="start" x="386" y="-214.5" font-family="Helvetica,sans-Serif" font-size="10.00">KUKA::FRI::Transformation</text>
<text text-anchor="middle" x="447" y="-203.5" font-family="Helvetica,sans-Serif" font-size="10.00">Client::setAnalogIOValue</text>
</a>
</g>
</g>
<!-- Node2&#45;&gt;Node8 -->
<g id="edge7" class="edge">
<title>Node2&#45;&gt;Node8</title>
<path fill="none" stroke="midnightblue" d="M541.68,-211.5C533.26,-211.5 524.66,-211.5 516.25,-211.5"/>
<polygon fill="midnightblue" stroke="midnightblue" points="541.83,-215 551.83,-211.5 541.83,-208 541.83,-215"/>
</g>
<!-- Node4 -->
<g id="node4" class="node">
<title>Node4</title>
<g id="a_node4"><a xlink:href="class_i_o_access_client.html#a01d1b4f46c4b43527106ccfae8440255" target="_top" xlink:title=" ">
<polygon fill="white" stroke="black" points="205,-147.5 205,-177.5 342,-177.5 342,-147.5 205,-147.5"/>
<text text-anchor="start" x="213" y="-165.5" font-family="Helvetica,sans-Serif" font-size="10.00">IOAccessClient::getAndSet</text>
<text text-anchor="middle" x="273.5" y="-154.5" font-family="Helvetica,sans-Serif" font-size="10.00">Example</text>
</a>
</g>
</g>
<!-- Node3&#45;&gt;Node4 -->
<g id="edge3" class="edge">
<title>Node3&#45;&gt;Node4</title>
<path fill="none" stroke="midnightblue" d="M388.28,-241.43C384.76,-239.86 381.3,-238.22 378,-236.5 345.67,-219.67 312.02,-193.79 292.18,-177.52"/>
<polygon fill="midnightblue" stroke="midnightblue" points="387.15,-244.75 397.72,-245.37 389.85,-238.29 387.15,-244.75"/>
</g>
<!-- Node5 -->
<g id="node5" class="node">
<title>Node5</title>
<g id="a_node5"><a xlink:href="class_i_o_access_client.html#ae855d596323dfa86d9d089203092ec04" target="_top" xlink:title="Callback for the FRI session state &#39;Commanding&#39;.">
<polygon fill="white" stroke="black" points="17.5,-191 17.5,-210 151.5,-210 151.5,-191 17.5,-191"/>
<text text-anchor="middle" x="84.5" y="-198" font-family="Helvetica,sans-Serif" font-size="10.00">IOAccessClient::command</text>
</a>
</g>
</g>
<!-- Node4&#45;&gt;Node5 -->
<g id="edge4" class="edge">
<title>Node4&#45;&gt;Node5</title>
<path fill="none" stroke="midnightblue" d="M195,-178.25C173.75,-182.57 151.37,-187.11 132.42,-190.97"/>
<polygon fill="midnightblue" stroke="midnightblue" points="195.89,-181.64 204.99,-176.22 194.49,-174.78 195.89,-181.64"/>
</g>
<!-- Node6 -->
<g id="node6" class="node">
<title>Node6</title>
<g id="a_node6"><a xlink:href="class_i_o_access_client.html#adbfc68a5d43cc546ba6e31b61c3528b4" target="_top" xlink:title="Callback for the FRI session states &#39;Monitoring Wait&#39; and &#39;Monitoring Ready&#39;.">
<polygon fill="white" stroke="black" points="22.5,-153 22.5,-172 146.5,-172 146.5,-153 22.5,-153"/>
<text text-anchor="middle" x="84.5" y="-160" font-family="Helvetica,sans-Serif" font-size="10.00">IOAccessClient::monitor</text>
</a>
</g>
</g>
<!-- Node4&#45;&gt;Node6 -->
<g id="edge5" class="edge">
<title>Node4&#45;&gt;Node6</title>
<path fill="none" stroke="midnightblue" d="M194.59,-162.5C178.61,-162.5 162,-162.5 146.7,-162.5"/>
<polygon fill="midnightblue" stroke="midnightblue" points="194.99,-166 204.99,-162.5 194.99,-159 194.99,-166"/>
</g>
<!-- Node7 -->
<g id="node7" class="node">
<title>Node7</title>
<g id="a_node7"><a xlink:href="class_i_o_access_client.html#ace9215030d5cdb787ad8f200ba073e8c" target="_top" xlink:title="Callback for the FRI session state &#39;Commanding Wait&#39;.">
<polygon fill="white" stroke="black" points="0,-115 0,-134 169,-134 169,-115 0,-115"/>
<text text-anchor="middle" x="84.5" y="-122" font-family="Helvetica,sans-Serif" font-size="10.00">IOAccessClient::waitForCommand</text>
</a>
</g>
</g>
<!-- Node4&#45;&gt;Node7 -->
<g id="edge6" class="edge">
<title>Node4&#45;&gt;Node7</title>
<path fill="none" stroke="midnightblue" d="M195,-146.75C173.75,-142.43 151.37,-137.89 132.42,-134.03"/>
<polygon fill="midnightblue" stroke="midnightblue" points="194.49,-150.22 204.99,-148.78 195.89,-143.36 194.49,-150.22"/>
</g>
<!-- Node10 -->
<g id="node10" class="node">
<title>Node10</title>
<g id="a_node10"><a xlink:href="class_k_u_k_a_1_1_f_r_i_1_1_l_b_r_command.html#acf4aacbc5a1667df9e6288619870f3a1" target="_top" xlink:title="Set boolean output value.">
<polygon fill="white" stroke="black" points="378.5,-147.5 378.5,-177.5 515.5,-177.5 515.5,-147.5 378.5,-147.5"/>
<text text-anchor="start" x="386.5" y="-165.5" font-family="Helvetica,sans-Serif" font-size="10.00">KUKA::FRI::LBRCommand</text>
<text text-anchor="middle" x="447" y="-154.5" font-family="Helvetica,sans-Serif" font-size="10.00">::setBooleanIOValue</text>
</a>
</g>
</g>
<!-- Node9&#45;&gt;Node10 -->
<g id="edge9" class="edge">
<title>Node9&#45;&gt;Node10</title>
<path fill="none" stroke="midnightblue" d="M541.8,-148.65C533.16,-149.92 524.32,-151.23 515.69,-152.5"/>
<polygon fill="midnightblue" stroke="midnightblue" points="542.45,-152.09 551.83,-147.16 541.43,-145.16 542.45,-152.09"/>
</g>
<!-- Node11 -->
<g id="node11" class="node">
<title>Node11</title>
<g id="a_node11"><a xlink:href="class_k_u_k_a_1_1_f_r_i_1_1_transformation_client.html#a905bbbadfa4e347683b03eef44761878" target="_top" xlink:title="Set boolean output value.">
<polygon fill="white" stroke="black" points="378,-98.5 378,-128.5 516,-128.5 516,-98.5 378,-98.5"/>
<text text-anchor="start" x="386" y="-116.5" font-family="Helvetica,sans-Serif" font-size="10.00">KUKA::FRI::Transformation</text>
<text text-anchor="middle" x="447" y="-105.5" font-family="Helvetica,sans-Serif" font-size="10.00">Client::setBooleanIOValue</text>
</a>
</g>
</g>
<!-- Node9&#45;&gt;Node11 -->
<g id="edge10" class="edge">
<title>Node9&#45;&gt;Node11</title>
<path fill="none" stroke="midnightblue" d="M541.68,-127.91C533.26,-126.62 524.66,-125.29 516.25,-124"/>
<polygon fill="midnightblue" stroke="midnightblue" points="541.42,-131.41 551.83,-129.47 542.48,-124.49 541.42,-131.41"/>
</g>
<!-- Node13 -->
<g id="node13" class="node">
<title>Node13</title>
<g id="a_node13"><a xlink:href="class_k_u_k_a_1_1_f_r_i_1_1_l_b_r_command.html#ab6f840a8c126235a5eec3ab0299f18aa" target="_top" xlink:title="Set digital output value.">
<polygon fill="white" stroke="black" points="378.5,-49.5 378.5,-79.5 515.5,-79.5 515.5,-49.5 378.5,-49.5"/>
<text text-anchor="start" x="386.5" y="-67.5" font-family="Helvetica,sans-Serif" font-size="10.00">KUKA::FRI::LBRCommand</text>
<text text-anchor="middle" x="447" y="-56.5" font-family="Helvetica,sans-Serif" font-size="10.00">::setDigitalIOValue</text>
</a>
</g>
</g>
<!-- Node12&#45;&gt;Node13 -->
<g id="edge12" class="edge">
<title>Node12&#45;&gt;Node13</title>
<path fill="none" stroke="midnightblue" d="M541.8,-64.5C533.16,-64.5 524.32,-64.5 515.69,-64.5"/>
<polygon fill="midnightblue" stroke="midnightblue" points="541.83,-68 551.83,-64.5 541.83,-61 541.83,-68"/>
</g>
<!-- Node14 -->
<g id="node14" class="node">
<title>Node14</title>
<g id="a_node14"><a xlink:href="class_k_u_k_a_1_1_f_r_i_1_1_transformation_client.html#abb273934a7401f75be4677c31403e15f" target="_top" xlink:title="Set digital output value.">
<polygon fill="white" stroke="black" points="378,-0.5 378,-30.5 516,-30.5 516,-0.5 378,-0.5"/>
<text text-anchor="start" x="386" y="-18.5" font-family="Helvetica,sans-Serif" font-size="10.00">KUKA::FRI::Transformation</text>
<text text-anchor="middle" x="447" y="-7.5" font-family="Helvetica,sans-Serif" font-size="10.00">Client::setDigitalIOValue</text>
</a>
</g>
</g>
<!-- Node12&#45;&gt;Node14 -->
<g id="edge14" class="edge">
<title>Node12&#45;&gt;Node14</title>
<path fill="none" stroke="midnightblue" d="M550.43,-46.39C533.16,-41.18 514.51,-35.55 497.92,-30.55"/>
<polygon fill="midnightblue" stroke="midnightblue" points="549.83,-49.86 560.42,-49.4 551.85,-43.16 549.83,-49.86"/>
</g>
<!-- Node13&#45;&gt;Node4 -->
<g id="edge13" class="edge">
<title>Node13&#45;&gt;Node4</title>
<path fill="none" stroke="midnightblue" d="M388.28,-83.57C384.76,-85.14 381.3,-86.78 378,-88.5 345.67,-105.33 312.02,-131.21 292.18,-147.48"/>
<polygon fill="midnightblue" stroke="midnightblue" points="389.85,-86.71 397.72,-79.63 387.15,-80.25 389.85,-86.71"/>
</g>
</g>
</svg>
