<?xml version="1.0" encoding="UTF-8" standalone="no"?>
<!DOCTYPE svg PUBLIC "-//W3C//DTD SVG 1.1//EN"
 "http://www.w3.org/Graphics/SVG/1.1/DTD/svg11.dtd">
<!-- Generated by graphviz version 2.43.0 (0)
 -->
<!-- Title: KUKA::FRI::ClientData::setBooleanIOValue Pages: 1 -->
<svg width="301pt" height="88pt"
 viewBox="0.00 0.00 301.00 88.00" xmlns="http://www.w3.org/2000/svg" xmlns:xlink="http://www.w3.org/1999/xlink">
<g id="graph0" class="graph" transform="scale(1 1) rotate(0) translate(4 84)">
<title>KUKA::FRI::ClientData::setBooleanIOValue</title>
<polygon fill="white" stroke="transparent" points="-4,4 -4,-84 297,-84 297,4 -4,4"/>
<!-- Node1 -->
<g id="node1" class="node">
<title>Node1</title>
<g id="a_node1"><a xlink:title=" ">
<polygon fill="#bfbfbf" stroke="black" points="174,-24.5 174,-54.5 293,-54.5 293,-24.5 174,-24.5"/>
<text text-anchor="start" x="182" y="-42.5" font-family="Helvetica,sans-Serif" font-size="10.00">KUKA::FRI::ClientData</text>
<text text-anchor="middle" x="233.5" y="-31.5" font-family="Helvetica,sans-Serif" font-size="10.00">::setBooleanIOValue</text>
</a>
</g>
</g>
<!-- Node2 -->
<g id="node2" class="node">
<title>Node2</title>
<g id="a_node2"><a xlink:href="class_k_u_k_a_1_1_f_r_i_1_1_l_b_r_command.html#acf4aacbc5a1667df9e6288619870f3a1" target="_top" xlink:title="Set boolean output value.">
<polygon fill="white" stroke="black" points="0.5,-49.5 0.5,-79.5 137.5,-79.5 137.5,-49.5 0.5,-49.5"/>
<text text-anchor="start" x="8.5" y="-67.5" font-family="Helvetica,sans-Serif" font-size="10.00">KUKA::FRI::LBRCommand</text>
<text text-anchor="middle" x="69" y="-56.5" font-family="Helvetica,sans-Serif" font-size="10.00">::setBooleanIOValue</text>
</a>
</g>
</g>
<!-- Node1&#45;&gt;Node2 -->
<g id="edge1" class="edge">
<title>Node1&#45;&gt;Node2</title>
<path fill="none" stroke="midnightblue" d="M163.8,-50.07C155.16,-51.4 146.32,-52.76 137.69,-54.09"/>
<polygon fill="midnightblue" stroke="midnightblue" points="164.48,-53.51 173.83,-48.53 163.42,-46.59 164.48,-53.51"/>
</g>
<!-- Node3 -->
<g id="node3" class="node">
<title>Node3</title>
<g id="a_node3"><a xlink:href="class_k_u_k_a_1_1_f_r_i_1_1_transformation_client.html#a905bbbadfa4e347683b03eef44761878" target="_top" xlink:title="Set boolean output value.">
<polygon fill="white" stroke="black" points="0,-0.5 0,-30.5 138,-30.5 138,-0.5 0,-0.5"/>
<text text-anchor="start" x="8" y="-18.5" font-family="Helvetica,sans-Serif" font-size="10.00">KUKA::FRI::Transformation</text>
<text text-anchor="middle" x="69" y="-7.5" font-family="Helvetica,sans-Serif" font-size="10.00">Client::setBooleanIOValue</text>
</a>
</g>
</g>
<!-- Node1&#45;&gt;Node3 -->
<g id="edge2" class="edge">
<title>Node1&#45;&gt;Node3</title>
<path fill="none" stroke="midnightblue" d="M163.68,-29.34C155.26,-28.09 146.66,-26.82 138.25,-25.58"/>
<polygon fill="midnightblue" stroke="midnightblue" points="163.43,-32.84 173.83,-30.84 164.45,-25.91 163.43,-32.84"/>
</g>
</g>
</svg>
