<?xml version="1.0" encoding="UTF-8" standalone="no"?>
<!DOCTYPE svg PUBLIC "-//W3C//DTD SVG 1.1//EN"
 "http://www.w3.org/Graphics/SVG/1.1/DTD/svg11.dtd">
<!-- Generated by graphviz version 2.43.0 (0)
 -->
<!-- Title: KUKA::FRI::ClientData::getBooleanIOValue Pages: 1 -->
<svg width="679pt" height="121pt"
 viewBox="0.00 0.00 679.00 120.50" xmlns="http://www.w3.org/2000/svg" xmlns:xlink="http://www.w3.org/1999/xlink">
<g id="graph0" class="graph" transform="scale(1 1) rotate(0) translate(4 116.5)">
<title>KUKA::FRI::ClientData::getBooleanIOValue</title>
<polygon fill="white" stroke="transparent" points="-4,4 -4,-116.5 675,-116.5 675,4 -4,4"/>
<!-- Node1 -->
<g id="node1" class="node">
<title>Node1</title>
<g id="a_node1"><a xlink:title=" ">
<polygon fill="#bfbfbf" stroke="black" points="552,-24.5 552,-54.5 671,-54.5 671,-24.5 552,-24.5"/>
<text text-anchor="start" x="560" y="-42.5" font-family="Helvetica,sans-Serif" font-size="10.00">KUKA::FRI::ClientData</text>
<text text-anchor="middle" x="611.5" y="-31.5" font-family="Helvetica,sans-Serif" font-size="10.00">::getBooleanIOValue</text>
</a>
</g>
</g>
<!-- Node2 -->
<g id="node2" class="node">
<title>Node2</title>
<g id="a_node2"><a xlink:href="class_k_u_k_a_1_1_f_r_i_1_1_l_b_r_state.html#aafaf0eacc7fb915ea08869afb31c5a3b" target="_top" xlink:title="Get boolean IO value.">
<polygon fill="white" stroke="black" points="389,-49.5 389,-79.5 505,-79.5 505,-49.5 389,-49.5"/>
<text text-anchor="start" x="397" y="-67.5" font-family="Helvetica,sans-Serif" font-size="10.00">KUKA::FRI::LBRState</text>
<text text-anchor="middle" x="447" y="-56.5" font-family="Helvetica,sans-Serif" font-size="10.00">::getBooleanIOValue</text>
</a>
</g>
</g>
<!-- Node1&#45;&gt;Node2 -->
<g id="edge1" class="edge">
<title>Node1&#45;&gt;Node2</title>
<path fill="none" stroke="midnightblue" d="M541.73,-50.08C529.57,-51.95 517.02,-53.88 505.22,-55.7"/>
<polygon fill="midnightblue" stroke="midnightblue" points="542.48,-53.51 551.83,-48.53 541.42,-46.59 542.48,-53.51"/>
</g>
<!-- Node7 -->
<g id="node7" class="node">
<title>Node7</title>
<g id="a_node7"><a xlink:href="class_k_u_k_a_1_1_f_r_i_1_1_transformation_client.html#a59cd06de6602d90343ca921d838a15a2" target="_top" xlink:title="Get boolean IO value.">
<polygon fill="white" stroke="black" points="378,-0.5 378,-30.5 516,-30.5 516,-0.5 378,-0.5"/>
<text text-anchor="start" x="386" y="-18.5" font-family="Helvetica,sans-Serif" font-size="10.00">KUKA::FRI::Transformation</text>
<text text-anchor="middle" x="447" y="-7.5" font-family="Helvetica,sans-Serif" font-size="10.00">Client::getBooleanIOValue</text>
</a>
</g>
</g>
<!-- Node1&#45;&gt;Node7 -->
<g id="edge6" class="edge">
<title>Node1&#45;&gt;Node7</title>
<path fill="none" stroke="midnightblue" d="M541.68,-29.34C533.26,-28.09 524.66,-26.82 516.25,-25.58"/>
<polygon fill="midnightblue" stroke="midnightblue" points="541.43,-32.84 551.83,-30.84 542.45,-25.91 541.43,-32.84"/>
</g>
<!-- Node3 -->
<g id="node3" class="node">
<title>Node3</title>
<g id="a_node3"><a xlink:href="class_i_o_access_client.html#a01d1b4f46c4b43527106ccfae8440255" target="_top" xlink:title=" ">
<polygon fill="white" stroke="black" points="205,-49.5 205,-79.5 342,-79.5 342,-49.5 205,-49.5"/>
<text text-anchor="start" x="213" y="-67.5" font-family="Helvetica,sans-Serif" font-size="10.00">IOAccessClient::getAndSet</text>
<text text-anchor="middle" x="273.5" y="-56.5" font-family="Helvetica,sans-Serif" font-size="10.00">Example</text>
</a>
</g>
</g>
<!-- Node2&#45;&gt;Node3 -->
<g id="edge2" class="edge">
<title>Node2&#45;&gt;Node3</title>
<path fill="none" stroke="midnightblue" d="M378.88,-64.5C366.78,-64.5 354.17,-64.5 342.06,-64.5"/>
<polygon fill="midnightblue" stroke="midnightblue" points="378.89,-68 388.89,-64.5 378.89,-61 378.89,-68"/>
</g>
<!-- Node4 -->
<g id="node4" class="node">
<title>Node4</title>
<g id="a_node4"><a xlink:href="class_i_o_access_client.html#ae855d596323dfa86d9d089203092ec04" target="_top" xlink:title="Callback for the FRI session state &#39;Commanding&#39;.">
<polygon fill="white" stroke="black" points="17.5,-93 17.5,-112 151.5,-112 151.5,-93 17.5,-93"/>
<text text-anchor="middle" x="84.5" y="-100" font-family="Helvetica,sans-Serif" font-size="10.00">IOAccessClient::command</text>
</a>
</g>
</g>
<!-- Node3&#45;&gt;Node4 -->
<g id="edge3" class="edge">
<title>Node3&#45;&gt;Node4</title>
<path fill="none" stroke="midnightblue" d="M195,-80.25C173.75,-84.57 151.37,-89.11 132.42,-92.97"/>
<polygon fill="midnightblue" stroke="midnightblue" points="195.89,-83.64 204.99,-78.22 194.49,-76.78 195.89,-83.64"/>
</g>
<!-- Node5 -->
<g id="node5" class="node">
<title>Node5</title>
<g id="a_node5"><a xlink:href="class_i_o_access_client.html#adbfc68a5d43cc546ba6e31b61c3528b4" target="_top" xlink:title="Callback for the FRI session states &#39;Monitoring Wait&#39; and &#39;Monitoring Ready&#39;.">
<polygon fill="white" stroke="black" points="22.5,-55 22.5,-74 146.5,-74 146.5,-55 22.5,-55"/>
<text text-anchor="middle" x="84.5" y="-62" font-family="Helvetica,sans-Serif" font-size="10.00">IOAccessClient::monitor</text>
</a>
</g>
</g>
<!-- Node3&#45;&gt;Node5 -->
<g id="edge4" class="edge">
<title>Node3&#45;&gt;Node5</title>
<path fill="none" stroke="midnightblue" d="M194.59,-64.5C178.61,-64.5 162,-64.5 146.7,-64.5"/>
<polygon fill="midnightblue" stroke="midnightblue" points="194.99,-68 204.99,-64.5 194.99,-61 194.99,-68"/>
</g>
<!-- Node6 -->
<g id="node6" class="node">
<title>Node6</title>
<g id="a_node6"><a xlink:href="class_i_o_access_client.html#ace9215030d5cdb787ad8f200ba073e8c" target="_top" xlink:title="Callback for the FRI session state &#39;Commanding Wait&#39;.">
<polygon fill="white" stroke="black" points="0,-17 0,-36 169,-36 169,-17 0,-17"/>
<text text-anchor="middle" x="84.5" y="-24" font-family="Helvetica,sans-Serif" font-size="10.00">IOAccessClient::waitForCommand</text>
</a>
</g>
</g>
<!-- Node3&#45;&gt;Node6 -->
<g id="edge5" class="edge">
<title>Node3&#45;&gt;Node6</title>
<path fill="none" stroke="midnightblue" d="M195,-48.75C173.75,-44.43 151.37,-39.89 132.42,-36.03"/>
<polygon fill="midnightblue" stroke="midnightblue" points="194.49,-52.22 204.99,-50.78 195.89,-45.36 194.49,-52.22"/>
</g>
</g>
</svg>
