<?xml version="1.0" encoding="UTF-8" standalone="no"?>
<!DOCTYPE svg PUBLIC "-//W3C//DTD SVG 1.1//EN"
 "http://www.w3.org/Graphics/SVG/1.1/DTD/svg11.dtd">
<!-- Generated by graphviz version 2.43.0 (0)
 -->
<!-- Title: robotModel::performForwardKinematics Pages: 1 -->
<svg width="623pt" height="39pt"
 viewBox="0.00 0.00 623.00 39.00" xmlns="http://www.w3.org/2000/svg" xmlns:xlink="http://www.w3.org/1999/xlink">
<g id="graph0" class="graph" transform="scale(1 1) rotate(0) translate(4 35)">
<title>robotModel::performForwardKinematics</title>
<polygon fill="white" stroke="transparent" points="-4,4 -4,-35 619,-35 619,4 -4,4"/>
<!-- Node1 -->
<g id="node1" class="node">
<title>Node1</title>
<g id="a_node1"><a xlink:title="Updates the forward kinematics of the robot.">
<polygon fill="#bfbfbf" stroke="black" points="476,-0.5 476,-30.5 615,-30.5 615,-0.5 476,-0.5"/>
<text text-anchor="start" x="484" y="-18.5" font-family="Helvetica,sans-Serif" font-size="10.00">robotModel::performForward</text>
<text text-anchor="middle" x="545.5" y="-7.5" font-family="Helvetica,sans-Serif" font-size="10.00">Kinematics</text>
</a>
</g>
</g>
<!-- Node2 -->
<g id="node2" class="node">
<title>Node2</title>
<g id="a_node2"><a xlink:href="classmastersclient.html#a52c4a444e2e7d8485dc5dfc711f49cb1" target="_top" xlink:title="Process joint data, set joint positions and velocities in the robot model.">
<polygon fill="white" stroke="black" points="312,-0.5 312,-30.5 440,-30.5 440,-0.5 312,-0.5"/>
<text text-anchor="start" x="320" y="-18.5" font-family="Helvetica,sans-Serif" font-size="10.00">mastersclient::doProcess</text>
<text text-anchor="middle" x="376" y="-7.5" font-family="Helvetica,sans-Serif" font-size="10.00">JointData</text>
</a>
</g>
</g>
<!-- Node1&#45;&gt;Node2 -->
<g id="edge1" class="edge">
<title>Node1&#45;&gt;Node2</title>
<path fill="none" stroke="midnightblue" d="M465.82,-15.5C457.21,-15.5 448.51,-15.5 440.12,-15.5"/>
<polygon fill="midnightblue" stroke="midnightblue" points="465.89,-19 475.89,-15.5 465.89,-12 465.89,-19"/>
</g>
<!-- Node3 -->
<g id="node3" class="node">
<title>Node3</title>
<g id="a_node3"><a xlink:href="classmastersclient.html#a171d575864d9fa65755b2e4ce2cb0513" target="_top" xlink:title="Perform position and velocity calculations.">
<polygon fill="white" stroke="black" points="149,-0.5 149,-30.5 276,-30.5 276,-0.5 149,-0.5"/>
<text text-anchor="start" x="157" y="-18.5" font-family="Helvetica,sans-Serif" font-size="10.00">mastersclient::doPosition</text>
<text text-anchor="middle" x="212.5" y="-7.5" font-family="Helvetica,sans-Serif" font-size="10.00">AndVelocity</text>
</a>
</g>
</g>
<!-- Node2&#45;&gt;Node3 -->
<g id="edge2" class="edge">
<title>Node2&#45;&gt;Node3</title>
<path fill="none" stroke="midnightblue" d="M301.42,-15.5C292.98,-15.5 284.43,-15.5 276.15,-15.5"/>
<polygon fill="midnightblue" stroke="midnightblue" points="301.63,-19 311.63,-15.5 301.63,-12 301.63,-19"/>
</g>
<!-- Node4 -->
<g id="node4" class="node">
<title>Node4</title>
<g id="a_node4"><a xlink:href="classmastersclient.html#a4868c3c6b7959803d944e780bbff5ee4" target="_top" xlink:title="Callback for the FRI session states &#39;Monitoring Wait&#39; and &#39;Monitoring Ready&#39;.">
<polygon fill="white" stroke="black" points="0,-6 0,-25 113,-25 113,-6 0,-6"/>
<text text-anchor="middle" x="56.5" y="-13" font-family="Helvetica,sans-Serif" font-size="10.00">mastersclient::monitor</text>
</a>
</g>
</g>
<!-- Node3&#45;&gt;Node4 -->
<g id="edge3" class="edge">
<title>Node3&#45;&gt;Node4</title>
<path fill="none" stroke="midnightblue" d="M138.8,-15.5C130.18,-15.5 121.48,-15.5 113.15,-15.5"/>
<polygon fill="midnightblue" stroke="midnightblue" points="138.86,-19 148.86,-15.5 138.86,-12 138.86,-19"/>
</g>
</g>
</svg>
