<?xml version="1.0" encoding="UTF-8" standalone="no"?>
<!DOCTYPE svg PUBLIC "-//W3C//DTD SVG 1.1//EN"
 "http://www.w3.org/Graphics/SVG/1.1/DTD/svg11.dtd">
<!-- Generated by graphviz version 2.43.0 (0)
 -->
<!-- Title: mastersclient::doPositionAndVelocity Pages: 1 -->
<svg width="496pt" height="214pt"
 viewBox="0.00 0.00 496.00 214.00" xmlns="http://www.w3.org/2000/svg" xmlns:xlink="http://www.w3.org/1999/xlink">
<g id="graph0" class="graph" transform="scale(1 1) rotate(0) translate(4 210)">
<title>mastersclient::doPositionAndVelocity</title>
<polygon fill="white" stroke="transparent" points="-4,4 -4,-210 492,-210 492,4 -4,4"/>
<!-- Node1 -->
<g id="node1" class="node">
<title>Node1</title>
<g id="a_node1"><a xlink:title="Perform position and velocity calculations.">
<polygon fill="#bfbfbf" stroke="black" points="0,-112 0,-142 127,-142 127,-112 0,-112"/>
<text text-anchor="start" x="8" y="-130" font-family="Helvetica,sans-Serif" font-size="10.00">mastersclient::doPosition</text>
<text text-anchor="middle" x="63.5" y="-119" font-family="Helvetica,sans-Serif" font-size="10.00">AndVelocity</text>
</a>
</g>
</g>
<!-- Node2 -->
<g id="node2" class="node">
<title>Node2</title>
<g id="a_node2"><a xlink:href="classplot_master.html#ad2f26d2c1dcc762f9e6dbe596da22e2d" target="_top" xlink:title=" ">
<polygon fill="white" stroke="black" points="163,-186.5 163,-205.5 303,-205.5 303,-186.5 163,-186.5"/>
<text text-anchor="middle" x="233" y="-193.5" font-family="Helvetica,sans-Serif" font-size="10.00">plotMaster::addVelocityData</text>
</a>
</g>
</g>
<!-- Node1&#45;&gt;Node2 -->
<g id="edge1" class="edge">
<title>Node1&#45;&gt;Node2</title>
<path fill="none" stroke="midnightblue" d="M90.59,-142.07C110.07,-152.86 137.6,-167.17 163,-177 169.23,-179.41 175.88,-181.65 182.51,-183.67"/>
<polygon fill="midnightblue" stroke="midnightblue" points="181.57,-187.04 192.15,-186.49 183.53,-180.33 181.57,-187.04"/>
</g>
<!-- Node3 -->
<g id="node3" class="node">
<title>Node3</title>
<g id="a_node3"><a xlink:href="classmastersclient.html#a357664506b2c550cf7edaed6a8fd31a2" target="_top" xlink:title="Calculate joint velocity using multi&#45;sided differencing.">
<polygon fill="white" stroke="black" points="173,-137 173,-167 293,-167 293,-137 173,-137"/>
<text text-anchor="start" x="181" y="-155" font-family="Helvetica,sans-Serif" font-size="10.00">mastersclient::calculate</text>
<text text-anchor="middle" x="233" y="-144" font-family="Helvetica,sans-Serif" font-size="10.00">JointVelocityMultiSided</text>
</a>
</g>
</g>
<!-- Node1&#45;&gt;Node3 -->
<g id="edge2" class="edge">
<title>Node1&#45;&gt;Node3</title>
<path fill="none" stroke="midnightblue" d="M127.35,-136.38C138.91,-138.11 151.03,-139.92 162.77,-141.67"/>
<polygon fill="midnightblue" stroke="midnightblue" points="162.55,-145.17 172.96,-143.19 163.58,-138.25 162.55,-145.17"/>
</g>
<!-- Node4 -->
<g id="node4" class="node">
<title>Node4</title>
<g id="a_node4"><a xlink:href="classmastersclient.html#af38ef9a717f7cec043278ce59ed51c9d" target="_top" xlink:title="Calculate joint velocity using one&#45;sided differencing.">
<polygon fill="white" stroke="black" points="173,-88 173,-118 293,-118 293,-88 173,-88"/>
<text text-anchor="start" x="181" y="-106" font-family="Helvetica,sans-Serif" font-size="10.00">mastersclient::calculate</text>
<text text-anchor="middle" x="233" y="-95" font-family="Helvetica,sans-Serif" font-size="10.00">JointVelocityOneSided</text>
</a>
</g>
</g>
<!-- Node1&#45;&gt;Node4 -->
<g id="edge3" class="edge">
<title>Node1&#45;&gt;Node4</title>
<path fill="none" stroke="midnightblue" d="M127.35,-118C138.91,-116.34 151.03,-114.6 162.77,-112.92"/>
<polygon fill="midnightblue" stroke="midnightblue" points="163.55,-116.34 172.96,-111.46 162.56,-109.41 163.55,-116.34"/>
</g>
<!-- Node5 -->
<g id="node5" class="node">
<title>Node5</title>
<g id="a_node5"><a xlink:href="classmastersclient.html#a52c4a444e2e7d8485dc5dfc711f49cb1" target="_top" xlink:title="Process joint data, set joint positions and velocities in the robot model.">
<polygon fill="white" stroke="black" points="169,-39 169,-69 297,-69 297,-39 169,-39"/>
<text text-anchor="start" x="177" y="-57" font-family="Helvetica,sans-Serif" font-size="10.00">mastersclient::doProcess</text>
<text text-anchor="middle" x="233" y="-46" font-family="Helvetica,sans-Serif" font-size="10.00">JointData</text>
</a>
</g>
</g>
<!-- Node1&#45;&gt;Node5 -->
<g id="edge4" class="edge">
<title>Node1&#45;&gt;Node5</title>
<path fill="none" stroke="midnightblue" d="M93.43,-111.9C112.87,-102 139.18,-89.09 163,-79 168.06,-76.86 173.37,-74.73 178.71,-72.67"/>
<polygon fill="midnightblue" stroke="midnightblue" points="180.18,-75.85 188.29,-69.04 177.7,-69.31 180.18,-75.85"/>
</g>
<!-- Node6 -->
<g id="node6" class="node">
<title>Node6</title>
<g id="a_node6"><a xlink:href="classrobot_model.html#a6d79eb6c55649f2a88517e4a9e960278" target="_top" xlink:title="Retrieves and prints the transformation of the end&#45;effector.">
<polygon fill="white" stroke="black" points="339,-88.5 339,-107.5 488,-107.5 488,-88.5 339,-88.5"/>
<text text-anchor="middle" x="413.5" y="-95.5" font-family="Helvetica,sans-Serif" font-size="10.00">robotModel::getTransformation</text>
</a>
</g>
</g>
<!-- Node5&#45;&gt;Node6 -->
<g id="edge5" class="edge">
<title>Node5&#45;&gt;Node6</title>
<path fill="none" stroke="midnightblue" d="M294.93,-69.02C317.51,-74.59 342.79,-80.82 364.11,-86.07"/>
<polygon fill="midnightblue" stroke="midnightblue" points="363.36,-89.49 373.91,-88.49 365.04,-82.7 363.36,-89.49"/>
</g>
<!-- Node7 -->
<g id="node7" class="node">
<title>Node7</title>
<g id="a_node7"><a xlink:href="classrobot_model.html#a8741821f3b9995b0bd2647e643d4afe2" target="_top" xlink:title="Updates the forward kinematics of the robot.">
<polygon fill="white" stroke="black" points="344,-39 344,-69 483,-69 483,-39 344,-39"/>
<text text-anchor="start" x="352" y="-57" font-family="Helvetica,sans-Serif" font-size="10.00">robotModel::performForward</text>
<text text-anchor="middle" x="413.5" y="-46" font-family="Helvetica,sans-Serif" font-size="10.00">Kinematics</text>
</a>
</g>
</g>
<!-- Node5&#45;&gt;Node7 -->
<g id="edge6" class="edge">
<title>Node5&#45;&gt;Node7</title>
<path fill="none" stroke="midnightblue" d="M297.18,-54C309.01,-54 321.52,-54 333.75,-54"/>
<polygon fill="midnightblue" stroke="midnightblue" points="333.94,-57.5 343.94,-54 333.94,-50.5 333.94,-57.5"/>
</g>
<!-- Node8 -->
<g id="node8" class="node">
<title>Node8</title>
<g id="a_node8"><a xlink:href="classrobot_model.html#a08fc87648e1634ba61fcff546da0880a" target="_top" xlink:title="Sets the joint positions and velocities for the robot model.">
<polygon fill="white" stroke="black" points="367.5,-0.5 367.5,-19.5 459.5,-19.5 459.5,-0.5 367.5,-0.5"/>
<text text-anchor="middle" x="413.5" y="-7.5" font-family="Helvetica,sans-Serif" font-size="10.00">robotModel::setQ</text>
</a>
</g>
</g>
<!-- Node5&#45;&gt;Node8 -->
<g id="edge7" class="edge">
<title>Node5&#45;&gt;Node8</title>
<path fill="none" stroke="midnightblue" d="M294.93,-38.98C317.51,-33.41 342.79,-27.18 364.11,-21.93"/>
<polygon fill="midnightblue" stroke="midnightblue" points="365.04,-25.3 373.91,-19.51 363.36,-18.51 365.04,-25.3"/>
</g>
</g>
</svg>
