<?xml version="1.0" encoding="UTF-8" standalone="no"?>
<!DOCTYPE svg PUBLIC "-//W3C//DTD SVG 1.1//EN"
 "http://www.w3.org/Graphics/SVG/1.1/DTD/svg11.dtd">
<!-- Generated by graphviz version 2.43.0 (0)
 -->
<!-- Title: mastersclient::plotVelocityHistories Pages: 1 -->
<!--zoomable 332 -->
<svg id="main" version="1.1" xmlns="http://www.w3.org/2000/svg" xmlns:xlink="http://www.w3.org/1999/xlink" xml:space="preserve" onload="init(evt)">
<style type="text/css"><![CDATA[
.edge:hover path { stroke: red; }
.edge:hover polygon { stroke: red; fill: red; }
]]></style>
<script type="text/javascript"><![CDATA[
var edges = document.getElementsByTagName('g');
if (edges && edges.length) {
  for (var i=0;i<edges.length;i++) {
    if (edges[i].id.substr(0,4)=='edge') {
      edges[i].setAttribute('class','edge');
    }
  }
}
]]></script>
        <defs>
                <circle id="rim" cx="0" cy="0" r="7"/>
                <circle id="rim2" cx="0" cy="0" r="3.5"/>
                <g id="zoomPlus">
                        <use xlink:href="#rim" fill="#404040">
                                <set attributeName="fill" to="#808080" begin="zoomplus.mouseover" end="zoomplus.mouseout"/>
                        </use>
                        <path d="M-4,0h8M0,-4v8" fill="none" stroke="white" stroke-width="1.5" pointer-events="none"/>
                </g>
                <g id="zoomMin">
                        <use xlink:href="#rim" fill="#404040">
                                <set attributeName="fill" to="#808080" begin="zoomminus.mouseover" end="zoomminus.mouseout"/>
                        </use>
                        <path d="M-4,0h8" fill="none" stroke="white" stroke-width="1.5" pointer-events="none"/>
                </g>
                <g id="dirArrow">
                        <path fill="none" stroke="white" stroke-width="1.5" d="M0,-3.0v7 M-2.5,-0.5L0,-3.0L2.5,-0.5"/>
                </g>
               <g id="resetDef">
                       <use xlink:href="#rim2" fill="#404040">
                               <set attributeName="fill" to="#808080" begin="reset.mouseover" end="reset.mouseout"/>
                       </use>
               </g>
        </defs>

<script type="text/javascript">
var viewWidth = 953;
var viewHeight = 332;
var sectionId = 'dynsection-11';
</script>
<script xlink:href="svgpan.js"/>
<svg id="graph" class="graph">
<g id="viewport">
<title>mastersclient::plotVelocityHistories</title>
<polygon fill="white" stroke="transparent" points="-4,4 -4,-328 949,-328 949,4 -4,4"/>
<!-- Node1 -->
<g id="node1" class="node">
<title>Node1</title>
<g id="a_node1"><a xlink:title="Plot velocity histories if enabled.">
<polygon fill="#bfbfbf" stroke="black" points="0,-185 0,-215 132,-215 132,-185 0,-185"/>
<text text-anchor="start" x="8" y="-203" font-family="Helvetica,sans-Serif" font-size="10.00">mastersclient::plotVelocity</text>
<text text-anchor="middle" x="66" y="-192" font-family="Helvetica,sans-Serif" font-size="10.00">Histories</text>
</a>
</g>
</g>
<!-- Node2 -->
<g id="node2" class="node">
<title>Node2</title>
<g id="a_node2"><a xlink:href="classplot_master.html#a8f82bb73ecf8b47ef9fdb53b50fded08" target="_top" xlink:title=" ">
<polygon fill="white" stroke="black" points="183.5,-228.5 183.5,-247.5 293.5,-247.5 293.5,-228.5 183.5,-228.5"/>
<text text-anchor="middle" x="238.5" y="-235.5" font-family="Helvetica,sans-Serif" font-size="10.00">plotMaster::clearData</text>
</a>
</g>
</g>
<!-- Node1&#45;&gt;Node2 -->
<g id="edge1" class="edge">
<title>Node1&#45;&gt;Node2</title>
<path fill="none" stroke="midnightblue" d="M132.43,-214.58C149.7,-218.43 168.11,-222.53 184.62,-226.21"/>
<polygon fill="midnightblue" stroke="midnightblue" points="184.11,-229.69 194.63,-228.44 185.63,-222.85 184.11,-229.69"/>
</g>
<!-- Node3 -->
<g id="node3" class="node">
<title>Node3</title>
<g id="a_node3"><a xlink:href="classplot_master.html#ac81e23afe9bc69d1731d8688f56c54cc" target="_top" xlink:title=" ">
<polygon fill="white" stroke="black" points="179,-190.5 179,-209.5 298,-209.5 298,-190.5 179,-190.5"/>
<text text-anchor="middle" x="238.5" y="-197.5" font-family="Helvetica,sans-Serif" font-size="10.00">plotMaster::getHistSize</text>
</a>
</g>
</g>
<!-- Node1&#45;&gt;Node3 -->
<g id="edge2" class="edge">
<title>Node1&#45;&gt;Node3</title>
<path fill="none" stroke="midnightblue" d="M132.43,-200C144.27,-200 156.65,-200 168.59,-200"/>
<polygon fill="midnightblue" stroke="midnightblue" points="168.94,-203.5 178.94,-200 168.94,-196.5 168.94,-203.5"/>
</g>
<!-- Node4 -->
<g id="node4" class="node">
<title>Node4</title>
<g id="a_node4"><a xlink:href="classplot_master.html#a31c67a01be59bdb9ebf3bf86bf93bf32" target="_top" xlink:title=" ">
<polygon fill="white" stroke="black" points="168,-152.5 168,-171.5 309,-171.5 309,-152.5 168,-152.5"/>
<text text-anchor="middle" x="238.5" y="-159.5" font-family="Helvetica,sans-Serif" font-size="10.00">plotMaster::plotLiveFirstAxis</text>
</a>
</g>
</g>
<!-- Node1&#45;&gt;Node4 -->
<g id="edge3" class="edge">
<title>Node1&#45;&gt;Node4</title>
<path fill="none" stroke="midnightblue" d="M132.43,-185.42C149.7,-181.57 168.11,-177.47 184.62,-173.79"/>
<polygon fill="midnightblue" stroke="midnightblue" points="185.63,-177.15 194.63,-171.56 184.11,-170.31 185.63,-177.15"/>
</g>
<!-- Node5 -->
<g id="node5" class="node">
<title>Node5</title>
<g id="a_node5"><a xlink:href="namespacematplotlibcpp.html#adea4113b0ff7f393e18f1a99eb7e1718" target="_top" xlink:title=" ">
<polygon fill="white" stroke="black" points="365,-304.5 365,-323.5 456,-323.5 456,-304.5 365,-304.5"/>
<text text-anchor="middle" x="410.5" y="-311.5" font-family="Helvetica,sans-Serif" font-size="10.00">matplotlibcpp::clf</text>
</a>
</g>
</g>
<!-- Node4&#45;&gt;Node5 -->
<g id="edge4" class="edge">
<title>Node4&#45;&gt;Node5</title>
<path fill="none" stroke="midnightblue" d="M295.38,-171.66C300.38,-174.12 305.03,-177.18 309,-181 347.3,-217.83 307.07,-257.8 345,-295 348.09,-298.03 351.65,-300.59 355.46,-302.74"/>
<polygon fill="midnightblue" stroke="midnightblue" points="354.2,-306.01 364.74,-307.05 357.15,-299.66 354.2,-306.01"/>
</g>
<!-- Node9 -->
<g id="node9" class="node">
<title>Node9</title>
<g id="a_node9"><a xlink:href="namespacematplotlibcpp.html#a916bb5a9dc5f6a24877cc027bf4ee624" target="_top" xlink:title=" ">
<polygon fill="white" stroke="black" points="356,-266.5 356,-285.5 465,-285.5 465,-266.5 356,-266.5"/>
<text text-anchor="middle" x="410.5" y="-273.5" font-family="Helvetica,sans-Serif" font-size="10.00">matplotlibcpp::legend</text>
</a>
</g>
</g>
<!-- Node4&#45;&gt;Node9 -->
<g id="edge8" class="edge">
<title>Node4&#45;&gt;Node9</title>
<path fill="none" stroke="midnightblue" d="M293.47,-171.61C299.08,-174.06 304.4,-177.14 309,-181 337.64,-205.01 316.59,-232.71 345,-257 346.98,-258.69 349.1,-260.23 351.33,-261.64"/>
<polygon fill="midnightblue" stroke="midnightblue" points="349.89,-264.83 360.36,-266.41 353.15,-258.64 349.89,-264.83"/>
</g>
<!-- Node10 -->
<g id="node10" class="node">
<title>Node10</title>
<g id="a_node10"><a xlink:href="namespacematplotlibcpp.html#a6461c03041d9947a0e3b3593b5b72c95" target="_top" xlink:title=" ">
<polygon fill="white" stroke="black" points="345,-114.5 345,-133.5 476,-133.5 476,-114.5 345,-114.5"/>
<text text-anchor="middle" x="410.5" y="-121.5" font-family="Helvetica,sans-Serif" font-size="10.00">matplotlibcpp::named_plot</text>
</a>
</g>
</g>
<!-- Node4&#45;&gt;Node10 -->
<g id="edge10" class="edge">
<title>Node4&#45;&gt;Node10</title>
<path fill="none" stroke="midnightblue" d="M282.4,-152.41C305.03,-147.35 333,-141.1 356.93,-135.75"/>
<polygon fill="midnightblue" stroke="midnightblue" points="357.91,-139.12 366.91,-133.52 356.39,-132.29 357.91,-139.12"/>
</g>
<!-- Node12 -->
<g id="node12" class="node">
<title>Node12</title>
<g id="a_node12"><a xlink:href="namespacematplotlibcpp.html#aa5bc4092c9e2acbb2c6ec4efd024cf2f" target="_top" xlink:title=" ">
<polygon fill="white" stroke="black" points="357,-228.5 357,-247.5 464,-247.5 464,-228.5 357,-228.5"/>
<text text-anchor="middle" x="410.5" y="-235.5" font-family="Helvetica,sans-Serif" font-size="10.00">matplotlibcpp::pause</text>
</a>
</g>
</g>
<!-- Node4&#45;&gt;Node12 -->
<g id="edge13" class="edge">
<title>Node4&#45;&gt;Node12</title>
<path fill="none" stroke="midnightblue" d="M288.01,-171.58C295.32,-174.05 302.56,-177.14 309,-181 328.96,-192.95 325.16,-206.85 345,-219 348.43,-221.1 352.1,-222.98 355.9,-224.66"/>
<polygon fill="midnightblue" stroke="midnightblue" points="354.9,-228.03 365.49,-228.43 357.47,-221.52 354.9,-228.03"/>
</g>
<!-- Node13 -->
<g id="node13" class="node">
<title>Node13</title>
<g id="a_node13"><a xlink:href="namespacematplotlibcpp.html#ac7b2ae71a81811dfb69bcef95ee8390d" target="_top" xlink:title=" ">
<polygon fill="white" stroke="black" points="358.5,-190.5 358.5,-209.5 462.5,-209.5 462.5,-190.5 358.5,-190.5"/>
<text text-anchor="middle" x="410.5" y="-197.5" font-family="Helvetica,sans-Serif" font-size="10.00">matplotlibcpp::show</text>
</a>
</g>
</g>
<!-- Node4&#45;&gt;Node13 -->
<g id="edge15" class="edge">
<title>Node4&#45;&gt;Node13</title>
<path fill="none" stroke="midnightblue" d="M282.4,-171.59C305.03,-176.65 333,-182.9 356.93,-188.25"/>
<polygon fill="midnightblue" stroke="midnightblue" points="356.39,-191.71 366.91,-190.48 357.91,-184.88 356.39,-191.71"/>
</g>
<!-- Node14 -->
<g id="node14" class="node">
<title>Node14</title>
<g id="a_node14"><a xlink:href="namespacematplotlibcpp.html#a78f4b6d50e52d1782d52df692232f4e1" target="_top" xlink:title=" ">
<polygon fill="white" stroke="black" points="354.5,-152.5 354.5,-171.5 466.5,-171.5 466.5,-152.5 354.5,-152.5"/>
<text text-anchor="middle" x="410.5" y="-159.5" font-family="Helvetica,sans-Serif" font-size="10.00">matplotlibcpp::subplot</text>
</a>
</g>
</g>
<!-- Node4&#45;&gt;Node14 -->
<g id="edge17" class="edge">
<title>Node4&#45;&gt;Node14</title>
<path fill="none" stroke="midnightblue" d="M309.14,-162C320.65,-162 332.55,-162 343.96,-162"/>
<polygon fill="midnightblue" stroke="midnightblue" points="344.27,-165.5 354.27,-162 344.27,-158.5 344.27,-165.5"/>
</g>
<!-- Node15 -->
<g id="node15" class="node">
<title>Node15</title>
<g id="a_node15"><a xlink:href="namespacematplotlibcpp.html#a6de552522cdfa4d42e1ab11364f34a18" target="_top" xlink:title=" ">
<polygon fill="white" stroke="black" points="362.5,-76.5 362.5,-95.5 458.5,-95.5 458.5,-76.5 362.5,-76.5"/>
<text text-anchor="middle" x="410.5" y="-83.5" font-family="Helvetica,sans-Serif" font-size="10.00">matplotlibcpp::title</text>
</a>
</g>
</g>
<!-- Node4&#45;&gt;Node15 -->
<g id="edge19" class="edge">
<title>Node4&#45;&gt;Node15</title>
<path fill="none" stroke="midnightblue" d="M254.73,-152.45C274.81,-140.17 311.51,-118.8 345,-105 350.53,-102.72 356.43,-100.59 362.34,-98.65"/>
<polygon fill="midnightblue" stroke="midnightblue" points="363.71,-101.88 372.2,-95.55 361.61,-95.2 363.71,-101.88"/>
</g>
<!-- Node16 -->
<g id="node16" class="node">
<title>Node16</title>
<g id="a_node16"><a xlink:href="namespacematplotlibcpp.html#a93e96cce1779c757a9ac754639c80878" target="_top" xlink:title=" ">
<polygon fill="white" stroke="black" points="357.5,-38.5 357.5,-57.5 463.5,-57.5 463.5,-38.5 357.5,-38.5"/>
<text text-anchor="middle" x="410.5" y="-45.5" font-family="Helvetica,sans-Serif" font-size="10.00">matplotlibcpp::xlabel</text>
</a>
</g>
</g>
<!-- Node4&#45;&gt;Node16 -->
<g id="edge20" class="edge">
<title>Node4&#45;&gt;Node16</title>
<path fill="none" stroke="midnightblue" d="M247.47,-152.38C263.79,-133.3 303.05,-90.45 345,-67 348.95,-64.79 353.18,-62.82 357.51,-61.06"/>
<polygon fill="midnightblue" stroke="midnightblue" points="358.92,-64.27 367.1,-57.54 356.51,-57.7 358.92,-64.27"/>
</g>
<!-- Node17 -->
<g id="node17" class="node">
<title>Node17</title>
<g id="a_node17"><a xlink:href="namespacematplotlibcpp.html#adaa29542f05e1acb0850b7e4619a9359" target="_top" xlink:title=" ">
<polygon fill="white" stroke="black" points="357.5,-0.5 357.5,-19.5 463.5,-19.5 463.5,-0.5 357.5,-0.5"/>
<text text-anchor="middle" x="410.5" y="-7.5" font-family="Helvetica,sans-Serif" font-size="10.00">matplotlibcpp::ylabel</text>
</a>
</g>
</g>
<!-- Node4&#45;&gt;Node17 -->
<g id="edge21" class="edge">
<title>Node4&#45;&gt;Node17</title>
<path fill="none" stroke="midnightblue" d="M244.43,-152.29C257.39,-127.75 294.91,-62.78 345,-29 347.94,-27.01 351.1,-25.23 354.37,-23.63"/>
<polygon fill="midnightblue" stroke="midnightblue" points="356.02,-26.74 363.84,-19.6 353.27,-20.3 356.02,-26.74"/>
</g>
<!-- Node6 -->
<g id="node6" class="node">
<title>Node6</title>
<g id="a_node6"><a xlink:href="structmatplotlibcpp_1_1detail_1_1__interpreter.html#a3ddc4e50c23738307da3dc64c47cdbc0" target="_top" xlink:title=" ">
<polygon fill="white" stroke="black" points="512,-204 512,-234 616,-234 616,-204 512,-204"/>
<text text-anchor="start" x="520" y="-222" font-family="Helvetica,sans-Serif" font-size="10.00">matplotlibcpp::detail</text>
<text text-anchor="middle" x="564" y="-211" font-family="Helvetica,sans-Serif" font-size="10.00">::_interpreter::get</text>
</a>
</g>
</g>
<!-- Node5&#45;&gt;Node6 -->
<g id="edge5" class="edge">
<title>Node5&#45;&gt;Node6</title>
<path fill="none" stroke="midnightblue" d="M453.51,-304.49C461.23,-301.95 469.04,-298.82 476,-295 501.61,-280.93 526.25,-258.26 542.73,-241.34"/>
<polygon fill="midnightblue" stroke="midnightblue" points="545.33,-243.67 549.7,-234.02 540.27,-238.85 545.33,-243.67"/>
</g>
<!-- Node7 -->
<g id="node7" class="node">
<title>Node7</title>
<g id="a_node7"><a xlink:href="structmatplotlibcpp_1_1detail_1_1__interpreter.html#accf36ff8fd9f1bd757d028fa4a14be40" target="_top" xlink:title=" ">
<polygon fill="white" stroke="black" points="652,-204 652,-234 777,-234 777,-204 652,-204"/>
<text text-anchor="start" x="660" y="-222" font-family="Helvetica,sans-Serif" font-size="10.00">matplotlibcpp::detail</text>
<text text-anchor="middle" x="714.5" y="-211" font-family="Helvetica,sans-Serif" font-size="10.00">::_interpreter::interkeeper</text>
</a>
</g>
</g>
<!-- Node6&#45;&gt;Node7 -->
<g id="edge6" class="edge">
<title>Node6&#45;&gt;Node7</title>
<path fill="none" stroke="midnightblue" d="M616.11,-219C624.37,-219 633.05,-219 641.69,-219"/>
<polygon fill="midnightblue" stroke="midnightblue" points="641.79,-222.5 651.79,-219 641.79,-215.5 641.79,-222.5"/>
</g>
<!-- Node8 -->
<g id="node8" class="node">
<title>Node8</title>
<g id="a_node8"><a xlink:href="structmatplotlibcpp_1_1detail_1_1__interpreter.html#abd9d036f154de95f507d8be310569d20" target="_top" xlink:title=" ">
<polygon fill="white" stroke="black" points="813,-204 813,-234 945,-234 945,-204 813,-204"/>
<text text-anchor="start" x="821" y="-222" font-family="Helvetica,sans-Serif" font-size="10.00">matplotlibcpp::detail</text>
<text text-anchor="middle" x="879" y="-211" font-family="Helvetica,sans-Serif" font-size="10.00">::_interpreter::~_interpreter</text>
</a>
</g>
</g>
<!-- Node7&#45;&gt;Node8 -->
<g id="edge7" class="edge">
<title>Node7&#45;&gt;Node8</title>
<path fill="none" stroke="midnightblue" d="M777.4,-219C785.62,-219 794.13,-219 802.55,-219"/>
<polygon fill="midnightblue" stroke="midnightblue" points="802.76,-222.5 812.76,-219 802.76,-215.5 802.76,-222.5"/>
</g>
<!-- Node9&#45;&gt;Node6 -->
<g id="edge9" class="edge">
<title>Node9&#45;&gt;Node6</title>
<path fill="none" stroke="midnightblue" d="M446.91,-266.44C456.43,-263.63 466.68,-260.39 476,-257 491.25,-251.45 507.63,-244.55 522.02,-238.16"/>
<polygon fill="midnightblue" stroke="midnightblue" points="523.48,-241.34 531.16,-234.05 520.61,-234.96 523.48,-241.34"/>
</g>
<!-- Node10&#45;&gt;Node6 -->
<g id="edge11" class="edge">
<title>Node10&#45;&gt;Node6</title>
<path fill="none" stroke="midnightblue" d="M453.51,-133.51C461.23,-136.05 469.04,-139.18 476,-143 501.61,-157.07 526.25,-179.74 542.73,-196.66"/>
<polygon fill="midnightblue" stroke="midnightblue" points="540.27,-199.15 549.7,-203.98 545.33,-194.33 540.27,-199.15"/>
</g>
<!-- Node11 -->
<g id="node11" class="node">
<title>Node11</title>
<g id="a_node11"><a xlink:href="namespacematplotlibcpp_1_1detail.html#a9bcca44556cf0ddbbf147a423d9a9496" target="_top" xlink:title=" ">
<polygon fill="white" stroke="black" points="512,-109 512,-139 616,-139 616,-109 512,-109"/>
<text text-anchor="start" x="520" y="-127" font-family="Helvetica,sans-Serif" font-size="10.00">matplotlibcpp::detail</text>
<text text-anchor="middle" x="564" y="-116" font-family="Helvetica,sans-Serif" font-size="10.00">::get_array</text>
</a>
</g>
</g>
<!-- Node10&#45;&gt;Node11 -->
<g id="edge12" class="edge">
<title>Node10&#45;&gt;Node11</title>
<path fill="none" stroke="midnightblue" d="M476.19,-124C484.65,-124 493.3,-124 501.71,-124"/>
<polygon fill="midnightblue" stroke="midnightblue" points="501.8,-127.5 511.8,-124 501.8,-120.5 501.8,-127.5"/>
</g>
<!-- Node12&#45;&gt;Node6 -->
<g id="edge14" class="edge">
<title>Node12&#45;&gt;Node6</title>
<path fill="none" stroke="midnightblue" d="M464.06,-231.41C476.15,-229.89 489.1,-228.27 501.53,-226.71"/>
<polygon fill="midnightblue" stroke="midnightblue" points="502.32,-230.14 511.81,-225.42 501.45,-223.19 502.32,-230.14"/>
</g>
<!-- Node13&#45;&gt;Node6 -->
<g id="edge16" class="edge">
<title>Node13&#45;&gt;Node6</title>
<path fill="none" stroke="midnightblue" d="M462.79,-206.43C475.25,-208 488.71,-209.68 501.59,-211.3"/>
<polygon fill="midnightblue" stroke="midnightblue" points="501.4,-214.8 511.76,-212.57 502.28,-207.86 501.4,-214.8"/>
</g>
<!-- Node14&#45;&gt;Node6 -->
<g id="edge18" class="edge">
<title>Node14&#45;&gt;Node6</title>
<path fill="none" stroke="midnightblue" d="M446.91,-171.56C456.43,-174.37 466.68,-177.61 476,-181 491.25,-186.55 507.63,-193.45 522.02,-199.84"/>
<polygon fill="midnightblue" stroke="midnightblue" points="520.61,-203.04 531.16,-203.95 523.48,-196.66 520.61,-203.04"/>
</g>
</g>
</svg>
        <g id="navigator" transform="translate(0 0)" fill="#404254">
                <rect fill="#f2f5e9" fill-opacity="0.5" stroke="#606060" stroke-width=".5" x="0" y="0" width="60" height="60"/>
                <use id="zoomplus" xlink:href="#zoomPlus" x="17" y="9" onmousedown="handleZoom(evt,'in')"/>
                <use id="zoomminus" xlink:href="#zoomMin" x="42" y="9" onmousedown="handleZoom(evt,'out')"/>
                <use id="reset" xlink:href="#resetDef" x="30" y="36" onmousedown="handleReset()"/>
                <g id="arrowUp" xlink:href="#dirArrow" transform="translate(30 24)" onmousedown="handlePan(0,-1)">
                  <use xlink:href="#rim" fill="#404040">
                        <set attributeName="fill" to="#808080" begin="arrowUp.mouseover" end="arrowUp.mouseout"/>
                  </use>
                  <path fill="none" stroke="white" stroke-width="1.5" d="M0,-3.0v7 M-2.5,-0.5L0,-3.0L2.5,-0.5"/>
                </g>
                <g id="arrowRight" xlink:href="#dirArrow" transform="rotate(90) translate(36 -43)" onmousedown="handlePan(1,0)">
                  <use xlink:href="#rim" fill="#404040">
                        <set attributeName="fill" to="#808080" begin="arrowRight.mouseover" end="arrowRight.mouseout"/>
                  </use>
                  <path fill="none" stroke="white" stroke-width="1.5" d="M0,-3.0v7 M-2.5,-0.5L0,-3.0L2.5,-0.5"/>
                </g>
                <g id="arrowDown" xlink:href="#dirArrow" transform="rotate(180) translate(-30 -48)" onmousedown="handlePan(0,1)">
                  <use xlink:href="#rim" fill="#404040">
                        <set attributeName="fill" to="#808080" begin="arrowDown.mouseover" end="arrowDown.mouseout"/>
                  </use>
                  <path fill="none" stroke="white" stroke-width="1.5" d="M0,-3.0v7 M-2.5,-0.5L0,-3.0L2.5,-0.5"/>
                </g>
                <g id="arrowLeft" xlink:href="#dirArrow" transform="rotate(270) translate(-36 17)" onmousedown="handlePan(-1,0)">
                  <use xlink:href="#rim" fill="#404040">
                        <set attributeName="fill" to="#808080" begin="arrowLeft.mouseover" end="arrowLeft.mouseout"/>
                  </use>
                  <path fill="none" stroke="white" stroke-width="1.5" d="M0,-3.0v7 M-2.5,-0.5L0,-3.0L2.5,-0.5"/>
                </g>
        </g>
        <svg viewBox="0 0 15 15" width="100%" height="30px" preserveAspectRatio="xMaxYMin meet">
         <g id="arrow_out" transform="scale(0.3 0.3)">
          <a xlink:href="classmastersclient_a67ce0ffe6f714613edecda218bb84055_cgraph_org.svg" target="_base">
           <rect id="button" ry="5" rx="5" y="6" x="6" height="38" width="38"
                fill="#f2f5e9" fill-opacity="0.5" stroke="#606060" stroke-width="1.0"/>
           <path id="arrow"
             d="M 11.500037,31.436501 C 11.940474,20.09759 22.043105,11.32322 32.158766,21.979434 L 37.068811,17.246167 C 37.068811,17.246167 37.088388,32 37.088388,32 L 22.160133,31.978069 C 22.160133,31.978069 26.997745,27.140456 26.997745,27.140456 C 18.528582,18.264221 13.291696,25.230495 11.500037,31.436501 z"
             style="fill:#404040;"/>
          </a>
         </g>
        </svg>
</svg>
