<?xml version="1.0" encoding="UTF-8" standalone="no"?>
<!DOCTYPE svg PUBLIC "-//W3C//DTD SVG 1.1//EN"
 "http://www.w3.org/Graphics/SVG/1.1/DTD/svg11.dtd">
<!-- Generated by graphviz version 2.43.0 (0)
 -->
<!-- Title: mastersclient Pages: 1 -->
<svg width="333pt" height="162pt"
 viewBox="0.00 0.00 332.50 162.00" xmlns="http://www.w3.org/2000/svg" xmlns:xlink="http://www.w3.org/1999/xlink">
<g id="graph0" class="graph" transform="scale(1 1) rotate(0) translate(4 158)">
<title>mastersclient</title>
<polygon fill="white" stroke="transparent" points="-4,4 -4,-158 328.5,-158 328.5,4 -4,4"/>
<!-- Node1 -->
<g id="node1" class="node">
<title>Node1</title>
<g id="a_node1"><a xlink:title="Test client that can overlay interpolator joint positions with sine waves.">
<polygon fill="#bfbfbf" stroke="black" points="129.5,-0.5 129.5,-19.5 204.5,-19.5 204.5,-0.5 129.5,-0.5"/>
<text text-anchor="middle" x="167" y="-7.5" font-family="Helvetica,sans-Serif" font-size="10.00">mastersclient</text>
</a>
</g>
</g>
<!-- Node2 -->
<g id="node2" class="node">
<title>Node2</title>
<g id="a_node2"><a xlink:title=" ">
<polygon fill="white" stroke="#bfbfbf" points="0,-67.5 0,-86.5 118,-86.5 118,-67.5 0,-67.5"/>
<text text-anchor="middle" x="59" y="-74.5" font-family="Helvetica,sans-Serif" font-size="10.00">KUKA::FRI::LBRClient</text>
</a>
</g>
</g>
<!-- Node2&#45;&gt;Node1 -->
<g id="edge1" class="edge">
<title>Node2&#45;&gt;Node1</title>
<path fill="none" stroke="midnightblue" d="M82.36,-61.94C103.75,-49.07 134.72,-30.43 152.67,-19.63"/>
<polygon fill="midnightblue" stroke="midnightblue" points="80.33,-59.08 73.57,-67.23 83.94,-65.08 80.33,-59.08"/>
</g>
<!-- Node3 -->
<g id="node3" class="node">
<title>Node3</title>
<g id="a_node3"><a xlink:href="classplot_master.html" target="_top" xlink:title=" ">
<polygon fill="white" stroke="black" points="136,-67.5 136,-86.5 198,-86.5 198,-67.5 136,-67.5"/>
<text text-anchor="middle" x="167" y="-74.5" font-family="Helvetica,sans-Serif" font-size="10.00">plotMaster</text>
</a>
</g>
</g>
<!-- Node3&#45;&gt;Node1 -->
<g id="edge2" class="edge">
<title>Node3&#45;&gt;Node1</title>
<path fill="none" stroke="#9a32cd" stroke-dasharray="5,2" d="M167,-57.04C167,-44.67 167,-29.12 167,-19.63"/>
<polygon fill="#9a32cd" stroke="#9a32cd" points="163.5,-57.23 167,-67.23 170.5,-57.23 163.5,-57.23"/>
<text text-anchor="middle" x="182.5" y="-41" font-family="Helvetica,sans-Serif" font-size="10.00"> plotter</text>
</g>
<!-- Node4 -->
<g id="node4" class="node">
<title>Node4</title>
<g id="a_node4"><a xlink:href="classrobot_model.html" target="_top" xlink:title="Class representing the robot model and providing kinematic information.">
<polygon fill="white" stroke="black" points="216.5,-67.5 216.5,-86.5 281.5,-86.5 281.5,-67.5 216.5,-67.5"/>
<text text-anchor="middle" x="249" y="-74.5" font-family="Helvetica,sans-Serif" font-size="10.00">robotModel</text>
</a>
</g>
</g>
<!-- Node4&#45;&gt;Node1 -->
<g id="edge3" class="edge">
<title>Node4&#45;&gt;Node1</title>
<path fill="none" stroke="#9a32cd" stroke-dasharray="5,2" d="M230.66,-61.01C222.01,-53.98 211.51,-45.51 202,-38 194.17,-31.82 185.27,-24.95 178.4,-19.69"/>
<polygon fill="#9a32cd" stroke="#9a32cd" points="228.64,-63.88 238.6,-67.48 233.06,-58.45 228.64,-63.88"/>
<text text-anchor="middle" x="235.5" y="-41" font-family="Helvetica,sans-Serif" font-size="10.00"> robotmdl</text>
</g>
<!-- Node5 -->
<g id="node5" class="node">
<title>Node5</title>
<g id="a_node5"><a xlink:href="struct_t_c_p_parameters.html" target="_top" xlink:title=" ">
<polygon fill="white" stroke="black" points="160.5,-134.5 160.5,-153.5 247.5,-153.5 247.5,-134.5 160.5,-134.5"/>
<text text-anchor="middle" x="204" y="-141.5" font-family="Helvetica,sans-Serif" font-size="10.00">TCPParameters</text>
</a>
</g>
</g>
<!-- Node5&#45;&gt;Node4 -->
<g id="edge4" class="edge">
<title>Node5&#45;&gt;Node4</title>
<path fill="none" stroke="#9a32cd" stroke-dasharray="5,2" d="M215.84,-125.9C224.58,-113.27 236.12,-96.6 243.03,-86.63"/>
<polygon fill="#9a32cd" stroke="#9a32cd" points="212.88,-124.02 210.07,-134.23 218.64,-128 212.88,-124.02"/>
<text text-anchor="middle" x="238.5" y="-108" font-family="Helvetica,sans-Serif" font-size="10.00"> tcp</text>
</g>
<!-- Node6 -->
<g id="node6" class="node">
<title>Node6</title>
<g id="a_node6"><a xlink:href="struct_l_b_r___rob.html" target="_top" xlink:title=" ">
<polygon fill="white" stroke="black" points="265.5,-134.5 265.5,-153.5 324.5,-153.5 324.5,-134.5 265.5,-134.5"/>
<text text-anchor="middle" x="295" y="-141.5" font-family="Helvetica,sans-Serif" font-size="10.00">LBR_Rob</text>
</a>
</g>
</g>
<!-- Node6&#45;&gt;Node4 -->
<g id="edge5" class="edge">
<title>Node6&#45;&gt;Node4</title>
<path fill="none" stroke="#9a32cd" stroke-dasharray="5,2" d="M282.9,-125.9C273.96,-113.27 262.17,-96.6 255.11,-86.63"/>
<polygon fill="#9a32cd" stroke="#9a32cd" points="280.16,-128.09 288.8,-134.23 285.88,-124.05 280.16,-128.09"/>
<text text-anchor="middle" x="281" y="-108" font-family="Helvetica,sans-Serif" font-size="10.00"> lbr</text>
</g>
</g>
</svg>
