<?xml version="1.0" encoding="UTF-8" standalone="no"?>
<!DOCTYPE svg PUBLIC "-//W3C//DTD SVG 1.1//EN"
 "http://www.w3.org/Graphics/SVG/1.1/DTD/svg11.dtd">
<!-- Generated by graphviz version 2.43.0 (0)
 -->
<!-- Title: plotMaster::plotLiveFirstAxis Pages: 1 -->
<!--zoomable 332 -->
<svg id="main" version="1.1" xmlns="http://www.w3.org/2000/svg" xmlns:xlink="http://www.w3.org/1999/xlink" xml:space="preserve" onload="init(evt)">
<style type="text/css"><![CDATA[
.edge:hover path { stroke: red; }
.edge:hover polygon { stroke: red; fill: red; }
]]></style>
<script type="text/javascript"><![CDATA[
var edges = document.getElementsByTagName('g');
if (edges && edges.length) {
  for (var i=0;i<edges.length;i++) {
    if (edges[i].id.substr(0,4)=='edge') {
      edges[i].setAttribute('class','edge');
    }
  }
}
]]></script>
        <defs>
                <circle id="rim" cx="0" cy="0" r="7"/>
                <circle id="rim2" cx="0" cy="0" r="3.5"/>
                <g id="zoomPlus">
                        <use xlink:href="#rim" fill="#404040">
                                <set attributeName="fill" to="#808080" begin="zoomplus.mouseover" end="zoomplus.mouseout"/>
                        </use>
                        <path d="M-4,0h8M0,-4v8" fill="none" stroke="white" stroke-width="1.5" pointer-events="none"/>
                </g>
                <g id="zoomMin">
                        <use xlink:href="#rim" fill="#404040">
                                <set attributeName="fill" to="#808080" begin="zoomminus.mouseover" end="zoomminus.mouseout"/>
                        </use>
                        <path d="M-4,0h8" fill="none" stroke="white" stroke-width="1.5" pointer-events="none"/>
                </g>
                <g id="dirArrow">
                        <path fill="none" stroke="white" stroke-width="1.5" d="M0,-3.0v7 M-2.5,-0.5L0,-3.0L2.5,-0.5"/>
                </g>
               <g id="resetDef">
                       <use xlink:href="#rim2" fill="#404040">
                               <set attributeName="fill" to="#808080" begin="reset.mouseover" end="reset.mouseout"/>
                       </use>
               </g>
        </defs>

<script type="text/javascript">
var viewWidth = 785;
var viewHeight = 332;
var sectionId = 'dynsection-3';
</script>
<script xlink:href="svgpan.js"/>
<svg id="graph" class="graph">
<g id="viewport">
<title>plotMaster::plotLiveFirstAxis</title>
<polygon fill="white" stroke="transparent" points="-4,4 -4,-328 781,-328 781,4 -4,4"/>
<!-- Node1 -->
<g id="node1" class="node">
<title>Node1</title>
<g id="a_node1"><a xlink:title=" ">
<polygon fill="#bfbfbf" stroke="black" points="0,-152.5 0,-171.5 141,-171.5 141,-152.5 0,-152.5"/>
<text text-anchor="middle" x="70.5" y="-159.5" font-family="Helvetica,sans-Serif" font-size="10.00">plotMaster::plotLiveFirstAxis</text>
</a>
</g>
</g>
<!-- Node2 -->
<g id="node2" class="node">
<title>Node2</title>
<g id="a_node2"><a xlink:href="namespacematplotlibcpp.html#adea4113b0ff7f393e18f1a99eb7e1718" target="_top" xlink:title=" ">
<polygon fill="white" stroke="black" points="197,-304.5 197,-323.5 288,-323.5 288,-304.5 197,-304.5"/>
<text text-anchor="middle" x="242.5" y="-311.5" font-family="Helvetica,sans-Serif" font-size="10.00">matplotlibcpp::clf</text>
</a>
</g>
</g>
<!-- Node1&#45;&gt;Node2 -->
<g id="edge1" class="edge">
<title>Node1&#45;&gt;Node2</title>
<path fill="none" stroke="midnightblue" d="M76.43,-171.71C89.39,-196.25 126.91,-261.22 177,-295 180.28,-297.21 183.83,-299.17 187.5,-300.91"/>
<polygon fill="midnightblue" stroke="midnightblue" points="186.28,-304.19 196.86,-304.78 188.95,-297.72 186.28,-304.19"/>
</g>
<!-- Node6 -->
<g id="node6" class="node">
<title>Node6</title>
<g id="a_node6"><a xlink:href="namespacematplotlibcpp.html#a916bb5a9dc5f6a24877cc027bf4ee624" target="_top" xlink:title=" ">
<polygon fill="white" stroke="black" points="188,-266.5 188,-285.5 297,-285.5 297,-266.5 188,-266.5"/>
<text text-anchor="middle" x="242.5" y="-273.5" font-family="Helvetica,sans-Serif" font-size="10.00">matplotlibcpp::legend</text>
</a>
</g>
</g>
<!-- Node1&#45;&gt;Node6 -->
<g id="edge5" class="edge">
<title>Node1&#45;&gt;Node6</title>
<path fill="none" stroke="midnightblue" d="M79.47,-171.62C95.79,-190.7 135.05,-233.55 177,-257 180.95,-259.21 185.18,-261.18 189.51,-262.94"/>
<polygon fill="midnightblue" stroke="midnightblue" points="188.51,-266.3 199.1,-266.46 190.92,-259.73 188.51,-266.3"/>
</g>
<!-- Node7 -->
<g id="node7" class="node">
<title>Node7</title>
<g id="a_node7"><a xlink:href="namespacematplotlibcpp.html#a6461c03041d9947a0e3b3593b5b72c95" target="_top" xlink:title=" ">
<polygon fill="white" stroke="black" points="177,-114.5 177,-133.5 308,-133.5 308,-114.5 177,-114.5"/>
<text text-anchor="middle" x="242.5" y="-121.5" font-family="Helvetica,sans-Serif" font-size="10.00">matplotlibcpp::named_plot</text>
</a>
</g>
</g>
<!-- Node1&#45;&gt;Node7 -->
<g id="edge7" class="edge">
<title>Node1&#45;&gt;Node7</title>
<path fill="none" stroke="midnightblue" d="M114.4,-152.41C137.03,-147.35 165,-141.1 188.93,-135.75"/>
<polygon fill="midnightblue" stroke="midnightblue" points="189.91,-139.12 198.91,-133.52 188.39,-132.29 189.91,-139.12"/>
</g>
<!-- Node9 -->
<g id="node9" class="node">
<title>Node9</title>
<g id="a_node9"><a xlink:href="namespacematplotlibcpp.html#aa5bc4092c9e2acbb2c6ec4efd024cf2f" target="_top" xlink:title=" ">
<polygon fill="white" stroke="black" points="189,-228.5 189,-247.5 296,-247.5 296,-228.5 189,-228.5"/>
<text text-anchor="middle" x="242.5" y="-235.5" font-family="Helvetica,sans-Serif" font-size="10.00">matplotlibcpp::pause</text>
</a>
</g>
</g>
<!-- Node1&#45;&gt;Node9 -->
<g id="edge10" class="edge">
<title>Node1&#45;&gt;Node9</title>
<path fill="none" stroke="midnightblue" d="M86.73,-171.55C106.81,-183.83 143.51,-205.2 177,-219 182.53,-221.28 188.43,-223.41 194.34,-225.35"/>
<polygon fill="midnightblue" stroke="midnightblue" points="193.61,-228.8 204.2,-228.45 195.71,-222.12 193.61,-228.8"/>
</g>
<!-- Node10 -->
<g id="node10" class="node">
<title>Node10</title>
<g id="a_node10"><a xlink:href="namespacematplotlibcpp.html#ac7b2ae71a81811dfb69bcef95ee8390d" target="_top" xlink:title=" ">
<polygon fill="white" stroke="black" points="190.5,-190.5 190.5,-209.5 294.5,-209.5 294.5,-190.5 190.5,-190.5"/>
<text text-anchor="middle" x="242.5" y="-197.5" font-family="Helvetica,sans-Serif" font-size="10.00">matplotlibcpp::show</text>
</a>
</g>
</g>
<!-- Node1&#45;&gt;Node10 -->
<g id="edge12" class="edge">
<title>Node1&#45;&gt;Node10</title>
<path fill="none" stroke="midnightblue" d="M114.4,-171.59C137.03,-176.65 165,-182.9 188.93,-188.25"/>
<polygon fill="midnightblue" stroke="midnightblue" points="188.39,-191.71 198.91,-190.48 189.91,-184.88 188.39,-191.71"/>
</g>
<!-- Node11 -->
<g id="node11" class="node">
<title>Node11</title>
<g id="a_node11"><a xlink:href="namespacematplotlibcpp.html#a78f4b6d50e52d1782d52df692232f4e1" target="_top" xlink:title=" ">
<polygon fill="white" stroke="black" points="186.5,-152.5 186.5,-171.5 298.5,-171.5 298.5,-152.5 186.5,-152.5"/>
<text text-anchor="middle" x="242.5" y="-159.5" font-family="Helvetica,sans-Serif" font-size="10.00">matplotlibcpp::subplot</text>
</a>
</g>
</g>
<!-- Node1&#45;&gt;Node11 -->
<g id="edge14" class="edge">
<title>Node1&#45;&gt;Node11</title>
<path fill="none" stroke="midnightblue" d="M141.14,-162C152.65,-162 164.55,-162 175.96,-162"/>
<polygon fill="midnightblue" stroke="midnightblue" points="176.27,-165.5 186.27,-162 176.27,-158.5 176.27,-165.5"/>
</g>
<!-- Node12 -->
<g id="node12" class="node">
<title>Node12</title>
<g id="a_node12"><a xlink:href="namespacematplotlibcpp.html#a6de552522cdfa4d42e1ab11364f34a18" target="_top" xlink:title=" ">
<polygon fill="white" stroke="black" points="194.5,-76.5 194.5,-95.5 290.5,-95.5 290.5,-76.5 194.5,-76.5"/>
<text text-anchor="middle" x="242.5" y="-83.5" font-family="Helvetica,sans-Serif" font-size="10.00">matplotlibcpp::title</text>
</a>
</g>
</g>
<!-- Node1&#45;&gt;Node12 -->
<g id="edge16" class="edge">
<title>Node1&#45;&gt;Node12</title>
<path fill="none" stroke="midnightblue" d="M86.73,-152.45C106.81,-140.17 143.51,-118.8 177,-105 182.53,-102.72 188.43,-100.59 194.34,-98.65"/>
<polygon fill="midnightblue" stroke="midnightblue" points="195.71,-101.88 204.2,-95.55 193.61,-95.2 195.71,-101.88"/>
</g>
<!-- Node13 -->
<g id="node13" class="node">
<title>Node13</title>
<g id="a_node13"><a xlink:href="namespacematplotlibcpp.html#a93e96cce1779c757a9ac754639c80878" target="_top" xlink:title=" ">
<polygon fill="white" stroke="black" points="189.5,-38.5 189.5,-57.5 295.5,-57.5 295.5,-38.5 189.5,-38.5"/>
<text text-anchor="middle" x="242.5" y="-45.5" font-family="Helvetica,sans-Serif" font-size="10.00">matplotlibcpp::xlabel</text>
</a>
</g>
</g>
<!-- Node1&#45;&gt;Node13 -->
<g id="edge17" class="edge">
<title>Node1&#45;&gt;Node13</title>
<path fill="none" stroke="midnightblue" d="M79.47,-152.38C95.79,-133.3 135.05,-90.45 177,-67 180.95,-64.79 185.18,-62.82 189.51,-61.06"/>
<polygon fill="midnightblue" stroke="midnightblue" points="190.92,-64.27 199.1,-57.54 188.51,-57.7 190.92,-64.27"/>
</g>
<!-- Node14 -->
<g id="node14" class="node">
<title>Node14</title>
<g id="a_node14"><a xlink:href="namespacematplotlibcpp.html#adaa29542f05e1acb0850b7e4619a9359" target="_top" xlink:title=" ">
<polygon fill="white" stroke="black" points="189.5,-0.5 189.5,-19.5 295.5,-19.5 295.5,-0.5 189.5,-0.5"/>
<text text-anchor="middle" x="242.5" y="-7.5" font-family="Helvetica,sans-Serif" font-size="10.00">matplotlibcpp::ylabel</text>
</a>
</g>
</g>
<!-- Node1&#45;&gt;Node14 -->
<g id="edge18" class="edge">
<title>Node1&#45;&gt;Node14</title>
<path fill="none" stroke="midnightblue" d="M76.43,-152.29C89.39,-127.75 126.91,-62.78 177,-29 179.94,-27.01 183.1,-25.23 186.37,-23.63"/>
<polygon fill="midnightblue" stroke="midnightblue" points="188.02,-26.74 195.84,-19.6 185.27,-20.3 188.02,-26.74"/>
</g>
<!-- Node3 -->
<g id="node3" class="node">
<title>Node3</title>
<g id="a_node3"><a xlink:href="structmatplotlibcpp_1_1detail_1_1__interpreter.html#a3ddc4e50c23738307da3dc64c47cdbc0" target="_top" xlink:title=" ">
<polygon fill="white" stroke="black" points="344,-204 344,-234 448,-234 448,-204 344,-204"/>
<text text-anchor="start" x="352" y="-222" font-family="Helvetica,sans-Serif" font-size="10.00">matplotlibcpp::detail</text>
<text text-anchor="middle" x="396" y="-211" font-family="Helvetica,sans-Serif" font-size="10.00">::_interpreter::get</text>
</a>
</g>
</g>
<!-- Node2&#45;&gt;Node3 -->
<g id="edge2" class="edge">
<title>Node2&#45;&gt;Node3</title>
<path fill="none" stroke="midnightblue" d="M285.51,-304.49C293.23,-301.95 301.04,-298.82 308,-295 333.61,-280.93 358.25,-258.26 374.73,-241.34"/>
<polygon fill="midnightblue" stroke="midnightblue" points="377.33,-243.67 381.7,-234.02 372.27,-238.85 377.33,-243.67"/>
</g>
<!-- Node4 -->
<g id="node4" class="node">
<title>Node4</title>
<g id="a_node4"><a xlink:href="structmatplotlibcpp_1_1detail_1_1__interpreter.html#accf36ff8fd9f1bd757d028fa4a14be40" target="_top" xlink:title=" ">
<polygon fill="white" stroke="black" points="484,-204 484,-234 609,-234 609,-204 484,-204"/>
<text text-anchor="start" x="492" y="-222" font-family="Helvetica,sans-Serif" font-size="10.00">matplotlibcpp::detail</text>
<text text-anchor="middle" x="546.5" y="-211" font-family="Helvetica,sans-Serif" font-size="10.00">::_interpreter::interkeeper</text>
</a>
</g>
</g>
<!-- Node3&#45;&gt;Node4 -->
<g id="edge3" class="edge">
<title>Node3&#45;&gt;Node4</title>
<path fill="none" stroke="midnightblue" d="M448.11,-219C456.37,-219 465.05,-219 473.69,-219"/>
<polygon fill="midnightblue" stroke="midnightblue" points="473.79,-222.5 483.79,-219 473.79,-215.5 473.79,-222.5"/>
</g>
<!-- Node5 -->
<g id="node5" class="node">
<title>Node5</title>
<g id="a_node5"><a xlink:href="structmatplotlibcpp_1_1detail_1_1__interpreter.html#abd9d036f154de95f507d8be310569d20" target="_top" xlink:title=" ">
<polygon fill="white" stroke="black" points="645,-204 645,-234 777,-234 777,-204 645,-204"/>
<text text-anchor="start" x="653" y="-222" font-family="Helvetica,sans-Serif" font-size="10.00">matplotlibcpp::detail</text>
<text text-anchor="middle" x="711" y="-211" font-family="Helvetica,sans-Serif" font-size="10.00">::_interpreter::~_interpreter</text>
</a>
</g>
</g>
<!-- Node4&#45;&gt;Node5 -->
<g id="edge4" class="edge">
<title>Node4&#45;&gt;Node5</title>
<path fill="none" stroke="midnightblue" d="M609.4,-219C617.62,-219 626.13,-219 634.55,-219"/>
<polygon fill="midnightblue" stroke="midnightblue" points="634.76,-222.5 644.76,-219 634.76,-215.5 634.76,-222.5"/>
</g>
<!-- Node6&#45;&gt;Node3 -->
<g id="edge6" class="edge">
<title>Node6&#45;&gt;Node3</title>
<path fill="none" stroke="midnightblue" d="M278.91,-266.44C288.43,-263.63 298.68,-260.39 308,-257 323.25,-251.45 339.63,-244.55 354.02,-238.16"/>
<polygon fill="midnightblue" stroke="midnightblue" points="355.48,-241.34 363.16,-234.05 352.61,-234.96 355.48,-241.34"/>
</g>
<!-- Node7&#45;&gt;Node3 -->
<g id="edge8" class="edge">
<title>Node7&#45;&gt;Node3</title>
<path fill="none" stroke="midnightblue" d="M285.51,-133.51C293.23,-136.05 301.04,-139.18 308,-143 333.61,-157.07 358.25,-179.74 374.73,-196.66"/>
<polygon fill="midnightblue" stroke="midnightblue" points="372.27,-199.15 381.7,-203.98 377.33,-194.33 372.27,-199.15"/>
</g>
<!-- Node8 -->
<g id="node8" class="node">
<title>Node8</title>
<g id="a_node8"><a xlink:href="namespacematplotlibcpp_1_1detail.html#a9bcca44556cf0ddbbf147a423d9a9496" target="_top" xlink:title=" ">
<polygon fill="white" stroke="black" points="344,-109 344,-139 448,-139 448,-109 344,-109"/>
<text text-anchor="start" x="352" y="-127" font-family="Helvetica,sans-Serif" font-size="10.00">matplotlibcpp::detail</text>
<text text-anchor="middle" x="396" y="-116" font-family="Helvetica,sans-Serif" font-size="10.00">::get_array</text>
</a>
</g>
</g>
<!-- Node7&#45;&gt;Node8 -->
<g id="edge9" class="edge">
<title>Node7&#45;&gt;Node8</title>
<path fill="none" stroke="midnightblue" d="M308.19,-124C316.65,-124 325.3,-124 333.71,-124"/>
<polygon fill="midnightblue" stroke="midnightblue" points="333.8,-127.5 343.8,-124 333.8,-120.5 333.8,-127.5"/>
</g>
<!-- Node9&#45;&gt;Node3 -->
<g id="edge11" class="edge">
<title>Node9&#45;&gt;Node3</title>
<path fill="none" stroke="midnightblue" d="M296.06,-231.41C308.15,-229.89 321.1,-228.27 333.53,-226.71"/>
<polygon fill="midnightblue" stroke="midnightblue" points="334.32,-230.14 343.81,-225.42 333.45,-223.19 334.32,-230.14"/>
</g>
<!-- Node10&#45;&gt;Node3 -->
<g id="edge13" class="edge">
<title>Node10&#45;&gt;Node3</title>
<path fill="none" stroke="midnightblue" d="M294.79,-206.43C307.25,-208 320.71,-209.68 333.59,-211.3"/>
<polygon fill="midnightblue" stroke="midnightblue" points="333.4,-214.8 343.76,-212.57 334.28,-207.86 333.4,-214.8"/>
</g>
<!-- Node11&#45;&gt;Node3 -->
<g id="edge15" class="edge">
<title>Node11&#45;&gt;Node3</title>
<path fill="none" stroke="midnightblue" d="M278.91,-171.56C288.43,-174.37 298.68,-177.61 308,-181 323.25,-186.55 339.63,-193.45 354.02,-199.84"/>
<polygon fill="midnightblue" stroke="midnightblue" points="352.61,-203.04 363.16,-203.95 355.48,-196.66 352.61,-203.04"/>
</g>
</g>
</svg>
        <g id="navigator" transform="translate(0 0)" fill="#404254">
                <rect fill="#f2f5e9" fill-opacity="0.5" stroke="#606060" stroke-width=".5" x="0" y="0" width="60" height="60"/>
                <use id="zoomplus" xlink:href="#zoomPlus" x="17" y="9" onmousedown="handleZoom(evt,'in')"/>
                <use id="zoomminus" xlink:href="#zoomMin" x="42" y="9" onmousedown="handleZoom(evt,'out')"/>
                <use id="reset" xlink:href="#resetDef" x="30" y="36" onmousedown="handleReset()"/>
                <g id="arrowUp" xlink:href="#dirArrow" transform="translate(30 24)" onmousedown="handlePan(0,-1)">
                  <use xlink:href="#rim" fill="#404040">
                        <set attributeName="fill" to="#808080" begin="arrowUp.mouseover" end="arrowUp.mouseout"/>
                  </use>
                  <path fill="none" stroke="white" stroke-width="1.5" d="M0,-3.0v7 M-2.5,-0.5L0,-3.0L2.5,-0.5"/>
                </g>
                <g id="arrowRight" xlink:href="#dirArrow" transform="rotate(90) translate(36 -43)" onmousedown="handlePan(1,0)">
                  <use xlink:href="#rim" fill="#404040">
                        <set attributeName="fill" to="#808080" begin="arrowRight.mouseover" end="arrowRight.mouseout"/>
                  </use>
                  <path fill="none" stroke="white" stroke-width="1.5" d="M0,-3.0v7 M-2.5,-0.5L0,-3.0L2.5,-0.5"/>
                </g>
                <g id="arrowDown" xlink:href="#dirArrow" transform="rotate(180) translate(-30 -48)" onmousedown="handlePan(0,1)">
                  <use xlink:href="#rim" fill="#404040">
                        <set attributeName="fill" to="#808080" begin="arrowDown.mouseover" end="arrowDown.mouseout"/>
                  </use>
                  <path fill="none" stroke="white" stroke-width="1.5" d="M0,-3.0v7 M-2.5,-0.5L0,-3.0L2.5,-0.5"/>
                </g>
                <g id="arrowLeft" xlink:href="#dirArrow" transform="rotate(270) translate(-36 17)" onmousedown="handlePan(-1,0)">
                  <use xlink:href="#rim" fill="#404040">
                        <set attributeName="fill" to="#808080" begin="arrowLeft.mouseover" end="arrowLeft.mouseout"/>
                  </use>
                  <path fill="none" stroke="white" stroke-width="1.5" d="M0,-3.0v7 M-2.5,-0.5L0,-3.0L2.5,-0.5"/>
                </g>
        </g>
        <svg viewBox="0 0 15 15" width="100%" height="30px" preserveAspectRatio="xMaxYMin meet">
         <g id="arrow_out" transform="scale(0.3 0.3)">
          <a xlink:href="classplot_master_a31c67a01be59bdb9ebf3bf86bf93bf32_cgraph_org.svg" target="_base">
           <rect id="button" ry="5" rx="5" y="6" x="6" height="38" width="38"
                fill="#f2f5e9" fill-opacity="0.5" stroke="#606060" stroke-width="1.0"/>
           <path id="arrow"
             d="M 11.500037,31.436501 C 11.940474,20.09759 22.043105,11.32322 32.158766,21.979434 L 37.068811,17.246167 C 37.068811,17.246167 37.088388,32 37.088388,32 L 22.160133,31.978069 C 22.160133,31.978069 26.997745,27.140456 26.997745,27.140456 C 18.528582,18.264221 13.291696,25.230495 11.500037,31.436501 z"
             style="fill:#404040;"/>
          </a>
         </g>
        </svg>
</svg>
