<?xml version="1.0" encoding="UTF-8" standalone="no"?>
<!DOCTYPE svg PUBLIC "-//W3C//DTD SVG 1.1//EN"
 "http://www.w3.org/Graphics/SVG/1.1/DTD/svg11.dtd">
<!-- Generated by graphviz version 2.43.0 (0)
 -->
<!-- Title: mastersclient::doProcessJointData Pages: 1 -->
<svg width="321pt" height="116pt"
 viewBox="0.00 0.00 321.00 116.00" xmlns="http://www.w3.org/2000/svg" xmlns:xlink="http://www.w3.org/1999/xlink">
<g id="graph0" class="graph" transform="scale(1 1) rotate(0) translate(4 112)">
<title>mastersclient::doProcessJointData</title>
<polygon fill="white" stroke="transparent" points="-4,4 -4,-112 317,-112 317,4 -4,4"/>
<!-- Node1 -->
<g id="node1" class="node">
<title>Node1</title>
<g id="a_node1"><a xlink:title="Process joint data, set joint positions and velocities in the robot model.">
<polygon fill="#bfbfbf" stroke="black" points="0,-39 0,-69 128,-69 128,-39 0,-39"/>
<text text-anchor="start" x="8" y="-57" font-family="Helvetica,sans-Serif" font-size="10.00">mastersclient::doProcess</text>
<text text-anchor="middle" x="64" y="-46" font-family="Helvetica,sans-Serif" font-size="10.00">JointData</text>
</a>
</g>
</g>
<!-- Node2 -->
<g id="node2" class="node">
<title>Node2</title>
<g id="a_node2"><a xlink:href="classrobot_model.html#a6d79eb6c55649f2a88517e4a9e960278" target="_top" xlink:title="This method is responsible for retrieving and printing the transformation of the end&#45;effector....">
<polygon fill="white" stroke="black" points="164,-88.5 164,-107.5 313,-107.5 313,-88.5 164,-88.5"/>
<text text-anchor="middle" x="238.5" y="-95.5" font-family="Helvetica,sans-Serif" font-size="10.00">robotModel::getTransformation</text>
</a>
</g>
</g>
<!-- Node1&#45;&gt;Node2 -->
<g id="edge1" class="edge">
<title>Node1&#45;&gt;Node2</title>
<path fill="none" stroke="midnightblue" d="M123.88,-69.02C145.61,-74.56 169.91,-80.76 190.45,-86"/>
<polygon fill="midnightblue" stroke="midnightblue" points="189.65,-89.41 200.21,-88.49 191.38,-82.62 189.65,-89.41"/>
</g>
<!-- Node3 -->
<g id="node3" class="node">
<title>Node3</title>
<g id="a_node3"><a xlink:href="classrobot_model.html#a8741821f3b9995b0bd2647e643d4afe2" target="_top" xlink:title="This method is responsible for updating the forward kinematics of the robot. Forward kinematics invol...">
<polygon fill="white" stroke="black" points="169,-39 169,-69 308,-69 308,-39 169,-39"/>
<text text-anchor="start" x="177" y="-57" font-family="Helvetica,sans-Serif" font-size="10.00">robotModel::performForward</text>
<text text-anchor="middle" x="238.5" y="-46" font-family="Helvetica,sans-Serif" font-size="10.00">Kinematics</text>
</a>
</g>
</g>
<!-- Node1&#45;&gt;Node3 -->
<g id="edge2" class="edge">
<title>Node1&#45;&gt;Node3</title>
<path fill="none" stroke="midnightblue" d="M128.25,-54C138.13,-54 148.45,-54 158.62,-54"/>
<polygon fill="midnightblue" stroke="midnightblue" points="158.73,-57.5 168.73,-54 158.73,-50.5 158.73,-57.5"/>
</g>
<!-- Node4 -->
<g id="node4" class="node">
<title>Node4</title>
<g id="a_node4"><a xlink:href="classrobot_model.html#a08fc87648e1634ba61fcff546da0880a" target="_top" xlink:title=" ">
<polygon fill="white" stroke="black" points="192.5,-0.5 192.5,-19.5 284.5,-19.5 284.5,-0.5 192.5,-0.5"/>
<text text-anchor="middle" x="238.5" y="-7.5" font-family="Helvetica,sans-Serif" font-size="10.00">robotModel::setQ</text>
</a>
</g>
</g>
<!-- Node1&#45;&gt;Node4 -->
<g id="edge3" class="edge">
<title>Node1&#45;&gt;Node4</title>
<path fill="none" stroke="midnightblue" d="M123.88,-38.98C145.61,-33.44 169.91,-27.24 190.45,-22"/>
<polygon fill="midnightblue" stroke="midnightblue" points="191.38,-25.38 200.21,-19.51 189.65,-18.59 191.38,-25.38"/>
</g>
</g>
</svg>
