<?xml version="1.0" encoding="UTF-8" standalone="no"?>
<!DOCTYPE svg PUBLIC "-//W3C//DTD SVG 1.1//EN"
 "http://www.w3.org/Graphics/SVG/1.1/DTD/svg11.dtd">
<!-- Generated by graphviz version 2.43.0 (0)
 -->
<!-- Title: mastersclient::monitor Pages: 1 -->
<svg width="1125pt" height="534pt"
 viewBox="0.00 0.00 1125.00 534.00" xmlns="http://www.w3.org/2000/svg" xmlns:xlink="http://www.w3.org/1999/xlink">
<g id="graph0" class="graph" transform="scale(1 1) rotate(0) translate(4 530)">
<title>mastersclient::monitor</title>
<polygon fill="white" stroke="transparent" points="-4,4 -4,-530 1121,-530 1121,4 -4,4"/>
<!-- Node1 -->
<g id="node1" class="node">
<title>Node1</title>
<g id="a_node1"><a xlink:title="Callback for the FRI session states &#39;Monitoring Wait&#39; and &#39;Monitoring Ready&#39;.">
<polygon fill="#bfbfbf" stroke="black" points="0,-388.5 0,-407.5 113,-407.5 113,-388.5 0,-388.5"/>
<text text-anchor="middle" x="56.5" y="-395.5" font-family="Helvetica,sans-Serif" font-size="10.00">mastersclient::monitor</text>
</a>
</g>
</g>
<!-- Node2 -->
<g id="node2" class="node">
<title>Node2</title>
<g id="a_node2"><a xlink:href="classrobot_model.html#a1a92e57456ef8f44e8ac04e747641133" target="_top" xlink:title=" ">
<polygon fill="white" stroke="black" points="149,-457 149,-487 286,-487 286,-457 149,-457"/>
<text text-anchor="start" x="157" y="-475" font-family="Helvetica,sans-Serif" font-size="10.00">robotModel::cartesianRobot</text>
<text text-anchor="middle" x="217.5" y="-464" font-family="Helvetica,sans-Serif" font-size="10.00">DistanceToObject</text>
</a>
</g>
</g>
<!-- Node1&#45;&gt;Node2 -->
<g id="edge1" class="edge">
<title>Node1&#45;&gt;Node2</title>
<path fill="none" stroke="midnightblue" d="M73.31,-407.64C91.24,-418.34 121.57,-435.72 149,-448 153.07,-449.82 157.32,-451.6 161.63,-453.32"/>
<polygon fill="midnightblue" stroke="midnightblue" points="160.5,-456.64 171.09,-456.97 163.02,-450.1 160.5,-456.64"/>
</g>
<!-- Node3 -->
<g id="node3" class="node">
<title>Node3</title>
<g id="a_node3"><a xlink:href="classmastersclient.html#a171d575864d9fa65755b2e4ce2cb0513" target="_top" xlink:title="Perform position and velocity calculations.">
<polygon fill="white" stroke="black" points="154,-408 154,-438 281,-438 281,-408 154,-408"/>
<text text-anchor="start" x="162" y="-426" font-family="Helvetica,sans-Serif" font-size="10.00">mastersclient::doPosition</text>
<text text-anchor="middle" x="217.5" y="-415" font-family="Helvetica,sans-Serif" font-size="10.00">AndVelocity</text>
</a>
</g>
</g>
<!-- Node1&#45;&gt;Node3 -->
<g id="edge2" class="edge">
<title>Node1&#45;&gt;Node3</title>
<path fill="none" stroke="midnightblue" d="M113.11,-406.74C122.98,-408.3 133.4,-409.93 143.66,-411.55"/>
<polygon fill="midnightblue" stroke="midnightblue" points="143.43,-415.05 153.86,-413.15 144.52,-408.14 143.43,-415.05"/>
</g>
<!-- Node11 -->
<g id="node11" class="node">
<title>Node11</title>
<g id="a_node11"><a xlink:href="classmastersclient.html#a45555dfe6add1c3995667b14541c9139" target="_top" xlink:title="Get the current timestamp and check for timestamp errors.">
<polygon fill="white" stroke="black" points="154,-359 154,-389 281,-389 281,-359 154,-359"/>
<text text-anchor="start" x="162" y="-377" font-family="Helvetica,sans-Serif" font-size="10.00">mastersclient::getCurrent</text>
<text text-anchor="middle" x="217.5" y="-366" font-family="Helvetica,sans-Serif" font-size="10.00">Timestamp</text>
</a>
</g>
</g>
<!-- Node1&#45;&gt;Node11 -->
<g id="edge10" class="edge">
<title>Node1&#45;&gt;Node11</title>
<path fill="none" stroke="midnightblue" d="M113.11,-389.61C122.98,-388.12 133.4,-386.54 143.66,-384.99"/>
<polygon fill="midnightblue" stroke="midnightblue" points="144.49,-388.41 153.86,-383.46 143.44,-381.49 144.49,-388.41"/>
</g>
<!-- Node12 -->
<g id="node12" class="node">
<title>Node12</title>
<g id="a_node12"><a xlink:href="classmastersclient.html#a67ce0ffe6f714613edecda218bb84055" target="_top" xlink:title="Plot velocity histories if enabled.">
<polygon fill="white" stroke="black" points="151.5,-248 151.5,-278 283.5,-278 283.5,-248 151.5,-248"/>
<text text-anchor="start" x="159.5" y="-266" font-family="Helvetica,sans-Serif" font-size="10.00">mastersclient::plotVelocity</text>
<text text-anchor="middle" x="217.5" y="-255" font-family="Helvetica,sans-Serif" font-size="10.00">Histories</text>
</a>
</g>
</g>
<!-- Node1&#45;&gt;Node12 -->
<g id="edge11" class="edge">
<title>Node1&#45;&gt;Node12</title>
<path fill="none" stroke="midnightblue" d="M68.93,-388.29C94.31,-366.74 155.87,-314.48 190.94,-284.71"/>
<polygon fill="midnightblue" stroke="midnightblue" points="193.47,-287.15 198.83,-278.01 188.94,-281.81 193.47,-287.15"/>
</g>
<!-- Node4 -->
<g id="node4" class="node">
<title>Node4</title>
<g id="a_node4"><a xlink:href="classplot_master.html#ad2f26d2c1dcc762f9e6dbe596da22e2d" target="_top" xlink:title=" ">
<polygon fill="white" stroke="black" points="322.5,-506.5 322.5,-525.5 462.5,-525.5 462.5,-506.5 322.5,-506.5"/>
<text text-anchor="middle" x="392.5" y="-513.5" font-family="Helvetica,sans-Serif" font-size="10.00">plotMaster::addVelocityData</text>
</a>
</g>
</g>
<!-- Node3&#45;&gt;Node4 -->
<g id="edge3" class="edge">
<title>Node3&#45;&gt;Node4</title>
<path fill="none" stroke="midnightblue" d="M269.24,-438.04C275.17,-440.86 280.91,-444.16 286,-448 307.58,-464.27 299.73,-481.7 322,-497 324.92,-499.01 328.05,-500.81 331.31,-502.41"/>
<polygon fill="midnightblue" stroke="midnightblue" points="330.16,-505.73 340.73,-506.46 332.92,-499.3 330.16,-505.73"/>
</g>
<!-- Node5 -->
<g id="node5" class="node">
<title>Node5</title>
<g id="a_node5"><a xlink:href="classmastersclient.html#a357664506b2c550cf7edaed6a8fd31a2" target="_top" xlink:title="Calculate joint velocity using multi&#45;sided differencing.">
<polygon fill="white" stroke="black" points="332.5,-457 332.5,-487 452.5,-487 452.5,-457 332.5,-457"/>
<text text-anchor="start" x="340.5" y="-475" font-family="Helvetica,sans-Serif" font-size="10.00">mastersclient::calculate</text>
<text text-anchor="middle" x="392.5" y="-464" font-family="Helvetica,sans-Serif" font-size="10.00">JointVelocityMultiSided</text>
</a>
</g>
</g>
<!-- Node3&#45;&gt;Node5 -->
<g id="edge4" class="edge">
<title>Node3&#45;&gt;Node5</title>
<path fill="none" stroke="midnightblue" d="M271.82,-438.1C289.74,-443.18 309.91,-448.89 328.51,-454.16"/>
<polygon fill="midnightblue" stroke="midnightblue" points="327.78,-457.59 338.36,-456.95 329.69,-450.86 327.78,-457.59"/>
</g>
<!-- Node6 -->
<g id="node6" class="node">
<title>Node6</title>
<g id="a_node6"><a xlink:href="classmastersclient.html#af38ef9a717f7cec043278ce59ed51c9d" target="_top" xlink:title="Calculate joint velocity using one&#45;sided differencing.">
<polygon fill="white" stroke="black" points="332.5,-408 332.5,-438 452.5,-438 452.5,-408 332.5,-408"/>
<text text-anchor="start" x="340.5" y="-426" font-family="Helvetica,sans-Serif" font-size="10.00">mastersclient::calculate</text>
<text text-anchor="middle" x="392.5" y="-415" font-family="Helvetica,sans-Serif" font-size="10.00">JointVelocityOneSided</text>
</a>
</g>
</g>
<!-- Node3&#45;&gt;Node6 -->
<g id="edge5" class="edge">
<title>Node3&#45;&gt;Node6</title>
<path fill="none" stroke="midnightblue" d="M281.45,-423C294.69,-423 308.73,-423 322.19,-423"/>
<polygon fill="midnightblue" stroke="midnightblue" points="322.35,-426.5 332.35,-423 322.35,-419.5 322.35,-426.5"/>
</g>
<!-- Node7 -->
<g id="node7" class="node">
<title>Node7</title>
<g id="a_node7"><a xlink:href="classmastersclient.html#a52c4a444e2e7d8485dc5dfc711f49cb1" target="_top" xlink:title="Process joint data, set joint positions and velocities in the robot model.">
<polygon fill="white" stroke="black" points="328.5,-359 328.5,-389 456.5,-389 456.5,-359 328.5,-359"/>
<text text-anchor="start" x="336.5" y="-377" font-family="Helvetica,sans-Serif" font-size="10.00">mastersclient::doProcess</text>
<text text-anchor="middle" x="392.5" y="-366" font-family="Helvetica,sans-Serif" font-size="10.00">JointData</text>
</a>
</g>
</g>
<!-- Node3&#45;&gt;Node7 -->
<g id="edge6" class="edge">
<title>Node3&#45;&gt;Node7</title>
<path fill="none" stroke="midnightblue" d="M271.82,-407.9C289.74,-402.82 309.91,-397.11 328.51,-391.84"/>
<polygon fill="midnightblue" stroke="midnightblue" points="329.69,-395.14 338.36,-389.05 327.78,-388.41 329.69,-395.14"/>
</g>
<!-- Node8 -->
<g id="node8" class="node">
<title>Node8</title>
<g id="a_node8"><a xlink:href="classrobot_model.html#a6d79eb6c55649f2a88517e4a9e960278" target="_top" xlink:title="This method is responsible for retrieving and printing the transformation of the end&#45;effector....">
<polygon fill="white" stroke="black" points="499,-430.5 499,-449.5 648,-449.5 648,-430.5 499,-430.5"/>
<text text-anchor="middle" x="573.5" y="-437.5" font-family="Helvetica,sans-Serif" font-size="10.00">robotModel::getTransformation</text>
</a>
</g>
</g>
<!-- Node7&#45;&gt;Node8 -->
<g id="edge7" class="edge">
<title>Node7&#45;&gt;Node8</title>
<path fill="none" stroke="midnightblue" d="M439.65,-389.11C447.56,-392.12 455.6,-395.45 463,-399 479.91,-407.1 481.73,-413.68 499,-421 504.73,-423.43 510.86,-425.61 517.03,-427.55"/>
<polygon fill="midnightblue" stroke="midnightblue" points="516.13,-430.93 526.71,-430.4 518.11,-424.22 516.13,-430.93"/>
</g>
<!-- Node9 -->
<g id="node9" class="node">
<title>Node9</title>
<g id="a_node9"><a xlink:href="classrobot_model.html#a8741821f3b9995b0bd2647e643d4afe2" target="_top" xlink:title="This method is responsible for updating the forward kinematics of the robot. Forward kinematics invol...">
<polygon fill="white" stroke="black" points="504,-381 504,-411 643,-411 643,-381 504,-381"/>
<text text-anchor="start" x="512" y="-399" font-family="Helvetica,sans-Serif" font-size="10.00">robotModel::performForward</text>
<text text-anchor="middle" x="573.5" y="-388" font-family="Helvetica,sans-Serif" font-size="10.00">Kinematics</text>
</a>
</g>
</g>
<!-- Node7&#45;&gt;Node9 -->
<g id="edge8" class="edge">
<title>Node7&#45;&gt;Node9</title>
<path fill="none" stroke="midnightblue" d="M456.61,-381.76C468.68,-383.24 481.46,-384.81 493.94,-386.35"/>
<polygon fill="midnightblue" stroke="midnightblue" points="493.53,-389.82 503.88,-387.57 494.38,-382.87 493.53,-389.82"/>
</g>
<!-- Node10 -->
<g id="node10" class="node">
<title>Node10</title>
<g id="a_node10"><a xlink:href="classrobot_model.html#a08fc87648e1634ba61fcff546da0880a" target="_top" xlink:title=" ">
<polygon fill="white" stroke="black" points="527.5,-342.5 527.5,-361.5 619.5,-361.5 619.5,-342.5 527.5,-342.5"/>
<text text-anchor="middle" x="573.5" y="-349.5" font-family="Helvetica,sans-Serif" font-size="10.00">robotModel::setQ</text>
</a>
</g>
</g>
<!-- Node7&#45;&gt;Node10 -->
<g id="edge9" class="edge">
<title>Node7&#45;&gt;Node10</title>
<path fill="none" stroke="midnightblue" d="M456.61,-366.24C476.4,-363.81 498.09,-361.15 517.29,-358.79"/>
<polygon fill="midnightblue" stroke="midnightblue" points="517.88,-362.24 527.38,-357.55 517.03,-355.29 517.88,-362.24"/>
</g>
<!-- Node13 -->
<g id="node13" class="node">
<title>Node13</title>
<g id="a_node13"><a xlink:href="classplot_master.html#a8f82bb73ecf8b47ef9fdb53b50fded08" target="_top" xlink:title=" ">
<polygon fill="white" stroke="black" points="337.5,-272.5 337.5,-291.5 447.5,-291.5 447.5,-272.5 337.5,-272.5"/>
<text text-anchor="middle" x="392.5" y="-279.5" font-family="Helvetica,sans-Serif" font-size="10.00">plotMaster::clearData</text>
</a>
</g>
</g>
<!-- Node12&#45;&gt;Node13 -->
<g id="edge12" class="edge">
<title>Node12&#45;&gt;Node13</title>
<path fill="none" stroke="midnightblue" d="M283.9,-270.18C298.07,-271.74 313.04,-273.38 327.17,-274.93"/>
<polygon fill="midnightblue" stroke="midnightblue" points="326.96,-278.43 337.28,-276.05 327.72,-271.47 326.96,-278.43"/>
</g>
<!-- Node14 -->
<g id="node14" class="node">
<title>Node14</title>
<g id="a_node14"><a xlink:href="classplot_master.html#ac81e23afe9bc69d1731d8688f56c54cc" target="_top" xlink:title=" ">
<polygon fill="white" stroke="black" points="333,-234.5 333,-253.5 452,-253.5 452,-234.5 333,-234.5"/>
<text text-anchor="middle" x="392.5" y="-241.5" font-family="Helvetica,sans-Serif" font-size="10.00">plotMaster::getHistSize</text>
</a>
</g>
</g>
<!-- Node12&#45;&gt;Node14 -->
<g id="edge13" class="edge">
<title>Node12&#45;&gt;Node14</title>
<path fill="none" stroke="midnightblue" d="M283.9,-255.82C296.59,-254.42 309.92,-252.96 322.71,-251.56"/>
<polygon fill="midnightblue" stroke="midnightblue" points="323.27,-255.01 332.82,-250.44 322.5,-248.06 323.27,-255.01"/>
</g>
<!-- Node15 -->
<g id="node15" class="node">
<title>Node15</title>
<g id="a_node15"><a xlink:href="classplot_master.html#a31c67a01be59bdb9ebf3bf86bf93bf32" target="_top" xlink:title=" ">
<polygon fill="white" stroke="black" points="322,-171.5 322,-190.5 463,-190.5 463,-171.5 322,-171.5"/>
<text text-anchor="middle" x="392.5" y="-178.5" font-family="Helvetica,sans-Serif" font-size="10.00">plotMaster::plotLiveFirstAxis</text>
</a>
</g>
</g>
<!-- Node12&#45;&gt;Node15 -->
<g id="edge14" class="edge">
<title>Node12&#45;&gt;Node15</title>
<path fill="none" stroke="midnightblue" d="M250.23,-247.96C282.09,-232.86 330.8,-209.77 361.89,-195.03"/>
<polygon fill="midnightblue" stroke="midnightblue" points="363.78,-198.01 371.32,-190.56 360.79,-191.68 363.78,-198.01"/>
</g>
<!-- Node16 -->
<g id="node16" class="node">
<title>Node16</title>
<g id="a_node16"><a xlink:href="namespacematplotlibcpp.html#adea4113b0ff7f393e18f1a99eb7e1718" target="_top" xlink:title=" ">
<polygon fill="white" stroke="black" points="528,-304.5 528,-323.5 619,-323.5 619,-304.5 528,-304.5"/>
<text text-anchor="middle" x="573.5" y="-311.5" font-family="Helvetica,sans-Serif" font-size="10.00">matplotlibcpp::clf</text>
</a>
</g>
</g>
<!-- Node15&#45;&gt;Node16 -->
<g id="edge15" class="edge">
<title>Node15&#45;&gt;Node16</title>
<path fill="none" stroke="midnightblue" d="M414.43,-190.5C429.43,-198.13 449.32,-210.03 463,-225 486.61,-250.82 471.67,-273.16 499,-295 504.66,-299.53 511.28,-302.98 518.19,-305.63"/>
<polygon fill="midnightblue" stroke="midnightblue" points="517.13,-308.96 527.73,-308.74 519.31,-302.31 517.13,-308.96"/>
</g>
<!-- Node20 -->
<g id="node20" class="node">
<title>Node20</title>
<g id="a_node20"><a xlink:href="namespacematplotlibcpp.html#a916bb5a9dc5f6a24877cc027bf4ee624" target="_top" xlink:title=" ">
<polygon fill="white" stroke="black" points="519,-266.5 519,-285.5 628,-285.5 628,-266.5 519,-266.5"/>
<text text-anchor="middle" x="573.5" y="-273.5" font-family="Helvetica,sans-Serif" font-size="10.00">matplotlibcpp::legend</text>
</a>
</g>
</g>
<!-- Node15&#45;&gt;Node20 -->
<g id="edge19" class="edge">
<title>Node15&#45;&gt;Node20</title>
<path fill="none" stroke="midnightblue" d="M410.29,-190.59C424.69,-199.05 445.77,-212.03 463,-225 480.1,-237.88 480.11,-246.93 499,-257 503.28,-259.28 507.85,-261.3 512.54,-263.09"/>
<polygon fill="midnightblue" stroke="midnightblue" points="511.67,-266.49 522.27,-266.43 513.95,-259.87 511.67,-266.49"/>
</g>
<!-- Node21 -->
<g id="node21" class="node">
<title>Node21</title>
<g id="a_node21"><a xlink:href="namespacematplotlibcpp.html#a6461c03041d9947a0e3b3593b5b72c95" target="_top" xlink:title=" ">
<polygon fill="white" stroke="black" points="508,-114.5 508,-133.5 639,-133.5 639,-114.5 508,-114.5"/>
<text text-anchor="middle" x="573.5" y="-121.5" font-family="Helvetica,sans-Serif" font-size="10.00">matplotlibcpp::named_plot</text>
</a>
</g>
</g>
<!-- Node15&#45;&gt;Node21 -->
<g id="edge21" class="edge">
<title>Node15&#45;&gt;Node21</title>
<path fill="none" stroke="midnightblue" d="M418.01,-171.44C439.25,-163.33 470.91,-151.67 499,-143 506.7,-140.62 514.91,-138.3 522.96,-136.14"/>
<polygon fill="midnightblue" stroke="midnightblue" points="523.86,-139.52 532.64,-133.59 522.08,-132.75 523.86,-139.52"/>
</g>
<!-- Node23 -->
<g id="node23" class="node">
<title>Node23</title>
<g id="a_node23"><a xlink:href="namespacematplotlibcpp.html#aa5bc4092c9e2acbb2c6ec4efd024cf2f" target="_top" xlink:title=" ">
<polygon fill="white" stroke="black" points="520,-228.5 520,-247.5 627,-247.5 627,-228.5 520,-228.5"/>
<text text-anchor="middle" x="573.5" y="-235.5" font-family="Helvetica,sans-Serif" font-size="10.00">matplotlibcpp::pause</text>
</a>
</g>
</g>
<!-- Node15&#45;&gt;Node23 -->
<g id="edge24" class="edge">
<title>Node15&#45;&gt;Node23</title>
<path fill="none" stroke="midnightblue" d="M418.01,-190.56C439.25,-198.67 470.91,-210.33 499,-219 506.7,-221.38 514.91,-223.7 522.96,-225.86"/>
<polygon fill="midnightblue" stroke="midnightblue" points="522.08,-229.25 532.64,-228.41 523.86,-222.48 522.08,-229.25"/>
</g>
<!-- Node24 -->
<g id="node24" class="node">
<title>Node24</title>
<g id="a_node24"><a xlink:href="namespacematplotlibcpp.html#ac7b2ae71a81811dfb69bcef95ee8390d" target="_top" xlink:title=" ">
<polygon fill="white" stroke="black" points="521.5,-190.5 521.5,-209.5 625.5,-209.5 625.5,-190.5 521.5,-190.5"/>
<text text-anchor="middle" x="573.5" y="-197.5" font-family="Helvetica,sans-Serif" font-size="10.00">matplotlibcpp::show</text>
</a>
</g>
</g>
<!-- Node15&#45;&gt;Node24 -->
<g id="edge26" class="edge">
<title>Node15&#45;&gt;Node24</title>
<path fill="none" stroke="midnightblue" d="M463.22,-188.4C479.08,-190.08 495.82,-191.86 511.3,-193.5"/>
<polygon fill="midnightblue" stroke="midnightblue" points="510.95,-196.99 521.26,-194.56 511.69,-190.03 510.95,-196.99"/>
</g>
<!-- Node25 -->
<g id="node25" class="node">
<title>Node25</title>
<g id="a_node25"><a xlink:href="namespacematplotlibcpp.html#a78f4b6d50e52d1782d52df692232f4e1" target="_top" xlink:title=" ">
<polygon fill="white" stroke="black" points="517.5,-152.5 517.5,-171.5 629.5,-171.5 629.5,-152.5 517.5,-152.5"/>
<text text-anchor="middle" x="573.5" y="-159.5" font-family="Helvetica,sans-Serif" font-size="10.00">matplotlibcpp::subplot</text>
</a>
</g>
</g>
<!-- Node15&#45;&gt;Node25 -->
<g id="edge28" class="edge">
<title>Node15&#45;&gt;Node25</title>
<path fill="none" stroke="midnightblue" d="M463.22,-173.6C477.67,-172.07 492.85,-170.45 507.15,-168.94"/>
<polygon fill="midnightblue" stroke="midnightblue" points="507.8,-172.39 517.37,-167.85 507.06,-165.43 507.8,-172.39"/>
</g>
<!-- Node26 -->
<g id="node26" class="node">
<title>Node26</title>
<g id="a_node26"><a xlink:href="namespacematplotlibcpp.html#a6de552522cdfa4d42e1ab11364f34a18" target="_top" xlink:title=" ">
<polygon fill="white" stroke="black" points="525.5,-76.5 525.5,-95.5 621.5,-95.5 621.5,-76.5 525.5,-76.5"/>
<text text-anchor="middle" x="573.5" y="-83.5" font-family="Helvetica,sans-Serif" font-size="10.00">matplotlibcpp::title</text>
</a>
</g>
</g>
<!-- Node15&#45;&gt;Node26 -->
<g id="edge30" class="edge">
<title>Node15&#45;&gt;Node26</title>
<path fill="none" stroke="midnightblue" d="M404.03,-171.32C422.11,-155.22 460.78,-122.93 499,-105 504.27,-102.53 509.92,-100.34 515.65,-98.42"/>
<polygon fill="midnightblue" stroke="midnightblue" points="516.8,-101.72 525.32,-95.42 514.73,-95.04 516.8,-101.72"/>
</g>
<!-- Node27 -->
<g id="node27" class="node">
<title>Node27</title>
<g id="a_node27"><a xlink:href="namespacematplotlibcpp.html#a93e96cce1779c757a9ac754639c80878" target="_top" xlink:title=" ">
<polygon fill="white" stroke="black" points="520.5,-38.5 520.5,-57.5 626.5,-57.5 626.5,-38.5 520.5,-38.5"/>
<text text-anchor="middle" x="573.5" y="-45.5" font-family="Helvetica,sans-Serif" font-size="10.00">matplotlibcpp::xlabel</text>
</a>
</g>
</g>
<!-- Node15&#45;&gt;Node27 -->
<g id="edge31" class="edge">
<title>Node15&#45;&gt;Node27</title>
<path fill="none" stroke="midnightblue" d="M399.57,-171.32C413.97,-149.22 452.47,-94.8 499,-67 502.69,-64.79 506.64,-62.84 510.71,-61.12"/>
<polygon fill="midnightblue" stroke="midnightblue" points="512.26,-64.27 520.39,-57.48 509.79,-57.72 512.26,-64.27"/>
</g>
<!-- Node28 -->
<g id="node28" class="node">
<title>Node28</title>
<g id="a_node28"><a xlink:href="namespacematplotlibcpp.html#adaa29542f05e1acb0850b7e4619a9359" target="_top" xlink:title=" ">
<polygon fill="white" stroke="black" points="520.5,-0.5 520.5,-19.5 626.5,-19.5 626.5,-0.5 520.5,-0.5"/>
<text text-anchor="middle" x="573.5" y="-7.5" font-family="Helvetica,sans-Serif" font-size="10.00">matplotlibcpp::ylabel</text>
</a>
</g>
</g>
<!-- Node15&#45;&gt;Node28 -->
<g id="edge32" class="edge">
<title>Node15&#45;&gt;Node28</title>
<path fill="none" stroke="midnightblue" d="M397.29,-171.39C408.46,-144.4 443.92,-67.38 499,-29 502.69,-26.43 506.7,-24.21 510.88,-22.29"/>
<polygon fill="midnightblue" stroke="midnightblue" points="512.26,-25.5 520.25,-18.54 509.66,-19 512.26,-25.5"/>
</g>
<!-- Node17 -->
<g id="node17" class="node">
<title>Node17</title>
<g id="a_node17"><a xlink:href="structmatplotlibcpp_1_1detail_1_1__interpreter.html#a3ddc4e50c23738307da3dc64c47cdbc0" target="_top" xlink:title=" ">
<polygon fill="white" stroke="black" points="684,-204 684,-234 788,-234 788,-204 684,-204"/>
<text text-anchor="start" x="692" y="-222" font-family="Helvetica,sans-Serif" font-size="10.00">matplotlibcpp::detail</text>
<text text-anchor="middle" x="736" y="-211" font-family="Helvetica,sans-Serif" font-size="10.00">::_interpreter::get</text>
</a>
</g>
</g>
<!-- Node16&#45;&gt;Node17 -->
<g id="edge16" class="edge">
<title>Node16&#45;&gt;Node17</title>
<path fill="none" stroke="midnightblue" d="M619.27,-305.96C629.06,-303.25 639.14,-299.67 648,-295 673.84,-281.37 698.45,-258.64 714.85,-241.58"/>
<polygon fill="midnightblue" stroke="midnightblue" points="717.5,-243.88 721.79,-234.19 712.39,-239.09 717.5,-243.88"/>
</g>
<!-- Node18 -->
<g id="node18" class="node">
<title>Node18</title>
<g id="a_node18"><a xlink:href="structmatplotlibcpp_1_1detail_1_1__interpreter.html#accf36ff8fd9f1bd757d028fa4a14be40" target="_top" xlink:title=" ">
<polygon fill="white" stroke="black" points="824,-204 824,-234 949,-234 949,-204 824,-204"/>
<text text-anchor="start" x="832" y="-222" font-family="Helvetica,sans-Serif" font-size="10.00">matplotlibcpp::detail</text>
<text text-anchor="middle" x="886.5" y="-211" font-family="Helvetica,sans-Serif" font-size="10.00">::_interpreter::interkeeper</text>
</a>
</g>
</g>
<!-- Node17&#45;&gt;Node18 -->
<g id="edge17" class="edge">
<title>Node17&#45;&gt;Node18</title>
<path fill="none" stroke="midnightblue" d="M788.11,-219C796.37,-219 805.05,-219 813.69,-219"/>
<polygon fill="midnightblue" stroke="midnightblue" points="813.79,-222.5 823.79,-219 813.79,-215.5 813.79,-222.5"/>
</g>
<!-- Node19 -->
<g id="node19" class="node">
<title>Node19</title>
<g id="a_node19"><a xlink:href="structmatplotlibcpp_1_1detail_1_1__interpreter.html#abd9d036f154de95f507d8be310569d20" target="_top" xlink:title=" ">
<polygon fill="white" stroke="black" points="985,-204 985,-234 1117,-234 1117,-204 985,-204"/>
<text text-anchor="start" x="993" y="-222" font-family="Helvetica,sans-Serif" font-size="10.00">matplotlibcpp::detail</text>
<text text-anchor="middle" x="1051" y="-211" font-family="Helvetica,sans-Serif" font-size="10.00">::_interpreter::~_interpreter</text>
</a>
</g>
</g>
<!-- Node18&#45;&gt;Node19 -->
<g id="edge18" class="edge">
<title>Node18&#45;&gt;Node19</title>
<path fill="none" stroke="midnightblue" d="M949.4,-219C957.62,-219 966.13,-219 974.55,-219"/>
<polygon fill="midnightblue" stroke="midnightblue" points="974.76,-222.5 984.76,-219 974.76,-215.5 974.76,-222.5"/>
</g>
<!-- Node20&#45;&gt;Node17 -->
<g id="edge20" class="edge">
<title>Node20&#45;&gt;Node17</title>
<path fill="none" stroke="midnightblue" d="M616.05,-266.49C626.57,-263.74 637.78,-260.53 648,-257 663.46,-251.66 680.02,-244.75 694.49,-238.29"/>
<polygon fill="midnightblue" stroke="midnightblue" points="696,-241.45 703.66,-234.13 693.11,-235.07 696,-241.45"/>
</g>
<!-- Node21&#45;&gt;Node17 -->
<g id="edge22" class="edge">
<title>Node21&#45;&gt;Node17</title>
<path fill="none" stroke="midnightblue" d="M624.31,-133.51C632.48,-136.01 640.66,-139.13 648,-143 673.84,-156.63 698.45,-179.36 714.85,-196.42"/>
<polygon fill="midnightblue" stroke="midnightblue" points="712.39,-198.91 721.79,-203.81 717.5,-194.12 712.39,-198.91"/>
</g>
<!-- Node22 -->
<g id="node22" class="node">
<title>Node22</title>
<g id="a_node22"><a xlink:href="namespacematplotlibcpp_1_1detail.html#a9bcca44556cf0ddbbf147a423d9a9496" target="_top" xlink:title=" ">
<polygon fill="white" stroke="black" points="684,-109 684,-139 788,-139 788,-109 684,-109"/>
<text text-anchor="start" x="692" y="-127" font-family="Helvetica,sans-Serif" font-size="10.00">matplotlibcpp::detail</text>
<text text-anchor="middle" x="736" y="-116" font-family="Helvetica,sans-Serif" font-size="10.00">::get_array</text>
</a>
</g>
</g>
<!-- Node21&#45;&gt;Node22 -->
<g id="edge23" class="edge">
<title>Node21&#45;&gt;Node22</title>
<path fill="none" stroke="midnightblue" d="M639.32,-124C650.64,-124 662.39,-124 673.62,-124"/>
<polygon fill="midnightblue" stroke="midnightblue" points="673.76,-127.5 683.76,-124 673.76,-120.5 673.76,-127.5"/>
</g>
<!-- Node23&#45;&gt;Node17 -->
<g id="edge25" class="edge">
<title>Node23&#45;&gt;Node17</title>
<path fill="none" stroke="midnightblue" d="M627.05,-231.78C642.05,-230 658.52,-228.05 673.98,-226.22"/>
<polygon fill="midnightblue" stroke="midnightblue" points="674.45,-229.69 683.97,-225.04 673.63,-222.74 674.45,-229.69"/>
</g>
<!-- Node24&#45;&gt;Node17 -->
<g id="edge27" class="edge">
<title>Node24&#45;&gt;Node17</title>
<path fill="none" stroke="midnightblue" d="M625.72,-206.06C641,-207.87 657.9,-209.87 673.75,-211.75"/>
<polygon fill="midnightblue" stroke="midnightblue" points="673.64,-215.26 683.99,-212.96 674.47,-208.31 673.64,-215.26"/>
</g>
<!-- Node25&#45;&gt;Node17 -->
<g id="edge29" class="edge">
<title>Node25&#45;&gt;Node17</title>
<path fill="none" stroke="midnightblue" d="M616.05,-171.51C626.57,-174.26 637.78,-177.47 648,-181 663.46,-186.34 680.02,-193.25 694.49,-199.71"/>
<polygon fill="midnightblue" stroke="midnightblue" points="693.11,-202.93 703.66,-203.87 696,-196.55 693.11,-202.93"/>
</g>
</g>
</svg>
