<?xml version="1.0" encoding="UTF-8" standalone="no"?>
<!DOCTYPE svg PUBLIC "-//W3C//DTD SVG 1.1//EN"
 "http://www.w3.org/Graphics/SVG/1.1/DTD/svg11.dtd">
<!-- Generated by graphviz version 2.43.0 (0)
 -->
<!-- Title: Graphical Class Hierarchy Pages: 1 -->
<svg width="284pt" height="88pt"
 viewBox="0.00 0.00 284.00 88.00" xmlns="http://www.w3.org/2000/svg" xmlns:xlink="http://www.w3.org/1999/xlink">
<g id="graph0" class="graph" transform="scale(1 1) rotate(0) translate(4 84)">
<title>Graphical Class Hierarchy</title>
<polygon fill="white" stroke="transparent" points="-4,4 -4,-84 280,-84 280,4 -4,4"/>
<!-- Node0 -->
<g id="node1" class="node">
<title>Node0</title>
<g id="a_node1"><a xlink:href="structmatplotlibcpp_1_1detail_1_1is__callable__impl_3_01true_00_01_t_01_4_1_1_fallback.html" target="_top" xlink:title=" ">
<polygon fill="white" stroke="black" points="0,-38.5 0,-79.5 120,-79.5 120,-38.5 0,-38.5"/>
<text text-anchor="start" x="8" y="-67.5" font-family="Helvetica,sans-Serif" font-size="10.00">matplotlibcpp::detail</text>
<text text-anchor="start" x="8" y="-56.5" font-family="Helvetica,sans-Serif" font-size="10.00">::is_callable_impl&lt; true,</text>
<text text-anchor="middle" x="60" y="-45.5" font-family="Helvetica,sans-Serif" font-size="10.00"> T &gt;::Fallback</text>
</a>
</g>
</g>
<!-- Node1 -->
<g id="node2" class="node">
<title>Node1</title>
<g id="a_node2"><a xlink:href="structmatplotlibcpp_1_1detail_1_1is__callable__impl_3_01true_00_01_t_01_4_1_1_derived.html" target="_top" xlink:title=" ">
<polygon fill="white" stroke="black" points="156,-13.5 156,-54.5 276,-54.5 276,-13.5 156,-13.5"/>
<text text-anchor="start" x="164" y="-42.5" font-family="Helvetica,sans-Serif" font-size="10.00">matplotlibcpp::detail</text>
<text text-anchor="start" x="164" y="-31.5" font-family="Helvetica,sans-Serif" font-size="10.00">::is_callable_impl&lt; true,</text>
<text text-anchor="middle" x="216" y="-20.5" font-family="Helvetica,sans-Serif" font-size="10.00"> T &gt;::Derived</text>
</a>
</g>
</g>
<!-- Node0&#45;&gt;Node1 -->
<g id="edge1" class="edge">
<title>Node0&#45;&gt;Node1</title>
<path fill="none" stroke="midnightblue" d="M130.09,-47.78C138.67,-46.39 147.39,-44.98 155.8,-43.61"/>
<polygon fill="midnightblue" stroke="midnightblue" points="129.41,-44.35 120.1,-49.41 130.53,-51.26 129.41,-44.35"/>
</g>
<!-- Node32 -->
<g id="node3" class="node">
<title>Node32</title>
<g id="a_node3"><a xlink:title=" ">
<polygon fill="white" stroke="#bfbfbf" points="45.5,-0.5 45.5,-19.5 74.5,-19.5 74.5,-0.5 45.5,-0.5"/>
<text text-anchor="middle" x="60" y="-7.5" font-family="Helvetica,sans-Serif" font-size="10.00">T</text>
</a>
</g>
</g>
<!-- Node32&#45;&gt;Node1 -->
<g id="edge2" class="edge">
<title>Node32&#45;&gt;Node1</title>
<path fill="none" stroke="midnightblue" d="M84.75,-13.7C103.68,-16.65 131,-20.91 155.75,-24.77"/>
<polygon fill="midnightblue" stroke="midnightblue" points="85.09,-10.21 74.67,-12.13 84.01,-17.13 85.09,-10.21"/>
</g>
</g>
</svg>
