<?xml version="1.0" encoding="UTF-8" standalone="no"?>
<!DOCTYPE svg PUBLIC "-//W3C//DTD SVG 1.1//EN"
 "http://www.w3.org/Graphics/SVG/1.1/DTD/svg11.dtd">
<!-- Generated by graphviz version 2.43.0 (0)
 -->
<!-- Title: mastersclient.cpp Pages: 1 -->
<svg width="2164pt" height="252pt"
 viewBox="0.00 0.00 2164.00 252.00" xmlns="http://www.w3.org/2000/svg" xmlns:xlink="http://www.w3.org/1999/xlink">
<g id="graph0" class="graph" transform="scale(1 1) rotate(0) translate(4 248)">
<title>mastersclient.cpp</title>
<polygon fill="white" stroke="transparent" points="-4,4 -4,-248 2160,-248 2160,4 -4,4"/>
<!-- Node1 -->
<g id="node1" class="node">
<title>Node1</title>
<g id="a_node1"><a xlink:title="The code is executed on this Turtle.">
<polygon fill="#bfbfbf" stroke="black" points="1869.5,-224.5 1869.5,-243.5 1963.5,-243.5 1963.5,-224.5 1869.5,-224.5"/>
<text text-anchor="middle" x="1916.5" y="-231.5" font-family="Helvetica,sans-Serif" font-size="10.00">mastersclient.cpp</text>
</a>
</g>
</g>
<!-- Node2 -->
<g id="node2" class="node">
<title>Node2</title>
<g id="a_node2"><a xlink:href="mastersclient_8h.html" target="_top" xlink:title=" ">
<polygon fill="white" stroke="black" points="1370,-168.5 1370,-187.5 1487,-187.5 1487,-168.5 1370,-168.5"/>
<text text-anchor="middle" x="1428.5" y="-175.5" font-family="Helvetica,sans-Serif" font-size="10.00">include/mastersclient.h</text>
</a>
</g>
</g>
<!-- Node1&#45;&gt;Node2 -->
<g id="edge1" class="edge">
<title>Node1&#45;&gt;Node2</title>
<path fill="none" stroke="midnightblue" d="M1869.27,-227.77C1782.54,-218.18 1597.63,-197.72 1497.07,-186.59"/>
<polygon fill="midnightblue" stroke="midnightblue" points="1497.34,-183.1 1487.02,-185.48 1496.57,-190.05 1497.34,-183.1"/>
</g>
<!-- Node31 -->
<g id="node31" class="node">
<title>Node31</title>
<g id="a_node31"><a xlink:title=" ">
<polygon fill="white" stroke="#bfbfbf" points="1846.5,-0.5 1846.5,-19.5 1900.5,-19.5 1900.5,-0.5 1846.5,-0.5"/>
<text text-anchor="middle" x="1873.5" y="-7.5" font-family="Helvetica,sans-Serif" font-size="10.00">iostream</text>
</a>
</g>
</g>
<!-- Node1&#45;&gt;Node31 -->
<g id="edge49" class="edge">
<title>Node1&#45;&gt;Node31</title>
<path fill="none" stroke="midnightblue" d="M1902.42,-224.26C1891.15,-216.35 1876.15,-203.58 1869.5,-188 1846.51,-134.16 1859.94,-62.45 1868.33,-29.27"/>
<polygon fill="midnightblue" stroke="midnightblue" points="1871.72,-30.14 1870.92,-19.58 1864.96,-28.34 1871.72,-30.14"/>
</g>
<!-- Node36 -->
<g id="node36" class="node">
<title>Node36</title>
<g id="a_node36"><a xlink:title=" ">
<polygon fill="white" stroke="#bfbfbf" points="1776.5,-112.5 1776.5,-131.5 1822.5,-131.5 1822.5,-112.5 1776.5,-112.5"/>
<text text-anchor="middle" x="1799.5" y="-119.5" font-family="Helvetica,sans-Serif" font-size="10.00">chrono</text>
</a>
</g>
</g>
<!-- Node1&#45;&gt;Node36 -->
<g id="edge50" class="edge">
<title>Node1&#45;&gt;Node36</title>
<path fill="none" stroke="midnightblue" d="M1894.37,-224.46C1877.02,-216.91 1853.11,-204.52 1836.5,-188 1823,-174.57 1812.83,-155.2 1806.6,-141.1"/>
<polygon fill="midnightblue" stroke="midnightblue" points="1809.69,-139.42 1802.61,-131.53 1803.23,-142.11 1809.69,-139.42"/>
</g>
<!-- Node37 -->
<g id="node37" class="node">
<title>Node37</title>
<g id="a_node37"><a xlink:title=" ">
<polygon fill="white" stroke="#bfbfbf" points="1878.5,-168.5 1878.5,-187.5 1954.5,-187.5 1954.5,-168.5 1878.5,-168.5"/>
<text text-anchor="middle" x="1916.5" y="-175.5" font-family="Helvetica,sans-Serif" font-size="10.00">friLBRState.h</text>
</a>
</g>
</g>
<!-- Node1&#45;&gt;Node37 -->
<g id="edge45" class="edge">
<title>Node1&#45;&gt;Node37</title>
<path fill="none" stroke="midnightblue" d="M1916.5,-224.08C1916.5,-217.01 1916.5,-206.86 1916.5,-197.99"/>
<polygon fill="midnightblue" stroke="midnightblue" points="1920,-197.75 1916.5,-187.75 1913,-197.75 1920,-197.75"/>
</g>
<!-- Node38 -->
<g id="node38" class="node">
<title>Node38</title>
<g id="a_node38"><a xlink:title=" ">
<polygon fill="white" stroke="#bfbfbf" points="1972.5,-168.5 1972.5,-187.5 2016.5,-187.5 2016.5,-168.5 1972.5,-168.5"/>
<text text-anchor="middle" x="1994.5" y="-175.5" font-family="Helvetica,sans-Serif" font-size="10.00">cmath</text>
</a>
</g>
</g>
<!-- Node1&#45;&gt;Node38 -->
<g id="edge46" class="edge">
<title>Node1&#45;&gt;Node38</title>
<path fill="none" stroke="midnightblue" d="M1929.03,-224.32C1941.09,-215.98 1959.53,-203.21 1973.77,-193.35"/>
<polygon fill="midnightblue" stroke="midnightblue" points="1975.77,-196.22 1982,-187.65 1971.78,-190.47 1975.77,-196.22"/>
</g>
<!-- Node39 -->
<g id="node39" class="node">
<title>Node39</title>
<g id="a_node39"><a xlink:title=" ">
<polygon fill="white" stroke="#bfbfbf" points="2034.5,-168.5 2034.5,-187.5 2096.5,-187.5 2096.5,-168.5 2034.5,-168.5"/>
<text text-anchor="middle" x="2065.5" y="-175.5" font-family="Helvetica,sans-Serif" font-size="10.00">filesystem</text>
</a>
</g>
</g>
<!-- Node1&#45;&gt;Node39 -->
<g id="edge47" class="edge">
<title>Node1&#45;&gt;Node39</title>
<path fill="none" stroke="midnightblue" d="M1940.11,-224.44C1964.96,-215.44 2004.27,-201.19 2032.25,-191.05"/>
<polygon fill="midnightblue" stroke="midnightblue" points="2033.79,-194.21 2042,-187.52 2031.41,-187.63 2033.79,-194.21"/>
</g>
<!-- Node40 -->
<g id="node40" class="node">
<title>Node40</title>
<g id="a_node40"><a xlink:title=" ">
<polygon fill="white" stroke="#bfbfbf" points="2115,-168.5 2115,-187.5 2156,-187.5 2156,-168.5 2115,-168.5"/>
<text text-anchor="middle" x="2135.5" y="-175.5" font-family="Helvetica,sans-Serif" font-size="10.00">future</text>
</a>
</g>
</g>
<!-- Node1&#45;&gt;Node40 -->
<g id="edge48" class="edge">
<title>Node1&#45;&gt;Node40</title>
<path fill="none" stroke="midnightblue" d="M1955.4,-224.43C1991.63,-216.29 2047.36,-203.39 2104.89,-188.04"/>
<polygon fill="midnightblue" stroke="midnightblue" points="2106.14,-191.33 2114.89,-185.35 2104.32,-184.57 2106.14,-191.33"/>
</g>
<!-- Node3 -->
<g id="node3" class="node">
<title>Node3</title>
<g id="a_node3"><a xlink:title=" ">
<polygon fill="white" stroke="#bfbfbf" points="1096.5,-112.5 1096.5,-131.5 1174.5,-131.5 1174.5,-112.5 1096.5,-112.5"/>
<text text-anchor="middle" x="1135.5" y="-119.5" font-family="Helvetica,sans-Serif" font-size="10.00">friLBRClient.h</text>
</a>
</g>
</g>
<!-- Node2&#45;&gt;Node3 -->
<g id="edge2" class="edge">
<title>Node2&#45;&gt;Node3</title>
<path fill="none" stroke="midnightblue" d="M1382.07,-168.44C1328.15,-158.5 1239.56,-142.18 1184.54,-132.04"/>
<polygon fill="midnightblue" stroke="midnightblue" points="1185.15,-128.59 1174.68,-130.22 1183.88,-135.47 1185.15,-128.59"/>
</g>
<!-- Node4 -->
<g id="node4" class="node">
<title>Node4</title>
<g id="a_node4"><a xlink:href="robot_model_8h.html" target="_top" xlink:title=" ">
<polygon fill="white" stroke="black" points="667,-112.5 667,-131.5 740,-131.5 740,-112.5 667,-112.5"/>
<text text-anchor="middle" x="703.5" y="-119.5" font-family="Helvetica,sans-Serif" font-size="10.00">robotModel.h</text>
</a>
</g>
</g>
<!-- Node2&#45;&gt;Node4 -->
<g id="edge3" class="edge">
<title>Node2&#45;&gt;Node4</title>
<path fill="none" stroke="midnightblue" d="M1369.78,-172.63C1229.61,-162.19 877.67,-135.97 750.37,-126.49"/>
<polygon fill="midnightblue" stroke="midnightblue" points="750.41,-122.98 740.18,-125.73 749.89,-129.97 750.41,-122.98"/>
</g>
<!-- Node19 -->
<g id="node19" class="node">
<title>Node19</title>
<g id="a_node19"><a xlink:title=" ">
<polygon fill="white" stroke="#bfbfbf" points="1787,-0.5 1787,-19.5 1828,-19.5 1828,-0.5 1787,-0.5"/>
<text text-anchor="middle" x="1807.5" y="-7.5" font-family="Helvetica,sans-Serif" font-size="10.00">string</text>
</a>
</g>
</g>
<!-- Node2&#45;&gt;Node19 -->
<g id="edge19" class="edge">
<title>Node2&#45;&gt;Node19</title>
<path fill="none" stroke="midnightblue" d="M1470.89,-168.45C1531.29,-155.04 1644.24,-125.38 1729.5,-76 1753.18,-62.29 1776.83,-41.3 1791.77,-26.91"/>
<polygon fill="midnightblue" stroke="midnightblue" points="1794.45,-29.18 1799.12,-19.68 1789.54,-24.19 1794.45,-29.18"/>
</g>
<!-- Node20 -->
<g id="node20" class="node">
<title>Node20</title>
<g id="a_node20"><a xlink:title=" ">
<polygon fill="white" stroke="#bfbfbf" points="1324.5,-56.5 1324.5,-75.5 1376.5,-75.5 1376.5,-56.5 1324.5,-56.5"/>
<text text-anchor="middle" x="1350.5" y="-63.5" font-family="Helvetica,sans-Serif" font-size="10.00">memory</text>
</a>
</g>
</g>
<!-- Node2&#45;&gt;Node20 -->
<g id="edge20" class="edge">
<title>Node2&#45;&gt;Node20</title>
<path fill="none" stroke="midnightblue" d="M1422.38,-168.37C1409.51,-150.22 1379.43,-107.8 1362.55,-83.99"/>
<polygon fill="midnightblue" stroke="midnightblue" points="1365.23,-81.72 1356.59,-75.59 1359.52,-85.77 1365.23,-81.72"/>
</g>
<!-- Node21 -->
<g id="node21" class="node">
<title>Node21</title>
<g id="a_node21"><a xlink:title=" ">
<polygon fill="white" stroke="#bfbfbf" points="1131.5,-0.5 1131.5,-19.5 1175.5,-19.5 1175.5,-0.5 1131.5,-0.5"/>
<text text-anchor="middle" x="1153.5" y="-7.5" font-family="Helvetica,sans-Serif" font-size="10.00">vector</text>
</a>
</g>
</g>
<!-- Node2&#45;&gt;Node21 -->
<g id="edge21" class="edge">
<title>Node2&#45;&gt;Node21</title>
<path fill="none" stroke="midnightblue" d="M1405.18,-168.38C1365.47,-153.11 1283.02,-118.85 1221.5,-76 1201.11,-61.8 1180.94,-41.52 1167.93,-27.4"/>
<polygon fill="midnightblue" stroke="midnightblue" points="1170.45,-24.97 1161.15,-19.9 1165.25,-29.66 1170.45,-24.97"/>
</g>
<!-- Node22 -->
<g id="node22" class="node">
<title>Node22</title>
<g id="a_node22"><a xlink:title=" ">
<polygon fill="white" stroke="#bfbfbf" points="1677,-56.5 1677,-75.5 1720,-75.5 1720,-56.5 1677,-56.5"/>
<text text-anchor="middle" x="1698.5" y="-63.5" font-family="Helvetica,sans-Serif" font-size="10.00">queue</text>
</a>
</g>
</g>
<!-- Node2&#45;&gt;Node22 -->
<g id="edge22" class="edge">
<title>Node2&#45;&gt;Node22</title>
<path fill="none" stroke="midnightblue" d="M1449.69,-168.37C1497.3,-148.97 1612.91,-101.87 1668.14,-79.37"/>
<polygon fill="midnightblue" stroke="midnightblue" points="1669.47,-82.61 1677.41,-75.59 1666.83,-76.12 1669.47,-82.61"/>
</g>
<!-- Node23 -->
<g id="node23" class="node">
<title>Node23</title>
<g id="a_node23"><a xlink:title=" ">
<polygon fill="white" stroke="#bfbfbf" points="552,-112.5 552,-131.5 649,-131.5 649,-112.5 552,-112.5"/>
<text text-anchor="middle" x="600.5" y="-119.5" font-family="Helvetica,sans-Serif" font-size="10.00">gnuplot&#45;iostream.h</text>
</a>
</g>
</g>
<!-- Node2&#45;&gt;Node23 -->
<g id="edge23" class="edge">
<title>Node2&#45;&gt;Node23</title>
<path fill="none" stroke="midnightblue" d="M1369.82,-175.54C1242.3,-171.95 930.19,-160.85 659.3,-132.1"/>
<polygon fill="midnightblue" stroke="midnightblue" points="659.59,-128.61 649.28,-131.02 658.85,-135.57 659.59,-128.61"/>
</g>
<!-- Node24 -->
<g id="node24" class="node">
<title>Node24</title>
<g id="a_node24"><a xlink:href="plot_master_8h.html" target="_top" xlink:title=" ">
<polygon fill="white" stroke="black" points="1424.5,-112.5 1424.5,-131.5 1494.5,-131.5 1494.5,-112.5 1424.5,-112.5"/>
<text text-anchor="middle" x="1459.5" y="-119.5" font-family="Helvetica,sans-Serif" font-size="10.00">plotMaster.h</text>
</a>
</g>
</g>
<!-- Node2&#45;&gt;Node24 -->
<g id="edge24" class="edge">
<title>Node2&#45;&gt;Node24</title>
<path fill="none" stroke="midnightblue" d="M1433.62,-168.08C1437.91,-160.61 1444.16,-149.72 1449.44,-140.52"/>
<polygon fill="midnightblue" stroke="midnightblue" points="1452.53,-142.17 1454.48,-131.75 1446.46,-138.68 1452.53,-142.17"/>
</g>
<!-- Node2&#45;&gt;Node36 -->
<g id="edge44" class="edge">
<title>Node2&#45;&gt;Node36</title>
<path fill="none" stroke="midnightblue" d="M1487.02,-170.99C1553.94,-163.69 1666.62,-150.07 1762.5,-132 1763.78,-131.76 1765.08,-131.5 1766.39,-131.23"/>
<polygon fill="midnightblue" stroke="midnightblue" points="1767.48,-134.58 1776.49,-128.99 1765.97,-127.74 1767.48,-134.58"/>
</g>
<!-- Node5 -->
<g id="node5" class="node">
<title>Node5</title>
<g id="a_node5"><a xlink:title=" ">
<polygon fill="white" stroke="#bfbfbf" points="492,-56.5 492,-75.5 593,-75.5 593,-56.5 492,-56.5"/>
<text text-anchor="middle" x="542.5" y="-63.5" font-family="Helvetica,sans-Serif" font-size="10.00">rl/mdl/XmlFactory.h</text>
</a>
</g>
</g>
<!-- Node4&#45;&gt;Node5 -->
<g id="edge4" class="edge">
<title>Node4&#45;&gt;Node5</title>
<path fill="none" stroke="midnightblue" d="M677.99,-112.44C650.9,-103.36 607.91,-88.94 577.63,-78.78"/>
<polygon fill="midnightblue" stroke="midnightblue" points="578.49,-75.38 567.89,-75.52 576.26,-82.01 578.49,-75.38"/>
</g>
<!-- Node6 -->
<g id="node6" class="node">
<title>Node6</title>
<g id="a_node6"><a xlink:title=" ">
<polygon fill="white" stroke="#bfbfbf" points="611.5,-56.5 611.5,-75.5 689.5,-75.5 689.5,-56.5 611.5,-56.5"/>
<text text-anchor="middle" x="650.5" y="-63.5" font-family="Helvetica,sans-Serif" font-size="10.00">rl/mdl/Model.h</text>
</a>
</g>
</g>
<!-- Node4&#45;&gt;Node6 -->
<g id="edge5" class="edge">
<title>Node4&#45;&gt;Node6</title>
<path fill="none" stroke="midnightblue" d="M694.75,-112.08C687.03,-104.22 675.6,-92.57 666.28,-83.08"/>
<polygon fill="midnightblue" stroke="midnightblue" points="668.59,-80.44 659.09,-75.75 663.6,-85.34 668.59,-80.44"/>
</g>
<!-- Node7 -->
<g id="node7" class="node">
<title>Node7</title>
<g id="a_node7"><a xlink:title=" ">
<polygon fill="white" stroke="#bfbfbf" points="1230.5,-56.5 1230.5,-75.5 1306.5,-75.5 1306.5,-56.5 1230.5,-56.5"/>
<text text-anchor="middle" x="1268.5" y="-63.5" font-family="Helvetica,sans-Serif" font-size="10.00">rl/math/Unit.h</text>
</a>
</g>
</g>
<!-- Node4&#45;&gt;Node7 -->
<g id="edge6" class="edge">
<title>Node4&#45;&gt;Node7</title>
<path fill="none" stroke="midnightblue" d="M740.17,-117.69C820.4,-110.41 1017.51,-92.38 1182.5,-76 1194.75,-74.78 1207.99,-73.42 1220.31,-72.13"/>
<polygon fill="midnightblue" stroke="midnightblue" points="1220.83,-75.6 1230.41,-71.07 1220.1,-68.64 1220.83,-75.6"/>
</g>
<!-- Node8 -->
<g id="node8" class="node">
<title>Node8</title>
<g id="a_node8"><a xlink:title=" ">
<polygon fill="white" stroke="#bfbfbf" points="12.5,-0.5 12.5,-19.5 114.5,-19.5 114.5,-0.5 12.5,-0.5"/>
<text text-anchor="middle" x="63.5" y="-7.5" font-family="Helvetica,sans-Serif" font-size="10.00">rl/math/Transform.h</text>
</a>
</g>
</g>
<!-- Node4&#45;&gt;Node8 -->
<g id="edge7" class="edge">
<title>Node4&#45;&gt;Node8</title>
<path fill="none" stroke="midnightblue" d="M666.91,-113.41C663.74,-112.88 660.57,-112.4 657.5,-112 537.14,-96.32 219.28,-133.7 112.5,-76 93.33,-65.64 79.47,-44.17 71.48,-28.74"/>
<polygon fill="midnightblue" stroke="midnightblue" points="74.59,-27.13 67.09,-19.65 68.29,-30.18 74.59,-27.13"/>
</g>
<!-- Node9 -->
<g id="node9" class="node">
<title>Node9</title>
<g id="a_node9"><a xlink:title=" ">
<polygon fill="white" stroke="#bfbfbf" points="708,-56.5 708,-75.5 803,-75.5 803,-56.5 708,-56.5"/>
<text text-anchor="middle" x="755.5" y="-63.5" font-family="Helvetica,sans-Serif" font-size="10.00">rl/mdl/Kinematic.h</text>
</a>
</g>
</g>
<!-- Node4&#45;&gt;Node9 -->
<g id="edge8" class="edge">
<title>Node4&#45;&gt;Node9</title>
<path fill="none" stroke="midnightblue" d="M712.09,-112.08C719.66,-104.22 730.88,-92.57 740.01,-83.08"/>
<polygon fill="midnightblue" stroke="midnightblue" points="742.66,-85.38 747.07,-75.75 737.62,-80.53 742.66,-85.38"/>
</g>
<!-- Node10 -->
<g id="node10" class="node">
<title>Node10</title>
<g id="a_node10"><a xlink:title=" ">
<polygon fill="white" stroke="#bfbfbf" points="821,-56.5 821,-75.5 912,-75.5 912,-56.5 821,-56.5"/>
<text text-anchor="middle" x="866.5" y="-63.5" font-family="Helvetica,sans-Serif" font-size="10.00">rl/mdl/Dynamic.h</text>
</a>
</g>
</g>
<!-- Node4&#45;&gt;Node10 -->
<g id="edge9" class="edge">
<title>Node4&#45;&gt;Node10</title>
<path fill="none" stroke="midnightblue" d="M729.33,-112.44C756.75,-103.36 800.28,-88.94 830.93,-78.78"/>
<polygon fill="midnightblue" stroke="midnightblue" points="832.4,-81.98 840.79,-75.52 830.2,-75.34 832.4,-81.98"/>
</g>
<!-- Node11 -->
<g id="node11" class="node">
<title>Node11</title>
<g id="a_node11"><a xlink:href="lbr__struct_8h.html" target="_top" xlink:title=" ">
<polygon fill="white" stroke="black" points="0,-56.5 0,-75.5 65,-75.5 65,-56.5 0,-56.5"/>
<text text-anchor="middle" x="32.5" y="-63.5" font-family="Helvetica,sans-Serif" font-size="10.00">lbr_struct.h</text>
</a>
</g>
</g>
<!-- Node4&#45;&gt;Node11 -->
<g id="edge10" class="edge">
<title>Node4&#45;&gt;Node11</title>
<path fill="none" stroke="midnightblue" d="M666.91,-113.39C663.74,-112.87 660.57,-112.39 657.5,-112 402.21,-79.22 334.86,-108.27 79.5,-76 78.03,-75.81 76.54,-75.61 75.04,-75.39"/>
<polygon fill="midnightblue" stroke="midnightblue" points="75.46,-71.92 65.03,-73.78 74.35,-78.83 75.46,-71.92"/>
</g>
<!-- Node12 -->
<g id="node12" class="node">
<title>Node12</title>
<g id="a_node12"><a xlink:title=" ">
<polygon fill="white" stroke="#bfbfbf" points="1047,-0.5 1047,-19.5 1106,-19.5 1106,-0.5 1047,-0.5"/>
<text text-anchor="middle" x="1076.5" y="-7.5" font-family="Helvetica,sans-Serif" font-size="10.00">stdexcept</text>
</a>
</g>
</g>
<!-- Node4&#45;&gt;Node12 -->
<g id="edge12" class="edge">
<title>Node4&#45;&gt;Node12</title>
<path fill="none" stroke="midnightblue" d="M740.17,-121C819.96,-120.28 1005.95,-114.39 1053.5,-76 1067.3,-64.85 1072.83,-44.83 1075.04,-29.94"/>
<polygon fill="midnightblue" stroke="midnightblue" points="1078.54,-30.11 1076.17,-19.78 1071.59,-29.34 1078.54,-30.11"/>
</g>
<!-- Node13 -->
<g id="node13" class="node">
<title>Node13</title>
<g id="a_node13"><a xlink:title=" ">
<polygon fill="white" stroke="#bfbfbf" points="930.5,-56.5 930.5,-75.5 1044.5,-75.5 1044.5,-56.5 930.5,-56.5"/>
<text text-anchor="middle" x="987.5" y="-63.5" font-family="Helvetica,sans-Serif" font-size="10.00">boost/lexical_cast.hpp</text>
</a>
</g>
</g>
<!-- Node4&#45;&gt;Node13 -->
<g id="edge13" class="edge">
<title>Node4&#45;&gt;Node13</title>
<path fill="none" stroke="midnightblue" d="M740.05,-114.05C788.95,-104.75 876.07,-88.19 932.8,-77.4"/>
<polygon fill="midnightblue" stroke="midnightblue" points="933.51,-80.83 942.68,-75.52 932.2,-73.95 933.51,-80.83"/>
</g>
<!-- Node14 -->
<g id="node14" class="node">
<title>Node14</title>
<g id="a_node14"><a xlink:title=" ">
<polygon fill="white" stroke="#bfbfbf" points="1101,-56.5 1101,-75.5 1174,-75.5 1174,-56.5 1101,-56.5"/>
<text text-anchor="middle" x="1137.5" y="-63.5" font-family="Helvetica,sans-Serif" font-size="10.00">rl/mdl/Body.h</text>
</a>
</g>
</g>
<!-- Node4&#45;&gt;Node14 -->
<g id="edge14" class="edge">
<title>Node4&#45;&gt;Node14</title>
<path fill="none" stroke="midnightblue" d="M740.03,-117.42C808.26,-110.57 959.65,-94.63 1086.5,-76 1087.95,-75.79 1089.41,-75.57 1090.89,-75.34"/>
<polygon fill="midnightblue" stroke="midnightblue" points="1091.46,-78.79 1100.77,-73.74 1090.34,-71.88 1091.46,-78.79"/>
</g>
<!-- Node15 -->
<g id="node15" class="node">
<title>Node15</title>
<g id="a_node15"><a xlink:title=" ">
<polygon fill="white" stroke="#bfbfbf" points="121.5,-56.5 121.5,-75.5 197.5,-75.5 197.5,-56.5 121.5,-56.5"/>
<text text-anchor="middle" x="159.5" y="-63.5" font-family="Helvetica,sans-Serif" font-size="10.00">rl/mdl/Fixed.h</text>
</a>
</g>
</g>
<!-- Node4&#45;&gt;Node15 -->
<g id="edge15" class="edge">
<title>Node4&#45;&gt;Node15</title>
<path fill="none" stroke="midnightblue" d="M666.9,-113.45C663.73,-112.91 660.56,-112.42 657.5,-112 461.5,-85.09 407.5,-102.37 207.6,-76"/>
<polygon fill="midnightblue" stroke="midnightblue" points="208.04,-72.53 197.66,-74.67 207.11,-79.47 208.04,-72.53"/>
</g>
<!-- Node16 -->
<g id="node16" class="node">
<title>Node16</title>
<g id="a_node16"><a xlink:title=" ">
<polygon fill="white" stroke="#bfbfbf" points="215.5,-56.5 215.5,-75.5 295.5,-75.5 295.5,-56.5 215.5,-56.5"/>
<text text-anchor="middle" x="255.5" y="-63.5" font-family="Helvetica,sans-Serif" font-size="10.00">rl/mdl/Frame.h</text>
</a>
</g>
</g>
<!-- Node4&#45;&gt;Node16 -->
<g id="edge16" class="edge">
<title>Node4&#45;&gt;Node16</title>
<path fill="none" stroke="midnightblue" d="M666.89,-113.52C663.72,-112.97 660.56,-112.45 657.5,-112 504.71,-89.31 462.35,-97.89 305.57,-76.04"/>
<polygon fill="midnightblue" stroke="midnightblue" points="305.96,-72.56 295.57,-74.63 304.98,-79.49 305.96,-72.56"/>
</g>
<!-- Node17 -->
<g id="node17" class="node">
<title>Node17</title>
<g id="a_node17"><a xlink:title=" ">
<polygon fill="white" stroke="#bfbfbf" points="314,-56.5 314,-75.5 405,-75.5 405,-56.5 314,-56.5"/>
<text text-anchor="middle" x="359.5" y="-63.5" font-family="Helvetica,sans-Serif" font-size="10.00">rl/mdl/Revolute.h</text>
</a>
</g>
</g>
<!-- Node4&#45;&gt;Node17 -->
<g id="edge17" class="edge">
<title>Node4&#45;&gt;Node17</title>
<path fill="none" stroke="midnightblue" d="M666.87,-113.68C663.7,-113.09 660.55,-112.52 657.5,-112 553.05,-94.05 524.06,-92.87 415.19,-76.08"/>
<polygon fill="midnightblue" stroke="midnightblue" points="415.53,-72.59 405.11,-74.52 414.46,-79.51 415.53,-72.59"/>
</g>
<!-- Node18 -->
<g id="node18" class="node">
<title>Node18</title>
<g id="a_node18"><a xlink:title=" ">
<polygon fill="white" stroke="#bfbfbf" points="423.5,-56.5 423.5,-75.5 473.5,-75.5 473.5,-56.5 423.5,-56.5"/>
<text text-anchor="middle" x="448.5" y="-63.5" font-family="Helvetica,sans-Serif" font-size="10.00">iomanip</text>
</a>
</g>
</g>
<!-- Node4&#45;&gt;Node18 -->
<g id="edge18" class="edge">
<title>Node4&#45;&gt;Node18</title>
<path fill="none" stroke="midnightblue" d="M666.59,-113.75C616.95,-103.97 530.32,-86.72 483.59,-76.13"/>
<polygon fill="midnightblue" stroke="midnightblue" points="484.24,-72.69 473.71,-73.85 482.67,-79.51 484.24,-72.69"/>
</g>
<!-- Node11&#45;&gt;Node8 -->
<g id="edge11" class="edge">
<title>Node11&#45;&gt;Node8</title>
<path fill="none" stroke="midnightblue" d="M37.62,-56.08C41.91,-48.61 48.16,-37.72 53.44,-28.52"/>
<polygon fill="midnightblue" stroke="midnightblue" points="56.53,-30.17 58.48,-19.75 50.46,-26.68 56.53,-30.17"/>
</g>
<!-- Node24&#45;&gt;Node7 -->
<g id="edge42" class="edge">
<title>Node24&#45;&gt;Node7</title>
<path fill="none" stroke="midnightblue" d="M1429.24,-112.44C1396.54,-103.2 1344.32,-88.44 1308.32,-78.26"/>
<polygon fill="midnightblue" stroke="midnightblue" points="1309.2,-74.87 1298.62,-75.52 1307.29,-81.61 1309.2,-74.87"/>
</g>
<!-- Node24&#45;&gt;Node19 -->
<g id="edge38" class="edge">
<title>Node24&#45;&gt;Node19</title>
<path fill="none" stroke="midnightblue" d="M1471.81,-112.45C1494.93,-96.53 1544.29,-63.29 1563.5,-56 1650.77,-22.89 1681.58,-40.66 1777.17,-19.76"/>
<polygon fill="midnightblue" stroke="midnightblue" points="1777.96,-23.17 1786.93,-17.54 1776.41,-16.34 1777.96,-23.17"/>
</g>
<!-- Node24&#45;&gt;Node20 -->
<g id="edge39" class="edge">
<title>Node24&#45;&gt;Node20</title>
<path fill="none" stroke="midnightblue" d="M1441.99,-112.32C1424.43,-103.62 1397.17,-90.12 1376.97,-80.11"/>
<polygon fill="midnightblue" stroke="midnightblue" points="1378.48,-76.96 1367.97,-75.65 1375.38,-83.23 1378.48,-76.96"/>
</g>
<!-- Node24&#45;&gt;Node21 -->
<g id="edge40" class="edge">
<title>Node24&#45;&gt;Node21</title>
<path fill="none" stroke="midnightblue" d="M1452.35,-112.17C1440.23,-97.86 1414.15,-69.81 1385.5,-56 1306.61,-17.99 1275.1,-39.07 1185.78,-20.02"/>
<polygon fill="midnightblue" stroke="midnightblue" points="1186.3,-16.55 1175.78,-17.77 1184.77,-23.38 1186.3,-16.55"/>
</g>
<!-- Node24&#45;&gt;Node22 -->
<g id="edge41" class="edge">
<title>Node24&#45;&gt;Node22</title>
<path fill="none" stroke="midnightblue" d="M1494.64,-114.17C1534.19,-106.32 1600.55,-92.63 1667.06,-75.97"/>
<polygon fill="midnightblue" stroke="midnightblue" points="1668.03,-79.33 1676.87,-73.49 1666.32,-72.54 1668.03,-79.33"/>
</g>
<!-- Node25 -->
<g id="node25" class="node">
<title>Node25</title>
<g id="a_node25"><a xlink:href="matplotlibcpp_8h.html" target="_top" xlink:title=" ">
<polygon fill="white" stroke="black" points="1433,-56.5 1433,-75.5 1516,-75.5 1516,-56.5 1433,-56.5"/>
<text text-anchor="middle" x="1474.5" y="-63.5" font-family="Helvetica,sans-Serif" font-size="10.00">matplotlibcpp.h</text>
</a>
</g>
</g>
<!-- Node24&#45;&gt;Node25 -->
<g id="edge25" class="edge">
<title>Node24&#45;&gt;Node25</title>
<path fill="none" stroke="midnightblue" d="M1461.98,-112.08C1463.99,-104.85 1466.89,-94.41 1469.39,-85.4"/>
<polygon fill="midnightblue" stroke="midnightblue" points="1472.76,-86.32 1472.07,-75.75 1466.02,-84.45 1472.76,-86.32"/>
</g>
<!-- Node35 -->
<g id="node35" class="node">
<title>Node35</title>
<g id="a_node35"><a xlink:title=" ">
<polygon fill="white" stroke="#bfbfbf" points="1572.5,-56.5 1572.5,-75.5 1658.5,-75.5 1658.5,-56.5 1572.5,-56.5"/>
<text text-anchor="middle" x="1615.5" y="-63.5" font-family="Helvetica,sans-Serif" font-size="10.00">rl/math/Vector.h</text>
</a>
</g>
</g>
<!-- Node24&#45;&gt;Node35 -->
<g id="edge43" class="edge">
<title>Node24&#45;&gt;Node35</title>
<path fill="none" stroke="midnightblue" d="M1484.22,-112.44C1510.35,-103.4 1551.76,-89.06 1581.08,-78.92"/>
<polygon fill="midnightblue" stroke="midnightblue" points="1582.59,-82.1 1590.9,-75.52 1580.3,-75.48 1582.59,-82.1"/>
</g>
<!-- Node25&#45;&gt;Node12 -->
<g id="edge32" class="edge">
<title>Node25&#45;&gt;Node12</title>
<path fill="none" stroke="midnightblue" d="M1432.92,-60.58C1366.93,-53.38 1234.26,-38.06 1122.5,-20 1120.43,-19.67 1118.31,-19.31 1116.17,-18.93"/>
<polygon fill="midnightblue" stroke="midnightblue" points="1116.61,-15.46 1106.14,-17.1 1115.35,-22.34 1116.61,-15.46"/>
</g>
<!-- Node25&#45;&gt;Node19 -->
<g id="edge36" class="edge">
<title>Node25&#45;&gt;Node19</title>
<path fill="none" stroke="midnightblue" d="M1516.08,-58.25C1520.94,-57.48 1525.83,-56.72 1530.5,-56 1637.05,-39.67 1667.48,-43.75 1777.15,-19.77"/>
<polygon fill="midnightblue" stroke="midnightblue" points="1777.94,-23.18 1786.95,-17.6 1776.43,-16.34 1777.94,-23.18"/>
</g>
<!-- Node25&#45;&gt;Node21 -->
<g id="edge27" class="edge">
<title>Node25&#45;&gt;Node21</title>
<path fill="none" stroke="midnightblue" d="M1432.92,-58.28C1428.06,-57.51 1423.17,-56.73 1418.5,-56 1317.7,-40.15 1288.97,-42.55 1185.66,-20.02"/>
<polygon fill="midnightblue" stroke="midnightblue" points="1186.28,-16.58 1175.76,-17.84 1184.77,-23.41 1186.28,-16.58"/>
</g>
<!-- Node26 -->
<g id="node26" class="node">
<title>Node26</title>
<g id="a_node26"><a xlink:title=" ">
<polygon fill="white" stroke="#bfbfbf" points="1712.5,-0.5 1712.5,-19.5 1768.5,-19.5 1768.5,-0.5 1712.5,-0.5"/>
<text text-anchor="middle" x="1740.5" y="-7.5" font-family="Helvetica,sans-Serif" font-size="10.00">Python.h</text>
</a>
</g>
</g>
<!-- Node25&#45;&gt;Node26 -->
<g id="edge26" class="edge">
<title>Node25&#45;&gt;Node26</title>
<path fill="none" stroke="midnightblue" d="M1516.4,-57.35C1560.34,-49.19 1631.64,-35.6 1702.29,-20.19"/>
<polygon fill="midnightblue" stroke="midnightblue" points="1703.23,-23.57 1712.25,-18.01 1701.73,-16.73 1703.23,-23.57"/>
</g>
<!-- Node27 -->
<g id="node27" class="node">
<title>Node27</title>
<g id="a_node27"><a xlink:title=" ">
<polygon fill="white" stroke="#bfbfbf" points="1194,-0.5 1194,-19.5 1229,-19.5 1229,-0.5 1194,-0.5"/>
<text text-anchor="middle" x="1211.5" y="-7.5" font-family="Helvetica,sans-Serif" font-size="10.00">map</text>
</a>
</g>
</g>
<!-- Node25&#45;&gt;Node27 -->
<g id="edge28" class="edge">
<title>Node25&#45;&gt;Node27</title>
<path fill="none" stroke="midnightblue" d="M1432.61,-57.71C1378.87,-48.24 1287.68,-31.77 1238.86,-19.74"/>
<polygon fill="midnightblue" stroke="midnightblue" points="1239.67,-16.34 1229.12,-17.25 1237.94,-23.12 1239.67,-16.34"/>
</g>
<!-- Node28 -->
<g id="node28" class="node">
<title>Node28</title>
<g id="a_node28"><a xlink:title=" ">
<polygon fill="white" stroke="#bfbfbf" points="1247.5,-0.5 1247.5,-19.5 1285.5,-19.5 1285.5,-0.5 1247.5,-0.5"/>
<text text-anchor="middle" x="1266.5" y="-7.5" font-family="Helvetica,sans-Serif" font-size="10.00">array</text>
</a>
</g>
</g>
<!-- Node25&#45;&gt;Node28 -->
<g id="edge29" class="edge">
<title>Node25&#45;&gt;Node28</title>
<path fill="none" stroke="midnightblue" d="M1437.42,-56.49C1402.97,-48.41 1350.02,-35.57 1295.55,-20.17"/>
<polygon fill="midnightblue" stroke="midnightblue" points="1296.31,-16.74 1285.73,-17.36 1294.39,-23.47 1296.31,-16.74"/>
</g>
<!-- Node29 -->
<g id="node29" class="node">
<title>Node29</title>
<g id="a_node29"><a xlink:title=" ">
<polygon fill="white" stroke="#bfbfbf" points="1304,-0.5 1304,-19.5 1355,-19.5 1355,-0.5 1304,-0.5"/>
<text text-anchor="middle" x="1329.5" y="-7.5" font-family="Helvetica,sans-Serif" font-size="10.00">numeric</text>
</a>
</g>
</g>
<!-- Node25&#45;&gt;Node29 -->
<g id="edge30" class="edge">
<title>Node25&#45;&gt;Node29</title>
<path fill="none" stroke="midnightblue" d="M1451.52,-56.44C1427.34,-47.44 1389.08,-33.19 1361.85,-23.05"/>
<polygon fill="midnightblue" stroke="midnightblue" points="1362.96,-19.73 1352.37,-19.52 1360.52,-26.29 1362.96,-19.73"/>
</g>
<!-- Node30 -->
<g id="node30" class="node">
<title>Node30</title>
<g id="a_node30"><a xlink:title=" ">
<polygon fill="white" stroke="#bfbfbf" points="1373.5,-0.5 1373.5,-19.5 1429.5,-19.5 1429.5,-0.5 1373.5,-0.5"/>
<text text-anchor="middle" x="1401.5" y="-7.5" font-family="Helvetica,sans-Serif" font-size="10.00">algorithm</text>
</a>
</g>
</g>
<!-- Node25&#45;&gt;Node30 -->
<g id="edge31" class="edge">
<title>Node25&#45;&gt;Node30</title>
<path fill="none" stroke="midnightblue" d="M1462.77,-56.32C1451.66,-48.11 1434.76,-35.6 1421.52,-25.81"/>
<polygon fill="midnightblue" stroke="midnightblue" points="1423.56,-22.97 1413.44,-19.83 1419.4,-28.59 1423.56,-22.97"/>
</g>
<!-- Node25&#45;&gt;Node31 -->
<g id="edge33" class="edge">
<title>Node25&#45;&gt;Node31</title>
<path fill="none" stroke="midnightblue" d="M1516.14,-60.48C1594.2,-51.92 1760.77,-33.13 1836.4,-19.96"/>
<polygon fill="midnightblue" stroke="midnightblue" points="1837.23,-23.36 1846.45,-18.14 1835.99,-16.47 1837.23,-23.36"/>
</g>
<!-- Node32 -->
<g id="node32" class="node">
<title>Node32</title>
<g id="a_node32"><a xlink:title=" ">
<polygon fill="white" stroke="#bfbfbf" points="1447.5,-0.5 1447.5,-19.5 1493.5,-19.5 1493.5,-0.5 1447.5,-0.5"/>
<text text-anchor="middle" x="1470.5" y="-7.5" font-family="Helvetica,sans-Serif" font-size="10.00">cstdint</text>
</a>
</g>
</g>
<!-- Node25&#45;&gt;Node32 -->
<g id="edge34" class="edge">
<title>Node25&#45;&gt;Node32</title>
<path fill="none" stroke="midnightblue" d="M1473.84,-56.08C1473.32,-49.01 1472.56,-38.86 1471.91,-29.99"/>
<polygon fill="midnightblue" stroke="midnightblue" points="1475.38,-29.47 1471.15,-19.75 1468.4,-29.98 1475.38,-29.47"/>
</g>
<!-- Node33 -->
<g id="node33" class="node">
<title>Node33</title>
<g id="a_node33"><a xlink:title=" ">
<polygon fill="white" stroke="#bfbfbf" points="1512,-0.5 1512,-19.5 1571,-19.5 1571,-0.5 1512,-0.5"/>
<text text-anchor="middle" x="1541.5" y="-7.5" font-family="Helvetica,sans-Serif" font-size="10.00">functional</text>
</a>
</g>
</g>
<!-- Node25&#45;&gt;Node33 -->
<g id="edge35" class="edge">
<title>Node25&#45;&gt;Node33</title>
<path fill="none" stroke="midnightblue" d="M1485.26,-56.32C1495.27,-48.26 1510.39,-36.08 1522.43,-26.37"/>
<polygon fill="midnightblue" stroke="midnightblue" points="1524.95,-28.83 1530.54,-19.83 1520.56,-23.38 1524.95,-28.83"/>
</g>
<!-- Node34 -->
<g id="node34" class="node">
<title>Node34</title>
<g id="a_node34"><a xlink:title=" ">
<polygon fill="white" stroke="#bfbfbf" points="1589,-0.5 1589,-19.5 1694,-19.5 1694,-0.5 1589,-0.5"/>
<text text-anchor="middle" x="1641.5" y="-7.5" font-family="Helvetica,sans-Serif" font-size="10.00">numpy/arrayobject.h</text>
</a>
</g>
</g>
<!-- Node25&#45;&gt;Node34 -->
<g id="edge37" class="edge">
<title>Node25&#45;&gt;Node34</title>
<path fill="none" stroke="midnightblue" d="M1500.96,-56.44C1529.18,-47.32 1574.04,-32.81 1605.47,-22.65"/>
<polygon fill="midnightblue" stroke="midnightblue" points="1606.72,-25.92 1615.16,-19.52 1604.57,-19.26 1606.72,-25.92"/>
</g>
</g>
</svg>
