<?xml version="1.0" encoding="UTF-8" standalone="no"?>
<!DOCTYPE svg PUBLIC "-//W3C//DTD SVG 1.1//EN"
 "http://www.w3.org/Graphics/SVG/1.1/DTD/svg11.dtd">
<!-- Generated by graphviz version 2.43.0 (0)
 -->
<!-- Title: mastersclient.cpp Pages: 1 -->
<svg width="2164pt" height="252pt"
 viewBox="0.00 0.00 2164.00 252.00" xmlns="http://www.w3.org/2000/svg" xmlns:xlink="http://www.w3.org/1999/xlink">
<g id="graph0" class="graph" transform="scale(1 1) rotate(0) translate(4 248)">
<title>mastersclient.cpp</title>
<polygon fill="white" stroke="transparent" points="-4,4 -4,-248 2160,-248 2160,4 -4,4"/>
<!-- Node1 -->
<g id="node1" class="node">
<title>Node1</title>
<g id="a_node1"><a xlink:title="The code is executed on this Turtle.">
<polygon fill="#bfbfbf" stroke="black" points="1869.5,-224.5 1869.5,-243.5 1963.5,-243.5 1963.5,-224.5 1869.5,-224.5"/>
<text text-anchor="middle" x="1916.5" y="-231.5" font-family="Helvetica,sans-Serif" font-size="10.00">mastersclient.cpp</text>
</a>
</g>
</g>
<!-- Node2 -->
<g id="node2" class="node">
<title>Node2</title>
<g id="a_node2"><a xlink:href="mastersclient_8h.html" target="_top" xlink:title=" ">
<polygon fill="white" stroke="black" points="1324,-168.5 1324,-187.5 1441,-187.5 1441,-168.5 1324,-168.5"/>
<text text-anchor="middle" x="1382.5" y="-175.5" font-family="Helvetica,sans-Serif" font-size="10.00">include/mastersclient.h</text>
</a>
</g>
</g>
<!-- Node1&#45;&gt;Node2 -->
<g id="edge1" class="edge">
<title>Node1&#45;&gt;Node2</title>
<path fill="none" stroke="midnightblue" d="M1869.11,-228.21C1774.43,-218.63 1561.54,-197.11 1451.41,-185.97"/>
<polygon fill="midnightblue" stroke="midnightblue" points="1451.71,-182.48 1441.41,-184.96 1451,-189.45 1451.71,-182.48"/>
</g>
<!-- Node30 -->
<g id="node30" class="node">
<title>Node30</title>
<g id="a_node30"><a xlink:title=" ">
<polygon fill="white" stroke="#bfbfbf" points="1846.5,-0.5 1846.5,-19.5 1900.5,-19.5 1900.5,-0.5 1846.5,-0.5"/>
<text text-anchor="middle" x="1873.5" y="-7.5" font-family="Helvetica,sans-Serif" font-size="10.00">iostream</text>
</a>
</g>
</g>
<!-- Node1&#45;&gt;Node30 -->
<g id="edge49" class="edge">
<title>Node1&#45;&gt;Node30</title>
<path fill="none" stroke="midnightblue" d="M1902.42,-224.26C1891.15,-216.35 1876.15,-203.58 1869.5,-188 1846.51,-134.16 1859.94,-62.45 1868.33,-29.27"/>
<polygon fill="midnightblue" stroke="midnightblue" points="1871.72,-30.14 1870.92,-19.58 1864.96,-28.34 1871.72,-30.14"/>
</g>
<!-- Node35 -->
<g id="node35" class="node">
<title>Node35</title>
<g id="a_node35"><a xlink:title=" ">
<polygon fill="white" stroke="#bfbfbf" points="1776.5,-112.5 1776.5,-131.5 1822.5,-131.5 1822.5,-112.5 1776.5,-112.5"/>
<text text-anchor="middle" x="1799.5" y="-119.5" font-family="Helvetica,sans-Serif" font-size="10.00">chrono</text>
</a>
</g>
</g>
<!-- Node1&#45;&gt;Node35 -->
<g id="edge50" class="edge">
<title>Node1&#45;&gt;Node35</title>
<path fill="none" stroke="midnightblue" d="M1894.37,-224.46C1877.02,-216.91 1853.11,-204.52 1836.5,-188 1823,-174.57 1812.83,-155.2 1806.6,-141.1"/>
<polygon fill="midnightblue" stroke="midnightblue" points="1809.69,-139.42 1802.61,-131.53 1803.23,-142.11 1809.69,-139.42"/>
</g>
<!-- Node37 -->
<g id="node37" class="node">
<title>Node37</title>
<g id="a_node37"><a xlink:title=" ">
<polygon fill="white" stroke="#bfbfbf" points="1878.5,-168.5 1878.5,-187.5 1954.5,-187.5 1954.5,-168.5 1878.5,-168.5"/>
<text text-anchor="middle" x="1916.5" y="-175.5" font-family="Helvetica,sans-Serif" font-size="10.00">friLBRState.h</text>
</a>
</g>
</g>
<!-- Node1&#45;&gt;Node37 -->
<g id="edge45" class="edge">
<title>Node1&#45;&gt;Node37</title>
<path fill="none" stroke="midnightblue" d="M1916.5,-224.08C1916.5,-217.01 1916.5,-206.86 1916.5,-197.99"/>
<polygon fill="midnightblue" stroke="midnightblue" points="1920,-197.75 1916.5,-187.75 1913,-197.75 1920,-197.75"/>
</g>
<!-- Node38 -->
<g id="node38" class="node">
<title>Node38</title>
<g id="a_node38"><a xlink:title=" ">
<polygon fill="white" stroke="#bfbfbf" points="1972.5,-168.5 1972.5,-187.5 2016.5,-187.5 2016.5,-168.5 1972.5,-168.5"/>
<text text-anchor="middle" x="1994.5" y="-175.5" font-family="Helvetica,sans-Serif" font-size="10.00">cmath</text>
</a>
</g>
</g>
<!-- Node1&#45;&gt;Node38 -->
<g id="edge46" class="edge">
<title>Node1&#45;&gt;Node38</title>
<path fill="none" stroke="midnightblue" d="M1929.03,-224.32C1941.09,-215.98 1959.53,-203.21 1973.77,-193.35"/>
<polygon fill="midnightblue" stroke="midnightblue" points="1975.77,-196.22 1982,-187.65 1971.78,-190.47 1975.77,-196.22"/>
</g>
<!-- Node39 -->
<g id="node39" class="node">
<title>Node39</title>
<g id="a_node39"><a xlink:title=" ">
<polygon fill="white" stroke="#bfbfbf" points="2034.5,-168.5 2034.5,-187.5 2096.5,-187.5 2096.5,-168.5 2034.5,-168.5"/>
<text text-anchor="middle" x="2065.5" y="-175.5" font-family="Helvetica,sans-Serif" font-size="10.00">filesystem</text>
</a>
</g>
</g>
<!-- Node1&#45;&gt;Node39 -->
<g id="edge47" class="edge">
<title>Node1&#45;&gt;Node39</title>
<path fill="none" stroke="midnightblue" d="M1940.11,-224.44C1964.96,-215.44 2004.27,-201.19 2032.25,-191.05"/>
<polygon fill="midnightblue" stroke="midnightblue" points="2033.79,-194.21 2042,-187.52 2031.41,-187.63 2033.79,-194.21"/>
</g>
<!-- Node40 -->
<g id="node40" class="node">
<title>Node40</title>
<g id="a_node40"><a xlink:title=" ">
<polygon fill="white" stroke="#bfbfbf" points="2115,-168.5 2115,-187.5 2156,-187.5 2156,-168.5 2115,-168.5"/>
<text text-anchor="middle" x="2135.5" y="-175.5" font-family="Helvetica,sans-Serif" font-size="10.00">future</text>
</a>
</g>
</g>
<!-- Node1&#45;&gt;Node40 -->
<g id="edge48" class="edge">
<title>Node1&#45;&gt;Node40</title>
<path fill="none" stroke="midnightblue" d="M1955.4,-224.43C1991.63,-216.29 2047.36,-203.39 2104.89,-188.04"/>
<polygon fill="midnightblue" stroke="midnightblue" points="2106.14,-191.33 2114.89,-185.35 2104.32,-184.57 2106.14,-191.33"/>
</g>
<!-- Node3 -->
<g id="node3" class="node">
<title>Node3</title>
<g id="a_node3"><a xlink:title=" ">
<polygon fill="white" stroke="#bfbfbf" points="1190.5,-112.5 1190.5,-131.5 1268.5,-131.5 1268.5,-112.5 1190.5,-112.5"/>
<text text-anchor="middle" x="1229.5" y="-119.5" font-family="Helvetica,sans-Serif" font-size="10.00">friLBRClient.h</text>
</a>
</g>
</g>
<!-- Node2&#45;&gt;Node3 -->
<g id="edge2" class="edge">
<title>Node2&#45;&gt;Node3</title>
<path fill="none" stroke="midnightblue" d="M1358.26,-168.44C1332.63,-159.4 1292.01,-145.06 1263.26,-134.92"/>
<polygon fill="midnightblue" stroke="midnightblue" points="1264.22,-131.54 1253.63,-131.52 1261.89,-138.15 1264.22,-131.54"/>
</g>
<!-- Node4 -->
<g id="node4" class="node">
<title>Node4</title>
<g id="a_node4"><a xlink:href="robot_model_8h.html" target="_top" xlink:title="Definition of the robotModel class.">
<polygon fill="white" stroke="black" points="614,-112.5 614,-131.5 687,-131.5 687,-112.5 614,-112.5"/>
<text text-anchor="middle" x="650.5" y="-119.5" font-family="Helvetica,sans-Serif" font-size="10.00">robotModel.h</text>
</a>
</g>
</g>
<!-- Node2&#45;&gt;Node4 -->
<g id="edge3" class="edge">
<title>Node2&#45;&gt;Node4</title>
<path fill="none" stroke="midnightblue" d="M1323.83,-172.67C1182.6,-162.25 825.9,-135.94 697.48,-126.47"/>
<polygon fill="midnightblue" stroke="midnightblue" points="697.43,-122.95 687.2,-125.71 696.91,-129.93 697.43,-122.95"/>
</g>
<!-- Node19 -->
<g id="node19" class="node">
<title>Node19</title>
<g id="a_node19"><a xlink:title=" ">
<polygon fill="white" stroke="#bfbfbf" points="1787,-0.5 1787,-19.5 1828,-19.5 1828,-0.5 1787,-0.5"/>
<text text-anchor="middle" x="1807.5" y="-7.5" font-family="Helvetica,sans-Serif" font-size="10.00">string</text>
</a>
</g>
</g>
<!-- Node2&#45;&gt;Node19 -->
<g id="edge19" class="edge">
<title>Node2&#45;&gt;Node19</title>
<path fill="none" stroke="midnightblue" d="M1438.58,-168.46C1509.7,-155.93 1634.5,-128.18 1729.5,-76 1753.49,-62.83 1777.07,-41.73 1791.91,-27.16"/>
<polygon fill="midnightblue" stroke="midnightblue" points="1794.63,-29.38 1799.21,-19.83 1789.67,-24.45 1794.63,-29.38"/>
</g>
<!-- Node20 -->
<g id="node20" class="node">
<title>Node20</title>
<g id="a_node20"><a xlink:title=" ">
<polygon fill="white" stroke="#bfbfbf" points="1324.5,-56.5 1324.5,-75.5 1376.5,-75.5 1376.5,-56.5 1324.5,-56.5"/>
<text text-anchor="middle" x="1350.5" y="-63.5" font-family="Helvetica,sans-Serif" font-size="10.00">memory</text>
</a>
</g>
</g>
<!-- Node2&#45;&gt;Node20 -->
<g id="edge20" class="edge">
<title>Node2&#45;&gt;Node20</title>
<path fill="none" stroke="midnightblue" d="M1379.99,-168.37C1374.8,-150.54 1362.8,-109.3 1355.82,-85.27"/>
<polygon fill="midnightblue" stroke="midnightblue" points="1359.15,-84.22 1353,-75.59 1352.43,-86.17 1359.15,-84.22"/>
</g>
<!-- Node21 -->
<g id="node21" class="node">
<title>Node21</title>
<g id="a_node21"><a xlink:title=" ">
<polygon fill="white" stroke="#bfbfbf" points="1131.5,-0.5 1131.5,-19.5 1175.5,-19.5 1175.5,-0.5 1131.5,-0.5"/>
<text text-anchor="middle" x="1153.5" y="-7.5" font-family="Helvetica,sans-Serif" font-size="10.00">vector</text>
</a>
</g>
</g>
<!-- Node2&#45;&gt;Node21 -->
<g id="edge21" class="edge">
<title>Node2&#45;&gt;Node21</title>
<path fill="none" stroke="midnightblue" d="M1377.25,-168.35C1363.55,-146.46 1324.49,-88.29 1277.5,-56 1262.21,-45.5 1216.63,-30.27 1185.21,-20.5"/>
<polygon fill="midnightblue" stroke="midnightblue" points="1186.15,-17.13 1175.56,-17.53 1184.09,-23.82 1186.15,-17.13"/>
</g>
<!-- Node22 -->
<g id="node22" class="node">
<title>Node22</title>
<g id="a_node22"><a xlink:title=" ">
<polygon fill="white" stroke="#bfbfbf" points="1677,-56.5 1677,-75.5 1720,-75.5 1720,-56.5 1677,-56.5"/>
<text text-anchor="middle" x="1698.5" y="-63.5" font-family="Helvetica,sans-Serif" font-size="10.00">queue</text>
</a>
</g>
</g>
<!-- Node2&#45;&gt;Node22 -->
<g id="edge22" class="edge">
<title>Node2&#45;&gt;Node22</title>
<path fill="none" stroke="midnightblue" d="M1407.03,-168.46C1463.76,-148.71 1603.97,-99.91 1666.96,-77.98"/>
<polygon fill="midnightblue" stroke="midnightblue" points="1668.45,-81.17 1676.74,-74.57 1666.14,-74.56 1668.45,-81.17"/>
</g>
<!-- Node23 -->
<g id="node23" class="node">
<title>Node23</title>
<g id="a_node23"><a xlink:href="plot_master_8h.html" target="_top" xlink:title=" ">
<polygon fill="white" stroke="black" points="1409.5,-112.5 1409.5,-131.5 1479.5,-131.5 1479.5,-112.5 1409.5,-112.5"/>
<text text-anchor="middle" x="1444.5" y="-119.5" font-family="Helvetica,sans-Serif" font-size="10.00">plotMaster.h</text>
</a>
</g>
</g>
<!-- Node2&#45;&gt;Node23 -->
<g id="edge23" class="edge">
<title>Node2&#45;&gt;Node23</title>
<path fill="none" stroke="midnightblue" d="M1392.46,-168.32C1401.63,-160.34 1415.44,-148.31 1426.53,-138.65"/>
<polygon fill="midnightblue" stroke="midnightblue" points="1429.12,-141.04 1434.36,-131.83 1424.52,-135.76 1429.12,-141.04"/>
</g>
<!-- Node2&#45;&gt;Node35 -->
<g id="edge43" class="edge">
<title>Node2&#45;&gt;Node35</title>
<path fill="none" stroke="midnightblue" d="M1441.09,-172.27C1516,-165.72 1649.55,-152.35 1762.5,-132 1763.78,-131.77 1765.08,-131.52 1766.4,-131.26"/>
<polygon fill="midnightblue" stroke="midnightblue" points="1767.48,-134.61 1776.5,-129.05 1765.98,-127.77 1767.48,-134.61"/>
</g>
<!-- Node36 -->
<g id="node36" class="node">
<title>Node36</title>
<g id="a_node36"><a xlink:title=" ">
<polygon fill="white" stroke="#bfbfbf" points="1128.5,-112.5 1128.5,-131.5 1172.5,-131.5 1172.5,-112.5 1128.5,-112.5"/>
<text text-anchor="middle" x="1150.5" y="-119.5" font-family="Helvetica,sans-Serif" font-size="10.00">mutex</text>
</a>
</g>
</g>
<!-- Node2&#45;&gt;Node36 -->
<g id="edge44" class="edge">
<title>Node2&#45;&gt;Node36</title>
<path fill="none" stroke="midnightblue" d="M1340.74,-168.44C1302.11,-160.35 1242.88,-147.5 1182.84,-132.23"/>
<polygon fill="midnightblue" stroke="midnightblue" points="1183.36,-128.75 1172.81,-129.66 1181.62,-135.53 1183.36,-128.75"/>
</g>
<!-- Node5 -->
<g id="node5" class="node">
<title>Node5</title>
<g id="a_node5"><a xlink:title=" ">
<polygon fill="white" stroke="#bfbfbf" points="492,-56.5 492,-75.5 593,-75.5 593,-56.5 492,-56.5"/>
<text text-anchor="middle" x="542.5" y="-63.5" font-family="Helvetica,sans-Serif" font-size="10.00">rl/mdl/XmlFactory.h</text>
</a>
</g>
</g>
<!-- Node4&#45;&gt;Node5 -->
<g id="edge4" class="edge">
<title>Node4&#45;&gt;Node5</title>
<path fill="none" stroke="midnightblue" d="M633.15,-112.32C615.83,-103.66 588.98,-90.24 569,-80.25"/>
<polygon fill="midnightblue" stroke="midnightblue" points="570.32,-77 559.81,-75.65 567.19,-83.26 570.32,-77"/>
</g>
<!-- Node6 -->
<g id="node6" class="node">
<title>Node6</title>
<g id="a_node6"><a xlink:title=" ">
<polygon fill="white" stroke="#bfbfbf" points="611.5,-56.5 611.5,-75.5 689.5,-75.5 689.5,-56.5 611.5,-56.5"/>
<text text-anchor="middle" x="650.5" y="-63.5" font-family="Helvetica,sans-Serif" font-size="10.00">rl/mdl/Model.h</text>
</a>
</g>
</g>
<!-- Node4&#45;&gt;Node6 -->
<g id="edge5" class="edge">
<title>Node4&#45;&gt;Node6</title>
<path fill="none" stroke="midnightblue" d="M650.5,-112.08C650.5,-105.01 650.5,-94.86 650.5,-85.99"/>
<polygon fill="midnightblue" stroke="midnightblue" points="654,-85.75 650.5,-75.75 647,-85.75 654,-85.75"/>
</g>
<!-- Node7 -->
<g id="node7" class="node">
<title>Node7</title>
<g id="a_node7"><a xlink:title=" ">
<polygon fill="white" stroke="#bfbfbf" points="1192.5,-56.5 1192.5,-75.5 1268.5,-75.5 1268.5,-56.5 1192.5,-56.5"/>
<text text-anchor="middle" x="1230.5" y="-63.5" font-family="Helvetica,sans-Serif" font-size="10.00">rl/math/Unit.h</text>
</a>
</g>
</g>
<!-- Node4&#45;&gt;Node7 -->
<g id="edge6" class="edge">
<title>Node4&#45;&gt;Node7</title>
<path fill="none" stroke="midnightblue" d="M687.08,-119.18C772.07,-114.68 989.59,-101.6 1182.28,-75.87"/>
<polygon fill="midnightblue" stroke="midnightblue" points="1182.86,-79.33 1192.3,-74.52 1181.93,-72.39 1182.86,-79.33"/>
</g>
<!-- Node8 -->
<g id="node8" class="node">
<title>Node8</title>
<g id="a_node8"><a xlink:title=" ">
<polygon fill="white" stroke="#bfbfbf" points="12.5,-0.5 12.5,-19.5 114.5,-19.5 114.5,-0.5 12.5,-0.5"/>
<text text-anchor="middle" x="63.5" y="-7.5" font-family="Helvetica,sans-Serif" font-size="10.00">rl/math/Transform.h</text>
</a>
</g>
</g>
<!-- Node4&#45;&gt;Node8 -->
<g id="edge7" class="edge">
<title>Node4&#45;&gt;Node8</title>
<path fill="none" stroke="midnightblue" d="M613.76,-119.66C499.63,-115.25 156.2,-100.11 112.5,-76 93.42,-65.47 79.54,-44.04 71.53,-28.66"/>
<polygon fill="midnightblue" stroke="midnightblue" points="74.64,-27.06 67.11,-19.61 68.35,-30.13 74.64,-27.06"/>
</g>
<!-- Node9 -->
<g id="node9" class="node">
<title>Node9</title>
<g id="a_node9"><a xlink:title=" ">
<polygon fill="white" stroke="#bfbfbf" points="708,-56.5 708,-75.5 803,-75.5 803,-56.5 708,-56.5"/>
<text text-anchor="middle" x="755.5" y="-63.5" font-family="Helvetica,sans-Serif" font-size="10.00">rl/mdl/Kinematic.h</text>
</a>
</g>
</g>
<!-- Node4&#45;&gt;Node9 -->
<g id="edge8" class="edge">
<title>Node4&#45;&gt;Node9</title>
<path fill="none" stroke="midnightblue" d="M667.37,-112.32C684.21,-103.66 710.31,-90.24 729.74,-80.25"/>
<polygon fill="midnightblue" stroke="midnightblue" points="731.38,-83.34 738.67,-75.65 728.18,-77.12 731.38,-83.34"/>
</g>
<!-- Node10 -->
<g id="node10" class="node">
<title>Node10</title>
<g id="a_node10"><a xlink:title=" ">
<polygon fill="white" stroke="#bfbfbf" points="821,-56.5 821,-75.5 912,-75.5 912,-56.5 821,-56.5"/>
<text text-anchor="middle" x="866.5" y="-63.5" font-family="Helvetica,sans-Serif" font-size="10.00">rl/mdl/Dynamic.h</text>
</a>
</g>
</g>
<!-- Node4&#45;&gt;Node10 -->
<g id="edge9" class="edge">
<title>Node4&#45;&gt;Node10</title>
<path fill="none" stroke="midnightblue" d="M684.73,-112.44C722.01,-103.12 781.77,-88.18 822.51,-78"/>
<polygon fill="midnightblue" stroke="midnightblue" points="823.58,-81.34 832.43,-75.52 821.88,-74.55 823.58,-81.34"/>
</g>
<!-- Node11 -->
<g id="node11" class="node">
<title>Node11</title>
<g id="a_node11"><a xlink:href="lbr__struct_8h.html" target="_top" xlink:title=" ">
<polygon fill="white" stroke="black" points="0,-56.5 0,-75.5 65,-75.5 65,-56.5 0,-56.5"/>
<text text-anchor="middle" x="32.5" y="-63.5" font-family="Helvetica,sans-Serif" font-size="10.00">lbr_struct.h</text>
</a>
</g>
</g>
<!-- Node4&#45;&gt;Node11 -->
<g id="edge10" class="edge">
<title>Node4&#45;&gt;Node11</title>
<path fill="none" stroke="midnightblue" d="M613.94,-119.52C523.17,-115.55 280.29,-103.05 79.5,-76 78.03,-75.8 76.54,-75.59 75.04,-75.36"/>
<polygon fill="midnightblue" stroke="midnightblue" points="75.48,-71.89 65.04,-73.71 74.34,-78.79 75.48,-71.89"/>
</g>
<!-- Node12 -->
<g id="node12" class="node">
<title>Node12</title>
<g id="a_node12"><a xlink:title=" ">
<polygon fill="white" stroke="#bfbfbf" points="1047,-0.5 1047,-19.5 1106,-19.5 1106,-0.5 1047,-0.5"/>
<text text-anchor="middle" x="1076.5" y="-7.5" font-family="Helvetica,sans-Serif" font-size="10.00">stdexcept</text>
</a>
</g>
</g>
<!-- Node4&#45;&gt;Node12 -->
<g id="edge12" class="edge">
<title>Node4&#45;&gt;Node12</title>
<path fill="none" stroke="midnightblue" d="M687.32,-121.72C775.83,-122.7 997.4,-120.54 1053.5,-76 1067.4,-64.97 1072.91,-44.92 1075.09,-30"/>
<polygon fill="midnightblue" stroke="midnightblue" points="1078.6,-30.14 1076.19,-19.82 1071.64,-29.38 1078.6,-30.14"/>
</g>
<!-- Node13 -->
<g id="node13" class="node">
<title>Node13</title>
<g id="a_node13"><a xlink:title=" ">
<polygon fill="white" stroke="#bfbfbf" points="930.5,-56.5 930.5,-75.5 1044.5,-75.5 1044.5,-56.5 930.5,-56.5"/>
<text text-anchor="middle" x="987.5" y="-63.5" font-family="Helvetica,sans-Serif" font-size="10.00">boost/lexical_cast.hpp</text>
</a>
</g>
</g>
<!-- Node4&#45;&gt;Node13 -->
<g id="edge13" class="edge">
<title>Node4&#45;&gt;Node13</title>
<path fill="none" stroke="midnightblue" d="M687.21,-115.12C744.11,-106 854.35,-88.34 924.26,-77.13"/>
<polygon fill="midnightblue" stroke="midnightblue" points="924.95,-80.57 934.27,-75.53 923.84,-73.66 924.95,-80.57"/>
</g>
<!-- Node14 -->
<g id="node14" class="node">
<title>Node14</title>
<g id="a_node14"><a xlink:title=" ">
<polygon fill="white" stroke="#bfbfbf" points="1101,-56.5 1101,-75.5 1174,-75.5 1174,-56.5 1101,-56.5"/>
<text text-anchor="middle" x="1137.5" y="-63.5" font-family="Helvetica,sans-Serif" font-size="10.00">rl/mdl/Body.h</text>
</a>
</g>
</g>
<!-- Node4&#45;&gt;Node14 -->
<g id="edge14" class="edge">
<title>Node4&#45;&gt;Node14</title>
<path fill="none" stroke="midnightblue" d="M687.07,-118.12C762.13,-112.01 938.97,-96.6 1086.5,-76 1087.95,-75.8 1089.42,-75.59 1090.9,-75.36"/>
<polygon fill="midnightblue" stroke="midnightblue" points="1091.45,-78.82 1100.78,-73.8 1090.36,-71.91 1091.45,-78.82"/>
</g>
<!-- Node15 -->
<g id="node15" class="node">
<title>Node15</title>
<g id="a_node15"><a xlink:title=" ">
<polygon fill="white" stroke="#bfbfbf" points="121.5,-56.5 121.5,-75.5 197.5,-75.5 197.5,-56.5 121.5,-56.5"/>
<text text-anchor="middle" x="159.5" y="-63.5" font-family="Helvetica,sans-Serif" font-size="10.00">rl/mdl/Fixed.h</text>
</a>
</g>
</g>
<!-- Node4&#45;&gt;Node15 -->
<g id="edge15" class="edge">
<title>Node4&#45;&gt;Node15</title>
<path fill="none" stroke="midnightblue" d="M613.82,-118.38C539.3,-112.83 364.67,-98.61 207.97,-76.1"/>
<polygon fill="midnightblue" stroke="midnightblue" points="208.07,-72.58 197.67,-74.6 207.06,-79.5 208.07,-72.58"/>
</g>
<!-- Node16 -->
<g id="node16" class="node">
<title>Node16</title>
<g id="a_node16"><a xlink:title=" ">
<polygon fill="white" stroke="#bfbfbf" points="215.5,-56.5 215.5,-75.5 295.5,-75.5 295.5,-56.5 215.5,-56.5"/>
<text text-anchor="middle" x="255.5" y="-63.5" font-family="Helvetica,sans-Serif" font-size="10.00">rl/mdl/Frame.h</text>
</a>
</g>
</g>
<!-- Node4&#45;&gt;Node16 -->
<g id="edge16" class="edge">
<title>Node4&#45;&gt;Node16</title>
<path fill="none" stroke="midnightblue" d="M613.79,-116.87C552.24,-109.79 424.11,-94.48 305.56,-76.1"/>
<polygon fill="midnightblue" stroke="midnightblue" points="306,-72.62 295.58,-74.54 304.92,-79.54 306,-72.62"/>
</g>
<!-- Node17 -->
<g id="node17" class="node">
<title>Node17</title>
<g id="a_node17"><a xlink:title=" ">
<polygon fill="white" stroke="#bfbfbf" points="314,-56.5 314,-75.5 405,-75.5 405,-56.5 314,-56.5"/>
<text text-anchor="middle" x="359.5" y="-63.5" font-family="Helvetica,sans-Serif" font-size="10.00">rl/mdl/Revolute.h</text>
</a>
</g>
</g>
<!-- Node4&#45;&gt;Node17 -->
<g id="edge17" class="edge">
<title>Node4&#45;&gt;Node17</title>
<path fill="none" stroke="midnightblue" d="M613.94,-114.22C563.97,-104.94 473.89,-88.23 415.41,-77.38"/>
<polygon fill="midnightblue" stroke="midnightblue" points="415.71,-73.87 405.24,-75.49 414.43,-80.75 415.71,-73.87"/>
</g>
<!-- Node18 -->
<g id="node18" class="node">
<title>Node18</title>
<g id="a_node18"><a xlink:title=" ">
<polygon fill="white" stroke="#bfbfbf" points="423.5,-56.5 423.5,-75.5 473.5,-75.5 473.5,-56.5 423.5,-56.5"/>
<text text-anchor="middle" x="448.5" y="-63.5" font-family="Helvetica,sans-Serif" font-size="10.00">iomanip</text>
</a>
</g>
</g>
<!-- Node4&#45;&gt;Node18 -->
<g id="edge18" class="edge">
<title>Node4&#45;&gt;Node18</title>
<path fill="none" stroke="midnightblue" d="M618.49,-112.44C581.78,-102.63 521.78,-86.59 483.76,-76.43"/>
<polygon fill="midnightblue" stroke="midnightblue" points="484.22,-72.93 473.66,-73.73 482.41,-79.69 484.22,-72.93"/>
</g>
<!-- Node11&#45;&gt;Node8 -->
<g id="edge11" class="edge">
<title>Node11&#45;&gt;Node8</title>
<path fill="none" stroke="midnightblue" d="M37.62,-56.08C41.91,-48.61 48.16,-37.72 53.44,-28.52"/>
<polygon fill="midnightblue" stroke="midnightblue" points="56.53,-30.17 58.48,-19.75 50.46,-26.68 56.53,-30.17"/>
</g>
<!-- Node23&#45;&gt;Node7 -->
<g id="edge41" class="edge">
<title>Node23&#45;&gt;Node7</title>
<path fill="none" stroke="midnightblue" d="M1410.59,-112.44C1373.65,-103.12 1314.45,-88.18 1274.08,-78"/>
<polygon fill="midnightblue" stroke="midnightblue" points="1274.8,-74.57 1264.25,-75.52 1273.09,-81.36 1274.8,-74.57"/>
</g>
<!-- Node23&#45;&gt;Node19 -->
<g id="edge37" class="edge">
<title>Node23&#45;&gt;Node19</title>
<path fill="none" stroke="midnightblue" d="M1459.7,-112.33C1489.29,-95.5 1552.66,-59.75 1563.5,-56 1651.7,-25.46 1681.64,-40.83 1777.17,-19.77"/>
<polygon fill="midnightblue" stroke="midnightblue" points="1777.96,-23.17 1786.93,-17.54 1776.41,-16.35 1777.96,-23.17"/>
</g>
<!-- Node23&#45;&gt;Node20 -->
<g id="edge38" class="edge">
<title>Node23&#45;&gt;Node20</title>
<path fill="none" stroke="midnightblue" d="M1429.4,-112.32C1414.6,-103.82 1391.81,-90.73 1374.52,-80.8"/>
<polygon fill="midnightblue" stroke="midnightblue" points="1375.98,-77.6 1365.57,-75.65 1372.49,-83.67 1375.98,-77.6"/>
</g>
<!-- Node23&#45;&gt;Node21 -->
<g id="edge39" class="edge">
<title>Node23&#45;&gt;Node21</title>
<path fill="none" stroke="midnightblue" d="M1439.24,-112.16C1430.21,-97.82 1410.3,-69.73 1385.5,-56 1308.89,-13.6 1275.26,-38.76 1185.78,-20"/>
<polygon fill="midnightblue" stroke="midnightblue" points="1186.3,-16.53 1175.78,-17.77 1184.78,-23.36 1186.3,-16.53"/>
</g>
<!-- Node23&#45;&gt;Node22 -->
<g id="edge40" class="edge">
<title>Node23&#45;&gt;Node22</title>
<path fill="none" stroke="midnightblue" d="M1479.85,-114.81C1522.01,-107.22 1594.8,-93.46 1666.74,-76.01"/>
<polygon fill="midnightblue" stroke="midnightblue" points="1668,-79.31 1676.88,-73.53 1666.34,-72.51 1668,-79.31"/>
</g>
<!-- Node24 -->
<g id="node24" class="node">
<title>Node24</title>
<g id="a_node24"><a xlink:href="matplotlibcpp_8h.html" target="_top" xlink:title=" ">
<polygon fill="white" stroke="black" points="1433,-56.5 1433,-75.5 1516,-75.5 1516,-56.5 1433,-56.5"/>
<text text-anchor="middle" x="1474.5" y="-63.5" font-family="Helvetica,sans-Serif" font-size="10.00">matplotlibcpp.h</text>
</a>
</g>
</g>
<!-- Node23&#45;&gt;Node24 -->
<g id="edge24" class="edge">
<title>Node23&#45;&gt;Node24</title>
<path fill="none" stroke="midnightblue" d="M1449.45,-112.08C1453.6,-104.61 1459.65,-93.72 1464.77,-84.52"/>
<polygon fill="midnightblue" stroke="midnightblue" points="1467.84,-86.19 1469.64,-75.75 1461.72,-82.79 1467.84,-86.19"/>
</g>
<!-- Node34 -->
<g id="node34" class="node">
<title>Node34</title>
<g id="a_node34"><a xlink:title=" ">
<polygon fill="white" stroke="#bfbfbf" points="1572.5,-56.5 1572.5,-75.5 1658.5,-75.5 1658.5,-56.5 1572.5,-56.5"/>
<text text-anchor="middle" x="1615.5" y="-63.5" font-family="Helvetica,sans-Serif" font-size="10.00">rl/math/Vector.h</text>
</a>
</g>
</g>
<!-- Node23&#45;&gt;Node34 -->
<g id="edge42" class="edge">
<title>Node23&#45;&gt;Node34</title>
<path fill="none" stroke="midnightblue" d="M1471.6,-112.44C1500.49,-103.32 1546.42,-88.81 1578.61,-78.65"/>
<polygon fill="midnightblue" stroke="midnightblue" points="1580.05,-81.87 1588.53,-75.52 1577.94,-75.19 1580.05,-81.87"/>
</g>
<!-- Node24&#45;&gt;Node12 -->
<g id="edge31" class="edge">
<title>Node24&#45;&gt;Node12</title>
<path fill="none" stroke="midnightblue" d="M1432.92,-60.58C1366.93,-53.38 1234.26,-38.06 1122.5,-20 1120.43,-19.67 1118.31,-19.31 1116.17,-18.93"/>
<polygon fill="midnightblue" stroke="midnightblue" points="1116.61,-15.46 1106.14,-17.1 1115.35,-22.34 1116.61,-15.46"/>
</g>
<!-- Node24&#45;&gt;Node19 -->
<g id="edge35" class="edge">
<title>Node24&#45;&gt;Node19</title>
<path fill="none" stroke="midnightblue" d="M1516.08,-58.25C1520.94,-57.48 1525.83,-56.72 1530.5,-56 1637.05,-39.67 1667.48,-43.75 1777.15,-19.77"/>
<polygon fill="midnightblue" stroke="midnightblue" points="1777.94,-23.18 1786.95,-17.6 1776.43,-16.34 1777.94,-23.18"/>
</g>
<!-- Node24&#45;&gt;Node21 -->
<g id="edge26" class="edge">
<title>Node24&#45;&gt;Node21</title>
<path fill="none" stroke="midnightblue" d="M1432.92,-58.28C1428.06,-57.51 1423.17,-56.73 1418.5,-56 1317.7,-40.15 1288.97,-42.55 1185.66,-20.02"/>
<polygon fill="midnightblue" stroke="midnightblue" points="1186.28,-16.58 1175.76,-17.84 1184.77,-23.41 1186.28,-16.58"/>
</g>
<!-- Node25 -->
<g id="node25" class="node">
<title>Node25</title>
<g id="a_node25"><a xlink:title=" ">
<polygon fill="white" stroke="#bfbfbf" points="1712.5,-0.5 1712.5,-19.5 1768.5,-19.5 1768.5,-0.5 1712.5,-0.5"/>
<text text-anchor="middle" x="1740.5" y="-7.5" font-family="Helvetica,sans-Serif" font-size="10.00">Python.h</text>
</a>
</g>
</g>
<!-- Node24&#45;&gt;Node25 -->
<g id="edge25" class="edge">
<title>Node24&#45;&gt;Node25</title>
<path fill="none" stroke="midnightblue" d="M1516.2,-57.26C1561.99,-48.64 1637.64,-34.08 1702.5,-20 1702.6,-19.98 1702.7,-19.96 1702.8,-19.94"/>
<polygon fill="midnightblue" stroke="midnightblue" points="1703.31,-23.41 1712.31,-17.8 1701.78,-16.58 1703.31,-23.41"/>
</g>
<!-- Node26 -->
<g id="node26" class="node">
<title>Node26</title>
<g id="a_node26"><a xlink:title=" ">
<polygon fill="white" stroke="#bfbfbf" points="1194,-0.5 1194,-19.5 1229,-19.5 1229,-0.5 1194,-0.5"/>
<text text-anchor="middle" x="1211.5" y="-7.5" font-family="Helvetica,sans-Serif" font-size="10.00">map</text>
</a>
</g>
</g>
<!-- Node24&#45;&gt;Node26 -->
<g id="edge27" class="edge">
<title>Node24&#45;&gt;Node26</title>
<path fill="none" stroke="midnightblue" d="M1432.61,-57.71C1378.87,-48.24 1287.68,-31.77 1238.86,-19.74"/>
<polygon fill="midnightblue" stroke="midnightblue" points="1239.67,-16.34 1229.12,-17.25 1237.94,-23.12 1239.67,-16.34"/>
</g>
<!-- Node27 -->
<g id="node27" class="node">
<title>Node27</title>
<g id="a_node27"><a xlink:title=" ">
<polygon fill="white" stroke="#bfbfbf" points="1247.5,-0.5 1247.5,-19.5 1285.5,-19.5 1285.5,-0.5 1247.5,-0.5"/>
<text text-anchor="middle" x="1266.5" y="-7.5" font-family="Helvetica,sans-Serif" font-size="10.00">array</text>
</a>
</g>
</g>
<!-- Node24&#45;&gt;Node27 -->
<g id="edge28" class="edge">
<title>Node24&#45;&gt;Node27</title>
<path fill="none" stroke="midnightblue" d="M1437.42,-56.49C1402.97,-48.41 1350.02,-35.57 1295.55,-20.17"/>
<polygon fill="midnightblue" stroke="midnightblue" points="1296.31,-16.74 1285.73,-17.36 1294.39,-23.47 1296.31,-16.74"/>
</g>
<!-- Node28 -->
<g id="node28" class="node">
<title>Node28</title>
<g id="a_node28"><a xlink:title=" ">
<polygon fill="white" stroke="#bfbfbf" points="1304,-0.5 1304,-19.5 1355,-19.5 1355,-0.5 1304,-0.5"/>
<text text-anchor="middle" x="1329.5" y="-7.5" font-family="Helvetica,sans-Serif" font-size="10.00">numeric</text>
</a>
</g>
</g>
<!-- Node24&#45;&gt;Node28 -->
<g id="edge29" class="edge">
<title>Node24&#45;&gt;Node28</title>
<path fill="none" stroke="midnightblue" d="M1451.52,-56.44C1427.34,-47.44 1389.08,-33.19 1361.85,-23.05"/>
<polygon fill="midnightblue" stroke="midnightblue" points="1362.96,-19.73 1352.37,-19.52 1360.52,-26.29 1362.96,-19.73"/>
</g>
<!-- Node29 -->
<g id="node29" class="node">
<title>Node29</title>
<g id="a_node29"><a xlink:title=" ">
<polygon fill="white" stroke="#bfbfbf" points="1373.5,-0.5 1373.5,-19.5 1429.5,-19.5 1429.5,-0.5 1373.5,-0.5"/>
<text text-anchor="middle" x="1401.5" y="-7.5" font-family="Helvetica,sans-Serif" font-size="10.00">algorithm</text>
</a>
</g>
</g>
<!-- Node24&#45;&gt;Node29 -->
<g id="edge30" class="edge">
<title>Node24&#45;&gt;Node29</title>
<path fill="none" stroke="midnightblue" d="M1462.77,-56.32C1451.66,-48.11 1434.76,-35.6 1421.52,-25.81"/>
<polygon fill="midnightblue" stroke="midnightblue" points="1423.56,-22.97 1413.44,-19.83 1419.4,-28.59 1423.56,-22.97"/>
</g>
<!-- Node24&#45;&gt;Node30 -->
<g id="edge32" class="edge">
<title>Node24&#45;&gt;Node30</title>
<path fill="none" stroke="midnightblue" d="M1516.14,-60.48C1594.2,-51.92 1760.77,-33.13 1836.4,-19.96"/>
<polygon fill="midnightblue" stroke="midnightblue" points="1837.23,-23.36 1846.45,-18.14 1835.99,-16.47 1837.23,-23.36"/>
</g>
<!-- Node31 -->
<g id="node31" class="node">
<title>Node31</title>
<g id="a_node31"><a xlink:title=" ">
<polygon fill="white" stroke="#bfbfbf" points="1447.5,-0.5 1447.5,-19.5 1493.5,-19.5 1493.5,-0.5 1447.5,-0.5"/>
<text text-anchor="middle" x="1470.5" y="-7.5" font-family="Helvetica,sans-Serif" font-size="10.00">cstdint</text>
</a>
</g>
</g>
<!-- Node24&#45;&gt;Node31 -->
<g id="edge33" class="edge">
<title>Node24&#45;&gt;Node31</title>
<path fill="none" stroke="midnightblue" d="M1473.84,-56.08C1473.32,-49.01 1472.56,-38.86 1471.91,-29.99"/>
<polygon fill="midnightblue" stroke="midnightblue" points="1475.38,-29.47 1471.15,-19.75 1468.4,-29.98 1475.38,-29.47"/>
</g>
<!-- Node32 -->
<g id="node32" class="node">
<title>Node32</title>
<g id="a_node32"><a xlink:title=" ">
<polygon fill="white" stroke="#bfbfbf" points="1512,-0.5 1512,-19.5 1571,-19.5 1571,-0.5 1512,-0.5"/>
<text text-anchor="middle" x="1541.5" y="-7.5" font-family="Helvetica,sans-Serif" font-size="10.00">functional</text>
</a>
</g>
</g>
<!-- Node24&#45;&gt;Node32 -->
<g id="edge34" class="edge">
<title>Node24&#45;&gt;Node32</title>
<path fill="none" stroke="midnightblue" d="M1485.26,-56.32C1495.27,-48.26 1510.39,-36.08 1522.43,-26.37"/>
<polygon fill="midnightblue" stroke="midnightblue" points="1524.95,-28.83 1530.54,-19.83 1520.56,-23.38 1524.95,-28.83"/>
</g>
<!-- Node33 -->
<g id="node33" class="node">
<title>Node33</title>
<g id="a_node33"><a xlink:title=" ">
<polygon fill="white" stroke="#bfbfbf" points="1589,-0.5 1589,-19.5 1694,-19.5 1694,-0.5 1589,-0.5"/>
<text text-anchor="middle" x="1641.5" y="-7.5" font-family="Helvetica,sans-Serif" font-size="10.00">numpy/arrayobject.h</text>
</a>
</g>
</g>
<!-- Node24&#45;&gt;Node33 -->
<g id="edge36" class="edge">
<title>Node24&#45;&gt;Node33</title>
<path fill="none" stroke="midnightblue" d="M1500.96,-56.44C1529.18,-47.32 1574.04,-32.81 1605.47,-22.65"/>
<polygon fill="midnightblue" stroke="midnightblue" points="1606.72,-25.92 1615.16,-19.52 1604.57,-19.26 1606.72,-25.92"/>
</g>
</g>
</svg>
