<?xml version="1.0" encoding="UTF-8" standalone="no"?>
<!DOCTYPE svg PUBLIC "-//W3C//DTD SVG 1.1//EN"
 "http://www.w3.org/Graphics/SVG/1.1/DTD/svg11.dtd">
<!-- Generated by graphviz version 2.43.0 (0)
 -->
<!-- Title: mastersApp.cpp Pages: 1 -->
<svg width="1993pt" height="252pt"
 viewBox="0.00 0.00 1993.00 252.00" xmlns="http://www.w3.org/2000/svg" xmlns:xlink="http://www.w3.org/1999/xlink">
<g id="graph0" class="graph" transform="scale(1 1) rotate(0) translate(4 248)">
<title>mastersApp.cpp</title>
<polygon fill="white" stroke="transparent" points="-4,4 -4,-248 1989,-248 1989,4 -4,4"/>
<!-- Node1 -->
<g id="node1" class="node">
<title>Node1</title>
<g id="a_node1"><a xlink:title=" ">
<polygon fill="#bfbfbf" stroke="black" points="273.5,-224.5 273.5,-243.5 361.5,-243.5 361.5,-224.5 273.5,-224.5"/>
<text text-anchor="middle" x="317.5" y="-231.5" font-family="Helvetica,sans-Serif" font-size="10.00">mastersApp.cpp</text>
</a>
</g>
</g>
<!-- Node2 -->
<g id="node2" class="node">
<title>Node2</title>
<g id="a_node2"><a xlink:title=" ">
<polygon fill="white" stroke="#bfbfbf" points="0,-168.5 0,-187.5 45,-187.5 45,-168.5 0,-168.5"/>
<text text-anchor="middle" x="22.5" y="-175.5" font-family="Helvetica,sans-Serif" font-size="10.00">cstdlib</text>
</a>
</g>
</g>
<!-- Node1&#45;&gt;Node2 -->
<g id="edge1" class="edge">
<title>Node1&#45;&gt;Node2</title>
<path fill="none" stroke="midnightblue" d="M273.29,-227.03C222.66,-219.85 137.1,-206.67 55.09,-188.17"/>
<polygon fill="midnightblue" stroke="midnightblue" points="55.64,-184.7 45.11,-185.89 54.08,-191.53 55.64,-184.7"/>
</g>
<!-- Node3 -->
<g id="node3" class="node">
<title>Node3</title>
<g id="a_node3"><a xlink:title=" ">
<polygon fill="white" stroke="#bfbfbf" points="63,-168.5 63,-187.5 106,-187.5 106,-168.5 63,-168.5"/>
<text text-anchor="middle" x="84.5" y="-175.5" font-family="Helvetica,sans-Serif" font-size="10.00">cstdio</text>
</a>
</g>
</g>
<!-- Node1&#45;&gt;Node3 -->
<g id="edge2" class="edge">
<title>Node1&#45;&gt;Node3</title>
<path fill="none" stroke="midnightblue" d="M275.53,-224.46C236.63,-216.36 176.94,-203.48 115.93,-187.98"/>
<polygon fill="midnightblue" stroke="midnightblue" points="116.69,-184.56 106.13,-185.47 114.95,-191.34 116.69,-184.56"/>
</g>
<!-- Node4 -->
<g id="node4" class="node">
<title>Node4</title>
<g id="a_node4"><a xlink:title=" ">
<polygon fill="white" stroke="#bfbfbf" points="124.5,-168.5 124.5,-187.5 170.5,-187.5 170.5,-168.5 124.5,-168.5"/>
<text text-anchor="middle" x="147.5" y="-175.5" font-family="Helvetica,sans-Serif" font-size="10.00">cstring</text>
</a>
</g>
</g>
<!-- Node1&#45;&gt;Node4 -->
<g id="edge3" class="edge">
<title>Node1&#45;&gt;Node4</title>
<path fill="none" stroke="midnightblue" d="M290.56,-224.44C260.74,-214.97 212.65,-199.7 180.57,-189.5"/>
<polygon fill="midnightblue" stroke="midnightblue" points="181.35,-186.08 170.76,-186.39 179.23,-192.75 181.35,-186.08"/>
</g>
<!-- Node5 -->
<g id="node5" class="node">
<title>Node5</title>
<g id="a_node5"><a xlink:title=" ">
<polygon fill="white" stroke="#bfbfbf" points="145.5,-0.5 145.5,-19.5 199.5,-19.5 199.5,-0.5 145.5,-0.5"/>
<text text-anchor="middle" x="172.5" y="-7.5" font-family="Helvetica,sans-Serif" font-size="10.00">iostream</text>
</a>
</g>
</g>
<!-- Node1&#45;&gt;Node5 -->
<g id="edge4" class="edge">
<title>Node1&#45;&gt;Node5</title>
<path fill="none" stroke="midnightblue" d="M300.29,-224.48C285.51,-216.54 264.31,-203.61 249.5,-188 205.14,-141.27 183.98,-64.89 176.19,-29.76"/>
<polygon fill="midnightblue" stroke="midnightblue" points="179.53,-28.6 174.05,-19.53 172.67,-30.03 179.53,-28.6"/>
</g>
<!-- Node6 -->
<g id="node6" class="node">
<title>Node6</title>
<g id="a_node6"><a xlink:title=" ">
<polygon fill="white" stroke="#bfbfbf" points="969,-0.5 969,-19.5 1028,-19.5 1028,-0.5 969,-0.5"/>
<text text-anchor="middle" x="998.5" y="-7.5" font-family="Helvetica,sans-Serif" font-size="10.00">stdexcept</text>
</a>
</g>
</g>
<!-- Node1&#45;&gt;Node6 -->
<g id="edge5" class="edge">
<title>Node1&#45;&gt;Node6</title>
<path fill="none" stroke="midnightblue" d="M361.66,-231.43C433.94,-226.65 578.55,-207.57 669.5,-132 698.55,-107.87 676.86,-78.08 707.5,-56 796.68,8.28 845.47,-37.95 958.68,-19.89"/>
<polygon fill="midnightblue" stroke="midnightblue" points="959.49,-23.3 968.74,-18.14 958.29,-16.4 959.49,-23.3"/>
</g>
<!-- Node7 -->
<g id="node7" class="node">
<title>Node7</title>
<g id="a_node7"><a xlink:title=" ">
<polygon fill="white" stroke="#bfbfbf" points="394.5,-168.5 394.5,-187.5 438.5,-187.5 438.5,-168.5 394.5,-168.5"/>
<text text-anchor="middle" x="416.5" y="-175.5" font-family="Helvetica,sans-Serif" font-size="10.00">thread</text>
</a>
</g>
</g>
<!-- Node1&#45;&gt;Node7 -->
<g id="edge6" class="edge">
<title>Node1&#45;&gt;Node7</title>
<path fill="none" stroke="midnightblue" d="M333.41,-224.32C349.14,-215.74 373.44,-202.49 391.71,-192.52"/>
<polygon fill="midnightblue" stroke="midnightblue" points="393.53,-195.52 400.63,-187.65 390.18,-189.37 393.53,-195.52"/>
</g>
<!-- Node8 -->
<g id="node8" class="node">
<title>Node8</title>
<g id="a_node8"><a xlink:href="mastersclient_8h.html" target="_top" xlink:title=" ">
<polygon fill="white" stroke="black" points="259,-168.5 259,-187.5 376,-187.5 376,-168.5 259,-168.5"/>
<text text-anchor="middle" x="317.5" y="-175.5" font-family="Helvetica,sans-Serif" font-size="10.00">include/mastersclient.h</text>
</a>
</g>
</g>
<!-- Node1&#45;&gt;Node8 -->
<g id="edge7" class="edge">
<title>Node1&#45;&gt;Node8</title>
<path fill="none" stroke="midnightblue" d="M317.5,-224.08C317.5,-217.01 317.5,-206.86 317.5,-197.99"/>
<polygon fill="midnightblue" stroke="midnightblue" points="321,-197.75 317.5,-187.75 314,-197.75 321,-197.75"/>
</g>
<!-- Node41 -->
<g id="node41" class="node">
<title>Node41</title>
<g id="a_node41"><a xlink:title=" ">
<polygon fill="white" stroke="#bfbfbf" points="717,-168.5 717,-187.5 818,-187.5 818,-168.5 717,-168.5"/>
<text text-anchor="middle" x="767.5" y="-175.5" font-family="Helvetica,sans-Serif" font-size="10.00">friUdpConnection.h</text>
</a>
</g>
</g>
<!-- Node1&#45;&gt;Node41 -->
<g id="edge51" class="edge">
<title>Node1&#45;&gt;Node41</title>
<path fill="none" stroke="midnightblue" d="M361.71,-228.14C433.33,-220.2 579.17,-203.74 702.5,-188 703.8,-187.83 705.12,-187.66 706.45,-187.49"/>
<polygon fill="midnightblue" stroke="midnightblue" points="707.32,-190.91 716.77,-186.13 706.4,-183.97 707.32,-190.91"/>
</g>
<!-- Node42 -->
<g id="node42" class="node">
<title>Node42</title>
<g id="a_node42"><a xlink:title=" ">
<polygon fill="white" stroke="#bfbfbf" points="836,-168.5 836,-187.5 943,-187.5 943,-168.5 836,-168.5"/>
<text text-anchor="middle" x="889.5" y="-175.5" font-family="Helvetica,sans-Serif" font-size="10.00">friClientApplication.h</text>
</a>
</g>
</g>
<!-- Node1&#45;&gt;Node42 -->
<g id="edge52" class="edge">
<title>Node1&#45;&gt;Node42</title>
<path fill="none" stroke="midnightblue" d="M361.84,-229.89C448.69,-223.61 647.54,-208.38 825.82,-188.02"/>
<polygon fill="midnightblue" stroke="midnightblue" points="826.37,-191.48 835.91,-186.86 825.57,-184.52 826.37,-191.48"/>
</g>
<!-- Node9 -->
<g id="node9" class="node">
<title>Node9</title>
<g id="a_node9"><a xlink:title=" ">
<polygon fill="white" stroke="#bfbfbf" points="582.5,-112.5 582.5,-131.5 660.5,-131.5 660.5,-112.5 582.5,-112.5"/>
<text text-anchor="middle" x="621.5" y="-119.5" font-family="Helvetica,sans-Serif" font-size="10.00">friLBRClient.h</text>
</a>
</g>
</g>
<!-- Node8&#45;&gt;Node9 -->
<g id="edge8" class="edge">
<title>Node8&#45;&gt;Node9</title>
<path fill="none" stroke="midnightblue" d="M367.08,-168.46C416.56,-159.89 495.03,-146.2 572.54,-132.16"/>
<polygon fill="midnightblue" stroke="midnightblue" points="573.26,-135.59 582.47,-130.36 572.01,-128.7 573.26,-135.59"/>
</g>
<!-- Node10 -->
<g id="node10" class="node">
<title>Node10</title>
<g id="a_node10"><a xlink:href="robot_model_8h.html" target="_top" xlink:title="Definition of the robotModel class.">
<polygon fill="white" stroke="black" points="1254,-112.5 1254,-131.5 1327,-131.5 1327,-112.5 1254,-112.5"/>
<text text-anchor="middle" x="1290.5" y="-119.5" font-family="Helvetica,sans-Serif" font-size="10.00">robotModel.h</text>
</a>
</g>
</g>
<!-- Node8&#45;&gt;Node10 -->
<g id="edge9" class="edge">
<title>Node8&#45;&gt;Node10</title>
<path fill="none" stroke="midnightblue" d="M376.07,-168.94C379.26,-168.6 382.42,-168.28 385.5,-168 713.07,-138.23 1109.26,-127.07 1243.47,-123.98"/>
<polygon fill="midnightblue" stroke="midnightblue" points="1243.87,-127.47 1253.79,-123.75 1243.71,-120.47 1243.87,-127.47"/>
</g>
<!-- Node24 -->
<g id="node24" class="node">
<title>Node24</title>
<g id="a_node24"><a xlink:title=" ">
<polygon fill="white" stroke="#bfbfbf" points="255,-0.5 255,-19.5 296,-19.5 296,-0.5 255,-0.5"/>
<text text-anchor="middle" x="275.5" y="-7.5" font-family="Helvetica,sans-Serif" font-size="10.00">string</text>
</a>
</g>
</g>
<!-- Node8&#45;&gt;Node24 -->
<g id="edge25" class="edge">
<title>Node8&#45;&gt;Node24</title>
<path fill="none" stroke="midnightblue" d="M288.95,-168.46C270.51,-161.51 247.43,-149.88 233.5,-132 212.39,-104.91 204.66,-86.97 219.5,-56 225.75,-42.95 237.84,-32.49 249.18,-24.95"/>
<polygon fill="midnightblue" stroke="midnightblue" points="251.31,-27.75 258,-19.54 247.65,-21.79 251.31,-27.75"/>
</g>
<!-- Node25 -->
<g id="node25" class="node">
<title>Node25</title>
<g id="a_node25"><a xlink:title=" ">
<polygon fill="white" stroke="#bfbfbf" points="238.5,-56.5 238.5,-75.5 290.5,-75.5 290.5,-56.5 238.5,-56.5"/>
<text text-anchor="middle" x="264.5" y="-63.5" font-family="Helvetica,sans-Serif" font-size="10.00">memory</text>
</a>
</g>
</g>
<!-- Node8&#45;&gt;Node25 -->
<g id="edge26" class="edge">
<title>Node8&#45;&gt;Node25</title>
<path fill="none" stroke="midnightblue" d="M313.34,-168.37C304.67,-150.38 284.52,-108.55 272.99,-84.63"/>
<polygon fill="midnightblue" stroke="midnightblue" points="276.13,-83.08 268.64,-75.59 269.83,-86.12 276.13,-83.08"/>
</g>
<!-- Node26 -->
<g id="node26" class="node">
<title>Node26</title>
<g id="a_node26"><a xlink:title=" ">
<polygon fill="white" stroke="#bfbfbf" points="314.5,-0.5 314.5,-19.5 358.5,-19.5 358.5,-0.5 314.5,-0.5"/>
<text text-anchor="middle" x="336.5" y="-7.5" font-family="Helvetica,sans-Serif" font-size="10.00">vector</text>
</a>
</g>
</g>
<!-- Node8&#45;&gt;Node26 -->
<g id="edge27" class="edge">
<title>Node8&#45;&gt;Node26</title>
<path fill="none" stroke="midnightblue" d="M302.58,-168.38C270.63,-148.78 200.75,-99.27 229.5,-56 238.19,-42.92 275.96,-29.09 304.18,-20.27"/>
<polygon fill="midnightblue" stroke="midnightblue" points="305.53,-23.51 314.07,-17.25 303.49,-16.82 305.53,-23.51"/>
</g>
<!-- Node27 -->
<g id="node27" class="node">
<title>Node27</title>
<g id="a_node27"><a xlink:title=" ">
<polygon fill="white" stroke="#bfbfbf" points="309,-56.5 309,-75.5 352,-75.5 352,-56.5 309,-56.5"/>
<text text-anchor="middle" x="330.5" y="-63.5" font-family="Helvetica,sans-Serif" font-size="10.00">queue</text>
</a>
</g>
</g>
<!-- Node8&#45;&gt;Node27 -->
<g id="edge28" class="edge">
<title>Node8&#45;&gt;Node27</title>
<path fill="none" stroke="midnightblue" d="M313.41,-168.08C308.18,-155.47 300.38,-131.77 305.5,-112 308.05,-102.18 313.25,-92.21 318.26,-84.17"/>
<polygon fill="midnightblue" stroke="midnightblue" points="321.25,-85.99 323.87,-75.73 315.42,-82.11 321.25,-85.99"/>
</g>
<!-- Node28 -->
<g id="node28" class="node">
<title>Node28</title>
<g id="a_node28"><a xlink:title=" ">
<polygon fill="white" stroke="#bfbfbf" points="403,-112.5 403,-131.5 500,-131.5 500,-112.5 403,-112.5"/>
<text text-anchor="middle" x="451.5" y="-119.5" font-family="Helvetica,sans-Serif" font-size="10.00">gnuplot&#45;iostream.h</text>
</a>
</g>
</g>
<!-- Node8&#45;&gt;Node28 -->
<g id="edge29" class="edge">
<title>Node8&#45;&gt;Node28</title>
<path fill="none" stroke="midnightblue" d="M338.73,-168.44C360.88,-159.52 395.82,-145.44 420.94,-135.32"/>
<polygon fill="midnightblue" stroke="midnightblue" points="422.4,-138.5 430.37,-131.52 419.78,-132.01 422.4,-138.5"/>
</g>
<!-- Node29 -->
<g id="node29" class="node">
<title>Node29</title>
<g id="a_node29"><a xlink:href="plot_master_8h.html" target="_top" xlink:title=" ">
<polygon fill="white" stroke="black" points="314.5,-112.5 314.5,-131.5 384.5,-131.5 384.5,-112.5 314.5,-112.5"/>
<text text-anchor="middle" x="349.5" y="-119.5" font-family="Helvetica,sans-Serif" font-size="10.00">plotMaster.h</text>
</a>
</g>
</g>
<!-- Node8&#45;&gt;Node29 -->
<g id="edge30" class="edge">
<title>Node8&#45;&gt;Node29</title>
<path fill="none" stroke="midnightblue" d="M322.78,-168.08C327.21,-160.61 333.66,-149.72 339.12,-140.52"/>
<polygon fill="midnightblue" stroke="midnightblue" points="342.23,-142.14 344.31,-131.75 336.21,-138.57 342.23,-142.14"/>
</g>
<!-- Node40 -->
<g id="node40" class="node">
<title>Node40</title>
<g id="a_node40"><a xlink:title=" ">
<polygon fill="white" stroke="#bfbfbf" points="518.5,-112.5 518.5,-131.5 564.5,-131.5 564.5,-112.5 518.5,-112.5"/>
<text text-anchor="middle" x="541.5" y="-119.5" font-family="Helvetica,sans-Serif" font-size="10.00">chrono</text>
</a>
</g>
</g>
<!-- Node8&#45;&gt;Node40 -->
<g id="edge50" class="edge">
<title>Node8&#45;&gt;Node40</title>
<path fill="none" stroke="midnightblue" d="M355.65,-168.42C394.27,-159.65 455.67,-145.42 508.5,-132 508.6,-131.97 508.7,-131.95 508.8,-131.92"/>
<polygon fill="midnightblue" stroke="midnightblue" points="509.66,-135.32 518.45,-129.4 507.89,-128.54 509.66,-135.32"/>
</g>
<!-- Node10&#45;&gt;Node6 -->
<g id="edge18" class="edge">
<title>Node10&#45;&gt;Node6</title>
<path fill="none" stroke="midnightblue" d="M1253.8,-119.68C1187.61,-116.55 1051.93,-106.5 1017.5,-76 1004.46,-64.45 1000.15,-44.48 998.83,-29.72"/>
<polygon fill="midnightblue" stroke="midnightblue" points="1002.32,-29.48 998.31,-19.67 995.33,-29.84 1002.32,-29.48"/>
</g>
<!-- Node11 -->
<g id="node11" class="node">
<title>Node11</title>
<g id="a_node11"><a xlink:title=" ">
<polygon fill="white" stroke="#bfbfbf" points="1027,-56.5 1027,-75.5 1128,-75.5 1128,-56.5 1027,-56.5"/>
<text text-anchor="middle" x="1077.5" y="-63.5" font-family="Helvetica,sans-Serif" font-size="10.00">rl/mdl/XmlFactory.h</text>
</a>
</g>
</g>
<!-- Node10&#45;&gt;Node11 -->
<g id="edge10" class="edge">
<title>Node10&#45;&gt;Node11</title>
<path fill="none" stroke="midnightblue" d="M1256.75,-112.44C1219.98,-103.12 1161.05,-88.18 1120.88,-78"/>
<polygon fill="midnightblue" stroke="midnightblue" points="1121.65,-74.58 1111.09,-75.52 1119.93,-81.37 1121.65,-74.58"/>
</g>
<!-- Node12 -->
<g id="node12" class="node">
<title>Node12</title>
<g id="a_node12"><a xlink:title=" ">
<polygon fill="white" stroke="#bfbfbf" points="1146.5,-56.5 1146.5,-75.5 1224.5,-75.5 1224.5,-56.5 1146.5,-56.5"/>
<text text-anchor="middle" x="1185.5" y="-63.5" font-family="Helvetica,sans-Serif" font-size="10.00">rl/mdl/Model.h</text>
</a>
</g>
</g>
<!-- Node10&#45;&gt;Node12 -->
<g id="edge11" class="edge">
<title>Node10&#45;&gt;Node12</title>
<path fill="none" stroke="midnightblue" d="M1273.63,-112.32C1256.79,-103.66 1230.69,-90.24 1211.26,-80.25"/>
<polygon fill="midnightblue" stroke="midnightblue" points="1212.82,-77.12 1202.33,-75.65 1209.62,-83.34 1212.82,-77.12"/>
</g>
<!-- Node13 -->
<g id="node13" class="node">
<title>Node13</title>
<g id="a_node13"><a xlink:title=" ">
<polygon fill="white" stroke="#bfbfbf" points="716.5,-56.5 716.5,-75.5 792.5,-75.5 792.5,-56.5 716.5,-56.5"/>
<text text-anchor="middle" x="754.5" y="-63.5" font-family="Helvetica,sans-Serif" font-size="10.00">rl/math/Unit.h</text>
</a>
</g>
</g>
<!-- Node10&#45;&gt;Node13 -->
<g id="edge12" class="edge">
<title>Node10&#45;&gt;Node13</title>
<path fill="none" stroke="midnightblue" d="M1253.86,-118.85C1173.85,-113.9 977.37,-100.32 802.81,-76.06"/>
<polygon fill="midnightblue" stroke="midnightblue" points="803.06,-72.56 792.67,-74.63 802.08,-79.49 803.06,-72.56"/>
</g>
<!-- Node14 -->
<g id="node14" class="node">
<title>Node14</title>
<g id="a_node14"><a xlink:title=" ">
<polygon fill="white" stroke="#bfbfbf" points="1662.5,-0.5 1662.5,-19.5 1764.5,-19.5 1764.5,-0.5 1662.5,-0.5"/>
<text text-anchor="middle" x="1713.5" y="-7.5" font-family="Helvetica,sans-Serif" font-size="10.00">rl/math/Transform.h</text>
</a>
</g>
</g>
<!-- Node10&#45;&gt;Node14 -->
<g id="edge13" class="edge">
<title>Node10&#45;&gt;Node14</title>
<path fill="none" stroke="midnightblue" d="M1327.25,-113.29C1361.16,-105.63 1412.59,-92.64 1455.5,-76 1473.66,-68.95 1476.12,-62.46 1494.5,-56 1546.3,-37.78 1607.74,-25.95 1652.33,-19.02"/>
<polygon fill="midnightblue" stroke="midnightblue" points="1653.07,-22.45 1662.44,-17.49 1652.02,-15.53 1653.07,-22.45"/>
</g>
<!-- Node15 -->
<g id="node15" class="node">
<title>Node15</title>
<g id="a_node15"><a xlink:title=" ">
<polygon fill="white" stroke="#bfbfbf" points="1243,-56.5 1243,-75.5 1338,-75.5 1338,-56.5 1243,-56.5"/>
<text text-anchor="middle" x="1290.5" y="-63.5" font-family="Helvetica,sans-Serif" font-size="10.00">rl/mdl/Kinematic.h</text>
</a>
</g>
</g>
<!-- Node10&#45;&gt;Node15 -->
<g id="edge14" class="edge">
<title>Node10&#45;&gt;Node15</title>
<path fill="none" stroke="midnightblue" d="M1290.5,-112.08C1290.5,-105.01 1290.5,-94.86 1290.5,-85.99"/>
<polygon fill="midnightblue" stroke="midnightblue" points="1294,-85.75 1290.5,-75.75 1287,-85.75 1294,-85.75"/>
</g>
<!-- Node16 -->
<g id="node16" class="node">
<title>Node16</title>
<g id="a_node16"><a xlink:title=" ">
<polygon fill="white" stroke="#bfbfbf" points="1356,-56.5 1356,-75.5 1447,-75.5 1447,-56.5 1356,-56.5"/>
<text text-anchor="middle" x="1401.5" y="-63.5" font-family="Helvetica,sans-Serif" font-size="10.00">rl/mdl/Dynamic.h</text>
</a>
</g>
</g>
<!-- Node10&#45;&gt;Node16 -->
<g id="edge15" class="edge">
<title>Node10&#45;&gt;Node16</title>
<path fill="none" stroke="midnightblue" d="M1308.33,-112.32C1326.22,-103.62 1353.98,-90.12 1374.55,-80.11"/>
<polygon fill="midnightblue" stroke="midnightblue" points="1376.25,-83.18 1383.71,-75.65 1373.19,-76.88 1376.25,-83.18"/>
</g>
<!-- Node17 -->
<g id="node17" class="node">
<title>Node17</title>
<g id="a_node17"><a xlink:href="lbr__struct_8h.html" target="_top" xlink:title=" ">
<polygon fill="white" stroke="black" points="1920,-56.5 1920,-75.5 1985,-75.5 1985,-56.5 1920,-56.5"/>
<text text-anchor="middle" x="1952.5" y="-63.5" font-family="Helvetica,sans-Serif" font-size="10.00">lbr_struct.h</text>
</a>
</g>
</g>
<!-- Node10&#45;&gt;Node17 -->
<g id="edge16" class="edge">
<title>Node10&#45;&gt;Node17</title>
<path fill="none" stroke="midnightblue" d="M1327.03,-120.12C1421.66,-117.45 1682.62,-107.7 1909.47,-75.94"/>
<polygon fill="midnightblue" stroke="midnightblue" points="1910.15,-79.38 1919.56,-74.51 1909.17,-72.45 1910.15,-79.38"/>
</g>
<!-- Node18 -->
<g id="node18" class="node">
<title>Node18</title>
<g id="a_node18"><a xlink:title=" ">
<polygon fill="white" stroke="#bfbfbf" points="1503.5,-56.5 1503.5,-75.5 1617.5,-75.5 1617.5,-56.5 1503.5,-56.5"/>
<text text-anchor="middle" x="1560.5" y="-63.5" font-family="Helvetica,sans-Serif" font-size="10.00">boost/lexical_cast.hpp</text>
</a>
</g>
</g>
<!-- Node10&#45;&gt;Node18 -->
<g id="edge19" class="edge">
<title>Node10&#45;&gt;Node18</title>
<path fill="none" stroke="midnightblue" d="M1327.19,-113.66C1373.79,-104.34 1454.52,-88.2 1507.72,-77.56"/>
<polygon fill="midnightblue" stroke="midnightblue" points="1508.53,-80.96 1517.65,-75.57 1507.16,-74.1 1508.53,-80.96"/>
</g>
<!-- Node19 -->
<g id="node19" class="node">
<title>Node19</title>
<g id="a_node19"><a xlink:title=" ">
<polygon fill="white" stroke="#bfbfbf" points="1636,-56.5 1636,-75.5 1709,-75.5 1709,-56.5 1636,-56.5"/>
<text text-anchor="middle" x="1672.5" y="-63.5" font-family="Helvetica,sans-Serif" font-size="10.00">rl/mdl/Body.h</text>
</a>
</g>
</g>
<!-- Node10&#45;&gt;Node19 -->
<g id="edge20" class="edge">
<title>Node10&#45;&gt;Node19</title>
<path fill="none" stroke="midnightblue" d="M1327.4,-116.79C1387.61,-109.77 1510.95,-94.72 1625.85,-76.02"/>
<polygon fill="midnightblue" stroke="midnightblue" points="1626.58,-79.44 1635.88,-74.37 1625.44,-72.54 1626.58,-79.44"/>
</g>
<!-- Node20 -->
<g id="node20" class="node">
<title>Node20</title>
<g id="a_node20"><a xlink:title=" ">
<polygon fill="white" stroke="#bfbfbf" points="1727.5,-56.5 1727.5,-75.5 1803.5,-75.5 1803.5,-56.5 1727.5,-56.5"/>
<text text-anchor="middle" x="1765.5" y="-63.5" font-family="Helvetica,sans-Serif" font-size="10.00">rl/mdl/Fixed.h</text>
</a>
</g>
</g>
<!-- Node10&#45;&gt;Node20 -->
<g id="edge21" class="edge">
<title>Node10&#45;&gt;Node20</title>
<path fill="none" stroke="midnightblue" d="M1327.27,-118.19C1399.82,-112.41 1566.66,-98 1716.99,-76.11"/>
<polygon fill="midnightblue" stroke="midnightblue" points="1717.94,-79.51 1727.33,-74.59 1716.92,-72.58 1717.94,-79.51"/>
</g>
<!-- Node21 -->
<g id="node21" class="node">
<title>Node21</title>
<g id="a_node21"><a xlink:title=" ">
<polygon fill="white" stroke="#bfbfbf" points="1821.5,-56.5 1821.5,-75.5 1901.5,-75.5 1901.5,-56.5 1821.5,-56.5"/>
<text text-anchor="middle" x="1861.5" y="-63.5" font-family="Helvetica,sans-Serif" font-size="10.00">rl/mdl/Frame.h</text>
</a>
</g>
</g>
<!-- Node10&#45;&gt;Node21 -->
<g id="edge22" class="edge">
<title>Node10&#45;&gt;Node21</title>
<path fill="none" stroke="midnightblue" d="M1327.02,-119.06C1410.8,-114.34 1623.43,-100.91 1811.37,-76.03"/>
<polygon fill="midnightblue" stroke="midnightblue" points="1811.99,-79.48 1821.44,-74.68 1811.06,-72.54 1811.99,-79.48"/>
</g>
<!-- Node22 -->
<g id="node22" class="node">
<title>Node22</title>
<g id="a_node22"><a xlink:title=" ">
<polygon fill="white" stroke="#bfbfbf" points="811,-56.5 811,-75.5 902,-75.5 902,-56.5 811,-56.5"/>
<text text-anchor="middle" x="856.5" y="-63.5" font-family="Helvetica,sans-Serif" font-size="10.00">rl/mdl/Revolute.h</text>
</a>
</g>
</g>
<!-- Node10&#45;&gt;Node22 -->
<g id="edge23" class="edge">
<title>Node10&#45;&gt;Node22</title>
<path fill="none" stroke="midnightblue" d="M1253.84,-117.19C1187.83,-110.21 1044.35,-94.51 912.38,-76.07"/>
<polygon fill="midnightblue" stroke="midnightblue" points="912.48,-72.55 902.09,-74.62 911.51,-79.48 912.48,-72.55"/>
</g>
<!-- Node23 -->
<g id="node23" class="node">
<title>Node23</title>
<g id="a_node23"><a xlink:title=" ">
<polygon fill="white" stroke="#bfbfbf" points="920.5,-56.5 920.5,-75.5 970.5,-75.5 970.5,-56.5 920.5,-56.5"/>
<text text-anchor="middle" x="945.5" y="-63.5" font-family="Helvetica,sans-Serif" font-size="10.00">iomanip</text>
</a>
</g>
</g>
<!-- Node10&#45;&gt;Node23 -->
<g id="edge24" class="edge">
<title>Node10&#45;&gt;Node23</title>
<path fill="none" stroke="midnightblue" d="M1253.6,-116.55C1195.94,-109.38 1081.06,-94.21 984.5,-76 983.23,-75.76 981.94,-75.51 980.64,-75.25"/>
<polygon fill="midnightblue" stroke="midnightblue" points="981.12,-71.77 970.61,-73.11 979.66,-78.62 981.12,-71.77"/>
</g>
<!-- Node17&#45;&gt;Node14 -->
<g id="edge17" class="edge">
<title>Node17&#45;&gt;Node14</title>
<path fill="none" stroke="midnightblue" d="M1919.77,-57.6C1878.8,-48.35 1808.3,-32.42 1761.29,-21.8"/>
<polygon fill="midnightblue" stroke="midnightblue" points="1761.87,-18.34 1751.35,-19.55 1760.33,-25.17 1761.87,-18.34"/>
</g>
<!-- Node29&#45;&gt;Node13 -->
<g id="edge48" class="edge">
<title>Node29&#45;&gt;Node13</title>
<path fill="none" stroke="midnightblue" d="M384.52,-113.58C387.55,-113.02 390.58,-112.48 393.5,-112 504.95,-93.68 636.84,-79 706.24,-71.81"/>
<polygon fill="midnightblue" stroke="midnightblue" points="706.83,-75.27 716.42,-70.76 706.11,-68.3 706.83,-75.27"/>
</g>
<!-- Node29&#45;&gt;Node24 -->
<g id="edge44" class="edge">
<title>Node29&#45;&gt;Node24</title>
<path fill="none" stroke="midnightblue" d="M354.42,-112.32C361.15,-99.17 371.24,-73.85 360.5,-56 354.2,-45.53 327.32,-32.33 305.46,-22.93"/>
<polygon fill="midnightblue" stroke="midnightblue" points="306.74,-19.68 296.16,-19.04 304.03,-26.13 306.74,-19.68"/>
</g>
<!-- Node29&#45;&gt;Node25 -->
<g id="edge45" class="edge">
<title>Node29&#45;&gt;Node25</title>
<path fill="none" stroke="midnightblue" d="M335.84,-112.32C322.58,-103.9 302.23,-90.97 286.65,-81.07"/>
<polygon fill="midnightblue" stroke="midnightblue" points="288.44,-78.06 278.12,-75.65 284.69,-83.97 288.44,-78.06"/>
</g>
<!-- Node29&#45;&gt;Node26 -->
<g id="edge46" class="edge">
<title>Node29&#45;&gt;Node26</title>
<path fill="none" stroke="midnightblue" d="M362.76,-112.48C379.58,-100.54 405.19,-77.82 394.5,-56 387.98,-42.68 375.4,-32.18 363.63,-24.68"/>
<polygon fill="midnightblue" stroke="midnightblue" points="365.28,-21.59 354.89,-19.53 361.73,-27.62 365.28,-21.59"/>
</g>
<!-- Node29&#45;&gt;Node27 -->
<g id="edge47" class="edge">
<title>Node29&#45;&gt;Node27</title>
<path fill="none" stroke="midnightblue" d="M346.36,-112.08C343.82,-104.85 340.14,-94.41 336.97,-85.4"/>
<polygon fill="midnightblue" stroke="midnightblue" points="340.2,-84.02 333.58,-75.75 333.6,-86.35 340.2,-84.02"/>
</g>
<!-- Node30 -->
<g id="node30" class="node">
<title>Node30</title>
<g id="a_node30"><a xlink:href="matplotlibcpp_8h.html" target="_top" xlink:title=" ">
<polygon fill="white" stroke="black" points="551,-56.5 551,-75.5 634,-75.5 634,-56.5 551,-56.5"/>
<text text-anchor="middle" x="592.5" y="-63.5" font-family="Helvetica,sans-Serif" font-size="10.00">matplotlibcpp.h</text>
</a>
</g>
</g>
<!-- Node29&#45;&gt;Node30 -->
<g id="edge31" class="edge">
<title>Node29&#45;&gt;Node30</title>
<path fill="none" stroke="midnightblue" d="M384.57,-113.21C426.57,-103.87 497.14,-88.19 544.26,-77.72"/>
<polygon fill="midnightblue" stroke="midnightblue" points="545.23,-81.09 554.23,-75.5 543.71,-74.26 545.23,-81.09"/>
</g>
<!-- Node39 -->
<g id="node39" class="node">
<title>Node39</title>
<g id="a_node39"><a xlink:title=" ">
<polygon fill="white" stroke="#bfbfbf" points="446.5,-56.5 446.5,-75.5 532.5,-75.5 532.5,-56.5 446.5,-56.5"/>
<text text-anchor="middle" x="489.5" y="-63.5" font-family="Helvetica,sans-Serif" font-size="10.00">rl/math/Vector.h</text>
</a>
</g>
</g>
<!-- Node29&#45;&gt;Node39 -->
<g id="edge49" class="edge">
<title>Node29&#45;&gt;Node39</title>
<path fill="none" stroke="midnightblue" d="M371.68,-112.44C394.93,-103.48 431.65,-89.31 457.92,-79.18"/>
<polygon fill="midnightblue" stroke="midnightblue" points="459.35,-82.38 467.42,-75.52 456.83,-75.85 459.35,-82.38"/>
</g>
<!-- Node30&#45;&gt;Node5 -->
<g id="edge39" class="edge">
<title>Node30&#45;&gt;Node5</title>
<path fill="none" stroke="midnightblue" d="M550.78,-57.45C547.64,-56.94 544.52,-56.45 541.5,-56 410.42,-36.48 377.04,-36.11 245.5,-20 233.85,-18.57 221.17,-17.01 209.68,-15.6"/>
<polygon fill="midnightblue" stroke="midnightblue" points="209.89,-12.1 199.54,-14.34 209.04,-19.04 209.89,-12.1"/>
</g>
<!-- Node30&#45;&gt;Node6 -->
<g id="edge38" class="edge">
<title>Node30&#45;&gt;Node6</title>
<path fill="none" stroke="midnightblue" d="M634.27,-60.44C713.02,-51.75 881.71,-32.69 958.54,-19.96"/>
<polygon fill="midnightblue" stroke="midnightblue" points="959.49,-23.34 968.76,-18.2 958.31,-16.44 959.49,-23.34"/>
</g>
<!-- Node30&#45;&gt;Node24 -->
<g id="edge42" class="edge">
<title>Node30&#45;&gt;Node24</title>
<path fill="none" stroke="midnightblue" d="M550.76,-57.55C547.63,-57.02 544.52,-56.5 541.5,-56 439.97,-39.3 410.77,-43.05 306.09,-19.83"/>
<polygon fill="midnightblue" stroke="midnightblue" points="306.58,-16.36 296.06,-17.58 305.05,-23.19 306.58,-16.36"/>
</g>
<!-- Node30&#45;&gt;Node26 -->
<g id="edge33" class="edge">
<title>Node30&#45;&gt;Node26</title>
<path fill="none" stroke="midnightblue" d="M550.76,-57.09C499.54,-47.32 414.68,-30.88 368.56,-20.07"/>
<polygon fill="midnightblue" stroke="midnightblue" points="369.33,-16.65 358.79,-17.72 367.69,-23.46 369.33,-16.65"/>
</g>
<!-- Node31 -->
<g id="node31" class="node">
<title>Node31</title>
<g id="a_node31"><a xlink:title=" ">
<polygon fill="white" stroke="#bfbfbf" points="376.5,-0.5 376.5,-19.5 432.5,-19.5 432.5,-0.5 376.5,-0.5"/>
<text text-anchor="middle" x="404.5" y="-7.5" font-family="Helvetica,sans-Serif" font-size="10.00">Python.h</text>
</a>
</g>
</g>
<!-- Node30&#45;&gt;Node31 -->
<g id="edge32" class="edge">
<title>Node30&#45;&gt;Node31</title>
<path fill="none" stroke="midnightblue" d="M562.71,-56.44C530.2,-47.11 478.06,-32.13 442.59,-21.94"/>
<polygon fill="midnightblue" stroke="midnightblue" points="443.19,-18.47 432.61,-19.08 441.26,-25.2 443.19,-18.47"/>
</g>
<!-- Node32 -->
<g id="node32" class="node">
<title>Node32</title>
<g id="a_node32"><a xlink:title=" ">
<polygon fill="white" stroke="#bfbfbf" points="451,-0.5 451,-19.5 486,-19.5 486,-0.5 451,-0.5"/>
<text text-anchor="middle" x="468.5" y="-7.5" font-family="Helvetica,sans-Serif" font-size="10.00">map</text>
</a>
</g>
</g>
<!-- Node30&#45;&gt;Node32 -->
<g id="edge34" class="edge">
<title>Node30&#45;&gt;Node32</title>
<path fill="none" stroke="midnightblue" d="M572.85,-56.44C551.94,-47.34 518.71,-32.86 495.38,-22.71"/>
<polygon fill="midnightblue" stroke="midnightblue" points="496.62,-19.43 486.05,-18.64 493.82,-25.84 496.62,-19.43"/>
</g>
<!-- Node33 -->
<g id="node33" class="node">
<title>Node33</title>
<g id="a_node33"><a xlink:title=" ">
<polygon fill="white" stroke="#bfbfbf" points="504.5,-0.5 504.5,-19.5 542.5,-19.5 542.5,-0.5 504.5,-0.5"/>
<text text-anchor="middle" x="523.5" y="-7.5" font-family="Helvetica,sans-Serif" font-size="10.00">array</text>
</a>
</g>
</g>
<!-- Node30&#45;&gt;Node33 -->
<g id="edge35" class="edge">
<title>Node30&#45;&gt;Node33</title>
<path fill="none" stroke="midnightblue" d="M581.41,-56.32C571.01,-48.18 555.24,-35.84 542.78,-26.09"/>
<polygon fill="midnightblue" stroke="midnightblue" points="544.82,-23.24 534.79,-19.83 540.51,-28.75 544.82,-23.24"/>
</g>
<!-- Node34 -->
<g id="node34" class="node">
<title>Node34</title>
<g id="a_node34"><a xlink:title=" ">
<polygon fill="white" stroke="#bfbfbf" points="561,-0.5 561,-19.5 612,-19.5 612,-0.5 561,-0.5"/>
<text text-anchor="middle" x="586.5" y="-7.5" font-family="Helvetica,sans-Serif" font-size="10.00">numeric</text>
</a>
</g>
</g>
<!-- Node30&#45;&gt;Node34 -->
<g id="edge36" class="edge">
<title>Node30&#45;&gt;Node34</title>
<path fill="none" stroke="midnightblue" d="M591.51,-56.08C590.71,-48.93 589.57,-38.64 588.58,-29.69"/>
<polygon fill="midnightblue" stroke="midnightblue" points="592.06,-29.3 587.47,-19.75 585.1,-30.08 592.06,-29.3"/>
</g>
<!-- Node35 -->
<g id="node35" class="node">
<title>Node35</title>
<g id="a_node35"><a xlink:title=" ">
<polygon fill="white" stroke="#bfbfbf" points="630.5,-0.5 630.5,-19.5 686.5,-19.5 686.5,-0.5 630.5,-0.5"/>
<text text-anchor="middle" x="658.5" y="-7.5" font-family="Helvetica,sans-Serif" font-size="10.00">algorithm</text>
</a>
</g>
</g>
<!-- Node30&#45;&gt;Node35 -->
<g id="edge37" class="edge">
<title>Node30&#45;&gt;Node35</title>
<path fill="none" stroke="midnightblue" d="M603.1,-56.32C612.96,-48.26 627.85,-36.08 639.72,-26.37"/>
<polygon fill="midnightblue" stroke="midnightblue" points="642.18,-28.88 647.7,-19.83 637.75,-23.46 642.18,-28.88"/>
</g>
<!-- Node36 -->
<g id="node36" class="node">
<title>Node36</title>
<g id="a_node36"><a xlink:title=" ">
<polygon fill="white" stroke="#bfbfbf" points="704.5,-0.5 704.5,-19.5 750.5,-19.5 750.5,-0.5 704.5,-0.5"/>
<text text-anchor="middle" x="727.5" y="-7.5" font-family="Helvetica,sans-Serif" font-size="10.00">cstdint</text>
</a>
</g>
</g>
<!-- Node30&#45;&gt;Node36 -->
<g id="edge40" class="edge">
<title>Node30&#45;&gt;Node36</title>
<path fill="none" stroke="midnightblue" d="M613.89,-56.44C636.21,-47.52 671.4,-33.44 696.71,-23.32"/>
<polygon fill="midnightblue" stroke="midnightblue" points="698.22,-26.48 706.21,-19.52 695.62,-19.98 698.22,-26.48"/>
</g>
<!-- Node37 -->
<g id="node37" class="node">
<title>Node37</title>
<g id="a_node37"><a xlink:title=" ">
<polygon fill="white" stroke="#bfbfbf" points="769,-0.5 769,-19.5 828,-19.5 828,-0.5 769,-0.5"/>
<text text-anchor="middle" x="798.5" y="-7.5" font-family="Helvetica,sans-Serif" font-size="10.00">functional</text>
</a>
</g>
</g>
<!-- Node30&#45;&gt;Node37 -->
<g id="edge41" class="edge">
<title>Node30&#45;&gt;Node37</title>
<path fill="none" stroke="midnightblue" d="M625.14,-56.44C661.38,-46.94 719.89,-31.61 758.76,-21.42"/>
<polygon fill="midnightblue" stroke="midnightblue" points="759.9,-24.74 768.69,-18.82 758.13,-17.97 759.9,-24.74"/>
</g>
<!-- Node38 -->
<g id="node38" class="node">
<title>Node38</title>
<g id="a_node38"><a xlink:title=" ">
<polygon fill="white" stroke="#bfbfbf" points="846,-0.5 846,-19.5 951,-19.5 951,-0.5 846,-0.5"/>
<text text-anchor="middle" x="898.5" y="-7.5" font-family="Helvetica,sans-Serif" font-size="10.00">numpy/arrayobject.h</text>
</a>
</g>
</g>
<!-- Node30&#45;&gt;Node38 -->
<g id="edge43" class="edge">
<title>Node30&#45;&gt;Node38</title>
<path fill="none" stroke="midnightblue" d="M634.09,-57.66C687.3,-48.27 779.8,-31.95 840.07,-21.31"/>
<polygon fill="midnightblue" stroke="midnightblue" points="840.95,-24.71 850.19,-19.52 839.74,-17.82 840.95,-24.71"/>
</g>
</g>
</svg>
