<?xml version="1.0" encoding="UTF-8" standalone="no"?>
<!DOCTYPE svg PUBLIC "-//W3C//DTD SVG 1.1//EN"
 "http://www.w3.org/Graphics/SVG/1.1/DTD/svg11.dtd">
<!-- Generated by graphviz version 2.43.0 (0)
 -->
<!-- Title: mastersApp.cpp Pages: 1 -->
<svg width="1953pt" height="252pt"
 viewBox="0.00 0.00 1953.00 252.00" xmlns="http://www.w3.org/2000/svg" xmlns:xlink="http://www.w3.org/1999/xlink">
<g id="graph0" class="graph" transform="scale(1 1) rotate(0) translate(4 248)">
<title>mastersApp.cpp</title>
<polygon fill="white" stroke="transparent" points="-4,4 -4,-248 1949,-248 1949,4 -4,4"/>
<!-- Node1 -->
<g id="node1" class="node">
<title>Node1</title>
<g id="a_node1"><a xlink:title=" ">
<polygon fill="#bfbfbf" stroke="black" points="287.5,-224.5 287.5,-243.5 375.5,-243.5 375.5,-224.5 287.5,-224.5"/>
<text text-anchor="middle" x="331.5" y="-231.5" font-family="Helvetica,sans-Serif" font-size="10.00">mastersApp.cpp</text>
</a>
</g>
</g>
<!-- Node2 -->
<g id="node2" class="node">
<title>Node2</title>
<g id="a_node2"><a xlink:title=" ">
<polygon fill="white" stroke="#bfbfbf" points="0,-168.5 0,-187.5 45,-187.5 45,-168.5 0,-168.5"/>
<text text-anchor="middle" x="22.5" y="-175.5" font-family="Helvetica,sans-Serif" font-size="10.00">cstdlib</text>
</a>
</g>
</g>
<!-- Node1&#45;&gt;Node2 -->
<g id="edge1" class="edge">
<title>Node1&#45;&gt;Node2</title>
<path fill="none" stroke="midnightblue" d="M287.37,-227.55C234.26,-220.62 142.25,-207.42 54.91,-188.11"/>
<polygon fill="midnightblue" stroke="midnightblue" points="55.63,-184.68 45.1,-185.91 54.1,-191.51 55.63,-184.68"/>
</g>
<!-- Node3 -->
<g id="node3" class="node">
<title>Node3</title>
<g id="a_node3"><a xlink:title=" ">
<polygon fill="white" stroke="#bfbfbf" points="63,-168.5 63,-187.5 106,-187.5 106,-168.5 63,-168.5"/>
<text text-anchor="middle" x="84.5" y="-175.5" font-family="Helvetica,sans-Serif" font-size="10.00">cstdio</text>
</a>
</g>
</g>
<!-- Node1&#45;&gt;Node3 -->
<g id="edge2" class="edge">
<title>Node1&#45;&gt;Node3</title>
<path fill="none" stroke="midnightblue" d="M287.42,-224.85C245.75,-216.92 181.28,-204.05 116.15,-188"/>
<polygon fill="midnightblue" stroke="midnightblue" points="116.67,-184.53 106.12,-185.51 114.98,-191.32 116.67,-184.53"/>
</g>
<!-- Node4 -->
<g id="node4" class="node">
<title>Node4</title>
<g id="a_node4"><a xlink:title=" ">
<polygon fill="white" stroke="#bfbfbf" points="124.5,-168.5 124.5,-187.5 170.5,-187.5 170.5,-168.5 124.5,-168.5"/>
<text text-anchor="middle" x="147.5" y="-175.5" font-family="Helvetica,sans-Serif" font-size="10.00">cstring</text>
</a>
</g>
</g>
<!-- Node1&#45;&gt;Node4 -->
<g id="edge3" class="edge">
<title>Node1&#45;&gt;Node4</title>
<path fill="none" stroke="midnightblue" d="M302.34,-224.44C269.14,-214.7 215.02,-198.82 180.35,-188.64"/>
<polygon fill="midnightblue" stroke="midnightblue" points="181.27,-185.26 170.69,-185.81 179.3,-191.98 181.27,-185.26"/>
</g>
<!-- Node5 -->
<g id="node5" class="node">
<title>Node5</title>
<g id="a_node5"><a xlink:title=" ">
<polygon fill="white" stroke="#bfbfbf" points="118.5,-0.5 118.5,-19.5 172.5,-19.5 172.5,-0.5 118.5,-0.5"/>
<text text-anchor="middle" x="145.5" y="-7.5" font-family="Helvetica,sans-Serif" font-size="10.00">iostream</text>
</a>
</g>
</g>
<!-- Node1&#45;&gt;Node5 -->
<g id="edge4" class="edge">
<title>Node1&#45;&gt;Node5</title>
<path fill="none" stroke="midnightblue" d="M316.06,-224.46C301.68,-216.13 280.05,-202.62 263.5,-188 209.81,-140.59 169.75,-63.43 153.48,-28.81"/>
<polygon fill="midnightblue" stroke="midnightblue" points="156.56,-27.13 149.2,-19.51 150.2,-30.05 156.56,-27.13"/>
</g>
<!-- Node6 -->
<g id="node6" class="node">
<title>Node6</title>
<g id="a_node6"><a xlink:title=" ">
<polygon fill="white" stroke="#bfbfbf" points="929,-0.5 929,-19.5 988,-19.5 988,-0.5 929,-0.5"/>
<text text-anchor="middle" x="958.5" y="-7.5" font-family="Helvetica,sans-Serif" font-size="10.00">stdexcept</text>
</a>
</g>
</g>
<!-- Node1&#45;&gt;Node6 -->
<g id="edge5" class="edge">
<title>Node1&#45;&gt;Node6</title>
<path fill="none" stroke="midnightblue" d="M375.63,-228.59C438.82,-220.16 555.59,-196.43 629.5,-132 657.97,-107.18 636.86,-78.08 667.5,-56 756.68,8.28 805.47,-37.95 918.68,-19.89"/>
<polygon fill="midnightblue" stroke="midnightblue" points="919.49,-23.3 928.74,-18.14 918.29,-16.4 919.49,-23.3"/>
</g>
<!-- Node7 -->
<g id="node7" class="node">
<title>Node7</title>
<g id="a_node7"><a xlink:title=" ">
<polygon fill="white" stroke="#bfbfbf" points="408.5,-168.5 408.5,-187.5 452.5,-187.5 452.5,-168.5 408.5,-168.5"/>
<text text-anchor="middle" x="430.5" y="-175.5" font-family="Helvetica,sans-Serif" font-size="10.00">thread</text>
</a>
</g>
</g>
<!-- Node1&#45;&gt;Node7 -->
<g id="edge6" class="edge">
<title>Node1&#45;&gt;Node7</title>
<path fill="none" stroke="midnightblue" d="M347.41,-224.32C363.14,-215.74 387.44,-202.49 405.71,-192.52"/>
<polygon fill="midnightblue" stroke="midnightblue" points="407.53,-195.52 414.63,-187.65 404.18,-189.37 407.53,-195.52"/>
</g>
<!-- Node8 -->
<g id="node8" class="node">
<title>Node8</title>
<g id="a_node8"><a xlink:href="mastersclient_8h.html" target="_top" xlink:title=" ">
<polygon fill="white" stroke="black" points="273,-168.5 273,-187.5 390,-187.5 390,-168.5 273,-168.5"/>
<text text-anchor="middle" x="331.5" y="-175.5" font-family="Helvetica,sans-Serif" font-size="10.00">include/mastersclient.h</text>
</a>
</g>
</g>
<!-- Node1&#45;&gt;Node8 -->
<g id="edge7" class="edge">
<title>Node1&#45;&gt;Node8</title>
<path fill="none" stroke="midnightblue" d="M331.5,-224.08C331.5,-217.01 331.5,-206.86 331.5,-197.99"/>
<polygon fill="midnightblue" stroke="midnightblue" points="335,-197.75 331.5,-187.75 328,-197.75 335,-197.75"/>
</g>
<!-- Node41 -->
<g id="node41" class="node">
<title>Node41</title>
<g id="a_node41"><a xlink:title=" ">
<polygon fill="white" stroke="#bfbfbf" points="677,-168.5 677,-187.5 778,-187.5 778,-168.5 677,-168.5"/>
<text text-anchor="middle" x="727.5" y="-175.5" font-family="Helvetica,sans-Serif" font-size="10.00">friUdpConnection.h</text>
</a>
</g>
</g>
<!-- Node1&#45;&gt;Node41 -->
<g id="edge51" class="edge">
<title>Node1&#45;&gt;Node41</title>
<path fill="none" stroke="midnightblue" d="M375.67,-227.03C439.14,-218.44 559.8,-202.09 662.5,-188 663.8,-187.82 665.12,-187.64 666.44,-187.46"/>
<polygon fill="midnightblue" stroke="midnightblue" points="667.33,-190.87 676.76,-186.04 666.38,-183.93 667.33,-190.87"/>
</g>
<!-- Node42 -->
<g id="node42" class="node">
<title>Node42</title>
<g id="a_node42"><a xlink:title=" ">
<polygon fill="white" stroke="#bfbfbf" points="796,-168.5 796,-187.5 903,-187.5 903,-168.5 796,-168.5"/>
<text text-anchor="middle" x="849.5" y="-175.5" font-family="Helvetica,sans-Serif" font-size="10.00">friClientApplication.h</text>
</a>
</g>
</g>
<!-- Node1&#45;&gt;Node42 -->
<g id="edge52" class="edge">
<title>Node1&#45;&gt;Node42</title>
<path fill="none" stroke="midnightblue" d="M375.81,-229.26C455.51,-222.39 628.54,-206.85 785.58,-188.06"/>
<polygon fill="midnightblue" stroke="midnightblue" points="786.39,-191.49 795.9,-186.82 785.56,-184.54 786.39,-191.49"/>
</g>
<!-- Node9 -->
<g id="node9" class="node">
<title>Node9</title>
<g id="a_node9"><a xlink:title=" ">
<polygon fill="white" stroke="#bfbfbf" points="542.5,-112.5 542.5,-131.5 620.5,-131.5 620.5,-112.5 542.5,-112.5"/>
<text text-anchor="middle" x="581.5" y="-119.5" font-family="Helvetica,sans-Serif" font-size="10.00">friLBRClient.h</text>
</a>
</g>
</g>
<!-- Node8&#45;&gt;Node9 -->
<g id="edge8" class="edge">
<title>Node8&#45;&gt;Node9</title>
<path fill="none" stroke="midnightblue" d="M371.11,-168.44C414.85,-159 485.31,-143.78 532.49,-133.59"/>
<polygon fill="midnightblue" stroke="midnightblue" points="533.45,-136.96 542.48,-131.43 531.97,-130.12 533.45,-136.96"/>
</g>
<!-- Node10 -->
<g id="node10" class="node">
<title>Node10</title>
<g id="a_node10"><a xlink:href="robot_model_8h.html" target="_top" xlink:title="Definition of the robotModel class.">
<polygon fill="white" stroke="black" points="1214,-112.5 1214,-131.5 1287,-131.5 1287,-112.5 1214,-112.5"/>
<text text-anchor="middle" x="1250.5" y="-119.5" font-family="Helvetica,sans-Serif" font-size="10.00">robotModel.h</text>
</a>
</g>
</g>
<!-- Node8&#45;&gt;Node10 -->
<g id="edge9" class="edge">
<title>Node8&#45;&gt;Node10</title>
<path fill="none" stroke="midnightblue" d="M390.07,-168.95C393.26,-168.61 396.42,-168.29 399.5,-168 705.43,-139.71 1075,-127.71 1203.66,-124.18"/>
<polygon fill="midnightblue" stroke="midnightblue" points="1204.03,-127.67 1213.93,-123.9 1203.84,-120.68 1204.03,-127.67"/>
</g>
<!-- Node24 -->
<g id="node24" class="node">
<title>Node24</title>
<g id="a_node24"><a xlink:title=" ">
<polygon fill="white" stroke="#bfbfbf" points="215,-0.5 215,-19.5 256,-19.5 256,-0.5 215,-0.5"/>
<text text-anchor="middle" x="235.5" y="-7.5" font-family="Helvetica,sans-Serif" font-size="10.00">string</text>
</a>
</g>
</g>
<!-- Node8&#45;&gt;Node24 -->
<g id="edge25" class="edge">
<title>Node8&#45;&gt;Node24</title>
<path fill="none" stroke="midnightblue" d="M300.94,-168.44C280.58,-161.44 254.37,-149.75 236.5,-132 211.07,-106.74 200.22,-90.62 209.5,-56 212.15,-46.1 217.57,-36.13 222.77,-28.1"/>
<polygon fill="midnightblue" stroke="midnightblue" points="225.79,-29.89 228.61,-19.68 220.04,-25.91 225.79,-29.89"/>
</g>
<!-- Node25 -->
<g id="node25" class="node">
<title>Node25</title>
<g id="a_node25"><a xlink:title=" ">
<polygon fill="white" stroke="#bfbfbf" points="224.5,-56.5 224.5,-75.5 276.5,-75.5 276.5,-56.5 224.5,-56.5"/>
<text text-anchor="middle" x="250.5" y="-63.5" font-family="Helvetica,sans-Serif" font-size="10.00">memory</text>
</a>
</g>
</g>
<!-- Node8&#45;&gt;Node25 -->
<g id="edge26" class="edge">
<title>Node8&#45;&gt;Node25</title>
<path fill="none" stroke="midnightblue" d="M325.14,-168.37C311.72,-150.14 280.27,-107.43 262.78,-83.68"/>
<polygon fill="midnightblue" stroke="midnightblue" points="265.57,-81.57 256.83,-75.59 259.94,-85.72 265.57,-81.57"/>
</g>
<!-- Node26 -->
<g id="node26" class="node">
<title>Node26</title>
<g id="a_node26"><a xlink:title=" ">
<polygon fill="white" stroke="#bfbfbf" points="274.5,-0.5 274.5,-19.5 318.5,-19.5 318.5,-0.5 274.5,-0.5"/>
<text text-anchor="middle" x="296.5" y="-7.5" font-family="Helvetica,sans-Serif" font-size="10.00">vector</text>
</a>
</g>
</g>
<!-- Node8&#45;&gt;Node26 -->
<g id="edge27" class="edge">
<title>Node8&#45;&gt;Node26</title>
<path fill="none" stroke="midnightblue" d="M314.4,-168.38C287.43,-153.68 235.97,-120.96 215.5,-76 203.72,-50.13 237.16,-31.47 264.6,-20.96"/>
<polygon fill="midnightblue" stroke="midnightblue" points="266.12,-24.13 274.34,-17.45 263.75,-17.54 266.12,-24.13"/>
</g>
<!-- Node27 -->
<g id="node27" class="node">
<title>Node27</title>
<g id="a_node27"><a xlink:title=" ">
<polygon fill="white" stroke="#bfbfbf" points="295,-56.5 295,-75.5 338,-75.5 338,-56.5 295,-56.5"/>
<text text-anchor="middle" x="316.5" y="-63.5" font-family="Helvetica,sans-Serif" font-size="10.00">queue</text>
</a>
</g>
</g>
<!-- Node8&#45;&gt;Node27 -->
<g id="edge28" class="edge">
<title>Node8&#45;&gt;Node27</title>
<path fill="none" stroke="midnightblue" d="M328.64,-168.49C325.77,-159.53 321.5,-144.94 319.5,-132 317.12,-116.63 316.44,-98.99 316.31,-85.97"/>
<polygon fill="midnightblue" stroke="midnightblue" points="319.81,-85.89 316.31,-75.89 312.81,-85.89 319.81,-85.89"/>
</g>
<!-- Node28 -->
<g id="node28" class="node">
<title>Node28</title>
<g id="a_node28"><a xlink:href="plot_master_8h.html" target="_top" xlink:title=" ">
<polygon fill="white" stroke="black" points="328.5,-112.5 328.5,-131.5 398.5,-131.5 398.5,-112.5 328.5,-112.5"/>
<text text-anchor="middle" x="363.5" y="-119.5" font-family="Helvetica,sans-Serif" font-size="10.00">plotMaster.h</text>
</a>
</g>
</g>
<!-- Node8&#45;&gt;Node28 -->
<g id="edge29" class="edge">
<title>Node8&#45;&gt;Node28</title>
<path fill="none" stroke="midnightblue" d="M336.78,-168.08C341.21,-160.61 347.66,-149.72 353.12,-140.52"/>
<polygon fill="midnightblue" stroke="midnightblue" points="356.23,-142.14 358.31,-131.75 350.21,-138.57 356.23,-142.14"/>
</g>
<!-- Node39 -->
<g id="node39" class="node">
<title>Node39</title>
<g id="a_node39"><a xlink:title=" ">
<polygon fill="white" stroke="#bfbfbf" points="416.5,-112.5 416.5,-131.5 462.5,-131.5 462.5,-112.5 416.5,-112.5"/>
<text text-anchor="middle" x="439.5" y="-119.5" font-family="Helvetica,sans-Serif" font-size="10.00">chrono</text>
</a>
</g>
</g>
<!-- Node8&#45;&gt;Node39 -->
<g id="edge49" class="edge">
<title>Node8&#45;&gt;Node39</title>
<path fill="none" stroke="midnightblue" d="M348.85,-168.32C366.17,-159.66 393.02,-146.24 413,-136.25"/>
<polygon fill="midnightblue" stroke="midnightblue" points="414.81,-139.26 422.19,-131.65 411.68,-133 414.81,-139.26"/>
</g>
<!-- Node40 -->
<g id="node40" class="node">
<title>Node40</title>
<g id="a_node40"><a xlink:title=" ">
<polygon fill="white" stroke="#bfbfbf" points="480.5,-112.5 480.5,-131.5 524.5,-131.5 524.5,-112.5 480.5,-112.5"/>
<text text-anchor="middle" x="502.5" y="-119.5" font-family="Helvetica,sans-Serif" font-size="10.00">mutex</text>
</a>
</g>
</g>
<!-- Node8&#45;&gt;Node40 -->
<g id="edge50" class="edge">
<title>Node8&#45;&gt;Node40</title>
<path fill="none" stroke="midnightblue" d="M358.6,-168.44C389.02,-158.84 438.34,-143.26 470.6,-133.07"/>
<polygon fill="midnightblue" stroke="midnightblue" points="471.94,-136.32 480.43,-129.97 469.84,-129.64 471.94,-136.32"/>
</g>
<!-- Node10&#45;&gt;Node6 -->
<g id="edge18" class="edge">
<title>Node10&#45;&gt;Node6</title>
<path fill="none" stroke="midnightblue" d="M1213.8,-119.68C1147.61,-116.55 1011.93,-106.5 977.5,-76 964.46,-64.45 960.15,-44.48 958.83,-29.72"/>
<polygon fill="midnightblue" stroke="midnightblue" points="962.32,-29.48 958.31,-19.67 955.33,-29.84 962.32,-29.48"/>
</g>
<!-- Node11 -->
<g id="node11" class="node">
<title>Node11</title>
<g id="a_node11"><a xlink:title=" ">
<polygon fill="white" stroke="#bfbfbf" points="987,-56.5 987,-75.5 1088,-75.5 1088,-56.5 987,-56.5"/>
<text text-anchor="middle" x="1037.5" y="-63.5" font-family="Helvetica,sans-Serif" font-size="10.00">rl/mdl/XmlFactory.h</text>
</a>
</g>
</g>
<!-- Node10&#45;&gt;Node11 -->
<g id="edge10" class="edge">
<title>Node10&#45;&gt;Node11</title>
<path fill="none" stroke="midnightblue" d="M1216.75,-112.44C1179.98,-103.12 1121.05,-88.18 1080.88,-78"/>
<polygon fill="midnightblue" stroke="midnightblue" points="1081.65,-74.58 1071.09,-75.52 1079.93,-81.37 1081.65,-74.58"/>
</g>
<!-- Node12 -->
<g id="node12" class="node">
<title>Node12</title>
<g id="a_node12"><a xlink:title=" ">
<polygon fill="white" stroke="#bfbfbf" points="1106.5,-56.5 1106.5,-75.5 1184.5,-75.5 1184.5,-56.5 1106.5,-56.5"/>
<text text-anchor="middle" x="1145.5" y="-63.5" font-family="Helvetica,sans-Serif" font-size="10.00">rl/mdl/Model.h</text>
</a>
</g>
</g>
<!-- Node10&#45;&gt;Node12 -->
<g id="edge11" class="edge">
<title>Node10&#45;&gt;Node12</title>
<path fill="none" stroke="midnightblue" d="M1233.63,-112.32C1216.79,-103.66 1190.69,-90.24 1171.26,-80.25"/>
<polygon fill="midnightblue" stroke="midnightblue" points="1172.82,-77.12 1162.33,-75.65 1169.62,-83.34 1172.82,-77.12"/>
</g>
<!-- Node13 -->
<g id="node13" class="node">
<title>Node13</title>
<g id="a_node13"><a xlink:title=" ">
<polygon fill="white" stroke="#bfbfbf" points="676.5,-56.5 676.5,-75.5 752.5,-75.5 752.5,-56.5 676.5,-56.5"/>
<text text-anchor="middle" x="714.5" y="-63.5" font-family="Helvetica,sans-Serif" font-size="10.00">rl/math/Unit.h</text>
</a>
</g>
</g>
<!-- Node10&#45;&gt;Node13 -->
<g id="edge12" class="edge">
<title>Node10&#45;&gt;Node13</title>
<path fill="none" stroke="midnightblue" d="M1213.86,-118.85C1133.85,-113.9 937.37,-100.32 762.81,-76.06"/>
<polygon fill="midnightblue" stroke="midnightblue" points="763.06,-72.56 752.67,-74.63 762.08,-79.49 763.06,-72.56"/>
</g>
<!-- Node14 -->
<g id="node14" class="node">
<title>Node14</title>
<g id="a_node14"><a xlink:title=" ">
<polygon fill="white" stroke="#bfbfbf" points="1622.5,-0.5 1622.5,-19.5 1724.5,-19.5 1724.5,-0.5 1622.5,-0.5"/>
<text text-anchor="middle" x="1673.5" y="-7.5" font-family="Helvetica,sans-Serif" font-size="10.00">rl/math/Transform.h</text>
</a>
</g>
</g>
<!-- Node10&#45;&gt;Node14 -->
<g id="edge13" class="edge">
<title>Node10&#45;&gt;Node14</title>
<path fill="none" stroke="midnightblue" d="M1287.25,-113.29C1321.16,-105.63 1372.59,-92.64 1415.5,-76 1433.66,-68.95 1436.12,-62.46 1454.5,-56 1506.3,-37.78 1567.74,-25.95 1612.33,-19.02"/>
<polygon fill="midnightblue" stroke="midnightblue" points="1613.07,-22.45 1622.44,-17.49 1612.02,-15.53 1613.07,-22.45"/>
</g>
<!-- Node15 -->
<g id="node15" class="node">
<title>Node15</title>
<g id="a_node15"><a xlink:title=" ">
<polygon fill="white" stroke="#bfbfbf" points="1203,-56.5 1203,-75.5 1298,-75.5 1298,-56.5 1203,-56.5"/>
<text text-anchor="middle" x="1250.5" y="-63.5" font-family="Helvetica,sans-Serif" font-size="10.00">rl/mdl/Kinematic.h</text>
</a>
</g>
</g>
<!-- Node10&#45;&gt;Node15 -->
<g id="edge14" class="edge">
<title>Node10&#45;&gt;Node15</title>
<path fill="none" stroke="midnightblue" d="M1250.5,-112.08C1250.5,-105.01 1250.5,-94.86 1250.5,-85.99"/>
<polygon fill="midnightblue" stroke="midnightblue" points="1254,-85.75 1250.5,-75.75 1247,-85.75 1254,-85.75"/>
</g>
<!-- Node16 -->
<g id="node16" class="node">
<title>Node16</title>
<g id="a_node16"><a xlink:title=" ">
<polygon fill="white" stroke="#bfbfbf" points="1316,-56.5 1316,-75.5 1407,-75.5 1407,-56.5 1316,-56.5"/>
<text text-anchor="middle" x="1361.5" y="-63.5" font-family="Helvetica,sans-Serif" font-size="10.00">rl/mdl/Dynamic.h</text>
</a>
</g>
</g>
<!-- Node10&#45;&gt;Node16 -->
<g id="edge15" class="edge">
<title>Node10&#45;&gt;Node16</title>
<path fill="none" stroke="midnightblue" d="M1268.33,-112.32C1286.22,-103.62 1313.98,-90.12 1334.55,-80.11"/>
<polygon fill="midnightblue" stroke="midnightblue" points="1336.25,-83.18 1343.71,-75.65 1333.19,-76.88 1336.25,-83.18"/>
</g>
<!-- Node17 -->
<g id="node17" class="node">
<title>Node17</title>
<g id="a_node17"><a xlink:href="lbr__struct_8h.html" target="_top" xlink:title=" ">
<polygon fill="white" stroke="black" points="1880,-56.5 1880,-75.5 1945,-75.5 1945,-56.5 1880,-56.5"/>
<text text-anchor="middle" x="1912.5" y="-63.5" font-family="Helvetica,sans-Serif" font-size="10.00">lbr_struct.h</text>
</a>
</g>
</g>
<!-- Node10&#45;&gt;Node17 -->
<g id="edge16" class="edge">
<title>Node10&#45;&gt;Node17</title>
<path fill="none" stroke="midnightblue" d="M1287.03,-120.12C1381.66,-117.45 1642.62,-107.7 1869.47,-75.94"/>
<polygon fill="midnightblue" stroke="midnightblue" points="1870.15,-79.38 1879.56,-74.51 1869.17,-72.45 1870.15,-79.38"/>
</g>
<!-- Node18 -->
<g id="node18" class="node">
<title>Node18</title>
<g id="a_node18"><a xlink:title=" ">
<polygon fill="white" stroke="#bfbfbf" points="1463.5,-56.5 1463.5,-75.5 1577.5,-75.5 1577.5,-56.5 1463.5,-56.5"/>
<text text-anchor="middle" x="1520.5" y="-63.5" font-family="Helvetica,sans-Serif" font-size="10.00">boost/lexical_cast.hpp</text>
</a>
</g>
</g>
<!-- Node10&#45;&gt;Node18 -->
<g id="edge19" class="edge">
<title>Node10&#45;&gt;Node18</title>
<path fill="none" stroke="midnightblue" d="M1287.19,-113.66C1333.79,-104.34 1414.52,-88.2 1467.72,-77.56"/>
<polygon fill="midnightblue" stroke="midnightblue" points="1468.53,-80.96 1477.65,-75.57 1467.16,-74.1 1468.53,-80.96"/>
</g>
<!-- Node19 -->
<g id="node19" class="node">
<title>Node19</title>
<g id="a_node19"><a xlink:title=" ">
<polygon fill="white" stroke="#bfbfbf" points="1596,-56.5 1596,-75.5 1669,-75.5 1669,-56.5 1596,-56.5"/>
<text text-anchor="middle" x="1632.5" y="-63.5" font-family="Helvetica,sans-Serif" font-size="10.00">rl/mdl/Body.h</text>
</a>
</g>
</g>
<!-- Node10&#45;&gt;Node19 -->
<g id="edge20" class="edge">
<title>Node10&#45;&gt;Node19</title>
<path fill="none" stroke="midnightblue" d="M1287.4,-116.79C1347.61,-109.77 1470.95,-94.72 1585.85,-76.02"/>
<polygon fill="midnightblue" stroke="midnightblue" points="1586.58,-79.44 1595.88,-74.37 1585.44,-72.54 1586.58,-79.44"/>
</g>
<!-- Node20 -->
<g id="node20" class="node">
<title>Node20</title>
<g id="a_node20"><a xlink:title=" ">
<polygon fill="white" stroke="#bfbfbf" points="1687.5,-56.5 1687.5,-75.5 1763.5,-75.5 1763.5,-56.5 1687.5,-56.5"/>
<text text-anchor="middle" x="1725.5" y="-63.5" font-family="Helvetica,sans-Serif" font-size="10.00">rl/mdl/Fixed.h</text>
</a>
</g>
</g>
<!-- Node10&#45;&gt;Node20 -->
<g id="edge21" class="edge">
<title>Node10&#45;&gt;Node20</title>
<path fill="none" stroke="midnightblue" d="M1287.27,-118.19C1359.82,-112.41 1526.66,-98 1676.99,-76.11"/>
<polygon fill="midnightblue" stroke="midnightblue" points="1677.94,-79.51 1687.33,-74.59 1676.92,-72.58 1677.94,-79.51"/>
</g>
<!-- Node21 -->
<g id="node21" class="node">
<title>Node21</title>
<g id="a_node21"><a xlink:title=" ">
<polygon fill="white" stroke="#bfbfbf" points="1781.5,-56.5 1781.5,-75.5 1861.5,-75.5 1861.5,-56.5 1781.5,-56.5"/>
<text text-anchor="middle" x="1821.5" y="-63.5" font-family="Helvetica,sans-Serif" font-size="10.00">rl/mdl/Frame.h</text>
</a>
</g>
</g>
<!-- Node10&#45;&gt;Node21 -->
<g id="edge22" class="edge">
<title>Node10&#45;&gt;Node21</title>
<path fill="none" stroke="midnightblue" d="M1287.02,-119.06C1370.8,-114.34 1583.43,-100.91 1771.37,-76.03"/>
<polygon fill="midnightblue" stroke="midnightblue" points="1771.99,-79.48 1781.44,-74.68 1771.06,-72.54 1771.99,-79.48"/>
</g>
<!-- Node22 -->
<g id="node22" class="node">
<title>Node22</title>
<g id="a_node22"><a xlink:title=" ">
<polygon fill="white" stroke="#bfbfbf" points="771,-56.5 771,-75.5 862,-75.5 862,-56.5 771,-56.5"/>
<text text-anchor="middle" x="816.5" y="-63.5" font-family="Helvetica,sans-Serif" font-size="10.00">rl/mdl/Revolute.h</text>
</a>
</g>
</g>
<!-- Node10&#45;&gt;Node22 -->
<g id="edge23" class="edge">
<title>Node10&#45;&gt;Node22</title>
<path fill="none" stroke="midnightblue" d="M1213.84,-117.19C1147.83,-110.21 1004.35,-94.51 872.38,-76.07"/>
<polygon fill="midnightblue" stroke="midnightblue" points="872.48,-72.55 862.09,-74.62 871.51,-79.48 872.48,-72.55"/>
</g>
<!-- Node23 -->
<g id="node23" class="node">
<title>Node23</title>
<g id="a_node23"><a xlink:title=" ">
<polygon fill="white" stroke="#bfbfbf" points="880.5,-56.5 880.5,-75.5 930.5,-75.5 930.5,-56.5 880.5,-56.5"/>
<text text-anchor="middle" x="905.5" y="-63.5" font-family="Helvetica,sans-Serif" font-size="10.00">iomanip</text>
</a>
</g>
</g>
<!-- Node10&#45;&gt;Node23 -->
<g id="edge24" class="edge">
<title>Node10&#45;&gt;Node23</title>
<path fill="none" stroke="midnightblue" d="M1213.6,-116.55C1155.94,-109.38 1041.06,-94.21 944.5,-76 943.23,-75.76 941.94,-75.51 940.64,-75.25"/>
<polygon fill="midnightblue" stroke="midnightblue" points="941.12,-71.77 930.61,-73.11 939.66,-78.62 941.12,-71.77"/>
</g>
<!-- Node17&#45;&gt;Node14 -->
<g id="edge17" class="edge">
<title>Node17&#45;&gt;Node14</title>
<path fill="none" stroke="midnightblue" d="M1879.77,-57.6C1838.8,-48.35 1768.3,-32.42 1721.29,-21.8"/>
<polygon fill="midnightblue" stroke="midnightblue" points="1721.87,-18.34 1711.35,-19.55 1720.33,-25.17 1721.87,-18.34"/>
</g>
<!-- Node28&#45;&gt;Node13 -->
<g id="edge47" class="edge">
<title>Node28&#45;&gt;Node13</title>
<path fill="none" stroke="midnightblue" d="M398.53,-113.65C401.56,-113.07 404.58,-112.51 407.5,-112 498.53,-96.03 605.44,-81.25 666.06,-73.24"/>
<polygon fill="midnightblue" stroke="midnightblue" points="666.64,-76.7 676.1,-71.92 665.73,-69.76 666.64,-76.7"/>
</g>
<!-- Node28&#45;&gt;Node24 -->
<g id="edge43" class="edge">
<title>Node28&#45;&gt;Node24</title>
<path fill="none" stroke="midnightblue" d="M363.58,-112.29C363.25,-98.65 360.66,-72.13 346.5,-56 340.87,-49.59 296.78,-32.88 265.9,-21.73"/>
<polygon fill="midnightblue" stroke="midnightblue" points="266.99,-18.41 256.4,-18.32 264.63,-24.99 266.99,-18.41"/>
</g>
<!-- Node28&#45;&gt;Node25 -->
<g id="edge44" class="edge">
<title>Node28&#45;&gt;Node25</title>
<path fill="none" stroke="midnightblue" d="M345.59,-112.44C327.25,-103.68 298.49,-89.94 277.41,-79.86"/>
<polygon fill="midnightblue" stroke="midnightblue" points="278.85,-76.67 268.32,-75.52 275.83,-82.99 278.85,-76.67"/>
</g>
<!-- Node28&#45;&gt;Node26 -->
<g id="edge45" class="edge">
<title>Node28&#45;&gt;Node26</title>
<path fill="none" stroke="midnightblue" d="M369.67,-112.41C378.21,-99.38 391.41,-74.21 380.5,-56 374.42,-45.84 348.89,-32.98 327.56,-23.61"/>
<polygon fill="midnightblue" stroke="midnightblue" points="328.71,-20.3 318.14,-19.58 325.95,-26.73 328.71,-20.3"/>
</g>
<!-- Node28&#45;&gt;Node27 -->
<g id="edge46" class="edge">
<title>Node28&#45;&gt;Node27</title>
<path fill="none" stroke="midnightblue" d="M355.74,-112.08C348.96,-104.3 338.96,-92.8 330.74,-83.37"/>
<polygon fill="midnightblue" stroke="midnightblue" points="333.32,-81 324.12,-75.75 328.04,-85.59 333.32,-81"/>
</g>
<!-- Node29 -->
<g id="node29" class="node">
<title>Node29</title>
<g id="a_node29"><a xlink:href="matplotlibcpp_8h.html" target="_top" xlink:title=" ">
<polygon fill="white" stroke="black" points="537,-56.5 537,-75.5 620,-75.5 620,-56.5 537,-56.5"/>
<text text-anchor="middle" x="578.5" y="-63.5" font-family="Helvetica,sans-Serif" font-size="10.00">matplotlibcpp.h</text>
</a>
</g>
</g>
<!-- Node28&#45;&gt;Node29 -->
<g id="edge30" class="edge">
<title>Node28&#45;&gt;Node29</title>
<path fill="none" stroke="midnightblue" d="M397.57,-112.44C434.68,-103.12 494.16,-88.18 534.71,-78"/>
<polygon fill="midnightblue" stroke="midnightblue" points="535.75,-81.35 544.59,-75.52 534.04,-74.56 535.75,-81.35"/>
</g>
<!-- Node38 -->
<g id="node38" class="node">
<title>Node38</title>
<g id="a_node38"><a xlink:title=" ">
<polygon fill="white" stroke="#bfbfbf" points="432.5,-56.5 432.5,-75.5 518.5,-75.5 518.5,-56.5 432.5,-56.5"/>
<text text-anchor="middle" x="475.5" y="-63.5" font-family="Helvetica,sans-Serif" font-size="10.00">rl/math/Vector.h</text>
</a>
</g>
</g>
<!-- Node28&#45;&gt;Node38 -->
<g id="edge48" class="edge">
<title>Node28&#45;&gt;Node38</title>
<path fill="none" stroke="midnightblue" d="M381.49,-112.32C399.54,-103.62 427.55,-90.12 448.3,-80.11"/>
<polygon fill="midnightblue" stroke="midnightblue" points="450.06,-83.15 457.55,-75.65 447.02,-76.84 450.06,-83.15"/>
</g>
<!-- Node29&#45;&gt;Node5 -->
<g id="edge38" class="edge">
<title>Node29&#45;&gt;Node5</title>
<path fill="none" stroke="midnightblue" d="M536.79,-57.42C533.65,-56.91 530.53,-56.44 527.5,-56 384.97,-35.48 348.29,-38.68 205.5,-20 198.1,-19.03 190.21,-17.91 182.66,-16.8"/>
<polygon fill="midnightblue" stroke="midnightblue" points="183.06,-13.32 172.65,-15.29 182.02,-20.24 183.06,-13.32"/>
</g>
<!-- Node29&#45;&gt;Node6 -->
<g id="edge37" class="edge">
<title>Node29&#45;&gt;Node6</title>
<path fill="none" stroke="midnightblue" d="M620.07,-58.16C624.93,-57.41 629.82,-56.67 634.5,-56 757.67,-38.33 792.07,-42.17 918.67,-19.98"/>
<polygon fill="midnightblue" stroke="midnightblue" points="919.52,-23.38 928.75,-18.19 918.3,-16.49 919.52,-23.38"/>
</g>
<!-- Node29&#45;&gt;Node24 -->
<g id="edge41" class="edge">
<title>Node29&#45;&gt;Node24</title>
<path fill="none" stroke="midnightblue" d="M536.77,-57.5C533.64,-56.98 530.52,-56.47 527.5,-56 414.56,-38.28 382.12,-44.59 266.04,-19.79"/>
<polygon fill="midnightblue" stroke="midnightblue" points="266.56,-16.32 256.05,-17.62 265.08,-23.16 266.56,-16.32"/>
</g>
<!-- Node29&#45;&gt;Node26 -->
<g id="edge32" class="edge">
<title>Node29&#45;&gt;Node26</title>
<path fill="none" stroke="midnightblue" d="M536.92,-57.66C475.76,-46.86 365.46,-27.31 328.75,-19.91"/>
<polygon fill="midnightblue" stroke="midnightblue" points="329.29,-16.44 318.78,-17.77 327.82,-23.29 329.29,-16.44"/>
</g>
<!-- Node30 -->
<g id="node30" class="node">
<title>Node30</title>
<g id="a_node30"><a xlink:title=" ">
<polygon fill="white" stroke="#bfbfbf" points="336.5,-0.5 336.5,-19.5 392.5,-19.5 392.5,-0.5 336.5,-0.5"/>
<text text-anchor="middle" x="364.5" y="-7.5" font-family="Helvetica,sans-Serif" font-size="10.00">Python.h</text>
</a>
</g>
</g>
<!-- Node29&#45;&gt;Node30 -->
<g id="edge31" class="edge">
<title>Node29&#45;&gt;Node30</title>
<path fill="none" stroke="midnightblue" d="M544.59,-56.44C505.91,-46.68 442.83,-30.76 402.51,-20.59"/>
<polygon fill="midnightblue" stroke="midnightblue" points="403.34,-17.19 392.78,-18.14 401.62,-23.98 403.34,-17.19"/>
</g>
<!-- Node31 -->
<g id="node31" class="node">
<title>Node31</title>
<g id="a_node31"><a xlink:title=" ">
<polygon fill="white" stroke="#bfbfbf" points="411,-0.5 411,-19.5 446,-19.5 446,-0.5 411,-0.5"/>
<text text-anchor="middle" x="428.5" y="-7.5" font-family="Helvetica,sans-Serif" font-size="10.00">map</text>
</a>
</g>
</g>
<!-- Node29&#45;&gt;Node31 -->
<g id="edge33" class="edge">
<title>Node29&#45;&gt;Node31</title>
<path fill="none" stroke="midnightblue" d="M554.73,-56.44C527.8,-46.75 484,-30.98 455.72,-20.8"/>
<polygon fill="midnightblue" stroke="midnightblue" points="456.66,-17.42 446.06,-17.32 454.29,-24 456.66,-17.42"/>
</g>
<!-- Node32 -->
<g id="node32" class="node">
<title>Node32</title>
<g id="a_node32"><a xlink:title=" ">
<polygon fill="white" stroke="#bfbfbf" points="464.5,-0.5 464.5,-19.5 502.5,-19.5 502.5,-0.5 464.5,-0.5"/>
<text text-anchor="middle" x="483.5" y="-7.5" font-family="Helvetica,sans-Serif" font-size="10.00">array</text>
</a>
</g>
</g>
<!-- Node29&#45;&gt;Node32 -->
<g id="edge34" class="edge">
<title>Node29&#45;&gt;Node32</title>
<path fill="none" stroke="midnightblue" d="M563.24,-56.32C548.28,-47.82 525.25,-34.73 507.77,-24.8"/>
<polygon fill="midnightblue" stroke="midnightblue" points="509.15,-21.55 498.73,-19.65 505.69,-27.64 509.15,-21.55"/>
</g>
<!-- Node33 -->
<g id="node33" class="node">
<title>Node33</title>
<g id="a_node33"><a xlink:title=" ">
<polygon fill="white" stroke="#bfbfbf" points="521,-0.5 521,-19.5 572,-19.5 572,-0.5 521,-0.5"/>
<text text-anchor="middle" x="546.5" y="-7.5" font-family="Helvetica,sans-Serif" font-size="10.00">numeric</text>
</a>
</g>
</g>
<!-- Node29&#45;&gt;Node33 -->
<g id="edge35" class="edge">
<title>Node29&#45;&gt;Node33</title>
<path fill="none" stroke="midnightblue" d="M573.22,-56.08C568.79,-48.61 562.34,-37.72 556.88,-28.52"/>
<polygon fill="midnightblue" stroke="midnightblue" points="559.79,-26.57 551.69,-19.75 553.77,-30.14 559.79,-26.57"/>
</g>
<!-- Node34 -->
<g id="node34" class="node">
<title>Node34</title>
<g id="a_node34"><a xlink:title=" ">
<polygon fill="white" stroke="#bfbfbf" points="590.5,-0.5 590.5,-19.5 646.5,-19.5 646.5,-0.5 590.5,-0.5"/>
<text text-anchor="middle" x="618.5" y="-7.5" font-family="Helvetica,sans-Serif" font-size="10.00">algorithm</text>
</a>
</g>
</g>
<!-- Node29&#45;&gt;Node34 -->
<g id="edge36" class="edge">
<title>Node29&#45;&gt;Node34</title>
<path fill="none" stroke="midnightblue" d="M585.11,-56.08C590.76,-48.46 599.04,-37.26 605.95,-27.94"/>
<polygon fill="midnightblue" stroke="midnightblue" points="608.88,-29.87 612.02,-19.75 603.25,-25.7 608.88,-29.87"/>
</g>
<!-- Node35 -->
<g id="node35" class="node">
<title>Node35</title>
<g id="a_node35"><a xlink:title=" ">
<polygon fill="white" stroke="#bfbfbf" points="664.5,-0.5 664.5,-19.5 710.5,-19.5 710.5,-0.5 664.5,-0.5"/>
<text text-anchor="middle" x="687.5" y="-7.5" font-family="Helvetica,sans-Serif" font-size="10.00">cstdint</text>
</a>
</g>
</g>
<!-- Node29&#45;&gt;Node35 -->
<g id="edge39" class="edge">
<title>Node29&#45;&gt;Node35</title>
<path fill="none" stroke="midnightblue" d="M596.01,-56.32C613.57,-47.62 640.83,-34.12 661.03,-24.11"/>
<polygon fill="midnightblue" stroke="midnightblue" points="662.62,-27.23 670.03,-19.65 659.52,-20.96 662.62,-27.23"/>
</g>
<!-- Node36 -->
<g id="node36" class="node">
<title>Node36</title>
<g id="a_node36"><a xlink:title=" ">
<polygon fill="white" stroke="#bfbfbf" points="729,-0.5 729,-19.5 788,-19.5 788,-0.5 729,-0.5"/>
<text text-anchor="middle" x="758.5" y="-7.5" font-family="Helvetica,sans-Serif" font-size="10.00">functional</text>
</a>
</g>
</g>
<!-- Node29&#45;&gt;Node36 -->
<g id="edge40" class="edge">
<title>Node29&#45;&gt;Node36</title>
<path fill="none" stroke="midnightblue" d="M607.02,-56.44C637.57,-47.28 686.21,-32.69 720.1,-22.52"/>
<polygon fill="midnightblue" stroke="midnightblue" points="721.54,-25.74 730.11,-19.52 719.53,-19.04 721.54,-25.74"/>
</g>
<!-- Node37 -->
<g id="node37" class="node">
<title>Node37</title>
<g id="a_node37"><a xlink:title=" ">
<polygon fill="white" stroke="#bfbfbf" points="806,-0.5 806,-19.5 911,-19.5 911,-0.5 806,-0.5"/>
<text text-anchor="middle" x="858.5" y="-7.5" font-family="Helvetica,sans-Serif" font-size="10.00">numpy/arrayobject.h</text>
</a>
</g>
</g>
<!-- Node29&#45;&gt;Node37 -->
<g id="edge42" class="edge">
<title>Node29&#45;&gt;Node37</title>
<path fill="none" stroke="midnightblue" d="M620.12,-56.97C669.06,-47.53 750.45,-31.84 804.29,-21.45"/>
<polygon fill="midnightblue" stroke="midnightblue" points="805.19,-24.85 814.34,-19.52 803.86,-17.97 805.19,-24.85"/>
</g>
</g>
</svg>
