<?xml version="1.0" encoding="UTF-8" standalone="no"?>
<!DOCTYPE svg PUBLIC "-//W3C//DTD SVG 1.1//EN"
 "http://www.w3.org/Graphics/SVG/1.1/DTD/svg11.dtd">
<!-- Generated by graphviz version 2.43.0 (0)
 -->
<!-- Title: include/mastersclient.h Pages: 1 -->
<svg width="1893pt" height="196pt"
 viewBox="0.00 0.00 1893.00 196.00" xmlns="http://www.w3.org/2000/svg" xmlns:xlink="http://www.w3.org/1999/xlink">
<g id="graph0" class="graph" transform="scale(1 1) rotate(0) translate(4 192)">
<title>include/mastersclient.h</title>
<polygon fill="white" stroke="transparent" points="-4,4 -4,-192 1889,-192 1889,4 -4,4"/>
<!-- Node1 -->
<g id="node1" class="node">
<title>Node1</title>
<g id="a_node1"><a xlink:title=" ">
<polygon fill="#bfbfbf" stroke="black" points="1560.5,-168.5 1560.5,-187.5 1677.5,-187.5 1677.5,-168.5 1560.5,-168.5"/>
<text text-anchor="middle" x="1619" y="-175.5" font-family="Helvetica,sans-Serif" font-size="10.00">include/mastersclient.h</text>
</a>
</g>
</g>
<!-- Node2 -->
<g id="node2" class="node">
<title>Node2</title>
<g id="a_node2"><a xlink:title=" ">
<polygon fill="white" stroke="#bfbfbf" points="595,-112.5 595,-131.5 673,-131.5 673,-112.5 595,-112.5"/>
<text text-anchor="middle" x="634" y="-119.5" font-family="Helvetica,sans-Serif" font-size="10.00">friLBRClient.h</text>
</a>
</g>
</g>
<!-- Node1&#45;&gt;Node2 -->
<g id="edge1" class="edge">
<title>Node1&#45;&gt;Node2</title>
<path fill="none" stroke="midnightblue" d="M1560.46,-176.9C1414.22,-176.06 1021.08,-170.22 683.22,-131.83"/>
<polygon fill="midnightblue" stroke="midnightblue" points="683.58,-128.35 673.25,-130.69 682.78,-135.3 683.58,-128.35"/>
</g>
<!-- Node3 -->
<g id="node3" class="node">
<title>Node3</title>
<g id="a_node3"><a xlink:href="robot_model_8h.html" target="_top" xlink:title="Definition of the robotModel class.">
<polygon fill="white" stroke="black" points="691.5,-112.5 691.5,-131.5 764.5,-131.5 764.5,-112.5 691.5,-112.5"/>
<text text-anchor="middle" x="728" y="-119.5" font-family="Helvetica,sans-Serif" font-size="10.00">robotModel.h</text>
</a>
</g>
</g>
<!-- Node1&#45;&gt;Node3 -->
<g id="edge2" class="edge">
<title>Node1&#45;&gt;Node3</title>
<path fill="none" stroke="midnightblue" d="M1560.19,-173.44C1394.46,-163.39 925.84,-134.99 775.24,-125.86"/>
<polygon fill="midnightblue" stroke="midnightblue" points="775.15,-122.35 764.95,-125.24 774.72,-129.34 775.15,-122.35"/>
</g>
<!-- Node18 -->
<g id="node18" class="node">
<title>Node18</title>
<g id="a_node18"><a xlink:title=" ">
<polygon fill="white" stroke="#bfbfbf" points="1689.5,-0.5 1689.5,-19.5 1730.5,-19.5 1730.5,-0.5 1689.5,-0.5"/>
<text text-anchor="middle" x="1710" y="-7.5" font-family="Helvetica,sans-Serif" font-size="10.00">string</text>
</a>
</g>
</g>
<!-- Node1&#45;&gt;Node18 -->
<g id="edge18" class="edge">
<title>Node1&#45;&gt;Node18</title>
<path fill="none" stroke="midnightblue" d="M1626.64,-168.45C1641.15,-151.81 1672.85,-113.39 1691,-76 1698.22,-61.13 1703.24,-42.98 1706.3,-29.64"/>
<polygon fill="midnightblue" stroke="midnightblue" points="1709.75,-30.26 1708.41,-19.75 1702.9,-28.8 1709.75,-30.26"/>
</g>
<!-- Node19 -->
<g id="node19" class="node">
<title>Node19</title>
<g id="a_node19"><a xlink:title=" ">
<polygon fill="white" stroke="#bfbfbf" points="1286,-56.5 1286,-75.5 1338,-75.5 1338,-56.5 1286,-56.5"/>
<text text-anchor="middle" x="1312" y="-63.5" font-family="Helvetica,sans-Serif" font-size="10.00">memory</text>
</a>
</g>
</g>
<!-- Node1&#45;&gt;Node19 -->
<g id="edge19" class="edge">
<title>Node1&#45;&gt;Node19</title>
<path fill="none" stroke="midnightblue" d="M1582.95,-168.42C1550.22,-160.27 1500.82,-147.04 1459,-132 1415.83,-116.47 1367.48,-94.08 1338.41,-80.04"/>
<polygon fill="midnightblue" stroke="midnightblue" points="1339.84,-76.85 1329.32,-75.63 1336.78,-83.15 1339.84,-76.85"/>
</g>
<!-- Node20 -->
<g id="node20" class="node">
<title>Node20</title>
<g id="a_node20"><a xlink:title=" ">
<polygon fill="white" stroke="#bfbfbf" points="1749,-0.5 1749,-19.5 1793,-19.5 1793,-0.5 1749,-0.5"/>
<text text-anchor="middle" x="1771" y="-7.5" font-family="Helvetica,sans-Serif" font-size="10.00">vector</text>
</a>
</g>
</g>
<!-- Node1&#45;&gt;Node20 -->
<g id="edge20" class="edge">
<title>Node1&#45;&gt;Node20</title>
<path fill="none" stroke="midnightblue" d="M1677.89,-169.43C1722.33,-162.37 1777.95,-150.17 1792,-132 1815.49,-101.62 1795.53,-54.1 1781.64,-28.59"/>
<polygon fill="midnightblue" stroke="midnightblue" points="1784.55,-26.63 1776.54,-19.69 1778.47,-30.11 1784.55,-26.63"/>
</g>
<!-- Node21 -->
<g id="node21" class="node">
<title>Node21</title>
<g id="a_node21"><a xlink:title=" ">
<polygon fill="white" stroke="#bfbfbf" points="1638.5,-56.5 1638.5,-75.5 1681.5,-75.5 1681.5,-56.5 1638.5,-56.5"/>
<text text-anchor="middle" x="1660" y="-63.5" font-family="Helvetica,sans-Serif" font-size="10.00">queue</text>
</a>
</g>
</g>
<!-- Node1&#45;&gt;Node21 -->
<g id="edge21" class="edge">
<title>Node1&#45;&gt;Node21</title>
<path fill="none" stroke="midnightblue" d="M1622.24,-168.16C1626.83,-155.65 1635.51,-132.06 1643,-112 1646.29,-103.19 1649.98,-93.42 1653.07,-85.24"/>
<polygon fill="midnightblue" stroke="midnightblue" points="1656.45,-86.21 1656.72,-75.62 1649.9,-83.73 1656.45,-86.21"/>
</g>
<!-- Node22 -->
<g id="node22" class="node">
<title>Node22</title>
<g id="a_node22"><a xlink:title=" ">
<polygon fill="white" stroke="#bfbfbf" points="1685.5,-112.5 1685.5,-131.5 1782.5,-131.5 1782.5,-112.5 1685.5,-112.5"/>
<text text-anchor="middle" x="1734" y="-119.5" font-family="Helvetica,sans-Serif" font-size="10.00">gnuplot&#45;iostream.h</text>
</a>
</g>
</g>
<!-- Node1&#45;&gt;Node22 -->
<g id="edge22" class="edge">
<title>Node1&#45;&gt;Node22</title>
<path fill="none" stroke="midnightblue" d="M1637.22,-168.44C1655.9,-159.68 1685.16,-145.94 1706.62,-135.86"/>
<polygon fill="midnightblue" stroke="midnightblue" points="1708.3,-138.93 1715.86,-131.52 1705.32,-132.6 1708.3,-138.93"/>
</g>
<!-- Node23 -->
<g id="node23" class="node">
<title>Node23</title>
<g id="a_node23"><a xlink:href="plot_master_8h.html" target="_top" xlink:title=" ">
<polygon fill="white" stroke="black" points="1468,-112.5 1468,-131.5 1538,-131.5 1538,-112.5 1468,-112.5"/>
<text text-anchor="middle" x="1503" y="-119.5" font-family="Helvetica,sans-Serif" font-size="10.00">plotMaster.h</text>
</a>
</g>
</g>
<!-- Node1&#45;&gt;Node23 -->
<g id="edge23" class="edge">
<title>Node1&#45;&gt;Node23</title>
<path fill="none" stroke="midnightblue" d="M1600.62,-168.44C1581.78,-159.68 1552.27,-145.94 1530.62,-135.86"/>
<polygon fill="midnightblue" stroke="midnightblue" points="1531.84,-132.56 1521.29,-131.52 1528.88,-138.91 1531.84,-132.56"/>
</g>
<!-- Node35 -->
<g id="node35" class="node">
<title>Node35</title>
<g id="a_node35"><a xlink:title=" ">
<polygon fill="white" stroke="#bfbfbf" points="1839,-112.5 1839,-131.5 1885,-131.5 1885,-112.5 1839,-112.5"/>
<text text-anchor="middle" x="1862" y="-119.5" font-family="Helvetica,sans-Serif" font-size="10.00">chrono</text>
</a>
</g>
</g>
<!-- Node1&#45;&gt;Node35 -->
<g id="edge43" class="edge">
<title>Node1&#45;&gt;Node35</title>
<path fill="none" stroke="midnightblue" d="M1659.33,-168.48C1700.9,-159.64 1767.57,-145.25 1825,-132 1826.27,-131.71 1827.56,-131.41 1828.86,-131.1"/>
<polygon fill="midnightblue" stroke="midnightblue" points="1830.01,-134.42 1838.93,-128.7 1828.39,-127.62 1830.01,-134.42"/>
</g>
<!-- Node4 -->
<g id="node4" class="node">
<title>Node4</title>
<g id="a_node4"><a xlink:title=" ">
<polygon fill="white" stroke="#bfbfbf" points="370.5,-56.5 370.5,-75.5 471.5,-75.5 471.5,-56.5 370.5,-56.5"/>
<text text-anchor="middle" x="421" y="-63.5" font-family="Helvetica,sans-Serif" font-size="10.00">rl/mdl/XmlFactory.h</text>
</a>
</g>
</g>
<!-- Node3&#45;&gt;Node4 -->
<g id="edge3" class="edge">
<title>Node3&#45;&gt;Node4</title>
<path fill="none" stroke="midnightblue" d="M691.36,-113.75C688.19,-113.15 685.04,-112.56 682,-112 613.39,-99.37 534.43,-85.91 481.49,-77.03"/>
<polygon fill="midnightblue" stroke="midnightblue" points="482.02,-73.57 471.58,-75.37 480.87,-80.48 482.02,-73.57"/>
</g>
<!-- Node5 -->
<g id="node5" class="node">
<title>Node5</title>
<g id="a_node5"><a xlink:title=" ">
<polygon fill="white" stroke="#bfbfbf" points="490,-56.5 490,-75.5 568,-75.5 568,-56.5 490,-56.5"/>
<text text-anchor="middle" x="529" y="-63.5" font-family="Helvetica,sans-Serif" font-size="10.00">rl/mdl/Model.h</text>
</a>
</g>
</g>
<!-- Node3&#45;&gt;Node5 -->
<g id="edge4" class="edge">
<title>Node3&#45;&gt;Node5</title>
<path fill="none" stroke="midnightblue" d="M696.47,-112.44C662.41,-103.2 607.99,-88.44 570.48,-78.26"/>
<polygon fill="midnightblue" stroke="midnightblue" points="570.95,-74.76 560.38,-75.52 569.12,-81.51 570.95,-74.76"/>
</g>
<!-- Node6 -->
<g id="node6" class="node">
<title>Node6</title>
<g id="a_node6"><a xlink:title=" ">
<polygon fill="white" stroke="#bfbfbf" points="1192,-56.5 1192,-75.5 1268,-75.5 1268,-56.5 1192,-56.5"/>
<text text-anchor="middle" x="1230" y="-63.5" font-family="Helvetica,sans-Serif" font-size="10.00">rl/math/Unit.h</text>
</a>
</g>
</g>
<!-- Node3&#45;&gt;Node6 -->
<g id="edge5" class="edge">
<title>Node3&#45;&gt;Node6</title>
<path fill="none" stroke="midnightblue" d="M764.7,-118.5C840.63,-113.1 1020.66,-99.02 1181.74,-76.06"/>
<polygon fill="midnightblue" stroke="midnightblue" points="1182.43,-79.5 1191.83,-74.61 1181.43,-72.57 1182.43,-79.5"/>
</g>
<!-- Node7 -->
<g id="node7" class="node">
<title>Node7</title>
<g id="a_node7"><a xlink:title=" ">
<polygon fill="white" stroke="#bfbfbf" points="686,-0.5 686,-19.5 788,-19.5 788,-0.5 686,-0.5"/>
<text text-anchor="middle" x="737" y="-7.5" font-family="Helvetica,sans-Serif" font-size="10.00">rl/math/Transform.h</text>
</a>
</g>
</g>
<!-- Node3&#45;&gt;Node7 -->
<g id="edge6" class="edge">
<title>Node3&#45;&gt;Node7</title>
<path fill="none" stroke="midnightblue" d="M695.96,-112.46C666.27,-103.82 625.33,-89.8 616,-76 611.02,-68.64 610.93,-63.3 616,-56 629.71,-36.28 653.13,-25.19 675.75,-18.95"/>
<polygon fill="midnightblue" stroke="midnightblue" points="676.83,-22.29 685.7,-16.49 675.15,-15.49 676.83,-22.29"/>
</g>
<!-- Node8 -->
<g id="node8" class="node">
<title>Node8</title>
<g id="a_node8"><a xlink:title=" ">
<polygon fill="white" stroke="#bfbfbf" points="624.5,-56.5 624.5,-75.5 719.5,-75.5 719.5,-56.5 624.5,-56.5"/>
<text text-anchor="middle" x="672" y="-63.5" font-family="Helvetica,sans-Serif" font-size="10.00">rl/mdl/Kinematic.h</text>
</a>
</g>
</g>
<!-- Node3&#45;&gt;Node8 -->
<g id="edge7" class="edge">
<title>Node3&#45;&gt;Node8</title>
<path fill="none" stroke="midnightblue" d="M719,-112.32C710.81,-104.42 698.49,-92.55 688.53,-82.94"/>
<polygon fill="midnightblue" stroke="midnightblue" points="690.79,-80.26 681.16,-75.83 685.93,-85.29 690.79,-80.26"/>
</g>
<!-- Node9 -->
<g id="node9" class="node">
<title>Node9</title>
<g id="a_node9"><a xlink:title=" ">
<polygon fill="white" stroke="#bfbfbf" points="737.5,-56.5 737.5,-75.5 828.5,-75.5 828.5,-56.5 737.5,-56.5"/>
<text text-anchor="middle" x="783" y="-63.5" font-family="Helvetica,sans-Serif" font-size="10.00">rl/mdl/Dynamic.h</text>
</a>
</g>
</g>
<!-- Node3&#45;&gt;Node9 -->
<g id="edge8" class="edge">
<title>Node3&#45;&gt;Node9</title>
<path fill="none" stroke="midnightblue" d="M737.08,-112.08C745.17,-104.14 757.2,-92.34 766.91,-82.8"/>
<polygon fill="midnightblue" stroke="midnightblue" points="769.4,-85.25 774.09,-75.75 764.5,-80.26 769.4,-85.25"/>
</g>
<!-- Node10 -->
<g id="node10" class="node">
<title>Node10</title>
<g id="a_node10"><a xlink:href="lbr__struct_8h.html" target="_top" xlink:title=" ">
<polygon fill="white" stroke="black" points="846.5,-56.5 846.5,-75.5 911.5,-75.5 911.5,-56.5 846.5,-56.5"/>
<text text-anchor="middle" x="879" y="-63.5" font-family="Helvetica,sans-Serif" font-size="10.00">lbr_struct.h</text>
</a>
</g>
</g>
<!-- Node3&#45;&gt;Node10 -->
<g id="edge9" class="edge">
<title>Node3&#45;&gt;Node10</title>
<path fill="none" stroke="midnightblue" d="M751.93,-112.44C777.22,-103.4 817.3,-89.06 845.68,-78.92"/>
<polygon fill="midnightblue" stroke="midnightblue" points="846.95,-82.18 855.19,-75.52 844.59,-75.59 846.95,-82.18"/>
</g>
<!-- Node11 -->
<g id="node11" class="node">
<title>Node11</title>
<g id="a_node11"><a xlink:title=" ">
<polygon fill="white" stroke="#bfbfbf" points="928.5,-0.5 928.5,-19.5 987.5,-19.5 987.5,-0.5 928.5,-0.5"/>
<text text-anchor="middle" x="958" y="-7.5" font-family="Helvetica,sans-Serif" font-size="10.00">stdexcept</text>
</a>
</g>
</g>
<!-- Node3&#45;&gt;Node11 -->
<g id="edge11" class="edge">
<title>Node3&#45;&gt;Node11</title>
<path fill="none" stroke="midnightblue" d="M764.69,-120.94C806.44,-119.1 874.82,-110.47 921,-76 936.57,-64.38 946.59,-44.12 952.21,-29.31"/>
<polygon fill="midnightblue" stroke="midnightblue" points="955.58,-30.28 955.56,-19.68 948.97,-27.98 955.58,-30.28"/>
</g>
<!-- Node12 -->
<g id="node12" class="node">
<title>Node12</title>
<g id="a_node12"><a xlink:title=" ">
<polygon fill="white" stroke="#bfbfbf" points="968,-56.5 968,-75.5 1082,-75.5 1082,-56.5 968,-56.5"/>
<text text-anchor="middle" x="1025" y="-63.5" font-family="Helvetica,sans-Serif" font-size="10.00">boost/lexical_cast.hpp</text>
</a>
</g>
</g>
<!-- Node3&#45;&gt;Node12 -->
<g id="edge12" class="edge">
<title>Node3&#45;&gt;Node12</title>
<path fill="none" stroke="midnightblue" d="M764.72,-114.32C815.63,-105.07 908.14,-88.25 968.05,-77.35"/>
<polygon fill="midnightblue" stroke="midnightblue" points="968.89,-80.76 978.11,-75.53 967.64,-73.87 968.89,-80.76"/>
</g>
<!-- Node13 -->
<g id="node13" class="node">
<title>Node13</title>
<g id="a_node13"><a xlink:title=" ">
<polygon fill="white" stroke="#bfbfbf" points="1100.5,-56.5 1100.5,-75.5 1173.5,-75.5 1173.5,-56.5 1100.5,-56.5"/>
<text text-anchor="middle" x="1137" y="-63.5" font-family="Helvetica,sans-Serif" font-size="10.00">rl/mdl/Body.h</text>
</a>
</g>
</g>
<!-- Node3&#45;&gt;Node13 -->
<g id="edge13" class="edge">
<title>Node3&#45;&gt;Node13</title>
<path fill="none" stroke="midnightblue" d="M764.7,-117.31C828.63,-110.69 964.74,-95.78 1090.21,-76.02"/>
<polygon fill="midnightblue" stroke="midnightblue" points="1091.06,-79.43 1100.38,-74.4 1089.96,-72.52 1091.06,-79.43"/>
</g>
<!-- Node14 -->
<g id="node14" class="node">
<title>Node14</title>
<g id="a_node14"><a xlink:title=" ">
<polygon fill="white" stroke="#bfbfbf" points="0,-56.5 0,-75.5 76,-75.5 76,-56.5 0,-56.5"/>
<text text-anchor="middle" x="38" y="-63.5" font-family="Helvetica,sans-Serif" font-size="10.00">rl/mdl/Fixed.h</text>
</a>
</g>
</g>
<!-- Node3&#45;&gt;Node14 -->
<g id="edge14" class="edge">
<title>Node3&#45;&gt;Node14</title>
<path fill="none" stroke="midnightblue" d="M691.41,-113.39C688.24,-112.86 685.07,-112.39 682,-112 421.66,-78.83 350.55,-108.3 86.44,-76.01"/>
<polygon fill="midnightblue" stroke="midnightblue" points="86.51,-72.49 76.15,-74.73 85.65,-79.44 86.51,-72.49"/>
</g>
<!-- Node15 -->
<g id="node15" class="node">
<title>Node15</title>
<g id="a_node15"><a xlink:title=" ">
<polygon fill="white" stroke="#bfbfbf" points="94,-56.5 94,-75.5 174,-75.5 174,-56.5 94,-56.5"/>
<text text-anchor="middle" x="134" y="-63.5" font-family="Helvetica,sans-Serif" font-size="10.00">rl/mdl/Frame.h</text>
</a>
</g>
</g>
<!-- Node3&#45;&gt;Node15 -->
<g id="edge15" class="edge">
<title>Node3&#45;&gt;Node15</title>
<path fill="none" stroke="midnightblue" d="M691.41,-113.43C688.23,-112.89 685.07,-112.41 682,-112 464.83,-83.03 405.3,-103.51 184.03,-75.99"/>
<polygon fill="midnightblue" stroke="midnightblue" points="184.42,-72.51 174.06,-74.73 183.54,-79.45 184.42,-72.51"/>
</g>
<!-- Node16 -->
<g id="node16" class="node">
<title>Node16</title>
<g id="a_node16"><a xlink:title=" ">
<polygon fill="white" stroke="#bfbfbf" points="192.5,-56.5 192.5,-75.5 283.5,-75.5 283.5,-56.5 192.5,-56.5"/>
<text text-anchor="middle" x="238" y="-63.5" font-family="Helvetica,sans-Serif" font-size="10.00">rl/mdl/Revolute.h</text>
</a>
</g>
</g>
<!-- Node3&#45;&gt;Node16 -->
<g id="edge16" class="edge">
<title>Node3&#45;&gt;Node16</title>
<path fill="none" stroke="midnightblue" d="M691.4,-113.49C688.23,-112.95 685.06,-112.44 682,-112 513.33,-87.76 466.93,-97.65 293.55,-75.97"/>
<polygon fill="midnightblue" stroke="midnightblue" points="293.94,-72.5 283.58,-74.71 293.06,-79.44 293.94,-72.5"/>
</g>
<!-- Node17 -->
<g id="node17" class="node">
<title>Node17</title>
<g id="a_node17"><a xlink:title=" ">
<polygon fill="white" stroke="#bfbfbf" points="302,-56.5 302,-75.5 352,-75.5 352,-56.5 302,-56.5"/>
<text text-anchor="middle" x="327" y="-63.5" font-family="Helvetica,sans-Serif" font-size="10.00">iomanip</text>
</a>
</g>
</g>
<!-- Node3&#45;&gt;Node17 -->
<g id="edge17" class="edge">
<title>Node3&#45;&gt;Node17</title>
<path fill="none" stroke="midnightblue" d="M691.39,-113.56C688.22,-113 685.06,-112.47 682,-112 543.29,-90.69 503.86,-101.91 362.09,-75.95"/>
<polygon fill="midnightblue" stroke="midnightblue" points="362.63,-72.49 352.16,-74.1 361.35,-79.37 362.63,-72.49"/>
</g>
<!-- Node10&#45;&gt;Node7 -->
<g id="edge10" class="edge">
<title>Node10&#45;&gt;Node7</title>
<path fill="none" stroke="midnightblue" d="M856.5,-56.44C832.92,-47.48 795.68,-33.31 769.04,-23.18"/>
<polygon fill="midnightblue" stroke="midnightblue" points="769.99,-19.8 759.4,-19.52 767.5,-26.34 769.99,-19.8"/>
</g>
<!-- Node23&#45;&gt;Node6 -->
<g id="edge41" class="edge">
<title>Node23&#45;&gt;Node6</title>
<path fill="none" stroke="midnightblue" d="M1467.87,-114.05C1419.57,-104.5 1332.48,-87.27 1278.14,-76.52"/>
<polygon fill="midnightblue" stroke="midnightblue" points="1278.56,-73.04 1268.07,-74.53 1277.2,-79.9 1278.56,-73.04"/>
</g>
<!-- Node23&#45;&gt;Node18 -->
<g id="edge37" class="edge">
<title>Node23&#45;&gt;Node18</title>
<path fill="none" stroke="midnightblue" d="M1496.67,-112.37C1487.58,-98.83 1473.33,-72.44 1487,-56 1541.04,8.99 1592.05,-37.4 1679.5,-19.93"/>
<polygon fill="midnightblue" stroke="midnightblue" points="1680.5,-23.3 1689.49,-17.69 1678.96,-16.47 1680.5,-23.3"/>
</g>
<!-- Node23&#45;&gt;Node19 -->
<g id="edge38" class="edge">
<title>Node23&#45;&gt;Node19</title>
<path fill="none" stroke="midnightblue" d="M1472.74,-112.44C1438.79,-102.85 1383.8,-87.3 1347.76,-77.11"/>
<polygon fill="midnightblue" stroke="midnightblue" points="1348.71,-73.74 1338.13,-74.39 1346.8,-80.48 1348.71,-73.74"/>
</g>
<!-- Node23&#45;&gt;Node20 -->
<g id="edge39" class="edge">
<title>Node23&#45;&gt;Node20</title>
<path fill="none" stroke="midnightblue" d="M1519.87,-112.38C1537.59,-103.33 1566.26,-88.67 1591,-76 1608.34,-67.12 1611.99,-63.43 1630,-56 1649.89,-47.79 1704.1,-31.07 1739.21,-20.48"/>
<polygon fill="midnightblue" stroke="midnightblue" points="1740.43,-23.77 1749,-17.54 1738.42,-17.06 1740.43,-23.77"/>
</g>
<!-- Node23&#45;&gt;Node21 -->
<g id="edge40" class="edge">
<title>Node23&#45;&gt;Node21</title>
<path fill="none" stroke="midnightblue" d="M1527.88,-112.44C1555.1,-103.08 1598.81,-88.05 1628.43,-77.86"/>
<polygon fill="midnightblue" stroke="midnightblue" points="1629.95,-81.04 1638.27,-74.47 1627.68,-74.42 1629.95,-81.04"/>
</g>
<!-- Node24 -->
<g id="node24" class="node">
<title>Node24</title>
<g id="a_node24"><a xlink:href="matplotlibcpp_8h.html" target="_top" xlink:title=" ">
<polygon fill="white" stroke="black" points="1356.5,-56.5 1356.5,-75.5 1439.5,-75.5 1439.5,-56.5 1356.5,-56.5"/>
<text text-anchor="middle" x="1398" y="-63.5" font-family="Helvetica,sans-Serif" font-size="10.00">matplotlibcpp.h</text>
</a>
</g>
</g>
<!-- Node23&#45;&gt;Node24 -->
<g id="edge24" class="edge">
<title>Node23&#45;&gt;Node24</title>
<path fill="none" stroke="midnightblue" d="M1486.13,-112.32C1469.29,-103.66 1443.19,-90.24 1423.76,-80.25"/>
<polygon fill="midnightblue" stroke="midnightblue" points="1425.32,-77.12 1414.83,-75.65 1422.12,-83.34 1425.32,-77.12"/>
</g>
<!-- Node34 -->
<g id="node34" class="node">
<title>Node34</title>
<g id="a_node34"><a xlink:title=" ">
<polygon fill="white" stroke="#bfbfbf" points="1496,-56.5 1496,-75.5 1582,-75.5 1582,-56.5 1496,-56.5"/>
<text text-anchor="middle" x="1539" y="-63.5" font-family="Helvetica,sans-Serif" font-size="10.00">rl/math/Vector.h</text>
</a>
</g>
</g>
<!-- Node23&#45;&gt;Node34 -->
<g id="edge42" class="edge">
<title>Node23&#45;&gt;Node34</title>
<path fill="none" stroke="midnightblue" d="M1508.94,-112.08C1513.98,-104.53 1521.34,-93.49 1527.51,-84.23"/>
<polygon fill="midnightblue" stroke="midnightblue" points="1530.53,-86.01 1533.17,-75.75 1524.71,-82.13 1530.53,-86.01"/>
</g>
<!-- Node24&#45;&gt;Node11 -->
<g id="edge31" class="edge">
<title>Node24&#45;&gt;Node11</title>
<path fill="none" stroke="midnightblue" d="M1356.29,-57.41C1353.15,-56.91 1350.03,-56.43 1347,-56 1200.5,-35.13 1162.71,-39.35 1016,-20 1010.11,-19.22 1003.9,-18.33 997.81,-17.42"/>
<polygon fill="midnightblue" stroke="midnightblue" points="998.18,-13.94 987.77,-15.89 997.12,-20.86 998.18,-13.94"/>
</g>
<!-- Node24&#45;&gt;Node18 -->
<g id="edge35" class="edge">
<title>Node24&#45;&gt;Node18</title>
<path fill="none" stroke="midnightblue" d="M1439.59,-58.31C1444.45,-57.53 1449.33,-56.75 1454,-56 1551.72,-40.4 1579.78,-43.01 1679.33,-20.14"/>
<polygon fill="midnightblue" stroke="midnightblue" points="1680.24,-23.53 1689.19,-17.85 1678.66,-16.71 1680.24,-23.53"/>
</g>
<!-- Node24&#45;&gt;Node20 -->
<g id="edge26" class="edge">
<title>Node24&#45;&gt;Node20</title>
<path fill="none" stroke="midnightblue" d="M1439.67,-60.32C1514.12,-51.83 1668.1,-33.67 1738.92,-19.9"/>
<polygon fill="midnightblue" stroke="midnightblue" points="1739.65,-23.32 1748.75,-17.9 1738.25,-16.46 1739.65,-23.32"/>
</g>
<!-- Node25 -->
<g id="node25" class="node">
<title>Node25</title>
<g id="a_node25"><a xlink:title=" ">
<polygon fill="white" stroke="#bfbfbf" points="1025,-0.5 1025,-19.5 1081,-19.5 1081,-0.5 1025,-0.5"/>
<text text-anchor="middle" x="1053" y="-7.5" font-family="Helvetica,sans-Serif" font-size="10.00">Python.h</text>
</a>
</g>
</g>
<!-- Node24&#45;&gt;Node25 -->
<g id="edge25" class="edge">
<title>Node24&#45;&gt;Node25</title>
<path fill="none" stroke="midnightblue" d="M1356.27,-57.51C1353.14,-56.99 1350.02,-56.48 1347,-56 1233.52,-38.01 1203.91,-41.26 1091,-20 1090.9,-19.98 1090.8,-19.96 1090.7,-19.94"/>
<polygon fill="midnightblue" stroke="midnightblue" points="1091.66,-16.57 1081.16,-17.98 1090.25,-23.42 1091.66,-16.57"/>
</g>
<!-- Node26 -->
<g id="node26" class="node">
<title>Node26</title>
<g id="a_node26"><a xlink:title=" ">
<polygon fill="white" stroke="#bfbfbf" points="1099.5,-0.5 1099.5,-19.5 1134.5,-19.5 1134.5,-0.5 1099.5,-0.5"/>
<text text-anchor="middle" x="1117" y="-7.5" font-family="Helvetica,sans-Serif" font-size="10.00">map</text>
</a>
</g>
</g>
<!-- Node24&#45;&gt;Node26 -->
<g id="edge27" class="edge">
<title>Node24&#45;&gt;Node26</title>
<path fill="none" stroke="midnightblue" d="M1356.31,-57.63C1293.83,-46.59 1180.08,-26.48 1144.73,-19.46"/>
<polygon fill="midnightblue" stroke="midnightblue" points="1145.12,-15.97 1134.61,-17.28 1143.65,-22.81 1145.12,-15.97"/>
</g>
<!-- Node27 -->
<g id="node27" class="node">
<title>Node27</title>
<g id="a_node27"><a xlink:title=" ">
<polygon fill="white" stroke="#bfbfbf" points="1153,-0.5 1153,-19.5 1191,-19.5 1191,-0.5 1153,-0.5"/>
<text text-anchor="middle" x="1172" y="-7.5" font-family="Helvetica,sans-Serif" font-size="10.00">array</text>
</a>
</g>
</g>
<!-- Node24&#45;&gt;Node27 -->
<g id="edge28" class="edge">
<title>Node24&#45;&gt;Node27</title>
<path fill="none" stroke="midnightblue" d="M1356.27,-56.43C1316.23,-47.99 1254.19,-34.31 1201,-20 1200.9,-19.97 1200.8,-19.95 1200.7,-19.92"/>
<polygon fill="midnightblue" stroke="midnightblue" points="1201.86,-16.61 1191.28,-17.21 1199.93,-23.34 1201.86,-16.61"/>
</g>
<!-- Node28 -->
<g id="node28" class="node">
<title>Node28</title>
<g id="a_node28"><a xlink:title=" ">
<polygon fill="white" stroke="#bfbfbf" points="1209.5,-0.5 1209.5,-19.5 1260.5,-19.5 1260.5,-0.5 1209.5,-0.5"/>
<text text-anchor="middle" x="1235" y="-7.5" font-family="Helvetica,sans-Serif" font-size="10.00">numeric</text>
</a>
</g>
</g>
<!-- Node24&#45;&gt;Node28 -->
<g id="edge29" class="edge">
<title>Node24&#45;&gt;Node28</title>
<path fill="none" stroke="midnightblue" d="M1372.17,-56.44C1344.75,-47.36 1301.22,-32.94 1270.57,-22.78"/>
<polygon fill="midnightblue" stroke="midnightblue" points="1271.3,-19.34 1260.71,-19.52 1269.1,-25.98 1271.3,-19.34"/>
</g>
<!-- Node29 -->
<g id="node29" class="node">
<title>Node29</title>
<g id="a_node29"><a xlink:title=" ">
<polygon fill="white" stroke="#bfbfbf" points="1279,-0.5 1279,-19.5 1335,-19.5 1335,-0.5 1279,-0.5"/>
<text text-anchor="middle" x="1307" y="-7.5" font-family="Helvetica,sans-Serif" font-size="10.00">algorithm</text>
</a>
</g>
</g>
<!-- Node24&#45;&gt;Node29 -->
<g id="edge30" class="edge">
<title>Node24&#45;&gt;Node29</title>
<path fill="none" stroke="midnightblue" d="M1383.38,-56.32C1369.05,-47.82 1346.99,-34.73 1330.25,-24.8"/>
<polygon fill="midnightblue" stroke="midnightblue" points="1331.97,-21.75 1321.58,-19.65 1328.4,-27.77 1331.97,-21.75"/>
</g>
<!-- Node30 -->
<g id="node30" class="node">
<title>Node30</title>
<g id="a_node30"><a xlink:title=" ">
<polygon fill="white" stroke="#bfbfbf" points="1353,-0.5 1353,-19.5 1407,-19.5 1407,-0.5 1353,-0.5"/>
<text text-anchor="middle" x="1380" y="-7.5" font-family="Helvetica,sans-Serif" font-size="10.00">iostream</text>
</a>
</g>
</g>
<!-- Node24&#45;&gt;Node30 -->
<g id="edge32" class="edge">
<title>Node24&#45;&gt;Node30</title>
<path fill="none" stroke="midnightblue" d="M1395.03,-56.08C1392.62,-48.85 1389.14,-38.41 1386.13,-29.4"/>
<polygon fill="midnightblue" stroke="midnightblue" points="1389.4,-28.13 1382.92,-19.75 1382.76,-30.34 1389.4,-28.13"/>
</g>
<!-- Node31 -->
<g id="node31" class="node">
<title>Node31</title>
<g id="a_node31"><a xlink:title=" ">
<polygon fill="white" stroke="#bfbfbf" points="1425,-0.5 1425,-19.5 1471,-19.5 1471,-0.5 1425,-0.5"/>
<text text-anchor="middle" x="1448" y="-7.5" font-family="Helvetica,sans-Serif" font-size="10.00">cstdint</text>
</a>
</g>
</g>
<!-- Node24&#45;&gt;Node31 -->
<g id="edge33" class="edge">
<title>Node24&#45;&gt;Node31</title>
<path fill="none" stroke="midnightblue" d="M1406.26,-56.08C1413.46,-48.3 1424.11,-36.8 1432.85,-27.37"/>
<polygon fill="midnightblue" stroke="midnightblue" points="1435.67,-29.47 1439.9,-19.75 1430.53,-24.71 1435.67,-29.47"/>
</g>
<!-- Node32 -->
<g id="node32" class="node">
<title>Node32</title>
<g id="a_node32"><a xlink:title=" ">
<polygon fill="white" stroke="#bfbfbf" points="1489.5,-0.5 1489.5,-19.5 1548.5,-19.5 1548.5,-0.5 1489.5,-0.5"/>
<text text-anchor="middle" x="1519" y="-7.5" font-family="Helvetica,sans-Serif" font-size="10.00">functional</text>
</a>
</g>
</g>
<!-- Node24&#45;&gt;Node32 -->
<g id="edge34" class="edge">
<title>Node24&#45;&gt;Node32</title>
<path fill="none" stroke="midnightblue" d="M1417.17,-56.44C1436.91,-47.64 1467.89,-33.81 1490.49,-23.72"/>
<polygon fill="midnightblue" stroke="midnightblue" points="1492.21,-26.79 1499.92,-19.52 1489.36,-20.4 1492.21,-26.79"/>
</g>
<!-- Node33 -->
<g id="node33" class="node">
<title>Node33</title>
<g id="a_node33"><a xlink:title=" ">
<polygon fill="white" stroke="#bfbfbf" points="1566.5,-0.5 1566.5,-19.5 1671.5,-19.5 1671.5,-0.5 1566.5,-0.5"/>
<text text-anchor="middle" x="1619" y="-7.5" font-family="Helvetica,sans-Serif" font-size="10.00">numpy/arrayobject.h</text>
</a>
</g>
</g>
<!-- Node24&#45;&gt;Node33 -->
<g id="edge36" class="edge">
<title>Node24&#45;&gt;Node33</title>
<path fill="none" stroke="midnightblue" d="M1433.02,-56.44C1471.25,-47.1 1532.57,-32.12 1574.26,-21.93"/>
<polygon fill="midnightblue" stroke="midnightblue" points="1575.26,-25.29 1584.15,-19.52 1573.6,-18.49 1575.26,-25.29"/>
</g>
</g>
</svg>
