<?xml version="1.0" encoding="UTF-8" standalone="no"?>
<!DOCTYPE svg PUBLIC "-//W3C//DTD SVG 1.1//EN"
 "http://www.w3.org/Graphics/SVG/1.1/DTD/svg11.dtd">
<!-- Generated by graphviz version 2.43.0 (0)
 -->
<!-- Title: include/mastersclient.h Pages: 1 -->
<!--zoomable 196 -->
<svg id="main" version="1.1" xmlns="http://www.w3.org/2000/svg" xmlns:xlink="http://www.w3.org/1999/xlink" xml:space="preserve" onload="init(evt)">
<style type="text/css"><![CDATA[
.edge:hover path { stroke: red; }
.edge:hover polygon { stroke: red; fill: red; }
]]></style>
<script type="text/javascript"><![CDATA[
var edges = document.getElementsByTagName('g');
if (edges && edges.length) {
  for (var i=0;i<edges.length;i++) {
    if (edges[i].id.substr(0,4)=='edge') {
      edges[i].setAttribute('class','edge');
    }
  }
}
]]></script>
        <defs>
                <circle id="rim" cx="0" cy="0" r="7"/>
                <circle id="rim2" cx="0" cy="0" r="3.5"/>
                <g id="zoomPlus">
                        <use xlink:href="#rim" fill="#404040">
                                <set attributeName="fill" to="#808080" begin="zoomplus.mouseover" end="zoomplus.mouseout"/>
                        </use>
                        <path d="M-4,0h8M0,-4v8" fill="none" stroke="white" stroke-width="1.5" pointer-events="none"/>
                </g>
                <g id="zoomMin">
                        <use xlink:href="#rim" fill="#404040">
                                <set attributeName="fill" to="#808080" begin="zoomminus.mouseover" end="zoomminus.mouseout"/>
                        </use>
                        <path d="M-4,0h8" fill="none" stroke="white" stroke-width="1.5" pointer-events="none"/>
                </g>
                <g id="dirArrow">
                        <path fill="none" stroke="white" stroke-width="1.5" d="M0,-3.0v7 M-2.5,-0.5L0,-3.0L2.5,-0.5"/>
                </g>
               <g id="resetDef">
                       <use xlink:href="#rim2" fill="#404040">
                               <set attributeName="fill" to="#808080" begin="reset.mouseover" end="reset.mouseout"/>
                       </use>
               </g>
        </defs>

<script type="text/javascript">
var viewWidth = 1892;
var viewHeight = 196;
var sectionId = 'dynsection-0';
</script>
<script xlink:href="svgpan.js"/>
<svg id="graph" class="graph">
<g id="viewport">
<title>include/mastersclient.h</title>
<polygon fill="white" stroke="transparent" points="-4,4 -4,-192 1888,-192 1888,4 -4,4"/>
<!-- Node1 -->
<g id="node1" class="node">
<title>Node1</title>
<g id="a_node1"><a xlink:title=" ">
<polygon fill="#bfbfbf" stroke="black" points="1601.5,-168.5 1601.5,-187.5 1718.5,-187.5 1718.5,-168.5 1601.5,-168.5"/>
<text text-anchor="middle" x="1660" y="-175.5" font-family="Helvetica,sans-Serif" font-size="10.00">include/mastersclient.h</text>
</a>
</g>
</g>
<!-- Node2 -->
<g id="node2" class="node">
<title>Node2</title>
<g id="a_node2"><a xlink:title=" ">
<polygon fill="white" stroke="#bfbfbf" points="595,-112.5 595,-131.5 673,-131.5 673,-112.5 595,-112.5"/>
<text text-anchor="middle" x="634" y="-119.5" font-family="Helvetica,sans-Serif" font-size="10.00">friLBRClient.h</text>
</a>
</g>
</g>
<!-- Node1&#45;&gt;Node2 -->
<g id="edge1" class="edge">
<title>Node1&#45;&gt;Node2</title>
<path fill="none" stroke="midnightblue" d="M1601.41,-177.06C1450.75,-176.64 1037.44,-171.73 683.18,-131.82"/>
<polygon fill="midnightblue" stroke="midnightblue" points="683.58,-128.35 673.24,-130.69 682.78,-135.3 683.58,-128.35"/>
</g>
<!-- Node3 -->
<g id="node3" class="node">
<title>Node3</title>
<g id="a_node3"><a xlink:href="robot_model_8h.html" target="_top" xlink:title="Definition of the robotModel class.">
<polygon fill="white" stroke="black" points="691.5,-112.5 691.5,-131.5 764.5,-131.5 764.5,-112.5 691.5,-112.5"/>
<text text-anchor="middle" x="728" y="-119.5" font-family="Helvetica,sans-Serif" font-size="10.00">robotModel.h</text>
</a>
</g>
</g>
<!-- Node1&#45;&gt;Node3 -->
<g id="edge2" class="edge">
<title>Node1&#45;&gt;Node3</title>
<path fill="none" stroke="midnightblue" d="M1601.35,-173.6C1429.59,-163.65 930.07,-134.71 774.69,-125.71"/>
<polygon fill="midnightblue" stroke="midnightblue" points="774.72,-122.2 764.53,-125.12 774.31,-129.19 774.72,-122.2"/>
</g>
<!-- Node18 -->
<g id="node18" class="node">
<title>Node18</title>
<g id="a_node18"><a xlink:title=" ">
<polygon fill="white" stroke="#bfbfbf" points="1666.5,-0.5 1666.5,-19.5 1707.5,-19.5 1707.5,-0.5 1666.5,-0.5"/>
<text text-anchor="middle" x="1687" y="-7.5" font-family="Helvetica,sans-Serif" font-size="10.00">string</text>
</a>
</g>
</g>
<!-- Node1&#45;&gt;Node18 -->
<g id="edge18" class="edge">
<title>Node1&#45;&gt;Node18</title>
<path fill="none" stroke="midnightblue" d="M1662.7,-168.38C1665.53,-159.32 1670.11,-144.67 1674,-132 1681.64,-107.14 1687.18,-101.73 1691,-76 1692.31,-67.21 1691.39,-64.88 1691,-56 1690.62,-47.37 1689.82,-37.84 1689.04,-29.78"/>
<polygon fill="midnightblue" stroke="midnightblue" points="1692.5,-29.2 1687.99,-19.61 1685.54,-29.92 1692.5,-29.2"/>
</g>
<!-- Node19 -->
<g id="node19" class="node">
<title>Node19</title>
<g id="a_node19"><a xlink:title=" ">
<polygon fill="white" stroke="#bfbfbf" points="1286,-56.5 1286,-75.5 1338,-75.5 1338,-56.5 1286,-56.5"/>
<text text-anchor="middle" x="1312" y="-63.5" font-family="Helvetica,sans-Serif" font-size="10.00">memory</text>
</a>
</g>
</g>
<!-- Node1&#45;&gt;Node19 -->
<g id="edge19" class="edge">
<title>Node1&#45;&gt;Node19</title>
<path fill="none" stroke="midnightblue" d="M1609.28,-168.5C1568.19,-160.93 1509.1,-148.51 1459,-132 1415.19,-117.56 1366.66,-94.67 1337.78,-80.26"/>
<polygon fill="midnightblue" stroke="midnightblue" points="1339.28,-77.09 1328.77,-75.72 1336.13,-83.34 1339.28,-77.09"/>
</g>
<!-- Node20 -->
<g id="node20" class="node">
<title>Node20</title>
<g id="a_node20"><a xlink:title=" ">
<polygon fill="white" stroke="#bfbfbf" points="1726,-0.5 1726,-19.5 1770,-19.5 1770,-0.5 1726,-0.5"/>
<text text-anchor="middle" x="1748" y="-7.5" font-family="Helvetica,sans-Serif" font-size="10.00">vector</text>
</a>
</g>
</g>
<!-- Node1&#45;&gt;Node20 -->
<g id="edge20" class="edge">
<title>Node1&#45;&gt;Node20</title>
<path fill="none" stroke="midnightblue" d="M1666.62,-168.31C1673.22,-159.45 1683.44,-145.16 1691,-132 1711.26,-96.75 1730.47,-53.12 1740.59,-29.06"/>
<polygon fill="midnightblue" stroke="midnightblue" points="1743.85,-30.33 1744.46,-19.75 1737.39,-27.64 1743.85,-30.33"/>
</g>
<!-- Node21 -->
<g id="node21" class="node">
<title>Node21</title>
<g id="a_node21"><a xlink:title=" ">
<polygon fill="white" stroke="#bfbfbf" points="1638.5,-56.5 1638.5,-75.5 1681.5,-75.5 1681.5,-56.5 1638.5,-56.5"/>
<text text-anchor="middle" x="1660" y="-63.5" font-family="Helvetica,sans-Serif" font-size="10.00">queue</text>
</a>
</g>
</g>
<!-- Node1&#45;&gt;Node21 -->
<g id="edge21" class="edge">
<title>Node1&#45;&gt;Node21</title>
<path fill="none" stroke="midnightblue" d="M1660,-168.37C1660,-150.62 1660,-109.67 1660,-85.6"/>
<polygon fill="midnightblue" stroke="midnightblue" points="1663.5,-85.59 1660,-75.59 1656.5,-85.59 1663.5,-85.59"/>
</g>
<!-- Node22 -->
<g id="node22" class="node">
<title>Node22</title>
<g id="a_node22"><a xlink:href="plot_master_8h.html" target="_top" xlink:title=" ">
<polygon fill="white" stroke="black" points="1468,-112.5 1468,-131.5 1538,-131.5 1538,-112.5 1468,-112.5"/>
<text text-anchor="middle" x="1503" y="-119.5" font-family="Helvetica,sans-Serif" font-size="10.00">plotMaster.h</text>
</a>
</g>
</g>
<!-- Node1&#45;&gt;Node22 -->
<g id="edge22" class="edge">
<title>Node1&#45;&gt;Node22</title>
<path fill="none" stroke="midnightblue" d="M1635.12,-168.44C1608.71,-159.36 1566.78,-144.94 1537.26,-134.78"/>
<polygon fill="midnightblue" stroke="midnightblue" points="1538.36,-131.46 1527.76,-131.52 1536.08,-138.08 1538.36,-131.46"/>
</g>
<!-- Node34 -->
<g id="node34" class="node">
<title>Node34</title>
<g id="a_node34"><a xlink:title=" ">
<polygon fill="white" stroke="#bfbfbf" points="1776,-112.5 1776,-131.5 1822,-131.5 1822,-112.5 1776,-112.5"/>
<text text-anchor="middle" x="1799" y="-119.5" font-family="Helvetica,sans-Serif" font-size="10.00">chrono</text>
</a>
</g>
</g>
<!-- Node1&#45;&gt;Node34 -->
<g id="edge42" class="edge">
<title>Node1&#45;&gt;Node34</title>
<path fill="none" stroke="midnightblue" d="M1682.02,-168.44C1705.1,-159.48 1741.56,-145.31 1767.64,-135.18"/>
<polygon fill="midnightblue" stroke="midnightblue" points="1769.02,-138.4 1777.08,-131.52 1766.49,-131.88 1769.02,-138.4"/>
</g>
<!-- Node35 -->
<g id="node35" class="node">
<title>Node35</title>
<g id="a_node35"><a xlink:title=" ">
<polygon fill="white" stroke="#bfbfbf" points="1840,-112.5 1840,-131.5 1884,-131.5 1884,-112.5 1840,-112.5"/>
<text text-anchor="middle" x="1862" y="-119.5" font-family="Helvetica,sans-Serif" font-size="10.00">mutex</text>
</a>
</g>
</g>
<!-- Node1&#45;&gt;Node35 -->
<g id="edge43" class="edge">
<title>Node1&#45;&gt;Node35</title>
<path fill="none" stroke="midnightblue" d="M1693.49,-168.45C1725.99,-160.1 1776.95,-146.85 1829.78,-132.29"/>
<polygon fill="midnightblue" stroke="midnightblue" points="1830.96,-135.6 1839.67,-129.56 1829.1,-128.85 1830.96,-135.6"/>
</g>
<!-- Node4 -->
<g id="node4" class="node">
<title>Node4</title>
<g id="a_node4"><a xlink:title=" ">
<polygon fill="white" stroke="#bfbfbf" points="370.5,-56.5 370.5,-75.5 471.5,-75.5 471.5,-56.5 370.5,-56.5"/>
<text text-anchor="middle" x="421" y="-63.5" font-family="Helvetica,sans-Serif" font-size="10.00">rl/mdl/XmlFactory.h</text>
</a>
</g>
</g>
<!-- Node3&#45;&gt;Node4 -->
<g id="edge3" class="edge">
<title>Node3&#45;&gt;Node4</title>
<path fill="none" stroke="midnightblue" d="M691.36,-113.75C688.19,-113.15 685.04,-112.56 682,-112 613.39,-99.37 534.43,-85.91 481.49,-77.03"/>
<polygon fill="midnightblue" stroke="midnightblue" points="482.02,-73.57 471.58,-75.37 480.87,-80.48 482.02,-73.57"/>
</g>
<!-- Node5 -->
<g id="node5" class="node">
<title>Node5</title>
<g id="a_node5"><a xlink:title=" ">
<polygon fill="white" stroke="#bfbfbf" points="490,-56.5 490,-75.5 568,-75.5 568,-56.5 490,-56.5"/>
<text text-anchor="middle" x="529" y="-63.5" font-family="Helvetica,sans-Serif" font-size="10.00">rl/mdl/Model.h</text>
</a>
</g>
</g>
<!-- Node3&#45;&gt;Node5 -->
<g id="edge4" class="edge">
<title>Node3&#45;&gt;Node5</title>
<path fill="none" stroke="midnightblue" d="M696.47,-112.44C662.41,-103.2 607.99,-88.44 570.48,-78.26"/>
<polygon fill="midnightblue" stroke="midnightblue" points="570.95,-74.76 560.38,-75.52 569.12,-81.51 570.95,-74.76"/>
</g>
<!-- Node6 -->
<g id="node6" class="node">
<title>Node6</title>
<g id="a_node6"><a xlink:title=" ">
<polygon fill="white" stroke="#bfbfbf" points="1192,-56.5 1192,-75.5 1268,-75.5 1268,-56.5 1192,-56.5"/>
<text text-anchor="middle" x="1230" y="-63.5" font-family="Helvetica,sans-Serif" font-size="10.00">rl/math/Unit.h</text>
</a>
</g>
</g>
<!-- Node3&#45;&gt;Node6 -->
<g id="edge5" class="edge">
<title>Node3&#45;&gt;Node6</title>
<path fill="none" stroke="midnightblue" d="M764.7,-118.5C840.63,-113.1 1020.66,-99.02 1181.74,-76.06"/>
<polygon fill="midnightblue" stroke="midnightblue" points="1182.43,-79.5 1191.83,-74.61 1181.43,-72.57 1182.43,-79.5"/>
</g>
<!-- Node7 -->
<g id="node7" class="node">
<title>Node7</title>
<g id="a_node7"><a xlink:title=" ">
<polygon fill="white" stroke="#bfbfbf" points="675,-0.5 675,-19.5 777,-19.5 777,-0.5 675,-0.5"/>
<text text-anchor="middle" x="726" y="-7.5" font-family="Helvetica,sans-Serif" font-size="10.00">rl/math/Transform.h</text>
</a>
</g>
</g>
<!-- Node3&#45;&gt;Node7 -->
<g id="edge6" class="edge">
<title>Node3&#45;&gt;Node7</title>
<path fill="none" stroke="midnightblue" d="M695.96,-112.46C666.27,-103.82 625.33,-89.8 616,-76 598.06,-49.46 635.37,-32.18 671.3,-22.15"/>
<polygon fill="midnightblue" stroke="midnightblue" points="672.57,-25.44 681.35,-19.52 670.79,-18.67 672.57,-25.44"/>
</g>
<!-- Node8 -->
<g id="node8" class="node">
<title>Node8</title>
<g id="a_node8"><a xlink:title=" ">
<polygon fill="white" stroke="#bfbfbf" points="624.5,-56.5 624.5,-75.5 719.5,-75.5 719.5,-56.5 624.5,-56.5"/>
<text text-anchor="middle" x="672" y="-63.5" font-family="Helvetica,sans-Serif" font-size="10.00">rl/mdl/Kinematic.h</text>
</a>
</g>
</g>
<!-- Node3&#45;&gt;Node8 -->
<g id="edge7" class="edge">
<title>Node3&#45;&gt;Node8</title>
<path fill="none" stroke="midnightblue" d="M719,-112.32C710.81,-104.42 698.49,-92.55 688.53,-82.94"/>
<polygon fill="midnightblue" stroke="midnightblue" points="690.79,-80.26 681.16,-75.83 685.93,-85.29 690.79,-80.26"/>
</g>
<!-- Node9 -->
<g id="node9" class="node">
<title>Node9</title>
<g id="a_node9"><a xlink:title=" ">
<polygon fill="white" stroke="#bfbfbf" points="737.5,-56.5 737.5,-75.5 828.5,-75.5 828.5,-56.5 737.5,-56.5"/>
<text text-anchor="middle" x="783" y="-63.5" font-family="Helvetica,sans-Serif" font-size="10.00">rl/mdl/Dynamic.h</text>
</a>
</g>
</g>
<!-- Node3&#45;&gt;Node9 -->
<g id="edge8" class="edge">
<title>Node3&#45;&gt;Node9</title>
<path fill="none" stroke="midnightblue" d="M737.08,-112.08C745.17,-104.14 757.2,-92.34 766.91,-82.8"/>
<polygon fill="midnightblue" stroke="midnightblue" points="769.4,-85.25 774.09,-75.75 764.5,-80.26 769.4,-85.25"/>
</g>
<!-- Node10 -->
<g id="node10" class="node">
<title>Node10</title>
<g id="a_node10"><a xlink:href="lbr__struct_8h.html" target="_top" xlink:title=" ">
<polygon fill="white" stroke="black" points="846.5,-56.5 846.5,-75.5 911.5,-75.5 911.5,-56.5 846.5,-56.5"/>
<text text-anchor="middle" x="879" y="-63.5" font-family="Helvetica,sans-Serif" font-size="10.00">lbr_struct.h</text>
</a>
</g>
</g>
<!-- Node3&#45;&gt;Node10 -->
<g id="edge9" class="edge">
<title>Node3&#45;&gt;Node10</title>
<path fill="none" stroke="midnightblue" d="M751.93,-112.44C777.22,-103.4 817.3,-89.06 845.68,-78.92"/>
<polygon fill="midnightblue" stroke="midnightblue" points="846.95,-82.18 855.19,-75.52 844.59,-75.59 846.95,-82.18"/>
</g>
<!-- Node11 -->
<g id="node11" class="node">
<title>Node11</title>
<g id="a_node11"><a xlink:title=" ">
<polygon fill="white" stroke="#bfbfbf" points="917.5,-0.5 917.5,-19.5 976.5,-19.5 976.5,-0.5 917.5,-0.5"/>
<text text-anchor="middle" x="947" y="-7.5" font-family="Helvetica,sans-Serif" font-size="10.00">stdexcept</text>
</a>
</g>
</g>
<!-- Node3&#45;&gt;Node11 -->
<g id="edge11" class="edge">
<title>Node3&#45;&gt;Node11</title>
<path fill="none" stroke="midnightblue" d="M764.78,-116.51C814.01,-109.84 897.84,-95.9 921,-76 934.67,-64.26 941.22,-44.33 944.32,-29.62"/>
<polygon fill="midnightblue" stroke="midnightblue" points="947.8,-30.07 946.08,-19.62 940.9,-28.86 947.8,-30.07"/>
</g>
<!-- Node12 -->
<g id="node12" class="node">
<title>Node12</title>
<g id="a_node12"><a xlink:title=" ">
<polygon fill="white" stroke="#bfbfbf" points="968,-56.5 968,-75.5 1082,-75.5 1082,-56.5 968,-56.5"/>
<text text-anchor="middle" x="1025" y="-63.5" font-family="Helvetica,sans-Serif" font-size="10.00">boost/lexical_cast.hpp</text>
</a>
</g>
</g>
<!-- Node3&#45;&gt;Node12 -->
<g id="edge12" class="edge">
<title>Node3&#45;&gt;Node12</title>
<path fill="none" stroke="midnightblue" d="M764.72,-114.32C815.63,-105.07 908.14,-88.25 968.05,-77.35"/>
<polygon fill="midnightblue" stroke="midnightblue" points="968.89,-80.76 978.11,-75.53 967.64,-73.87 968.89,-80.76"/>
</g>
<!-- Node13 -->
<g id="node13" class="node">
<title>Node13</title>
<g id="a_node13"><a xlink:title=" ">
<polygon fill="white" stroke="#bfbfbf" points="1100.5,-56.5 1100.5,-75.5 1173.5,-75.5 1173.5,-56.5 1100.5,-56.5"/>
<text text-anchor="middle" x="1137" y="-63.5" font-family="Helvetica,sans-Serif" font-size="10.00">rl/mdl/Body.h</text>
</a>
</g>
</g>
<!-- Node3&#45;&gt;Node13 -->
<g id="edge13" class="edge">
<title>Node3&#45;&gt;Node13</title>
<path fill="none" stroke="midnightblue" d="M764.7,-117.31C828.63,-110.69 964.74,-95.78 1090.21,-76.02"/>
<polygon fill="midnightblue" stroke="midnightblue" points="1091.06,-79.43 1100.38,-74.4 1089.96,-72.52 1091.06,-79.43"/>
</g>
<!-- Node14 -->
<g id="node14" class="node">
<title>Node14</title>
<g id="a_node14"><a xlink:title=" ">
<polygon fill="white" stroke="#bfbfbf" points="0,-56.5 0,-75.5 76,-75.5 76,-56.5 0,-56.5"/>
<text text-anchor="middle" x="38" y="-63.5" font-family="Helvetica,sans-Serif" font-size="10.00">rl/mdl/Fixed.h</text>
</a>
</g>
</g>
<!-- Node3&#45;&gt;Node14 -->
<g id="edge14" class="edge">
<title>Node3&#45;&gt;Node14</title>
<path fill="none" stroke="midnightblue" d="M691.41,-113.39C688.24,-112.86 685.07,-112.39 682,-112 421.66,-78.83 350.55,-108.3 86.44,-76.01"/>
<polygon fill="midnightblue" stroke="midnightblue" points="86.51,-72.49 76.15,-74.73 85.65,-79.44 86.51,-72.49"/>
</g>
<!-- Node15 -->
<g id="node15" class="node">
<title>Node15</title>
<g id="a_node15"><a xlink:title=" ">
<polygon fill="white" stroke="#bfbfbf" points="94,-56.5 94,-75.5 174,-75.5 174,-56.5 94,-56.5"/>
<text text-anchor="middle" x="134" y="-63.5" font-family="Helvetica,sans-Serif" font-size="10.00">rl/mdl/Frame.h</text>
</a>
</g>
</g>
<!-- Node3&#45;&gt;Node15 -->
<g id="edge15" class="edge">
<title>Node3&#45;&gt;Node15</title>
<path fill="none" stroke="midnightblue" d="M691.41,-113.43C688.23,-112.89 685.07,-112.41 682,-112 464.83,-83.03 405.3,-103.51 184.03,-75.99"/>
<polygon fill="midnightblue" stroke="midnightblue" points="184.42,-72.51 174.06,-74.73 183.54,-79.45 184.42,-72.51"/>
</g>
<!-- Node16 -->
<g id="node16" class="node">
<title>Node16</title>
<g id="a_node16"><a xlink:title=" ">
<polygon fill="white" stroke="#bfbfbf" points="192.5,-56.5 192.5,-75.5 283.5,-75.5 283.5,-56.5 192.5,-56.5"/>
<text text-anchor="middle" x="238" y="-63.5" font-family="Helvetica,sans-Serif" font-size="10.00">rl/mdl/Revolute.h</text>
</a>
</g>
</g>
<!-- Node3&#45;&gt;Node16 -->
<g id="edge16" class="edge">
<title>Node3&#45;&gt;Node16</title>
<path fill="none" stroke="midnightblue" d="M691.4,-113.49C688.23,-112.95 685.06,-112.44 682,-112 513.33,-87.76 466.93,-97.65 293.55,-75.97"/>
<polygon fill="midnightblue" stroke="midnightblue" points="293.94,-72.5 283.58,-74.71 293.06,-79.44 293.94,-72.5"/>
</g>
<!-- Node17 -->
<g id="node17" class="node">
<title>Node17</title>
<g id="a_node17"><a xlink:title=" ">
<polygon fill="white" stroke="#bfbfbf" points="302,-56.5 302,-75.5 352,-75.5 352,-56.5 302,-56.5"/>
<text text-anchor="middle" x="327" y="-63.5" font-family="Helvetica,sans-Serif" font-size="10.00">iomanip</text>
</a>
</g>
</g>
<!-- Node3&#45;&gt;Node17 -->
<g id="edge17" class="edge">
<title>Node3&#45;&gt;Node17</title>
<path fill="none" stroke="midnightblue" d="M691.39,-113.56C688.22,-113 685.06,-112.47 682,-112 543.29,-90.69 503.86,-101.91 362.09,-75.95"/>
<polygon fill="midnightblue" stroke="midnightblue" points="362.63,-72.49 352.16,-74.1 361.35,-79.37 362.63,-72.49"/>
</g>
<!-- Node10&#45;&gt;Node7 -->
<g id="edge10" class="edge">
<title>Node10&#45;&gt;Node7</title>
<path fill="none" stroke="midnightblue" d="M854.76,-56.44C829.13,-47.4 788.51,-33.06 759.76,-22.92"/>
<polygon fill="midnightblue" stroke="midnightblue" points="760.72,-19.54 750.13,-19.52 758.39,-26.15 760.72,-19.54"/>
</g>
<!-- Node22&#45;&gt;Node6 -->
<g id="edge40" class="edge">
<title>Node22&#45;&gt;Node6</title>
<path fill="none" stroke="midnightblue" d="M1467.87,-114.05C1419.57,-104.5 1332.48,-87.27 1278.14,-76.52"/>
<polygon fill="midnightblue" stroke="midnightblue" points="1278.56,-73.04 1268.07,-74.53 1277.2,-79.9 1278.56,-73.04"/>
</g>
<!-- Node22&#45;&gt;Node18 -->
<g id="edge36" class="edge">
<title>Node22&#45;&gt;Node18</title>
<path fill="none" stroke="midnightblue" d="M1496.72,-112.41C1487.69,-98.92 1473.53,-72.61 1487,-56 1533.93,1.84 1578.98,-36.11 1656.36,-20.01"/>
<polygon fill="midnightblue" stroke="midnightblue" points="1657.54,-23.32 1666.47,-17.63 1655.94,-16.51 1657.54,-23.32"/>
</g>
<!-- Node22&#45;&gt;Node19 -->
<g id="edge37" class="edge">
<title>Node22&#45;&gt;Node19</title>
<path fill="none" stroke="midnightblue" d="M1472.74,-112.44C1438.79,-102.85 1383.8,-87.3 1347.76,-77.11"/>
<polygon fill="midnightblue" stroke="midnightblue" points="1348.71,-73.74 1338.13,-74.39 1346.8,-80.48 1348.71,-73.74"/>
</g>
<!-- Node22&#45;&gt;Node20 -->
<g id="edge38" class="edge">
<title>Node22&#45;&gt;Node20</title>
<path fill="none" stroke="midnightblue" d="M1519.87,-112.38C1537.59,-103.33 1566.26,-88.67 1591,-76 1608.34,-67.12 1612.21,-63.93 1630,-56 1658.74,-43.2 1692.34,-30.61 1716.32,-22.02"/>
<polygon fill="midnightblue" stroke="midnightblue" points="1717.71,-25.23 1725.96,-18.59 1715.37,-18.64 1717.71,-25.23"/>
</g>
<!-- Node22&#45;&gt;Node21 -->
<g id="edge39" class="edge">
<title>Node22&#45;&gt;Node21</title>
<path fill="none" stroke="midnightblue" d="M1527.88,-112.44C1555.1,-103.08 1598.81,-88.05 1628.43,-77.86"/>
<polygon fill="midnightblue" stroke="midnightblue" points="1629.95,-81.04 1638.27,-74.47 1627.68,-74.42 1629.95,-81.04"/>
</g>
<!-- Node23 -->
<g id="node23" class="node">
<title>Node23</title>
<g id="a_node23"><a xlink:href="matplotlibcpp_8h.html" target="_top" xlink:title=" ">
<polygon fill="white" stroke="black" points="1356.5,-56.5 1356.5,-75.5 1439.5,-75.5 1439.5,-56.5 1356.5,-56.5"/>
<text text-anchor="middle" x="1398" y="-63.5" font-family="Helvetica,sans-Serif" font-size="10.00">matplotlibcpp.h</text>
</a>
</g>
</g>
<!-- Node22&#45;&gt;Node23 -->
<g id="edge23" class="edge">
<title>Node22&#45;&gt;Node23</title>
<path fill="none" stroke="midnightblue" d="M1486.13,-112.32C1469.29,-103.66 1443.19,-90.24 1423.76,-80.25"/>
<polygon fill="midnightblue" stroke="midnightblue" points="1425.32,-77.12 1414.83,-75.65 1422.12,-83.34 1425.32,-77.12"/>
</g>
<!-- Node33 -->
<g id="node33" class="node">
<title>Node33</title>
<g id="a_node33"><a xlink:title=" ">
<polygon fill="white" stroke="#bfbfbf" points="1496,-56.5 1496,-75.5 1582,-75.5 1582,-56.5 1496,-56.5"/>
<text text-anchor="middle" x="1539" y="-63.5" font-family="Helvetica,sans-Serif" font-size="10.00">rl/math/Vector.h</text>
</a>
</g>
</g>
<!-- Node22&#45;&gt;Node33 -->
<g id="edge41" class="edge">
<title>Node22&#45;&gt;Node33</title>
<path fill="none" stroke="midnightblue" d="M1508.94,-112.08C1513.98,-104.53 1521.34,-93.49 1527.51,-84.23"/>
<polygon fill="midnightblue" stroke="midnightblue" points="1530.53,-86.01 1533.17,-75.75 1524.71,-82.13 1530.53,-86.01"/>
</g>
<!-- Node23&#45;&gt;Node11 -->
<g id="edge30" class="edge">
<title>Node23&#45;&gt;Node11</title>
<path fill="none" stroke="midnightblue" d="M1356.29,-57.38C1353.15,-56.89 1350.03,-56.42 1347,-56 1190.36,-34.24 1149.43,-43.21 993,-20 990.92,-19.69 988.8,-19.35 986.66,-19"/>
<polygon fill="midnightblue" stroke="midnightblue" points="987.08,-15.52 976.62,-17.21 985.86,-22.41 987.08,-15.52"/>
</g>
<!-- Node23&#45;&gt;Node18 -->
<g id="edge34" class="edge">
<title>Node23&#45;&gt;Node18</title>
<path fill="none" stroke="midnightblue" d="M1439.67,-58.09C1501.72,-47.77 1614.87,-28.76 1656.55,-19.96"/>
<polygon fill="midnightblue" stroke="midnightblue" points="1657.51,-23.34 1666.5,-17.72 1655.97,-16.51 1657.51,-23.34"/>
</g>
<!-- Node23&#45;&gt;Node20 -->
<g id="edge25" class="edge">
<title>Node23&#45;&gt;Node20</title>
<path fill="none" stroke="midnightblue" d="M1439.63,-61.04C1498.93,-54.98 1611.26,-41.97 1715.67,-20.02"/>
<polygon fill="midnightblue" stroke="midnightblue" points="1716.7,-23.38 1725.75,-17.87 1715.24,-16.54 1716.7,-23.38"/>
</g>
<!-- Node24 -->
<g id="node24" class="node">
<title>Node24</title>
<g id="a_node24"><a xlink:title=" ">
<polygon fill="white" stroke="#bfbfbf" points="1002,-0.5 1002,-19.5 1058,-19.5 1058,-0.5 1002,-0.5"/>
<text text-anchor="middle" x="1030" y="-7.5" font-family="Helvetica,sans-Serif" font-size="10.00">Python.h</text>
</a>
</g>
</g>
<!-- Node23&#45;&gt;Node24 -->
<g id="edge24" class="edge">
<title>Node23&#45;&gt;Node24</title>
<path fill="none" stroke="midnightblue" d="M1356.28,-57.47C1353.14,-56.96 1350.02,-56.46 1347,-56 1223.4,-37.13 1191,-42.44 1068,-20 1067.9,-19.98 1067.8,-19.96 1067.7,-19.94"/>
<polygon fill="midnightblue" stroke="midnightblue" points="1068.65,-16.57 1058.15,-18.01 1067.26,-23.43 1068.65,-16.57"/>
</g>
<!-- Node25 -->
<g id="node25" class="node">
<title>Node25</title>
<g id="a_node25"><a xlink:title=" ">
<polygon fill="white" stroke="#bfbfbf" points="1076.5,-0.5 1076.5,-19.5 1111.5,-19.5 1111.5,-0.5 1076.5,-0.5"/>
<text text-anchor="middle" x="1094" y="-7.5" font-family="Helvetica,sans-Serif" font-size="10.00">map</text>
</a>
</g>
</g>
<!-- Node23&#45;&gt;Node25 -->
<g id="edge26" class="edge">
<title>Node23&#45;&gt;Node25</title>
<path fill="none" stroke="midnightblue" d="M1356.26,-57.58C1353.13,-57.04 1350.01,-56.51 1347,-56 1249.83,-39.69 1221.55,-43.87 1121.51,-19.75"/>
<polygon fill="midnightblue" stroke="midnightblue" points="1122.14,-16.3 1111.6,-17.33 1120.48,-23.1 1122.14,-16.3"/>
</g>
<!-- Node26 -->
<g id="node26" class="node">
<title>Node26</title>
<g id="a_node26"><a xlink:title=" ">
<polygon fill="white" stroke="#bfbfbf" points="1130,-0.5 1130,-19.5 1168,-19.5 1168,-0.5 1130,-0.5"/>
<text text-anchor="middle" x="1149" y="-7.5" font-family="Helvetica,sans-Serif" font-size="10.00">array</text>
</a>
</g>
</g>
<!-- Node23&#45;&gt;Node26 -->
<g id="edge27" class="edge">
<title>Node23&#45;&gt;Node26</title>
<path fill="none" stroke="midnightblue" d="M1356.25,-56.97C1302.23,-46.5 1211.13,-28.51 1178,-20 1177.9,-19.97 1177.8,-19.95 1177.7,-19.92"/>
<polygon fill="midnightblue" stroke="midnightblue" points="1178.84,-16.61 1168.27,-17.27 1176.95,-23.35 1178.84,-16.61"/>
</g>
<!-- Node27 -->
<g id="node27" class="node">
<title>Node27</title>
<g id="a_node27"><a xlink:title=" ">
<polygon fill="white" stroke="#bfbfbf" points="1186.5,-0.5 1186.5,-19.5 1237.5,-19.5 1237.5,-0.5 1186.5,-0.5"/>
<text text-anchor="middle" x="1212" y="-7.5" font-family="Helvetica,sans-Serif" font-size="10.00">numeric</text>
</a>
</g>
</g>
<!-- Node23&#45;&gt;Node27 -->
<g id="edge28" class="edge">
<title>Node23&#45;&gt;Node27</title>
<path fill="none" stroke="midnightblue" d="M1368.53,-56.44C1335.71,-46.92 1282.68,-31.52 1247.57,-21.33"/>
<polygon fill="midnightblue" stroke="midnightblue" points="1248.32,-17.9 1237.74,-18.47 1246.37,-24.62 1248.32,-17.9"/>
</g>
<!-- Node28 -->
<g id="node28" class="node">
<title>Node28</title>
<g id="a_node28"><a xlink:title=" ">
<polygon fill="white" stroke="#bfbfbf" points="1256,-0.5 1256,-19.5 1312,-19.5 1312,-0.5 1256,-0.5"/>
<text text-anchor="middle" x="1284" y="-7.5" font-family="Helvetica,sans-Serif" font-size="10.00">algorithm</text>
</a>
</g>
</g>
<!-- Node23&#45;&gt;Node28 -->
<g id="edge29" class="edge">
<title>Node23&#45;&gt;Node28</title>
<path fill="none" stroke="midnightblue" d="M1379.94,-56.44C1361.43,-47.68 1332.42,-33.94 1311.14,-23.86"/>
<polygon fill="midnightblue" stroke="midnightblue" points="1312.51,-20.63 1301.98,-19.52 1309.52,-26.96 1312.51,-20.63"/>
</g>
<!-- Node29 -->
<g id="node29" class="node">
<title>Node29</title>
<g id="a_node29"><a xlink:title=" ">
<polygon fill="white" stroke="#bfbfbf" points="1330,-0.5 1330,-19.5 1384,-19.5 1384,-0.5 1330,-0.5"/>
<text text-anchor="middle" x="1357" y="-7.5" font-family="Helvetica,sans-Serif" font-size="10.00">iostream</text>
</a>
</g>
</g>
<!-- Node23&#45;&gt;Node29 -->
<g id="edge31" class="edge">
<title>Node23&#45;&gt;Node29</title>
<path fill="none" stroke="midnightblue" d="M1391.23,-56.08C1385.44,-48.46 1376.94,-37.26 1369.86,-27.94"/>
<polygon fill="midnightblue" stroke="midnightblue" points="1372.48,-25.6 1363.64,-19.75 1366.9,-29.83 1372.48,-25.6"/>
</g>
<!-- Node30 -->
<g id="node30" class="node">
<title>Node30</title>
<g id="a_node30"><a xlink:title=" ">
<polygon fill="white" stroke="#bfbfbf" points="1402,-0.5 1402,-19.5 1448,-19.5 1448,-0.5 1402,-0.5"/>
<text text-anchor="middle" x="1425" y="-7.5" font-family="Helvetica,sans-Serif" font-size="10.00">cstdint</text>
</a>
</g>
</g>
<!-- Node23&#45;&gt;Node30 -->
<g id="edge32" class="edge">
<title>Node23&#45;&gt;Node30</title>
<path fill="none" stroke="midnightblue" d="M1402.46,-56.08C1406.15,-48.69 1411.52,-37.95 1416.09,-28.81"/>
<polygon fill="midnightblue" stroke="midnightblue" points="1419.28,-30.26 1420.62,-19.75 1413.02,-27.13 1419.28,-30.26"/>
</g>
<!-- Node31 -->
<g id="node31" class="node">
<title>Node31</title>
<g id="a_node31"><a xlink:title=" ">
<polygon fill="white" stroke="#bfbfbf" points="1466.5,-0.5 1466.5,-19.5 1525.5,-19.5 1525.5,-0.5 1466.5,-0.5"/>
<text text-anchor="middle" x="1496" y="-7.5" font-family="Helvetica,sans-Serif" font-size="10.00">functional</text>
</a>
</g>
</g>
<!-- Node23&#45;&gt;Node31 -->
<g id="edge33" class="edge">
<title>Node23&#45;&gt;Node31</title>
<path fill="none" stroke="midnightblue" d="M1413.75,-56.32C1429.32,-47.74 1453.38,-34.49 1471.46,-24.52"/>
<polygon fill="midnightblue" stroke="midnightblue" points="1473.22,-27.55 1480.29,-19.65 1469.85,-21.42 1473.22,-27.55"/>
</g>
<!-- Node32 -->
<g id="node32" class="node">
<title>Node32</title>
<g id="a_node32"><a xlink:title=" ">
<polygon fill="white" stroke="#bfbfbf" points="1543.5,-0.5 1543.5,-19.5 1648.5,-19.5 1648.5,-0.5 1543.5,-0.5"/>
<text text-anchor="middle" x="1596" y="-7.5" font-family="Helvetica,sans-Serif" font-size="10.00">numpy/arrayobject.h</text>
</a>
</g>
</g>
<!-- Node23&#45;&gt;Node32 -->
<g id="edge35" class="edge">
<title>Node23&#45;&gt;Node32</title>
<path fill="none" stroke="midnightblue" d="M1429.37,-56.44C1463.26,-47.2 1517.4,-32.44 1554.72,-22.26"/>
<polygon fill="midnightblue" stroke="midnightblue" points="1556.05,-25.52 1564.77,-19.52 1554.2,-18.77 1556.05,-25.52"/>
</g>
</g>
</svg>
        <g id="navigator" transform="translate(0 0)" fill="#404254">
                <rect fill="#f2f5e9" fill-opacity="0.5" stroke="#606060" stroke-width=".5" x="0" y="0" width="60" height="60"/>
                <use id="zoomplus" xlink:href="#zoomPlus" x="17" y="9" onmousedown="handleZoom(evt,'in')"/>
                <use id="zoomminus" xlink:href="#zoomMin" x="42" y="9" onmousedown="handleZoom(evt,'out')"/>
                <use id="reset" xlink:href="#resetDef" x="30" y="36" onmousedown="handleReset()"/>
                <g id="arrowUp" xlink:href="#dirArrow" transform="translate(30 24)" onmousedown="handlePan(0,-1)">
                  <use xlink:href="#rim" fill="#404040">
                        <set attributeName="fill" to="#808080" begin="arrowUp.mouseover" end="arrowUp.mouseout"/>
                  </use>
                  <path fill="none" stroke="white" stroke-width="1.5" d="M0,-3.0v7 M-2.5,-0.5L0,-3.0L2.5,-0.5"/>
                </g>
                <g id="arrowRight" xlink:href="#dirArrow" transform="rotate(90) translate(36 -43)" onmousedown="handlePan(1,0)">
                  <use xlink:href="#rim" fill="#404040">
                        <set attributeName="fill" to="#808080" begin="arrowRight.mouseover" end="arrowRight.mouseout"/>
                  </use>
                  <path fill="none" stroke="white" stroke-width="1.5" d="M0,-3.0v7 M-2.5,-0.5L0,-3.0L2.5,-0.5"/>
                </g>
                <g id="arrowDown" xlink:href="#dirArrow" transform="rotate(180) translate(-30 -48)" onmousedown="handlePan(0,1)">
                  <use xlink:href="#rim" fill="#404040">
                        <set attributeName="fill" to="#808080" begin="arrowDown.mouseover" end="arrowDown.mouseout"/>
                  </use>
                  <path fill="none" stroke="white" stroke-width="1.5" d="M0,-3.0v7 M-2.5,-0.5L0,-3.0L2.5,-0.5"/>
                </g>
                <g id="arrowLeft" xlink:href="#dirArrow" transform="rotate(270) translate(-36 17)" onmousedown="handlePan(-1,0)">
                  <use xlink:href="#rim" fill="#404040">
                        <set attributeName="fill" to="#808080" begin="arrowLeft.mouseover" end="arrowLeft.mouseout"/>
                  </use>
                  <path fill="none" stroke="white" stroke-width="1.5" d="M0,-3.0v7 M-2.5,-0.5L0,-3.0L2.5,-0.5"/>
                </g>
        </g>
        <svg viewBox="0 0 15 15" width="100%" height="30px" preserveAspectRatio="xMaxYMin meet">
         <g id="arrow_out" transform="scale(0.3 0.3)">
          <a xlink:href="mastersclient_8h__incl_org.svg" target="_base">
           <rect id="button" ry="5" rx="5" y="6" x="6" height="38" width="38"
                fill="#f2f5e9" fill-opacity="0.5" stroke="#606060" stroke-width="1.0"/>
           <path id="arrow"
             d="M 11.500037,31.436501 C 11.940474,20.09759 22.043105,11.32322 32.158766,21.979434 L 37.068811,17.246167 C 37.068811,17.246167 37.088388,32 37.088388,32 L 22.160133,31.978069 C 22.160133,31.978069 26.997745,27.140456 26.997745,27.140456 C 18.528582,18.264221 13.291696,25.230495 11.500037,31.436501 z"
             style="fill:#404040;"/>
          </a>
         </g>
        </svg>
</svg>
