<?xml version="1.0" encoding="UTF-8" standalone="no"?>
<!DOCTYPE svg PUBLIC "-//W3C//DTD SVG 1.1//EN"
 "http://www.w3.org/Graphics/SVG/1.1/DTD/svg11.dtd">
<!-- Generated by graphviz version 2.43.0 (0)
 -->
<!-- Title: include/matplotlibcpp.h Pages: 1 -->
<svg width="263pt" height="196pt"
 viewBox="0.00 0.00 263.00 196.00" xmlns="http://www.w3.org/2000/svg" xmlns:xlink="http://www.w3.org/1999/xlink">
<g id="graph0" class="graph" transform="scale(1 1) rotate(0) translate(4 192)">
<title>include/matplotlibcpp.h</title>
<polygon fill="white" stroke="transparent" points="-4,4 -4,-192 259,-192 259,4 -4,4"/>
<!-- Node1 -->
<g id="node1" class="node">
<title>Node1</title>
<g id="a_node1"><a xlink:title=" ">
<polygon fill="#bfbfbf" stroke="black" points="98,-168.5 98,-187.5 214,-187.5 214,-168.5 98,-168.5"/>
<text text-anchor="middle" x="156" y="-175.5" font-family="Helvetica,sans-Serif" font-size="10.00">include/matplotlibcpp.h</text>
</a>
</g>
</g>
<!-- Node2 -->
<g id="node2" class="node">
<title>Node2</title>
<g id="a_node2"><a xlink:href="plot_master_8h.html" target="_top" xlink:title=" ">
<polygon fill="white" stroke="black" points="104,-112.5 104,-131.5 208,-131.5 208,-112.5 104,-112.5"/>
<text text-anchor="middle" x="156" y="-119.5" font-family="Helvetica,sans-Serif" font-size="10.00">include/plotMaster.h</text>
</a>
</g>
</g>
<!-- Node1&#45;&gt;Node2 -->
<g id="edge1" class="edge">
<title>Node1&#45;&gt;Node2</title>
<path fill="none" stroke="midnightblue" d="M156,-157.8C156,-148.91 156,-138.78 156,-131.75"/>
<polygon fill="midnightblue" stroke="midnightblue" points="152.5,-158.08 156,-168.08 159.5,-158.08 152.5,-158.08"/>
</g>
<!-- Node3 -->
<g id="node3" class="node">
<title>Node3</title>
<g id="a_node3"><a xlink:href="mastersclient_8h.html" target="_top" xlink:title=" ">
<polygon fill="white" stroke="black" points="39.5,-56.5 39.5,-75.5 156.5,-75.5 156.5,-56.5 39.5,-56.5"/>
<text text-anchor="middle" x="98" y="-63.5" font-family="Helvetica,sans-Serif" font-size="10.00">include/mastersclient.h</text>
</a>
</g>
</g>
<!-- Node2&#45;&gt;Node3 -->
<g id="edge2" class="edge">
<title>Node2&#45;&gt;Node3</title>
<path fill="none" stroke="midnightblue" d="M139.09,-105.25C128.8,-95.67 116.03,-83.79 107.49,-75.83"/>
<polygon fill="midnightblue" stroke="midnightblue" points="136.98,-108.07 146.68,-112.32 141.75,-102.95 136.98,-108.07"/>
</g>
<!-- Node6 -->
<g id="node6" class="node">
<title>Node6</title>
<g id="a_node6"><a xlink:href="plot_master_8cpp.html" target="_top" xlink:title=" ">
<polygon fill="white" stroke="black" points="175,-56.5 175,-75.5 255,-75.5 255,-56.5 175,-56.5"/>
<text text-anchor="middle" x="215" y="-63.5" font-family="Helvetica,sans-Serif" font-size="10.00">plotMaster.cpp</text>
</a>
</g>
</g>
<!-- Node2&#45;&gt;Node6 -->
<g id="edge5" class="edge">
<title>Node2&#45;&gt;Node6</title>
<path fill="none" stroke="midnightblue" d="M172.89,-105.54C183.41,-95.91 196.57,-83.87 205.35,-75.83"/>
<polygon fill="midnightblue" stroke="midnightblue" points="170.49,-102.99 165.48,-112.32 175.22,-108.15 170.49,-102.99"/>
</g>
<!-- Node4 -->
<g id="node4" class="node">
<title>Node4</title>
<g id="a_node4"><a xlink:href="masters_app_8cpp.html" target="_top" xlink:title=" ">
<polygon fill="white" stroke="black" points="0,-0.5 0,-19.5 88,-19.5 88,-0.5 0,-0.5"/>
<text text-anchor="middle" x="44" y="-7.5" font-family="Helvetica,sans-Serif" font-size="10.00">mastersApp.cpp</text>
</a>
</g>
</g>
<!-- Node3&#45;&gt;Node4 -->
<g id="edge3" class="edge">
<title>Node3&#45;&gt;Node4</title>
<path fill="none" stroke="midnightblue" d="M82,-49C72.43,-39.43 60.64,-27.64 52.75,-19.75"/>
<polygon fill="midnightblue" stroke="midnightblue" points="79.54,-51.49 89.08,-56.08 84.49,-46.54 79.54,-51.49"/>
</g>
<!-- Node5 -->
<g id="node5" class="node">
<title>Node5</title>
<g id="a_node5"><a xlink:href="mastersclient_8cpp.html" target="_top" xlink:title="The code is executed on this Turtle.">
<polygon fill="white" stroke="black" points="106,-0.5 106,-19.5 200,-19.5 200,-0.5 106,-0.5"/>
<text text-anchor="middle" x="153" y="-7.5" font-family="Helvetica,sans-Serif" font-size="10.00">mastersclient.cpp</text>
</a>
</g>
</g>
<!-- Node3&#45;&gt;Node5 -->
<g id="edge4" class="edge">
<title>Node3&#45;&gt;Node5</title>
<path fill="none" stroke="midnightblue" d="M114.29,-49C124.04,-39.43 136.05,-27.64 144.09,-19.75"/>
<polygon fill="midnightblue" stroke="midnightblue" points="111.77,-46.58 107.08,-56.08 116.67,-51.57 111.77,-46.58"/>
</g>
</g>
</svg>
