<?xml version="1.0" encoding="UTF-8" standalone="no"?>
<!DOCTYPE svg PUBLIC "-//W3C//DTD SVG 1.1//EN"
 "http://www.w3.org/Graphics/SVG/1.1/DTD/svg11.dtd">
<!-- Generated by graphviz version 2.43.0 (0)
 -->
<!-- Title: matplotlibcpp::plot3 Pages: 1 -->
<svg width="718pt" height="116pt"
 viewBox="0.00 0.00 718.00 115.50" xmlns="http://www.w3.org/2000/svg" xmlns:xlink="http://www.w3.org/1999/xlink">
<g id="graph0" class="graph" transform="scale(1 1) rotate(0) translate(4 111.5)">
<title>matplotlibcpp::plot3</title>
<polygon fill="white" stroke="transparent" points="-4,4 -4,-111.5 714,-111.5 714,4 -4,4"/>
<!-- Node1 -->
<g id="node1" class="node">
<title>Node1</title>
<g id="a_node1"><a xlink:title=" ">
<polygon fill="#bfbfbf" stroke="black" points="0,-50 0,-69 101,-69 101,-50 0,-50"/>
<text text-anchor="middle" x="50.5" y="-57" font-family="Helvetica,sans-Serif" font-size="10.00">matplotlibcpp::plot3</text>
</a>
</g>
</g>
<!-- Node2 -->
<g id="node2" class="node">
<title>Node2</title>
<g id="a_node2"><a xlink:href="namespacematplotlibcpp.html#aab5287e30ebd90df0f5614d8da0f5291" target="_top" xlink:title=" ">
<polygon fill="white" stroke="black" points="140,-88 140,-107 238,-107 238,-88 140,-88"/>
<text text-anchor="middle" x="189" y="-95" font-family="Helvetica,sans-Serif" font-size="10.00">matplotlibcpp::axis</text>
</a>
</g>
</g>
<!-- Node1&#45;&gt;Node2 -->
<g id="edge1" class="edge">
<title>Node1&#45;&gt;Node2</title>
<path fill="none" stroke="midnightblue" d="M85.94,-69.09C103.48,-73.97 125.01,-79.96 143.76,-85.18"/>
<polygon fill="midnightblue" stroke="midnightblue" points="142.99,-88.6 153.57,-87.91 144.87,-81.86 142.99,-88.6"/>
</g>
<!-- Node3 -->
<g id="node3" class="node">
<title>Node3</title>
<g id="a_node3"><a xlink:href="structmatplotlibcpp_1_1detail_1_1__interpreter.html#a3ddc4e50c23738307da3dc64c47cdbc0" target="_top" xlink:title=" ">
<polygon fill="white" stroke="black" points="277,-63.5 277,-93.5 381,-93.5 381,-63.5 277,-63.5"/>
<text text-anchor="start" x="285" y="-81.5" font-family="Helvetica,sans-Serif" font-size="10.00">matplotlibcpp::detail</text>
<text text-anchor="middle" x="329" y="-70.5" font-family="Helvetica,sans-Serif" font-size="10.00">::_interpreter::get</text>
</a>
</g>
</g>
<!-- Node1&#45;&gt;Node3 -->
<g id="edge5" class="edge">
<title>Node1&#45;&gt;Node3</title>
<path fill="none" stroke="midnightblue" d="M101.25,-62.92C147.65,-66.11 217,-70.87 266.78,-74.29"/>
<polygon fill="midnightblue" stroke="midnightblue" points="266.56,-77.79 276.77,-74.98 267.04,-70.8 266.56,-77.79"/>
</g>
<!-- Node6 -->
<g id="node6" class="node">
<title>Node6</title>
<g id="a_node6"><a xlink:href="namespacematplotlibcpp_1_1detail.html#a9bcca44556cf0ddbbf147a423d9a9496" target="_top" xlink:title=" ">
<polygon fill="white" stroke="black" points="137,-0.5 137,-30.5 241,-30.5 241,-0.5 137,-0.5"/>
<text text-anchor="start" x="145" y="-18.5" font-family="Helvetica,sans-Serif" font-size="10.00">matplotlibcpp::detail</text>
<text text-anchor="middle" x="189" y="-7.5" font-family="Helvetica,sans-Serif" font-size="10.00">::get_array</text>
</a>
</g>
</g>
<!-- Node1&#45;&gt;Node6 -->
<g id="edge6" class="edge">
<title>Node1&#45;&gt;Node6</title>
<path fill="none" stroke="midnightblue" d="M81.12,-49.95C95.8,-45.22 114.04,-39.34 131.27,-33.79"/>
<polygon fill="midnightblue" stroke="midnightblue" points="132.82,-36.96 141.26,-30.57 130.67,-30.3 132.82,-36.96"/>
</g>
<!-- Node2&#45;&gt;Node3 -->
<g id="edge2" class="edge">
<title>Node2&#45;&gt;Node3</title>
<path fill="none" stroke="midnightblue" d="M238.27,-90.85C247.4,-89.6 257.07,-88.27 266.54,-86.96"/>
<polygon fill="midnightblue" stroke="midnightblue" points="267.28,-90.39 276.71,-85.56 266.33,-83.46 267.28,-90.39"/>
</g>
<!-- Node4 -->
<g id="node4" class="node">
<title>Node4</title>
<g id="a_node4"><a xlink:href="structmatplotlibcpp_1_1detail_1_1__interpreter.html#accf36ff8fd9f1bd757d028fa4a14be40" target="_top" xlink:title=" ">
<polygon fill="white" stroke="black" points="417,-63.5 417,-93.5 542,-93.5 542,-63.5 417,-63.5"/>
<text text-anchor="start" x="425" y="-81.5" font-family="Helvetica,sans-Serif" font-size="10.00">matplotlibcpp::detail</text>
<text text-anchor="middle" x="479.5" y="-70.5" font-family="Helvetica,sans-Serif" font-size="10.00">::_interpreter::interkeeper</text>
</a>
</g>
</g>
<!-- Node3&#45;&gt;Node4 -->
<g id="edge3" class="edge">
<title>Node3&#45;&gt;Node4</title>
<path fill="none" stroke="midnightblue" d="M381.11,-78.5C389.37,-78.5 398.05,-78.5 406.69,-78.5"/>
<polygon fill="midnightblue" stroke="midnightblue" points="406.79,-82 416.79,-78.5 406.79,-75 406.79,-82"/>
</g>
<!-- Node5 -->
<g id="node5" class="node">
<title>Node5</title>
<g id="a_node5"><a xlink:href="structmatplotlibcpp_1_1detail_1_1__interpreter.html#abd9d036f154de95f507d8be310569d20" target="_top" xlink:title=" ">
<polygon fill="white" stroke="black" points="578,-63.5 578,-93.5 710,-93.5 710,-63.5 578,-63.5"/>
<text text-anchor="start" x="586" y="-81.5" font-family="Helvetica,sans-Serif" font-size="10.00">matplotlibcpp::detail</text>
<text text-anchor="middle" x="644" y="-70.5" font-family="Helvetica,sans-Serif" font-size="10.00">::_interpreter::~_interpreter</text>
</a>
</g>
</g>
<!-- Node4&#45;&gt;Node5 -->
<g id="edge4" class="edge">
<title>Node4&#45;&gt;Node5</title>
<path fill="none" stroke="midnightblue" d="M542.4,-78.5C550.62,-78.5 559.13,-78.5 567.55,-78.5"/>
<polygon fill="midnightblue" stroke="midnightblue" points="567.76,-82 577.76,-78.5 567.76,-75 567.76,-82"/>
</g>
</g>
</svg>
