<?xml version="1.0" encoding="UTF-8" standalone="no"?>
<!DOCTYPE svg PUBLIC "-//W3C//DTD SVG 1.1//EN"
 "http://www.w3.org/Graphics/SVG/1.1/DTD/svg11.dtd">
<!-- Generated by graphviz version 2.43.0 (0)
 -->
<!-- Title: matplotlibcpp::stem Pages: 1 -->
<svg width="579pt" height="88pt"
 viewBox="0.00 0.00 579.00 88.00" xmlns="http://www.w3.org/2000/svg" xmlns:xlink="http://www.w3.org/1999/xlink">
<g id="graph0" class="graph" transform="scale(1 1) rotate(0) translate(4 84)">
<title>matplotlibcpp::stem</title>
<polygon fill="white" stroke="transparent" points="-4,4 -4,-84 575,-84 575,4 -4,4"/>
<!-- Node1 -->
<g id="node1" class="node">
<title>Node1</title>
<g id="a_node1"><a xlink:title=" ">
<polygon fill="#bfbfbf" stroke="black" points="0,-30 0,-49 102,-49 102,-30 0,-30"/>
<text text-anchor="middle" x="51" y="-37" font-family="Helvetica,sans-Serif" font-size="10.00">matplotlibcpp::stem</text>
</a>
</g>
</g>
<!-- Node2 -->
<g id="node2" class="node">
<title>Node2</title>
<g id="a_node2"><a xlink:href="structmatplotlibcpp_1_1detail_1_1__interpreter.html#a3ddc4e50c23738307da3dc64c47cdbc0" target="_top" xlink:title=" ">
<polygon fill="white" stroke="black" points="138,-49.5 138,-79.5 242,-79.5 242,-49.5 138,-49.5"/>
<text text-anchor="start" x="146" y="-67.5" font-family="Helvetica,sans-Serif" font-size="10.00">matplotlibcpp::detail</text>
<text text-anchor="middle" x="190" y="-56.5" font-family="Helvetica,sans-Serif" font-size="10.00">::_interpreter::get</text>
</a>
</g>
</g>
<!-- Node1&#45;&gt;Node2 -->
<g id="edge1" class="edge">
<title>Node1&#45;&gt;Node2</title>
<path fill="none" stroke="midnightblue" d="M102.24,-48.67C110.58,-50.19 119.31,-51.78 127.89,-53.35"/>
<polygon fill="midnightblue" stroke="midnightblue" points="127.39,-56.81 137.85,-55.17 128.64,-49.93 127.39,-56.81"/>
</g>
<!-- Node5 -->
<g id="node5" class="node">
<title>Node5</title>
<g id="a_node5"><a xlink:href="namespacematplotlibcpp_1_1detail.html#a9bcca44556cf0ddbbf147a423d9a9496" target="_top" xlink:title=" ">
<polygon fill="white" stroke="black" points="138,-0.5 138,-30.5 242,-30.5 242,-0.5 138,-0.5"/>
<text text-anchor="start" x="146" y="-18.5" font-family="Helvetica,sans-Serif" font-size="10.00">matplotlibcpp::detail</text>
<text text-anchor="middle" x="190" y="-7.5" font-family="Helvetica,sans-Serif" font-size="10.00">::get_array</text>
</a>
</g>
</g>
<!-- Node1&#45;&gt;Node5 -->
<g id="edge4" class="edge">
<title>Node1&#45;&gt;Node5</title>
<path fill="none" stroke="midnightblue" d="M102.24,-30.7C110.58,-29.24 119.31,-27.71 127.89,-26.21"/>
<polygon fill="midnightblue" stroke="midnightblue" points="128.61,-29.63 137.85,-24.46 127.4,-22.74 128.61,-29.63"/>
</g>
<!-- Node3 -->
<g id="node3" class="node">
<title>Node3</title>
<g id="a_node3"><a xlink:href="structmatplotlibcpp_1_1detail_1_1__interpreter.html#accf36ff8fd9f1bd757d028fa4a14be40" target="_top" xlink:title=" ">
<polygon fill="white" stroke="black" points="278,-49.5 278,-79.5 403,-79.5 403,-49.5 278,-49.5"/>
<text text-anchor="start" x="286" y="-67.5" font-family="Helvetica,sans-Serif" font-size="10.00">matplotlibcpp::detail</text>
<text text-anchor="middle" x="340.5" y="-56.5" font-family="Helvetica,sans-Serif" font-size="10.00">::_interpreter::interkeeper</text>
</a>
</g>
</g>
<!-- Node2&#45;&gt;Node3 -->
<g id="edge2" class="edge">
<title>Node2&#45;&gt;Node3</title>
<path fill="none" stroke="midnightblue" d="M242.11,-64.5C250.37,-64.5 259.05,-64.5 267.69,-64.5"/>
<polygon fill="midnightblue" stroke="midnightblue" points="267.79,-68 277.79,-64.5 267.79,-61 267.79,-68"/>
</g>
<!-- Node4 -->
<g id="node4" class="node">
<title>Node4</title>
<g id="a_node4"><a xlink:href="structmatplotlibcpp_1_1detail_1_1__interpreter.html#abd9d036f154de95f507d8be310569d20" target="_top" xlink:title=" ">
<polygon fill="white" stroke="black" points="439,-49.5 439,-79.5 571,-79.5 571,-49.5 439,-49.5"/>
<text text-anchor="start" x="447" y="-67.5" font-family="Helvetica,sans-Serif" font-size="10.00">matplotlibcpp::detail</text>
<text text-anchor="middle" x="505" y="-56.5" font-family="Helvetica,sans-Serif" font-size="10.00">::_interpreter::~_interpreter</text>
</a>
</g>
</g>
<!-- Node3&#45;&gt;Node4 -->
<g id="edge3" class="edge">
<title>Node3&#45;&gt;Node4</title>
<path fill="none" stroke="midnightblue" d="M403.4,-64.5C411.62,-64.5 420.13,-64.5 428.55,-64.5"/>
<polygon fill="midnightblue" stroke="midnightblue" points="428.76,-68 438.76,-64.5 428.76,-61 428.76,-68"/>
</g>
</g>
</svg>
