<?xml version="1.0" encoding="UTF-8" standalone="no"?>
<!DOCTYPE svg PUBLIC "-//W3C//DTD SVG 1.1//EN"
 "http://www.w3.org/Graphics/SVG/1.1/DTD/svg11.dtd">
<!-- Generated by graphviz version 2.43.0 (0)
 -->
<!-- Title: matplotlibcpp::plot Pages: 1 -->
<svg width="705pt" height="88pt"
 viewBox="0.00 0.00 705.00 88.00" xmlns="http://www.w3.org/2000/svg" xmlns:xlink="http://www.w3.org/1999/xlink">
<g id="graph0" class="graph" transform="scale(1 1) rotate(0) translate(4 84)">
<title>matplotlibcpp::plot</title>
<polygon fill="white" stroke="transparent" points="-4,4 -4,-84 701,-84 701,4 -4,4"/>
<!-- Node1 -->
<g id="node1" class="node">
<title>Node1</title>
<g id="a_node1"><a xlink:title=" ">
<polygon fill="#bfbfbf" stroke="black" points="0,-30 0,-49 96,-49 96,-30 0,-30"/>
<text text-anchor="middle" x="48" y="-37" font-family="Helvetica,sans-Serif" font-size="10.00">matplotlibcpp::plot</text>
</a>
</g>
</g>
<!-- Node2 -->
<g id="node2" class="node">
<title>Node2</title>
<g id="a_node2"><a xlink:href="namespacematplotlibcpp.html#a06ac86c6fecaa5a9b3fb566bc31d6a3b" target="_top" xlink:title=" ">
<polygon fill="white" stroke="black" points="132,-30 132,-49 228,-49 228,-30 132,-30"/>
<text text-anchor="middle" x="180" y="-37" font-family="Helvetica,sans-Serif" font-size="10.00">matplotlibcpp::plot</text>
</a>
</g>
</g>
<!-- Node1&#45;&gt;Node2 -->
<g id="edge1" class="edge">
<title>Node1&#45;&gt;Node2</title>
<path fill="none" stroke="midnightblue" d="M96.3,-39.5C104.56,-39.5 113.23,-39.5 121.72,-39.5"/>
<polygon fill="midnightblue" stroke="midnightblue" points="121.95,-43 131.95,-39.5 121.95,-36 121.95,-43"/>
</g>
<!-- Node3 -->
<g id="node3" class="node">
<title>Node3</title>
<g id="a_node3"><a xlink:href="structmatplotlibcpp_1_1detail_1_1__interpreter.html#a3ddc4e50c23738307da3dc64c47cdbc0" target="_top" xlink:title=" ">
<polygon fill="white" stroke="black" points="264,-49.5 264,-79.5 368,-79.5 368,-49.5 264,-49.5"/>
<text text-anchor="start" x="272" y="-67.5" font-family="Helvetica,sans-Serif" font-size="10.00">matplotlibcpp::detail</text>
<text text-anchor="middle" x="316" y="-56.5" font-family="Helvetica,sans-Serif" font-size="10.00">::_interpreter::get</text>
</a>
</g>
</g>
<!-- Node2&#45;&gt;Node3 -->
<g id="edge2" class="edge">
<title>Node2&#45;&gt;Node3</title>
<path fill="none" stroke="midnightblue" d="M228.24,-48.31C236.48,-49.85 245.14,-51.47 253.69,-53.06"/>
<polygon fill="midnightblue" stroke="midnightblue" points="253.16,-56.52 263.63,-54.92 254.44,-49.64 253.16,-56.52"/>
</g>
<!-- Node6 -->
<g id="node6" class="node">
<title>Node6</title>
<g id="a_node6"><a xlink:href="namespacematplotlibcpp_1_1detail.html#a9bcca44556cf0ddbbf147a423d9a9496" target="_top" xlink:title=" ">
<polygon fill="white" stroke="black" points="264,-0.5 264,-30.5 368,-30.5 368,-0.5 264,-0.5"/>
<text text-anchor="start" x="272" y="-18.5" font-family="Helvetica,sans-Serif" font-size="10.00">matplotlibcpp::detail</text>
<text text-anchor="middle" x="316" y="-7.5" font-family="Helvetica,sans-Serif" font-size="10.00">::get_array</text>
</a>
</g>
</g>
<!-- Node2&#45;&gt;Node6 -->
<g id="edge5" class="edge">
<title>Node2&#45;&gt;Node6</title>
<path fill="none" stroke="midnightblue" d="M228.24,-31.04C236.48,-29.56 245.14,-28.01 253.69,-26.48"/>
<polygon fill="midnightblue" stroke="midnightblue" points="254.4,-29.91 263.63,-24.7 253.17,-23.02 254.4,-29.91"/>
</g>
<!-- Node4 -->
<g id="node4" class="node">
<title>Node4</title>
<g id="a_node4"><a xlink:href="structmatplotlibcpp_1_1detail_1_1__interpreter.html#accf36ff8fd9f1bd757d028fa4a14be40" target="_top" xlink:title=" ">
<polygon fill="white" stroke="black" points="404,-49.5 404,-79.5 529,-79.5 529,-49.5 404,-49.5"/>
<text text-anchor="start" x="412" y="-67.5" font-family="Helvetica,sans-Serif" font-size="10.00">matplotlibcpp::detail</text>
<text text-anchor="middle" x="466.5" y="-56.5" font-family="Helvetica,sans-Serif" font-size="10.00">::_interpreter::interkeeper</text>
</a>
</g>
</g>
<!-- Node3&#45;&gt;Node4 -->
<g id="edge3" class="edge">
<title>Node3&#45;&gt;Node4</title>
<path fill="none" stroke="midnightblue" d="M368.11,-64.5C376.37,-64.5 385.05,-64.5 393.69,-64.5"/>
<polygon fill="midnightblue" stroke="midnightblue" points="393.79,-68 403.79,-64.5 393.79,-61 393.79,-68"/>
</g>
<!-- Node5 -->
<g id="node5" class="node">
<title>Node5</title>
<g id="a_node5"><a xlink:href="structmatplotlibcpp_1_1detail_1_1__interpreter.html#abd9d036f154de95f507d8be310569d20" target="_top" xlink:title=" ">
<polygon fill="white" stroke="black" points="565,-49.5 565,-79.5 697,-79.5 697,-49.5 565,-49.5"/>
<text text-anchor="start" x="573" y="-67.5" font-family="Helvetica,sans-Serif" font-size="10.00">matplotlibcpp::detail</text>
<text text-anchor="middle" x="631" y="-56.5" font-family="Helvetica,sans-Serif" font-size="10.00">::_interpreter::~_interpreter</text>
</a>
</g>
</g>
<!-- Node4&#45;&gt;Node5 -->
<g id="edge4" class="edge">
<title>Node4&#45;&gt;Node5</title>
<path fill="none" stroke="midnightblue" d="M529.4,-64.5C537.62,-64.5 546.13,-64.5 554.55,-64.5"/>
<polygon fill="midnightblue" stroke="midnightblue" points="554.76,-68 564.76,-64.5 554.76,-61 554.76,-68"/>
</g>
</g>
</svg>
