<?xml version="1.0" encoding="UTF-8" standalone="no"?>
<!DOCTYPE svg PUBLIC "-//W3C//DTD SVG 1.1//EN"
 "http://www.w3.org/Graphics/SVG/1.1/DTD/svg11.dtd">
<!-- Generated by graphviz version 2.43.0 (0)
 -->
<!-- Title: matplotlibcpp::axis Pages: 1 -->
<svg width="243pt" height="127pt"
 viewBox="0.00 0.00 243.00 126.50" xmlns="http://www.w3.org/2000/svg" xmlns:xlink="http://www.w3.org/1999/xlink">
<g id="graph0" class="graph" transform="scale(1 1) rotate(0) translate(4 122.5)">
<title>matplotlibcpp::axis</title>
<polygon fill="white" stroke="transparent" points="-4,4 -4,-122.5 239,-122.5 239,4 -4,4"/>
<!-- Node1 -->
<g id="node1" class="node">
<title>Node1</title>
<g id="a_node1"><a xlink:title=" ">
<polygon fill="#bfbfbf" stroke="black" points="137,-55 137,-74 235,-74 235,-55 137,-55"/>
<text text-anchor="middle" x="186" y="-62" font-family="Helvetica,sans-Serif" font-size="10.00">matplotlibcpp::axis</text>
</a>
</g>
</g>
<!-- Node2 -->
<g id="node2" class="node">
<title>Node2</title>
<g id="a_node2"><a xlink:href="namespacematplotlibcpp.html#a107bbc57e93a929c75baf1c60a712d8b" target="_top" xlink:title=" ">
<polygon fill="white" stroke="black" points="0,-99 0,-118 101,-118 101,-99 0,-99"/>
<text text-anchor="middle" x="50.5" y="-106" font-family="Helvetica,sans-Serif" font-size="10.00">matplotlibcpp::plot3</text>
</a>
</g>
</g>
<!-- Node1&#45;&gt;Node2 -->
<g id="edge1" class="edge">
<title>Node1&#45;&gt;Node2</title>
<path fill="none" stroke="midnightblue" d="M146.42,-77.22C125.36,-84.16 99.73,-92.6 80.41,-98.97"/>
<polygon fill="midnightblue" stroke="midnightblue" points="147.63,-80.5 156.03,-74.05 145.44,-73.85 147.63,-80.5"/>
</g>
<!-- Node3 -->
<g id="node3" class="node">
<title>Node3</title>
<g id="a_node3"><a xlink:href="namespacematplotlibcpp.html#a1f62cf2432777c919965bb983ddfd1b0" target="_top" xlink:title=" ">
<polygon fill="white" stroke="black" points="2.5,-49.5 2.5,-79.5 98.5,-79.5 98.5,-49.5 2.5,-49.5"/>
<text text-anchor="start" x="10.5" y="-67.5" font-family="Helvetica,sans-Serif" font-size="10.00">matplotlibcpp::plot</text>
<text text-anchor="middle" x="50.5" y="-56.5" font-family="Helvetica,sans-Serif" font-size="10.00">_surface</text>
</a>
</g>
</g>
<!-- Node1&#45;&gt;Node3 -->
<g id="edge2" class="edge">
<title>Node1&#45;&gt;Node3</title>
<path fill="none" stroke="midnightblue" d="M126.76,-64.5C117.4,-64.5 107.8,-64.5 98.73,-64.5"/>
<polygon fill="midnightblue" stroke="midnightblue" points="126.8,-68 136.8,-64.5 126.8,-61 126.8,-68"/>
</g>
<!-- Node4 -->
<g id="node4" class="node">
<title>Node4</title>
<g id="a_node4"><a xlink:href="namespacematplotlibcpp.html#a6479afec926d90fdf3309cf2a88db030" target="_top" xlink:title=" ">
<polygon fill="white" stroke="black" points="2.5,-0.5 2.5,-30.5 98.5,-30.5 98.5,-0.5 2.5,-0.5"/>
<text text-anchor="start" x="10.5" y="-18.5" font-family="Helvetica,sans-Serif" font-size="10.00">matplotlibcpp::tick</text>
<text text-anchor="middle" x="50.5" y="-7.5" font-family="Helvetica,sans-Serif" font-size="10.00">_params</text>
</a>
</g>
</g>
<!-- Node1&#45;&gt;Node4 -->
<g id="edge3" class="edge">
<title>Node1&#45;&gt;Node4</title>
<path fill="none" stroke="midnightblue" d="M149.13,-51.33C131.66,-44.92 110.57,-37.18 92.47,-30.54"/>
<polygon fill="midnightblue" stroke="midnightblue" points="148.35,-54.78 158.94,-54.94 150.76,-48.2 148.35,-54.78"/>
</g>
</g>
</svg>
