<?xml version="1.0" encoding="UTF-8" standalone="no"?>
<!DOCTYPE svg PUBLIC "-//W3C//DTD SVG 1.1//EN"
 "http://www.w3.org/Graphics/SVG/1.1/DTD/svg11.dtd">
<!-- Generated by graphviz version 2.43.0 (0)
 -->
<!-- Title: matplotlibcpp::stem Pages: 1 -->
<!--zoomable 88 -->
<svg id="main" version="1.1" xmlns="http://www.w3.org/2000/svg" xmlns:xlink="http://www.w3.org/1999/xlink" xml:space="preserve" onload="init(evt)">
<style type="text/css"><![CDATA[
.edge:hover path { stroke: red; }
.edge:hover polygon { stroke: red; fill: red; }
]]></style>
<script type="text/javascript"><![CDATA[
var edges = document.getElementsByTagName('g');
if (edges && edges.length) {
  for (var i=0;i<edges.length;i++) {
    if (edges[i].id.substr(0,4)=='edge') {
      edges[i].setAttribute('class','edge');
    }
  }
}
]]></script>
        <defs>
                <circle id="rim" cx="0" cy="0" r="7"/>
                <circle id="rim2" cx="0" cy="0" r="3.5"/>
                <g id="zoomPlus">
                        <use xlink:href="#rim" fill="#404040">
                                <set attributeName="fill" to="#808080" begin="zoomplus.mouseover" end="zoomplus.mouseout"/>
                        </use>
                        <path d="M-4,0h8M0,-4v8" fill="none" stroke="white" stroke-width="1.5" pointer-events="none"/>
                </g>
                <g id="zoomMin">
                        <use xlink:href="#rim" fill="#404040">
                                <set attributeName="fill" to="#808080" begin="zoomminus.mouseover" end="zoomminus.mouseout"/>
                        </use>
                        <path d="M-4,0h8" fill="none" stroke="white" stroke-width="1.5" pointer-events="none"/>
                </g>
                <g id="dirArrow">
                        <path fill="none" stroke="white" stroke-width="1.5" d="M0,-3.0v7 M-2.5,-0.5L0,-3.0L2.5,-0.5"/>
                </g>
               <g id="resetDef">
                       <use xlink:href="#rim2" fill="#404040">
                               <set attributeName="fill" to="#808080" begin="reset.mouseover" end="reset.mouseout"/>
                       </use>
               </g>
        </defs>

<script type="text/javascript">
var viewWidth = 717;
var viewHeight = 88;
var sectionId = 'dynsection-53';
</script>
<script xlink:href="svgpan.js"/>
<svg id="graph" class="graph">
<g id="viewport">
<title>matplotlibcpp::stem</title>
<polygon fill="white" stroke="transparent" points="-4,4 -4,-84 713,-84 713,4 -4,4"/>
<!-- Node1 -->
<g id="node1" class="node">
<title>Node1</title>
<g id="a_node1"><a xlink:title=" ">
<polygon fill="#bfbfbf" stroke="black" points="0,-30 0,-49 102,-49 102,-30 0,-30"/>
<text text-anchor="middle" x="51" y="-37" font-family="Helvetica,sans-Serif" font-size="10.00">matplotlibcpp::stem</text>
</a>
</g>
</g>
<!-- Node2 -->
<g id="node2" class="node">
<title>Node2</title>
<g id="a_node2"><a xlink:href="namespacematplotlibcpp.html#ae3c91bdfbe011133346dcc4f31ec5932" target="_top" xlink:title=" ">
<polygon fill="white" stroke="black" points="138,-30 138,-49 240,-49 240,-30 138,-30"/>
<text text-anchor="middle" x="189" y="-37" font-family="Helvetica,sans-Serif" font-size="10.00">matplotlibcpp::stem</text>
</a>
</g>
</g>
<!-- Node1&#45;&gt;Node2 -->
<g id="edge1" class="edge">
<title>Node1&#45;&gt;Node2</title>
<path fill="none" stroke="midnightblue" d="M102.25,-39.5C110.54,-39.5 119.2,-39.5 127.7,-39.5"/>
<polygon fill="midnightblue" stroke="midnightblue" points="127.95,-43 137.95,-39.5 127.95,-36 127.95,-43"/>
</g>
<!-- Node3 -->
<g id="node3" class="node">
<title>Node3</title>
<g id="a_node3"><a xlink:href="structmatplotlibcpp_1_1detail_1_1__interpreter.html#a3ddc4e50c23738307da3dc64c47cdbc0" target="_top" xlink:title=" ">
<polygon fill="white" stroke="black" points="276,-49.5 276,-79.5 380,-79.5 380,-49.5 276,-49.5"/>
<text text-anchor="start" x="284" y="-67.5" font-family="Helvetica,sans-Serif" font-size="10.00">matplotlibcpp::detail</text>
<text text-anchor="middle" x="328" y="-56.5" font-family="Helvetica,sans-Serif" font-size="10.00">::_interpreter::get</text>
</a>
</g>
</g>
<!-- Node2&#45;&gt;Node3 -->
<g id="edge2" class="edge">
<title>Node2&#45;&gt;Node3</title>
<path fill="none" stroke="midnightblue" d="M240.24,-48.67C248.58,-50.19 257.31,-51.78 265.89,-53.35"/>
<polygon fill="midnightblue" stroke="midnightblue" points="265.39,-56.81 275.85,-55.17 266.64,-49.93 265.39,-56.81"/>
</g>
<!-- Node6 -->
<g id="node6" class="node">
<title>Node6</title>
<g id="a_node6"><a xlink:href="namespacematplotlibcpp_1_1detail.html#a9bcca44556cf0ddbbf147a423d9a9496" target="_top" xlink:title=" ">
<polygon fill="white" stroke="black" points="276,-0.5 276,-30.5 380,-30.5 380,-0.5 276,-0.5"/>
<text text-anchor="start" x="284" y="-18.5" font-family="Helvetica,sans-Serif" font-size="10.00">matplotlibcpp::detail</text>
<text text-anchor="middle" x="328" y="-7.5" font-family="Helvetica,sans-Serif" font-size="10.00">::get_array</text>
</a>
</g>
</g>
<!-- Node2&#45;&gt;Node6 -->
<g id="edge5" class="edge">
<title>Node2&#45;&gt;Node6</title>
<path fill="none" stroke="midnightblue" d="M240.24,-30.7C248.58,-29.24 257.31,-27.71 265.89,-26.21"/>
<polygon fill="midnightblue" stroke="midnightblue" points="266.61,-29.63 275.85,-24.46 265.4,-22.74 266.61,-29.63"/>
</g>
<!-- Node4 -->
<g id="node4" class="node">
<title>Node4</title>
<g id="a_node4"><a xlink:href="structmatplotlibcpp_1_1detail_1_1__interpreter.html#accf36ff8fd9f1bd757d028fa4a14be40" target="_top" xlink:title=" ">
<polygon fill="white" stroke="black" points="416,-49.5 416,-79.5 541,-79.5 541,-49.5 416,-49.5"/>
<text text-anchor="start" x="424" y="-67.5" font-family="Helvetica,sans-Serif" font-size="10.00">matplotlibcpp::detail</text>
<text text-anchor="middle" x="478.5" y="-56.5" font-family="Helvetica,sans-Serif" font-size="10.00">::_interpreter::interkeeper</text>
</a>
</g>
</g>
<!-- Node3&#45;&gt;Node4 -->
<g id="edge3" class="edge">
<title>Node3&#45;&gt;Node4</title>
<path fill="none" stroke="midnightblue" d="M380.11,-64.5C388.37,-64.5 397.05,-64.5 405.69,-64.5"/>
<polygon fill="midnightblue" stroke="midnightblue" points="405.79,-68 415.79,-64.5 405.79,-61 405.79,-68"/>
</g>
<!-- Node5 -->
<g id="node5" class="node">
<title>Node5</title>
<g id="a_node5"><a xlink:href="structmatplotlibcpp_1_1detail_1_1__interpreter.html#abd9d036f154de95f507d8be310569d20" target="_top" xlink:title=" ">
<polygon fill="white" stroke="black" points="577,-49.5 577,-79.5 709,-79.5 709,-49.5 577,-49.5"/>
<text text-anchor="start" x="585" y="-67.5" font-family="Helvetica,sans-Serif" font-size="10.00">matplotlibcpp::detail</text>
<text text-anchor="middle" x="643" y="-56.5" font-family="Helvetica,sans-Serif" font-size="10.00">::_interpreter::~_interpreter</text>
</a>
</g>
</g>
<!-- Node4&#45;&gt;Node5 -->
<g id="edge4" class="edge">
<title>Node4&#45;&gt;Node5</title>
<path fill="none" stroke="midnightblue" d="M541.4,-64.5C549.62,-64.5 558.13,-64.5 566.55,-64.5"/>
<polygon fill="midnightblue" stroke="midnightblue" points="566.76,-68 576.76,-64.5 566.76,-61 566.76,-68"/>
</g>
</g>
</svg>
        <g id="navigator" transform="translate(0 0)" fill="#404254">
                <rect fill="#f2f5e9" fill-opacity="0.5" stroke="#606060" stroke-width=".5" x="0" y="0" width="60" height="60"/>
                <use id="zoomplus" xlink:href="#zoomPlus" x="17" y="9" onmousedown="handleZoom(evt,'in')"/>
                <use id="zoomminus" xlink:href="#zoomMin" x="42" y="9" onmousedown="handleZoom(evt,'out')"/>
                <use id="reset" xlink:href="#resetDef" x="30" y="36" onmousedown="handleReset()"/>
                <g id="arrowUp" xlink:href="#dirArrow" transform="translate(30 24)" onmousedown="handlePan(0,-1)">
                  <use xlink:href="#rim" fill="#404040">
                        <set attributeName="fill" to="#808080" begin="arrowUp.mouseover" end="arrowUp.mouseout"/>
                  </use>
                  <path fill="none" stroke="white" stroke-width="1.5" d="M0,-3.0v7 M-2.5,-0.5L0,-3.0L2.5,-0.5"/>
                </g>
                <g id="arrowRight" xlink:href="#dirArrow" transform="rotate(90) translate(36 -43)" onmousedown="handlePan(1,0)">
                  <use xlink:href="#rim" fill="#404040">
                        <set attributeName="fill" to="#808080" begin="arrowRight.mouseover" end="arrowRight.mouseout"/>
                  </use>
                  <path fill="none" stroke="white" stroke-width="1.5" d="M0,-3.0v7 M-2.5,-0.5L0,-3.0L2.5,-0.5"/>
                </g>
                <g id="arrowDown" xlink:href="#dirArrow" transform="rotate(180) translate(-30 -48)" onmousedown="handlePan(0,1)">
                  <use xlink:href="#rim" fill="#404040">
                        <set attributeName="fill" to="#808080" begin="arrowDown.mouseover" end="arrowDown.mouseout"/>
                  </use>
                  <path fill="none" stroke="white" stroke-width="1.5" d="M0,-3.0v7 M-2.5,-0.5L0,-3.0L2.5,-0.5"/>
                </g>
                <g id="arrowLeft" xlink:href="#dirArrow" transform="rotate(270) translate(-36 17)" onmousedown="handlePan(-1,0)">
                  <use xlink:href="#rim" fill="#404040">
                        <set attributeName="fill" to="#808080" begin="arrowLeft.mouseover" end="arrowLeft.mouseout"/>
                  </use>
                  <path fill="none" stroke="white" stroke-width="1.5" d="M0,-3.0v7 M-2.5,-0.5L0,-3.0L2.5,-0.5"/>
                </g>
        </g>
        <svg viewBox="0 0 15 15" width="100%" height="30px" preserveAspectRatio="xMaxYMin meet">
         <g id="arrow_out" transform="scale(0.3 0.3)">
          <a xlink:href="namespacematplotlibcpp_a40ac4e0d416fad21899637dcf8d281c6_cgraph_org.svg" target="_base">
           <rect id="button" ry="5" rx="5" y="6" x="6" height="38" width="38"
                fill="#f2f5e9" fill-opacity="0.5" stroke="#606060" stroke-width="1.0"/>
           <path id="arrow"
             d="M 11.500037,31.436501 C 11.940474,20.09759 22.043105,11.32322 32.158766,21.979434 L 37.068811,17.246167 C 37.068811,17.246167 37.088388,32 37.088388,32 L 22.160133,31.978069 C 22.160133,31.978069 26.997745,27.140456 26.997745,27.140456 C 18.528582,18.264221 13.291696,25.230495 11.500037,31.436501 z"
             style="fill:#404040;"/>
          </a>
         </g>
        </svg>
</svg>
