<?xml version="1.0" encoding="UTF-8" standalone="no"?>
<!DOCTYPE svg PUBLIC "-//W3C//DTD SVG 1.1//EN"
 "http://www.w3.org/Graphics/SVG/1.1/DTD/svg11.dtd">
<!-- Generated by graphviz version 2.43.0 (0)
 -->
<!-- Title: matplotlibcpp::grid Pages: 1 -->
<svg width="573pt" height="39pt"
 viewBox="0.00 0.00 573.00 39.00" xmlns="http://www.w3.org/2000/svg" xmlns:xlink="http://www.w3.org/1999/xlink">
<g id="graph0" class="graph" transform="scale(1 1) rotate(0) translate(4 35)">
<title>matplotlibcpp::grid</title>
<polygon fill="white" stroke="transparent" points="-4,4 -4,-35 569,-35 569,4 -4,4"/>
<!-- Node1 -->
<g id="node1" class="node">
<title>Node1</title>
<g id="a_node1"><a xlink:title=" ">
<polygon fill="#bfbfbf" stroke="black" points="0,-6 0,-25 96,-25 96,-6 0,-6"/>
<text text-anchor="middle" x="48" y="-13" font-family="Helvetica,sans-Serif" font-size="10.00">matplotlibcpp::grid</text>
</a>
</g>
</g>
<!-- Node2 -->
<g id="node2" class="node">
<title>Node2</title>
<g id="a_node2"><a xlink:href="structmatplotlibcpp_1_1detail_1_1__interpreter.html#a3ddc4e50c23738307da3dc64c47cdbc0" target="_top" xlink:title=" ">
<polygon fill="white" stroke="black" points="132,-0.5 132,-30.5 236,-30.5 236,-0.5 132,-0.5"/>
<text text-anchor="start" x="140" y="-18.5" font-family="Helvetica,sans-Serif" font-size="10.00">matplotlibcpp::detail</text>
<text text-anchor="middle" x="184" y="-7.5" font-family="Helvetica,sans-Serif" font-size="10.00">::_interpreter::get</text>
</a>
</g>
</g>
<!-- Node1&#45;&gt;Node2 -->
<g id="edge1" class="edge">
<title>Node1&#45;&gt;Node2</title>
<path fill="none" stroke="midnightblue" d="M96.24,-15.5C104.39,-15.5 112.96,-15.5 121.41,-15.5"/>
<polygon fill="midnightblue" stroke="midnightblue" points="121.63,-19 131.63,-15.5 121.63,-12 121.63,-19"/>
</g>
<!-- Node3 -->
<g id="node3" class="node">
<title>Node3</title>
<g id="a_node3"><a xlink:href="structmatplotlibcpp_1_1detail_1_1__interpreter.html#accf36ff8fd9f1bd757d028fa4a14be40" target="_top" xlink:title=" ">
<polygon fill="white" stroke="black" points="272,-0.5 272,-30.5 397,-30.5 397,-0.5 272,-0.5"/>
<text text-anchor="start" x="280" y="-18.5" font-family="Helvetica,sans-Serif" font-size="10.00">matplotlibcpp::detail</text>
<text text-anchor="middle" x="334.5" y="-7.5" font-family="Helvetica,sans-Serif" font-size="10.00">::_interpreter::interkeeper</text>
</a>
</g>
</g>
<!-- Node2&#45;&gt;Node3 -->
<g id="edge2" class="edge">
<title>Node2&#45;&gt;Node3</title>
<path fill="none" stroke="midnightblue" d="M236.11,-15.5C244.37,-15.5 253.05,-15.5 261.69,-15.5"/>
<polygon fill="midnightblue" stroke="midnightblue" points="261.79,-19 271.79,-15.5 261.79,-12 261.79,-19"/>
</g>
<!-- Node4 -->
<g id="node4" class="node">
<title>Node4</title>
<g id="a_node4"><a xlink:href="structmatplotlibcpp_1_1detail_1_1__interpreter.html#abd9d036f154de95f507d8be310569d20" target="_top" xlink:title=" ">
<polygon fill="white" stroke="black" points="433,-0.5 433,-30.5 565,-30.5 565,-0.5 433,-0.5"/>
<text text-anchor="start" x="441" y="-18.5" font-family="Helvetica,sans-Serif" font-size="10.00">matplotlibcpp::detail</text>
<text text-anchor="middle" x="499" y="-7.5" font-family="Helvetica,sans-Serif" font-size="10.00">::_interpreter::~_interpreter</text>
</a>
</g>
</g>
<!-- Node3&#45;&gt;Node4 -->
<g id="edge3" class="edge">
<title>Node3&#45;&gt;Node4</title>
<path fill="none" stroke="midnightblue" d="M397.4,-15.5C405.62,-15.5 414.13,-15.5 422.55,-15.5"/>
<polygon fill="midnightblue" stroke="midnightblue" points="422.76,-19 432.76,-15.5 422.76,-12 422.76,-19"/>
</g>
</g>
</svg>
