<?xml version="1.0" encoding="UTF-8" standalone="no"?>
<!DOCTYPE svg PUBLIC "-//W3C//DTD SVG 1.1//EN"
 "http://www.w3.org/Graphics/SVG/1.1/DTD/svg11.dtd">
<!-- Generated by graphviz version 2.43.0 (0)
 -->
<!-- Title: matplotlibcpp::detail::get_array Pages: 1 -->
<svg width="773pt" height="717pt"
 viewBox="0.00 0.00 773.00 716.50" xmlns="http://www.w3.org/2000/svg" xmlns:xlink="http://www.w3.org/1999/xlink">
<g id="graph0" class="graph" transform="scale(1 1) rotate(0) translate(4 712.5)">
<title>matplotlibcpp::detail::get_array</title>
<polygon fill="white" stroke="transparent" points="-4,4 -4,-712.5 769,-712.5 769,4 -4,4"/>
<!-- Node1 -->
<g id="node1" class="node">
<title>Node1</title>
<g id="a_node1"><a xlink:title=" ">
<polygon fill="#bfbfbf" stroke="black" points="661,-338.5 661,-368.5 765,-368.5 765,-338.5 661,-338.5"/>
<text text-anchor="start" x="669" y="-356.5" font-family="Helvetica,sans-Serif" font-size="10.00">matplotlibcpp::detail</text>
<text text-anchor="middle" x="713" y="-345.5" font-family="Helvetica,sans-Serif" font-size="10.00">::get_array</text>
</a>
</g>
</g>
<!-- Node2 -->
<g id="node2" class="node">
<title>Node2</title>
<g id="a_node2"><a xlink:href="namespacematplotlibcpp.html#a00a57926330764f8490142b3ce06bd2e" target="_top" xlink:title=" ">
<polygon fill="white" stroke="black" points="514.5,-689 514.5,-708 604.5,-708 604.5,-689 514.5,-689"/>
<text text-anchor="middle" x="559.5" y="-696" font-family="Helvetica,sans-Serif" font-size="10.00">matplotlibcpp::fill</text>
</a>
</g>
</g>
<!-- Node1&#45;&gt;Node2 -->
<g id="edge1" class="edge">
<title>Node1&#45;&gt;Node2</title>
<path fill="none" stroke="midnightblue" d="M708.51,-378.63C698.48,-447.29 667.59,-635.8 625,-679.5 619.46,-685.18 612.31,-689.19 604.8,-692.01"/>
<polygon fill="midnightblue" stroke="midnightblue" points="711.98,-379.08 709.94,-368.68 705.05,-378.09 711.98,-379.08"/>
</g>
<!-- Node3 -->
<g id="node3" class="node">
<title>Node3</title>
<g id="a_node3"><a xlink:href="namespacematplotlibcpp.html#a928fb4c83f29554b1b37aeea7af9bb73" target="_top" xlink:title=" ">
<polygon fill="white" stroke="black" points="514.5,-639.5 514.5,-669.5 604.5,-669.5 604.5,-639.5 514.5,-639.5"/>
<text text-anchor="start" x="522.5" y="-657.5" font-family="Helvetica,sans-Serif" font-size="10.00">matplotlibcpp::fill</text>
<text text-anchor="middle" x="559.5" y="-646.5" font-family="Helvetica,sans-Serif" font-size="10.00">_between</text>
</a>
</g>
</g>
<!-- Node1&#45;&gt;Node3 -->
<g id="edge2" class="edge">
<title>Node1&#45;&gt;Node3</title>
<path fill="none" stroke="midnightblue" d="M711.18,-379.01C708.1,-432.69 693.53,-558.32 625,-630.5 619.41,-636.39 612.23,-640.85 604.71,-644.21"/>
<polygon fill="midnightblue" stroke="midnightblue" points="714.69,-378.85 711.68,-368.69 707.7,-378.51 714.69,-378.85"/>
</g>
<!-- Node4 -->
<g id="node4" class="node">
<title>Node4</title>
<g id="a_node4"><a xlink:href="namespacematplotlibcpp_1_1detail.html#a7ec0ef4c548f7ac8786ff9aa7e52c3da" target="_top" xlink:title=" ">
<polygon fill="white" stroke="black" points="507.5,-590.5 507.5,-620.5 611.5,-620.5 611.5,-590.5 507.5,-590.5"/>
<text text-anchor="start" x="515.5" y="-608.5" font-family="Helvetica,sans-Serif" font-size="10.00">matplotlibcpp::detail</text>
<text text-anchor="middle" x="559.5" y="-597.5" font-family="Helvetica,sans-Serif" font-size="10.00">::get_listlist</text>
</a>
</g>
</g>
<!-- Node1&#45;&gt;Node4 -->
<g id="edge3" class="edge">
<title>Node1&#45;&gt;Node4</title>
<path fill="none" stroke="midnightblue" d="M709.04,-378.8C702.36,-424.96 681.95,-523.34 625,-580.5 621.1,-584.41 616.52,-587.73 611.63,-590.53"/>
<polygon fill="midnightblue" stroke="midnightblue" points="712.53,-379.13 710.4,-368.75 705.59,-378.2 712.53,-379.13"/>
</g>
<!-- Node5 -->
<g id="node5" class="node">
<title>Node5</title>
<g id="a_node5"><a xlink:href="namespacematplotlibcpp.html#aeaf80309ad11083ec57bd6b246f6e4dc" target="_top" xlink:title=" ">
<polygon fill="white" stroke="black" points="511.5,-552 511.5,-571 607.5,-571 607.5,-552 511.5,-552"/>
<text text-anchor="middle" x="559.5" y="-559" font-family="Helvetica,sans-Serif" font-size="10.00">matplotlibcpp::hist</text>
</a>
</g>
</g>
<!-- Node1&#45;&gt;Node5 -->
<g id="edge4" class="edge">
<title>Node1&#45;&gt;Node5</title>
<path fill="none" stroke="midnightblue" d="M707.43,-378.38C698.69,-418.79 675.79,-498.58 625,-542.5 619.97,-546.85 613.98,-550.21 607.71,-552.8"/>
<polygon fill="midnightblue" stroke="midnightblue" points="710.86,-379.04 709.44,-368.54 704.01,-377.64 710.86,-379.04"/>
</g>
<!-- Node6 -->
<g id="node6" class="node">
<title>Node6</title>
<g id="a_node6"><a xlink:href="namespacematplotlibcpp.html#a6cfa8cba00f52a2c4614fa7a8a0bcd2b" target="_top" xlink:title=" ">
<polygon fill="white" stroke="black" points="506.5,-514 506.5,-533 612.5,-533 612.5,-514 506.5,-514"/>
<text text-anchor="middle" x="559.5" y="-521" font-family="Helvetica,sans-Serif" font-size="10.00">matplotlibcpp::loglog</text>
</a>
</g>
</g>
<!-- Node1&#45;&gt;Node6 -->
<g id="edge5" class="edge">
<title>Node1&#45;&gt;Node6</title>
<path fill="none" stroke="midnightblue" d="M704.22,-378.46C692.47,-412.05 667,-471.41 625,-504.5 620.05,-508.4 614.32,-511.5 608.35,-513.97"/>
<polygon fill="midnightblue" stroke="midnightblue" points="707.56,-379.51 707.43,-368.92 700.92,-377.28 707.56,-379.51"/>
</g>
<!-- Node7 -->
<g id="node7" class="node">
<title>Node7</title>
<g id="a_node7"><a xlink:href="namespacematplotlibcpp.html#a2851ef02b92b32ee7d3dd8f8fd065ae3" target="_top" xlink:title=" ">
<polygon fill="white" stroke="black" points="494,-476 494,-495 625,-495 625,-476 494,-476"/>
<text text-anchor="middle" x="559.5" y="-483" font-family="Helvetica,sans-Serif" font-size="10.00">matplotlibcpp::named_hist</text>
</a>
</g>
</g>
<!-- Node1&#45;&gt;Node7 -->
<g id="edge6" class="edge">
<title>Node1&#45;&gt;Node7</title>
<path fill="none" stroke="midnightblue" d="M699.36,-377.88C684.8,-403.61 658.51,-443.55 625,-466.5 619.32,-470.39 612.83,-473.5 606.21,-475.98"/>
<polygon fill="midnightblue" stroke="midnightblue" points="702.61,-379.23 704.36,-368.78 696.47,-375.86 702.61,-379.23"/>
</g>
<!-- Node8 -->
<g id="node8" class="node">
<title>Node8</title>
<g id="a_node8"><a xlink:href="namespacematplotlibcpp.html#a9482856fd165f21001420e712d0d2312" target="_top" xlink:title=" ">
<polygon fill="white" stroke="black" points="504.5,-426.5 504.5,-456.5 614.5,-456.5 614.5,-426.5 504.5,-426.5"/>
<text text-anchor="start" x="512.5" y="-444.5" font-family="Helvetica,sans-Serif" font-size="10.00">matplotlibcpp::named</text>
<text text-anchor="middle" x="559.5" y="-433.5" font-family="Helvetica,sans-Serif" font-size="10.00">_loglog</text>
</a>
</g>
</g>
<!-- Node1&#45;&gt;Node8 -->
<g id="edge7" class="edge">
<title>Node1&#45;&gt;Node8</title>
<path fill="none" stroke="midnightblue" d="M685.76,-375.25C669.08,-388.36 646.62,-404.74 625,-416.5 618.35,-420.12 611.07,-423.47 603.87,-426.46"/>
<polygon fill="midnightblue" stroke="midnightblue" points="688.28,-377.71 693.92,-368.73 683.92,-372.23 688.28,-377.71"/>
</g>
<!-- Node9 -->
<g id="node9" class="node">
<title>Node9</title>
<g id="a_node9"><a xlink:href="namespacematplotlibcpp.html#a6461c03041d9947a0e3b3593b5b72c95" target="_top" xlink:title=" ">
<polygon fill="white" stroke="black" points="494,-388 494,-407 625,-407 625,-388 494,-388"/>
<text text-anchor="middle" x="559.5" y="-395" font-family="Helvetica,sans-Serif" font-size="10.00">matplotlibcpp::named_plot</text>
</a>
</g>
</g>
<!-- Node1&#45;&gt;Node9 -->
<g id="edge8" class="edge">
<title>Node1&#45;&gt;Node9</title>
<path fill="none" stroke="midnightblue" d="M650.94,-371.23C631.37,-376.92 610.45,-382.99 593.67,-387.87"/>
<polygon fill="midnightblue" stroke="midnightblue" points="652.08,-374.55 660.71,-368.4 650.13,-367.82 652.08,-374.55"/>
</g>
<!-- Node13 -->
<g id="node13" class="node">
<title>Node13</title>
<g id="a_node13"><a xlink:href="namespacematplotlibcpp.html#ae32c097d32b89445a995727d05446843" target="_top" xlink:title=" ">
<polygon fill="white" stroke="black" points="504.5,-338.5 504.5,-368.5 614.5,-368.5 614.5,-338.5 504.5,-338.5"/>
<text text-anchor="start" x="512.5" y="-356.5" font-family="Helvetica,sans-Serif" font-size="10.00">matplotlibcpp::named</text>
<text text-anchor="middle" x="559.5" y="-345.5" font-family="Helvetica,sans-Serif" font-size="10.00">_semilogx</text>
</a>
</g>
</g>
<!-- Node1&#45;&gt;Node13 -->
<g id="edge12" class="edge">
<title>Node1&#45;&gt;Node13</title>
<path fill="none" stroke="midnightblue" d="M650.43,-353.5C638.56,-353.5 626.2,-353.5 614.59,-353.5"/>
<polygon fill="midnightblue" stroke="midnightblue" points="650.71,-357 660.71,-353.5 650.71,-350 650.71,-357"/>
</g>
<!-- Node14 -->
<g id="node14" class="node">
<title>Node14</title>
<g id="a_node14"><a xlink:href="namespacematplotlibcpp.html#a529c059f3fca364b9fcb3b2e09cce36b" target="_top" xlink:title=" ">
<polygon fill="white" stroke="black" points="504.5,-289.5 504.5,-319.5 614.5,-319.5 614.5,-289.5 504.5,-289.5"/>
<text text-anchor="start" x="512.5" y="-307.5" font-family="Helvetica,sans-Serif" font-size="10.00">matplotlibcpp::named</text>
<text text-anchor="middle" x="559.5" y="-296.5" font-family="Helvetica,sans-Serif" font-size="10.00">_semilogy</text>
</a>
</g>
</g>
<!-- Node1&#45;&gt;Node14 -->
<g id="edge13" class="edge">
<title>Node1&#45;&gt;Node14</title>
<path fill="none" stroke="midnightblue" d="M655.55,-335.24C639.57,-330.07 622.36,-324.51 607.04,-319.55"/>
<polygon fill="midnightblue" stroke="midnightblue" points="654.72,-338.65 665.31,-338.4 656.87,-331.99 654.72,-338.65"/>
</g>
<!-- Node15 -->
<g id="node15" class="node">
<title>Node15</title>
<g id="a_node15"><a xlink:href="classmatplotlibcpp_1_1_plot.html#a6ab809f4fc44d6e4eadb100cba5b519e" target="_top" xlink:title=" ">
<polygon fill="white" stroke="black" points="510.5,-240.5 510.5,-270.5 608.5,-270.5 608.5,-240.5 510.5,-240.5"/>
<text text-anchor="start" x="518.5" y="-258.5" font-family="Helvetica,sans-Serif" font-size="10.00">matplotlibcpp::Plot</text>
<text text-anchor="middle" x="559.5" y="-247.5" font-family="Helvetica,sans-Serif" font-size="10.00">::Plot</text>
</a>
</g>
</g>
<!-- Node1&#45;&gt;Node15 -->
<g id="edge14" class="edge">
<title>Node1&#45;&gt;Node15</title>
<path fill="none" stroke="midnightblue" d="M689.57,-331.09C672.87,-315.34 648.92,-294.64 625,-280.5 618.8,-276.83 611.96,-273.51 605.12,-270.57"/>
<polygon fill="midnightblue" stroke="midnightblue" points="687.52,-333.97 697.15,-338.37 692.36,-328.92 687.52,-333.97"/>
</g>
<!-- Node16 -->
<g id="node16" class="node">
<title>Node16</title>
<g id="a_node16"><a xlink:href="namespacematplotlibcpp.html#a06ac86c6fecaa5a9b3fb566bc31d6a3b" target="_top" xlink:title=" ">
<polygon fill="white" stroke="black" points="511.5,-202 511.5,-221 607.5,-221 607.5,-202 511.5,-202"/>
<text text-anchor="middle" x="559.5" y="-209" font-family="Helvetica,sans-Serif" font-size="10.00">matplotlibcpp::plot</text>
</a>
</g>
</g>
<!-- Node1&#45;&gt;Node16 -->
<g id="edge15" class="edge">
<title>Node1&#45;&gt;Node16</title>
<path fill="none" stroke="midnightblue" d="M700.82,-329.32C686.87,-301.74 660.45,-257.13 625,-231.5 619.01,-227.17 612.07,-223.76 605,-221.08"/>
<polygon fill="midnightblue" stroke="midnightblue" points="697.69,-330.88 705.23,-338.31 703.97,-327.8 697.69,-330.88"/>
</g>
<!-- Node18 -->
<g id="node18" class="node">
<title>Node18</title>
<g id="a_node18"><a xlink:href="namespacematplotlibcpp.html#a107bbc57e93a929c75baf1c60a712d8b" target="_top" xlink:title=" ">
<polygon fill="white" stroke="black" points="509,-164 509,-183 610,-183 610,-164 509,-164"/>
<text text-anchor="middle" x="559.5" y="-171" font-family="Helvetica,sans-Serif" font-size="10.00">matplotlibcpp::plot3</text>
</a>
</g>
</g>
<!-- Node1&#45;&gt;Node18 -->
<g id="edge17" class="edge">
<title>Node1&#45;&gt;Node18</title>
<path fill="none" stroke="midnightblue" d="M705.17,-328.46C694.2,-292.97 669.26,-228.36 625,-192.5 620.19,-188.61 614.61,-185.51 608.78,-183.05"/>
<polygon fill="midnightblue" stroke="midnightblue" points="701.82,-329.47 708.02,-338.07 708.53,-327.48 701.82,-329.47"/>
</g>
<!-- Node19 -->
<g id="node19" class="node">
<title>Node19</title>
<g id="a_node19"><a xlink:href="namespacematplotlibcpp.html#ad25d4429577dbdd8c087a0ba6869840b" target="_top" xlink:title=" ">
<polygon fill="white" stroke="black" points="500,-126 500,-145 619,-145 619,-126 500,-126"/>
<text text-anchor="middle" x="559.5" y="-133" font-family="Helvetica,sans-Serif" font-size="10.00">matplotlibcpp::semilogx</text>
</a>
</g>
</g>
<!-- Node1&#45;&gt;Node19 -->
<g id="edge18" class="edge">
<title>Node1&#45;&gt;Node19</title>
<path fill="none" stroke="midnightblue" d="M708.06,-328.53C700.09,-286.42 678.08,-201.29 625,-154.5 620.62,-150.64 615.49,-147.56 610.07,-145.11"/>
<polygon fill="midnightblue" stroke="midnightblue" points="704.63,-329.27 709.83,-338.5 711.53,-328.04 704.63,-329.27"/>
</g>
<!-- Node20 -->
<g id="node20" class="node">
<title>Node20</title>
<g id="a_node20"><a xlink:href="namespacematplotlibcpp.html#a4dce9b4c1c16c1dab0cffd11588d4db8" target="_top" xlink:title=" ">
<polygon fill="white" stroke="black" points="500,-88 500,-107 619,-107 619,-88 500,-88"/>
<text text-anchor="middle" x="559.5" y="-95" font-family="Helvetica,sans-Serif" font-size="10.00">matplotlibcpp::semilogy</text>
</a>
</g>
</g>
<!-- Node1&#45;&gt;Node20 -->
<g id="edge19" class="edge">
<title>Node1&#45;&gt;Node20</title>
<path fill="none" stroke="midnightblue" d="M710,-327.99C704.83,-279.63 686.73,-174.32 625,-116.5 620.83,-112.59 615.89,-109.48 610.63,-107.01"/>
<polygon fill="midnightblue" stroke="midnightblue" points="706.54,-328.59 710.99,-338.2 713.51,-327.91 706.54,-328.59"/>
</g>
<!-- Node21 -->
<g id="node21" class="node">
<title>Node21</title>
<g id="a_node21"><a xlink:href="namespacematplotlibcpp.html#ae3c91bdfbe011133346dcc4f31ec5932" target="_top" xlink:title=" ">
<polygon fill="white" stroke="black" points="508.5,-50 508.5,-69 610.5,-69 610.5,-50 508.5,-50"/>
<text text-anchor="middle" x="559.5" y="-57" font-family="Helvetica,sans-Serif" font-size="10.00">matplotlibcpp::stem</text>
</a>
</g>
</g>
<!-- Node1&#45;&gt;Node21 -->
<g id="edge20" class="edge">
<title>Node1&#45;&gt;Node21</title>
<path fill="none" stroke="midnightblue" d="M711.52,-328.13C709.11,-274.29 695.76,-147.86 625,-78.5 620.92,-74.5 616.03,-71.33 610.8,-68.82"/>
<polygon fill="midnightblue" stroke="midnightblue" points="708.03,-328.31 711.88,-338.18 715.02,-328.06 708.03,-328.31"/>
</g>
<!-- Node23 -->
<g id="node23" class="node">
<title>Node23</title>
<g id="a_node23"><a xlink:href="classmatplotlibcpp_1_1_plot.html#ac515760537365754e3437322e87cfc79" target="_top" xlink:title=" ">
<polygon fill="white" stroke="black" points="510.5,-0.5 510.5,-30.5 608.5,-30.5 608.5,-0.5 510.5,-0.5"/>
<text text-anchor="start" x="518.5" y="-18.5" font-family="Helvetica,sans-Serif" font-size="10.00">matplotlibcpp::Plot</text>
<text text-anchor="middle" x="559.5" y="-7.5" font-family="Helvetica,sans-Serif" font-size="10.00">::update</text>
</a>
</g>
</g>
<!-- Node1&#45;&gt;Node23 -->
<g id="edge22" class="edge">
<title>Node1&#45;&gt;Node23</title>
<path fill="none" stroke="midnightblue" d="M712.22,-328.04C711.34,-269.62 701.13,-124.53 625,-40.5 620.48,-35.52 614.86,-31.52 608.82,-28.31"/>
<polygon fill="midnightblue" stroke="midnightblue" points="708.72,-328.24 712.29,-338.21 715.72,-328.19 708.72,-328.24"/>
</g>
<!-- Node10 -->
<g id="node10" class="node">
<title>Node10</title>
<g id="a_node10"><a xlink:href="classplot_master.html#a31c67a01be59bdb9ebf3bf86bf93bf32" target="_top" xlink:title=" ">
<polygon fill="white" stroke="black" points="317,-388 317,-407 458,-407 458,-388 317,-388"/>
<text text-anchor="middle" x="387.5" y="-395" font-family="Helvetica,sans-Serif" font-size="10.00">plotMaster::plotLiveFirstAxis</text>
</a>
</g>
</g>
<!-- Node9&#45;&gt;Node10 -->
<g id="edge9" class="edge">
<title>Node9&#45;&gt;Node10</title>
<path fill="none" stroke="midnightblue" d="M483.54,-397.5C475.11,-397.5 466.54,-397.5 458.17,-397.5"/>
<polygon fill="midnightblue" stroke="midnightblue" points="483.75,-401 493.75,-397.5 483.75,-394 483.75,-401"/>
</g>
<!-- Node11 -->
<g id="node11" class="node">
<title>Node11</title>
<g id="a_node11"><a xlink:href="classmastersclient.html#a67ce0ffe6f714613edecda218bb84055" target="_top" xlink:title="Plot velocity histories if enabled.">
<polygon fill="white" stroke="black" points="149,-382.5 149,-412.5 281,-412.5 281,-382.5 149,-382.5"/>
<text text-anchor="start" x="157" y="-400.5" font-family="Helvetica,sans-Serif" font-size="10.00">mastersclient::plotVelocity</text>
<text text-anchor="middle" x="215" y="-389.5" font-family="Helvetica,sans-Serif" font-size="10.00">Histories</text>
</a>
</g>
</g>
<!-- Node10&#45;&gt;Node11 -->
<g id="edge10" class="edge">
<title>Node10&#45;&gt;Node11</title>
<path fill="none" stroke="midnightblue" d="M306.65,-397.5C298.08,-397.5 289.44,-397.5 281.07,-397.5"/>
<polygon fill="midnightblue" stroke="midnightblue" points="306.66,-401 316.66,-397.5 306.66,-394 306.66,-401"/>
</g>
<!-- Node12 -->
<g id="node12" class="node">
<title>Node12</title>
<g id="a_node12"><a xlink:href="classmastersclient.html#a4868c3c6b7959803d944e780bbff5ee4" target="_top" xlink:title="Callback for the FRI session states &#39;Monitoring Wait&#39; and &#39;Monitoring Ready&#39;.">
<polygon fill="white" stroke="black" points="0,-388 0,-407 113,-407 113,-388 0,-388"/>
<text text-anchor="middle" x="56.5" y="-395" font-family="Helvetica,sans-Serif" font-size="10.00">mastersclient::monitor</text>
</a>
</g>
</g>
<!-- Node11&#45;&gt;Node12 -->
<g id="edge11" class="edge">
<title>Node11&#45;&gt;Node12</title>
<path fill="none" stroke="midnightblue" d="M138.85,-397.5C130.18,-397.5 121.45,-397.5 113.1,-397.5"/>
<polygon fill="midnightblue" stroke="midnightblue" points="138.99,-401 148.99,-397.5 138.99,-394 138.99,-401"/>
</g>
<!-- Node17 -->
<g id="node17" class="node">
<title>Node17</title>
<g id="a_node17"><a xlink:href="namespacematplotlibcpp.html#a92c59dd37fb3f355514d88e364ddfde9" target="_top" xlink:title=" ">
<polygon fill="white" stroke="black" points="339.5,-202 339.5,-221 435.5,-221 435.5,-202 339.5,-202"/>
<text text-anchor="middle" x="387.5" y="-209" font-family="Helvetica,sans-Serif" font-size="10.00">matplotlibcpp::plot</text>
</a>
</g>
</g>
<!-- Node16&#45;&gt;Node17 -->
<g id="edge16" class="edge">
<title>Node16&#45;&gt;Node17</title>
<path fill="none" stroke="midnightblue" d="M500.94,-211.5C479.67,-211.5 455.83,-211.5 435.6,-211.5"/>
<polygon fill="midnightblue" stroke="midnightblue" points="501.15,-215 511.15,-211.5 501.15,-208 501.15,-215"/>
</g>
<!-- Node22 -->
<g id="node22" class="node">
<title>Node22</title>
<g id="a_node22"><a xlink:href="namespacematplotlibcpp.html#a40ac4e0d416fad21899637dcf8d281c6" target="_top" xlink:title=" ">
<polygon fill="white" stroke="black" points="336.5,-50 336.5,-69 438.5,-69 438.5,-50 336.5,-50"/>
<text text-anchor="middle" x="387.5" y="-57" font-family="Helvetica,sans-Serif" font-size="10.00">matplotlibcpp::stem</text>
</a>
</g>
</g>
<!-- Node21&#45;&gt;Node22 -->
<g id="edge21" class="edge">
<title>Node21&#45;&gt;Node22</title>
<path fill="none" stroke="midnightblue" d="M498.37,-59.5C478.79,-59.5 457.28,-59.5 438.52,-59.5"/>
<polygon fill="midnightblue" stroke="midnightblue" points="498.41,-63 508.41,-59.5 498.41,-56 498.41,-63"/>
</g>
</g>
</svg>
