<?xml version="1.0" encoding="UTF-8" standalone="no"?>
<!DOCTYPE svg PUBLIC "-//W3C//DTD SVG 1.1//EN"
 "http://www.w3.org/Graphics/SVG/1.1/DTD/svg11.dtd">
<!-- Generated by graphviz version 2.43.0 (0)
 -->
<!-- Title: include/plotMaster.h Pages: 1 -->
<svg width="854pt" height="140pt"
 viewBox="0.00 0.00 853.50 140.00" xmlns="http://www.w3.org/2000/svg" xmlns:xlink="http://www.w3.org/1999/xlink">
<g id="graph0" class="graph" transform="scale(1 1) rotate(0) translate(4 136)">
<title>include/plotMaster.h</title>
<polygon fill="white" stroke="transparent" points="-4,4 -4,-136 849.5,-136 849.5,4 -4,4"/>
<!-- Node1 -->
<g id="node1" class="node">
<title>Node1</title>
<g id="a_node1"><a xlink:title=" ">
<polygon fill="#bfbfbf" stroke="black" points="454,-112.5 454,-131.5 558,-131.5 558,-112.5 454,-112.5"/>
<text text-anchor="middle" x="506" y="-119.5" font-family="Helvetica,sans-Serif" font-size="10.00">include/plotMaster.h</text>
</a>
</g>
</g>
<!-- Node2 -->
<g id="node2" class="node">
<title>Node2</title>
<g id="a_node2"><a xlink:href="matplotlibcpp_8h.html" target="_top" xlink:title=" ">
<polygon fill="white" stroke="black" points="340.5,-56.5 340.5,-75.5 423.5,-75.5 423.5,-56.5 340.5,-56.5"/>
<text text-anchor="middle" x="382" y="-63.5" font-family="Helvetica,sans-Serif" font-size="10.00">matplotlibcpp.h</text>
</a>
</g>
</g>
<!-- Node1&#45;&gt;Node2 -->
<g id="edge1" class="edge">
<title>Node1&#45;&gt;Node2</title>
<path fill="none" stroke="midnightblue" d="M486.35,-112.44C466.04,-103.6 434.1,-89.69 410.9,-79.59"/>
<polygon fill="midnightblue" stroke="midnightblue" points="412.12,-76.3 401.56,-75.52 409.33,-82.72 412.12,-76.3"/>
</g>
<!-- Node4 -->
<g id="node4" class="node">
<title>Node4</title>
<g id="a_node4"><a xlink:title=" ">
<polygon fill="white" stroke="#bfbfbf" points="0,-0.5 0,-19.5 44,-19.5 44,-0.5 0,-0.5"/>
<text text-anchor="middle" x="22" y="-7.5" font-family="Helvetica,sans-Serif" font-size="10.00">vector</text>
</a>
</g>
</g>
<!-- Node1&#45;&gt;Node4 -->
<g id="edge16" class="edge">
<title>Node1&#45;&gt;Node4</title>
<path fill="none" stroke="midnightblue" d="M463.63,-112.49C384.86,-96.46 210.4,-60 54.1,-20.16"/>
<polygon fill="midnightblue" stroke="midnightblue" points="54.86,-16.75 44.3,-17.66 53.12,-23.53 54.86,-16.75"/>
</g>
<!-- Node13 -->
<g id="node13" class="node">
<title>Node13</title>
<g id="a_node13"><a xlink:title=" ">
<polygon fill="white" stroke="#bfbfbf" points="804.5,-0.5 804.5,-19.5 845.5,-19.5 845.5,-0.5 804.5,-0.5"/>
<text text-anchor="middle" x="825" y="-7.5" font-family="Helvetica,sans-Serif" font-size="10.00">string</text>
</a>
</g>
</g>
<!-- Node1&#45;&gt;Node13 -->
<g id="edge14" class="edge">
<title>Node1&#45;&gt;Node13</title>
<path fill="none" stroke="midnightblue" d="M495.27,-112.42C479.96,-99.18 455.35,-73.47 471,-56 517.58,-3.98 709.06,-32.39 794.36,-19.73"/>
<polygon fill="midnightblue" stroke="midnightblue" points="794.98,-23.17 804.22,-17.97 793.76,-16.28 794.98,-23.17"/>
</g>
<!-- Node15 -->
<g id="node15" class="node">
<title>Node15</title>
<g id="a_node15"><a xlink:title=" ">
<polygon fill="white" stroke="#bfbfbf" points="480,-56.5 480,-75.5 532,-75.5 532,-56.5 480,-56.5"/>
<text text-anchor="middle" x="506" y="-63.5" font-family="Helvetica,sans-Serif" font-size="10.00">memory</text>
</a>
</g>
</g>
<!-- Node1&#45;&gt;Node15 -->
<g id="edge15" class="edge">
<title>Node1&#45;&gt;Node15</title>
<path fill="none" stroke="midnightblue" d="M506,-112.08C506,-105.01 506,-94.86 506,-85.99"/>
<polygon fill="midnightblue" stroke="midnightblue" points="509.5,-85.75 506,-75.75 502.5,-85.75 509.5,-85.75"/>
</g>
<!-- Node16 -->
<g id="node16" class="node">
<title>Node16</title>
<g id="a_node16"><a xlink:title=" ">
<polygon fill="white" stroke="#bfbfbf" points="550.5,-56.5 550.5,-75.5 593.5,-75.5 593.5,-56.5 550.5,-56.5"/>
<text text-anchor="middle" x="572" y="-63.5" font-family="Helvetica,sans-Serif" font-size="10.00">queue</text>
</a>
</g>
</g>
<!-- Node1&#45;&gt;Node16 -->
<g id="edge17" class="edge">
<title>Node1&#45;&gt;Node16</title>
<path fill="none" stroke="midnightblue" d="M516.6,-112.32C526.46,-104.26 541.35,-92.08 553.22,-82.37"/>
<polygon fill="midnightblue" stroke="midnightblue" points="555.68,-84.88 561.2,-75.83 551.25,-79.46 555.68,-84.88"/>
</g>
<!-- Node17 -->
<g id="node17" class="node">
<title>Node17</title>
<g id="a_node17"><a xlink:title=" ">
<polygon fill="white" stroke="#bfbfbf" points="612,-56.5 612,-75.5 688,-75.5 688,-56.5 612,-56.5"/>
<text text-anchor="middle" x="650" y="-63.5" font-family="Helvetica,sans-Serif" font-size="10.00">rl/math/Unit.h</text>
</a>
</g>
</g>
<!-- Node1&#45;&gt;Node17 -->
<g id="edge18" class="edge">
<title>Node1&#45;&gt;Node17</title>
<path fill="none" stroke="midnightblue" d="M528.82,-112.44C552.83,-103.44 590.83,-89.19 617.87,-79.05"/>
<polygon fill="midnightblue" stroke="midnightblue" points="619.16,-82.3 627.29,-75.52 616.7,-75.75 619.16,-82.3"/>
</g>
<!-- Node18 -->
<g id="node18" class="node">
<title>Node18</title>
<g id="a_node18"><a xlink:title=" ">
<polygon fill="white" stroke="#bfbfbf" points="706,-56.5 706,-75.5 792,-75.5 792,-56.5 706,-56.5"/>
<text text-anchor="middle" x="749" y="-63.5" font-family="Helvetica,sans-Serif" font-size="10.00">rl/math/Vector.h</text>
</a>
</g>
</g>
<!-- Node1&#45;&gt;Node18 -->
<g id="edge19" class="edge">
<title>Node1&#45;&gt;Node18</title>
<path fill="none" stroke="midnightblue" d="M544.5,-112.44C586.81,-103.04 654.82,-87.93 700.67,-77.74"/>
<polygon fill="midnightblue" stroke="midnightblue" points="701.67,-81.1 710.68,-75.52 700.15,-74.27 701.67,-81.1"/>
</g>
<!-- Node3 -->
<g id="node3" class="node">
<title>Node3</title>
<g id="a_node3"><a xlink:title=" ">
<polygon fill="white" stroke="#bfbfbf" points="62,-0.5 62,-19.5 118,-19.5 118,-0.5 62,-0.5"/>
<text text-anchor="middle" x="90" y="-7.5" font-family="Helvetica,sans-Serif" font-size="10.00">Python.h</text>
</a>
</g>
</g>
<!-- Node2&#45;&gt;Node3 -->
<g id="edge2" class="edge">
<title>Node2&#45;&gt;Node3</title>
<path fill="none" stroke="midnightblue" d="M340.33,-58.49C291.68,-50.7 208.61,-36.82 128.05,-20.12"/>
<polygon fill="midnightblue" stroke="midnightblue" points="128.74,-16.69 118.24,-18.07 127.31,-23.54 128.74,-16.69"/>
</g>
<!-- Node2&#45;&gt;Node4 -->
<g id="edge3" class="edge">
<title>Node2&#45;&gt;Node4</title>
<path fill="none" stroke="midnightblue" d="M340.37,-61.28C279.51,-55.42 162.57,-42.52 54.36,-20.02"/>
<polygon fill="midnightblue" stroke="midnightblue" points="54.76,-16.53 44.25,-17.88 53.31,-23.38 54.76,-16.53"/>
</g>
<!-- Node5 -->
<g id="node5" class="node">
<title>Node5</title>
<g id="a_node5"><a xlink:title=" ">
<polygon fill="white" stroke="#bfbfbf" points="136.5,-0.5 136.5,-19.5 171.5,-19.5 171.5,-0.5 136.5,-0.5"/>
<text text-anchor="middle" x="154" y="-7.5" font-family="Helvetica,sans-Serif" font-size="10.00">map</text>
</a>
</g>
</g>
<!-- Node2&#45;&gt;Node5 -->
<g id="edge4" class="edge">
<title>Node2&#45;&gt;Node5</title>
<path fill="none" stroke="midnightblue" d="M340.12,-56.91C301.32,-49.14 241.86,-36.49 181.36,-19.87"/>
<polygon fill="midnightblue" stroke="midnightblue" points="182.21,-16.47 171.64,-17.17 180.34,-23.22 182.21,-16.47"/>
</g>
<!-- Node6 -->
<g id="node6" class="node">
<title>Node6</title>
<g id="a_node6"><a xlink:title=" ">
<polygon fill="white" stroke="#bfbfbf" points="190,-0.5 190,-19.5 228,-19.5 228,-0.5 190,-0.5"/>
<text text-anchor="middle" x="209" y="-7.5" font-family="Helvetica,sans-Serif" font-size="10.00">array</text>
</a>
</g>
</g>
<!-- Node2&#45;&gt;Node6 -->
<g id="edge5" class="edge">
<title>Node2&#45;&gt;Node6</title>
<path fill="none" stroke="midnightblue" d="M354.18,-56.46C326.91,-48.06 283.91,-34.78 238.09,-20.32"/>
<polygon fill="midnightblue" stroke="midnightblue" points="238.86,-16.9 228.27,-17.22 236.75,-23.57 238.86,-16.9"/>
</g>
<!-- Node7 -->
<g id="node7" class="node">
<title>Node7</title>
<g id="a_node7"><a xlink:title=" ">
<polygon fill="white" stroke="#bfbfbf" points="246.5,-0.5 246.5,-19.5 297.5,-19.5 297.5,-0.5 246.5,-0.5"/>
<text text-anchor="middle" x="272" y="-7.5" font-family="Helvetica,sans-Serif" font-size="10.00">numeric</text>
</a>
</g>
</g>
<!-- Node2&#45;&gt;Node7 -->
<g id="edge6" class="edge">
<title>Node2&#45;&gt;Node7</title>
<path fill="none" stroke="midnightblue" d="M364.33,-56.32C346.61,-47.62 319.1,-34.12 298.71,-24.11"/>
<polygon fill="midnightblue" stroke="midnightblue" points="300.15,-20.92 289.63,-19.65 297.06,-27.2 300.15,-20.92"/>
</g>
<!-- Node8 -->
<g id="node8" class="node">
<title>Node8</title>
<g id="a_node8"><a xlink:title=" ">
<polygon fill="white" stroke="#bfbfbf" points="316,-0.5 316,-19.5 372,-19.5 372,-0.5 316,-0.5"/>
<text text-anchor="middle" x="344" y="-7.5" font-family="Helvetica,sans-Serif" font-size="10.00">algorithm</text>
</a>
</g>
</g>
<!-- Node2&#45;&gt;Node8 -->
<g id="edge7" class="edge">
<title>Node2&#45;&gt;Node8</title>
<path fill="none" stroke="midnightblue" d="M375.73,-56.08C370.36,-48.46 362.48,-37.26 355.92,-27.94"/>
<polygon fill="midnightblue" stroke="midnightblue" points="358.78,-25.91 350.16,-19.75 353.05,-29.94 358.78,-25.91"/>
</g>
<!-- Node9 -->
<g id="node9" class="node">
<title>Node9</title>
<g id="a_node9"><a xlink:title=" ">
<polygon fill="white" stroke="#bfbfbf" points="390.5,-0.5 390.5,-19.5 449.5,-19.5 449.5,-0.5 390.5,-0.5"/>
<text text-anchor="middle" x="420" y="-7.5" font-family="Helvetica,sans-Serif" font-size="10.00">stdexcept</text>
</a>
</g>
</g>
<!-- Node2&#45;&gt;Node9 -->
<g id="edge8" class="edge">
<title>Node2&#45;&gt;Node9</title>
<path fill="none" stroke="midnightblue" d="M388.27,-56.08C393.64,-48.46 401.52,-37.26 408.08,-27.94"/>
<polygon fill="midnightblue" stroke="midnightblue" points="410.95,-29.94 413.84,-19.75 405.22,-25.91 410.95,-29.94"/>
</g>
<!-- Node10 -->
<g id="node10" class="node">
<title>Node10</title>
<g id="a_node10"><a xlink:title=" ">
<polygon fill="white" stroke="#bfbfbf" points="468,-0.5 468,-19.5 522,-19.5 522,-0.5 468,-0.5"/>
<text text-anchor="middle" x="495" y="-7.5" font-family="Helvetica,sans-Serif" font-size="10.00">iostream</text>
</a>
</g>
</g>
<!-- Node2&#45;&gt;Node10 -->
<g id="edge9" class="edge">
<title>Node2&#45;&gt;Node10</title>
<path fill="none" stroke="midnightblue" d="M399.91,-56.44C418.25,-47.68 447.01,-33.94 468.09,-23.86"/>
<polygon fill="midnightblue" stroke="midnightblue" points="469.67,-26.99 477.18,-19.52 466.65,-20.67 469.67,-26.99"/>
</g>
<!-- Node11 -->
<g id="node11" class="node">
<title>Node11</title>
<g id="a_node11"><a xlink:title=" ">
<polygon fill="white" stroke="#bfbfbf" points="540,-0.5 540,-19.5 586,-19.5 586,-0.5 540,-0.5"/>
<text text-anchor="middle" x="563" y="-7.5" font-family="Helvetica,sans-Serif" font-size="10.00">cstdint</text>
</a>
</g>
</g>
<!-- Node2&#45;&gt;Node11 -->
<g id="edge10" class="edge">
<title>Node2&#45;&gt;Node11</title>
<path fill="none" stroke="midnightblue" d="M410.68,-56.44C443.11,-46.77 495.83,-31.04 529.96,-20.86"/>
<polygon fill="midnightblue" stroke="midnightblue" points="531.33,-24.1 539.91,-17.89 529.33,-17.39 531.33,-24.1"/>
</g>
<!-- Node12 -->
<g id="node12" class="node">
<title>Node12</title>
<g id="a_node12"><a xlink:title=" ">
<polygon fill="white" stroke="#bfbfbf" points="604.5,-0.5 604.5,-19.5 663.5,-19.5 663.5,-0.5 604.5,-0.5"/>
<text text-anchor="middle" x="634" y="-7.5" font-family="Helvetica,sans-Serif" font-size="10.00">functional</text>
</a>
</g>
</g>
<!-- Node2&#45;&gt;Node12 -->
<g id="edge11" class="edge">
<title>Node2&#45;&gt;Node12</title>
<path fill="none" stroke="midnightblue" d="M423.68,-56.43C464.56,-47.98 528.91,-34.53 594.15,-20.16"/>
<polygon fill="midnightblue" stroke="midnightblue" points="595.19,-23.51 604.2,-17.94 593.68,-16.68 595.19,-23.51"/>
</g>
<!-- Node2&#45;&gt;Node13 -->
<g id="edge12" class="edge">
<title>Node2&#45;&gt;Node13</title>
<path fill="none" stroke="midnightblue" d="M423.55,-58.04C428.42,-57.31 433.31,-56.61 438,-56 593.32,-35.73 637.49,-51.2 794.23,-20.02"/>
<polygon fill="midnightblue" stroke="midnightblue" points="795.11,-23.41 804.22,-18 793.73,-16.55 795.11,-23.41"/>
</g>
<!-- Node14 -->
<g id="node14" class="node">
<title>Node14</title>
<g id="a_node14"><a xlink:title=" ">
<polygon fill="white" stroke="#bfbfbf" points="681.5,-0.5 681.5,-19.5 786.5,-19.5 786.5,-0.5 681.5,-0.5"/>
<text text-anchor="middle" x="734" y="-7.5" font-family="Helvetica,sans-Serif" font-size="10.00">numpy/arrayobject.h</text>
</a>
</g>
</g>
<!-- Node2&#45;&gt;Node14 -->
<g id="edge13" class="edge">
<title>Node2&#45;&gt;Node14</title>
<path fill="none" stroke="midnightblue" d="M423.58,-58.28C428.44,-57.5 433.33,-56.73 438,-56 518.47,-43.42 611.32,-29.38 671.25,-20.38"/>
<polygon fill="midnightblue" stroke="midnightblue" points="671.94,-23.82 681.31,-18.87 670.9,-16.89 671.94,-23.82"/>
</g>
</g>
</svg>
