<?xml version="1.0" encoding="UTF-8" standalone="no"?>
<!DOCTYPE svg PUBLIC "-//W3C//DTD SVG 1.1//EN"
 "http://www.w3.org/Graphics/SVG/1.1/DTD/svg11.dtd">
<!-- Generated by graphviz version 2.43.0 (0)
 -->
<!-- Title: include/robotModel.h Pages: 1 -->
<svg width="266pt" height="140pt"
 viewBox="0.00 0.00 265.50 140.00" xmlns="http://www.w3.org/2000/svg" xmlns:xlink="http://www.w3.org/1999/xlink">
<g id="graph0" class="graph" transform="scale(1 1) rotate(0) translate(4 136)">
<title>include/robotModel.h</title>
<polygon fill="white" stroke="transparent" points="-4,4 -4,-136 261.5,-136 261.5,4 -4,4"/>
<!-- Node1 -->
<g id="node1" class="node">
<title>Node1</title>
<g id="a_node1"><a xlink:title="Definition of the robotModel class.">
<polygon fill="#bfbfbf" stroke="black" points="103.5,-112.5 103.5,-131.5 210.5,-131.5 210.5,-112.5 103.5,-112.5"/>
<text text-anchor="middle" x="157" y="-119.5" font-family="Helvetica,sans-Serif" font-size="10.00">include/robotModel.h</text>
</a>
</g>
</g>
<!-- Node2 -->
<g id="node2" class="node">
<title>Node2</title>
<g id="a_node2"><a xlink:href="mastersclient_8h.html" target="_top" xlink:title=" ">
<polygon fill="white" stroke="black" points="39.5,-56.5 39.5,-75.5 156.5,-75.5 156.5,-56.5 39.5,-56.5"/>
<text text-anchor="middle" x="98" y="-63.5" font-family="Helvetica,sans-Serif" font-size="10.00">include/mastersclient.h</text>
</a>
</g>
</g>
<!-- Node1&#45;&gt;Node2 -->
<g id="edge1" class="edge">
<title>Node1&#45;&gt;Node2</title>
<path fill="none" stroke="midnightblue" d="M140.11,-105.54C129.59,-95.91 116.43,-83.87 107.65,-75.83"/>
<polygon fill="midnightblue" stroke="midnightblue" points="137.78,-108.15 147.52,-112.32 142.51,-102.99 137.78,-108.15"/>
</g>
<!-- Node5 -->
<g id="node5" class="node">
<title>Node5</title>
<g id="a_node5"><a xlink:href="robot_model_8cpp.html" target="_top" xlink:title=" ">
<polygon fill="white" stroke="black" points="174.5,-56.5 174.5,-75.5 257.5,-75.5 257.5,-56.5 174.5,-56.5"/>
<text text-anchor="middle" x="216" y="-63.5" font-family="Helvetica,sans-Serif" font-size="10.00">robotModel.cpp</text>
</a>
</g>
</g>
<!-- Node1&#45;&gt;Node5 -->
<g id="edge4" class="edge">
<title>Node1&#45;&gt;Node5</title>
<path fill="none" stroke="midnightblue" d="M173.89,-105.54C184.41,-95.91 197.57,-83.87 206.35,-75.83"/>
<polygon fill="midnightblue" stroke="midnightblue" points="171.49,-102.99 166.48,-112.32 176.22,-108.15 171.49,-102.99"/>
</g>
<!-- Node3 -->
<g id="node3" class="node">
<title>Node3</title>
<g id="a_node3"><a xlink:href="masters_app_8cpp.html" target="_top" xlink:title=" ">
<polygon fill="white" stroke="black" points="0,-0.5 0,-19.5 88,-19.5 88,-0.5 0,-0.5"/>
<text text-anchor="middle" x="44" y="-7.5" font-family="Helvetica,sans-Serif" font-size="10.00">mastersApp.cpp</text>
</a>
</g>
</g>
<!-- Node2&#45;&gt;Node3 -->
<g id="edge2" class="edge">
<title>Node2&#45;&gt;Node3</title>
<path fill="none" stroke="midnightblue" d="M82,-49C72.43,-39.43 60.64,-27.64 52.75,-19.75"/>
<polygon fill="midnightblue" stroke="midnightblue" points="79.54,-51.49 89.08,-56.08 84.49,-46.54 79.54,-51.49"/>
</g>
<!-- Node4 -->
<g id="node4" class="node">
<title>Node4</title>
<g id="a_node4"><a xlink:href="mastersclient_8cpp.html" target="_top" xlink:title="The code is executed on this Turtle.">
<polygon fill="white" stroke="black" points="106,-0.5 106,-19.5 200,-19.5 200,-0.5 106,-0.5"/>
<text text-anchor="middle" x="153" y="-7.5" font-family="Helvetica,sans-Serif" font-size="10.00">mastersclient.cpp</text>
</a>
</g>
</g>
<!-- Node2&#45;&gt;Node4 -->
<g id="edge3" class="edge">
<title>Node2&#45;&gt;Node4</title>
<path fill="none" stroke="midnightblue" d="M114.29,-49C124.04,-39.43 136.05,-27.64 144.09,-19.75"/>
<polygon fill="midnightblue" stroke="midnightblue" points="111.77,-46.58 107.08,-56.08 116.67,-51.57 111.77,-46.58"/>
</g>
</g>
</svg>
