<?xml version="1.0" encoding="UTF-8" standalone="no"?>
<!DOCTYPE svg PUBLIC "-//W3C//DTD SVG 1.1//EN"
 "http://www.w3.org/Graphics/SVG/1.1/DTD/svg11.dtd">
<!-- Generated by graphviz version 2.43.0 (0)
 -->
<!-- Title: robotModel.cpp Pages: 1 -->
<!--zoomable 196 -->
<svg id="main" version="1.1" xmlns="http://www.w3.org/2000/svg" xmlns:xlink="http://www.w3.org/1999/xlink" xml:space="preserve" onload="init(evt)">
<style type="text/css"><![CDATA[
.edge:hover path { stroke: red; }
.edge:hover polygon { stroke: red; fill: red; }
]]></style>
<script type="text/javascript"><![CDATA[
var edges = document.getElementsByTagName('g');
if (edges && edges.length) {
  for (var i=0;i<edges.length;i++) {
    if (edges[i].id.substr(0,4)=='edge') {
      edges[i].setAttribute('class','edge');
    }
  }
}
]]></script>
        <defs>
                <circle id="rim" cx="0" cy="0" r="7"/>
                <circle id="rim2" cx="0" cy="0" r="3.5"/>
                <g id="zoomPlus">
                        <use xlink:href="#rim" fill="#404040">
                                <set attributeName="fill" to="#808080" begin="zoomplus.mouseover" end="zoomplus.mouseout"/>
                        </use>
                        <path d="M-4,0h8M0,-4v8" fill="none" stroke="white" stroke-width="1.5" pointer-events="none"/>
                </g>
                <g id="zoomMin">
                        <use xlink:href="#rim" fill="#404040">
                                <set attributeName="fill" to="#808080" begin="zoomminus.mouseover" end="zoomminus.mouseout"/>
                        </use>
                        <path d="M-4,0h8" fill="none" stroke="white" stroke-width="1.5" pointer-events="none"/>
                </g>
                <g id="dirArrow">
                        <path fill="none" stroke="white" stroke-width="1.5" d="M0,-3.0v7 M-2.5,-0.5L0,-3.0L2.5,-0.5"/>
                </g>
               <g id="resetDef">
                       <use xlink:href="#rim2" fill="#404040">
                               <set attributeName="fill" to="#808080" begin="reset.mouseover" end="reset.mouseout"/>
                       </use>
               </g>
        </defs>

<script type="text/javascript">
var viewWidth = 1488;
var viewHeight = 196;
var sectionId = 'dynsection-0';
</script>
<script xlink:href="svgpan.js"/>
<svg id="graph" class="graph">
<g id="viewport">
<title>robotModel.cpp</title>
<polygon fill="white" stroke="transparent" points="-4,4 -4,-192 1483.5,-192 1483.5,4 -4,4"/>
<!-- Node1 -->
<g id="node1" class="node">
<title>Node1</title>
<g id="a_node1"><a xlink:title=" ">
<polygon fill="#bfbfbf" stroke="black" points="952,-168.5 952,-187.5 1035,-187.5 1035,-168.5 952,-168.5"/>
<text text-anchor="middle" x="993.5" y="-175.5" font-family="Helvetica,sans-Serif" font-size="10.00">robotModel.cpp</text>
</a>
</g>
</g>
<!-- Node2 -->
<g id="node2" class="node">
<title>Node2</title>
<g id="a_node2"><a xlink:href="robot_model_8h.html" target="_top" xlink:title="Definition of the robotModel class.">
<polygon fill="white" stroke="black" points="692,-112.5 692,-131.5 765,-131.5 765,-112.5 692,-112.5"/>
<text text-anchor="middle" x="728.5" y="-119.5" font-family="Helvetica,sans-Serif" font-size="10.00">robotModel.h</text>
</a>
</g>
</g>
<!-- Node1&#45;&gt;Node2 -->
<g id="edge1" class="edge">
<title>Node1&#45;&gt;Node2</title>
<path fill="none" stroke="midnightblue" d="M951.8,-168.5C903.8,-158.72 825.17,-142.7 775.17,-132.51"/>
<polygon fill="midnightblue" stroke="midnightblue" points="775.76,-129.06 765.26,-130.49 774.36,-135.92 775.76,-129.06"/>
</g>
<!-- Node3 -->
<g id="node3" class="node">
<title>Node3</title>
<g id="a_node3"><a xlink:title=" ">
<polygon fill="white" stroke="#bfbfbf" points="0,-56.5 0,-75.5 101,-75.5 101,-56.5 0,-56.5"/>
<text text-anchor="middle" x="50.5" y="-63.5" font-family="Helvetica,sans-Serif" font-size="10.00">rl/mdl/XmlFactory.h</text>
</a>
</g>
</g>
<!-- Node1&#45;&gt;Node3 -->
<g id="edge23" class="edge">
<title>Node1&#45;&gt;Node3</title>
<path fill="none" stroke="midnightblue" d="M951.94,-175.48C854.31,-171.56 602.84,-159.42 394.5,-132 287.82,-117.96 164.18,-92.25 98.05,-77.73"/>
<polygon fill="midnightblue" stroke="midnightblue" points="98.47,-74.24 87.95,-75.5 96.96,-81.07 98.47,-74.24"/>
</g>
<!-- Node4 -->
<g id="node4" class="node">
<title>Node4</title>
<g id="a_node4"><a xlink:title=" ">
<polygon fill="white" stroke="#bfbfbf" points="119.5,-56.5 119.5,-75.5 197.5,-75.5 197.5,-56.5 119.5,-56.5"/>
<text text-anchor="middle" x="158.5" y="-63.5" font-family="Helvetica,sans-Serif" font-size="10.00">rl/mdl/Model.h</text>
</a>
</g>
</g>
<!-- Node1&#45;&gt;Node4 -->
<g id="edge22" class="edge">
<title>Node1&#45;&gt;Node4</title>
<path fill="none" stroke="midnightblue" d="M951.74,-174.08C869.78,-168.11 682.21,-153.26 525.5,-132 386.06,-113.09 349.75,-102.2 207.5,-76.17"/>
<polygon fill="midnightblue" stroke="midnightblue" points="207.99,-72.71 197.53,-74.36 206.74,-79.59 207.99,-72.71"/>
</g>
<!-- Node5 -->
<g id="node5" class="node">
<title>Node5</title>
<g id="a_node5"><a xlink:title=" ">
<polygon fill="white" stroke="#bfbfbf" points="215.5,-56.5 215.5,-75.5 291.5,-75.5 291.5,-56.5 215.5,-56.5"/>
<text text-anchor="middle" x="253.5" y="-63.5" font-family="Helvetica,sans-Serif" font-size="10.00">rl/math/Unit.h</text>
</a>
</g>
</g>
<!-- Node1&#45;&gt;Node5 -->
<g id="edge20" class="edge">
<title>Node1&#45;&gt;Node5</title>
<path fill="none" stroke="midnightblue" d="M952,-171.62C845.68,-157.69 554.67,-118.67 301.81,-76.16"/>
<polygon fill="midnightblue" stroke="midnightblue" points="302.14,-72.67 291.69,-74.46 300.97,-79.57 302.14,-72.67"/>
</g>
<!-- Node6 -->
<g id="node6" class="node">
<title>Node6</title>
<g id="a_node6"><a xlink:title=" ">
<polygon fill="white" stroke="#bfbfbf" points="900.5,-0.5 900.5,-19.5 1002.5,-19.5 1002.5,-0.5 900.5,-0.5"/>
<text text-anchor="middle" x="951.5" y="-7.5" font-family="Helvetica,sans-Serif" font-size="10.00">rl/math/Transform.h</text>
</a>
</g>
</g>
<!-- Node1&#45;&gt;Node6 -->
<g id="edge19" class="edge">
<title>Node1&#45;&gt;Node6</title>
<path fill="none" stroke="midnightblue" d="M1035.26,-175.49C1139.45,-170.3 1396.88,-148.06 1315.5,-56 1295.82,-33.74 1111.35,-20.02 1012.84,-14.22"/>
<polygon fill="midnightblue" stroke="midnightblue" points="1012.9,-10.72 1002.72,-13.63 1012.5,-17.7 1012.9,-10.72"/>
</g>
<!-- Node7 -->
<g id="node7" class="node">
<title>Node7</title>
<g id="a_node7"><a xlink:title=" ">
<polygon fill="white" stroke="#bfbfbf" points="1212,-56.5 1212,-75.5 1307,-75.5 1307,-56.5 1212,-56.5"/>
<text text-anchor="middle" x="1259.5" y="-63.5" font-family="Helvetica,sans-Serif" font-size="10.00">rl/mdl/Kinematic.h</text>
</a>
</g>
</g>
<!-- Node1&#45;&gt;Node7 -->
<g id="edge21" class="edge">
<title>Node1&#45;&gt;Node7</title>
<path fill="none" stroke="midnightblue" d="M1014.37,-168.37C1061.18,-149.01 1174.71,-102.06 1229.25,-79.51"/>
<polygon fill="midnightblue" stroke="midnightblue" points="1230.82,-82.65 1238.72,-75.59 1228.15,-76.18 1230.82,-82.65"/>
</g>
<!-- Node17 -->
<g id="node17" class="node">
<title>Node17</title>
<g id="a_node17"><a xlink:title=" ">
<polygon fill="white" stroke="#bfbfbf" points="1363.5,-112.5 1363.5,-131.5 1407.5,-131.5 1407.5,-112.5 1363.5,-112.5"/>
<text text-anchor="middle" x="1385.5" y="-119.5" font-family="Helvetica,sans-Serif" font-size="10.00">cmath</text>
</a>
</g>
</g>
<!-- Node1&#45;&gt;Node17 -->
<g id="edge17" class="edge">
<title>Node1&#45;&gt;Node17</title>
<path fill="none" stroke="midnightblue" d="M1035.13,-173.36C1101.85,-167.17 1236.68,-153.15 1349.5,-132 1350.75,-131.77 1352.01,-131.52 1353.29,-131.25"/>
<polygon fill="midnightblue" stroke="midnightblue" points="1354.14,-134.65 1363.12,-129.03 1352.6,-127.82 1354.14,-134.65"/>
</g>
<!-- Node18 -->
<g id="node18" class="node">
<title>Node18</title>
<g id="a_node18"><a xlink:title=" ">
<polygon fill="white" stroke="#bfbfbf" points="1425.5,-112.5 1425.5,-131.5 1479.5,-131.5 1479.5,-112.5 1425.5,-112.5"/>
<text text-anchor="middle" x="1452.5" y="-119.5" font-family="Helvetica,sans-Serif" font-size="10.00">iostream</text>
</a>
</g>
</g>
<!-- Node1&#45;&gt;Node18 -->
<g id="edge18" class="edge">
<title>Node1&#45;&gt;Node18</title>
<path fill="none" stroke="midnightblue" d="M1035.2,-174.49C1109.67,-169.6 1270.53,-157.14 1415.49,-131.95"/>
<polygon fill="midnightblue" stroke="midnightblue" points="1416.22,-135.37 1425.46,-130.19 1415,-128.48 1416.22,-135.37"/>
</g>
<!-- Node2&#45;&gt;Node3 -->
<g id="edge2" class="edge">
<title>Node2&#45;&gt;Node3</title>
<path fill="none" stroke="midnightblue" d="M691.84,-119.31C597.46,-114.74 338.22,-100.89 111.3,-76"/>
<polygon fill="midnightblue" stroke="midnightblue" points="111.53,-72.5 101.2,-74.88 110.76,-79.46 111.53,-72.5"/>
</g>
<!-- Node2&#45;&gt;Node4 -->
<g id="edge3" class="edge">
<title>Node2&#45;&gt;Node4</title>
<path fill="none" stroke="midnightblue" d="M691.97,-119.1C608.18,-114.48 395.53,-101.24 207.79,-76.05"/>
<polygon fill="midnightblue" stroke="midnightblue" points="208.12,-72.56 197.74,-74.69 207.18,-79.5 208.12,-72.56"/>
</g>
<!-- Node2&#45;&gt;Node5 -->
<g id="edge4" class="edge">
<title>Node2&#45;&gt;Node5</title>
<path fill="none" stroke="midnightblue" d="M691.73,-118.19C619.18,-112.41 452.34,-98 302.01,-76.11"/>
<polygon fill="midnightblue" stroke="midnightblue" points="302.08,-72.58 291.67,-74.59 301.06,-79.51 302.08,-72.58"/>
</g>
<!-- Node2&#45;&gt;Node6 -->
<g id="edge5" class="edge">
<title>Node2&#45;&gt;Node6</title>
<path fill="none" stroke="midnightblue" d="M735.97,-112.07C748.11,-98.12 773.49,-71.18 800.5,-56 829.3,-39.82 864.53,-28.89 893.71,-21.86"/>
<polygon fill="midnightblue" stroke="midnightblue" points="894.81,-25.2 903.76,-19.53 893.23,-18.38 894.81,-25.2"/>
</g>
<!-- Node2&#45;&gt;Node7 -->
<g id="edge6" class="edge">
<title>Node2&#45;&gt;Node7</title>
<path fill="none" stroke="midnightblue" d="M765.16,-118.3C843.32,-112.37 1032.34,-97.14 1201.84,-76"/>
<polygon fill="midnightblue" stroke="midnightblue" points="1202.46,-79.45 1211.95,-74.73 1201.59,-72.51 1202.46,-79.45"/>
</g>
<!-- Node8 -->
<g id="node8" class="node">
<title>Node8</title>
<g id="a_node8"><a xlink:title=" ">
<polygon fill="white" stroke="#bfbfbf" points="810,-56.5 810,-75.5 901,-75.5 901,-56.5 810,-56.5"/>
<text text-anchor="middle" x="855.5" y="-63.5" font-family="Helvetica,sans-Serif" font-size="10.00">rl/mdl/Dynamic.h</text>
</a>
</g>
</g>
<!-- Node2&#45;&gt;Node8 -->
<g id="edge7" class="edge">
<title>Node2&#45;&gt;Node8</title>
<path fill="none" stroke="midnightblue" d="M748.62,-112.44C769.52,-103.56 802.43,-89.56 826.22,-79.45"/>
<polygon fill="midnightblue" stroke="midnightblue" points="827.64,-82.65 835.47,-75.52 824.9,-76.21 827.64,-82.65"/>
</g>
<!-- Node9 -->
<g id="node9" class="node">
<title>Node9</title>
<g id="a_node9"><a xlink:href="lbr__struct_8h.html" target="_top" xlink:title=" ">
<polygon fill="white" stroke="black" points="919,-56.5 919,-75.5 984,-75.5 984,-56.5 919,-56.5"/>
<text text-anchor="middle" x="951.5" y="-63.5" font-family="Helvetica,sans-Serif" font-size="10.00">lbr_struct.h</text>
</a>
</g>
</g>
<!-- Node2&#45;&gt;Node9 -->
<g id="edge8" class="edge">
<title>Node2&#45;&gt;Node9</title>
<path fill="none" stroke="midnightblue" d="M763.84,-112.44C803.2,-102.91 866.84,-87.5 908.93,-77.31"/>
<polygon fill="midnightblue" stroke="midnightblue" points="909.97,-80.66 918.87,-74.9 908.33,-73.85 909.97,-80.66"/>
</g>
<!-- Node10 -->
<g id="node10" class="node">
<title>Node10</title>
<g id="a_node10"><a xlink:title=" ">
<polygon fill="white" stroke="#bfbfbf" points="1002,-56.5 1002,-75.5 1061,-75.5 1061,-56.5 1002,-56.5"/>
<text text-anchor="middle" x="1031.5" y="-63.5" font-family="Helvetica,sans-Serif" font-size="10.00">stdexcept</text>
</a>
</g>
</g>
<!-- Node2&#45;&gt;Node10 -->
<g id="edge10" class="edge">
<title>Node2&#45;&gt;Node10</title>
<path fill="none" stroke="midnightblue" d="M765.35,-115.41C814.6,-107.79 904.8,-93.3 991.7,-76.06"/>
<polygon fill="midnightblue" stroke="midnightblue" points="992.61,-79.45 1001.73,-74.06 991.24,-72.59 992.61,-79.45"/>
</g>
<!-- Node11 -->
<g id="node11" class="node">
<title>Node11</title>
<g id="a_node11"><a xlink:title=" ">
<polygon fill="white" stroke="#bfbfbf" points="1079.5,-56.5 1079.5,-75.5 1193.5,-75.5 1193.5,-56.5 1079.5,-56.5"/>
<text text-anchor="middle" x="1136.5" y="-63.5" font-family="Helvetica,sans-Serif" font-size="10.00">boost/lexical_cast.hpp</text>
</a>
</g>
</g>
<!-- Node2&#45;&gt;Node11 -->
<g id="edge11" class="edge">
<title>Node2&#45;&gt;Node11</title>
<path fill="none" stroke="midnightblue" d="M765.09,-116.2C827.53,-108 958.66,-90.76 1069.5,-76 1069.6,-75.99 1069.7,-75.97 1069.81,-75.96"/>
<polygon fill="midnightblue" stroke="midnightblue" points="1070.03,-79.46 1079.48,-74.67 1069.11,-72.52 1070.03,-79.46"/>
</g>
<!-- Node12 -->
<g id="node12" class="node">
<title>Node12</title>
<g id="a_node12"><a xlink:title=" ">
<polygon fill="white" stroke="#bfbfbf" points="310,-56.5 310,-75.5 383,-75.5 383,-56.5 310,-56.5"/>
<text text-anchor="middle" x="346.5" y="-63.5" font-family="Helvetica,sans-Serif" font-size="10.00">rl/mdl/Body.h</text>
</a>
</g>
</g>
<!-- Node2&#45;&gt;Node12 -->
<g id="edge12" class="edge">
<title>Node2&#45;&gt;Node12</title>
<path fill="none" stroke="midnightblue" d="M691.6,-116.79C631.39,-109.77 508.05,-94.72 393.15,-76.02"/>
<polygon fill="midnightblue" stroke="midnightblue" points="393.56,-72.54 383.12,-74.37 392.42,-79.44 393.56,-72.54"/>
</g>
<!-- Node13 -->
<g id="node13" class="node">
<title>Node13</title>
<g id="a_node13"><a xlink:title=" ">
<polygon fill="white" stroke="#bfbfbf" points="401.5,-56.5 401.5,-75.5 477.5,-75.5 477.5,-56.5 401.5,-56.5"/>
<text text-anchor="middle" x="439.5" y="-63.5" font-family="Helvetica,sans-Serif" font-size="10.00">rl/mdl/Fixed.h</text>
</a>
</g>
</g>
<!-- Node2&#45;&gt;Node13 -->
<g id="edge13" class="edge">
<title>Node2&#45;&gt;Node13</title>
<path fill="none" stroke="midnightblue" d="M691.59,-114.2C646.07,-105.8 566.06,-90.99 487.75,-76.23"/>
<polygon fill="midnightblue" stroke="midnightblue" points="488.19,-72.75 477.72,-74.34 486.89,-79.63 488.19,-72.75"/>
</g>
<!-- Node14 -->
<g id="node14" class="node">
<title>Node14</title>
<g id="a_node14"><a xlink:title=" ">
<polygon fill="white" stroke="#bfbfbf" points="495.5,-56.5 495.5,-75.5 575.5,-75.5 575.5,-56.5 495.5,-56.5"/>
<text text-anchor="middle" x="535.5" y="-63.5" font-family="Helvetica,sans-Serif" font-size="10.00">rl/mdl/Frame.h</text>
</a>
</g>
</g>
<!-- Node2&#45;&gt;Node14 -->
<g id="edge14" class="edge">
<title>Node2&#45;&gt;Node14</title>
<path fill="none" stroke="midnightblue" d="M697.92,-112.44C664.89,-103.2 612.11,-88.44 575.73,-78.26"/>
<polygon fill="midnightblue" stroke="midnightblue" points="576.51,-74.84 565.94,-75.52 574.63,-81.58 576.51,-74.84"/>
</g>
<!-- Node15 -->
<g id="node15" class="node">
<title>Node15</title>
<g id="a_node15"><a xlink:title=" ">
<polygon fill="white" stroke="#bfbfbf" points="594,-56.5 594,-75.5 685,-75.5 685,-56.5 594,-56.5"/>
<text text-anchor="middle" x="639.5" y="-63.5" font-family="Helvetica,sans-Serif" font-size="10.00">rl/mdl/Revolute.h</text>
</a>
</g>
</g>
<!-- Node2&#45;&gt;Node15 -->
<g id="edge15" class="edge">
<title>Node2&#45;&gt;Node15</title>
<path fill="none" stroke="midnightblue" d="M714.2,-112.32C700.32,-103.9 679.01,-90.97 662.7,-81.07"/>
<polygon fill="midnightblue" stroke="midnightblue" points="664.13,-77.85 653.76,-75.65 660.5,-83.83 664.13,-77.85"/>
</g>
<!-- Node16 -->
<g id="node16" class="node">
<title>Node16</title>
<g id="a_node16"><a xlink:title=" ">
<polygon fill="white" stroke="#bfbfbf" points="703.5,-56.5 703.5,-75.5 753.5,-75.5 753.5,-56.5 703.5,-56.5"/>
<text text-anchor="middle" x="728.5" y="-63.5" font-family="Helvetica,sans-Serif" font-size="10.00">iomanip</text>
</a>
</g>
</g>
<!-- Node2&#45;&gt;Node16 -->
<g id="edge16" class="edge">
<title>Node2&#45;&gt;Node16</title>
<path fill="none" stroke="midnightblue" d="M728.5,-112.08C728.5,-105.01 728.5,-94.86 728.5,-85.99"/>
<polygon fill="midnightblue" stroke="midnightblue" points="732,-85.75 728.5,-75.75 725,-85.75 732,-85.75"/>
</g>
<!-- Node9&#45;&gt;Node6 -->
<g id="edge9" class="edge">
<title>Node9&#45;&gt;Node6</title>
<path fill="none" stroke="midnightblue" d="M951.5,-56.08C951.5,-49.01 951.5,-38.86 951.5,-29.99"/>
<polygon fill="midnightblue" stroke="midnightblue" points="955,-29.75 951.5,-19.75 948,-29.75 955,-29.75"/>
</g>
</g>
</svg>
        <g id="navigator" transform="translate(0 0)" fill="#404254">
                <rect fill="#f2f5e9" fill-opacity="0.5" stroke="#606060" stroke-width=".5" x="0" y="0" width="60" height="60"/>
                <use id="zoomplus" xlink:href="#zoomPlus" x="17" y="9" onmousedown="handleZoom(evt,'in')"/>
                <use id="zoomminus" xlink:href="#zoomMin" x="42" y="9" onmousedown="handleZoom(evt,'out')"/>
                <use id="reset" xlink:href="#resetDef" x="30" y="36" onmousedown="handleReset()"/>
                <g id="arrowUp" xlink:href="#dirArrow" transform="translate(30 24)" onmousedown="handlePan(0,-1)">
                  <use xlink:href="#rim" fill="#404040">
                        <set attributeName="fill" to="#808080" begin="arrowUp.mouseover" end="arrowUp.mouseout"/>
                  </use>
                  <path fill="none" stroke="white" stroke-width="1.5" d="M0,-3.0v7 M-2.5,-0.5L0,-3.0L2.5,-0.5"/>
                </g>
                <g id="arrowRight" xlink:href="#dirArrow" transform="rotate(90) translate(36 -43)" onmousedown="handlePan(1,0)">
                  <use xlink:href="#rim" fill="#404040">
                        <set attributeName="fill" to="#808080" begin="arrowRight.mouseover" end="arrowRight.mouseout"/>
                  </use>
                  <path fill="none" stroke="white" stroke-width="1.5" d="M0,-3.0v7 M-2.5,-0.5L0,-3.0L2.5,-0.5"/>
                </g>
                <g id="arrowDown" xlink:href="#dirArrow" transform="rotate(180) translate(-30 -48)" onmousedown="handlePan(0,1)">
                  <use xlink:href="#rim" fill="#404040">
                        <set attributeName="fill" to="#808080" begin="arrowDown.mouseover" end="arrowDown.mouseout"/>
                  </use>
                  <path fill="none" stroke="white" stroke-width="1.5" d="M0,-3.0v7 M-2.5,-0.5L0,-3.0L2.5,-0.5"/>
                </g>
                <g id="arrowLeft" xlink:href="#dirArrow" transform="rotate(270) translate(-36 17)" onmousedown="handlePan(-1,0)">
                  <use xlink:href="#rim" fill="#404040">
                        <set attributeName="fill" to="#808080" begin="arrowLeft.mouseover" end="arrowLeft.mouseout"/>
                  </use>
                  <path fill="none" stroke="white" stroke-width="1.5" d="M0,-3.0v7 M-2.5,-0.5L0,-3.0L2.5,-0.5"/>
                </g>
        </g>
        <svg viewBox="0 0 15 15" width="100%" height="30px" preserveAspectRatio="xMaxYMin meet">
         <g id="arrow_out" transform="scale(0.3 0.3)">
          <a xlink:href="robot_model_8cpp__incl_org.svg" target="_base">
           <rect id="button" ry="5" rx="5" y="6" x="6" height="38" width="38"
                fill="#f2f5e9" fill-opacity="0.5" stroke="#606060" stroke-width="1.0"/>
           <path id="arrow"
             d="M 11.500037,31.436501 C 11.940474,20.09759 22.043105,11.32322 32.158766,21.979434 L 37.068811,17.246167 C 37.068811,17.246167 37.088388,32 37.088388,32 L 22.160133,31.978069 C 22.160133,31.978069 26.997745,27.140456 26.997745,27.140456 C 18.528582,18.264221 13.291696,25.230495 11.500037,31.436501 z"
             style="fill:#404040;"/>
          </a>
         </g>
        </svg>
</svg>
