<?xml version="1.0" encoding="UTF-8" standalone="no"?>
<!DOCTYPE svg PUBLIC "-//W3C//DTD SVG 1.1//EN"
 "http://www.w3.org/Graphics/SVG/1.1/DTD/svg11.dtd">
<!-- Generated by graphviz version 2.43.0 (0)
 -->
<!-- Title: include/robotModel.h Pages: 1 -->
<svg width="1315pt" height="140pt"
 viewBox="0.00 0.00 1314.50 140.00" xmlns="http://www.w3.org/2000/svg" xmlns:xlink="http://www.w3.org/1999/xlink">
<g id="graph0" class="graph" transform="scale(1 1) rotate(0) translate(4 136)">
<title>include/robotModel.h</title>
<polygon fill="white" stroke="transparent" points="-4,4 -4,-136 1310.5,-136 1310.5,4 -4,4"/>
<!-- Node1 -->
<g id="node1" class="node">
<title>Node1</title>
<g id="a_node1"><a xlink:title=" ">
<polygon fill="#bfbfbf" stroke="black" points="589,-112.5 589,-131.5 696,-131.5 696,-112.5 589,-112.5"/>
<text text-anchor="middle" x="642.5" y="-119.5" font-family="Helvetica,sans-Serif" font-size="10.00">include/robotModel.h</text>
</a>
</g>
</g>
<!-- Node2 -->
<g id="node2" class="node">
<title>Node2</title>
<g id="a_node2"><a xlink:title=" ">
<polygon fill="white" stroke="#bfbfbf" points="0,-56.5 0,-75.5 101,-75.5 101,-56.5 0,-56.5"/>
<text text-anchor="middle" x="50.5" y="-63.5" font-family="Helvetica,sans-Serif" font-size="10.00">rl/mdl/XmlFactory.h</text>
</a>
</g>
</g>
<!-- Node1&#45;&gt;Node2 -->
<g id="edge1" class="edge">
<title>Node1&#45;&gt;Node2</title>
<path fill="none" stroke="midnightblue" d="M588.77,-117.61C494.38,-111.39 292.42,-96.97 111.19,-76.01"/>
<polygon fill="midnightblue" stroke="midnightblue" points="111.55,-72.52 101.21,-74.84 110.74,-79.48 111.55,-72.52"/>
</g>
<!-- Node3 -->
<g id="node3" class="node">
<title>Node3</title>
<g id="a_node3"><a xlink:title=" ">
<polygon fill="white" stroke="#bfbfbf" points="119.5,-56.5 119.5,-75.5 197.5,-75.5 197.5,-56.5 119.5,-56.5"/>
<text text-anchor="middle" x="158.5" y="-63.5" font-family="Helvetica,sans-Serif" font-size="10.00">rl/mdl/Model.h</text>
</a>
</g>
</g>
<!-- Node1&#45;&gt;Node3 -->
<g id="edge2" class="edge">
<title>Node1&#45;&gt;Node3</title>
<path fill="none" stroke="midnightblue" d="M588.97,-116.91C508.48,-110.44 351.34,-96.58 208.04,-76.12"/>
<polygon fill="midnightblue" stroke="midnightblue" points="208.15,-72.6 197.75,-74.63 207.15,-79.52 208.15,-72.6"/>
</g>
<!-- Node4 -->
<g id="node4" class="node">
<title>Node4</title>
<g id="a_node4"><a xlink:title=" ">
<polygon fill="white" stroke="#bfbfbf" points="215.5,-56.5 215.5,-75.5 291.5,-75.5 291.5,-56.5 215.5,-56.5"/>
<text text-anchor="middle" x="253.5" y="-63.5" font-family="Helvetica,sans-Serif" font-size="10.00">rl/math/Unit.h</text>
</a>
</g>
</g>
<!-- Node1&#45;&gt;Node4 -->
<g id="edge3" class="edge">
<title>Node1&#45;&gt;Node4</title>
<path fill="none" stroke="midnightblue" d="M588.71,-114.47C522.12,-106.23 405.27,-91.29 305.5,-76 304.23,-75.8 302.94,-75.6 301.63,-75.4"/>
<polygon fill="midnightblue" stroke="midnightblue" points="301.96,-71.91 291.53,-73.76 300.84,-78.82 301.96,-71.91"/>
</g>
<!-- Node5 -->
<g id="node5" class="node">
<title>Node5</title>
<g id="a_node5"><a xlink:title=" ">
<polygon fill="white" stroke="#bfbfbf" points="409.5,-0.5 409.5,-19.5 511.5,-19.5 511.5,-0.5 409.5,-0.5"/>
<text text-anchor="middle" x="460.5" y="-7.5" font-family="Helvetica,sans-Serif" font-size="10.00">rl/math/Transform.h</text>
</a>
</g>
</g>
<!-- Node1&#45;&gt;Node5 -->
<g id="edge4" class="edge">
<title>Node1&#45;&gt;Node5</title>
<path fill="none" stroke="midnightblue" d="M588.78,-121.08C510.53,-119.91 371.06,-112.6 339.5,-76 316.58,-49.42 360.02,-31.92 401.09,-21.84"/>
<polygon fill="midnightblue" stroke="midnightblue" points="401.94,-25.23 410.88,-19.56 400.35,-18.42 401.94,-25.23"/>
</g>
<!-- Node6 -->
<g id="node6" class="node">
<title>Node6</title>
<g id="a_node6"><a xlink:title=" ">
<polygon fill="white" stroke="#bfbfbf" points="348,-56.5 348,-75.5 443,-75.5 443,-56.5 348,-56.5"/>
<text text-anchor="middle" x="395.5" y="-63.5" font-family="Helvetica,sans-Serif" font-size="10.00">rl/mdl/Kinematic.h</text>
</a>
</g>
</g>
<!-- Node1&#45;&gt;Node6 -->
<g id="edge5" class="edge">
<title>Node1&#45;&gt;Node6</title>
<path fill="none" stroke="midnightblue" d="M603.36,-112.44C560.27,-103.02 490.94,-87.87 444.33,-77.68"/>
<polygon fill="midnightblue" stroke="midnightblue" points="444.97,-74.23 434.45,-75.52 443.48,-81.07 444.97,-74.23"/>
</g>
<!-- Node7 -->
<g id="node7" class="node">
<title>Node7</title>
<g id="a_node7"><a xlink:title=" ">
<polygon fill="white" stroke="#bfbfbf" points="461,-56.5 461,-75.5 552,-75.5 552,-56.5 461,-56.5"/>
<text text-anchor="middle" x="506.5" y="-63.5" font-family="Helvetica,sans-Serif" font-size="10.00">rl/mdl/Dynamic.h</text>
</a>
</g>
</g>
<!-- Node1&#45;&gt;Node7 -->
<g id="edge6" class="edge">
<title>Node1&#45;&gt;Node7</title>
<path fill="none" stroke="midnightblue" d="M620.95,-112.44C598.47,-103.52 563.01,-89.44 537.52,-79.32"/>
<polygon fill="midnightblue" stroke="midnightblue" points="538.53,-75.95 527.95,-75.52 535.95,-82.46 538.53,-75.95"/>
</g>
<!-- Node8 -->
<g id="node8" class="node">
<title>Node8</title>
<g id="a_node8"><a xlink:href="lbr__struct_8h.html" target="_top" xlink:title=" ">
<polygon fill="white" stroke="black" points="570,-56.5 570,-75.5 635,-75.5 635,-56.5 570,-56.5"/>
<text text-anchor="middle" x="602.5" y="-63.5" font-family="Helvetica,sans-Serif" font-size="10.00">lbr_struct.h</text>
</a>
</g>
</g>
<!-- Node1&#45;&gt;Node8 -->
<g id="edge7" class="edge">
<title>Node1&#45;&gt;Node8</title>
<path fill="none" stroke="midnightblue" d="M635.89,-112.08C630.24,-104.46 621.96,-93.26 615.05,-83.94"/>
<polygon fill="midnightblue" stroke="midnightblue" points="617.75,-81.7 608.98,-75.75 612.12,-85.87 617.75,-81.7"/>
</g>
<!-- Node9 -->
<g id="node9" class="node">
<title>Node9</title>
<g id="a_node9"><a xlink:title=" ">
<polygon fill="white" stroke="#bfbfbf" points="653,-56.5 653,-75.5 712,-75.5 712,-56.5 653,-56.5"/>
<text text-anchor="middle" x="682.5" y="-63.5" font-family="Helvetica,sans-Serif" font-size="10.00">stdexcept</text>
</a>
</g>
</g>
<!-- Node1&#45;&gt;Node9 -->
<g id="edge9" class="edge">
<title>Node1&#45;&gt;Node9</title>
<path fill="none" stroke="midnightblue" d="M649.11,-112.08C654.76,-104.46 663.04,-93.26 669.95,-83.94"/>
<polygon fill="midnightblue" stroke="midnightblue" points="672.88,-85.87 676.02,-75.75 667.25,-81.7 672.88,-85.87"/>
</g>
<!-- Node10 -->
<g id="node10" class="node">
<title>Node10</title>
<g id="a_node10"><a xlink:title=" ">
<polygon fill="white" stroke="#bfbfbf" points="730.5,-56.5 730.5,-75.5 844.5,-75.5 844.5,-56.5 730.5,-56.5"/>
<text text-anchor="middle" x="787.5" y="-63.5" font-family="Helvetica,sans-Serif" font-size="10.00">boost/lexical_cast.hpp</text>
</a>
</g>
</g>
<!-- Node1&#45;&gt;Node10 -->
<g id="edge10" class="edge">
<title>Node1&#45;&gt;Node10</title>
<path fill="none" stroke="midnightblue" d="M665.48,-112.44C689.66,-103.44 727.92,-89.19 755.15,-79.05"/>
<polygon fill="midnightblue" stroke="midnightblue" points="756.48,-82.29 764.63,-75.52 754.04,-75.73 756.48,-82.29"/>
</g>
<!-- Node11 -->
<g id="node11" class="node">
<title>Node11</title>
<g id="a_node11"><a xlink:title=" ">
<polygon fill="white" stroke="#bfbfbf" points="863,-56.5 863,-75.5 936,-75.5 936,-56.5 863,-56.5"/>
<text text-anchor="middle" x="899.5" y="-63.5" font-family="Helvetica,sans-Serif" font-size="10.00">rl/mdl/Body.h</text>
</a>
</g>
</g>
<!-- Node1&#45;&gt;Node11 -->
<g id="edge11" class="edge">
<title>Node1&#45;&gt;Node11</title>
<path fill="none" stroke="midnightblue" d="M683.22,-112.44C729.34,-102.75 804.35,-86.99 852.8,-76.81"/>
<polygon fill="midnightblue" stroke="midnightblue" points="853.65,-80.21 862.72,-74.73 852.21,-73.36 853.65,-80.21"/>
</g>
<!-- Node12 -->
<g id="node12" class="node">
<title>Node12</title>
<g id="a_node12"><a xlink:title=" ">
<polygon fill="white" stroke="#bfbfbf" points="954.5,-56.5 954.5,-75.5 1030.5,-75.5 1030.5,-56.5 954.5,-56.5"/>
<text text-anchor="middle" x="992.5" y="-63.5" font-family="Helvetica,sans-Serif" font-size="10.00">rl/mdl/Fixed.h</text>
</a>
</g>
</g>
<!-- Node1&#45;&gt;Node12 -->
<g id="edge12" class="edge">
<title>Node1&#45;&gt;Node12</title>
<path fill="none" stroke="midnightblue" d="M696.25,-113.71C754.77,-105.61 851.38,-91.8 944.18,-76.17"/>
<polygon fill="midnightblue" stroke="midnightblue" points="945.03,-79.57 954.3,-74.45 943.86,-72.67 945.03,-79.57"/>
</g>
<!-- Node13 -->
<g id="node13" class="node">
<title>Node13</title>
<g id="a_node13"><a xlink:title=" ">
<polygon fill="white" stroke="#bfbfbf" points="1048.5,-56.5 1048.5,-75.5 1128.5,-75.5 1128.5,-56.5 1048.5,-56.5"/>
<text text-anchor="middle" x="1088.5" y="-63.5" font-family="Helvetica,sans-Serif" font-size="10.00">rl/mdl/Frame.h</text>
</a>
</g>
</g>
<!-- Node1&#45;&gt;Node13 -->
<g id="edge13" class="edge">
<title>Node1&#45;&gt;Node13</title>
<path fill="none" stroke="midnightblue" d="M696.27,-116.09C770.79,-109.02 909.9,-94.88 1038.41,-76.07"/>
<polygon fill="midnightblue" stroke="midnightblue" points="1039.04,-79.52 1048.43,-74.59 1038.02,-72.59 1039.04,-79.52"/>
</g>
<!-- Node14 -->
<g id="node14" class="node">
<title>Node14</title>
<g id="a_node14"><a xlink:title=" ">
<polygon fill="white" stroke="#bfbfbf" points="1147,-56.5 1147,-75.5 1238,-75.5 1238,-56.5 1147,-56.5"/>
<text text-anchor="middle" x="1192.5" y="-63.5" font-family="Helvetica,sans-Serif" font-size="10.00">rl/mdl/Revolute.h</text>
</a>
</g>
</g>
<!-- Node1&#45;&gt;Node14 -->
<g id="edge14" class="edge">
<title>Node1&#45;&gt;Node14</title>
<path fill="none" stroke="midnightblue" d="M696.11,-117.39C785.31,-111.1 970.02,-96.92 1136.96,-75.98"/>
<polygon fill="midnightblue" stroke="midnightblue" points="1137.44,-79.44 1146.92,-74.72 1136.56,-72.5 1137.44,-79.44"/>
</g>
<!-- Node15 -->
<g id="node15" class="node">
<title>Node15</title>
<g id="a_node15"><a xlink:title=" ">
<polygon fill="white" stroke="#bfbfbf" points="1256.5,-56.5 1256.5,-75.5 1306.5,-75.5 1306.5,-56.5 1256.5,-56.5"/>
<text text-anchor="middle" x="1281.5" y="-63.5" font-family="Helvetica,sans-Serif" font-size="10.00">iomanip</text>
</a>
</g>
</g>
<!-- Node1&#45;&gt;Node15 -->
<g id="edge15" class="edge">
<title>Node1&#45;&gt;Node15</title>
<path fill="none" stroke="midnightblue" d="M696.31,-120.32C800.8,-118.28 1038.42,-110.13 1246.48,-75.86"/>
<polygon fill="midnightblue" stroke="midnightblue" points="1247.08,-79.31 1256.36,-74.21 1245.92,-72.4 1247.08,-79.31"/>
</g>
<!-- Node8&#45;&gt;Node5 -->
<g id="edge8" class="edge">
<title>Node8&#45;&gt;Node5</title>
<path fill="none" stroke="midnightblue" d="M580,-56.44C556.42,-47.48 519.18,-33.31 492.54,-23.18"/>
<polygon fill="midnightblue" stroke="midnightblue" points="493.49,-19.8 482.9,-19.52 491,-26.34 493.49,-19.8"/>
</g>
</g>
</svg>
