<?xml version="1.0" encoding="UTF-8" standalone="no"?>
<!DOCTYPE svg PUBLIC "-//W3C//DTD SVG 1.1//EN"
 "http://www.w3.org/Graphics/SVG/1.1/DTD/svg11.dtd">
<!-- Generated by graphviz version 2.43.0 (0)
 -->
<!-- Title: matplotlibcpp::detail::plot_impl&lt; std::false_type &gt;::operator() Pages: 1 -->
<svg width="588pt" height="50pt"
 viewBox="0.00 0.00 588.00 50.00" xmlns="http://www.w3.org/2000/svg" xmlns:xlink="http://www.w3.org/1999/xlink">
<g id="graph0" class="graph" transform="scale(1 1) rotate(0) translate(4 46)">
<title>matplotlibcpp::detail::plot_impl&lt; std::false_type &gt;::operator()</title>
<polygon fill="white" stroke="transparent" points="-4,4 -4,-46 584,-46 584,4 -4,4"/>
<!-- Node1 -->
<g id="node1" class="node">
<title>Node1</title>
<g id="a_node1"><a xlink:title=" ">
<polygon fill="#bfbfbf" stroke="black" points="0,-0.5 0,-41.5 111,-41.5 111,-0.5 0,-0.5"/>
<text text-anchor="start" x="8" y="-29.5" font-family="Helvetica,sans-Serif" font-size="10.00">matplotlibcpp::detail</text>
<text text-anchor="start" x="8" y="-18.5" font-family="Helvetica,sans-Serif" font-size="10.00">::plot_impl&lt; std::false</text>
<text text-anchor="middle" x="55.5" y="-7.5" font-family="Helvetica,sans-Serif" font-size="10.00">_type &gt;::operator()</text>
</a>
</g>
</g>
<!-- Node2 -->
<g id="node2" class="node">
<title>Node2</title>
<g id="a_node2"><a xlink:href="structmatplotlibcpp_1_1detail_1_1__interpreter.html#a3ddc4e50c23738307da3dc64c47cdbc0" target="_top" xlink:title=" ">
<polygon fill="white" stroke="black" points="147,-6 147,-36 251,-36 251,-6 147,-6"/>
<text text-anchor="start" x="155" y="-24" font-family="Helvetica,sans-Serif" font-size="10.00">matplotlibcpp::detail</text>
<text text-anchor="middle" x="199" y="-13" font-family="Helvetica,sans-Serif" font-size="10.00">::_interpreter::get</text>
</a>
</g>
</g>
<!-- Node1&#45;&gt;Node2 -->
<g id="edge1" class="edge">
<title>Node1&#45;&gt;Node2</title>
<path fill="none" stroke="midnightblue" d="M111.21,-21C119.5,-21 128.1,-21 136.53,-21"/>
<polygon fill="midnightblue" stroke="midnightblue" points="136.69,-24.5 146.69,-21 136.69,-17.5 136.69,-24.5"/>
</g>
<!-- Node3 -->
<g id="node3" class="node">
<title>Node3</title>
<g id="a_node3"><a xlink:href="structmatplotlibcpp_1_1detail_1_1__interpreter.html#accf36ff8fd9f1bd757d028fa4a14be40" target="_top" xlink:title=" ">
<polygon fill="white" stroke="black" points="287,-6 287,-36 412,-36 412,-6 287,-6"/>
<text text-anchor="start" x="295" y="-24" font-family="Helvetica,sans-Serif" font-size="10.00">matplotlibcpp::detail</text>
<text text-anchor="middle" x="349.5" y="-13" font-family="Helvetica,sans-Serif" font-size="10.00">::_interpreter::interkeeper</text>
</a>
</g>
</g>
<!-- Node2&#45;&gt;Node3 -->
<g id="edge2" class="edge">
<title>Node2&#45;&gt;Node3</title>
<path fill="none" stroke="midnightblue" d="M251.11,-21C259.37,-21 268.05,-21 276.69,-21"/>
<polygon fill="midnightblue" stroke="midnightblue" points="276.79,-24.5 286.79,-21 276.79,-17.5 276.79,-24.5"/>
</g>
<!-- Node4 -->
<g id="node4" class="node">
<title>Node4</title>
<g id="a_node4"><a xlink:href="structmatplotlibcpp_1_1detail_1_1__interpreter.html#abd9d036f154de95f507d8be310569d20" target="_top" xlink:title=" ">
<polygon fill="white" stroke="black" points="448,-6 448,-36 580,-36 580,-6 448,-6"/>
<text text-anchor="start" x="456" y="-24" font-family="Helvetica,sans-Serif" font-size="10.00">matplotlibcpp::detail</text>
<text text-anchor="middle" x="514" y="-13" font-family="Helvetica,sans-Serif" font-size="10.00">::_interpreter::~_interpreter</text>
</a>
</g>
</g>
<!-- Node3&#45;&gt;Node4 -->
<g id="edge3" class="edge">
<title>Node3&#45;&gt;Node4</title>
<path fill="none" stroke="midnightblue" d="M412.4,-21C420.62,-21 429.13,-21 437.55,-21"/>
<polygon fill="midnightblue" stroke="midnightblue" points="437.76,-24.5 447.76,-21 437.76,-17.5 437.76,-24.5"/>
</g>
</g>
</svg>
