<?xml version="1.0" encoding="UTF-8" standalone="no"?>
<!DOCTYPE svg PUBLIC "-//W3C//DTD SVG 1.1//EN"
 "http://www.w3.org/Graphics/SVG/1.1/DTD/svg11.dtd">
<!-- Generated by graphviz version 2.43.0 (0)
 -->
<!-- Title: matplotlibcpp::detail::_interpreter::get Pages: 1 -->
<svg width="458pt" height="1942pt"
 viewBox="0.00 0.00 458.00 1942.00" xmlns="http://www.w3.org/2000/svg" xmlns:xlink="http://www.w3.org/1999/xlink">
<g id="graph0" class="graph" transform="scale(1 1) rotate(0) translate(4 1938)">
<title>matplotlibcpp::detail::_interpreter::get</title>
<polygon fill="white" stroke="transparent" points="-4,4 -4,-1938 454,-1938 454,4 -4,4"/>
<!-- Node1 -->
<g id="node1" class="node">
<title>Node1</title>
<g id="a_node1"><a xlink:title=" ">
<polygon fill="#bfbfbf" stroke="black" points="346,-992 346,-1022 450,-1022 450,-992 346,-992"/>
<text text-anchor="start" x="354" y="-1010" font-family="Helvetica,sans-Serif" font-size="10.00">matplotlibcpp::detail</text>
<text text-anchor="middle" x="398" y="-999" font-family="Helvetica,sans-Serif" font-size="10.00">::_interpreter::get</text>
</a>
</g>
</g>
<!-- Node2 -->
<g id="node2" class="node">
<title>Node2</title>
<g id="a_node2"><a xlink:href="namespacematplotlibcpp.html#a4854fc237468144bd46809ea7ce8f2a0" target="_top" xlink:title=" ">
<polygon fill="white" stroke="black" points="184.5,-1914.5 184.5,-1933.5 302.5,-1933.5 302.5,-1914.5 184.5,-1914.5"/>
<text text-anchor="middle" x="243.5" y="-1921.5" font-family="Helvetica,sans-Serif" font-size="10.00">matplotlibcpp::annotate</text>
</a>
</g>
</g>
<!-- Node1&#45;&gt;Node2 -->
<g id="edge1" class="edge">
<title>Node1&#45;&gt;Node2</title>
<path fill="none" stroke="midnightblue" d="M396.21,-1032.47C391.7,-1171.6 367.27,-1835.97 310,-1905 306.82,-1908.83 302.93,-1911.91 298.63,-1914.39"/>
<polygon fill="midnightblue" stroke="midnightblue" points="399.72,-1032.45 396.54,-1022.35 392.72,-1032.23 399.72,-1032.45"/>
</g>
<!-- Node3 -->
<g id="node3" class="node">
<title>Node3</title>
<g id="a_node3"><a xlink:href="namespacematplotlibcpp.html#a5da5568ee4a63f144e4541c6c84ed0ce" target="_top" xlink:title=" ">
<polygon fill="white" stroke="black" points="191.5,-1876.5 191.5,-1895.5 295.5,-1895.5 295.5,-1876.5 191.5,-1876.5"/>
<text text-anchor="middle" x="243.5" y="-1883.5" font-family="Helvetica,sans-Serif" font-size="10.00">matplotlibcpp::arrow</text>
</a>
</g>
</g>
<!-- Node1&#45;&gt;Node3 -->
<g id="edge2" class="edge">
<title>Node1&#45;&gt;Node3</title>
<path fill="none" stroke="midnightblue" d="M396.11,-1032.23C391.12,-1167.28 364.89,-1801.12 310,-1867 306.13,-1871.64 301.21,-1875.18 295.8,-1877.89"/>
<polygon fill="midnightblue" stroke="midnightblue" points="399.61,-1032.17 396.48,-1022.04 392.62,-1031.91 399.61,-1032.17"/>
</g>
<!-- Node4 -->
<g id="node4" class="node">
<title>Node4</title>
<g id="a_node4"><a xlink:href="namespacematplotlibcpp.html#aad674397c3890c8454edbd6363b1564e" target="_top" xlink:title=" ">
<polygon fill="white" stroke="black" points="188,-1838.5 188,-1857.5 299,-1857.5 299,-1838.5 188,-1838.5"/>
<text text-anchor="middle" x="243.5" y="-1845.5" font-family="Helvetica,sans-Serif" font-size="10.00">matplotlibcpp::axhline</text>
</a>
</g>
</g>
<!-- Node1&#45;&gt;Node4 -->
<g id="edge3" class="edge">
<title>Node1&#45;&gt;Node4</title>
<path fill="none" stroke="midnightblue" d="M395.87,-1032.54C389.85,-1163.94 359.95,-1760.02 310,-1824 305.08,-1830.3 298.35,-1834.95 291.06,-1838.38"/>
<polygon fill="midnightblue" stroke="midnightblue" points="399.38,-1032.41 396.34,-1022.26 392.39,-1032.1 399.38,-1032.41"/>
</g>
<!-- Node5 -->
<g id="node5" class="node">
<title>Node5</title>
<g id="a_node5"><a xlink:href="namespacematplotlibcpp.html#aab5287e30ebd90df0f5614d8da0f5291" target="_top" xlink:title=" ">
<polygon fill="white" stroke="black" points="194.5,-1762.5 194.5,-1781.5 292.5,-1781.5 292.5,-1762.5 194.5,-1762.5"/>
<text text-anchor="middle" x="243.5" y="-1769.5" font-family="Helvetica,sans-Serif" font-size="10.00">matplotlibcpp::axis</text>
</a>
</g>
</g>
<!-- Node1&#45;&gt;Node5 -->
<g id="edge4" class="edge">
<title>Node1&#45;&gt;Node5</title>
<path fill="none" stroke="midnightblue" d="M397.46,-1032.32C399.07,-1148.97 400.19,-1633.75 310,-1748 304.97,-1754.37 298.09,-1759.05 290.67,-1762.49"/>
<polygon fill="midnightblue" stroke="midnightblue" points="400.96,-1032.15 397.3,-1022.21 393.96,-1032.26 400.96,-1032.15"/>
</g>
<!-- Node6 -->
<g id="node6" class="node">
<title>Node6</title>
<g id="a_node6"><a xlink:href="namespacematplotlibcpp.html#a107bbc57e93a929c75baf1c60a712d8b" target="_top" xlink:title=" ">
<polygon fill="white" stroke="black" points="20,-1797.5 20,-1816.5 121,-1816.5 121,-1797.5 20,-1797.5"/>
<text text-anchor="middle" x="70.5" y="-1804.5" font-family="Helvetica,sans-Serif" font-size="10.00">matplotlibcpp::plot3</text>
</a>
</g>
</g>
<!-- Node1&#45;&gt;Node6 -->
<g id="edge39" class="edge">
<title>Node1&#45;&gt;Node6</title>
<path fill="none" stroke="midnightblue" d="M396.09,-1032.2C391.21,-1160.5 366.23,-1737.17 310,-1791 254.99,-1843.66 156.3,-1829.05 104.82,-1816.55"/>
<polygon fill="midnightblue" stroke="midnightblue" points="399.59,-1032.27 396.47,-1022.15 392.59,-1032.01 399.59,-1032.27"/>
</g>
<!-- Node7 -->
<g id="node7" class="node">
<title>Node7</title>
<g id="a_node7"><a xlink:href="namespacematplotlibcpp.html#a1f62cf2432777c919965bb983ddfd1b0" target="_top" xlink:title=" ">
<polygon fill="white" stroke="black" points="22.5,-1743 22.5,-1773 118.5,-1773 118.5,-1743 22.5,-1743"/>
<text text-anchor="start" x="30.5" y="-1761" font-family="Helvetica,sans-Serif" font-size="10.00">matplotlibcpp::plot</text>
<text text-anchor="middle" x="70.5" y="-1750" font-family="Helvetica,sans-Serif" font-size="10.00">_surface</text>
</a>
</g>
</g>
<!-- Node1&#45;&gt;Node7 -->
<g id="edge40" class="edge">
<title>Node1&#45;&gt;Node7</title>
<path fill="none" stroke="midnightblue" d="M395.62,-1032.07C388.79,-1151.5 357.18,-1659.12 310,-1710 284.62,-1737.37 180.6,-1749.83 118.62,-1754.92"/>
<polygon fill="midnightblue" stroke="midnightblue" points="399.11,-1032.23 396.18,-1022.04 392.12,-1031.83 399.11,-1032.23"/>
</g>
<!-- Node8 -->
<g id="node8" class="node">
<title>Node8</title>
<g id="a_node8"><a xlink:href="namespacematplotlibcpp.html#a6479afec926d90fdf3309cf2a88db030" target="_top" xlink:title=" ">
<polygon fill="white" stroke="black" points="22.5,-1684 22.5,-1714 118.5,-1714 118.5,-1684 22.5,-1684"/>
<text text-anchor="start" x="30.5" y="-1702" font-family="Helvetica,sans-Serif" font-size="10.00">matplotlibcpp::tick</text>
<text text-anchor="middle" x="70.5" y="-1691" font-family="Helvetica,sans-Serif" font-size="10.00">_params</text>
</a>
</g>
</g>
<!-- Node1&#45;&gt;Node8 -->
<g id="edge54" class="edge">
<title>Node1&#45;&gt;Node8</title>
<path fill="none" stroke="midnightblue" d="M395.57,-1032.09C388.71,-1148.39 357.51,-1631.22 310,-1677 259.69,-1725.47 172.7,-1719.8 118.84,-1710.17"/>
<polygon fill="midnightblue" stroke="midnightblue" points="399.07,-1032.2 396.16,-1022.01 392.08,-1031.79 399.07,-1032.2"/>
</g>
<!-- Node9 -->
<g id="node9" class="node">
<title>Node9</title>
<g id="a_node9"><a xlink:href="namespacematplotlibcpp.html#a74882742dd5b2fa53cce6c2d4f5bbc2c" target="_top" xlink:title=" ">
<polygon fill="white" stroke="black" points="188,-1648.5 188,-1667.5 299,-1667.5 299,-1648.5 188,-1648.5"/>
<text text-anchor="middle" x="243.5" y="-1655.5" font-family="Helvetica,sans-Serif" font-size="10.00">matplotlibcpp::axvline</text>
</a>
</g>
</g>
<!-- Node1&#45;&gt;Node9 -->
<g id="edge8" class="edge">
<title>Node1&#45;&gt;Node9</title>
<path fill="none" stroke="midnightblue" d="M397.06,-1032.36C396.78,-1138.51 390.43,-1545.92 310,-1639 306.67,-1642.85 302.61,-1645.95 298.16,-1648.43"/>
<polygon fill="midnightblue" stroke="midnightblue" points="400.56,-1032.25 397.07,-1022.25 393.56,-1032.25 400.56,-1032.25"/>
</g>
<!-- Node10 -->
<g id="node10" class="node">
<title>Node10</title>
<g id="a_node10"><a xlink:href="namespacematplotlibcpp.html#aa895bc53f99e3630b8c0adb41880b485" target="_top" xlink:title=" ">
<polygon fill="white" stroke="black" points="185,-1610.5 185,-1629.5 302,-1629.5 302,-1610.5 185,-1610.5"/>
<text text-anchor="middle" x="243.5" y="-1617.5" font-family="Helvetica,sans-Serif" font-size="10.00">matplotlibcpp::axvspan</text>
</a>
</g>
</g>
<!-- Node1&#45;&gt;Node10 -->
<g id="edge9" class="edge">
<title>Node1&#45;&gt;Node10</title>
<path fill="none" stroke="midnightblue" d="M396.81,-1032.45C395.53,-1134.69 385.66,-1514.2 310,-1601 306.65,-1604.84 302.58,-1607.92 298.13,-1610.4"/>
<polygon fill="midnightblue" stroke="midnightblue" points="400.31,-1032.19 396.92,-1022.15 393.31,-1032.11 400.31,-1032.19"/>
</g>
<!-- Node11 -->
<g id="node11" class="node">
<title>Node11</title>
<g id="a_node11"><a xlink:href="namespacematplotlibcpp.html#aa3ccefcc977791fc66c1cff63d589d00" target="_top" xlink:title=" ">
<polygon fill="white" stroke="black" points="197,-1572.5 197,-1591.5 290,-1591.5 290,-1572.5 197,-1572.5"/>
<text text-anchor="middle" x="243.5" y="-1579.5" font-family="Helvetica,sans-Serif" font-size="10.00">matplotlibcpp::cla</text>
</a>
</g>
</g>
<!-- Node1&#45;&gt;Node11 -->
<g id="edge10" class="edge">
<title>Node1&#45;&gt;Node11</title>
<path fill="none" stroke="midnightblue" d="M396.53,-1032.4C394.2,-1130.4 380.94,-1482.41 310,-1563 304.76,-1568.95 297.77,-1573.09 290.32,-1575.96"/>
<polygon fill="midnightblue" stroke="midnightblue" points="400.03,-1032.31 396.75,-1022.23 393.03,-1032.15 400.03,-1032.31"/>
</g>
<!-- Node12 -->
<g id="node12" class="node">
<title>Node12</title>
<g id="a_node12"><a xlink:href="namespacematplotlibcpp.html#adea4113b0ff7f393e18f1a99eb7e1718" target="_top" xlink:title=" ">
<polygon fill="white" stroke="black" points="198,-1534.5 198,-1553.5 289,-1553.5 289,-1534.5 198,-1534.5"/>
<text text-anchor="middle" x="243.5" y="-1541.5" font-family="Helvetica,sans-Serif" font-size="10.00">matplotlibcpp::clf</text>
</a>
</g>
</g>
<!-- Node1&#45;&gt;Node12 -->
<g id="edge11" class="edge">
<title>Node1&#45;&gt;Node12</title>
<path fill="none" stroke="midnightblue" d="M396.2,-1032.46C392.77,-1126.22 376.21,-1450.63 310,-1525 304.49,-1531.19 297.09,-1535.42 289.26,-1538.29"/>
<polygon fill="midnightblue" stroke="midnightblue" points="399.71,-1032.32 396.56,-1022.2 392.72,-1032.08 399.71,-1032.32"/>
</g>
<!-- Node16 -->
<g id="node14" class="node">
<title>Node16</title>
<g id="a_node14"><a xlink:href="namespacematplotlibcpp.html#a62aaaf872c41a9d1b71add44c0cc0447" target="_top" xlink:title=" ">
<polygon fill="white" stroke="black" points="191.5,-1306.5 191.5,-1325.5 295.5,-1325.5 295.5,-1306.5 191.5,-1306.5"/>
<text text-anchor="middle" x="243.5" y="-1313.5" font-family="Helvetica,sans-Serif" font-size="10.00">matplotlibcpp::close</text>
</a>
</g>
</g>
<!-- Node1&#45;&gt;Node16 -->
<g id="edge13" class="edge">
<title>Node1&#45;&gt;Node16</title>
<path fill="none" stroke="midnightblue" d="M397.05,-1032.2C395.74,-1088.05 384.56,-1223.12 310,-1297 305.88,-1301.08 300.94,-1304.3 295.64,-1306.83"/>
<polygon fill="midnightblue" stroke="midnightblue" points="400.55,-1032.18 397.19,-1022.13 393.55,-1032.08 400.55,-1032.18"/>
</g>
<!-- Node17 -->
<g id="node15" class="node">
<title>Node17</title>
<g id="a_node15"><a xlink:href="namespacematplotlibcpp.html#acd9fc5bb7916c735390c2056214b12be" target="_top" xlink:title=" ">
<polygon fill="white" stroke="black" points="193,-1268.5 193,-1287.5 294,-1287.5 294,-1268.5 193,-1268.5"/>
<text text-anchor="middle" x="243.5" y="-1275.5" font-family="Helvetica,sans-Serif" font-size="10.00">matplotlibcpp::draw</text>
</a>
</g>
</g>
<!-- Node1&#45;&gt;Node17 -->
<g id="edge14" class="edge">
<title>Node1&#45;&gt;Node17</title>
<path fill="none" stroke="midnightblue" d="M395.69,-1032.37C391.67,-1082.93 375.46,-1196.74 310,-1259 305.45,-1263.32 299.98,-1266.67 294.16,-1269.26"/>
<polygon fill="midnightblue" stroke="midnightblue" points="399.18,-1032.53 396.39,-1022.31 392.2,-1032.04 399.18,-1032.53"/>
</g>
<!-- Node18 -->
<g id="node16" class="node">
<title>Node18</title>
<g id="a_node16"><a xlink:href="namespacematplotlibcpp.html#a63173b57d788807c1c6860dbc7961e40" target="_top" xlink:title=" ">
<polygon fill="white" stroke="black" points="188.5,-1219 188.5,-1249 298.5,-1249 298.5,-1219 188.5,-1219"/>
<text text-anchor="start" x="196.5" y="-1237" font-family="Helvetica,sans-Serif" font-size="10.00">matplotlibcpp::fignum</text>
<text text-anchor="middle" x="243.5" y="-1226" font-family="Helvetica,sans-Serif" font-size="10.00">_exists</text>
</a>
</g>
</g>
<!-- Node1&#45;&gt;Node18 -->
<g id="edge15" class="edge">
<title>Node1&#45;&gt;Node18</title>
<path fill="none" stroke="midnightblue" d="M392.71,-1032.21C384.26,-1074.39 361.6,-1159.53 310,-1209 305.96,-1212.87 301.25,-1216.16 296.26,-1218.95"/>
<polygon fill="midnightblue" stroke="midnightblue" points="396.18,-1032.69 394.6,-1022.22 389.3,-1031.39 396.18,-1032.69"/>
</g>
<!-- Node19 -->
<g id="node17" class="node">
<title>Node19</title>
<g id="a_node17"><a xlink:href="namespacematplotlibcpp.html#a34e6ea8c8ee6779fe909ecac2ef945c8" target="_top" xlink:title=" ">
<polygon fill="white" stroke="black" points="191.5,-1180.5 191.5,-1199.5 295.5,-1199.5 295.5,-1180.5 191.5,-1180.5"/>
<text text-anchor="middle" x="243.5" y="-1187.5" font-family="Helvetica,sans-Serif" font-size="10.00">matplotlibcpp::figure</text>
</a>
</g>
</g>
<!-- Node1&#45;&gt;Node19 -->
<g id="edge16" class="edge">
<title>Node1&#45;&gt;Node19</title>
<path fill="none" stroke="midnightblue" d="M390.49,-1031.98C379.8,-1068.03 355.07,-1134.36 310,-1171 305.22,-1174.88 299.68,-1177.97 293.89,-1180.43"/>
<polygon fill="midnightblue" stroke="midnightblue" points="393.89,-1032.82 393.25,-1022.24 387.15,-1030.91 393.89,-1032.82"/>
</g>
<!-- Node20 -->
<g id="node18" class="node">
<title>Node20</title>
<g id="a_node18"><a xlink:href="namespacematplotlibcpp.html#a91e91bcdcfc7632a917830bfe3f71ca3" target="_top" xlink:title=" ">
<polygon fill="white" stroke="black" points="179.5,-1142.5 179.5,-1161.5 307.5,-1161.5 307.5,-1142.5 179.5,-1142.5"/>
<text text-anchor="middle" x="243.5" y="-1149.5" font-family="Helvetica,sans-Serif" font-size="10.00">matplotlibcpp::figure_size</text>
</a>
</g>
</g>
<!-- Node1&#45;&gt;Node20 -->
<g id="edge17" class="edge">
<title>Node1&#45;&gt;Node20</title>
<path fill="none" stroke="midnightblue" d="M386.33,-1031.63C372.71,-1060.2 346.46,-1106.73 310,-1133 304.62,-1136.88 298.46,-1139.97 292.12,-1142.43"/>
<polygon fill="midnightblue" stroke="midnightblue" points="389.61,-1032.88 390.62,-1022.34 383.25,-1029.95 389.61,-1032.88"/>
</g>
<!-- Node21 -->
<g id="node19" class="node">
<title>Node21</title>
<g id="a_node19"><a xlink:href="namespacematplotlibcpp.html#a00a57926330764f8490142b3ce06bd2e" target="_top" xlink:title=" ">
<polygon fill="white" stroke="black" points="198.5,-1104.5 198.5,-1123.5 288.5,-1123.5 288.5,-1104.5 198.5,-1104.5"/>
<text text-anchor="middle" x="243.5" y="-1111.5" font-family="Helvetica,sans-Serif" font-size="10.00">matplotlibcpp::fill</text>
</a>
</g>
</g>
<!-- Node1&#45;&gt;Node21 -->
<g id="edge18" class="edge">
<title>Node1&#45;&gt;Node21</title>
<path fill="none" stroke="midnightblue" d="M379.84,-1030.06C363.85,-1050 338.27,-1078.18 310,-1095 303.49,-1098.87 296.14,-1102 288.78,-1104.51"/>
<polygon fill="midnightblue" stroke="midnightblue" points="382.68,-1032.11 386.09,-1022.08 377.17,-1027.8 382.68,-1032.11"/>
</g>
<!-- Node22 -->
<g id="node20" class="node">
<title>Node22</title>
<g id="a_node20"><a xlink:href="namespacematplotlibcpp.html#a928fb4c83f29554b1b37aeea7af9bb73" target="_top" xlink:title=" ">
<polygon fill="white" stroke="black" points="198.5,-1055 198.5,-1085 288.5,-1085 288.5,-1055 198.5,-1055"/>
<text text-anchor="start" x="206.5" y="-1073" font-family="Helvetica,sans-Serif" font-size="10.00">matplotlibcpp::fill</text>
<text text-anchor="middle" x="243.5" y="-1062" font-family="Helvetica,sans-Serif" font-size="10.00">_between</text>
</a>
</g>
</g>
<!-- Node1&#45;&gt;Node22 -->
<g id="edge19" class="edge">
<title>Node1&#45;&gt;Node22</title>
<path fill="none" stroke="midnightblue" d="M353.91,-1026.3C339.96,-1032.42 324.38,-1039.12 310,-1045 301.89,-1048.32 293.16,-1051.75 284.8,-1054.96"/>
<polygon fill="midnightblue" stroke="midnightblue" points="355.54,-1029.41 363.28,-1022.17 352.72,-1023 355.54,-1029.41"/>
</g>
<!-- Node23 -->
<g id="node21" class="node">
<title>Node23</title>
<g id="a_node21"><a xlink:href="namespacematplotlibcpp.html#ae0bbf80e73099a91df28e4fb871b166a" target="_top" xlink:title=" ">
<polygon fill="white" stroke="black" points="195.5,-1016.5 195.5,-1035.5 291.5,-1035.5 291.5,-1016.5 195.5,-1016.5"/>
<text text-anchor="middle" x="243.5" y="-1023.5" font-family="Helvetica,sans-Serif" font-size="10.00">matplotlibcpp::grid</text>
</a>
</g>
</g>
<!-- Node1&#45;&gt;Node23 -->
<g id="edge20" class="edge">
<title>Node1&#45;&gt;Node23</title>
<path fill="none" stroke="midnightblue" d="M335.78,-1014.63C321.1,-1016.46 305.65,-1018.38 291.71,-1020.12"/>
<polygon fill="midnightblue" stroke="midnightblue" points="336.3,-1018.09 345.8,-1013.38 335.44,-1011.14 336.3,-1018.09"/>
</g>
<!-- Node24 -->
<g id="node22" class="node">
<title>Node24</title>
<g id="a_node22"><a xlink:href="namespacematplotlibcpp.html#aeaf80309ad11083ec57bd6b246f6e4dc" target="_top" xlink:title=" ">
<polygon fill="white" stroke="black" points="195.5,-978.5 195.5,-997.5 291.5,-997.5 291.5,-978.5 195.5,-978.5"/>
<text text-anchor="middle" x="243.5" y="-985.5" font-family="Helvetica,sans-Serif" font-size="10.00">matplotlibcpp::hist</text>
</a>
</g>
</g>
<!-- Node1&#45;&gt;Node24 -->
<g id="edge21" class="edge">
<title>Node1&#45;&gt;Node24</title>
<path fill="none" stroke="midnightblue" d="M335.78,-999.37C321.1,-997.54 305.65,-995.62 291.71,-993.88"/>
<polygon fill="midnightblue" stroke="midnightblue" points="335.44,-1002.86 345.8,-1000.62 336.3,-995.91 335.44,-1002.86"/>
</g>
<!-- Node25 -->
<g id="node23" class="node">
<title>Node25</title>
<g id="a_node23"><a xlink:href="namespacematplotlibcpp_1_1detail.html#ab78ea1d46cdefdf8037d2a2c0bcfaedb" target="_top" xlink:title=" ">
<polygon fill="white" stroke="black" points="191.5,-929 191.5,-959 295.5,-959 295.5,-929 191.5,-929"/>
<text text-anchor="start" x="199.5" y="-947" font-family="Helvetica,sans-Serif" font-size="10.00">matplotlibcpp::detail</text>
<text text-anchor="middle" x="243.5" y="-936" font-family="Helvetica,sans-Serif" font-size="10.00">::imshow</text>
</a>
</g>
</g>
<!-- Node1&#45;&gt;Node25 -->
<g id="edge22" class="edge">
<title>Node1&#45;&gt;Node25</title>
<path fill="none" stroke="midnightblue" d="M353.91,-987.7C339.96,-981.58 324.38,-974.88 310,-969 301.89,-965.68 293.16,-962.25 284.8,-959.04"/>
<polygon fill="midnightblue" stroke="midnightblue" points="352.72,-991 363.28,-991.83 355.54,-984.59 352.72,-991"/>
</g>
<!-- Node26 -->
<g id="node24" class="node">
<title>Node26</title>
<g id="a_node24"><a xlink:href="namespacematplotlibcpp.html#a9bddb5276ddc48f4ff9c2b36b98db71a" target="_top" xlink:title=" ">
<polygon fill="white" stroke="black" points="197,-890.5 197,-909.5 290,-909.5 290,-890.5 197,-890.5"/>
<text text-anchor="middle" x="243.5" y="-897.5" font-family="Helvetica,sans-Serif" font-size="10.00">matplotlibcpp::ion</text>
</a>
</g>
</g>
<!-- Node1&#45;&gt;Node26 -->
<g id="edge23" class="edge">
<title>Node1&#45;&gt;Node26</title>
<path fill="none" stroke="midnightblue" d="M379.45,-983.96C363.37,-964.34 337.88,-936.74 310,-920 302.87,-915.71 294.73,-912.28 286.69,-909.55"/>
<polygon fill="midnightblue" stroke="midnightblue" points="376.77,-986.21 385.75,-991.83 382.23,-981.84 376.77,-986.21"/>
</g>
<!-- Node27 -->
<g id="node25" class="node">
<title>Node27</title>
<g id="a_node25"><a xlink:href="namespacematplotlibcpp.html#a916bb5a9dc5f6a24877cc027bf4ee624" target="_top" xlink:title=" ">
<polygon fill="white" stroke="black" points="189,-1496.5 189,-1515.5 298,-1515.5 298,-1496.5 189,-1496.5"/>
<text text-anchor="middle" x="243.5" y="-1503.5" font-family="Helvetica,sans-Serif" font-size="10.00">matplotlibcpp::legend</text>
</a>
</g>
</g>
<!-- Node1&#45;&gt;Node27 -->
<g id="edge24" class="edge">
<title>Node1&#45;&gt;Node27</title>
<path fill="none" stroke="midnightblue" d="M395.84,-1032.34C391.25,-1121.45 371.53,-1418.78 310,-1487 306.51,-1490.87 302.29,-1493.97 297.68,-1496.45"/>
<polygon fill="midnightblue" stroke="midnightblue" points="399.34,-1032.46 396.34,-1022.3 392.35,-1032.12 399.34,-1032.46"/>
</g>
<!-- Node28 -->
<g id="node26" class="node">
<title>Node28</title>
<g id="a_node26"><a xlink:href="namespacematplotlibcpp.html#a6cfa8cba00f52a2c4614fa7a8a0bcd2b" target="_top" xlink:title=" ">
<polygon fill="white" stroke="black" points="190.5,-852.5 190.5,-871.5 296.5,-871.5 296.5,-852.5 190.5,-852.5"/>
<text text-anchor="middle" x="243.5" y="-859.5" font-family="Helvetica,sans-Serif" font-size="10.00">matplotlibcpp::loglog</text>
</a>
</g>
</g>
<!-- Node1&#45;&gt;Node28 -->
<g id="edge26" class="edge">
<title>Node1&#45;&gt;Node28</title>
<path fill="none" stroke="midnightblue" d="M386.33,-982.37C372.71,-953.8 346.46,-907.27 310,-881 304.62,-877.12 298.46,-874.03 292.12,-871.57"/>
<polygon fill="midnightblue" stroke="midnightblue" points="383.25,-984.05 390.62,-991.66 389.61,-981.12 383.25,-984.05"/>
</g>
<!-- Node29 -->
<g id="node27" class="node">
<title>Node29</title>
<g id="a_node27"><a xlink:href="namespacematplotlibcpp.html#a468096a42e46d0a26e8a237ffb24caca" target="_top" xlink:title=" ">
<polygon fill="white" stroke="black" points="186,-814.5 186,-833.5 301,-833.5 301,-814.5 186,-814.5"/>
<text text-anchor="middle" x="243.5" y="-821.5" font-family="Helvetica,sans-Serif" font-size="10.00">matplotlibcpp::margins</text>
</a>
</g>
</g>
<!-- Node1&#45;&gt;Node29 -->
<g id="edge27" class="edge">
<title>Node1&#45;&gt;Node29</title>
<path fill="none" stroke="midnightblue" d="M390.49,-982.02C379.8,-945.97 355.07,-879.64 310,-843 305.22,-839.12 299.68,-836.03 293.89,-833.57"/>
<polygon fill="midnightblue" stroke="midnightblue" points="387.15,-983.09 393.25,-991.76 393.89,-981.18 387.15,-983.09"/>
</g>
<!-- Node30 -->
<g id="node28" class="node">
<title>Node30</title>
<g id="a_node28"><a xlink:href="namespacematplotlibcpp.html#a2851ef02b92b32ee7d3dd8f8fd065ae3" target="_top" xlink:title=" ">
<polygon fill="white" stroke="black" points="178,-776.5 178,-795.5 309,-795.5 309,-776.5 178,-776.5"/>
<text text-anchor="middle" x="243.5" y="-783.5" font-family="Helvetica,sans-Serif" font-size="10.00">matplotlibcpp::named_hist</text>
</a>
</g>
</g>
<!-- Node1&#45;&gt;Node30 -->
<g id="edge28" class="edge">
<title>Node1&#45;&gt;Node30</title>
<path fill="none" stroke="midnightblue" d="M393.2,-981.64C385.43,-938.87 363.72,-852.42 310,-805 305.65,-801.16 300.57,-798.09 295.19,-795.65"/>
<polygon fill="midnightblue" stroke="midnightblue" points="389.79,-982.49 394.92,-991.76 396.69,-981.32 389.79,-982.49"/>
</g>
<!-- Node31 -->
<g id="node29" class="node">
<title>Node31</title>
<g id="a_node29"><a xlink:href="namespacematplotlibcpp.html#a9482856fd165f21001420e712d0d2312" target="_top" xlink:title=" ">
<polygon fill="white" stroke="black" points="188.5,-727 188.5,-757 298.5,-757 298.5,-727 188.5,-727"/>
<text text-anchor="start" x="196.5" y="-745" font-family="Helvetica,sans-Serif" font-size="10.00">matplotlibcpp::named</text>
<text text-anchor="middle" x="243.5" y="-734" font-family="Helvetica,sans-Serif" font-size="10.00">_loglog</text>
</a>
</g>
</g>
<!-- Node1&#45;&gt;Node31 -->
<g id="edge29" class="edge">
<title>Node1&#45;&gt;Node31</title>
<path fill="none" stroke="midnightblue" d="M394.68,-981.61C388.96,-933.39 369.96,-827.98 310,-767 306.25,-763.18 301.85,-759.94 297.14,-757.18"/>
<polygon fill="midnightblue" stroke="midnightblue" points="391.23,-982.22 395.79,-991.78 398.18,-981.46 391.23,-982.22"/>
</g>
<!-- Node32 -->
<g id="node30" class="node">
<title>Node32</title>
<g id="a_node30"><a xlink:href="namespacematplotlibcpp.html#a6461c03041d9947a0e3b3593b5b72c95" target="_top" xlink:title=" ">
<polygon fill="white" stroke="black" points="178,-1458.5 178,-1477.5 309,-1477.5 309,-1458.5 178,-1458.5"/>
<text text-anchor="middle" x="243.5" y="-1465.5" font-family="Helvetica,sans-Serif" font-size="10.00">matplotlibcpp::named_plot</text>
</a>
</g>
</g>
<!-- Node1&#45;&gt;Node32 -->
<g id="edge30" class="edge">
<title>Node1&#45;&gt;Node32</title>
<path fill="none" stroke="midnightblue" d="M395.42,-1032.22C389.62,-1116.55 366.87,-1386.9 310,-1449 306.48,-1452.84 302.24,-1455.93 297.62,-1458.4"/>
<polygon fill="midnightblue" stroke="midnightblue" points="398.92,-1032.23 396.1,-1022.02 391.94,-1031.76 398.92,-1032.23"/>
</g>
<!-- Node33 -->
<g id="node31" class="node">
<title>Node33</title>
<g id="a_node31"><a xlink:href="namespacematplotlibcpp.html#ae32c097d32b89445a995727d05446843" target="_top" xlink:title=" ">
<polygon fill="white" stroke="black" points="188.5,-678 188.5,-708 298.5,-708 298.5,-678 188.5,-678"/>
<text text-anchor="start" x="196.5" y="-696" font-family="Helvetica,sans-Serif" font-size="10.00">matplotlibcpp::named</text>
<text text-anchor="middle" x="243.5" y="-685" font-family="Helvetica,sans-Serif" font-size="10.00">_semilogx</text>
</a>
</g>
</g>
<!-- Node1&#45;&gt;Node33 -->
<g id="edge32" class="edge">
<title>Node1&#45;&gt;Node33</title>
<path fill="none" stroke="midnightblue" d="M396.54,-981.59C394.17,-926.37 380.95,-794.27 310,-718 306.44,-714.17 302.22,-710.92 297.67,-708.16"/>
<polygon fill="midnightblue" stroke="midnightblue" points="393.05,-981.99 396.89,-991.86 400.04,-981.75 393.05,-981.99"/>
</g>
<!-- Node34 -->
<g id="node32" class="node">
<title>Node34</title>
<g id="a_node32"><a xlink:href="namespacematplotlibcpp.html#a529c059f3fca364b9fcb3b2e09cce36b" target="_top" xlink:title=" ">
<polygon fill="white" stroke="black" points="188.5,-629 188.5,-659 298.5,-659 298.5,-629 188.5,-629"/>
<text text-anchor="start" x="196.5" y="-647" font-family="Helvetica,sans-Serif" font-size="10.00">matplotlibcpp::named</text>
<text text-anchor="middle" x="243.5" y="-636" font-family="Helvetica,sans-Serif" font-size="10.00">_semilogy</text>
</a>
</g>
</g>
<!-- Node1&#45;&gt;Node34 -->
<g id="edge33" class="edge">
<title>Node1&#45;&gt;Node34</title>
<path fill="none" stroke="midnightblue" d="M397.89,-981.65C398.66,-920.06 392.08,-760.89 310,-669 306.51,-665.1 302.35,-661.8 297.84,-659.01"/>
<polygon fill="midnightblue" stroke="midnightblue" points="394.38,-981.9 397.68,-991.97 401.38,-982.05 394.38,-981.9"/>
</g>
<!-- Node35 -->
<g id="node33" class="node">
<title>Node35</title>
<g id="a_node33"><a xlink:href="structmatplotlibcpp_1_1detail_1_1plot__impl_3_01std_1_1false__type_01_4.html#ab430540b63185e4a76526b47d3b195e5" target="_top" xlink:title=" ">
<polygon fill="white" stroke="black" points="188,-568.5 188,-609.5 299,-609.5 299,-568.5 188,-568.5"/>
<text text-anchor="start" x="196" y="-597.5" font-family="Helvetica,sans-Serif" font-size="10.00">matplotlibcpp::detail</text>
<text text-anchor="start" x="196" y="-586.5" font-family="Helvetica,sans-Serif" font-size="10.00">::plot_impl&lt; std::false</text>
<text text-anchor="middle" x="243.5" y="-575.5" font-family="Helvetica,sans-Serif" font-size="10.00">_type &gt;::operator()</text>
</a>
</g>
</g>
<!-- Node1&#45;&gt;Node35 -->
<g id="edge34" class="edge">
<title>Node1&#45;&gt;Node35</title>
<path fill="none" stroke="midnightblue" d="M394.22,-981.76C385.36,-905.14 355.63,-677.01 310,-620 306.86,-616.07 303.09,-612.61 298.99,-609.57"/>
<polygon fill="midnightblue" stroke="midnightblue" points="390.77,-982.39 395.38,-991.93 397.73,-981.59 390.77,-982.39"/>
</g>
<!-- Node36 -->
<g id="node34" class="node">
<title>Node36</title>
<g id="a_node34"><a xlink:href="namespacematplotlibcpp.html#aa5bc4092c9e2acbb2c6ec4efd024cf2f" target="_top" xlink:title=" ">
<polygon fill="white" stroke="black" points="190,-1420.5 190,-1439.5 297,-1439.5 297,-1420.5 190,-1420.5"/>
<text text-anchor="middle" x="243.5" y="-1427.5" font-family="Helvetica,sans-Serif" font-size="10.00">matplotlibcpp::pause</text>
</a>
</g>
</g>
<!-- Node1&#45;&gt;Node36 -->
<g id="edge35" class="edge">
<title>Node1&#45;&gt;Node36</title>
<path fill="none" stroke="midnightblue" d="M394.92,-1032.12C387.84,-1111.5 362.21,-1354.99 310,-1411 306.37,-1414.9 301.99,-1418.01 297.24,-1420.5"/>
<polygon fill="midnightblue" stroke="midnightblue" points="398.41,-1032.31 395.79,-1022.04 391.44,-1031.7 398.41,-1032.31"/>
</g>
<!-- Node37 -->
<g id="node35" class="node">
<title>Node37</title>
<g id="a_node35"><a xlink:href="classmatplotlibcpp_1_1_plot.html#a6ab809f4fc44d6e4eadb100cba5b519e" target="_top" xlink:title=" ">
<polygon fill="white" stroke="black" points="194.5,-519 194.5,-549 292.5,-549 292.5,-519 194.5,-519"/>
<text text-anchor="start" x="202.5" y="-537" font-family="Helvetica,sans-Serif" font-size="10.00">matplotlibcpp::Plot</text>
<text text-anchor="middle" x="243.5" y="-526" font-family="Helvetica,sans-Serif" font-size="10.00">::Plot</text>
</a>
</g>
</g>
<!-- Node1&#45;&gt;Node37 -->
<g id="edge37" class="edge">
<title>Node1&#45;&gt;Node37</title>
<path fill="none" stroke="midnightblue" d="M395.29,-981.88C389.04,-897.27 364.95,-624.37 310,-559 305.3,-553.41 299.21,-549.07 292.63,-545.69"/>
<polygon fill="midnightblue" stroke="midnightblue" points="391.8,-982.16 396,-991.88 398.78,-981.66 391.8,-982.16"/>
</g>
<!-- Node38 -->
<g id="node36" class="node">
<title>Node38</title>
<g id="a_node36"><a xlink:href="namespacematplotlibcpp.html#a06ac86c6fecaa5a9b3fb566bc31d6a3b" target="_top" xlink:title=" ">
<polygon fill="white" stroke="red" points="195.5,-480.5 195.5,-499.5 291.5,-499.5 291.5,-480.5 195.5,-480.5"/>
<text text-anchor="middle" x="243.5" y="-487.5" font-family="Helvetica,sans-Serif" font-size="10.00">matplotlibcpp::plot</text>
</a>
</g>
</g>
<!-- Node1&#45;&gt;Node38 -->
<g id="edge38" class="edge">
<title>Node1&#45;&gt;Node38</title>
<path fill="none" stroke="midnightblue" d="M395.97,-981.41C391.76,-890.03 373.07,-581.35 310,-510 305.04,-504.39 298.55,-500.33 291.59,-497.39"/>
<polygon fill="midnightblue" stroke="midnightblue" points="392.48,-981.85 396.42,-991.68 399.47,-981.54 392.48,-981.85"/>
</g>
<!-- Node40 -->
<g id="node37" class="node">
<title>Node40</title>
<g id="a_node37"><a xlink:href="namespacematplotlibcpp.html#ad0a8762f877a67f0253b1cb316ca55bc" target="_top" xlink:title=" ">
<polygon fill="white" stroke="black" points="193,-442.5 193,-461.5 294,-461.5 294,-442.5 193,-442.5"/>
<text text-anchor="middle" x="243.5" y="-449.5" font-family="Helvetica,sans-Serif" font-size="10.00">matplotlibcpp::save</text>
</a>
</g>
</g>
<!-- Node1&#45;&gt;Node40 -->
<g id="edge41" class="edge">
<title>Node1&#45;&gt;Node40</title>
<path fill="none" stroke="midnightblue" d="M396.36,-981.59C393.46,-885.83 378.45,-548.32 310,-471 305.68,-466.12 300.2,-462.47 294.25,-459.73"/>
<polygon fill="midnightblue" stroke="midnightblue" points="392.87,-981.9 396.66,-991.8 399.87,-981.7 392.87,-981.9"/>
</g>
<!-- Node41 -->
<g id="node38" class="node">
<title>Node41</title>
<g id="a_node38"><a xlink:href="namespacematplotlibcpp.html#ad25d4429577dbdd8c087a0ba6869840b" target="_top" xlink:title=" ">
<polygon fill="white" stroke="black" points="184,-404.5 184,-423.5 303,-423.5 303,-404.5 184,-404.5"/>
<text text-anchor="middle" x="243.5" y="-411.5" font-family="Helvetica,sans-Serif" font-size="10.00">matplotlibcpp::semilogx</text>
</a>
</g>
</g>
<!-- Node1&#45;&gt;Node41 -->
<g id="edge42" class="edge">
<title>Node1&#45;&gt;Node41</title>
<path fill="none" stroke="midnightblue" d="M396.67,-981.75C394.85,-881.97 383.22,-516.58 310,-433 306.64,-429.17 302.57,-426.09 298.11,-423.62"/>
<polygon fill="midnightblue" stroke="midnightblue" points="393.17,-981.88 396.83,-991.82 400.17,-981.76 393.17,-981.88"/>
</g>
<!-- Node42 -->
<g id="node39" class="node">
<title>Node42</title>
<g id="a_node39"><a xlink:href="namespacematplotlibcpp.html#a4dce9b4c1c16c1dab0cffd11588d4db8" target="_top" xlink:title=" ">
<polygon fill="white" stroke="black" points="184,-366.5 184,-385.5 303,-385.5 303,-366.5 184,-366.5"/>
<text text-anchor="middle" x="243.5" y="-373.5" font-family="Helvetica,sans-Serif" font-size="10.00">matplotlibcpp::semilogy</text>
</a>
</g>
</g>
<!-- Node1&#45;&gt;Node42 -->
<g id="edge43" class="edge">
<title>Node1&#45;&gt;Node42</title>
<path fill="none" stroke="midnightblue" d="M396.93,-981.78C396.14,-877.97 387.97,-484.83 310,-395 306.66,-391.16 302.6,-388.07 298.15,-385.59"/>
<polygon fill="midnightblue" stroke="midnightblue" points="393.43,-981.97 396.99,-991.95 400.43,-981.93 393.43,-981.97"/>
</g>
<!-- Node43 -->
<g id="node40" class="node">
<title>Node43</title>
<g id="a_node40"><a xlink:href="namespacematplotlibcpp.html#abed6306bfaf492081ded0df72c366e4e" target="_top" xlink:title=" ">
<polygon fill="white" stroke="black" points="196.5,-279 196.5,-309 290.5,-309 290.5,-279 196.5,-279"/>
<text text-anchor="start" x="204.5" y="-297" font-family="Helvetica,sans-Serif" font-size="10.00">matplotlibcpp::set</text>
<text text-anchor="middle" x="243.5" y="-286" font-family="Helvetica,sans-Serif" font-size="10.00">_aspect</text>
</a>
</g>
</g>
<!-- Node1&#45;&gt;Node43 -->
<g id="edge44" class="edge">
<title>Node1&#45;&gt;Node43</title>
<path fill="none" stroke="midnightblue" d="M396.97,-981.72C396.39,-871.25 389.07,-431.54 310,-324 305.04,-317.25 298.18,-311.98 290.77,-307.87"/>
<polygon fill="midnightblue" stroke="midnightblue" points="393.47,-981.93 397.01,-991.91 400.47,-981.9 393.47,-981.93"/>
</g>
<!-- Node44 -->
<g id="node41" class="node">
<title>Node44</title>
<g id="a_node41"><a xlink:href="namespacematplotlibcpp.html#a2fc05d3a606ce68e7a72c9e4ed7f3556" target="_top" xlink:title=" ">
<polygon fill="white" stroke="black" points="23.5,-301 23.5,-331 117.5,-331 117.5,-301 23.5,-301"/>
<text text-anchor="start" x="31.5" y="-319" font-family="Helvetica,sans-Serif" font-size="10.00">matplotlibcpp::set</text>
<text text-anchor="middle" x="70.5" y="-308" font-family="Helvetica,sans-Serif" font-size="10.00">_aspect_equal</text>
</a>
</g>
</g>
<!-- Node1&#45;&gt;Node44 -->
<g id="edge46" class="edge">
<title>Node1&#45;&gt;Node44</title>
<path fill="none" stroke="midnightblue" d="M397.43,-981.72C398.72,-873.21 398.02,-448.36 310,-357 284.13,-330.15 179.48,-320.82 117.73,-317.63"/>
<polygon fill="midnightblue" stroke="midnightblue" points="393.93,-981.7 397.29,-991.75 400.93,-981.8 393.93,-981.7"/>
</g>
<!-- Node45 -->
<g id="node42" class="node">
<title>Node45</title>
<g id="a_node42"><a xlink:href="namespacematplotlibcpp.html#ac7b2ae71a81811dfb69bcef95ee8390d" target="_top" xlink:title=" ">
<polygon fill="white" stroke="black" points="191.5,-1382.5 191.5,-1401.5 295.5,-1401.5 295.5,-1382.5 191.5,-1382.5"/>
<text text-anchor="middle" x="243.5" y="-1389.5" font-family="Helvetica,sans-Serif" font-size="10.00">matplotlibcpp::show</text>
</a>
</g>
</g>
<!-- Node1&#45;&gt;Node45 -->
<g id="edge47" class="edge">
<title>Node1&#45;&gt;Node45</title>
<path fill="none" stroke="midnightblue" d="M394.25,-1032.66C385.72,-1107.47 357.44,-1323.17 310,-1373 305.92,-1377.29 300.93,-1380.62 295.55,-1383.22"/>
<polygon fill="midnightblue" stroke="midnightblue" points="397.77,-1032.62 395.4,-1022.3 390.82,-1031.85 397.77,-1032.62"/>
</g>
<!-- Node46 -->
<g id="node43" class="node">
<title>Node46</title>
<g id="a_node43"><a xlink:href="namespacematplotlibcpp.html#ae3c91bdfbe011133346dcc4f31ec5932" target="_top" xlink:title=" ">
<polygon fill="white" stroke="red" points="192.5,-240.5 192.5,-259.5 294.5,-259.5 294.5,-240.5 192.5,-240.5"/>
<text text-anchor="middle" x="243.5" y="-247.5" font-family="Helvetica,sans-Serif" font-size="10.00">matplotlibcpp::stem</text>
</a>
</g>
</g>
<!-- Node1&#45;&gt;Node46 -->
<g id="edge49" class="edge">
<title>Node1&#45;&gt;Node46</title>
<path fill="none" stroke="midnightblue" d="M395.65,-981.57C388.9,-858.09 357.16,-324.66 310,-269 305.87,-264.12 300.56,-260.46 294.77,-257.71"/>
<polygon fill="midnightblue" stroke="midnightblue" points="392.18,-982.11 396.21,-991.91 399.17,-981.74 392.18,-982.11"/>
</g>
<!-- Node48 -->
<g id="node44" class="node">
<title>Node48</title>
<g id="a_node44"><a xlink:href="namespacematplotlibcpp.html#a78f4b6d50e52d1782d52df692232f4e1" target="_top" xlink:title=" ">
<polygon fill="white" stroke="black" points="187.5,-1344.5 187.5,-1363.5 299.5,-1363.5 299.5,-1344.5 187.5,-1344.5"/>
<text text-anchor="middle" x="243.5" y="-1351.5" font-family="Helvetica,sans-Serif" font-size="10.00">matplotlibcpp::subplot</text>
</a>
</g>
</g>
<!-- Node1&#45;&gt;Node48 -->
<g id="edge50" class="edge">
<title>Node1&#45;&gt;Node48</title>
<path fill="none" stroke="midnightblue" d="M393.54,-1032.3C383.6,-1101.39 352.89,-1291.1 310,-1335 306.19,-1338.9 301.64,-1342 296.73,-1344.48"/>
<polygon fill="midnightblue" stroke="midnightblue" points="397.02,-1032.67 394.95,-1022.28 390.09,-1031.69 397.02,-1032.67"/>
</g>
<!-- Node49 -->
<g id="node45" class="node">
<title>Node49</title>
<g id="a_node45"><a xlink:href="namespacematplotlibcpp.html#abaecdb14580aa8c7945f35bcffd7fa02" target="_top" xlink:title=" ">
<polygon fill="white" stroke="black" points="177,-202.5 177,-221.5 310,-221.5 310,-202.5 177,-202.5"/>
<text text-anchor="middle" x="243.5" y="-209.5" font-family="Helvetica,sans-Serif" font-size="10.00">matplotlibcpp::subplot2grid</text>
</a>
</g>
</g>
<!-- Node1&#45;&gt;Node49 -->
<g id="edge52" class="edge">
<title>Node1&#45;&gt;Node49</title>
<path fill="none" stroke="midnightblue" d="M395.8,-981.48C389.61,-853.99 359.54,-289.81 310,-231 306.8,-227.2 302.88,-224.13 298.57,-221.66"/>
<polygon fill="midnightblue" stroke="midnightblue" points="392.32,-981.99 396.3,-991.81 399.32,-981.65 392.32,-981.99"/>
</g>
<!-- Node50 -->
<g id="node46" class="node">
<title>Node50</title>
<g id="a_node46"><a xlink:href="namespacematplotlibcpp.html#ad765633aecb8e1000c8ee64783d47dd7" target="_top" xlink:title=" ">
<polygon fill="white" stroke="black" points="195,-164.5 195,-183.5 292,-183.5 292,-164.5 195,-164.5"/>
<text text-anchor="middle" x="243.5" y="-171.5" font-family="Helvetica,sans-Serif" font-size="10.00">matplotlibcpp::text</text>
</a>
</g>
</g>
<!-- Node1&#45;&gt;Node50 -->
<g id="edge53" class="edge">
<title>Node1&#45;&gt;Node50</title>
<path fill="none" stroke="midnightblue" d="M395.94,-981.48C390.3,-850.25 361.94,-254.99 310,-193 305.29,-187.37 299.01,-183.36 292.21,-180.5"/>
<polygon fill="midnightblue" stroke="midnightblue" points="392.46,-981.91 396.38,-991.75 399.45,-981.61 392.46,-981.91"/>
</g>
<!-- Node51 -->
<g id="node47" class="node">
<title>Node51</title>
<g id="a_node47"><a xlink:href="namespacematplotlibcpp.html#a14e2b6e595e057f553ef7b14ddcda82a" target="_top" xlink:title=" ">
<polygon fill="white" stroke="black" points="194,-115 194,-145 293,-145 293,-115 194,-115"/>
<text text-anchor="start" x="202" y="-133" font-family="Helvetica,sans-Serif" font-size="10.00">matplotlibcpp::tight</text>
<text text-anchor="middle" x="243.5" y="-122" font-family="Helvetica,sans-Serif" font-size="10.00">_layout</text>
</a>
</g>
</g>
<!-- Node1&#45;&gt;Node51 -->
<g id="edge55" class="edge">
<title>Node1&#45;&gt;Node51</title>
<path fill="none" stroke="midnightblue" d="M395.98,-981.65C390.37,-847.34 361.63,-222.36 310,-155 305.56,-149.2 299.6,-144.75 293.08,-141.33"/>
<polygon fill="midnightblue" stroke="midnightblue" points="392.49,-981.95 396.4,-991.79 399.48,-981.66 392.49,-981.95"/>
</g>
<!-- Node52 -->
<g id="node48" class="node">
<title>Node52</title>
<g id="a_node48"><a xlink:href="namespacematplotlibcpp.html#aca0fdbeae2fd86ab7291661f154f83ff" target="_top" xlink:title=" ">
<polygon fill="white" stroke="black" points="193,-76.5 193,-95.5 294,-95.5 294,-76.5 193,-76.5"/>
<text text-anchor="middle" x="243.5" y="-83.5" font-family="Helvetica,sans-Serif" font-size="10.00">matplotlibcpp::xkcd</text>
</a>
</g>
</g>
<!-- Node1&#45;&gt;Node52 -->
<g id="edge56" class="edge">
<title>Node1&#45;&gt;Node52</title>
<path fill="none" stroke="midnightblue" d="M396.24,-981.86C391.8,-843.09 367.56,-174.42 310,-105 305.77,-99.9 300.25,-96.12 294.22,-93.32"/>
<polygon fill="midnightblue" stroke="midnightblue" points="392.74,-982.06 396.55,-991.95 399.74,-981.84 392.74,-982.06"/>
</g>
<!-- Node53 -->
<g id="node49" class="node">
<title>Node53</title>
<g id="a_node49"><a xlink:href="namespacematplotlibcpp.html#a712cd34472b3687668048899bee4cdbf" target="_top" xlink:title=" ">
<polygon fill="white" stroke="black" points="194.5,-38.5 194.5,-57.5 292.5,-57.5 292.5,-38.5 194.5,-38.5"/>
<text text-anchor="middle" x="243.5" y="-45.5" font-family="Helvetica,sans-Serif" font-size="10.00">matplotlibcpp::xlim</text>
</a>
</g>
</g>
<!-- Node1&#45;&gt;Node53 -->
<g id="edge57" class="edge">
<title>Node1&#45;&gt;Node53</title>
<path fill="none" stroke="midnightblue" d="M396.32,-981.26C392.32,-837.68 369.89,-139.51 310,-67 305.4,-61.43 299.27,-57.44 292.61,-54.58"/>
<polygon fill="midnightblue" stroke="midnightblue" points="392.84,-981.78 396.61,-991.68 399.83,-981.59 392.84,-981.78"/>
</g>
<!-- Node54 -->
<g id="node50" class="node">
<title>Node54</title>
<g id="a_node50"><a xlink:href="namespacematplotlibcpp.html#a4645651772918e2dad7d36d9eeaeaefa" target="_top" xlink:title=" ">
<polygon fill="white" stroke="black" points="194.5,-0.5 194.5,-19.5 292.5,-19.5 292.5,-0.5 194.5,-0.5"/>
<text text-anchor="middle" x="243.5" y="-7.5" font-family="Helvetica,sans-Serif" font-size="10.00">matplotlibcpp::ylim</text>
</a>
</g>
</g>
<!-- Node1&#45;&gt;Node54 -->
<g id="edge58" class="edge">
<title>Node1&#45;&gt;Node54</title>
<path fill="none" stroke="midnightblue" d="M396.43,-981.61C392.92,-835.4 372.35,-104.76 310,-29 305.41,-23.42 299.29,-19.43 292.63,-16.57"/>
<polygon fill="midnightblue" stroke="midnightblue" points="392.94,-981.91 396.67,-991.82 399.93,-981.74 392.94,-981.91"/>
</g>
<!-- Node5&#45;&gt;Node6 -->
<g id="edge5" class="edge">
<title>Node5&#45;&gt;Node6</title>
<path fill="none" stroke="midnightblue" d="M185.91,-1783.58C163.94,-1788.08 139.09,-1793.17 118.17,-1797.45"/>
<polygon fill="midnightblue" stroke="midnightblue" points="186.68,-1787 195.77,-1781.56 185.27,-1780.14 186.68,-1787"/>
</g>
<!-- Node5&#45;&gt;Node7 -->
<g id="edge6" class="edge">
<title>Node5&#45;&gt;Node7</title>
<path fill="none" stroke="midnightblue" d="M184.44,-1767.25C163.01,-1765.49 138.99,-1763.53 118.64,-1761.86"/>
<polygon fill="midnightblue" stroke="midnightblue" points="184.16,-1770.74 194.41,-1768.06 184.73,-1763.76 184.16,-1770.74"/>
</g>
<!-- Node5&#45;&gt;Node8 -->
<g id="edge7" class="edge">
<title>Node5&#45;&gt;Node8</title>
<path fill="none" stroke="midnightblue" d="M210.75,-1758.44C181.29,-1745.87 137.53,-1727.19 106.95,-1714.13"/>
<polygon fill="midnightblue" stroke="midnightblue" points="209.57,-1761.75 220.14,-1762.46 212.32,-1755.31 209.57,-1761.75"/>
</g>
<!-- Node13 -->
<g id="node13" class="node">
<title>Node13</title>
<g id="a_node13"><a xlink:href="classplot_master.html#a31c67a01be59bdb9ebf3bf86bf93bf32" target="_top" xlink:title=" ">
<polygon fill="white" stroke="red" points="0,-1439.5 0,-1458.5 141,-1458.5 141,-1439.5 0,-1439.5"/>
<text text-anchor="middle" x="70.5" y="-1446.5" font-family="Helvetica,sans-Serif" font-size="10.00">plotMaster::plotLiveFirstAxis</text>
</a>
</g>
</g>
<!-- Node12&#45;&gt;Node13 -->
<g id="edge12" class="edge">
<title>Node12&#45;&gt;Node13</title>
<path fill="none" stroke="midnightblue" d="M191.73,-1531.17C186.66,-1529.33 181.67,-1527.28 177,-1525 139.05,-1506.51 100.25,-1474.48 82.09,-1458.56"/>
<polygon fill="midnightblue" stroke="midnightblue" points="190.91,-1534.59 201.51,-1534.45 193.14,-1527.95 190.91,-1534.59"/>
</g>
<!-- Node27&#45;&gt;Node13 -->
<g id="edge25" class="edge">
<title>Node27&#45;&gt;Node13</title>
<path fill="none" stroke="midnightblue" d="M198.41,-1493.63C191.23,-1491.49 183.89,-1489.24 177,-1487 149.23,-1477.98 117.78,-1466.48 96.5,-1458.51"/>
<polygon fill="midnightblue" stroke="midnightblue" points="197.46,-1496.99 208.04,-1496.45 199.43,-1490.28 197.46,-1496.99"/>
</g>
<!-- Node32&#45;&gt;Node13 -->
<g id="edge31" class="edge">
<title>Node32&#45;&gt;Node13</title>
<path fill="none" stroke="midnightblue" d="M167.89,-1459.71C158.99,-1458.72 149.92,-1457.71 141.09,-1456.73"/>
<polygon fill="midnightblue" stroke="midnightblue" points="167.53,-1463.19 177.85,-1460.82 168.3,-1456.23 167.53,-1463.19"/>
</g>
<!-- Node36&#45;&gt;Node13 -->
<g id="edge36" class="edge">
<title>Node36&#45;&gt;Node13</title>
<path fill="none" stroke="midnightblue" d="M179.85,-1436.96C167.22,-1438.36 153.88,-1439.85 141.03,-1441.27"/>
<polygon fill="midnightblue" stroke="midnightblue" points="180.25,-1440.44 189.8,-1435.86 179.47,-1433.48 180.25,-1440.44"/>
</g>
<!-- Node43&#45;&gt;Node44 -->
<g id="edge45" class="edge">
<title>Node43&#45;&gt;Node44</title>
<path fill="none" stroke="midnightblue" d="M186.23,-301.24C163.95,-304.11 138.67,-307.36 117.52,-310.08"/>
<polygon fill="midnightblue" stroke="midnightblue" points="186.75,-304.7 196.22,-299.95 185.86,-297.76 186.75,-304.7"/>
</g>
<!-- Node45&#45;&gt;Node13 -->
<g id="edge48" class="edge">
<title>Node45&#45;&gt;Node13</title>
<path fill="none" stroke="midnightblue" d="M198.41,-1404.37C191.23,-1406.51 183.89,-1408.76 177,-1411 149.23,-1420.02 117.78,-1431.52 96.5,-1439.49"/>
<polygon fill="midnightblue" stroke="midnightblue" points="199.43,-1407.72 208.04,-1401.55 197.46,-1401.01 199.43,-1407.72"/>
</g>
<!-- Node48&#45;&gt;Node13 -->
<g id="edge51" class="edge">
<title>Node48&#45;&gt;Node13</title>
<path fill="none" stroke="midnightblue" d="M191.73,-1366.83C186.66,-1368.67 181.67,-1370.72 177,-1373 139.05,-1391.49 100.25,-1423.52 82.09,-1439.44"/>
<polygon fill="midnightblue" stroke="midnightblue" points="193.14,-1370.05 201.51,-1363.55 190.91,-1363.41 193.14,-1370.05"/>
</g>
</g>
</svg>
