<?xml version="1.0" encoding="UTF-8" standalone="no"?>
<!DOCTYPE svg PUBLIC "-//W3C//DTD SVG 1.1//EN"
 "http://www.w3.org/Graphics/SVG/1.1/DTD/svg11.dtd">
<!-- Generated by graphviz version 2.43.0 (0)
 -->
<!-- Title: matplotlibcpp::detail::_interpreter::~_interpreter Pages: 1 -->
<svg width="747pt" height="1867pt"
 viewBox="0.00 0.00 747.00 1867.00" xmlns="http://www.w3.org/2000/svg" xmlns:xlink="http://www.w3.org/1999/xlink">
<g id="graph0" class="graph" transform="scale(1 1) rotate(0) translate(4 1863)">
<title>matplotlibcpp::detail::_interpreter::~_interpreter</title>
<polygon fill="white" stroke="transparent" points="-4,4 -4,-1863 743,-1863 743,4 -4,4"/>
<!-- Node1 -->
<g id="node1" class="node">
<title>Node1</title>
<g id="a_node1"><a xlink:title=" ">
<polygon fill="#bfbfbf" stroke="black" points="607,-918 607,-948 739,-948 739,-918 607,-918"/>
<text text-anchor="start" x="615" y="-936" font-family="Helvetica,sans-Serif" font-size="10.00">matplotlibcpp::detail</text>
<text text-anchor="middle" x="673" y="-925" font-family="Helvetica,sans-Serif" font-size="10.00">::_interpreter::~_interpreter</text>
</a>
</g>
</g>
<!-- Node2 -->
<g id="node2" class="node">
<title>Node2</title>
<g id="a_node2"><a xlink:href="structmatplotlibcpp_1_1detail_1_1__interpreter.html#accf36ff8fd9f1bd757d028fa4a14be40" target="_top" xlink:title=" ">
<polygon fill="white" stroke="black" points="446,-918 446,-948 571,-948 571,-918 446,-918"/>
<text text-anchor="start" x="454" y="-936" font-family="Helvetica,sans-Serif" font-size="10.00">matplotlibcpp::detail</text>
<text text-anchor="middle" x="508.5" y="-925" font-family="Helvetica,sans-Serif" font-size="10.00">::_interpreter::interkeeper</text>
</a>
</g>
</g>
<!-- Node1&#45;&gt;Node2 -->
<g id="edge1" class="edge">
<title>Node1&#45;&gt;Node2</title>
<path fill="none" stroke="midnightblue" d="M596.57,-933C588.09,-933 579.52,-933 571.24,-933"/>
<polygon fill="midnightblue" stroke="midnightblue" points="596.84,-936.5 606.84,-933 596.84,-929.5 596.84,-936.5"/>
</g>
<!-- Node3 -->
<g id="node3" class="node">
<title>Node3</title>
<g id="a_node3"><a xlink:href="structmatplotlibcpp_1_1detail_1_1__interpreter.html#a3ddc4e50c23738307da3dc64c47cdbc0" target="_top" xlink:title=" ">
<polygon fill="white" stroke="red" points="306,-943 306,-973 410,-973 410,-943 306,-943"/>
<text text-anchor="start" x="314" y="-961" font-family="Helvetica,sans-Serif" font-size="10.00">matplotlibcpp::detail</text>
<text text-anchor="middle" x="358" y="-950" font-family="Helvetica,sans-Serif" font-size="10.00">::_interpreter::get</text>
</a>
</g>
</g>
<!-- Node2&#45;&gt;Node3 -->
<g id="edge2" class="edge">
<title>Node2&#45;&gt;Node3</title>
<path fill="none" stroke="midnightblue" d="M435.79,-945.07C427.2,-946.52 418.58,-947.97 410.36,-949.35"/>
<polygon fill="midnightblue" stroke="midnightblue" points="436.53,-948.5 445.81,-943.39 435.37,-941.59 436.53,-948.5"/>
</g>
<!-- Node57 -->
<g id="node50" class="node">
<title>Node57</title>
<g id="a_node50"><a xlink:href="structmatplotlibcpp_1_1detail_1_1__interpreter.html#aaa830503858a1685b9820930ed02f326" target="_top" xlink:title=" ">
<polygon fill="white" stroke="black" points="306,-894 306,-924 410,-924 410,-894 306,-894"/>
<text text-anchor="start" x="314" y="-912" font-family="Helvetica,sans-Serif" font-size="10.00">matplotlibcpp::detail</text>
<text text-anchor="middle" x="358" y="-901" font-family="Helvetica,sans-Serif" font-size="10.00">::_interpreter::kill</text>
</a>
</g>
</g>
<!-- Node2&#45;&gt;Node57 -->
<g id="edge53" class="edge">
<title>Node2&#45;&gt;Node57</title>
<path fill="none" stroke="midnightblue" d="M435.79,-921.41C427.2,-920.02 418.58,-918.63 410.36,-917.3"/>
<polygon fill="midnightblue" stroke="midnightblue" points="435.38,-924.89 445.81,-923.03 436.5,-917.98 435.38,-924.89"/>
</g>
<!-- Node4 -->
<g id="node4" class="node">
<title>Node4</title>
<g id="a_node4"><a xlink:href="namespacematplotlibcpp.html#a4854fc237468144bd46809ea7ce8f2a0" target="_top" xlink:title=" ">
<polygon fill="white" stroke="black" points="144.5,-1839.5 144.5,-1858.5 262.5,-1858.5 262.5,-1839.5 144.5,-1839.5"/>
<text text-anchor="middle" x="203.5" y="-1846.5" font-family="Helvetica,sans-Serif" font-size="10.00">matplotlibcpp::annotate</text>
</a>
</g>
</g>
<!-- Node3&#45;&gt;Node4 -->
<g id="edge3" class="edge">
<title>Node3&#45;&gt;Node4</title>
<path fill="none" stroke="midnightblue" d="M356.13,-983.58C351.27,-1120.51 325.6,-1763.17 270,-1830 266.82,-1833.82 262.92,-1836.9 258.62,-1839.38"/>
<polygon fill="midnightblue" stroke="midnightblue" points="359.64,-983.37 356.49,-973.25 352.65,-983.13 359.64,-983.37"/>
</g>
<!-- Node5 -->
<g id="node5" class="node">
<title>Node5</title>
<g id="a_node5"><a xlink:href="namespacematplotlibcpp.html#a5da5568ee4a63f144e4541c6c84ed0ce" target="_top" xlink:title=" ">
<polygon fill="white" stroke="black" points="151.5,-1801.5 151.5,-1820.5 255.5,-1820.5 255.5,-1801.5 151.5,-1801.5"/>
<text text-anchor="middle" x="203.5" y="-1808.5" font-family="Helvetica,sans-Serif" font-size="10.00">matplotlibcpp::arrow</text>
</a>
</g>
</g>
<!-- Node3&#45;&gt;Node5 -->
<g id="edge4" class="edge">
<title>Node3&#45;&gt;Node5</title>
<path fill="none" stroke="midnightblue" d="M356.02,-983.31C350.67,-1116.06 323.24,-1728.31 270,-1792 266.13,-1796.63 261.2,-1800.17 255.79,-1802.88"/>
<polygon fill="midnightblue" stroke="midnightblue" points="359.52,-983.4 356.42,-973.27 352.53,-983.13 359.52,-983.4"/>
</g>
<!-- Node6 -->
<g id="node6" class="node">
<title>Node6</title>
<g id="a_node6"><a xlink:href="namespacematplotlibcpp.html#aad674397c3890c8454edbd6363b1564e" target="_top" xlink:title=" ">
<polygon fill="white" stroke="black" points="148,-1763.5 148,-1782.5 259,-1782.5 259,-1763.5 148,-1763.5"/>
<text text-anchor="middle" x="203.5" y="-1770.5" font-family="Helvetica,sans-Serif" font-size="10.00">matplotlibcpp::axhline</text>
</a>
</g>
</g>
<!-- Node3&#45;&gt;Node6 -->
<g id="edge5" class="edge">
<title>Node3&#45;&gt;Node6</title>
<path fill="none" stroke="midnightblue" d="M355.8,-983.14C349.46,-1111.19 318.43,-1687.18 270,-1749 265.07,-1755.29 258.33,-1759.94 251.04,-1763.36"/>
<polygon fill="midnightblue" stroke="midnightblue" points="359.29,-983.27 356.29,-973.11 352.3,-982.93 359.29,-983.27"/>
</g>
<!-- Node7 -->
<g id="node7" class="node">
<title>Node7</title>
<g id="a_node7"><a xlink:href="namespacematplotlibcpp.html#aab5287e30ebd90df0f5614d8da0f5291" target="_top" xlink:title=" ">
<polygon fill="white" stroke="black" points="154.5,-1687.5 154.5,-1706.5 252.5,-1706.5 252.5,-1687.5 154.5,-1687.5"/>
<text text-anchor="middle" x="203.5" y="-1694.5" font-family="Helvetica,sans-Serif" font-size="10.00">matplotlibcpp::axis</text>
</a>
</g>
</g>
<!-- Node3&#45;&gt;Node7 -->
<g id="edge6" class="edge">
<title>Node3&#45;&gt;Node7</title>
<path fill="none" stroke="midnightblue" d="M357.34,-983.52C358.36,-1097.98 357.02,-1563.23 270,-1673 264.96,-1679.36 258.07,-1684.03 250.65,-1687.47"/>
<polygon fill="midnightblue" stroke="midnightblue" points="360.84,-983.24 357.23,-973.28 353.84,-983.31 360.84,-983.24"/>
</g>
<!-- Node8 -->
<g id="node8" class="node">
<title>Node8</title>
<g id="a_node8"><a xlink:href="namespacematplotlibcpp.html#a107bbc57e93a929c75baf1c60a712d8b" target="_top" xlink:title=" ">
<polygon fill="white" stroke="black" points="0,-1722.5 0,-1741.5 101,-1741.5 101,-1722.5 0,-1722.5"/>
<text text-anchor="middle" x="50.5" y="-1729.5" font-family="Helvetica,sans-Serif" font-size="10.00">matplotlibcpp::plot3</text>
</a>
</g>
</g>
<!-- Node3&#45;&gt;Node8 -->
<g id="edge37" class="edge">
<title>Node3&#45;&gt;Node8</title>
<path fill="none" stroke="midnightblue" d="M355.97,-983.54C350.61,-1109.88 324.16,-1664.03 270,-1716 221.15,-1762.88 134.6,-1752.3 86.39,-1741.5"/>
<polygon fill="midnightblue" stroke="midnightblue" points="359.48,-983.43 356.39,-973.3 352.48,-983.14 359.48,-983.43"/>
</g>
<!-- Node9 -->
<g id="node9" class="node">
<title>Node9</title>
<g id="a_node9"><a xlink:href="namespacematplotlibcpp.html#a1f62cf2432777c919965bb983ddfd1b0" target="_top" xlink:title=" ">
<polygon fill="white" stroke="black" points="2.5,-1668 2.5,-1698 98.5,-1698 98.5,-1668 2.5,-1668"/>
<text text-anchor="start" x="10.5" y="-1686" font-family="Helvetica,sans-Serif" font-size="10.00">matplotlibcpp::plot</text>
<text text-anchor="middle" x="50.5" y="-1675" font-family="Helvetica,sans-Serif" font-size="10.00">_surface</text>
</a>
</g>
</g>
<!-- Node3&#45;&gt;Node9 -->
<g id="edge38" class="edge">
<title>Node3&#45;&gt;Node9</title>
<path fill="none" stroke="midnightblue" d="M357.46,-983.45C358.93,-1094.6 359.01,-1536.34 270,-1634 247.41,-1658.78 156.06,-1672.41 98.86,-1678.67"/>
<polygon fill="midnightblue" stroke="midnightblue" points="360.96,-983.14 357.31,-973.19 353.96,-983.24 360.96,-983.14"/>
</g>
<!-- Node10 -->
<g id="node10" class="node">
<title>Node10</title>
<g id="a_node10"><a xlink:href="namespacematplotlibcpp.html#a6479afec926d90fdf3309cf2a88db030" target="_top" xlink:title=" ">
<polygon fill="white" stroke="black" points="2.5,-1609 2.5,-1639 98.5,-1639 98.5,-1609 2.5,-1609"/>
<text text-anchor="start" x="10.5" y="-1627" font-family="Helvetica,sans-Serif" font-size="10.00">matplotlibcpp::tick</text>
<text text-anchor="middle" x="50.5" y="-1616" font-family="Helvetica,sans-Serif" font-size="10.00">_params</text>
</a>
</g>
</g>
<!-- Node3&#45;&gt;Node10 -->
<g id="edge50" class="edge">
<title>Node3&#45;&gt;Node10</title>
<path fill="none" stroke="midnightblue" d="M355.42,-983.18C348.05,-1096.8 315.48,-1558.03 270,-1602 225.18,-1645.32 148.48,-1642.28 98.91,-1634.43"/>
<polygon fill="midnightblue" stroke="midnightblue" points="358.92,-983.22 356.07,-973.02 351.94,-982.77 358.92,-983.22"/>
</g>
<!-- Node11 -->
<g id="node11" class="node">
<title>Node11</title>
<g id="a_node11"><a xlink:href="namespacematplotlibcpp.html#a74882742dd5b2fa53cce6c2d4f5bbc2c" target="_top" xlink:title=" ">
<polygon fill="white" stroke="black" points="148,-1573.5 148,-1592.5 259,-1592.5 259,-1573.5 148,-1573.5"/>
<text text-anchor="middle" x="203.5" y="-1580.5" font-family="Helvetica,sans-Serif" font-size="10.00">matplotlibcpp::axvline</text>
</a>
</g>
</g>
<!-- Node3&#45;&gt;Node11 -->
<g id="edge10" class="edge">
<title>Node3&#45;&gt;Node11</title>
<path fill="none" stroke="midnightblue" d="M356.89,-983.31C355.94,-1086.62 347.2,-1475.18 270,-1564 266.66,-1567.84 262.59,-1570.93 258.14,-1573.41"/>
<polygon fill="midnightblue" stroke="midnightblue" points="360.39,-983.2 356.97,-973.18 353.39,-983.15 360.39,-983.2"/>
</g>
<!-- Node12 -->
<g id="node12" class="node">
<title>Node12</title>
<g id="a_node12"><a xlink:href="namespacematplotlibcpp.html#aa895bc53f99e3630b8c0adb41880b485" target="_top" xlink:title=" ">
<polygon fill="white" stroke="black" points="145,-1535.5 145,-1554.5 262,-1554.5 262,-1535.5 145,-1535.5"/>
<text text-anchor="middle" x="203.5" y="-1542.5" font-family="Helvetica,sans-Serif" font-size="10.00">matplotlibcpp::axvspan</text>
</a>
</g>
</g>
<!-- Node3&#45;&gt;Node12 -->
<g id="edge11" class="edge">
<title>Node3&#45;&gt;Node12</title>
<path fill="none" stroke="midnightblue" d="M356.62,-983.29C354.64,-1082.46 342.46,-1443.42 270,-1526 266.64,-1529.83 262.56,-1532.9 258.1,-1535.38"/>
<polygon fill="midnightblue" stroke="midnightblue" points="360.13,-983.08 356.81,-973.02 353.13,-982.96 360.13,-983.08"/>
</g>
<!-- Node13 -->
<g id="node13" class="node">
<title>Node13</title>
<g id="a_node13"><a xlink:href="namespacematplotlibcpp.html#aa3ccefcc977791fc66c1cff63d589d00" target="_top" xlink:title=" ">
<polygon fill="white" stroke="black" points="157,-1497.5 157,-1516.5 250,-1516.5 250,-1497.5 157,-1497.5"/>
<text text-anchor="middle" x="203.5" y="-1504.5" font-family="Helvetica,sans-Serif" font-size="10.00">matplotlibcpp::cla</text>
</a>
</g>
</g>
<!-- Node3&#45;&gt;Node13 -->
<g id="edge12" class="edge">
<title>Node3&#45;&gt;Node13</title>
<path fill="none" stroke="midnightblue" d="M356.32,-983.13C353.26,-1077.82 337.78,-1411.59 270,-1488 264.74,-1493.93 257.74,-1498.06 250.28,-1500.93"/>
<polygon fill="midnightblue" stroke="midnightblue" points="359.82,-983.14 356.63,-973.04 352.83,-982.92 359.82,-983.14"/>
</g>
<!-- Node14 -->
<g id="node14" class="node">
<title>Node14</title>
<g id="a_node14"><a xlink:href="namespacematplotlibcpp.html#adea4113b0ff7f393e18f1a99eb7e1718" target="_top" xlink:title=" ">
<polygon fill="white" stroke="red" points="158,-1459.5 158,-1478.5 249,-1478.5 249,-1459.5 158,-1459.5"/>
<text text-anchor="middle" x="203.5" y="-1466.5" font-family="Helvetica,sans-Serif" font-size="10.00">matplotlibcpp::clf</text>
</a>
</g>
</g>
<!-- Node3&#45;&gt;Node14 -->
<g id="edge13" class="edge">
<title>Node3&#45;&gt;Node14</title>
<path fill="none" stroke="midnightblue" d="M355.96,-983.36C351.75,-1073.94 333.01,-1379.84 270,-1450 264.46,-1456.17 257.06,-1460.38 249.22,-1463.25"/>
<polygon fill="midnightblue" stroke="midnightblue" points="359.47,-983.33 356.42,-973.18 352.47,-983.02 359.47,-983.33"/>
</g>
<!-- Node18 -->
<g id="node15" class="node">
<title>Node18</title>
<g id="a_node15"><a xlink:href="namespacematplotlibcpp.html#a62aaaf872c41a9d1b71add44c0cc0447" target="_top" xlink:title=" ">
<polygon fill="white" stroke="black" points="151.5,-1421.5 151.5,-1440.5 255.5,-1440.5 255.5,-1421.5 151.5,-1421.5"/>
<text text-anchor="middle" x="203.5" y="-1428.5" font-family="Helvetica,sans-Serif" font-size="10.00">matplotlibcpp::close</text>
</a>
</g>
</g>
<!-- Node3&#45;&gt;Node18 -->
<g id="edge14" class="edge">
<title>Node3&#45;&gt;Node18</title>
<path fill="none" stroke="midnightblue" d="M355.53,-983.63C350.09,-1069.93 328.25,-1348.06 270,-1412 266.01,-1416.38 261.08,-1419.77 255.73,-1422.39"/>
<polygon fill="midnightblue" stroke="midnightblue" points="359.04,-983.62 356.16,-973.42 352.05,-983.19 359.04,-983.62"/>
</g>
<!-- Node19 -->
<g id="node16" class="node">
<title>Node19</title>
<g id="a_node16"><a xlink:href="namespacematplotlibcpp.html#acd9fc5bb7916c735390c2056214b12be" target="_top" xlink:title=" ">
<polygon fill="white" stroke="black" points="153,-1383.5 153,-1402.5 254,-1402.5 254,-1383.5 153,-1383.5"/>
<text text-anchor="middle" x="203.5" y="-1390.5" font-family="Helvetica,sans-Serif" font-size="10.00">matplotlibcpp::draw</text>
</a>
</g>
</g>
<!-- Node3&#45;&gt;Node19 -->
<g id="edge15" class="edge">
<title>Node3&#45;&gt;Node19</title>
<path fill="none" stroke="midnightblue" d="M355.07,-983.31C348.39,-1064.45 323.64,-1316.11 270,-1374 265.57,-1378.78 260.03,-1382.38 254.04,-1385.09"/>
<polygon fill="midnightblue" stroke="midnightblue" points="358.58,-983.28 355.89,-973.03 351.61,-982.72 358.58,-983.28"/>
</g>
<!-- Node20 -->
<g id="node17" class="node">
<title>Node20</title>
<g id="a_node17"><a xlink:href="namespacematplotlibcpp.html#a63173b57d788807c1c6860dbc7961e40" target="_top" xlink:title=" ">
<polygon fill="white" stroke="black" points="148.5,-1334 148.5,-1364 258.5,-1364 258.5,-1334 148.5,-1334"/>
<text text-anchor="start" x="156.5" y="-1352" font-family="Helvetica,sans-Serif" font-size="10.00">matplotlibcpp::fignum</text>
<text text-anchor="middle" x="203.5" y="-1341" font-family="Helvetica,sans-Serif" font-size="10.00">_exists</text>
</a>
</g>
</g>
<!-- Node3&#45;&gt;Node20 -->
<g id="edge16" class="edge">
<title>Node3&#45;&gt;Node20</title>
<path fill="none" stroke="midnightblue" d="M354.05,-983.48C344.98,-1057.79 315.36,-1272.26 270,-1324 266.63,-1327.84 262.6,-1331.1 258.22,-1333.86"/>
<polygon fill="midnightblue" stroke="midnightblue" points="357.57,-983.53 355.28,-973.19 350.62,-982.7 357.57,-983.53"/>
</g>
<!-- Node21 -->
<g id="node18" class="node">
<title>Node21</title>
<g id="a_node18"><a xlink:href="namespacematplotlibcpp.html#a34e6ea8c8ee6779fe909ecac2ef945c8" target="_top" xlink:title=" ">
<polygon fill="white" stroke="black" points="151.5,-1295.5 151.5,-1314.5 255.5,-1314.5 255.5,-1295.5 151.5,-1295.5"/>
<text text-anchor="middle" x="203.5" y="-1302.5" font-family="Helvetica,sans-Serif" font-size="10.00">matplotlibcpp::figure</text>
</a>
</g>
</g>
<!-- Node3&#45;&gt;Node21 -->
<g id="edge17" class="edge">
<title>Node3&#45;&gt;Node21</title>
<path fill="none" stroke="midnightblue" d="M353.54,-983.3C343.6,-1052.39 312.89,-1242.1 270,-1286 265.95,-1290.15 261.04,-1293.41 255.77,-1295.96"/>
<polygon fill="midnightblue" stroke="midnightblue" points="357.02,-983.67 354.95,-973.28 350.09,-982.69 357.02,-983.67"/>
</g>
<!-- Node22 -->
<g id="node19" class="node">
<title>Node22</title>
<g id="a_node19"><a xlink:href="namespacematplotlibcpp.html#a91e91bcdcfc7632a917830bfe3f71ca3" target="_top" xlink:title=" ">
<polygon fill="white" stroke="black" points="139.5,-1257.5 139.5,-1276.5 267.5,-1276.5 267.5,-1257.5 139.5,-1257.5"/>
<text text-anchor="middle" x="203.5" y="-1264.5" font-family="Helvetica,sans-Serif" font-size="10.00">matplotlibcpp::figure_size</text>
</a>
</g>
</g>
<!-- Node3&#45;&gt;Node22 -->
<g id="edge18" class="edge">
<title>Node3&#45;&gt;Node22</title>
<path fill="none" stroke="midnightblue" d="M357.05,-983.2C355.74,-1039.05 344.56,-1174.12 270,-1248 266.13,-1251.83 261.54,-1254.9 256.61,-1257.36"/>
<polygon fill="midnightblue" stroke="midnightblue" points="360.55,-983.18 357.19,-973.13 353.55,-983.08 360.55,-983.18"/>
</g>
<!-- Node23 -->
<g id="node20" class="node">
<title>Node23</title>
<g id="a_node20"><a xlink:href="namespacematplotlibcpp.html#a00a57926330764f8490142b3ce06bd2e" target="_top" xlink:title=" ">
<polygon fill="white" stroke="black" points="158.5,-1219.5 158.5,-1238.5 248.5,-1238.5 248.5,-1219.5 158.5,-1219.5"/>
<text text-anchor="middle" x="203.5" y="-1226.5" font-family="Helvetica,sans-Serif" font-size="10.00">matplotlibcpp::fill</text>
</a>
</g>
</g>
<!-- Node3&#45;&gt;Node23 -->
<g id="edge19" class="edge">
<title>Node3&#45;&gt;Node23</title>
<path fill="none" stroke="midnightblue" d="M355.69,-983.37C351.67,-1033.93 335.46,-1147.74 270,-1210 264.08,-1215.63 256.59,-1219.61 248.81,-1222.41"/>
<polygon fill="midnightblue" stroke="midnightblue" points="359.18,-983.53 356.39,-973.31 352.2,-983.04 359.18,-983.53"/>
</g>
<!-- Node24 -->
<g id="node21" class="node">
<title>Node24</title>
<g id="a_node21"><a xlink:href="namespacematplotlibcpp.html#a928fb4c83f29554b1b37aeea7af9bb73" target="_top" xlink:title=" ">
<polygon fill="white" stroke="black" points="158.5,-1170 158.5,-1200 248.5,-1200 248.5,-1170 158.5,-1170"/>
<text text-anchor="start" x="166.5" y="-1188" font-family="Helvetica,sans-Serif" font-size="10.00">matplotlibcpp::fill</text>
<text text-anchor="middle" x="203.5" y="-1177" font-family="Helvetica,sans-Serif" font-size="10.00">_between</text>
</a>
</g>
</g>
<!-- Node3&#45;&gt;Node24 -->
<g id="edge20" class="edge">
<title>Node3&#45;&gt;Node24</title>
<path fill="none" stroke="midnightblue" d="M352.71,-983.21C344.26,-1025.39 321.6,-1110.53 270,-1160 263.94,-1165.81 256.39,-1170.31 248.59,-1173.77"/>
<polygon fill="midnightblue" stroke="midnightblue" points="356.18,-983.69 354.6,-973.22 349.3,-982.39 356.18,-983.69"/>
</g>
<!-- Node25 -->
<g id="node22" class="node">
<title>Node25</title>
<g id="a_node22"><a xlink:href="namespacematplotlibcpp.html#ae0bbf80e73099a91df28e4fb871b166a" target="_top" xlink:title=" ">
<polygon fill="white" stroke="black" points="155.5,-1131.5 155.5,-1150.5 251.5,-1150.5 251.5,-1131.5 155.5,-1131.5"/>
<text text-anchor="middle" x="203.5" y="-1138.5" font-family="Helvetica,sans-Serif" font-size="10.00">matplotlibcpp::grid</text>
</a>
</g>
</g>
<!-- Node3&#45;&gt;Node25 -->
<g id="edge21" class="edge">
<title>Node3&#45;&gt;Node25</title>
<path fill="none" stroke="midnightblue" d="M350.49,-982.98C339.8,-1019.03 315.07,-1085.36 270,-1122 264.58,-1126.41 258.18,-1129.79 251.54,-1132.39"/>
<polygon fill="midnightblue" stroke="midnightblue" points="353.89,-983.82 353.25,-973.24 347.15,-981.91 353.89,-983.82"/>
</g>
<!-- Node26 -->
<g id="node23" class="node">
<title>Node26</title>
<g id="a_node23"><a xlink:href="namespacematplotlibcpp.html#aeaf80309ad11083ec57bd6b246f6e4dc" target="_top" xlink:title=" ">
<polygon fill="white" stroke="black" points="155.5,-1093.5 155.5,-1112.5 251.5,-1112.5 251.5,-1093.5 155.5,-1093.5"/>
<text text-anchor="middle" x="203.5" y="-1100.5" font-family="Helvetica,sans-Serif" font-size="10.00">matplotlibcpp::hist</text>
</a>
</g>
</g>
<!-- Node3&#45;&gt;Node26 -->
<g id="edge22" class="edge">
<title>Node3&#45;&gt;Node26</title>
<path fill="none" stroke="midnightblue" d="M346.33,-982.63C332.71,-1011.2 306.46,-1057.73 270,-1084 264.52,-1087.95 258.24,-1091.08 251.78,-1093.56"/>
<polygon fill="midnightblue" stroke="midnightblue" points="349.61,-983.88 350.62,-973.34 343.25,-980.95 349.61,-983.88"/>
</g>
<!-- Node27 -->
<g id="node24" class="node">
<title>Node27</title>
<g id="a_node24"><a xlink:href="namespacematplotlibcpp_1_1detail.html#ab78ea1d46cdefdf8037d2a2c0bcfaedb" target="_top" xlink:title=" ">
<polygon fill="white" stroke="black" points="151.5,-1044 151.5,-1074 255.5,-1074 255.5,-1044 151.5,-1044"/>
<text text-anchor="start" x="159.5" y="-1062" font-family="Helvetica,sans-Serif" font-size="10.00">matplotlibcpp::detail</text>
<text text-anchor="middle" x="203.5" y="-1051" font-family="Helvetica,sans-Serif" font-size="10.00">::imshow</text>
</a>
</g>
</g>
<!-- Node3&#45;&gt;Node27 -->
<g id="edge23" class="edge">
<title>Node3&#45;&gt;Node27</title>
<path fill="none" stroke="midnightblue" d="M335.81,-980.38C319.17,-996.95 294.74,-1019.12 270,-1034 263.85,-1037.7 257.05,-1041.02 250.23,-1043.95"/>
<polygon fill="midnightblue" stroke="midnightblue" points="338.35,-982.79 342.88,-973.21 333.37,-977.88 338.35,-982.79"/>
</g>
<!-- Node28 -->
<g id="node25" class="node">
<title>Node28</title>
<g id="a_node25"><a xlink:href="namespacematplotlibcpp.html#a9bddb5276ddc48f4ff9c2b36b98db71a" target="_top" xlink:title=" ">
<polygon fill="white" stroke="black" points="157,-1005.5 157,-1024.5 250,-1024.5 250,-1005.5 157,-1005.5"/>
<text text-anchor="middle" x="203.5" y="-1012.5" font-family="Helvetica,sans-Serif" font-size="10.00">matplotlibcpp::ion</text>
</a>
</g>
</g>
<!-- Node3&#45;&gt;Node28 -->
<g id="edge24" class="edge">
<title>Node3&#45;&gt;Node28</title>
<path fill="none" stroke="midnightblue" d="M316.04,-977.19C301.64,-983.59 285.26,-990.48 270,-996 260.54,-999.42 250.14,-1002.67 240.46,-1005.48"/>
<polygon fill="midnightblue" stroke="midnightblue" points="317.49,-980.38 325.17,-973.08 314.62,-973.99 317.49,-980.38"/>
</g>
<!-- Node29 -->
<g id="node26" class="node">
<title>Node29</title>
<g id="a_node26"><a xlink:href="namespacematplotlibcpp.html#a916bb5a9dc5f6a24877cc027bf4ee624" target="_top" xlink:title=" ">
<polygon fill="white" stroke="red" points="149,-967.5 149,-986.5 258,-986.5 258,-967.5 149,-967.5"/>
<text text-anchor="middle" x="203.5" y="-974.5" font-family="Helvetica,sans-Serif" font-size="10.00">matplotlibcpp::legend</text>
</a>
</g>
</g>
<!-- Node3&#45;&gt;Node29 -->
<g id="edge25" class="edge">
<title>Node3&#45;&gt;Node29</title>
<path fill="none" stroke="midnightblue" d="M295.56,-965.66C283.18,-967.2 270.26,-968.81 258.18,-970.31"/>
<polygon fill="midnightblue" stroke="midnightblue" points="296.3,-969.09 305.8,-964.38 295.44,-962.14 296.3,-969.09"/>
</g>
<!-- Node30 -->
<g id="node27" class="node">
<title>Node30</title>
<g id="a_node27"><a xlink:href="namespacematplotlibcpp.html#a6cfa8cba00f52a2c4614fa7a8a0bcd2b" target="_top" xlink:title=" ">
<polygon fill="white" stroke="black" points="150.5,-929.5 150.5,-948.5 256.5,-948.5 256.5,-929.5 150.5,-929.5"/>
<text text-anchor="middle" x="203.5" y="-936.5" font-family="Helvetica,sans-Serif" font-size="10.00">matplotlibcpp::loglog</text>
</a>
</g>
</g>
<!-- Node3&#45;&gt;Node30 -->
<g id="edge26" class="edge">
<title>Node3&#45;&gt;Node30</title>
<path fill="none" stroke="midnightblue" d="M295.59,-950.35C282.67,-948.74 269.15,-947.05 256.61,-945.49"/>
<polygon fill="midnightblue" stroke="midnightblue" points="295.44,-953.86 305.8,-951.62 296.3,-946.91 295.44,-953.86"/>
</g>
<!-- Node31 -->
<g id="node28" class="node">
<title>Node31</title>
<g id="a_node28"><a xlink:href="namespacematplotlibcpp.html#a468096a42e46d0a26e8a237ffb24caca" target="_top" xlink:title=" ">
<polygon fill="white" stroke="black" points="146,-891.5 146,-910.5 261,-910.5 261,-891.5 146,-891.5"/>
<text text-anchor="middle" x="203.5" y="-898.5" font-family="Helvetica,sans-Serif" font-size="10.00">matplotlibcpp::margins</text>
</a>
</g>
</g>
<!-- Node3&#45;&gt;Node31 -->
<g id="edge27" class="edge">
<title>Node3&#45;&gt;Node31</title>
<path fill="none" stroke="midnightblue" d="M316.04,-938.81C301.64,-932.41 285.26,-925.52 270,-920 260.54,-916.58 250.14,-913.33 240.46,-910.52"/>
<polygon fill="midnightblue" stroke="midnightblue" points="314.62,-942.01 325.17,-942.92 317.49,-935.62 314.62,-942.01"/>
</g>
<!-- Node32 -->
<g id="node29" class="node">
<title>Node32</title>
<g id="a_node29"><a xlink:href="namespacematplotlibcpp.html#a2851ef02b92b32ee7d3dd8f8fd065ae3" target="_top" xlink:title=" ">
<polygon fill="white" stroke="black" points="138,-853.5 138,-872.5 269,-872.5 269,-853.5 138,-853.5"/>
<text text-anchor="middle" x="203.5" y="-860.5" font-family="Helvetica,sans-Serif" font-size="10.00">matplotlibcpp::named_hist</text>
</a>
</g>
</g>
<!-- Node3&#45;&gt;Node32 -->
<g id="edge28" class="edge">
<title>Node3&#45;&gt;Node32</title>
<path fill="none" stroke="midnightblue" d="M310.66,-937.62C309.05,-936.46 307.48,-935.26 306,-934 284.55,-915.84 292.82,-898.42 270,-882 264.62,-878.13 258.46,-875.04 252.11,-872.58"/>
<polygon fill="midnightblue" stroke="midnightblue" points="308.8,-940.58 319.12,-942.98 312.55,-934.67 308.8,-940.58"/>
</g>
<!-- Node33 -->
<g id="node30" class="node">
<title>Node33</title>
<g id="a_node30"><a xlink:href="namespacematplotlibcpp.html#a9482856fd165f21001420e712d0d2312" target="_top" xlink:title=" ">
<polygon fill="white" stroke="black" points="148.5,-804 148.5,-834 258.5,-834 258.5,-804 148.5,-804"/>
<text text-anchor="start" x="156.5" y="-822" font-family="Helvetica,sans-Serif" font-size="10.00">matplotlibcpp::named</text>
<text text-anchor="middle" x="203.5" y="-811" font-family="Helvetica,sans-Serif" font-size="10.00">_loglog</text>
</a>
</g>
</g>
<!-- Node3&#45;&gt;Node33 -->
<g id="edge29" class="edge">
<title>Node3&#45;&gt;Node33</title>
<path fill="none" stroke="midnightblue" d="M308.85,-936.78C307.86,-935.89 306.91,-934.96 306,-934 276.45,-902.65 300.7,-874.22 270,-844 266.1,-840.16 261.54,-836.89 256.68,-834.12"/>
<polygon fill="midnightblue" stroke="midnightblue" points="306.99,-939.76 317.09,-942.98 311.2,-934.17 306.99,-939.76"/>
</g>
<!-- Node34 -->
<g id="node31" class="node">
<title>Node34</title>
<g id="a_node31"><a xlink:href="namespacematplotlibcpp.html#a6461c03041d9947a0e3b3593b5b72c95" target="_top" xlink:title=" ">
<polygon fill="white" stroke="red" points="138,-765.5 138,-784.5 269,-784.5 269,-765.5 138,-765.5"/>
<text text-anchor="middle" x="203.5" y="-772.5" font-family="Helvetica,sans-Serif" font-size="10.00">matplotlibcpp::named_plot</text>
</a>
</g>
</g>
<!-- Node3&#45;&gt;Node34 -->
<g id="edge30" class="edge">
<title>Node3&#45;&gt;Node34</title>
<path fill="none" stroke="midnightblue" d="M307.88,-936.11C307.23,-935.43 306.6,-934.73 306,-934 265.27,-884.87 314.15,-841.08 270,-795 265.81,-790.62 260.68,-787.19 255.17,-784.51"/>
<polygon fill="midnightblue" stroke="midnightblue" points="305.76,-938.91 315.66,-942.7 310.29,-933.57 305.76,-938.91"/>
</g>
<!-- Node35 -->
<g id="node32" class="node">
<title>Node35</title>
<g id="a_node32"><a xlink:href="namespacematplotlibcpp.html#ae32c097d32b89445a995727d05446843" target="_top" xlink:title=" ">
<polygon fill="white" stroke="black" points="148.5,-716 148.5,-746 258.5,-746 258.5,-716 148.5,-716"/>
<text text-anchor="start" x="156.5" y="-734" font-family="Helvetica,sans-Serif" font-size="10.00">matplotlibcpp::named</text>
<text text-anchor="middle" x="203.5" y="-723" font-family="Helvetica,sans-Serif" font-size="10.00">_semilogx</text>
</a>
</g>
</g>
<!-- Node3&#45;&gt;Node35 -->
<g id="edge31" class="edge">
<title>Node3&#45;&gt;Node35</title>
<path fill="none" stroke="midnightblue" d="M307.83,-936.16C307.19,-935.46 306.58,-934.74 306,-934 256.18,-870.5 322.17,-817.58 270,-756 266.7,-752.1 262.71,-748.81 258.36,-746.03"/>
<polygon fill="midnightblue" stroke="midnightblue" points="305.64,-938.9 315.47,-942.85 310.25,-933.63 305.64,-938.9"/>
</g>
<!-- Node36 -->
<g id="node33" class="node">
<title>Node36</title>
<g id="a_node33"><a xlink:href="namespacematplotlibcpp.html#a529c059f3fca364b9fcb3b2e09cce36b" target="_top" xlink:title=" ">
<polygon fill="white" stroke="black" points="148.5,-667 148.5,-697 258.5,-697 258.5,-667 148.5,-667"/>
<text text-anchor="start" x="156.5" y="-685" font-family="Helvetica,sans-Serif" font-size="10.00">matplotlibcpp::named</text>
<text text-anchor="middle" x="203.5" y="-674" font-family="Helvetica,sans-Serif" font-size="10.00">_semilogy</text>
</a>
</g>
</g>
<!-- Node3&#45;&gt;Node36 -->
<g id="edge32" class="edge">
<title>Node3&#45;&gt;Node36</title>
<path fill="none" stroke="midnightblue" d="M307.78,-936.19C307.16,-935.48 306.57,-934.75 306,-934 244.66,-852.32 334.37,-786.32 270,-707 266.78,-703.03 262.85,-699.69 258.54,-696.88"/>
<polygon fill="midnightblue" stroke="midnightblue" points="305.54,-938.89 315.32,-942.97 310.22,-933.68 305.54,-938.89"/>
</g>
<!-- Node37 -->
<g id="node34" class="node">
<title>Node37</title>
<g id="a_node34"><a xlink:href="structmatplotlibcpp_1_1detail_1_1plot__impl_3_01std_1_1false__type_01_4.html#ab430540b63185e4a76526b47d3b195e5" target="_top" xlink:title=" ">
<polygon fill="white" stroke="black" points="148,-606.5 148,-647.5 259,-647.5 259,-606.5 148,-606.5"/>
<text text-anchor="start" x="156" y="-635.5" font-family="Helvetica,sans-Serif" font-size="10.00">matplotlibcpp::detail</text>
<text text-anchor="start" x="156" y="-624.5" font-family="Helvetica,sans-Serif" font-size="10.00">::plot_impl&lt; std::false</text>
<text text-anchor="middle" x="203.5" y="-613.5" font-family="Helvetica,sans-Serif" font-size="10.00">_type &gt;::operator()</text>
</a>
</g>
</g>
<!-- Node3&#45;&gt;Node37 -->
<g id="edge33" class="edge">
<title>Node3&#45;&gt;Node37</title>
<path fill="none" stroke="midnightblue" d="M307.42,-935.82C306.93,-935.23 306.45,-934.62 306,-934 233.09,-834.07 342.8,-758.01 270,-658 266.96,-653.83 263.22,-650.2 259.07,-647.04"/>
<polygon fill="midnightblue" stroke="midnightblue" points="305.06,-938.4 314.75,-942.69 309.84,-933.29 305.06,-938.4"/>
</g>
<!-- Node38 -->
<g id="node35" class="node">
<title>Node38</title>
<g id="a_node35"><a xlink:href="namespacematplotlibcpp.html#aa5bc4092c9e2acbb2c6ec4efd024cf2f" target="_top" xlink:title=" ">
<polygon fill="white" stroke="red" points="150,-568.5 150,-587.5 257,-587.5 257,-568.5 150,-568.5"/>
<text text-anchor="middle" x="203.5" y="-575.5" font-family="Helvetica,sans-Serif" font-size="10.00">matplotlibcpp::pause</text>
</a>
</g>
</g>
<!-- Node3&#45;&gt;Node38 -->
<g id="edge34" class="edge">
<title>Node3&#45;&gt;Node38</title>
<path fill="none" stroke="midnightblue" d="M307.4,-935.84C306.91,-935.24 306.45,-934.63 306,-934 218.64,-811.29 366.74,-712.46 270,-597 266.43,-592.73 261.96,-589.39 257.04,-586.78"/>
<polygon fill="midnightblue" stroke="midnightblue" points="305.01,-938.39 314.66,-942.74 309.83,-933.32 305.01,-938.39"/>
</g>
<!-- Node39 -->
<g id="node36" class="node">
<title>Node39</title>
<g id="a_node36"><a xlink:href="classmatplotlibcpp_1_1_plot.html#a6ab809f4fc44d6e4eadb100cba5b519e" target="_top" xlink:title=" ">
<polygon fill="white" stroke="black" points="154.5,-519 154.5,-549 252.5,-549 252.5,-519 154.5,-519"/>
<text text-anchor="start" x="162.5" y="-537" font-family="Helvetica,sans-Serif" font-size="10.00">matplotlibcpp::Plot</text>
<text text-anchor="middle" x="203.5" y="-526" font-family="Helvetica,sans-Serif" font-size="10.00">::Plot</text>
</a>
</g>
</g>
<!-- Node3&#45;&gt;Node39 -->
<g id="edge35" class="edge">
<title>Node3&#45;&gt;Node39</title>
<path fill="none" stroke="midnightblue" d="M307.39,-935.84C306.91,-935.24 306.44,-934.63 306,-934 209.63,-797.08 371.45,-692.19 270,-559 265.5,-553.09 259.43,-548.58 252.78,-545.14"/>
<polygon fill="midnightblue" stroke="midnightblue" points="304.98,-938.38 314.63,-942.77 309.83,-933.33 304.98,-938.38"/>
</g>
<!-- Node40 -->
<g id="node37" class="node">
<title>Node40</title>
<g id="a_node37"><a xlink:href="namespacematplotlibcpp.html#a06ac86c6fecaa5a9b3fb566bc31d6a3b" target="_top" xlink:title=" ">
<polygon fill="white" stroke="red" points="155.5,-480.5 155.5,-499.5 251.5,-499.5 251.5,-480.5 155.5,-480.5"/>
<text text-anchor="middle" x="203.5" y="-487.5" font-family="Helvetica,sans-Serif" font-size="10.00">matplotlibcpp::plot</text>
</a>
</g>
</g>
<!-- Node3&#45;&gt;Node40 -->
<g id="edge36" class="edge">
<title>Node3&#45;&gt;Node40</title>
<path fill="none" stroke="midnightblue" d="M307.38,-935.85C306.9,-935.25 306.44,-934.63 306,-934 252,-856.38 329.43,-583.55 270,-510 265.22,-504.08 258.73,-499.87 251.7,-496.89"/>
<polygon fill="midnightblue" stroke="midnightblue" points="304.96,-938.38 314.59,-942.8 309.82,-933.34 304.96,-938.38"/>
</g>
<!-- Node42 -->
<g id="node38" class="node">
<title>Node42</title>
<g id="a_node38"><a xlink:href="namespacematplotlibcpp.html#ad0a8762f877a67f0253b1cb316ca55bc" target="_top" xlink:title=" ">
<polygon fill="white" stroke="black" points="153,-442.5 153,-461.5 254,-461.5 254,-442.5 153,-442.5"/>
<text text-anchor="middle" x="203.5" y="-449.5" font-family="Helvetica,sans-Serif" font-size="10.00">matplotlibcpp::save</text>
</a>
</g>
</g>
<!-- Node3&#45;&gt;Node42 -->
<g id="edge39" class="edge">
<title>Node3&#45;&gt;Node42</title>
<path fill="none" stroke="midnightblue" d="M307.38,-935.85C306.9,-935.25 306.44,-934.63 306,-934 247.37,-849.08 335.13,-551.05 270,-471 265.82,-465.86 260.33,-462.05 254.31,-459.25"/>
<polygon fill="midnightblue" stroke="midnightblue" points="304.95,-938.37 314.56,-942.82 309.82,-933.34 304.95,-938.37"/>
</g>
<!-- Node43 -->
<g id="node39" class="node">
<title>Node43</title>
<g id="a_node39"><a xlink:href="namespacematplotlibcpp.html#ad25d4429577dbdd8c087a0ba6869840b" target="_top" xlink:title=" ">
<polygon fill="white" stroke="black" points="144,-404.5 144,-423.5 263,-423.5 263,-404.5 144,-404.5"/>
<text text-anchor="middle" x="203.5" y="-411.5" font-family="Helvetica,sans-Serif" font-size="10.00">matplotlibcpp::semilogx</text>
</a>
</g>
</g>
<!-- Node3&#45;&gt;Node43 -->
<g id="edge40" class="edge">
<title>Node3&#45;&gt;Node43</title>
<path fill="none" stroke="midnightblue" d="M307.37,-935.86C306.89,-935.25 306.44,-934.64 306,-934 242.85,-841.96 340.19,-519.79 270,-433 266.87,-429.13 263.01,-426.02 258.73,-423.53"/>
<polygon fill="midnightblue" stroke="midnightblue" points="304.93,-938.37 314.54,-942.83 309.81,-933.35 304.93,-938.37"/>
</g>
<!-- Node44 -->
<g id="node40" class="node">
<title>Node44</title>
<g id="a_node40"><a xlink:href="namespacematplotlibcpp.html#a4dce9b4c1c16c1dab0cffd11588d4db8" target="_top" xlink:title=" ">
<polygon fill="white" stroke="black" points="144,-366.5 144,-385.5 263,-385.5 263,-366.5 144,-366.5"/>
<text text-anchor="middle" x="203.5" y="-373.5" font-family="Helvetica,sans-Serif" font-size="10.00">matplotlibcpp::semilogy</text>
</a>
</g>
</g>
<!-- Node3&#45;&gt;Node44 -->
<g id="edge41" class="edge">
<title>Node3&#45;&gt;Node44</title>
<path fill="none" stroke="midnightblue" d="M307.13,-935.56C306.74,-935.05 306.36,-934.53 306,-934 238.33,-834.84 345.26,-488.53 270,-395 266.88,-391.13 263.02,-388.01 258.75,-385.51"/>
<polygon fill="midnightblue" stroke="midnightblue" points="304.94,-938.32 314.52,-942.84 309.86,-933.33 304.94,-938.32"/>
</g>
<!-- Node45 -->
<g id="node41" class="node">
<title>Node45</title>
<g id="a_node41"><a xlink:href="namespacematplotlibcpp.html#abed6306bfaf492081ded0df72c366e4e" target="_top" xlink:title=" ">
<polygon fill="white" stroke="black" points="156.5,-279 156.5,-309 250.5,-309 250.5,-279 156.5,-279"/>
<text text-anchor="start" x="164.5" y="-297" font-family="Helvetica,sans-Serif" font-size="10.00">matplotlibcpp::set</text>
<text text-anchor="middle" x="203.5" y="-286" font-family="Helvetica,sans-Serif" font-size="10.00">_aspect</text>
</a>
</g>
</g>
<!-- Node3&#45;&gt;Node45 -->
<g id="edge42" class="edge">
<title>Node3&#45;&gt;Node45</title>
<path fill="none" stroke="midnightblue" d="M307.12,-935.56C306.73,-935.05 306.36,-934.53 306,-934 229.89,-821.54 346.69,-436.06 270,-324 265.2,-316.98 258.32,-311.57 250.82,-307.42"/>
<polygon fill="midnightblue" stroke="midnightblue" points="304.93,-938.31 314.5,-942.86 309.85,-933.34 304.93,-938.31"/>
</g>
<!-- Node46 -->
<g id="node42" class="node">
<title>Node46</title>
<g id="a_node42"><a xlink:href="namespacematplotlibcpp.html#a2fc05d3a606ce68e7a72c9e4ed7f3556" target="_top" xlink:title=" ">
<polygon fill="white" stroke="black" points="3.5,-301 3.5,-331 97.5,-331 97.5,-301 3.5,-301"/>
<text text-anchor="start" x="11.5" y="-319" font-family="Helvetica,sans-Serif" font-size="10.00">matplotlibcpp::set</text>
<text text-anchor="middle" x="50.5" y="-308" font-family="Helvetica,sans-Serif" font-size="10.00">_aspect_equal</text>
</a>
</g>
</g>
<!-- Node3&#45;&gt;Node46 -->
<g id="edge44" class="edge">
<title>Node3&#45;&gt;Node46</title>
<path fill="none" stroke="midnightblue" d="M307.13,-935.56C306.74,-935.05 306.36,-934.53 306,-934 233.82,-827.72 355.08,-453.26 270,-357 247.76,-331.84 154.81,-321.94 97.55,-318.18"/>
<polygon fill="midnightblue" stroke="midnightblue" points="304.94,-938.31 314.51,-942.85 309.86,-933.34 304.94,-938.31"/>
</g>
<!-- Node47 -->
<g id="node43" class="node">
<title>Node47</title>
<g id="a_node43"><a xlink:href="namespacematplotlibcpp.html#ac7b2ae71a81811dfb69bcef95ee8390d" target="_top" xlink:title=" ">
<polygon fill="white" stroke="red" points="151.5,-240.5 151.5,-259.5 255.5,-259.5 255.5,-240.5 151.5,-240.5"/>
<text text-anchor="middle" x="203.5" y="-247.5" font-family="Helvetica,sans-Serif" font-size="10.00">matplotlibcpp::show</text>
</a>
</g>
</g>
<!-- Node3&#45;&gt;Node47 -->
<g id="edge45" class="edge">
<title>Node3&#45;&gt;Node47</title>
<path fill="none" stroke="midnightblue" d="M307.12,-935.56C306.73,-935.05 306.36,-934.53 306,-934 223.35,-811.23 362.05,-384.88 270,-269 266.17,-264.18 261.19,-260.53 255.69,-257.78"/>
<polygon fill="midnightblue" stroke="midnightblue" points="304.92,-938.31 314.48,-942.87 309.85,-933.34 304.92,-938.31"/>
</g>
<!-- Node48 -->
<g id="node44" class="node">
<title>Node48</title>
<g id="a_node44"><a xlink:href="namespacematplotlibcpp.html#ae3c91bdfbe011133346dcc4f31ec5932" target="_top" xlink:title=" ">
<polygon fill="white" stroke="red" points="152.5,-202.5 152.5,-221.5 254.5,-221.5 254.5,-202.5 152.5,-202.5"/>
<text text-anchor="middle" x="203.5" y="-209.5" font-family="Helvetica,sans-Serif" font-size="10.00">matplotlibcpp::stem</text>
</a>
</g>
</g>
<!-- Node3&#45;&gt;Node48 -->
<g id="edge46" class="edge">
<title>Node3&#45;&gt;Node48</title>
<path fill="none" stroke="midnightblue" d="M307.12,-935.57C306.73,-935.05 306.36,-934.53 306,-934 218.83,-804.11 367.12,-353.63 270,-231 265.96,-225.89 260.63,-222.11 254.75,-219.3"/>
<polygon fill="midnightblue" stroke="midnightblue" points="304.91,-938.31 314.47,-942.88 309.85,-933.35 304.91,-938.31"/>
</g>
<!-- Node50 -->
<g id="node45" class="node">
<title>Node50</title>
<g id="a_node45"><a xlink:href="namespacematplotlibcpp.html#a78f4b6d50e52d1782d52df692232f4e1" target="_top" xlink:title=" ">
<polygon fill="white" stroke="red" points="147.5,-164.5 147.5,-183.5 259.5,-183.5 259.5,-164.5 147.5,-164.5"/>
<text text-anchor="middle" x="203.5" y="-171.5" font-family="Helvetica,sans-Serif" font-size="10.00">matplotlibcpp::subplot</text>
</a>
</g>
</g>
<!-- Node3&#45;&gt;Node50 -->
<g id="edge47" class="edge">
<title>Node3&#45;&gt;Node50</title>
<path fill="none" stroke="midnightblue" d="M307.12,-935.57C306.73,-935.06 306.36,-934.53 306,-934 214.31,-796.99 372.18,-322.37 270,-193 266.99,-189.19 263.27,-186.11 259.13,-183.63"/>
<polygon fill="midnightblue" stroke="midnightblue" points="304.91,-938.31 314.46,-942.89 309.85,-933.35 304.91,-938.31"/>
</g>
<!-- Node51 -->
<g id="node46" class="node">
<title>Node51</title>
<g id="a_node46"><a xlink:href="namespacematplotlibcpp.html#abaecdb14580aa8c7945f35bcffd7fa02" target="_top" xlink:title=" ">
<polygon fill="white" stroke="black" points="137,-126.5 137,-145.5 270,-145.5 270,-126.5 137,-126.5"/>
<text text-anchor="middle" x="203.5" y="-133.5" font-family="Helvetica,sans-Serif" font-size="10.00">matplotlibcpp::subplot2grid</text>
</a>
</g>
</g>
<!-- Node3&#45;&gt;Node51 -->
<g id="edge48" class="edge">
<title>Node3&#45;&gt;Node51</title>
<path fill="none" stroke="midnightblue" d="M307.11,-935.57C306.73,-935.06 306.36,-934.53 306,-934 257.9,-861.93 323.63,-223.06 270,-155 267,-151.19 263.27,-148.11 259.14,-145.63"/>
<polygon fill="midnightblue" stroke="midnightblue" points="304.9,-938.3 314.45,-942.89 309.85,-933.35 304.9,-938.3"/>
</g>
<!-- Node52 -->
<g id="node47" class="node">
<title>Node52</title>
<g id="a_node47"><a xlink:href="namespacematplotlibcpp.html#ad765633aecb8e1000c8ee64783d47dd7" target="_top" xlink:title=" ">
<polygon fill="white" stroke="black" points="155,-88.5 155,-107.5 252,-107.5 252,-88.5 155,-88.5"/>
<text text-anchor="middle" x="203.5" y="-95.5" font-family="Helvetica,sans-Serif" font-size="10.00">matplotlibcpp::text</text>
</a>
</g>
</g>
<!-- Node3&#45;&gt;Node52 -->
<g id="edge49" class="edge">
<title>Node3&#45;&gt;Node52</title>
<path fill="none" stroke="midnightblue" d="M307.11,-935.57C306.73,-935.06 306.36,-934.53 306,-934 255.64,-858.37 326.16,-188.43 270,-117 265.39,-111.14 259.08,-107.01 252.19,-104.12"/>
<polygon fill="midnightblue" stroke="midnightblue" points="304.9,-938.3 314.44,-942.9 309.85,-933.35 304.9,-938.3"/>
</g>
<!-- Node53 -->
<g id="node48" class="node">
<title>Node53</title>
<g id="a_node48"><a xlink:href="namespacematplotlibcpp.html#a14e2b6e595e057f553ef7b14ddcda82a" target="_top" xlink:title=" ">
<polygon fill="white" stroke="black" points="154,-39 154,-69 253,-69 253,-39 154,-39"/>
<text text-anchor="start" x="162" y="-57" font-family="Helvetica,sans-Serif" font-size="10.00">matplotlibcpp::tight</text>
<text text-anchor="middle" x="203.5" y="-46" font-family="Helvetica,sans-Serif" font-size="10.00">_layout</text>
</a>
</g>
</g>
<!-- Node3&#45;&gt;Node53 -->
<g id="edge51" class="edge">
<title>Node3&#45;&gt;Node53</title>
<path fill="none" stroke="midnightblue" d="M307.11,-935.57C306.73,-935.06 306.36,-934.53 306,-934 253.37,-854.81 325.57,-156.16 270,-79 265.66,-72.98 259.67,-68.4 253.06,-64.93"/>
<polygon fill="midnightblue" stroke="midnightblue" points="304.89,-938.3 314.44,-942.9 309.84,-933.35 304.89,-938.3"/>
</g>
<!-- Node54 -->
<g id="node49" class="node">
<title>Node54</title>
<g id="a_node49"><a xlink:href="namespacematplotlibcpp.html#aca0fdbeae2fd86ab7291661f154f83ff" target="_top" xlink:title=" ">
<polygon fill="white" stroke="black" points="153,-0.5 153,-19.5 254,-19.5 254,-0.5 153,-0.5"/>
<text text-anchor="middle" x="203.5" y="-7.5" font-family="Helvetica,sans-Serif" font-size="10.00">matplotlibcpp::xkcd</text>
</a>
</g>
</g>
<!-- Node3&#45;&gt;Node54 -->
<g id="edge52" class="edge">
<title>Node3&#45;&gt;Node54</title>
<path fill="none" stroke="midnightblue" d="M307.11,-935.57C306.72,-935.06 306.35,-934.54 306,-934 250.4,-850.12 332.03,-108.25 270,-29 265.84,-23.69 260.29,-19.8 254.16,-16.96"/>
<polygon fill="midnightblue" stroke="midnightblue" points="304.89,-938.3 314.43,-942.91 309.84,-933.36 304.89,-938.3"/>
</g>
<!-- Node7&#45;&gt;Node8 -->
<g id="edge7" class="edge">
<title>Node7&#45;&gt;Node8</title>
<path fill="none" stroke="midnightblue" d="M151.48,-1708.83C132.34,-1713.26 110.85,-1718.24 92.71,-1722.45"/>
<polygon fill="midnightblue" stroke="midnightblue" points="152.29,-1712.23 161.24,-1706.56 150.71,-1705.41 152.29,-1712.23"/>
</g>
<!-- Node7&#45;&gt;Node9 -->
<g id="edge8" class="edge">
<title>Node7&#45;&gt;Node9</title>
<path fill="none" stroke="midnightblue" d="M144.09,-1691.58C129.07,-1690.19 113.09,-1688.71 98.72,-1687.38"/>
<polygon fill="midnightblue" stroke="midnightblue" points="144.03,-1695.09 154.31,-1692.53 144.67,-1688.12 144.03,-1695.09"/>
</g>
<!-- Node7&#45;&gt;Node10 -->
<g id="edge9" class="edge">
<title>Node7&#45;&gt;Node10</title>
<path fill="none" stroke="midnightblue" d="M173.44,-1682.95C147.45,-1670.38 109.46,-1652.02 82.8,-1639.13"/>
<polygon fill="midnightblue" stroke="midnightblue" points="172.23,-1686.26 182.76,-1687.46 175.28,-1679.95 172.23,-1686.26"/>
</g>
<!-- Node45&#45;&gt;Node46 -->
<g id="edge43" class="edge">
<title>Node45&#45;&gt;Node46</title>
<path fill="none" stroke="midnightblue" d="M146.08,-302.22C130.1,-304.55 112.9,-307.05 97.6,-309.28"/>
<polygon fill="midnightblue" stroke="midnightblue" points="146.98,-305.63 156.37,-300.72 145.97,-298.7 146.98,-305.63"/>
</g>
</g>
</svg>
