<?xml version="1.0" encoding="UTF-8" standalone="no"?>
<!DOCTYPE svg PUBLIC "-//W3C//DTD SVG 1.1//EN"
 "http://www.w3.org/Graphics/SVG/1.1/DTD/svg11.dtd">
<!-- Generated by graphviz version 2.43.0 (0)
 -->
<!-- Title: matplotlibcpp::detail::_interpreter::_interpreter Pages: 1 -->
<svg width="309pt" height="100pt"
 viewBox="0.00 0.00 309.00 99.50" xmlns="http://www.w3.org/2000/svg" xmlns:xlink="http://www.w3.org/1999/xlink">
<g id="graph0" class="graph" transform="scale(1 1) rotate(0) translate(4 95.5)">
<title>matplotlibcpp::detail::_interpreter::_interpreter</title>
<polygon fill="white" stroke="transparent" points="-4,4 -4,-95.5 305,-95.5 305,4 -4,4"/>
<!-- Node1 -->
<g id="node1" class="node">
<title>Node1</title>
<g id="a_node1"><a xlink:title=" ">
<polygon fill="#bfbfbf" stroke="black" points="0,-33 0,-63 126,-63 126,-33 0,-33"/>
<text text-anchor="start" x="8" y="-51" font-family="Helvetica,sans-Serif" font-size="10.00">matplotlibcpp::detail</text>
<text text-anchor="middle" x="63" y="-40" font-family="Helvetica,sans-Serif" font-size="10.00">::_interpreter::_interpreter</text>
</a>
</g>
</g>
<!-- Node2 -->
<g id="node2" class="node">
<title>Node2</title>
<g id="a_node2"><a xlink:href="structmatplotlibcpp_1_1detail_1_1__interpreter.html#acedcb567c71193a9d2b40e6d27490794" target="_top" xlink:title=" ">
<polygon fill="white" stroke="black" points="162,-61 162,-91 301,-91 301,-61 162,-61"/>
<text text-anchor="start" x="170" y="-79" font-family="Helvetica,sans-Serif" font-size="10.00">matplotlibcpp::detail</text>
<text text-anchor="middle" x="231.5" y="-68" font-family="Helvetica,sans-Serif" font-size="10.00">::_interpreter::import_numpy</text>
</a>
</g>
</g>
<!-- Node1&#45;&gt;Node2 -->
<g id="edge1" class="edge">
<title>Node1&#45;&gt;Node2</title>
<path fill="none" stroke="midnightblue" d="M126.47,-58.51C134.76,-59.9 143.35,-61.34 151.87,-62.78"/>
<polygon fill="midnightblue" stroke="midnightblue" points="151.37,-66.24 161.82,-64.45 152.53,-59.34 151.37,-66.24"/>
</g>
<!-- Node3 -->
<g id="node3" class="node">
<title>Node3</title>
<g id="a_node3"><a xlink:href="structmatplotlibcpp_1_1detail_1_1__interpreter.html#aa717a5aaf418cda0430f2e4227ca8480" target="_top" xlink:title=" ">
<polygon fill="white" stroke="black" points="179.5,-0.5 179.5,-41.5 283.5,-41.5 283.5,-0.5 179.5,-0.5"/>
<text text-anchor="start" x="187.5" y="-29.5" font-family="Helvetica,sans-Serif" font-size="10.00">matplotlibcpp::detail</text>
<text text-anchor="start" x="187.5" y="-18.5" font-family="Helvetica,sans-Serif" font-size="10.00">::_interpreter::safe</text>
<text text-anchor="middle" x="231.5" y="-7.5" font-family="Helvetica,sans-Serif" font-size="10.00">_import</text>
</a>
</g>
</g>
<!-- Node1&#45;&gt;Node3 -->
<g id="edge2" class="edge">
<title>Node1&#45;&gt;Node3</title>
<path fill="none" stroke="midnightblue" d="M126.47,-37.87C140.51,-35.59 155.38,-33.18 169.36,-30.91"/>
<polygon fill="midnightblue" stroke="midnightblue" points="170.04,-34.35 179.36,-29.29 168.92,-27.44 170.04,-34.35"/>
</g>
</g>
</svg>
