<?xml version="1.0" encoding="UTF-8" standalone="no"?>
<!DOCTYPE svg PUBLIC "-//W3C//DTD SVG 1.1//EN"
 "http://www.w3.org/Graphics/SVG/1.1/DTD/svg11.dtd">
<!-- Generated by graphviz version 2.43.0 (0)
 -->
<!-- Title: matplotlibcpp::detail::_interpreter::interkeeper Pages: 1 -->
<svg width="579pt" height="1905pt"
 viewBox="0.00 0.00 579.00 1905.00" xmlns="http://www.w3.org/2000/svg" xmlns:xlink="http://www.w3.org/1999/xlink">
<g id="graph0" class="graph" transform="scale(1 1) rotate(0) translate(4 1901)">
<title>matplotlibcpp::detail::_interpreter::interkeeper</title>
<polygon fill="white" stroke="transparent" points="-4,4 -4,-1901 575,-1901 575,4 -4,4"/>
<!-- Node1 -->
<g id="node1" class="node">
<title>Node1</title>
<g id="a_node1"><a xlink:title=" ">
<polygon fill="#bfbfbf" stroke="black" points="446,-937 446,-967 571,-967 571,-937 446,-937"/>
<text text-anchor="start" x="454" y="-955" font-family="Helvetica,sans-Serif" font-size="10.00">matplotlibcpp::detail</text>
<text text-anchor="middle" x="508.5" y="-944" font-family="Helvetica,sans-Serif" font-size="10.00">::_interpreter::interkeeper</text>
</a>
</g>
</g>
<!-- Node2 -->
<g id="node2" class="node">
<title>Node2</title>
<g id="a_node2"><a xlink:href="structmatplotlibcpp_1_1detail_1_1__interpreter.html#a3ddc4e50c23738307da3dc64c47cdbc0" target="_top" xlink:title=" ">
<polygon fill="white" stroke="red" points="306,-962 306,-992 410,-992 410,-962 306,-962"/>
<text text-anchor="start" x="314" y="-980" font-family="Helvetica,sans-Serif" font-size="10.00">matplotlibcpp::detail</text>
<text text-anchor="middle" x="358" y="-969" font-family="Helvetica,sans-Serif" font-size="10.00">::_interpreter::get</text>
</a>
</g>
</g>
<!-- Node1&#45;&gt;Node2 -->
<g id="edge1" class="edge">
<title>Node1&#45;&gt;Node2</title>
<path fill="none" stroke="midnightblue" d="M435.79,-964.07C427.2,-965.52 418.58,-966.97 410.36,-968.35"/>
<polygon fill="midnightblue" stroke="midnightblue" points="436.53,-967.5 445.81,-962.39 435.37,-960.59 436.53,-967.5"/>
</g>
<!-- Node56 -->
<g id="node50" class="node">
<title>Node56</title>
<g id="a_node50"><a xlink:href="structmatplotlibcpp_1_1detail_1_1__interpreter.html#aaa830503858a1685b9820930ed02f326" target="_top" xlink:title=" ">
<polygon fill="white" stroke="black" points="306,-913 306,-943 410,-943 410,-913 306,-913"/>
<text text-anchor="start" x="314" y="-931" font-family="Helvetica,sans-Serif" font-size="10.00">matplotlibcpp::detail</text>
<text text-anchor="middle" x="358" y="-920" font-family="Helvetica,sans-Serif" font-size="10.00">::_interpreter::kill</text>
</a>
</g>
</g>
<!-- Node1&#45;&gt;Node56 -->
<g id="edge53" class="edge">
<title>Node1&#45;&gt;Node56</title>
<path fill="none" stroke="midnightblue" d="M435.79,-940.41C427.2,-939.02 418.58,-937.63 410.36,-936.3"/>
<polygon fill="midnightblue" stroke="midnightblue" points="435.38,-943.89 445.81,-942.03 436.5,-936.98 435.38,-943.89"/>
</g>
<!-- Node3 -->
<g id="node3" class="node">
<title>Node3</title>
<g id="a_node3"><a xlink:href="namespacematplotlibcpp.html#a4854fc237468144bd46809ea7ce8f2a0" target="_top" xlink:title=" ">
<polygon fill="white" stroke="black" points="144.5,-1877.5 144.5,-1896.5 262.5,-1896.5 262.5,-1877.5 144.5,-1877.5"/>
<text text-anchor="middle" x="203.5" y="-1884.5" font-family="Helvetica,sans-Serif" font-size="10.00">matplotlibcpp::annotate</text>
</a>
</g>
</g>
<!-- Node2&#45;&gt;Node3 -->
<g id="edge2" class="edge">
<title>Node2&#45;&gt;Node3</title>
<path fill="none" stroke="midnightblue" d="M356.2,-1002.27C351.62,-1140.32 326.85,-1799.53 270,-1868 266.82,-1871.83 262.93,-1874.91 258.63,-1877.39"/>
<polygon fill="midnightblue" stroke="midnightblue" points="359.7,-1002.34 356.53,-992.23 352.7,-1002.11 359.7,-1002.34"/>
</g>
<!-- Node4 -->
<g id="node4" class="node">
<title>Node4</title>
<g id="a_node4"><a xlink:href="namespacematplotlibcpp.html#a5da5568ee4a63f144e4541c6c84ed0ce" target="_top" xlink:title=" ">
<polygon fill="white" stroke="black" points="151.5,-1839.5 151.5,-1858.5 255.5,-1858.5 255.5,-1839.5 151.5,-1839.5"/>
<text text-anchor="middle" x="203.5" y="-1846.5" font-family="Helvetica,sans-Serif" font-size="10.00">matplotlibcpp::arrow</text>
</a>
</g>
</g>
<!-- Node2&#45;&gt;Node4 -->
<g id="edge3" class="edge">
<title>Node2&#45;&gt;Node4</title>
<path fill="none" stroke="midnightblue" d="M356.08,-1002.45C350.97,-1137.32 324.42,-1764.74 270,-1830 266.13,-1834.64 261.21,-1838.18 255.8,-1840.88"/>
<polygon fill="midnightblue" stroke="midnightblue" points="359.58,-1002.39 356.46,-992.27 352.59,-1002.13 359.58,-1002.39"/>
</g>
<!-- Node5 -->
<g id="node5" class="node">
<title>Node5</title>
<g id="a_node5"><a xlink:href="namespacematplotlibcpp.html#aad674397c3890c8454edbd6363b1564e" target="_top" xlink:title=" ">
<polygon fill="white" stroke="black" points="148,-1801.5 148,-1820.5 259,-1820.5 259,-1801.5 148,-1801.5"/>
<text text-anchor="middle" x="203.5" y="-1808.5" font-family="Helvetica,sans-Serif" font-size="10.00">matplotlibcpp::axhline</text>
</a>
</g>
</g>
<!-- Node2&#45;&gt;Node5 -->
<g id="edge4" class="edge">
<title>Node2&#45;&gt;Node5</title>
<path fill="none" stroke="midnightblue" d="M355.86,-1002.33C349.77,-1132.6 319.55,-1723.58 270,-1787 265.08,-1793.3 258.34,-1797.94 251.05,-1801.37"/>
<polygon fill="midnightblue" stroke="midnightblue" points="359.36,-1002.28 356.33,-992.13 352.37,-1001.96 359.36,-1002.28"/>
</g>
<!-- Node6 -->
<g id="node6" class="node">
<title>Node6</title>
<g id="a_node6"><a xlink:href="namespacematplotlibcpp.html#aab5287e30ebd90df0f5614d8da0f5291" target="_top" xlink:title=" ">
<polygon fill="white" stroke="black" points="154.5,-1687.5 154.5,-1706.5 252.5,-1706.5 252.5,-1687.5 154.5,-1687.5"/>
<text text-anchor="middle" x="203.5" y="-1694.5" font-family="Helvetica,sans-Serif" font-size="10.00">matplotlibcpp::axis</text>
</a>
</g>
</g>
<!-- Node2&#45;&gt;Node6 -->
<g id="edge5" class="edge">
<title>Node2&#45;&gt;Node6</title>
<path fill="none" stroke="midnightblue" d="M357.24,-1002.21C357.83,-1114.26 354.83,-1566.36 270,-1673 264.95,-1679.35 258.05,-1684.02 250.63,-1687.46"/>
<polygon fill="midnightblue" stroke="midnightblue" points="360.74,-1002.14 357.18,-992.17 353.74,-1002.19 360.74,-1002.14"/>
</g>
<!-- Node7 -->
<g id="node7" class="node">
<title>Node7</title>
<g id="a_node7"><a xlink:href="namespacematplotlibcpp.html#a107bbc57e93a929c75baf1c60a712d8b" target="_top" xlink:title=" ">
<polygon fill="white" stroke="black" points="0,-1760.5 0,-1779.5 101,-1779.5 101,-1760.5 0,-1760.5"/>
<text text-anchor="middle" x="50.5" y="-1767.5" font-family="Helvetica,sans-Serif" font-size="10.00">matplotlibcpp::plot3</text>
</a>
</g>
</g>
<!-- Node2&#45;&gt;Node7 -->
<g id="edge36" class="edge">
<title>Node2&#45;&gt;Node7</title>
<path fill="none" stroke="midnightblue" d="M355.97,-1002.42C350.58,-1129.42 323.79,-1691.15 270,-1745 225.21,-1789.84 146.63,-1787.04 96.92,-1779.53"/>
<polygon fill="midnightblue" stroke="midnightblue" points="359.48,-1002.28 356.4,-992.14 352.48,-1001.98 359.48,-1002.28"/>
</g>
<!-- Node8 -->
<g id="node8" class="node">
<title>Node8</title>
<g id="a_node8"><a xlink:href="namespacematplotlibcpp.html#a1f62cf2432777c919965bb983ddfd1b0" target="_top" xlink:title=" ">
<polygon fill="white" stroke="black" points="2.5,-1706 2.5,-1736 98.5,-1736 98.5,-1706 2.5,-1706"/>
<text text-anchor="start" x="10.5" y="-1724" font-family="Helvetica,sans-Serif" font-size="10.00">matplotlibcpp::plot</text>
<text text-anchor="middle" x="50.5" y="-1713" font-family="Helvetica,sans-Serif" font-size="10.00">_surface</text>
</a>
</g>
</g>
<!-- Node2&#45;&gt;Node8 -->
<g id="edge37" class="edge">
<title>Node2&#45;&gt;Node8</title>
<path fill="none" stroke="midnightblue" d="M355.95,-1002.35C350.55,-1126.56 324.09,-1666.79 270,-1716 224.25,-1757.62 148.18,-1748.27 98.95,-1735.98"/>
<polygon fill="midnightblue" stroke="midnightblue" points="359.45,-1002.41 356.38,-992.27 352.46,-1002.11 359.45,-1002.41"/>
</g>
<!-- Node9 -->
<g id="node9" class="node">
<title>Node9</title>
<g id="a_node9"><a xlink:href="namespacematplotlibcpp.html#a6479afec926d90fdf3309cf2a88db030" target="_top" xlink:title=" ">
<polygon fill="white" stroke="black" points="2.5,-1647 2.5,-1677 98.5,-1677 98.5,-1647 2.5,-1647"/>
<text text-anchor="start" x="10.5" y="-1665" font-family="Helvetica,sans-Serif" font-size="10.00">matplotlibcpp::tick</text>
<text text-anchor="middle" x="50.5" y="-1654" font-family="Helvetica,sans-Serif" font-size="10.00">_params</text>
</a>
</g>
</g>
<!-- Node2&#45;&gt;Node9 -->
<g id="edge49" class="edge">
<title>Node2&#45;&gt;Node9</title>
<path fill="none" stroke="midnightblue" d="M355.52,-1002.2C348.49,-1117.9 316.81,-1594.58 270,-1640 225.26,-1683.41 148.54,-1680.34 98.94,-1672.46"/>
<polygon fill="midnightblue" stroke="midnightblue" points="359.02,-1002.34 356.12,-992.15 352.03,-1001.92 359.02,-1002.34"/>
</g>
<!-- Node10 -->
<g id="node10" class="node">
<title>Node10</title>
<g id="a_node10"><a xlink:href="namespacematplotlibcpp.html#a74882742dd5b2fa53cce6c2d4f5bbc2c" target="_top" xlink:title=" ">
<polygon fill="white" stroke="black" points="148,-1611.5 148,-1630.5 259,-1630.5 259,-1611.5 148,-1611.5"/>
<text text-anchor="middle" x="203.5" y="-1618.5" font-family="Helvetica,sans-Serif" font-size="10.00">matplotlibcpp::axvline</text>
</a>
</g>
</g>
<!-- Node2&#45;&gt;Node10 -->
<g id="edge9" class="edge">
<title>Node2&#45;&gt;Node10</title>
<path fill="none" stroke="midnightblue" d="M357.01,-1002.4C356.56,-1107.88 349.55,-1510.08 270,-1602 266.67,-1605.85 262.61,-1608.94 258.16,-1611.42"/>
<polygon fill="midnightblue" stroke="midnightblue" points="360.52,-1002.09 357.04,-992.08 353.52,-1002.07 360.52,-1002.09"/>
</g>
<!-- Node11 -->
<g id="node11" class="node">
<title>Node11</title>
<g id="a_node11"><a xlink:href="namespacematplotlibcpp.html#aa895bc53f99e3630b8c0adb41880b485" target="_top" xlink:title=" ">
<polygon fill="white" stroke="black" points="145,-1573.5 145,-1592.5 262,-1592.5 262,-1573.5 145,-1573.5"/>
<text text-anchor="middle" x="203.5" y="-1580.5" font-family="Helvetica,sans-Serif" font-size="10.00">matplotlibcpp::axvspan</text>
</a>
</g>
</g>
<!-- Node2&#45;&gt;Node11 -->
<g id="edge10" class="edge">
<title>Node2&#45;&gt;Node11</title>
<path fill="none" stroke="midnightblue" d="M356.76,-1002.49C355.29,-1104.02 344.78,-1478.36 270,-1564 266.65,-1567.84 262.58,-1570.92 258.12,-1573.39"/>
<polygon fill="midnightblue" stroke="midnightblue" points="360.26,-1002.29 356.89,-992.25 353.26,-1002.2 360.26,-1002.29"/>
</g>
<!-- Node12 -->
<g id="node12" class="node">
<title>Node12</title>
<g id="a_node12"><a xlink:href="namespacematplotlibcpp.html#aa3ccefcc977791fc66c1cff63d589d00" target="_top" xlink:title=" ">
<polygon fill="white" stroke="black" points="157,-1535.5 157,-1554.5 250,-1554.5 250,-1535.5 157,-1535.5"/>
<text text-anchor="middle" x="203.5" y="-1542.5" font-family="Helvetica,sans-Serif" font-size="10.00">matplotlibcpp::cla</text>
</a>
</g>
</g>
<!-- Node2&#45;&gt;Node12 -->
<g id="edge11" class="edge">
<title>Node2&#45;&gt;Node12</title>
<path fill="none" stroke="midnightblue" d="M356.48,-1002.08C353.97,-1098.86 340.15,-1446.47 270,-1526 264.75,-1531.95 257.76,-1536.09 250.31,-1538.95"/>
<polygon fill="midnightblue" stroke="midnightblue" points="359.98,-1002.12 356.72,-992.04 352.98,-1001.96 359.98,-1002.12"/>
</g>
<!-- Node13 -->
<g id="node13" class="node">
<title>Node13</title>
<g id="a_node13"><a xlink:href="namespacematplotlibcpp.html#adea4113b0ff7f393e18f1a99eb7e1718" target="_top" xlink:title=" ">
<polygon fill="white" stroke="red" points="158,-1497.5 158,-1516.5 249,-1516.5 249,-1497.5 158,-1497.5"/>
<text text-anchor="middle" x="203.5" y="-1504.5" font-family="Helvetica,sans-Serif" font-size="10.00">matplotlibcpp::clf</text>
</a>
</g>
</g>
<!-- Node2&#45;&gt;Node13 -->
<g id="edge12" class="edge">
<title>Node2&#45;&gt;Node13</title>
<path fill="none" stroke="midnightblue" d="M356.15,-1002.12C352.54,-1094.62 335.42,-1414.69 270,-1488 264.48,-1494.18 257.08,-1498.41 249.25,-1501.28"/>
<polygon fill="midnightblue" stroke="midnightblue" points="359.66,-1002.12 356.53,-992 352.66,-1001.86 359.66,-1002.12"/>
</g>
<!-- Node17 -->
<g id="node14" class="node">
<title>Node17</title>
<g id="a_node14"><a xlink:href="namespacematplotlibcpp.html#a62aaaf872c41a9d1b71add44c0cc0447" target="_top" xlink:title=" ">
<polygon fill="white" stroke="black" points="151.5,-1459.5 151.5,-1478.5 255.5,-1478.5 255.5,-1459.5 151.5,-1459.5"/>
<text text-anchor="middle" x="203.5" y="-1466.5" font-family="Helvetica,sans-Serif" font-size="10.00">matplotlibcpp::close</text>
</a>
</g>
</g>
<!-- Node2&#45;&gt;Node17 -->
<g id="edge13" class="edge">
<title>Node2&#45;&gt;Node17</title>
<path fill="none" stroke="midnightblue" d="M355.77,-1002.24C350.97,-1090.39 330.69,-1382.89 270,-1450 266.03,-1454.39 261.11,-1457.79 255.77,-1460.42"/>
<polygon fill="midnightblue" stroke="midnightblue" points="359.27,-1002.25 356.3,-992.08 352.28,-1001.88 359.27,-1002.25"/>
</g>
<!-- Node18 -->
<g id="node15" class="node">
<title>Node18</title>
<g id="a_node15"><a xlink:href="namespacematplotlibcpp.html#acd9fc5bb7916c735390c2056214b12be" target="_top" xlink:title=" ">
<polygon fill="white" stroke="black" points="153,-1421.5 153,-1440.5 254,-1440.5 254,-1421.5 153,-1421.5"/>
<text text-anchor="middle" x="203.5" y="-1428.5" font-family="Helvetica,sans-Serif" font-size="10.00">matplotlibcpp::draw</text>
</a>
</g>
</g>
<!-- Node2&#45;&gt;Node18 -->
<g id="edge14" class="edge">
<title>Node2&#45;&gt;Node18</title>
<path fill="none" stroke="midnightblue" d="M355.32,-1002.38C349.27,-1086.01 325.97,-1351.07 270,-1412 265.59,-1416.8 260.06,-1420.41 254.08,-1423.12"/>
<polygon fill="midnightblue" stroke="midnightblue" points="358.82,-1002.47 356.03,-992.25 351.84,-1001.98 358.82,-1002.47"/>
</g>
<!-- Node19 -->
<g id="node16" class="node">
<title>Node19</title>
<g id="a_node16"><a xlink:href="namespacematplotlibcpp.html#a63173b57d788807c1c6860dbc7961e40" target="_top" xlink:title=" ">
<polygon fill="white" stroke="black" points="148.5,-1372 148.5,-1402 258.5,-1402 258.5,-1372 148.5,-1372"/>
<text text-anchor="start" x="156.5" y="-1390" font-family="Helvetica,sans-Serif" font-size="10.00">matplotlibcpp::fignum</text>
<text text-anchor="middle" x="203.5" y="-1379" font-family="Helvetica,sans-Serif" font-size="10.00">_exists</text>
</a>
</g>
</g>
<!-- Node2&#45;&gt;Node19 -->
<g id="edge15" class="edge">
<title>Node2&#45;&gt;Node19</title>
<path fill="none" stroke="midnightblue" d="M354.4,-1002.27C346.04,-1078.95 317.59,-1307.1 270,-1362 266.65,-1365.86 262.64,-1369.13 258.27,-1371.9"/>
<polygon fill="midnightblue" stroke="midnightblue" points="357.9,-1002.41 355.49,-992.09 350.94,-1001.67 357.9,-1002.41"/>
</g>
<!-- Node20 -->
<g id="node17" class="node">
<title>Node20</title>
<g id="a_node17"><a xlink:href="namespacematplotlibcpp.html#a34e6ea8c8ee6779fe909ecac2ef945c8" target="_top" xlink:title=" ">
<polygon fill="white" stroke="black" points="151.5,-1333.5 151.5,-1352.5 255.5,-1352.5 255.5,-1333.5 151.5,-1333.5"/>
<text text-anchor="middle" x="203.5" y="-1340.5" font-family="Helvetica,sans-Serif" font-size="10.00">matplotlibcpp::figure</text>
</a>
</g>
</g>
<!-- Node2&#45;&gt;Node20 -->
<g id="edge16" class="edge">
<title>Node2&#45;&gt;Node20</title>
<path fill="none" stroke="midnightblue" d="M353.93,-1002.31C344.73,-1074.14 315.2,-1277.11 270,-1324 265.97,-1328.18 261.09,-1331.45 255.82,-1334.01"/>
<polygon fill="midnightblue" stroke="midnightblue" points="357.41,-1002.68 355.19,-992.32 350.47,-1001.81 357.41,-1002.68"/>
</g>
<!-- Node21 -->
<g id="node18" class="node">
<title>Node21</title>
<g id="a_node18"><a xlink:href="namespacematplotlibcpp.html#a91e91bcdcfc7632a917830bfe3f71ca3" target="_top" xlink:title=" ">
<polygon fill="white" stroke="black" points="139.5,-1295.5 139.5,-1314.5 267.5,-1314.5 267.5,-1295.5 139.5,-1295.5"/>
<text text-anchor="middle" x="203.5" y="-1302.5" font-family="Helvetica,sans-Serif" font-size="10.00">matplotlibcpp::figure_size</text>
</a>
</g>
</g>
<!-- Node2&#45;&gt;Node21 -->
<g id="edge17" class="edge">
<title>Node2&#45;&gt;Node21</title>
<path fill="none" stroke="midnightblue" d="M357.6,-1002.2C357.58,-1060.6 349.1,-1206.28 270,-1286 266.16,-1289.87 261.59,-1292.96 256.67,-1295.43"/>
<polygon fill="midnightblue" stroke="midnightblue" points="361.1,-1002.01 357.52,-992.04 354.1,-1002.07 361.1,-1002.01"/>
</g>
<!-- Node22 -->
<g id="node19" class="node">
<title>Node22</title>
<g id="a_node19"><a xlink:href="namespacematplotlibcpp.html#a00a57926330764f8490142b3ce06bd2e" target="_top" xlink:title=" ">
<polygon fill="white" stroke="black" points="158.5,-1257.5 158.5,-1276.5 248.5,-1276.5 248.5,-1257.5 158.5,-1257.5"/>
<text text-anchor="middle" x="203.5" y="-1264.5" font-family="Helvetica,sans-Serif" font-size="10.00">matplotlibcpp::fill</text>
</a>
</g>
</g>
<!-- Node2&#45;&gt;Node22 -->
<g id="edge18" class="edge">
<title>Node2&#45;&gt;Node22</title>
<path fill="none" stroke="midnightblue" d="M356.41,-1002.37C353.76,-1055.67 339.96,-1179.99 270,-1248 264.06,-1253.78 256.47,-1257.82 248.57,-1260.63"/>
<polygon fill="midnightblue" stroke="midnightblue" points="359.92,-1002.25 356.82,-992.12 352.92,-1001.97 359.92,-1002.25"/>
</g>
<!-- Node23 -->
<g id="node20" class="node">
<title>Node23</title>
<g id="a_node20"><a xlink:href="namespacematplotlibcpp.html#a928fb4c83f29554b1b37aeea7af9bb73" target="_top" xlink:title=" ">
<polygon fill="white" stroke="black" points="158.5,-1208 158.5,-1238 248.5,-1238 248.5,-1208 158.5,-1208"/>
<text text-anchor="start" x="166.5" y="-1226" font-family="Helvetica,sans-Serif" font-size="10.00">matplotlibcpp::fill</text>
<text text-anchor="middle" x="203.5" y="-1215" font-family="Helvetica,sans-Serif" font-size="10.00">_between</text>
</a>
</g>
</g>
<!-- Node2&#45;&gt;Node23 -->
<g id="edge19" class="edge">
<title>Node2&#45;&gt;Node23</title>
<path fill="none" stroke="midnightblue" d="M353.77,-1002.28C346.7,-1047.54 325.78,-1142.8 270,-1198 264.03,-1203.91 256.52,-1208.45 248.73,-1211.93"/>
<polygon fill="midnightblue" stroke="midnightblue" points="357.27,-1002.56 355.25,-992.16 350.34,-1001.55 357.27,-1002.56"/>
</g>
<!-- Node24 -->
<g id="node21" class="node">
<title>Node24</title>
<g id="a_node21"><a xlink:href="namespacematplotlibcpp.html#ae0bbf80e73099a91df28e4fb871b166a" target="_top" xlink:title=" ">
<polygon fill="white" stroke="black" points="155.5,-1169.5 155.5,-1188.5 251.5,-1188.5 251.5,-1169.5 155.5,-1169.5"/>
<text text-anchor="middle" x="203.5" y="-1176.5" font-family="Helvetica,sans-Serif" font-size="10.00">matplotlibcpp::grid</text>
</a>
</g>
</g>
<!-- Node2&#45;&gt;Node24 -->
<g id="edge20" class="edge">
<title>Node2&#45;&gt;Node24</title>
<path fill="none" stroke="midnightblue" d="M352.01,-1001.96C342.83,-1041.4 319.47,-1117.94 270,-1160 264.68,-1164.53 258.33,-1167.97 251.71,-1170.6"/>
<polygon fill="midnightblue" stroke="midnightblue" points="355.45,-1002.63 354.19,-992.11 348.62,-1001.12 355.45,-1002.63"/>
</g>
<!-- Node25 -->
<g id="node22" class="node">
<title>Node25</title>
<g id="a_node22"><a xlink:href="namespacematplotlibcpp.html#aeaf80309ad11083ec57bd6b246f6e4dc" target="_top" xlink:title=" ">
<polygon fill="white" stroke="black" points="155.5,-1131.5 155.5,-1150.5 251.5,-1150.5 251.5,-1131.5 155.5,-1131.5"/>
<text text-anchor="middle" x="203.5" y="-1138.5" font-family="Helvetica,sans-Serif" font-size="10.00">matplotlibcpp::hist</text>
</a>
</g>
</g>
<!-- Node2&#45;&gt;Node25 -->
<g id="edge21" class="edge">
<title>Node2&#45;&gt;Node25</title>
<path fill="none" stroke="midnightblue" d="M348.62,-1001.92C336.43,-1034.37 310.71,-1090.64 270,-1122 264.56,-1126.19 258.22,-1129.46 251.67,-1132"/>
<polygon fill="midnightblue" stroke="midnightblue" points="351.99,-1002.87 352.1,-992.28 345.41,-1000.49 351.99,-1002.87"/>
</g>
<!-- Node26 -->
<g id="node23" class="node">
<title>Node26</title>
<g id="a_node23"><a xlink:href="namespacematplotlibcpp_1_1detail.html#ab78ea1d46cdefdf8037d2a2c0bcfaedb" target="_top" xlink:title=" ">
<polygon fill="white" stroke="black" points="151.5,-1082 151.5,-1112 255.5,-1112 255.5,-1082 151.5,-1082"/>
<text text-anchor="start" x="159.5" y="-1100" font-family="Helvetica,sans-Serif" font-size="10.00">matplotlibcpp::detail</text>
<text text-anchor="middle" x="203.5" y="-1089" font-family="Helvetica,sans-Serif" font-size="10.00">::imshow</text>
</a>
</g>
</g>
<!-- Node2&#45;&gt;Node26 -->
<g id="edge22" class="edge">
<title>Node2&#45;&gt;Node26</title>
<path fill="none" stroke="midnightblue" d="M340.62,-1000.36C324.7,-1021.57 298.77,-1052.44 270,-1072 264.46,-1075.76 258.28,-1079.06 251.99,-1081.93"/>
<polygon fill="midnightblue" stroke="midnightblue" points="343.52,-1002.33 346.61,-992.2 337.87,-998.19 343.52,-1002.33"/>
</g>
<!-- Node27 -->
<g id="node24" class="node">
<title>Node27</title>
<g id="a_node24"><a xlink:href="namespacematplotlibcpp.html#a9bddb5276ddc48f4ff9c2b36b98db71a" target="_top" xlink:title=" ">
<polygon fill="white" stroke="black" points="157,-1043.5 157,-1062.5 250,-1062.5 250,-1043.5 157,-1043.5"/>
<text text-anchor="middle" x="203.5" y="-1050.5" font-family="Helvetica,sans-Serif" font-size="10.00">matplotlibcpp::ion</text>
</a>
</g>
</g>
<!-- Node2&#45;&gt;Node27 -->
<g id="edge23" class="edge">
<title>Node2&#45;&gt;Node27</title>
<path fill="none" stroke="midnightblue" d="M329.47,-998.09C312.95,-1009.96 291.09,-1024.3 270,-1034 262.04,-1037.66 253.21,-1040.79 244.68,-1043.4"/>
<polygon fill="midnightblue" stroke="midnightblue" points="331.59,-1000.88 337.6,-992.15 327.46,-995.23 331.59,-1000.88"/>
</g>
<!-- Node28 -->
<g id="node25" class="node">
<title>Node28</title>
<g id="a_node25"><a xlink:href="namespacematplotlibcpp.html#a916bb5a9dc5f6a24877cc027bf4ee624" target="_top" xlink:title=" ">
<polygon fill="white" stroke="red" points="149,-1005.5 149,-1024.5 258,-1024.5 258,-1005.5 149,-1005.5"/>
<text text-anchor="middle" x="203.5" y="-1012.5" font-family="Helvetica,sans-Serif" font-size="10.00">matplotlibcpp::legend</text>
</a>
</g>
</g>
<!-- Node2&#45;&gt;Node28 -->
<g id="edge24" class="edge">
<title>Node2&#45;&gt;Node28</title>
<path fill="none" stroke="midnightblue" d="M295.97,-992.21C278.01,-996.68 258.88,-1001.45 242.79,-1005.46"/>
<polygon fill="midnightblue" stroke="midnightblue" points="296.94,-995.57 305.8,-989.76 295.25,-988.78 296.94,-995.57"/>
</g>
<!-- Node29 -->
<g id="node26" class="node">
<title>Node29</title>
<g id="a_node26"><a xlink:href="namespacematplotlibcpp.html#a6cfa8cba00f52a2c4614fa7a8a0bcd2b" target="_top" xlink:title=" ">
<polygon fill="white" stroke="black" points="150.5,-967.5 150.5,-986.5 256.5,-986.5 256.5,-967.5 150.5,-967.5"/>
<text text-anchor="middle" x="203.5" y="-974.5" font-family="Helvetica,sans-Serif" font-size="10.00">matplotlibcpp::loglog</text>
</a>
</g>
</g>
<!-- Node2&#45;&gt;Node29 -->
<g id="edge25" class="edge">
<title>Node2&#45;&gt;Node29</title>
<path fill="none" stroke="midnightblue" d="M295.59,-977C282.67,-977 269.15,-977 256.61,-977"/>
<polygon fill="midnightblue" stroke="midnightblue" points="295.8,-980.5 305.8,-977 295.8,-973.5 295.8,-980.5"/>
</g>
<!-- Node30 -->
<g id="node27" class="node">
<title>Node30</title>
<g id="a_node27"><a xlink:href="namespacematplotlibcpp.html#a468096a42e46d0a26e8a237ffb24caca" target="_top" xlink:title=" ">
<polygon fill="white" stroke="black" points="146,-929.5 146,-948.5 261,-948.5 261,-929.5 146,-929.5"/>
<text text-anchor="middle" x="203.5" y="-936.5" font-family="Helvetica,sans-Serif" font-size="10.00">matplotlibcpp::margins</text>
</a>
</g>
</g>
<!-- Node2&#45;&gt;Node30 -->
<g id="edge26" class="edge">
<title>Node2&#45;&gt;Node30</title>
<path fill="none" stroke="midnightblue" d="M295.97,-961.79C278.01,-957.32 258.88,-952.55 242.79,-948.54"/>
<polygon fill="midnightblue" stroke="midnightblue" points="295.25,-965.22 305.8,-964.24 296.94,-958.43 295.25,-965.22"/>
</g>
<!-- Node31 -->
<g id="node28" class="node">
<title>Node31</title>
<g id="a_node28"><a xlink:href="namespacematplotlibcpp.html#a2851ef02b92b32ee7d3dd8f8fd065ae3" target="_top" xlink:title=" ">
<polygon fill="white" stroke="black" points="138,-891.5 138,-910.5 269,-910.5 269,-891.5 138,-891.5"/>
<text text-anchor="middle" x="203.5" y="-898.5" font-family="Helvetica,sans-Serif" font-size="10.00">matplotlibcpp::named_hist</text>
</a>
</g>
</g>
<!-- Node2&#45;&gt;Node31 -->
<g id="edge27" class="edge">
<title>Node2&#45;&gt;Node31</title>
<path fill="none" stroke="midnightblue" d="M312.54,-957.1C310.29,-955.77 308.1,-954.41 306,-953 287.98,-940.91 288.92,-930.64 270,-920 263.19,-916.17 255.53,-913.05 247.93,-910.53"/>
<polygon fill="midnightblue" stroke="midnightblue" points="310.94,-960.21 321.4,-961.95 314.31,-954.07 310.94,-960.21"/>
</g>
<!-- Node32 -->
<g id="node29" class="node">
<title>Node32</title>
<g id="a_node29"><a xlink:href="namespacematplotlibcpp.html#a9482856fd165f21001420e712d0d2312" target="_top" xlink:title=" ">
<polygon fill="white" stroke="black" points="148.5,-842 148.5,-872 258.5,-872 258.5,-842 148.5,-842"/>
<text text-anchor="start" x="156.5" y="-860" font-family="Helvetica,sans-Serif" font-size="10.00">matplotlibcpp::named</text>
<text text-anchor="middle" x="203.5" y="-849" font-family="Helvetica,sans-Serif" font-size="10.00">_loglog</text>
</a>
</g>
</g>
<!-- Node2&#45;&gt;Node32 -->
<g id="edge28" class="edge">
<title>Node2&#45;&gt;Node32</title>
<path fill="none" stroke="midnightblue" d="M309.38,-956.02C308.2,-955.05 307.08,-954.04 306,-953 280.62,-928.35 296.29,-905.67 270,-882 265.75,-878.17 260.85,-874.91 255.69,-872.13"/>
<polygon fill="midnightblue" stroke="midnightblue" points="307.45,-958.94 317.64,-961.85 311.49,-953.22 307.45,-958.94"/>
</g>
<!-- Node33 -->
<g id="node30" class="node">
<title>Node33</title>
<g id="a_node30"><a xlink:href="namespacematplotlibcpp.html#a6461c03041d9947a0e3b3593b5b72c95" target="_top" xlink:title=" ">
<polygon fill="white" stroke="red" points="138,-803.5 138,-822.5 269,-822.5 269,-803.5 138,-803.5"/>
<text text-anchor="middle" x="203.5" y="-810.5" font-family="Helvetica,sans-Serif" font-size="10.00">matplotlibcpp::named_plot</text>
</a>
</g>
</g>
<!-- Node2&#45;&gt;Node33 -->
<g id="edge29" class="edge">
<title>Node2&#45;&gt;Node33</title>
<path fill="none" stroke="midnightblue" d="M308.31,-955.47C307.51,-954.68 306.73,-953.85 306,-953 269.65,-910.82 309.28,-872.47 270,-833 265.64,-828.62 260.35,-825.19 254.68,-822.51"/>
<polygon fill="midnightblue" stroke="midnightblue" points="306.31,-958.36 316.28,-961.93 310.71,-952.92 306.31,-958.36"/>
</g>
<!-- Node34 -->
<g id="node31" class="node">
<title>Node34</title>
<g id="a_node31"><a xlink:href="namespacematplotlibcpp.html#ae32c097d32b89445a995727d05446843" target="_top" xlink:title=" ">
<polygon fill="white" stroke="black" points="148.5,-754 148.5,-784 258.5,-784 258.5,-754 148.5,-754"/>
<text text-anchor="start" x="156.5" y="-772" font-family="Helvetica,sans-Serif" font-size="10.00">matplotlibcpp::named</text>
<text text-anchor="middle" x="203.5" y="-761" font-family="Helvetica,sans-Serif" font-size="10.00">_semilogx</text>
</a>
</g>
</g>
<!-- Node2&#45;&gt;Node34 -->
<g id="edge30" class="edge">
<title>Node2&#45;&gt;Node34</title>
<path fill="none" stroke="midnightblue" d="M307.85,-955.14C307.21,-954.45 306.59,-953.73 306,-953 260.62,-896.52 317.47,-848.74 270,-794 266.65,-790.14 262.64,-786.87 258.27,-784.11"/>
<polygon fill="midnightblue" stroke="midnightblue" points="305.69,-957.9 315.55,-961.79 310.27,-952.6 305.69,-957.9"/>
</g>
<!-- Node35 -->
<g id="node32" class="node">
<title>Node35</title>
<g id="a_node32"><a xlink:href="namespacematplotlibcpp.html#a529c059f3fca364b9fcb3b2e09cce36b" target="_top" xlink:title=" ">
<polygon fill="white" stroke="black" points="148.5,-705 148.5,-735 258.5,-735 258.5,-705 148.5,-705"/>
<text text-anchor="start" x="156.5" y="-723" font-family="Helvetica,sans-Serif" font-size="10.00">matplotlibcpp::named</text>
<text text-anchor="middle" x="203.5" y="-712" font-family="Helvetica,sans-Serif" font-size="10.00">_semilogy</text>
</a>
</g>
</g>
<!-- Node2&#45;&gt;Node35 -->
<g id="edge31" class="edge">
<title>Node2&#45;&gt;Node35</title>
<path fill="none" stroke="midnightblue" d="M307.8,-955.18C307.17,-954.48 306.57,-953.75 306,-953 249.14,-878.38 329.63,-817.43 270,-745 266.83,-741.15 262.99,-737.89 258.79,-735.13"/>
<polygon fill="midnightblue" stroke="midnightblue" points="305.58,-957.89 315.37,-961.93 310.23,-952.66 305.58,-957.89"/>
</g>
<!-- Node36 -->
<g id="node33" class="node">
<title>Node36</title>
<g id="a_node33"><a xlink:href="structmatplotlibcpp_1_1detail_1_1plot__impl_3_01std_1_1false__type_01_4.html#ab430540b63185e4a76526b47d3b195e5" target="_top" xlink:title=" ">
<polygon fill="white" stroke="black" points="148,-644.5 148,-685.5 259,-685.5 259,-644.5 148,-644.5"/>
<text text-anchor="start" x="156" y="-673.5" font-family="Helvetica,sans-Serif" font-size="10.00">matplotlibcpp::detail</text>
<text text-anchor="start" x="156" y="-662.5" font-family="Helvetica,sans-Serif" font-size="10.00">::plot_impl&lt; std::false</text>
<text text-anchor="middle" x="203.5" y="-651.5" font-family="Helvetica,sans-Serif" font-size="10.00">_type &gt;::operator()</text>
</a>
</g>
</g>
<!-- Node2&#45;&gt;Node36 -->
<g id="edge32" class="edge">
<title>Node2&#45;&gt;Node36</title>
<path fill="none" stroke="midnightblue" d="M307.43,-954.82C306.93,-954.23 306.46,-953.62 306,-953 237.58,-860.15 338.32,-788.93 270,-696 266.94,-691.84 263.19,-688.22 259.03,-685.08"/>
<polygon fill="midnightblue" stroke="midnightblue" points="305.08,-957.41 314.78,-961.66 309.85,-952.28 305.08,-957.41"/>
</g>
<!-- Node37 -->
<g id="node34" class="node">
<title>Node37</title>
<g id="a_node34"><a xlink:href="namespacematplotlibcpp.html#aa5bc4092c9e2acbb2c6ec4efd024cf2f" target="_top" xlink:title=" ">
<polygon fill="white" stroke="red" points="150,-606.5 150,-625.5 257,-625.5 257,-606.5 150,-606.5"/>
<text text-anchor="middle" x="203.5" y="-613.5" font-family="Helvetica,sans-Serif" font-size="10.00">matplotlibcpp::pause</text>
</a>
</g>
</g>
<!-- Node2&#45;&gt;Node37 -->
<g id="edge33" class="edge">
<title>Node2&#45;&gt;Node37</title>
<path fill="none" stroke="midnightblue" d="M307.41,-954.83C306.92,-954.24 306.45,-953.63 306,-953 223.14,-837.39 361.7,-743.73 270,-635 266.41,-630.75 261.93,-627.41 257.01,-624.81"/>
<polygon fill="midnightblue" stroke="midnightblue" points="305.02,-957.39 314.69,-961.73 309.83,-952.31 305.02,-957.39"/>
</g>
<!-- Node38 -->
<g id="node35" class="node">
<title>Node38</title>
<g id="a_node35"><a xlink:href="classmatplotlibcpp_1_1_plot.html#a6ab809f4fc44d6e4eadb100cba5b519e" target="_top" xlink:title=" ">
<polygon fill="white" stroke="black" points="154.5,-557 154.5,-587 252.5,-587 252.5,-557 154.5,-557"/>
<text text-anchor="start" x="162.5" y="-575" font-family="Helvetica,sans-Serif" font-size="10.00">matplotlibcpp::Plot</text>
<text text-anchor="middle" x="203.5" y="-564" font-family="Helvetica,sans-Serif" font-size="10.00">::Plot</text>
</a>
</g>
</g>
<!-- Node2&#45;&gt;Node38 -->
<g id="edge34" class="edge">
<title>Node2&#45;&gt;Node38</title>
<path fill="none" stroke="midnightblue" d="M307.4,-954.84C306.91,-954.24 306.45,-953.63 306,-953 214.13,-823.19 366.68,-723.26 270,-597 265.49,-591.1 259.4,-586.6 252.76,-583.16"/>
<polygon fill="midnightblue" stroke="midnightblue" points="304.99,-957.39 314.64,-961.76 309.83,-952.32 304.99,-957.39"/>
</g>
<!-- Node39 -->
<g id="node36" class="node">
<title>Node39</title>
<g id="a_node36"><a xlink:href="namespacematplotlibcpp.html#a06ac86c6fecaa5a9b3fb566bc31d6a3b" target="_top" xlink:title=" ">
<polygon fill="white" stroke="red" points="155.5,-518.5 155.5,-537.5 251.5,-537.5 251.5,-518.5 155.5,-518.5"/>
<text text-anchor="middle" x="203.5" y="-525.5" font-family="Helvetica,sans-Serif" font-size="10.00">matplotlibcpp::plot</text>
</a>
</g>
</g>
<!-- Node2&#45;&gt;Node39 -->
<g id="edge35" class="edge">
<title>Node2&#45;&gt;Node39</title>
<path fill="none" stroke="midnightblue" d="M307.39,-954.85C306.9,-954.25 306.44,-953.63 306,-953 254.25,-878.93 326.92,-618.17 270,-548 265.21,-542.09 258.72,-537.89 251.68,-534.9"/>
<polygon fill="midnightblue" stroke="midnightblue" points="304.97,-957.38 314.6,-961.79 309.82,-952.33 304.97,-957.38"/>
</g>
<!-- Node41 -->
<g id="node37" class="node">
<title>Node41</title>
<g id="a_node37"><a xlink:href="namespacematplotlibcpp.html#ad0a8762f877a67f0253b1cb316ca55bc" target="_top" xlink:title=" ">
<polygon fill="white" stroke="black" points="153,-480.5 153,-499.5 254,-499.5 254,-480.5 153,-480.5"/>
<text text-anchor="middle" x="203.5" y="-487.5" font-family="Helvetica,sans-Serif" font-size="10.00">matplotlibcpp::save</text>
</a>
</g>
</g>
<!-- Node2&#45;&gt;Node41 -->
<g id="edge38" class="edge">
<title>Node2&#45;&gt;Node41</title>
<path fill="none" stroke="midnightblue" d="M307.38,-954.85C306.9,-954.25 306.44,-953.63 306,-953 249.62,-871.63 332.6,-585.68 270,-509 265.81,-503.86 260.31,-500.07 254.29,-497.27"/>
<polygon fill="midnightblue" stroke="midnightblue" points="304.95,-957.37 314.57,-961.81 309.82,-952.34 304.95,-957.37"/>
</g>
<!-- Node42 -->
<g id="node38" class="node">
<title>Node42</title>
<g id="a_node38"><a xlink:href="namespacematplotlibcpp.html#ad25d4429577dbdd8c087a0ba6869840b" target="_top" xlink:title=" ">
<polygon fill="white" stroke="black" points="144,-442.5 144,-461.5 263,-461.5 263,-442.5 144,-442.5"/>
<text text-anchor="middle" x="203.5" y="-449.5" font-family="Helvetica,sans-Serif" font-size="10.00">matplotlibcpp::semilogx</text>
</a>
</g>
</g>
<!-- Node2&#45;&gt;Node42 -->
<g id="edge39" class="edge">
<title>Node2&#45;&gt;Node42</title>
<path fill="none" stroke="midnightblue" d="M307.37,-954.86C306.9,-954.25 306.44,-953.63 306,-953 245.11,-864.52 337.66,-554.42 270,-471 266.87,-467.14 263,-464.03 258.72,-461.54"/>
<polygon fill="midnightblue" stroke="midnightblue" points="304.94,-957.37 314.55,-961.82 309.81,-952.35 304.94,-957.37"/>
</g>
<!-- Node43 -->
<g id="node39" class="node">
<title>Node43</title>
<g id="a_node39"><a xlink:href="namespacematplotlibcpp.html#a4dce9b4c1c16c1dab0cffd11588d4db8" target="_top" xlink:title=" ">
<polygon fill="white" stroke="black" points="144,-404.5 144,-423.5 263,-423.5 263,-404.5 144,-404.5"/>
<text text-anchor="middle" x="203.5" y="-411.5" font-family="Helvetica,sans-Serif" font-size="10.00">matplotlibcpp::semilogy</text>
</a>
</g>
</g>
<!-- Node2&#45;&gt;Node43 -->
<g id="edge40" class="edge">
<title>Node2&#45;&gt;Node43</title>
<path fill="none" stroke="midnightblue" d="M307.37,-954.86C306.89,-954.26 306.44,-953.64 306,-953 240.59,-857.4 342.73,-523.16 270,-433 266.88,-429.13 263.02,-426.02 258.74,-423.52"/>
<polygon fill="midnightblue" stroke="midnightblue" points="304.93,-957.37 314.53,-961.84 309.81,-952.35 304.93,-957.37"/>
</g>
<!-- Node44 -->
<g id="node40" class="node">
<title>Node44</title>
<g id="a_node40"><a xlink:href="namespacematplotlibcpp.html#abed6306bfaf492081ded0df72c366e4e" target="_top" xlink:title=" ">
<polygon fill="white" stroke="black" points="156.5,-355 156.5,-385 250.5,-385 250.5,-355 156.5,-355"/>
<text text-anchor="start" x="164.5" y="-373" font-family="Helvetica,sans-Serif" font-size="10.00">matplotlibcpp::set</text>
<text text-anchor="middle" x="203.5" y="-362" font-family="Helvetica,sans-Serif" font-size="10.00">_aspect</text>
</a>
</g>
</g>
<!-- Node2&#45;&gt;Node44 -->
<g id="edge41" class="edge">
<title>Node2&#45;&gt;Node44</title>
<path fill="none" stroke="midnightblue" d="M307.13,-954.56C306.74,-954.05 306.36,-953.53 306,-953 236.08,-850.28 343.74,-495.01 270,-395 265.09,-388.34 258.16,-383.45 250.64,-379.87"/>
<polygon fill="midnightblue" stroke="midnightblue" points="304.94,-957.32 314.52,-961.85 309.86,-952.33 304.94,-957.32"/>
</g>
<!-- Node45 -->
<g id="node41" class="node">
<title>Node45</title>
<g id="a_node41"><a xlink:href="namespacematplotlibcpp.html#a2fc05d3a606ce68e7a72c9e4ed7f3556" target="_top" xlink:title=" ">
<polygon fill="white" stroke="black" points="3.5,-333 3.5,-363 97.5,-363 97.5,-333 3.5,-333"/>
<text text-anchor="start" x="11.5" y="-351" font-family="Helvetica,sans-Serif" font-size="10.00">matplotlibcpp::set</text>
<text text-anchor="middle" x="50.5" y="-340" font-family="Helvetica,sans-Serif" font-size="10.00">_aspect_equal</text>
</a>
</g>
</g>
<!-- Node2&#45;&gt;Node45 -->
<g id="edge43" class="edge">
<title>Node2&#45;&gt;Node45</title>
<path fill="none" stroke="midnightblue" d="M307.12,-954.56C306.74,-954.05 306.36,-953.53 306,-953 268.07,-896.96 319.25,-391.42 270,-345 222.38,-300.11 139.72,-317.08 90.87,-332.92"/>
<polygon fill="midnightblue" stroke="midnightblue" points="304.93,-957.31 314.5,-961.86 309.85,-952.34 304.93,-957.31"/>
</g>
<!-- Node46 -->
<g id="node42" class="node">
<title>Node46</title>
<g id="a_node42"><a xlink:href="namespacematplotlibcpp.html#ac7b2ae71a81811dfb69bcef95ee8390d" target="_top" xlink:title=" ">
<polygon fill="white" stroke="red" points="151.5,-278.5 151.5,-297.5 255.5,-297.5 255.5,-278.5 151.5,-278.5"/>
<text text-anchor="middle" x="203.5" y="-285.5" font-family="Helvetica,sans-Serif" font-size="10.00">matplotlibcpp::show</text>
</a>
</g>
</g>
<!-- Node2&#45;&gt;Node46 -->
<g id="edge44" class="edge">
<title>Node2&#45;&gt;Node46</title>
<path fill="none" stroke="midnightblue" d="M307.12,-954.56C306.73,-954.05 306.36,-953.53 306,-953 226.21,-834.73 354.95,-426.62 270,-312 265.31,-305.68 258.78,-301.02 251.65,-297.58"/>
<polygon fill="midnightblue" stroke="midnightblue" points="304.92,-957.31 314.49,-961.87 309.85,-952.34 304.92,-957.31"/>
</g>
<!-- Node47 -->
<g id="node43" class="node">
<title>Node47</title>
<g id="a_node43"><a xlink:href="namespacematplotlibcpp.html#ae3c91bdfbe011133346dcc4f31ec5932" target="_top" xlink:title=" ">
<polygon fill="white" stroke="red" points="152.5,-240.5 152.5,-259.5 254.5,-259.5 254.5,-240.5 152.5,-240.5"/>
<text text-anchor="middle" x="203.5" y="-247.5" font-family="Helvetica,sans-Serif" font-size="10.00">matplotlibcpp::stem</text>
</a>
</g>
</g>
<!-- Node2&#45;&gt;Node47 -->
<g id="edge45" class="edge">
<title>Node2&#45;&gt;Node47</title>
<path fill="none" stroke="midnightblue" d="M307.12,-954.56C306.73,-954.05 306.36,-953.53 306,-953 221.09,-826.67 364.58,-388.26 270,-269 265.95,-263.9 260.62,-260.11 254.75,-257.31"/>
<polygon fill="midnightblue" stroke="midnightblue" points="304.91,-957.31 314.47,-961.88 309.85,-952.34 304.91,-957.31"/>
</g>
<!-- Node49 -->
<g id="node44" class="node">
<title>Node49</title>
<g id="a_node44"><a xlink:href="namespacematplotlibcpp.html#a78f4b6d50e52d1782d52df692232f4e1" target="_top" xlink:title=" ">
<polygon fill="white" stroke="red" points="147.5,-202.5 147.5,-221.5 259.5,-221.5 259.5,-202.5 147.5,-202.5"/>
<text text-anchor="middle" x="203.5" y="-209.5" font-family="Helvetica,sans-Serif" font-size="10.00">matplotlibcpp::subplot</text>
</a>
</g>
</g>
<!-- Node2&#45;&gt;Node49 -->
<g id="edge46" class="edge">
<title>Node2&#45;&gt;Node49</title>
<path fill="none" stroke="midnightblue" d="M307.12,-954.57C306.73,-954.06 306.36,-953.53 306,-953 216.57,-819.55 369.65,-357 270,-231 266.99,-227.19 263.26,-224.12 259.13,-221.64"/>
<polygon fill="midnightblue" stroke="midnightblue" points="304.91,-957.31 314.46,-961.88 309.85,-952.35 304.91,-957.31"/>
</g>
<!-- Node50 -->
<g id="node45" class="node">
<title>Node50</title>
<g id="a_node45"><a xlink:href="namespacematplotlibcpp.html#abaecdb14580aa8c7945f35bcffd7fa02" target="_top" xlink:title=" ">
<polygon fill="white" stroke="black" points="137,-164.5 137,-183.5 270,-183.5 270,-164.5 137,-164.5"/>
<text text-anchor="middle" x="203.5" y="-171.5" font-family="Helvetica,sans-Serif" font-size="10.00">matplotlibcpp::subplot2grid</text>
</a>
</g>
</g>
<!-- Node2&#45;&gt;Node50 -->
<g id="edge47" class="edge">
<title>Node2&#45;&gt;Node50</title>
<path fill="none" stroke="midnightblue" d="M307.12,-954.57C306.73,-954.06 306.36,-953.53 306,-953 259.03,-882.71 322.36,-259.37 270,-193 266.99,-189.19 263.27,-186.11 259.14,-183.63"/>
<polygon fill="midnightblue" stroke="midnightblue" points="304.9,-957.3 314.46,-961.89 309.85,-952.35 304.9,-957.3"/>
</g>
<!-- Node51 -->
<g id="node46" class="node">
<title>Node51</title>
<g id="a_node46"><a xlink:href="namespacematplotlibcpp.html#ad765633aecb8e1000c8ee64783d47dd7" target="_top" xlink:title=" ">
<polygon fill="white" stroke="black" points="155,-126.5 155,-145.5 252,-145.5 252,-126.5 155,-126.5"/>
<text text-anchor="middle" x="203.5" y="-133.5" font-family="Helvetica,sans-Serif" font-size="10.00">matplotlibcpp::text</text>
</a>
</g>
</g>
<!-- Node2&#45;&gt;Node51 -->
<g id="edge48" class="edge">
<title>Node2&#45;&gt;Node51</title>
<path fill="none" stroke="midnightblue" d="M307.11,-954.57C306.73,-954.06 306.36,-953.53 306,-953 256.77,-879.15 324.89,-224.75 270,-155 265.39,-149.14 259.08,-145.01 252.19,-142.12"/>
<polygon fill="midnightblue" stroke="midnightblue" points="304.9,-957.3 314.45,-961.89 309.85,-952.35 304.9,-957.3"/>
</g>
<!-- Node52 -->
<g id="node47" class="node">
<title>Node52</title>
<g id="a_node47"><a xlink:href="namespacematplotlibcpp.html#a14e2b6e595e057f553ef7b14ddcda82a" target="_top" xlink:title=" ">
<polygon fill="white" stroke="black" points="154,-77 154,-107 253,-107 253,-77 154,-77"/>
<text text-anchor="start" x="162" y="-95" font-family="Helvetica,sans-Serif" font-size="10.00">matplotlibcpp::tight</text>
<text text-anchor="middle" x="203.5" y="-84" font-family="Helvetica,sans-Serif" font-size="10.00">_layout</text>
</a>
</g>
</g>
<!-- Node2&#45;&gt;Node52 -->
<g id="edge50" class="edge">
<title>Node2&#45;&gt;Node52</title>
<path fill="none" stroke="midnightblue" d="M307.11,-954.57C306.73,-954.06 306.36,-953.53 306,-953 254.5,-875.59 324.37,-192.42 270,-117 265.66,-110.98 259.67,-106.41 253.06,-102.93"/>
<polygon fill="midnightblue" stroke="midnightblue" points="304.89,-957.3 314.44,-961.9 309.85,-952.35 304.89,-957.3"/>
</g>
<!-- Node53 -->
<g id="node48" class="node">
<title>Node53</title>
<g id="a_node48"><a xlink:href="namespacematplotlibcpp.html#aca0fdbeae2fd86ab7291661f154f83ff" target="_top" xlink:title=" ">
<polygon fill="white" stroke="black" points="153,-38.5 153,-57.5 254,-57.5 254,-38.5 153,-38.5"/>
<text text-anchor="middle" x="203.5" y="-45.5" font-family="Helvetica,sans-Serif" font-size="10.00">matplotlibcpp::xkcd</text>
</a>
</g>
</g>
<!-- Node2&#45;&gt;Node53 -->
<g id="edge51" class="edge">
<title>Node2&#45;&gt;Node53</title>
<path fill="none" stroke="midnightblue" d="M307.11,-954.57C306.73,-954.06 306.36,-953.54 306,-953 251.53,-870.9 330.76,-144.56 270,-67 265.84,-61.69 260.28,-57.8 254.16,-54.96"/>
<polygon fill="midnightblue" stroke="midnightblue" points="304.89,-957.3 314.43,-961.91 309.84,-952.36 304.89,-957.3"/>
</g>
<!-- Node54 -->
<g id="node49" class="node">
<title>Node54</title>
<g id="a_node49"><a xlink:href="namespacematplotlibcpp.html#a712cd34472b3687668048899bee4cdbf" target="_top" xlink:title=" ">
<polygon fill="white" stroke="black" points="154.5,-0.5 154.5,-19.5 252.5,-19.5 252.5,-0.5 154.5,-0.5"/>
<text text-anchor="middle" x="203.5" y="-7.5" font-family="Helvetica,sans-Serif" font-size="10.00">matplotlibcpp::xlim</text>
</a>
</g>
</g>
<!-- Node2&#45;&gt;Node54 -->
<g id="edge52" class="edge">
<title>Node2&#45;&gt;Node54</title>
<path fill="none" stroke="midnightblue" d="M307.11,-954.57C306.72,-954.06 306.35,-953.54 306,-953 249.27,-867.34 333.29,-109.93 270,-29 265.48,-23.22 259.3,-19.12 252.54,-16.23"/>
<polygon fill="midnightblue" stroke="midnightblue" points="304.89,-957.3 314.43,-961.91 309.84,-952.36 304.89,-957.3"/>
</g>
<!-- Node6&#45;&gt;Node7 -->
<g id="edge6" class="edge">
<title>Node6&#45;&gt;Node7</title>
<path fill="none" stroke="midnightblue" d="M173.62,-1710.96C143.58,-1725.48 97.36,-1747.83 71.25,-1760.45"/>
<polygon fill="midnightblue" stroke="midnightblue" points="175.28,-1714.05 182.76,-1706.54 172.23,-1707.74 175.28,-1714.05"/>
</g>
<!-- Node6&#45;&gt;Node8 -->
<g id="edge7" class="edge">
<title>Node6&#45;&gt;Node8</title>
<path fill="none" stroke="midnightblue" d="M144.09,-1706.28C129.07,-1708.67 113.09,-1711.21 98.72,-1713.49"/>
<polygon fill="midnightblue" stroke="midnightblue" points="144.98,-1709.69 154.31,-1704.66 143.88,-1702.77 144.98,-1709.69"/>
</g>
<!-- Node6&#45;&gt;Node9 -->
<g id="edge8" class="edge">
<title>Node6&#45;&gt;Node9</title>
<path fill="none" stroke="midnightblue" d="M151.42,-1685.16C134.32,-1681.2 115.35,-1676.8 98.58,-1672.91"/>
<polygon fill="midnightblue" stroke="midnightblue" points="150.71,-1688.59 161.24,-1687.44 152.29,-1681.77 150.71,-1688.59"/>
</g>
<!-- Node44&#45;&gt;Node45 -->
<g id="edge42" class="edge">
<title>Node44&#45;&gt;Node45</title>
<path fill="none" stroke="midnightblue" d="M146.08,-361.78C130.1,-359.45 112.9,-356.95 97.6,-354.72"/>
<polygon fill="midnightblue" stroke="midnightblue" points="145.97,-365.3 156.37,-363.28 146.98,-358.37 145.97,-365.3"/>
</g>
</g>
</svg>
