<?xml version="1.0" encoding="UTF-8" standalone="no"?>
<!DOCTYPE svg PUBLIC "-//W3C//DTD SVG 1.1//EN"
 "http://www.w3.org/Graphics/SVG/1.1/DTD/svg11.dtd">
<!-- Generated by graphviz version 2.43.0 (0)
 -->
<!-- Title: matplotlibcpp::detail::is_callable_impl&lt; true, T &gt;::Derived Pages: 1 -->
<svg width="176pt" height="128pt"
 viewBox="0.00 0.00 175.50 128.00" xmlns="http://www.w3.org/2000/svg" xmlns:xlink="http://www.w3.org/1999/xlink">
<g id="graph0" class="graph" transform="scale(1 1) rotate(0) translate(4 124)">
<title>matplotlibcpp::detail::is_callable_impl&lt; true, T &gt;::Derived</title>
<polygon fill="white" stroke="transparent" points="-4,4 -4,-124 171.5,-124 171.5,4 -4,4"/>
<!-- Node1 -->
<g id="node1" class="node">
<title>Node1</title>
<g id="a_node1"><a xlink:title=" ">
<polygon fill="#bfbfbf" stroke="black" points="0.5,-0.5 0.5,-41.5 120.5,-41.5 120.5,-0.5 0.5,-0.5"/>
<text text-anchor="start" x="8.5" y="-29.5" font-family="Helvetica,sans-Serif" font-size="10.00">matplotlibcpp::detail</text>
<text text-anchor="start" x="8.5" y="-18.5" font-family="Helvetica,sans-Serif" font-size="10.00">::is_callable_impl&lt; true,</text>
<text text-anchor="middle" x="60.5" y="-7.5" font-family="Helvetica,sans-Serif" font-size="10.00"> T &gt;::Derived</text>
</a>
</g>
</g>
<!-- Node2 -->
<g id="node2" class="node">
<title>Node2</title>
<g id="a_node2"><a xlink:title=" ">
<polygon fill="white" stroke="#bfbfbf" points="0,-89.5 0,-108.5 29,-108.5 29,-89.5 0,-89.5"/>
<text text-anchor="middle" x="14.5" y="-96.5" font-family="Helvetica,sans-Serif" font-size="10.00">T</text>
</a>
</g>
</g>
<!-- Node2&#45;&gt;Node1 -->
<g id="edge1" class="edge">
<title>Node2&#45;&gt;Node1</title>
<path fill="none" stroke="midnightblue" d="M25.06,-80.55C32.09,-68.94 41.32,-53.69 48.6,-41.66"/>
<polygon fill="midnightblue" stroke="midnightblue" points="21.96,-78.91 19.78,-89.28 27.95,-82.54 21.96,-78.91"/>
</g>
<!-- Node3 -->
<g id="node3" class="node">
<title>Node3</title>
<g id="a_node3"><a xlink:href="structmatplotlibcpp_1_1detail_1_1is__callable__impl_3_01true_00_01_t_01_4_1_1_fallback.html" target="_top" xlink:title=" ">
<polygon fill="white" stroke="black" points="47.5,-78.5 47.5,-119.5 167.5,-119.5 167.5,-78.5 47.5,-78.5"/>
<text text-anchor="start" x="55.5" y="-107.5" font-family="Helvetica,sans-Serif" font-size="10.00">matplotlibcpp::detail</text>
<text text-anchor="start" x="55.5" y="-96.5" font-family="Helvetica,sans-Serif" font-size="10.00">::is_callable_impl&lt; true,</text>
<text text-anchor="middle" x="107.5" y="-85.5" font-family="Helvetica,sans-Serif" font-size="10.00"> T &gt;::Fallback</text>
</a>
</g>
</g>
<!-- Node3&#45;&gt;Node1 -->
<g id="edge2" class="edge">
<title>Node3&#45;&gt;Node1</title>
<path fill="none" stroke="midnightblue" d="M90.03,-69.76C84.22,-60.35 77.88,-50.1 72.56,-41.51"/>
<polygon fill="midnightblue" stroke="midnightblue" points="87.16,-71.76 95.4,-78.43 93.11,-68.08 87.16,-71.76"/>
</g>
</g>
</svg>
